<?xml version="1.0" encoding="utf-8"?>
<!-- Generator: Adobe Illustrator 22.1.0, SVG Export Plug-In . SVG Version: 6.00 Build 0)  -->
<svg version="1.1" id="레이어_1" xmlns="http://www.w3.org/2000/svg" xmlns:xlink="http://www.w3.org/1999/xlink" x="0px"
	 y="0px" viewBox="0 0 144 256" style="enable-background:new 0 0 144 256;" xml:space="preserve">
<style type="text/css">
	.st0{fill:#EFEFEF;}
	.st1{fill:#F8F8F8;stroke:#C7C7C7;stroke-width:0.75;stroke-miterlimit:10;}
	.st2{clip-path:url(#SVGID_2_);}
	.st3{clip-path:url(#SVGID_4_);}
	.st4{clip-path:url(#SVGID_6_);fill:#6C00B7;}
	.st5{filter:url(#Adobe_OpacityMaskFilter);}
	.st6{clip-path:url(#SVGID_8_);fill:url(#SVGID_10_);}
	.st7{clip-path:url(#SVGID_8_);mask:url(#SVGID_9_);fill:url(#SVGID_11_);}
	.st8{clip-path:url(#SVGID_13_);fill:#6C00B7;}
	.st9{clip-path:url(#SVGID_13_);fill:#1B314E;}
	.st10{filter:url(#Adobe_OpacityMaskFilter_1_);}
	.st11{clip-path:url(#SVGID_15_);fill:url(#SVGID_17_);}
	.st12{clip-path:url(#SVGID_15_);mask:url(#SVGID_16_);fill:url(#SVGID_18_);}
	.st13{clip-path:url(#SVGID_20_);}
	.st14{clip-path:url(#SVGID_22_);}
	.st15{clip-path:url(#SVGID_24_);fill:url(#SVGID_25_);}
	.st16{clip-path:url(#SVGID_27_);fill:#FFFFFF;}
	.st17{filter:url(#Adobe_OpacityMaskFilter_2_);}
	.st18{clip-path:url(#SVGID_29_);fill:url(#SVGID_31_);}
	.st19{clip-path:url(#SVGID_29_);mask:url(#SVGID_30_);fill:url(#SVGID_32_);}
	.st20{opacity:0.8;fill:#6C00B6;}
	.st21{fill:#7F7F7F;}
	.st22{fill:#FF3939;}
	.st23{fill:#333333;}
	.st24{fill:#FFFFFF;stroke:#C8C8C8;stroke-width:0.75;stroke-miterlimit:10;}
	.st25{fill:#7C58BF;}
	.st26{fill:#FFFFFF;}
	.st27{fill:none;stroke:#7C58BF;stroke-miterlimit:10;}
</style>
<g>
	<rect class="st0" width="144" height="256"/>
	<rect x="5.4" y="23.7" class="st1" width="133.2" height="217.7"/>
	<g>
		<g>
			<g id="아트웍_4_19_">
				<g>
					<defs>
						<rect id="SVGID_1_" x="24.4" y="8.7" width="47" height="8.1"/>
					</defs>
					<clipPath id="SVGID_2_">
						<use xlink:href="#SVGID_1_"  style="overflow:visible;"/>
					</clipPath>
					<g class="st2">
						<defs>
							<rect id="SVGID_3_" x="24.4" y="8.7" width="47" height="8.1"/>
						</defs>
						<clipPath id="SVGID_4_">
							<use xlink:href="#SVGID_3_"  style="overflow:visible;"/>
						</clipPath>
						<g class="st3">
							<defs>
								<rect id="SVGID_5_" x="24.4" y="8.7" width="47" height="8.1"/>
							</defs>
							<clipPath id="SVGID_6_">
								<use xlink:href="#SVGID_5_"  style="overflow:visible;"/>
							</clipPath>
							<path class="st4" d="M71.5,10.1l-2,4.7c-0.7,1.5-1.3,2-2.5,2h-0.6v-1.4h0.5c0.6,0,0.8-0.2,1.1-0.8l-2-4.5h1.7l1.2,2.7
								l1.1-2.7H71.5z"/>
						</g>
						<g class="st3">
							<defs>
								<path id="SVGID_7_" d="M61.3,12.5c0,0-0.5,1.1-0.9,1.6c0,0,0.3,0.3,0.4,0.4c0,0,0,0,0,0c0,0,0,0,0,0c0.5,0.4,1,0.6,1.7,0.6
									c0,0,0,0,0,0v-1.5c-0.6,0-1.1-0.5-1.1-1.1c0-0.3,0.1-0.6,0.3-0.7C61.6,12,61.5,12.2,61.3,12.5"/>
							</defs>
							<clipPath id="SVGID_8_">
								<use xlink:href="#SVGID_7_"  style="overflow:visible;"/>
							</clipPath>
							<defs>
								<filter id="Adobe_OpacityMaskFilter" filterUnits="userSpaceOnUse" x="59.3" y="11.1" width="4.4" height="4.8">
									<feColorMatrix  type="matrix" values="1 0 0 0 0  0 1 0 0 0  0 0 1 0 0  0 0 0 1 0"/>
								</filter>
							</defs>
							<mask maskUnits="userSpaceOnUse" x="59.3" y="11.1" width="4.4" height="4.8" id="SVGID_9_">
								<g class="st5">
									
										<linearGradient id="SVGID_10_" gradientUnits="userSpaceOnUse" x1="-316.2646" y1="397.1023" x2="-315.76" y2="397.1023" gradientTransform="matrix(5.8878 2.3134 2.3215 -5.8674 1000.2484 3074.5266)">
										<stop  offset="0" style="stop-color:#000000"/>
										<stop  offset="2.168548e-02" style="stop-color:#101010"/>
										<stop  offset="0.1045" style="stop-color:#474747"/>
										<stop  offset="0.19" style="stop-color:#787878"/>
										<stop  offset="0.2764" style="stop-color:#A2A2A2"/>
										<stop  offset="0.3641" style="stop-color:#C3C3C3"/>
										<stop  offset="0.4531" style="stop-color:#DEDEDE"/>
										<stop  offset="0.5442" style="stop-color:#F0F0F0"/>
										<stop  offset="0.6388" style="stop-color:#FBFBFB"/>
										<stop  offset="0.742" style="stop-color:#FFFFFF"/>
										<stop  offset="1" style="stop-color:#FFFFFF"/>
									</linearGradient>
									<polygon class="st6" points="60.7,11.1 63.7,12.3 62.3,15.9 59.3,14.7 									"/>
								</g>
							</mask>
							
								<linearGradient id="SVGID_11_" gradientUnits="userSpaceOnUse" x1="-316.2646" y1="397.1022" x2="-315.76" y2="397.1022" gradientTransform="matrix(5.8878 2.3134 2.3215 -5.8674 1000.2484 3074.5261)">
								<stop  offset="0" style="stop-color:#FFFFFF"/>
								<stop  offset="2.168548e-02" style="stop-color:#F6EFFB"/>
								<stop  offset="0.1045" style="stop-color:#D6B8EB"/>
								<stop  offset="0.19" style="stop-color:#BA87DD"/>
								<stop  offset="0.2764" style="stop-color:#A25DD1"/>
								<stop  offset="0.3641" style="stop-color:#8E3CC8"/>
								<stop  offset="0.4531" style="stop-color:#7F21C0"/>
								<stop  offset="0.5442" style="stop-color:#740FBB"/>
								<stop  offset="0.6388" style="stop-color:#6E04B8"/>
								<stop  offset="0.742" style="stop-color:#6C00B7"/>
								<stop  offset="1" style="stop-color:#6C00B7"/>
							</linearGradient>
							<polygon class="st7" points="60.7,11.1 63.7,12.3 62.3,15.9 59.3,14.7 							"/>
						</g>
						<g class="st3">
							<defs>
								<rect id="SVGID_12_" x="24.4" y="8.7" width="47" height="8.1"/>
							</defs>
							<clipPath id="SVGID_13_">
								<use xlink:href="#SVGID_12_"  style="overflow:visible;"/>
							</clipPath>
							<path class="st8" d="M64.2,10.1l-0.2,0.3c-0.4-0.3-1-0.5-1.5-0.5c0,0,0,0-0.1,0c0,0-0.1,0-0.1,0c0,0-0.1,0-0.1,0
								c0,0-0.1,0-0.1,0c-0.7,0.1-1.4,0.5-1.8,1.2c0,0-0.7,1.3-1.2,2c0,0,0,0,0,0.1c-0.1,0.1-0.3,0.3-0.5,0.3c0,0,0,0,0,0
								c0,0,0,0,0,0c0,0-0.1,0-0.1,0c0,0,0,0,0,0c0,0-0.1,0-0.1,0c-0.2,0-0.3,0-0.5-0.1c-0.5-0.2-0.7-0.7-0.6-1.2
								c0.1-0.5,0.6-0.8,1.1-0.8l0,0c0.4,0,0.7,0.1,0.9,0.3l0.7-1.3c-0.3-0.3-0.7-0.4-1.1-0.5c-0.7-0.1-1.3,0-1.9,0.3l-0.1-0.2h-1.3
								v6.6h1.7V15c0.4,0.2,0.8,0.2,1.2,0.2c0.8,0,1.5-0.4,2-1.1v0c0.4-0.5,0.9-1.6,0.9-1.6c0.1-0.2,0.2-0.4,0.4-0.6
								c0,0,0,0,0.1-0.1c0,0,0,0,0,0c0.2-0.2,0.5-0.3,0.8-0.3c0.6,0,1.1,0.5,1.1,1.1c0,0.6-0.5,1.1-1.1,1.1v1.5c0,0,0,0,0,0v0
								c0.6,0,1.1-0.2,1.5-0.5l0.1,0.3h1.3v-4.9H64.2z"/>
							<path class="st8" d="M29,14h-2.5L26.1,15h-1.6l2.4-6.3h1.7l2.5,6.3h-1.7L29,14z M27.7,10.8L27,12.5h1.4L27.7,10.8z"/>
							<rect x="31.6" y="8.7" class="st8" width="1.7" height="6.3"/>
							<rect x="33.9" y="8.7" class="st8" width="1.7" height="6.3"/>
							<path class="st8" d="M46.5,10.8h1.7V15h-1.7V10.8z M46.5,8.7h1.7v1.5h-1.7V8.7z"/>
							<path class="st8" d="M53.8,11.9V15h-1.7v-2.8c0-0.6-0.3-0.9-0.7-0.9c-0.5,0-0.8,0.4-0.8,1V15h-1.7V10h1.3l0,0.5
								c0.4-0.4,0.9-0.6,1.7-0.6C53.1,9.9,53.8,10.7,53.8,11.9"/>
							<polyline class="st9" points="42.3,11.4 42.3,11.4 42.3,11.4 							"/>
							<path class="st8" d="M41.1,14c0.4-0.5,0.9-1.6,0.9-1.6c0.1-0.2,0.2-0.4,0.4-0.6c0,0,0,0,0.1-0.1c0,0,0,0,0,0c0,0,0,0,0,0
								c0.2-0.2,0.5-0.3,0.8-0.3c0.6,0,1.1,0.5,1.1,1.1c0,0.6-0.5,1.1-1.1,1.1v1.5c0,0,0,0,0,0c1.3,0,2.4-0.9,2.6-2.1
								c0,0,0-0.1,0-0.1c0,0,0-0.1,0-0.1c0,0,0-0.1,0-0.1c0,0,0,0,0-0.1c0,0,0,0,0,0c0,0,0-0.1,0-0.1c0,0,0,0,0,0c0,0,0,0,0,0
								c0,0,0,0,0,0c0-0.7-0.4-1.5-1-2c-0.5-0.4-1.1-0.6-1.7-0.6c0,0,0,0-0.1,0c0,0-0.1,0-0.1,0c0,0-0.1,0-0.1,0c0,0-0.1,0-0.1,0
								c-0.7,0.1-1.4,0.5-1.8,1.3c0,0-0.7,1.4-1.2,2c0,0,0,0,0,0.1c0,0,0,0,0,0c0,0,0,0,0,0c-0.1,0.2-0.3,0.3-0.5,0.3c0,0,0,0,0,0
								c0,0,0,0,0,0c0,0-0.1,0-0.1,0c0,0,0,0,0,0c0,0-0.1,0-0.1,0c0,0,0,0,0,0c0,0,0,0,0,0c-0.2,0-0.3,0-0.5-0.1
								c-0.5-0.2-0.8-0.7-0.6-1.3c0.1-0.5,0.6-0.9,1.1-0.8l0,0c0.4,0,0.7,0.1,1,0.3l0.7-1.3c-0.3-0.3-0.7-0.4-1.1-0.5
								c-1.6-0.3-3,0.7-3.2,2.3c-0.2,1.6,1.2,3.1,2.8,3C39.9,15.1,40.6,14.7,41.1,14"/>
						</g>
						<g class="st3">
							<defs>
								<path id="SVGID_14_" d="M42,12.4c0,0-0.5,1.1-0.9,1.6c0,0,0.3,0.3,0.4,0.5c0,0,0,0,0,0c0,0,0,0,0,0c0.5,0.4,1.1,0.6,1.7,0.6
									c0,0,0,0,0,0v-1.5c-0.6,0-1.1-0.5-1.1-1.1c0-0.3,0.1-0.6,0.3-0.8C42.3,11.9,42.1,12.1,42,12.4"/>
							</defs>
							<clipPath id="SVGID_15_">
								<use xlink:href="#SVGID_14_"  style="overflow:visible;"/>
							</clipPath>
							<defs>
								<filter id="Adobe_OpacityMaskFilter_1_" filterUnits="userSpaceOnUse" x="39.9" y="11" width="4.5" height="4.9">
									<feColorMatrix  type="matrix" values="1 0 0 0 0  0 1 0 0 0  0 0 1 0 0  0 0 0 1 0"/>
								</filter>
							</defs>
							<mask maskUnits="userSpaceOnUse" x="39.9" y="11" width="4.5" height="4.9" id="SVGID_16_">
								<g class="st10">
									
										<linearGradient id="SVGID_17_" gradientUnits="userSpaceOnUse" x1="-341.1552" y1="374.8846" x2="-340.6506" y2="374.8846" gradientTransform="matrix(6.0743 2.3867 2.395 -6.0532 1215.0519 3096.3088)">
										<stop  offset="0" style="stop-color:#000000"/>
										<stop  offset="2.168548e-02" style="stop-color:#101010"/>
										<stop  offset="0.1045" style="stop-color:#474747"/>
										<stop  offset="0.19" style="stop-color:#787878"/>
										<stop  offset="0.2764" style="stop-color:#A2A2A2"/>
										<stop  offset="0.3641" style="stop-color:#C3C3C3"/>
										<stop  offset="0.4531" style="stop-color:#DEDEDE"/>
										<stop  offset="0.5442" style="stop-color:#F0F0F0"/>
										<stop  offset="0.6388" style="stop-color:#FBFBFB"/>
										<stop  offset="0.742" style="stop-color:#FFFFFF"/>
										<stop  offset="1" style="stop-color:#FFFFFF"/>
									</linearGradient>
									<polygon class="st11" points="41.4,11 44.4,12.2 43,15.9 39.9,14.7 									"/>
								</g>
							</mask>
							
								<linearGradient id="SVGID_18_" gradientUnits="userSpaceOnUse" x1="-341.1552" y1="374.8845" x2="-340.6507" y2="374.8845" gradientTransform="matrix(6.0743 2.3867 2.395 -6.0532 1215.0525 3096.3091)">
								<stop  offset="0" style="stop-color:#FFFFFF"/>
								<stop  offset="2.168548e-02" style="stop-color:#F6EFFB"/>
								<stop  offset="0.1045" style="stop-color:#D6B8EB"/>
								<stop  offset="0.19" style="stop-color:#BA87DD"/>
								<stop  offset="0.2764" style="stop-color:#A25DD1"/>
								<stop  offset="0.3641" style="stop-color:#8E3CC8"/>
								<stop  offset="0.4531" style="stop-color:#7F21C0"/>
								<stop  offset="0.5442" style="stop-color:#740FBB"/>
								<stop  offset="0.6388" style="stop-color:#6E04B8"/>
								<stop  offset="0.742" style="stop-color:#6C00B7"/>
								<stop  offset="1" style="stop-color:#6C00B7"/>
							</linearGradient>
							<polygon class="st12" points="41.4,11 44.4,12.2 43,15.9 39.9,14.7 							"/>
						</g>
					</g>
				</g>
			</g>
		</g>
		<g id="아트웍_9_19_">
			<g>
				<defs>
					<rect id="SVGID_19_" x="7.8" y="5.7" width="13.7" height="13.7"/>
				</defs>
				<clipPath id="SVGID_20_">
					<use xlink:href="#SVGID_19_"  style="overflow:visible;"/>
				</clipPath>
				<g class="st13">
					<defs>
						<rect id="SVGID_21_" x="7.8" y="5.7" width="13.7" height="13.7"/>
					</defs>
					<clipPath id="SVGID_22_">
						<use xlink:href="#SVGID_21_"  style="overflow:visible;"/>
					</clipPath>
					<g class="st14">
						<defs>
							<path id="SVGID_23_" d="M11.6,5.7c-2.1,0-3.8,1.7-3.8,3.8v6.1c0,2.1,1.7,3.8,3.8,3.8h6.1c2.1,0,3.8-1.7,3.8-3.8V9.5
								c0-2.1-1.7-3.8-3.8-3.8H11.6z"/>
						</defs>
						<clipPath id="SVGID_24_">
							<use xlink:href="#SVGID_23_"  style="overflow:visible;"/>
						</clipPath>
						
							<linearGradient id="SVGID_25_" gradientUnits="userSpaceOnUse" x1="-1176.296" y1="-210.3201" x2="-1175.8219" y2="-210.3201" gradientTransform="matrix(28.9672 28.8668 28.9672 -28.8668 40174.0938 27890.3789)">
							<stop  offset="0" style="stop-color:#00B7B2"/>
							<stop  offset="0.2662" style="stop-color:#2677B4"/>
							<stop  offset="0.5101" style="stop-color:#4444B5"/>
							<stop  offset="0.7214" style="stop-color:#5A1FB6"/>
							<stop  offset="0.8918" style="stop-color:#6708B7"/>
							<stop  offset="1" style="stop-color:#6C00B7"/>
						</linearGradient>
						<polygon class="st15" points="14.6,-1.1 28.3,12.5 14.6,26.2 0.9,12.5 						"/>
					</g>
					<g class="st14">
						<defs>
							<rect id="SVGID_26_" x="7.8" y="5.7" width="13.7" height="13.7"/>
						</defs>
						<clipPath id="SVGID_27_">
							<use xlink:href="#SVGID_26_"  style="overflow:visible;"/>
						</clipPath>
						<path class="st16" d="M14.6,14.1c0.4-0.6,1-1.7,1-1.7c0.1-0.2,0.3-0.5,0.4-0.6c0,0,0-0.1,0.1-0.1c0,0,0,0,0,0c0,0,0,0,0,0
							c0.2-0.2,0.5-0.4,0.8-0.4c0.6,0,1.2,0.5,1.2,1.2c0,0.6-0.5,1.2-1.2,1.2v1.6c0,0,0,0,0,0c1.3,0,2.4-0.9,2.7-2.2
							c0,0,0-0.1,0-0.1c0,0,0-0.1,0-0.1c0,0,0-0.1,0-0.1c0,0,0,0,0-0.1c0,0,0,0,0,0c0,0,0-0.1,0-0.1c0,0,0,0,0,0c0,0,0,0,0,0
							c0,0,0,0,0,0c0-0.8-0.4-1.5-1-2c-0.5-0.4-1.1-0.6-1.8-0.6c0,0,0,0-0.1,0c0,0-0.1,0-0.1,0c0,0-0.1,0-0.1,0c0,0-0.1,0-0.1,0
							c-0.8,0.1-1.4,0.5-1.9,1.3c0,0-0.7,1.4-1.2,2.1c0,0,0,0,0,0.1c0,0,0,0,0,0c0,0,0,0,0,0c-0.1,0.2-0.3,0.3-0.5,0.3c0,0,0,0,0,0
							c0,0,0,0,0,0c0,0-0.1,0-0.1,0l0,0c0,0-0.1,0-0.1,0c0,0,0,0,0,0c0,0,0,0,0,0c-0.2,0-0.3,0-0.5-0.1c-0.5-0.2-0.8-0.8-0.7-1.3
							c0.1-0.5,0.6-0.9,1.1-0.9l0,0c0.4,0,0.8,0.1,1,0.3l0.7-1.4c-0.3-0.3-0.7-0.5-1.1-0.5c-1.6-0.3-3.1,0.7-3.3,2.4
							c-0.2,1.7,1.2,3.2,2.9,3.1C13.4,15.3,14.2,14.9,14.6,14.1"/>
					</g>
					<g class="st14">
						<defs>
							<path id="SVGID_28_" d="M15.6,12.4c0,0-0.6,1.1-1,1.7c0,0,0.3,0.3,0.4,0.5c0,0,0,0,0,0c0,0,0,0,0,0c0.5,0.4,1.1,0.7,1.8,0.7
								c0,0,0,0,0,0v-1.6c-0.6,0-1.2-0.5-1.2-1.2c0-0.3,0.1-0.6,0.3-0.8C15.9,11.9,15.7,12.2,15.6,12.4"/>
						</defs>
						<clipPath id="SVGID_29_">
							<use xlink:href="#SVGID_28_"  style="overflow:visible;"/>
						</clipPath>
						<defs>
							<filter id="Adobe_OpacityMaskFilter_2_" filterUnits="userSpaceOnUse" x="13.4" y="11" width="4.7" height="5.1">
								<feColorMatrix  type="matrix" values="1 0 0 0 0  0 1 0 0 0  0 0 1 0 0  0 0 0 1 0"/>
							</filter>
						</defs>
						<mask maskUnits="userSpaceOnUse" x="13.4" y="11" width="4.7" height="5.1" id="SVGID_30_">
							<g class="st17">
								
									<linearGradient id="SVGID_31_" gradientUnits="userSpaceOnUse" x1="-367.5858" y1="350.9493" x2="-367.0812" y2="350.9493" gradientTransform="matrix(6.2921 2.4723 2.4809 -6.2703 1456.4115 3122.2456)">
									<stop  offset="0" style="stop-color:#000000"/>
									<stop  offset="2.168548e-02" style="stop-color:#101010"/>
									<stop  offset="0.1045" style="stop-color:#474747"/>
									<stop  offset="0.19" style="stop-color:#787878"/>
									<stop  offset="0.2764" style="stop-color:#A2A2A2"/>
									<stop  offset="0.3641" style="stop-color:#C3C3C3"/>
									<stop  offset="0.4531" style="stop-color:#DEDEDE"/>
									<stop  offset="0.5442" style="stop-color:#F0F0F0"/>
									<stop  offset="0.6388" style="stop-color:#FBFBFB"/>
									<stop  offset="0.742" style="stop-color:#FFFFFF"/>
									<stop  offset="1" style="stop-color:#FFFFFF"/>
								</linearGradient>
								<polygon class="st18" points="14.9,11 18.1,12.2 16.6,16.1 13.4,14.8 								"/>
							</g>
						</mask>
						
							<linearGradient id="SVGID_32_" gradientUnits="userSpaceOnUse" x1="-367.5858" y1="350.9493" x2="-367.0812" y2="350.9493" gradientTransform="matrix(6.2921 2.4723 2.4809 -6.2703 1456.4115 3122.2456)">
							<stop  offset="0" style="stop-color:#FFFFFF"/>
							<stop  offset="3.322067e-02" style="stop-color:#FFFFFF"/>
							<stop  offset="0.742" style="stop-color:#FFFFFF"/>
							<stop  offset="1" style="stop-color:#FFFFFF"/>
						</linearGradient>
						<polygon class="st19" points="14.9,11 18.1,12.2 16.6,16.1 13.4,14.8 						"/>
					</g>
				</g>
			</g>
		</g>
	</g>
	<g>
		<g>
			<path d="M119.2,11.3c-0.4,1-1.3,1.6-2.6,1.9l-0.2-0.5c1.5-0.3,2.3-1.1,2.4-2h-2.1v-0.5h2.7c0,0.2,0,0.4-0.1,0.6h1.4V10h0.6v3.1
				h-0.6v-0.6h-1.6V12h1.6v-0.7H119.2z M121.5,15.6V16h-4.1v-1.6h3.3v-0.6h-3.3v-0.4h3.9v1.5h-3.3v0.7H121.5z"/>
			<path d="M123.7,11.7c0,1.1,0.5,2.1,1.3,2.6l-0.3,0.4c-0.6-0.4-1-1-1.2-1.8c-0.2,0.8-0.6,1.5-1.2,1.9l-0.3-0.4
				c0.8-0.5,1.3-1.6,1.3-2.7v-0.5h-1.1v-0.5h2.8v0.5h-1.1V11.7z M125.4,10.1h0.5v5.6h-0.5v-3.1h-1v-0.5h1V10.1z M127.1,10v6.1h-0.5
				V10H127.1z"/>
			<path d="M129.7,11h1.5v0.4h-3.6V11h1.5v-0.9h0.6V11z M130.9,13.3c0,0.8-0.6,1.4-1.5,1.4c-0.9,0-1.5-0.6-1.5-1.4
				c0-0.8,0.6-1.4,1.5-1.4C130.3,11.9,130.9,12.5,130.9,13.3z M130.4,13.3c0-0.5-0.4-0.9-1-0.9c-0.5,0-0.9,0.4-0.9,0.9
				c0,0.5,0.4,0.9,0.9,0.9C130,14.2,130.4,13.9,130.4,13.3z M133.3,13h-1v3.1h-0.6V10h0.6v2.5h1V13z"/>
			<path d="M136.6,10.7c0,1.8-0.8,3.3-2.8,4.3l-0.3-0.5c1.6-0.8,2.4-1.9,2.6-3.4h-2.3v-0.4H136.6z M138.3,10v6.1h-0.6V10H138.3z"/>
		</g>
		<ellipse class="st20" cx="112.1" cy="13.1" rx="1.4" ry="1.4"/>
	</g>
	<g>
		<path class="st21" d="M45.3,247.4H46c0.7,0,1.1,0.2,1.1,0.8c0,0.6-0.4,0.9-1.1,0.9h-0.5v1.2h-0.2V247.4z M46,248.9
			c0.6,0,0.9-0.2,0.9-0.7c0-0.5-0.3-0.6-0.9-0.6h-0.5v1.3H46z"/>
		<path class="st21" d="M47.5,249.3c0-0.7,0.5-1.1,1-1.1s1,0.4,1,1.1c0,0.7-0.5,1.1-1,1.1S47.5,250,47.5,249.3z M49.2,249.3
			c0-0.6-0.3-0.9-0.7-0.9c-0.4,0-0.7,0.4-0.7,0.9s0.3,0.9,0.7,0.9C48.9,250.2,49.2,249.8,49.2,249.3z"/>
		<path class="st21" d="M49.9,248.2h0.3l0.4,1.4c0,0.2,0.1,0.4,0.1,0.6h0c0.1-0.2,0.1-0.4,0.2-0.6l0.4-1.4h0.3l0.4,1.4
			c0.1,0.2,0.1,0.4,0.2,0.6h0c0-0.2,0.1-0.4,0.1-0.6l0.4-1.4h0.2l-0.6,2.2h-0.3l-0.4-1.3c-0.1-0.2-0.1-0.4-0.2-0.6h0
			c0,0.2-0.1,0.4-0.2,0.6l-0.4,1.3h-0.3L49.9,248.2z"/>
		<path class="st21" d="M53.3,249.3c0-0.7,0.5-1.1,0.9-1.1c0.5,0,0.8,0.4,0.8,1c0,0.1,0,0.1,0,0.2h-1.5c0,0.5,0.3,0.9,0.8,0.9
			c0.2,0,0.4-0.1,0.6-0.2l0.1,0.2c-0.2,0.1-0.4,0.2-0.7,0.2C53.7,250.4,53.3,250,53.3,249.3z M54.8,249.1c0-0.5-0.2-0.8-0.6-0.8
			c-0.4,0-0.7,0.3-0.7,0.8H54.8z"/>
		<path class="st21" d="M55.7,248.2h0.2l0,0.4h0c0.1-0.3,0.4-0.5,0.6-0.5c0.1,0,0.1,0,0.2,0l0,0.2c-0.1,0-0.1,0-0.2,0
			c-0.2,0-0.4,0.1-0.6,0.5v1.5h-0.2V248.2z"/>
		<path class="st21" d="M57,249.3c0-0.7,0.5-1.1,0.9-1.1c0.5,0,0.8,0.4,0.8,1c0,0.1,0,0.1,0,0.2h-1.5c0,0.5,0.3,0.9,0.8,0.9
			c0.2,0,0.4-0.1,0.6-0.2l0.1,0.2c-0.2,0.1-0.4,0.2-0.7,0.2C57.5,250.4,57,250,57,249.3z M58.6,249.1c0-0.5-0.2-0.8-0.6-0.8
			c-0.4,0-0.7,0.3-0.7,0.8H58.6z"/>
		<path class="st21" d="M59.3,249.3c0-0.7,0.4-1.1,1-1.1c0.3,0,0.4,0.1,0.6,0.3l0-0.4v-0.9h0.2v3.2h-0.2l0-0.3h0
			c-0.2,0.2-0.4,0.3-0.7,0.3C59.7,250.4,59.3,250,59.3,249.3z M60.9,249.9v-1.2c-0.2-0.2-0.4-0.3-0.6-0.3c-0.4,0-0.7,0.4-0.7,0.9
			c0,0.6,0.2,0.9,0.7,0.9C60.5,250.2,60.7,250.1,60.9,249.9z"/>
		<path class="st21" d="M63.3,250.1L63.3,250.1l0,0.2h-0.2v-3.2h0.2v0.9l0,0.4c0.2-0.2,0.5-0.3,0.7-0.3c0.6,0,0.9,0.4,0.9,1.1
			c0,0.7-0.4,1.2-1,1.2C63.7,250.4,63.5,250.3,63.3,250.1z M64.6,249.2c0-0.5-0.2-0.9-0.7-0.9c-0.2,0-0.4,0.1-0.7,0.3v1.2
			c0.2,0.2,0.5,0.3,0.6,0.3C64.3,250.2,64.6,249.8,64.6,249.2z"/>
		<path class="st21" d="M65.3,251.3l0.1-0.2c0,0,0.1,0,0.2,0c0.3,0,0.4-0.2,0.5-0.5l0.1-0.2l-0.9-2.2h0.3l0.5,1.3
			c0.1,0.2,0.1,0.4,0.2,0.6h0c0.1-0.2,0.1-0.4,0.2-0.6l0.4-1.3h0.2l-0.8,2.4c-0.1,0.4-0.3,0.7-0.7,0.7
			C65.4,251.3,65.4,251.3,65.3,251.3z"/>
		<path class="st21" d="M70,249.4h-1.2l-0.3,1h-0.2l1-3h0.3l1,3h-0.3L70,249.4z M70,249.2l-0.2-0.5c-0.1-0.3-0.2-0.7-0.3-1h0
			c-0.1,0.4-0.2,0.7-0.3,1l-0.2,0.5H70z"/>
		<path class="st21" d="M71.2,250v-2.9h0.2v2.9c0,0.1,0,0.1,0.1,0.1c0,0,0,0,0.1,0l0,0.2c0,0-0.1,0-0.2,0
			C71.3,250.4,71.2,250.3,71.2,250z"/>
		<path class="st21" d="M72.3,250v-2.9h0.2v2.9c0,0.1,0,0.1,0.1,0.1c0,0,0,0,0.1,0l0,0.2c0,0-0.1,0-0.2,0
			C72.4,250.4,72.3,250.3,72.3,250z"/>
		<path class="st21" d="M73.3,249.3c0-0.7,0.5-1.1,1-1.1c0.3,0,0.5,0.1,0.6,0.3l-0.1,0.2c-0.1-0.1-0.3-0.2-0.5-0.2
			c-0.4,0-0.8,0.4-0.8,0.9s0.3,0.9,0.8,0.9c0.2,0,0.4-0.1,0.6-0.2l0.1,0.2c-0.2,0.2-0.4,0.3-0.7,0.3C73.8,250.4,73.3,250,73.3,249.3
			z"/>
		<path class="st21" d="M75.4,249.3c0-0.7,0.5-1.1,1-1.1c0.5,0,1,0.4,1,1.1c0,0.7-0.5,1.1-1,1.1C75.8,250.4,75.4,250,75.4,249.3z
			 M77.1,249.3c0-0.6-0.3-0.9-0.7-0.9c-0.4,0-0.7,0.4-0.7,0.9s0.3,0.9,0.7,0.9C76.8,250.2,77.1,249.8,77.1,249.3z"/>
		<path class="st21" d="M78,247.5c0-0.1,0.1-0.2,0.2-0.2c0.1,0,0.2,0.1,0.2,0.2c0,0.1-0.1,0.2-0.2,0.2C78.1,247.7,78,247.6,78,247.5
			z M78.1,248.2h0.2v2.2h-0.2V248.2z"/>
		<path class="st21" d="M79.2,248.2h0.2l0,0.3h0c0.2-0.2,0.4-0.4,0.7-0.4c0.4,0,0.7,0.3,0.7,0.8v1.4h-0.2V249c0-0.5-0.1-0.7-0.5-0.7
			c-0.3,0-0.4,0.1-0.7,0.4v1.6h-0.2V248.2z"/>
		<path class="st21" d="M82.7,247.4h0.8c0.7,0,1.1,0.2,1.1,0.8c0,0.6-0.4,0.9-1.1,0.9H83v1.2h-0.2V247.4z M83.5,248.9
			c0.6,0,0.9-0.2,0.9-0.7c0-0.5-0.3-0.6-0.9-0.6H83v1.3H83.5z"/>
		<path class="st21" d="M84.9,249.8c0-0.5,0.4-0.7,1.4-0.8c0-0.3-0.1-0.7-0.5-0.7c-0.3,0-0.5,0.1-0.7,0.2l-0.1-0.2
			c0.2-0.1,0.5-0.3,0.8-0.3c0.5,0,0.7,0.4,0.7,0.8v1.4h-0.2l0-0.3h0c-0.2,0.2-0.5,0.3-0.8,0.3C85.2,250.4,84.9,250.2,84.9,249.8z
			 M86.3,249.9v-0.7c-0.9,0.1-1.1,0.3-1.1,0.6c0,0.3,0.2,0.4,0.4,0.4C85.8,250.2,86.1,250.1,86.3,249.9z"/>
		<path class="st21" d="M87.1,251.3l0.1-0.2c0,0,0.1,0,0.2,0c0.3,0,0.4-0.2,0.5-0.5l0.1-0.2l-0.9-2.2h0.3l0.5,1.3
			c0.1,0.2,0.1,0.4,0.2,0.6h0c0.1-0.2,0.1-0.4,0.2-0.6l0.4-1.3h0.2l-0.8,2.4c-0.1,0.4-0.3,0.7-0.7,0.7
			C87.3,251.3,87.2,251.3,87.1,251.3z"/>
		<path class="st21" d="M89.5,248.2h0.2l0,0.3h0c0.2-0.2,0.4-0.4,0.7-0.4c0.3,0,0.5,0.2,0.6,0.4c0.2-0.3,0.5-0.4,0.7-0.4
			c0.4,0,0.6,0.3,0.6,0.8v1.4h-0.2V249c0-0.5-0.1-0.7-0.5-0.7c-0.2,0-0.4,0.1-0.6,0.4v1.6h-0.2V249c0-0.5-0.1-0.7-0.5-0.7
			c-0.2,0-0.4,0.1-0.6,0.4v1.6h-0.2V248.2z"/>
		<path class="st21" d="M93.1,249.3c0-0.7,0.5-1.1,0.9-1.1c0.5,0,0.8,0.4,0.8,1c0,0.1,0,0.1,0,0.2h-1.5c0,0.5,0.3,0.9,0.8,0.9
			c0.2,0,0.4-0.1,0.6-0.2l0.1,0.2c-0.2,0.1-0.4,0.2-0.7,0.2C93.5,250.4,93.1,250,93.1,249.3z M94.6,249.1c0-0.5-0.2-0.8-0.6-0.8
			c-0.4,0-0.7,0.3-0.7,0.8H94.6z"/>
		<path class="st21" d="M95.5,248.2h0.2l0,0.3h0c0.2-0.2,0.4-0.4,0.7-0.4c0.4,0,0.7,0.3,0.7,0.8v1.4h-0.2V249c0-0.5-0.1-0.7-0.5-0.7
			c-0.3,0-0.4,0.1-0.7,0.4v1.6h-0.2V248.2z"/>
		<path class="st21" d="M98.1,249.7v-1.3h-0.3v-0.2l0.3,0l0-0.6h0.2v0.6h0.6v0.2h-0.6v1.4c0,0.3,0.1,0.5,0.4,0.5
			c0.1,0,0.2,0,0.3-0.1l0.1,0.2c-0.1,0-0.3,0.1-0.4,0.1C98.2,250.4,98.1,250.1,98.1,249.7z"/>
	</g>
	<g>
		<g>
			<path d="M11.1,30v1.7H13V30h0.6v4.4h-3V30H11.1z M11.1,33.9H13v-1.7h-1.9V33.9z M15.5,29.5v6.5h-0.6v-6.5H15.5z"/>
			<path d="M22.1,34.6v0.5h-5.9v-0.5H22.1z M21.5,33.4H17V30h4.4v0.5h-3.8v1h3.6v0.5h-3.6v1h3.8V33.4z"/>
			<path d="M28.2,34.6V35h-5.8v-0.5h2.3v-1.7h0.6v1.7H28.2z M26.9,31.6c0-0.3,0-0.6,0-0.9v-0.1h-3.9v-0.5h4.1l0.3,0v0.6
				c0,0.8,0,1.7-0.3,3l-0.6-0.1c0.1-0.6,0.2-1.1,0.2-1.5L23,32.3l-0.1-0.5L26.9,31.6z"/>
			<path d="M30.3,33.1c-1,0-1.7-0.7-1.7-1.6c0-0.9,0.7-1.6,1.7-1.6c1,0,1.7,0.7,1.7,1.6C32,32.4,31.2,33.1,30.3,33.1z M30.3,32.6
				c0.6,0,1.1-0.4,1.1-1.1c0-0.6-0.5-1.1-1.1-1.1c-0.6,0-1.1,0.4-1.1,1.1C29.2,32.1,29.6,32.6,30.3,32.6z M33.9,35.3v0.5h-4.4v-2.1
				h0.6v1.6H33.9z M33.7,34.2h-0.6v-4.7h0.6V34.2z"/>
			<path d="M39.1,30.9c-0.4,1-1.4,1.7-2.8,2l-0.2-0.5c1.6-0.4,2.5-1.1,2.6-2.2h-2.2v-0.5h2.9c0,0.2,0,0.4-0.1,0.6h1.5v-0.9h0.6v3.3
				h-0.6v-0.7H39v-0.5h1.7v-0.8H39.1z M41.5,35.4v0.5h-4.4v-1.7h3.6v-0.7h-3.6v-0.5h4.2v1.6h-3.6v0.8H41.5z"/>
			<path d="M44,31.3c0,1.1,0.5,2.3,1.4,2.8L45,34.5c-0.6-0.4-1.1-1.1-1.3-1.9c-0.2,0.9-0.7,1.6-1.3,2L42,34.2
				c0.9-0.5,1.4-1.7,1.4-2.9v-0.6h-1.2v-0.5h2.9v0.5H44V31.3z M45.7,29.6h0.6v6h-0.6v-3.3h-1.1v-0.5h1.1V29.6z M47.6,29.5v6.5H47
				v-6.5H47.6z"/>
		</g>
	</g>
	<g>
		<path class="st22" d="M10.7,48.7h0.9V46h-0.7v-0.4c0.4-0.1,0.6-0.2,0.9-0.3h0.5v3.5H13v0.5h-2.3V48.7z"/>
		<path class="st22" d="M13.4,47.2c0-1.4,0.5-2,1.3-2c0.8,0,1.3,0.7,1.3,2c0,1.4-0.5,2.1-1.3,2.1C14,49.3,13.4,48.6,13.4,47.2z
			 M15.4,47.2c0-1.1-0.3-1.6-0.7-1.6S14,46.1,14,47.2c0,1.2,0.3,1.6,0.7,1.6S15.4,48.4,15.4,47.2z"/>
		<path class="st22" d="M16.4,50c0.4-0.2,0.6-0.4,0.6-0.7c0,0,0,0-0.1,0c-0.2,0-0.4-0.1-0.4-0.4c0-0.2,0.2-0.4,0.4-0.4
			c0.3,0,0.5,0.3,0.5,0.7c0,0.6-0.3,1-0.9,1.2L16.4,50z"/>
		<path class="st22" d="M17.9,47.2c0-1.4,0.5-2,1.3-2c0.8,0,1.3,0.7,1.3,2c0,1.4-0.5,2.1-1.3,2.1C18.4,49.3,17.9,48.6,17.9,47.2z
			 M19.8,47.2c0-1.1-0.3-1.6-0.7-1.6s-0.7,0.4-0.7,1.6c0,1.2,0.3,1.6,0.7,1.6S19.8,48.4,19.8,47.2z"/>
		<path class="st22" d="M20.8,47.2c0-1.4,0.5-2,1.3-2c0.8,0,1.3,0.7,1.3,2c0,1.4-0.5,2.1-1.3,2.1C21.3,49.3,20.8,48.6,20.8,47.2z
			 M22.8,47.2c0-1.1-0.3-1.6-0.7-1.6c-0.4,0-0.7,0.4-0.7,1.6c0,1.2,0.3,1.6,0.7,1.6C22.5,48.8,22.8,48.4,22.8,47.2z"/>
		<path class="st22" d="M23.8,47.2c0-1.4,0.5-2,1.3-2c0.8,0,1.3,0.7,1.3,2c0,1.4-0.5,2.1-1.3,2.1C24.3,49.3,23.8,48.6,23.8,47.2z
			 M25.7,47.2c0-1.1-0.3-1.6-0.7-1.6c-0.4,0-0.7,0.4-0.7,1.6c0,1.2,0.3,1.6,0.7,1.6C25.4,48.8,25.7,48.4,25.7,47.2z"/>
		<path class="st22" d="M28,45.3h0.6v1.9h0l1.5-1.9h0.7l-1.2,1.5l1.4,2.4h-0.7l-1.1-1.9L28.7,48v1.2H28V45.3z"/>
		<path class="st22" d="M33.7,49.2l-0.9-1.6h-0.6v1.6h-0.6v-4h1.3c0.8,0,1.4,0.3,1.4,1.2c0,0.6-0.3,1-0.8,1.1l1,1.7H33.7z
			 M32.1,47.1h0.6c0.6,0,0.9-0.2,0.9-0.7s-0.3-0.6-0.9-0.6h-0.6V47.1z"/>
		<path class="st22" d="M34.5,45.3h0.6l0.4,2.1l0.2,1.3h0c0.1-0.4,0.2-0.9,0.3-1.3l0.5-2.1h0.6l0.5,2.1c0.1,0.4,0.2,0.8,0.3,1.3h0
			c0.1-0.4,0.1-0.9,0.2-1.3l0.4-2.1h0.6l-0.8,4h-0.8L37,47c-0.1-0.3-0.1-0.6-0.2-0.9h0c-0.1,0.3-0.1,0.6-0.2,0.9l-0.5,2.2h-0.8
			L34.5,45.3z"/>
		<path class="st23" d="M43.8,46.9v0.4h-4.4v-0.4H43.8z M39.9,45.7c0-0.5,0.6-0.8,1.7-0.8c1.1,0,1.7,0.3,1.7,0.8s-0.6,0.8-1.7,0.8
			C40.5,46.6,39.9,46.3,39.9,45.7z M40.4,49.2h3v0.3h-3.4v-1.2h2.8V48h-2.9v-0.3h3.3v1.1h-2.8V49.2z M40.3,45.7
			c0,0.3,0.5,0.5,1.2,0.5c0.8,0,1.2-0.2,1.2-0.5c0-0.3-0.5-0.5-1.2-0.5C40.8,45.2,40.3,45.4,40.3,45.7z"/>
		<path class="st23" d="M47.4,45.8c-0.3,0.8-1,1.3-2.1,1.5L45.1,47c1.2-0.3,1.9-0.9,1.9-1.6h-1.7V45h2.2c0,0.2,0,0.3,0,0.5h1.1v-0.7
			H49v2.5h-0.4v-0.5h-1.3v-0.3h1.3v-0.6H47.4z M49.2,49.2v0.4h-3.3v-1.2h2.7v-0.5h-2.7v-0.4H49v1.2h-2.7v0.6H49.2z"/>
		<path class="st23" d="M51,46.2c0,0.8,0.4,1.7,1,2.1l-0.3,0.3c-0.5-0.3-0.8-0.8-1-1.4c-0.2,0.7-0.5,1.2-1,1.5l-0.3-0.3
			c0.7-0.4,1.1-1.3,1.1-2.2v-0.4h-0.9v-0.4h2.2v0.4H51V46.2z M52.3,44.9h0.4v4.5h-0.4v-2.5h-0.8v-0.4h0.8V44.9z M53.7,44.8v4.8h-0.4
			v-4.8H53.7z"/>
		<path class="st23" d="M55.8,45.6H57v0.4h-2.9v-0.4h1.2v-0.7h0.4V45.6z M56.8,47.5c0,0.7-0.5,1.1-1.2,1.1c-0.7,0-1.2-0.5-1.2-1.1
			c0-0.7,0.5-1.1,1.2-1.1C56.3,46.3,56.8,46.8,56.8,47.5z M56.4,47.5c0-0.4-0.3-0.8-0.8-0.8c-0.4,0-0.8,0.3-0.8,0.8
			c0,0.4,0.3,0.7,0.8,0.7C56,48.2,56.4,47.9,56.4,47.5z M58.7,47.2h-0.8v2.5h-0.4v-4.8h0.4v2h0.8V47.2z"/>
		<path class="st23" d="M61.3,45.3c0,1.4-0.6,2.6-2.3,3.4l-0.2-0.4c1.3-0.6,1.9-1.6,2-2.7H59v-0.4H61.3z M62.7,44.8v4.8h-0.4v-4.8
			H62.7z"/>
		<path class="st23" d="M67.6,47.6c-0.5,0.1-0.9,0.1-1.4,0.2v1.7h-0.4v-1.7c-0.5,0-0.9,0-1.3,0l-0.1-0.4c0.9,0,2.1,0,3.2-0.2
			L67.6,47.6z M64.8,46c0-0.6,0.5-1,1.2-1c0.7,0,1.2,0.4,1.2,1c0,0.6-0.5,1-1.2,1C65.3,47,64.8,46.6,64.8,46z M65.2,46
			c0,0.4,0.3,0.6,0.8,0.6c0.5,0,0.8-0.3,0.8-0.6c0-0.4-0.3-0.6-0.8-0.6C65.5,45.4,65.2,45.6,65.2,46z M68.4,44.8v4.8h-0.4v-4.8H68.4
			z"/>
		<path class="st23" d="M70.4,45.6h1V46H69v-0.4h1v-0.7h0.4V45.6z M71.2,47.4c0,0.7-0.4,1.1-1,1.1s-1-0.4-1-1.1c0-0.6,0.4-1.1,1-1.1
			S71.2,46.8,71.2,47.4z M70.8,47.4c0-0.4-0.3-0.7-0.6-0.7c-0.4,0-0.6,0.3-0.6,0.7c0,0.4,0.3,0.7,0.6,0.7
			C70.5,48.2,70.8,47.8,70.8,47.4z M73.1,44.8v4.8h-0.4v-2.4H72v2.2h-0.4v-4.5H72v1.9h0.6v-2H73.1z"/>
		<path class="st23" d="M13,56.3c0,1-0.5,1.7-1.2,1.7c-0.7,0-1.2-0.7-1.2-1.7c0-1,0.5-1.7,1.2-1.7C12.5,54.6,13,55.3,13,56.3z
			 M12.6,56.3c0-0.8-0.3-1.3-0.8-1.3c-0.5,0-0.8,0.5-0.8,1.3c0,0.8,0.3,1.3,0.8,1.3C12.3,57.6,12.6,57.1,12.6,56.3z M15.1,56.6h-0.8
			v2.5h-0.4v-4.8h0.4v1.9h0.8V56.6z"/>
		<path class="st23" d="M15.7,57.6c0.6,0,1.1,0,1.7-0.1l0,0.4c-0.7,0.1-1.2,0.1-1.8,0.1h-0.3v-1.8h1.4v-1h-1.4v-0.4h1.8v1.7h-1.4
			V57.6z M19.2,54.3v4.8h-0.4v-2.6h-0.7v2.3h-0.4v-4.5h0.4v1.8h0.7v-1.9H19.2z"/>
		<path class="st23" d="M21.5,54.7V56h1.4v-1.3h0.4v3.3H21v-3.3H21.5z M21.5,57.6h1.4v-1.3h-1.4V57.6z M24.7,54.3v4.9h-0.4v-4.9
			H24.7z"/>
		<path class="st23" d="M29.7,58.1v0.4h-4.4v-0.4H29.7z M29.2,57.2h-3.3v-2.6h3.3V55h-2.8v0.7h2.7v0.4h-2.7v0.8h2.9V57.2z"/>
		<path class="st23" d="M34.3,58.1v0.4h-4.4v-0.4h1.7v-1.3H32v1.3H34.3z M33.3,55.9c0-0.3,0-0.5,0-0.7v-0.1h-2.9v-0.4h3.1l0.3,0v0.5
			c0,0.6,0,1.3-0.2,2.3l-0.4-0.1c0.1-0.4,0.1-0.8,0.2-1.1l-2.9,0.2L30.3,56L33.3,55.9z"/>
		<path class="st23" d="M35.8,57c-0.7,0-1.3-0.5-1.3-1.2c0-0.7,0.5-1.2,1.3-1.2c0.7,0,1.3,0.5,1.3,1.2C37.1,56.5,36.6,57,35.8,57z
			 M35.8,56.6c0.5,0,0.8-0.3,0.8-0.8c0-0.5-0.4-0.8-0.8-0.8c-0.5,0-0.8,0.3-0.8,0.8C35,56.3,35.4,56.6,35.8,56.6z M38.6,58.6V59
			h-3.3v-1.6h0.4v1.2H38.6z M38.4,57.8H38v-3.5h0.4V57.8z"/>
		<path class="st23" d="M44.5,57.4h-2v1.7h-0.4v-1.7h-2V57h4.4L44.5,57.4z M40.4,56.3c0.8-0.1,1.7-0.7,1.7-1.3v0h-1.5v-0.4h3.5v0.4
			h-1.5v0c0,0.6,0.8,1.2,1.7,1.3l-0.2,0.4c-0.8-0.1-1.5-0.5-1.8-1.1c-0.3,0.6-1,1-1.8,1.1L40.4,56.3z"/>
		<path class="st23" d="M49.1,58.1v0.4h-4.4v-0.4h2v-1.2h0.4v1.2H49.1z M48.7,57c-0.7-0.2-1.5-0.7-1.8-1.4c-0.3,0.7-1.1,1.2-1.8,1.4
			l-0.2-0.4c0.8-0.2,1.8-0.9,1.8-1.7v-0.4h0.5V55c0,0.8,0.9,1.5,1.8,1.7L48.7,57z"/>
		<path class="st23" d="M53.6,58.2v0.4h-4.4v-0.4h2v-0.9h-1.4v-1.5h2.9V55h-2.9v-0.4h3.3v1.5h-2.9v0.8h3v0.4h-1.5v0.9H53.6z"/>
		<path class="st22" d="M54.6,56.7c0-1.4,0.5-2,1.3-2c0.8,0,1.3,0.7,1.3,2c0,1.4-0.5,2.1-1.3,2.1C55.1,58.8,54.6,58.1,54.6,56.7z
			 M56.6,56.7c0-1.1-0.3-1.6-0.7-1.6s-0.7,0.4-0.7,1.6c0,1.2,0.3,1.6,0.7,1.6S56.6,57.9,56.6,56.7z"/>
		<path class="st22" d="M57.7,58.4c0-0.3,0.2-0.4,0.4-0.4c0.2,0,0.4,0.2,0.4,0.4c0,0.3-0.2,0.4-0.4,0.4
			C57.9,58.8,57.7,58.6,57.7,58.4z"/>
		<path class="st22" d="M59,56.7c0-1.4,0.5-2,1.3-2c0.8,0,1.3,0.7,1.3,2c0,1.4-0.5,2.1-1.3,2.1C59.5,58.8,59,58.1,59,56.7z M61,56.7
			c0-1.1-0.3-1.6-0.7-1.6s-0.7,0.4-0.7,1.6c0,1.2,0.3,1.6,0.7,1.6S61,57.9,61,56.7z"/>
		<path class="st22" d="M62,56.7c0-1.4,0.5-2,1.3-2c0.8,0,1.3,0.7,1.3,2c0,1.4-0.5,2.1-1.3,2.1C62.5,58.8,62,58.1,62,56.7z
			 M63.9,56.7c0-1.1-0.3-1.6-0.7-1.6c-0.4,0-0.7,0.4-0.7,1.6c0,1.2,0.3,1.6,0.7,1.6C63.6,58.3,63.9,57.9,63.9,56.7z"/>
		<path class="st22" d="M67.1,55.5c-0.1-0.2-0.4-0.3-0.6-0.3c-0.5,0-0.9,0.4-1,1.5c0.2-0.3,0.6-0.5,0.9-0.5c0.7,0,1.1,0.4,1.1,1.3
			c0,0.8-0.5,1.3-1.2,1.3c-0.8,0-1.4-0.6-1.4-2c0-1.5,0.7-2.1,1.5-2.1c0.4,0,0.8,0.2,1,0.4L67.1,55.5z M66.9,57.5
			c0-0.5-0.2-0.8-0.7-0.8c-0.2,0-0.5,0.1-0.7,0.5c0.1,0.8,0.4,1.2,0.8,1.2C66.6,58.3,66.9,58,66.9,57.5z"/>
		<path class="st22" d="M67.8,58.4c1.2-1,1.8-1.8,1.8-2.5c0-0.4-0.2-0.7-0.7-0.7c-0.3,0-0.6,0.2-0.8,0.4l-0.4-0.3
			c0.3-0.4,0.7-0.6,1.2-0.6c0.7,0,1.2,0.5,1.2,1.2c0,0.8-0.6,1.6-1.5,2.4c0.2,0,0.5,0,0.6,0h1v0.5h-2.6V58.4z"/>
		<path class="st22" d="M70.8,57.7c0-0.5,0.3-0.9,0.7-1.1v0c-0.3-0.2-0.5-0.5-0.5-0.9c0-0.6,0.5-1,1.1-1c0.7,0,1.1,0.4,1.1,1.1
			c0,0.4-0.3,0.8-0.5,0.9v0c0.4,0.2,0.7,0.5,0.7,1.1c0,0.6-0.5,1-1.3,1C71.3,58.8,70.8,58.3,70.8,57.7z M72.8,57.7
			c0-0.5-0.4-0.7-1-0.9c-0.3,0.2-0.5,0.5-0.5,0.8c0,0.4,0.3,0.7,0.8,0.7C72.5,58.3,72.8,58.1,72.8,57.7z M72.7,55.8
			c0-0.4-0.2-0.6-0.6-0.6c-0.3,0-0.6,0.2-0.6,0.6c0,0.4,0.4,0.6,0.8,0.8C72.6,56.3,72.7,56,72.7,55.8z"/>
		<path class="st22" d="M76.4,57.6h-0.5v1.1h-0.6v-1.1h-1.7v-0.4l1.6-2.5h0.7v2.4h0.5V57.6z M75.3,57.2v-1c0-0.2,0-0.6,0-0.8h0
			c-0.1,0.2-0.2,0.4-0.3,0.6l-0.8,1.2H75.3z"/>
		<path class="st22" d="M76.6,58.2l0.3-0.4c0.2,0.2,0.5,0.4,0.9,0.4c0.4,0,0.8-0.2,0.8-0.7c0-0.4-0.3-0.7-1.2-0.7v-0.5
			c0.8,0,1-0.3,1-0.7c0-0.4-0.2-0.6-0.6-0.6c-0.3,0-0.6,0.2-0.8,0.4l-0.3-0.4c0.3-0.3,0.7-0.5,1.1-0.5c0.7,0,1.2,0.4,1.2,1
			c0,0.5-0.3,0.8-0.7,0.9v0c0.5,0.1,0.8,0.5,0.8,1c0,0.7-0.6,1.1-1.3,1.1C77.2,58.8,76.8,58.5,76.6,58.2z"/>
		<path class="st22" d="M79.6,56.7c0-1.4,0.5-2,1.3-2c0.8,0,1.3,0.7,1.3,2c0,1.4-0.5,2.1-1.3,2.1C80.1,58.8,79.6,58.1,79.6,56.7z
			 M81.6,56.7c0-1.1-0.3-1.6-0.7-1.6c-0.4,0-0.7,0.4-0.7,1.6c0,1.2,0.3,1.6,0.7,1.6C81.3,58.3,81.6,57.9,81.6,56.7z"/>
		<path class="st22" d="M88.1,58.1v0.5h-4.4v-0.5h1.6v-1.2h0.6v1.2H88.1z M87,55.9c0-0.3,0-0.5,0-0.7h-2.9v-0.4h3.4v0.4
			c0,0.6,0,1.3-0.2,2.3l-0.6-0.1c0.1-0.4,0.1-0.8,0.2-1.1l-2.9,0.2L84,56L87,55.9z"/>
		<path class="st22" d="M89.9,57c-0.7,0-1.3-0.5-1.3-1.2c0-0.7,0.6-1.2,1.3-1.2c0.7,0,1.3,0.5,1.3,1.2C91.2,56.5,90.6,57,89.9,57z
			 M89.9,56.5c0.4,0,0.8-0.3,0.8-0.7c0-0.4-0.3-0.7-0.8-0.7c-0.4,0-0.8,0.3-0.8,0.7C89.1,56.2,89.4,56.5,89.9,56.5z M92.6,58.6V59
			h-3.3v-1.6h0.6v1.1H92.6z M92.5,57.8h-0.6v-3.5h0.6V57.8z"/>
		<path class="st23" d="M97.7,56.4v0.4h-4.4v-0.4H97.7z M93.8,55.2c0-0.5,0.6-0.8,1.7-0.8c1.1,0,1.7,0.3,1.7,0.8
			c0,0.5-0.6,0.8-1.7,0.8C94.5,56,93.8,55.7,93.8,55.2z M94.3,58.7h3v0.3h-3.4v-1.2h2.8v-0.4h-2.9v-0.3h3.3v1.1h-2.8V58.7z
			 M94.3,55.2c0,0.3,0.5,0.5,1.2,0.5s1.2-0.2,1.2-0.5c0-0.3-0.5-0.5-1.2-0.5S94.3,54.9,94.3,55.2z"/>
		<path class="st23" d="M101.3,55.3c-0.3,0.8-1,1.3-2.1,1.5l-0.2-0.4c1.2-0.3,1.9-0.9,1.9-1.6h-1.7v-0.4h2.2c0,0.2,0,0.3,0,0.5h1.1
			v-0.7h0.4v2.5h-0.4v-0.5h-1.3v-0.3h1.3v-0.6H101.3z M103.2,58.7v0.4h-3.3v-1.2h2.7v-0.5h-2.7V57h3.1v1.2h-2.7v0.6H103.2z"/>
		<path class="st23" d="M105,55.6c0,0.8,0.4,1.7,1,2.1l-0.3,0.3c-0.5-0.3-0.8-0.8-1-1.4c-0.2,0.7-0.5,1.2-1,1.5l-0.3-0.3
			c0.7-0.4,1.1-1.3,1.1-2.2v-0.4h-0.9v-0.4h2.2v0.4H105V55.6z M106.3,54.4h0.4v4.5h-0.4v-2.5h-0.8V56h0.8V54.4z M107.7,54.3v4.8
			h-0.4v-4.8H107.7z"/>
		<path class="st23" d="M111,55.1h-2.9v-0.4h1.2v-0.5h0.4v0.5h1.2V55.1z M109.6,57c-0.7,0-1.2-0.3-1.2-0.8c0-0.5,0.5-0.8,1.2-0.8
			s1.2,0.3,1.2,0.8C110.7,56.7,110.3,57,109.6,57z M109.6,56.7c0.4,0,0.7-0.2,0.7-0.5c0-0.3-0.3-0.5-0.7-0.5s-0.7,0.2-0.7,0.5
			C108.8,56.5,109.1,56.7,109.6,56.7z M111.4,57.3h0.4V59h-3v-1.8h0.4v0.5h2.2V57.3z M111.4,58.2h-2.2v0.5h2.2V58.2z M112.6,55.9
			h-0.7v1.2h-0.4v-2.8h0.4v1.2h0.7V55.9z"/>
		<path class="st23" d="M113.4,57.5c0.7,0,1.5-0.1,2.3-0.2l0,0.4c-0.8,0.2-1.6,0.2-2.4,0.2H113v-3.1h0.4V57.5z M116.7,54.3v4.8h-0.4
			v-4.8H116.7z"/>
		<path class="st23" d="M117.9,57.5c0.9,0,1.5,0,2.2-0.2l0,0.4c-0.7,0.1-1.4,0.2-2.3,0.2h-0.4v-3.2h2.3v0.4h-1.8V57.5z M121.8,56.5
			H121v2.6h-0.4v-4.9h0.4v1.9h0.8V56.5z"/>
		<path class="st23" d="M121.9,58.4c0-0.2,0.2-0.4,0.4-0.4c0.2,0,0.4,0.2,0.4,0.4c0,0.2-0.2,0.4-0.4,0.4
			C122.1,58.8,121.9,58.6,121.9,58.4z"/>
	</g>
	<g>
		<g>
			<path class="st21" d="M11.2,66.6c0-1,0.3-1.8,0.7-2.5l0.2,0.1c-0.4,0.7-0.6,1.5-0.6,2.4s0.2,1.7,0.6,2.4l-0.2,0.1
				C11.4,68.4,11.2,67.6,11.2,66.6z"/>
			<path class="st21" d="M12.9,64.5v1.2h1.4v-1.2h0.4v3h-2.1v-3H12.9z M12.9,67.2h1.4V66h-1.4V67.2z M15.9,64.1v4.4h-0.4v-4.4H15.9z
				"/>
			<path class="st21" d="M20.4,67.7V68h-4v-0.3H20.4z M20,66.8h-3v-2.3h3v0.3h-2.6v0.7h2.5v0.3h-2.5v0.7H20V66.8z"/>
			<path class="st21" d="M24.6,67.6v0.3h-4v-0.3h1.6v-1.2h0.4v1.2H24.6z M23.7,65.6c0-0.2,0-0.4,0-0.6v-0.1h-2.7v-0.3h3V65
				c0,0.5,0,1.1-0.2,2l-0.4,0c0.1-0.4,0.1-0.8,0.2-1.1L21,66.1L21,65.7L23.7,65.6z"/>
			<path class="st21" d="M26,66.6c-0.7,0-1.1-0.4-1.1-1.1c0-0.6,0.5-1.1,1.1-1.1c0.7,0,1.1,0.4,1.1,1.1C27.2,66.1,26.7,66.6,26,66.6
				z M26,66.3c0.5,0,0.8-0.3,0.8-0.8c0-0.5-0.3-0.8-0.8-0.8c-0.5,0-0.8,0.3-0.8,0.8C25.2,66,25.6,66.3,26,66.3z M28.5,68.1v0.3h-3
				V67h0.4v1.1H28.5z M28.4,67.4H28v-3.2h0.4V67.4z"/>
			<path class="st21" d="M31.5,65.3c0,0.8,0.6,1.6,1.2,1.9l-0.2,0.3c-0.5-0.2-0.9-0.8-1.2-1.4c-0.2,0.7-0.6,1.2-1.2,1.5L30,67.3
				c0.6-0.3,1.2-1.2,1.2-2v-0.8h0.4V65.3z M33.6,64.1v4.4h-0.4v-4.4H33.6z"/>
			<path class="st21" d="M35.5,65.4c0,0.7,0.4,1.5,0.9,1.8l-0.2,0.3c-0.4-0.3-0.7-0.7-0.9-1.3c-0.2,0.6-0.5,1.1-0.9,1.4l-0.2-0.3
				c0.6-0.4,1-1.1,1-1.9v-0.9h0.3V65.4z M36.7,64.2H37v4.1h-0.3V66h-0.8v-0.3h0.8V64.2z M37.9,64.1v4.4h-0.3v-4.4H37.9z"/>
			<path class="st21" d="M42.4,66.4v0.3h-4v-0.3H42.4z M39.2,68.1h2.7v0.3h-3.1v-1.3h0.4V68.1z M41.9,65.8h-3v-1.5h0.4v1.2h2.6V65.8
				z"/>
			<path class="st21" d="M45,64.9h-1.8v-0.3h2.2v0.2c-0.9,1.1-1,2-1.1,3.4H44C44,66.8,44.3,65.9,45,64.9z"/>
			<path class="st21" d="M45.6,68.9c0.3-0.1,0.5-0.4,0.5-0.7c0,0,0,0-0.1,0c-0.2,0-0.3-0.1-0.3-0.3c0-0.2,0.1-0.3,0.3-0.3
				c0.2,0,0.4,0.2,0.4,0.5c0,0.5-0.3,0.8-0.7,1L45.6,68.9z"/>
			<path class="st21" d="M46.8,67.6c0.2,0.2,0.4,0.3,0.6,0.3c0.5,0,0.9-0.4,0.9-1.6c-0.2,0.3-0.5,0.5-0.9,0.5c-0.6,0-1-0.4-1-1.1
				c0-0.7,0.5-1.2,1-1.2c0.7,0,1.2,0.6,1.2,1.7c0,1.5-0.6,2-1.3,2c-0.4,0-0.7-0.2-0.9-0.4L46.8,67.6z M48.4,66
				c0-0.8-0.3-1.2-0.8-1.2c-0.4,0-0.6,0.3-0.6,0.9c0,0.5,0.2,0.8,0.7,0.8C47.8,66.5,48.1,66.3,48.4,66z"/>
			<path class="st21" d="M48.8,67.8l0.2-0.3c0.2,0.2,0.5,0.4,0.9,0.4c0.4,0,0.8-0.3,0.8-0.9c0-0.5-0.3-0.9-0.8-0.9
				c-0.2,0-0.4,0.1-0.6,0.2l-0.2-0.1l0.1-1.7h1.7v0.3h-1.4L49.5,66c0.2-0.1,0.3-0.2,0.6-0.2c0.6,0,1.1,0.4,1.1,1.2
				c0,0.8-0.6,1.2-1.2,1.2C49.4,68.2,49,68,48.8,67.8z"/>
			<path class="st21" d="M53.2,65.1c-0.1-0.2-0.4-0.3-0.6-0.3c-0.5,0-0.9,0.4-1,1.6c0.2-0.3,0.5-0.4,0.8-0.4c0.6,0,1,0.4,1,1.1
				c0,0.7-0.5,1.2-1,1.2c-0.7,0-1.2-0.6-1.2-1.8c0-1.4,0.6-2,1.3-2c0.4,0,0.6,0.2,0.8,0.4L53.2,65.1z M53.1,67.1
				c0-0.5-0.2-0.8-0.7-0.8c-0.2,0-0.5,0.1-0.8,0.5c0,0.8,0.3,1.2,0.8,1.2C52.8,67.9,53.1,67.6,53.1,67.1z"/>
			<path class="st21" d="M53.6,68.9c0.3-0.1,0.5-0.4,0.5-0.7c0,0,0,0-0.1,0c-0.2,0-0.3-0.1-0.3-0.3c0-0.2,0.1-0.3,0.3-0.3
				c0.2,0,0.4,0.2,0.4,0.5c0,0.5-0.3,0.8-0.7,1L53.6,68.9z"/>
			<path class="st21" d="M54.5,67.7l0.2-0.3c0.2,0.2,0.5,0.4,0.9,0.4c0.4,0,0.8-0.3,0.8-0.7c0-0.5-0.3-0.8-1.1-0.8v-0.3
				c0.8,0,1-0.3,1-0.7c0-0.4-0.2-0.6-0.6-0.6c-0.3,0-0.6,0.2-0.8,0.4l-0.2-0.3c0.3-0.2,0.6-0.4,1-0.4c0.6,0,1,0.3,1,0.9
				c0,0.5-0.3,0.7-0.6,0.9v0c0.4,0.1,0.8,0.4,0.8,0.9c0,0.6-0.5,1-1.1,1C55,68.2,54.7,68,54.5,67.7z"/>
			<path class="st21" d="M56.8,67.7l0.2-0.3c0.2,0.2,0.5,0.4,0.9,0.4c0.4,0,0.8-0.3,0.8-0.7c0-0.5-0.3-0.8-1.1-0.8v-0.3
				c0.8,0,1-0.3,1-0.7c0-0.4-0.2-0.6-0.6-0.6c-0.3,0-0.6,0.2-0.8,0.4l-0.2-0.3c0.3-0.2,0.6-0.4,1-0.4c0.6,0,1,0.3,1,0.9
				c0,0.5-0.3,0.7-0.6,0.9v0c0.4,0.1,0.8,0.4,0.8,0.9c0,0.6-0.5,1-1.1,1C57.4,68.2,57,68,56.8,67.7z"/>
			<path class="st21" d="M61.2,65.1c-0.1-0.2-0.4-0.3-0.6-0.3c-0.5,0-0.9,0.4-1,1.6c0.2-0.3,0.5-0.4,0.8-0.4c0.6,0,1,0.4,1,1.1
				c0,0.7-0.5,1.2-1,1.2c-0.7,0-1.2-0.6-1.2-1.8c0-1.4,0.6-2,1.3-2c0.4,0,0.6,0.2,0.8,0.4L61.2,65.1z M61.1,67.1
				c0-0.5-0.2-0.8-0.7-0.8c-0.2,0-0.5,0.1-0.8,0.5c0,0.8,0.3,1.2,0.8,1.2C60.8,67.9,61.1,67.6,61.1,67.1z"/>
			<path class="st21" d="M62.9,66.5c-0.5,0-0.9,0-1.2,0l-0.1-0.3c0.8,0,1.9,0,2.9-0.1l0,0.3c-0.4,0.1-0.8,0.1-1.2,0.1v0.9h-0.4V66.5
				z M61.9,65.1c0-0.5,0.4-0.8,1.1-0.8c0.6,0,1.1,0.3,1.1,0.8c0,0.5-0.4,0.8-1.1,0.8C62.4,65.8,61.9,65.5,61.9,65.1z M65.3,68.1v0.3
				h-3.1v-1.3h0.4v1H65.3z M62.3,65.1c0,0.3,0.3,0.5,0.7,0.5c0.4,0,0.7-0.2,0.7-0.5c0-0.3-0.3-0.5-0.7-0.5
				C62.6,64.6,62.3,64.8,62.3,65.1z M64.9,66.7v-2.6h0.4v3.4h-0.4V67H64v-0.3H64.9z"/>
			<path class="st21" d="M67.1,64.3h0.3l-1.5,4.8h-0.3L67.1,64.3z"/>
			<path class="st21" d="M67.6,64.5h1c0.7,0,1.2,0.3,1.2,0.9c0,0.4-0.2,0.7-0.5,0.8v0c0.4,0.1,0.8,0.4,0.8,0.9
				c0,0.7-0.6,1.1-1.4,1.1h-1.1V64.5z M68.6,66.1c0.7,0,0.9-0.2,0.9-0.6c0-0.4-0.3-0.6-0.9-0.6H68v1.2H68.6z M68.7,67.9
				c0.6,0,1-0.2,1-0.7c0-0.5-0.4-0.7-1-0.7H68v1.4H68.7z"/>
			<path class="st21" d="M71.1,64.9H70v-0.3h2.6v0.3h-1.1v3.3h-0.4V64.9z"/>
			<path class="st21" d="M72.6,66.4c0-1.2,0.7-1.9,1.6-1.9c0.4,0,0.8,0.2,1,0.4l-0.2,0.3c-0.2-0.2-0.4-0.3-0.8-0.3
				c-0.7,0-1.2,0.6-1.2,1.5c0,0.9,0.4,1.5,1.2,1.5c0.4,0,0.6-0.1,0.9-0.4l0.2,0.3c-0.3,0.3-0.6,0.5-1.1,0.5
				C73.2,68.2,72.6,67.5,72.6,66.4z"/>
			<path class="st21" d="M79.3,66.2v0.3h-4v-0.3H79.3z M76.2,68.2H79v0.3h-3.2v-1h2.7v-0.4h-2.7v-0.3h3v0.9h-2.7V68.2z M78.4,64.5
				h-2.6v-0.3h3v0.9h-2.6v0.4h2.7v0.3h-3.1v-0.9h2.6V64.5z"/>
			<path class="st21" d="M82.9,66.6c-0.5-0.2-0.9-0.6-1.1-1c-0.2,0.5-0.6,0.9-1.1,1.1l-0.2-0.3c0.6-0.2,1.1-0.8,1.1-1.5v-0.2h-1
				v-0.3H83v0.3h-1v0.2c0,0.6,0.5,1.1,1.1,1.4L82.9,66.6z M81.2,67h2.9v1.5h-0.4v-1.2h-2.6V67z M84.1,64.1v2.7h-0.4v-1.2h-0.9v-0.3
				h0.9v-1.2H84.1z"/>
			<path class="st21" d="M88.7,66.3v0.3h-4v-0.3h1v-0.6c-0.4-0.1-0.5-0.4-0.5-0.7c0-0.5,0.6-0.8,1.5-0.8c1,0,1.5,0.3,1.5,0.8
				c0,0.3-0.2,0.5-0.5,0.7v0.6H88.7z M88.2,67.7c0,0.5-0.6,0.8-1.5,0.8c-0.9,0-1.5-0.3-1.5-0.8c0-0.5,0.6-0.8,1.5-0.8
				C87.6,67,88.2,67.2,88.2,67.7z M86.7,65.5c0.7,0,1.2-0.2,1.2-0.5c0-0.3-0.5-0.5-1.2-0.5c-0.7,0-1.2,0.2-1.2,0.5
				C85.5,65.3,86,65.5,86.7,65.5z M87.8,67.7c0-0.3-0.4-0.5-1.1-0.5c-0.7,0-1.1,0.2-1.1,0.5c0,0.3,0.4,0.5,1.1,0.5
				C87.4,68.2,87.8,68.1,87.8,67.7z M86,66.3h1.3v-0.5c-0.2,0-0.4,0.1-0.6,0.1c-0.2,0-0.4,0-0.6-0.1V66.3z"/>
			<path class="st21" d="M90.3,64.8h1.1v0.3h-2.6v-0.3H90v-0.7h0.4V64.8z M91.2,66.5c0,0.6-0.4,1-1.1,1c-0.6,0-1.1-0.4-1.1-1
				c0-0.6,0.5-1,1.1-1C90.8,65.5,91.2,65.9,91.2,66.5z M90.9,66.5c0-0.4-0.3-0.7-0.7-0.7c-0.4,0-0.7,0.3-0.7,0.7
				c0,0.4,0.3,0.7,0.7,0.7C90.6,67.2,90.9,66.9,90.9,66.5z M93,66.3h-0.7v2.3h-0.4v-4.4h0.4v1.8H93V66.3z"/>
			<path class="st21" d="M95.2,66c-0.2,0.2-0.5,0.4-0.9,0.4c-0.7,0-1.1-0.4-1.1-1c0-0.6,0.5-1,1.1-1c0.4,0,0.7,0.1,0.9,0.4h1.2v-0.6
				h0.4v2.5h-0.4V66H95.2z M96.2,67.1c0,0.5,0.3,0.9,0.9,1.1l-0.2,0.3c-0.4-0.2-0.7-0.5-0.9-0.9c-0.1,0.4-0.4,0.7-0.8,0.9
				c-0.4-0.2-0.7-0.5-0.8-0.9c-0.2,0.4-0.5,0.7-0.9,0.8l-0.2-0.3c0.5-0.2,0.9-0.7,0.9-1.1v-0.3h0.3v0.3c0,0.4,0.2,0.8,0.6,1.1
				c0.4-0.3,0.7-0.7,0.7-1.1v-0.3h0.4V67.1z M93.5,65.4c0,0.4,0.3,0.7,0.8,0.7c0.5,0,0.8-0.3,0.8-0.7c0-0.4-0.3-0.7-0.8-0.7
				C93.8,64.7,93.5,65,93.5,65.4z M95.3,65c0,0.1,0.1,0.2,0.1,0.4c0,0.1,0,0.2-0.1,0.3h1V65H95.3z"/>
			<path class="st21" d="M101.2,66.1v0.3h-4v-0.3H101.2z M100.9,65.8c-0.7-0.1-1.4-0.5-1.6-1c-0.3,0.5-1,0.9-1.6,1l-0.1-0.3
				c0.8-0.1,1.6-0.6,1.6-1.2v-0.2h0.4v0.2c0,0.6,0.8,1.1,1.6,1.2L100.9,65.8z M100.4,66.8h0.4v1.7h-3v-1.7h0.4v0.5h2.2V66.8z
				 M100.4,67.6h-2.2v0.6h2.2V67.6z"/>
			<path class="st21" d="M102.1,67.1c0.7,0,1.4-0.1,2.1-0.2l0,0.3c-0.8,0.2-1.5,0.2-2.2,0.2h-0.4v-2.8h0.4V67.1z M105,64.1v4.4h-0.4
				v-4.4H105z"/>
			<path class="st21" d="M106.2,67.1c0.8,0,1.4,0,2-0.2l0,0.3c-0.7,0.1-1.3,0.2-2.1,0.2h-0.3v-2.9h2.1v0.3h-1.7V67.1z M109.7,66.2
				H109v2.4h-0.4v-4.4h0.4v1.8h0.7V66.2z"/>
			<path class="st21" d="M109.9,67.9c0-0.2,0.1-0.3,0.3-0.3c0.2,0,0.3,0.1,0.3,0.3c0,0.2-0.1,0.3-0.3,0.3
				C110,68.2,109.9,68.1,109.9,67.9z"/>
			<path class="st21" d="M110.7,69c0.4-0.7,0.6-1.5,0.6-2.4s-0.2-1.7-0.6-2.4l0.2-0.1c0.5,0.7,0.7,1.5,0.7,2.5c0,1-0.3,1.8-0.7,2.5
				L110.7,69z"/>
		</g>
	</g>
	<g>
		<path d="M84.1,109.6c0.4,0,0.8,0,1.3,0c0-0.5,0-0.9,0-1.3c0.4,0,0.8,0,1.3,0c0,0.9,0,1.7,0,2.6l0,0c-0.4,0-0.8,0-1.2,0
			c0,0.9,0,1.7,0,2.5c0.9,0,1.7,0,2.5,0l0,0c0,0.4,0,0.9,0,1.3c0.5,0,0.9,0,1.3,0l0,0c0,0.4,0,0.9,0,1.3c0.5,0,0.9,0,1.3,0
			c0,0.5,0,0.9,0,1.3c-0.8,0-1.7,0-2.5,0c0,0.4,0,0.8,0,1.3c0.8,0,1.7,0,2.5,0c0,0.5,0,0.9,0,1.3c-0.4,0-0.8,0-1.2,0
			c0,0.4,0,0.9,0,1.3c-3,0-6,0-8.9,0c0,0.9,0,1.7,0,2.6c0.4,0,0.8,0,1.2,0c0,0.4,0.1,0.9,0.1,1.3l0,0c-0.4,0-0.9,0-1.3,0
			c0,0.5,0,0.9,0,1.3c-0.9,0-1.7,0-2.5,0c0-0.4,0-0.8,0-1.3c0.4,0,0.8,0,1.2,0c0-0.4,0-0.9,0-1.3c-0.8,0-1.7,0-2.5,0
			c0,0.8,0,1.7,0,2.5c-1.7,0-3.4,0-5.1,0c0-0.4,0-0.8,0-1.2c-0.4,0-0.9,0-1.3,0c0,0.4,0,0.8,0,1.2c-0.4,0-0.8,0-1.3,0
			c0-0.4,0-0.8,0-1.3c-0.5,0-0.9,0-1.3,0l0,0c0-0.8,0-1.7,0-2.5c0.9,0,1.7,0,2.6,0c0,0.4,0,0.8,0,1.2c0.4,0,0.8,0,1.3,0
			c0-0.8,0-1.7,0-2.5c-1.3,0-2.5,0-3.8,0c0-0.5,0-0.9-0.1-1.3c0.1,0,0.3,0,0.4,0c1,0,1.9,0,2.9,0c0.2,0,0.4,0,0.6,0
			c0-0.5,0-0.9,0-1.3c-1.3,0-2.5,0-3.8,0c0,0.4,0,0.8-0.1,1.2c-0.4,0-0.8,0-1.2,0c0-0.4,0-0.8,0-1.2c-0.4,0-0.8,0-1.3,0
			c0-0.9,0-1.7,0-2.5c0,0,0,0,0,0c0.4,0,0.8,0,1.3-0.1c0-0.4,0-0.8,0-1.3c0.4,0,0.9,0,1.3,0.1c0,0.4,0,0.8,0,1.2
			c-0.4,0-0.8,0.1-1.2,0.1c0,0.4,0,0.8,0,1.2c0.4,0,0.8,0,1.2,0c0-0.5,0-0.9,0-1.3c0.4,0,0.9,0.1,1.3,0.1c0-0.5,0-0.9,0-1.3
			c-0.4,0-0.9,0-1.3,0.1c0-0.4,0-0.9,0-1.3c0.5,0,0.9,0,1.3,0c0,0.4,0,0.8,0,1.3c0.4,0,0.8,0,1.3,0c0,0.4,0,0.8,0,1.3
			c-0.4,0-0.8,0-1.2,0c0,0.4,0,0.8,0,1.2c0.9,0,1.7,0,2.5,0c0-0.9,0-1.7,0-2.5c0.4,0,0.9,0,1.3,0c0,0.4,0,0.8,0,1.3
			c2.1,0,4.3,0,6.4,0c0,0.4,0,0.8,0,1.3c-0.9,0-1.7,0-2.5,0c0,0.4,0,0.8,0,1.3c-1.3,0-2.6,0-3.8,0c0,0.4,0,0.8,0,1.3
			c0.4,0,0.8,0,1.2,0c0,0.4,0,0.8,0,1.3c-0.4,0-0.8,0-1.2,0c0,0.4,0,0.8,0,1.3c0.4,0,0.8,0,1.3,0c0,0.9,0,1.7,0,2.5
			c0.4,0,0.8,0,1.3,0c0-0.9,0-1.7,0-2.5c0.4,0,0.8,0,1.3,0c0-0.9,0-1.7,0-2.6c0.4,0,0.8,0,1.3,0c0-0.4,0-0.8,0-1.3
			c0.9,0,1.7,0,2.5,0c0-0.1,0-0.1,0-0.1c0-1.6,0-3.2,0-4.8c0-0.2-0.1-0.2-0.3-0.2c-0.6,0-1.3,0-1.9,0c-0.1,0-0.2,0-0.4,0
			c0,0.4,0,0.8,0,1.2c-0.4,0-0.8,0-1.3,0c0-0.4,0-0.8,0-1.2c-0.4,0-0.8,0-1.3,0c0,0.4,0,0.8,0,1.2c-0.4,0-0.9,0-1.3,0
			c0-0.9,0-1.7,0-2.5c1.7,0,3.4,0,5.1,0c0-0.5,0-0.9,0-1.3c0.4,0,0.8,0,1.3,0c0,0.4,0,0.8,0,1.2c0.4,0,0.8,0,1.3,0
			c0-0.4,0-0.8,0-1.2c0.4,0,0.9,0,1.2,0c0,0.4,0,0.8,0,1.3c-0.4,0-0.8,0-1.2,0c0,0.4,0,0.8,0,1.2c0.8,0,1.7,0,2.5,0
			C84.1,112.1,84.1,110.9,84.1,109.6L84.1,109.6z M82.9,116c0,1.3,0,2.5,0,3.8c1.3,0,2.5,0,3.8,0c0-1.3,0-2.5,0-3.8
			C85.4,116,84.2,116,82.9,116z M79,122.4c0-0.4,0-0.8,0-1.3c-0.4,0-0.8,0-1.2,0c0,0.4,0,0.8,0,1.3C78.2,122.4,78.6,122.4,79,122.4z
			"/>
		<path d="M59.8,98c1.7,0,3.4,0,5.1,0c0-0.4,0-0.8,0-1.2c0,0,0,0,0,0c0.3,0,0.6,0,1,0c0.3,0,0.4,0.1,0.4,0.3c0,0.4,0,0.9,0,1.3
			c0,1,0,1,1,0.9c0.2,0,0.3-0.1,0.3-0.3c0-0.2,0-0.5,0-0.7c0-0.1,0.1-0.3,0.2-0.3c0.4,0,0.7,0,1.1,0c0,0.4,0,0.7,0,1
			c0,0.2,0.1,0.3,0.3,0.3c0.3,0,0.7-0.1,0.9,0.1c0.2,0.2,0.1,0.6,0.1,0.9c0,0.2,0.1,0.3,0.3,0.3c0.6,0,1.3,0,1.9,0
			c0.3,0,0.4,0.1,0.3,0.3c0,0.7,0,1.5,0,2.2c-0.3,0-0.6,0-1,0c-0.2,0-0.3-0.1-0.3-0.3c0-0.3,0-0.6,0-0.9c-0.5,0-0.9,0-1.3,0
			c0,0.1,0,0.1,0,0.2c0,0.7,0,1.4,0,2c0,0.2-0.1,0.3-0.3,0.3c-0.2,0-0.5,0-0.7,0c-0.1,0-0.2,0.1-0.2,0.2c0,0.8,0,1.5,0,2.3
			c0.4,0,0.8,0,1.3,0c0-0.3,0-0.7,0-1c0-0.2,0.1-0.3,0.3-0.3c0.3,0,0.7,0,1,0c0,0.7,0,1.5,0,2.2c0,0.3-0.1,0.3-0.3,0.3
			c-0.3,0-0.6,0-1,0c0,0.3,0,0.7,0,1c0,0.3-0.1,0.4-0.4,0.3c-0.6,0-1.2,0-1.9,0c-0.3,0-0.4,0.1-0.4,0.4c0,0.6,0,1.2,0,1.9
			c0,0.1-0.1,0.3-0.2,0.3c-0.4,0-0.7,0-1.1,0c0-1.3,0-2.6,0-3.8c0.3,0,0.7,0,1,0c0.2,0,0.3-0.1,0.3-0.3c0-0.5,0-1,0-1.4
			c0-0.8,0-0.9-0.9-0.8c-0.3,0-0.4-0.1-0.4-0.4c0-0.9,0-0.9-0.9-0.9c-0.3,0-0.4,0.1-0.4,0.4c0,0.9,0,0.9-0.9,0.9
			c-0.3,0-0.3-0.1-0.3-0.3c0-1,0-1-0.9-1c-0.3,0-0.4-0.1-0.4-0.4c0-0.3,0-0.6,0-0.9c-1.3,0-2.6,0-3.8,0c0,0.4,0,0.8,0,1.3
			c0.7,0,1.4,0,2.1,0c0.3,0,0.4,0.1,0.4,0.4c0,0.6,0,1.2,0,1.8c0,0.3,0.1,0.4,0.4,0.4c0.3,0,0.6,0,0.9,0c0,0.1,0,0.2,0,0.3
			c0,1.1,0,2.2,0,3.3c0,0.1,0,0.2,0,0.3l0,0c-0.3,0-0.6,0-1,0c-0.2,0-0.3-0.1-0.3-0.3c0-0.7,0-1.5,0-2.3c-0.4,0-0.8,0-1.1,0
			c-0.2,0-0.5,0-0.7,0c-0.9,0-0.7,0.1-0.7-0.8c0-0.2,0-0.3,0-0.5c0.4,0,0.8,0,1.2-0.1c0-0.4,0-0.8,0-1.2c-0.4,0-0.7,0-1,0
			c-0.1,0-0.2,0.1-0.2,0.2c0,0.4,0,0.8,0,1.1c-0.4,0-0.9,0-1.3,0c0,0,0,0,0,0c0-0.1-0.1-0.3-0.1-0.4c0-1,0-2.1,0-3.1
			c0-0.3-0.1-0.4-0.4-0.4c-0.2,0-0.3,0-0.5,0c-0.4,0-0.5-0.1-0.4-0.5c0-0.3,0-0.5,0-0.8c-0.4,0-0.8,0-1.2,0l0,0c0-0.4,0-0.7,0-1.1
			c0-0.1,0.1-0.2,0.2-0.2c1.1,0,2.3,0,3.4,0c0.1,0,0.2,0.2,0.2,0.3c0,0.3,0,0.6,0,1c1.7,0,3.4,0,5.1,0c0-0.4,0-0.8,0-1.2
			c0.3,0,0.6,0,0.9,0c0.3,0,0.4-0.1,0.4-0.4c0-0.3,0-0.6,0-0.9c-0.8,0-1.6,0-2.3,0c-0.1,0-0.2,0.2-0.2,0.3c0,0.3,0,0.7,0,1
			c-0.4,0-0.7,0-1.1,0c-0.1,0-0.2-0.1-0.2-0.2c0-0.2,0-0.5,0-0.7c0-0.3-0.1-0.3-0.3-0.3c-0.3,0-0.6,0-0.9,0l0,0
			C59.8,98.9,59.8,98.4,59.8,98L59.8,98z M67.5,100.7c-0.4,0-0.9,0-1.3,0c0,0.4,0,0.8,0,1.2c-0.1,0-0.2,0-0.3,0c-1,0-1,0-0.9,1
			c0,0.2,0.1,0.3,0.3,0.3c1.1,0,2.2,0,3.4,0c0.1,0,0.2-0.1,0.2-0.2c0-0.4,0-0.7,0-1.1c-0.4,0-0.8,0-1.3,0
			C67.5,101.5,67.5,101.1,67.5,100.7z"/>
		<path d="M62.3,91.7c0-0.4,0-0.9,0-1.3c0.5,0,0.9,0,1.3,0c0-0.9,0-1.7,0-2.6c-0.4,0-0.8,0-1.2,0c0,0.4,0,0.8,0,1.2
			c-0.4,0-0.8,0-1.3,0c0-0.8,0-1.7,0-2.5c1.3,0,2.5,0,3.8,0c0-0.4,0-0.8,0-1.3c0.9,0,1.7,0,2.6,0c0,0.4,0,0.8,0,1.3
			c0.9,0,1.7,0,2.5,0c0,0.4,0,0.8,0,1.3c-0.4,0-0.8,0-1.3,0c0,1.3,0,2.6,0,3.9l0,0c-0.4,0-0.8,0-1.3,0c0,0.4,0,0.8,0,1.2
			c0.4,0,0.8,0,1.3,0.1l0,0c0,0.4,0,0.8,0,1.2c0.9,0,1.7,0,2.6,0c0-0.9,0-1.7,0-2.5c-0.4,0-0.9,0-1.3,0l0,0c0-0.8,0-1.7,0-2.6
			c0.4,0,0.9,0,1.3,0l0,0c0,0.4,0,0.8,0,1.3c0.5,0,0.9,0,1.3,0c0,0.9,0,1.7,0,2.5c0.4,0,0.8,0,1.3,0c0-1.3,0-2.5,0-3.8l0,0
			c0.4,0,0.8,0,1.3,0c0,0.4,0,0.8,0,1.2c0.4,0,0.8,0,1.3,0c0-0.4,0-0.8,0-1.2c0.5,0,0.9,0,1.3,0l0,0c0,1.3,0,2.5,0,3.8
			c-0.4,0-0.9,0-1.3,0c0,0.9,0,1.7,0,2.5l0,0c-0.2,0-0.4,0.1-0.7,0.1c-0.2,0-0.4,0.1-0.6,0.1c0,0,0,0,0,0c0-0.4,0-0.9-0.1-1.3
			c-1.3,0-2.5,0-3.8,0c0,1.7,0,3.4,0,5.1c-0.4,0-0.8,0-1.3,0c0-1.3,0-2.5,0-3.8c-0.4,0-0.8,0-1.3,0c0-0.4,0-0.8,0-1.3
			c-0.4,0-0.8,0-1.3,0c0,0.8,0,1.7,0,2.5c-0.4,0-0.9,0-1.3,0c0-0.4,0-0.8,0-1.2c-0.4,0-0.8,0-1.3,0c0,0.5,0,0.9,0,1.3c0,0,0,0,0,0
			c-0.4,0-0.8,0-1.3-0.1c0-1.7,0-3.4,0-5.1C63.2,91.7,62.8,91.7,62.3,91.7L62.3,91.7z M67.5,87.8c-0.9,0-1.7,0-2.5,0
			c0,0.4,0,0.8,0,1.2c0.8,0,1.7,0,2.5,0C67.5,88.6,67.5,88.2,67.5,87.8z M66.2,92.9c0-0.4,0-0.8,0-1.2c-0.4,0-0.8,0-1.2,0
			c0,0.4,0,0.8,0,1.2C65.4,92.9,65.8,92.9,66.2,92.9z M67.5,92.9c-0.4,0-0.8,0-1.2,0c0,0.4,0,0.8,0,1.2c0.4,0,0.8,0,1.2,0
			C67.5,93.7,67.5,93.4,67.5,92.9z M76.5,92.9c0-0.4,0-0.8,0-1.2c-0.4,0-0.8,0-1.2,0c0,0.4,0,0.8,0,1.2C75.6,92.9,76,92.9,76.5,92.9
			z"/>
		<path d="M82.8,100.6c0,0.7,0,1.4,0,2.1c0,0.3,0,0.6,0,0.9c0,1,0.1,1.1,1.1,0.9c0.1,0,0.2-0.2,0.2-0.3c0-0.6,0-1.3,0-1.9
			c0-0.1,0-0.2,0-0.4c0.4,0,0.7,0,1.1,0c0.1,0,0.2,0.2,0.2,0.3c0,0.6,0,1.3,0,1.9c0,0.3,0.1,0.4,0.4,0.4c0.3,0,0.6,0,0.9,0
			c0-0.8,0-1.7,0-2.6c0.5,0,0.9,0,1.3,0c0,0.9,0,1.7,0,2.5c0.5,0,0.9,0,1.3,0c0-0.9,0-1.7,0-2.5c-0.4,0-0.9,0-1.3,0c0-0.3,0-0.7,0-1
			c0-0.2,0.1-0.3,0.3-0.3c0.7,0,1.3,0,2,0c0.3,0,0.3,0.1,0.3,0.3c0,0.7,0,1.4,0,2.2c0.3,0,0.6,0,1,0c0.2,0,0.3,0.1,0.3,0.3
			c0,0.3,0,0.6,0,1c-0.3,0-0.6,0-0.9,0c-0.3,0-0.3,0.1-0.3,0.3c0,0.2,0,0.4,0,0.6c0,0.3,0.1,0.3,0.3,0.3c0.7,0,1.4,0,2.2,0
			c0,0.4,0,0.8,0,1.2c0,0.3,0,0.7,0,1c0,0.2-0.1,0.3-0.3,0.3c-0.3,0-0.7,0-1,0c0-0.4,0-0.7,0-1.1c0-0.2-0.1-0.3-0.3-0.3
			c-1-0.1-1-0.1-1,0.9c0,0.3,0.1,0.4,0.4,0.4c0.3,0,0.6,0,0.9,0c0,0.3,0,0.7,0,1c0,0.1-0.1,0.2-0.2,0.2c-1.1,0-2.2,0-3.4,0
			c-0.2,0-0.3-0.1-0.3-0.3c0-0.2,0-0.5,0-0.8c0-0.2-0.1-0.3-0.3-0.3c-0.2,0-0.5,0-0.7,0c-0.2,0-0.3-0.1-0.3-0.3c0-0.3,0-0.6,0-1
			c-0.9,0-1.7,0-2.6,0c0-0.3,0-0.7,0-1c0-0.2-0.1-0.3-0.3-0.3c-1.2,0-2.3,0-3.5,0l0,0c0-0.9,0-1.7,0-2.6c0.1,0,0.2,0,0.4,0
			c0.9,0,0.9,0,0.9-0.9c0,0,0-0.1,0-0.1c-0.1-0.1-0.2-0.2-0.2-0.2c-0.3,0-0.5,0-0.8,0c-0.1,0-0.2,0.1-0.2,0.2c0,0.4,0,0.7,0,1.1
			c-0.3,0-0.6,0-0.9,0c-0.3,0-0.4-0.1-0.4-0.4c0-0.6,0-1.2,0-1.9c0-0.2-0.1-0.3-0.3-0.3c-0.3,0-0.7,0-1-0.1c0,0,0,0,0,0
			c0-0.4,0-0.8,0-1.3c0.2,0,0.3,0,0.4,0c0.6,0,1.2,0,1.9,0c0.1,0,0.3-0.1,0.3-0.2c0-0.8,0-1.6,0-2.4c-0.1,0-0.2,0-0.3,0
			c-1,0-1,0-1-1c0-0.2,0.1-0.3,0.3-0.3c0.3,0,0.6,0,1,0c0-0.4,0-0.7,0-1c0-0.2-0.1-0.3-0.3-0.2c-0.2,0-0.5,0-0.7,0
			c-0.2,0-0.3-0.1-0.3-0.3c0-0.5,0-0.9,0-1.4c0-0.9,0-0.8,0.8-0.9c0.3,0,0.5,0.1,0.4,0.4c0,0.2,0,0.4,0,0.6c0,0.2,0.1,0.3,0.3,0.3
			c0.3,0,0.7,0,1,0l0,0c0,0.4,0,0.8,0,1.2c0.3,0,0.6,0,1,0c0.2,0,0.3,0.1,0.3,0.3c0,0.3,0,0.6,0,1c0.4,0,0.8,0,1.3,0
			c0,0.5,0,0.9,0,1.3l0,0c-0.4,0-0.8,0-1.2,0c0-0.4,0-0.8,0-1.2c-0.4,0-0.7,0-1.1,0c-0.1,0-0.2,0.1-0.2,0.2c0,0.3,0,0.5,0,0.8
			c0,0.2,0.1,0.3,0.3,0.3c0.3,0,0.6,0,1,0c0,0.9,0,1.7,0,2.5l0,0c-0.4,0-0.8,0-1.2,0c0,0.5,0,0.9,0,1.3
			C82.1,100.6,82.5,100.6,82.8,100.6L82.8,100.6z M88,105.8c0,0.4,0,0.7,0,1.1c0,0.1,0.1,0.2,0.2,0.2c0.4,0,0.7,0,1.1,0
			c0-0.4,0-0.8,0-1.3c-0.3,0-0.7,0-1,0C88.2,105.8,88.1,105.8,88,105.8z"/>
		<path d="M59.8,84c0,3,0,5.9,0,8.9c-3,0-6,0-8.9,0c0-3,0-5.9,0-8.9C53.8,84,56.8,84,59.8,84z M52.1,85.2c0,2.1,0,4.3,0,6.4
			c2.1,0,4.3,0,6.4,0c0-2.1,0-4.3,0-6.4C56.4,85.2,54.3,85.2,52.1,85.2z"/>
		<path d="M84.2,92.9c0-3,0-6,0-8.9c3,0,5.9,0,8.9,0c0,3,0,5.9,0,8.9C90.2,92.9,87.2,92.9,84.2,92.9z M91.8,91.6c0-2.1,0-4.3,0-6.4
			c-2.1,0-4.2,0-6.4,0c0,2.1,0,4.3,0,6.4C87.6,91.6,89.7,91.6,91.8,91.6z"/>
		<path d="M59.8,126.3c-3,0-5.9,0-8.9,0c0-3,0-6,0-9c3,0,5.9,0,8.9,0C59.8,120.3,59.8,123.3,59.8,126.3z M58.5,118.6
			c-2.2,0-4.3,0-6.4,0c0,2.1,0,4.3,0,6.4c2.1,0,4.2,0,6.4,0C58.5,122.8,58.5,120.7,58.5,118.6z"/>
		<path d="M71.4,89.1c0-0.4,0-0.8,0-1.3c0.4,0,0.8,0,1.3,0c0-0.4,0-0.9,0-1.3l0,0c0.8,0,1.7,0,2.5,0c0-0.4,0-0.8,0-1.3
			c-0.4,0-0.8,0-1.2,0c0-0.4,0-0.8,0-1.3c1.7,0,3.4,0,5.1,0c0,1.3,0,2.5,0,3.8c0.9,0,1.7,0,2.5,0c0-0.4,0-0.8,0-1.2
			c0.5,0,0.9,0,1.3,0c0,0.8,0,1.7,0,2.5c-0.4,0-0.8,0-1.2,0c0,0.5,0,0.9,0,1.3l0,0c-0.4,0-0.8,0-1.3,0c0-0.5,0-0.9,0-1.3
			c-0.9,0-1.7,0-2.5,0l0,0c0-0.4,0-0.8,0-1.3c-1.3,0-2.6,0-3.9,0c0,0.4,0,0.9,0,1.3l0,0C73.1,89.1,72.2,89.1,71.4,89.1L71.4,89.1z"
			/>
		<path d="M50.8,104.5c1.3,0,2.5,0,3.8,0c0,0.8,0,1.7,0,2.5c-0.4,0-0.8,0-1.2,0c0-0.4,0-0.8,0-1.2c-0.4,0-0.8,0-1.3,0
			c0,0.8,0,1.7,0,2.5c0.4,0,0.8,0,1.2,0c0,0.4,0,0.8,0,1.3c-0.4,0-0.8,0-1.2,0c0,1.7,0,3.4,0,5.1c0.8,0,1.7,0,2.5,0
			c0,0.4,0,0.8,0,1.3c-1.3,0-2.5,0-3.8,0C50.8,112.2,50.8,108.3,50.8,104.5z"/>
		<path d="M64.9,116.1c-0.4,0-0.9,0-1.3-0.1c0-0.4,0-0.8,0-1.2c-0.9,0-1.7,0-2.5,0c0,0.4,0,0.8,0,1.2c0.9,0,1.7,0,2.5,0
			c0,0.4,0,0.9,0,1.3c-0.4,0-0.8,0-1.2,0c0,0.4,0,0.8,0,1.2c-0.4,0-0.9,0-1.3,0c0-0.8,0-1.6,0-2.5c-0.9,0-1.7,0-2.5,0
			c0-0.4,0-0.8,0-1.3c0.8,0,1.6,0,2.5,0c0-0.4,0-0.8,0-1.3c-0.8,0-1.6,0-2.5,0c0-0.4,0-0.8,0-1.3c1.3,0,2.5,0,3.8,0
			c0-0.5,0-0.9,0-1.3c0,0,0,0,0,0c0.4,0,0.9,0,1.3,0c0,0.8,0,1.7,0,2.5c0.5,0,0.9,0,1.3,0c0-0.4,0-0.8,0-1.2c0.4,0,0.8,0,1.3,0
			c0,0.4,0,0.8,0,1.3c-0.4,0-0.8,0-1.3,0C64.9,114.4,64.9,115.2,64.9,116.1L64.9,116.1z"/>
		<path d="M80.3,105.7c0,0.4,0,0.8,0,1.3c0.8,0,1.7,0,2.5,0c0,0.4,0,0.8,0,1.3c0.5,0,0.8,0,1.2,0c0,0.5,0,0.9,0,1.3c0,0,0,0,0,0
			c-0.8,0-1.7,0-2.5,0c0-0.5,0-0.9,0-1.3c-1.3,0-2.6,0-3.8,0c0,0.9,0,1.7,0,2.5c-0.9,0-1.7,0-2.5,0c0-0.4,0-0.8,0-1.3
			c0.4,0,0.8,0,1.2,0c0-0.9,0-1.7,0-2.6c-0.4,0-0.8,0-1.2,0c0-0.5,0-0.9,0-1.3c0.9,0,1.7,0,2.6,0c0,0.4,0,0.8,0,1.2
			c0.4,0,0.8,0,1.3,0c0-0.4,0-0.8,0-1.3C79.5,105.8,79.9,105.8,80.3,105.7L80.3,105.7z"/>
		<path d="M84.1,96.7c0.4,0,0.8,0,1.3,0c0-0.4,0-0.8,0-1.2c0.9,0,1.7,0,2.6,0c0-0.4,0-0.8,0-1.3c0.9,0,1.7,0,2.6,0
			c0,0.8,0,1.7,0,2.5c0.9,0,1.7,0,2.6,0c0,0.4,0,0.8,0,1.3c-0.8,0-1.7,0-2.5,0c0,0.4,0,0.8,0,1.3c-0.4,0-0.8,0-1.3,0
			c0-0.8,0-1.6,0-2.5c-1.3,0-2.6,0-3.9,0c0,0.4,0,0.8,0,1.2c-0.4,0-0.8,0-1.3,0C84.1,97.6,84.1,97.2,84.1,96.7
			C84.1,96.7,84.1,96.7,84.1,96.7z"/>
		<path d="M62.4,125c0-0.8,0-1.7,0-2.5c-0.4,0-0.8,0-1.3,0c0-0.9,0-1.7,0-2.6c0.8,0,1.7,0,2.5,0c0,1.7,0,3.4,0,5.1
			C63.2,125,62.8,125,62.4,125z"/>
		<path d="M90.6,125c0-1.3,0-2.5,0-3.8c0.5,0,0.9,0,1.3-0.1l0,0c0,0.4,0,0.8,0,1.3c0.5,0,0.9,0,1.3,0c0,0.9,0,1.7,0,2.6
			C92.3,125,91.4,125,90.6,125L90.6,125z"/>
		<path d="M88,112.2c1.3,0,2.5,0,3.8,0c0.4,0,0.9,0,1.3,0c0,0.4,0,0.8,0,1.3c-0.8,0-1.7,0-2.5,0c0,0.4,0,0.8,0,1.3
			c-0.5,0-0.9,0-1.3-0.1c0,0,0,0,0,0c0-0.4,0-0.8,0-1.2c-0.5,0-0.9-0.1-1.3-0.1l0,0C88,113,88,112.6,88,112.2L88,112.2z"/>
		<path d="M59.9,96.8c0-0.4-0.1-0.9-0.1-1.3c-0.4,0-0.8,0-1.2,0c0-0.4,0-0.8,0-1.3c0.8,0,1.7,0,2.5,0c0,0.4,0,0.8,0,1.2
			c0.4,0,0.9,0,1.3,0c0,0.5,0,0.9,0,1.3c-0.7,0-1.4,0-2.1,0C60.1,96.8,60,96.8,59.9,96.8L59.9,96.8z"/>
		<path d="M54.7,98c-0.4,0-0.8,0-1.3,0c0-0.4,0-0.8,0-1.3c0.4,0,0.8,0,1.2,0c0-0.9,0-1.7,0-2.5c0.9,0,1.7,0,2.6,0c0,0.4,0,0.8,0,1.3
			c-0.4,0-0.8,0-1.2,0c0,0.5,0,0.9,0,1.3c0,0,0,0,0,0c-0.4,0-0.8,0.1-1.3,0.1C54.7,97.2,54.7,97.6,54.7,98L54.7,98z"/>
		<path d="M59.9,96.8c0,0.4,0,0.8,0,1.2c0,0,0,0,0,0c-0.4,0-0.8,0-1.3,0c0,0.5,0,0.9,0,1.3l0,0c-0.4,0-0.8,0-1.3,0
			c0-0.4,0-0.8,0-1.3c-0.4,0-0.9,0-1.3,0l0,0c0-0.4,0-0.9,0-1.3c0,0,0,0,0,0c0.9,0,1.8,0,2.7,0C59.1,96.8,59.5,96.8,59.9,96.8
			C59.9,96.8,59.9,96.8,59.9,96.8z"/>
		<path d="M89.3,125c-0.4,0-0.8,0-1.3,0c0-0.4,0-0.8,0-1.3c-0.4,0-0.8,0-1.3,0c0-0.4,0-0.8,0-1.3c0.8,0,1.7,0,2.5,0
			C89.3,123.3,89.3,124.2,89.3,125C89.3,125,89.3,125,89.3,125z"/>
		<path d="M53.4,112.2c0.4,0,0.8,0,1.3,0c0-0.4,0-0.8,0-1.3c0.4,0,0.8,0,1.3,0c0,0.8,0,1.7,0,2.5c-0.8,0-1.7,0-2.5,0
			C53.4,113,53.4,112.6,53.4,112.2z"/>
		<path d="M82.8,125c0-0.2,0.1-0.5,0.1-0.7c0-0.6,0-1.2,0-1.8c0.4,0,0.8,0,1.3,0c0,0.4,0,0.8,0,1.3c0.4,0,0.8,0,1.3,0
			c0,0.5-0.1,0.9-0.1,1.3l0,0c-0.7,0-1.4,0-2,0C83.2,125,83,125,82.8,125C82.8,125,82.8,125,82.8,125z"/>
		<path d="M82.8,99.3c0.9,0,1.7,0,2.6,0c0,0.4,0,0.8,0,1.3c-0.9,0-1.7,0-2.6,0c0,0,0,0,0,0C82.9,100.2,82.9,99.7,82.8,99.3
			L82.8,99.3z"/>
		<path d="M67.5,125c0,0.4,0,0.8,0,1.3c-0.8,0-1.7,0-2.5,0c0-0.4,0-0.8,0-1.3C65.8,125,66.6,125,67.5,125
			C67.5,125,67.5,125,67.5,125z"/>
		<path d="M57.3,110.9c0-0.4,0-0.8,0-1.2c0.8,0,1.7,0,2.5,0c0,0.4,0,0.8,0,1.2C59,110.9,58.1,110.9,57.3,110.9z"/>
		<path d="M91.8,121.1c0-0.8,0-1.7,0-2.5c0.5,0,0.9,0,1.3,0c0,0.8,0,1.7,0,2.5C92.7,121.1,92.3,121.1,91.8,121.1
			C91.8,121.1,91.8,121.1,91.8,121.1z"/>
		<path d="M81.6,90.4c0.4,0,0.8,0,1.2,0c0,0.8,0,1.7,0,2.6c-0.4,0-0.8,0-1.2,0c0,0,0,0,0,0C81.6,92.1,81.6,91.2,81.6,90.4L81.6,90.4
			z"/>
		<path d="M93.1,110.9c-0.4,0-0.8,0-1.2,0c0-0.4,0-0.8,0-1.2c0.4,0,0.8,0,1.2,0C93.1,110,93.1,110.4,93.1,110.9z"/>
		<path d="M86.7,110.9c0.4,0,0.8,0,1.3,0c0,0.4,0,0.9,0,1.3l0,0c-0.4,0-0.8,0-1.3,0C86.7,111.7,86.7,111.3,86.7,110.9L86.7,110.9z"
			/>
		<path d="M66.2,123.7c-0.4,0-0.8,0-1.2,0c0-0.4,0-0.8,0-1.2c0.4,0,0.8,0,1.2,0C66.2,122.9,66.2,123.3,66.2,123.7z"/>
		<path d="M72.6,86.5c-0.4,0-0.8,0-1.3,0c0-0.4,0-0.8,0-1.3c0.4,0,0.8,0,1.3,0C72.6,85.7,72.6,86.1,72.6,86.5
			C72.6,86.5,72.6,86.5,72.6,86.5z"/>
		<path d="M85.4,125c0.4,0,0.9,0,1.3,0c0,0.4,0,0.8,0,1.2c-0.4,0-0.8,0-1.2,0C85.4,125.8,85.4,125.4,85.4,125
			C85.4,125,85.4,125,85.4,125z"/>
		<path d="M90.5,125c0,0.4,0,0.8,0,1.3c-0.4,0-0.8,0-1.3,0c0-0.4,0-0.8,0-1.3c0,0,0,0,0,0C89.7,125,90.1,125,90.5,125
			C90.6,125,90.5,125,90.5,125z"/>
		<path d="M68.8,91.7c0.4,0,0.9,0,1.3,0c0,0,0,0,0,0c0,0.4,0,0.8,0,1.3c-0.4,0-0.9,0-1.3,0l0,0C68.8,92.5,68.8,92.1,68.8,91.7
			L68.8,91.7z"/>
		<path d="M56,98c0,0.4,0,0.8,0,1.3c-0.4,0-0.8,0-1.3,0c0-0.4,0-0.9,0-1.3l0,0C55.1,98,55.6,98,56,98L56,98z"/>
		<path d="M53.4,100.6c-0.4,0-0.8,0-1.2,0c0-0.4,0-0.8,0-1.2c0.4,0,0.8,0,1.2,0C53.4,99.8,53.4,100.2,53.4,100.6z"/>
		<path d="M59.8,99.3c0,0.4,0,0.9,0,1.3c-0.5,0-0.9,0-1.3,0c0-0.4,0-0.9,0-1.3c0,0,0,0,0,0C59,99.3,59.4,99.3,59.8,99.3L59.8,99.3z"
			/>
		<path d="M86.7,100.6c0-0.4,0-0.8,0-1.2c0.4,0,0.8,0,1.2,0c0,0.4,0,0.8,0,1.2C87.6,100.6,87.2,100.6,86.7,100.6z"/>
		<path d="M93.1,99.3c0,0.4,0,0.8,0,1.2c-0.4,0-0.8,0-1.2,0c0-0.4,0-0.8,0-1.2C92.3,99.3,92.7,99.3,93.1,99.3z"/>
		<path d="M54.7,101.9c0,0.4,0,0.8,0,1.3c-0.4,0-0.9,0-1.3,0c0-0.4,0-0.8,0-1.3C53.9,101.9,54.3,101.9,54.7,101.9
			C54.7,101.9,54.7,101.9,54.7,101.9z"/>
		<path d="M56,108.4c0,0.4,0,0.8-0.1,1.2c-0.4,0-0.8,0-1.2,0c0-0.4,0-0.8,0-1.2C55.1,108.4,55.6,108.4,56,108.4L56,108.4z"/>
		<path d="M56,108.4c0-0.4,0-0.9-0.1-1.3c0.5,0,0.9,0,1.3,0c0,0,0,0,0,0c0,0.4,0,0.8-0.1,1.3C56.8,108.4,56.4,108.4,56,108.4
			C56,108.4,56,108.4,56,108.4z"/>
		<path d="M62.3,91.7c0,0.4,0,0.8,0,1.2c-0.4,0-0.8,0-1.2,0c0-0.4,0-0.8,0-1.2C61.5,91.7,61.9,91.7,62.3,91.7
			C62.3,91.7,62.3,91.7,62.3,91.7z"/>
		<path d="M93.1,116c-0.4,0-0.8,0-1.2,0c0-0.4,0-0.8,0-1.2c0.4,0,0.8,0,1.2,0C93.1,115.2,93.1,115.6,93.1,116z"/>
		<path d="M81.7,125c0.4,0,0.8,0,1.2,0c0,0,0,0,0,0c0,0.4,0.1,0.8,0.1,1.3c-0.5,0-0.9,0-1.3,0C81.6,125.8,81.6,125.4,81.7,125
			C81.7,125,81.7,125,81.7,125z"/>
		<path d="M72.6,112.2c0,0.4,0,0.8,0,1.3c-0.2,0-0.4,0-0.5,0c-1,0-2,0-3,0c-0.1,0-0.3,0-0.4,0c0-0.8,0-1.7,0-2.6c0.9,0,1.7,0,2.6,0
			c0,0.4,0,0.8,0,1.3C71.8,112.2,72.2,112.2,72.6,112.2z"/>
		<path d="M63.6,110.9c0-1.1,0-2.3,0-3.4c0-0.2,0-0.3,0-0.5c0.9,0,1.7,0,2.6,0c0,0.4,0,0.9,0,1.3c-0.4,0-0.8,0-1.3,0
			c0,0.8,0,1.7,0,2.6C64.5,110.9,64,110.9,63.6,110.9z"/>
		<path d="M73.9,98c0-0.4,0-0.8,0-1.2c-0.4,0-0.8,0-1.3,0c0-0.4,0-0.8,0-1.3c0.3,0,0.6,0,0.9,0c0.5,0,0.9,0,1.4,0
			c0.1,0,0.2,0.1,0.4,0.1c0,0,0,0,0,0c0,0.7,0,1.3,0,2c0,0.1,0,0.3,0,0.4C74.8,98,74.3,98,73.9,98L73.9,98z"/>
		<path d="M76.5,101.9c0,0.4,0,0.8,0,1.3c0.4,0,0.8,0,1.2,0c0,0.4,0,0.8,0,1.3c-0.8,0-1.7,0-2.5,0c0-0.9,0-1.7,0-2.6l0,0
			C75.7,101.9,76.1,101.9,76.5,101.9L76.5,101.9z"/>
		<path d="M76.5,95.4c0.3,0,0.5,0.1,0.8,0.1c0.2,0,0.3,0,0.5,0c0,0.4,0,0.8,0,1.3c0.4,0,0.8,0,1.3,0c0,0.4,0,0.8,0,1.2
			c-0.8,0-1.7,0-2.5,0C76.5,97.1,76.5,96.3,76.5,95.4C76.5,95.4,76.5,95.4,76.5,95.4z"/>
		<path d="M73.9,112.2c-0.4,0-0.9,0-1.3,0c0-0.4,0-0.8,0-1.3c0.4,0,0.8,0,1.3,0C73.9,111.4,73.9,111.8,73.9,112.2z"/>
		<path d="M73.9,98c0,0.4,0,0.9,0,1.3c-0.4,0-0.8,0-1.2,0c0-0.4,0-0.8,0-1.2C73.1,98,73.5,98,73.9,98C73.9,98,73.9,98,73.9,98z"/>
		<path d="M75.2,101.9c-0.4,0-0.8,0-1.3,0c0-0.4,0-0.8,0-1.2c0.4,0,0.8,0,1.3,0C75.2,101,75.2,101.5,75.2,101.9
			C75.2,101.9,75.2,101.9,75.2,101.9z"/>
		<path d="M76.5,101.9c0-0.4,0-0.8,0-1.3c0.4,0,0.8,0,1.3,0c0,0,0,0,0,0c0,0.4,0,0.8,0,1.3C77.3,101.9,76.9,101.9,76.5,101.9
			C76.5,101.9,76.5,101.9,76.5,101.9z"/>
		<path d="M71.4,109.6c0-0.4,0-0.8,0-1.2c0.4,0,0.8,0,1.2,0c0,0.4,0,0.8,0,1.2C72.2,109.6,71.8,109.6,71.4,109.6z"/>
		<path d="M72.6,104.5c0-0.4,0-0.9,0-1.3c0.4,0,0.8,0,1.3,0c0,0.4,0,0.8,0,1.3C73.5,104.5,73,104.5,72.6,104.5z"/>
		<path d="M71.3,105.8c0-0.4,0-0.8,0-1.3c0.4,0,0.9,0,1.3,0c0,0.4,0,0.8,0,1.3C72.2,105.8,71.8,105.8,71.3,105.8z"/>
		<path d="M84.2,117.3c0.4,0,0.8,0,1.2,0c0,0.4,0,0.8,0,1.2c-0.4,0-0.8,0-1.2,0C84.2,118.1,84.2,117.7,84.2,117.3z"/>
		<path d="M57.2,90.3c-1.3,0-2.5,0-3.8,0c0-1.3,0-2.5,0-3.8c1.3,0,2.5,0,3.8,0C57.2,87.8,57.2,89,57.2,90.3z"/>
		<path d="M90.6,90.3c-1.3,0-2.5,0-3.8,0c0-1.3,0-2.5,0-3.8c1.3,0,2.5,0,3.8,0C90.6,87.8,90.6,89,90.6,90.3z"/>
		<path d="M53.4,119.9c1.3,0,2.5,0,3.8,0c0,1.3,0,2.5,0,3.8c-1.3,0-2.5,0-3.8,0C53.4,122.4,53.4,121.2,53.4,119.9z"/>
	</g>
	<rect x="9.1" y="131.5" class="st24" width="125.8" height="12.6"/>
	<rect x="9.1" y="147.7" class="st24" width="125.8" height="12.6"/>
	<g>
		<g>
			<path class="st23" d="M24.7,139.8l0.2-0.3c0.2,0.2,0.5,0.5,1,0.5c0.5,0,0.8-0.3,0.8-0.8c0-0.5-0.3-0.8-1.3-0.8v-0.3
				c0.8,0,1.1-0.3,1.1-0.8c0-0.4-0.3-0.7-0.7-0.7c-0.3,0-0.6,0.2-0.8,0.4l-0.2-0.3c0.3-0.3,0.6-0.5,1.1-0.5c0.6,0,1.1,0.4,1.1,1
				c0,0.5-0.3,0.8-0.7,1v0c0.5,0.1,0.8,0.5,0.8,1c0,0.7-0.6,1.1-1.2,1.1C25.3,140.4,24.9,140.1,24.7,139.8z"/>
			<path class="st23" d="M27.6,136.3h2.2v0.4h-1.8v1.4h1.5v0.4h-1.5v1.8h-0.4V136.3z"/>
			<path class="st23" d="M29.7,137.4h0.4l0.5,1.7c0.1,0.3,0.1,0.5,0.2,0.8h0c0.1-0.3,0.1-0.5,0.2-0.8l0.5-1.7h0.4l0.5,1.7
				c0.1,0.3,0.1,0.5,0.2,0.8h0c0.1-0.3,0.1-0.5,0.2-0.8l0.4-1.7h0.4l-0.8,2.9h-0.5l-0.4-1.6c-0.1-0.3-0.1-0.5-0.2-0.8h0
				c-0.1,0.3-0.1,0.6-0.2,0.8l-0.4,1.6h-0.5L29.7,137.4z"/>
			<path class="st23" d="M33.8,136.4c0-0.2,0.1-0.3,0.3-0.3c0.2,0,0.3,0.1,0.3,0.3c0,0.2-0.1,0.3-0.3,0.3
				C33.9,136.7,33.8,136.6,33.8,136.4z M33.9,137.4h0.4v2.9h-0.4V137.4z"/>
			<path class="st23" d="M34.7,140l2.1-3.3h-1.9v-0.4h2.5v0.3l-2.1,3.3h2.1v0.4h-2.7V140z"/>
			<path class="st23" d="M37.4,138.8c0-0.9,0.6-1.5,1.3-1.5c0.3,0,0.6,0.1,0.8,0.3l0-0.5V136H40v4.3h-0.4l0-0.4h0
				c-0.2,0.2-0.5,0.4-0.9,0.4C37.9,140.4,37.4,139.8,37.4,138.8z M39.5,139.6V138c-0.3-0.2-0.5-0.3-0.7-0.3c-0.5,0-0.9,0.5-0.9,1.2
				c0,0.7,0.3,1.2,0.8,1.2C39,140,39.3,139.8,39.5,139.6z"/>
			<path class="st23" d="M40.3,140l2.1-3.3h-1.9v-0.4H43v0.3l-2.1,3.3H43v0.4h-2.7V140z"/>
			<path class="st23" d="M42.9,137.4h0.5l0.6,1.7c0.1,0.3,0.2,0.6,0.3,0.9h0c0.1-0.3,0.2-0.6,0.3-0.9l0.6-1.7h0.4l-1,2.9h-0.5
				L42.9,137.4z"/>
			<path class="st23" d="M45.4,140l2.1-3.3h-1.9v-0.4h2.5v0.3l-2.1,3.3h2.1v0.4h-2.7V140z"/>
			<path class="st23" d="M47.9,139.7l0.3-0.2c0.2,0.3,0.4,0.4,0.7,0.4c0.4,0,0.7-0.2,0.7-0.9v-2.8h0.4v2.8c0,0.7-0.3,1.2-1.1,1.2
				C48.5,140.4,48.2,140.2,47.9,139.7z"/>
			<path class="st23" d="M50.7,136.3h1c1.2,0,1.8,0.7,1.8,2c0,1.2-0.6,2-1.8,2h-1V136.3z M51.7,139.9c1,0,1.4-0.6,1.4-1.6
				c0-1-0.5-1.6-1.4-1.6h-0.5v3.2H51.7z"/>
			<path class="st23" d="M54.7,136.7h-1.2v-0.4h2.9v0.4h-1.2v3.6h-0.5V136.7z"/>
			<path class="st23" d="M57.3,138.2l-1.1-1.9h0.5l0.6,1c0.1,0.2,0.2,0.3,0.3,0.6h0c0.1-0.2,0.2-0.4,0.3-0.6l0.6-1h0.5l-1.1,1.9
				l1.2,2h-0.5l-0.6-1.1c-0.1-0.2-0.2-0.4-0.3-0.6h0c-0.1,0.2-0.2,0.4-0.3,0.6l-0.6,1.1h-0.5L57.3,138.2z"/>
			<path class="st23" d="M61,139h-1.5l-0.4,1.2h-0.4l1.3-4h0.5l1.4,4h-0.5L61,139z M60.9,138.7l-0.2-0.6c-0.2-0.4-0.3-0.9-0.4-1.3h0
				c-0.1,0.5-0.3,0.9-0.4,1.3l-0.2,0.6H60.9z"/>
			<path class="st23" d="M61.7,136.3h0.5l0.4,2.2c0.1,0.4,0.2,0.8,0.2,1.3h0c0.1-0.4,0.2-0.9,0.3-1.3l0.6-2.2h0.4l0.6,2.2
				c0.1,0.4,0.2,0.8,0.3,1.3h0c0.1-0.4,0.2-0.9,0.2-1.3l0.4-2.2h0.4l-0.8,4h-0.5l-0.6-2.5c-0.1-0.3-0.1-0.6-0.2-0.9h0
				c-0.1,0.3-0.1,0.6-0.2,0.9l-0.6,2.5h-0.5L61.7,136.3z"/>
			<path class="st23" d="M66.4,136.3h1c1.2,0,1.8,0.7,1.8,2c0,1.2-0.6,2-1.8,2h-1V136.3z M67.3,139.9c1,0,1.4-0.6,1.4-1.6
				c0-1-0.5-1.6-1.4-1.6h-0.5v3.2H67.3z"/>
			<path class="st23" d="M69.2,137.4h0.4l0.5,1.7c0.1,0.3,0.1,0.5,0.2,0.8h0c0.1-0.3,0.1-0.5,0.2-0.8l0.5-1.7h0.4l0.5,1.7
				c0.1,0.3,0.1,0.5,0.2,0.8h0c0.1-0.3,0.1-0.5,0.2-0.8l0.4-1.7h0.4l-0.8,2.9h-0.5l-0.4-1.6c-0.1-0.3-0.1-0.5-0.2-0.8h0
				c-0.1,0.3-0.1,0.6-0.2,0.8l-0.4,1.6h-0.5L69.2,137.4z"/>
			<path class="st23" d="M73.3,138.3c0-1.3,0.7-2,1.7-2c0.5,0,0.8,0.2,1.1,0.5l-0.2,0.3c-0.2-0.2-0.5-0.4-0.8-0.4
				c-0.8,0-1.3,0.6-1.3,1.6c0,1,0.5,1.7,1.3,1.7c0.4,0,0.7-0.2,0.9-0.5l0.2,0.3c-0.3,0.4-0.7,0.6-1.2,0.6
				C74,140.4,73.3,139.6,73.3,138.3z"/>
			<path class="st23" d="M76.5,136.3h1c1.2,0,1.8,0.7,1.8,2c0,1.2-0.6,2-1.8,2h-1V136.3z M77.5,139.9c1,0,1.4-0.6,1.4-1.6
				c0-1-0.5-1.6-1.4-1.6H77v3.2H77.5z"/>
			<path class="st23" d="M79.4,136.3h0.5l0.4,2.2c0.1,0.4,0.2,0.8,0.2,1.3h0c0.1-0.4,0.2-0.9,0.3-1.3l0.6-2.2h0.4l0.6,2.2
				c0.1,0.4,0.2,0.8,0.3,1.3h0c0.1-0.4,0.2-0.9,0.2-1.3l0.4-2.2h0.4l-0.8,4h-0.5l-0.6-2.5c-0.1-0.3-0.1-0.6-0.2-0.9h0
				c-0.1,0.3-0.1,0.6-0.2,0.9l-0.6,2.5h-0.5L79.4,136.3z"/>
			<path class="st23" d="M83.8,139.3c0-0.5,0.4-0.9,0.7-1.1v0c-0.3-0.2-0.5-0.5-0.5-0.9c0-0.6,0.5-1,1.1-1c0.7,0,1.1,0.4,1.1,1
				c0,0.4-0.3,0.8-0.5,1v0c0.3,0.2,0.7,0.5,0.7,1c0,0.6-0.5,1-1.2,1C84.3,140.4,83.8,139.9,83.8,139.3z M85.8,139.3
				c0-0.6-0.5-0.8-1.1-1c-0.3,0.2-0.6,0.5-0.6,0.9c0,0.4,0.4,0.8,0.9,0.8C85.5,140,85.8,139.7,85.8,139.3z M85.7,137.3
				c0-0.4-0.3-0.7-0.7-0.7c-0.4,0-0.6,0.3-0.6,0.7c0,0.5,0.4,0.7,0.9,0.9C85.6,137.9,85.7,137.6,85.7,137.3z"/>
			<path class="st23" d="M86.5,136.4c0-0.2,0.1-0.3,0.3-0.3c0.2,0,0.3,0.1,0.3,0.3c0,0.2-0.1,0.3-0.3,0.3
				C86.6,136.7,86.5,136.6,86.5,136.4z M86.6,137.4H87v2.9h-0.4V137.4z"/>
			<path class="st23" d="M87.7,137.4H88l0,0.5h0c0.2-0.4,0.5-0.6,0.8-0.6c0.1,0,0.2,0,0.3,0.1l-0.1,0.4c-0.1,0-0.2,0-0.3,0
				c-0.2,0-0.6,0.2-0.8,0.7v1.9h-0.4V137.4z"/>
			<path class="st23" d="M89,138.8c0-1,0.6-1.5,1.3-1.5c0.7,0,1.1,0.5,1.1,1.4c0,0.1,0,0.2,0,0.3h-2c0,0.6,0.4,1.1,1,1.1
				c0.3,0,0.5-0.1,0.7-0.2l0.2,0.3c-0.3,0.2-0.6,0.3-1,0.3C89.6,140.4,89,139.8,89,138.8z M91.1,138.6c0-0.6-0.3-1-0.8-1
				c-0.4,0-0.8,0.4-0.9,1H91.1z"/>
			<path class="st23" d="M91.6,138.3c0-1.3,0.8-2,1.8-2c0.5,0,0.9,0.2,1.1,0.5l-0.2,0.3c-0.2-0.2-0.5-0.4-0.9-0.4
				c-0.8,0-1.3,0.6-1.3,1.6c0,1,0.5,1.7,1.3,1.7c0.3,0,0.6-0.1,0.8-0.2v-1.1h-0.9v-0.4h1.3v1.6c-0.3,0.3-0.7,0.5-1.2,0.5
				C92.3,140.4,91.6,139.6,91.6,138.3z"/>
			<path class="st23" d="M95.1,136.3h1.1c0.9,0,1.5,0.3,1.5,1.1c0,0.8-0.6,1.2-1.4,1.2h-0.7v1.6h-0.4V136.3z M96.2,138.3
				c0.7,0,1.1-0.3,1.1-0.8c0-0.6-0.4-0.8-1.1-0.8h-0.6v1.6H96.2z"/>
			<path class="st23" d="M98.5,140L98.5,140l-0.1,0.3h-0.3V136h0.4v1.2l0,0.5c0.3-0.2,0.6-0.4,0.9-0.4c0.8,0,1.2,0.6,1.2,1.5
				c0,1-0.6,1.6-1.3,1.6C99,140.4,98.7,140.2,98.5,140z M100.1,138.8c0-0.7-0.2-1.1-0.8-1.1c-0.3,0-0.5,0.1-0.8,0.4v1.6
				c0.3,0.2,0.5,0.3,0.7,0.3C99.7,140,100.1,139.5,100.1,138.8z"/>
			<path class="st23" d="M101,137.4h0.4l0,0.5h0c0.2-0.4,0.5-0.6,0.8-0.6c0.1,0,0.2,0,0.3,0.1l-0.1,0.4c-0.1,0-0.2,0-0.3,0
				c-0.2,0-0.6,0.2-0.8,0.7v1.9H101V137.4z"/>
			<path class="st23" d="M102.3,139.8l0.2-0.3c0.2,0.2,0.5,0.5,1,0.5c0.5,0,0.8-0.3,0.8-0.8c0-0.5-0.3-0.8-1.3-0.8v-0.3
				c0.8,0,1.1-0.3,1.1-0.8c0-0.4-0.3-0.7-0.7-0.7c-0.3,0-0.6,0.2-0.8,0.4l-0.2-0.3c0.3-0.3,0.6-0.5,1.1-0.5c0.6,0,1.1,0.4,1.1,1
				c0,0.5-0.3,0.8-0.7,1v0c0.5,0.1,0.8,0.5,0.8,1c0,0.7-0.6,1.1-1.2,1.1C102.9,140.4,102.5,140.1,102.3,139.8z"/>
			<path class="st23" d="M105.2,137.4h0.4l0,0.4h0c0.3-0.3,0.6-0.5,1-0.5c0.6,0,0.9,0.4,0.9,1.1v1.9H107v-1.8c0-0.6-0.2-0.8-0.6-0.8
				c-0.3,0-0.5,0.2-0.8,0.5v2.1h-0.4V137.4z"/>
			<path class="st23" d="M111.2,141.2c-0.1,0-0.3,0.1-0.5,0.1c-0.7,0-1.2-0.4-1.4-0.9c-0.9-0.1-1.4-0.9-1.4-2c0-1.3,0.7-2,1.7-2
				c1,0,1.7,0.8,1.7,2c0,1.2-0.6,1.9-1.4,2c0.2,0.4,0.5,0.6,1,0.6c0.2,0,0.3,0,0.4-0.1L111.2,141.2z M109.5,140
				c0.7,0,1.2-0.7,1.2-1.7c0-1-0.5-1.6-1.2-1.6c-0.7,0-1.2,0.6-1.2,1.6C108.3,139.3,108.8,140,109.5,140z"/>
			<path class="st23" d="M111.6,136.3h2.3v0.4h-1.8v1.3h1.5v0.4h-1.5v1.5h1.9v0.4h-2.3V136.3z"/>
			<path class="st23" d="M117.6,141.2c-0.1,0-0.3,0.1-0.5,0.1c-0.7,0-1.2-0.4-1.4-0.9c-0.9-0.1-1.4-0.9-1.4-2c0-1.3,0.7-2,1.7-2
				c1,0,1.7,0.8,1.7,2c0,1.2-0.6,1.9-1.4,2c0.2,0.4,0.5,0.6,1,0.6c0.2,0,0.3,0,0.4-0.1L117.6,141.2z M115.8,140
				c0.7,0,1.2-0.7,1.2-1.7c0-1-0.5-1.6-1.2-1.6c-0.7,0-1.2,0.6-1.2,1.6C114.6,139.3,115.1,140,115.8,140z"/>
			<path class="st23" d="M117.9,137.4h0.4l0,0.5h0c0.2-0.4,0.5-0.6,0.8-0.6c0.1,0,0.2,0,0.3,0.1l-0.1,0.4c-0.1,0-0.2,0-0.3,0
				c-0.2,0-0.6,0.2-0.8,0.7v1.9h-0.4V137.4z"/>
		</g>
	</g>
	<g>
		<g>
			<path class="st23" d="M54.1,154.5c0-1.4,0.5-2,1.2-2c0.7,0,1.2,0.7,1.2,2c0,1.4-0.5,2.1-1.2,2.1
				C54.6,156.6,54.1,155.9,54.1,154.5z M56.1,154.5c0-1.2-0.3-1.7-0.8-1.7c-0.5,0-0.8,0.5-0.8,1.7c0,1.2,0.3,1.7,0.8,1.7
				C55.8,156.2,56.1,155.7,56.1,154.5z"/>
			<path class="st23" d="M57.2,156.2c0-0.2,0.2-0.4,0.3-0.4c0.2,0,0.3,0.1,0.3,0.4c0,0.2-0.2,0.3-0.3,0.3
				C57.4,156.6,57.2,156.4,57.2,156.2z"/>
			<path class="st23" d="M58.6,154.5c0-1.4,0.5-2,1.2-2c0.7,0,1.2,0.7,1.2,2c0,1.4-0.5,2.1-1.2,2.1C59,156.6,58.6,155.9,58.6,154.5z
				 M60.6,154.5c0-1.2-0.3-1.7-0.8-1.7c-0.5,0-0.8,0.5-0.8,1.7c0,1.2,0.3,1.7,0.8,1.7C60.2,156.2,60.6,155.7,60.6,154.5z"/>
			<path class="st23" d="M61.5,154.5c0-1.4,0.5-2,1.2-2c0.7,0,1.2,0.7,1.2,2c0,1.4-0.5,2.1-1.2,2.1C62,156.6,61.5,155.9,61.5,154.5z
				 M63.5,154.5c0-1.2-0.3-1.7-0.8-1.7c-0.5,0-0.8,0.5-0.8,1.7c0,1.2,0.3,1.7,0.8,1.7C63.2,156.2,63.5,155.7,63.5,154.5z"/>
			<path class="st23" d="M66.6,153.2c-0.2-0.2-0.4-0.3-0.6-0.3c-0.6,0-1,0.4-1,1.7c0.2-0.3,0.6-0.5,0.9-0.5c0.7,0,1.1,0.4,1.1,1.2
				c0,0.8-0.5,1.3-1.1,1.3c-0.8,0-1.3-0.7-1.3-2c0-1.6,0.7-2.1,1.4-2.1c0.4,0,0.7,0.2,0.9,0.4L66.6,153.2z M66.5,155.3
				c0-0.6-0.2-0.9-0.7-0.9c-0.3,0-0.6,0.1-0.8,0.5c0.1,0.8,0.4,1.3,0.9,1.3C66.2,156.2,66.5,155.9,66.5,155.3z"/>
			<path class="st23" d="M67.4,156.3c1.3-1.1,1.8-1.9,1.8-2.6c0-0.5-0.2-0.8-0.8-0.8c-0.3,0-0.6,0.2-0.8,0.5l-0.3-0.2
				c0.3-0.3,0.7-0.6,1.1-0.6c0.7,0,1.1,0.5,1.1,1.2c0,0.8-0.6,1.6-1.6,2.5c0.2,0,0.4,0,0.6,0h1.1v0.4h-2.4V156.3z"/>
			<path class="st23" d="M70.4,155.5c0-0.5,0.4-0.9,0.7-1.1v0c-0.3-0.2-0.5-0.5-0.5-0.9c0-0.6,0.5-1,1.1-1c0.7,0,1.1,0.4,1.1,1
				c0,0.4-0.3,0.8-0.5,1v0c0.3,0.2,0.7,0.5,0.7,1c0,0.6-0.5,1-1.2,1C70.9,156.6,70.4,156.1,70.4,155.5z M72.4,155.6
				c0-0.6-0.5-0.8-1.1-1c-0.3,0.2-0.6,0.5-0.6,0.9c0,0.4,0.4,0.8,0.9,0.8C72.1,156.3,72.4,156,72.4,155.6z M72.4,153.6
				c0-0.4-0.3-0.7-0.7-0.7c-0.4,0-0.6,0.3-0.6,0.7c0,0.5,0.4,0.7,0.9,0.9C72.2,154.1,72.4,153.9,72.4,153.6z"/>
			<path class="st23" d="M75.9,155.4h-0.5v1.1H75v-1.1h-1.7v-0.3l1.7-2.6h0.5v2.5h0.5V155.4z M75,155.1v-1.3c0-0.2,0-0.5,0-0.7h0
				c-0.1,0.2-0.2,0.4-0.3,0.6l-1,1.4H75z"/>
			<path class="st23" d="M76.2,156l0.2-0.3c0.2,0.2,0.5,0.5,1,0.5c0.5,0,0.8-0.3,0.8-0.8c0-0.5-0.3-0.8-1.3-0.8v-0.3
				c0.8,0,1.1-0.3,1.1-0.8c0-0.4-0.3-0.7-0.7-0.7c-0.3,0-0.6,0.2-0.8,0.4l-0.2-0.3c0.3-0.3,0.6-0.5,1.1-0.5c0.6,0,1.1,0.4,1.1,1
				c0,0.5-0.3,0.8-0.7,1v0c0.5,0.1,0.8,0.5,0.8,1c0,0.7-0.6,1.1-1.2,1.1C76.9,156.6,76.5,156.3,76.2,156z"/>
			<path class="st23" d="M80.8,152.6h1.1c0.8,0,1.3,0.3,1.3,1c0,0.4-0.2,0.7-0.6,0.9v0c0.5,0.1,0.8,0.4,0.8,1c0,0.8-0.6,1.2-1.5,1.2
				h-1.2V152.6z M81.9,154.3c0.7,0,1-0.3,1-0.7c0-0.5-0.3-0.7-1-0.7h-0.6v1.3H81.9z M82,156.2c0.7,0,1.1-0.3,1.1-0.8
				c0-0.5-0.4-0.7-1.1-0.7h-0.7v1.6H82z"/>
			<path class="st23" d="M85,152.9h-1.2v-0.4h2.9v0.4h-1.2v3.6H85V152.9z"/>
			<path class="st23" d="M87,154.5c0-1.3,0.7-2,1.7-2c0.5,0,0.8,0.2,1.1,0.5l-0.2,0.3c-0.2-0.2-0.5-0.4-0.8-0.4
				c-0.8,0-1.3,0.6-1.3,1.6c0,1,0.5,1.7,1.3,1.7c0.4,0,0.7-0.2,0.9-0.5l0.2,0.3c-0.3,0.4-0.7,0.6-1.2,0.6
				C87.7,156.6,87,155.8,87,154.5z"/>
		</g>
	</g>
	<g>
		<g>
			<path class="st21" d="M10.1,168.2c0.7,0,1.3,0,1.9-0.1l0,0.3c-0.6,0.1-1.1,0.1-1.9,0.1H9.8v-2.7h1.9v0.3h-1.5v0.9h1.4v0.3h-1.4
				V168.2z M13.4,167.3h-0.7v2.1h-0.3v-4h0.3v1.6h0.7V167.3z"/>
			<path class="st21" d="M15.7,166.7c0,0.7,0.5,1.4,1.1,1.6l-0.2,0.3c-0.5-0.2-0.9-0.7-1.1-1.2c-0.2,0.6-0.6,1.1-1,1.3l-0.2-0.3
				c0.6-0.3,1.1-1,1.1-1.7v-0.6h-1v-0.3h2.2v0.3h-1V166.7z M17.6,165.4v4h-0.3v-4H17.6z"/>
			<path class="st21" d="M20.2,165.7c0,1-0.7,1.7-1.9,2l-0.1-0.3c1-0.2,1.6-0.8,1.7-1.4h-1.5v-0.3H20.2z M20.9,167.8h0.3v1.6h-2.5
				v-1.6H19v0.5h1.9V167.8z M20.9,168.6H19v0.5h1.9V168.6z M21.8,166.7h-0.6v0.9h-0.3v-2.2h0.3v1h0.6V166.7z"/>
			<path class="st21" d="M25.2,165.4v4h-0.3v-2.2H24c0,0.8-0.4,1.3-1,1.3c-0.6,0-1-0.5-1-1.4s0.4-1.4,1-1.4c0.5,0,0.9,0.5,1,1.2h0.9
				v-1.5H25.2z M23.7,167.2c0-0.7-0.3-1.1-0.7-1.1c-0.4,0-0.7,0.4-0.7,1.1c0,0.7,0.3,1.1,0.7,1.1C23.4,168.3,23.7,167.8,23.7,167.2z
				"/>
			<path class="st21" d="M29.4,167.2v0.3h-3.6v-0.3H29.4z M26.7,165.8h-0.6v-0.3H29v0.3h-0.6v0.8H29v0.3h-2.9v-0.3h0.6V165.8z
				 M26.5,169.2H29v0.3h-2.8v-0.9h2.4v-0.4h-2.4v-0.2h2.7v0.9h-2.4V169.2z M28.1,165.8h-1v0.8h1V165.8z"/>
			<path class="st21" d="M33.2,167.2v0.3h-3.6v-0.3H33.2z M29.9,166.2c0-0.5,0.5-0.7,1.4-0.7c0.9,0,1.4,0.3,1.4,0.7
				c0,0.4-0.5,0.7-1.4,0.7C30.5,166.9,29.9,166.7,29.9,166.2z M30.3,169.2h2.5v0.3H30v-0.9h2.4v-0.4H30v-0.3h2.7v0.9h-2.4V169.2z
				 M30.3,166.2c0,0.3,0.4,0.4,1.1,0.4c0.7,0,1.1-0.2,1.1-0.4c0-0.3-0.4-0.5-1.1-0.5C30.7,165.8,30.3,165.9,30.3,166.2z"/>
			<path class="st21" d="M35.6,166.5c0,0.7,0.5,1.4,1,1.7l-0.2,0.3c-0.4-0.2-0.8-0.7-1-1.3c-0.2,0.6-0.6,1.1-1,1.4l-0.2-0.3
				c0.6-0.3,1-1.1,1-1.8v-0.7h0.3V166.5z M38,167.4h-0.7v2.1H37v-4h0.3v1.6H38V167.4z"/>
			<path class="st21" d="M41.7,167.4v0.3h-3.6v-0.3H39v-0.6c-0.3-0.1-0.5-0.3-0.5-0.6c0-0.5,0.5-0.7,1.4-0.7c0.9,0,1.4,0.3,1.4,0.7
				c0,0.3-0.2,0.5-0.5,0.6v0.6H41.7z M41.3,168.7c0,0.5-0.5,0.7-1.4,0.7c-0.9,0-1.4-0.3-1.4-0.7c0-0.5,0.5-0.7,1.4-0.7
				C40.7,168,41.3,168.3,41.3,168.7z M39.9,166.7c0.7,0,1.1-0.2,1.1-0.5c0-0.3-0.4-0.5-1.1-0.5c-0.7,0-1.1,0.2-1.1,0.5
				C38.8,166.6,39.2,166.7,39.9,166.7z M40.9,168.7c0-0.3-0.4-0.5-1-0.5c-0.6,0-1,0.2-1,0.5c0,0.3,0.4,0.5,1,0.5
				C40.5,169.2,40.9,169,40.9,168.7z M39.3,167.4h1.2V167c-0.2,0-0.4,0-0.6,0c-0.2,0-0.4,0-0.6,0V167.4z"/>
			<path class="st21" d="M43.2,166.1h1v0.3h-2.4v-0.3h1v-0.6h0.3V166.1z M44,167.6c0,0.5-0.4,0.9-1,0.9c-0.6,0-1-0.4-1-0.9
				c0-0.5,0.4-0.9,1-0.9C43.6,166.7,44,167.1,44,167.6z M43.7,167.6c0-0.4-0.3-0.6-0.7-0.6c-0.4,0-0.7,0.3-0.7,0.6
				c0,0.4,0.3,0.6,0.7,0.6C43.4,168.3,43.7,168,43.7,167.6z M45.6,167.4h-0.7v2.1h-0.3v-4h0.3v1.7h0.7V167.4z"/>
			<path class="st21" d="M47.1,166.5c0,0.7,0.5,1.5,1.1,1.7l-0.2,0.3c-0.5-0.2-0.9-0.7-1.1-1.3c-0.2,0.6-0.6,1.1-1.1,1.4l-0.2-0.3
				c0.6-0.3,1.1-1,1.1-1.8v-0.7h0.3V166.5z M48.9,165.4v4h-0.3v-4H48.9z"/>
			<path class="st21" d="M53.1,167.5v0.3h-3.6v-0.3H53.1z M50.3,169.1h2.4v0.3h-2.8v-1.2h0.3V169.1z M52.7,166.9H50v-1.4h0.3v1.1
				h2.4V166.9z"/>
			<path class="st21" d="M56.1,166.5c-0.3,0.6-0.9,1.1-1.7,1.4l-0.1-0.3c1-0.3,1.6-0.8,1.7-1.6h-1.5v-0.3h1.8c0,0.2,0,0.3,0,0.5h0.9
				v-0.8h0.3v2.4h-0.3v-0.6h-1.1V167h1.1v-0.6H56.1z M57.5,168.7c0,0.5-0.5,0.8-1.3,0.8c-0.8,0-1.3-0.3-1.3-0.8
				c0-0.5,0.5-0.8,1.3-0.8C57,167.9,57.5,168.2,57.5,168.7z M57.2,168.7c0-0.3-0.4-0.5-1-0.5c-0.6,0-1,0.2-1,0.5
				c0,0.3,0.4,0.5,1,0.5C56.8,169.2,57.2,169,57.2,168.7z"/>
			<path class="st21" d="M61.6,168H60v1.4h-0.3V168H58v-0.3h3.6V168z M58.4,166.5c0-0.5,0.6-0.9,1.4-0.9c0.8,0,1.4,0.3,1.4,0.9
				c0,0.5-0.6,0.9-1.4,0.9C59,167.4,58.4,167,58.4,166.5z M58.7,166.5c0,0.4,0.4,0.6,1.1,0.6c0.6,0,1.1-0.2,1.1-0.6
				c0-0.4-0.4-0.6-1.1-0.6C59.2,165.9,58.7,166.1,58.7,166.5z"/>
			<path class="st21" d="M61.8,169.8c0.3-0.1,0.4-0.3,0.4-0.6c0,0,0,0-0.1,0c-0.1,0-0.3-0.1-0.3-0.3c0-0.2,0.1-0.3,0.3-0.3
				c0.2,0,0.3,0.2,0.3,0.5c0,0.4-0.2,0.7-0.6,0.9L61.8,169.8z"/>
			<path class="st21" d="M11,174.8c0,0.7,0.5,1.4,1.1,1.6l-0.2,0.3c-0.5-0.2-0.9-0.7-1.1-1.2c-0.2,0.6-0.6,1.1-1,1.3l-0.2-0.3
				c0.6-0.3,1.1-1,1.1-1.7v-0.6h-1V174H12v0.3h-1V174.8z M12.9,173.6v4h-0.3v-4H12.9z"/>
			<path class="st21" d="M15.4,173.8c0,1-0.7,1.7-1.9,2l-0.1-0.3c1-0.2,1.6-0.8,1.7-1.4h-1.5v-0.3H15.4z M16.2,175.9h0.3v1.6H14
				v-1.6h0.3v0.5h1.9V175.9z M16.2,176.7h-1.9v0.5h1.9V176.7z M17.1,174.8h-0.6v0.9h-0.3v-2.2h0.3v1h0.6V174.8z"/>
			<path class="st21" d="M20.8,176.1h-1.7v1.4h-0.3v-1.4h-1.6v-0.3h3.6V176.1z M17.4,175.2c0.7-0.1,1.4-0.6,1.4-1.1v0h-1.3v-0.3h2.9
				v0.3h-1.3v0c0,0.5,0.7,1,1.4,1.1l-0.1,0.3c-0.6-0.1-1.2-0.4-1.5-0.9c-0.2,0.5-0.9,0.8-1.5,0.9L17.4,175.2z"/>
			<path class="st21" d="M24.7,176.8v0.3H21v-0.3h1.6v-1H23v1H24.7z M24.3,175.8c-0.6-0.1-1.3-0.6-1.5-1.1c-0.3,0.6-0.9,1-1.5,1.1
				l-0.1-0.3c0.7-0.1,1.5-0.7,1.5-1.4v-0.3H23v0.3c0,0.7,0.8,1.3,1.5,1.4L24.3,175.8z"/>
			<path class="st21" d="M28.5,175.4v0.3h-3.6v-0.3H28.5z M25.6,177.3h2.5v0.2h-2.9v-0.9h2.4v-0.4h-2.4V176H28v0.8h-2.4V177.3z
				 M27.7,173.9h-2.4v-0.2H28v0.8h-2.4v0.4h2.5v0.2h-2.8v-0.8h2.4V173.9z"/>
			<path class="st21" d="M33.2,175.6v0.3h-3.6v-0.3h1.7v-0.5H30v-1.5h0.3v0.5h2v-0.5h0.3v1.5h-1.2v0.5H33.2z M29.9,176.3h2.8v1.2
				h-0.3v-1h-2.5V176.3z M30.3,174.9h2v-0.5h-2V174.9z"/>
			<path class="st21" d="M34.7,174.7c0,0.7,0.5,1.4,1,1.7l-0.2,0.3c-0.4-0.2-0.8-0.7-1-1.3c-0.2,0.6-0.6,1.1-1,1.4l-0.2-0.3
				c0.6-0.3,1-1.1,1-1.8v-0.7h0.3V174.7z M37.1,175.5h-0.7v2.1h-0.3v-4h0.3v1.6h0.7V175.5z"/>
			<path class="st21" d="M41.7,176.4H40v1.1h-0.3v-1.1h-1.7v-0.3h3.6V176.4z M41.5,174.3h-3.2V174h1.5v-0.5H40v0.5h1.4V174.3z
				 M39.9,174.5c0.8,0,1.3,0.2,1.3,0.7c0,0.4-0.5,0.7-1.3,0.7c-0.8,0-1.3-0.2-1.3-0.7C38.6,174.8,39.1,174.5,39.9,174.5z
				 M39.9,174.8c-0.6,0-1,0.2-1,0.4c0,0.3,0.4,0.4,1,0.4c0.6,0,1-0.2,1-0.4C40.8,174.9,40.5,174.8,39.9,174.8z"/>
			<path class="st22" d="M45,175.8c-0.4-0.2-0.8-0.5-1-0.9c-0.2,0.5-0.5,0.9-1,1l-0.2-0.3c0.6-0.2,1-0.8,1-1.3v-0.2h-0.9v-0.3h2.1
				v0.3h-0.9v0.2c0,0.5,0.4,1,1,1.2L45,175.8z M46.1,176.8c0,0.5-0.5,0.7-1.3,0.7c-0.8,0-1.3-0.3-1.3-0.7c0-0.5,0.5-0.7,1.3-0.7
				C45.6,176.1,46.1,176.4,46.1,176.8z M45.8,176.8c0-0.3-0.4-0.5-1-0.5c-0.6,0-1,0.2-1,0.5s0.4,0.5,1,0.5
				C45.4,177.3,45.8,177.1,45.8,176.8z M45.8,174.6v-1.1h0.3v2.4h-0.3v-1.1h-0.8v-0.3H45.8z"/>
			<path class="st22" d="M49.1,176c-0.9,0.2-1.8,0.2-2.5,0.2l0-0.3c0.3,0,0.7,0,1.1,0v-0.3c-0.5,0-0.8-0.3-0.8-0.6
				c0-0.4,0.4-0.6,0.9-0.6c0.6,0,0.9,0.2,0.9,0.6c0,0.3-0.3,0.5-0.8,0.6v0.3c0.4,0,0.8,0,1.1-0.1L49.1,176z M49,174.2h-2.3v-0.3h1
				v-0.4H48v0.4h1V174.2z M47.1,176.5h2.6v1.1h-0.3v-0.9h-2.3V176.5z M47.8,175.3c0.4,0,0.6-0.1,0.6-0.4c0-0.2-0.2-0.4-0.6-0.4
				c-0.4,0-0.6,0.1-0.6,0.4C47.2,175.2,47.5,175.3,47.8,175.3z M50.3,175.1h-0.6v1.2h-0.3v-2.7h0.3v1.2h0.6V175.1z"/>
			<path class="st22" d="M52.8,174.3h-2.4v-0.3h1v-0.5h0.3v0.5h1V174.3z M51.6,176.1c-0.6,0-1-0.3-1-0.7c0-0.5,0.4-0.8,1-0.8
				s1,0.3,1,0.8C52.5,175.8,52.2,176.1,51.6,176.1z M51.6,175.8c0.4,0,0.6-0.2,0.6-0.5c0-0.3-0.3-0.5-0.6-0.5
				c-0.4,0-0.6,0.2-0.6,0.5C50.9,175.6,51.2,175.8,51.6,175.8z M51.3,177.2h2.3v0.3H51v-1.2h0.3V177.2z M54.1,174.9v0.3h-0.6v1.4
				h-0.3v-3h0.3v1.3H54.1z"/>
			<path class="st22" d="M57.3,174.7c0,0.6-0.4,0.9-1,0.9c-0.6,0-1-0.4-1-0.9c0-0.5,0.4-0.9,1-0.9C56.9,173.7,57.3,174.1,57.3,174.7
				z M55.5,174.7c0,0.4,0.3,0.6,0.7,0.6c0.4,0,0.7-0.3,0.7-0.6c0-0.4-0.3-0.6-0.7-0.6C55.8,174,55.5,174.3,55.5,174.7z M56.2,175.9
				v0.5h1.9v-0.5h0.3v1.6h-2.6v-1.6H56.2z M56.2,177.2h1.9v-0.6h-1.9V177.2z M58.4,173.6v2.2h-0.3v-2.2H58.4z"/>
			<path class="st22" d="M62.6,175.3v0.3h-3.7v-0.3h2.7c0.1-0.5,0.1-0.9,0.1-1.2v0h-2.4v-0.3h2.7v0.3c0,0.3,0,0.7-0.1,1.2H62.6z
				 M59.4,176.1h2.7v1.4h-2.7V176.1z M59.7,177.2h2.1v-0.9h-2.1V177.2z"/>
			<path class="st22" d="M67.3,175.3v0.3h-3.7v-0.3h2.7c0.1-0.5,0.1-0.9,0.1-1.2v0h-2.4v-0.3h2.7v0.3c0,0.3,0,0.7-0.1,1.2H67.3z
				 M64.1,176.1h2.7v1.4h-2.7V176.1z M64.4,177.2h2.1v-0.9h-2.1V177.2z"/>
			<path class="st22" d="M68.4,175.7c-0.5,0-0.9-0.4-0.9-0.9c0-0.6,0.4-0.9,0.9-0.9c0.5,0,0.9,0.4,0.9,0.9
				C69.3,175.3,68.9,175.7,68.4,175.7z M68.4,175.4c0.4,0,0.6-0.3,0.6-0.7s-0.3-0.7-0.6-0.7c-0.4,0-0.6,0.3-0.6,0.7
				S68,175.4,68.4,175.4z M68.1,176.2h2.7v1.4h-0.3v-1.1h-2.4V176.2z M70.8,173.6v2.4h-0.3v-1.1H70v1h-0.3v-2.3H70v1h0.5v-1H70.8z"
				/>
			<path class="st21" d="M74.9,175.3v0.3h-3.6v-0.3H74.9z M71.7,174.3c0-0.5,0.5-0.7,1.4-0.7c0.9,0,1.4,0.3,1.4,0.7
				c0,0.4-0.5,0.7-1.4,0.7C72.2,175,71.7,174.8,71.7,174.3z M72,177.3h2.5v0.3h-2.8v-0.9h2.4v-0.4h-2.4v-0.3h2.7v0.9H72V177.3z
				 M72,174.3c0,0.3,0.4,0.4,1.1,0.4c0.7,0,1.1-0.2,1.1-0.4c0-0.3-0.4-0.5-1.1-0.5C72.4,173.9,72,174,72,174.3z"/>
			<path class="st21" d="M78.2,174.7c0,0.6-0.4,0.9-1,0.9c-0.6,0-1-0.4-1-0.9c0-0.5,0.4-0.9,1-0.9C77.7,173.7,78.2,174.1,78.2,174.7
				z M76.4,174.7c0,0.4,0.3,0.6,0.7,0.6c0.4,0,0.7-0.3,0.7-0.6c0-0.4-0.3-0.6-0.7-0.6C76.7,174,76.4,174.3,76.4,174.7z M77,175.9
				v0.5h1.9v-0.5h0.3v1.6h-2.6v-1.6H77z M77,177.2h1.9v-0.6H77V177.2z M79.3,173.6v2.2h-0.3v-2.2H79.3z"/>
			<path class="st21" d="M81.9,175.7c-0.5,0.1-0.9,0.1-1.7,0.1h-0.3v-1.2h1.4v-0.6h-1.4v-0.3h1.7v1.1h-1.4v0.7c0.8,0,1.2,0,1.6-0.1
				L81.9,175.7z M80.4,176.2h2.7v1.3h-0.3v-1.1h-2.4V176.2z M83.1,173.6v2.5h-0.3v-0.8h-0.8V175h0.8v-0.6h-0.8v-0.3h0.8v-0.6H83.1z"
				/>
			<path class="st21" d="M84.9,174.2h1v0.3h-2.4v-0.3h1v-0.6h0.3V174.2z M85.7,175.7c0,0.5-0.4,0.9-1,0.9c-0.6,0-1-0.4-1-0.9
				c0-0.5,0.4-0.9,1-0.9C85.3,174.8,85.7,175.2,85.7,175.7z M85.4,175.7c0-0.4-0.3-0.6-0.7-0.6c-0.4,0-0.7,0.3-0.7,0.6
				c0,0.4,0.3,0.6,0.7,0.6C85.1,176.4,85.4,176.1,85.4,175.7z M87.3,175.5h-0.7v2.1h-0.3v-4h0.3v1.7h0.7V175.5z"/>
			<path class="st21" d="M89.6,175.8c-0.5-0.2-0.8-0.6-1-1c-0.2,0.5-0.5,0.9-1,1.1l-0.2-0.3c0.6-0.2,1-0.8,1-1.5v-0.4h0.3v0.4
				c0,0.6,0.4,1.2,1,1.4L89.6,175.8z M90.8,177.2v0.3h-2.7v-1.3h0.3v1H90.8z M90.7,176.5h-0.3v-3h0.3V176.5z"/>
			<path class="st21" d="M95.7,176.4h-1.7v1.1h-0.3v-1.1h-1.7v-0.3h3.6V176.4z M95.5,174.3h-3.2V174h1.5v-0.5h0.3v0.5h1.4V174.3z
				 M93.9,174.5c0.8,0,1.3,0.2,1.3,0.7c0,0.4-0.5,0.7-1.3,0.7c-0.8,0-1.3-0.2-1.3-0.7C92.6,174.8,93.1,174.5,93.9,174.5z
				 M93.9,174.8c-0.6,0-1,0.2-1,0.4c0,0.3,0.4,0.4,1,0.4c0.6,0,1-0.2,1-0.4C94.9,174.9,94.5,174.8,93.9,174.8z"/>
			<path class="st21" d="M99,174.7c0,0.6-0.4,0.9-1,0.9c-0.6,0-1-0.4-1-0.9c0-0.5,0.4-0.9,1-0.9C98.6,173.7,99,174.1,99,174.7z
				 M97.2,174.7c0,0.4,0.3,0.6,0.7,0.6c0.4,0,0.7-0.3,0.7-0.6c0-0.4-0.3-0.6-0.7-0.6C97.5,174,97.2,174.3,97.2,174.7z M97.9,175.9
				v0.5h1.9v-0.5h0.3v1.6h-2.6v-1.6H97.9z M97.9,177.2h1.9v-0.6h-1.9V177.2z M100.1,173.6v2.2h-0.3v-2.2H100.1z"/>
			<path class="st21" d="M104.3,175.3v0.3h-3.7v-0.3h2.7c0.1-0.5,0.1-0.9,0.1-1.2v0h-2.4v-0.3h2.7v0.3c0,0.3,0,0.7-0.1,1.2H104.3z
				 M101.1,176.1h2.7v1.4h-2.7V176.1z M101.4,177.2h2.1v-0.9h-2.1V177.2z"/>
			<path class="st21" d="M105.6,174.3h0.8v0.3h-2v-0.3h0.8v-0.6h0.3V174.3z M106.3,175.7c0,0.5-0.4,0.9-0.9,0.9
				c-0.5,0-0.9-0.4-0.9-0.9c0-0.5,0.4-0.9,0.9-0.9C105.9,174.8,106.3,175.2,106.3,175.7z M106,175.7c0-0.4-0.2-0.6-0.6-0.6
				c-0.3,0-0.6,0.3-0.6,0.6c0,0.4,0.2,0.6,0.6,0.6C105.8,176.4,106,176.1,106,175.7z M107.8,173.5v4h-0.3v-2H107v1.8h-0.3v-3.7h0.3
				v1.6h0.6v-1.7H107.8z"/>
			<path class="st21" d="M111.9,176.1h-1.7v1.4h-0.3v-1.4h-1.6v-0.3h3.6V176.1z M108.5,175.2c0.7-0.1,1.4-0.6,1.4-1.1v0h-1.3v-0.3
				h2.9v0.3h-1.3v0c0,0.5,0.7,1,1.4,1.1l-0.1,0.3c-0.6-0.1-1.2-0.4-1.5-0.9c-0.2,0.5-0.9,0.8-1.5,0.9L108.5,175.2z"/>
			<path class="st21" d="M113.2,174.7c0,0.6,0.3,1.3,0.8,1.6l-0.2,0.3c-0.4-0.2-0.7-0.7-0.8-1.2c-0.1,0.5-0.4,1-0.9,1.3l-0.2-0.2
				c0.5-0.3,0.9-1,0.9-1.7v-0.8h0.3V174.7z M114.3,173.6h0.3v3.7h-0.3v-2.1h-0.7V175h0.7V173.6z M115.4,173.5v4h-0.3v-4H115.4z"/>
			<path class="st21" d="M119.5,176.8v0.3h-3.7v-0.3h0.9v-1.1c-0.3-0.2-0.5-0.5-0.5-0.8c0-0.6,0.6-1,1.5-1c0.8,0,1.5,0.4,1.5,1
				c0,0.4-0.2,0.6-0.5,0.8v1.1H119.5z M117.7,175.6c0.7,0,1.1-0.3,1.1-0.8c0-0.5-0.5-0.8-1.1-0.8c-0.7,0-1.1,0.3-1.1,0.8
				C116.5,175.3,117,175.6,117.7,175.6z M117.1,176.8h1.2v-1c-0.2,0-0.4,0.1-0.6,0.1c-0.2,0-0.4,0-0.6-0.1V176.8z"/>
			<path class="st21" d="M119.7,177c0-0.2,0.1-0.3,0.3-0.3c0.2,0,0.3,0.1,0.3,0.3c0,0.2-0.1,0.3-0.3,0.3
				C119.9,177.3,119.7,177.2,119.7,177z"/>
		</g>
	</g>
	<path class="st25" d="M110,225.3H36.7c-4.6,0-8.3-3.7-8.3-8.3v0c0-4.6,3.7-8.3,8.3-8.3H110c4.6,0,8.3,3.7,8.3,8.3v0
		C118.3,221.5,114.6,225.3,110,225.3z"/>
	<g>
		<g>
			<path class="st26" d="M53.2,216.8v0.4h-4.7v-0.4h2.1v-0.4c-1,0-1.6-0.4-1.6-0.9c0-0.6,0.7-0.9,1.8-0.9c1.2,0,1.8,0.3,1.8,0.9
				c0,0.6-0.6,0.9-1.6,0.9v0.4H53.2z M49.5,219.3h3.2v0.4H49v-1.3h3.1V218H49v-0.4h3.6v1.2h-3.1V219.3z M50.8,216
				c0.9,0,1.4-0.2,1.4-0.6c0-0.4-0.5-0.6-1.4-0.6c-0.9,0-1.4,0.2-1.4,0.6C49.4,215.8,49.9,216,50.8,216z"/>
			<path class="st26" d="M58.1,218.7v0.4h-4.7v-0.4h1.8v-1.4h0.5v1.4H58.1z M57,216.3c0-0.3,0-0.5,0-0.8v-0.1h-3.1V215h3.3l0.3,0
				v0.5c0,0.6,0,1.4-0.2,2.4l-0.5-0.1c0.1-0.5,0.2-0.9,0.2-1.2l-3.2,0.2l-0.1-0.4L57,216.3z"/>
			<path class="st26" d="M59.8,217.5c-0.8,0-1.4-0.5-1.4-1.3c0-0.8,0.6-1.3,1.4-1.3c0.8,0,1.4,0.5,1.4,1.3
				C61.2,216.9,60.6,217.5,59.8,217.5z M59.8,217.1c0.5,0,0.9-0.4,0.9-0.9c0-0.5-0.4-0.9-0.9-0.9c-0.5,0-0.9,0.4-0.9,0.9
				C58.9,216.7,59.3,217.1,59.8,217.1z M62.8,219.3v0.4h-3.5V218h0.5v1.3H62.8z M62.6,218.4h-0.5v-3.8h0.5V218.4z"/>
			<path class="st26" d="M65.9,216.8c-0.5,0-0.9,0-1.4,0l-0.1-0.4c1,0,2.3,0,3.4-0.1l0,0.3c-0.5,0.1-1,0.1-1.5,0.1v0.8h-0.5V216.8z
				 M64.8,215.4c0-0.5,0.5-0.8,1.3-0.8c0.8,0,1.3,0.3,1.3,0.8c0,0.5-0.5,0.8-1.3,0.8C65.3,216.2,64.8,215.9,64.8,215.4z M68.9,219.4
				v0.4h-3.7v-1.1h3v-0.4h-3v-0.3h3.5v1.1h-3v0.5H68.9z M65.3,215.4c0,0.3,0.3,0.5,0.8,0.5c0.5,0,0.8-0.2,0.8-0.5
				c0-0.3-0.3-0.5-0.8-0.5C65.6,215,65.3,215.1,65.3,215.4z M68.3,217v-2.5h0.5v3.1h-0.5v-0.3h-1V217H68.3z"/>
			<path class="st26" d="M71.9,217.4c-0.7,0.1-1.2,0.2-2,0.2h-0.3V216H71v-0.7h-1.4v-0.4h1.9v1.5h-1.4v0.8c0.7,0,1.2,0,1.8-0.2
				L71.9,217.4z M72.3,218c0,0.7,0.9,1.2,1.8,1.4l-0.2,0.4c-0.8-0.1-1.5-0.5-1.8-1.1c-0.3,0.6-1,1-1.8,1.1l-0.2-0.4
				c0.9-0.1,1.8-0.7,1.8-1.4v-0.1h0.5V218z M72.3,216.3h-0.6v-0.4h0.6v-1.2h0.5v3.1h-0.5V216.3z M73.8,218.1h-0.5v-3.6h0.5V218.1z"
				/>
			<path class="st26" d="M77.3,214.6h0.5v4.9h-0.5V217h-0.7c0,1-0.5,1.7-1.1,1.7c-0.7,0-1.1-0.7-1.1-1.8c0-1.1,0.4-1.8,1.1-1.8
				c0.6,0,1.1,0.6,1.1,1.6h0.7V214.6z M76.2,216.8c0-0.8-0.3-1.4-0.7-1.4c-0.4,0-0.7,0.5-0.7,1.4c0,0.9,0.3,1.4,0.7,1.4
				C75.9,218.2,76.2,217.6,76.2,216.8z M78.8,214.5v5.3h-0.5v-5.3H78.8z"/>
			<path class="st26" d="M81.1,215.9c0,1,0.6,1.9,1.4,2.3l-0.3,0.4c-0.6-0.3-1.1-0.9-1.3-1.7c-0.2,0.8-0.7,1.4-1.3,1.8l-0.3-0.4
				c0.8-0.4,1.4-1.4,1.4-2.4V215h0.5V215.9z M83.6,214.5v5.3h-0.5v-3.1h-1.2v-0.4h1.2v-1.8H83.6z"/>
			<path class="st26" d="M87.9,216.6c-0.2,0.3-0.6,0.5-1.1,0.5c-0.8,0-1.4-0.5-1.4-1.2c0-0.7,0.6-1.2,1.4-1.2c0.5,0,0.8,0.2,1.1,0.5
				h1.3v-0.6h0.5v2.7h-0.5v-0.6H87.9z M86.8,216.7c0.5,0,0.9-0.3,0.9-0.8c0-0.5-0.4-0.8-0.9-0.8c-0.5,0-0.9,0.3-0.9,0.8
				C86,216.4,86.3,216.7,86.8,216.7z M89.9,219.3v0.4h-3.6v-1.3h2.9v-0.5h-2.9v-0.4h3.4v1.3h-2.9v0.6H89.9z M88.1,215.5
				c0,0.1,0.1,0.2,0.1,0.4c0,0.1,0,0.2,0,0.3h1.1v-0.7H88.1z"/>
			<path class="st26" d="M93.1,215.1c0,1.5-0.7,2.9-2.4,3.7l-0.3-0.4c1.4-0.7,2.1-1.7,2.2-2.9h-2v-0.4H93.1z M94.7,214.5v5.3h-0.5
				v-5.3H94.7z"/>
		</g>
	</g>
	<path class="st27" d="M110,202.7H36.7c-4.6,0-8.3-3.7-8.3-8.3v0c0-4.6,3.7-8.3,8.3-8.3H110c4.6,0,8.3,3.7,8.3,8.3v0
		C118.3,199,114.6,202.7,110,202.7z"/>
	<g>
		<g>
			<path class="st25" d="M48.5,193.6c0,0.9,0.6,1.8,1.4,2.1l-0.3,0.4c-0.6-0.3-1.1-0.9-1.4-1.6c-0.2,0.8-0.8,1.4-1.4,1.7l-0.3-0.4
				c0.8-0.4,1.4-1.3,1.4-2.3v-0.7h-1.2v-0.4h2.9v0.4h-1.2V193.6z M50.9,192v5.3h-0.5V192H50.9z"/>
			<path class="st25" d="M54.2,192.3c0,1.3-0.9,2.2-2.5,2.6l-0.2-0.4c1.3-0.3,2-1,2.1-1.8h-1.9v-0.4H54.2z M55.2,195.1h0.5v2.1h-3.3
				v-2.1h0.5v0.7h2.4V195.1z M55.2,196.1h-2.4v0.7h2.4V196.1z M56.4,193.6h-0.8v1.2h-0.5V192h0.5v1.2h0.8V193.6z"/>
			<path class="st25" d="M62.5,195.4h-2.1v1.9h-0.5v-1.9h-2.1V195h4.7L62.5,195.4z M58,194.2c0.9-0.1,1.8-0.7,1.8-1.4v0h-1.7v-0.4
				H62v0.4h-1.6v0c0,0.7,0.9,1.3,1.8,1.4l-0.2,0.4c-0.8-0.1-1.6-0.6-1.9-1.2c-0.3,0.6-1.1,1.1-1.9,1.2L58,194.2z"/>
			<path class="st25" d="M67.4,196.2v0.4h-4.8v-0.4h2.1v-1.3h0.5v1.3H67.4z M67,194.9c-0.8-0.2-1.6-0.7-2-1.5
				c-0.3,0.8-1.2,1.3-2,1.5l-0.2-0.4c0.9-0.2,1.9-0.9,1.9-1.8v-0.4h0.5v0.4c0,0.9,1,1.6,1.9,1.8L67,194.9z"/>
			<path class="st25" d="M73.6,194.7v0.4h-4.8v-0.4h2.1v-0.6h-1.5v-2h0.5v0.6h2.6v-0.6h0.5v2h-1.5v0.6H73.6z M69.3,195.6H73v1.6
				h-0.5V196h-3.2V195.6z M69.9,193.7h2.6v-0.6h-2.6V193.7z"/>
			<path class="st25" d="M75.5,193.4c0,0.9,0.6,1.9,1.3,2.3l-0.3,0.4c-0.6-0.3-1-0.9-1.3-1.6c-0.2,0.8-0.7,1.4-1.3,1.7l-0.3-0.4
				c0.8-0.4,1.4-1.4,1.4-2.3v-0.9h0.5V193.4z M78.7,194.5h-0.9v2.7h-0.5V192h0.5v2.1h0.9V194.5z"/>
			<path class="st25" d="M80.5,192.8h1.3v0.4h-3.1v-0.4H80V192h0.5V192.8z M81.5,194.9c0,0.7-0.5,1.2-1.3,1.2
				c-0.7,0-1.3-0.5-1.3-1.2c0-0.7,0.5-1.2,1.3-1.2C81,193.6,81.5,194.1,81.5,194.9z M81.1,194.9c0-0.5-0.3-0.8-0.8-0.8
				c-0.5,0-0.8,0.3-0.8,0.8c0,0.5,0.3,0.8,0.8,0.8C80.7,195.7,81.1,195.3,81.1,194.9z M83.6,194.5h-0.9v2.7h-0.5V192h0.5v2.2h0.9
				V194.5z"/>
			<path class="st25" d="M86.4,192.5c0,1.5-0.7,2.9-2.4,3.7l-0.3-0.4c1.4-0.7,2.1-1.7,2.2-2.9h-2v-0.4H86.4z M87.9,192v5.3h-0.5V192
				H87.9z"/>
		</g>
		<path class="st25" d="M97.9,191.1l-0.7-0.7c-0.1-0.1-0.3-0.2-0.5-0.2h-2.4c-0.4,0-0.7,0.3-0.7,0.7v0.7h-1.1
			c-0.4,0-0.7,0.3-0.7,0.7v4.5c0,0.4,0.3,0.7,0.7,0.7h3.1c0.4,0,0.7-0.3,0.7-0.7v-0.7h1.1c0.4,0,0.7-0.3,0.7-0.7v-3.8
			C98.1,191.4,98.1,191.3,97.9,191.1z M96.8,190.7c0,0,0.1,0,0.1,0.1l0.7,0.7c0,0,0,0.1,0.1,0.1h-0.9V190.7z M95.9,196.7
			c0,0.1-0.1,0.2-0.2,0.2h-3.1c-0.1,0-0.2-0.1-0.2-0.2v-4.5c0-0.1,0.1-0.2,0.2-0.2h1.1v3.4c0,0.4,0.3,0.7,0.7,0.7h1.6V196.7z
			 M97.7,195.4c0,0.1-0.1,0.2-0.2,0.2h-3.2c-0.1,0-0.2-0.1-0.2-0.2v-4.5c0-0.1,0.1-0.2,0.2-0.2h2v1c0,0.2,0.2,0.3,0.3,0.3h1V195.4z"
			/>
	</g>
</g>
</svg>
