<?xml version="1.0" encoding="utf-8"?>
<!-- Generator: Adobe Illustrator 22.1.0, SVG Export Plug-In . SVG Version: 6.00 Build 0)  -->
<svg version="1.1" id="레이어_1" xmlns="http://www.w3.org/2000/svg" xmlns:xlink="http://www.w3.org/1999/xlink" x="0px"
	 y="0px" viewBox="0 0 767.5 208.3" style="enable-background:new 0 0 767.5 208.3;" xml:space="preserve">
<style type="text/css">
	.st0{fill:#FFFFFF;}
	.st1{fill:#9106FF;}
	.st2{fill:#FFFFFF;stroke:#A9A9A9;stroke-miterlimit:10;}
	.st3{fill:#424242;stroke:#FFFFFF;stroke-miterlimit:10;}
	.st4{fill:#323232;}
	.st5{clip-path:url(#SVGID_2_);}
	.st6{clip-path:url(#SVGID_4_);}
	.st7{clip-path:url(#SVGID_6_);fill:url(#SVGID_7_);}
	.st8{clip-path:url(#SVGID_9_);fill:#FFFFFF;}
	.st9{filter:url(#Adobe_OpacityMaskFilter);}
	.st10{clip-path:url(#SVGID_11_);fill:url(#SVGID_13_);}
	.st11{clip-path:url(#SVGID_11_);mask:url(#SVGID_12_);fill:url(#SVGID_14_);}
	.st12{clip-path:url(#SVGID_16_);fill:#FFFFFF;}
</style>
<g>
	<rect x="1" y="1" class="st0" width="765.5" height="206.3"/>
	<path class="st1" d="M767.5,208.3H0V0h767.5V208.3z M2,206.3h763.5V2H2V206.3z"/>
</g>
<g>
	<circle class="st2" cx="140.5" cy="104.4" r="41"/>
	<circle class="st3" cx="140.5" cy="104.4" r="20.8"/>
	<g>
		<g>
			<path class="st4" d="M444.7,97.2v4.4h-53.8v-4.4h24.2v-4.5c-11.5-0.5-18.2-4.1-18.2-10.3c0-6.7,7.8-10.4,20.9-10.4
				c13.1,0,20.9,3.7,20.9,10.4c0,6.2-6.8,9.8-18.2,10.3v4.5H444.7z M402.9,126h36.8v4.3h-42.1V116h34.9v-5.3h-35.1v-4.1h40.5V120
				h-35V126z M417.8,88.6c9.8,0,15.3-2.3,15.3-6.2s-5.6-6.2-15.3-6.2s-15.3,2.3-15.3,6.2S408.1,88.6,417.8,88.6z"/>
			<path class="st4" d="M500.9,118.4v4.4H447v-4.4h21v-15.5h5.4v15.5H500.9z M488.9,91.5c0.1-3.1,0.1-6,0.1-8.7v-1.2h-35.6v-4.4
				h37.9l3.1,0.1v5.6c0,7.3,0,15.5-2.5,27.7l-5.4-0.7c1.1-5.3,1.7-10,2.1-14.1l-36,1.9l-0.8-4.6L488.9,91.5z"/>
			<path class="st4" d="M520,104.9c-8.8,0-15.5-6.1-15.5-14.7c0-8.6,6.6-14.6,15.5-14.6c8.9,0,15.6,6,15.6,14.6
				C535.6,98.8,528.9,104.9,520,104.9z M520,100.2c5.9,0,10.3-4.1,10.3-10c0-5.8-4.4-9.9-10.3-9.9c-5.8,0-10.2,4.1-10.2,9.9
				C509.9,96.1,514.3,100.2,520,100.2z M553.8,125.1v4.4h-40.1v-19.1h5.4v14.7H553.8z M552,114.9h-5.4V71.4h5.4V114.9z"/>
			<path class="st4" d="M582.1,110.9c2.1-0.2,4.3-0.4,6.2-0.7l0.3,4c-9.2,1.7-21.7,2-29.5,2l-0.5-4.5c1.8,0,3.8,0,6-0.1V83.3h-4.9
				v-4.4H587v4.4h-4.9V110.9z M569.7,111.5c2.5-0.1,4.9-0.1,7.4-0.3v-28h-7.4V111.5z M593.4,72.8h5.1v55h-5.1v-29h-8.1v-4.8h8.1
				V72.8z M610.2,71.4v59.5h-5.2V71.4H610.2z"/>
			<path class="st4" d="M647.9,96.7c0,12.7-6.3,20.8-15.1,20.8s-15.1-8.1-15.1-20.8s6.3-20.8,15.1-20.8S647.9,84,647.9,96.7z
				 M622.8,96.7c0,9.7,4.1,15.9,10,15.9c5.8,0,9.9-6.2,9.9-15.9c0-9.6-4.1-15.9-9.9-15.9C626.9,80.9,622.8,87.1,622.8,96.7z
				 M664.1,71.4v59.7h-5.4V71.4H664.1z"/>
		</g>
	</g>
	<g id="아트웍_14_3_">
		<g>
			<defs>
				<rect id="SVGID_1_" x="227" y="41.9" width="124.5" height="124.5"/>
			</defs>
			<clipPath id="SVGID_2_">
				<use xlink:href="#SVGID_1_"  style="overflow:visible;"/>
			</clipPath>
			<g class="st5">
				<defs>
					<rect id="SVGID_3_" x="227" y="41.9" width="124.5" height="124.5"/>
				</defs>
				<clipPath id="SVGID_4_">
					<use xlink:href="#SVGID_3_"  style="overflow:visible;"/>
				</clipPath>
				<g class="st6">
					<defs>
						<path id="SVGID_5_" d="M261.6,41.9c-19,0-34.6,15.6-34.6,34.6v55.4c0,19,15.6,34.6,34.6,34.6H317c19,0,34.6-15.6,34.6-34.6
							V76.5c0-19-15.6-34.6-34.6-34.6H261.6z"/>
					</defs>
					<clipPath id="SVGID_6_">
						<use xlink:href="#SVGID_5_"  style="overflow:visible;"/>
					</clipPath>
					
						<linearGradient id="SVGID_7_" gradientUnits="userSpaceOnUse" x1="-566.3267" y1="-435.0598" x2="-564.6995" y2="-435.0598" gradientTransform="matrix(64.0517 64.0517 64.0517 -64.0517 64377.6797 8459.9463)">
						<stop  offset="0" style="stop-color:#00B7B2"/>
						<stop  offset="0.267" style="stop-color:#2677B4"/>
						<stop  offset="0.5105" style="stop-color:#4444B5"/>
						<stop  offset="0.7216" style="stop-color:#5A1FB6"/>
						<stop  offset="0.8918" style="stop-color:#6708B7"/>
						<stop  offset="1" style="stop-color:#6C00B7"/>
					</linearGradient>
					<polygon class="st7" points="289.3,-20.3 413.8,104.2 289.3,228.7 164.7,104.2 					"/>
				</g>
				<g class="st6">
					<defs>
						<rect id="SVGID_8_" x="227" y="41.9" width="124.5" height="124.5"/>
					</defs>
					<clipPath id="SVGID_9_">
						<use xlink:href="#SVGID_8_"  style="overflow:visible;"/>
					</clipPath>
					<path class="st8" d="M289.3,111c3.6-5.1,8.7-15.4,8.7-15.4c1.1-2.2,2.3-4.1,3.7-5.7c0.2-0.2,0.4-0.5,0.6-0.7c0,0,0,0,0,0
						c0,0,0,0,0,0c1.9-2,4.6-3.2,7.5-3.2c5.8,0,10.4,4.7,10.4,10.4c0,5.8-4.7,10.4-10.4,10.4v14.5c0,0-0.1,0-0.1,0
						c12,0,22.1-8.5,24.5-19.8c0.1-0.4,0.2-0.8,0.2-1.2c0-0.3,0.1-0.5,0.1-0.8c0.1-0.4,0.1-0.8,0.1-1.2c0-0.2,0-0.4,0-0.6
						c0-0.1,0-0.2,0-0.3c0-0.4,0-0.8,0-1.1c0-0.1,0-0.2,0-0.4c0,0,0,0,0-0.1c0-0.1,0-0.2,0-0.3c-0.2-7-3.4-13.8-9.1-18.6
						c-4.3-3.5-10.1-5.6-16-5.7c-0.2,0-0.4,0-0.6,0c-0.4,0-0.8,0-1.2,0.1c-0.3,0-0.6,0-0.9,0.1c-0.3,0-0.6,0.1-0.8,0.1
						c-6.9,1-13.1,4.9-17,11.9c0,0,0,0,0,0c0,0-6.3,12.8-11.3,19.2c-0.1,0.2-0.3,0.4-0.4,0.5c0,0-0.1,0.1-0.1,0.1
						c0,0,0.1-0.1,0.1-0.1c-1.2,1.4-2.8,2.5-4.7,3.1c-0.1,0-0.3,0.1-0.4,0.1c-0.1,0-0.2,0.1-0.4,0.1c-0.4,0.1-0.8,0.2-1.2,0.2
						c0,0,0,0,0,0c-0.4,0.1-0.8,0.1-1.2,0.1c0,0-0.1,0-0.1,0c0,0,0.1,0,0.1,0c-1.5,0-3.1-0.3-4.5-0.9c-4.7-2-7.1-7-6-11.8
						c1.2-4.8,5.4-8,10.2-7.9l0,0c3.6,0,6.9,0.9,9,2.9l6.3-12.3c-3-2.4-6.4-4.1-10.2-4.9c-14.6-3-28.2,6.7-30.2,21.5
						c-2.1,15.2,10.8,29.1,26.2,28.2C278.4,121.1,284.9,117.7,289.3,111"/>
				</g>
				<g class="st6">
					<defs>
						<path id="SVGID_10_" d="M298,95.6c0,0-5.1,10.3-8.7,15.4c0,0,2.5,3.1,4,4.4c0,0,0,0,0,0.1c0,0,0,0,0,0c4.4,3.8,10.1,6,16.3,6
							c0,0,0.1,0,0.1,0v-14.5c-5.8,0-10.4-4.7-10.4-10.4c0-2.8,1.1-5.4,2.9-7.2C300.6,90.8,299.3,93,298,95.6"/>
					</defs>
					<clipPath id="SVGID_11_">
						<use xlink:href="#SVGID_10_"  style="overflow:visible;"/>
					</clipPath>
					<defs>
						<filter id="Adobe_OpacityMaskFilter" filterUnits="userSpaceOnUse" x="278.3" y="82.2" width="42.4" height="46.2">
							<feColorMatrix  type="matrix" values="1 0 0 0 0  0 1 0 0 0  0 0 1 0 0  0 0 0 1 0"/>
						</filter>
					</defs>
					<mask maskUnits="userSpaceOnUse" x="278.3" y="82.2" width="42.4" height="46.2" id="SVGID_12_">
						<g class="st9">
							
								<linearGradient id="SVGID_13_" gradientUnits="userSpaceOnUse" x1="-511.0282" y1="-452.7898" x2="-509.401" y2="-452.7898" gradientTransform="matrix(13.8576 5.4638 5.4638 -13.8576 9845.5566 -3380.8872)">
								<stop  offset="0" style="stop-color:#000000"/>
								<stop  offset="2.168548e-02" style="stop-color:#101010"/>
								<stop  offset="0.1045" style="stop-color:#474747"/>
								<stop  offset="0.19" style="stop-color:#787878"/>
								<stop  offset="0.2764" style="stop-color:#A2A2A2"/>
								<stop  offset="0.3641" style="stop-color:#C3C3C3"/>
								<stop  offset="0.4531" style="stop-color:#DEDEDE"/>
								<stop  offset="0.5442" style="stop-color:#F0F0F0"/>
								<stop  offset="0.6388" style="stop-color:#FBFBFB"/>
								<stop  offset="0.742" style="stop-color:#FFFFFF"/>
								<stop  offset="1" style="stop-color:#FFFFFF"/>
							</linearGradient>
							<polygon class="st10" points="292.1,82.2 320.8,93.5 307,128.4 278.3,117 							"/>
						</g>
					</mask>
					
						<linearGradient id="SVGID_14_" gradientUnits="userSpaceOnUse" x1="-511.0282" y1="-452.7898" x2="-509.401" y2="-452.7898" gradientTransform="matrix(13.8576 5.4638 5.4638 -13.8576 9845.5566 -3380.8875)">
						<stop  offset="0" style="stop-color:#FFFFFF"/>
						<stop  offset="0.742" style="stop-color:#FFFFFF"/>
						<stop  offset="1" style="stop-color:#FFFFFF"/>
					</linearGradient>
					<polygon class="st11" points="292.1,82.2 320.8,93.5 307,128.4 278.3,117 					"/>
				</g>
				<g class="st6">
					<defs>
						<rect id="SVGID_15_" x="227" y="41.9" width="124.5" height="124.5"/>
					</defs>
					<clipPath id="SVGID_16_">
						<use xlink:href="#SVGID_15_"  style="overflow:visible;"/>
					</clipPath>
					<path class="st12" d="M248.9,138.8l-0.7-1.9h-3.6l-0.7,1.9h-1.1l3.1-8.4h1.1l3.1,8.4H248.9z M246.4,131.9l-1.4,3.9h2.9
						L246.4,131.9z"/>
					<rect x="251.1" y="130.4" class="st12" width="1" height="8.4"/>
					<rect x="253.8" y="130.4" class="st12" width="1" height="8.4"/>
					<path class="st12" d="M261,138.7c-0.5,0.2-1,0.4-1.5,0.4c-0.9,0-1.7-0.3-2.4-1c-0.7-0.7-1-1.4-1-2.4c0-0.9,0.3-1.7,1-2.4
						c0.7-0.7,1.5-1,2.4-1c0.5,0,1,0.1,1.5,0.3c0.5,0.2,0.9,0.6,1.2,1l-0.9,0.6c-0.5-0.6-1.1-0.8-1.8-0.8c-0.6,0-1.2,0.2-1.7,0.7
						c-0.2,0.2-0.4,0.5-0.5,0.7c-0.1,0.3-0.2,0.6-0.2,0.9c0,0.6,0.2,1.2,0.7,1.6c0.5,0.5,1,0.7,1.7,0.7c0.7,0,1.3-0.3,1.8-0.8
						l0.9,0.6C261.9,138.1,261.5,138.4,261,138.7"/>
					<path class="st12" d="M269.2,138c-0.7,0.7-1.5,1-2.4,1c-0.9,0-1.7-0.3-2.4-1c-0.7-0.7-1-1.5-1-2.4c0-0.9,0.3-1.7,1-2.4
						c0.7-0.7,1.5-1,2.4-1c0.9,0,1.7,0.3,2.4,1c0.7,0.7,1,1.5,1,2.4C270.2,136.6,269.9,137.4,269.2,138 M268.5,134
						c-0.4-0.5-1-0.7-1.6-0.7c-0.6,0-1.2,0.2-1.7,0.7c-0.2,0.2-0.4,0.5-0.5,0.7c-0.1,0.3-0.2,0.6-0.2,0.9c0,0.6,0.2,1.2,0.7,1.6
						c0.5,0.4,1,0.7,1.7,0.7c0.6,0,1.2-0.2,1.6-0.7c0.5-0.5,0.7-1,0.7-1.6S268.9,134.5,268.5,134"/>
					<path class="st12" d="M272.6,131.4c-0.1,0.1-0.3,0.2-0.5,0.2c-0.2,0-0.4-0.1-0.5-0.2c-0.1-0.1-0.2-0.3-0.2-0.5
						c0-0.2,0.1-0.4,0.2-0.5c0.1-0.1,0.3-0.2,0.5-0.2c0.2,0,0.4,0.1,0.5,0.2c0.1,0.1,0.2,0.3,0.2,0.5
						C272.8,131.1,272.8,131.3,272.6,131.4 M271.6,132.5h1v6.3h-1V132.5z"/>
					<path class="st12" d="M278.7,138.8V135c0-0.5-0.2-0.9-0.5-1.2c-0.3-0.3-0.7-0.5-1.2-0.5s-0.9,0.2-1.2,0.5
						c-0.3,0.3-0.5,0.7-0.5,1.2v3.8h-1v-6.3h1v0.7c0.5-0.6,1.1-0.9,1.9-0.9c0.7,0,1.3,0.3,1.8,0.8c0.5,0.5,0.7,1.2,0.7,1.9v3.8
						H278.7z"/>
					<path class="st12" d="M290,138c-0.6,0.7-1.4,1-2.3,1c-1,0-1.9-0.4-2.5-1.3v3.2h-1v-8.4h1v1.1c0.6-0.9,1.5-1.4,2.5-1.4
						c0.9,0,1.7,0.3,2.3,1c0.6,0.7,0.9,1.5,0.9,2.4C290.9,136.6,290.6,137.3,290,138 M289.1,134c-0.4-0.5-1-0.7-1.6-0.7
						c-0.6,0-1.2,0.2-1.7,0.7c-0.2,0.2-0.4,0.5-0.5,0.7c-0.1,0.3-0.2,0.6-0.2,0.9c0,0.6,0.2,1.2,0.7,1.6c0.5,0.4,1,0.7,1.7,0.7
						c0.6,0,1.2-0.2,1.6-0.7c0.5-0.5,0.7-1,0.7-1.6S289.6,134.5,289.1,134"/>
					<path class="st12" d="M297.7,138.8v-1.1c-0.6,0.9-1.5,1.3-2.5,1.3c-0.9,0-1.7-0.3-2.3-1c-0.6-0.7-0.9-1.4-0.9-2.4
						c0-0.9,0.3-1.7,0.9-2.4c0.6-0.7,1.4-1,2.3-1c1.1,0,1.9,0.5,2.5,1.4v-1.1h1.1v6.3H297.7z M297,134c-0.4-0.5-1-0.7-1.6-0.7
						c-0.6,0-1.2,0.2-1.7,0.7c-0.2,0.2-0.4,0.5-0.5,0.7c-0.1,0.3-0.2,0.6-0.2,0.9c0,0.6,0.2,1.2,0.7,1.6c0.5,0.4,1,0.7,1.7,0.7
						c0.6,0,1.2-0.2,1.6-0.7c0.5-0.5,0.7-1,0.7-1.6S297.4,134.5,297,134"/>
					<path class="st12" d="M303,140.1c-0.3,0.7-0.8,1-1.5,1c-0.1,0-0.3,0-0.5-0.1V140c0.2,0.1,0.4,0.1,0.5,0.1
						c0.2,0,0.4-0.1,0.5-0.3l0.4-1l-2.6-6.3h1.1l2,4.9l2-4.9h1.1L303,140.1z"/>
					<path class="st12" d="M315.2,138.8V135c0-0.4-0.1-0.8-0.4-1.2c-0.3-0.4-0.6-0.5-1.1-0.5c-0.4,0-0.8,0.2-1.1,0.5
						c-0.3,0.3-0.4,0.7-0.4,1.2v3.8h-1.1V135c0-0.4-0.1-0.8-0.4-1.2c-0.3-0.4-0.6-0.5-1.1-0.5c-0.4,0-0.8,0.2-1.1,0.5
						c-0.3,0.3-0.4,0.7-0.4,1.2v3.8h-1v-6.3h1v0.7c0.4-0.6,1-0.9,1.8-0.9c0.8,0,1.4,0.4,1.7,1.2c0.4-0.8,1.1-1.2,2-1.2
						c0.7,0,1.3,0.3,1.8,0.8c0.2,0.3,0.4,0.6,0.5,0.9c0.1,0.3,0.2,0.7,0.2,1v3.8H315.2z"/>
					<path class="st12" d="M324.2,136.2h-5.6c0.1,0.5,0.4,0.9,0.8,1.3c0.4,0.3,0.9,0.5,1.4,0.5c0.7,0,1.3-0.3,1.8-0.8l0.9,0.6
						c-0.3,0.4-0.7,0.7-1.2,1c-0.5,0.2-1,0.4-1.5,0.4c-0.9,0-1.7-0.3-2.4-1c-0.7-0.7-1-1.4-1-2.4c0-0.9,0.3-1.7,1-2.4
						c0.7-0.7,1.5-1,2.4-1c0.9,0,1.7,0.3,2.4,1c0.7,0.7,1,1.5,1,2.4C324.2,135.8,324.2,136,324.2,136.2 M322.3,133.8
						c-0.4-0.3-0.9-0.5-1.4-0.5s-1,0.2-1.4,0.5c-0.4,0.3-0.7,0.8-0.8,1.3h4.5C323,134.6,322.7,134.2,322.3,133.8"/>
					<path class="st12" d="M330,138.8V135c0-0.5-0.2-0.9-0.5-1.2c-0.3-0.3-0.7-0.5-1.2-0.5s-0.9,0.2-1.2,0.5
						c-0.3,0.3-0.5,0.7-0.5,1.2v3.8h-1v-6.3h1v0.7c0.5-0.6,1.1-0.9,1.9-0.9c0.7,0,1.3,0.3,1.8,0.8c0.5,0.5,0.7,1.2,0.7,1.9v3.8H330z
						"/>
					<polygon class="st12" points="334.6,133.5 334.6,138.8 333.5,138.8 333.5,133.5 332.2,133.5 332.2,132.5 333.5,132.5 
						333.5,131 334.6,131 334.6,132.5 335.8,132.5 335.8,133.5 					"/>
				</g>
			</g>
		</g>
	</g>
</g>
</svg>
