<?xml version="1.0" encoding="utf-8"?>
<!-- Generator: Adobe Illustrator 22.1.0, SVG Export Plug-In . SVG Version: 6.00 Build 0)  -->
<svg version="1.1" id="레이어_1" xmlns="http://www.w3.org/2000/svg" xmlns:xlink="http://www.w3.org/1999/xlink" x="0px"
	 y="0px" viewBox="0 0 139.9 82.7" style="enable-background:new 0 0 139.9 82.7;" xml:space="preserve">
<style type="text/css">
	.st0{fill:#F9F9F9;}
	.st1{fill:none;stroke:#555555;stroke-miterlimit:10;}
	.st2{fill:#555555;}
</style>
<g>
	<g>
		<g>
			<path class="st0" d="M134.9,82.7H5c-2.8,0-5-2.2-5-5V5c0-2.8,2.2-5,5-5h129.9c2.8,0,5,2.2,5,5v72.7
				C139.9,80.5,137.7,82.7,134.9,82.7z"/>
		</g>
		<g>
			<path d="M28.6,26c-0.6,1.4-1.9,2.3-4,2.7l-0.5-1.1c2.1-0.4,3.1-1.3,3.3-2.4h-2.7v-1.1h4.2c0,0.3,0,0.6-0.1,0.8h1.7v-1.2h1.4v4.7
				h-1.4v-0.7h-2.1v-1h2.1V26H28.6z M32.1,32.1v1.1h-6.4v-2.7h4.9v-0.5h-4.9v-1.1h6.2v2.6h-4.9v0.6H32.1z"/>
			<path d="M35.7,26.3c0,1.6,0.5,3.2,1.8,4l-0.8,1c-0.8-0.5-1.4-1.3-1.7-2.3c-0.3,1.1-0.9,2-1.7,2.5l-0.8-1c1.4-0.9,1.9-2.6,1.9-4.2
				v-0.5h-1.5v-1.1h4.2v1.1h-1.4V26.3z M37.6,23.9h1.3v8.8h-1.3v-4.7h-1.2V27h1.2V23.9z M40.8,23.8v9.4h-1.3v-9.4H40.8z"/>
			<path d="M46.2,24.8c0,2.8-1.1,5.3-4.2,6.8l-0.8-1c2.2-1.1,3.4-2.6,3.6-4.7h-3.1v-1.1H46.2z M50.1,28.5h-1.3v4.7h-1.4v-9.4h1.4
				v3.6h1.3V28.5z"/>
			<path d="M57.8,29.4c-1.9,0.4-4,0.4-5.6,0.4l-0.2-1.1c0.6,0,1.4,0,2.2,0v-0.7c-1-0.2-1.7-0.9-1.7-1.9c0-1.1,1-1.9,2.3-1.9
				c1.4,0,2.4,0.8,2.4,1.9c0,0.9-0.7,1.6-1.7,1.9v0.7c0.7,0,1.5-0.1,2.1-0.2L57.8,29.4z M54.7,32h5.2v1.1h-6.6v-2.7h1.4V32z
				 M54.9,27c0.6,0,1.1-0.3,1.1-0.9s-0.5-0.9-1.1-0.9c-0.6,0-1.1,0.3-1.1,0.9S54.3,27,54.9,27z M60.8,26.7v1.1h-1.2V31h-1.4v-7.2
				h1.4v3H60.8z"/>
			<path d="M69.3,31.1v1.1h-8.5v-1.1h2.2v-1.4h-1.2v-3.2H67v-1h-5.3v-1.1h6.6v3.1h-5.3v1h5.5v1.1h-1.3v1.4H69.3z M64.3,31.1h1.6
				v-1.4h-1.6V31.1z"/>
			<path d="M73.2,30.2c0.8,0,1.5-0.1,2.2-0.2l0.1,1c-2,0.3-4.1,0.3-5.9,0.3l-0.2-1.1c0.7,0,1.5,0,2.4,0v-1.6h-1.8v-4.1h4.9v1.1h-3.5
				v1.9H75v1.1h-1.8V30.2z M77.3,23.8v9.5h-1.4v-9.5H77.3z"/>
			<path d="M83.1,27.1c-0.3,1-1.2,1.7-2.4,1.7c-1.4,0-2.5-0.9-2.5-2.3c0-1.3,1.1-2.3,2.5-2.3c1.2,0,2.2,0.7,2.4,1.7h1.5v-2.2H86v5.3
				h-1.4v-2H83.1z M85.1,29.8c0,1,0.5,1.9,1.8,2.3l-0.7,1c-0.9-0.3-1.5-0.9-1.8-1.6c-0.3,0.7-0.8,1.4-1.7,1.7
				c-0.9-0.3-1.4-0.9-1.7-1.7c-0.3,0.7-0.9,1.3-1.7,1.6l-0.7-1c1.2-0.4,1.7-1.4,1.7-2.3v-0.3h1.3v0.3c0,0.8,0.3,1.6,1.1,2.1
				c0.8-0.6,1.1-1.4,1.1-2.1v-0.3h1.3V29.8z M79.5,26.5c0,0.7,0.5,1.1,1.2,1.1c0.7,0,1.2-0.4,1.2-1.1c0-0.7-0.5-1.1-1.2-1.1
				C80,25.4,79.5,25.8,79.5,26.5z"/>
			<path d="M95.2,27.9V29h-8.5v-1.1H95.2z M94.3,27.5c-1.6-0.2-2.8-0.9-3.4-1.8c-0.6,0.9-1.8,1.6-3.4,1.8l-0.5-1
				c2.1-0.2,3.1-1.3,3.1-2.3v-0.3h1.4v0.3c0,1,1,2,3.1,2.3L94.3,27.5z M92.8,29.4h1.3v3.7h-6.5v-3.7h1.3v0.8h3.8V29.4z M92.8,31.2
				h-3.8v0.8h3.8V31.2z"/>
			<path d="M97.2,29.7c1.2,0,2.6-0.1,4-0.4l0.1,1.1c-1.6,0.3-3.2,0.4-4.6,0.4h-0.8v-6.2h1.3V29.7z M103.3,23.8v9.4h-1.4v-9.4H103.3z
				"/>
			<path d="M105.7,29.8c1.3,0,2.5-0.1,3.7-0.3l0.1,1.1c-1.4,0.3-2.7,0.3-4.4,0.3h-0.8v-6.3h4.4v1.1h-3.1V29.8z M112.8,28.4h-1.4v4.9
				h-1.4v-9.5h1.4v3.5h1.4V28.4z"/>
			<path d="M113.2,31.5c0-0.6,0.4-1,0.9-1c0.5,0,0.9,0.4,0.9,1s-0.4,1-0.9,1C113.6,32.5,113.2,32.1,113.2,31.5z M113.4,26l-0.1-1.4
				h1.5l-0.1,1.4l-0.2,3.8h-1L113.4,26z"/>
		</g>
	</g>
	<g>
		<path class="st1" d="M97.3,72.5H42.6c-2.8,0-5-2.2-5-5V55c0-2.8,2.2-5,5-5h54.8c2.8,0,5,2.2,5,5v12.5
			C102.3,70.3,100.1,72.5,97.3,72.5z"/>
		<g>
			<path class="st2" d="M68.6,61.3c-0.8,0.2-1.5,0.2-2.9,0.2h-0.5v-2.9H68v0.7H66v1.5c1.1,0,1.8,0,2.5-0.2L68.6,61.3z M66.7,63.8
				h3.4v0.7h-4.3v-2.4H70v0.7h-3.3V63.8z M70.8,59.6v0.8h-0.8v1.4H69v-3.6h0.9v1.4H70.8z"/>
			<path class="st2" d="M74.2,58.8c0,2-0.7,3.6-2.9,4.7l-0.5-0.7c1.6-0.8,2.3-1.8,2.5-3.2h-2.1v-0.7H74.2z M76.1,58.2v6.4h-0.9v-6.4
				H76.1z"/>
		</g>
	</g>
</g>
</svg>
