<?xml version="1.0" encoding="utf-8"?>
<!-- Generator: Adobe Illustrator 22.1.0, SVG Export Plug-In . SVG Version: 6.00 Build 0)  -->
<svg version="1.1" id="레이어_1" xmlns="http://www.w3.org/2000/svg" xmlns:xlink="http://www.w3.org/1999/xlink" x="0px"
	 y="0px" viewBox="0 0 144 256" style="enable-background:new 0 0 144 256;" xml:space="preserve">
<style type="text/css">
	.st0{fill:#F8F8F8;}
	.st1{opacity:0.8;fill:#6C00B6;}
	.st2{fill:#F3F3F3;stroke:#C7C7C7;stroke-miterlimit:10;}
	.st3{fill:#323232;}
	.st4{fill:#FFFFFF;stroke:#C7C7C7;stroke-miterlimit:10;}
	.st5{fill:#FF2929;}
</style>
<g>
	<rect class="st0" width="144" height="256"/>
	<g>
		<g>
			<path d="M27,10.9c-0.7,1.7-2.3,2.9-4.7,3.4L22,13.5c2.6-0.6,4.2-1.9,4.3-3.6h-3.8V9.1h4.8c0,0.4,0,0.7-0.1,1h2.5V8.6h1v5.5h-1V13
				h-2.8v-0.8h2.8v-1.3H27z M31.1,18.5v0.8h-7.3v-2.8h6v-1.1h-6v-0.8h7v2.7h-6v1.3H31.1z"/>
			<path d="M35.2,11.6c0,1.9,0.8,3.8,2.3,4.6L36.9,17c-1.1-0.6-1.8-1.8-2.2-3.2c-0.4,1.5-1.2,2.8-2.2,3.4l-0.6-0.7
				c1.5-0.9,2.4-2.9,2.4-4.9v-1h-2.1V9.8h4.9v0.8h-1.9V11.6z M38.1,8.8H39v10h-0.9v-5.6h-1.8v-0.8h1.8V8.8z M41.2,8.6v10.8h-1V8.6
				H41.2z"/>
			<path d="M52,15.5h-4.4v3.9h-1v-3.9h-4.4v-0.8H52L52,15.5z M51.1,13.5c-1.7-0.3-3.3-1.2-4-2.5c-0.7,1.3-2.3,2.2-4,2.5l-0.4-0.8
				c2-0.3,3.9-1.6,3.9-3.1V9h1v0.6c0,1.5,1.9,2.8,3.9,3.1L51.1,13.5z"/>
			<path d="M58.8,14.1c-1.5,0.3-2.8,0.4-5,0.4h-0.8v-5h4.8v0.8h-3.8v3.4c2.1,0,3.4-0.1,4.8-0.4L58.8,14.1z M55.1,18.4h6.2v0.8h-7.2
				v-3.5h1V18.4z M62.4,11.8v0.8h-1.6v3.8h-1V8.6h1v3.2H62.4z"/>
			<path d="M70.9,14.9c-1.2-0.5-2.1-1.4-2.6-2.6c-0.5,1.3-1.4,2.3-2.7,2.8l-0.5-0.8c1.6-0.6,2.7-2.1,2.7-3.8V9.2h1v1.4
				c0,1.5,1.1,2.9,2.6,3.5L70.9,14.9z M74.3,18.4v0.8H67v-3.4h1v2.6H74.3z M73,11.9h-2.4v-0.8H73V8.6h1v8.1h-1V11.9z"/>
			<path d="M80.5,14.3c-1.2,0.3-2.3,0.3-4,0.3h-0.7V9.4h4.2v0.8h-3.2v1.4h3.1v0.8h-3.1v1.5c1.5,0,2.5-0.1,3.6-0.3L80.5,14.3z
				 M77.2,15.7h7.3v3.7h-1v-2.9h-6.3V15.7z M84.4,8.6v6.6h-1v-2.9H82v2.9h-0.9V8.8H82v2.6h1.5V8.6H84.4z"/>
		</g>
		<circle class="st1" cx="13.5" cy="13.5" r="2.3"/>
	</g>
	<g>
		<g>
			<g>
				<rect x="11.2" y="67.5" class="st2" width="121.6" height="29.9"/>
				<g>
					<g>
						<path class="st3" d="M50.4,78.3h0.8v8h-0.8v-3h-1.6v-0.6h1.6v-1.5H49c-0.4,1.5-1.3,2.8-3,3.7l-0.5-0.6
							c1.9-1.1,2.8-2.7,2.9-4.5h-2.5v-0.6h3.3c0,0.4,0,0.9-0.1,1.3h1.3V78.3z M52.9,78.1v8.7h-0.8v-8.7H52.9z"/>
						<path class="st3" d="M56.7,84.3c0.8,0,1.6-0.1,2.3-0.2l0.1,0.6C57.2,85,55.2,85,53.7,85l-0.1-0.7c0.7,0,1.5,0,2.3,0v-1.8h0.8
							V84.3z M53.7,82.3c1.3-0.4,2.2-1.4,2.2-2.6v-0.1H54v-0.6h4.7v0.6h-1.9v0.1c0,1.1,0.9,2.1,2.1,2.5l-0.4,0.6
							c-1-0.3-1.8-1-2.2-1.9c-0.4,0.9-1.2,1.6-2.2,2L53.7,82.3z M61.8,82.4h-1.4v4.4h-0.8v-8.7h0.8v3.6h1.4V82.4z"/>
						<path class="st3" d="M66.6,81.8c0,1.9-0.9,3-2.2,3c-1.3,0-2.2-1.2-2.2-3c0-1.9,0.9-3,2.2-3C65.7,78.8,66.6,80,66.6,81.8z
							 M63,81.8c0,1.4,0.6,2.3,1.5,2.3c0.8,0,1.4-0.9,1.4-2.3c0-1.4-0.6-2.3-1.4-2.3C63.6,79.5,63,80.4,63,81.8z M69,78.1v8.7h-0.8
							v-8.7H69z"/>
						<path class="st3" d="M72.6,80.8c0,1.4,0.7,2.8,1.9,3.4L74,84.8c-0.8-0.5-1.5-1.4-1.8-2.4c-0.3,1.1-0.9,2.1-1.8,2.6L70,84.4
							c1.2-0.7,1.8-2.2,1.8-3.6v-0.4h-1.6v-0.7h1.6v-1.3h0.8v1.3h1.6v0.7h-1.6V80.8z M75,78.3h0.8v8H75v-4.1h-1.3v-0.7H75V78.3z
							 M77.5,78.1v8.7h-0.8v-8.7H77.5z"/>
					</g>
				</g>
				<ellipse class="st4" cx="28" cy="82.5" rx="6.6" ry="6.6"/>
			</g>
			<rect x="11.2" y="97" class="st2" width="121.6" height="29.9"/>
			<g>
				<g>
					<path class="st3" d="M49.9,108.6c0,2.5-1.1,4.7-3.9,6.1l-0.4-0.6c2.2-1.1,3.4-2.8,3.6-4.8H46v-0.7H49.9z M53.6,111.8h-1.4v4.5
						h-0.8v-8.7h0.8v3.5h1.4V111.8z"/>
					<path class="st3" d="M58.3,112.4c-0.9-0.3-1.7-1.1-2.1-2c-0.4,1-1.1,1.8-2.2,2.2l-0.4-0.6c1.3-0.5,2.2-1.7,2.2-3v-0.9h0.8v1
						c0,1.2,0.9,2.3,2.1,2.7L58.3,112.4z M60.5,114.7c0,1-1.1,1.6-2.9,1.6c-1.8,0-2.9-0.6-2.9-1.6c0-1,1.1-1.6,2.9-1.6
						C59.4,113.2,60.5,113.7,60.5,114.7z M59.7,114.7c0-0.6-0.8-1-2.1-1c-1.3,0-2.1,0.4-2.1,1c0,0.6,0.8,1,2.1,1
						C59,115.7,59.7,115.3,59.7,114.7z M61.7,109.9v0.7h-1.3v2.4h-0.8v-5.3h0.8v2.2H61.7z"/>
					<path class="st3" d="M66.8,107.9h0.8v8h-0.8v-3h-1.6v-0.6h1.6v-1.5h-1.4c-0.4,1.5-1.3,2.8-3,3.7l-0.5-0.6
						c1.9-1.1,2.8-2.7,2.9-4.5h-2.5v-0.6h3.3c0,0.4,0,0.9-0.1,1.3h1.3V107.9z M69.3,107.6v8.7h-0.8v-8.7H69.3z"/>
					<path class="st3" d="M73.1,113.8c0.8,0,1.6-0.1,2.3-0.2l0.1,0.6c-1.9,0.3-3.9,0.3-5.4,0.3l-0.1-0.7c0.7,0,1.5,0,2.3,0v-1.8h0.8
						V113.8z M70.1,111.8c1.3-0.4,2.2-1.4,2.2-2.6v-0.1h-1.9v-0.6H75v0.6h-1.9v0.1c0,1.1,0.9,2.1,2.1,2.5l-0.4,0.6
						c-1-0.3-1.8-1-2.2-1.9c-0.4,0.9-1.2,1.6-2.2,2L70.1,111.8z M78.1,111.9h-1.4v4.4H76v-8.7h0.8v3.6h1.4V111.9z"/>
				</g>
			</g>
			<ellipse class="st4" cx="28" cy="112" rx="6.6" ry="6.6"/>
			<rect x="11.2" y="126.5" class="st2" width="121.6" height="29.9"/>
			<g>
				<g>
					<path class="st3" d="M50.3,142.1c-1-0.4-1.8-1.2-2.1-2.2c-0.4,1.1-1.2,1.9-2.2,2.3l-0.4-0.6c1.3-0.5,2.2-1.8,2.2-3.1v-0.9h0.8
						v0.9c0,1.3,0.9,2.5,2.2,3L50.3,142.1z M52.9,145v0.6H47V143h0.8v2.1H52.9z M52.6,143.6h-0.8v-6.4h0.8V143.6z"/>
					<path class="st3" d="M61.6,141.5v0.6h-7.9v-0.6h1.9v-1.2c-0.7-0.3-1.1-0.7-1.1-1.3c0-1,1.2-1.6,3.1-1.6c1.9,0,3.1,0.6,3.1,1.6
						c0,0.6-0.4,1-1.1,1.3v1.2H61.6z M60.6,144.3c0,1-1.1,1.5-3,1.5c-1.9,0-3-0.5-3-1.5s1.1-1.6,3-1.6
						C59.5,142.8,60.6,143.3,60.6,144.3z M57.6,140c1.4,0,2.2-0.4,2.2-1c0-0.6-0.9-1-2.2-1c-1.4,0-2.2,0.4-2.2,1
						C55.4,139.6,56.2,140,57.6,140z M59.8,144.3c0-0.6-0.8-0.9-2.2-0.9c-1.4,0-2.2,0.3-2.2,0.9c0,0.6,0.8,0.9,2.2,0.9
						C59,145.3,59.8,144.9,59.8,144.3z M56.4,141.5h2.4v-1c-0.4,0.1-0.8,0.1-1.2,0.1c-0.4,0-0.8,0-1.2-0.1V141.5z"/>
					<path class="st3" d="M66.4,138.1c0,2.5-0.9,4.8-4,6.4l-0.4-0.6c1.6-0.8,2.6-1.8,3.1-2.9l-2.9,0.3l-0.1-0.7l3.3-0.2
						c0.1-0.5,0.2-1,0.3-1.5h-3.1v-0.6H66.4z M70,141.4h-1.4v4.5h-0.8v-8.7h0.8v3.5H70V141.4z"/>
					<path class="st3" d="M78,144v0.7h-7.9V144H78z M77,142h-6v-4H77v0.7h-5.1v2.7H77V142z"/>
				</g>
			</g>
			<ellipse class="st4" cx="28" cy="141.6" rx="6.6" ry="6.6"/>
			<rect x="11.2" y="156.1" class="st2" width="121.6" height="29.9"/>
			<g>
				<g>
					<path class="st3" d="M53.4,172.9h-2.1v2.5h-0.8v-2.5h-2.2v2.5h-0.8v-2.5h-2v-0.6h7.9V172.9z M52.9,168.3h-7v-0.6H49v-1h0.8v1
						h3.1V168.3z M49.4,168.8c1.8,0,2.8,0.5,2.8,1.4c0,0.9-1.1,1.4-2.8,1.4c-1.8,0-2.8-0.5-2.8-1.4
						C46.6,169.3,47.7,168.8,49.4,168.8z M49.4,169.4c-1.3,0-2,0.3-2,0.8c0,0.5,0.7,0.8,2,0.8c1.3,0,2-0.3,2-0.8
						C51.4,169.7,50.7,169.4,49.4,169.4z"/>
					<path class="st3" d="M54.8,172.6c1.2,0,2-0.1,2.9-0.3l0.1,0.7c-1,0.2-1.9,0.3-3.2,0.3H54v-5.5h3.2v0.6h-2.5V172.6z M61.1,166.7
						v8.7h-0.8v-4.6h-1.2v4.1h-0.7v-8.1h0.7v3.3h1.2v-3.5H61.1z"/>
					<path class="st3" d="M69.7,171.4v0.6h-7.9v-0.6h3.5v-1.1h-2.8v-0.6h1.3v-2h-1.3v-0.6H69v0.6h-1.3v2H69v0.6h-2.7v1.1H69.7z
						 M63.7,174.6h5.2v0.6h-6v-2.4h0.8V174.6z M64.7,169.7h2.2v-2h-2.2V169.7z"/>
					<path class="st3" d="M74.3,168.6c-0.5,1.4-1.9,2.3-3.8,2.8l-0.3-0.6c2.1-0.5,3.3-1.5,3.5-2.9h-3v-0.6h3.9c0,0.3,0,0.6-0.1,0.8
						h2v-1.3h0.8v4.4h-0.8v-0.9h-2.3v-0.6h2.3v-1H74.3z M77.5,174.7v0.6h-5.9v-2.2h4.8v-0.9h-4.8v-0.6h5.6v2.1h-4.8v1H77.5z"/>
					<path class="st3" d="M80.8,169.2c0,1.5,0.6,3,1.9,3.7l-0.5,0.6c-0.8-0.5-1.4-1.4-1.7-2.5c-0.3,1.2-0.9,2.2-1.8,2.8l-0.5-0.6
						c1.2-0.7,1.9-2.3,1.9-3.9v-0.8h-1.6v-0.6h4v0.6h-1.6V169.2z M83.1,166.9h0.8v8h-0.8v-4.5h-1.4v-0.6h1.4V166.9z M85.7,166.7v8.7
						h-0.8v-8.7H85.7z"/>
				</g>
			</g>
			<ellipse class="st4" cx="28" cy="171.1" rx="6.6" ry="6.6"/>
			<rect x="11.2" y="185.6" class="st2" width="121.6" height="29.9"/>
			<g>
				<g>
					<path class="st3" d="M53.4,202h-3.6v3H49v-3h-3.5v-0.6h7.9V202z M52.4,200.1h-5.9v-3.4h5.9V200.1z M51.6,197.4h-4.3v2.1h4.3
						V197.4z"/>
					<path class="st3" d="M61.6,200.9v0.6h-7.9v-0.6h3.5V200h-2.5v-3.5h5.9v0.6h-5.1v0.8h4.8v0.6h-4.8v0.9h5.1v0.6H58v0.9H61.6z
						 M60.6,203.5c0,0.9-1.1,1.4-3,1.4c-1.9,0-3-0.5-3-1.4c0-0.9,1.1-1.4,3-1.4C59.5,202.2,60.6,202.6,60.6,203.5z M59.8,203.5
						c0-0.5-0.8-0.8-2.2-0.8c-1.4,0-2.2,0.3-2.2,0.8c0,0.5,0.8,0.8,2.2,0.8C59,204.3,59.8,204.1,59.8,203.5z"/>
					<path class="st3" d="M66.6,201.1c-1-0.3-1.7-1-2.1-1.9c-0.4,1-1.2,1.8-2.2,2.1l-0.4-0.6c1.3-0.5,2.2-1.6,2.2-2.8v-0.3h-1.9
						v-0.6h4.7v0.6h-1.9v0.3c0,1.1,0.8,2.2,2.1,2.6L66.6,201.1z M68.7,203.3c0,1-1.1,1.6-2.9,1.6c-1.8,0-2.9-0.6-2.9-1.6
						c0-1,1.1-1.6,2.9-1.6C67.6,201.7,68.7,202.3,68.7,203.3z M67.9,203.3c0-0.6-0.8-1-2.1-1c-1.3,0-2.1,0.4-2.1,1
						c0,0.6,0.8,1,2.1,1C67.2,204.3,67.9,204,67.9,203.3z M69.9,198.5v0.7h-1.3v2.4h-0.8v-5.2h0.8v2.2H69.9z"/>
					<path class="st3" d="M74.8,198.7c0,1.2-1,2-2.3,2c-1.3,0-2.3-0.8-2.3-2c0-1.2,0.9-2,2.3-2C73.9,196.7,74.8,197.5,74.8,198.7z
						 M71.1,198.7c0,0.8,0.6,1.3,1.5,1.3c0.9,0,1.5-0.6,1.5-1.3c0-0.8-0.6-1.3-1.5-1.3C71.7,197.3,71.1,197.9,71.1,198.7z
						 M72.4,201.4v1.1h4v-1.1h0.8v3.5h-5.6v-3.5H72.4z M72.4,204.2h4V203h-4V204.2z M77.2,196.3v4.7h-0.8v-4.7H77.2z"/>
					<path class="st3" d="M86.2,199.9v0.6h-7.9v-0.6h5.8c0.3-1.1,0.3-1.9,0.3-2.6h-5.1v-0.6h5.9v0.6c0,0.7,0,1.5-0.2,2.6H86.2z
						 M79.2,201.7h5.9v3.1h-5.9V201.7z M80,204.2h4.4v-1.8H80V204.2z"/>
				</g>
			</g>
			<ellipse class="st4" cx="28" cy="200.7" rx="6.6" ry="6.6"/>
		</g>
		<rect x="11.2" y="215.2" class="st2" width="121.6" height="29.9"/>
		<g>
			<g>
				<path class="st3" d="M50.4,226h0.8v8h-0.8v-3h-1.6v-0.6h1.6v-1.5H49c-0.4,1.5-1.3,2.8-3,3.7l-0.5-0.6c1.9-1.1,2.8-2.7,2.9-4.5
					h-2.5v-0.6h3.3c0,0.4,0,0.9-0.1,1.3h1.3V226z M52.9,225.8v8.7h-0.8v-8.7H52.9z"/>
				<path class="st3" d="M56.7,232c0.8,0,1.6-0.1,2.3-0.2l0.1,0.6c-1.9,0.3-3.9,0.3-5.4,0.3l-0.1-0.7c0.7,0,1.5,0,2.3,0v-1.8h0.8
					V232z M53.7,230c1.3-0.4,2.2-1.4,2.2-2.6v-0.1H54v-0.6h4.7v0.6h-1.9v0.1c0,1.1,0.9,2.1,2.1,2.5l-0.4,0.6c-1-0.3-1.8-1-2.2-1.9
					c-0.4,0.9-1.2,1.6-2.2,2L53.7,230z M61.8,230.1h-1.4v4.4h-0.8v-8.7h0.8v3.6h1.4V230.1z"/>
				<path class="st3" d="M66.6,229.5c0,1.9-0.9,3-2.2,3c-1.3,0-2.2-1.2-2.2-3c0-1.9,0.9-3,2.2-3C65.7,226.5,66.6,227.6,66.6,229.5z
					 M63,229.5c0,1.4,0.6,2.3,1.5,2.3c0.8,0,1.4-0.9,1.4-2.3c0-1.4-0.6-2.3-1.4-2.3C63.6,227.2,63,228.1,63,229.5z M69,225.8v8.7
					h-0.8v-8.7H69z"/>
				<path class="st3" d="M72.6,228.5c0,1.4,0.7,2.8,1.9,3.4l-0.5,0.6c-0.8-0.5-1.5-1.4-1.8-2.4c-0.3,1.1-0.9,2.1-1.8,2.6l-0.5-0.6
					c1.2-0.7,1.8-2.2,1.8-3.6v-0.4h-1.6v-0.7h1.6v-1.3h0.8v1.3h1.6v0.7h-1.6V228.5z M75,226h0.8v8H75v-4.1h-1.3v-0.7H75V226z
					 M77.5,225.8v8.7h-0.8v-8.7H77.5z"/>
			</g>
		</g>
		<ellipse class="st4" cx="28" cy="230.2" rx="6.6" ry="6.6"/>
	</g>
	<rect x="11.2" y="27.8" class="st2" width="121.6" height="29.9"/>
	<g>
		<g>
			<path class="st3" d="M23.8,41.1c-0.5,1.4-1.9,2.3-3.8,2.8l-0.3-0.6c2.1-0.5,3.3-1.5,3.5-2.9h-3v-0.6H24c0,0.3,0,0.6-0.1,0.8h2
				v-1.3h0.8v4.4h-0.8v-0.9h-2.3v-0.6h2.3v-1H23.8z M27,47.2v0.6h-5.9v-2.2h4.8v-0.9h-4.8v-0.6h5.6v2.1h-4.8v1H27z"/>
			<path class="st3" d="M30.3,41.7c0,1.5,0.6,3,1.9,3.7L31.7,46c-0.8-0.5-1.4-1.4-1.7-2.5c-0.3,1.2-0.9,2.2-1.8,2.8l-0.5-0.6
				c1.2-0.7,1.9-2.3,1.9-3.9v-0.8h-1.6v-0.6h4v0.6h-1.6V41.7z M32.6,39.4h0.8v8h-0.8V43h-1.4v-0.6h1.4V39.4z M35.1,39.2v8.7h-0.8
				v-8.7H35.1z"/>
			<path class="st3" d="M43.8,42.9v0.6h-7.9v-0.6h5.8C42,41.8,42,41,42,40.3h-5.1v-0.6h5.9v0.6c0,0.7,0,1.5-0.2,2.6H43.8z
				 M36.9,44.7h5.9v3.1h-5.9V44.7z M37.7,47.2H42v-1.8h-4.4V47.2z"/>
			<path class="st3" d="M46.2,43.9c-1.1,0-2-0.8-2-2c0-1.2,0.8-2.1,2-2.1c1.1,0,2,0.8,2,2.1C48.2,43,47.3,43.9,46.2,43.9z
				 M46.2,43.2c0.7,0,1.3-0.6,1.3-1.4c0-0.8-0.5-1.4-1.3-1.4c-0.7,0-1.3,0.6-1.3,1.4C44.9,42.6,45.5,43.2,46.2,43.2z M45.6,44.9h5.8
				v3h-0.8v-2.4h-5V44.9z M51.5,39.2v5.2h-0.8v-2.3h-1.1v2.2h-0.7v-5h0.7v2.1h1.1v-2.2H51.5z"/>
			<path class="st3" d="M54,42.8c0-0.4,0.3-0.7,0.6-0.7c0.3,0,0.6,0.3,0.6,0.7c0,0.4-0.3,0.7-0.6,0.7C54.2,43.4,54,43.2,54,42.8z
				 M54,46.7c0-0.4,0.3-0.7,0.6-0.7c0.3,0,0.6,0.3,0.6,0.7c0,0.4-0.3,0.7-0.6,0.7C54.2,47.3,54,47.1,54,46.7z"/>
		</g>
	</g>
	<g>
		<path class="st5" d="M84.2,47.3h2v-6.7h-1.6v-0.7c0.8-0.1,1.4-0.4,1.9-0.6h0.9v8.1h1.8v0.9h-5V47.3z"/>
		<path class="st5" d="M89.7,43.7c0-3.1,1.1-4.7,2.8-4.7c1.7,0,2.8,1.5,2.8,4.7c0,3.1-1.1,4.7-2.8,4.7
			C90.8,48.4,89.7,46.9,89.7,43.7z M94.2,43.7c0-2.6-0.7-3.7-1.7-3.7c-1,0-1.7,1.1-1.7,3.7c0,2.7,0.7,3.8,1.7,3.8
			C93.5,47.5,94.2,46.4,94.2,43.7z"/>
		<path class="st5" d="M95.6,49.9c0.8-0.3,1.2-0.9,1.2-1.7c0,0-0.1,0-0.1,0c-0.4,0-0.8-0.3-0.8-0.8c0-0.5,0.4-0.8,0.9-0.8
			c0.6,0,0.9,0.5,0.9,1.3c0,1.2-0.7,2.1-1.8,2.6L95.6,49.9z"/>
		<path class="st5" d="M98.1,43.7c0-3.1,1.1-4.7,2.8-4.7c1.7,0,2.8,1.5,2.8,4.7c0,3.1-1.1,4.7-2.8,4.7
			C99.2,48.4,98.1,46.9,98.1,43.7z M102.6,43.7c0-2.6-0.7-3.7-1.7-3.7c-1,0-1.7,1.1-1.7,3.7c0,2.7,0.7,3.8,1.7,3.8
			C101.9,47.5,102.6,46.4,102.6,43.7z"/>
		<path class="st5" d="M104,43.7c0-3.1,1.1-4.7,2.8-4.7c1.7,0,2.8,1.5,2.8,4.7c0,3.1-1.1,4.7-2.8,4.7C105.1,48.4,104,46.9,104,43.7z
			 M108.5,43.7c0-2.6-0.7-3.7-1.7-3.7c-1,0-1.7,1.1-1.7,3.7c0,2.7,0.7,3.8,1.7,3.8C107.8,47.5,108.5,46.4,108.5,43.7z"/>
		<path class="st5" d="M109.9,43.7c0-3.1,1.1-4.7,2.8-4.7c1.7,0,2.8,1.5,2.8,4.7c0,3.1-1.1,4.7-2.8,4.7
			C111,48.4,109.9,46.9,109.9,43.7z M114.4,43.7c0-2.6-0.7-3.7-1.7-3.7c-1,0-1.7,1.1-1.7,3.7c0,2.7,0.7,3.8,1.7,3.8
			C113.8,47.5,114.4,46.4,114.4,43.7z"/>
		<path class="st5" d="M119,44c-1.1,0-2.2,0.1-3.1,0.1l-0.1-0.8c2,0,4.8,0,7.1-0.3l0.1,0.7c-1,0.1-2,0.3-3,0.3v2.2h-1V44z
			 M116.7,40.5c0-1.2,1.1-1.9,2.7-1.9c1.6,0,2.7,0.8,2.7,1.9c0,1.2-1.1,1.9-2.7,1.9C117.8,42.4,116.7,41.7,116.7,40.5z M125.2,48.1
			v0.8h-7.8v-3.2h1v2.4H125.2z M117.7,40.5c0,0.7,0.7,1.2,1.8,1.2c1,0,1.8-0.5,1.8-1.2c0-0.7-0.7-1.2-1.8-1.2
			C118.4,39.3,117.7,39.8,117.7,40.5z M123.9,44.7v-6.5h1v8.4h-1v-1.1h-2.2v-0.8H123.9z"/>
	</g>
</g>
</svg>
