<?xml version="1.0" encoding="utf-8"?>
<!-- Generator: Adobe Illustrator 22.1.0, SVG Export Plug-In . SVG Version: 6.00 Build 0)  -->
<svg version="1.1" id="레이어_1" xmlns="http://www.w3.org/2000/svg" xmlns:xlink="http://www.w3.org/1999/xlink" x="0px"
	 y="0px" viewBox="0 0 1251 87" style="enable-background:new 0 0 1251 87;" xml:space="preserve">
<style type="text/css">
	.st0{fill:#F8F8F8;stroke:#C7C7C7;stroke-miterlimit:10;}
	.st1{fill:#E7E7E7;stroke:#C7C7C7;stroke-miterlimit:10;}
	.st2{fill:none;stroke:#555555;stroke-width:2;stroke-miterlimit:10;}
	.st3{fill:#555555;}
</style>
<rect x="0.5" y="0.5" class="st0" width="1250" height="528"/>
<rect x="0.5" y="0.5" class="st1" width="1250" height="86"/>
<g>
	<path d="M373.4,214.7c-3.3,8.2-11.1,13.3-23.1,16l-2.6-6.3c12.4-2.4,18-7.7,19-14.1h-15.8v-6.3h24.5c0,1.7-0.1,3.3-0.4,4.8H385
		v-6.9h7.9v27.5H385v-4.1h-12.1v-5.9H385v-4.7H373.4z M394,250v6.2h-37.2v-15.5H385v-3.1h-28.3v-6.2h36.1v15.1h-28.2v3.5H394z"/>
	<path d="M414.7,216.4c0,9.2,2.7,18.4,10.6,23l-4.6,5.7c-4.9-2.9-8-7.6-9.8-13.4c-1.9,6.3-5.1,11.6-10.1,14.7l-4.6-5.8
		c8-5.1,10.8-14.9,10.8-24.3v-2.7h-8.8v-6.4h24.4v6.4h-8V216.4z M425.9,202.7h7.3v51.5h-7.3v-27.3h-7v-6.4h7V202.7z M444.4,201.8
		v54.9H437v-54.9H444.4z"/>
	<path d="M476,207.5c0,16.4-6.3,30.6-24.5,39.8l-4.4-6c12.7-6.6,19.5-15.2,21-27.4h-17.9v-6.4H476z M498.3,229.2h-7.7v27.3h-7.9
		v-54.8h7.9v21h7.7V229.2z"/>
	<path d="M543.4,234.3c-11.1,2.1-23.4,2.3-32.5,2.3l-1-6.3c3.8,0,8.1,0,12.6-0.1V226c-5.8-1.3-9.8-5.4-9.8-10.8
		c0-6.6,5.7-11.1,13.6-11.1c8,0,13.7,4.6,13.7,11.1c0,5.4-3.9,9.5-9.7,10.8v3.9c4.2-0.2,8.5-0.5,12.4-1.1L543.4,234.3z M525,249.5
		h30.5v6.3h-38.4v-15.6h7.9V249.5z M526.5,220.4c3.8,0,6.4-1.9,6.4-5.2c0-3.3-2.7-5.2-6.4-5.2s-6.3,1.9-6.3,5.2
		C520.2,218.5,522.8,220.4,526.5,220.4z M560.6,219.1v6.5h-6.9v18.2h-7.9v-41.9h7.9v17.2H560.6z"/>
	<path d="M610.2,244.3v6.4h-49.7v-6.4h12.6v-8.3h-6.8v-18.5h30.6v-5.8h-30.7v-6.3h38.4v18.2H574v6h31.8v6.3h-7.7v8.3H610.2z
		 M580.8,244.3h9.6v-8.3h-9.6V244.3z"/>
	<path d="M632.8,239.3c4.4-0.2,8.8-0.5,13-1l0.5,5.7c-11.7,1.8-24,2-34.2,2l-1-6.4c4.3,0,9,0,13.8-0.1v-9.1h-10.3v-23.6h28.3v6.3
		h-20.4v11.1h20.8v6.3h-10.5V239.3z M656.6,201.9v55h-7.9v-55H656.6z"/>
	<path d="M690.4,221c-1.5,6-7,10-14.1,10c-8.2,0-14.4-5.5-14.4-13.2s6.2-13.2,14.4-13.2c7,0,12.6,4,14.1,9.9h8.8v-12.7h7.9v30.7
		h-7.9V221H690.4z M701.9,236.7c0,5.8,2.9,11.3,10.2,13.6l-3.9,5.7c-5.2-1.7-8.5-5.1-10.4-9.4c-1.8,4.3-4.9,8-9.9,9.9
		c-5.1-1.9-8.2-5.5-9.9-9.8c-1.9,4.1-5.2,7.4-10.1,9.2l-3.9-5.7c7.1-2.6,10.1-8.1,10.1-13.6v-2h7.6v2c0,4.5,1.8,9.1,6.1,12.2
		c4.5-3.3,6.3-8.1,6.3-12.2v-2h7.7V236.7z M669.4,217.8c0,4.2,2.9,6.6,6.9,6.6s6.9-2.4,6.9-6.6c0-4.1-2.9-6.7-6.9-6.7
		S669.4,213.7,669.4,217.8z"/>
	<path d="M761,225.8v6.2h-49.5v-6.2H761z M755.8,223.3c-9.3-1.1-16-5-19.5-10.2c-3.5,5.2-10.2,9.1-19.6,10.2l-2.7-6.1
		c12.3-1.4,18.3-7.5,18.3-13.1v-1.7h8.1v1.7c0,5.5,6,11.7,18.3,13.1L755.8,223.3z M747,234.7h7.7V256h-37.5v-21.3h7.8v4.6h22V234.7z
		 M747,245.2h-22v4.8h22V245.2z"/>
	<path d="M772.5,236.5c7.2-0.2,15-0.8,23-2.4l0.8,6.6c-9.4,2-18.5,2.6-26.8,2.6h-4.9V207h7.8V236.5z M807.6,201.8v54.9h-7.9v-54.9
		H807.6z"/>
	<path d="M822.1,237.1c7.8-0.1,14.3-0.5,21.4-1.7l0.8,6.5c-8.3,1.5-15.8,1.8-25.3,1.8h-4.7v-36.7h25.6v6.4h-17.7V237.1z M863,228.6
		h-8v28.2h-7.9v-55h7.9v20.2h8V228.6z"/>
	<path d="M865.5,246.7c0-3.2,2.3-5.7,5.4-5.7s5.5,2.5,5.5,5.7s-2.4,5.7-5.5,5.7S865.5,249.9,865.5,246.7z M866.8,214.6l-0.3-8.3h8.8
		l-0.3,8.3l-1.3,22H868L866.8,214.6z"/>
</g>
<path class="st2" d="M788,444.5H463c-5.5,0-10-4.5-10-10v-100c0-5.5,4.5-10,10-10h325c5.5,0,10,4.5,10,10v100
	C798,440,793.5,444.5,788,444.5z"/>
<g>
	<path class="st3" d="M618.2,384.8c-4.2,0.9-8.1,1.1-15.6,1.1h-2.8v-15.7h15.2v3.9h-10.3v7.8c6.1,0,9.4-0.3,13.1-1L618.2,384.8z
		 M608,398.1h18.1v3.9h-23v-13h22.3v3.9H608V398.1z M629.8,375.7v4h-4.5v7.6h-4.9v-19.1h4.9v7.5H629.8z"/>
	<path class="st3" d="M648,371.7c0,10.4-3.5,18.9-15.6,24.8l-2.6-3.8c8.7-4.2,12.5-9.5,13.2-17.1h-11.4v-3.9H648z M658.1,368.2v34.1
		h-4.9v-34.1H658.1z"/>
</g>
<line class="st2" x1="1038.8" y1="64.5" x2="1081.8" y2="64.5"/>
<g>
	<line class="st2" x1="1180.8" y1="64.5" x2="1220.3" y2="25.5"/>
	<line class="st2" x1="1220.3" y1="64.5" x2="1180.8" y2="25.5"/>
</g>
<rect x="1112.3" y="25.5" class="st2" width="39" height="39"/>
</svg>
