<?xml version="1.0" encoding="utf-8"?>
<!-- Generator: Adobe Illustrator 22.1.0, SVG Export Plug-In . SVG Version: 6.00 Build 0)  -->
<svg version="1.1" id="레이어_1" xmlns="http://www.w3.org/2000/svg" xmlns:xlink="http://www.w3.org/1999/xlink" x="0px"
	 y="0px" viewBox="0 0 1405.4 872" style="enable-background:new 0 0 1405.4 872;" xml:space="preserve">
<style type="text/css">
	.st0{fill:#F8F8F8;}
	.st1{fill:#F3F3F3;stroke:#C7C7C7;stroke-miterlimit:10;}
	.st2{fill:#323232;}
	.st3{opacity:0.8;fill:#6C00B6;}
	.st4{fill:none;}
	.st5{fill:#FF2929;}
</style>
<g>
	<rect class="st0" width="1405.4" height="872"/>
	<g>
		<path d="M138.9,82c-2.6,6.6-9.1,11.2-18.4,13.4l-1.4-3.2c10.3-2.4,16.2-7.4,16.9-14.1h-14.7v-3.2h18.9c0,1.4-0.1,2.7-0.4,4.1h9.6
			v-6.1h3.9v21.6h-3.9v-4.4h-11v-3h11v-5H138.9z M154.7,111.6v3.1h-28.5v-10.9h23.3v-4.3H126v-3.1h27.2v10.4h-23.3v4.9H154.7z"/>
		<path d="M170.7,84.8c0,7.3,3.2,14.7,9,18l-2.4,2.8c-4.1-2.4-7-7-8.5-12.3c-1.5,5.8-4.5,10.7-8.7,13.4l-2.4-2.9
			c5.9-3.5,9.2-11.2,9.2-19V81h-8v-3.2h19.3V81h-7.5V84.8z M182,73.8h3.7v39.1H182V91.2h-7V88h7V73.8z M194.2,72.8v42.3h-3.7V72.8
			H194.2z"/>
		<path d="M236.3,99.9H219v15.3h-3.9V99.9h-17.1v-3.2h38.2L236.3,99.9z M232.8,92.1c-6.5-1.1-12.9-4.8-15.6-9.9
			c-2.6,5.1-9,8.8-15.6,9.9L200,89c7.7-1.1,15.1-6.2,15.1-12.2v-2.4h4.1v2.4c0,5.9,7.5,11.1,15.2,12.2L232.8,92.1z"/>
		<path d="M262.7,94.5c-5.8,1.2-10.8,1.5-19.6,1.5h-3.3V76.5h18.7v3.1h-14.8v13.1c8.3,0,13.1-0.3,18.7-1.4L262.7,94.5z M248.2,111
			h24.3v3.2h-28.2v-13.8h3.9V111z M276.9,85.4v3.2h-6.3v14.8h-3.9V72.9h3.9v12.5H276.9z"/>
		<path d="M310,97.4c-4.7-1.8-8.3-5.5-10.1-10c-1.8,5-5.6,9-10.5,11l-2-3.1c6.3-2.3,10.6-8.3,10.6-14.7v-5.2h3.9v5.4
			c0,5.9,4.1,11.4,10.2,13.7L310,97.4z M323.1,111v3.2H295V101h3.9v10H323.1z M318.2,86H309v-3.2h9.2v-9.9h3.9v31.6h-3.9V86z"/>
		<path d="M347.3,95.1c-4.9,1-8.9,1.2-15.6,1.2H329V76h16.3v3.1h-12.6v5.3h12.1v3h-12.1v5.7c6,0,9.8-0.2,14.2-1.1L347.3,95.1z
			 M334.4,100.7h28.4v14.4h-3.9v-11.3h-24.5V100.7z M362.8,72.9v25.6h-3.7V87h-5.7v11.2h-3.7V73.7h3.7v10.2h5.7v-11H362.8z"/>
	</g>
	<rect x="817.9" y="402.5" class="st1" width="370.5" height="171.6"/>
	<g>
		<g>
			<path class="st2" d="M1010.8,492.2c-3.6-1.4-6.4-4.2-7.8-7.9c-1.3,3.9-4.2,6.9-7.9,8.5l-1.5-2.4c4.8-1.8,8-6.4,8-11.4v-3.2h2.9
				v3.2c0,4.8,3.2,9.1,7.9,10.8L1010.8,492.2z M1020.2,502.7v2.4h-21.4v-9.9h2.9v7.5H1020.2z M1019.3,497.4h-2.9v-23.3h2.9V497.4z"
				/>
			<path class="st2" d="M1051.9,489.8v2.3h-28.8v-2.3h7.1v-4.5c-2.5-1-3.9-2.6-3.9-4.8c0-3.7,4.3-5.9,11.2-5.9
				c6.9,0,11.2,2.2,11.2,5.9c0,2.1-1.4,3.8-3.9,4.7v4.5H1051.9z M1048.3,500.2c0,3.6-4,5.6-10.9,5.6c-6.8,0-10.9-2-10.9-5.6
				c0-3.6,4.1-5.7,10.9-5.7C1044.3,494.5,1048.3,496.5,1048.3,500.2z M1037.5,484.2c5.1,0,8.2-1.4,8.2-3.6c0-2.3-3.1-3.6-8.2-3.6
				s-8.2,1.3-8.2,3.6C1029.3,482.8,1032.4,484.2,1037.5,484.2z M1045.4,500.2c0-2.2-3-3.4-7.9-3.4c-5,0-7.9,1.2-7.9,3.4
				s2.9,3.4,7.9,3.4C1042.4,503.6,1045.4,502.3,1045.4,500.2z M1033.1,489.8h8.8v-3.7c-1.3,0.2-2.8,0.4-4.4,0.4
				c-1.6,0-3.1-0.1-4.4-0.4V489.8z"/>
			<path class="st2" d="M1069.4,477.3c0,9.2-3.1,17.6-14.5,23.3l-1.6-2.2c5.9-2.9,9.4-6.5,11.3-10.8l-10.7,1l-0.5-2.5l12.1-0.8
				c0.5-1.8,0.8-3.6,1-5.6h-11.4v-2.4H1069.4z M1082.6,489.4h-5.1v16.5h-2.9v-31.8h2.9v12.9h5.1V489.4z"/>
			<path class="st2" d="M1111.8,499.1v2.4H1083v-2.4H1111.8z M1108.4,491.7h-21.8V477h21.5v2.4h-18.6v9.9h18.9V491.7z"/>
		</g>
	</g>
	<circle class="st3" cx="86.2" cy="92" r="9"/>
	<rect x="77.2" y="172" class="st1" width="1111" height="152"/>
	<rect x="76.7" y="402.5" class="st1" width="370.5" height="171.6"/>
	<g>
		<g>
			<g>
				<path class="st2" d="M269.5,476.3h2.8v29.3h-2.8v-11h-5.7v-2.4h5.7v-5.6h-5.2c-1.5,5.3-4.9,10.1-10.9,13.7l-1.7-2.1
					c6.8-4.1,10.2-9.8,10.7-16.4h-9.3v-2.4h12.2c0,1.6-0.1,3.2-0.4,4.8h4.7V476.3z M278.7,475.4v31.7h-2.8v-31.7H278.7z"/>
				<path class="st2" d="M292.7,497.9c2.9-0.1,5.7-0.3,8.4-0.7l0.2,2.2c-6.8,1.2-14.3,1.2-19.7,1.2l-0.4-2.4c2.5,0,5.5,0,8.5-0.1
					v-6.4h2.9V497.9z M281.7,490.6c4.7-1.5,8-5.2,8-9.6v-0.4h-7v-2.4h17v2.4h-7v0.4c0,4,3.2,7.6,7.8,9.1l-1.4,2.2
					c-3.6-1.1-6.5-3.6-7.9-6.8c-1.4,3.4-4.3,6-8,7.3L281.7,490.6z M311.1,491h-5v16.1h-2.9v-31.8h2.9v13.2h5V491z"/>
				<path class="st2" d="M328.9,488.9c0,6.8-3.4,11.1-8.1,11.1c-4.7,0-8.1-4.3-8.1-11.1s3.4-11.1,8.1-11.1
					C325.5,477.9,328.9,482.2,328.9,488.9z M315.5,488.9c0,5.2,2.2,8.5,5.3,8.5c3.1,0,5.3-3.3,5.3-8.5c0-5.1-2.2-8.5-5.3-8.5
					C317.7,480.5,315.5,483.8,315.5,488.9z M337.5,475.4v31.8h-2.9v-31.8H337.5z"/>
				<path class="st2" d="M350.7,485.2c0,5.1,2.5,10.3,6.8,12.6l-1.7,2.2c-3.1-1.7-5.3-5-6.5-8.8c-1.1,4-3.3,7.6-6.4,9.5l-1.7-2.2
					c4.3-2.6,6.7-8.1,6.7-13.3v-1.5h-5.9v-2.4h5.9v-4.7h2.8v4.7h5.8v2.4h-5.9V485.2z M359.3,476.2h2.8v29.4h-2.8v-15.2h-4.9V488h4.9
					V476.2z M368.4,475.4v31.7h-2.8v-31.7H368.4z"/>
			</g>
		</g>
		<g>
			<path class="st2" d="M166.2,495.5l-11.9,15.7h43.2c-0.3-0.5-0.6-0.9-0.8-1.4h-39.5l10.1-13.3h-1.1V495.5z"/>
			<g>
				<rect x="171.8" y="477.2" class="st2" width="27.7" height="1.4"/>
				<rect x="171.8" y="481.3" class="st2" width="22.3" height="1.4"/>
				<rect x="171.8" y="485.4" class="st2" width="22.3" height="1.4"/>
			</g>
			<path class="st2" d="M224.5,489.3L224,489l-0.2,0c-1.9,0.1-5.5-0.2-8.9-3.1c-2.2-1.9-3.8-3.4-4.6-5.4l-0.1-0.2l-0.7-0.5l-0.7,0.5
				l-0.1,0.2c-0.8,2.1-2.4,3.6-4.6,5.4c-3.4,2.9-7.1,3.2-8.9,3.1l-0.3,0l-0.5,0.4v14.4c0,4.5,2.2,8.8,5.8,11.5l9.2,6.7l9.2-6.7
				c3.6-2.7,5.8-7,5.8-11.5v-14.1L224.5,489.3z M223.8,503.8c0,4.3-2.1,8.4-5.5,10.9l-8.8,6.4l-8.8-6.4c-3.5-2.5-5.5-6.6-5.5-10.9
				v-14.1l0,0c2.8,0.1,6.3-0.7,9.4-3.3c2.3-2,4-3.5,4.8-5.7l0.1-0.1l0.1,0.1c0.8,2.2,2.5,3.8,4.8,5.7c3.1,2.6,6.6,3.4,9.4,3.3l0,0
				V503.8z"/>
			<path class="st4" d="M195.2,489.7c2.8,0.1,6.3-0.7,9.4-3.3c2.3-2,4-3.5,4.8-5.7l0.1-0.1l0.1,0.1c0.8,2.2,2.5,3.8,4.8,5.7
				c0.1,0.1,0.2,0.2,0.3,0.2v-10.4c0-1.6-1.3-2.9-2.9-2.9h-41.2c-1.6,0-2.9,1.3-2.9,2.9V495h27.6L195.2,489.7L195.2,489.7z"/>
			<path class="st2" d="M167.7,495v-18.7c0-1.6,1.3-2.9,2.9-2.9h41.2c1.6,0,2.9,1.3,2.9,2.9v10.4c0.5,0.4,1,0.7,1.4,1v-11.4
				c0-2.4-1.9-4.3-4.3-4.3h-41.2c-2.4,0-4.3,1.9-4.3,4.3v19.2l0.1-0.2l1.1,0.9l-0.2,0.3h27.9V495H167.7z"/>
			<path class="st2" d="M205.1,487c1.9-1.6,3.4-3,4.4-4.7c1,1.7,2.5,3.1,4.4,4.7c0.2,0.2,0.5,0.4,0.7,0.6v-0.9
				c-0.1-0.1-0.2-0.1-0.3-0.2c-2.3-2-4-3.5-4.8-5.7l-0.1-0.1l-0.1,0.1c-0.8,2.2-2.5,3.8-4.8,5.7c-3.1,2.6-6.6,3.4-9.4,3.3l0,0v5.3
				h0.7v-4.5C198.1,490.4,201.7,489.8,205.1,487z"/>
			<path class="st2" d="M223.8,489.7c-2.3,0.1-5.1-0.4-7.7-2v0.8c2.7,1.5,5.3,1.9,7,1.9v13.3c0,4.1-2,7.9-5.2,10.3l-8.3,6.1
				l-8.3-6.1c-3.3-2.4-5.2-6.3-5.2-10.3v-7.4h-0.7v7.4c0,4.3,2.1,8.4,5.5,10.9l8.8,6.4l8.8-6.4c3.5-2.5,5.5-6.6,5.5-10.9
				L223.8,489.7L223.8,489.7z"/>
			<rect x="195.2" y="495" class="st2" width="0.7" height="1.4"/>
			<path class="st2" d="M214.6,487.6c0.5,0.4,1,0.7,1.4,1v-0.8c-0.5-0.3-1-0.6-1.4-1V487.6z"/>
			<path class="st2" d="M217.1,500.7l1.7-3.9h-1.4l-1.7,3.9h-4.1l-0.6-1.2l-0.7-1.4l-0.7-1.3l-2,3.9h-4.1l-1.7-3.9h-1.4l1.7,3.9
				h-2.8v1.4h3.4l1.7,3.8l0.7,1.5l0.2,0.4l1.1-2.1l1.9-3.6h0.8h1.9h1.5h2.6l-1.1,2.8l-1.5-2.7l-1.5,0l3.2,5.6l2.3-5.7h0.1h3.4v-1.4
				H217.1z M204.1,502.1h2.7l-1.1,2l-0.4,0.7l-0.1-0.1L204.1,502.1z M210.1,500.7H209l0.6-1.1L210.1,500.7L210.1,500.7L210.1,500.7z
				"/>
		</g>
	</g>
	<g>
		<rect x="447" y="574.1" class="st1" width="370.5" height="171.6"/>
		<g>
			<g>
				<path class="st2" d="M626,666.5h-13v10.9H610v-10.9h-12.9v-2.4H626V666.5z M622.3,659.8h-21.5v-12.4h21.5V659.8z M619.4,649.8
					h-15.8v7.7h15.8V649.8z"/>
				<path class="st2" d="M655.8,662.5v2.3h-28.8v-2.3H640v-3.1h-9.1v-12.8h21.4v2.3h-18.5v2.9h17.7v2.2h-17.7v3.1h18.7v2.3h-9.6v3.1
					H655.8z M652.3,672.3c0,3.3-4,5.1-10.9,5.1c-6.9,0-10.9-1.8-10.9-5.1c0-3.3,4-5.1,10.9-5.1C648.4,667.3,652.3,669,652.3,672.3z
					 M649.4,672.3c0-1.9-2.8-2.9-8-2.9c-5.1,0-8,1-8,2.9c0,1.9,2.9,2.9,8,2.9C646.6,675.2,649.4,674.2,649.4,672.3z"/>
				<path class="st2" d="M674.1,663.3c-3.6-1.2-6.3-3.7-7.7-6.8c-1.3,3.6-4.2,6.4-8,7.8l-1.5-2.3c4.8-1.7,8-5.8,8-10.3v-1.2h-7.1
					v-2.3h17v2.3h-7v1.2c0,4.1,3,7.9,7.7,9.4L674.1,663.3z M682,671.5c0,3.7-4,5.9-10.4,5.9c-6.5,0-10.5-2.2-10.5-5.9
					c0-3.7,4-5.8,10.5-5.8C678,665.7,682,667.9,682,671.5z M679.1,671.5c0-2.2-2.9-3.5-7.5-3.5c-4.7,0-7.6,1.3-7.6,3.5
					c0,2.3,2.8,3.6,7.6,3.6C676.3,675.1,679.1,673.8,679.1,671.5z M686.4,653.7v2.4h-4.7v8.7h-2.9v-19.2h2.9v8H686.4z"/>
				<path class="st2" d="M704.3,654.5c0,4.4-3.5,7.3-8.3,7.3c-4.8,0-8.3-2.9-8.3-7.3c0-4.3,3.5-7.3,8.3-7.3
					C700.8,647.2,704.3,650.2,704.3,654.5z M690.5,654.5c0,2.9,2.3,4.9,5.4,4.9c3.2,0,5.5-2,5.5-4.9c0-2.9-2.3-4.9-5.5-4.9
					C692.8,649.6,690.5,651.6,690.5,654.5z M695.4,664.3v3.9h14.7v-3.9h2.9V677h-20.5v-12.7H695.4z M695.4,674.7h14.7v-4.2h-14.7
					V674.7z M713,645.7v17h-2.9v-17H713z"/>
				<path class="st2" d="M745.7,659.1v2.3h-28.9v-2.3h21.4c0.9-4,0.9-6.9,0.9-9.3h-18.6v-2.3H742v2.3c0,2.5,0,5.4-0.8,9.3H745.7z
					 M720.4,665.7h21.7V677h-21.7V665.7z M723.3,674.7h16v-6.6h-16V674.7z"/>
			</g>
		</g>
		<g>
			<path class="st4" d="M541.2,665.8h-29.4l-10.1,13.3h39.5c-1-2-1.5-4.3-1.5-6.7C539.7,670.1,540.2,667.9,541.2,665.8z"/>
			<path class="st4" d="M554.8,657.4c1.5,0,2.9,0.2,4.3,0.6v-12.3c0-1.6-1.3-2.9-2.9-2.9H515c-1.6,0-2.9,1.3-2.9,2.9v18.7H542
				C544.7,660.2,549.4,657.4,554.8,657.4z M538.6,656.3h-22.3v-1.4h22.3V656.3z M538.6,652.2h-22.3v-1.4h22.3V652.2z M544,648h-27.7
				v-1.4H544V648z"/>
			<path class="st2" d="M556.2,641.4H515c-2.4,0-4.3,1.9-4.3,4.3v19.2l0.1-0.2l1.1,0.9l-0.2,0.3h29.4c0.2-0.5,0.5-1,0.8-1.4h-29.9
				v-18.7c0-1.6,1.3-2.9,2.9-2.9h41.2c1.6,0,2.9,1.3,2.9,2.9V658c0.5,0.1,1,0.3,1.4,0.5v-12.8C560.5,643.3,558.6,641.4,556.2,641.4z
				"/>
			<path class="st2" d="M510.7,664.9l-11.9,15.7H542c-0.3-0.5-0.6-0.9-0.8-1.4h-39.5l10.1-13.3h-1.1V664.9z"/>
			<polygon class="st2" points="511.8,665.8 512,665.6 510.9,664.7 510.7,664.9 510.7,665.8 			"/>
			<g>
				<rect x="516.3" y="646.6" class="st2" width="27.7" height="1.4"/>
				<rect x="516.3" y="650.7" class="st2" width="22.3" height="1.4"/>
				<rect x="516.3" y="654.9" class="st2" width="22.3" height="1.4"/>
			</g>
			<path class="st2" d="M560.5,658.5v0.8c5.1,2.2,8.6,7.3,8.6,13.2c0,7.9-6.4,14.4-14.4,14.4c-4.9,0-9.3-2.5-11.9-6.3H542
				c2.7,4.2,7.4,7,12.7,7c8.3,0,15.1-6.8,15.1-15.1C569.9,666.2,566,660.8,560.5,658.5z"/>
			<path class="st2" d="M542,665.8h-0.8c-1,2-1.5,4.3-1.5,6.7c0,2.4,0.6,4.6,1.5,6.7h0.8c-1-2-1.6-4.3-1.6-6.7
				C540.4,670.1,541,667.8,542,665.8z"/>
			<path class="st2" d="M554.8,658.1c1.5,0,3,0.2,4.3,0.7V658c-1.4-0.4-2.8-0.6-4.3-0.6c-5.4,0-10.1,2.8-12.7,7h0.9
				C545.5,660.6,549.8,658.1,554.8,658.1z"/>
			<path class="st2" d="M559.1,658.8c0.5,0.2,1,0.3,1.4,0.5v-0.8c-0.5-0.2-0.9-0.4-1.4-0.5V658.8z"/>
			<path class="st2" d="M542.9,664.4H542c-0.3,0.5-0.6,0.9-0.8,1.4h0.8C542.3,665.4,542.6,664.9,542.9,664.4z"/>
			<path class="st2" d="M542,679.2h-0.8c0.2,0.5,0.5,1,0.8,1.4h0.9C542.6,680.1,542.3,679.7,542,679.2z"/>
			<path class="st2" d="M542.9,664.4h0.9c2.5-3.4,6.5-5.6,11-5.6c1.5,0,3,0.2,4.3,0.7v-0.8c-1.4-0.4-2.8-0.7-4.3-0.7
				C549.8,658.1,545.5,660.6,542.9,664.4z"/>
			<path class="st2" d="M541.1,672.5c0-2.4,0.6-4.7,1.7-6.7H542c-1,2-1.6,4.3-1.6,6.7c0,2.4,0.6,4.7,1.6,6.7h0.8
				C541.7,677.2,541.1,674.9,541.1,672.5z"/>
			<path class="st2" d="M568.4,672.5c0,7.5-6.1,13.7-13.7,13.7c-4.5,0-8.5-2.2-11-5.6h-0.9c2.6,3.8,7,6.3,11.9,6.3
				c7.9,0,14.4-6.4,14.4-14.4c0-5.9-3.6-11-8.6-13.2v0.8C565.2,662.3,568.4,667,568.4,672.5z"/>
			<path class="st2" d="M559.1,659.5c0.5,0.2,1,0.4,1.4,0.6v-0.8c-0.5-0.2-0.9-0.4-1.4-0.5V659.5z"/>
			<path class="st2" d="M542.9,664.4c-0.3,0.5-0.6,0.9-0.9,1.4h0.8c0.3-0.5,0.6-1,0.9-1.4H542.9z"/>
			<path class="st2" d="M542.8,679.2H542c0.3,0.5,0.5,1,0.9,1.4h0.9C543.4,680.1,543.1,679.7,542.8,679.2z"/>
			<polygon class="st2" points="549.3,673.7 547.9,673.7 549.5,677.5 550.4,676.3 			"/>
			<polygon class="st2" points="562.3,672.3 564,668.3 562.6,668.3 560.9,672.3 			"/>
			<polygon class="st2" points="555.4,672.3 556.8,672.3 556.2,671.1 555.3,672.2 			"/>
			<polygon class="st2" points="550.4,679.4 551.5,677.3 550.2,679 			"/>
			<polygon class="st2" points="550.9,675.7 552.4,673.7 552,673.7 			"/>
			<polygon class="st2" points="559,676.5 557.6,673.7 556.1,673.7 559.1,679.4 561.6,673.7 560.2,673.7 			"/>
			<polygon class="st2" points="552.7,672.3 553.5,672.3 555.4,669.7 554.8,668.4 			"/>
			<polygon class="st2" points="547,668.3 545.6,668.3 547.3,672.3 548.7,672.3 			"/>
			<polygon class="st2" points="552.4,673.7 550.9,675.7 550.5,676.5 550.4,676.3 549.5,677.5 550.2,679 551.5,677.3 553.4,673.7 
							"/>
			<polygon class="st2" points="554.2,672.3 554.8,671.1 555.3,672.2 556.2,671.1 555.4,669.7 553.5,672.3 			"/>
			<polygon class="st2" points="544.5,672.3 544.5,673.7 547.9,673.7 547.3,672.3 			"/>
			<polygon class="st2" points="565,673.7 565,672.3 562.3,672.3 561.6,673.7 			"/>
			<polygon class="st2" points="555.3,672.3 554.2,673.7 556.1,673.7 555.4,672.3 			"/>
			<polygon class="st2" points="554.2,672.3 553.4,673.7 554.2,673.7 555.3,672.3 			"/>
			<polygon class="st2" points="552.7,672.3 548.7,672.3 549.3,673.7 552,673.7 			"/>
			<polygon class="st2" points="560.2,673.7 560.9,672.3 556.8,672.3 557.6,673.7 			"/>
			<polygon class="st2" points="548.7,672.3 547.3,672.3 547.9,673.7 549.3,673.7 			"/>
			<polygon class="st2" points="552.7,672.3 552,673.7 552.4,673.7 553.5,672.3 			"/>
			<polygon class="st2" points="560.2,673.7 561.6,673.7 562.3,672.3 560.9,672.3 			"/>
			<polygon class="st2" points="556.8,672.3 555.4,672.3 556.1,673.7 557.6,673.7 			"/>
			<polygon class="st2" points="552.4,673.7 553.4,673.7 554.2,672.3 553.5,672.3 			"/>
		</g>
	</g>
	<rect x="818" y="574.1" class="st1" width="370.5" height="171.6"/>
	<g>
		<g>
			<g>
				<path class="st2" d="M996.9,659.5v2.3h-28.7v-2.3h12.9v-2.4c-6.1-0.2-9.7-2.2-9.7-5.5c0-3.6,4.2-5.5,11.2-5.5
					c7,0,11.2,1.9,11.2,5.5c0,3.3-3.6,5.2-9.7,5.5v2.4H996.9z M974.6,674.8h19.6v2.3h-22.5v-7.6h18.6v-2.8h-18.7v-2.2h21.6v7.2
					h-18.7V674.8z M982.5,654.9c5.2,0,8.2-1.2,8.2-3.3c0-2.1-3-3.3-8.2-3.3c-5.2,0-8.2,1.2-8.2,3.3
					C974.3,653.7,977.3,654.9,982.5,654.9z"/>
				<path class="st2" d="M1026.8,670.8v2.4h-28.7v-2.4h11.2v-8.3h2.9v8.3H1026.8z M1020.5,656.4c0.1-1.7,0.1-3.2,0.1-4.6v-0.6h-19
					v-2.4h20.2l1.7,0v3c0,3.9,0,8.3-1.3,14.8l-2.9-0.4c0.6-2.8,0.9-5.3,1.1-7.5l-19.2,1l-0.4-2.5L1020.5,656.4z"/>
				<path class="st2" d="M1037,663.6c-4.7,0-8.3-3.3-8.3-7.9c0-4.6,3.5-7.8,8.3-7.8c4.7,0,8.3,3.2,8.3,7.8
					C1045.4,660.3,1041.8,663.6,1037,663.6z M1037,661.1c3.2,0,5.5-2.2,5.5-5.3c0-3.1-2.3-5.3-5.5-5.3c-3.1,0-5.4,2.2-5.4,5.3
					C1031.6,658.9,1034,661.1,1037,661.1z M1055.1,674.4v2.4h-21.4v-10.2h2.9v7.8H1055.1z M1054.1,668.9h-2.9v-23.2h2.9V668.9z"/>
				<path class="st2" d="M1070.1,666.8c1.1-0.1,2.3-0.2,3.3-0.4l0.2,2.1c-4.9,0.9-11.6,1.1-15.7,1.1l-0.3-2.4c1,0,2,0,3.2,0v-15.1
					h-2.6v-2.3h14.5v2.3h-2.6V666.8z M1063.5,667.1c1.3,0,2.6-0.1,4-0.1v-14.9h-4V667.1z M1076.2,646.5h2.7v29.3h-2.7v-15.4h-4.3
					v-2.5h4.3V646.5z M1085.1,645.7v31.7h-2.8v-31.7H1085.1z"/>
				<path class="st2" d="M1105.2,659.2c0,6.8-3.4,11.1-8.1,11.1s-8.1-4.3-8.1-11.1s3.4-11.1,8.1-11.1S1105.2,652.5,1105.2,659.2z
					 M1091.8,659.2c0,5.2,2.2,8.5,5.3,8.5c3.1,0,5.3-3.3,5.3-8.5c0-5.1-2.2-8.5-5.3-8.5C1094,650.8,1091.8,654.1,1091.8,659.2z
					 M1113.9,645.7v31.8h-2.9v-31.8H1113.9z"/>
			</g>
		</g>
	</g>
	<rect x="447" y="402.5" class="st1" width="370.5" height="171.6"/>
	<g>
		<g>
			<g>
				<path class="st2" d="M641.7,478.8c0,9-4.1,17.2-14.4,22.3l-1.6-2.3c8.1-4.1,12.5-10.2,13.1-17.7h-11.7v-2.4H641.7z M655,490.7
					h-5.1v16.5H647v-31.8h2.9v12.9h5.1V490.7z"/>
				<path class="st2" d="M672.2,492.6c-3.4-1.3-6.2-3.9-7.6-7.2c-1.3,3.7-4.1,6.6-7.9,8l-1.5-2.3c4.8-1.7,7.9-6.1,7.9-10.9V477h2.9
					v3.5c0,4.3,3.1,8.3,7.7,9.8L672.2,492.6z M680.4,501.4c0,3.7-4,5.8-10.4,5.8c-6.5,0-10.5-2.1-10.5-5.8c0-3.7,4-5.8,10.5-5.8
					C676.4,495.6,680.4,497.7,680.4,501.4z M677.5,501.4c0-2.2-2.9-3.5-7.5-3.5c-4.7,0-7.6,1.3-7.6,3.5c0,2.2,2.9,3.5,7.6,3.5
					C674.6,504.9,677.5,503.6,677.5,501.4z M684.8,483.6v2.4H680v8.6h-2.9v-19.2h2.9v8.2H684.8z"/>
				<path class="st2" d="M703.2,476.3h2.8v29.3h-2.8v-11h-5.7v-2.4h5.7v-5.6h-5.2c-1.5,5.3-4.9,10.1-10.9,13.7l-1.7-2.1
					c6.8-4.1,10.2-9.8,10.7-16.4h-9.3v-2.4h12.2c0,1.6-0.1,3.2-0.4,4.8h4.7V476.3z M712.3,475.4v31.7h-2.8v-31.7H712.3z"/>
				<path class="st2" d="M726.3,497.9c2.9-0.1,5.7-0.3,8.4-0.7l0.2,2.2c-6.8,1.2-14.3,1.2-19.7,1.2l-0.4-2.4c2.5,0,5.5,0,8.5-0.1
					v-6.4h2.9V497.9z M715.4,490.6c4.7-1.5,8-5.2,8-9.6v-0.4h-7v-2.4h17v2.4h-7v0.4c0,4,3.2,7.6,7.8,9.1l-1.4,2.2
					c-3.6-1.1-6.5-3.6-7.9-6.8c-1.4,3.4-4.3,6-8,7.3L715.4,490.6z M744.7,491h-5v16.1h-2.9v-31.8h2.9v13.2h5V491z"/>
			</g>
		</g>
		<g>
			<path class="st2" d="M531.7,495.5l-11.9,15.7H563c-0.3-0.5-0.6-0.9-0.8-1.4h-39.5l10.1-13.3h-1.1V495.5z"/>
			<g>
				<rect x="537.3" y="477.2" class="st2" width="27.7" height="1.4"/>
				<rect x="537.3" y="481.3" class="st2" width="22.3" height="1.4"/>
				<rect x="537.3" y="485.4" class="st2" width="22.3" height="1.4"/>
			</g>
			<path class="st2" d="M590,489.3l-0.5-0.4l-0.2,0c-1.9,0.1-5.5-0.2-8.9-3.1c-2.2-1.9-3.8-3.4-4.6-5.4l-0.1-0.2l-0.7-0.5l-0.7,0.5
				l-0.1,0.2c-0.8,2.1-2.4,3.6-4.6,5.4c-3.4,2.9-7.1,3.2-8.9,3.1l-0.3,0l-0.5,0.4v14.4c0,4.5,2.2,8.8,5.8,11.5l9.2,6.7l9.2-6.7
				c3.6-2.7,5.8-7,5.8-11.5v-14.1L590,489.3z M589.3,503.8c0,4.3-2.1,8.4-5.5,10.9l-8.8,6.4l-8.8-6.4c-3.5-2.5-5.5-6.6-5.5-10.9
				v-14.1l0,0c2.8,0.1,6.3-0.7,9.4-3.3c2.3-2,4-3.5,4.8-5.7l0.1-0.1l0.1,0.1c0.8,2.2,2.5,3.8,4.8,5.7c3.1,2.6,6.6,3.4,9.4,3.3l0,0
				V503.8z"/>
			<path class="st4" d="M560.7,489.7c2.8,0.1,6.3-0.7,9.4-3.3c2.3-2,4-3.5,4.8-5.7l0.1-0.1l0.1,0.1c0.8,2.2,2.5,3.8,4.8,5.7
				c0.1,0.1,0.2,0.2,0.3,0.2v-10.4c0-1.6-1.3-2.9-2.9-2.9H536c-1.6,0-2.9,1.3-2.9,2.9V495h27.6L560.7,489.7L560.7,489.7z"/>
			<path class="st2" d="M533.1,495v-18.7c0-1.6,1.3-2.9,2.9-2.9h41.2c1.6,0,2.9,1.3,2.9,2.9v10.4c0.5,0.4,1,0.7,1.4,1v-11.4
				c0-2.4-1.9-4.3-4.3-4.3H536c-2.4,0-4.3,1.9-4.3,4.3v19.2l0.1-0.2l1.1,0.9l-0.2,0.3h27.9V495H533.1z"/>
			<path class="st2" d="M570.6,487c1.9-1.6,3.4-3,4.4-4.7c1,1.7,2.5,3.1,4.4,4.7c0.2,0.2,0.5,0.4,0.7,0.6v-0.9
				c-0.1-0.1-0.2-0.1-0.3-0.2c-2.3-2-4-3.5-4.8-5.7l-0.1-0.1l-0.1,0.1c-0.8,2.2-2.5,3.8-4.8,5.7c-3.1,2.6-6.6,3.4-9.4,3.3l0,0v5.3
				h0.7v-4.5C563.6,490.4,567.2,489.8,570.6,487z"/>
			<path class="st2" d="M589.3,489.7c-2.3,0.1-5.1-0.4-7.7-2v0.8c2.7,1.5,5.3,1.9,7,1.9v13.3c0,4.1-2,7.9-5.2,10.3l-8.3,6.1
				l-8.3-6.1c-3.3-2.4-5.2-6.3-5.2-10.3v-7.4h-0.7v7.4c0,4.3,2.1,8.4,5.5,10.9l8.8,6.4l8.8-6.4c3.5-2.5,5.5-6.6,5.5-10.9
				L589.3,489.7L589.3,489.7z"/>
			<rect x="560.7" y="495" class="st2" width="0.7" height="1.4"/>
			<path class="st2" d="M580.1,487.6c0.5,0.4,1,0.7,1.4,1v-0.8c-0.5-0.3-1-0.6-1.4-1V487.6z"/>
			<path class="st2" d="M582.6,500.7l1.7-3.9h-1.4l-1.7,3.9h-4.1l-0.6-1.2l-0.7-1.4l-0.7-1.3l-2,3.9h-4.1l-1.7-3.9h-1.4l1.7,3.9
				h-2.8v1.4h3.4l1.7,3.8l0.7,1.5l0.2,0.4l1.1-2.1l1.9-3.6h0.8h1.9h1.5h2.6l-1.1,2.8l-1.5-2.7l-1.5,0l3.2,5.6l2.3-5.7h0.1h3.4v-1.4
				H582.6z M569.6,502.1h2.7l-1.1,2l-0.4,0.7l-0.1-0.1L569.6,502.1z M575.6,500.7h-1.1l0.6-1.1L575.6,500.7L575.6,500.7L575.6,500.7
				z"/>
		</g>
	</g>
	<g>
		<path class="st2" d="M956.4,507.2H906c-2.1,0-3.8-1.7-3.8-3.8v-27.7c0-2.1,1.7-3.8,3.8-3.8h50.4c2.1,0,3.8,1.7,3.8,3.8v27.7
			C960.2,505.5,958.5,507.2,956.4,507.2z M906,473.1c-1.4,0-2.5,1.1-2.5,2.5v27.7c0,1.4,1.1,2.5,2.5,2.5h50.4c1.4,0,2.5-1.1,2.5-2.5
			v-27.7c0-1.4-1.1-2.5-2.5-2.5H906z"/>
		<rect x="902.8" y="478.3" class="st2" width="56.7" height="7.1"/>
		<rect x="907.6" y="494.7" class="st2" width="7.5" height="7.1"/>
		
			<rect x="918.9" y="501.1" transform="matrix(0.9999 -1.171795e-02 1.171795e-02 0.9999 -5.8154 10.8805)" class="st2" width="13.5" height="1.3"/>
		
			<rect x="918.9" y="497.6" transform="matrix(0.9999 -1.171795e-02 1.171795e-02 0.9999 -5.7745 10.8802)" class="st2" width="13.5" height="1.3"/>
	</g>
	<rect x="76.7" y="574.1" class="st1" width="370.5" height="171.6"/>
	<g>
		<g>
			<path class="st2" d="M257,668.4h-7.5v9.1h-2.9v-9.1h-8v9.1h-2.9v-9.1h-7.5V666H257V668.4z M255.2,651.5h-25.5v-2.3h11.4v-3.7h2.9
				v3.7h11.2V651.5z M242.6,653.3c6.4,0,10.3,1.9,10.3,5.2c0,3.4-3.9,5.3-10.3,5.3c-6.5,0-10.3-1.9-10.3-5.3
				C232.2,655.2,236.1,653.3,242.6,653.3z M242.6,655.5c-4.6,0-7.3,1.1-7.3,3c0,1.9,2.7,3,7.3,3c4.6,0,7.3-1.1,7.3-3
				C249.8,656.7,247.2,655.5,242.6,655.5z"/>
			<path class="st2" d="M262.1,667.2c4.3,0,7.3-0.2,10.7-1l0.2,2.4c-3.8,0.8-7,1-11.8,1h-2.1v-20.1h11.8v2.4h-9V667.2z M285.1,645.7
				v31.8h-2.8v-16.6h-4.5v15.1h-2.7v-29.5h2.7v12h4.5v-12.8H285.1z"/>
			<path class="st2" d="M316.7,662.9v2.3H288v-2.3h13V659h-10.2v-2.3h4.7v-7.2h-4.8v-2.3H314v2.3h-4.8v7.2h4.7v2.3h-10v3.9H316.7z
				 M294.6,674.4h18.9v2.4h-21.9V668h2.9V674.4z M298.4,656.7h7.9v-7.2h-7.9V656.7z"/>
			<path class="st2" d="M333.4,652.6c-2,5-6.8,8.4-13.8,10.1l-1.1-2.4c7.8-1.8,12.2-5.6,12.7-10.6h-11v-2.4h14.2
				c0,1.1-0.1,2.1-0.3,3h7.2v-4.6h2.9v16.2h-2.9v-3.3h-8.3v-2.3h8.3v-3.8H333.4z M345.2,674.8v2.3h-21.5V669h17.5v-3.3h-17.6v-2.3
				h20.5v7.8h-17.5v3.7H345.2z"/>
			<path class="st2" d="M357.2,654.6c0,5.5,2.4,11,6.8,13.5l-1.8,2.1c-3.1-1.8-5.3-5.2-6.4-9.3c-1.1,4.4-3.4,8.1-6.6,10.1l-1.8-2.2
				c4.4-2.7,6.9-8.4,6.9-14.3v-2.9h-6v-2.4h14.5v2.4h-5.7V654.6z M365.7,646.4h2.8v29.4h-2.8v-16.3h-5.2v-2.4h5.2V646.4z
				 M374.9,645.7v31.8h-2.8v-31.8H374.9z"/>
		</g>
	</g>
	<g>
		<path class="st2" d="M189.9,694.9h-25.5c-1.9,0-3.5-1.6-3.5-3.5v-52.8c0-1.9,1.6-3.5,3.5-3.5h25.5c1.9,0,3.5,1.6,3.5,3.5v52.8
			C193.4,693.3,191.8,694.9,189.9,694.9z M164.4,636.3c-1.3,0-2.3,1-2.3,2.3v52.8c0,1.3,1,2.3,2.3,2.3h25.5c1.3,0,2.3-1,2.3-2.3
			v-52.8c0-1.3-1-2.3-2.3-2.3H164.4z"/>
		<rect x="162" y="642.4" class="st2" width="31.3" height="1.2"/>
		<rect x="162" y="685" class="st2" width="31.3" height="1.2"/>
		<path class="st2" d="M177.1,693.3c-1.8,0-3.4-1.5-3.4-3.4c0-1.8,1.5-3.4,3.4-3.4c1.8,0,3.4,1.5,3.4,3.4
			C180.5,691.8,179,693.3,177.1,693.3z M177.1,687.7c-1.2,0-2.2,1-2.2,2.2c0,1.2,1,2.2,2.2,2.2s2.2-1,2.2-2.2
			C179.3,688.7,178.3,687.7,177.1,687.7z"/>
	</g>
	<g>
		<path class="st2" d="M933.3,690.9h-16.2c-11,0-19.9-8.9-19.9-19.9v-16.2c0-11,8.9-19.9,19.9-19.9h16.2c11,0,19.9,8.9,19.9,19.9
			V671C953.2,682,944.3,690.9,933.3,690.9z M917.1,635.8c-10.5,0-19,8.5-19,19V671c0,10.5,8.5,19,19,19h16.2c10.5,0,19-8.5,19-19
			v-16.2c0-10.5-8.5-19-19-19H917.1z"/>
		<path class="st2" d="M916.1,674.6c-3.2,0-6.2-1.4-8.5-3.8c-2.4-2.6-3.5-6-3-9.3c0.4-3.3,2.2-6.2,4.8-8c2.7-1.9,5.9-2.5,9.1-1.9
			c1.7,0.4,3.3,1.1,4.7,2.3l0.3,0.2l-3.3,6.3L920,660c-0.7-0.7-1.9-1.1-3.2-1.2l-0.5,0c-1.9,0-3.6,1.2-4.1,3.1
			c-0.5,1.9,0.5,3.9,2.4,4.7c0.6,0.2,1.2,0.3,1.8,0.4c0.2,0,0.3,0,0.5,0c0.2,0,0.3-0.1,0.5-0.1l0.1,0c0.1,0,0.2,0,0.2-0.1
			c0.7-0.2,1.4-0.7,1.9-1.3c0.1-0.1,0.1-0.1,0.2-0.2c2.1-2.7,4.7-7.9,5-8.4l0-0.1c1.7-3,4.5-5,7.9-5.5c0.2,0,0.3,0,0.4-0.1
			c0.1,0,0.3,0,0.4,0c0.2,0,0.4,0,0.6,0l0.3,0c2.7,0,5.4,1,7.4,2.6c2.6,2.1,4.1,5.3,4.2,8.6l0,0.1l-0.5,0l0.5,0l-0.5,0l0.5,0l0,0.1
			c0,0.2,0,0.4,0,0.5l-0.5,0.1l0.5,0l0,0.3c0,0.2,0,0.4-0.1,0.6c0,0.2,0,0.3-0.1,0.4c0,0.2-0.1,0.4-0.1,0.6
			c-1.1,5.3-5.9,9.2-11.3,9.2c-2.6,0-5.2-0.9-7.2-2.5l0,0l-0.6-0.6l0,0l0,0l0,0c-0.4-0.4-0.8-0.9-1.1-1.2c-2,2.7-4.8,4.2-8.5,4.4
			C916.6,674.6,916.4,674.6,916.1,674.6z M916.2,652.2c-2.2,0-4.3,0.7-6.2,2c-2.5,1.7-4,4.4-4.5,7.4c-0.4,3.1,0.6,6.2,2.8,8.6
			c2.2,2.4,5.3,3.6,8.4,3.5c3.6-0.2,6.3-1.7,8.1-4.5l0.3-0.5l0.4,0.5c0,0,1.1,1.3,1.7,1.9l0.3,0.2c1.9,1.5,4.3,2.4,6.7,2.4
			c5,0,9.4-3.5,10.4-8.4c0-0.2,0.1-0.3,0.1-0.5c0-0.1,0-0.2,0-0.3c0-0.2,0-0.4,0.1-0.5l0-0.3l0.5-0.1l-0.5,0c0-0.2,0-0.3,0-0.5
			l0-0.1l0.5-0.1l-0.5,0l0,0l0,0l0-0.1c-0.1-3.1-1.5-6-3.9-7.9c-1.8-1.5-4.3-2.4-6.8-2.4l-0.2,0c-0.2,0-0.4,0-0.6,0
			c-0.1,0-0.3,0-0.4,0c-0.1,0-0.2,0-0.3,0c-3.2,0.5-5.7,2.2-7.3,5.1c-0.1,0.2-2.9,5.8-5,8.6c-0.1,0.1-0.1,0.2-0.2,0.3
			c-0.6,0.7-1.4,1.2-2.3,1.5c-0.1,0-0.1,0-0.2,0.1l-0.2,0.1c-0.2,0-0.4,0.1-0.6,0.1c-0.2,0-0.4,0-0.6,0c-0.7,0-1.5-0.2-2.2-0.4
			c-2.3-1-3.5-3.4-2.9-5.8c0.5-1.9,2-3.4,3.9-3.7l-0.1-0.1l1.2,0c1.6,0,2.9,0.4,3.8,1l2.4-4.6c-1.2-0.9-2.6-1.5-4.1-1.8
			C917.7,652.3,916.9,652.2,916.2,652.2z M934.3,668l-0.5,0c-2.6-0.2-4.6-2.4-4.6-5.1c0-1.3,0.5-2.5,1.4-3.5l0.1-0.1
			c1-1,2.3-1.5,3.6-1.5c2.8,0,5.1,2.3,5.1,5.1C939.4,665.7,937.1,668,934.3,668z M934.3,658.7c-1.1,0-2.2,0.5-3,1.3
			c-0.8,0.8-1.2,1.8-1.2,2.9c0,2.3,1.9,4.2,4.2,4.2h0.3c2.2-0.1,3.9-2,3.9-4.2C938.5,660.6,936.6,658.7,934.3,658.7z M930.6,659.5
			l0.3,0.3L930.6,659.5z M930.7,659.6l0.2,0.2L930.7,659.6z"/>
	</g>
	<g>
		<path d="M640.4,239.9c-2.5,6.2-8.5,10.4-17.2,12.5l-1.3-2.9c9.6-2.2,15.1-7,15.8-13.2H624v-2.9h17.6c0,1.3-0.1,2.6-0.4,3.8h8.9
			v-5.7h3.7v20.2h-3.7v-4.1h-10.3v-2.8h10.3v-4.7H640.4z M655.1,267.6v2.9h-26.7v-10.2h21.7v-4h-21.8v-2.9h25.4v9.7H632v4.6H655.1z"
			/>
		<path d="M670,242.5c0,6.9,2.9,13.7,8.4,16.8l-2.2,2.6c-3.8-2.3-6.6-6.5-7.9-11.5c-1.4,5.4-4.2,10-8.1,12.5l-2.2-2.7
			c5.5-3.3,8.6-10.5,8.6-17.7V239h-7.5V236h18v2.9h-7V242.5z M680.6,232.3h3.4v36.5h-3.4v-20.3h-6.5v-2.9h6.5V232.3z M692,231.4
			v39.5h-3.5v-39.5H692z"/>
		<path d="M731.5,248v2.9h-35.9V248h26.5c1.1-4.9,1.1-8.5,1.1-11.6h-23.1v-2.9h26.7v2.9c0,3.1,0,6.7-1.1,11.6H731.5z M700.1,256.3
			H727v14h-26.9V256.3z M703.6,267.5h19.8v-8.2h-19.8V267.5z"/>
		<path d="M742.2,252.5c-5.2,0-9-3.8-9-9.3c0-5.5,3.8-9.3,9-9.3c5.1,0,9,3.8,9,9.3C751.2,248.7,747.4,252.5,742.2,252.5z
			 M742.2,249.5c3.3,0,5.7-2.6,5.7-6.3s-2.4-6.3-5.7-6.3c-3.3,0-5.7,2.6-5.7,6.3S738.9,249.5,742.2,249.5z M739.6,257.2h26.5v13.8
			h-3.6v-10.9h-22.9V257.2z M766.1,231.4v23.5h-3.5v-10.4h-5v10.2h-3.4v-22.5h3.4v9.4h5v-10.2H766.1z"/>
		<path d="M777.4,247.4c0-1.8,1.3-3.1,2.9-3.1c1.6,0,2.9,1.3,2.9,3.1c0,1.8-1.3,3-2.9,3C778.8,250.5,777.4,249.2,777.4,247.4z
			 M777.4,265.2c0-1.8,1.3-3.1,2.9-3.1c1.6,0,2.9,1.3,2.9,3.1c0,1.8-1.3,3-2.9,3C778.8,268.2,777.4,267,777.4,265.2z"/>
	</g>
	<g>
		<path class="st5" d="M933.3,269.1h9.4v-31.6h-7.5v-3.3c3.8-0.7,6.5-1.7,8.8-3h4v37.9h8.5v4.4h-23.2V269.1z"/>
		<path class="st5" d="M958.8,252.2c0-14.7,5.1-21.8,13.2-21.8c8,0,13.2,7.2,13.2,21.8c0,14.7-5.1,22.1-13.2,22.1
			C963.9,274.2,958.8,266.9,958.8,252.2z M980,252.2c0-12.4-3.2-17.6-8-17.6c-4.9,0-8.1,5.2-8.1,17.6c0,12.5,3.2,17.8,8.1,17.8
			C976.8,270,980,264.6,980,252.2z"/>
		<path class="st5" d="M986.7,281.3c3.6-1.6,5.7-4.3,5.8-7.9c-0.2,0.1-0.4,0.1-0.6,0.1c-2,0-3.9-1.3-3.9-3.7c0-2.3,1.8-3.7,4-3.7
			c2.8,0,4.4,2.4,4.4,6.2c0,5.5-3.2,9.9-8.4,12.1L986.7,281.3z"/>
		<path class="st5" d="M998.2,252.2c0-14.7,5.1-21.8,13.2-21.8c8,0,13.2,7.2,13.2,21.8c0,14.7-5.1,22.1-13.2,22.1
			C1003.4,274.2,998.2,266.9,998.2,252.2z M1019.5,252.2c0-12.4-3.2-17.6-8-17.6c-4.9,0-8.1,5.2-8.1,17.6c0,12.5,3.2,17.8,8.1,17.8
			C1016.3,270,1019.5,264.6,1019.5,252.2z"/>
		<path class="st5" d="M1026,252.2c0-14.7,5.1-21.8,13.2-21.8c8,0,13.2,7.2,13.2,21.8c0,14.7-5.1,22.1-13.2,22.1
			C1031.1,274.2,1026,266.9,1026,252.2z M1047.2,252.2c0-12.4-3.2-17.6-8-17.6c-4.9,0-8.1,5.2-8.1,17.6c0,12.5,3.2,17.8,8.1,17.8
			C1044,270,1047.2,264.6,1047.2,252.2z"/>
		<path class="st5" d="M1053.7,252.2c0-14.7,5.1-21.8,13.2-21.8c8,0,13.2,7.2,13.2,21.8c0,14.7-5.1,22.1-13.2,22.1
			C1058.8,274.2,1053.7,266.9,1053.7,252.2z M1074.9,252.2c0-12.4-3.2-17.6-8-17.6c-4.9,0-8.1,5.2-8.1,17.6
			c0,12.5,3.2,17.8,8.1,17.8C1071.7,270,1074.9,264.6,1074.9,252.2z"/>
		<path class="st5" d="M1096.4,253.5c-5.1,0.2-10.1,0.3-14.4,0.3l-0.6-3.9c9.6,0,22.4-0.1,33.4-1.5l0.4,3.4c-4.6,0.7-9.4,1.2-14,1.5
			v10.2h-4.7V253.5z M1085.5,237c0-5.4,5.2-9,12.8-9c7.6,0,12.8,3.6,12.8,9c0,5.5-5.2,9.1-12.8,9.1
			C1090.7,246.1,1085.5,242.6,1085.5,237z M1125.4,272.7v3.9h-36.6v-15.1h4.7v11.2H1125.4z M1090,237c0,3.3,3.3,5.5,8.3,5.5
			c4.9,0,8.3-2.2,8.3-5.5c0-3.3-3.3-5.5-8.3-5.5C1093.3,231.5,1090,233.7,1090,237z M1119.3,256.5v-30.6h4.7v39.4h-4.7v-5.3h-10.5
			v-3.5H1119.3z"/>
	</g>
</g>
</svg>
