<?xml version="1.0" encoding="utf-8"?>
<!-- Generator: Adobe Illustrator 22.1.0, SVG Export Plug-In . SVG Version: 6.00 Build 0)  -->
<svg version="1.1" id="레이어_1" xmlns="http://www.w3.org/2000/svg" xmlns:xlink="http://www.w3.org/1999/xlink" x="0px"
	 y="0px" viewBox="0 0 199.6 26" style="enable-background:new 0 0 199.6 26;" xml:space="preserve">
<style type="text/css">
	.st0{fill:#FFFFFF;}
	.st1{fill:#ffdc00;}
</style>
<g>
	<polygon class="st0" points="41.3,17.7 29.4,17.7 29.4,10.4 24.3,10.4 24.3,26 29.4,26 29.4,22.7 41.3,22.7 41.3,26 46.4,26 
		46.4,10.4 41.3,10.4 	"/>
	<path class="st0" d="M89.9,16.2c0.3-0.1,0.6-0.2,0.9-0.3c2.2-1,3.7-3.3,3.7-5.7c0-1.7-0.6-3.2-1.8-4.5c-1.2-1.2-2.8-1.8-4.4-1.8
		H74.4V26h5.1v-9.6h3c1,0,2,0.5,2.6,1.4l4.2,8.1h5.7l-2.4-4.7L89.9,16.2z M79.5,8.9h8.7c0.5,0,0.7,0.2,0.9,0.3
		c0.1,0.1,0.4,0.4,0.4,0.9c0,0.5-0.3,0.9-0.7,1.1l0,0c-0.1,0.1-0.3,0.1-0.5,0.1l-8.7,0V8.9z"/>
	<path class="st0" d="M97.8,10.1v9.6c0,3.5,2.8,6.3,6.3,6.3h14v-5.1h-14c-0.7,0-1.2-0.6-1.2-1.2v-2.2h13.4v-5.1h-13.4v-2.3
		c0-0.7,0.6-1.2,1.2-1.2h14V3.8h-14C100.6,3.8,97.8,6.7,97.8,10.1z"/>
	<path class="st0" d="M141,13c0.4-0.9,0.7-1.8,0.7-2.8c0-3.5-2.8-6.3-6.3-6.3h-13.8V26h14.8c4,0,7.3-3.3,7.3-7.3
		C143.7,16.4,142.7,14.4,141,13z M135.4,11.3h-8.7V8.9h8.7c0.7,0,1.2,0.6,1.2,1.2S136.1,11.3,135.4,11.3z M126.7,16.4h9.8
		c1.2,0,2.2,1,2.2,2.2c0,1.2-1,2.2-2.2,2.2l-0.7,0h-9.1V16.4z"/>
	<rect x="146.1" y="3.8" class="st0" width="5.1" height="22.1"/>
	<polygon class="st0" points="153.7,8.9 162.2,8.9 162.2,26 167.3,26 167.3,8.9 175.8,8.9 175.8,3.9 153.7,3.9 	"/>
	<path class="st0" d="M184.8,12.3c-1.1,0-1.9-1.1-1.5-2.2c0.2-0.7,0.9-1.1,1.6-1.1l14.7,0c0-2.9-2.3-5.2-5.2-5.2h-9.6
		c-3.9,0-7,3.2-6.8,7.1c0,0.1,0,0.7,0,1.4c0,2.9,2.3,5.2,5.2,5.2h1.8h7.8c1.1,0,1.9,1.1,1.5,2.2c-0.2,0.7-0.9,1.1-1.6,1.1l-14.7,0
		c0,2.9,2.3,5.2,5.2,5.2h9.4c3.7,0,6.9-2.9,7-6.6c0-0.7,0-1.9,0-1.9v0c0-2.9-2.3-5.2-5.2-5.2h-1.6H184.8z"/>
	<path class="st0" d="M6.8,12.3c-1.1,0-1.9-1.1-1.5-2.2c0.2-0.7,0.9-1.1,1.6-1.1l14.7,0c0-2.9-2.3-5.2-5.2-5.2H6.8
		C3,3.9-0.1,7.1,0,11c0,0.1,0,0.7,0,1.4c0,2.9,2.3,5.2,5.2,5.2H7h7.8c1.1,0,1.9,1.1,1.5,2.2c-0.2,0.7-0.9,1.1-1.6,1.1L0,20.8
		C0,23.7,2.3,26,5.2,26h9.4c3.7,0,6.9-2.9,7-6.6c0-0.7,0-1.9,0-1.9v0c0-2.9-2.3-5.2-5.2-5.2h-1.6H6.8z"/>
	<polygon class="st1" points="43.2,7.8 35.3,0 27.5,7.8 31.8,7.8 33.6,6.1 33.6,13.8 37.1,13.8 37.1,6.1 38.9,7.8 	"/>
	<path class="st0" d="M66.1,26h5.7L60.1,3l-9.3,18.3L48.4,26h5.7l1.6-3.1h8.9L66.1,26z M57.9,18.5l2.2-4.4l2.2,4.4H57.9z"/>
</g>
</svg>
