<?xml version="1.0" encoding="utf-8"?>
<!-- Generator: Adobe Illustrator 22.1.0, SVG Export Plug-In . SVG Version: 6.00 Build 0)  -->
<svg version="1.1" id="레이어_1" xmlns="http://www.w3.org/2000/svg" xmlns:xlink="http://www.w3.org/1999/xlink" x="0px"
	 y="0px" viewBox="0 0 99.2 99.2" style="enable-background:new 0 0 99.2 99.2;" xml:space="preserve">
<style type="text/css">
	.st0{fill:#ffdc00;}
	.st1{fill:url(#SVGID_1_);}
	.st2{fill:#4CACAC;}
	.st3{fill:#FFFFFF;}
	.st4{fill:#464A58;}
	.st5{fill:url(#SVGID_2_);}
</style>
<g>
	<path class="st0" d="M67.4,0H31.8C14.2,0,0,14.2,0,31.8v35.6C0,85,14.2,99.2,31.8,99.2h35.6C85,99.2,99.2,85,99.2,67.4V31.8
		C99.2,14.2,85,0,67.4,0z"/>
	<linearGradient id="SVGID_1_" gradientUnits="userSpaceOnUse" x1="0" y1="46.4781" x2="92.9562" y2="46.4781">
		<stop  offset="0" style="stop-color:#ffdc00"/>
		<stop  offset="1" style="stop-color:#ffdc00"/>
	</linearGradient>
	<path class="st1" d="M6.7,38.5c0-17.6,14.2-31.8,31.8-31.8h35.6c7.1,0,13.6,2.3,18.9,6.3C87.2,5.1,77.9,0,67.4,0H31.8
		C14.2,0,0,14.2,0,31.8v35.6C0,77.9,5.1,87.2,12.9,93C9,87.7,6.7,81.2,6.7,74.1V38.5z"/>
	<g>
		<g>
			<polygon class="st2" points="71.9,66.2 40.1,66.2 40.1,47 26.6,47 26.6,88.2 40.1,88.2 40.1,79.6 71.9,79.6 71.9,88.2 85.4,88.2 
				85.4,47 71.9,47 			"/>
			<polygon class="st2" points="76.8,40.2 56,19.3 35.2,40.2 46.6,40.2 51.3,35.4 51.3,56 60.6,56 60.6,35.4 65.3,40.2 			"/>
		</g>
		<g>
			<polygon class="st2" points="71.8,66.1 40,66.1 40,47 26.6,47 26.6,88.2 40,88.2 40,79.5 71.8,79.5 71.8,88.2 85.3,88.2 85.3,47 
				71.8,47 			"/>
			<polygon class="st2" points="76.7,40.1 55.9,19.3 35.1,40.1 46.6,40.1 51.3,35.4 51.3,55.9 60.5,55.9 60.5,35.4 65.3,40.1 			"/>
		</g>
		<g>
			<polygon class="st2" points="71.8,66 39.9,66 39.9,46.9 26.5,46.9 26.5,88.1 39.9,88.1 39.9,79.5 71.8,79.5 71.8,88.1 85.2,88.1 
				85.2,46.9 71.8,46.9 			"/>
			<polygon class="st2" points="76.6,40 55.8,19.2 35,40 46.5,40 51.2,35.3 51.2,55.9 60.5,55.9 60.5,35.3 65.2,40 			"/>
		</g>
		<g>
			<polygon class="st2" points="71.7,66 39.9,66 39.9,46.8 26.4,46.8 26.4,88 39.9,88 39.9,79.4 71.7,79.4 71.7,88 85.1,88 
				85.1,46.8 71.7,46.8 			"/>
			<polygon class="st2" points="76.6,39.9 55.8,19.1 35,39.9 46.4,39.9 51.1,35.2 51.1,55.8 60.4,55.8 60.4,35.2 65.1,39.9 			"/>
		</g>
		<g>
			<polygon class="st2" points="71.6,65.9 39.8,65.9 39.8,46.8 26.4,46.8 26.4,88 39.8,88 39.8,79.3 71.6,79.3 71.6,88 85.1,88 
				85.1,46.8 71.6,46.8 			"/>
			<polygon class="st2" points="76.5,39.9 55.7,19.1 34.9,39.9 46.3,39.9 51.1,35.1 51.1,55.7 60.3,55.7 60.3,35.1 65.1,39.9 			"/>
		</g>
		<g>
			<polygon class="st2" points="71.6,65.8 39.7,65.8 39.7,46.7 26.3,46.7 26.3,87.9 39.7,87.9 39.7,79.3 71.6,79.3 71.6,87.9 
				85,87.9 85,46.7 71.6,46.7 			"/>
			<polygon class="st2" points="76.4,39.8 55.6,19 34.8,39.8 46.3,39.8 51,35.1 51,55.7 60.3,55.7 60.3,35.1 65,39.8 			"/>
		</g>
		<g>
			<polygon class="st2" points="71.5,65.7 39.7,65.7 39.7,46.6 26.2,46.6 26.2,87.8 39.7,87.8 39.7,79.2 71.5,79.2 71.5,87.8 
				84.9,87.8 84.9,46.6 71.5,46.6 			"/>
			<polygon class="st2" points="76.4,39.7 55.6,18.9 34.8,39.7 46.2,39.7 50.9,35 50.9,55.6 60.2,55.6 60.2,35 64.9,39.7 			"/>
		</g>
		<g>
			<polygon class="st2" points="71.4,65.7 39.6,65.7 39.6,46.6 26.2,46.6 26.2,87.7 39.6,87.7 39.6,79.1 71.4,79.1 71.4,87.7 
				84.9,87.7 84.9,46.6 71.4,46.6 			"/>
			<polygon class="st2" points="76.3,39.7 55.5,18.9 34.7,39.7 46.1,39.7 50.9,34.9 50.9,55.5 60.1,55.5 60.1,34.9 64.8,39.7 			"/>
		</g>
		<g>
			<polygon class="st2" points="71.4,65.6 39.5,65.6 39.5,46.5 26.1,46.5 26.1,87.7 39.5,87.7 39.5,79 71.4,79 71.4,87.7 84.8,87.7 
				84.8,46.5 71.4,46.5 			"/>
			<polygon class="st2" points="76.2,39.6 55.4,18.8 34.6,39.6 46.1,39.6 50.8,34.9 50.8,55.5 60.1,55.5 60.1,34.9 64.8,39.6 			"/>
		</g>
		<g>
			<polygon class="st2" points="71.3,65.5 39.5,65.5 39.5,46.4 26,46.4 26,87.6 39.5,87.6 39.5,79 71.3,79 71.3,87.6 84.7,87.6 
				84.7,46.4 71.3,46.4 			"/>
			<polygon class="st2" points="76.2,39.5 55.3,18.7 34.5,39.5 46,39.5 50.7,34.8 50.7,55.4 60,55.4 60,34.8 64.7,39.5 			"/>
		</g>
		<g>
			<polygon class="st2" points="71.2,65.5 39.4,65.5 39.4,46.3 25.9,46.3 25.9,87.5 39.4,87.5 39.4,78.9 71.2,78.9 71.2,87.5 
				84.7,87.5 84.7,46.3 71.2,46.3 			"/>
			<polygon class="st2" points="76.1,39.4 55.3,18.6 34.5,39.4 45.9,39.4 50.6,34.7 50.6,55.3 59.9,55.3 59.9,34.7 64.6,39.4 			"/>
		</g>
		<g>
			<polygon class="st2" points="71.1,65.4 39.3,65.4 39.3,46.3 25.9,46.3 25.9,87.5 39.3,87.5 39.3,78.8 71.1,78.8 71.1,87.5 
				84.6,87.5 84.6,46.3 71.1,46.3 			"/>
			<polygon class="st2" points="76,39.4 55.2,18.6 34.4,39.4 45.9,39.4 50.6,34.7 50.6,55.2 59.8,55.2 59.8,34.7 64.6,39.4 			"/>
		</g>
		<g>
			<polygon class="st2" points="71.1,65.3 39.2,65.3 39.2,46.2 25.8,46.2 25.8,87.4 39.2,87.4 39.2,78.8 71.1,78.8 71.1,87.4 
				84.5,87.4 84.5,46.2 71.1,46.2 			"/>
			<polygon class="st2" points="75.9,39.3 55.1,18.5 34.3,39.3 45.8,39.3 50.5,34.6 50.5,55.2 59.8,55.2 59.8,34.6 64.5,39.3 			"/>
		</g>
		<g>
			<polygon class="st2" points="71,65.3 39.2,65.3 39.2,46.1 25.7,46.1 25.7,87.3 39.2,87.3 39.2,78.7 71,78.7 71,87.3 84.4,87.3 
				84.4,46.1 71,46.1 			"/>
			<polygon class="st2" points="75.9,39.2 55.1,18.4 34.3,39.2 45.7,39.2 50.4,34.5 50.4,55.1 59.7,55.1 59.7,34.5 64.4,39.2 			"/>
		</g>
		<g>
			<polygon class="st2" points="70.9,65.2 39.1,65.2 39.1,46.1 25.7,46.1 25.7,87.3 39.1,87.3 39.1,78.6 70.9,78.6 70.9,87.3 
				84.4,87.3 84.4,46.1 70.9,46.1 			"/>
			<polygon class="st2" points="75.8,39.2 55,18.4 34.2,39.2 45.6,39.2 50.4,34.4 50.4,55 59.6,55 59.6,34.4 64.4,39.2 			"/>
		</g>
		<g>
			<polygon class="st2" points="70.9,65.1 39,65.1 39,46 25.6,46 25.6,87.2 39,87.2 39,78.6 70.9,78.6 70.9,87.2 84.3,87.2 84.3,46 
				70.9,46 			"/>
			<polygon class="st2" points="75.7,39.1 54.9,18.3 34.1,39.1 45.6,39.1 50.3,34.4 50.3,55 59.6,55 59.6,34.4 64.3,39.1 			"/>
		</g>
		<g>
			<polygon class="st2" points="70.8,65 39,65 39,45.9 25.5,45.9 25.5,87.1 39,87.1 39,78.5 70.8,78.5 70.8,87.1 84.2,87.1 
				84.2,45.9 70.8,45.9 			"/>
			<polygon class="st2" points="75.7,39 54.9,18.2 34.1,39 45.5,39 50.2,34.3 50.2,54.9 59.5,54.9 59.5,34.3 64.2,39 			"/>
		</g>
		<g>
			<polygon class="st2" points="70.7,65 38.9,65 38.9,45.8 25.4,45.8 25.4,87 38.9,87 38.9,78.4 70.7,78.4 70.7,87 84.2,87 
				84.2,45.8 70.7,45.8 			"/>
			<polygon class="st2" points="75.6,39 54.8,18.1 34,39 45.4,39 50.1,34.2 50.1,54.8 59.4,54.8 59.4,34.2 64.1,39 			"/>
		</g>
		<g>
			<polygon class="st2" points="70.7,64.9 38.8,64.9 38.8,45.8 25.4,45.8 25.4,87 38.8,87 38.8,78.3 70.7,78.3 70.7,87 84.1,87 
				84.1,45.8 70.7,45.8 			"/>
			<polygon class="st2" points="75.5,38.9 54.7,18.1 33.9,38.9 45.4,38.9 50.1,34.2 50.1,54.8 59.4,54.8 59.4,34.2 64.1,38.9 			"/>
		</g>
		<g>
			<polygon class="st2" points="70.6,64.8 38.7,64.8 38.7,45.7 25.3,45.7 25.3,86.9 38.7,86.9 38.7,78.3 70.6,78.3 70.6,86.9 
				84,86.9 84,45.7 70.6,45.7 			"/>
			<polygon class="st2" points="75.4,38.8 54.6,18 33.8,38.8 45.3,38.8 50,34.1 50,54.7 59.3,54.7 59.3,34.1 64,38.8 			"/>
		</g>
		<g>
			<polygon class="st2" points="70.5,64.8 38.7,64.8 38.7,45.6 25.2,45.6 25.2,86.8 38.7,86.8 38.7,78.2 70.5,78.2 70.5,86.8 
				83.9,86.8 83.9,45.6 70.5,45.6 			"/>
			<polygon class="st2" points="75.4,38.7 54.6,17.9 33.8,38.7 45.2,38.7 49.9,34 49.9,54.6 59.2,54.6 59.2,34 63.9,38.7 			"/>
		</g>
		<g>
			<polygon class="st2" points="70.4,64.7 38.6,64.7 38.6,45.6 25.2,45.6 25.2,86.8 38.6,86.8 38.6,78.1 70.4,78.1 70.4,86.8 
				83.9,86.8 83.9,45.6 70.4,45.6 			"/>
			<polygon class="st2" points="75.3,38.7 54.5,17.9 33.7,38.7 45.1,38.7 49.9,34 49.9,54.5 59.1,54.5 59.1,34 63.9,38.7 			"/>
		</g>
		<g>
			<polygon class="st2" points="70.4,64.6 38.5,64.6 38.5,45.5 25.1,45.5 25.1,86.7 38.5,86.7 38.5,78.1 70.4,78.1 70.4,86.7 
				83.8,86.7 83.8,45.5 70.4,45.5 			"/>
			<polygon class="st2" points="75.2,38.6 54.4,17.8 33.6,38.6 45.1,38.6 49.8,33.9 49.8,54.5 59.1,54.5 59.1,33.9 63.8,38.6 			"/>
		</g>
		<g>
			<polygon class="st2" points="70.3,64.5 38.5,64.5 38.5,45.4 25,45.4 25,86.6 38.5,86.6 38.5,78 70.3,78 70.3,86.6 83.7,86.6 
				83.7,45.4 70.3,45.4 			"/>
			<polygon class="st2" points="75.2,38.5 54.4,17.7 33.6,38.5 45,38.5 49.7,33.8 49.7,54.4 59,54.4 59,33.8 63.7,38.5 			"/>
		</g>
		<g>
			<polygon class="st2" points="70.2,64.5 38.4,64.5 38.4,45.4 25,45.4 25,86.5 38.4,86.5 38.4,77.9 70.2,77.9 70.2,86.5 83.7,86.5 
				83.7,45.4 70.2,45.4 			"/>
			<polygon class="st2" points="75.1,38.5 54.3,17.7 33.5,38.5 44.9,38.5 49.7,33.7 49.7,54.3 58.9,54.3 58.9,33.7 63.6,38.5 			"/>
		</g>
		<g>
			<polygon class="st2" points="70.2,64.4 38.3,64.4 38.3,45.3 24.9,45.3 24.9,86.5 38.3,86.5 38.3,77.8 70.2,77.8 70.2,86.5 
				83.6,86.5 83.6,45.3 70.2,45.3 			"/>
			<polygon class="st2" points="75,38.4 54.2,17.6 33.4,38.4 44.9,38.4 49.6,33.7 49.6,54.3 58.9,54.3 58.9,33.7 63.6,38.4 			"/>
		</g>
		<g>
			<polygon class="st2" points="70.1,64.3 38.3,64.3 38.3,45.2 24.8,45.2 24.8,86.4 38.3,86.4 38.3,77.8 70.1,77.8 70.1,86.4 
				83.5,86.4 83.5,45.2 70.1,45.2 			"/>
			<polygon class="st2" points="75,38.3 54.2,17.5 33.3,38.3 44.8,38.3 49.5,33.6 49.5,54.2 58.8,54.2 58.8,33.6 63.5,38.3 			"/>
		</g>
		<g>
			<polygon class="st2" points="70,64.3 38.2,64.3 38.2,45.1 24.7,45.1 24.7,86.3 38.2,86.3 38.2,77.7 70,77.7 70,86.3 83.5,86.3 
				83.5,45.1 70,45.1 			"/>
			<polygon class="st2" points="74.9,38.2 54.1,17.4 33.3,38.2 44.7,38.2 49.4,33.5 49.4,54.1 58.7,54.1 58.7,33.5 63.4,38.2 			"/>
		</g>
		<g>
			<polygon class="st2" points="69.9,64.2 38.1,64.2 38.1,45.1 24.7,45.1 24.7,86.3 38.1,86.3 38.1,77.6 69.9,77.6 69.9,86.3 
				83.4,86.3 83.4,45.1 69.9,45.1 			"/>
			<polygon class="st2" points="74.8,38.2 54,17.4 33.2,38.2 44.7,38.2 49.4,33.5 49.4,54 58.6,54 58.6,33.5 63.4,38.2 			"/>
		</g>
		<g>
			<polygon class="st2" points="69.9,64.1 38,64.1 38,45 24.6,45 24.6,86.2 38,86.2 38,77.6 69.9,77.6 69.9,86.2 83.3,86.2 83.3,45 
				69.9,45 			"/>
			<polygon class="st2" points="74.7,38.1 53.9,17.3 33.1,38.1 44.6,38.1 49.3,33.4 49.3,54 58.6,54 58.6,33.4 63.3,38.1 			"/>
		</g>
		<g>
			<polygon class="st2" points="69.8,64.1 38,64.1 38,44.9 24.5,44.9 24.5,86.1 38,86.1 38,77.5 69.8,77.5 69.8,86.1 83.2,86.1 
				83.2,44.9 69.8,44.9 			"/>
			<polygon class="st2" points="74.7,38 53.9,17.2 33.1,38 44.5,38 49.2,33.3 49.2,53.9 58.5,53.9 58.5,33.3 63.2,38 			"/>
		</g>
		<g>
			<polygon class="st2" points="69.7,64 37.9,64 37.9,44.9 24.5,44.9 24.5,86.1 37.9,86.1 37.9,77.4 69.7,77.4 69.7,86.1 83.2,86.1 
				83.2,44.9 69.7,44.9 			"/>
			<polygon class="st2" points="74.6,38 53.8,17.2 33,38 44.4,38 49.2,33.2 49.2,53.8 58.4,53.8 58.4,33.2 63.2,38 			"/>
		</g>
		<g>
			<polygon class="st2" points="69.7,63.9 37.8,63.9 37.8,44.8 24.4,44.8 24.4,86 37.8,86 37.8,77.4 69.7,77.4 69.7,86 83.1,86 
				83.1,44.8 69.7,44.8 			"/>
			<polygon class="st2" points="74.5,37.9 53.7,17.1 32.9,37.9 44.4,37.9 49.1,33.2 49.1,53.8 58.4,53.8 58.4,33.2 63.1,37.9 			"/>
		</g>
		<g>
			<polygon class="st2" points="69.6,63.8 37.8,63.8 37.8,44.7 24.3,44.7 24.3,85.9 37.8,85.9 37.8,77.3 69.6,77.3 69.6,85.9 
				83,85.9 83,44.7 69.6,44.7 			"/>
			<polygon class="st2" points="74.5,37.8 53.7,17 32.9,37.8 44.3,37.8 49,33.1 49,53.7 58.3,53.7 58.3,33.1 63,37.8 			"/>
		</g>
		<g>
			<polygon class="st2" points="69.5,63.8 37.7,63.8 37.7,44.7 24.3,44.7 24.3,85.8 37.7,85.8 37.7,77.2 69.5,77.2 69.5,85.8 
				83,85.8 83,44.7 69.5,44.7 			"/>
			<polygon class="st2" points="74.4,37.8 53.6,16.9 32.8,37.8 44.2,37.8 49,33 49,53.6 58.2,53.6 58.2,33 62.9,37.8 			"/>
		</g>
		<g>
			<polygon class="st2" points="69.5,63.7 37.6,63.7 37.6,44.6 24.2,44.6 24.2,85.8 37.6,85.8 37.6,77.1 69.5,77.1 69.5,85.8 
				82.9,85.8 82.9,44.6 69.5,44.6 			"/>
			<polygon class="st2" points="74.3,37.7 53.5,16.9 32.7,37.7 44.2,37.7 48.9,33 48.9,53.6 58.2,53.6 58.2,33 62.9,37.7 			"/>
		</g>
		<g>
			<polygon class="st2" points="69.4,63.6 37.6,63.6 37.6,44.5 24.1,44.5 24.1,85.7 37.6,85.7 37.6,77.1 69.4,77.1 69.4,85.7 
				82.8,85.7 82.8,44.5 69.4,44.5 			"/>
			<polygon class="st2" points="74.3,37.6 53.4,16.8 32.6,37.6 44.1,37.6 48.8,32.9 48.8,53.5 58.1,53.5 58.1,32.9 62.8,37.6 			"/>
		</g>
		<g>
			<polygon class="st2" points="69.3,63.6 37.5,63.6 37.5,44.4 24,44.4 24,85.6 37.5,85.6 37.5,77 69.3,77 69.3,85.6 82.8,85.6 
				82.8,44.4 69.3,44.4 			"/>
			<polygon class="st2" points="74.2,37.5 53.4,16.7 32.6,37.5 44,37.5 48.7,32.8 48.7,53.4 58,53.4 58,32.8 62.7,37.5 			"/>
		</g>
		<g>
			<polygon class="st2" points="69.2,63.5 37.4,63.5 37.4,44.4 24,44.4 24,85.6 37.4,85.6 37.4,76.9 69.2,76.9 69.2,85.6 82.7,85.6 
				82.7,44.4 69.2,44.4 			"/>
			<polygon class="st2" points="74.1,37.5 53.3,16.7 32.5,37.5 44,37.5 48.7,32.8 48.7,53.3 57.9,53.3 57.9,32.8 62.7,37.5 			"/>
		</g>
		<g>
			<polygon class="st2" points="69.2,63.4 37.3,63.4 37.3,44.3 23.9,44.3 23.9,85.5 37.3,85.5 37.3,76.9 69.2,76.9 69.2,85.5 
				82.6,85.5 82.6,44.3 69.2,44.3 			"/>
			<polygon class="st2" points="74,37.4 53.2,16.6 32.4,37.4 43.9,37.4 48.6,32.7 48.6,53.3 57.9,53.3 57.9,32.7 62.6,37.4 			"/>
		</g>
		<g>
			<polygon class="st2" points="69.1,63.3 37.3,63.3 37.3,44.2 23.8,44.2 23.8,85.4 37.3,85.4 37.3,76.8 69.1,76.8 69.1,85.4 
				82.5,85.4 82.5,44.2 69.1,44.2 			"/>
			<polygon class="st2" points="74,37.3 53.2,16.5 32.4,37.3 43.8,37.3 48.5,32.6 48.5,53.2 57.8,53.2 57.8,32.6 62.5,37.3 			"/>
		</g>
		<g>
			<polygon class="st2" points="69,63.3 37.2,63.3 37.2,44.2 23.8,44.2 23.8,85.4 37.2,85.4 37.2,76.7 69,76.7 69,85.4 82.5,85.4 
				82.5,44.2 69,44.2 			"/>
			<polygon class="st2" points="73.9,37.3 53.1,16.5 32.3,37.3 43.7,37.3 48.5,32.5 48.5,53.1 57.7,53.1 57.7,32.5 62.5,37.3 			"/>
		</g>
		<g>
			<polygon class="st2" points="69,63.2 37.1,63.2 37.1,44.1 23.7,44.1 23.7,85.3 37.1,85.3 37.1,76.6 69,76.6 69,85.3 82.4,85.3 
				82.4,44.1 69,44.1 			"/>
			<polygon class="st2" points="73.8,37.2 53,16.4 32.2,37.2 43.7,37.2 48.4,32.5 48.4,53.1 57.7,53.1 57.7,32.5 62.4,37.2 			"/>
		</g>
		<g>
			<polygon class="st2" points="68.9,63.1 37.1,63.1 37.1,44 23.6,44 23.6,85.2 37.1,85.2 37.1,76.6 68.9,76.6 68.9,85.2 82.3,85.2 
				82.3,44 68.9,44 			"/>
			<polygon class="st2" points="73.8,37.1 53,16.3 32.2,37.1 43.6,37.1 48.3,32.4 48.3,53 57.6,53 57.6,32.4 62.3,37.1 			"/>
		</g>
		<g>
			<polygon class="st2" points="68.8,63.1 37,63.1 37,43.9 23.6,43.9 23.6,85.1 37,85.1 37,76.5 68.8,76.5 68.8,85.1 82.3,85.1 
				82.3,43.9 68.8,43.9 			"/>
			<polygon class="st2" points="73.7,37 52.9,16.2 32.1,37 43.5,37 48.3,32.3 48.3,52.9 57.5,52.9 57.5,32.3 62.2,37 			"/>
		</g>
		<g>
			<polygon class="st2" points="68.8,63 36.9,63 36.9,43.9 23.5,43.9 23.5,85.1 36.9,85.1 36.9,76.4 68.8,76.4 68.8,85.1 82.2,85.1 
				82.2,43.9 68.8,43.9 			"/>
			<polygon class="st2" points="73.6,37 52.8,16.2 32,37 43.5,37 48.2,32.3 48.2,52.8 57.5,52.8 57.5,32.3 62.2,37 			"/>
		</g>
		<g>
			<polygon class="st2" points="68.7,62.9 36.9,62.9 36.9,43.8 23.4,43.8 23.4,85 36.9,85 36.9,76.4 68.7,76.4 68.7,85 82.1,85 
				82.1,43.8 68.7,43.8 			"/>
			<polygon class="st2" points="73.6,36.9 52.7,16.1 31.9,36.9 43.4,36.9 48.1,32.2 48.1,52.8 57.4,52.8 57.4,32.2 62.1,36.9 			"/>
		</g>
		<g>
			<polygon class="st2" points="68.6,62.9 36.8,62.9 36.8,43.7 23.3,43.7 23.3,84.9 36.8,84.9 36.8,76.3 68.6,76.3 68.6,84.9 
				82.1,84.9 82.1,43.7 68.6,43.7 			"/>
			<polygon class="st2" points="73.5,36.8 52.7,16 31.9,36.8 43.3,36.8 48,32.1 48,52.7 57.3,52.7 57.3,32.1 62,36.8 			"/>
		</g>
		<g>
			<polygon class="st2" points="68.5,62.8 36.7,62.8 36.7,43.7 23.3,43.7 23.3,84.9 36.7,84.9 36.7,76.2 68.5,76.2 68.5,84.9 
				82,84.9 82,43.7 68.5,43.7 			"/>
			<polygon class="st2" points="73.4,36.8 52.6,16 31.8,36.8 43.3,36.8 48,32 48,52.6 57.2,52.6 57.2,32 62,36.8 			"/>
		</g>
		<g>
			<polygon class="st2" points="68.5,62.7 36.6,62.7 36.6,43.6 23.2,43.6 23.2,84.8 36.6,84.8 36.6,76.2 68.5,76.2 68.5,84.8 
				81.9,84.8 81.9,43.6 68.5,43.6 			"/>
			<polygon class="st2" points="73.3,36.7 52.5,15.9 31.7,36.7 43.2,36.7 47.9,32 47.9,52.6 57.2,52.6 57.2,32 61.9,36.7 			"/>
		</g>
		<g>
			<polygon class="st2" points="68.4,62.6 36.6,62.6 36.6,43.5 23.1,43.5 23.1,84.7 36.6,84.7 36.6,76.1 68.4,76.1 68.4,84.7 
				81.8,84.7 81.8,43.5 68.4,43.5 			"/>
			<polygon class="st2" points="73.3,36.6 52.5,15.8 31.7,36.6 43.1,36.6 47.8,31.9 47.8,52.5 57.1,52.5 57.1,31.9 61.8,36.6 			"/>
		</g>
		<g>
			<polygon class="st2" points="68.3,62.6 36.5,62.6 36.5,43.5 23.1,43.5 23.1,84.6 36.5,84.6 36.5,76 68.3,76 68.3,84.6 81.8,84.6 
				81.8,43.5 68.3,43.5 			"/>
			<polygon class="st2" points="73.2,36.6 52.4,15.8 31.6,36.6 43,36.6 47.8,31.8 47.8,52.4 57,52.4 57,31.8 61.8,36.6 			"/>
		</g>
		<g>
			<polygon class="st2" points="68.3,62.5 36.4,62.5 36.4,43.4 23,43.4 23,84.6 36.4,84.6 36.4,75.9 68.3,75.9 68.3,84.6 81.7,84.6 
				81.7,43.4 68.3,43.4 			"/>
			<polygon class="st2" points="73.1,36.5 52.3,15.7 31.5,36.5 43,36.5 47.7,31.8 47.7,52.4 57,52.4 57,31.8 61.7,36.5 			"/>
		</g>
		<g>
			<polygon class="st2" points="68.2,62.4 36.4,62.4 36.4,43.3 22.9,43.3 22.9,84.5 36.4,84.5 36.4,75.9 68.2,75.9 68.2,84.5 
				81.6,84.5 81.6,43.3 68.2,43.3 			"/>
			<polygon class="st2" points="73.1,36.4 52.3,15.6 31.5,36.4 42.9,36.4 47.6,31.7 47.6,52.3 56.9,52.3 56.9,31.7 61.6,36.4 			"/>
		</g>
		<g>
			<polygon class="st2" points="68.1,62.4 36.3,62.4 36.3,43.2 22.8,43.2 22.8,84.4 36.3,84.4 36.3,75.8 68.1,75.8 68.1,84.4 
				81.6,84.4 81.6,43.2 68.1,43.2 			"/>
			<polygon class="st2" points="73,36.3 52.2,15.5 31.4,36.3 42.8,36.3 47.5,31.6 47.5,52.2 56.8,52.2 56.8,31.6 61.5,36.3 			"/>
		</g>
		<g>
			<polygon class="st2" points="68.1,62.3 36.2,62.3 36.2,43.2 22.8,43.2 22.8,84.4 36.2,84.4 36.2,75.7 68.1,75.7 68.1,84.4 
				81.5,84.4 81.5,43.2 68.1,43.2 			"/>
			<polygon class="st2" points="72.9,36.3 52.1,15.5 31.3,36.3 42.8,36.3 47.5,31.6 47.5,52.1 56.8,52.1 56.8,31.6 61.5,36.3 			"/>
		</g>
		<g>
			<polygon class="st2" points="68,62.2 36.1,62.2 36.1,43.1 22.7,43.1 22.7,84.3 36.1,84.3 36.1,75.7 68,75.7 68,84.3 81.4,84.3 
				81.4,43.1 68,43.1 			"/>
			<polygon class="st2" points="72.8,36.2 52,15.4 31.2,36.2 42.7,36.2 47.4,31.5 47.4,52.1 56.7,52.1 56.7,31.5 61.4,36.2 			"/>
		</g>
		<g>
			<polygon class="st2" points="67.9,62.2 36.1,62.2 36.1,43 22.6,43 22.6,84.2 36.1,84.2 36.1,75.6 67.9,75.6 67.9,84.2 81.4,84.2 
				81.4,43 67.9,43 			"/>
			<polygon class="st2" points="72.8,36.1 52,15.3 31.2,36.1 42.6,36.1 47.3,31.4 47.3,52 56.6,52 56.6,31.4 61.3,36.1 			"/>
		</g>
		<g>
			<polygon class="st2" points="67.8,62.1 36,62.1 36,43 22.6,43 22.6,84.2 36,84.2 36,75.5 67.8,75.5 67.8,84.2 81.3,84.2 81.3,43 
				67.8,43 			"/>
			<polygon class="st2" points="72.7,36.1 51.9,15.3 31.1,36.1 42.5,36.1 47.3,31.3 47.3,51.9 56.5,51.9 56.5,31.3 61.3,36.1 			"/>
		</g>
		<g>
			<polygon class="st2" points="67.8,62 35.9,62 35.9,42.9 22.5,42.9 22.5,84.1 35.9,84.1 35.9,75.5 67.8,75.5 67.8,84.1 81.2,84.1 
				81.2,42.9 67.8,42.9 			"/>
			<polygon class="st2" points="72.6,36 51.8,15.2 31,36 42.5,36 47.2,31.3 47.2,51.9 56.5,51.9 56.5,31.3 61.2,36 			"/>
		</g>
		<g>
			<polygon class="st2" points="67.7,61.9 35.9,61.9 35.9,42.8 22.4,42.8 22.4,84 35.9,84 35.9,75.4 67.7,75.4 67.7,84 81.1,84 
				81.1,42.8 67.7,42.8 			"/>
			<polygon class="st2" points="72.6,35.9 51.8,15.1 31,35.9 42.4,35.9 47.1,31.2 47.1,51.8 56.4,51.8 56.4,31.2 61.1,35.9 			"/>
		</g>
		<g>
			<polygon class="st2" points="67.6,61.9 35.8,61.9 35.8,42.7 22.4,42.7 22.4,83.9 35.8,83.9 35.8,75.3 67.6,75.3 67.6,83.9 
				81.1,83.9 81.1,42.7 67.6,42.7 			"/>
			<polygon class="st2" points="72.5,35.9 51.7,15 30.9,35.9 42.3,35.9 47.1,31.1 47.1,51.7 56.3,51.7 56.3,31.1 61,35.9 			"/>
		</g>
		<g>
			<polygon class="st2" points="67.6,61.8 35.7,61.8 35.7,42.7 22.3,42.7 22.3,83.9 35.7,83.9 35.7,75.2 67.6,75.2 67.6,83.9 
				81,83.9 81,42.7 67.6,42.7 			"/>
			<polygon class="st2" points="72.4,35.8 51.6,15 30.8,35.8 42.3,35.8 47,31.1 47,51.6 56.3,51.6 56.3,31.1 61,35.8 			"/>
		</g>
		<g>
			<polygon class="st2" points="67.5,61.7 35.7,61.7 35.7,42.6 22.2,42.6 22.2,83.8 35.7,83.8 35.7,75.2 67.5,75.2 67.5,83.8 
				80.9,83.8 80.9,42.6 67.5,42.6 			"/>
			<polygon class="st2" points="72.4,35.7 51.6,14.9 30.7,35.7 42.2,35.7 46.9,31 46.9,51.6 56.2,51.6 56.2,31 60.9,35.7 			"/>
		</g>
		<g>
			<polygon class="st2" points="67.4,61.7 35.6,61.7 35.6,42.5 22.1,42.5 22.1,83.7 35.6,83.7 35.6,75.1 67.4,75.1 67.4,83.7 
				80.9,83.7 80.9,42.5 67.4,42.5 			"/>
			<polygon class="st2" points="72.3,35.6 51.5,14.8 30.7,35.6 42.1,35.6 46.8,30.9 46.8,51.5 56.1,51.5 56.1,30.9 60.8,35.6 			"/>
		</g>
		<g>
			<polygon class="st2" points="67.3,61.6 35.5,61.6 35.5,42.5 22.1,42.5 22.1,83.7 35.5,83.7 35.5,75 67.3,75 67.3,83.7 80.8,83.7 
				80.8,42.5 67.3,42.5 			"/>
			<polygon class="st2" points="72.2,35.6 51.4,14.8 30.6,35.6 42.1,35.6 46.8,30.9 46.8,51.4 56,51.4 56,30.9 60.8,35.6 			"/>
		</g>
		<g>
			<polygon class="st2" points="67.3,61.5 35.4,61.5 35.4,42.4 22,42.4 22,83.6 35.4,83.6 35.4,75 67.3,75 67.3,83.6 80.7,83.6 
				80.7,42.4 67.3,42.4 			"/>
			<polygon class="st2" points="72.1,35.5 51.3,14.7 30.5,35.5 42,35.5 46.7,30.8 46.7,51.4 56,51.4 56,30.8 60.7,35.5 			"/>
		</g>
		<g>
			<polygon class="st2" points="67.2,61.4 35.4,61.4 35.4,42.3 21.9,42.3 21.9,83.5 35.4,83.5 35.4,74.9 67.2,74.9 67.2,83.5 
				80.6,83.5 80.6,42.3 67.2,42.3 			"/>
			<polygon class="st2" points="72.1,35.4 51.3,14.6 30.5,35.4 41.9,35.4 46.6,30.7 46.6,51.3 55.9,51.3 55.9,30.7 60.6,35.4 			"/>
		</g>
		<g>
			<polygon class="st2" points="67.1,61.4 35.3,61.4 35.3,42.3 21.9,42.3 21.9,83.4 35.3,83.4 35.3,74.8 67.1,74.8 67.1,83.4 
				80.6,83.4 80.6,42.3 67.1,42.3 			"/>
			<polygon class="st2" points="72,35.4 51.2,14.6 30.4,35.4 41.8,35.4 46.6,30.6 46.6,51.2 55.8,51.2 55.8,30.6 60.6,35.4 			"/>
		</g>
		<g>
			<polygon class="st2" points="67.1,61.3 35.2,61.3 35.2,42.2 21.8,42.2 21.8,83.4 35.2,83.4 35.2,74.7 67.1,74.7 67.1,83.4 
				80.5,83.4 80.5,42.2 67.1,42.2 			"/>
			<polygon class="st2" points="71.9,35.3 51.1,14.5 30.3,35.3 41.8,35.3 46.5,30.6 46.5,51.2 55.8,51.2 55.8,30.6 60.5,35.3 			"/>
		</g>
		<g>
			<polygon class="st2" points="67,61.2 35.2,61.2 35.2,42.1 21.7,42.1 21.7,83.3 35.2,83.3 35.2,74.7 67,74.7 67,83.3 80.4,83.3 
				80.4,42.1 67,42.1 			"/>
			<polygon class="st2" points="71.9,35.2 51.1,14.4 30.3,35.2 41.7,35.2 46.4,30.5 46.4,51.1 55.7,51.1 55.7,30.5 60.4,35.2 			"/>
		</g>
		<g>
			<polygon class="st2" points="66.9,61.2 35.1,61.2 35.1,42 21.7,42 21.7,83.2 35.1,83.2 35.1,74.6 66.9,74.6 66.9,83.2 80.4,83.2 
				80.4,42 66.9,42 			"/>
			<polygon class="st2" points="71.8,35.1 51,14.3 30.2,35.1 41.6,35.1 46.4,30.4 46.4,51 55.6,51 55.6,30.4 60.3,35.1 			"/>
		</g>
		<g>
			<polygon class="st2" points="66.9,61.1 35,61.1 35,42 21.6,42 21.6,83.2 35,83.2 35,74.5 66.9,74.5 66.9,83.2 80.3,83.2 80.3,42 
				66.9,42 			"/>
			<polygon class="st2" points="71.7,35.1 50.9,14.3 30.1,35.1 41.6,35.1 46.3,30.4 46.3,50.9 55.6,50.9 55.6,30.4 60.3,35.1 			"/>
		</g>
		<g>
			<polygon class="st2" points="66.8,61 35,61 35,41.9 21.5,41.9 21.5,83.1 35,83.1 35,74.5 66.8,74.5 66.8,83.1 80.2,83.1 
				80.2,41.9 66.8,41.9 			"/>
			<polygon class="st2" points="71.7,35 50.9,14.2 30,35 41.5,35 46.2,30.3 46.2,50.9 55.5,50.9 55.5,30.3 60.2,35 			"/>
		</g>
		<g>
			<polygon class="st2" points="66.7,61 34.9,61 34.9,41.8 21.4,41.8 21.4,83 34.9,83 34.9,74.4 66.7,74.4 66.7,83 80.2,83 
				80.2,41.8 66.7,41.8 			"/>
			<polygon class="st2" points="71.6,34.9 50.8,14.1 30,34.9 41.4,34.9 46.1,30.2 46.1,50.8 55.4,50.8 55.4,30.2 60.1,34.9 			"/>
		</g>
		<g>
			<polygon class="st2" points="66.6,60.9 34.8,60.9 34.8,41.8 21.4,41.8 21.4,83 34.8,83 34.8,74.3 66.6,74.3 66.6,83 80.1,83 
				80.1,41.8 66.6,41.8 			"/>
			<polygon class="st2" points="71.5,34.9 50.7,14.1 29.9,34.9 41.4,34.9 46.1,30.1 46.1,50.7 55.3,50.7 55.3,30.1 60.1,34.9 			"/>
		</g>
		<g>
			<polygon class="st2" points="66.6,60.8 34.7,60.8 34.7,41.7 21.3,41.7 21.3,82.9 34.7,82.9 34.7,74.3 66.6,74.3 66.6,82.9 
				80,82.9 80,41.7 66.6,41.7 			"/>
			<polygon class="st2" points="71.4,34.8 50.6,14 29.8,34.8 41.3,34.8 46,30.1 46,50.7 55.3,50.7 55.3,30.1 60,34.8 			"/>
		</g>
		<g>
			<polygon class="st2" points="66.5,60.7 34.7,60.7 34.7,41.6 21.2,41.6 21.2,82.8 34.7,82.8 34.7,74.2 66.5,74.2 66.5,82.8 
				79.9,82.8 79.9,41.6 66.5,41.6 			"/>
			<polygon class="st2" points="71.4,34.7 50.6,13.9 29.8,34.7 41.2,34.7 45.9,30 45.9,50.6 55.2,50.6 55.2,30 59.9,34.7 			"/>
		</g>
		<g>
			<polygon class="st2" points="66.4,60.7 34.6,60.7 34.6,41.6 21.2,41.6 21.2,82.7 34.6,82.7 34.6,74.1 66.4,74.1 66.4,82.7 
				79.9,82.7 79.9,41.6 66.4,41.6 			"/>
			<polygon class="st2" points="71.3,34.7 50.5,13.8 29.7,34.7 41.1,34.7 45.9,29.9 45.9,50.5 55.1,50.5 55.1,29.9 59.9,34.7 			"/>
		</g>
		<g>
			<polygon class="st2" points="66.4,60.6 34.5,60.6 34.5,41.5 21.1,41.5 21.1,82.7 34.5,82.7 34.5,74 66.4,74 66.4,82.7 79.8,82.7 
				79.8,41.5 66.4,41.5 			"/>
			<polygon class="st2" points="71.2,34.6 50.4,13.8 29.6,34.6 41.1,34.6 45.8,29.9 45.8,50.5 55.1,50.5 55.1,29.9 59.8,34.6 			"/>
		</g>
		<g>
			<polygon class="st2" points="66.3,60.5 34.5,60.5 34.5,41.4 21,41.4 21,82.6 34.5,82.6 34.5,74 66.3,74 66.3,82.6 79.7,82.6 
				79.7,41.4 66.3,41.4 			"/>
			<polygon class="st2" points="71.2,34.5 50.4,13.7 29.6,34.5 41,34.5 45.7,29.8 45.7,50.4 55,50.4 55,29.8 59.7,34.5 			"/>
		</g>
		<g>
			<polygon class="st2" points="66.2,60.5 34.4,60.5 34.4,41.3 21,41.3 21,82.5 34.4,82.5 34.4,73.9 66.2,73.9 66.2,82.5 79.7,82.5 
				79.7,41.3 66.2,41.3 			"/>
			<polygon class="st2" points="71.1,34.4 50.3,13.6 29.5,34.4 40.9,34.4 45.7,29.7 45.7,50.3 54.9,50.3 54.9,29.7 59.6,34.4 			"/>
		</g>
		<g>
			<polygon class="st2" points="66.2,60.4 34.3,60.4 34.3,41.3 20.9,41.3 20.9,82.5 34.3,82.5 34.3,73.8 66.2,73.8 66.2,82.5 
				79.6,82.5 79.6,41.3 66.2,41.3 			"/>
			<polygon class="st2" points="71,34.4 50.2,13.6 29.4,34.4 40.9,34.4 45.6,29.7 45.6,50.2 54.9,50.2 54.9,29.7 59.6,34.4 			"/>
		</g>
		<g>
			<polygon class="st2" points="66.1,60.3 34.3,60.3 34.3,41.2 20.8,41.2 20.8,82.4 34.3,82.4 34.3,73.8 66.1,73.8 66.1,82.4 
				79.5,82.4 79.5,41.2 66.1,41.2 			"/>
			<polygon class="st2" points="71,34.3 50.1,13.5 29.3,34.3 40.8,34.3 45.5,29.6 45.5,50.2 54.8,50.2 54.8,29.6 59.5,34.3 			"/>
		</g>
		<g>
			<polygon class="st2" points="66,60.2 34.2,60.2 34.2,41.1 20.7,41.1 20.7,82.3 34.2,82.3 34.2,73.7 66,73.7 66,82.3 79.5,82.3 
				79.5,41.1 66,41.1 			"/>
			<polygon class="st2" points="70.9,34.2 50.1,13.4 29.3,34.2 40.7,34.2 45.4,29.5 45.4,50.1 54.7,50.1 54.7,29.5 59.4,34.2 			"/>
		</g>
		<g>
			<polygon class="st2" points="65.9,60.2 34.1,60.2 34.1,41.1 20.7,41.1 20.7,82.3 34.1,82.3 34.1,73.6 65.9,73.6 65.9,82.3 
				79.4,82.3 79.4,41.1 65.9,41.1 			"/>
			<polygon class="st2" points="70.8,34.2 50,13.4 29.2,34.2 40.7,34.2 45.4,29.4 45.4,50 54.6,50 54.6,29.4 59.4,34.2 			"/>
		</g>
		<g>
			<polygon class="st2" points="65.9,60.1 34,60.1 34,41 20.6,41 20.6,82.2 34,82.2 34,73.5 65.9,73.5 65.9,82.2 79.3,82.2 79.3,41 
				65.9,41 			"/>
			<polygon class="st2" points="70.7,34.1 49.9,13.3 29.1,34.1 40.6,34.1 45.3,29.4 45.3,50 54.6,50 54.6,29.4 59.3,34.1 			"/>
		</g>
		<g>
			<polygon class="st2" points="65.8,60 34,60 34,40.9 20.5,40.9 20.5,82.1 34,82.1 34,73.5 65.8,73.5 65.8,82.1 79.2,82.1 
				79.2,40.9 65.8,40.9 			"/>
			<polygon class="st2" points="70.7,34 49.9,13.2 29.1,34 40.5,34 45.2,29.3 45.2,49.9 54.5,49.9 54.5,29.3 59.2,34 			"/>
		</g>
		<g>
			<polygon class="st2" points="65.7,60 33.9,60 33.9,40.8 20.5,40.8 20.5,82 33.9,82 33.9,73.4 65.7,73.4 65.7,82 79.2,82 
				79.2,40.8 65.7,40.8 			"/>
			<polygon class="st2" points="70.6,33.9 49.8,13.1 29,33.9 40.4,33.9 45.2,29.2 45.2,49.8 54.4,49.8 54.4,29.2 59.2,33.9 			"/>
		</g>
		<g>
			<polygon class="st2" points="65.7,59.9 33.8,59.9 33.8,40.8 20.4,40.8 20.4,82 33.8,82 33.8,73.3 65.7,73.3 65.7,82 79.1,82 
				79.1,40.8 65.7,40.8 			"/>
			<polygon class="st2" points="70.5,33.9 49.7,13.1 28.9,33.9 40.4,33.9 45.1,29.2 45.1,49.7 54.4,49.7 54.4,29.2 59.1,33.9 			"/>
		</g>
		<g>
			<polygon class="st2" points="65.6,59.8 33.8,59.8 33.8,40.7 20.3,40.7 20.3,81.9 33.8,81.9 33.8,73.3 65.6,73.3 65.6,81.9 
				79,81.9 79,40.7 65.6,40.7 			"/>
			<polygon class="st2" points="70.5,33.8 49.7,13 28.9,33.8 40.3,33.8 45,29.1 45,49.7 54.3,49.7 54.3,29.1 59,33.8 			"/>
		</g>
		<g>
			<polygon class="st2" points="65.5,59.8 33.7,59.8 33.7,40.6 20.3,40.6 20.3,81.8 33.7,81.8 33.7,73.2 65.5,73.2 65.5,81.8 
				79,81.8 79,40.6 65.5,40.6 			"/>
			<polygon class="st2" points="70.4,33.7 49.6,12.9 28.8,33.7 40.2,33.7 45,29 45,49.6 54.2,49.6 54.2,29 58.9,33.7 			"/>
		</g>
	</g>
	<g>
		<polygon class="st3" points="65.5,59.8 33.7,59.8 33.7,40.6 20.3,40.6 20.3,81.8 33.7,81.8 33.7,73.2 65.5,73.2 65.5,81.8 
			79,81.8 79,40.6 65.5,40.6 		"/>
		<polygon class="st3" points="70.4,33.7 49.6,12.9 28.8,33.7 40.2,33.7 45,29 45,49.6 54.2,49.6 54.2,29 58.9,33.7 		"/>
	</g>
</g>
</svg>
