<?xml version="1.0" encoding="utf-8"?>
<!-- Generator: Adobe Illustrator 22.1.0, SVG Export Plug-In . SVG Version: 6.00 Build 0)  -->
<svg version="1.1" id="레이어_1" xmlns="http://www.w3.org/2000/svg" xmlns:xlink="http://www.w3.org/1999/xlink" x="0px"
	 y="0px" viewBox="0 0 194 110" style="enable-background:new 0 0 194 110;" xml:space="preserve">
<style type="text/css">
	.st0{fill:#F5F5F5;}
</style>
<g>
	<path class="st0" d="M61.2,44.1c-3.3,2.4-8.2,3.5-14.5,3.5H31.1h-7.7V22.9V0h8.2h14.3c5.9,0,10.3,1.3,13.4,3.8
		c3.1,2.5,4.6,5.8,4.6,9.9c0,1.5-0.4,3.2-1.3,4.9c-0.9,1.7-2.5,3.2-4.8,4.6c2.8,1.1,4.8,2.6,6.2,4.4c1.4,1.8,2.1,4,2.1,6.4
		C66.1,38.3,64.5,41.7,61.2,44.1z M39.2,7.1h-7v5.5v1.2v6.3h7.1h6.5c3.2,0,5.5-0.6,6.8-1.9c1.3-1.3,2-2.8,2-4.6c0-1.8-0.7-3.3-2-4.6
		c-1.3-1.3-3.6-1.9-6.8-1.9H39.2z M39.8,26.7h-7.6v5.7v1.5v6.7H40h7.2c3.2,0,5.7-0.5,7.3-1.5c1.6-1.1,2.4-2.8,2.4-5.2
		s-0.8-4.1-2.4-5.3c-1.7-1.2-4.1-1.8-7.3-1.8H39.8z"/>
	<path class="st0" d="M81.6,42.2c-4.2-4.3-6.4-10.6-6.4-18.9V7.7V0H84v11.9v11.5c0,6.2,1.3,10.8,4,13.7c2.6,2.9,6,4.4,10.2,4.4
		c4.1,0,7.5-1.5,10.2-4.4c2.6-2.9,4-7.5,4-13.7V11.6V0h8.8v10.7v12.7c0,8.3-2.1,14.6-6.4,18.9c-4.2,4.4-9.8,6.5-16.5,6.5
		S85.9,46.6,81.6,42.2z"/>
	<path class="st0" d="M147.8,33.6v-3.9c-3.4-5.1-10-15-19.7-29.7h10.7c2.4,3.9,6.9,11.2,13.6,22l13.7-22h10.2
		c-3.3,5-9.8,14.8-19.6,29.6v18h-8.8V33.6z"/>
	<path class="st0" d="M54.7,110h-0.9H50h-3.3h-1.4c-2.7-8.5-6.4-20.4-11.2-35.7C31.4,83.1,27.7,95,22.9,110h-0.4h-3.8h-0.4h-3.4
		h-0.8C11,99.5,6.3,83.6,0,62.4h9.7c1.7,6.4,4.8,18,9.3,34.8c3-9.3,6.8-20.9,11.3-34.8h7.5h0.4c2.1,6.5,6,18.4,11.5,35.6
		c2.4-9.5,5.5-21.3,9.2-35.6h9.2C66,70.4,61.5,86.2,54.7,110z"/>
	<path class="st0" d="M98.9,62.4h0.3c5.1,10.6,12.8,26.4,23,47.6h-9.8c-1.2-2.6-2.7-6.1-4.7-10.4H81.9c-1.5,3.3-3.1,6.8-4.7,10.4
		h-9.2c3.8-7.9,11.4-23.8,22.9-47.6h3.1h1.5H98.9z M84.9,93h15h4.7c-2.7-6-6-13.3-9.8-21.7C92.1,77.4,88.7,84.6,84.9,93z"/>
	<path class="st0" d="M129.8,89.2V62.4h5.5h3.3V110h-8.8V89.2z"/>
	<path class="st0" d="M166.2,93.3V69.5h-18.9v-7.1h39.4h7.4v4.2v2.8h-18.9V110h-8.9V93.3z"/>
</g>
</svg>
