<svg xmlns="http://www.w3.org/2000/svg" xmlns:xlink="http://www.w3.org/1999/xlink" width="217.671" height="382.985" viewBox="0 0 217.671 382.985">
  <defs>
    <filter id="Combined_Shape" x="0" y="0" width="217.671" height="168.087" filterUnits="userSpaceOnUse">
      <feOffset dy="5" input="SourceAlpha"/>
      <feGaussianBlur stdDeviation="8" result="blur"/>
      <feFlood flood-color="#4b556e" flood-opacity="0.2"/>
      <feComposite operator="in" in2="blur"/>
      <feComposite in="SourceGraphic"/>
    </filter>
  </defs>
  <g id="_1-2_graph_03" data-name="1-2_graph_03" transform="translate(-1535 -52.458)">
    <path id="_16:00" data-name="16:00" d="M-38.668-2.268V0h-13.8V-1.795l7.084-6.814q.812-.869,1.5-1.641a11.565,11.565,0,0,0,1.176-1.556,7.973,7.973,0,0,0,.77-1.584,5.1,5.1,0,0,0,.28-1.7,4.507,4.507,0,0,0-.308-1.6,2.964,2.964,0,0,0-.8-1.122,3.46,3.46,0,0,0-1.2-.673,4.7,4.7,0,0,0-1.47-.224,4.578,4.578,0,0,0-1.456.224,3.589,3.589,0,0,0-1.176.644,4.205,4.205,0,0,0-.854.966,3.593,3.593,0,0,0-.49,1.218,5.082,5.082,0,0,0-.112.98l-2.52-.42a7.25,7.25,0,0,1,.784-2.506,6.155,6.155,0,0,1,1.47-1.811,6.085,6.085,0,0,1,2.03-1.106,7.924,7.924,0,0,1,2.464-.373,7.487,7.487,0,0,1,2.436.392,5.886,5.886,0,0,1,2,1.134,5.227,5.227,0,0,1,1.33,1.806,5.853,5.853,0,0,1,.481,2.436,6.344,6.344,0,0,1-.354,2.142,8.355,8.355,0,0,1-.948,1.876,16.486,16.486,0,0,1-1.368,1.75q-.774.868-1.642,1.736l-5.74,5.684a8.706,8.706,0,0,1,1.19-.252,8.226,8.226,0,0,1,1.134-.084Zm17.36-7.952A16.771,16.771,0,0,1-21.9-5.488a10.082,10.082,0,0,1-1.6,3.3A6.308,6.308,0,0,1-25.881-.238a7.05,7.05,0,0,1-2.973.63,7.05,7.05,0,0,1-2.973-.63,6.42,6.42,0,0,1-2.4-1.946,9.726,9.726,0,0,1-1.6-3.3A17.155,17.155,0,0,1-36.4-10.22a17.309,17.309,0,0,1,.575-4.746,9.716,9.716,0,0,1,1.6-3.318,6.42,6.42,0,0,1,2.4-1.946,7.05,7.05,0,0,1,2.973-.63,7.05,7.05,0,0,1,2.973.63A6.308,6.308,0,0,1-23.5-18.284a10.07,10.07,0,0,1,1.6,3.318A16.921,16.921,0,0,1-21.308-10.22Zm-2.6-.014a17.172,17.172,0,0,0-.406-4.053,8.06,8.06,0,0,0-1.092-2.636,4.142,4.142,0,0,0-1.582-1.43,4.246,4.246,0,0,0-1.876-.435,4.246,4.246,0,0,0-1.876.435,4.044,4.044,0,0,0-1.568,1.43,8.273,8.273,0,0,0-1.078,2.636,17.172,17.172,0,0,0-.406,4.053,17.028,17.028,0,0,0,.406,4.025,8.456,8.456,0,0,0,1.078,2.65,4.015,4.015,0,0,0,1.568,1.444,4.246,4.246,0,0,0,1.876.435,4.246,4.246,0,0,0,1.876-.435A4.111,4.111,0,0,0-25.41-3.559a8.236,8.236,0,0,0,1.092-2.65A17.028,17.028,0,0,0-23.912-10.234Zm18.62,7.966V0H-19.1V-1.795l7.084-6.814q.812-.869,1.5-1.641a11.565,11.565,0,0,0,1.176-1.556,7.974,7.974,0,0,0,.77-1.584,5.1,5.1,0,0,0,.28-1.7,4.507,4.507,0,0,0-.308-1.6,2.964,2.964,0,0,0-.8-1.122,3.46,3.46,0,0,0-1.2-.673,4.7,4.7,0,0,0-1.47-.224,4.578,4.578,0,0,0-1.456.224,3.589,3.589,0,0,0-1.176.644,4.205,4.205,0,0,0-.854.966,3.593,3.593,0,0,0-.49,1.218,5.082,5.082,0,0,0-.112.98l-2.52-.42a7.25,7.25,0,0,1,.784-2.506,6.155,6.155,0,0,1,1.47-1.811,6.085,6.085,0,0,1,2.03-1.106,7.924,7.924,0,0,1,2.464-.373,7.487,7.487,0,0,1,2.436.392,5.886,5.886,0,0,1,2,1.134,5.227,5.227,0,0,1,1.33,1.806,5.853,5.853,0,0,1,.481,2.436,6.344,6.344,0,0,1-.354,2.142A8.355,8.355,0,0,1-6.986-11.1a16.486,16.486,0,0,1-1.368,1.75Q-9.128-8.484-10-7.616l-5.74,5.684a8.706,8.706,0,0,1,1.19-.252,8.226,8.226,0,0,1,1.134-.084Zm17.36-7.952a16.771,16.771,0,0,1-.589,4.732,10.082,10.082,0,0,1-1.6,3.3A6.308,6.308,0,0,1,7.5-.238a7.05,7.05,0,0,1-2.973.63,7.05,7.05,0,0,1-2.973-.63A6.42,6.42,0,0,1-.85-2.184a9.726,9.726,0,0,1-1.6-3.3,17.155,17.155,0,0,1-.575-4.732,17.309,17.309,0,0,1,.575-4.746,9.716,9.716,0,0,1,1.6-3.318,6.42,6.42,0,0,1,2.4-1.946,7.05,7.05,0,0,1,2.973-.63,7.05,7.05,0,0,1,2.973.63A6.308,6.308,0,0,1,9.88-18.284a10.07,10.07,0,0,1,1.6,3.318A16.921,16.921,0,0,1,12.068-10.22Zm-2.6-.014a17.172,17.172,0,0,0-.406-4.053,8.06,8.06,0,0,0-1.092-2.636,4.142,4.142,0,0,0-1.582-1.43,4.246,4.246,0,0,0-1.876-.435,4.246,4.246,0,0,0-1.876.435,4.044,4.044,0,0,0-1.568,1.43A8.273,8.273,0,0,0-.014-14.287,17.172,17.172,0,0,0-.42-10.234,17.028,17.028,0,0,0-.014-6.209a8.457,8.457,0,0,0,1.078,2.65A4.015,4.015,0,0,0,2.632-2.115a4.246,4.246,0,0,0,1.876.435,4.246,4.246,0,0,0,1.876-.435A4.111,4.111,0,0,0,7.966-3.559a8.236,8.236,0,0,0,1.092-2.65A17.028,17.028,0,0,0,9.464-10.234ZM16.688.364a1.8,1.8,0,0,1-1.3-.532,1.866,1.866,0,0,1-.546-1.4A1.961,1.961,0,0,1,15.386-3a1.756,1.756,0,0,1,1.3-.56,1.756,1.756,0,0,1,1.3.56,1.961,1.961,0,0,1,.546,1.428,1.866,1.866,0,0,1-.546,1.4A1.8,1.8,0,0,1,16.688.364ZM36.54-10.22a16.771,16.771,0,0,1-.589,4.732,10.082,10.082,0,0,1-1.6,3.3A6.308,6.308,0,0,1,31.967-.238a7.05,7.05,0,0,1-2.973.63,7.05,7.05,0,0,1-2.973-.63,6.42,6.42,0,0,1-2.4-1.946,9.726,9.726,0,0,1-1.6-3.3,17.155,17.155,0,0,1-.575-4.732,17.309,17.309,0,0,1,.575-4.746,9.716,9.716,0,0,1,1.6-3.318,6.42,6.42,0,0,1,2.4-1.946,7.05,7.05,0,0,1,2.973-.63,7.05,7.05,0,0,1,2.973.63,6.308,6.308,0,0,1,2.384,1.946,10.07,10.07,0,0,1,1.6,3.318A16.921,16.921,0,0,1,36.54-10.22Zm-2.6-.014a17.172,17.172,0,0,0-.406-4.053,8.06,8.06,0,0,0-1.092-2.636,4.142,4.142,0,0,0-1.582-1.43,4.246,4.246,0,0,0-1.876-.435,4.246,4.246,0,0,0-1.876.435,4.044,4.044,0,0,0-1.568,1.43,8.273,8.273,0,0,0-1.078,2.636,17.172,17.172,0,0,0-.406,4.053,17.028,17.028,0,0,0,.406,4.025,8.456,8.456,0,0,0,1.078,2.65A4.015,4.015,0,0,0,27.1-2.115a4.246,4.246,0,0,0,1.876.435,4.246,4.246,0,0,0,1.876-.435,4.111,4.111,0,0,0,1.582-1.444,8.236,8.236,0,0,0,1.092-2.65A17.029,17.029,0,0,0,33.936-10.234Zm18.62,7.966V0h-13.8V-1.795l7.084-6.814q.812-.869,1.5-1.641a11.565,11.565,0,0,0,1.176-1.556,7.973,7.973,0,0,0,.77-1.584,5.1,5.1,0,0,0,.28-1.7,4.507,4.507,0,0,0-.308-1.6,2.964,2.964,0,0,0-.8-1.122,3.46,3.46,0,0,0-1.2-.673,4.7,4.7,0,0,0-1.47-.224,4.578,4.578,0,0,0-1.456.224,3.589,3.589,0,0,0-1.176.644,4.205,4.205,0,0,0-.854.966,3.593,3.593,0,0,0-.49,1.218,5.082,5.082,0,0,0-.112.98l-2.52-.42a7.25,7.25,0,0,1,.784-2.506,6.155,6.155,0,0,1,1.47-1.811,6.085,6.085,0,0,1,2.03-1.106,7.924,7.924,0,0,1,2.464-.373,7.487,7.487,0,0,1,2.436.392,5.886,5.886,0,0,1,2,1.134,5.227,5.227,0,0,1,1.33,1.806,5.853,5.853,0,0,1,.481,2.436,6.344,6.344,0,0,1-.354,2.142,8.355,8.355,0,0,1-.948,1.876,16.486,16.486,0,0,1-1.368,1.75q-.774.868-1.642,1.736l-5.74,5.684a8.706,8.706,0,0,1,1.19-.252,8.226,8.226,0,0,1,1.134-.084Z" transform="translate(1643.472 435.051)" fill="#6e6e6e"/>
    <g id="그룹_4094" data-name="그룹 4094" transform="translate(1574.454 71.458)">
      <g transform="matrix(1, 0, 0, 1, -39.45, -19)" filter="url(#Combined_Shape)">
        <path id="Combined_Shape-2" data-name="Combined Shape" d="M67.409,107.167H8a8,8,0,0,1-8-8V8A8,8,0,0,1,8,0H161.671a8,8,0,0,1,8,8V99.167a8,8,0,0,1-8,8h-59.41l-17.426,12.92Z" transform="translate(24 19)" fill="#fff"/>
      </g>
      <path id="_8:00" data-name="8:00" d="M-10.375-14.775a11.134,11.134,0,0,1-3.562,4.65A17.806,17.806,0,0,1-20.05-7.15l-.825-1.625a20.154,20.154,0,0,0,3.612-1.45,12.96,12.96,0,0,0,2.775-1.925A8.831,8.831,0,0,0-12.65-14.5a7.4,7.4,0,0,0,.825-2.725h-7.9v-1.65H-9.6a12.183,12.183,0,0,1-.062,1.238A10.7,10.7,0,0,1-9.85-16.45h5.075v-4.1h2.05v13.4h-2.05V-10.1H-10.65v-1.675h5.875v-3ZM-10.025.15A8.952,8.952,0,0,0-6.087-.575a2.215,2.215,0,0,0,1.462-2,2.19,2.19,0,0,0-1.45-1.987,9.073,9.073,0,0,0-3.95-.713,9.073,9.073,0,0,0-3.95.713,2.19,2.19,0,0,0-1.45,1.987,2.215,2.215,0,0,0,1.462,2A8.952,8.952,0,0,0-10.025.15Zm-.012-7.025a14.454,14.454,0,0,1,3.07.3,8.244,8.244,0,0,1,2.334.847A4.2,4.2,0,0,1-3.149-4.37a3.257,3.257,0,0,1,.524,1.807,3.24,3.24,0,0,1-.524,1.82A4.252,4.252,0,0,1-4.634.6a8.244,8.244,0,0,1-2.334.847,14.454,14.454,0,0,1-3.07.3,14.454,14.454,0,0,1-3.07-.3A8.244,8.244,0,0,1-15.441.6,4.252,4.252,0,0,1-16.926-.743a3.24,3.24,0,0,1-.524-1.82,3.257,3.257,0,0,1,.524-1.807,4.2,4.2,0,0,1,1.485-1.358,8.244,8.244,0,0,1,2.334-.847A14.454,14.454,0,0,1-10.037-6.875ZM12.625-18.15a18.788,18.788,0,0,1-.58,4.687A15.508,15.508,0,0,1,10.22-9.175,16.376,16.376,0,0,1,7-5.425a21.868,21.868,0,0,1-4.775,3.1L1.125-4A17.414,17.414,0,0,0,7.95-9.325,13.916,13.916,0,0,0,10.575-16.5H2.15v-1.65Zm6.6-2.425V1.85h-2.05V-20.575Zm-41.65,38.35a26.221,26.221,0,0,0,.5-3.4q.1-1.45.1-2.525h-9.15V10.175H-19.8V11.35q0,1.125-.076,2.775A27.464,27.464,0,0,1-20.382,18Zm4.3,3.075q-1.75.3-3.587.475t-3.663.262q-1.825.087-3.538.125t-3.212.038l-.2-1.675q1.075,0,2.275-.013t2.475-.038v-4.85h2.025V19.95q1.85-.075,3.7-.213t3.575-.388Zm-8.725,7.825H-14V30.35H-28.9V23.775h2.05ZM-11.5,15.75v1.675h-3.225v7.9h-2.05V8.45h2.05v7.3ZM3.225,19.9Q1.9,20.125.65,20.262t-2.525.225q-1.275.088-2.638.112t-2.912.025H-9.2v-6.45h8.025v-2.85H-9.25V9.65H.85v6.125H-7.175V18.95q1.475,0,2.775-.025t2.525-.112Q-.65,18.725.55,18.587t2.475-.363Zm-8.1,9h10.1V24.525h-10.1ZM-6.9,22.925H7.225V30.55H-6.9Zm17.45-7.05H7.225V21.8H5.175V8.425h2.05V14.15l3.325.05Zm17.675,4.8V8.475h2.05v16.9h-2.05v-3.1H23.35v-1.6ZM17.975,18.85q-1.65.075-3.175.1t-2.875.025l-.275-1.654q2.175-.025,4.738-.062t5.213-.235a27.077,27.077,0,0,0,.437-3.239q.087-1.381.113-2.336H13.7V9.8H24.175v.853q0,.953-.063,2.509A30.737,30.737,0,0,1,23.7,16.85q.653-.05,1.29-.112t1.238-.162l.15,1.471q-1.525.274-3.133.449t-3.217.274v5.157h-2.05Zm12.85,9.825V30.35H14.975V23.525H17v5.15Z" transform="translate(69.546 47.593)" fill="#1382ce"/>
    </g>
  </g>
</svg>
