<svg xmlns="http://www.w3.org/2000/svg" xmlns:xlink="http://www.w3.org/1999/xlink" width="217.671" height="557.728" viewBox="0 0 217.671 557.728">
  <defs>
    <filter id="Combined_Shape" x="0" y="0" width="217.671" height="168.087" filterUnits="userSpaceOnUse">
      <feOffset dy="5" input="SourceAlpha"/>
      <feGaussianBlur stdDeviation="8" result="blur"/>
      <feFlood flood-color="#4b556e" flood-opacity="0.2"/>
      <feComposite operator="in" in2="blur"/>
      <feComposite in="SourceGraphic"/>
    </filter>
  </defs>
  <g id="_1-2_graph_04" data-name="1-2_graph_04" transform="translate(-1818 122.285)">
    <path id="_20:00" data-name="20:00" d="M-38.668-2.268V0h-13.8V-1.795l7.084-6.814q.812-.869,1.5-1.641a11.565,11.565,0,0,0,1.176-1.556,7.973,7.973,0,0,0,.77-1.584,5.1,5.1,0,0,0,.28-1.7,4.507,4.507,0,0,0-.308-1.6,2.964,2.964,0,0,0-.8-1.122,3.46,3.46,0,0,0-1.2-.673,4.7,4.7,0,0,0-1.47-.224,4.578,4.578,0,0,0-1.456.224,3.589,3.589,0,0,0-1.176.644,4.205,4.205,0,0,0-.854.966,3.593,3.593,0,0,0-.49,1.218,5.082,5.082,0,0,0-.112.98l-2.52-.42a7.25,7.25,0,0,1,.784-2.506,6.155,6.155,0,0,1,1.47-1.811,6.085,6.085,0,0,1,2.03-1.106,7.924,7.924,0,0,1,2.464-.373,7.487,7.487,0,0,1,2.436.392,5.886,5.886,0,0,1,2,1.134,5.227,5.227,0,0,1,1.33,1.806,5.853,5.853,0,0,1,.481,2.436,6.344,6.344,0,0,1-.354,2.142,8.355,8.355,0,0,1-.948,1.876,16.486,16.486,0,0,1-1.368,1.75q-.774.868-1.642,1.736l-5.74,5.684a8.706,8.706,0,0,1,1.19-.252,8.226,8.226,0,0,1,1.134-.084Zm17.36-7.952A16.771,16.771,0,0,1-21.9-5.488a10.082,10.082,0,0,1-1.6,3.3A6.308,6.308,0,0,1-25.881-.238a7.05,7.05,0,0,1-2.973.63,7.05,7.05,0,0,1-2.973-.63,6.42,6.42,0,0,1-2.4-1.946,9.726,9.726,0,0,1-1.6-3.3A17.155,17.155,0,0,1-36.4-10.22a17.309,17.309,0,0,1,.575-4.746,9.716,9.716,0,0,1,1.6-3.318,6.42,6.42,0,0,1,2.4-1.946,7.05,7.05,0,0,1,2.973-.63,7.05,7.05,0,0,1,2.973.63A6.308,6.308,0,0,1-23.5-18.284a10.07,10.07,0,0,1,1.6,3.318A16.921,16.921,0,0,1-21.308-10.22Zm-2.6-.014a17.172,17.172,0,0,0-.406-4.053,8.06,8.06,0,0,0-1.092-2.636,4.142,4.142,0,0,0-1.582-1.43,4.246,4.246,0,0,0-1.876-.435,4.246,4.246,0,0,0-1.876.435,4.044,4.044,0,0,0-1.568,1.43,8.273,8.273,0,0,0-1.078,2.636,17.172,17.172,0,0,0-.406,4.053,17.028,17.028,0,0,0,.406,4.025,8.456,8.456,0,0,0,1.078,2.65,4.015,4.015,0,0,0,1.568,1.444,4.246,4.246,0,0,0,1.876.435,4.246,4.246,0,0,0,1.876-.435A4.111,4.111,0,0,0-25.41-3.559a8.236,8.236,0,0,0,1.092-2.65A17.028,17.028,0,0,0-23.912-10.234Zm18.62,7.966V0H-19.1V-1.795l7.084-6.814q.812-.869,1.5-1.641a11.565,11.565,0,0,0,1.176-1.556,7.974,7.974,0,0,0,.77-1.584,5.1,5.1,0,0,0,.28-1.7,4.507,4.507,0,0,0-.308-1.6,2.964,2.964,0,0,0-.8-1.122,3.46,3.46,0,0,0-1.2-.673,4.7,4.7,0,0,0-1.47-.224,4.578,4.578,0,0,0-1.456.224,3.589,3.589,0,0,0-1.176.644,4.205,4.205,0,0,0-.854.966,3.593,3.593,0,0,0-.49,1.218,5.082,5.082,0,0,0-.112.98l-2.52-.42a7.25,7.25,0,0,1,.784-2.506,6.155,6.155,0,0,1,1.47-1.811,6.085,6.085,0,0,1,2.03-1.106,7.924,7.924,0,0,1,2.464-.373,7.487,7.487,0,0,1,2.436.392,5.886,5.886,0,0,1,2,1.134,5.227,5.227,0,0,1,1.33,1.806,5.853,5.853,0,0,1,.481,2.436,6.344,6.344,0,0,1-.354,2.142A8.355,8.355,0,0,1-6.986-11.1a16.486,16.486,0,0,1-1.368,1.75Q-9.128-8.484-10-7.616l-5.74,5.684a8.706,8.706,0,0,1,1.19-.252,8.226,8.226,0,0,1,1.134-.084Zm17.36-7.952a16.771,16.771,0,0,1-.589,4.732,10.082,10.082,0,0,1-1.6,3.3A6.308,6.308,0,0,1,7.5-.238a7.05,7.05,0,0,1-2.973.63,7.05,7.05,0,0,1-2.973-.63A6.42,6.42,0,0,1-.85-2.184a9.726,9.726,0,0,1-1.6-3.3,17.155,17.155,0,0,1-.575-4.732,17.309,17.309,0,0,1,.575-4.746,9.716,9.716,0,0,1,1.6-3.318,6.42,6.42,0,0,1,2.4-1.946,7.05,7.05,0,0,1,2.973-.63,7.05,7.05,0,0,1,2.973.63A6.308,6.308,0,0,1,9.88-18.284a10.07,10.07,0,0,1,1.6,3.318A16.921,16.921,0,0,1,12.068-10.22Zm-2.6-.014a17.172,17.172,0,0,0-.406-4.053,8.06,8.06,0,0,0-1.092-2.636,4.142,4.142,0,0,0-1.582-1.43,4.246,4.246,0,0,0-1.876-.435,4.246,4.246,0,0,0-1.876.435,4.044,4.044,0,0,0-1.568,1.43A8.273,8.273,0,0,0-.014-14.287,17.172,17.172,0,0,0-.42-10.234,17.028,17.028,0,0,0-.014-6.209a8.457,8.457,0,0,0,1.078,2.65A4.015,4.015,0,0,0,2.632-2.115a4.246,4.246,0,0,0,1.876.435,4.246,4.246,0,0,0,1.876-.435A4.111,4.111,0,0,0,7.966-3.559a8.236,8.236,0,0,0,1.092-2.65A17.028,17.028,0,0,0,9.464-10.234ZM16.688.364a1.8,1.8,0,0,1-1.3-.532,1.866,1.866,0,0,1-.546-1.4A1.961,1.961,0,0,1,15.386-3a1.756,1.756,0,0,1,1.3-.56,1.756,1.756,0,0,1,1.3.56,1.961,1.961,0,0,1,.546,1.428,1.866,1.866,0,0,1-.546,1.4A1.8,1.8,0,0,1,16.688.364ZM36.54-10.22a16.771,16.771,0,0,1-.589,4.732,10.082,10.082,0,0,1-1.6,3.3A6.308,6.308,0,0,1,31.967-.238a7.05,7.05,0,0,1-2.973.63,7.05,7.05,0,0,1-2.973-.63,6.42,6.42,0,0,1-2.4-1.946,9.726,9.726,0,0,1-1.6-3.3,17.155,17.155,0,0,1-.575-4.732,17.309,17.309,0,0,1,.575-4.746,9.716,9.716,0,0,1,1.6-3.318,6.42,6.42,0,0,1,2.4-1.946,7.05,7.05,0,0,1,2.973-.63,7.05,7.05,0,0,1,2.973.63,6.308,6.308,0,0,1,2.384,1.946,10.07,10.07,0,0,1,1.6,3.318A16.921,16.921,0,0,1,36.54-10.22Zm-2.6-.014a17.172,17.172,0,0,0-.406-4.053,8.06,8.06,0,0,0-1.092-2.636,4.142,4.142,0,0,0-1.582-1.43,4.246,4.246,0,0,0-1.876-.435,4.246,4.246,0,0,0-1.876.435,4.044,4.044,0,0,0-1.568,1.43,8.273,8.273,0,0,0-1.078,2.636,17.172,17.172,0,0,0-.406,4.053,17.028,17.028,0,0,0,.406,4.025,8.456,8.456,0,0,0,1.078,2.65A4.015,4.015,0,0,0,27.1-2.115a4.246,4.246,0,0,0,1.876.435,4.246,4.246,0,0,0,1.876-.435,4.111,4.111,0,0,0,1.582-1.444,8.236,8.236,0,0,0,1.092-2.65A17.029,17.029,0,0,0,33.936-10.234Zm14.2,2.786v-8.591q0-.365.028-.828t.084-.913l-7.56,10.3Zm5.376,0V-5.46H50.4V0H48.132V-5.46H37.884v-1.9L47.992-20.748H50.4v13.3Z" transform="translate(1926.472 435.051)" fill="#6e6e6e"/>
    <g id="그룹_4095" data-name="그룹 4095" transform="translate(1849.22 -103.285)">
      <g transform="matrix(1, 0, 0, 1, -31.22, -19)" filter="url(#Combined_Shape)">
        <path id="Combined_Shape-2" data-name="Combined Shape" d="M67.409,107.167H8a8,8,0,0,1-8-8V8A8,8,0,0,1,8,0H161.671a8,8,0,0,1,8,8V99.167a8,8,0,0,1-8,8h-59.41l-17.426,12.92Z" transform="translate(24 19)" fill="#fff"/>
      </g>
      <path id="_8:00" data-name="8:00" d="M-24.25-8.025h-1.975V-20.55h1.975Zm-6.025-6.65V-20.2h1.95V-8.175h-1.95v-4.85H-32.75v-1.65Zm-1.925-2.1H-43.3v-1.6h4.55v-2.25h2.025v2.25H-32.2Zm-8.375,4.6a1.935,1.935,0,0,0,.788,1.625,3.313,3.313,0,0,0,2.063.6,3.258,3.258,0,0,0,2.05-.6,1.946,1.946,0,0,0,.775-1.625,1.946,1.946,0,0,0-.775-1.625,3.258,3.258,0,0,0-2.05-.6,3.313,3.313,0,0,0-2.062.6A1.935,1.935,0,0,0-40.575-12.175Zm7.475,0a3.385,3.385,0,0,1-.338,1.512,3.4,3.4,0,0,1-.95,1.175,4.411,4.411,0,0,1-1.462.75,6.333,6.333,0,0,1-1.875.263,6.459,6.459,0,0,1-1.888-.263,4.4,4.4,0,0,1-1.475-.75,3.4,3.4,0,0,1-.95-1.175,3.385,3.385,0,0,1-.338-1.512,3.442,3.442,0,0,1,.338-1.537,3.4,3.4,0,0,1,.95-1.175,4.4,4.4,0,0,1,1.475-.75,6.459,6.459,0,0,1,1.888-.262,6.333,6.333,0,0,1,1.875.262,4.411,4.411,0,0,1,1.462.75,3.4,3.4,0,0,1,.95,1.175A3.442,3.442,0,0,1-33.1-12.175ZM-23.45.05V1.6H-39V-3.55h12.725V-5.5H-39.05V-7.025h14.8v4.95H-36.975V.05ZM-2.8-7.6a13.672,13.672,0,0,1-2.538-.875A12.311,12.311,0,0,1-7.7-9.887a12.879,12.879,0,0,1-2-1.888,8.6,8.6,0,0,1-1.416-2.3A8.732,8.732,0,0,1-12.528-11.8a12.879,12.879,0,0,1-2,1.888,12.99,12.99,0,0,1-2.35,1.425A12.846,12.846,0,0,1-19.4-7.6l-.925-1.7A11.5,11.5,0,0,0-17.4-10.338a11.737,11.737,0,0,0,2.613-1.8A9.215,9.215,0,0,0-12.9-14.525a5.656,5.656,0,0,0,.725-2.75V-19h2.125v1.725a5.656,5.656,0,0,0,.725,2.75,9.215,9.215,0,0,0,1.888,2.387,11.95,11.95,0,0,0,2.625,1.813A10.744,10.744,0,0,0-1.875-9.3ZM-.85-2.825V-1.15H-21.175V-2.825ZM13.275-20h1.9V.7h-1.9V-10.05H9.125A15.2,15.2,0,0,1,6.5-6.138,17.07,17.07,0,0,1,2.125-2.8L.95-4.275A15.94,15.94,0,0,0,5.113-7.4a12.673,12.673,0,0,0,2.413-3.7l-6.3.625L.95-12.225,8.075-12.7a14.48,14.48,0,0,0,.387-1.762q.138-.887.188-1.813H2.05v-1.65h8.575a24.687,24.687,0,0,1-.2,3.137,17.472,17.472,0,0,1-.675,3.063h3.525Zm6.6-.6V1.825h-1.95V-20.6Zm8.95,15.55a2.658,2.658,0,0,0,1.462-.424,3.744,3.744,0,0,0,1.15-1.21,6.361,6.361,0,0,0,.75-1.884,10.646,10.646,0,0,0,.263-2.47,10.688,10.688,0,0,0-.263-2.457,6.183,6.183,0,0,0-.75-1.884,3.783,3.783,0,0,0-1.15-1.2A2.658,2.658,0,0,0,28.825-17a2.719,2.719,0,0,0-1.475.424,3.728,3.728,0,0,0-1.163,1.2,6.183,6.183,0,0,0-.75,1.884,10.688,10.688,0,0,0-.263,2.457,10.645,10.645,0,0,0,.263,2.47,6.361,6.361,0,0,0,.75,1.884,3.69,3.69,0,0,0,1.163,1.21A2.719,2.719,0,0,0,28.825-5.05ZM41.3-20.575V1.9H39.25V-10.35h-4.9a11.107,11.107,0,0,1-.512,2.975,7.353,7.353,0,0,1-1.16,2.25A5.068,5.068,0,0,1,30.97-3.7a4.7,4.7,0,0,1-2.158.5,4.664,4.664,0,0,1-2.245-.55A5.293,5.293,0,0,1,24.8-5.325a7.755,7.755,0,0,1-1.16-2.463,11.762,11.762,0,0,1-.412-3.238,11.762,11.762,0,0,1,.412-3.238,7.755,7.755,0,0,1,1.16-2.462A5.293,5.293,0,0,1,26.568-18.3a4.664,4.664,0,0,1,2.245-.55,4.633,4.633,0,0,1,2.083.475,5.178,5.178,0,0,1,1.7,1.362,7.014,7.014,0,0,1,1.185,2.15,11.058,11.058,0,0,1,.574,2.837h4.9v-8.55ZM-14.6,14.75a13.5,13.5,0,0,0,.312,2.9,12.452,12.452,0,0,0,.913,2.688,10.093,10.093,0,0,0,1.488,2.288A7.532,7.532,0,0,0-9.825,24.3l-1.25,1.5a8.563,8.563,0,0,1-2.787-2.687,12.988,12.988,0,0,1-1.713-3.862,13.96,13.96,0,0,1-1.762,4.188A9.2,9.2,0,0,1-20.2,26.35l-1.25-1.525a8.177,8.177,0,0,0,2.088-1.788,10.752,10.752,0,0,0,1.525-2.412A13.545,13.545,0,0,0-16.9,17.8a14.362,14.362,0,0,0,.325-3.05V12.725h-4.25V11.05H-10.6v1.675h-4Zm6-5.825h1.95v20.75H-8.6V18.15h-3.7V16.475h3.7ZM-2.125,8.4V30.825H-4.1V8.4Zm15.85,2.4H8.15v4.7h5.575ZM6.1,10.8H2.725V9.15h16.45V10.8h-3.4v4.7h3.3v1.65H2.8V15.5H6.1ZM16.625,25.175H5.35V28.9H16.625ZM12,20.925v2.65h6.65V30.55H3.325V23.575H9.95v-2.65H.825v-1.65H21.1v1.65Z" transform="translate(76.78 47.336)" fill="#1382ce"/>
    </g>
  </g>
</svg>
