<svg xmlns="http://www.w3.org/2000/svg" xmlns:xlink="http://www.w3.org/1999/xlink" width="217.671" height="249.231" viewBox="0 0 217.671 249.231">
  <defs>
    <filter id="Combined_Shape" x="0" y="0" width="217.671" height="168.087" filterUnits="userSpaceOnUse">
      <feOffset dy="5" input="SourceAlpha"/>
      <feGaussianBlur stdDeviation="8" result="blur"/>
      <feFlood flood-color="#4b556e" flood-opacity="0.2"/>
      <feComposite operator="in" in2="blur"/>
      <feComposite in="SourceGraphic"/>
    </filter>
  </defs>
  <g id="_1-2_graph_01" data-name="1-2_graph_01" transform="translate(-968 -186.212)">
    <path id="_8:00" data-name="8:00" d="M-38.668-2.268V0h-13.8V-1.795l7.084-6.814q.812-.869,1.5-1.641a11.565,11.565,0,0,0,1.176-1.556,7.973,7.973,0,0,0,.77-1.584,5.1,5.1,0,0,0,.28-1.7,4.507,4.507,0,0,0-.308-1.6,2.964,2.964,0,0,0-.8-1.122,3.46,3.46,0,0,0-1.2-.673,4.7,4.7,0,0,0-1.47-.224,4.578,4.578,0,0,0-1.456.224,3.589,3.589,0,0,0-1.176.644,4.205,4.205,0,0,0-.854.966,3.593,3.593,0,0,0-.49,1.218,5.082,5.082,0,0,0-.112.98l-2.52-.42a7.25,7.25,0,0,1,.784-2.506,6.155,6.155,0,0,1,1.47-1.811,6.085,6.085,0,0,1,2.03-1.106,7.924,7.924,0,0,1,2.464-.373,7.487,7.487,0,0,1,2.436.392,5.886,5.886,0,0,1,2,1.134,5.227,5.227,0,0,1,1.33,1.806,5.853,5.853,0,0,1,.481,2.436,6.344,6.344,0,0,1-.354,2.142,8.355,8.355,0,0,1-.948,1.876,16.486,16.486,0,0,1-1.368,1.75q-.774.868-1.642,1.736l-5.74,5.684a8.706,8.706,0,0,1,1.19-.252,8.226,8.226,0,0,1,1.134-.084Zm17.36-7.952A16.771,16.771,0,0,1-21.9-5.488a10.082,10.082,0,0,1-1.6,3.3A6.308,6.308,0,0,1-25.881-.238a7.05,7.05,0,0,1-2.973.63,7.05,7.05,0,0,1-2.973-.63,6.42,6.42,0,0,1-2.4-1.946,9.726,9.726,0,0,1-1.6-3.3A17.155,17.155,0,0,1-36.4-10.22a17.309,17.309,0,0,1,.575-4.746,9.716,9.716,0,0,1,1.6-3.318,6.42,6.42,0,0,1,2.4-1.946,7.05,7.05,0,0,1,2.973-.63,7.05,7.05,0,0,1,2.973.63A6.308,6.308,0,0,1-23.5-18.284a10.07,10.07,0,0,1,1.6,3.318A16.921,16.921,0,0,1-21.308-10.22Zm-2.6-.014a17.172,17.172,0,0,0-.406-4.053,8.06,8.06,0,0,0-1.092-2.636,4.142,4.142,0,0,0-1.582-1.43,4.246,4.246,0,0,0-1.876-.435,4.246,4.246,0,0,0-1.876.435,4.044,4.044,0,0,0-1.568,1.43,8.273,8.273,0,0,0-1.078,2.636,17.172,17.172,0,0,0-.406,4.053,17.028,17.028,0,0,0,.406,4.025,8.456,8.456,0,0,0,1.078,2.65,4.015,4.015,0,0,0,1.568,1.444,4.246,4.246,0,0,0,1.876.435,4.246,4.246,0,0,0,1.876-.435A4.111,4.111,0,0,0-25.41-3.559a8.236,8.236,0,0,0,1.092-2.65A17.028,17.028,0,0,0-23.912-10.234Zm18.06,8.162V0H-16.94V-2.072h4.564v-14.77q0-.406.028-.714l-3.724,3.332-1.372-1.652,5.516-4.76h2.044V-2.072ZM.2-14.6a5.346,5.346,0,0,0,.28,1.8A3.542,3.542,0,0,0,1.3-11.47a3.387,3.387,0,0,0,1.33.815,5.269,5.269,0,0,0,1.708.267,4.862,4.862,0,0,0,1.876-.337,4.326,4.326,0,0,0,1.386-.9,3.669,3.669,0,0,0,.868-1.334,4.352,4.352,0,0,0,.294-1.559,4.822,4.822,0,0,0-.322-1.812,3.887,3.887,0,0,0-.882-1.349,3.815,3.815,0,0,0-1.344-.843,4.733,4.733,0,0,0-1.68-.295,4.887,4.887,0,0,0-1.778.309,4.113,4.113,0,0,0-1.372.857A3.661,3.661,0,0,0,.5-16.316,4.66,4.66,0,0,0,.2-14.6ZM6.328-8.133Q7.2-9.306,7.448-9.7a5.944,5.944,0,0,1-1.82.966A6.77,6.77,0,0,1,3.5-8.4a6.639,6.639,0,0,1-2.282-.391A5.254,5.254,0,0,1-.658-9.951a5.656,5.656,0,0,1-1.274-1.886,6.51,6.51,0,0,1-.476-2.57,6.421,6.421,0,0,1,.518-2.571,6.424,6.424,0,0,1,1.442-2.1,6.8,6.8,0,0,1,2.2-1.411A7.419,7.419,0,0,1,4.564-21a7.193,7.193,0,0,1,2.744.5,6.246,6.246,0,0,1,2.114,1.4,6.119,6.119,0,0,1,1.358,2.139,7.653,7.653,0,0,1,.476,2.754,8.6,8.6,0,0,1-.168,1.72,8.873,8.873,0,0,1-.49,1.608,11.827,11.827,0,0,1-.77,1.538q-.448.755-1.036,1.594L3.164,0H-.056Zm10.36,8.5a1.8,1.8,0,0,1-1.3-.532,1.866,1.866,0,0,1-.546-1.4A1.961,1.961,0,0,1,15.386-3a1.756,1.756,0,0,1,1.3-.56,1.756,1.756,0,0,1,1.3.56,1.961,1.961,0,0,1,.546,1.428,1.866,1.866,0,0,1-.546,1.4A1.8,1.8,0,0,1,16.688.364Zm18.62-2.436V0H24.22V-2.072h4.564v-14.77q0-.406.028-.714l-3.724,3.332-1.372-1.652,5.516-4.76h2.044V-2.072Zm17.248-.2V0h-13.8V-1.795l7.084-6.814q.812-.869,1.5-1.641a11.565,11.565,0,0,0,1.176-1.556,7.973,7.973,0,0,0,.77-1.584,5.1,5.1,0,0,0,.28-1.7,4.507,4.507,0,0,0-.308-1.6,2.964,2.964,0,0,0-.8-1.122,3.46,3.46,0,0,0-1.2-.673,4.7,4.7,0,0,0-1.47-.224,4.578,4.578,0,0,0-1.456.224,3.589,3.589,0,0,0-1.176.644,4.205,4.205,0,0,0-.854.966,3.593,3.593,0,0,0-.49,1.218,5.082,5.082,0,0,0-.112.98l-2.52-.42a7.25,7.25,0,0,1,.784-2.506,6.155,6.155,0,0,1,1.47-1.811,6.085,6.085,0,0,1,2.03-1.106,7.924,7.924,0,0,1,2.464-.373,7.487,7.487,0,0,1,2.436.392,5.886,5.886,0,0,1,2,1.134,5.227,5.227,0,0,1,1.33,1.806,5.853,5.853,0,0,1,.481,2.436,6.344,6.344,0,0,1-.354,2.142,8.355,8.355,0,0,1-.948,1.876,16.486,16.486,0,0,1-1.368,1.75q-.774.868-1.642,1.736l-5.74,5.684a8.706,8.706,0,0,1,1.19-.252,8.226,8.226,0,0,1,1.134-.084Z" transform="translate(1076.472 435.051)" fill="#6e6e6e"/>
    <g id="그룹_4092" data-name="그룹 4092" transform="translate(997.077 205.212)">
      <g transform="matrix(1, 0, 0, 1, -29.08, -19)" filter="url(#Combined_Shape)">
        <path id="Combined_Shape-2" data-name="Combined Shape" d="M67.409,107.167H8a8,8,0,0,1-8-8V8A8,8,0,0,1,8,0H161.671a8,8,0,0,1,8,8V99.167a8,8,0,0,1-8,8h-59.41l-17.426,12.92Z" transform="translate(24 19)" fill="#fff"/>
      </g>
      <path id="_8:00-2" data-name="8:00" d="M-41.95-12.125a16.511,16.511,0,0,0,2.975-.55,11.045,11.045,0,0,0,2.45-1A5.835,5.835,0,0,0-34.85-15.05a3.083,3.083,0,0,0,.7-1.725h-6.925v-1.6h7.025V-20.7H-32v2.325h7.025v1.6h-6.95a3.083,3.083,0,0,0,.7,1.725,5.835,5.835,0,0,0,1.675,1.375,11.045,11.045,0,0,0,2.45,1,16.521,16.521,0,0,0,3,.55l-.65,1.55a20.429,20.429,0,0,1-2.65-.463,13.119,13.119,0,0,1-2.363-.813,9.123,9.123,0,0,1-1.925-1.175,5.617,5.617,0,0,1-1.338-1.525,5.53,5.53,0,0,1-1.35,1.525,9.439,9.439,0,0,1-1.937,1.175,13.12,13.12,0,0,1-2.362.813,20.429,20.429,0,0,1-2.65.463ZM-32-7.65v2.6h6.6V1.775h-2.05V-3.45H-40.925v-1.6h6.875v-2.6h-9.125V-9.3H-22.9v1.65ZM-.85-7.8h-9.2V1.875H-12.1V-7.8h-9.05V-9.475H-6.275a26.431,26.431,0,0,0,.613-4.275q.087-1.85.087-3.425v-.3h-13.05v-1.65H-3.55v1.95q0,1.575-.076,3.425A28.422,28.422,0,0,1-4.18-9.475H-.85ZM10.963.225A10.891,10.891,0,0,0,15.078-.4q1.472-.622,1.472-1.766T15.078-3.928a10.891,10.891,0,0,0-4.116-.622,10.891,10.891,0,0,0-4.116.622q-1.472.622-1.472,1.766T6.847-.4A10.891,10.891,0,0,0,10.963.225ZM10.95-6.15a12.509,12.509,0,0,1,5.632,1.037A3.227,3.227,0,0,1,18.6-2.15,3.2,3.2,0,0,1,16.582.8,12.642,12.642,0,0,1,10.95,1.825,12.656,12.656,0,0,1,5.331.8,3.2,3.2,0,0,1,3.3-2.15,3.227,3.227,0,0,1,5.331-5.113,12.523,12.523,0,0,1,10.95-6.15ZM7.85-9.475h6.225V-12.1q-.7.125-1.475.188t-1.65.062q-.85,0-1.625-.062T7.85-12.1ZM5.2-16.013q0,1.194,1.534,1.878a10.613,10.613,0,0,0,4.228.684,10.613,10.613,0,0,0,4.228-.684q1.534-.684,1.534-1.878,0-1.219-1.534-1.891a10.791,10.791,0,0,0-4.228-.672,10.79,10.79,0,0,0-4.228.672Q5.2-17.232,5.2-16.013ZM21.1-9.475v1.65H.8v-1.65H5.825v-3.15a5.132,5.132,0,0,1-2.05-1.388A3,3,0,0,1,3.075-16a2.951,2.951,0,0,1,.55-1.75A4.369,4.369,0,0,1,5.2-19.063a9.17,9.17,0,0,1,2.475-.825,16.923,16.923,0,0,1,3.275-.288,17.119,17.119,0,0,1,3.287.288,8.976,8.976,0,0,1,2.475.825,4.393,4.393,0,0,1,1.563,1.313,2.951,2.951,0,0,1,.55,1.75,2.982,2.982,0,0,1-.712,1.975A5.009,5.009,0,0,1,16.1-12.65v3.175ZM35.725-18.2H30.15v4.7h5.575Zm-7.625,0H24.725v-1.65h16.45v1.65h-3.4v4.7h3.3v1.65H24.8V-13.5h3.3ZM38.625-3.825H27.35V-.1H38.625ZM34-8.075v2.65h6.65V1.55H25.325V-5.425H31.95v-2.65H22.825v-1.65H43.1v1.65Z" transform="translate(78.923 62.839)" fill="#1382ce"/>
    </g>
  </g>
</svg>
