<svg xmlns="http://www.w3.org/2000/svg" xmlns:xlink="http://www.w3.org/1999/xlink" width="217.671" height="277.276" viewBox="0 0 217.671 277.276">
  <defs>
    <filter id="Combined_Shape" x="0" y="0" width="217.671" height="168.087" filterUnits="userSpaceOnUse">
      <feOffset dy="5" input="SourceAlpha"/>
      <feGaussianBlur stdDeviation="8" result="blur"/>
      <feFlood flood-color="#4b556e" flood-opacity="0.2"/>
      <feComposite operator="in" in2="blur"/>
      <feComposite in="SourceGraphic"/>
    </filter>
  </defs>
  <g id="_1-2_graph_02" data-name="1-2_graph_02" transform="translate(-1251 -158.167)">
    <path id="_12:00" data-name="12:00" d="M-38.668-2.268V0h-13.8V-1.795l7.084-6.814q.812-.869,1.5-1.641a11.565,11.565,0,0,0,1.176-1.556,7.973,7.973,0,0,0,.77-1.584,5.1,5.1,0,0,0,.28-1.7,4.507,4.507,0,0,0-.308-1.6,2.964,2.964,0,0,0-.8-1.122,3.46,3.46,0,0,0-1.2-.673,4.7,4.7,0,0,0-1.47-.224,4.578,4.578,0,0,0-1.456.224,3.589,3.589,0,0,0-1.176.644,4.205,4.205,0,0,0-.854.966,3.593,3.593,0,0,0-.49,1.218,5.082,5.082,0,0,0-.112.98l-2.52-.42a7.25,7.25,0,0,1,.784-2.506,6.155,6.155,0,0,1,1.47-1.811,6.085,6.085,0,0,1,2.03-1.106,7.924,7.924,0,0,1,2.464-.373,7.487,7.487,0,0,1,2.436.392,5.886,5.886,0,0,1,2,1.134,5.227,5.227,0,0,1,1.33,1.806,5.853,5.853,0,0,1,.481,2.436,6.344,6.344,0,0,1-.354,2.142,8.355,8.355,0,0,1-.948,1.876,16.486,16.486,0,0,1-1.368,1.75q-.774.868-1.642,1.736l-5.74,5.684a8.706,8.706,0,0,1,1.19-.252,8.226,8.226,0,0,1,1.134-.084Zm17.36-7.952A16.771,16.771,0,0,1-21.9-5.488a10.082,10.082,0,0,1-1.6,3.3A6.308,6.308,0,0,1-25.881-.238a7.05,7.05,0,0,1-2.973.63,7.05,7.05,0,0,1-2.973-.63,6.42,6.42,0,0,1-2.4-1.946,9.726,9.726,0,0,1-1.6-3.3A17.155,17.155,0,0,1-36.4-10.22a17.309,17.309,0,0,1,.575-4.746,9.716,9.716,0,0,1,1.6-3.318,6.42,6.42,0,0,1,2.4-1.946,7.05,7.05,0,0,1,2.973-.63,7.05,7.05,0,0,1,2.973.63A6.308,6.308,0,0,1-23.5-18.284a10.07,10.07,0,0,1,1.6,3.318A16.921,16.921,0,0,1-21.308-10.22Zm-2.6-.014a17.172,17.172,0,0,0-.406-4.053,8.06,8.06,0,0,0-1.092-2.636,4.142,4.142,0,0,0-1.582-1.43,4.246,4.246,0,0,0-1.876-.435,4.246,4.246,0,0,0-1.876.435,4.044,4.044,0,0,0-1.568,1.43,8.273,8.273,0,0,0-1.078,2.636,17.172,17.172,0,0,0-.406,4.053,17.028,17.028,0,0,0,.406,4.025,8.456,8.456,0,0,0,1.078,2.65,4.015,4.015,0,0,0,1.568,1.444,4.246,4.246,0,0,0,1.876.435,4.246,4.246,0,0,0,1.876-.435A4.111,4.111,0,0,0-25.41-3.559a8.236,8.236,0,0,0,1.092-2.65A17.028,17.028,0,0,0-23.912-10.234Zm18.62,7.966V0H-19.1V-1.795l7.084-6.814q.812-.869,1.5-1.641a11.565,11.565,0,0,0,1.176-1.556,7.974,7.974,0,0,0,.77-1.584,5.1,5.1,0,0,0,.28-1.7,4.507,4.507,0,0,0-.308-1.6,2.964,2.964,0,0,0-.8-1.122,3.46,3.46,0,0,0-1.2-.673,4.7,4.7,0,0,0-1.47-.224,4.578,4.578,0,0,0-1.456.224,3.589,3.589,0,0,0-1.176.644,4.205,4.205,0,0,0-.854.966,3.593,3.593,0,0,0-.49,1.218,5.082,5.082,0,0,0-.112.98l-2.52-.42a7.25,7.25,0,0,1,.784-2.506,6.155,6.155,0,0,1,1.47-1.811,6.085,6.085,0,0,1,2.03-1.106,7.924,7.924,0,0,1,2.464-.373,7.487,7.487,0,0,1,2.436.392,5.886,5.886,0,0,1,2,1.134,5.227,5.227,0,0,1,1.33,1.806,5.853,5.853,0,0,1,.481,2.436,6.344,6.344,0,0,1-.354,2.142A8.355,8.355,0,0,1-6.986-11.1a16.486,16.486,0,0,1-1.368,1.75Q-9.128-8.484-10-7.616l-5.74,5.684a8.706,8.706,0,0,1,1.19-.252,8.226,8.226,0,0,1,1.134-.084Zm17.36-7.952a16.771,16.771,0,0,1-.589,4.732,10.082,10.082,0,0,1-1.6,3.3A6.308,6.308,0,0,1,7.5-.238a7.05,7.05,0,0,1-2.973.63,7.05,7.05,0,0,1-2.973-.63A6.42,6.42,0,0,1-.85-2.184a9.726,9.726,0,0,1-1.6-3.3,17.155,17.155,0,0,1-.575-4.732,17.309,17.309,0,0,1,.575-4.746,9.716,9.716,0,0,1,1.6-3.318,6.42,6.42,0,0,1,2.4-1.946,7.05,7.05,0,0,1,2.973-.63,7.05,7.05,0,0,1,2.973.63A6.308,6.308,0,0,1,9.88-18.284a10.07,10.07,0,0,1,1.6,3.318A16.921,16.921,0,0,1,12.068-10.22Zm-2.6-.014a17.172,17.172,0,0,0-.406-4.053,8.06,8.06,0,0,0-1.092-2.636,4.142,4.142,0,0,0-1.582-1.43,4.246,4.246,0,0,0-1.876-.435,4.246,4.246,0,0,0-1.876.435,4.044,4.044,0,0,0-1.568,1.43A8.273,8.273,0,0,0-.014-14.287,17.172,17.172,0,0,0-.42-10.234,17.028,17.028,0,0,0-.014-6.209a8.457,8.457,0,0,0,1.078,2.65A4.015,4.015,0,0,0,2.632-2.115a4.246,4.246,0,0,0,1.876.435,4.246,4.246,0,0,0,1.876-.435A4.111,4.111,0,0,0,7.966-3.559a8.236,8.236,0,0,0,1.092-2.65A17.028,17.028,0,0,0,9.464-10.234ZM16.688.364a1.8,1.8,0,0,1-1.3-.532,1.866,1.866,0,0,1-.546-1.4A1.961,1.961,0,0,1,15.386-3a1.756,1.756,0,0,1,1.3-.56,1.756,1.756,0,0,1,1.3.56,1.961,1.961,0,0,1,.546,1.428,1.866,1.866,0,0,1-.546,1.4A1.8,1.8,0,0,1,16.688.364ZM36.54-10.22a16.771,16.771,0,0,1-.589,4.732,10.082,10.082,0,0,1-1.6,3.3A6.308,6.308,0,0,1,31.967-.238a7.05,7.05,0,0,1-2.973.63,7.05,7.05,0,0,1-2.973-.63,6.42,6.42,0,0,1-2.4-1.946,9.726,9.726,0,0,1-1.6-3.3,17.155,17.155,0,0,1-.575-4.732,17.309,17.309,0,0,1,.575-4.746,9.716,9.716,0,0,1,1.6-3.318,6.42,6.42,0,0,1,2.4-1.946,7.05,7.05,0,0,1,2.973-.63,7.05,7.05,0,0,1,2.973.63,6.308,6.308,0,0,1,2.384,1.946,10.07,10.07,0,0,1,1.6,3.318A16.921,16.921,0,0,1,36.54-10.22Zm-2.6-.014a17.172,17.172,0,0,0-.406-4.053,8.06,8.06,0,0,0-1.092-2.636,4.142,4.142,0,0,0-1.582-1.43,4.246,4.246,0,0,0-1.876-.435,4.246,4.246,0,0,0-1.876.435,4.044,4.044,0,0,0-1.568,1.43,8.273,8.273,0,0,0-1.078,2.636,17.172,17.172,0,0,0-.406,4.053,17.028,17.028,0,0,0,.406,4.025,8.456,8.456,0,0,0,1.078,2.65A4.015,4.015,0,0,0,27.1-2.115a4.246,4.246,0,0,0,1.876.435,4.246,4.246,0,0,0,1.876-.435,4.111,4.111,0,0,0,1.582-1.444,8.236,8.236,0,0,0,1.092-2.65A17.029,17.029,0,0,0,33.936-10.234ZM52-2.072V0H40.908V-2.072h4.564v-14.77q0-.406.028-.714l-3.724,3.332L40.4-15.876l5.516-4.76h2.044V-2.072Z" transform="translate(1360.472 435.051)" fill="#6e6e6e"/>
    <g id="그룹_4093" data-name="그룹 4093" transform="translate(1279.844 177.167)">
      <g transform="matrix(1, 0, 0, 1, -28.84, -19)" filter="url(#Combined_Shape)">
        <path id="Combined_Shape-2" data-name="Combined Shape" d="M67.409,107.167H8a8,8,0,0,1-8-8V8A8,8,0,0,1,8,0H161.671a8,8,0,0,1,8,8V99.167a8,8,0,0,1-8,8h-59.41l-17.426,12.92Z" transform="translate(24 19)" fill="#fff"/>
      </g>
      <path id="_8:00" data-name="8:00" d="M-18.875-16.175H-32.1v-1.65h5.575V-20.55h2.05v2.725h5.6Zm-10.025,5.4a2.223,2.223,0,0,0,.925,1.887A4.055,4.055,0,0,0-25.5-8.2a4.124,4.124,0,0,0,2.475-.688,2.2,2.2,0,0,0,.95-1.887,2.18,2.18,0,0,0-.95-1.863,4.124,4.124,0,0,0-2.475-.688,4.055,4.055,0,0,0-2.475.688A2.2,2.2,0,0,0-28.9-10.775Zm8.775,0a3.8,3.8,0,0,1-.388,1.725,3.7,3.7,0,0,1-1.1,1.313,5.4,5.4,0,0,1-1.7.837,7.5,7.5,0,0,1-2.187.3,7.379,7.379,0,0,1-2.175-.3,5.421,5.421,0,0,1-1.687-.837,3.7,3.7,0,0,1-1.1-1.312,3.8,3.8,0,0,1-.388-1.725,3.748,3.748,0,0,1,.388-1.7,3.7,3.7,0,0,1,1.1-1.312,5.422,5.422,0,0,1,1.688-.838,7.379,7.379,0,0,1,2.175-.3,7.5,7.5,0,0,1,2.188.3,5.4,5.4,0,0,1,1.7.838,3.7,3.7,0,0,1,1.1,1.313A3.748,3.748,0,0,1-20.125-10.775Zm-6.55,10.45h12.9V1.35h-14.95V-5.075h2.05Zm15.225-12.85v1.725h-3.325v7.7h-2.05v-16.8h2.05v7.375ZM6.225-14.75v-5.8h2.05V-7.2H6.225v-5.875H1.8V-14.75Zm-4.2,6.7a9.277,9.277,0,0,1-3.275-2A8.927,8.927,0,0,1-3.375-13.1a9.684,9.684,0,0,1-2.2,3.45A9.524,9.524,0,0,1-9.025-7.4L-10.1-9.025A8.751,8.751,0,0,0-7.812-10.25a8.964,8.964,0,0,0,1.788-1.762A7.959,7.959,0,0,0-4.862-14.15,6.911,6.911,0,0,0-4.45-16.5v-.775h-5v-1.65H2.525v1.65H-2.4v.775A5.927,5.927,0,0,0-2-14.375a7.331,7.331,0,0,0,1.112,1.95A8.616,8.616,0,0,0,.825-10.8,8.526,8.526,0,0,0,3.05-9.65ZM.9.25A9.575,9.575,0,0,0,4.888-.425a2.092,2.092,0,0,0,1.438-1.9A2.115,2.115,0,0,0,4.888-4.238,9.421,9.421,0,0,0,.9-4.925a9.42,9.42,0,0,0-3.988.688A2.115,2.115,0,0,0-4.525-2.325a2.092,2.092,0,0,0,1.438,1.9A9.575,9.575,0,0,0,.9.25ZM.888-6.525a15.785,15.785,0,0,1,3.095.276,8.14,8.14,0,0,1,2.346.815A4.116,4.116,0,0,1,7.813-4.118a3.164,3.164,0,0,1,.512,1.78,3.164,3.164,0,0,1-.512,1.78A4.116,4.116,0,0,1,6.328.759a8.14,8.14,0,0,1-2.346.815A15.785,15.785,0,0,1,.888,1.85,15.979,15.979,0,0,1-2.22,1.574,7.968,7.968,0,0,1-4.566.759,4.257,4.257,0,0,1-6.051-.557a3.11,3.11,0,0,1-.524-1.78,3.11,3.11,0,0,1,.524-1.78A4.257,4.257,0,0,1-4.566-5.434,7.968,7.968,0,0,1-2.22-6.249,15.979,15.979,0,0,1,.888-6.525ZM16.75-9.15l1.763-.05q.894-.025,1.787-.075v-7.55H16.75Zm8.95.95q-1.675.275-3.462.425t-3.55.238q-1.763.088-3.437.112T12.125-7.4L11.9-9.075h1.363q.712,0,1.462-.025v-7.725h-2.2v-1.65H24.5v1.65H22.275v7.4q1.7-.075,3.275-.3ZM17.325-.325h12.9V1.35H15.275V-5.6h2.05ZM32.55-13.75v1.675H29.225v8h-2.05v-16.5h2.05v6.825ZM-10,24.15a3.05,3.05,0,0,0,.6,1.813,5.907,5.907,0,0,0,1.625,1.5,10.025,10.025,0,0,0,2.387,1.1,15.042,15.042,0,0,0,2.862.612L-3.2,30.75a16.92,16.92,0,0,1-2.525-.525A12.619,12.619,0,0,1-7.95,29.35a9.607,9.607,0,0,1-1.825-1.2,5.507,5.507,0,0,1-1.275-1.525,5.986,5.986,0,0,1-1.312,1.5,9.986,9.986,0,0,1-1.838,1.2,13.318,13.318,0,0,1-2.225.887,16.024,16.024,0,0,1-2.5.538l-.7-1.575a13.885,13.885,0,0,0,2.862-.637,11.424,11.424,0,0,0,2.4-1.113,5.7,5.7,0,0,0,1.637-1.487,3.014,3.014,0,0,0,.6-1.788v-.775H-10Zm9.2-6.875V18.95h-9.225v3.475h-2.05V18.95h-9.1V17.275h15.1a24.405,24.405,0,0,0,.513-3.538q.087-1.512.088-2.712h-13.1V9.35H-3.45v1.475q0,1.225-.063,2.788A23.472,23.472,0,0,1-4,17.275ZM1.8,20.65a11.2,11.2,0,0,0,2.9-.937A12.127,12.127,0,0,0,7.313,18.05,8.55,8.55,0,0,0,9.2,15.85a4.938,4.938,0,0,0,.725-2.55v-.975H2.5V10.65H19.475v1.675H12.05V13.3a4.873,4.873,0,0,0,.725,2.537,8.53,8.53,0,0,0,1.9,2.188,12.091,12.091,0,0,0,5.55,2.55l-.825,1.65a13,13,0,0,1-2.55-.787,13.38,13.38,0,0,1-2.4-1.312,12.037,12.037,0,0,1-2.025-1.75A8.054,8.054,0,0,1,11,16.25a8.107,8.107,0,0,1-1.425,2.162,11.97,11.97,0,0,1-2.012,1.763A13.344,13.344,0,0,1,5.2,21.487a12.441,12.441,0,0,1-2.525.788ZM21.175,26.2v1.675H.825V26.2Z" transform="translate(79.156 46.884)" fill="#1382ce"/>
    </g>
  </g>
</svg>
