<svg id="_2-2_03" data-name="2-2_03" xmlns="http://www.w3.org/2000/svg" width="39.969" height="39.446" viewBox="0 0 39.969 39.446">
  <path id="패스_2237" data-name="패스 2237" d="M1860.9,617.885h-21.318a12.545,12.545,0,0,1-9.325,10.833c1.55,8.362,6.276,19.931,19.868,28.614h.233c13.592-8.683,18.318-20.252,19.868-28.614A12.545,12.545,0,0,1,1860.9,617.885Z" transform="translate(-1830.261 -617.885)" fill="#d3d3d3"/>
  <g id="그룹_4237" data-name="그룹 4237" transform="translate(1.812 0)">
    <path id="패스_2238" data-name="패스 2238" d="M1933.856,621.22l4.07-2.985c-.016-.117-.031-.233-.043-.351H1932.9l-4.548,3.335Z" transform="translate(-1909.045 -617.885)" fill="#fff" opacity="0.6"/>
    <path id="패스_2239" data-name="패스 2239" d="M1966.953,637.7l2.517-1.846a12.5,12.5,0,0,1-1.563-2.84l-2.3,1.684A10.36,10.36,0,0,0,1966.953,637.7Z" transform="translate(-1938.28 -629.755)" fill="#fff" opacity="0.6"/>
    <path id="패스_2240" data-name="패스 2240" d="M1994.178,666.259c-.033.18-.069.362-.106.546l2.986-2.19a12.448,12.448,0,0,1-2-.8l-2.539,1.862A10.325,10.325,0,0,0,1994.178,666.259Z" transform="translate(-1959.395 -653.923)" fill="#fff" opacity="0.6"/>
    <path id="패스_2241" data-name="패스 2241" d="M1841.06,691.023l-2.383,1.747c.368,1.018.788,2.056,1.266,3.106l2.227-1.633C1841.73,693.144,1841.362,692.066,1841.06,691.023Z" transform="translate(-1838.677 -675.275)" fill="#fff" opacity="0.6"/>
    <path id="패스_2242" data-name="패스 2242" d="M1852.54,718.048l-2.135,1.566q.749,1.384,1.649,2.777l2.071-1.518Q1853.239,719.455,1852.54,718.048Z" transform="translate(-1847.88 -696.482)" fill="#fff" opacity="0.6"/>
    <path id="패스_2243" data-name="패스 2243" d="M1897.814,773.405l-2.143,1.66q1.185,1.023,2.5,2.015l2.255-1.747C1899.5,774.706,1898.634,774.061,1897.814,773.405Z" transform="translate(-1883.399 -739.919)" fill="#fff" opacity="0.6"/>
  </g>
  <path id="패스_2244" data-name="패스 2244" d="M1871.418,633.376h-17.713a10.424,10.424,0,0,1-7.748,9c1.288,6.948,5.215,16.56,16.508,23.775h.193c11.293-7.215,15.22-16.827,16.508-23.775A10.424,10.424,0,0,1,1871.418,633.376Z" transform="translate(-1842.578 -630.041)" fill="#b2b2b2"/>
  <path id="패스_2245" data-name="패스 2245" d="M1853.705,635.6h17.713a10.423,10.423,0,0,0,7.294,8.87c.179-.72.33-1.42.455-2.094a10.424,10.424,0,0,1-7.748-9h-17.713a10.424,10.424,0,0,1-7.748,9c.125.674.276,1.374.455,2.094A10.424,10.424,0,0,0,1853.705,635.6Z" transform="translate(-1842.578 -630.041)" fill="#8c8c8c"/>
  <g id="그룹_4238" data-name="그룹 4238" transform="translate(7.567 12.747)">
    <path id="패스_2246" data-name="패스 2246" d="M1873.01,689.576c-.252-.185-.536-.389-.845-.607a1.728,1.728,0,0,0-.117-2.695s-1.212,1.324-.236,2.449c-.569-.394-1.212-.823-1.9-1.255-.045-.028-.087-.058-.131-.087a1.711,1.711,0,0,0,.28-2.616s-1.375,1.051-.7,2.3a5.355,5.355,0,0,1-1.548-2.157,1.724,1.724,0,0,0,1.581-2.168s-1.777.271-1.719,1.763a5.612,5.612,0,0,1-.148-2.7,1.719,1.719,0,0,0,2.281-1.389,2.1,2.1,0,0,0-2.064.57,6.311,6.311,0,0,1,1.06-1.9l-.085-.07a1.713,1.713,0,0,0,1.815-1.925s-2.046.021-1.957,1.822a6.872,6.872,0,0,0-.722,1.1,1.732,1.732,0,0,0-.98-1.587s-1.1,1.775.538,2.657a5.958,5.958,0,0,0-.254,2.2,1.714,1.714,0,0,0-1.752-.841s.087,2.073,1.922,1.893a5.768,5.768,0,0,0,.855,1.867,1.7,1.7,0,0,0-2,.038s1.077,1.83,2.638.733l-.012-.025a5.432,5.432,0,0,0,.957.765c.355.223.7.444,1.023.66a1.674,1.674,0,0,0-2.2.924s1.811,1.015,2.622-.64c.546.369,1.191.817,1.607,1.119" transform="translate(-1865.403 -677.085)" fill="#d3d3d3"/>
    <path id="패스_2247" data-name="패스 2247" d="M1945.419,689.576c.252-.185.535-.389.845-.607a1.728,1.728,0,0,1,.117-2.695s1.212,1.324.236,2.449c.569-.394,1.212-.823,1.9-1.255.045-.028.088-.058.132-.087a1.711,1.711,0,0,1-.28-2.616s1.375,1.051.7,2.3a5.344,5.344,0,0,0,1.548-2.157,1.724,1.724,0,0,1-1.58-2.168s1.777.271,1.719,1.763a5.605,5.605,0,0,0,.148-2.7,1.719,1.719,0,0,1-2.281-1.389,2.1,2.1,0,0,1,2.064.57,6.306,6.306,0,0,0-1.06-1.9l.085-.07a1.712,1.712,0,0,1-1.815-1.925s2.046.021,1.956,1.822a6.839,6.839,0,0,1,.722,1.1,1.734,1.734,0,0,1,.98-1.587s1.1,1.775-.537,2.657a5.971,5.971,0,0,1,.254,2.2,1.714,1.714,0,0,1,1.751-.841s-.088,2.073-1.922,1.893a5.781,5.781,0,0,1-.855,1.867,1.7,1.7,0,0,1,2.005.038s-1.077,1.83-2.639.733c0,0,0-.009.013-.025a5.444,5.444,0,0,1-.958.765c-.355.223-.7.444-1.022.66a1.673,1.673,0,0,1,2.2.924s-1.81,1.015-2.621-.64c-.545.369-1.191.817-1.607,1.119" transform="translate(-1928.19 -677.085)" fill="#d3d3d3"/>
  </g>
  <g id="그룹_4239" data-name="그룹 4239" transform="translate(12.526 9.072)">
    <path id="패스_2248" data-name="패스 2248" d="M1891.369,675.842a10.206,10.206,0,0,1-2.931-1.143l2.021-3.864a10.36,10.36,0,0,0,5.24,1.443,3.793,3.793,0,0,0,1.532-.244q.533-.244.533-.666,0-.4-.544-.644a10.942,10.942,0,0,0-1.721-.533,21.132,21.132,0,0,1-2.575-.81,4.76,4.76,0,0,1-1.787-1.266,3.249,3.249,0,0,1-.766-2.254,5.153,5.153,0,0,1,.944-3.075,6.02,6.02,0,0,1,2.72-2.043,11.121,11.121,0,0,1,4.2-.721,14.427,14.427,0,0,1,3.231.344,9.039,9.039,0,0,1,2.587.988l-1.888,3.819a7.1,7.1,0,0,0-2.01-.866,8.845,8.845,0,0,0-2.254-.289,3.73,3.73,0,0,0-1.688.311q-.6.311-.6.733t.544.666a10.687,10.687,0,0,0,1.787.533,19.609,19.609,0,0,1,2.543.755,4.6,4.6,0,0,1,1.787,1.243,3.207,3.207,0,0,1,.755,2.22,5.03,5.03,0,0,1-.955,3.042,6.124,6.124,0,0,1-2.731,2.032,11.057,11.057,0,0,1-4.174.722A16,16,0,0,1,1891.369,675.842Z" transform="translate(-1888.438 -660.021)" fill="#fff"/>
  </g>
  <path id="패스_2249" data-name="패스 2249" d="M1839.863,744.155c10.776-5.71,21.285-5.86,32.06-.149l2.5-6.053c-10.776-5.71-26.021-5.325-36.8.387Z" transform="translate(-1836.04 -708.888)" fill="#2c5b89"/>
  <path id="패스_2250" data-name="패스 2250" d="M1843.936,733.54a36.573,36.573,0,0,1,30.164,0l2.6-7.047a45.972,45.972,0,0,0-35.073,0Z" transform="translate(-1839.181 -700.381)" fill="#4081db"/>
  <g id="그룹_4240" data-name="그룹 4240" transform="translate(12.738 24.584)">
    <path id="패스_2251" data-name="패스 2251" d="M1890.152,738.142a1.622,1.622,0,0,1-.563-.185l.171-.55a1.6,1.6,0,0,0,.485.171,1.732,1.732,0,0,0,.541.021.852.852,0,0,0,.425-.141.267.267,0,0,0,.113-.25.224.224,0,0,0-.105-.167.64.64,0,0,0-.227-.087q-.136-.027-.364-.051a4.885,4.885,0,0,1-.58-.094.917.917,0,0,1-.406-.215.708.708,0,0,1-.215-.46.837.837,0,0,1,.084-.49.956.956,0,0,1,.384-.388,1.754,1.754,0,0,1,.679-.209,2.328,2.328,0,0,1,.568,0,1.679,1.679,0,0,1,.5.138l-.149.552a1.684,1.684,0,0,0-.858-.134.784.784,0,0,0-.418.147.29.29,0,0,0-.109.265.245.245,0,0,0,.189.209,2.518,2.518,0,0,0,.507.088,4.914,4.914,0,0,1,.58.094.935.935,0,0,1,.406.211.7.7,0,0,1,.214.456.821.821,0,0,1-.086.486.967.967,0,0,1-.388.388,1.762,1.762,0,0,1-.681.209A2.466,2.466,0,0,1,1890.152,738.142Z" transform="translate(-1889.42 -734.391)" fill="#fff"/>
    <path id="패스_2252" data-name="패스 2252" d="M1905.019,738.514l-1.749.114a.547.547,0,0,0,.246.325.741.741,0,0,0,.447.1.886.886,0,0,0,.317-.074.776.776,0,0,0,.249-.187l.382.363a1.2,1.2,0,0,1-.929.436,1.513,1.513,0,0,1-.7-.107,1.12,1.12,0,0,1-.492-.393,1.172,1.172,0,0,1-.2-.6,1.184,1.184,0,0,1,.121-.623,1.13,1.13,0,0,1,.415-.454,1.374,1.374,0,0,1,1.243-.088,1.07,1.07,0,0,1,.459.391,1.252,1.252,0,0,1,.2.624C1905.021,738.341,1905.02,738.4,1905.019,738.514Zm-1.617-.641a.552.552,0,0,0-.166.365l1.139-.074a.555.555,0,0,0-.212-.338.567.567,0,0,0-.387-.106A.578.578,0,0,0,1903.4,737.873Z" transform="translate(-1899.746 -736.1)" fill="#fff"/>
    <path id="패스_2253" data-name="패스 2253" d="M1918.157,736.98a1.025,1.025,0,0,1,.271.765l.01,1.326-.672,0-.009-1.223a.606.606,0,0,0-.123-.41.442.442,0,0,0-.35-.133.534.534,0,0,0-.4.16.651.651,0,0,0-.147.469l.008,1.145-.672,0-.017-2.317.642,0,0,.272a.889.889,0,0,1,.33-.229,1.149,1.149,0,0,1,.435-.083A.952.952,0,0,1,1918.157,736.98Z" transform="translate(-1910.318 -735.722)" fill="#fff"/>
    <path id="패스_2254" data-name="패스 2254" d="M1929.877,733.121l.672.024-.083,2.315-.671-.024Zm.05-.429a.365.365,0,0,1,.019-.534.424.424,0,0,1,.305-.1.436.436,0,0,1,.3.114.332.332,0,0,1,.107.262.365.365,0,0,1-.126.273.42.42,0,0,1-.305.1A.426.426,0,0,1,1929.927,732.692Z" transform="translate(-1921.101 -732.061)" fill="#fff"/>
    <path id="패스_2255" data-name="패스 2255" d="M1935.828,739.6a1.135,1.135,0,0,1-.42-.458,1.242,1.242,0,0,1,.1-1.228,1.135,1.135,0,0,1,.486-.388,1.482,1.482,0,0,1,1.307.1,1.144,1.144,0,0,1,.418.458,1.24,1.24,0,0,1-.1,1.228,1.141,1.141,0,0,1-.484.388,1.483,1.483,0,0,1-1.307-.1Zm1.122-.487a.742.742,0,0,0,.073-.932.56.56,0,0,0-.41-.207.567.567,0,0,0-.439.141.735.735,0,0,0-.073.932.568.568,0,0,0,.412.207A.56.56,0,0,0,1936.951,739.112Z" transform="translate(-1925.413 -736.265)" fill="#fff"/>
    <path id="패스_2256" data-name="패스 2256" d="M1949.814,738.554a1.209,1.209,0,0,1,.479-.026l-.078.615q-.11-.022-.148-.028a.618.618,0,0,0-.469.1.654.654,0,0,0-.223.46l-.138,1.085-.666-.084.292-2.3.637.081-.039.3A.748.748,0,0,1,1949.814,738.554Z" transform="translate(-1935.834 -737.02)" fill="#fff"/>
  </g>
</svg>
