<svg id="_2-2_04" data-name="2-2_04" xmlns="http://www.w3.org/2000/svg" width="39.969" height="39.446" viewBox="0 0 39.969 39.446">
  <path id="패스_2257" data-name="패스 2257" d="M2082.323,617.885h-21.318a12.546,12.546,0,0,1-9.325,10.833c1.55,8.362,6.276,19.931,19.868,28.614h.232c13.592-8.683,18.318-20.252,19.868-28.614A12.545,12.545,0,0,1,2082.323,617.885Z" transform="translate(-2051.68 -617.885)" fill="#ffde3b"/>
  <g id="그룹_4242" data-name="그룹 4242" transform="translate(1.806 0)">
    <path id="패스_2258" data-name="패스 2258" d="M2155.248,621.22l4.071-2.985c-.015-.117-.031-.233-.043-.351h-4.98l-4.548,3.335Z" transform="translate(-2130.437 -617.885)" fill="#e6f3ff" opacity="0.6"/>
    <path id="패스_2259" data-name="패스 2259" d="M2188.345,637.7l2.517-1.846a12.5,12.5,0,0,1-1.563-2.84L2187,634.7A10.359,10.359,0,0,0,2188.345,637.7Z" transform="translate(-2159.671 -629.755)" fill="#e6f3ff" opacity="0.6"/>
    <path id="패스_2260" data-name="패스 2260" d="M2215.57,666.259c-.034.18-.07.362-.107.546l2.986-2.19a12.438,12.438,0,0,1-2-.8l-2.54,1.862A10.311,10.311,0,0,0,2215.57,666.259Z" transform="translate(-2180.787 -653.923)" fill="#e6f3ff" opacity="0.6"/>
    <path id="패스_2261" data-name="패스 2261" d="M2062.452,691.023l-2.383,1.747c.368,1.018.788,2.056,1.266,3.106l2.227-1.633C2063.122,693.144,2062.755,692.066,2062.452,691.023Z" transform="translate(-2060.069 -675.275)" fill="#e6f3ff" opacity="0.6"/>
    <path id="패스_2262" data-name="패스 2262" d="M2073.932,718.048l-2.135,1.566q.75,1.384,1.649,2.778l2.071-1.519Q2074.631,719.455,2073.932,718.048Z" transform="translate(-2069.272 -696.482)" fill="#e6f3ff" opacity="0.6"/>
    <path id="패스_2263" data-name="패스 2263" d="M2119.206,773.405l-2.143,1.66q1.185,1.023,2.5,2.015l2.255-1.747C2120.893,774.706,2120.026,774.061,2119.206,773.405Z" transform="translate(-2104.792 -739.919)" fill="#e6f3ff" opacity="0.6"/>
  </g>
  <path id="패스_2264" data-name="패스 2264" d="M2092.837,633.376h-17.712a10.424,10.424,0,0,1-7.749,9c1.288,6.948,5.215,16.56,16.508,23.775h.193c11.293-7.215,15.22-16.827,16.508-23.775A10.424,10.424,0,0,1,2092.837,633.376Z" transform="translate(-2063.996 -630.041)" fill="#ffca0d"/>
  <path id="패스_2265" data-name="패스 2265" d="M2075.125,635.6h17.712a10.424,10.424,0,0,0,7.293,8.87c.179-.72.33-1.42.455-2.094a10.424,10.424,0,0,1-7.749-9h-17.712a10.424,10.424,0,0,1-7.749,9c.125.674.276,1.374.455,2.094A10.425,10.425,0,0,0,2075.125,635.6Z" transform="translate(-2063.996 -630.041)" fill="#ffb300"/>
  <g id="그룹_4243" data-name="그룹 4243" transform="translate(7.567 12.747)">
    <path id="패스_2266" data-name="패스 2266" d="M2094.429,689.576c-.252-.185-.536-.389-.845-.607a1.729,1.729,0,0,0-.117-2.695s-1.212,1.324-.236,2.449c-.569-.394-1.212-.823-1.9-1.255-.045-.028-.087-.058-.131-.087a1.711,1.711,0,0,0,.28-2.616s-1.375,1.051-.7,2.3a5.35,5.35,0,0,1-1.548-2.157,1.724,1.724,0,0,0,1.581-2.168s-1.777.271-1.719,1.763a5.632,5.632,0,0,1-.148-2.7,1.719,1.719,0,0,0,2.281-1.389,2.1,2.1,0,0,0-2.063.57,6.314,6.314,0,0,1,1.06-1.9l-.085-.07a1.713,1.713,0,0,0,1.816-1.925s-2.046.021-1.957,1.822a6.845,6.845,0,0,0-.722,1.1,1.733,1.733,0,0,0-.98-1.587s-1.1,1.775.537,2.657a5.96,5.96,0,0,0-.253,2.2,1.713,1.713,0,0,0-1.752-.841s.088,2.073,1.923,1.893a5.774,5.774,0,0,0,.855,1.867,1.7,1.7,0,0,0-2,.038s1.077,1.83,2.638.733c0,0,0-.009-.012-.025a5.43,5.43,0,0,0,.957.765c.355.223.7.444,1.023.66a1.674,1.674,0,0,0-2.2.924s1.811,1.015,2.622-.64c.545.369,1.19.817,1.607,1.119" transform="translate(-2086.822 -677.085)" fill="#ffb300"/>
    <path id="패스_2267" data-name="패스 2267" d="M2166.838,689.576c.252-.185.535-.389.845-.607a1.728,1.728,0,0,1,.117-2.695s1.212,1.324.236,2.449c.569-.394,1.212-.823,1.9-1.255.045-.028.088-.058.132-.087a1.711,1.711,0,0,1-.28-2.616s1.375,1.051.7,2.3a5.343,5.343,0,0,0,1.548-2.157,1.724,1.724,0,0,1-1.58-2.168s1.777.271,1.719,1.763a5.57,5.57,0,0,0,.169-.71,5.653,5.653,0,0,0-.021-1.993,1.719,1.719,0,0,1-2.281-1.389,2.1,2.1,0,0,1,2.064.57,6.314,6.314,0,0,0-1.06-1.9l.085-.07a1.712,1.712,0,0,1-1.815-1.925s2.046.021,1.956,1.822A6.829,6.829,0,0,1,2172,680a1.735,1.735,0,0,1,.981-1.587s1.1,1.775-.538,2.657a5.97,5.97,0,0,1,.254,2.2,1.714,1.714,0,0,1,1.751-.841s-.088,2.073-1.922,1.893a5.788,5.788,0,0,1-.854,1.867,1.7,1.7,0,0,1,2,.038s-1.077,1.83-2.639.733l.013-.025a5.46,5.46,0,0,1-.957.765c-.355.223-.7.444-1.023.66a1.673,1.673,0,0,1,2.2.924s-1.81,1.015-2.621-.64c-.545.369-1.191.817-1.606,1.119" transform="translate(-2149.609 -677.085)" fill="#ffb300"/>
  </g>
  <g id="그룹_4244" data-name="그룹 4244" transform="translate(9.937 10.567)">
    <path id="패스_2268" data-name="패스 2268" d="M2116.829,666.962l-2.68,13.6h-4.177l1.2-6.2-3.827,4.973h-2.02l-2.1-4.9-1.224,6.119h-4.177l2.719-13.6h3.729l2.953,7.226,5.692-7.226Z" transform="translate(-2097.831 -666.962)" fill="#fff"/>
  </g>
  <path id="패스_2269" data-name="패스 2269" d="M2061.282,744.155c10.776-5.71,21.284-5.86,32.06-.149l2.5-6.053c-10.776-5.71-26.021-5.325-36.8.387Z" transform="translate(-2057.459 -708.888)" fill="#2c5b89"/>
  <path id="패스_2270" data-name="패스 2270" d="M2065.355,733.54a36.573,36.573,0,0,1,30.165,0l2.6-7.047a45.972,45.972,0,0,0-35.073,0Z" transform="translate(-2060.6 -700.381)" fill="#4081db"/>
  <g id="그룹_4245" data-name="그룹 4245" transform="translate(12.313 25.08)">
    <path id="패스_2271" data-name="패스 2271" d="M2111.946,737.437l-.218-1.8-.705,1.584-.312.037-1.048-1.337.208,1.758-.65.077-.355-2.993.573-.068,1.341,1.727.882-1.991.569-.068.363,2.992Z" transform="translate(-2108.867 -734.368)" fill="#fff"/>
    <path id="패스_2272" data-name="패스 2272" d="M2130.069,737.228a.979.979,0,0,1,.325.758l.064,1.321-.628.03-.014-.288a.748.748,0,0,1-.69.357,1.1,1.1,0,0,1-.467-.068.687.687,0,0,1-.311-.235.645.645,0,0,1-.121-.356.6.6,0,0,1,.219-.519,1.241,1.241,0,0,1,.741-.221l.533-.026a.429.429,0,0,0-.15-.331.586.586,0,0,0-.406-.1,1.173,1.173,0,0,0-.361.075.972.972,0,0,0-.3.172l-.264-.457a1.472,1.472,0,0,1,.444-.228,2.046,2.046,0,0,1,.541-.1A1.205,1.205,0,0,1,2130.069,737.228Zm-.5,1.623a.436.436,0,0,0,.178-.243l-.011-.237-.46.022q-.413.02-.4.291a.242.242,0,0,0,.111.2.457.457,0,0,0,.281.062A.582.582,0,0,0,2129.574,738.851Z" transform="translate(-2124.059 -736.441)" fill="#fff"/>
    <path id="패스_2273" data-name="패스 2273" d="M2140.636,739.042a1.487,1.487,0,0,1-.439-.179l.225-.482a1.409,1.409,0,0,0,.374.162,1.572,1.572,0,0,0,.431.063q.427,0,.427-.21a.149.149,0,0,0-.116-.142,1.739,1.739,0,0,0-.357-.074,3.473,3.473,0,0,1-.469-.1.73.73,0,0,1-.32-.2.564.564,0,0,1-.135-.405.635.635,0,0,1,.128-.389.818.818,0,0,1,.371-.264,1.58,1.58,0,0,1,.575-.094,2.247,2.247,0,0,1,.489.055,1.369,1.369,0,0,1,.4.149l-.225.478a1.337,1.337,0,0,0-.667-.174.68.68,0,0,0-.323.06.177.177,0,0,0-.108.155.154.154,0,0,0,.116.151,2.063,2.063,0,0,0,.37.083,3.919,3.919,0,0,1,.465.1.694.694,0,0,1,.314.2.555.555,0,0,1,.133.4.612.612,0,0,1-.13.383.825.825,0,0,1-.377.26,1.681,1.681,0,0,1-.588.092A2.263,2.263,0,0,1,2140.636,739.042Z" transform="translate(-2133.451 -736.221)" fill="#fff"/>
    <path id="패스_2274" data-name="패스 2274" d="M2152.481,737.4a.69.69,0,0,1-.248.1,1.242,1.242,0,0,1-.3.023.9.9,0,0,1-.629-.239.806.806,0,0,1-.2-.629l.042-.951-.357-.016.023-.516.357.016.025-.564.671.03-.025.564.576.025-.023.516-.576-.025-.042.942a.317.317,0,0,0,.065.229.28.28,0,0,0,.209.089.432.432,0,0,0,.275-.074Z" transform="translate(-2141.759 -734.571)" fill="#fff"/>
    <path id="패스_2275" data-name="패스 2275" d="M2161.964,739.132l-1.745-.157a.546.546,0,0,0,.192.359.741.741,0,0,0,.427.164.892.892,0,0,0,.324-.025.775.775,0,0,0,.274-.146l.322.418a1.2,1.2,0,0,1-.986.288,1.508,1.508,0,0,1-.677-.214,1.117,1.117,0,0,1-.425-.464,1.167,1.167,0,0,1-.108-.628,1.189,1.189,0,0,1,.216-.6,1.129,1.129,0,0,1,.48-.385,1.373,1.373,0,0,1,1.242.1,1.068,1.068,0,0,1,.394.457,1.246,1.246,0,0,1,.1.647C2161.992,738.962,2161.982,739.021,2161.964,739.132Zm-1.5-.882a.55.55,0,0,0-.22.335l1.137.1a.558.558,0,0,0-.157-.366.569.569,0,0,0-.366-.165A.577.577,0,0,0,2160.465,738.25Z" transform="translate(-2148.642 -736.938)" fill="#fff"/>
    <path id="패스_2276" data-name="패스 2276" d="M2173.558,738.853a1.211,1.211,0,0,1,.479-.021l-.084.614c-.073-.016-.123-.026-.148-.029a.615.615,0,0,0-.47.1.652.652,0,0,0-.229.458l-.149,1.083-.666-.092.316-2.3.635.088-.042.3A.749.749,0,0,1,2173.558,738.853Z" transform="translate(-2158.635 -737.744)" fill="#fff"/>
  </g>
</svg>
