<svg id="_2-2_05" data-name="2-2_05" xmlns="http://www.w3.org/2000/svg" width="39.969" height="39.446" viewBox="0 0 39.969 39.446">
  <path id="패스_2277" data-name="패스 2277" d="M2303.743,617.885h-21.318a12.546,12.546,0,0,1-9.325,10.833c1.55,8.362,6.276,19.931,19.868,28.614h.232c13.592-8.683,18.318-20.252,19.868-28.614A12.545,12.545,0,0,1,2303.743,617.885Z" transform="translate(-2273.099 -617.885)" fill="#00b7ff"/>
  <g id="그룹_4247" data-name="그룹 4247" transform="translate(1.805 0)">
    <path id="패스_2278" data-name="패스 2278" d="M2376.659,621.22l4.07-2.985c-.016-.117-.031-.233-.043-.351h-4.981l-4.548,3.335Z" transform="translate(-2351.848 -617.885)" fill="#e6f3ff" opacity="0.6"/>
    <path id="패스_2279" data-name="패스 2279" d="M2409.756,637.7l2.517-1.846a12.5,12.5,0,0,1-1.563-2.84l-2.3,1.684A10.36,10.36,0,0,0,2409.756,637.7Z" transform="translate(-2381.083 -629.755)" fill="#e6f3ff" opacity="0.6"/>
    <path id="패스_2280" data-name="패스 2280" d="M2436.981,666.259c-.033.18-.07.362-.107.546l2.986-2.19a12.45,12.45,0,0,1-2-.8l-2.539,1.862A10.32,10.32,0,0,0,2436.981,666.259Z" transform="translate(-2402.198 -653.923)" fill="#e6f3ff" opacity="0.6"/>
    <path id="패스_2281" data-name="패스 2281" d="M2283.863,691.023l-2.383,1.747c.368,1.018.788,2.056,1.266,3.106l2.227-1.633C2284.533,693.144,2284.166,692.066,2283.863,691.023Z" transform="translate(-2281.48 -675.275)" fill="#e6f3ff" opacity="0.6"/>
    <path id="패스_2282" data-name="패스 2282" d="M2295.343,718.048l-2.135,1.566q.749,1.384,1.649,2.778l2.071-1.519Q2296.042,719.455,2295.343,718.048Z" transform="translate(-2290.683 -696.482)" fill="#e6f3ff" opacity="0.6"/>
    <path id="패스_2283" data-name="패스 2283" d="M2340.617,773.405l-2.143,1.66q1.185,1.023,2.5,2.015l2.255-1.747C2342.3,774.706,2341.437,774.061,2340.617,773.405Z" transform="translate(-2326.203 -739.919)" fill="#e6f3ff" opacity="0.6"/>
  </g>
  <path id="패스_2284" data-name="패스 2284" d="M2314.257,633.376h-17.713a10.423,10.423,0,0,1-7.748,9c1.288,6.948,5.215,16.56,16.508,23.775h.193c11.293-7.215,15.22-16.827,16.508-23.775A10.423,10.423,0,0,1,2314.257,633.376Z" transform="translate(-2285.416 -630.041)" fill="#23bdff"/>
  <path id="패스_2285" data-name="패스 2285" d="M2296.544,635.6h17.713a10.423,10.423,0,0,0,7.293,8.87c.179-.72.33-1.42.455-2.094a10.423,10.423,0,0,1-7.748-9h-17.713a10.423,10.423,0,0,1-7.748,9c.125.674.275,1.374.455,2.094A10.424,10.424,0,0,0,2296.544,635.6Z" transform="translate(-2285.416 -630.041)" fill="#00a4dd"/>
  <g id="그룹_4248" data-name="그룹 4248" transform="translate(7.567 12.747)">
    <path id="패스_2286" data-name="패스 2286" d="M2315.849,689.576c-.251-.185-.536-.389-.844-.607a1.729,1.729,0,0,0-.117-2.695s-1.212,1.324-.236,2.449c-.569-.394-1.212-.823-1.9-1.255-.045-.028-.087-.058-.131-.087a1.711,1.711,0,0,0,.281-2.616s-1.375,1.051-.7,2.3a5.35,5.35,0,0,1-1.548-2.157,1.724,1.724,0,0,0,1.58-2.168s-1.777.271-1.719,1.763a5.569,5.569,0,0,1-.169-.71,5.642,5.642,0,0,1,.021-1.993,1.719,1.719,0,0,0,2.28-1.389,2.1,2.1,0,0,0-2.063.57,6.32,6.32,0,0,1,1.06-1.9l-.085-.07a1.713,1.713,0,0,0,1.816-1.925s-2.046.021-1.957,1.822a6.845,6.845,0,0,0-.722,1.1,1.734,1.734,0,0,0-.981-1.587s-1.1,1.775.538,2.657a5.955,5.955,0,0,0-.253,2.2,1.714,1.714,0,0,0-1.752-.841s.087,2.073,1.923,1.893a5.773,5.773,0,0,0,.855,1.867,1.7,1.7,0,0,0-2,.038s1.077,1.83,2.638.733l-.012-.025a5.438,5.438,0,0,0,.957.765c.355.223.7.444,1.023.66a1.674,1.674,0,0,0-2.2.924s1.811,1.015,2.622-.64c.545.369,1.19.817,1.607,1.119" transform="translate(-2308.242 -677.085)" fill="#00a4dd"/>
    <path id="패스_2287" data-name="패스 2287" d="M2388.258,689.576c.252-.185.536-.389.845-.607a1.728,1.728,0,0,1,.117-2.695s1.212,1.324.236,2.449c.569-.394,1.212-.823,1.9-1.255.045-.028.088-.058.132-.087a1.711,1.711,0,0,1-.28-2.616s1.375,1.051.7,2.3a5.348,5.348,0,0,0,1.549-2.157,1.724,1.724,0,0,1-1.581-2.168s1.777.271,1.719,1.763a5.591,5.591,0,0,0,.148-2.7,1.719,1.719,0,0,1-2.281-1.389,2.1,2.1,0,0,1,2.064.57,6.315,6.315,0,0,0-1.06-1.9l.085-.07a1.712,1.712,0,0,1-1.815-1.925s2.046.021,1.956,1.822a6.78,6.78,0,0,1,.722,1.1,1.735,1.735,0,0,1,.981-1.587s1.1,1.775-.538,2.657a5.965,5.965,0,0,1,.254,2.2,1.714,1.714,0,0,1,1.751-.841s-.088,2.073-1.922,1.893a5.788,5.788,0,0,1-.854,1.867,1.7,1.7,0,0,1,2,.038s-1.077,1.83-2.639.733c0,0,0-.009.013-.025a5.444,5.444,0,0,1-.958.765c-.355.223-.7.444-1.022.66a1.673,1.673,0,0,1,2.2.924s-1.81,1.015-2.621-.64c-.545.369-1.191.817-1.606,1.119" transform="translate(-2371.029 -677.085)" fill="#00a4dd"/>
  </g>
  <g id="그룹_4249" data-name="그룹 4249" transform="translate(13.081 9.428)">
    <path id="패스_2288" data-name="패스 2288" d="M2348.687,663.025a4.57,4.57,0,0,1,1.71,3.8,6.177,6.177,0,0,1-.966,3.442,6.341,6.341,0,0,1-2.753,2.309,9.82,9.82,0,0,1-4.141.822h-2.687l-.755,3.819h-5.24l3.109-15.543h6.906A7.59,7.59,0,0,1,2348.687,663.025Zm-4.2,5.784a1.949,1.949,0,0,0,.6-1.521q0-1.576-1.954-1.577h-1.754l-.733,3.641h2.154A2.421,2.421,0,0,0,2344.49,668.81Z" transform="translate(-2333.854 -661.671)" fill="#fff"/>
  </g>
  <path id="패스_2289" data-name="패스 2289" d="M2282.7,744.155c10.776-5.71,21.285-5.86,32.06-.149l2.5-6.053c-10.775-5.71-26.021-5.325-36.8.387Z" transform="translate(-2278.879 -708.888)" fill="#0a1344"/>
  <path id="패스_2290" data-name="패스 2290" d="M2286.775,733.54a36.574,36.574,0,0,1,30.165,0l2.6-7.047a45.971,45.971,0,0,0-35.073,0Z" transform="translate(-2282.02 -700.381)" fill="#111c6b"/>
  <g id="그룹_4250" data-name="그룹 4250" transform="translate(11.422 25.111)">
    <path id="패스_2291" data-name="패스 2291" d="M2328.145,736.028a1.035,1.035,0,0,1,.5.309,1.139,1.139,0,0,1,.169,1.148,1.018,1.018,0,0,1-.395.441,1.7,1.7,0,0,1-.669.231l-.6.088.121.822-.69.1-.438-2.982,1.291-.19A1.672,1.672,0,0,1,2328.145,736.028Zm-.058,1.369a.469.469,0,0,0,.106-.405.478.478,0,0,0-.219-.362.732.732,0,0,0-.492-.065l-.563.083.152,1.035.563-.083A.731.731,0,0,0,2328.086,737.4Z" transform="translate(-2326.146 -735.658)" fill="#fff"/>
    <path id="패스_2292" data-name="패스 2292" d="M2342.664,737.8a.982.982,0,0,1,.355.745l.114,1.317-.626.054-.025-.287a.75.75,0,0,1-.676.383,1.092,1.092,0,0,1-.469-.05.688.688,0,0,1-.32-.223.651.651,0,0,1-.134-.352.6.6,0,0,1,.2-.527,1.24,1.24,0,0,1,.733-.249l.532-.046a.428.428,0,0,0-.162-.325.589.589,0,0,0-.409-.083,1.17,1.17,0,0,0-.358.09.954.954,0,0,0-.288.183l-.281-.447a1.454,1.454,0,0,1,.435-.245,2.032,2.032,0,0,1,.536-.12A1.2,1.2,0,0,1,2342.664,737.8Zm-.432,1.641a.434.434,0,0,0,.168-.25l-.02-.236-.459.04q-.412.036-.388.306a.24.24,0,0,0,.118.195.456.456,0,0,0,.283.051A.582.582,0,0,0,2342.232,739.437Z" transform="translate(-2337.682 -736.938)" fill="#fff"/>
    <path id="패스_2293" data-name="패스 2293" d="M2354.661,736.873a1.205,1.205,0,0,1,.468-.105l.025.62c-.075,0-.125,0-.151,0a.614.614,0,0,0-.445.18.651.651,0,0,0-.144.49l.044,1.093-.671.027-.094-2.315.641-.026.012.306A.746.746,0,0,1,2354.661,736.873Z" transform="translate(-2347.762 -736.281)" fill="#fff"/>
    <path id="패스_2294" data-name="패스 2294" d="M2363.385,737.224a.693.693,0,0,1-.243.11,1.248,1.248,0,0,1-.3.037.9.9,0,0,1-.64-.21.806.806,0,0,1-.227-.62v-.952h-.357v-.517h.357v-.564h.671v.564h.577v.517h-.577v.943a.317.317,0,0,0,.075.226.28.28,0,0,0,.213.079.432.432,0,0,0,.271-.087Z" transform="translate(-2353.976 -734.508)" fill="#fff"/>
    <path id="패스_2295" data-name="패스 2295" d="M2373.646,737.22a1.023,1.023,0,0,1,.228.779l-.063,1.325-.671-.032.059-1.221a.606.606,0,0,0-.1-.417.443.443,0,0,0-.342-.152.534.534,0,0,0-.412.138.65.65,0,0,0-.173.459l-.055,1.144-.671-.032.11-2.314.641.031-.013.271a.9.9,0,0,1,.342-.21,1.152,1.152,0,0,1,.438-.059A.952.952,0,0,1,2373.646,737.22Z" transform="translate(-2361.692 -736.382)" fill="#fff"/>
    <path id="패스_2296" data-name="패스 2296" d="M2387.315,739.54l-1.742-.187a.544.544,0,0,0,.186.362.739.739,0,0,0,.424.171.879.879,0,0,0,.324-.019.774.774,0,0,0,.278-.141l.314.424a1.2,1.2,0,0,1-.99.271,1.511,1.511,0,0,1-.673-.226,1.122,1.122,0,0,1-.417-.471,1.166,1.166,0,0,1-.1-.63,1.185,1.185,0,0,1,.226-.593,1.134,1.134,0,0,1,.487-.377,1.372,1.372,0,0,1,1.24.127,1.072,1.072,0,0,1,.385.464,1.251,1.251,0,0,1,.089.648C2387.346,739.37,2387.335,739.43,2387.315,739.54Zm-1.483-.909a.55.55,0,0,0-.226.331l1.135.122a.552.552,0,0,0-.151-.369.564.564,0,0,0-.362-.171A.579.579,0,0,0,2385.832,738.632Z" transform="translate(-2372.259 -737.272)" fill="#fff"/>
    <path id="패스_2297" data-name="패스 2297" d="M2398.823,739.406a1.2,1.2,0,0,1,.479-.013l-.1.613c-.073-.017-.122-.028-.147-.032a.616.616,0,0,0-.472.09.653.653,0,0,0-.237.453l-.168,1.081-.664-.1.357-2.289.634.1-.048.3A.747.747,0,0,1,2398.823,739.406Z" transform="translate(-2382.151 -738.194)" fill="#fff"/>
  </g>
</svg>
