<svg id="_2-2_01" data-name="2-2_01" xmlns="http://www.w3.org/2000/svg" width="39.969" height="39.447" viewBox="0 0 39.969 39.447">
  <path id="패스_2195" data-name="패스 2195" d="M1418.065,617.885h-21.318a12.546,12.546,0,0,1-9.325,10.833c1.55,8.362,6.276,19.931,19.868,28.614h.233c13.592-8.683,18.318-20.252,19.868-28.614A12.545,12.545,0,0,1,1418.065,617.885Z" transform="translate(-1387.422 -617.884)" fill="#a6c0dd"/>
  <g id="그룹_4227" data-name="그룹 4227" transform="translate(1.806 0)" opacity="0.2">
    <path id="패스_2196" data-name="패스 2196" d="M1490.991,621.218l4.07-2.985c-.016-.117-.031-.233-.043-.351h-4.981l-4.548,3.336Z" transform="translate(-1466.18 -617.882)" fill="#fff" opacity="0.6"/>
    <path id="패스_2197" data-name="패스 2197" d="M1524.088,637.7l2.517-1.846a12.515,12.515,0,0,1-1.563-2.84l-2.3,1.684A10.359,10.359,0,0,0,1524.088,637.7Z" transform="translate(-1495.415 -629.753)" fill="#fff" opacity="0.6"/>
    <path id="패스_2198" data-name="패스 2198" d="M1551.313,666.257c-.033.18-.069.363-.106.546l2.986-2.19a12.462,12.462,0,0,1-2-.8l-2.539,1.862A10.349,10.349,0,0,0,1551.313,666.257Z" transform="translate(-1516.53 -653.921)" fill="#fff" opacity="0.6"/>
    <path id="패스_2199" data-name="패스 2199" d="M1398.2,691.02l-2.383,1.747c.368,1.018.788,2.056,1.266,3.106l2.227-1.633C1398.865,693.141,1398.5,692.063,1398.2,691.02Z" transform="translate(-1395.812 -675.272)" fill="#fff" opacity="0.6"/>
    <path id="패스_2200" data-name="패스 2200" d="M1409.675,718.046l-2.135,1.565q.749,1.384,1.649,2.778l2.071-1.519C1410.669,719.925,1410.143,718.982,1409.675,718.046Z" transform="translate(-1405.015 -696.479)" fill="#fff" opacity="0.6"/>
    <path id="패스_2201" data-name="패스 2201" d="M1454.949,773.4l-2.143,1.66q1.185,1.023,2.5,2.015l2.255-1.747C1456.636,774.7,1455.769,774.058,1454.949,773.4Z" transform="translate(-1440.534 -739.916)" fill="#fff" opacity="0.6"/>
  </g>
  <path id="패스_2202" data-name="패스 2202" d="M1428.579,633.376h-17.713a10.423,10.423,0,0,1-7.748,9c1.288,6.948,5.215,16.56,16.508,23.775h.193c11.293-7.215,15.22-16.827,16.508-23.775A10.423,10.423,0,0,1,1428.579,633.376Z" transform="translate(-1399.738 -630.04)" fill="#9ab4cc"/>
  <path id="패스_2203" data-name="패스 2203" d="M1410.867,635.6h17.713a10.423,10.423,0,0,0,7.294,8.87c.179-.72.33-1.42.455-2.094a10.423,10.423,0,0,1-7.748-9h-17.713a10.424,10.424,0,0,1-7.749,9c.125.674.276,1.374.455,2.094A10.424,10.424,0,0,0,1410.867,635.6Z" transform="translate(-1399.738 -630.04)" fill="#7697b5"/>
  <g id="그룹_4228" data-name="그룹 4228" transform="translate(7.567 12.747)">
    <path id="패스_2204" data-name="패스 2204" d="M1430.171,689.576c-.252-.185-.536-.389-.845-.607a1.729,1.729,0,0,0-.117-2.695s-1.212,1.324-.236,2.449c-.569-.394-1.212-.823-1.9-1.255-.045-.028-.087-.058-.131-.087a1.711,1.711,0,0,0,.28-2.616s-1.375,1.051-.7,2.3a5.354,5.354,0,0,1-1.548-2.157,1.724,1.724,0,0,0,1.581-2.168s-1.777.271-1.719,1.763a5.569,5.569,0,0,1-.169-.71,5.642,5.642,0,0,1,.02-1.993,1.719,1.719,0,0,0,2.281-1.389,2.1,2.1,0,0,0-2.063.57,6.306,6.306,0,0,1,1.06-1.9l-.085-.07a1.713,1.713,0,0,0,1.815-1.925s-2.046.021-1.957,1.822a6.846,6.846,0,0,0-.722,1.1,1.732,1.732,0,0,0-.98-1.587s-1.1,1.775.537,2.657a5.963,5.963,0,0,0-.254,2.2,1.713,1.713,0,0,0-1.752-.841s.088,2.073,1.923,1.893a5.771,5.771,0,0,0,.855,1.867,1.7,1.7,0,0,0-2,.038s1.077,1.83,2.638.733c0,0,0-.009-.012-.025a5.43,5.43,0,0,0,.957.765c.355.223.7.444,1.023.66a1.674,1.674,0,0,0-2.2.924s1.811,1.015,2.622-.64c.546.369,1.191.817,1.607,1.119" transform="translate(-1422.564 -677.085)" fill="#7697b5"/>
    <path id="패스_2205" data-name="패스 2205" d="M1502.58,689.576c.252-.185.536-.389.845-.607a1.728,1.728,0,0,1,.117-2.695s1.212,1.324.236,2.449c.569-.394,1.212-.823,1.9-1.255.045-.028.088-.058.132-.087a1.711,1.711,0,0,1-.28-2.616s1.375,1.051.7,2.3a5.343,5.343,0,0,0,1.548-2.157,1.724,1.724,0,0,1-1.58-2.168s1.777.271,1.719,1.763a5.605,5.605,0,0,0,.148-2.7,1.719,1.719,0,0,1-2.281-1.389,2.1,2.1,0,0,1,2.064.57,6.317,6.317,0,0,0-1.06-1.9l.085-.07a1.712,1.712,0,0,1-1.815-1.925s2.046.021,1.956,1.822a6.846,6.846,0,0,1,.722,1.1,1.734,1.734,0,0,1,.98-1.587s1.1,1.775-.537,2.657a5.981,5.981,0,0,1,.254,2.2,1.714,1.714,0,0,1,1.751-.841s-.088,2.073-1.922,1.893a5.788,5.788,0,0,1-.855,1.867,1.7,1.7,0,0,1,2,.038s-1.078,1.83-2.639.733c0,0,0-.009.013-.025a5.45,5.45,0,0,1-.957.765c-.355.223-.7.444-1.023.66a1.673,1.673,0,0,1,2.2.924s-1.81,1.015-2.621-.64c-.545.369-1.191.817-1.607,1.119" transform="translate(-1485.351 -677.085)" fill="#7697b5"/>
  </g>
  <g id="그룹_4229" data-name="그룹 4229" transform="translate(11.414 9.428)">
    <path id="패스_2206" data-name="패스 2206" d="M1456.122,670.431a3.082,3.082,0,0,1,.544,1.832,4.069,4.069,0,0,1-2.031,3.708,9.889,9.889,0,0,1-5.229,1.243h-8.97l3.108-15.543h8.238a7.39,7.39,0,0,1,4.152.966,3.123,3.123,0,0,1,1.421,2.742,3.752,3.752,0,0,1-.733,2.3,4.8,4.8,0,0,1-2.043,1.543A3.667,3.667,0,0,1,1456.122,670.431Zm-5.14,2.753a1.239,1.239,0,0,0,.488-1.055.878.878,0,0,0-.366-.755,1.523,1.523,0,0,0-.921-.267h-3.375l-.489,2.443h3.375A2.094,2.094,0,0,0,1450.982,673.184Zm-3.02-7.849-.466,2.309h2.665q1.732,0,1.732-1.354a.809.809,0,0,0-.355-.711,1.8,1.8,0,0,0-1.021-.244Z" transform="translate(-1440.435 -661.671)" fill="#fff"/>
  </g>
  <path id="패스_2207" data-name="패스 2207" d="M1397.024,744.155c10.776-5.71,21.284-5.86,32.06-.149l2.5-6.053c-10.776-5.71-26.021-5.325-36.8.387Z" transform="translate(-1393.201 -708.887)" fill="#2c5b89"/>
  <path id="패스_2208" data-name="패스 2208" d="M1401.1,733.54a36.573,36.573,0,0,1,30.165,0l2.6-7.047a45.972,45.972,0,0,0-35.073,0Z" transform="translate(-1396.342 -700.38)" fill="#4081db"/>
  <g id="그룹_4230" data-name="그룹 4230" transform="translate(9.494 24.559)">
    <path id="패스_2209" data-name="패스 2209" d="M1434.408,738.761a.754.754,0,0,1,.23.437.7.7,0,0,1-.191.655,1.575,1.575,0,0,1-.843.374l-1.532.286-.554-2.963,1.448-.27a1.441,1.441,0,0,1,.871.052.669.669,0,0,1,.4.509.723.723,0,0,1-.272.725A.8.8,0,0,1,1434.408,738.761Zm-2.112-.821.13.7.681-.127a.7.7,0,0,0,.369-.161.3.3,0,0,0,.082-.287.3.3,0,0,0-.18-.236.715.715,0,0,0-.4-.015Zm1.553,1.615a.309.309,0,0,0,.086-.3q-.069-.368-.615-.267l-.8.15.137.732.8-.149A.773.773,0,0,0,1433.849,739.555Z" transform="translate(-1431.518 -736.1)" fill="#fff"/>
    <path id="패스_2210" data-name="패스 2210" d="M1449.66,739.6l-1.74.211a.546.546,0,0,0,.263.311.742.742,0,0,0,.451.071.886.886,0,0,0,.312-.092.776.776,0,0,0,.238-.2l.4.342a1.2,1.2,0,0,1-.9.487,1.516,1.516,0,0,1-.707-.068,1.122,1.122,0,0,1-.513-.365,1.169,1.169,0,0,1-.236-.592,1.184,1.184,0,0,1,.086-.629,1.131,1.131,0,0,1,.389-.477,1.374,1.374,0,0,1,1.237-.157,1.07,1.07,0,0,1,.48.365,1.251,1.251,0,0,1,.233.612C1449.652,739.429,1449.656,739.49,1449.66,739.6Zm-1.65-.55a.55.55,0,0,0-.146.373l1.133-.137a.556.556,0,0,0-.23-.326.568.568,0,0,0-.392-.085A.578.578,0,0,0,1448.01,739.051Z" transform="translate(-1443.836 -736.98)" fill="#fff"/>
    <path id="패스_2211" data-name="패스 2211" d="M1462.377,736.993l.119,1.926a1.237,1.237,0,0,1-.273.966,1.369,1.369,0,0,1-.948.369,2.426,2.426,0,0,1-.641-.043,1.392,1.392,0,0,1-.513-.206l.237-.5a1.1,1.1,0,0,0,.381.168,1.471,1.471,0,0,0,.451.044.727.727,0,0,0,.5-.188.628.628,0,0,0,.136-.485l-.006-.1a.939.939,0,0,1-.713.333,1.227,1.227,0,0,1-.591-.1,1.066,1.066,0,0,1-.443-.367,1.184,1.184,0,0,1-.072-1.169,1.065,1.065,0,0,1,.4-.419,1.227,1.227,0,0,1,.574-.176.92.92,0,0,1,.785.284l-.018-.3Zm-.74,1.545a.582.582,0,0,0-.05-.821.619.619,0,0,0-.446-.13.626.626,0,0,0-.429.184.577.577,0,0,0,.051.821.627.627,0,0,0,.448.13A.618.618,0,0,0,1461.638,738.538Z" transform="translate(-1453.776 -735.906)" fill="#fff"/>
    <path id="패스_2212" data-name="패스 2212" d="M1474.371,732.591a.365.365,0,0,1-.009-.534.426.426,0,0,1,.3-.113.437.437,0,0,1,.3.1.331.331,0,0,1,.121.256.366.366,0,0,1-.111.28.472.472,0,0,1-.6.013Zm-.027.431.672-.012.041,2.317-.672.012Z" transform="translate(-1465.049 -731.944)" fill="#fff"/>
    <path id="패스_2213" data-name="패스 2213" d="M1482.918,737.1a1.024,1.024,0,0,1,.245.773l-.034,1.326-.671-.017.031-1.223a.6.6,0,0,0-.11-.414.442.442,0,0,0-.345-.145.536.536,0,0,0-.409.147.65.65,0,0,0-.162.463l-.03,1.145-.672-.017.059-2.316.641.017-.007.271a.9.9,0,0,1,.337-.218,1.16,1.16,0,0,1,.437-.068A.952.952,0,0,1,1482.918,737.1Z" transform="translate(-1470.159 -735.774)" fill="#fff"/>
    <path id="패스_2214" data-name="패스 2214" d="M1496.635,737.7a1.024,1.024,0,0,1,.2.786l-.115,1.321-.669-.058.105-1.218a.6.6,0,0,0-.084-.42.442.442,0,0,0-.336-.165.534.534,0,0,0-.417.122.65.65,0,0,0-.19.452l-.1,1.141-.669-.058.2-2.308.639.055-.023.27a.89.89,0,0,1,.35-.2,1.158,1.158,0,0,1,.44-.042A.954.954,0,0,1,1496.635,737.7Z" transform="translate(-1480.828 -736.14)" fill="#fff"/>
    <path id="패스_2215" data-name="패스 2215" d="M1510.337,740.691l-1.734-.255a.546.546,0,0,0,.172.369.743.743,0,0,0,.416.188.88.88,0,0,0,.325-.007.773.773,0,0,0,.283-.13l.3.436a1.2,1.2,0,0,1-1,.232,1.514,1.514,0,0,1-.664-.252,1.123,1.123,0,0,1-.4-.487,1.169,1.169,0,0,1-.072-.633,1.185,1.185,0,0,1,.249-.583,1.131,1.131,0,0,1,.5-.357,1.307,1.307,0,0,1,.647-.059,1.293,1.293,0,0,1,.588.235,1.07,1.07,0,0,1,.367.478,1.253,1.253,0,0,1,.063.651Q1510.374,740.527,1510.337,740.691Zm-1.447-.966a.549.549,0,0,0-.239.322l1.129.166a.557.557,0,0,0-.136-.375.567.567,0,0,0-.356-.185A.579.579,0,0,0,1508.89,739.725Z" transform="translate(-1491.491 -737.586)" fill="#fff"/>
    <path id="패스_2216" data-name="패스 2216" d="M1521.716,740.9a1.208,1.208,0,0,1,.479.007l-.121.608q-.108-.03-.146-.038a.617.617,0,0,0-.475.071.653.653,0,0,0-.255.443l-.213,1.073-.659-.13.451-2.273.63.125-.059.3A.746.746,0,0,1,1521.716,740.9Z" transform="translate(-1501.205 -738.788)" fill="#fff"/>
  </g>
</svg>
