<svg id="_2-2_02" data-name="2-2_02" xmlns="http://www.w3.org/2000/svg" width="39.969" height="39.446" viewBox="0 0 39.969 39.446">
  <path id="패스_2217" data-name="패스 2217" d="M1639.484,617.885h-21.318a12.546,12.546,0,0,1-9.325,10.833c1.55,8.362,6.276,19.931,19.868,28.614h.233c13.592-8.683,18.318-20.252,19.868-28.614A12.545,12.545,0,0,1,1639.484,617.885Z" transform="translate(-1608.841 -617.885)" fill="#cc9e4e"/>
  <g id="그룹_4232" data-name="그룹 4232" transform="translate(1.802 0)" opacity="0.3">
    <path id="패스_2218" data-name="패스 2218" d="M1712.387,621.22l4.07-2.985c-.016-.117-.031-.233-.043-.351h-4.98l-4.548,3.335Z" transform="translate(-1687.576 -617.885)" fill="#fff" opacity="0.6"/>
    <path id="패스_2219" data-name="패스 2219" d="M1745.484,637.7l2.517-1.846a12.513,12.513,0,0,1-1.563-2.84l-2.3,1.684A10.36,10.36,0,0,0,1745.484,637.7Z" transform="translate(-1716.81 -629.755)" fill="#fff" opacity="0.6"/>
    <path id="패스_2220" data-name="패스 2220" d="M1772.709,666.259c-.033.18-.07.362-.106.546l2.986-2.19a12.441,12.441,0,0,1-2-.8l-2.54,1.862A10.323,10.323,0,0,0,1772.709,666.259Z" transform="translate(-1737.926 -653.923)" fill="#fff" opacity="0.6"/>
    <path id="패스_2221" data-name="패스 2221" d="M1619.591,691.023l-2.383,1.747c.368,1.018.788,2.056,1.266,3.106l2.227-1.633C1620.261,693.144,1619.894,692.066,1619.591,691.023Z" transform="translate(-1617.208 -675.275)" fill="#fff" opacity="0.6"/>
    <path id="패스_2222" data-name="패스 2222" d="M1631.071,718.048l-2.135,1.566q.749,1.384,1.649,2.777l2.071-1.518Q1631.77,719.455,1631.071,718.048Z" transform="translate(-1626.411 -696.482)" fill="#fff" opacity="0.6"/>
    <path id="패스_2223" data-name="패스 2223" d="M1676.345,773.405l-2.143,1.66q1.185,1.023,2.5,2.015l2.255-1.747C1678.032,774.706,1677.165,774.061,1676.345,773.405Z" transform="translate(-1661.93 -739.919)" fill="#fff" opacity="0.6"/>
  </g>
  <path id="패스_2224" data-name="패스 2224" d="M1650,633.376h-17.713a10.424,10.424,0,0,1-7.748,9c1.288,6.948,5.214,16.56,16.508,23.775h.193c11.293-7.215,15.22-16.827,16.508-23.775A10.423,10.423,0,0,1,1650,633.376Z" transform="translate(-1621.158 -630.041)" fill="#c49241"/>
  <path id="패스_2225" data-name="패스 2225" d="M1632.286,635.6H1650a10.423,10.423,0,0,0,7.294,8.87c.179-.72.329-1.42.455-2.094a10.423,10.423,0,0,1-7.748-9h-17.713a10.424,10.424,0,0,1-7.748,9c.125.674.276,1.374.455,2.094A10.424,10.424,0,0,0,1632.286,635.6Z" transform="translate(-1621.158 -630.041)" fill="#af8741"/>
  <g id="그룹_4233" data-name="그룹 4233" transform="translate(7.567 12.747)">
    <path id="패스_2226" data-name="패스 2226" d="M1651.591,689.576c-.252-.185-.536-.389-.845-.607a1.728,1.728,0,0,0-.117-2.695s-1.212,1.324-.236,2.449c-.569-.394-1.212-.823-1.9-1.255-.045-.028-.087-.058-.131-.087a1.711,1.711,0,0,0,.28-2.616s-1.375,1.051-.7,2.3a5.354,5.354,0,0,1-1.548-2.157,1.724,1.724,0,0,0,1.581-2.168s-1.777.271-1.719,1.763a5.549,5.549,0,0,1-.169-.71,5.633,5.633,0,0,1,.021-1.993,1.719,1.719,0,0,0,2.28-1.389,2.1,2.1,0,0,0-2.064.57,6.317,6.317,0,0,1,1.06-1.9l-.085-.07a1.713,1.713,0,0,0,1.815-1.925s-2.046.021-1.957,1.822a6.869,6.869,0,0,0-.722,1.1,1.733,1.733,0,0,0-.981-1.587s-1.1,1.775.538,2.657a5.963,5.963,0,0,0-.253,2.2,1.714,1.714,0,0,0-1.752-.841s.088,2.073,1.922,1.893a5.773,5.773,0,0,0,.855,1.867,1.7,1.7,0,0,0-2,.038s1.077,1.83,2.639.733l-.012-.025a5.444,5.444,0,0,0,.957.765c.355.223.7.444,1.023.66a1.674,1.674,0,0,0-2.2.924s1.811,1.015,2.622-.64c.546.369,1.191.817,1.607,1.119" transform="translate(-1643.984 -677.085)" fill="#cc9e4e"/>
    <path id="패스_2227" data-name="패스 2227" d="M1724,689.576c.252-.185.536-.389.845-.607a1.728,1.728,0,0,1,.117-2.695s1.212,1.324.236,2.449c.569-.394,1.212-.823,1.9-1.255.045-.028.088-.058.132-.087a1.711,1.711,0,0,1-.28-2.616s1.375,1.051.7,2.3a5.344,5.344,0,0,0,1.549-2.157,1.724,1.724,0,0,1-1.581-2.168s1.777.271,1.719,1.763a5.591,5.591,0,0,0,.169-.71,5.659,5.659,0,0,0-.021-1.993,1.719,1.719,0,0,1-2.281-1.389,2.1,2.1,0,0,1,2.064.57,6.309,6.309,0,0,0-1.06-1.9l.085-.07a1.712,1.712,0,0,1-1.815-1.925s2.046.021,1.956,1.822a6.821,6.821,0,0,1,.722,1.1,1.734,1.734,0,0,1,.98-1.587s1.1,1.775-.537,2.657a5.976,5.976,0,0,1,.254,2.2,1.714,1.714,0,0,1,1.751-.841s-.088,2.073-1.922,1.893a5.789,5.789,0,0,1-.855,1.867,1.7,1.7,0,0,1,2.005.038s-1.078,1.83-2.639.733a.257.257,0,0,1,.013-.025,5.442,5.442,0,0,1-.957.765c-.355.223-.7.444-1.022.66a1.673,1.673,0,0,1,2.2.924s-1.81,1.015-2.621-.64c-.545.369-1.191.817-1.607,1.119" transform="translate(-1706.771 -677.085)" fill="#cc9e4e"/>
  </g>
  <g id="그룹_4234" data-name="그룹 4234" transform="translate(11.749 9.428)">
    <path id="패스_2228" data-name="패스 2228" d="M1663.409,675.171l3.353-3.175a2.939,2.939,0,0,0,2.376,1.465,1.707,1.707,0,0,0,1.21-.444,2.358,2.358,0,0,0,.655-1.266l1.221-6.129h-5.285l.8-3.952H1678.2l-1.954,9.77a7.746,7.746,0,0,1-2.4,4.707,7.408,7.408,0,0,1-4.8,1.421Q1665.141,677.569,1663.409,675.171Z" transform="translate(-1663.409 -661.671)" fill="#fff"/>
  </g>
  <path id="패스_2229" data-name="패스 2229" d="M1618.443,744.155c10.776-5.71,21.285-5.86,32.061-.149l2.5-6.053c-10.776-5.71-26.021-5.325-36.8.387Z" transform="translate(-1614.62 -708.888)" fill="#2c5b89"/>
  <path id="패스_2230" data-name="패스 2230" d="M1622.516,733.54a36.574,36.574,0,0,1,30.165,0l2.6-7.047a45.972,45.972,0,0,0-35.073,0Z" transform="translate(-1617.761 -700.381)" fill="#4081db"/>
  <g id="그룹_4235" data-name="그룹 4235" transform="translate(12.787 24.581)">
    <path id="패스_2231" data-name="패스 2231" d="M1668.7,738.117a1.07,1.07,0,0,1-.457-.271l.327-.509a.7.7,0,0,0,.6.26q.423-.053.361-.548l-.177-1.423-1.051.131-.069-.556,1.739-.217.242,1.94a1.137,1.137,0,0,1-.17.861,1.093,1.093,0,0,1-.769.376A1.366,1.366,0,0,1,1668.7,738.117Z" transform="translate(-1668.227 -734.352)" fill="#fff"/>
    <path id="패스_2232" data-name="패스 2232" d="M1682.345,737.08l.161,2.311-.636.044-.019-.275a.889.889,0,0,1-.3.252,1.008,1.008,0,0,1-.394.107.987.987,0,0,1-.74-.212,1.048,1.048,0,0,1-.32-.759l-.091-1.306.67-.047.084,1.207q.039.558.507.526a.5.5,0,0,0,.376-.184.663.663,0,0,0,.114-.476l-.08-1.143Z" transform="translate(-1677.468 -735.996)" fill="#fff"/>
    <path id="패스_2233" data-name="패스 2233" d="M1696.323,736.981a1.024,1.024,0,0,1,.272.764l.012,1.326-.672.006-.011-1.223a.6.6,0,0,0-.124-.41.442.442,0,0,0-.35-.132.532.532,0,0,0-.4.161.65.65,0,0,0-.146.468l.011,1.146-.672.006-.021-2.317.641-.006,0,.271a.891.891,0,0,1,.329-.229,1.154,1.154,0,0,1,.434-.083A.953.953,0,0,1,1696.323,736.981Z" transform="translate(-1688.621 -735.721)" fill="#fff"/>
    <path id="패스_2234" data-name="패스 2234" d="M1708.077,733.108l.671.023-.079,2.316-.671-.023Zm.049-.429a.365.365,0,0,1,.018-.534.426.426,0,0,1,.3-.1.436.436,0,0,1,.3.113.332.332,0,0,1,.107.262.365.365,0,0,1-.126.273.419.419,0,0,1-.3.1A.426.426,0,0,1,1708.126,732.679Z" transform="translate(-1699.435 -732.047)" fill="#fff"/>
    <path id="패스_2235" data-name="패스 2235" d="M1714.006,739.569a1.135,1.135,0,0,1-.421-.457,1.24,1.24,0,0,1,.094-1.228,1.139,1.139,0,0,1,.485-.388,1.482,1.482,0,0,1,1.307.1,1.14,1.14,0,0,1,.419.457,1.24,1.24,0,0,1-.094,1.228,1.138,1.138,0,0,1-.483.388,1.482,1.482,0,0,1-1.308-.1Zm1.121-.489a.742.742,0,0,0,.071-.932.559.559,0,0,0-.41-.206.566.566,0,0,0-.438.141.735.735,0,0,0-.071.932.566.566,0,0,0,.412.206A.559.559,0,0,0,1715.128,739.08Z" transform="translate(-1703.725 -736.238)" fill="#fff"/>
    <path id="패스_2236" data-name="패스 2236" d="M1727.979,738.5a1.2,1.2,0,0,1,.479-.027l-.077.615c-.074-.015-.123-.024-.149-.027a.616.616,0,0,0-.469.1.653.653,0,0,0-.223.46l-.136,1.085-.667-.083.288-2.3.637.08-.038.3A.747.747,0,0,1,1727.979,738.5Z" transform="translate(-1714.141 -736.979)" fill="#fff"/>
  </g>
</svg>
