<svg xmlns="http://www.w3.org/2000/svg" width="425.961" height="151.006" viewBox="0 0 425.961 151.006">
  <g id="그룹_4097" data-name="그룹 4097" transform="translate(-489.224 -300.141)">
    <path id="_1-2_graph_title" data-name="1-2_graph_title" d="M4.1-33.3h6.66v13.095h12.6V-33.3h6.66V0h-6.66V-14.4h-12.6V0H4.1ZM48.555.63a13.262,13.262,0,0,1-4.928-.9,11.548,11.548,0,0,1-3.96-2.588A11.988,11.988,0,0,1,37.013-7a15.046,15.046,0,0,1-.968-5.557,14.585,14.585,0,0,1,.992-5.513,13.17,13.17,0,0,1,2.638-4.185,11.467,11.467,0,0,1,3.765-2.655,10.853,10.853,0,0,1,4.374-.923,10.877,10.877,0,0,1,4.576.9,9.114,9.114,0,0,1,3.292,2.52,11.064,11.064,0,0,1,2.007,3.825,16.353,16.353,0,0,1,.676,4.815,16.123,16.123,0,0,1-.09,1.733,7.538,7.538,0,0,1-.225,1.283H42.48a7.13,7.13,0,0,0,2.272,4.7,6.98,6.98,0,0,0,4.7,1.6,9.4,9.4,0,0,0,2.948-.45A12.194,12.194,0,0,0,55.125-6.21l2.25,4.05A16.056,16.056,0,0,1,53.213-.113,14.9,14.9,0,0,1,48.555.63ZM52.65-15.12a6.474,6.474,0,0,0-1.17-4.073,4.272,4.272,0,0,0-3.6-1.507,5.175,5.175,0,0,0-3.555,1.417A6.515,6.515,0,0,0,42.39-15.12ZM69.975.45a8.684,8.684,0,0,1-3.083-.518,6.506,6.506,0,0,1-2.34-1.485,6.8,6.8,0,0,1-1.508-2.321,7.964,7.964,0,0,1-.54-2.977q-.225-4.647,3.217-6.88T77-16.189a4.864,4.864,0,0,0-.607-3.181q-.788-1.2-3.668-1.2a11.711,11.711,0,0,0-3.667.63A15.244,15.244,0,0,0,65.43-18.18l-1.98-4.705a21.77,21.77,0,0,1,4.792-2.1,19.039,19.039,0,0,1,5.693-.848q4.827,0,7.273,2.813t2.447,8.3V0H78.218l-.5-2.565h-.136A13.464,13.464,0,0,1,74.048-.36,10.334,10.334,0,0,1,69.975.45ZM72-4.59a6.147,6.147,0,0,0,2.633-.653A9.47,9.47,0,0,0,77-7.02v-5.085q-2.385.18-4.545.5a4.905,4.905,0,0,0-3.037,1.305,3.24,3.24,0,0,0-.833,2.34A3.354,3.354,0,0,0,69.593-5.49,3.4,3.4,0,0,0,72-4.59ZM90.36,0V-35.91h6.57V0Zm23.445.63a9.787,9.787,0,0,1-3.84-.675,6.531,6.531,0,0,1-2.582-1.913,7.815,7.815,0,0,1-1.45-2.993,15.469,15.469,0,0,1-.453-3.87V-19.98h-3.555v-4.905l3.87-.315.771-6.75h5.574v6.75h6.21v5.22h-6.21V-8.852q0,4.217,3.42,4.217a5.738,5.738,0,0,0,1.305-.158,6.3,6.3,0,0,0,1.17-.382l1.08,4.852a21.2,21.2,0,0,1-2.34.658A13.534,13.534,0,0,1,113.805.63Zm9.63-36.54h6.57v9.045l-.27,4.725a19.253,19.253,0,0,1,3.452-2.565,8.713,8.713,0,0,1,4.49-1.125q4.107,0,5.957,2.677a12.958,12.958,0,0,1,1.85,7.448V0h-6.66V-14.9a7.388,7.388,0,0,0-.833-4.1,3.109,3.109,0,0,0-2.722-1.17,4.9,4.9,0,0,0-2.7.72,17.113,17.113,0,0,0-2.565,2.115V0h-6.57ZM176.58.63A15.733,15.733,0,0,1,170.64-.5a13.805,13.805,0,0,1-4.86-3.285,15.409,15.409,0,0,1-3.262-5.355,21.039,21.039,0,0,1-1.193-7.38,20.44,20.44,0,0,1,1.238-7.335,16.5,16.5,0,0,1,3.353-5.49,14.16,14.16,0,0,1,4.927-3.42,15.368,15.368,0,0,1,5.963-1.17,12.147,12.147,0,0,1,5.67,1.282,15.217,15.217,0,0,1,4.1,2.993l-3.51,4.23a12.136,12.136,0,0,0-2.745-2,7.093,7.093,0,0,0-3.375-.788,7.921,7.921,0,0,0-3.51.788,7.949,7.949,0,0,0-2.79,2.273,11.313,11.313,0,0,0-1.845,3.6,15.822,15.822,0,0,0-.675,4.815,17.952,17.952,0,0,0,.607,4.86,10.827,10.827,0,0,0,1.755,3.667,7.714,7.714,0,0,0,2.745,2.3,7.982,7.982,0,0,0,3.577.788,7.89,7.89,0,0,0,3.848-.923,12.1,12.1,0,0,0,3.037-2.362l3.51,4.14a13.908,13.908,0,0,1-4.725,3.668A13.784,13.784,0,0,1,176.58.63ZM198.225.45a8.684,8.684,0,0,1-3.083-.518,6.506,6.506,0,0,1-2.34-1.485A6.8,6.8,0,0,1,191.3-3.873a7.964,7.964,0,0,1-.54-2.977q-.225-4.647,3.217-6.88t11.273-2.458a4.864,4.864,0,0,0-.607-3.181q-.788-1.2-3.668-1.2a11.711,11.711,0,0,0-3.667.63,15.244,15.244,0,0,0-3.622,1.755l-1.98-4.705a21.77,21.77,0,0,1,4.792-2.1,19.039,19.039,0,0,1,5.693-.848q4.827,0,7.273,2.813t2.447,8.3V0h-5.437l-.5-2.565h-.136A13.464,13.464,0,0,1,202.3-.36,10.334,10.334,0,0,1,198.225.45Zm2.025-5.04a6.147,6.147,0,0,0,2.633-.653,9.47,9.47,0,0,0,2.363-1.777v-5.085q-2.385.18-4.545.5a4.905,4.905,0,0,0-3.038,1.305,3.24,3.24,0,0,0-.833,2.34,3.354,3.354,0,0,0,1.013,2.475A3.4,3.4,0,0,0,200.25-4.59ZM218.61-25.2h5.4l.45,4.455h.18a11.1,11.1,0,0,1,3.285-3.78,6.739,6.739,0,0,1,3.87-1.3,7.713,7.713,0,0,1,1.71.157,9.561,9.561,0,0,1,1.26.382l-1.17,5.715a6.521,6.521,0,0,0-1.237-.315,9.433,9.433,0,0,0-1.372-.09,5.557,5.557,0,0,0-3.105,1.1,8.054,8.054,0,0,0-2.7,3.847V0h-6.57ZM249.165.63a13.262,13.262,0,0,1-4.928-.9,11.548,11.548,0,0,1-3.96-2.588A11.988,11.988,0,0,1,237.622-7a15.046,15.046,0,0,1-.967-5.557,14.585,14.585,0,0,1,.992-5.513,13.17,13.17,0,0,1,2.638-4.185,11.467,11.467,0,0,1,3.765-2.655,10.853,10.853,0,0,1,4.374-.923,10.877,10.877,0,0,1,4.576.9,9.114,9.114,0,0,1,3.292,2.52,11.064,11.064,0,0,1,2.007,3.825,16.352,16.352,0,0,1,.676,4.815,16.122,16.122,0,0,1-.09,1.733,7.538,7.538,0,0,1-.225,1.283H243.09a7.13,7.13,0,0,0,2.273,4.7,6.98,6.98,0,0,0,4.7,1.6,9.4,9.4,0,0,0,2.948-.45,12.194,12.194,0,0,0,2.722-1.305l2.25,4.05a16.056,16.056,0,0,1-4.163,2.048A14.9,14.9,0,0,1,249.165.63Zm4.1-15.75a6.474,6.474,0,0,0-1.17-4.073,4.272,4.272,0,0,0-3.6-1.507,5.175,5.175,0,0,0-3.555,1.417A6.515,6.515,0,0,0,243-15.12ZM275.13-33.3H282.5l5.662,15.57q.539,1.575,1.034,3.2l.988,3.24h.225q.539-1.62,1.011-3.24t1.011-3.2l5.527-15.57h7.369V0H299.3V-13.905q0-1.17.089-2.587t.2-2.88q.112-1.462.246-2.88t.269-2.588h-.18l-2.694,7.83-5.119,14h-3.817l-5.164-14-2.649-7.83H280.3q.136,1.17.272,2.588t.272,2.88q.136,1.463.227,2.88t.091,2.587V0h-6.03ZM319.23.45a8.684,8.684,0,0,1-3.083-.518,6.506,6.506,0,0,1-2.34-1.485A6.8,6.8,0,0,1,312.3-3.873a7.964,7.964,0,0,1-.54-2.977q-.225-4.647,3.217-6.88t11.272-2.458a4.864,4.864,0,0,0-.607-3.181q-.788-1.2-3.668-1.2a11.711,11.711,0,0,0-3.668.63,15.244,15.244,0,0,0-3.622,1.755l-1.98-4.705a21.77,21.77,0,0,1,4.793-2.1,19.039,19.039,0,0,1,5.693-.848q4.827,0,7.273,2.813t2.447,8.3V0h-5.437l-.5-2.565h-.136A13.464,13.464,0,0,1,323.3-.36,10.334,10.334,0,0,1,319.23.45Zm2.025-5.04a6.148,6.148,0,0,0,2.633-.653A9.47,9.47,0,0,0,326.25-7.02v-5.085q-2.385.18-4.545.5a4.905,4.905,0,0,0-3.037,1.305,3.24,3.24,0,0,0-.833,2.34,3.354,3.354,0,0,0,1.013,2.475A3.4,3.4,0,0,0,321.255-4.59Zm18.36-20.61h5.4l.45,4.455h.18a11.1,11.1,0,0,1,3.285-3.78,6.739,6.739,0,0,1,3.87-1.3,7.713,7.713,0,0,1,1.71.157,9.56,9.56,0,0,1,1.26.382l-1.17,5.715a6.521,6.521,0,0,0-1.238-.315,9.433,9.433,0,0,0-1.372-.09,5.557,5.557,0,0,0-3.1,1.1,8.054,8.054,0,0,0-2.7,3.847V0h-6.57Zm19.62-10.71h6.435v21.6h.18l8.73-10.89h7.2l-8.73,10.3L382.59,0h-7.155l-6.12-10.44L365.67-6.3V0h-6.435ZM397.395.63a13.262,13.262,0,0,1-4.927-.9,11.548,11.548,0,0,1-3.96-2.588A11.988,11.988,0,0,1,385.853-7a15.046,15.046,0,0,1-.967-5.557,14.585,14.585,0,0,1,.992-5.513,13.17,13.17,0,0,1,2.638-4.185,11.467,11.467,0,0,1,3.765-2.655,10.853,10.853,0,0,1,4.374-.923,10.877,10.877,0,0,1,4.576.9,9.114,9.114,0,0,1,3.292,2.52,11.064,11.064,0,0,1,2.007,3.825,16.353,16.353,0,0,1,.676,4.815,16.122,16.122,0,0,1-.09,1.733,7.538,7.538,0,0,1-.225,1.283H391.32a7.13,7.13,0,0,0,2.272,4.7,6.98,6.98,0,0,0,4.7,1.6,9.4,9.4,0,0,0,2.947-.45,12.194,12.194,0,0,0,2.723-1.305l2.25,4.05a16.056,16.056,0,0,1-4.163,2.048A14.9,14.9,0,0,1,397.395.63Zm4.1-15.75a6.474,6.474,0,0,0-1.17-4.073,4.272,4.272,0,0,0-3.6-1.507,5.175,5.175,0,0,0-3.555,1.417,6.515,6.515,0,0,0-1.935,4.163ZM421.875.63a9.788,9.788,0,0,1-3.84-.675,6.531,6.531,0,0,1-2.582-1.913A7.815,7.815,0,0,1,414-4.95a15.469,15.469,0,0,1-.453-3.87V-19.98h-3.555v-4.905l3.87-.315.771-6.75h5.574v6.75h6.21v5.22h-6.21V-8.852q0,4.217,3.42,4.217a5.738,5.738,0,0,0,1.305-.158,6.3,6.3,0,0,0,1.17-.382l1.08,4.852a21.2,21.2,0,0,1-2.34.658A13.534,13.534,0,0,1,421.875.63Z" transform="translate(488 336.051)" fill="#005c9b"/>
    <path id="_1-2_graph_text" data-name="1-2_graph_text" d="M5.184.312A4.237,4.237,0,0,1,3.672.049a3.443,3.443,0,0,1-1.2-.755A3.483,3.483,0,0,1,1.68-1.9,4.186,4.186,0,0,1,1.392-3.5,3.759,3.759,0,0,1,3.468-7.1a13.4,13.4,0,0,1,5.94-1.138,6.2,6.2,0,0,0-.12-1.221,2.945,2.945,0,0,0-.42-1.054,2.17,2.17,0,0,0-.828-.731,2.835,2.835,0,0,0-1.32-.275,6.6,6.6,0,0,0-2.208.372,7.754,7.754,0,0,0-1.824.9l-.864-1.564a11.159,11.159,0,0,1,2.292-1.07,8.854,8.854,0,0,1,2.964-.486,4.991,4.991,0,0,1,2.04.384,3.535,3.535,0,0,1,1.4,1.092,4.812,4.812,0,0,1,.8,1.692,8.423,8.423,0,0,1,.264,2.184V0h-1.8L9.6-1.415H9.528A8.381,8.381,0,0,1,7.5-.162,5.75,5.75,0,0,1,5.184.312Zm.624-1.776a4.8,4.8,0,0,0,1.8-.336,6.483,6.483,0,0,0,1.8-1.176V-6.84a23.234,23.234,0,0,0-2.868.348,6.12,6.12,0,0,0-1.812.612,2.215,2.215,0,0,0-.936.924,2.9,2.9,0,0,0-.264,1.284A2.048,2.048,0,0,0,4.176-2,2.463,2.463,0,0,0,5.808-1.464ZM15.912.312A1.544,1.544,0,0,1,14.8-.144a1.6,1.6,0,0,1-.468-1.2A1.681,1.681,0,0,1,14.8-2.568a1.5,1.5,0,0,1,1.116-.48,1.5,1.5,0,0,1,1.116.48A1.681,1.681,0,0,1,17.5-1.344a1.6,1.6,0,0,1-.468,1.2A1.544,1.544,0,0,1,15.912.312ZM42.144-7.7h-1.9V-19.728h1.9ZM36.36-14.088v-5.3h1.872V-7.848H36.36V-12.5H33.984v-1.584ZM34.512-16.1H23.856V-17.64h4.368V-19.8h1.944v2.16h4.344Zm-8.04,4.416a1.858,1.858,0,0,0,.756,1.56,3.18,3.18,0,0,0,1.98.576,3.128,3.128,0,0,0,1.968-.576,1.869,1.869,0,0,0,.744-1.56,1.869,1.869,0,0,0-.744-1.56,3.128,3.128,0,0,0-1.968-.576,3.18,3.18,0,0,0-1.98.576A1.858,1.858,0,0,0,26.472-11.688Zm7.176,0a3.25,3.25,0,0,1-.324,1.452,3.268,3.268,0,0,1-.912,1.128,4.235,4.235,0,0,1-1.4.72,6.08,6.08,0,0,1-1.8.252A6.2,6.2,0,0,1,27.4-8.388a4.22,4.22,0,0,1-1.416-.72,3.268,3.268,0,0,1-.912-1.128,3.25,3.25,0,0,1-.324-1.452,3.3,3.3,0,0,1,.324-1.476,3.268,3.268,0,0,1,.912-1.128,4.22,4.22,0,0,1,1.416-.72,6.2,6.2,0,0,1,1.812-.252,6.08,6.08,0,0,1,1.8.252,4.235,4.235,0,0,1,1.4.72,3.268,3.268,0,0,1,.912,1.128A3.3,3.3,0,0,1,33.648-11.688ZM42.912.048V1.536H27.984V-3.408H40.2V-5.28H27.936V-6.744H42.144v4.752H29.928V.048ZM62.736-7.3a13.125,13.125,0,0,1-2.436-.84,11.818,11.818,0,0,1-2.268-1.356A12.364,12.364,0,0,1,56.115-11.3a8.253,8.253,0,0,1-1.359-2.208A8.383,8.383,0,0,1,53.4-11.328,12.364,12.364,0,0,1,51.48-9.516a12.471,12.471,0,0,1-2.256,1.368A12.332,12.332,0,0,1,46.8-7.3l-.888-1.632a11.036,11.036,0,0,0,2.808-1,11.267,11.267,0,0,0,2.508-1.728,8.847,8.847,0,0,0,1.812-2.292,5.429,5.429,0,0,0,.7-2.64V-18.24h2.04v1.656a5.429,5.429,0,0,0,.7,2.64,8.847,8.847,0,0,0,1.812,2.292,11.472,11.472,0,0,0,2.52,1.74,10.314,10.314,0,0,0,2.82.984Zm1.872,4.584V-1.1H45.1V-2.712ZM78.168-19.2h1.824V.672H78.168V-9.648H74.184a14.59,14.59,0,0,1-2.52,3.756,16.387,16.387,0,0,1-4.2,3.2L66.336-4.1a15.3,15.3,0,0,0,4-3,12.166,12.166,0,0,0,2.316-3.552l-6.048.6-.264-1.68,6.84-.456a13.9,13.9,0,0,0,.372-1.692q.132-.852.18-1.74H67.392v-1.584h8.232a23.7,23.7,0,0,1-.192,3.012,16.773,16.773,0,0,1-.648,2.94h3.384Zm6.336-.576V1.752H82.632V-19.776ZM93.1-4.848a2.551,2.551,0,0,0,1.4-.407,3.594,3.594,0,0,0,1.1-1.162,6.106,6.106,0,0,0,.72-1.808,10.22,10.22,0,0,0,.252-2.371,10.26,10.26,0,0,0-.252-2.359,5.935,5.935,0,0,0-.72-1.808,3.632,3.632,0,0,0-1.1-1.15,2.551,2.551,0,0,0-1.4-.407,2.611,2.611,0,0,0-1.416.407,3.579,3.579,0,0,0-1.116,1.15,5.935,5.935,0,0,0-.72,1.808,10.26,10.26,0,0,0-.252,2.359,10.22,10.22,0,0,0,.252,2.371,6.106,6.106,0,0,0,.72,1.808A3.543,3.543,0,0,0,91.68-5.255,2.611,2.611,0,0,0,93.1-4.848Zm11.976-14.9V1.824H103.1V-9.936H98.4a10.662,10.662,0,0,1-.491,2.856A7.059,7.059,0,0,1,96.8-4.92a4.865,4.865,0,0,1-1.64,1.368,4.511,4.511,0,0,1-2.071.48A4.477,4.477,0,0,1,90.929-3.6a5.081,5.081,0,0,1-1.7-1.512,7.445,7.445,0,0,1-1.114-2.364,11.292,11.292,0,0,1-.4-3.108,11.292,11.292,0,0,1,.4-3.108,7.445,7.445,0,0,1,1.114-2.364,5.081,5.081,0,0,1,1.7-1.512,4.477,4.477,0,0,1,2.155-.528,4.447,4.447,0,0,1,2,.456,4.97,4.97,0,0,1,1.628,1.308,6.734,6.734,0,0,1,1.138,2.064,10.616,10.616,0,0,1,.551,2.724h4.7v-8.208Zm14.112,6.072a12.958,12.958,0,0,0,.3,2.784,11.953,11.953,0,0,0,.876,2.58,9.69,9.69,0,0,0,1.428,2.2,7.231,7.231,0,0,0,1.98,1.608l-1.2,1.44a8.22,8.22,0,0,1-2.676-2.58,12.468,12.468,0,0,1-1.644-3.708,13.4,13.4,0,0,1-1.692,4.02,8.83,8.83,0,0,1-2.748,2.8l-1.2-1.464a7.85,7.85,0,0,0,2-1.716,10.321,10.321,0,0,0,1.464-2.316,13,13,0,0,0,.9-2.712,13.788,13.788,0,0,0,.312-2.928v-1.944h-4.08v-1.608h9.816v1.608h-3.84Zm5.76-5.592h1.872V.648h-1.872V-10.416h-3.552v-1.608h3.552Zm6.216-.5V1.752h-1.9V-19.776Zm15.216,2.3h-5.352v4.512h5.352Zm-7.32,0h-3.24v-1.584h15.792v1.584h-3.264v4.512h3.168v1.584H135.888V-12.96h3.168Zm10.1,13.8H138.336V-.1H149.16Zm-4.44-4.08v2.544H151.1v6.7H136.392v-6.7h6.36V-7.752h-8.76V-9.336h19.464v1.584ZM7.944,34.312a4.577,4.577,0,0,1-1.884-.438,6.806,6.806,0,0,1-1.836-1.24H4.152L3.96,34H2.208V14.9H4.392v5.232L4.32,22.48a9.737,9.737,0,0,1,1.944-1.308,4.648,4.648,0,0,1,2.136-.54,5.006,5.006,0,0,1,2.244.48,4.579,4.579,0,0,1,1.632,1.344,6.027,6.027,0,0,1,1,2.088,10.234,10.234,0,0,1,.336,2.712,8.946,8.946,0,0,1-.468,3,6.836,6.836,0,0,1-1.248,2.22,5.285,5.285,0,0,1-1.8,1.368A5.092,5.092,0,0,1,7.944,34.312Zm-.36-1.848a3.178,3.178,0,0,0,1.5-.359,3.593,3.593,0,0,0,1.188-1.018,4.833,4.833,0,0,0,.78-1.616,7.876,7.876,0,0,0,.276-2.179,9.287,9.287,0,0,0-.192-1.963,4.58,4.58,0,0,0-.6-1.52,2.828,2.828,0,0,0-1.056-.982A3.317,3.317,0,0,0,7.9,22.48a3.638,3.638,0,0,0-1.7.455,8.322,8.322,0,0,0-1.8,1.341V31.1a5.3,5.3,0,0,0,1.7,1.065A4.51,4.51,0,0,0,7.584,32.464Zm9.624,1.848a1.544,1.544,0,0,1-1.116-.456,1.6,1.6,0,0,1-.468-1.2,1.681,1.681,0,0,1,.468-1.224,1.537,1.537,0,0,1,2.232,0,1.681,1.681,0,0,1,.468,1.224,1.6,1.6,0,0,1-.468,1.2A1.544,1.544,0,0,1,17.208,34.312ZM43.44,26.3h-1.9V14.272h1.9Zm-5.784-6.384v-5.3h1.872V26.152H37.656V21.5H35.28V19.912ZM35.808,17.9H25.152V16.36H29.52V14.2h1.944v2.16h4.344Zm-8.04,4.416a1.858,1.858,0,0,0,.756,1.56,3.18,3.18,0,0,0,1.98.576,3.128,3.128,0,0,0,1.968-.576,2.007,2.007,0,0,0,0-3.12,3.128,3.128,0,0,0-1.968-.576,3.18,3.18,0,0,0-1.98.576A1.858,1.858,0,0,0,27.768,22.312Zm7.176,0a3.22,3.22,0,0,1-1.236,2.58,4.235,4.235,0,0,1-1.4.72,6.08,6.08,0,0,1-1.8.252,6.2,6.2,0,0,1-1.812-.252,4.219,4.219,0,0,1-1.416-.72,3.22,3.22,0,0,1-1.236-2.58,3.3,3.3,0,0,1,.324-1.476,3.268,3.268,0,0,1,.912-1.128,4.22,4.22,0,0,1,1.416-.72,6.2,6.2,0,0,1,1.812-.252,6.08,6.08,0,0,1,1.8.252,4.235,4.235,0,0,1,1.4.72,3.268,3.268,0,0,1,.912,1.128A3.3,3.3,0,0,1,34.944,22.312Zm9.264,11.736v1.488H29.28V30.592H41.5V28.72H29.232V27.256H43.44v4.752H31.224v2.04ZM64.032,26.7a13.125,13.125,0,0,1-2.436-.84,11.818,11.818,0,0,1-2.268-1.356A12.364,12.364,0,0,1,57.411,22.7a8.253,8.253,0,0,1-1.359-2.208,8.383,8.383,0,0,1-1.359,2.184A12.548,12.548,0,0,1,48.1,26.7l-.888-1.632a11.036,11.036,0,0,0,2.808-1,11.267,11.267,0,0,0,2.508-1.728,8.847,8.847,0,0,0,1.812-2.292,5.43,5.43,0,0,0,.7-2.64V15.76h2.04v1.656a5.429,5.429,0,0,0,.7,2.64,8.847,8.847,0,0,0,1.812,2.292,11.472,11.472,0,0,0,2.52,1.74,10.314,10.314,0,0,0,2.82.984ZM65.9,31.288V32.9H46.392V31.288ZM79.464,14.8h1.824V34.672H79.464V24.352H75.48a14.59,14.59,0,0,1-2.52,3.756,16.387,16.387,0,0,1-4.2,3.2L67.632,29.9a15.3,15.3,0,0,0,4-3,12.166,12.166,0,0,0,2.316-3.552l-6.048.6-.264-1.68,6.84-.456a13.9,13.9,0,0,0,.372-1.692q.132-.852.18-1.74H68.688V16.792H76.92a23.7,23.7,0,0,1-.192,3.012,16.773,16.773,0,0,1-.648,2.94h3.384Zm6.336-.576V35.752H83.928V14.224Zm8.592,14.928a2.551,2.551,0,0,0,1.4-.407,3.594,3.594,0,0,0,1.1-1.162,6.106,6.106,0,0,0,.72-1.808,11.225,11.225,0,0,0,0-4.73,5.936,5.936,0,0,0-.72-1.808,3.632,3.632,0,0,0-1.1-1.15,2.551,2.551,0,0,0-1.4-.407,2.611,2.611,0,0,0-1.416.407,3.579,3.579,0,0,0-1.116,1.15,5.936,5.936,0,0,0-.72,1.808,11.225,11.225,0,0,0,0,4.73,6.106,6.106,0,0,0,.72,1.808,3.543,3.543,0,0,0,1.116,1.162A2.611,2.611,0,0,0,94.392,29.152Zm11.976-14.9V35.824H104.4V24.064H99.7A10.662,10.662,0,0,1,99.2,26.92a7.059,7.059,0,0,1-1.113,2.16,4.865,4.865,0,0,1-1.64,1.368,4.685,4.685,0,0,1-4.226-.048,5.081,5.081,0,0,1-1.7-1.512,7.445,7.445,0,0,1-1.114-2.364,11.292,11.292,0,0,1-.4-3.108,11.292,11.292,0,0,1,.4-3.108,7.445,7.445,0,0,1,1.114-2.364,5.081,5.081,0,0,1,1.7-1.512,4.638,4.638,0,0,1,4.154-.072,4.97,4.97,0,0,1,1.628,1.308,6.734,6.734,0,0,1,1.138,2.064,10.616,10.616,0,0,1,.551,2.724h4.7V14.248Zm16.44,12.6-.84-2.7q-.48-1.516-.912-2.972t-.864-3h-.1q-.408,1.565-.84,3.008t-.912,2.96l-.864,2.7Zm.552,1.776h-6.432L115.224,34h-2.256l5.976-17.592h2.472L127.392,34H125.04Zm5.352-7.656h1.8l.192,1.488h.072a11.631,11.631,0,0,1,1.944-1.272,4.7,4.7,0,0,1,2.208-.552,4.949,4.949,0,0,1,2.22.48,4.579,4.579,0,0,1,1.632,1.344,6.027,6.027,0,0,1,1,2.088,10.333,10.333,0,0,1,.336,2.736,8.841,8.841,0,0,1-.468,2.988,6.857,6.857,0,0,1-1.248,2.208,5.285,5.285,0,0,1-1.8,1.368,5.092,5.092,0,0,1-2.148.468,4.445,4.445,0,0,1-1.8-.4,7.8,7.8,0,0,1-1.8-1.131l.048,2.287V39.5h-2.184Zm5.376,11.5a3.178,3.178,0,0,0,1.5-.359,3.593,3.593,0,0,0,1.188-1.018,4.833,4.833,0,0,0,.78-1.616,7.875,7.875,0,0,0,.276-2.179,9.286,9.286,0,0,0-.192-1.963,4.581,4.581,0,0,0-.6-1.52,2.828,2.828,0,0,0-1.056-.982,3.317,3.317,0,0,0-1.584-.347,3.569,3.569,0,0,0-1.692.455,8.987,8.987,0,0,0-1.812,1.341V31.1a5.6,5.6,0,0,0,1.716,1.065A4.409,4.409,0,0,0,134.088,32.464Zm8.544-11.5h1.8l.192,1.488h.072a11.631,11.631,0,0,1,1.944-1.272,4.7,4.7,0,0,1,2.208-.552,4.949,4.949,0,0,1,2.22.48,4.579,4.579,0,0,1,1.632,1.344,6.027,6.027,0,0,1,1,2.088,10.333,10.333,0,0,1,.336,2.736,8.841,8.841,0,0,1-.468,2.988,6.857,6.857,0,0,1-1.248,2.208,5.285,5.285,0,0,1-1.8,1.368,5.092,5.092,0,0,1-2.148.468,4.445,4.445,0,0,1-1.8-.4,7.8,7.8,0,0,1-1.8-1.131l.048,2.287V39.5h-2.184Zm5.376,11.5a3.178,3.178,0,0,0,1.5-.359,3.593,3.593,0,0,0,1.188-1.018,4.833,4.833,0,0,0,.78-1.616,7.875,7.875,0,0,0,.276-2.179,9.286,9.286,0,0,0-.192-1.963,4.58,4.58,0,0,0-.6-1.52,2.828,2.828,0,0,0-1.056-.982,3.317,3.317,0,0,0-1.584-.347,3.569,3.569,0,0,0-1.692.455,8.987,8.987,0,0,0-1.812,1.341V31.1a5.6,5.6,0,0,0,1.716,1.065A4.409,4.409,0,0,0,148.008,32.464Zm19.56-12.5A9.936,9.936,0,0,0,168,22.852a11.656,11.656,0,0,0,1.188,2.676,10.94,10.94,0,0,0,1.764,2.22,8.1,8.1,0,0,0,2.184,1.524l-1.152,1.56a8.863,8.863,0,0,1-1.74-1.152,10.157,10.157,0,0,1-1.512-1.584,13.819,13.819,0,0,1-1.236-1.92,12.858,12.858,0,0,1-.912-2.16,14.67,14.67,0,0,1-.9,2.292,13.249,13.249,0,0,1-1.224,2.016,11.54,11.54,0,0,1-1.5,1.668,8.307,8.307,0,0,1-1.728,1.224l-1.2-1.56a7.932,7.932,0,0,0,2.184-1.608,11.883,11.883,0,0,0,1.764-2.328,12.316,12.316,0,0,0,1.188-2.784,10.629,10.629,0,0,0,.432-2.976V16.1h1.968Zm10.2-5.712V35.8H175.8V23.152h-4.992V21.544H175.8v-7.3Zm21,0V35.8H196.8V14.248ZM184.32,16.1v5.688h6.24V16.1H192.5v14.5H182.376V16.1Zm0,12.888h6.24V23.32h-6.24Zm35.592-2.28a13.125,13.125,0,0,1-2.436-.84,11.818,11.818,0,0,1-2.268-1.356,12.363,12.363,0,0,1-1.917-1.812,8.253,8.253,0,0,1-1.359-2.208,8.383,8.383,0,0,1-1.359,2.184,12.548,12.548,0,0,1-6.6,4.032l-.888-1.632a11.036,11.036,0,0,0,2.808-1,11.267,11.267,0,0,0,2.508-1.728,8.847,8.847,0,0,0,1.812-2.292,5.429,5.429,0,0,0,.7-2.64V15.76h2.04v1.656a5.429,5.429,0,0,0,.7,2.64,8.847,8.847,0,0,0,1.812,2.292,11.473,11.473,0,0,0,2.52,1.74,10.314,10.314,0,0,0,2.82.984Zm1.872,4.584V32.9H202.272V31.288ZM7.344,68.312a6.315,6.315,0,0,1-2.412-.456,5.516,5.516,0,0,1-1.944-1.332,6.215,6.215,0,0,1-1.3-2.136A8.275,8.275,0,0,1,1.224,61.5a7.674,7.674,0,0,1,.516-2.9,6.628,6.628,0,0,1,1.38-2.16,5.744,5.744,0,0,1,2-1.344,6.371,6.371,0,0,1,2.388-.456,4.841,4.841,0,0,1,2.208.462,7.242,7.242,0,0,1,1.608,1.094L10.2,57.656A5.6,5.6,0,0,0,9,56.8a3.027,3.027,0,0,0-1.416-.324,3.646,3.646,0,0,0-2.916,1.385,5.12,5.12,0,0,0-.852,1.588A6.327,6.327,0,0,0,3.5,61.5a6.812,6.812,0,0,0,.288,2.042A4.5,4.5,0,0,0,4.62,65.1a3.859,3.859,0,0,0,1.272,1,3.69,3.69,0,0,0,1.644.358,3.8,3.8,0,0,0,1.68-.372,6.107,6.107,0,0,0,1.392-.924l.936,1.466A6.326,6.326,0,0,1,9.6,67.874,5.951,5.951,0,0,1,7.344,68.312Zm7.248,0a1.544,1.544,0,0,1-1.116-.456,1.6,1.6,0,0,1-.468-1.2,1.681,1.681,0,0,1,.468-1.224,1.537,1.537,0,0,1,2.232,0,1.681,1.681,0,0,1,.468,1.224,1.6,1.6,0,0,1-.468,1.2A1.544,1.544,0,0,1,14.592,68.312ZM40.824,60.3h-1.9V48.272h1.9ZM35.04,53.912v-5.3h1.872V60.152H35.04V55.5H32.664V53.912ZM33.192,51.9H22.536V50.36H26.9V48.2h1.944v2.16h4.344Zm-8.04,4.416a1.858,1.858,0,0,0,.756,1.56,3.18,3.18,0,0,0,1.98.576,3.128,3.128,0,0,0,1.968-.576,2.007,2.007,0,0,0,0-3.12,3.128,3.128,0,0,0-1.968-.576,3.18,3.18,0,0,0-1.98.576A1.858,1.858,0,0,0,25.152,56.312Zm7.176,0a3.22,3.22,0,0,1-1.236,2.58,4.235,4.235,0,0,1-1.4.72,6.08,6.08,0,0,1-1.8.252,6.2,6.2,0,0,1-1.812-.252,4.22,4.22,0,0,1-1.416-.72,3.22,3.22,0,0,1-1.236-2.58,3.3,3.3,0,0,1,.324-1.476,3.268,3.268,0,0,1,.912-1.128,4.22,4.22,0,0,1,1.416-.72,6.2,6.2,0,0,1,1.812-.252,6.08,6.08,0,0,1,1.8.252,4.235,4.235,0,0,1,1.4.72A3.268,3.268,0,0,1,32,54.836,3.3,3.3,0,0,1,32.328,56.312Zm9.264,11.736v1.488H26.664V64.592H38.88V62.72H26.616V61.256H40.824v4.752H28.608v2.04ZM61.416,60.7a13.125,13.125,0,0,1-2.436-.84,11.818,11.818,0,0,1-2.268-1.356A12.364,12.364,0,0,1,54.8,56.7a8.253,8.253,0,0,1-1.359-2.208,8.383,8.383,0,0,1-1.359,2.184,12.548,12.548,0,0,1-6.6,4.032l-.888-1.632a11.036,11.036,0,0,0,2.808-1,11.267,11.267,0,0,0,2.508-1.728,8.847,8.847,0,0,0,1.812-2.292,5.429,5.429,0,0,0,.7-2.64V49.76h2.04v1.656a5.429,5.429,0,0,0,.7,2.64,8.847,8.847,0,0,0,1.812,2.292,11.472,11.472,0,0,0,2.52,1.74,10.314,10.314,0,0,0,2.82.984Zm1.872,4.584V66.9H43.776V65.288ZM76.848,48.8h1.824V68.672H76.848V58.352H72.864a14.59,14.59,0,0,1-2.52,3.756,16.387,16.387,0,0,1-4.2,3.2L65.016,63.9a15.3,15.3,0,0,0,4-3,12.166,12.166,0,0,0,2.316-3.552l-6.048.6-.264-1.68,6.84-.456a13.9,13.9,0,0,0,.372-1.692q.132-.852.18-1.74H66.072V50.792H74.3a23.7,23.7,0,0,1-.192,3.012,16.773,16.773,0,0,1-.648,2.94h3.384Zm6.336-.576V69.752H81.312V48.224Zm8.592,14.928a2.551,2.551,0,0,0,1.4-.407,3.594,3.594,0,0,0,1.1-1.162A6.107,6.107,0,0,0,95,59.775a11.225,11.225,0,0,0,0-4.73,5.936,5.936,0,0,0-.72-1.808,3.632,3.632,0,0,0-1.1-1.15,2.551,2.551,0,0,0-1.4-.407,2.611,2.611,0,0,0-1.416.407,3.579,3.579,0,0,0-1.116,1.15,5.935,5.935,0,0,0-.72,1.808,11.225,11.225,0,0,0,0,4.73,6.106,6.106,0,0,0,.72,1.808,3.543,3.543,0,0,0,1.116,1.162A2.611,2.611,0,0,0,91.776,63.152Zm11.976-14.9V69.824h-1.968V58.064h-4.7a10.662,10.662,0,0,1-.491,2.856,7.059,7.059,0,0,1-1.113,2.16,4.865,4.865,0,0,1-1.64,1.368,4.685,4.685,0,0,1-4.226-.048,5.081,5.081,0,0,1-1.7-1.512A7.445,7.445,0,0,1,86.8,60.524a12.423,12.423,0,0,1,0-6.216,7.445,7.445,0,0,1,1.114-2.364,5.081,5.081,0,0,1,1.7-1.512,4.638,4.638,0,0,1,4.154-.072,4.97,4.97,0,0,1,1.628,1.308,6.734,6.734,0,0,1,1.138,2.064,10.616,10.616,0,0,1,.551,2.724h4.7V48.248Zm23.016,3.768h-13.2V50.408h15.168v2.376q0,1.032-.012,2.088t-.084,2.22q-.072,1.164-.228,2.46t-.444,2.808l-1.944-.24a35.678,35.678,0,0,0,.648-5.112q.1-2.232.1-4.224Zm4.248,13.128v1.608H111.552V65.144h4.776V58.016h1.944v7.128h3.384V58.016H123.6v7.128ZM142.4,50.312a10,10,0,0,0-4.047.672,1.953,1.953,0,0,0,0,3.792,12.523,12.523,0,0,0,8.094,0,1.953,1.953,0,0,0,0-3.792A10,10,0,0,0,142.4,50.312Zm-.012,6.672a16.337,16.337,0,0,1-3.132-.275,8.549,8.549,0,0,1-2.388-.8,4.238,4.238,0,0,1-1.512-1.28,3.095,3.095,0,0,1,0-3.458,4.29,4.29,0,0,1,1.512-1.3,8.294,8.294,0,0,1,2.388-.814,18.025,18.025,0,0,1,6.276,0,8.3,8.3,0,0,1,2.376.814,4.29,4.29,0,0,1,1.512,1.3,3.095,3.095,0,0,1,0,3.458,4.238,4.238,0,0,1-1.512,1.28,8.551,8.551,0,0,1-2.376.8A16.289,16.289,0,0,1,142.392,56.984Zm2.64,3.216h-5.256v2.736h5.256Zm1.968,0v2.736h2.736V69.8h-1.968V64.52H134.832V62.936h2.976V60.2h-5.136V58.616h19.464V60.2Zm17.4-12.432h1.584L158.808,71.1H157.2Zm17.568,2.088a10.337,10.337,0,0,1-.7,3.828,10.541,10.541,0,0,1-1.992,3.2,12.866,12.866,0,0,1-3.168,2.52,19.619,19.619,0,0,1-4.2,1.776L171.12,59.6a19.348,19.348,0,0,0,3.468-1.392,12.2,12.2,0,0,0,2.664-1.86,8.8,8.8,0,0,0,1.776-2.28,7.073,7.073,0,0,0,.8-2.628h-7.8V49.856Zm-.936,18.36a8.19,8.19,0,0,0,3.7-.7,2.061,2.061,0,0,0,0-3.882,10.118,10.118,0,0,0-7.392,0,2.061,2.061,0,0,0,0,3.882A8.19,8.19,0,0,0,181.032,68.216Zm0-6.816a13.3,13.3,0,0,1,2.88.288,7.69,7.69,0,0,1,2.22.828,4.084,4.084,0,0,1,1.416,1.308,3.365,3.365,0,0,1,0,3.5,4.084,4.084,0,0,1-1.416,1.308,7.69,7.69,0,0,1-2.22.828,14.544,14.544,0,0,1-5.76,0,7.69,7.69,0,0,1-2.22-.828,4.084,4.084,0,0,1-1.416-1.308,3.365,3.365,0,0,1,0-3.5,4.084,4.084,0,0,1,1.416-1.308,7.69,7.69,0,0,1,2.22-.828A13.3,13.3,0,0,1,181.032,61.4Zm9.936-7.56v1.608h-3.192v5.664h-1.968V48.272h1.968V53.84Zm3.432,1.188a3.931,3.931,0,0,0,.276,1.481,3.369,3.369,0,0,0,.768,1.168,3.612,3.612,0,0,0,1.164.758,3.805,3.805,0,0,0,1.464.277,3.716,3.716,0,0,0,1.452-.277,3.646,3.646,0,0,0,1.152-.758,3.369,3.369,0,0,0,.768-1.168,4.111,4.111,0,0,0,0-2.962,3.369,3.369,0,0,0-.768-1.168,3.646,3.646,0,0,0-1.152-.758,3.716,3.716,0,0,0-1.452-.277,3.805,3.805,0,0,0-1.464.277,3.612,3.612,0,0,0-1.164.758,3.369,3.369,0,0,0-.768,1.168A3.931,3.931,0,0,0,194.4,55.028Zm8.9-1.812a5.513,5.513,0,0,1,.288,1.8,5.3,5.3,0,0,1-.288,1.776h4.632V53.216Zm-.816,5.16a5.356,5.356,0,0,1-1.9,1.5,5.762,5.762,0,0,1-2.52.54,6,6,0,0,1-2.208-.4,5.249,5.249,0,0,1-1.752-1.114,5.123,5.123,0,0,1-1.164-1.712,5.8,5.8,0,0,1,0-4.334,5.123,5.123,0,0,1,1.164-1.712,5.249,5.249,0,0,1,1.752-1.114,6,6,0,0,1,2.208-.4,5.741,5.741,0,0,1,2.508.534,5.5,5.5,0,0,1,1.884,1.458h5.472v-3.36H209.9V64.16h-1.968V58.376Zm8.016,9.312V69.3H196.152V62.528h1.968v5.16Zm22.32-14.472q.024-.552.024-1.068v-1.26H220.032V49.28h14.76v1.848q0,1.488-.072,3.192a24.8,24.8,0,0,1-.528,3.912l-1.944-.144q.192-.96.312-1.788t.168-1.6l-12.936.6-.288-1.656ZM222.168,67.832h13.08V69.44H220.2V63.1h1.968Zm15-8.16v1.584H217.752V59.672h7.9v-3.12h1.968v3.12ZM257.016,64.4h-1.9V48.272h1.9Zm-6.048-8.448h-2.856V54.344h2.856V48.7h1.872V63.848h-1.872Zm-1.848,4.3q-.936.192-1.8.3t-1.8.168q-.936.06-1.98.084t-2.34.024h-1.368V50.048h8.136v1.584h-6.24v2.952H247.1V56.12h-5.376v3.12q1.128,0,2.088-.024t1.812-.1q.852-.072,1.656-.18t1.644-.276Zm8.52,7.44V69.3H243.024V62.624h1.968v5.064Zm3.5-7.488a11.966,11.966,0,0,0,2.916-.888,9.984,9.984,0,0,0,2.424-1.524,6.975,6.975,0,0,0,1.644-2.04,5.2,5.2,0,0,0,.6-2.46h-6.936V51.7h6.936V48.776H270.7V51.7h6.912v1.584H270.7a5.2,5.2,0,0,0,.6,2.46,6.976,6.976,0,0,0,1.644,2.04,10.061,10.061,0,0,0,2.412,1.524,11.744,11.744,0,0,0,2.928.888l-.792,1.608a15.033,15.033,0,0,1-2.46-.732,12.454,12.454,0,0,1-2.208-1.128,9.214,9.214,0,0,1-1.809-1.524,7.876,7.876,0,0,1-1.287-1.9,7.7,7.7,0,0,1-1.3,1.9,9.529,9.529,0,0,1-1.821,1.524,12.453,12.453,0,0,1-2.208,1.128,14.851,14.851,0,0,1-2.484.732Zm18.36,5.208v1.608H259.968V65.408Z" transform="translate(488 380.051)" fill="#005c9b"/>
  </g>
</svg>
