<svg xmlns="http://www.w3.org/2000/svg" xmlns:xlink="http://www.w3.org/1999/xlink" width="234" height="208" viewBox="0 0 234 208">
  <defs>
    <filter id="사각형_1437" x="0" y="0" width="234" height="208" filterUnits="userSpaceOnUse">
      <feOffset dy="5" input="SourceAlpha"/>
      <feGaussianBlur stdDeviation="9" result="blur"/>
      <feFlood flood-color="#97a9ce" flood-opacity="0.239"/>
      <feComposite operator="in" in2="blur"/>
      <feComposite in="SourceGraphic"/>
    </filter>
  </defs>
  <g id="img_2-4_case-a" transform="translate(-615 -10266)">
    <g transform="matrix(1, 0, 0, 1, 615, 10266)" filter="url(#사각형_1437)">
      <g id="사각형_1437-2" data-name="사각형 1437" transform="translate(27 22)" fill="#fff" stroke="#97a9ce" stroke-width="1">
        <rect width="180" height="154" rx="16" stroke="none"/>
        <rect x="0.5" y="0.5" width="179" height="153" rx="15.5" fill="none"/>
      </g>
    </g>
    <rect id="사각형_1440" data-name="사각형 1440" width="140" height="40" rx="20" transform="translate(662 10268)" fill="#00b9ff"/>
    <text id="Case_A" data-name="Case A" transform="translate(705.288 10295)" fill="#fff" font-size="16" font-family="SpoqaHanSans-Regular, SpoqaHanSans" letter-spacing="0.05em"><tspan x="0" y="0">Case </tspan><tspan y="0" font-family="SpoqaHanSans-Bold, SpoqaHanSans" font-weight="700">A</tspan></text>
    <path id="Team_선택" data-name="Team 선택" d="M4.76-12.32H.6V-14.8H11.92v2.48H7.72V0H4.76ZM18.94.28a5.894,5.894,0,0,1-2.19-.4,5.132,5.132,0,0,1-1.76-1.15,5.328,5.328,0,0,1-1.18-1.84,6.687,6.687,0,0,1-.43-2.47,6.482,6.482,0,0,1,.441-2.45,5.853,5.853,0,0,1,1.172-1.86,5.1,5.1,0,0,1,1.673-1.18,4.823,4.823,0,0,1,1.944-.41,4.834,4.834,0,0,1,2.034.4,4.051,4.051,0,0,1,1.463,1.12A4.917,4.917,0,0,1,23-8.26a7.268,7.268,0,0,1,.3,2.14,7.166,7.166,0,0,1-.04.77,3.35,3.35,0,0,1-.1.57H16.24a3.169,3.169,0,0,0,1.01,2.09,3.1,3.1,0,0,0,2.09.71,4.18,4.18,0,0,0,1.31-.2,5.42,5.42,0,0,0,1.21-.58l1,1.8a7.136,7.136,0,0,1-1.85.91A6.624,6.624,0,0,1,18.94.28Zm1.82-7a2.878,2.878,0,0,0-.52-1.81,1.9,1.9,0,0,0-1.6-.67,2.3,2.3,0,0,0-1.58.63,2.9,2.9,0,0,0-.86,1.85ZM28.46.2a3.86,3.86,0,0,1-1.37-.23,2.891,2.891,0,0,1-1.04-.66,3.024,3.024,0,0,1-.67-1.031,3.539,3.539,0,0,1-.24-1.323A3.188,3.188,0,0,1,26.57-6.1,10.1,10.1,0,0,1,31.58-7.2a2.162,2.162,0,0,0-.27-1.414q-.35-.531-1.63-.531a5.205,5.205,0,0,0-1.63.28,6.775,6.775,0,0,0-1.61.78l-.88-2.091a9.676,9.676,0,0,1,2.13-.932,8.462,8.462,0,0,1,2.53-.377,4.054,4.054,0,0,1,3.233,1.25A5.478,5.478,0,0,1,34.54-6.54V0H32.124L31.9-1.14h-.06a5.984,5.984,0,0,1-1.572.98A4.593,4.593,0,0,1,28.46.2Zm.9-2.24a2.732,2.732,0,0,0,1.17-.29,4.209,4.209,0,0,0,1.05-.79V-5.38q-1.06.08-2.02.22a2.18,2.18,0,0,0-1.35.58,1.44,1.44,0,0,0-.37,1.04,1.491,1.491,0,0,0,.45,1.1A1.511,1.511,0,0,0,29.36-2.04Zm8.16-9.16h2.4l.2,1.5h.08a7.971,7.971,0,0,1,1.524-1.26,3.525,3.525,0,0,1,1.925-.52,3.37,3.37,0,0,1,1.945.51,3.255,3.255,0,0,1,1.143,1.45,9.15,9.15,0,0,1,1.611-1.39,3.421,3.421,0,0,1,1.951-.57,3.01,3.01,0,0,1,2.641,1.19,5.664,5.664,0,0,1,.84,3.31V0H50.82V-6.62a3.227,3.227,0,0,0-.378-1.82,1.354,1.354,0,0,0-1.174-.52A3.246,3.246,0,0,0,47.12-7.7V0H44.16V-6.62a3.213,3.213,0,0,0-.38-1.82,1.364,1.364,0,0,0-1.18-.52A3.268,3.268,0,0,0,40.44-7.7V0H37.52Zm35.86.56H70v-2.14h3.38V-16.7h2.64V-3.1H73.38ZM70.22-5.78a6.638,6.638,0,0,1-2.43-1.49,7.392,7.392,0,0,1-1.57-2.25A7.547,7.547,0,0,1,64.57-7a7.076,7.076,0,0,1-2.69,1.66L60.5-7.4a6.36,6.36,0,0,0,1.96-1.03A5.924,5.924,0,0,0,63.8-9.9a6.258,6.258,0,0,0,.77-1.77,7.553,7.553,0,0,0,.25-1.93v-1.98H67.5v2a6.626,6.626,0,0,0,.24,1.77,5.712,5.712,0,0,0,.74,1.63,5.761,5.761,0,0,0,1.28,1.37,6.488,6.488,0,0,0,1.86.99ZM76.42-.7V1.4H63.86V-4.46H66.5V-.7ZM87.54-6.58q-.78.12-1.53.2t-1.54.13q-.79.05-1.66.06t-1.89.01H79.64v-9.28h7.24v2.08h-4.7v1.52H86.7v2H82.18V-8.3q1.48-.02,2.67-.1t2.45-.28Zm-5.5,1.92H94.7v6.4H92.08v-4.3H82.04ZM94.7-16.7V-5.46H92.22v-4.62h-1.5v4.5H88.28v-10.8h2.44v4.2h1.5V-16.7Z" transform="translate(683.72 10340)" fill="#1382ce"/>
    <path id="두_Team_동시_선택가능" data-name="두 Team 동시 선택가능" d="M12.24-6.768H2.624V-12.32h9.44v1.072H3.984v3.424H12.24Zm1.616,2.944H7.968V1.12H6.656V-3.824H.848V-4.9H13.856Zm7.216-6.656H17.52v-1.248h8.592v1.248H22.56V0H21.072ZM30.944.208A4.332,4.332,0,0,1,29.32-.1,3.722,3.722,0,0,1,28-.984a4.259,4.259,0,0,1-.888-1.432,5.29,5.29,0,0,1-.328-1.92,5.232,5.232,0,0,1,.329-1.9,4.5,4.5,0,0,1,.874-1.44,3.826,3.826,0,0,1,1.259-.912,3.55,3.55,0,0,1,1.467-.32,3.568,3.568,0,0,1,1.475.288A2.943,2.943,0,0,1,33.27-7.8a3.74,3.74,0,0,1,.674,1.288,5.675,5.675,0,0,1,.233,1.68q0,.24-.016.456A3.115,3.115,0,0,1,34.112-4H28.24A3.361,3.361,0,0,0,29.1-1.788a2.673,2.673,0,0,0,2.024.812,3.53,3.53,0,0,0,1.168-.184,4.455,4.455,0,0,0,1.008-.5l.528.964a6.776,6.776,0,0,1-1.28.641A4.479,4.479,0,0,1,30.944.208ZM32.88-5.024a3.1,3.1,0,0,0-.568-2.016,1.95,1.95,0,0,0-1.592-.688,2.207,2.207,0,0,0-.888.184,2.38,2.38,0,0,0-.76.528,2.862,2.862,0,0,0-.56.848,3.712,3.712,0,0,0-.288,1.144ZM37.648.208A2.825,2.825,0,0,1,36.64.032a2.3,2.3,0,0,1-.8-.5,2.322,2.322,0,0,1-.528-.8,2.791,2.791,0,0,1-.192-1.062,2.506,2.506,0,0,1,1.384-2.4,8.936,8.936,0,0,1,3.96-.759,4.134,4.134,0,0,0-.08-.814,1.963,1.963,0,0,0-.28-.7,1.446,1.446,0,0,0-.552-.487,1.89,1.89,0,0,0-.88-.184,4.4,4.4,0,0,0-1.472.248,5.17,5.17,0,0,0-1.216.6l-.576-1.043a7.439,7.439,0,0,1,1.528-.713,5.9,5.9,0,0,1,1.976-.324,3.327,3.327,0,0,1,1.36.256,2.357,2.357,0,0,1,.936.728A3.208,3.208,0,0,1,41.744-6.8a5.616,5.616,0,0,1,.176,1.456V0h-1.2l-.128-.944h-.048a5.587,5.587,0,0,1-1.352.835A3.833,3.833,0,0,1,37.648.208Zm.416-1.184a3.2,3.2,0,0,0,1.2-.224,4.322,4.322,0,0,0,1.2-.784V-4.56a15.489,15.489,0,0,0-1.912.232,4.08,4.08,0,0,0-1.208.408,1.477,1.477,0,0,0-.624.616,1.931,1.931,0,0,0-.176.856,1.366,1.366,0,0,0,.432,1.112A1.642,1.642,0,0,0,38.064-.976Zm5.984-7.712h1.2l.128,1.264h.048a5.949,5.949,0,0,1,1.24-1.056,2.68,2.68,0,0,1,1.464-.432,2.45,2.45,0,0,1,1.568.448,2.644,2.644,0,0,1,.832,1.216,7.528,7.528,0,0,1,1.368-1.2,2.647,2.647,0,0,1,1.5-.464,2.325,2.325,0,0,1,2,.864,4.241,4.241,0,0,1,.64,2.544V0H54.576V-5.312a3.1,3.1,0,0,0-.392-1.776,1.407,1.407,0,0,0-1.224-.544A3.282,3.282,0,0,0,50.768-6.3V0H49.312V-5.312a3.1,3.1,0,0,0-.392-1.776A1.407,1.407,0,0,0,47.7-7.632,3.2,3.2,0,0,0,45.5-6.3V0H44.048ZM67.032.16a6.931,6.931,0,0,0,2.638-.4,1.277,1.277,0,0,0,.938-1.168,1.277,1.277,0,0,0-.938-1.168,6.931,6.931,0,0,0-2.638-.4,7.05,7.05,0,0,0-2.662.4q-.946.4-.946,1.168T64.37-.24A7.05,7.05,0,0,0,67.032.16Zm0-4.16a11.324,11.324,0,0,1,2.045.168,5.341,5.341,0,0,1,1.542.5,2.691,2.691,0,0,1,.966.816,1.879,1.879,0,0,1,.335,1.1,1.879,1.879,0,0,1-.335,1.1,2.691,2.691,0,0,1-.966.816,5.341,5.341,0,0,1-1.542.5,11.324,11.324,0,0,1-2.045.168,8.009,8.009,0,0,1-3.61-.672,2.091,2.091,0,0,1-1.31-1.92,2.091,2.091,0,0,1,1.31-1.92A8.009,8.009,0,0,1,67.032-4Zm6.5-2.08v1.056H60.544V-6.08h5.84V-7.744H62.176v-4.768H71.9v1.056H63.472V-8.8H72v1.056H67.7V-6.08Zm6.176-3.264a6.43,6.43,0,0,0,.3,1.952,7.659,7.659,0,0,0,.824,1.784,7.591,7.591,0,0,0,1.216,1.48,5.281,5.281,0,0,0,1.5,1.008l-.784,1.056a6.675,6.675,0,0,1-2.208-1.8,8.477,8.477,0,0,1-1.488-2.744,8.946,8.946,0,0,1-1.472,2.9,6.78,6.78,0,0,1-2.24,1.92l-.8-1.072A5.951,5.951,0,0,0,76.048-3.92,7.562,7.562,0,0,0,77.28-5.456a8.046,8.046,0,0,0,.832-1.864,6.923,6.923,0,0,0,.3-2.024V-11.92h1.3Zm6.656-3.824V1.216H85.056V-13.168ZM102.144-8.7H99.008V-9.776h3.136v-3.36h1.312v10.7h-1.312Zm-2.8,3.888a5.873,5.873,0,0,1-2.08-1.352A6.079,6.079,0,0,1,95.92-8.224,6.355,6.355,0,0,1,94.536-5.96a6.172,6.172,0,0,1-2.184,1.48l-.688-1.04a5.349,5.349,0,0,0,1.464-.8A5.515,5.515,0,0,0,94.264-7.5a5.381,5.381,0,0,0,.728-1.44,5.05,5.05,0,0,0,.256-1.592V-12.3H96.56v1.824a4.3,4.3,0,0,0,.256,1.464,5.15,5.15,0,0,0,.712,1.328,5.336,5.336,0,0,0,1.1,1.1,5.624,5.624,0,0,0,1.408.768Zm4.464,4.608V.864H94.24v-4.48h1.312V-.208Zm8.768-5.408q-.624.128-1.208.208t-1.208.12q-.624.04-1.328.056t-1.568.016h-.912v-6.9h5.536v1.056h-4.272v1.792h4.112V-8.24h-4.112v1.952q.768,0,1.408-.016t1.216-.064q.576-.048,1.112-.12t1.1-.184Zm-4.384,1.9h9.648v4.9h-1.312v-3.84h-8.336Zm9.648-9.44v8.688h-1.264V-8.352h-1.92V-4.56h-1.248V-12.9h1.248v3.472h1.92v-3.728Zm9.3,1.52a11.907,11.907,0,0,1-.368,2.96,10.086,10.086,0,0,1-1.152,2.736A10.735,10.735,0,0,1,123.6-3.528a13.067,13.067,0,0,1-2.976,1.976l-.72-1.024a11.523,11.523,0,0,0,4.24-3.408,8.93,8.93,0,0,0,1.7-4.576h-5.264v-1.072Zm6.016,5.376h-2.3v7.44h-1.312V-13.152h1.312v5.824h2.3Zm12.224-1.856h-9.728v-4.752h1.312v3.7h8.416ZM140.36.112A6.752,6.752,0,0,0,143.006-.3q.946-.416.946-1.168a1.307,1.307,0,0,0-.946-1.184,8.622,8.622,0,0,0-5.292,0,1.307,1.307,0,0,0-.946,1.184q0,.752.946,1.168A6.752,6.752,0,0,0,140.36.112Zm0-4.208a10.791,10.791,0,0,1,2.053.176,5.622,5.622,0,0,1,1.542.512,2.642,2.642,0,0,1,.974.824,1.916,1.916,0,0,1,.335,1.112,1.916,1.916,0,0,1-.335,1.112,2.577,2.577,0,0,1-.974.816,5.813,5.813,0,0,1-1.542.5,10.791,10.791,0,0,1-2.053.176A10.791,10.791,0,0,1,138.307.96a5.813,5.813,0,0,1-1.542-.5,2.577,2.577,0,0,1-.974-.816,1.916,1.916,0,0,1-.335-1.112,1.916,1.916,0,0,1,.335-1.112,2.642,2.642,0,0,1,.974-.824,5.622,5.622,0,0,1,1.542-.512A10.791,10.791,0,0,1,140.36-4.1Zm6.52-2.352v1.072H133.9V-6.448Z" transform="translate(658.12 10372)" fill="#333"/>
    <path id="승리팀_Reward" data-name="승리팀 Reward" d="M12.592-7.456a8.94,8.94,0,0,1-1.624-.408,8.717,8.717,0,0,1-1.48-.68,6.8,6.8,0,0,1-1.242-.92,4.683,4.683,0,0,1-.894-1.128,4.429,4.429,0,0,1-.894,1.136,7.02,7.02,0,0,1-1.242.912,8.613,8.613,0,0,1-1.488.68A9.135,9.135,0,0,1,2.1-7.456L1.616-8.48a9.125,9.125,0,0,0,1.872-.488A7.011,7.011,0,0,0,5.1-9.816,4.593,4.593,0,0,0,6.24-10.952a2.329,2.329,0,0,0,.432-1.336v-.64h1.36v.64a2.269,2.269,0,0,0,.432,1.312A4.724,4.724,0,0,0,9.608-9.84a7.273,7.273,0,0,0,1.616.864,8.663,8.663,0,0,0,1.864.5ZM7.336.16A7.06,7.06,0,0,0,9.974-.232q.938-.392.938-1.144,0-.736-.938-1.136a6.931,6.931,0,0,0-2.638-.4,7.05,7.05,0,0,0-2.662.4q-.946.4-.946,1.136,0,.752.946,1.144A7.181,7.181,0,0,0,7.336.16Zm0-4.1a8.049,8.049,0,0,1,3.594.658,2.056,2.056,0,0,1,1.294,1.894,1.853,1.853,0,0,1-.336,1.1,2.661,2.661,0,0,1-.966.8,5.5,5.5,0,0,1-1.534.5,11.258,11.258,0,0,1-2.053.168A8.07,8.07,0,0,1,3.726.518a2.072,2.072,0,0,1-1.31-1.9,1.827,1.827,0,0,1,.336-1.084,2.647,2.647,0,0,1,.974-.8,5.62,5.62,0,0,1,1.549-.5A11.391,11.391,0,0,1,7.336-3.936ZM13.824-6.32v1.072H.848V-6.32Zm3.248,2.976q.88,0,1.728-.024t1.7-.08q.848-.056,1.728-.16t1.824-.248l.128,1.064q-.976.158-1.88.26t-1.784.158q-.88.055-1.76.079t-1.808.024H15.76v-5.5h5.28v-2.992H15.712V-11.84h6.64V-6.7h-5.28Zm9.632-9.84V1.2H25.392V-13.184Zm11.264,7.3q-.784.128-1.536.208t-1.568.128q-.816.048-1.76.064t-2.112.016H29.824v-6.816h6.848v1.056H31.136V-9.44h5.136v1.024H31.136v1.888q1.12,0,2.024-.016T34.848-6.6q.784-.04,1.5-.12t1.472-.208ZM32.8-.064h6.7V-2.832H32.8ZM31.5-3.888h9.28V.992H31.5Zm9.28-9.264v8.56H39.472v-8.56ZM48.272-6.16H50.24a3.447,3.447,0,0,0,2.12-.556,2.022,2.022,0,0,0,.728-1.717,1.8,1.8,0,0,0-.728-1.644,3.946,3.946,0,0,0-2.12-.467H48.272ZM53.243,0,50.39-4.976H48.272V0H46.784V-11.728h3.688a7.592,7.592,0,0,1,1.652.168,3.5,3.5,0,0,1,1.3.56,2.66,2.66,0,0,1,.85,1.024,3.537,3.537,0,0,1,.3,1.544,3.169,3.169,0,0,1-.729,2.193,3.654,3.654,0,0,1-1.932,1.1L54.923,0ZM59.68.208a4.332,4.332,0,0,1-1.624-.3,3.722,3.722,0,0,1-1.32-.888,4.259,4.259,0,0,1-.888-1.432,5.29,5.29,0,0,1-.328-1.92,5.232,5.232,0,0,1,.329-1.9,4.5,4.5,0,0,1,.874-1.44,3.826,3.826,0,0,1,1.259-.912,3.55,3.55,0,0,1,1.467-.32,3.568,3.568,0,0,1,1.475.288,2.943,2.943,0,0,1,1.082.824,3.74,3.74,0,0,1,.674,1.288,5.675,5.675,0,0,1,.232,1.68q0,.24-.016.456A3.117,3.117,0,0,1,62.848-4H56.976a3.361,3.361,0,0,0,.856,2.212,2.673,2.673,0,0,0,2.024.812,3.53,3.53,0,0,0,1.168-.184,4.455,4.455,0,0,0,1.008-.5L62.56-.7a6.776,6.776,0,0,1-1.28.641A4.479,4.479,0,0,1,59.68.208Zm1.936-5.232a3.1,3.1,0,0,0-.568-2.016,1.95,1.95,0,0,0-1.592-.688,2.207,2.207,0,0,0-.888.184,2.38,2.38,0,0,0-.76.528,2.862,2.862,0,0,0-.56.848,3.712,3.712,0,0,0-.288,1.144ZM63.36-8.688h1.488l1.3,5.024q.128.624.256,1.224t.256,1.208h.08q.144-.608.28-1.216t.312-1.216l1.344-5.024H70.1l1.36,5.024q.16.624.3,1.224t.3,1.208h.064q.144-.608.272-1.208t.272-1.224l1.28-5.024h1.376L72.992,0h-1.76L69.968-4.688q-.176-.608-.3-1.216t-.288-1.28H69.3q-.144.672-.28,1.288T68.7-4.656L67.488,0H65.776ZM78.576.208A2.825,2.825,0,0,1,77.568.032a2.3,2.3,0,0,1-.8-.5,2.322,2.322,0,0,1-.528-.8,2.791,2.791,0,0,1-.192-1.062,2.506,2.506,0,0,1,1.384-2.4,8.936,8.936,0,0,1,3.96-.759,4.134,4.134,0,0,0-.08-.814,1.963,1.963,0,0,0-.28-.7A1.446,1.446,0,0,0,80.48-7.5a1.89,1.89,0,0,0-.88-.184,4.4,4.4,0,0,0-1.472.248,5.169,5.169,0,0,0-1.216.6l-.576-1.043a7.439,7.439,0,0,1,1.528-.713,5.9,5.9,0,0,1,1.976-.324,3.327,3.327,0,0,1,1.36.256,2.357,2.357,0,0,1,.936.728A3.208,3.208,0,0,1,82.672-6.8a5.616,5.616,0,0,1,.176,1.456V0h-1.2L81.52-.944h-.048a5.588,5.588,0,0,1-1.352.835A3.833,3.833,0,0,1,78.576.208Zm.416-1.184a3.2,3.2,0,0,0,1.2-.224,4.322,4.322,0,0,0,1.2-.784V-4.56a15.489,15.489,0,0,0-1.912.232,4.08,4.08,0,0,0-1.208.408,1.477,1.477,0,0,0-.624.616,1.931,1.931,0,0,0-.176.856A1.366,1.366,0,0,0,77.9-1.336,1.642,1.642,0,0,0,78.992-.976Zm5.984-7.712h1.2L86.3-7.1h.048a4.252,4.252,0,0,1,1.1-1.32,2.194,2.194,0,0,1,1.368-.488,2.8,2.8,0,0,1,.5.04,1.448,1.448,0,0,1,.424.152l-.272,1.28a2.583,2.583,0,0,0-.4-.112,2.579,2.579,0,0,0-.448-.032,1.712,1.712,0,0,0-.568.1,1.986,1.986,0,0,0-.584.336,3.041,3.041,0,0,0-.56.616,4.1,4.1,0,0,0-.48.944V0H84.976ZM93.5.208a3.514,3.514,0,0,1-1.48-.3A3.075,3.075,0,0,1,90.9-.976a4.158,4.158,0,0,1-.72-1.424,6.7,6.7,0,0,1-.256-1.936,5.484,5.484,0,0,1,.312-1.9,4.608,4.608,0,0,1,.824-1.44,3.58,3.58,0,0,1,1.192-.912,3.323,3.323,0,0,1,1.432-.32A2.959,2.959,0,0,1,95-8.64a5.758,5.758,0,0,1,1.128.752l-.08-1.5v-3.344H97.5V0H96.32l-.144-1.024h-.032a5,5,0,0,1-1.184.872A3.035,3.035,0,0,1,93.5.208Zm.32-1.232a2.335,2.335,0,0,0,1.144-.3,4.24,4.24,0,0,0,1.08-.9V-6.77a3.891,3.891,0,0,0-1.064-.7,2.727,2.727,0,0,0-1.048-.207,2.085,2.085,0,0,0-.984.239,2.475,2.475,0,0,0-.8.678,3.271,3.271,0,0,0-.536,1.054,4.5,4.5,0,0,0-.192,1.349A4.19,4.19,0,0,0,92.048-1.9,2.049,2.049,0,0,0,93.824-1.024Z" transform="translate(682.504 10396)" fill="#333"/>
  </g>
</svg>
