<svg xmlns="http://www.w3.org/2000/svg" xmlns:xlink="http://www.w3.org/1999/xlink" width="940" height="345" viewBox="0 0 940 345">
  <defs>
    <filter id="사각형_1552" x="0" y="0" width="208" height="99" filterUnits="userSpaceOnUse">
      <feOffset dy="12" input="SourceAlpha"/>
      <feGaussianBlur stdDeviation="7" result="blur"/>
      <feFlood flood-opacity="0.031"/>
      <feComposite operator="in" in2="blur"/>
      <feComposite in="SourceGraphic"/>
    </filter>
    <filter id="사각형_1553" x="0" y="82" width="208" height="99" filterUnits="userSpaceOnUse">
      <feOffset dy="12" input="SourceAlpha"/>
      <feGaussianBlur stdDeviation="7" result="blur-2"/>
      <feFlood flood-opacity="0.031"/>
      <feComposite operator="in" in2="blur-2"/>
      <feComposite in="SourceGraphic"/>
    </filter>
    <filter id="사각형_1554" x="0" y="164" width="208" height="99" filterUnits="userSpaceOnUse">
      <feOffset dy="12" input="SourceAlpha"/>
      <feGaussianBlur stdDeviation="7" result="blur-3"/>
      <feFlood flood-opacity="0.031"/>
      <feComposite operator="in" in2="blur-3"/>
      <feComposite in="SourceGraphic"/>
    </filter>
    <filter id="사각형_1555" x="0" y="246" width="208" height="99" filterUnits="userSpaceOnUse">
      <feOffset dy="12" input="SourceAlpha"/>
      <feGaussianBlur stdDeviation="7" result="blur-4"/>
      <feFlood flood-color="#00b9ff" flood-opacity="0.102"/>
      <feComposite operator="in" in2="blur-4"/>
      <feComposite in="SourceGraphic"/>
    </filter>
    <filter id="패스_2503" x="244" y="0" width="208" height="99" filterUnits="userSpaceOnUse">
      <feOffset dy="12" input="SourceAlpha"/>
      <feGaussianBlur stdDeviation="7" result="blur-5"/>
      <feFlood flood-opacity="0.031"/>
      <feComposite operator="in" in2="blur-5"/>
      <feComposite in="SourceGraphic"/>
    </filter>
    <filter id="패스_2504" x="244" y="82" width="208" height="99" filterUnits="userSpaceOnUse">
      <feOffset dy="12" input="SourceAlpha"/>
      <feGaussianBlur stdDeviation="7" result="blur-6"/>
      <feFlood flood-opacity="0.031"/>
      <feComposite operator="in" in2="blur-6"/>
      <feComposite in="SourceGraphic"/>
    </filter>
    <filter id="패스_2506" x="244" y="164" width="208" height="99" filterUnits="userSpaceOnUse">
      <feOffset dy="12" input="SourceAlpha"/>
      <feGaussianBlur stdDeviation="7" result="blur-7"/>
      <feFlood flood-opacity="0.031"/>
      <feComposite operator="in" in2="blur-7"/>
      <feComposite in="SourceGraphic"/>
    </filter>
    <filter id="패스_2509" x="244" y="246" width="208" height="99" filterUnits="userSpaceOnUse">
      <feOffset dy="12" input="SourceAlpha"/>
      <feGaussianBlur stdDeviation="7" result="blur-8"/>
      <feFlood flood-color="#969696" flood-opacity="0.09"/>
      <feComposite operator="in" in2="blur-8"/>
      <feComposite in="SourceGraphic"/>
    </filter>
    <filter id="패스_2515" x="488" y="0" width="208" height="99" filterUnits="userSpaceOnUse">
      <feOffset dy="12" input="SourceAlpha"/>
      <feGaussianBlur stdDeviation="7" result="blur-9"/>
      <feFlood flood-opacity="0.031"/>
      <feComposite operator="in" in2="blur-9"/>
      <feComposite in="SourceGraphic"/>
    </filter>
    <filter id="패스_2516" x="488" y="82" width="208" height="99" filterUnits="userSpaceOnUse">
      <feOffset dy="12" input="SourceAlpha"/>
      <feGaussianBlur stdDeviation="7" result="blur-10"/>
      <feFlood flood-opacity="0.031"/>
      <feComposite operator="in" in2="blur-10"/>
      <feComposite in="SourceGraphic"/>
    </filter>
    <filter id="패스_2511" x="488" y="164" width="208" height="99" filterUnits="userSpaceOnUse">
      <feOffset dy="12" input="SourceAlpha"/>
      <feGaussianBlur stdDeviation="7" result="blur-11"/>
      <feFlood flood-opacity="0.031"/>
      <feComposite operator="in" in2="blur-11"/>
      <feComposite in="SourceGraphic"/>
    </filter>
    <filter id="패스_2512" x="488" y="246" width="208" height="99" filterUnits="userSpaceOnUse">
      <feOffset dy="12" input="SourceAlpha"/>
      <feGaussianBlur stdDeviation="7" result="blur-12"/>
      <feFlood flood-color="#00b9ff" flood-opacity="0.102"/>
      <feComposite operator="in" in2="blur-12"/>
      <feComposite in="SourceGraphic"/>
    </filter>
    <filter id="패스_2519" x="732" y="0" width="208" height="99" filterUnits="userSpaceOnUse">
      <feOffset dy="12" input="SourceAlpha"/>
      <feGaussianBlur stdDeviation="7" result="blur-13"/>
      <feFlood flood-opacity="0.031"/>
      <feComposite operator="in" in2="blur-13"/>
      <feComposite in="SourceGraphic"/>
    </filter>
    <filter id="패스_2520" x="732" y="82" width="208" height="99" filterUnits="userSpaceOnUse">
      <feOffset dy="12" input="SourceAlpha"/>
      <feGaussianBlur stdDeviation="7" result="blur-14"/>
      <feFlood flood-opacity="0.031"/>
      <feComposite operator="in" in2="blur-14"/>
      <feComposite in="SourceGraphic"/>
    </filter>
    <filter id="패스_2521" x="732" y="164" width="208" height="99" filterUnits="userSpaceOnUse">
      <feOffset dy="12" input="SourceAlpha"/>
      <feGaussianBlur stdDeviation="7" result="blur-15"/>
      <feFlood flood-opacity="0.031"/>
      <feComposite operator="in" in2="blur-15"/>
      <feComposite in="SourceGraphic"/>
    </filter>
    <filter id="패스_2522" x="732" y="246" width="208" height="99" filterUnits="userSpaceOnUse">
      <feOffset dy="12" input="SourceAlpha"/>
      <feGaussianBlur stdDeviation="7" result="blur-16"/>
      <feFlood flood-color="#969696" flood-opacity="0.063"/>
      <feComposite operator="in" in2="blur-16"/>
      <feComposite in="SourceGraphic"/>
    </filter>
  </defs>
  <g id="img_3-3_mcnimg" transform="translate(-490 -14644)">
    <g id="그룹_4434" data-name="그룹 4434">
      <g transform="matrix(1, 0, 0, 1, 490, 14644)" filter="url(#사각형_1552)">
        <path id="사각형_1552-2" data-name="사각형 1552" d="M28.5,0H138.483A27.517,27.517,0,0,1,166,27.517V28.5A28.5,28.5,0,0,1,137.5,57H28.5A28.5,28.5,0,0,1,0,28.5v0A28.5,28.5,0,0,1,28.5,0Z" transform="translate(21 9)" fill="#fff"/>
      </g>
      <g transform="matrix(1, 0, 0, 1, 490, 14644)" filter="url(#사각형_1553)">
        <path id="사각형_1553-2" data-name="사각형 1553" d="M28.5,0H138.483A27.517,27.517,0,0,1,166,27.517V28.5A28.5,28.5,0,0,1,137.5,57H28.5A28.5,28.5,0,0,1,0,28.5v0A28.5,28.5,0,0,1,28.5,0Z" transform="translate(21 91)" fill="#fff"/>
      </g>
      <g transform="matrix(1, 0, 0, 1, 490, 14644)" filter="url(#사각형_1554)">
        <path id="사각형_1554-2" data-name="사각형 1554" d="M28.5,0H138.483A27.517,27.517,0,0,1,166,27.517V28.5A28.5,28.5,0,0,1,137.5,57H28.5A28.5,28.5,0,0,1,0,28.5v0A28.5,28.5,0,0,1,28.5,0Z" transform="translate(21 173)" fill="#fff"/>
      </g>
      <g transform="matrix(1, 0, 0, 1, 490, 14644)" filter="url(#사각형_1555)">
        <path id="사각형_1555-2" data-name="사각형 1555" d="M28.5,0H138.483A27.517,27.517,0,0,1,166,27.517V28.5A28.5,28.5,0,0,1,137.5,57H28.5A28.5,28.5,0,0,1,0,28.5v0A28.5,28.5,0,0,1,28.5,0Z" transform="translate(21 255)" fill="#00b9ff"/>
      </g>
      <path id="패스_2499" data-name="패스 2499" d="M12.624-2.672H11.312v-10.48h1.312ZM2.48-8.64a2.552,2.552,0,0,0,.183.976,2.256,2.256,0,0,0,.51.768,2.3,2.3,0,0,0,.773.5,2.629,2.629,0,0,0,.973.176A2.693,2.693,0,0,0,5.9-6.4a2.364,2.364,0,0,0,.79-.5,2.2,2.2,0,0,0,.518-.768,2.552,2.552,0,0,0,.183-.976,2.433,2.433,0,0,0-.183-.96,2.238,2.238,0,0,0-.518-.752,2.364,2.364,0,0,0-.79-.5,2.694,2.694,0,0,0-.981-.176,2.629,2.629,0,0,0-.973.176,2.3,2.3,0,0,0-.773.5,2.3,2.3,0,0,0-.51.752A2.433,2.433,0,0,0,2.48-8.64Zm6.208,0A3.48,3.48,0,0,1,8.4-7.208a3.419,3.419,0,0,1-.794,1.12,3.629,3.629,0,0,1-1.194.736,4.135,4.135,0,0,1-1.491.264,4.072,4.072,0,0,1-1.483-.264A3.646,3.646,0,0,1,2.25-6.088a3.322,3.322,0,0,1-.786-1.12A3.566,3.566,0,0,1,1.184-8.64a3.525,3.525,0,0,1,.281-1.416,3.322,3.322,0,0,1,.786-1.12A3.539,3.539,0,0,1,3.437-11.9,4.185,4.185,0,0,1,4.92-12.16a4.25,4.25,0,0,1,1.491.256,3.524,3.524,0,0,1,1.194.728,3.419,3.419,0,0,1,.794,1.12A3.441,3.441,0,0,1,8.688-8.64ZM13.056-.208V.864H3.392V-3.744H4.7V-.208Zm10.128-11.5H19.616v2.72h3.568Zm-4.88,0H16.128v-1.024H26.656v1.024H24.5v2.72h2.112v1.024H16.176V-8.992H18.3ZM17.824.032h8.864v.992H16.528v-3.28h8.416V-3.488H16.48v-.976h9.76v3.152H17.824ZM27.9-6.752v1.024H14.912V-6.752Zm11.216-4.8H30.544v-1.024h9.888v3.728H31.9v1.84h8.864v1.072H30.592V-9.872H39.12Zm2.9,8.16H36.144V1.2H34.832V-3.392h-5.84V-4.464H42.016ZM44.56-8.664a2.5,2.5,0,0,0,.184.971,2.2,2.2,0,0,0,.512.754,2.369,2.369,0,0,0,.776.49,2.638,2.638,0,0,0,.976.177,2.638,2.638,0,0,0,.976-.177,2.369,2.369,0,0,0,.776-.49,2.2,2.2,0,0,0,.512-.754,2.5,2.5,0,0,0,.184-.971,2.56,2.56,0,0,0-.184-.979,2.35,2.35,0,0,0-.512-.778,2.244,2.244,0,0,0-.776-.506,2.638,2.638,0,0,0-.976-.177,2.638,2.638,0,0,0-.976.177,2.244,2.244,0,0,0-.776.506,2.35,2.35,0,0,0-.512.778A2.56,2.56,0,0,0,44.56-8.664Zm6.1.552A3.446,3.446,0,0,1,50.248-6.9a3.308,3.308,0,0,1-.792.944,3.579,3.579,0,0,1-1.1.608,4.081,4.081,0,0,1-1.344.216A4,4,0,0,1,45.536-5.4a3.636,3.636,0,0,1-1.168-.726,3.264,3.264,0,0,1-.776-1.118,3.574,3.574,0,0,1-.28-1.421,3.615,3.615,0,0,1,.28-1.437,3.436,3.436,0,0,1,.776-1.133,3.5,3.5,0,0,1,1.168-.742,4,4,0,0,1,1.472-.263,4.036,4.036,0,0,1,1.352.223,3.514,3.514,0,0,1,1.112.629,3.471,3.471,0,0,1,.792.963,3.514,3.514,0,0,1,.408,1.242h2.912v-3.984H54.9V-2.592H53.584v-5.52Zm4.64,7.9V.864H45.728V-3.648H47.04v3.44Zm6.9-9.152a6.625,6.625,0,0,0,.288,1.928,7.771,7.771,0,0,0,.792,1.784,7.293,7.293,0,0,0,1.176,1.48A5.4,5.4,0,0,0,65.9-3.152l-.768,1.04a5.908,5.908,0,0,1-1.16-.768,6.771,6.771,0,0,1-1.008-1.056,9.214,9.214,0,0,1-.824-1.28,8.572,8.572,0,0,1-.608-1.44,9.779,9.779,0,0,1-.6,1.528,8.833,8.833,0,0,1-.816,1.344,7.694,7.694,0,0,1-1,1.112,5.538,5.538,0,0,1-1.152.816l-.8-1.04a5.288,5.288,0,0,0,1.456-1.072A7.922,7.922,0,0,0,59.8-5.52a8.21,8.21,0,0,0,.792-1.856A7.086,7.086,0,0,0,60.88-9.36v-2.576h1.312Zm6.8-3.808V1.2H67.68V-7.232H64.352V-8.3H67.68v-4.864ZM80.144-9.5H76.08V-7.36h4.064Zm1.3,3.2H74.784v-6.288h1.3v2.064h4.064v-2.064h1.3ZM77.552-.016h8.32V1.008H76.256V-2.56h7.776V-4.032H76.208V-5.056h9.12v3.472H77.552Zm9.9-10.048v1.072H85.328v3.248H84.016v-7.392h1.312v3.072Zm7.952,3.12v1.872h4.256v3.456H91.152V-.032h8.864V.992H89.856V-2.56h8.5V-4.048H89.808V-5.072H94.1V-6.944H88.272V-8H98a15.186,15.186,0,0,0,.272-2q.048-.848.048-1.552H89.936v-1.024h9.68v.893q0,.717-.032,1.626A13.269,13.269,0,0,1,99.327-8H101.3v1.056Z" transform="translate(543 14689)" fill="#414141"/>
      <path id="패스_2500" data-name="패스 2500" d="M12.624-2.672H11.312v-10.48h1.312ZM2.48-8.64a2.552,2.552,0,0,0,.183.976,2.256,2.256,0,0,0,.51.768,2.3,2.3,0,0,0,.773.5,2.629,2.629,0,0,0,.973.176A2.693,2.693,0,0,0,5.9-6.4a2.364,2.364,0,0,0,.79-.5,2.2,2.2,0,0,0,.518-.768,2.552,2.552,0,0,0,.183-.976,2.433,2.433,0,0,0-.183-.96,2.238,2.238,0,0,0-.518-.752,2.364,2.364,0,0,0-.79-.5,2.694,2.694,0,0,0-.981-.176,2.629,2.629,0,0,0-.973.176,2.3,2.3,0,0,0-.773.5,2.3,2.3,0,0,0-.51.752A2.433,2.433,0,0,0,2.48-8.64Zm6.208,0A3.48,3.48,0,0,1,8.4-7.208a3.419,3.419,0,0,1-.794,1.12,3.629,3.629,0,0,1-1.194.736,4.135,4.135,0,0,1-1.491.264,4.072,4.072,0,0,1-1.483-.264A3.646,3.646,0,0,1,2.25-6.088a3.322,3.322,0,0,1-.786-1.12A3.566,3.566,0,0,1,1.184-8.64a3.525,3.525,0,0,1,.281-1.416,3.322,3.322,0,0,1,.786-1.12A3.539,3.539,0,0,1,3.437-11.9,4.185,4.185,0,0,1,4.92-12.16a4.25,4.25,0,0,1,1.491.256,3.524,3.524,0,0,1,1.194.728,3.419,3.419,0,0,1,.794,1.12A3.441,3.441,0,0,1,8.688-8.64ZM13.056-.208V.864H3.392V-3.744H4.7V-.208Zm10.128-11.5H19.616v2.72h3.568Zm-4.88,0H16.128v-1.024H26.656v1.024H24.5v2.72h2.112v1.024H16.176V-8.992H18.3ZM17.824.032h8.864v.992H16.528v-3.28h8.416V-3.488H16.48v-.976h9.76v3.152H17.824ZM27.9-6.752v1.024H14.912V-6.752Zm11.216-4.8H30.544v-1.024h9.888v3.728H31.9v1.84h8.864v1.072H30.592V-9.872H39.12Zm2.9,8.16H36.144V1.2H34.832V-3.392h-5.84V-4.464H42.016ZM44.56-8.664a2.5,2.5,0,0,0,.184.971,2.2,2.2,0,0,0,.512.754,2.369,2.369,0,0,0,.776.49,2.638,2.638,0,0,0,.976.177,2.638,2.638,0,0,0,.976-.177,2.369,2.369,0,0,0,.776-.49,2.2,2.2,0,0,0,.512-.754,2.5,2.5,0,0,0,.184-.971,2.56,2.56,0,0,0-.184-.979,2.35,2.35,0,0,0-.512-.778,2.244,2.244,0,0,0-.776-.506,2.638,2.638,0,0,0-.976-.177,2.638,2.638,0,0,0-.976.177,2.244,2.244,0,0,0-.776.506,2.35,2.35,0,0,0-.512.778A2.56,2.56,0,0,0,44.56-8.664Zm6.1.552A3.446,3.446,0,0,1,50.248-6.9a3.308,3.308,0,0,1-.792.944,3.579,3.579,0,0,1-1.1.608,4.081,4.081,0,0,1-1.344.216A4,4,0,0,1,45.536-5.4a3.636,3.636,0,0,1-1.168-.726,3.264,3.264,0,0,1-.776-1.118,3.574,3.574,0,0,1-.28-1.421,3.615,3.615,0,0,1,.28-1.437,3.436,3.436,0,0,1,.776-1.133,3.5,3.5,0,0,1,1.168-.742,4,4,0,0,1,1.472-.263,4.036,4.036,0,0,1,1.352.223,3.514,3.514,0,0,1,1.112.629,3.471,3.471,0,0,1,.792.963,3.514,3.514,0,0,1,.408,1.242h2.912v-3.984H54.9V-2.592H53.584v-5.52Zm4.64,7.9V.864H45.728V-3.648H47.04v3.44Zm6.9-9.152a6.625,6.625,0,0,0,.288,1.928,7.771,7.771,0,0,0,.792,1.784,7.293,7.293,0,0,0,1.176,1.48A5.4,5.4,0,0,0,65.9-3.152l-.768,1.04a5.908,5.908,0,0,1-1.16-.768,6.771,6.771,0,0,1-1.008-1.056,9.214,9.214,0,0,1-.824-1.28,8.572,8.572,0,0,1-.608-1.44,9.779,9.779,0,0,1-.6,1.528,8.833,8.833,0,0,1-.816,1.344,7.694,7.694,0,0,1-1,1.112,5.538,5.538,0,0,1-1.152.816l-.8-1.04a5.288,5.288,0,0,0,1.456-1.072A7.922,7.922,0,0,0,59.8-5.52a8.21,8.21,0,0,0,.792-1.856A7.086,7.086,0,0,0,60.88-9.36v-2.576h1.312Zm6.8-3.808V1.2H67.68V-7.232H64.352V-8.3H67.68v-4.864Zm15.344,2.512h-8.8v-1.072H85.648v1.584q0,.688-.008,1.392t-.056,1.48q-.048.776-.152,1.64t-.3,1.872l-1.3-.16a23.786,23.786,0,0,0,.432-3.408q.064-1.488.064-2.816ZM87.168-1.9V-.832H74.192V-1.9h3.184V-6.656h1.3V-1.9h2.256V-6.656h1.3V-1.9Zm7.592-9.888a6.665,6.665,0,0,0-2.7.448,1.4,1.4,0,0,0-.99,1.264,1.4,1.4,0,0,0,.99,1.264,6.665,6.665,0,0,0,2.7.448,6.665,6.665,0,0,0,2.7-.448,1.4,1.4,0,0,0,.99-1.264,1.4,1.4,0,0,0-.99-1.264A6.665,6.665,0,0,0,94.76-11.792Zm-.008,4.448a10.891,10.891,0,0,1-2.088-.183,5.7,5.7,0,0,1-1.592-.534,2.825,2.825,0,0,1-1.008-.854,1.966,1.966,0,0,1-.352-1.157,1.977,1.977,0,0,1,.352-1.149,2.86,2.86,0,0,1,1.008-.869,5.529,5.529,0,0,1,1.592-.542,10.892,10.892,0,0,1,2.088-.184,10.86,10.86,0,0,1,2.1.184,5.53,5.53,0,0,1,1.584.542,2.86,2.86,0,0,1,1.008.869,1.977,1.977,0,0,1,.352,1.149,1.966,1.966,0,0,1-.352,1.157,2.825,2.825,0,0,1-1.008.854,5.7,5.7,0,0,1-1.584.534A10.86,10.86,0,0,1,94.752-7.344ZM96.512-5.2h-3.5v1.824h3.5Zm1.312,0v1.824h1.824V1.2H98.336V-2.32H89.712V-3.376H91.7V-5.2H88.272V-6.256h12.976V-5.2Z" transform="translate(543 14771)" fill="#414141"/>
      <path id="패스_2501" data-name="패스 2501" d="M12.608-4.864a8.75,8.75,0,0,1-1.624-.56,7.879,7.879,0,0,1-1.512-.9A8.242,8.242,0,0,1,8.194-7.536a5.5,5.5,0,0,1-.906-1.472,5.589,5.589,0,0,1-.906,1.456A8.242,8.242,0,0,1,5.1-6.344a8.314,8.314,0,0,1-1.5.912,8.221,8.221,0,0,1-1.616.568L1.392-5.952a7.358,7.358,0,0,0,1.872-.664A7.511,7.511,0,0,0,4.936-7.768,5.9,5.9,0,0,0,6.144-9.3a3.62,3.62,0,0,0,.464-1.76v-1.1h1.36v1.1A3.62,3.62,0,0,0,8.432-9.3,5.9,5.9,0,0,0,9.64-7.768a7.648,7.648,0,0,0,1.68,1.16,6.876,6.876,0,0,0,1.88.656Zm1.248,3.056V-.736H.848V-1.808Zm5.76-4.224h3.568v-4.7H19.616Zm8.3,4.352V-.608H14.928V-1.68h5.808v-3.3H16.112V-6.032H18.3v-4.7H16.08v-1.056H26.72v1.056H24.5v4.7h2.192v1.056h-4.64v3.3ZM29.792-5.2a7.977,7.977,0,0,0,1.944-.592,6.656,6.656,0,0,0,1.616-1.016,4.65,4.65,0,0,0,1.1-1.36,3.468,3.468,0,0,0,.4-1.64H30.224v-1.056h4.624v-1.952H36.16v1.952h4.608v1.056H36.16a3.468,3.468,0,0,0,.4,1.64,4.65,4.65,0,0,0,1.1,1.36,6.708,6.708,0,0,0,1.608,1.016,7.829,7.829,0,0,0,1.952.592l-.528,1.072a10.022,10.022,0,0,1-1.64-.488,8.3,8.3,0,0,1-1.472-.752A6.143,6.143,0,0,1,36.37-6.384a5.251,5.251,0,0,1-.858-1.264,5.133,5.133,0,0,1-.866,1.264,6.353,6.353,0,0,1-1.214,1.016,8.3,8.3,0,0,1-1.472.752,9.9,9.9,0,0,1-1.656.488Zm12.24,3.472V-.656H29.008V-1.728Zm4.736-6.624a10.069,10.069,0,0,0,1.816-.384,6.955,6.955,0,0,0,1.544-.68,4.092,4.092,0,0,0,1.088-.928,2.02,2.02,0,0,0,.464-1.112H47.232v-1.056H57.84v1.056H53.376a2.02,2.02,0,0,0,.464,1.112,4.092,4.092,0,0,0,1.088.928,6.955,6.955,0,0,0,1.544.68,10.069,10.069,0,0,0,1.816.384l-.464,1.04a10.5,10.5,0,0,1-1.7-.36,8.459,8.459,0,0,1-1.52-.616,5.779,5.779,0,0,1-1.232-.864,3.927,3.927,0,0,1-.84-1.088A3.672,3.672,0,0,1,51.7-9.152a5.779,5.779,0,0,1-1.232.864,8.385,8.385,0,0,1-1.528.616,10.721,10.721,0,0,1-1.712.36ZM56.1-1.368q0-.716-.946-1.106a7.161,7.161,0,0,0-2.646-.39,7.161,7.161,0,0,0-2.646.39q-.946.39-.946,1.106t.946,1.114a7.03,7.03,0,0,0,2.646.4,7.03,7.03,0,0,0,2.646-.4Q56.1-.652,56.1-1.368ZM53.168-5.392v1.536A7.007,7.007,0,0,1,56.3-3.12a1.958,1.958,0,0,1,1.112,1.76A2.034,2.034,0,0,1,56.114.52a8.157,8.157,0,0,1-3.594.648A8.266,8.266,0,0,1,48.91.52,2.034,2.034,0,0,1,47.6-1.36a1.956,1.956,0,0,1,1.12-1.76,7.064,7.064,0,0,1,3.136-.736V-5.392H46.032V-6.448h12.96v1.056Zm15.008-7.392h1.248V.448H68.176v-4.96H65.584V-5.584h2.592V-8.112H65.808a10.146,10.146,0,0,1-1.7,3.4,11.079,11.079,0,0,1-3.24,2.792L60.1-2.848A10.076,10.076,0,0,0,63.6-6.12a9.078,9.078,0,0,0,1.344-4.152H60.736v-1.072h5.5a12.318,12.318,0,0,1-.192,2.176h2.128Zm4.128-.384V1.168H71.056V-13.168Zm12.384,1.552a12.024,12.024,0,0,1-.371,3,9.926,9.926,0,0,1-1.168,2.744,10.481,10.481,0,0,1-2.06,2.4,14,14,0,0,1-3.056,1.984l-.7-1.072A11.145,11.145,0,0,0,81.7-5.968a8.906,8.906,0,0,0,1.68-4.592H77.984v-1.056Zm4.224-1.552V1.184H87.6V-13.168Zm11.248,2.3h-8.4v-.992H95.3v-1.392h1.312v1.392h3.552ZM93.776-8.192a.991.991,0,0,0,.594.888,3.253,3.253,0,0,0,1.574.328,3.284,3.284,0,0,0,1.6-.328.992.992,0,0,0,.586-.888.992.992,0,0,0-.586-.888,3.284,3.284,0,0,0-1.6-.328,3.253,3.253,0,0,0-1.574.328A.991.991,0,0,0,93.776-8.192Zm6.816,3.64q-1.168.189-2.376.3t-2.384.166q-1.176.055-2.288.071T91.472-4L91.28-5.024q.912,0,1.928-.008t2.088-.04V-6.08a3.9,3.9,0,0,1-2-.688,1.718,1.718,0,0,1-.736-1.424,1.626,1.626,0,0,1,.248-.888,2.183,2.183,0,0,1,.688-.672,3.524,3.524,0,0,1,1.064-.432,5.889,5.889,0,0,1,1.392-.152,4.707,4.707,0,0,1,2.488.576,1.765,1.765,0,0,1,.936,1.568,1.706,1.706,0,0,1-.744,1.432,4.023,4.023,0,0,1-2.024.68v.944q1.008-.048,1.984-.128t1.92-.208ZM93.344-2.864h9.616V1.184h-1.312V-1.84h-8.3Zm9.616-10.272v9.584h-1.312v-9.584Z" transform="translate(542 14853)" fill="#414141"/>
      <path id="패스_2502" data-name="패스 2502" d="M1.584-8.352A10.069,10.069,0,0,0,3.4-8.736a6.955,6.955,0,0,0,1.544-.68,4.092,4.092,0,0,0,1.088-.928A2.02,2.02,0,0,0,6.5-11.456H2.048v-1.056H12.656v1.056H8.192a2.02,2.02,0,0,0,.464,1.112,4.092,4.092,0,0,0,1.088.928,6.955,6.955,0,0,0,1.544.68,10.069,10.069,0,0,0,1.816.384l-.464,1.04a10.5,10.5,0,0,1-1.7-.36,8.459,8.459,0,0,1-1.52-.616,5.779,5.779,0,0,1-1.232-.864,3.927,3.927,0,0,1-.84-1.088A3.672,3.672,0,0,1,6.52-9.152a5.779,5.779,0,0,1-1.232.864,8.385,8.385,0,0,1-1.528.616,10.721,10.721,0,0,1-1.712.36Zm9.328,6.984q0-.716-.946-1.106a7.161,7.161,0,0,0-2.646-.39,7.161,7.161,0,0,0-2.646.39q-.946.39-.946,1.106T4.674-.254a7.03,7.03,0,0,0,2.646.4,7.03,7.03,0,0,0,2.646-.4Q10.912-.652,10.912-1.368ZM7.984-5.392v1.536a7.007,7.007,0,0,1,3.128.736,1.958,1.958,0,0,1,1.112,1.76A2.034,2.034,0,0,1,10.93.52a8.157,8.157,0,0,1-3.594.648A8.266,8.266,0,0,1,3.726.52a2.034,2.034,0,0,1-1.31-1.88,1.956,1.956,0,0,1,1.12-1.76,7.064,7.064,0,0,1,3.136-.736V-5.392H.848V-6.448h12.96v1.056Zm15.008-7.392H24.24V.448H22.992v-4.96H20.4V-5.584h2.592V-8.112H20.624a10.146,10.146,0,0,1-1.7,3.4A11.079,11.079,0,0,1,15.68-1.92l-.768-.928a10.076,10.076,0,0,0,3.5-3.272,9.078,9.078,0,0,0,1.344-4.152H15.552v-1.072h5.5a12.318,12.318,0,0,1-.192,2.176h2.128Zm4.128-.384V1.168H25.872V-13.168Zm16.592,8.3a8.75,8.75,0,0,1-1.624-.56,7.879,7.879,0,0,1-1.512-.9A8.242,8.242,0,0,1,39.3-7.536a5.5,5.5,0,0,1-.906-1.472,5.589,5.589,0,0,1-.906,1.456,8.242,8.242,0,0,1-1.278,1.208,8.314,8.314,0,0,1-1.5.912,8.221,8.221,0,0,1-1.616.568L32.5-5.952a7.358,7.358,0,0,0,1.872-.664A7.511,7.511,0,0,0,36.04-7.768,5.9,5.9,0,0,0,37.248-9.3a3.62,3.62,0,0,0,.464-1.76v-1.1h1.36v1.1a3.62,3.62,0,0,0,.464,1.76,5.9,5.9,0,0,0,1.208,1.528,7.648,7.648,0,0,0,1.68,1.16,6.876,6.876,0,0,0,1.88.656ZM44.96-1.808V-.736H31.952V-1.808Zm12.576-2.56H47.7V-11.92h9.7v1.056H49.008v2.128h8.064v1.024H49.008v2.288h8.528Zm1.5,2.624V-.672H46.016V-1.744Zm3.216-1.6q.88,0,1.728-.024t1.7-.08q.848-.056,1.728-.16t1.824-.248l.128,1.064q-.976.158-1.88.26T65.7-2.375q-.88.055-1.76.079t-1.808.024H60.944v-5.5h5.28v-2.992H60.9V-11.84h6.64V-6.7h-5.28Zm9.632-9.84V1.2H70.576V-13.184Zm9.776,1.072v6.256h-6.72v-6.256ZM76.24-11.056v4.144h4.128v-4.144Zm9.728-2.1v8.576H84.656v-8.576ZM81.232-4.32a9.88,9.88,0,0,1,1.992.183,5.241,5.241,0,0,1,1.512.535,2.709,2.709,0,0,1,.96.862,2.07,2.07,0,0,1,.336,1.165A2.07,2.07,0,0,1,85.7-.412a2.709,2.709,0,0,1-.96.862,5.241,5.241,0,0,1-1.512.535,9.88,9.88,0,0,1-1.992.184A10.09,10.09,0,0,1,79.216.985,5.24,5.24,0,0,1,77.7.45a2.709,2.709,0,0,1-.96-.862A2.07,2.07,0,0,1,76.4-1.576a2.07,2.07,0,0,1,.336-1.165A2.709,2.709,0,0,1,77.7-3.6a5.24,5.24,0,0,1,1.52-.535A10.09,10.09,0,0,1,81.232-4.32Zm0,1.024a6.068,6.068,0,0,0-2.584.45,1.394,1.394,0,0,0-.936,1.27,1.394,1.394,0,0,0,.936,1.27,6.068,6.068,0,0,0,2.584.45,5.965,5.965,0,0,0,2.56-.45,1.393,1.393,0,0,0,.928-1.27,1.393,1.393,0,0,0-.928-1.27A5.965,5.965,0,0,0,81.232-3.3Z" transform="translate(550 14935)" fill="#fff"/>
    </g>
    <g transform="matrix(1, 0, 0, 1, 490, 14644)" filter="url(#패스_2503)">
      <path id="패스_2503-2" data-name="패스 2503" d="M28.5,0H138.483A27.517,27.517,0,0,1,166,27.517V28.5A28.5,28.5,0,0,1,137.5,57H28.5a28.5,28.5,0,0,1,0-57Z" transform="translate(265 9)" fill="#fff"/>
    </g>
    <g transform="matrix(1, 0, 0, 1, 490, 14644)" filter="url(#패스_2504)">
      <path id="패스_2504-2" data-name="패스 2504" d="M28.5,0H138.483A27.517,27.517,0,0,1,166,27.517V28.5A28.5,28.5,0,0,1,137.5,57H28.5a28.5,28.5,0,0,1,0-57Z" transform="translate(265 91)" fill="#fff"/>
    </g>
    <g transform="matrix(1, 0, 0, 1, 490, 14644)" filter="url(#패스_2506)">
      <path id="패스_2506-2" data-name="패스 2506" d="M28.5,0H138.483A27.517,27.517,0,0,1,166,27.517V28.5A28.5,28.5,0,0,1,137.5,57H28.5a28.5,28.5,0,0,1,0-57Z" transform="translate(265 173)" fill="#00b9ff"/>
    </g>
    <g transform="matrix(1, 0, 0, 1, 490, 14644)" filter="url(#패스_2509)">
      <path id="패스_2509-2" data-name="패스 2509" d="M28.5,0H138.483A27.517,27.517,0,0,1,166,27.517V28.5A28.5,28.5,0,0,1,137.5,57H28.5a28.5,28.5,0,0,1,0-57Z" transform="translate(265 255)" fill="#fff"/>
    </g>
    <path id="패스_2505" data-name="패스 2505" d="M1.584-8.352A10.069,10.069,0,0,0,3.4-8.736a6.955,6.955,0,0,0,1.544-.68,4.092,4.092,0,0,0,1.088-.928A2.02,2.02,0,0,0,6.5-11.456H2.048v-1.056H12.656v1.056H8.192a2.02,2.02,0,0,0,.464,1.112,4.092,4.092,0,0,0,1.088.928,6.955,6.955,0,0,0,1.544.68,10.069,10.069,0,0,0,1.816.384l-.464,1.04a10.5,10.5,0,0,1-1.7-.36,8.459,8.459,0,0,1-1.52-.616,5.779,5.779,0,0,1-1.232-.864,3.927,3.927,0,0,1-.84-1.088A3.672,3.672,0,0,1,6.52-9.152a5.779,5.779,0,0,1-1.232.864,8.385,8.385,0,0,1-1.528.616,10.721,10.721,0,0,1-1.712.36Zm9.328,6.984q0-.716-.946-1.106a7.161,7.161,0,0,0-2.646-.39,7.161,7.161,0,0,0-2.646.39q-.946.39-.946,1.106T4.674-.254a7.03,7.03,0,0,0,2.646.4,7.03,7.03,0,0,0,2.646-.4Q10.912-.652,10.912-1.368ZM7.984-5.392v1.536a7.007,7.007,0,0,1,3.128.736,1.958,1.958,0,0,1,1.112,1.76A2.034,2.034,0,0,1,10.93.52a8.157,8.157,0,0,1-3.594.648A8.266,8.266,0,0,1,3.726.52a2.034,2.034,0,0,1-1.31-1.88,1.956,1.956,0,0,1,1.12-1.76,7.064,7.064,0,0,1,3.136-.736V-5.392H.848V-6.448h12.96v1.056Zm15.008-7.392H24.24V.448H22.992v-4.96H20.4V-5.584h2.592V-8.112H20.624a10.146,10.146,0,0,1-1.7,3.4A11.079,11.079,0,0,1,15.68-1.92l-.768-.928a10.076,10.076,0,0,0,3.5-3.272,9.078,9.078,0,0,0,1.344-4.152H15.552v-1.072h5.5a12.318,12.318,0,0,1-.192,2.176h2.128Zm4.128-.384V1.168H25.872V-13.168ZM37.9-9.072H33.84V-6.7H37.9Zm1.3,3.424H32.544v-6.608h1.3v2.16H37.9v-2.16h1.3ZM38.528.16a5.892,5.892,0,0,0,2.5-.434,1.334,1.334,0,0,0,.9-1.206,1.319,1.319,0,0,0-.9-1.2,5.99,5.99,0,0,0-2.5-.426,6.038,6.038,0,0,0-2.52.426,1.319,1.319,0,0,0-.9,1.2,1.334,1.334,0,0,0,.9,1.206A5.939,5.939,0,0,0,38.528.16Zm0-4.32a9.948,9.948,0,0,1,1.96.176,5.124,5.124,0,0,1,1.488.52,2.651,2.651,0,0,1,.944.84,2.012,2.012,0,0,1,.328,1.136A2.012,2.012,0,0,1,42.92-.352a2.651,2.651,0,0,1-.944.84,5.124,5.124,0,0,1-1.488.52,9.948,9.948,0,0,1-1.96.176,10.04,10.04,0,0,1-1.976-.176,5.124,5.124,0,0,1-1.488-.52,2.651,2.651,0,0,1-.944-.84,2.012,2.012,0,0,1-.328-1.136,2.012,2.012,0,0,1,.328-1.136,2.651,2.651,0,0,1,.944-.84,5.124,5.124,0,0,1,1.488-.52A10.04,10.04,0,0,1,38.528-4.16Zm6.688-5.376v1.072H43.088v3.936H41.776v-8.624h1.312v3.616ZM57.728-7.408a10.632,10.632,0,0,1-1.608-.416A8.3,8.3,0,0,1,54.64-8.5a6.74,6.74,0,0,1-1.24-.92,4.623,4.623,0,0,1-.888-1.128,4.717,4.717,0,0,1-.88,1.128A6.506,6.506,0,0,1,50.4-8.5a8.3,8.3,0,0,1-1.48.672,10.632,10.632,0,0,1-1.608.416l-.5-1.04a8.052,8.052,0,0,0,1.864-.48,7.1,7.1,0,0,0,1.608-.864,4.519,4.519,0,0,0,1.128-1.152,2.42,2.42,0,0,0,.424-1.36v-.64h1.344v.64a2.42,2.42,0,0,0,.424,1.36,4.469,4.469,0,0,0,1.136,1.152,7.273,7.273,0,0,0,1.616.864,8.052,8.052,0,0,0,1.864.48ZM52.5.144A7.428,7.428,0,0,0,55.158-.23Q56.1-.6,56.1-1.32t-.938-1.09A7.428,7.428,0,0,0,52.5-2.784a7.428,7.428,0,0,0-2.654.374q-.938.374-.938,1.09T49.85-.23A7.428,7.428,0,0,0,52.5.144Zm0-3.952a8.277,8.277,0,0,1,3.6.642,2.006,2.006,0,0,1,1.3,1.846,2.006,2.006,0,0,1-1.3,1.846,8.277,8.277,0,0,1-3.6.642A8.277,8.277,0,0,1,48.9.526,2.006,2.006,0,0,1,47.6-1.32a2.006,2.006,0,0,1,1.3-1.846A8.277,8.277,0,0,1,52.5-3.808Zm6.5-2.24v1.056H46.032V-6.048h5.824V-8.16h1.312v2.112Zm14.544-.576h-2.4V-7.7h2.4v-1.68h-2.4v-1.056h2.4v-2.72h1.312V-2.5H73.552Zm-7.376.864,1.072-.032q.544-.016,1.088-.048v-5.1h-2.16Zm5.392.624q-1.04.16-2.136.256t-2.184.144q-1.088.048-2.112.064t-1.888.016L63.1-5.728h.872q.456,0,.936-.016v-5.2H63.488V-12H71.04v1.056H69.632v5.008q.476-.032.944-.072t.912-.1Zm3.68,4.928V.864H65.68V-3.36h1.312V-.208ZM85.281-5.616A6.129,6.129,0,0,1,83.094-6.84a5.523,5.523,0,0,1-1.437-1.944A5.618,5.618,0,0,1,80.233-6.7,6.254,6.254,0,0,1,77.984-5.36L77.312-6.4A5.79,5.79,0,0,0,78.8-7.1a5.141,5.141,0,0,0,1.152-1.04,4.693,4.693,0,0,0,.744-1.28,3.942,3.942,0,0,0,.264-1.424v-.32H77.68V-12.24h7.888v1.072H82.32v.32a3.624,3.624,0,0,0,.263,1.36,4.254,4.254,0,0,0,.741,1.208,5.4,5.4,0,0,0,1.139.984,5.6,5.6,0,0,0,1.458.672Zm2.335,3.68H80.96V-.08h6.656Zm0-2.768h1.3v5.7H79.664V-4.7h1.3V-2.96h6.656Zm1.3-8.464v7.776H87.6v-7.776Z" transform="translate(793 14689)" fill="#414141"/>
    <path id="패스_2507" data-name="패스 2507" d="M2.72-3.52h4v-7.152h-4Zm-1.3-8.208H8.016v9.264H1.424ZM14.256-6.336H11.888v7.52H10.576V-13.152h1.312V-7.44h2.368ZM22.9-12.8h1.216V.448H22.9v-6.88H20.24a9.727,9.727,0,0,1-1.68,2.5,10.925,10.925,0,0,1-2.8,2.136l-.752-.944a10.2,10.2,0,0,0,2.664-2A8.111,8.111,0,0,0,19.216-7.1l-4.032.4-.176-1.12,4.56-.3a9.267,9.267,0,0,0,.248-1.128q.088-.568.12-1.16H15.712v-1.056H21.2a15.8,15.8,0,0,1-.128,2.008A11.182,11.182,0,0,1,20.64-7.5H22.9Zm4.224-.384V1.168H25.872V-13.184ZM40.784-4.272H39.472v-8.88h1.312Zm-2.816-1.44q-.784.128-1.536.208t-1.568.128q-.816.048-1.76.064T30.992-5.3H29.824v-6.816h6.848v1.056H31.136v1.808h5.136v1.024H31.136v1.872q1.12,0,2.024-.016t1.688-.056q.784-.04,1.5-.12t1.472-.208ZM36.016.144A6.509,6.509,0,0,0,38.6-.272q.936-.416.936-1.168A1.3,1.3,0,0,0,38.6-2.624a6.509,6.509,0,0,0-2.584-.416,6.448,6.448,0,0,0-2.576.416,1.3,1.3,0,0,0-.928,1.184A1.3,1.3,0,0,0,33.44-.272,6.448,6.448,0,0,0,36.016.144Zm0-4.208a10.507,10.507,0,0,1,2.016.176,5.4,5.4,0,0,1,1.52.512,2.6,2.6,0,0,1,.952.824,1.947,1.947,0,0,1,.328,1.112A1.947,1.947,0,0,1,40.5-.328a2.536,2.536,0,0,1-.952.816,5.583,5.583,0,0,1-1.52.5,10.507,10.507,0,0,1-2.016.176A10.382,10.382,0,0,1,34.008.992,5.584,5.584,0,0,1,32.5.488a2.536,2.536,0,0,1-.952-.816,1.947,1.947,0,0,1-.328-1.112,1.947,1.947,0,0,1,.328-1.112,2.6,2.6,0,0,1,.952-.824,5.4,5.4,0,0,1,1.512-.512A10.382,10.382,0,0,1,36.016-4.064ZM57.808-2.656H56.5v-10.5h1.312ZM54.16-4.7a6.265,6.265,0,0,1-2.184-1.28,5.764,5.764,0,0,1-1.432-1.984,5.848,5.848,0,0,1-1.408,2.152,6.146,6.146,0,0,1-2.224,1.384l-.688-1.024a6.114,6.114,0,0,0,1.488-.76A5.175,5.175,0,0,0,48.856-7.3a5.035,5.035,0,0,0,.736-1.336,4.289,4.289,0,0,0,.264-1.488v-.784h-3.28v-1.056h7.872v1.056H51.2v.784a3.837,3.837,0,0,0,.264,1.4,4.491,4.491,0,0,0,.744,1.256,5.518,5.518,0,0,0,1.136,1.024,5.581,5.581,0,0,0,1.456.7Zm4.08,4.5V.864H48.576V-3.648h1.312v3.44Zm10.9-4.384H67.888V-12.88h1.248v3.616H70.96v-3.9h1.264V-4.08H70.96V-8.192H69.136Zm-1.808-5.84h-7.3v-1.024H63.04v-1.6h1.3v1.6h2.992Zm-5.52,3.216a1.313,1.313,0,0,0,.512,1.08,2.146,2.146,0,0,0,1.376.408,2.153,2.153,0,0,0,1.368-.408,1.305,1.305,0,0,0,.52-1.08,1.283,1.283,0,0,0-.52-1.072,2.183,2.183,0,0,0-1.368-.4,2.176,2.176,0,0,0-1.376.4A1.291,1.291,0,0,0,61.808-7.216Zm4.944,0A2.273,2.273,0,0,1,66.528-6.2a2.257,2.257,0,0,1-.624.776,2.91,2.91,0,0,1-.968.5,4.172,4.172,0,0,1-1.24.176,4.172,4.172,0,0,1-1.24-.176,3.005,3.005,0,0,1-.976-.5,2.22,2.22,0,0,1-.632-.776,2.273,2.273,0,0,1-.224-1.016,2.237,2.237,0,0,1,.224-1,2.22,2.22,0,0,1,.632-.776,3.005,3.005,0,0,1,.976-.5,4.172,4.172,0,0,1,1.24-.176,4.172,4.172,0,0,1,1.24.176,2.91,2.91,0,0,1,.968.5,2.257,2.257,0,0,1,.624.776A2.237,2.237,0,0,1,66.752-7.216ZM67.5.144a6.9,6.9,0,0,0,2.568-.382q.92-.382.92-1.1t-.92-1.106a6.772,6.772,0,0,0-2.568-.39,6.836,6.836,0,0,0-2.576.39Q64-2.052,64-1.336t.928,1.1A6.964,6.964,0,0,0,67.5.144Zm0-4a10.831,10.831,0,0,1,2.008.168,5.584,5.584,0,0,1,1.512.49,2.572,2.572,0,0,1,.952.786A1.82,1.82,0,0,1,72.3-1.336a1.82,1.82,0,0,1-.328,1.076,2.507,2.507,0,0,1-.952.779A5.783,5.783,0,0,1,69.512,1a10.831,10.831,0,0,1-2.008.169A10.831,10.831,0,0,1,65.5,1,5.783,5.783,0,0,1,63.984.518a2.507,2.507,0,0,1-.952-.779A1.82,1.82,0,0,1,62.7-1.336a1.82,1.82,0,0,1,.328-1.076,2.572,2.572,0,0,1,.952-.786,5.584,5.584,0,0,1,1.512-.49A10.831,10.831,0,0,1,67.5-3.856ZM80.112,2.288a16.762,16.762,0,0,1-1.728-3.776A14.446,14.446,0,0,1,77.76-5.84a14.39,14.39,0,0,1,.624-4.336,16.762,16.762,0,0,1,1.728-3.776l.912.416a13.282,13.282,0,0,0-1.552,3.688,16.274,16.274,0,0,0-.5,4.008,16.37,16.37,0,0,0,.5,4.016,13.035,13.035,0,0,0,1.552,3.68ZM85.92.208a5.608,5.608,0,0,1-2.3-.464,5.553,5.553,0,0,1-1.816-1.28l.88-1.008A4.841,4.841,0,0,0,84.176-1.48a4.149,4.149,0,0,0,1.76.392,2.808,2.808,0,0,0,1.808-.528A1.7,1.7,0,0,0,88.4-3.008a1.724,1.724,0,0,0-.152-.76,1.722,1.722,0,0,0-.416-.544,2.874,2.874,0,0,0-.616-.408q-.352-.176-.768-.368l-1.7-.736a6.8,6.8,0,0,1-.832-.424,3.777,3.777,0,0,1-.768-.608,2.85,2.85,0,0,1-.568-.848,2.764,2.764,0,0,1-.216-1.128,2.816,2.816,0,0,1,.28-1.248,3.032,3.032,0,0,1,.768-.992,3.54,3.54,0,0,1,1.168-.648,4.556,4.556,0,0,1,1.48-.232,4.678,4.678,0,0,1,1.944.4A4.754,4.754,0,0,1,89.52-10.5l-.784.944a4.359,4.359,0,0,0-1.2-.808,3.54,3.54,0,0,0-1.472-.3,2.526,2.526,0,0,0-1.6.464,1.52,1.52,0,0,0-.592,1.264,1.446,1.446,0,0,0,.176.736,1.934,1.934,0,0,0,.448.528,2.794,2.794,0,0,0,.624.384q.352.16.688.3l1.68.72a7.6,7.6,0,0,1,.952.5,3.453,3.453,0,0,1,.768.64,2.709,2.709,0,0,1,.512.856A3.237,3.237,0,0,1,89.9-3.12a3.045,3.045,0,0,1-.28,1.3A3.237,3.237,0,0,1,88.832-.76a3.645,3.645,0,0,1-1.256.712A5.066,5.066,0,0,1,85.92.208Zm5.648-11.936H93.1l4.272,7.392L98.624-1.92h.08q-.064-.9-.128-1.848t-.064-1.864v-6.1H99.92V0H98.4L94.128-7.4,92.864-9.808H92.8q.048.895.112,1.813t.064,1.845V0H91.568ZM105.744.208a5.608,5.608,0,0,1-2.3-.464,5.553,5.553,0,0,1-1.816-1.28l.88-1.008A4.841,4.841,0,0,0,104-1.48a4.149,4.149,0,0,0,1.76.392,2.808,2.808,0,0,0,1.808-.528,1.7,1.7,0,0,0,.656-1.392,1.724,1.724,0,0,0-.152-.76,1.722,1.722,0,0,0-.416-.544,2.874,2.874,0,0,0-.616-.408q-.352-.176-.768-.368l-1.7-.736a6.8,6.8,0,0,1-.832-.424,3.777,3.777,0,0,1-.768-.608,2.85,2.85,0,0,1-.568-.848,2.764,2.764,0,0,1-.216-1.128,2.816,2.816,0,0,1,.28-1.248,3.032,3.032,0,0,1,.768-.992,3.54,3.54,0,0,1,1.168-.648,4.556,4.556,0,0,1,1.48-.232,4.678,4.678,0,0,1,1.944.4,4.754,4.754,0,0,1,1.512,1.056l-.784.944a4.359,4.359,0,0,0-1.2-.808,3.54,3.54,0,0,0-1.472-.3,2.526,2.526,0,0,0-1.6.464,1.52,1.52,0,0,0-.592,1.264,1.446,1.446,0,0,0,.176.736,1.934,1.934,0,0,0,.448.528,2.794,2.794,0,0,0,.624.384q.352.16.688.3l1.68.72a7.6,7.6,0,0,1,.952.5,3.453,3.453,0,0,1,.768.64,2.709,2.709,0,0,1,.512.856,3.237,3.237,0,0,1,.184,1.144,3.045,3.045,0,0,1-.28,1.3,3.237,3.237,0,0,1-.792,1.056,3.645,3.645,0,0,1-1.256.712A5.066,5.066,0,0,1,105.744.208ZM110.48,1.76a13.5,13.5,0,0,0,1.544-3.68,16.124,16.124,0,0,0,.5-4.016,16.029,16.029,0,0,0-.5-4.008,13.759,13.759,0,0,0-1.544-3.688l.9-.416a16.362,16.362,0,0,1,1.744,3.776,14.39,14.39,0,0,1,.624,4.336,14.446,14.446,0,0,1-.624,4.352,16.362,16.362,0,0,1-1.744,3.776Z" transform="translate(781 14771)" fill="#414141"/>
    <path id="패스_2508" data-name="패스 2508" d="M7.32-11.536a7.084,7.084,0,0,0-1.485.144,4.156,4.156,0,0,0-1.158.416,2.208,2.208,0,0,0-.75.648,1.456,1.456,0,0,0-.263.856,1.492,1.492,0,0,0,.263.864,2.17,2.17,0,0,0,.75.656,4.156,4.156,0,0,0,1.158.416,7.084,7.084,0,0,0,1.485.144,7.2,7.2,0,0,0,1.493-.144,4.151,4.151,0,0,0,1.165-.416,2.17,2.17,0,0,0,.75-.656,1.492,1.492,0,0,0,.263-.864,1.456,1.456,0,0,0-.263-.856,2.208,2.208,0,0,0-.75-.648,4.151,4.151,0,0,0-1.165-.416A7.2,7.2,0,0,0,7.32-11.536Zm0,5.2a8.962,8.962,0,0,1-2.043-.216A5.353,5.353,0,0,1,3.69-7.176a3.05,3.05,0,0,1-1.026-.992,2.432,2.432,0,0,1-.361-1.3,2.392,2.392,0,0,1,.361-1.3,3.08,3.08,0,0,1,1.026-.984,5.353,5.353,0,0,1,1.586-.624,8.962,8.962,0,0,1,2.043-.216,9.068,9.068,0,0,1,2.051.216,5.239,5.239,0,0,1,1.587.624,3.185,3.185,0,0,1,1.026.984,2.353,2.353,0,0,1,.369,1.3,2.393,2.393,0,0,1-.369,1.3,3.151,3.151,0,0,1-1.026.992,5.239,5.239,0,0,1-1.587.624A9.068,9.068,0,0,1,7.32-6.336Zm6.5,2.416H10.432v5.1H9.12v-5.1H5.5v5.1H4.192v-5.1H.848V-4.992H13.824ZM26.48-5.984H16.656V-12.5H26.3v1.056H17.952v1.632h8.016v1.024H17.952V-7.04H26.48ZM27.92-3.44H24.544V1.168H23.232V-3.44H19.616V1.168H18.3V-3.44H14.912V-4.512H27.92Zm14.1,1.648V-.72H29.008V-1.792ZM31.84-12.128V-9.5h7.328v-2.624h1.3v7.472h-9.92v-7.472Zm0,6.4h7.328v-2.72H31.84ZM47.5-8.912a2.27,2.27,0,0,0,.184.928,2.252,2.252,0,0,0,.512.728,2.266,2.266,0,0,0,.776.48,2.758,2.758,0,0,0,.976.168,2.758,2.758,0,0,0,.976-.168,2.182,2.182,0,0,0,.768-.48,2.313,2.313,0,0,0,.5-.728,2.27,2.27,0,0,0,.184-.928,2.286,2.286,0,0,0-.184-.92,2.2,2.2,0,0,0-.5-.728,2.244,2.244,0,0,0-.768-.472,2.758,2.758,0,0,0-.976-.168,2.758,2.758,0,0,0-.976.168,2.332,2.332,0,0,0-.776.472,2.143,2.143,0,0,0-.512.728A2.286,2.286,0,0,0,47.5-8.912Zm5.952-1.12a3.519,3.519,0,0,1,.176,1.12,3.252,3.252,0,0,1-.192,1.12h3.088v-2.24ZM52.848-6.72a3.443,3.443,0,0,1-1.24.916,4.017,4.017,0,0,1-1.656.332,4.279,4.279,0,0,1-1.48-.249A3.387,3.387,0,0,1,47.3-6.426a3.308,3.308,0,0,1-.768-1.09,3.393,3.393,0,0,1-.28-1.387,3.338,3.338,0,0,1,.28-1.379,3.242,3.242,0,0,1,.768-1.075,3.454,3.454,0,0,1,1.168-.7,4.279,4.279,0,0,1,1.48-.249,4.15,4.15,0,0,1,1.656.32,3.449,3.449,0,0,1,1.24.88h3.68v-2.064H57.84v8.5H56.528V-6.72ZM53.1.144a6.012,6.012,0,0,0,2.576-.45,1.393,1.393,0,0,0,.928-1.27,1.408,1.408,0,0,0-.928-1.278A5.92,5.92,0,0,0,53.1-3.312a5.819,5.819,0,0,0-2.552.458,1.407,1.407,0,0,0-.92,1.278,1.392,1.392,0,0,0,.92,1.27A5.91,5.91,0,0,0,53.1.144ZM53.1-4.336a9.822,9.822,0,0,1,1.989.184,5.215,5.215,0,0,1,1.509.536,2.709,2.709,0,0,1,.958.864,2.083,2.083,0,0,1,.336,1.168,2.083,2.083,0,0,1-.336,1.168,2.709,2.709,0,0,1-.958.864,5.215,5.215,0,0,1-1.509.536,9.822,9.822,0,0,1-1.989.184A9.7,9.7,0,0,1,51.115.984a5.218,5.218,0,0,1-1.5-.536,2.636,2.636,0,0,1-.95-.864,2.121,2.121,0,0,1-.327-1.168,2.121,2.121,0,0,1,.327-1.168,2.636,2.636,0,0,1,.95-.864,5.218,5.218,0,0,1,1.5-.536A9.7,9.7,0,0,1,53.1-4.336ZM67.712-5.388a5.915,5.915,0,0,1-2.056-1.28A5.966,5.966,0,0,1,64.288-8.62,5.992,5.992,0,0,1,62.92-6.412a5.967,5.967,0,0,1-2.184,1.424l-.688-1.04A5.284,5.284,0,0,0,61.52-6.82a5.725,5.725,0,0,0,1.128-1.144,4.884,4.884,0,0,0,.72-1.408,5.123,5.123,0,0,0,.248-1.584v-1.472h1.312v1.584a4.007,4.007,0,0,0,.256,1.408A4.744,4.744,0,0,0,65.9-8.164a5.226,5.226,0,0,0,1.1,1.04,5.3,5.3,0,0,0,1.408.712ZM66.688.144a6.119,6.119,0,0,0,2.5-.416,1.291,1.291,0,0,0,.9-1.168,1.3,1.3,0,0,0-.9-1.184,6.119,6.119,0,0,0-2.5-.416,6.178,6.178,0,0,0-2.512.416,1.3,1.3,0,0,0-.912,1.184,1.292,1.292,0,0,0,.912,1.168A6.178,6.178,0,0,0,66.688.144Zm0-4.208a9.948,9.948,0,0,1,1.96.176,5.288,5.288,0,0,1,1.488.512,2.616,2.616,0,0,1,.944.824,1.947,1.947,0,0,1,.328,1.112A1.947,1.947,0,0,1,71.08-.328a2.55,2.55,0,0,1-.944.816,5.466,5.466,0,0,1-1.488.5,9.948,9.948,0,0,1-1.96.176A10.04,10.04,0,0,1,64.712.992a5.466,5.466,0,0,1-1.488-.5,2.55,2.55,0,0,1-.944-.816,1.947,1.947,0,0,1-.328-1.112,1.947,1.947,0,0,1,.328-1.112,2.616,2.616,0,0,1,.944-.824,5.288,5.288,0,0,1,1.488-.512A10.04,10.04,0,0,1,66.688-4.064ZM73.376-9.44v1.072H71.248v3.9H69.936v-8.672h1.312v3.7Zm7.968.32a8.639,8.639,0,0,0,.2,1.856,7.969,7.969,0,0,0,.584,1.72A6.46,6.46,0,0,0,83.08-4.08,4.82,4.82,0,0,0,84.4-3.008l-.8.96a5.48,5.48,0,0,1-1.784-1.72,8.313,8.313,0,0,1-1.1-2.472,8.934,8.934,0,0,1-1.128,2.68A5.887,5.887,0,0,1,77.76-1.7l-.8-.976A5.234,5.234,0,0,0,78.3-3.816a6.881,6.881,0,0,0,.976-1.544,8.669,8.669,0,0,0,.6-1.808A9.192,9.192,0,0,0,80.08-9.12v-1.3H77.36v-1.072H83.9v1.072h-2.56Zm3.84-3.728h1.248V.432H85.184V-6.944H82.816V-8.016h2.368Zm4.144-.336V1.168H88.064V-13.184ZM98.88-5.12a5.806,5.806,0,0,1-2.1-1.256,5.632,5.632,0,0,1-1.36-1.944,5.928,5.928,0,0,1-1.392,2.112A6.07,6.07,0,0,1,91.84-4.832l-.688-1.04a5.965,5.965,0,0,0,1.48-.76,5.349,5.349,0,0,0,1.136-1.08A4.744,4.744,0,0,0,94.5-9.04a4.41,4.41,0,0,0,.256-1.488V-11.1H91.536V-12.16h7.7V-11.1H96.064v.56a3.99,3.99,0,0,0,.248,1.392,4.524,4.524,0,0,0,.7,1.248,5.332,5.332,0,0,0,1.1,1.032,5.534,5.534,0,0,0,1.44.728ZM93.008-3.744h9.344V1.2H101.04V-2.688H93.008ZM104.48-8.3h-2.128v3.792H101.04v-8.624h1.312v3.76h2.128Z" transform="translate(786 14853)" fill="#fff"/>
    <path id="패스_2510" data-name="패스 2510" d="M7.32-11.536a7.084,7.084,0,0,0-1.485.144,4.156,4.156,0,0,0-1.158.416,2.208,2.208,0,0,0-.75.648,1.456,1.456,0,0,0-.263.856,1.492,1.492,0,0,0,.263.864,2.17,2.17,0,0,0,.75.656,4.156,4.156,0,0,0,1.158.416,7.084,7.084,0,0,0,1.485.144,7.2,7.2,0,0,0,1.493-.144,4.151,4.151,0,0,0,1.165-.416,2.17,2.17,0,0,0,.75-.656,1.492,1.492,0,0,0,.263-.864,1.456,1.456,0,0,0-.263-.856,2.208,2.208,0,0,0-.75-.648,4.151,4.151,0,0,0-1.165-.416A7.2,7.2,0,0,0,7.32-11.536Zm0,5.2a8.962,8.962,0,0,1-2.043-.216A5.353,5.353,0,0,1,3.69-7.176a3.05,3.05,0,0,1-1.026-.992,2.432,2.432,0,0,1-.361-1.3,2.392,2.392,0,0,1,.361-1.3,3.08,3.08,0,0,1,1.026-.984,5.353,5.353,0,0,1,1.586-.624,8.962,8.962,0,0,1,2.043-.216,9.068,9.068,0,0,1,2.051.216,5.239,5.239,0,0,1,1.587.624,3.185,3.185,0,0,1,1.026.984,2.353,2.353,0,0,1,.369,1.3,2.393,2.393,0,0,1-.369,1.3,3.151,3.151,0,0,1-1.026.992,5.239,5.239,0,0,1-1.587.624A9.068,9.068,0,0,1,7.32-6.336Zm6.5,2.416H10.432v5.1H9.12v-5.1H5.5v5.1H4.192v-5.1H.848V-4.992H13.824ZM26.48-5.984H16.656V-12.5H26.3v1.056H17.952v1.632h8.016v1.024H17.952V-7.04H26.48ZM27.92-3.44H24.544V1.168H23.232V-3.44H19.616V1.168H18.3V-3.44H14.912V-4.512H27.92Zm14.1,1.648V-.72H29.008V-1.792ZM31.84-12.128V-9.5h7.328v-2.624h1.3v7.472h-9.92v-7.472Zm0,6.4h7.328v-2.72H31.84Zm24.7,3.808H49.968V-.064h6.576Zm0-2.832h1.3V.992H48.672V-4.752h1.3v1.808h6.576ZM49.952-6.928a2.815,2.815,0,0,0,.984-.169,2.3,2.3,0,0,0,.776-.466,2.161,2.161,0,0,0,.5-.707,2.189,2.189,0,0,0,.184-.907,2.189,2.189,0,0,0-.184-.907,2.161,2.161,0,0,0-.5-.707,2.2,2.2,0,0,0-.776-.458,2.941,2.941,0,0,0-.984-.161,2.941,2.941,0,0,0-.984.161,2.2,2.2,0,0,0-.776.458,2.161,2.161,0,0,0-.5.707,2.189,2.189,0,0,0-.184.907,2.189,2.189,0,0,0,.184.907,2.161,2.161,0,0,0,.5.707,2.3,2.3,0,0,0,.776.466A2.815,2.815,0,0,0,49.952-6.928Zm7.888-6.224v7.7H56.528V-8.672H53.616a3.222,3.222,0,0,1-.4,1.16,3.046,3.046,0,0,1-.784.888,3.589,3.589,0,0,1-1.112.568,4.512,4.512,0,0,1-1.368.2,4.428,4.428,0,0,1-1.48-.239A3.511,3.511,0,0,1,47.3-6.774a3.043,3.043,0,0,1-.768-1.046,3.28,3.28,0,0,1-.272-1.357,3.239,3.239,0,0,1,.272-1.341,3.043,3.043,0,0,1,.768-1.045,3.511,3.511,0,0,1,1.176-.678,4.428,4.428,0,0,1,1.48-.239,4.4,4.4,0,0,1,1.344.2,3.72,3.72,0,0,1,1.1.557,3.121,3.121,0,0,1,.792.859A2.951,2.951,0,0,1,53.6-9.744h2.928v-3.408ZM73.12-1.664V-.592H60.1V-1.664h5.84v-2.7H61.728V-8.8H70.24v-2.24H61.7v-1.072h9.84v4.368H63.024v2.32H71.84v1.056H67.248v2.7ZM85.7-5.216H75.84V-11.84h9.712v1.072H77.136v4.48H85.7Zm1.5,3.392V-.752H74.176V-1.824Z" transform="translate(794 14935)" fill="#414141"/>
    <g transform="matrix(1, 0, 0, 1, 490, 14644)" filter="url(#패스_2515)">
      <path id="패스_2515-2" data-name="패스 2515" d="M28.5,0H138.483A27.517,27.517,0,0,1,166,27.517V28.5A28.5,28.5,0,0,1,137.5,57H28.5a28.5,28.5,0,0,1,0-57Z" transform="translate(509 9)" fill="#00b9ff"/>
    </g>
    <g transform="matrix(1, 0, 0, 1, 490, 14644)" filter="url(#패스_2516)">
      <path id="패스_2516-2" data-name="패스 2516" d="M28.5,0H138.483A27.517,27.517,0,0,1,166,27.517V28.5A28.5,28.5,0,0,1,137.5,57H28.5a28.5,28.5,0,0,1,0-57Z" transform="translate(509 91)" fill="#fff"/>
    </g>
    <g transform="matrix(1, 0, 0, 1, 490, 14644)" filter="url(#패스_2511)">
      <path id="패스_2511-2" data-name="패스 2511" d="M28.5,0H138.483A27.517,27.517,0,0,1,166,27.517V28.5A28.5,28.5,0,0,1,137.5,57H28.5a28.5,28.5,0,0,1,0-57Z" transform="translate(509 173)" fill="#fff"/>
    </g>
    <g transform="matrix(1, 0, 0, 1, 490, 14644)" filter="url(#패스_2512)">
      <path id="패스_2512-2" data-name="패스 2512" d="M28.5,0H138.483A27.517,27.517,0,0,1,166,27.517V28.5A28.5,28.5,0,0,1,137.5,57H28.5a28.5,28.5,0,0,1,0-57Z" transform="translate(509 255)" fill="#00b9ff"/>
    </g>
    <path id="패스_2517" data-name="패스 2517" d="M7.088-7.712a13.518,13.518,0,0,0,.312-2q.056-.848.056-1.5H1.632v-1.056h7.12v.768q0,.688-.049,1.656A14.285,14.285,0,0,1,8.38-7.6ZM9.824-5.737q-1.12.174-2.3.276T5.2-5.295q-1.152.063-2.256.079T.88-5.2L.736-6.272H2.192q.768,0,1.584-.032V-9.136h1.3v2.8q1.184-.048,2.368-.128t2.288-.224ZM7.384.128A6.346,6.346,0,0,0,9.91-.282a1.286,1.286,0,0,0,.922-1.166q0-.74-.922-1.15a6.346,6.346,0,0,0-2.526-.41,6.346,6.346,0,0,0-2.526.41q-.922.41-.922,1.15A1.286,1.286,0,0,0,4.858-.282,6.346,6.346,0,0,0,7.384.128Zm0-4.16a10.131,10.131,0,0,1,1.981.176,5.57,5.57,0,0,1,1.5.5,2.565,2.565,0,0,1,.95.808,1.885,1.885,0,0,1,.328,1.088,1.949,1.949,0,0,1-.328,1.112,2.534,2.534,0,0,1-.95.816,5.57,5.57,0,0,1-1.5.5,10.131,10.131,0,0,1-1.981.176A10.13,10.13,0,0,1,5.4.976a5.57,5.57,0,0,1-1.5-.5,2.534,2.534,0,0,1-.95-.816,1.949,1.949,0,0,1-.328-1.112,1.885,1.885,0,0,1,.328-1.088,2.565,2.565,0,0,1,.95-.808,5.57,5.57,0,0,1,1.5-.5A10.131,10.131,0,0,1,7.384-4.032Zm6.68-5.2V-8.16H12.016v3.936H10.7v-8.944h1.312v3.936Zm10.992-1.424H16.3v-1.072H26.368V-10.3q0,.672-.008,1.384T26.3-7.4q-.048.808-.16,1.728t-.32,2.008l-1.312-.144q.208-1.024.32-1.928t.16-1.7q.048-.8.056-1.5t.008-1.36ZM27.92-1.9V-.832H14.944V-1.9h5.04V-7.04H21.3V-1.9Zm1.872-5.328a8.288,8.288,0,0,0,1.824-.5,7.189,7.189,0,0,0,1.6-.88,4.573,4.573,0,0,0,1.128-1.168,2.434,2.434,0,0,0,.424-1.352v-.08H30.24v-1.056H40.72v1.056h-4.5v.08a2.434,2.434,0,0,0,.424,1.352,4.573,4.573,0,0,0,1.128,1.168,7.132,7.132,0,0,0,1.608.88,8.407,8.407,0,0,0,1.848.5l-.512,1.04a9.686,9.686,0,0,1-1.632-.432A7.975,7.975,0,0,1,37.6-7.336a6.917,6.917,0,0,1-1.232-.96A4.427,4.427,0,0,1,35.5-9.472a4.741,4.741,0,0,1-.88,1.176,7.052,7.052,0,0,1-1.224.96,7.745,7.745,0,0,1-1.48.712,9.686,9.686,0,0,1-1.632.432ZM42-3.92H36.128v5.1H34.816v-5.1H29.024V-4.992h12.96Zm1.136,1.888H44.72L43.744,1.2H42.56Zm13.472-8.64H48.576v-1.056H52v-1.584h1.312v1.584h3.3Zm-6,3.3a1.387,1.387,0,0,0,.554,1.152,2.326,2.326,0,0,0,1.47.432,2.326,2.326,0,0,0,1.47-.432,1.387,1.387,0,0,0,.554-1.152A1.387,1.387,0,0,0,54.1-8.528a2.326,2.326,0,0,0-1.47-.432,2.326,2.326,0,0,0-1.47.432A1.387,1.387,0,0,0,50.608-7.376Zm5.264,0a2.333,2.333,0,0,1-.239,1.056,2.358,2.358,0,0,1-.67.816,3.184,3.184,0,0,1-1.021.52,4.386,4.386,0,0,1-1.309.184,4.465,4.465,0,0,1-1.317-.184,3.077,3.077,0,0,1-1.021-.52,2.4,2.4,0,0,1-.662-.816,2.333,2.333,0,0,1-.239-1.056,2.333,2.333,0,0,1,.239-1.056,2.4,2.4,0,0,1,.662-.816,3.077,3.077,0,0,1,1.021-.52,4.465,4.465,0,0,1,1.317-.184,4.386,4.386,0,0,1,1.309.184,3.184,3.184,0,0,1,1.021.52,2.358,2.358,0,0,1,.67.816A2.333,2.333,0,0,1,55.872-7.376Zm3.2,5.808h-6.7V-.032h6.7Zm0-2.5h1.28V.992h-9.28V-4.064h1.3v1.472h6.7Zm1.28-9.088v8.464H59.04V-5.952H56.608V-7.024H59.04V-8.752H56.624V-9.808H59.04v-3.344ZM73.136-1.92H66.56V-.064h6.576Zm0-2.832h1.3V.992H65.264V-4.752h1.3v1.808h6.576ZM66.544-6.928a2.815,2.815,0,0,0,.984-.169,2.3,2.3,0,0,0,.776-.466,2.161,2.161,0,0,0,.5-.707,2.189,2.189,0,0,0,.184-.907,2.189,2.189,0,0,0-.184-.907,2.161,2.161,0,0,0-.5-.707,2.2,2.2,0,0,0-.776-.458,2.941,2.941,0,0,0-.984-.161,2.941,2.941,0,0,0-.984.161,2.2,2.2,0,0,0-.776.458,2.161,2.161,0,0,0-.5.707,2.189,2.189,0,0,0-.184.907,2.189,2.189,0,0,0,.184.907,2.161,2.161,0,0,0,.5.707,2.3,2.3,0,0,0,.776.466A2.815,2.815,0,0,0,66.544-6.928Zm7.888-6.224v7.7H73.12V-8.672H70.208a3.222,3.222,0,0,1-.4,1.16,3.046,3.046,0,0,1-.784.888,3.589,3.589,0,0,1-1.112.568,4.512,4.512,0,0,1-1.368.2,4.428,4.428,0,0,1-1.48-.239,3.511,3.511,0,0,1-1.176-.678,3.043,3.043,0,0,1-.768-1.046,3.28,3.28,0,0,1-.272-1.357,3.239,3.239,0,0,1,.272-1.341,3.043,3.043,0,0,1,.768-1.045,3.511,3.511,0,0,1,1.176-.678,4.428,4.428,0,0,1,1.48-.239,4.4,4.4,0,0,1,1.344.2,3.72,3.72,0,0,1,1.1.557,3.121,3.121,0,0,1,.792.859,2.951,2.951,0,0,1,.408,1.121H73.12v-3.408ZM81.52-9.339a6.362,6.362,0,0,0,.288,1.88,7.908,7.908,0,0,0,.784,1.76,7.32,7.32,0,0,0,1.16,1.472,5.818,5.818,0,0,0,1.416,1.032l-.816,1.04a5.69,5.69,0,0,1-1.1-.76,7.452,7.452,0,0,1-.968-1.032A8.575,8.575,0,0,1,81.48-5.2a8.952,8.952,0,0,1-.6-1.416,8.8,8.8,0,0,1-1.408,2.84,6.68,6.68,0,0,1-2.16,1.912l-.784-1.056A5.919,5.919,0,0,0,77.976-4a7.336,7.336,0,0,0,1.176-1.544,8.531,8.531,0,0,0,.784-1.84,6.867,6.867,0,0,0,.288-1.952v-2.576h1.3Zm8.592,3.082H87.744v7.44H86.432v-14.32h1.312v5.808h2.368ZM95.2-8.648a2.621,2.621,0,0,0,.184.987,2.246,2.246,0,0,0,.512.779,2.408,2.408,0,0,0,.776.506,2.537,2.537,0,0,0,.976.185,2.477,2.477,0,0,0,.968-.185,2.431,2.431,0,0,0,.768-.506,2.246,2.246,0,0,0,.512-.779,2.621,2.621,0,0,0,.184-.987,2.621,2.621,0,0,0-.184-.987,2.246,2.246,0,0,0-.512-.779,2.431,2.431,0,0,0-.768-.506,2.477,2.477,0,0,0-.968-.185,2.537,2.537,0,0,0-.976.185,2.408,2.408,0,0,0-.776.506,2.246,2.246,0,0,0-.512.779A2.621,2.621,0,0,0,95.2-8.648Zm5.936-1.208a3.675,3.675,0,0,1,.192,1.2,3.534,3.534,0,0,1-.192,1.184h3.088V-9.856Zm-.544,3.44a3.571,3.571,0,0,1-1.264,1,3.841,3.841,0,0,1-1.68.36,4,4,0,0,1-1.472-.263,3.5,3.5,0,0,1-1.168-.742A3.415,3.415,0,0,1,94.232-7.2a3.673,3.673,0,0,1-.28-1.445,3.673,3.673,0,0,1,.28-1.445,3.415,3.415,0,0,1,.776-1.141,3.5,3.5,0,0,1,1.168-.742,4,4,0,0,1,1.472-.263,3.827,3.827,0,0,1,1.672.356,3.666,3.666,0,0,1,1.256.972h3.648v-2.24h1.312V-2.56h-1.312V-6.416Zm5.344,6.208V.864H96.368V-3.648H97.68v3.44Zm9.936-12.576h1.248V.448h-1.248v-4.96H113.28V-5.584h2.592V-8.112H113.5a10.146,10.146,0,0,1-1.7,3.4,11.079,11.079,0,0,1-3.24,2.792l-.768-.928a10.076,10.076,0,0,0,3.5-3.272,9.078,9.078,0,0,0,1.344-4.152h-4.208v-1.072h5.5a12.318,12.318,0,0,1-.192,2.176h2.128ZM120-13.168V1.168h-1.248V-13.168Z" transform="translate(1021 14689)" fill="#fff"/>
    <path id="패스_2518" data-name="패스 2518" d="M7.32-11.536a7.084,7.084,0,0,0-1.485.144,4.156,4.156,0,0,0-1.158.416,2.208,2.208,0,0,0-.75.648,1.456,1.456,0,0,0-.263.856,1.492,1.492,0,0,0,.263.864,2.17,2.17,0,0,0,.75.656,4.156,4.156,0,0,0,1.158.416,7.084,7.084,0,0,0,1.485.144,7.2,7.2,0,0,0,1.493-.144,4.151,4.151,0,0,0,1.165-.416,2.17,2.17,0,0,0,.75-.656,1.492,1.492,0,0,0,.263-.864,1.456,1.456,0,0,0-.263-.856,2.208,2.208,0,0,0-.75-.648,4.151,4.151,0,0,0-1.165-.416A7.2,7.2,0,0,0,7.32-11.536Zm0,5.2a8.962,8.962,0,0,1-2.043-.216A5.353,5.353,0,0,1,3.69-7.176a3.05,3.05,0,0,1-1.026-.992,2.432,2.432,0,0,1-.361-1.3,2.392,2.392,0,0,1,.361-1.3,3.08,3.08,0,0,1,1.026-.984,5.353,5.353,0,0,1,1.586-.624,8.962,8.962,0,0,1,2.043-.216,9.068,9.068,0,0,1,2.051.216,5.239,5.239,0,0,1,1.587.624,3.185,3.185,0,0,1,1.026.984,2.353,2.353,0,0,1,.369,1.3,2.393,2.393,0,0,1-.369,1.3,3.151,3.151,0,0,1-1.026.992,5.239,5.239,0,0,1-1.587.624A9.068,9.068,0,0,1,7.32-6.336Zm6.5,2.416H10.432v5.1H9.12v-5.1H5.5v5.1H4.192v-5.1H.848V-4.992H13.824ZM26.48-5.984H16.656V-12.5H26.3v1.056H17.952v1.632h8.016v1.024H17.952V-7.04H26.48ZM27.92-3.44H24.544V1.168H23.232V-3.44H19.616V1.168H18.3V-3.44H14.912V-4.512H27.92Zm14.1,1.648V-.72H29.008V-1.792ZM31.84-12.128V-9.5h7.328v-2.624h1.3v7.472h-9.92v-7.472Zm0,6.4h7.328v-2.72H31.84Zm14.944-6h1.488v10.48h5.12V0H46.784Zm8.032,0H56.3V0H54.816Zm2.464,0h1.552l1.9,6.352q.16.512.288.992t.264.944q.136.464.272.944t.312.992h.064q.16-.512.3-.992t.272-.944q.128-.464.264-.944t.3-.992l1.888-6.352h1.5L62.736,0H61.024Zm10.144,0h6.768v1.248h-5.28v3.7H73.36v1.248H68.912v4.288h5.456V0H67.424Zm18.192.048a14.994,14.994,0,0,1-.3,3.04,9.934,9.934,0,0,1-1.048,2.816,10.293,10.293,0,0,1-2,2.52A13.561,13.561,0,0,1,79.12-1.168l-.736-1.04a11.734,11.734,0,0,0,3.184-2.176A9.331,9.331,0,0,0,83.456-7.04l-4.784.448-.24-1.136,5.424-.352a7.724,7.724,0,0,0,.312-1.232q.1-.624.152-1.3H79.168V-11.68Zm4.576-1.472V1.184H88.88v-7.52H85.568V-7.408H88.88v-5.744Zm8.08,2.416H94.336v7.264h3.936Zm6.016-2.432V1.216h-1.312v-8.08H99.568v4.416H93.04V-11.76h6.528v3.824h3.408v-5.232Zm14.016,8.3a8.75,8.75,0,0,1-1.624-.56,7.879,7.879,0,0,1-1.512-.9,8.242,8.242,0,0,1-1.278-1.208,5.5,5.5,0,0,1-.906-1.472,5.589,5.589,0,0,1-.906,1.456A8.243,8.243,0,0,1,110.8-6.344a8.314,8.314,0,0,1-1.5.912,8.221,8.221,0,0,1-1.616.568l-.592-1.088a7.358,7.358,0,0,0,1.872-.664,7.511,7.511,0,0,0,1.672-1.152A5.9,5.9,0,0,0,111.84-9.3a3.62,3.62,0,0,0,.464-1.76v-1.1h1.36v1.1a3.62,3.62,0,0,0,.464,1.76,5.9,5.9,0,0,0,1.208,1.528,7.648,7.648,0,0,0,1.68,1.16,6.876,6.876,0,0,0,1.88.656Zm1.248,3.056V-.736H106.544V-1.808Z" transform="translate(1022 14771)" fill="#414141"/>
    <path id="패스_2513" data-name="패스 2513" d="M12.608-4.864a8.75,8.75,0,0,1-1.624-.56,7.879,7.879,0,0,1-1.512-.9A8.242,8.242,0,0,1,8.194-7.536a5.5,5.5,0,0,1-.906-1.472,5.589,5.589,0,0,1-.906,1.456A8.242,8.242,0,0,1,5.1-6.344a8.314,8.314,0,0,1-1.5.912,8.221,8.221,0,0,1-1.616.568L1.392-5.952a7.358,7.358,0,0,0,1.872-.664A7.511,7.511,0,0,0,4.936-7.768,5.9,5.9,0,0,0,6.144-9.3a3.62,3.62,0,0,0,.464-1.76v-1.1h1.36v1.1A3.62,3.62,0,0,0,8.432-9.3,5.9,5.9,0,0,0,9.64-7.768a7.648,7.648,0,0,0,1.68,1.16,6.876,6.876,0,0,0,1.88.656Zm1.248,3.056V-.736H.848V-1.808Zm12.576-2.56h-9.84V-11.92h9.7v1.056H17.9v2.128h8.064v1.024H17.9v2.288h8.528Zm1.5,2.624V-.672H14.912V-1.744Zm3.216-1.6q.88,0,1.728-.024t1.7-.08q.848-.056,1.728-.16t1.824-.248l.128,1.064q-.976.158-1.88.26t-1.784.158q-.88.055-1.76.079t-1.808.024H29.84v-5.5h5.28v-2.992H29.792V-11.84h6.64V-6.7h-5.28Zm9.632-9.84V1.2H39.472V-13.184Zm9.776,1.072v6.256H43.84v-6.256Zm-5.424,1.056v4.144h4.128v-4.144Zm9.728-2.1v8.576H53.552v-8.576ZM50.128-4.32a9.88,9.88,0,0,1,1.992.183,5.241,5.241,0,0,1,1.512.535,2.709,2.709,0,0,1,.96.862,2.07,2.07,0,0,1,.336,1.165,2.07,2.07,0,0,1-.336,1.165,2.709,2.709,0,0,1-.96.862A5.241,5.241,0,0,1,52.12.985a9.88,9.88,0,0,1-1.992.184A10.09,10.09,0,0,1,48.112.985,5.24,5.24,0,0,1,46.592.45a2.709,2.709,0,0,1-.96-.862A2.07,2.07,0,0,1,45.3-1.576a2.07,2.07,0,0,1,.336-1.165,2.709,2.709,0,0,1,.96-.862,5.24,5.24,0,0,1,1.52-.535A10.09,10.09,0,0,1,50.128-4.32Zm0,1.024a6.068,6.068,0,0,0-2.584.45,1.394,1.394,0,0,0-.936,1.27,1.394,1.394,0,0,0,.936,1.27,6.068,6.068,0,0,0,2.584.45,5.965,5.965,0,0,0,2.56-.45,1.393,1.393,0,0,0,.928-1.27,1.393,1.393,0,0,0-.928-1.27A5.965,5.965,0,0,0,50.128-3.3Zm14.16-5.472a6.816,6.816,0,0,0,.216,1.7,7.44,7.44,0,0,0,.608,1.592A6.167,6.167,0,0,0,66.08-4.1a5.271,5.271,0,0,0,1.3,1.016l-.752.976a5.587,5.587,0,0,1-1.8-1.616,7.853,7.853,0,0,1-1.144-2.32,8.5,8.5,0,0,1-1.112,2.5,5.52,5.52,0,0,1-1.8,1.752l-.784-.992a5.313,5.313,0,0,0,1.288-1.088,6.831,6.831,0,0,0,.96-1.448,7.766,7.766,0,0,0,.6-1.68,7.73,7.73,0,0,0,.208-1.768v-.656h-2.7V-10.5h2.7V-12.64H64.3V-10.5h2.688v1.072h-2.7Zm8.064-4.384V1.184H71.088V-6.288h-1.9V.48H67.968V-12.832h1.216V-7.36h1.9v-5.792Zm12.336,3.44H80.624v-1.056h4.064v-2.4H86v7.424H84.688Zm-2.016,2.8q-.848.16-1.64.272t-1.584.176q-.792.064-1.616.088t-1.7.024h-1.1V-12.48h1.312v5.024q.816,0,1.592-.024t1.528-.088q.752-.064,1.5-.168T82.5-8ZM86.528-.064V.992H76.8V-2.64h7.9V-4.016H76.768V-5.072H86v3.456H78.1V-.064Zm5.5-6.576a8.3,8.3,0,0,0,1.88-.472,7.082,7.082,0,0,0,1.6-.84,4.464,4.464,0,0,0,1.112-1.1,2.231,2.231,0,0,0,.416-1.28H92.48v-1.056h4.576v-1.76h1.312v1.76h4.576v1.056H98.368a2.244,2.244,0,0,0,.416,1.272A4.292,4.292,0,0,0,99.9-7.96a7.54,7.54,0,0,0,1.6.84,8.052,8.052,0,0,0,1.864.48L102.9-5.584a9.654,9.654,0,0,1-1.616-.392,8.458,8.458,0,0,1-1.464-.648,6.691,6.691,0,0,1-1.224-.88,4.57,4.57,0,0,1-.88-1.072,4.57,4.57,0,0,1-.88,1.072,6.691,6.691,0,0,1-1.224.88,8.363,8.363,0,0,1-1.472.648,9.874,9.874,0,0,1-1.624.392Zm12.176,3.216h-5.84V1.2H97.056V-3.424H91.232V-4.5h12.976Zm8.416-8.208a11.907,11.907,0,0,1-.368,2.96A10.086,10.086,0,0,1,111.1-5.936a10.735,10.735,0,0,1-2.016,2.408,13.067,13.067,0,0,1-2.976,1.976l-.72-1.024a11.523,11.523,0,0,0,4.24-3.408,8.93,8.93,0,0,0,1.7-4.576h-5.264v-1.072Zm6.016,5.376h-2.3v7.44h-1.312V-13.152h1.312v5.824h2.3Z" transform="translate(1023 14853)" fill="#414141"/>
    <path id="패스_2514" data-name="패스 2514" d="M12.608-4.864a8.75,8.75,0,0,1-1.624-.56,7.879,7.879,0,0,1-1.512-.9A8.242,8.242,0,0,1,8.194-7.536a5.5,5.5,0,0,1-.906-1.472,5.589,5.589,0,0,1-.906,1.456A8.242,8.242,0,0,1,5.1-6.344a8.314,8.314,0,0,1-1.5.912,8.221,8.221,0,0,1-1.616.568L1.392-5.952a7.358,7.358,0,0,0,1.872-.664A7.511,7.511,0,0,0,4.936-7.768,5.9,5.9,0,0,0,6.144-9.3a3.62,3.62,0,0,0,.464-1.76v-1.1h1.36v1.1A3.62,3.62,0,0,0,8.432-9.3,5.9,5.9,0,0,0,9.64-7.768a7.648,7.648,0,0,0,1.68,1.16,6.876,6.876,0,0,0,1.88.656Zm1.248,3.056V-.736H.848V-1.808Zm12.576-2.56h-9.84V-11.92h9.7v1.056H17.9v2.128h8.064v1.024H17.9v2.288h8.528Zm1.5,2.624V-.672H14.912V-1.744Zm3.216-1.6q.88,0,1.728-.024t1.7-.08q.848-.056,1.728-.16t1.824-.248l.128,1.064q-.976.158-1.88.26t-1.784.158q-.88.055-1.76.079t-1.808.024H29.84v-5.5h5.28v-2.992H29.792V-11.84h6.64V-6.7h-5.28Zm9.632-9.84V1.2H39.472V-13.184ZM48.9-10.736H44.96v7.264H48.9Zm6.016-2.432V1.216H53.6v-8.08H50.192v4.416H43.664V-11.76h6.528v3.824H53.6v-5.232ZM73.12-1.792V-.72H60.112V-1.792ZM62.944-12.128V-9.5h7.328v-2.624h1.3v7.472h-9.92v-7.472Zm0,6.4h7.328v-2.72H62.944ZM83.12-2.9H81.872v-10H83.12v4.032h1.92v-4.288H86.3V-2.48H85.04V-7.792H83.12ZM81.184-5.04q-.688.128-1.32.216t-1.28.136q-.648.048-1.336.064t-1.456.016h-.944V-8.832h4.1v-2.032H74.816V-11.92h5.392v4.08h-4.1v2.16q.7,0,1.328-.016t1.216-.064q.592-.048,1.184-.128T81.056-6.1ZM86.72-.208V.864H76.944v-4.3h1.312V-.208ZM100.048-4.32H98.736v-8.832h1.312ZM97.424-6.256q-.8.16-1.56.256t-1.6.152q-.84.056-1.8.08t-2.144.024H89.136v-6.288h6.752v1.056h-5.44v4.16q1.136,0,2.056-.024t1.728-.08q.808-.056,1.552-.152T97.3-7.328ZM95.272.16a6.038,6.038,0,0,0,2.582-.45,1.393,1.393,0,0,0,.93-1.27,1.393,1.393,0,0,0-.93-1.27,6.038,6.038,0,0,0-2.582-.45,6.094,6.094,0,0,0-2.59.45,1.394,1.394,0,0,0-.938,1.27,1.394,1.394,0,0,0,.938,1.27A6.094,6.094,0,0,0,95.272.16ZM95.28-4.3a10,10,0,0,1,2,.184,5.24,5.24,0,0,1,1.52.534,2.709,2.709,0,0,1,.96.862A2.07,2.07,0,0,1,100.1-1.56,2.07,2.07,0,0,1,99.76-.4a2.709,2.709,0,0,1-.96.862A5.24,5.24,0,0,1,97.28,1a10,10,0,0,1-2,.183,10,10,0,0,1-2-.183A5.24,5.24,0,0,1,91.76.466,2.709,2.709,0,0,1,90.8-.4a2.07,2.07,0,0,1-.336-1.165A2.07,2.07,0,0,1,90.8-2.725a2.709,2.709,0,0,1,.96-.862,5.24,5.24,0,0,1,1.52-.534A10,10,0,0,1,95.28-4.3Z" transform="translate(1031 14935)" fill="#fff"/>
    <g transform="matrix(1, 0, 0, 1, 490, 14644)" filter="url(#패스_2519)">
      <path id="패스_2519-2" data-name="패스 2519" d="M28.5,0H138.483A27.517,27.517,0,0,1,166,27.517V28.5A28.5,28.5,0,0,1,137.5,57H28.5a28.5,28.5,0,0,1,0-57Z" transform="translate(753 9)" fill="#00b9ff"/>
    </g>
    <g transform="matrix(1, 0, 0, 1, 490, 14644)" filter="url(#패스_2520)">
      <path id="패스_2520-2" data-name="패스 2520" d="M28.5,0H138.483A27.517,27.517,0,0,1,166,27.517V28.5A28.5,28.5,0,0,1,137.5,57H28.5a28.5,28.5,0,0,1,0-57Z" transform="translate(753 91)" fill="#fff"/>
    </g>
    <g transform="matrix(1, 0, 0, 1, 490, 14644)" filter="url(#패스_2521)">
      <path id="패스_2521-2" data-name="패스 2521" d="M28.5,0H138.483A27.517,27.517,0,0,1,166,27.517V28.5A28.5,28.5,0,0,1,137.5,57H28.5a28.5,28.5,0,0,1,0-57Z" transform="translate(753 173)" fill="#fff"/>
    </g>
    <g transform="matrix(1, 0, 0, 1, 490, 14644)" filter="url(#패스_2522)">
      <path id="패스_2522-2" data-name="패스 2522" d="M28.5,0H138.483A27.517,27.517,0,0,1,166,27.517V28.5A28.5,28.5,0,0,1,137.5,57H28.5a28.5,28.5,0,0,1,0-57Z" transform="translate(753 255)" fill="#fff"/>
    </g>
    <path id="패스_2523" data-name="패스 2523" d="M3.824-.208H12.4V.864H2.512V-3.28H3.824ZM3.648-9.864a1.457,1.457,0,0,0,1,1.334,6.494,6.494,0,0,0,2.706.466,6.3,6.3,0,0,0,2.674-.474,1.463,1.463,0,0,0,1-1.326,1.478,1.478,0,0,0-1-1.334,6.211,6.211,0,0,0-2.674-.482,6.4,6.4,0,0,0-2.706.474A1.472,1.472,0,0,0,3.648-9.864Zm10.16,4.328v1.072H.848V-5.536h5.84v-1.5A8.771,8.771,0,0,1,4.864-7.3,5.06,5.06,0,0,1,3.472-7.88a2.626,2.626,0,0,1-.88-.864,2.141,2.141,0,0,1-.3-1.128,2.112,2.112,0,0,1,.352-1.2,2.917,2.917,0,0,1,1.018-.9,5.482,5.482,0,0,1,1.6-.568,10.456,10.456,0,0,1,2.091-.192,10.336,10.336,0,0,1,2.083.192,5.373,5.373,0,0,1,1.587.568,2.935,2.935,0,0,1,1.01.9,2.112,2.112,0,0,1,.352,1.2,2.094,2.094,0,0,1-.305,1.12A2.684,2.684,0,0,1,11.2-7.9a5.144,5.144,0,0,1-1.381.584A8.342,8.342,0,0,1,8-7.04v1.5Zm3.008,2.192q.976,0,1.832-.024t1.648-.08q.792-.056,1.56-.152t1.568-.256l.144,1.079q-.848.142-1.64.244T20.3-2.375q-.832.055-1.72.079t-1.914.024H15.52V-7.76h5.152v-3.008h-5.2V-11.84h6.5v5.152H16.816Zm11.52-3.024H25.984V1.2H24.672V-13.184h1.312v5.712h2.352Zm12.448,3.7H39.472v-10.48h1.312ZM30.64-8.64a2.552,2.552,0,0,0,.183.976,2.256,2.256,0,0,0,.51.768,2.3,2.3,0,0,0,.774.5,2.629,2.629,0,0,0,.973.176,2.693,2.693,0,0,0,.981-.176,2.364,2.364,0,0,0,.79-.5,2.2,2.2,0,0,0,.518-.768,2.552,2.552,0,0,0,.183-.976,2.433,2.433,0,0,0-.183-.96,2.238,2.238,0,0,0-.518-.752,2.364,2.364,0,0,0-.79-.5,2.694,2.694,0,0,0-.981-.176,2.629,2.629,0,0,0-.973.176,2.3,2.3,0,0,0-.774.5,2.3,2.3,0,0,0-.51.752A2.433,2.433,0,0,0,30.64-8.64Zm6.208,0a3.48,3.48,0,0,1-.289,1.432,3.419,3.419,0,0,1-.794,1.12,3.629,3.629,0,0,1-1.194.736,4.135,4.135,0,0,1-1.491.264A4.072,4.072,0,0,1,31.6-5.352a3.646,3.646,0,0,1-1.187-.736,3.322,3.322,0,0,1-.786-1.12,3.566,3.566,0,0,1-.281-1.432,3.525,3.525,0,0,1,.281-1.416,3.322,3.322,0,0,1,.786-1.12A3.539,3.539,0,0,1,31.6-11.9a4.185,4.185,0,0,1,1.483-.256,4.25,4.25,0,0,1,1.491.256,3.524,3.524,0,0,1,1.194.728,3.419,3.419,0,0,1,.794,1.12A3.441,3.441,0,0,1,36.848-8.64ZM41.216-.208V.864H31.552V-3.744h1.312V-.208Zm7.616-6.048h7.344v-4.688H48.832ZM59.024-1.728V-.656H46.032V-1.728h5.824v-3.5H47.568v-6.736h9.9v6.736h-4.3v3.5Zm3.3-1.936q1.632,0,3.3-.152a31.343,31.343,0,0,0,3.464-.52l.144,1.127a30.814,30.814,0,0,1-3.6.536q-1.712.146-3.44.146H61.008v-9.264H62.32Zm9.552-9.5V1.168H70.56V-13.168Zm4.288,9.84q.976,0,1.792-.024T79.5-3.424q.736-.048,1.432-.136t1.432-.216L82.512-2.7q-.784.144-1.52.232t-1.512.136q-.776.048-1.64.064t-1.888.016h-1.1v-9.6h6.64v1.072H76.16v2.96h4.7v1.056h-4.7Zm9.856-9.84V1.2H84.7V-6.672h-2.96V-7.76l2.96.016v-5.424Zm14.032,8.832H98.736v-8.832h1.312Zm-2.9-1.344q-.88.144-1.7.232T93.784-5.3q-.84.056-1.72.072t-1.873.016H89.024V-9.328h5.184V-11.2H88.976v-1.072H95.5V-8.3H90.32v2.016q.96,0,1.8-.016t1.648-.064q.808-.048,1.6-.136t1.64-.232ZM95.3.144a6.582,6.582,0,0,0,2.592-.41,1.287,1.287,0,0,0,.928-1.166q0-.74-.928-1.15a6.582,6.582,0,0,0-2.592-.41,6.469,6.469,0,0,0-2.568.41q-.92.41-.92,1.15a1.285,1.285,0,0,0,.92,1.166A6.469,6.469,0,0,0,95.3.144Zm0-4.16a10.536,10.536,0,0,1,2.016.176,5.6,5.6,0,0,1,1.52.5,2.639,2.639,0,0,1,.96.806,1.867,1.867,0,0,1,.336,1.1,1.9,1.9,0,0,1-.336,1.109,2.6,2.6,0,0,1-.96.814,5.6,5.6,0,0,1-1.52.5,10.536,10.536,0,0,1-2.016.176A10.411,10.411,0,0,1,93.288.993a5.6,5.6,0,0,1-1.512-.5,2.534,2.534,0,0,1-.952-.814A1.937,1.937,0,0,1,90.5-1.432a1.9,1.9,0,0,1,.328-1.1,2.566,2.566,0,0,1,.952-.806,5.6,5.6,0,0,1,1.512-.5A10.411,10.411,0,0,1,95.3-4.016Z" transform="translate(1275 14689)" fill="#fff"/>
    <path id="패스_2524" data-name="패스 2524" d="M9.1-10.672H5.536V-5.68H9.1Zm-4.88,0H2v-1.056H12.64v1.056H10.416V-5.68h2.192v1.072H2.032V-5.68H4.224Zm9.632,8.944V-.656H.848V-1.728Zm14.08.064V-.592H14.912V-1.664h5.84v-2.7H16.544V-8.8h8.512v-2.24H16.512v-1.072h9.84v4.368H17.84v2.32h8.816v1.056H22.064v2.7Zm3.872-4.592h7.344v-4.688H31.808ZM42-1.728V-.656H29.008V-1.728h5.824v-3.5H30.544v-6.736h9.9v6.736h-4.3v3.5Zm11.584-5.3h-2.9V-8.1h2.9V-9.984h-2.9V-11.04h2.9v-2.128H54.9v10.72H53.584ZM50.736-4.592a6.058,6.058,0,0,1-2.048-1.424,6.435,6.435,0,0,1-1.344-2.128,6.461,6.461,0,0,1-1.36,2.288,5.954,5.954,0,0,1-2.176,1.5l-.7-1.04a5.445,5.445,0,0,0,1.464-.832,5.755,5.755,0,0,0,1.136-1.2,5.446,5.446,0,0,0,.728-1.464,5.3,5.3,0,0,0,.256-1.64v-1.84H48v1.84a4.85,4.85,0,0,0,.248,1.544,5.343,5.343,0,0,0,.7,1.392,5.464,5.464,0,0,0,1.1,1.152,5.585,5.585,0,0,0,1.408.808ZM55.248-.208V.864H45.68v-4.4h1.312V-.208Zm16.624-5.52H70.56v-7.424h1.312Zm-3.728-.416A6.2,6.2,0,0,1,65.96-7.432,5.8,5.8,0,0,1,64.528-9.44a5.848,5.848,0,0,1-1.416,2.176A6.17,6.17,0,0,1,60.88-5.872L60.208-6.9A5.953,5.953,0,0,0,61.7-7.664a5.4,5.4,0,0,0,1.152-1.1,4.97,4.97,0,0,0,.744-1.36,4.469,4.469,0,0,0,.264-1.52v-1.088h1.312v1.088a3.881,3.881,0,0,0,.272,1.44,4.862,4.862,0,0,0,.752,1.28A5.386,5.386,0,0,0,67.336-7.88a5.566,5.566,0,0,0,1.464.712ZM72.368-.016V1.008H62.624V-2.544h7.968V-3.968h-8V-4.992h9.3v3.44H63.92V-.016ZM79.28-9.344a6.43,6.43,0,0,0,.3,1.952,7.659,7.659,0,0,0,.824,1.784,7.591,7.591,0,0,0,1.216,1.48,5.281,5.281,0,0,0,1.5,1.008l-.784,1.056a6.675,6.675,0,0,1-2.208-1.8A8.477,8.477,0,0,1,78.64-6.608a8.946,8.946,0,0,1-1.472,2.9,6.78,6.78,0,0,1-2.24,1.92l-.8-1.072A5.951,5.951,0,0,0,75.616-3.92a7.562,7.562,0,0,0,1.232-1.536A8.046,8.046,0,0,0,77.68-7.32a6.923,6.923,0,0,0,.3-2.024V-11.92h1.3Zm6.656-3.824V1.216H84.624V-13.168Z" transform="translate(1282 14771)" fill="#414141"/>
    <path id="패스_2525" data-name="패스 2525" d="M8.08-12.256a6.723,6.723,0,0,1-.464,2.52A6.684,6.684,0,0,1,6.288-7.648,8.535,8.535,0,0,1,4.176-6.024,12.67,12.67,0,0,1,1.36-4.9L.816-5.936a12.493,12.493,0,0,0,2.352-.872A8.122,8.122,0,0,0,4.96-8,5.451,5.451,0,0,0,6.144-9.472a4.577,4.577,0,0,0,.528-1.712h-5.2v-1.072ZM2.656-4.1h9.328v5.28H10.672V-3.04H2.656ZM14.112-8.448H11.984v3.7H10.672v-8.416h1.312V-9.52h2.128Zm1.536.048a9.606,9.606,0,0,0,1.816-.36,7.12,7.12,0,0,0,1.552-.664,3.938,3.938,0,0,0,1.1-.92,2.02,2.02,0,0,0,.464-1.112H16.128v-1.056H26.736v1.056H22.272a2.02,2.02,0,0,0,.464,1.112,3.938,3.938,0,0,0,1.1.92,7.12,7.12,0,0,0,1.552.664A9.606,9.606,0,0,0,27.2-8.4l-.464,1.04a9.447,9.447,0,0,1-1.72-.344A8.459,8.459,0,0,1,23.5-8.32a6.132,6.132,0,0,1-1.232-.848,3.715,3.715,0,0,1-.84-1.072,3.715,3.715,0,0,1-.84,1.072,6.132,6.132,0,0,1-1.232.848,8.459,8.459,0,0,1-1.52.616,9.459,9.459,0,0,1-1.7.344ZM21.4.144A7.439,7.439,0,0,0,24.046-.23q.946-.374.946-1.09,0-.7-.946-1.074A7.439,7.439,0,0,0,21.4-2.768a7.428,7.428,0,0,0-2.654.374q-.938.374-.938,1.074,0,.716.938,1.09A7.428,7.428,0,0,0,21.4.144Zm0-3.936A8.277,8.277,0,0,1,25-3.15a2,2,0,0,1,1.3,1.83A2.006,2.006,0,0,1,25,.526a8.277,8.277,0,0,1-3.6.642A8.277,8.277,0,0,1,17.8.526,2.006,2.006,0,0,1,16.5-1.32a2,2,0,0,1,1.3-1.83A8.277,8.277,0,0,1,21.4-3.792Zm6.5-2.224V-4.96H14.928V-6.016h5.824V-8.08h1.312v2.064ZM34.48-8.472a2.132,2.132,0,0,0,.3,1.117A2.727,2.727,0,0,0,35.6-6.5a4.044,4.044,0,0,0,1.256.55,6.251,6.251,0,0,0,1.592.191,6.158,6.158,0,0,0,1.584-.191A4.052,4.052,0,0,0,41.28-6.5a2.727,2.727,0,0,0,.824-.853,2.132,2.132,0,0,0,.3-1.117,2.132,2.132,0,0,0-.3-1.117,2.727,2.727,0,0,0-.824-.853,4.052,4.052,0,0,0-1.248-.55,6.158,6.158,0,0,0-1.584-.191,6.252,6.252,0,0,0-1.592.191,4.044,4.044,0,0,0-1.256.55,2.727,2.727,0,0,0-.824.853A2.132,2.132,0,0,0,34.48-8.472ZM44.96-1.728V-.656H31.936V-1.728h5.84V-4.736a6.756,6.756,0,0,1-1.84-.359,4.907,4.907,0,0,1-1.44-.782,3.535,3.535,0,0,1-.944-1.134,3.086,3.086,0,0,1-.336-1.445A3.067,3.067,0,0,1,33.608-10,3.693,3.693,0,0,1,34.7-11.186a5.207,5.207,0,0,1,1.656-.758,7.9,7.9,0,0,1,2.1-.263,7.814,7.814,0,0,1,2.088.263,5.216,5.216,0,0,1,1.648.758A3.607,3.607,0,0,1,43.264-10a3.118,3.118,0,0,1,.384,1.549,3.078,3.078,0,0,1-.337,1.445,3.58,3.58,0,0,1-.939,1.134,4.817,4.817,0,0,1-1.437.782,6.8,6.8,0,0,1-1.847.359v3.008Zm9.328-8.944H50.72V-5.68h3.568Zm-4.88,0H47.184v-1.056h10.64v1.056H55.6V-5.68h2.192v1.072H47.216V-5.68h2.192ZM59.04-1.728V-.656H46.032V-1.728ZM62-3.344q.976,0,1.832-.024t1.648-.08q.792-.056,1.56-.152t1.568-.256l.144,1.079q-.848.142-1.64.244t-1.624.158q-.832.055-1.72.079t-1.914.024H60.7V-7.76h5.152v-3.008h-5.2V-11.84h6.5v5.152H62ZM73.52-6.368H71.168V1.2H69.856V-13.184h1.312v5.712H73.52Zm12.448,3.7H84.656v-10.48h1.312ZM75.824-8.64a2.552,2.552,0,0,0,.183.976,2.255,2.255,0,0,0,.51.768,2.3,2.3,0,0,0,.773.5,2.629,2.629,0,0,0,.973.176,2.693,2.693,0,0,0,.981-.176,2.364,2.364,0,0,0,.79-.5,2.2,2.2,0,0,0,.518-.768,2.552,2.552,0,0,0,.183-.976,2.433,2.433,0,0,0-.183-.96,2.238,2.238,0,0,0-.518-.752,2.364,2.364,0,0,0-.79-.5,2.693,2.693,0,0,0-.981-.176,2.629,2.629,0,0,0-.973.176,2.3,2.3,0,0,0-.773.5,2.3,2.3,0,0,0-.51.752A2.433,2.433,0,0,0,75.824-8.64Zm6.208,0a3.48,3.48,0,0,1-.289,1.432,3.419,3.419,0,0,1-.794,1.12,3.629,3.629,0,0,1-1.195.736,4.135,4.135,0,0,1-1.491.264,4.072,4.072,0,0,1-1.483-.264,3.646,3.646,0,0,1-1.187-.736,3.322,3.322,0,0,1-.786-1.12,3.566,3.566,0,0,1-.281-1.432,3.525,3.525,0,0,1,.281-1.416,3.322,3.322,0,0,1,.786-1.12,3.539,3.539,0,0,1,1.187-.728,4.185,4.185,0,0,1,1.483-.256,4.25,4.25,0,0,1,1.491.256,3.524,3.524,0,0,1,1.195.728,3.419,3.419,0,0,1,.794,1.12A3.441,3.441,0,0,1,82.032-8.64ZM86.4-.208V.864H76.736V-3.744h1.312V-.208Zm13.84-4.384H98.992V-12.88h1.248v3.616h1.824v-3.9h1.264V-4.08h-1.264V-8.192H100.24Zm-1.808-5.84h-7.3v-1.024h3.008v-1.6h1.3v1.6h2.992Zm-5.52,3.216a1.313,1.313,0,0,0,.512,1.08,2.146,2.146,0,0,0,1.376.408,2.153,2.153,0,0,0,1.368-.408,1.305,1.305,0,0,0,.52-1.08,1.283,1.283,0,0,0-.52-1.072,2.183,2.183,0,0,0-1.368-.4,2.176,2.176,0,0,0-1.376.4A1.291,1.291,0,0,0,92.912-7.216Zm4.944,0A2.273,2.273,0,0,1,97.632-6.2a2.257,2.257,0,0,1-.624.776,2.91,2.91,0,0,1-.968.5,4.172,4.172,0,0,1-1.24.176,4.172,4.172,0,0,1-1.24-.176,3,3,0,0,1-.976-.5,2.22,2.22,0,0,1-.632-.776,2.273,2.273,0,0,1-.224-1.016,2.237,2.237,0,0,1,.224-1,2.22,2.22,0,0,1,.632-.776,3,3,0,0,1,.976-.5,4.172,4.172,0,0,1,1.24-.176,4.172,4.172,0,0,1,1.24.176,2.91,2.91,0,0,1,.968.5,2.257,2.257,0,0,1,.624.776A2.237,2.237,0,0,1,97.856-7.216Zm.752,7.36a6.9,6.9,0,0,0,2.568-.382q.92-.382.92-1.1t-.92-1.106a6.772,6.772,0,0,0-2.568-.39,6.836,6.836,0,0,0-2.576.39q-.928.39-.928,1.106t.928,1.1A6.964,6.964,0,0,0,98.608.144Zm0-4a10.831,10.831,0,0,1,2.008.168,5.584,5.584,0,0,1,1.512.49,2.572,2.572,0,0,1,.952.786,1.82,1.82,0,0,1,.328,1.076,1.82,1.82,0,0,1-.328,1.076,2.507,2.507,0,0,1-.952.779A5.783,5.783,0,0,1,100.616,1a10.831,10.831,0,0,1-2.008.169A10.831,10.831,0,0,1,96.6,1,5.783,5.783,0,0,1,95.088.518a2.507,2.507,0,0,1-.952-.779,1.82,1.82,0,0,1-.328-1.076,1.82,1.82,0,0,1,.328-1.076,2.572,2.572,0,0,1,.952-.786,5.584,5.584,0,0,1,1.512-.49A10.831,10.831,0,0,1,98.608-3.856Zm11.5-5.482a6.362,6.362,0,0,0,.288,1.88,7.908,7.908,0,0,0,.784,1.76,7.32,7.32,0,0,0,1.16,1.472,5.818,5.818,0,0,0,1.416,1.032l-.816,1.04a5.69,5.69,0,0,1-1.1-.76,7.452,7.452,0,0,1-.968-1.032,8.575,8.575,0,0,1-.808-1.256,8.952,8.952,0,0,1-.6-1.416,8.8,8.8,0,0,1-1.408,2.84,6.68,6.68,0,0,1-2.16,1.912l-.784-1.056A5.919,5.919,0,0,0,106.568-4a7.336,7.336,0,0,0,1.176-1.544,8.531,8.531,0,0,0,.784-1.84,6.867,6.867,0,0,0,.288-1.952v-2.576h1.3ZM118.7-6.256h-2.368v7.44h-1.312v-14.32h1.312v5.808H118.7Z" transform="translate(1267 14853)" fill="#414141"/>
    <path id="패스_2526" data-name="패스 2526" d="M8-3.1a1.952,1.952,0,0,0,.384,1.16,3.781,3.781,0,0,0,1.04.96,6.416,6.416,0,0,0,1.528.7,9.627,9.627,0,0,0,1.832.392L12.352,1.12A10.829,10.829,0,0,1,10.736.784,8.076,8.076,0,0,1,9.312.224,6.148,6.148,0,0,1,8.144-.544a3.525,3.525,0,0,1-.816-.976,3.831,3.831,0,0,1-.84.96A6.391,6.391,0,0,1,5.312.208,8.524,8.524,0,0,1,3.888.776a10.256,10.256,0,0,1-1.6.344L1.84.112A8.887,8.887,0,0,0,3.672-.3a7.311,7.311,0,0,0,1.536-.712A3.645,3.645,0,0,0,6.256-1.96,1.929,1.929,0,0,0,6.64-3.1v-.5H8Zm5.888-4.4v1.072h-5.9v2.224H6.672V-6.432H.848V-7.5h9.664a15.62,15.62,0,0,0,.328-2.264q.056-.968.056-1.736H2.512v-1.072h9.68v.944q0,.784-.04,1.784A15.022,15.022,0,0,1,11.839-7.5Zm1.664,2.16a7.17,7.17,0,0,0,1.856-.6A7.761,7.761,0,0,0,19.08-7.008a5.472,5.472,0,0,0,1.208-1.408,3.16,3.16,0,0,0,.464-1.632v-.624H16v-1.072H26.864v1.072H22.112v.624a3.119,3.119,0,0,0,.464,1.624,5.459,5.459,0,0,0,1.216,1.4,7.49,7.49,0,0,0,1.68,1.048,7.518,7.518,0,0,0,1.872.584l-.528,1.056a8.317,8.317,0,0,1-1.632-.5,8.563,8.563,0,0,1-1.536-.84,7.7,7.7,0,0,1-1.3-1.12,5.155,5.155,0,0,1-.912-1.36,5.188,5.188,0,0,1-.912,1.384A7.661,7.661,0,0,1,19.24-5.648a8.54,8.54,0,0,1-1.512.84,7.963,7.963,0,0,1-1.616.5Zm12.4,3.552V-.72H14.928V-1.792Zm1.1-.24H30.64L29.664,1.2H28.48ZM46.336-5.28a8.107,8.107,0,0,1-1.656-.512,9.152,9.152,0,0,1-1.544-.84,7.43,7.43,0,0,1-1.3-1.12,5.355,5.355,0,0,1-.93-1.384,5.462,5.462,0,0,1-.922,1.384,7.449,7.449,0,0,1-1.294,1.128,8.35,8.35,0,0,1-1.552.84,8.6,8.6,0,0,1-1.664.5l-.544-1.088a7.547,7.547,0,0,0,1.9-.592,7.263,7.263,0,0,0,1.7-1.072,5.732,5.732,0,0,0,1.224-1.432,3.216,3.216,0,0,0,.472-1.672v-1.1h1.36v1.1a3.216,3.216,0,0,0,.472,1.672A5.732,5.732,0,0,0,43.28-8.032a7.263,7.263,0,0,0,1.7,1.072,7.547,7.547,0,0,0,1.9.592Zm1.152,3.552V-.656H34.448V-1.728H38V-4.976h1.3v3.248H42.64V-4.976h1.312v3.248ZM60.32-4.368H59.008v-8.784H60.32ZM51.888-6.5q.556-.016,1.144-.04t1.176-.056v-4.272h-2.32Zm5.776.56q-1.088.192-2.248.3t-2.3.16q-1.136.056-2.208.072t-1.984.016L48.8-6.464h.864q.448,0,.928-.016v-4.384H49.184V-11.92h7.7v1.056H55.472v4.192l1.072-.1q.528-.048,1.04-.128ZM55.584.144A6.448,6.448,0,0,0,58.16-.272a1.3,1.3,0,0,0,.928-1.168,1.3,1.3,0,0,0-.928-1.184,6.448,6.448,0,0,0-2.576-.416,6.448,6.448,0,0,0-2.576.416A1.3,1.3,0,0,0,52.08-1.44a1.3,1.3,0,0,0,.928,1.168A6.448,6.448,0,0,0,55.584.144Zm0-4.208a10.382,10.382,0,0,1,2.008.176,5.4,5.4,0,0,1,1.512.512,2.674,2.674,0,0,1,.96.824A1.914,1.914,0,0,1,60.4-1.44a1.877,1.877,0,0,1-.336,1.1A2.71,2.71,0,0,1,59.1.48a5.4,5.4,0,0,1-1.512.512,10.382,10.382,0,0,1-2.008.176A10.382,10.382,0,0,1,53.576.992,5.4,5.4,0,0,1,52.064.48a2.71,2.71,0,0,1-.96-.816,1.877,1.877,0,0,1-.336-1.1A1.914,1.914,0,0,1,51.1-2.552a2.674,2.674,0,0,1,.96-.824,5.4,5.4,0,0,1,1.512-.512A10.382,10.382,0,0,1,55.584-4.064ZM65.52,0h8.864V1.024H64.224V-2.384H72.64v-1.28H64.176v-.992h9.76v3.232H65.52Zm.08-9.344h7.024v-2.3H65.6ZM75.6-6.9V-5.84H62.608V-6.9h5.84V-8.32H64.3v-4.352H73.92V-8.32H69.76V-6.9Zm5.52-1.752a2.621,2.621,0,0,0,.184.987,2.246,2.246,0,0,0,.512.779,2.408,2.408,0,0,0,.776.506,2.537,2.537,0,0,0,.976.185,2.477,2.477,0,0,0,.968-.185,2.431,2.431,0,0,0,.768-.506,2.246,2.246,0,0,0,.512-.779A2.621,2.621,0,0,0,86-8.648a2.621,2.621,0,0,0-.184-.987,2.246,2.246,0,0,0-.512-.779,2.431,2.431,0,0,0-.768-.506,2.477,2.477,0,0,0-.968-.185,2.537,2.537,0,0,0-.976.185,2.408,2.408,0,0,0-.776.506,2.246,2.246,0,0,0-.512.779A2.621,2.621,0,0,0,81.12-8.648Zm5.936-1.208a3.675,3.675,0,0,1,.192,1.2,3.534,3.534,0,0,1-.192,1.184h3.088V-9.856Zm-.544,3.44a3.571,3.571,0,0,1-1.264,1,3.841,3.841,0,0,1-1.68.36A4,4,0,0,1,82.1-5.319a3.5,3.5,0,0,1-1.168-.742A3.415,3.415,0,0,1,80.152-7.2a3.673,3.673,0,0,1-.28-1.445,3.673,3.673,0,0,1,.28-1.445,3.415,3.415,0,0,1,.776-1.141,3.5,3.5,0,0,1,1.168-.742,4,4,0,0,1,1.472-.263,3.827,3.827,0,0,1,1.672.356,3.666,3.666,0,0,1,1.256.972h3.648v-2.24h1.312V-2.56H90.144V-6.416ZM91.856-.208V.864H82.288V-3.648H83.6v3.44Zm9.936-12.576h1.248V.448h-1.248v-4.96H99.2V-5.584h2.592V-8.112H99.424a10.146,10.146,0,0,1-1.7,3.4A11.079,11.079,0,0,1,94.48-1.92l-.768-.928a10.076,10.076,0,0,0,3.5-3.272,9.078,9.078,0,0,0,1.344-4.152H94.352v-1.072h5.5a12.318,12.318,0,0,1-.192,2.176h2.128Zm4.128-.384V1.168h-1.248V-13.168Z" transform="translate(1272 14935)" fill="#414141"/>
    <path id="패스_2488" data-name="패스 2488" d="M4326,11898.707h26.259v-246h25.67" transform="translate(-3638.461 3029.293)" fill="none" stroke="#acacac" stroke-width="1" stroke-dasharray="5"/>
    <path id="패스_2489" data-name="패스 2489" d="M4326,11816.707h26.259v-164h25.67" transform="translate(-3392.461 3029.293)" fill="none" stroke="#acacac" stroke-width="1" stroke-dasharray="5"/>
    <path id="패스_2490" data-name="패스 2490" d="M4326,11898.707h26.259v-246h25.67" transform="translate(-3148.461 3029.293)" fill="none" stroke="#acacac" stroke-width="1" stroke-dasharray="5"/>
    <path id="다각형_27" data-name="다각형 27" d="M6.5,0,13,11H0Z" transform="translate(748 14675) rotate(90)" fill="#acacac"/>
    <path id="패스_2527" data-name="패스 2527" d="M6.5,0,13,11H0Z" transform="translate(992 14675) rotate(90)" fill="#acacac"/>
    <path id="패스_2528" data-name="패스 2528" d="M6.5,0,13,11H0Z" transform="translate(1235 14675) rotate(90)" fill="#acacac"/>
  </g>
</svg>
