<svg xmlns="http://www.w3.org/2000/svg" width="114.72" height="91.86" viewBox="0 0 114.72 91.86">
  <g id="ing_3-3_process_02" transform="translate(-762.78 -14444)">
    <g id="그룹_4431" data-name="그룹 4431" transform="translate(280 -39)">
      <circle id="타원_153" data-name="타원 153" cx="29" cy="29" r="29" transform="translate(511 14483)" fill="#fff" opacity="0.15"/>
      <circle id="타원_152" data-name="타원 152" cx="20" cy="20" r="20" transform="translate(520 14492)" fill="#fff" opacity="0.3"/>
      <circle id="타원_151" data-name="타원 151" cx="8" cy="8" r="8" transform="translate(532 14504)" fill="#fff"/>
    </g>
    <path id="패스_2492" data-name="패스 2492" d="M3.4-4.4h5v-8.94h-5ZM1.78-14.66h8.24V-3.08H1.78ZM17.82-7.92H14.86v9.4H13.22V-16.44h1.64V-9.3h2.96ZM28.62-16h1.52V.56H28.62v-8.6H25.3a12.159,12.159,0,0,1-2.1,3.13,13.656,13.656,0,0,1-3.5,2.67l-.94-1.18a12.752,12.752,0,0,0,3.33-2.5,10.138,10.138,0,0,0,1.93-2.96l-5.04.5-.22-1.4,5.7-.38a11.584,11.584,0,0,0,.31-1.41q.11-.71.15-1.45H19.64v-1.32H26.5a19.749,19.749,0,0,1-.16,2.51,13.978,13.978,0,0,1-.54,2.45h2.82Zm5.28-.48V1.46H32.34V-16.48ZM50.98-5.34H49.34v-11.1h1.64Zm-3.52-1.8q-.98.16-1.92.26t-1.96.16q-1.02.06-2.2.08t-2.64.02H37.28v-8.52h8.56v1.32H38.92v2.26h6.42v1.28H38.92v2.34q1.4,0,2.53-.02t2.11-.07q.98-.05,1.88-.15t1.84-.26ZM45.02.18a8.136,8.136,0,0,0,3.23-.52q1.17-.52,1.17-1.46a1.631,1.631,0,0,0-1.17-1.48,8.136,8.136,0,0,0-3.23-.52,8.06,8.06,0,0,0-3.22.52A1.629,1.629,0,0,0,40.64-1.8,1.619,1.619,0,0,0,41.8-.34,8.06,8.06,0,0,0,45.02.18Zm0-5.26a13.134,13.134,0,0,1,2.52.22,6.752,6.752,0,0,1,1.9.64,3.251,3.251,0,0,1,1.19,1.03,2.434,2.434,0,0,1,.41,1.39,2.434,2.434,0,0,1-.41,1.39A3.17,3.17,0,0,1,49.44.61a6.978,6.978,0,0,1-1.9.63,13.134,13.134,0,0,1-2.52.22,12.977,12.977,0,0,1-2.51-.22A6.981,6.981,0,0,1,40.62.61,3.17,3.17,0,0,1,39.43-.41a2.434,2.434,0,0,1-.41-1.39,2.434,2.434,0,0,1,.41-1.39,3.251,3.251,0,0,1,1.19-1.03,6.753,6.753,0,0,1,1.89-.64A12.977,12.977,0,0,1,45.02-5.08ZM57.58,2.86a20.953,20.953,0,0,1-2.16-4.72,18.058,18.058,0,0,1-.78-5.44,17.987,17.987,0,0,1,.78-5.42,20.953,20.953,0,0,1,2.16-4.72l1.14.52a16.6,16.6,0,0,0-1.94,4.61,20.342,20.342,0,0,0-.62,5.01,20.462,20.462,0,0,0,.62,5.02,16.294,16.294,0,0,0,1.94,4.6ZM67.91-14.42a8.855,8.855,0,0,0-1.856.18,5.2,5.2,0,0,0-1.447.52,2.76,2.76,0,0,0-.938.81,1.82,1.82,0,0,0-.329,1.07,1.865,1.865,0,0,0,.329,1.08,2.712,2.712,0,0,0,.938.82,5.2,5.2,0,0,0,1.447.52,8.855,8.855,0,0,0,1.856.18,9,9,0,0,0,1.866-.18,5.189,5.189,0,0,0,1.457-.52,2.712,2.712,0,0,0,.938-.82,1.865,1.865,0,0,0,.329-1.08,1.82,1.82,0,0,0-.329-1.07,2.76,2.76,0,0,0-.938-.81,5.189,5.189,0,0,0-1.457-.52A9,9,0,0,0,67.91-14.42Zm0,6.5a11.2,11.2,0,0,1-2.554-.27,6.691,6.691,0,0,1-1.983-.78,3.812,3.812,0,0,1-1.282-1.24,3.04,3.04,0,0,1-.451-1.63,2.99,2.99,0,0,1,.451-1.62,3.851,3.851,0,0,1,1.282-1.23,6.691,6.691,0,0,1,1.983-.78,11.2,11.2,0,0,1,2.554-.27,11.335,11.335,0,0,1,2.564.27,6.549,6.549,0,0,1,1.983.78,3.981,3.981,0,0,1,1.282,1.23,2.941,2.941,0,0,1,.461,1.62,2.991,2.991,0,0,1-.461,1.63,3.939,3.939,0,0,1-1.282,1.24,6.549,6.549,0,0,1-1.983.78A11.335,11.335,0,0,1,67.91-7.92ZM76.04-4.9H71.8V1.48H70.16V-4.9H65.64V1.48H64V-4.9H59.82V-6.24H76.04ZM91.86-7.48H79.58v-8.14H91.64v1.32H81.2v2.04H91.22v1.28H81.2V-8.8H91.86Zm1.8,3.18H89.44V1.46H87.8V-4.3H83.28V1.46H81.64V-4.3H77.4V-5.64H93.66Zm17.62,2.06V-.9H95.02V-2.24ZM98.56-15.16v3.28h9.16v-3.28h1.62v9.34H96.94v-9.34Zm0,8h9.16v-3.4H98.56ZM112.42,2.2a16.87,16.87,0,0,0,1.93-4.6,20.154,20.154,0,0,0,.63-5.02,20.037,20.037,0,0,0-.63-5.01,17.2,17.2,0,0,0-1.93-4.61l1.12-.52a20.453,20.453,0,0,1,2.18,4.72,17.987,17.987,0,0,1,.78,5.42,18.058,18.058,0,0,1-.78,5.44,20.453,20.453,0,0,1-2.18,4.72Z" transform="translate(761 14533)" fill="#fff"/>
  </g>
</svg>
