<svg xmlns="http://www.w3.org/2000/svg" width="69.78" height="90.48" viewBox="0 0 69.78 90.48">
  <g id="img_3-3_process_01" transform="translate(-505.84 -14444)">
    <g id="그룹_4429" data-name="그룹 4429" transform="translate(0 -39)">
      <circle id="타원_153" data-name="타원 153" cx="29" cy="29" r="29" transform="translate(511 14483)" fill="#fff" opacity="0.15"/>
      <circle id="타원_152" data-name="타원 152" cx="20" cy="20" r="20" transform="translate(520 14492)" fill="#fff" opacity="0.3"/>
      <circle id="타원_151" data-name="타원 151" cx="8" cy="8" r="8" transform="translate(532 14504)" fill="#fff"/>
    </g>
    <path id="패스_2491" data-name="패스 2491" d="M7.08-11.673a7.952,7.952,0,0,0,.36,2.35,9.885,9.885,0,0,0,.98,2.2,9.15,9.15,0,0,0,1.45,1.84,7.273,7.273,0,0,0,1.77,1.29l-1.02,1.3a7.112,7.112,0,0,1-1.37-.95,9.315,9.315,0,0,1-1.21-1.29A10.719,10.719,0,0,1,7.03-6.5a11.19,11.19,0,0,1-.75-1.77,11,11,0,0,1-1.76,3.55,8.35,8.35,0,0,1-2.7,2.39L.84-3.653A7.4,7.4,0,0,0,2.65-5a9.17,9.17,0,0,0,1.47-1.93,10.664,10.664,0,0,0,.98-2.3,8.584,8.584,0,0,0,.36-2.44v-3.22H7.08ZM17.82-7.82H14.86v9.3H13.22v-17.9h1.64v7.26h2.96ZM31.78-11.5v-4.94h1.64V-3.3H31.78v-6.86h-3.6V-11.5ZM28.4-6a7.349,7.349,0,0,1-2.62-1.61,7.244,7.244,0,0,1-1.7-2.45,7.5,7.5,0,0,1-1.76,2.71A7.584,7.584,0,0,1,19.56-5.6L18.7-6.88a7.175,7.175,0,0,0,1.83-.97,7.217,7.217,0,0,0,1.43-1.38,6.144,6.144,0,0,0,.93-1.67,5.362,5.362,0,0,0,.33-1.86v-.9h-4V-15H28.8v1.34H24.86v.88a4.794,4.794,0,0,0,.32,1.72,5.865,5.865,0,0,0,.89,1.56,6.893,6.893,0,0,0,1.37,1.3,6.821,6.821,0,0,0,1.78.92ZM33.92-.26V1.08H21.96V-4.46H23.6v4.2ZM49.38-12.44v-4h1.64v9.26H49.38v-3.94H45.84v-1.32ZM45.98-7.4a7.217,7.217,0,0,1-2.649-1.48,6.571,6.571,0,0,1-1.7-2.32,7.214,7.214,0,0,1-1.742,2.56A7.356,7.356,0,0,1,37.14-6.98l-.82-1.28a7.365,7.365,0,0,0,1.8-.91,7.137,7.137,0,0,0,1.42-1.29,5.706,5.706,0,0,0,.93-1.55,4.589,4.589,0,0,0,.33-1.71v-.48H36.82v-1.32H46.4v1.32H42.44v.48a4.22,4.22,0,0,0,.31,1.59,5.085,5.085,0,0,0,.88,1.43A6.64,6.64,0,0,0,45-9.51a6.886,6.886,0,0,0,1.76.83ZM51.7-.02V1.26H39.5V-3.22h9.9V-5H39.46V-6.28H51.02v4.3h-9.9V-.02Zm8.16-10.62a7.368,7.368,0,0,0,.32,2.14,8.679,8.679,0,0,0,.89,2,8.034,8.034,0,0,0,1.38,1.7,7,7,0,0,0,1.77,1.22L63.3-2.3a7.36,7.36,0,0,1-2.57-2.1,10.183,10.183,0,0,1-1.67-3.12A10.13,10.13,0,0,1,57.32-4.2a7.906,7.906,0,0,1-2.7,2.22L53.7-3.22a7.367,7.367,0,0,0,1.81-1.26,8.745,8.745,0,0,0,1.44-1.76,8.737,8.737,0,0,0,.95-2.11,7.908,7.908,0,0,0,.34-2.29v-1.4H54.18v-1.32h4.04v-2.78h1.64v2.78h3.98v1.32H59.86ZM70.62-7.72H67.66v9.2H66.02V-16.44h1.64v7.38h2.96Z" transform="translate(505 14533)" fill="#fff"/>
  </g>
</svg>
