<svg xmlns="http://www.w3.org/2000/svg" width="89.24" height="90.48" viewBox="0 0 89.24 90.48">
  <g id="ing_3-3_process_03" transform="translate(-1056.04 -14444)">
    <g id="그룹_4432" data-name="그룹 4432" transform="translate(561 -39)">
      <circle id="타원_153" data-name="타원 153" cx="29" cy="29" r="29" transform="translate(511 14483)" fill="#fff" opacity="0.15"/>
      <circle id="타원_152" data-name="타원 152" cx="20" cy="20" r="20" transform="translate(520 14492)" fill="#fff" opacity="0.3"/>
      <circle id="타원_151" data-name="타원 151" cx="8" cy="8" r="8" transform="translate(532 14504)" fill="#fff"/>
    </g>
    <path id="패스_2493" data-name="패스 2493" d="M9.15-14.68a10.013,10.013,0,0,0-1.864.16,5.839,5.839,0,0,0-1.443.45,2.593,2.593,0,0,0-.932.71,1.509,1.509,0,0,0-.331.96,1.481,1.481,0,0,0,.331.94,2.593,2.593,0,0,0,.932.71,5.838,5.838,0,0,0,1.443.45,10.013,10.013,0,0,0,1.864.16,10.133,10.133,0,0,0,1.884-.16,5.841,5.841,0,0,0,1.443-.45,2.494,2.494,0,0,0,.922-.71,1.511,1.511,0,0,0,.321-.94,1.54,1.54,0,0,0-.321-.96,2.494,2.494,0,0,0-.922-.71,5.841,5.841,0,0,0-1.443-.45A10.133,10.133,0,0,0,9.15-14.68Zm0,5.88a12.236,12.236,0,0,1-2.576-.25A6.873,6.873,0,0,1,4.6-9.77,3.762,3.762,0,0,1,3.329-10.9a2.6,2.6,0,0,1-.449-1.5,2.6,2.6,0,0,1,.449-1.5A3.762,3.762,0,0,1,4.6-15.03a6.873,6.873,0,0,1,1.977-.72A12.236,12.236,0,0,1,9.15-16a12.236,12.236,0,0,1,2.576.25,6.873,6.873,0,0,1,1.977.72,3.762,3.762,0,0,1,1.268,1.13,2.6,2.6,0,0,1,.449,1.5,2.6,2.6,0,0,1-.449,1.5A3.762,3.762,0,0,1,13.7-9.77a6.873,6.873,0,0,1-1.977.72A12.236,12.236,0,0,1,9.15-8.8ZM4.76-.26H15.5V1.08H3.12V-4.14H4.76Zm12.52-7.1v1.34H10.12V-2.4H8.48V-6.02H1.04V-7.36Zm3.22-3.78a2.837,2.837,0,0,0,.23,1.16,2.815,2.815,0,0,0,.64.91,2.832,2.832,0,0,0,.97.6,3.448,3.448,0,0,0,1.22.21,3.448,3.448,0,0,0,1.22-.21,2.728,2.728,0,0,0,.96-.6,2.892,2.892,0,0,0,.63-.91,2.837,2.837,0,0,0,.23-1.16,2.857,2.857,0,0,0-.23-1.15,2.748,2.748,0,0,0-.63-.91,2.8,2.8,0,0,0-.96-.59A3.448,3.448,0,0,0,23.56-14a3.448,3.448,0,0,0-1.22.21,2.915,2.915,0,0,0-.97.59,2.679,2.679,0,0,0-.64.91A2.857,2.857,0,0,0,20.5-11.14Zm7.44-1.4a4.4,4.4,0,0,1,.22,1.4,4.065,4.065,0,0,1-.24,1.4h3.86v-2.8ZM27.18-8.4a4.3,4.3,0,0,1-1.55,1.145,5.021,5.021,0,0,1-2.07.415,5.348,5.348,0,0,1-1.85-.311,4.234,4.234,0,0,1-1.46-.882A4.135,4.135,0,0,1,19.29-9.4a4.242,4.242,0,0,1-.35-1.734,4.172,4.172,0,0,1,.35-1.724,4.053,4.053,0,0,1,.96-1.343,4.317,4.317,0,0,1,1.46-.872,5.348,5.348,0,0,1,1.85-.311,5.187,5.187,0,0,1,2.07.4,4.311,4.311,0,0,1,1.55,1.1h4.6v-2.58h1.64V-5.84H31.78V-8.4ZM27.5.18a7.515,7.515,0,0,0,3.22-.563A1.741,1.741,0,0,0,31.88-1.97a1.76,1.76,0,0,0-1.16-1.6A7.4,7.4,0,0,0,27.5-4.14a7.274,7.274,0,0,0-3.19.573,1.759,1.759,0,0,0-1.15,1.6A1.74,1.74,0,0,0,24.31-.383,7.387,7.387,0,0,0,27.5.18Zm-.01-5.6a12.277,12.277,0,0,1,2.486.23,6.519,6.519,0,0,1,1.887.67,3.386,3.386,0,0,1,1.2,1.08,2.6,2.6,0,0,1,.419,1.46,2.6,2.6,0,0,1-.419,1.46,3.386,3.386,0,0,1-1.2,1.08,6.519,6.519,0,0,1-1.887.67,12.277,12.277,0,0,1-2.486.23,12.129,12.129,0,0,1-2.476-.23A6.522,6.522,0,0,1,23.137.56,3.3,3.3,0,0,1,21.949-.52a2.651,2.651,0,0,1-.409-1.46,2.651,2.651,0,0,1,.409-1.46,3.3,3.3,0,0,1,1.188-1.08,6.522,6.522,0,0,1,1.877-.67A12.129,12.129,0,0,1,27.49-5.42Zm14.79-6.253a7.952,7.952,0,0,0,.36,2.35,9.886,9.886,0,0,0,.98,2.2,9.15,9.15,0,0,0,1.45,1.84,7.273,7.273,0,0,0,1.77,1.29l-1.02,1.3a7.112,7.112,0,0,1-1.37-.95,9.315,9.315,0,0,1-1.21-1.29A10.719,10.719,0,0,1,42.23-6.5a11.19,11.19,0,0,1-.75-1.77,11,11,0,0,1-1.76,3.55,8.35,8.35,0,0,1-2.7,2.39l-.98-1.32A7.4,7.4,0,0,0,37.85-5a9.17,9.17,0,0,0,1.47-1.93,10.664,10.664,0,0,0,.98-2.3,8.584,8.584,0,0,0,.36-2.44v-3.22h1.62ZM53.02-7.82H50.06v9.3H48.42v-17.9h1.64v7.26h2.96Zm17.64-2.92v-5.7H72.3v13.3H70.66V-9.4H66.74v-1.34Zm-3.88-4.28a11.18,11.18,0,0,1-.461,3.26,8.721,8.721,0,0,1-1.433,2.79,10.074,10.074,0,0,1-2.512,2.28,15.9,15.9,0,0,1-3.7,1.73l-.68-1.32a13.547,13.547,0,0,0,3.75-1.76,8.359,8.359,0,0,0,2.29-2.34l-5.84.44-.3-1.34,6.743-.3a8.466,8.466,0,0,0,.442-2.1H58.82v-1.34ZM72.84-.26V1.08H61.04V-4.46h1.64v4.2ZM83.7-7.02q-.78.16-1.51.26t-1.51.15q-.78.05-1.66.07t-1.96.02H75.92v-8.62h6.92v1.32H77.5v2.24h5.14v1.28H77.5v2.44q.96,0,1.76-.02t1.52-.08q.72-.06,1.39-.15t1.37-.23ZM78.22-4.64H90.28V1.48H88.64v-4.8H78.22Zm12.06-11.8V-5.58H88.7v-4.86H86.3V-5.7H84.74V-16.12H86.3v4.34h2.4v-4.66Z" transform="translate(1055 14533)" fill="#fff"/>
  </g>
</svg>
