<svg xmlns="http://www.w3.org/2000/svg" xmlns:xlink="http://www.w3.org/1999/xlink" width="234" height="208" viewBox="0 0 234 208">
  <defs>
    <filter id="사각형_1438" x="0" y="0" width="234" height="208" filterUnits="userSpaceOnUse">
      <feOffset dy="5" input="SourceAlpha"/>
      <feGaussianBlur stdDeviation="9" result="blur"/>
      <feFlood flood-color="#97a9ce" flood-opacity="0.239"/>
      <feComposite operator="in" in2="blur"/>
      <feComposite in="SourceGraphic"/>
    </filter>
  </defs>
  <g id="img_2-4_case-b" transform="translate(-839 -10266)">
    <g transform="matrix(1, 0, 0, 1, 839, 10266)" filter="url(#사각형_1438)">
      <g id="사각형_1438-2" data-name="사각형 1438" transform="translate(27 22)" fill="#fff" stroke="#97a9ce" stroke-width="1">
        <rect width="180" height="154" rx="16" stroke="none"/>
        <rect x="0.5" y="0.5" width="179" height="153" rx="15.5" fill="none"/>
      </g>
    </g>
    <rect id="사각형_1441" data-name="사각형 1441" width="140" height="40" rx="20" transform="translate(886 10268)" fill="#00b9ff"/>
    <path id="매수매도" d="M3.82-4.94H6.2v-7.8H3.82ZM1.38-14.82H8.64V-2.88H1.38Zm15.26-1.9V1.7H14.16V-7.56H12.6V.88H10.16v-17.3H12.6v6.74h1.56v-7.04ZM33.52-8.04a10.693,10.693,0,0,1-4.11-1.41A7.651,7.651,0,0,1,26.82-12a7.624,7.624,0,0,1-2.6,2.55A10.783,10.783,0,0,1,20.1-8.04l-1-2.12a10.4,10.4,0,0,0,2.76-.74,7.362,7.362,0,0,0,1.97-1.23,4.945,4.945,0,0,0,1.18-1.52,3.726,3.726,0,0,0,.39-1.63v-.88h2.82v.88a3.674,3.674,0,0,0,.4,1.62,5.044,5.044,0,0,0,1.19,1.53,7.362,7.362,0,0,0,1.97,1.23,10.384,10.384,0,0,0,2.74.74Zm1.62,3.5H28.08V1.74H25.42V-4.54H18.48V-6.68H35.14Zm3.88-.4H41.4v-7.8H39.02Zm-2.44-9.88h7.26V-2.88H36.58Zm15.26-1.9V1.7H49.36V-7.56H47.8V.88H45.36v-17.3H47.8v6.74h1.56v-7.04Zm18.5,14.2V-.36H53.66V-2.52h7V-6.36H55.6v-9.08H68.44v2.12H58.28v4.84H68.56v2.12H63.3v3.84Z" transform="translate(920.4 10340)" fill="#1382ce"/>
    <text id="Case_B" data-name="Case B" transform="translate(928.968 10295)" fill="#fff" font-size="16" font-family="SpoqaHanSans-Regular, SpoqaHanSans" letter-spacing="0.05em"><tspan x="0" y="0">Case </tspan><tspan y="0" font-family="SpoqaHanSans-Bold, SpoqaHanSans" font-weight="700">B</tspan></text>
    <g id="그룹">
      <path id="패스_2203" data-name="패스 2203" d="M12.608-4.864a8.75,8.75,0,0,1-1.624-.56,7.879,7.879,0,0,1-1.512-.9A8.242,8.242,0,0,1,8.194-7.536a5.5,5.5,0,0,1-.906-1.472,5.589,5.589,0,0,1-.906,1.456A8.242,8.242,0,0,1,5.1-6.344a8.314,8.314,0,0,1-1.5.912,8.221,8.221,0,0,1-1.616.568L1.392-5.952a7.358,7.358,0,0,0,1.872-.664A7.511,7.511,0,0,0,4.936-7.768,5.9,5.9,0,0,0,6.144-9.3a3.62,3.62,0,0,0,.464-1.76v-1.1h1.36v1.1A3.62,3.62,0,0,0,8.432-9.3,5.9,5.9,0,0,0,9.64-7.768a7.648,7.648,0,0,0,1.68,1.16,6.876,6.876,0,0,0,1.88.656Zm1.248,3.056V-.736H.848V-1.808ZM16.72-3.344q.752,0,1.384-.016t1.2-.056q.568-.04,1.1-.112t1.1-.184l.112,1.072q-.608.128-1.184.2t-1.192.1q-.616.032-1.312.048t-1.544.016h-.928v-9.184H20.8v1.072H16.72v2.832h3.408v1.024H16.72Zm6.256-9.472h1.216V.448H22.976v-7.1H20.9V-7.728h2.08Zm4.128-.368V1.168H25.856V-13.184Zm13.648.016V1.216H39.44V-13.168Zm-7.568,1.1a3.124,3.124,0,0,1,1.472.352A3.342,3.342,0,0,1,35.808-10.7a5.087,5.087,0,0,1,.752,1.576,7.3,7.3,0,0,1,.272,2.072,7.3,7.3,0,0,1-.272,2.072,5.087,5.087,0,0,1-.752,1.576A3.342,3.342,0,0,1,34.656-2.4a3.124,3.124,0,0,1-1.472.352A3.124,3.124,0,0,1,31.712-2.4,3.342,3.342,0,0,1,30.56-3.408a5.087,5.087,0,0,1-.752-1.576,7.3,7.3,0,0,1-.272-2.072,7.3,7.3,0,0,1,.272-2.072A5.087,5.087,0,0,1,30.56-10.7a3.342,3.342,0,0,1,1.152-1.008A3.124,3.124,0,0,1,33.184-12.064Zm0,1.184a1.808,1.808,0,0,0-.968.271,2.428,2.428,0,0,0-.76.766,3.964,3.964,0,0,0-.5,1.206,6.542,6.542,0,0,0-.176,1.573,6.517,6.517,0,0,0,.176,1.581,4.08,4.08,0,0,0,.5,1.206,2.4,2.4,0,0,0,.76.774,1.808,1.808,0,0,0,.968.271,1.768,1.768,0,0,0,.96-.271,2.437,2.437,0,0,0,.752-.774,4.08,4.08,0,0,0,.5-1.206,6.516,6.516,0,0,0,.176-1.581,6.542,6.542,0,0,0-.176-1.573,3.964,3.964,0,0,0-.5-1.206,2.463,2.463,0,0,0-.752-.766A1.768,1.768,0,0,0,33.184-10.88Zm21.68,6.352H53.552v-8.64h1.312ZM50.64-12.192a7.269,7.269,0,0,1-1.6,4.736A9.859,9.859,0,0,1,44-4.48l-.5-1.04A10.956,10.956,0,0,0,46.52-6.808,6.568,6.568,0,0,0,48.384-8.56l-4.768.352L43.392-9.3l5.52-.24a5.79,5.79,0,0,0,.368-1.6H44.112v-1.056ZM50.128.144a5.9,5.9,0,0,0,2.56-.456,1.4,1.4,0,0,0,.928-1.272,1.387,1.387,0,0,0-.928-1.264,5.99,5.99,0,0,0-2.56-.448,6.093,6.093,0,0,0-2.584.448,1.388,1.388,0,0,0-.936,1.264,1.4,1.4,0,0,0,.936,1.272A6,6,0,0,0,50.128.144Zm0-4.464a9.854,9.854,0,0,1,1.992.184,5.231,5.231,0,0,1,1.512.536,2.711,2.711,0,0,1,.96.864,2.053,2.053,0,0,1,.336,1.152,2.081,2.081,0,0,1-.336,1.168,2.711,2.711,0,0,1-.96.864A5.231,5.231,0,0,1,52.12.984a9.854,9.854,0,0,1-1.992.184A10.064,10.064,0,0,1,48.112.984a5.23,5.23,0,0,1-1.52-.536,2.711,2.711,0,0,1-.96-.864A2.081,2.081,0,0,1,45.3-1.584a2.053,2.053,0,0,1,.336-1.152,2.711,2.711,0,0,1,.96-.864,5.23,5.23,0,0,1,1.52-.536A10.064,10.064,0,0,1,50.128-4.32ZM62.912-6.256h7.344v-4.688H62.912ZM73.1-1.728V-.656H60.112V-1.728h5.824v-3.5H61.648v-6.736h9.9v6.736h-4.3v3.5ZM85.7-5.216H75.84V-11.84h9.712v1.072H77.136v4.48H85.7Zm1.5,3.392V-.752H74.176V-1.824ZM91.528-3.2a1.513,1.513,0,0,0,1.346-1.012,6.347,6.347,0,0,0,.5-2.78,8.135,8.135,0,0,0-.135-1.553,4.739,4.739,0,0,0-.374-1.179,2.077,2.077,0,0,0-.582-.749,1.214,1.214,0,0,0-.757-.263,1.521,1.521,0,0,0-1.362,1.012,6.212,6.212,0,0,0-.5,2.732,6.347,6.347,0,0,0,.5,2.78A1.521,1.521,0,0,0,91.528-3.2Zm4.84-9.648h1.248V.48H96.368V-6.512H94.56a8.606,8.606,0,0,1-.28,1.9,4.982,4.982,0,0,1-.624,1.432,2.793,2.793,0,0,1-.936.9,2.369,2.369,0,0,1-1.2.312,2.366,2.366,0,0,1-1.272-.352,3,3,0,0,1-.968-1A5.255,5.255,0,0,1,88.664-4.9a9.276,9.276,0,0,1-.216-2.1,9.091,9.091,0,0,1,.216-2.072,5.26,5.26,0,0,1,.616-1.568,2.926,2.926,0,0,1,.968-.992,2.407,2.407,0,0,1,1.272-.344,2.343,2.343,0,0,1,1.176.3,2.82,2.82,0,0,1,.928.872,4.813,4.813,0,0,1,.632,1.384,8.344,8.344,0,0,1,.3,1.824h1.808Zm4.1-.32V1.184H99.216V-13.168Zm6.912,3.808a6.624,6.624,0,0,0,.288,1.928,7.77,7.77,0,0,0,.792,1.784,7.293,7.293,0,0,0,1.176,1.48,5.4,5.4,0,0,0,1.456,1.016l-.768,1.04a5.908,5.908,0,0,1-1.16-.768,6.771,6.771,0,0,1-1.008-1.056,9.214,9.214,0,0,1-.824-1.28,8.572,8.572,0,0,1-.608-1.44,9.78,9.78,0,0,1-.6,1.528,8.834,8.834,0,0,1-.816,1.344,7.694,7.694,0,0,1-1,1.112,5.538,5.538,0,0,1-1.152.816l-.8-1.04a5.288,5.288,0,0,0,1.456-1.072,7.923,7.923,0,0,0,1.176-1.552,8.21,8.21,0,0,0,.792-1.856,7.086,7.086,0,0,0,.288-1.984v-2.576h1.312Zm6.8-3.808V1.2h-1.312V-7.232h-3.328V-8.3h3.328v-4.864Zm13.76,5.392h-9.76V-12.64h1.312v3.792h8.448ZM119.392-.24h8.624V.832H118.08V-3.36h1.312Zm10.032-5.616V-4.8H116.416V-5.856Z" transform="translate(890.848 10372)" fill="#333"/>
      <path id="패스_2204" data-name="패스 2204" d="M5.968-8.784a5.594,5.594,0,0,0,.3,1.808A7.07,7.07,0,0,0,7.1-5.3,7.011,7.011,0,0,0,8.312-3.92a5.514,5.514,0,0,0,1.5.944L9.072-1.92A5.947,5.947,0,0,1,7.88-2.656,7.837,7.837,0,0,1,6.824-3.664,7.633,7.633,0,0,1,5.952-4.9,8.381,8.381,0,0,1,5.312-6.3a8.435,8.435,0,0,1-.624,1.5,9.249,9.249,0,0,1-.864,1.336,7.9,7.9,0,0,1-1.04,1.1,5.575,5.575,0,0,1-1.168.792L.848-2.624A5.786,5.786,0,0,0,2.312-3.648,7.486,7.486,0,0,0,3.528-5.136a7.915,7.915,0,0,0,.824-1.776,6.08,6.08,0,0,0,.3-1.872v-1.824H1.328V-11.68H9.344v1.072H5.968Zm6.624-4.368V1.184H11.28V-13.152Zm9.6.848a6.48,6.48,0,0,1-.464,2.488A6.31,6.31,0,0,1,20.4-7.8a8.12,8.12,0,0,1-2.12,1.536,12.7,12.7,0,0,1-2.84,1.032l-.5-1.072A9.8,9.8,0,0,0,19.1-8.216a4.487,4.487,0,0,0,1.656-3.016H15.6V-12.3ZM24.752-1.92H18.288V-.064h6.464Zm0-2.832h1.312V.992H16.992V-4.752h1.3v1.808h6.464Zm3.44-3.936H26.064v3.28H24.752v-7.744h1.312V-9.76h2.128Zm12.56-4.48V1.216H39.44V-13.168Zm-7.568,1.1a3.124,3.124,0,0,1,1.472.352A3.342,3.342,0,0,1,35.808-10.7a5.087,5.087,0,0,1,.752,1.576,7.3,7.3,0,0,1,.272,2.072,7.3,7.3,0,0,1-.272,2.072,5.087,5.087,0,0,1-.752,1.576A3.342,3.342,0,0,1,34.656-2.4a3.124,3.124,0,0,1-1.472.352A3.124,3.124,0,0,1,31.712-2.4,3.342,3.342,0,0,1,30.56-3.408a5.087,5.087,0,0,1-.752-1.576,7.3,7.3,0,0,1-.272-2.072,7.3,7.3,0,0,1,.272-2.072A5.087,5.087,0,0,1,30.56-10.7a3.342,3.342,0,0,1,1.152-1.008A3.124,3.124,0,0,1,33.184-12.064Zm0,1.184a1.808,1.808,0,0,0-.968.271,2.428,2.428,0,0,0-.76.766,3.964,3.964,0,0,0-.5,1.206,6.542,6.542,0,0,0-.176,1.573,6.517,6.517,0,0,0,.176,1.581,4.08,4.08,0,0,0,.5,1.206,2.4,2.4,0,0,0,.76.774,1.808,1.808,0,0,0,.968.271,1.768,1.768,0,0,0,.96-.271,2.437,2.437,0,0,0,.752-.774,4.08,4.08,0,0,0,.5-1.206,6.516,6.516,0,0,0,.176-1.581,6.542,6.542,0,0,0-.176-1.573,3.964,3.964,0,0,0-.5-1.206,2.463,2.463,0,0,0-.752-.766A1.768,1.768,0,0,0,33.184-10.88ZM49.576.16a6.931,6.931,0,0,0,2.638-.4,1.277,1.277,0,0,0,.938-1.168,1.277,1.277,0,0,0-.938-1.168,6.931,6.931,0,0,0-2.638-.4,7.05,7.05,0,0,0-2.662.4q-.946.4-.946,1.168T46.914-.24A7.05,7.05,0,0,0,49.576.16Zm0-4.16a11.324,11.324,0,0,1,2.045.168,5.341,5.341,0,0,1,1.542.5,2.691,2.691,0,0,1,.966.816,1.879,1.879,0,0,1,.335,1.1,1.879,1.879,0,0,1-.335,1.1,2.691,2.691,0,0,1-.966.816,5.341,5.341,0,0,1-1.542.5,11.324,11.324,0,0,1-2.045.168,8.009,8.009,0,0,1-3.61-.672,2.091,2.091,0,0,1-1.31-1.92,2.091,2.091,0,0,1,1.31-1.92A8.009,8.009,0,0,1,49.576-4Zm6.5-2.08v1.056H43.088V-6.08h5.84V-7.744H44.72v-4.768h9.728v1.056H46.016V-8.8h8.528v1.056h-4.3V-6.08ZM71.872-4.928H70.56v-8.24h1.312ZM66.288-11.2H62.16v3.776h4.128Zm1.3,4.832h-6.72v-5.856h6.72Zm.4,3.424a1.649,1.649,0,0,0,.392,1.016,4.066,4.066,0,0,0,1.048.92,7.571,7.571,0,0,0,1.5.72A8.133,8.133,0,0,0,72.7.128l-.448,1.008A9.312,9.312,0,0,1,70.688.784,8.64,8.64,0,0,1,69.3.208,5.9,5.9,0,0,1,68.16-.56a4.061,4.061,0,0,1-.8-.928,3.963,3.963,0,0,1-.84.944,6.391,6.391,0,0,1-1.176.768,8.618,8.618,0,0,1-1.416.568,10.09,10.09,0,0,1-1.576.344L61.917.128a8.9,8.9,0,0,0,1.763-.4,7.116,7.116,0,0,0,1.516-.7A4.066,4.066,0,0,0,66.257-1.9a1.683,1.683,0,0,0,.4-1.04H62.464V-3.968h4.208V-5.36h1.312v1.392h4.208v1.024ZM84.3-11.616a12.951,12.951,0,0,1-.336,2.968,9.429,9.429,0,0,1-1.1,2.712,10.532,10.532,0,0,1-2,2.392A13.1,13.1,0,0,1,77.84-1.552l-.72-1.024a13.043,13.043,0,0,0,2.5-1.568,9.635,9.635,0,0,0,1.784-1.872,8.182,8.182,0,0,0,1.1-2.144,9.777,9.777,0,0,0,.48-2.4H77.76v-1.056Zm4.64-1.536V1.184H87.632v-7.52h-3.36V-7.408h3.36v-5.744ZM92.96-3.328q1.232-.016,2.408-.088a23.171,23.171,0,0,0,2.552-.312l.1,1.078a24.922,24.922,0,0,1-2.768.323q-1.28.071-2.608.071H91.7V-7.632H95.76v-2.9H91.648V-11.6h5.408v5.04h-4.1Zm10.448-9.84V1.168h-1.264v-7.6H100.1V.448H98.88v-13.3H100.1V-7.5h2.048v-5.664Zm13.712,8.1a8.459,8.459,0,0,1-1.632-.536,8.454,8.454,0,0,1-1.528-.872,7.657,7.657,0,0,1-1.288-1.168,5.836,5.836,0,0,1-.928-1.424,5.963,5.963,0,0,1-.92,1.424,7.266,7.266,0,0,1-1.288,1.168,8.834,8.834,0,0,1-1.528.872,8.185,8.185,0,0,1-1.64.536l-.544-1.088a6.774,6.774,0,0,0,1.88-.624,7.688,7.688,0,0,0,1.68-1.12,5.687,5.687,0,0,0,1.208-1.48,3.458,3.458,0,0,0,.464-1.72v-1.1h1.376v1.1a3.458,3.458,0,0,0,.464,1.72,5.613,5.613,0,0,0,1.216,1.48,7.872,7.872,0,0,0,1.688,1.12,6.774,6.774,0,0,0,1.88.624Zm1.2,3.312V-.688H105.3V-1.76h5.792V-5.248H112.4V-1.76Zm4.312-1.44a1.513,1.513,0,0,0,1.346-1.012,6.347,6.347,0,0,0,.5-2.78,8.135,8.135,0,0,0-.135-1.553,4.739,4.739,0,0,0-.374-1.179,2.077,2.077,0,0,0-.582-.749,1.214,1.214,0,0,0-.757-.263,1.521,1.521,0,0,0-1.362,1.012,6.212,6.212,0,0,0-.5,2.732,6.347,6.347,0,0,0,.5,2.78A1.521,1.521,0,0,0,122.632-3.2Zm4.84-9.648h1.248V.48h-1.248V-6.512h-1.808a8.606,8.606,0,0,1-.28,1.9,4.982,4.982,0,0,1-.624,1.432,2.793,2.793,0,0,1-.936.9,2.369,2.369,0,0,1-1.2.312,2.366,2.366,0,0,1-1.272-.352,3,3,0,0,1-.968-1,5.255,5.255,0,0,1-.616-1.576,9.276,9.276,0,0,1-.216-2.1,9.091,9.091,0,0,1,.216-2.072,5.26,5.26,0,0,1,.616-1.568,2.926,2.926,0,0,1,.968-.992,2.407,2.407,0,0,1,1.272-.344,2.343,2.343,0,0,1,1.176.3,2.82,2.82,0,0,1,.928.872,4.813,4.813,0,0,1,.632,1.384,8.344,8.344,0,0,1,.3,1.824h1.808Zm4.1-.32V1.184H130.32V-13.168ZM138.48-9.36a6.624,6.624,0,0,0,.288,1.928,7.771,7.771,0,0,0,.792,1.784,7.292,7.292,0,0,0,1.176,1.48,5.4,5.4,0,0,0,1.456,1.016l-.768,1.04a5.908,5.908,0,0,1-1.16-.768,6.771,6.771,0,0,1-1.008-1.056,9.213,9.213,0,0,1-.824-1.28,8.57,8.57,0,0,1-.608-1.44,9.779,9.779,0,0,1-.6,1.528,8.834,8.834,0,0,1-.816,1.344,7.7,7.7,0,0,1-1,1.112,5.538,5.538,0,0,1-1.152.816l-.8-1.04a5.288,5.288,0,0,0,1.456-1.072,7.922,7.922,0,0,0,1.176-1.552,8.211,8.211,0,0,0,.792-1.856,7.086,7.086,0,0,0,.288-1.984v-2.576h1.312Zm6.8-3.808V1.2h-1.312V-7.232H140.64V-8.3h3.328v-4.864Z" transform="translate(882.336 10394)" fill="#333"/>
      <path id="패스_2205" data-name="패스 2205" d="M8.016-11.616A12.951,12.951,0,0,1,7.68-8.648a9.429,9.429,0,0,1-1.1,2.712,10.532,10.532,0,0,1-2,2.392A13.1,13.1,0,0,1,1.552-1.552L.832-2.576a13.043,13.043,0,0,0,2.5-1.568A9.635,9.635,0,0,0,5.12-6.016a8.182,8.182,0,0,0,1.1-2.144,9.777,9.777,0,0,0,.48-2.4H1.472v-1.056Zm4.64-1.536V1.184H11.344v-7.52H7.984V-7.408h3.36v-5.744Zm4.016,9.824q1.232-.016,2.408-.088a23.171,23.171,0,0,0,2.552-.312l.1,1.078a24.922,24.922,0,0,1-2.768.323q-1.28.071-2.608.071h-.944V-7.632h4.064v-2.9H15.36V-11.6h5.408v5.04h-4.1Zm10.448-9.84V1.168H25.856v-7.6H23.808V.448H22.592v-13.3h1.216V-7.5h2.048v-5.664Zm14.816,2.576H34.96v1.36h6.976Zm1.3,2.384H33.664v-4.736h1.3v1.36h6.976v-1.36h1.3ZM39.088-5.984v1.408h4.176v3.2H34.848V.016h8.864V1.04H33.552V-2.336h8.416V-3.584H33.5v-.992h4.272V-5.984h-5.84V-7.04H44.928v1.056ZM53.36-11.632a11.907,11.907,0,0,1-.368,2.96A10.086,10.086,0,0,1,51.84-5.936a10.734,10.734,0,0,1-2.016,2.408,13.066,13.066,0,0,1-2.976,1.976l-.72-1.024a11.523,11.523,0,0,0,4.24-3.408,8.93,8.93,0,0,0,1.7-4.576H46.8v-1.072Zm6.016,5.376h-2.3v7.44H55.76V-13.152h1.312v5.824h2.3ZM71.6-8.112H61.872v-4.752h1.312v3.7H71.6ZM66.584.112A6.752,6.752,0,0,0,69.23-.3q.946-.416.946-1.168a1.307,1.307,0,0,0-.946-1.184,8.622,8.622,0,0,0-5.292,0,1.307,1.307,0,0,0-.946,1.184q0,.752.946,1.168A6.752,6.752,0,0,0,66.584.112Zm0-4.208a10.791,10.791,0,0,1,2.053.176,5.622,5.622,0,0,1,1.541.512,2.642,2.642,0,0,1,.974.824,1.916,1.916,0,0,1,.336,1.112A1.916,1.916,0,0,1,71.152-.36a2.577,2.577,0,0,1-.974.816,5.813,5.813,0,0,1-1.541.5,10.791,10.791,0,0,1-2.053.176A10.791,10.791,0,0,1,64.531.96a5.813,5.813,0,0,1-1.541-.5,2.577,2.577,0,0,1-.974-.816,1.916,1.916,0,0,1-.335-1.112,1.916,1.916,0,0,1,.335-1.112,2.642,2.642,0,0,1,.974-.824,5.622,5.622,0,0,1,1.541-.512A10.791,10.791,0,0,1,66.584-4.1ZM73.1-6.448v1.072H60.128V-6.448Z" transform="translate(919.008 10416)" fill="#333"/>
    </g>
  </g>
</svg>
