<svg xmlns="http://www.w3.org/2000/svg" xmlns:xlink="http://www.w3.org/1999/xlink" width="889.874" height="319" viewBox="0 0 889.874 319">
  <defs>
    <linearGradient id="linear-gradient" x1="0.5" x2="0.5" y2="1" gradientUnits="objectBoundingBox">
      <stop offset="0" stop-color="#00b9ff"/>
      <stop offset="1" stop-color="#1572de"/>
    </linearGradient>
    <linearGradient id="linear-gradient-4" x1="0.5" x2="0.5" y2="1" gradientUnits="objectBoundingBox">
      <stop offset="0" stop-color="#fff" stop-opacity="0"/>
      <stop offset="1" stop-color="#fff" stop-opacity="0.322"/>
    </linearGradient>
  </defs>
  <g id="img_3-4_circle" transform="translate(-529 -16654)">
    <ellipse id="타원_157" data-name="타원 157" cx="90.5" cy="15.5" rx="90.5" ry="15.5" transform="translate(590 16942)" fill="#efefef"/>
    <circle id="타원_156" data-name="타원 156" cx="151.5" cy="151.5" r="151.5" transform="translate(529 16654)" fill="url(#linear-gradient)"/>
    <circle id="타원_159" data-name="타원 159" cx="7" cy="7" r="7" transform="translate(982 16713)" fill="url(#linear-gradient)"/>
    <circle id="타원_160" data-name="타원 160" cx="7" cy="7" r="7" transform="translate(982 16859)" fill="url(#linear-gradient)"/>
    <g id="타원_158" data-name="타원 158" transform="translate(589 16772)" stroke="#8ee0ff" stroke-width="1" stroke-dasharray="5" fill="url(#linear-gradient-4)">
      <circle cx="91.5" cy="91.5" r="91.5" stroke="none"/>
      <circle cx="91.5" cy="91.5" r="91" fill="none"/>
    </g>
    <text id="_32조" data-name="32조" transform="translate(640 16736)" fill="#fff" font-size="40" font-family="SpoqaHanSans-Bold, SpoqaHanSans" font-weight="700" letter-spacing="-0.04em"><tspan x="0" y="0">32</tspan><tspan y="0" font-family="SpoqaHanSans-Light, SpoqaHanSans" font-weight="300">조</tspan></text>
    <path id="패스_2502" data-name="패스 2502" d="M7.689-.066H25.971V2.046H5.016V-5.577H22.539V-8.844H4.917v-2.112H25.245v7.425H7.689ZM28.611-16.137v2.178H1.749v-2.178H21.78a30.912,30.912,0,0,0,.594-4.29q.1-1.815.1-3.3H5.181v-2.178H25.146v1.881q0,1.518-.082,3.448a29.839,29.839,0,0,1-.577,4.439ZM57.618-3.432v2.211H30.756V-3.432H42.8V-9.009H34.122V-18.15H51.678v-4.62H34.056v-2.211h20.3v9.009H36.8v4.785H54.978v2.178H45.507v5.577ZM71.973-19.47H63.987v4.422h7.986Zm2.673,6.534H61.314v-12.87h2.673v4.224h7.986v-4.224h2.673v5.28h6.831v-6.6h2.706v15.378H81.477v-6.6H74.646ZM85.305-.066V2.046H65.175V-5.28H81.51v-2.9h-16.4V-10.3H84.183v7.029H67.848v3.2Zm33.924-5.445h-2.706V-27.126h2.706ZM98.307-17.82a5.263,5.263,0,0,0,.378,2.013,4.652,4.652,0,0,0,1.053,1.584,4.735,4.735,0,0,0,1.6,1.023,5.423,5.423,0,0,0,2.006.363,5.555,5.555,0,0,0,2.023-.363,4.876,4.876,0,0,0,1.628-1.023,4.54,4.54,0,0,0,1.069-1.584,5.263,5.263,0,0,0,.378-2.013,5.018,5.018,0,0,0-.378-1.98,4.616,4.616,0,0,0-1.069-1.551,4.876,4.876,0,0,0-1.628-1.023,5.555,5.555,0,0,0-2.023-.363,5.423,5.423,0,0,0-2.006.363,4.735,4.735,0,0,0-1.6,1.023A4.734,4.734,0,0,0,98.685-19.8,5.018,5.018,0,0,0,98.307-17.82Zm12.8,0a7.178,7.178,0,0,1-.6,2.954,7.052,7.052,0,0,1-1.637,2.31,7.484,7.484,0,0,1-2.464,1.518,8.528,8.528,0,0,1-3.075.545,8.4,8.4,0,0,1-3.059-.545,7.52,7.52,0,0,1-2.447-1.518,6.851,6.851,0,0,1-1.62-2.31,7.355,7.355,0,0,1-.579-2.954,7.27,7.27,0,0,1,.579-2.92,6.851,6.851,0,0,1,1.62-2.31,7.3,7.3,0,0,1,2.447-1.5,8.632,8.632,0,0,1,3.059-.528,8.766,8.766,0,0,1,3.075.528,7.269,7.269,0,0,1,2.464,1.5,7.052,7.052,0,0,1,1.637,2.31A7.1,7.1,0,0,1,111.111-17.82ZM120.12-.429V1.782H100.188v-9.5h2.706V-.429Zm7.92-6.435q2.013,0,3.7-.049t3.2-.149q1.518-.1,2.954-.28t2.953-.446l.3,2.211q-1.617.3-3.135.479t-3.118.28q-1.6.1-3.382.132t-3.894.033h-2.277v-19.8h13.7v2.211H128.04v6.1h9.7v2.178h-9.7Zm20.328-20.3V2.475h-2.706V-13.761h-6.1v-2.244l6.1.033V-27.159ZM178.1-7.128h-2.574V-27.159H178.1Zm-8.514-11.088h-6.3v-2.178h6.3v-6.138h2.574V-9.768h-2.574ZM167.046-11.8a42.7,42.7,0,0,1-5.445.813q-2.508.2-5.115.2h-1.881V-24.453h2.673V-13q2.277-.033,4.587-.231a39.476,39.476,0,0,0,4.917-.759Zm2.475,4.242a4.841,4.841,0,0,0,.842,2.723,9.382,9.382,0,0,0,2.227,2.31,13.482,13.482,0,0,0,3.2,1.749A17.583,17.583,0,0,0,179.553.231L178.53,2.343a21.276,21.276,0,0,1-3.217-.842A16.244,16.244,0,0,1,172.376.149a13.358,13.358,0,0,1-2.442-1.832,9.741,9.741,0,0,1-1.766-2.244A9.74,9.74,0,0,1,166.4-1.683,13.615,13.615,0,0,1,163.977.149,15.749,15.749,0,0,1,161.057,1.5a21.276,21.276,0,0,1-3.217.842l-.99-2.112a17.268,17.268,0,0,0,3.745-1.007,13.58,13.58,0,0,0,3.185-1.749,9.108,9.108,0,0,0,2.211-2.31,4.909,4.909,0,0,0,.825-2.723V-8.613h2.706ZM201.515.33A14.3,14.3,0,0,0,206.955-.5,2.635,2.635,0,0,0,208.89-2.9a2.635,2.635,0,0,0-1.935-2.409,14.3,14.3,0,0,0-5.441-.825,14.54,14.54,0,0,0-5.49.825q-1.951.825-1.951,2.409T196.024-.5A14.54,14.54,0,0,0,201.515.33Zm0-8.58a23.356,23.356,0,0,1,4.217.346,11.015,11.015,0,0,1,3.179,1.04A5.551,5.551,0,0,1,210.9-5.181,3.876,3.876,0,0,1,211.6-2.9,3.876,3.876,0,0,1,210.9-.627a5.551,5.551,0,0,1-1.993,1.683A11.015,11.015,0,0,1,205.732,2.1a23.356,23.356,0,0,1-4.217.346,16.519,16.519,0,0,1-7.446-1.386,4.313,4.313,0,0,1-2.7-3.96,4.313,4.313,0,0,1,2.7-3.96A16.519,16.519,0,0,1,201.515-8.25Zm13.414-4.29v2.178h-26.8V-12.54h12.045v-3.432H191.5v-9.834h20.064v2.178H194.172v5.478h17.589v2.178h-8.877v3.432Zm5.28-5.841a4.682,4.682,0,0,0,.38,1.914,4.645,4.645,0,0,0,1.056,1.5,4.673,4.673,0,0,0,1.6.99,5.689,5.689,0,0,0,2.013.347,5.689,5.689,0,0,0,2.013-.347,4.5,4.5,0,0,0,1.584-.99,4.772,4.772,0,0,0,1.04-1.5,4.681,4.681,0,0,0,.38-1.914,4.715,4.715,0,0,0-.38-1.9,4.534,4.534,0,0,0-1.04-1.5,4.627,4.627,0,0,0-1.584-.974,5.689,5.689,0,0,0-2.013-.347,5.689,5.689,0,0,0-2.013.347,4.809,4.809,0,0,0-1.6.974,4.42,4.42,0,0,0-1.056,1.5A4.715,4.715,0,0,0,220.209-18.381Zm12.276-2.31a7.258,7.258,0,0,1,.363,2.31,6.707,6.707,0,0,1-.4,2.31h6.369v-4.62Zm-1.254,6.831a7.1,7.1,0,0,1-2.558,1.889,8.285,8.285,0,0,1-3.415.685,8.825,8.825,0,0,1-3.053-.513,6.985,6.985,0,0,1-2.409-1.455,6.822,6.822,0,0,1-1.584-2.249,7,7,0,0,1-.577-2.861,6.884,6.884,0,0,1,.577-2.845,6.687,6.687,0,0,1,1.584-2.216,7.123,7.123,0,0,1,2.409-1.439,8.825,8.825,0,0,1,3.053-.513,8.559,8.559,0,0,1,3.415.66,7.113,7.113,0,0,1,2.558,1.815h7.59v-4.257h2.706V-9.636h-2.706V-13.86ZM231.759.3a12.4,12.4,0,0,0,5.313-.928,2.873,2.873,0,0,0,1.914-2.619,2.9,2.9,0,0,0-1.914-2.636,12.209,12.209,0,0,0-5.313-.945,12,12,0,0,0-5.264.945,2.9,2.9,0,0,0-1.9,2.636,2.871,2.871,0,0,0,1.9,2.619A12.189,12.189,0,0,0,231.759.3Zm-.017-9.24a20.258,20.258,0,0,1,4.1.379,10.757,10.757,0,0,1,3.113,1.106,5.587,5.587,0,0,1,1.977,1.782,4.3,4.3,0,0,1,.692,2.409,4.3,4.3,0,0,1-.692,2.409A5.587,5.587,0,0,1,238.957.924a10.757,10.757,0,0,1-3.113,1.105,20.258,20.258,0,0,1-4.1.38,20.013,20.013,0,0,1-4.085-.38,10.762,10.762,0,0,1-3.1-1.105A5.437,5.437,0,0,1,222.6-.858a4.374,4.374,0,0,1-.675-2.409,4.374,4.374,0,0,1,.675-2.409,5.437,5.437,0,0,1,1.96-1.782,10.762,10.762,0,0,1,3.1-1.106A20.013,20.013,0,0,1,231.743-8.943Zm30.146-2.17a12.2,12.2,0,0,1-4.241-2.64,12.3,12.3,0,0,1-2.822-4.026A12.358,12.358,0,0,1,252-13.225a12.306,12.306,0,0,1-4.5,2.937l-1.419-2.145a10.9,10.9,0,0,0,3.036-1.634,11.809,11.809,0,0,0,2.327-2.36,10.074,10.074,0,0,0,1.485-2.9,10.566,10.566,0,0,0,.511-3.267v-3.036h2.706v3.267a8.265,8.265,0,0,0,.528,2.9,9.785,9.785,0,0,0,1.469,2.624,10.778,10.778,0,0,0,2.26,2.145,10.927,10.927,0,0,0,2.9,1.469ZM259.776.3a12.621,12.621,0,0,0,5.164-.858,2.662,2.662,0,0,0,1.865-2.409,2.679,2.679,0,0,0-1.865-2.442,12.621,12.621,0,0,0-5.164-.858,12.743,12.743,0,0,0-5.181.858,2.682,2.682,0,0,0-1.881,2.442A2.665,2.665,0,0,0,254.6-.561,12.743,12.743,0,0,0,259.776.3Zm0-8.679a20.518,20.518,0,0,1,4.042.363,10.907,10.907,0,0,1,3.069,1.056,5.4,5.4,0,0,1,1.947,1.7,4.016,4.016,0,0,1,.676,2.294,4.016,4.016,0,0,1-.676,2.294,5.259,5.259,0,0,1-1.947,1.683,11.274,11.274,0,0,1-3.069,1.039,20.518,20.518,0,0,1-4.042.363,20.709,20.709,0,0,1-4.076-.363,11.274,11.274,0,0,1-3.069-1.039,5.259,5.259,0,0,1-1.947-1.683,4.016,4.016,0,0,1-.676-2.294,4.016,4.016,0,0,1,.676-2.294,5.4,5.4,0,0,1,1.947-1.7A10.907,10.907,0,0,1,255.7-8.019,20.709,20.709,0,0,1,259.776-8.382ZM273.57-19.47v2.211h-4.389v8.052h-2.706V-27.093h2.706v7.623ZM294.2-15.906a27.877,27.877,0,0,0,.644-4.125q.115-1.749.115-3.1H282.942v-2.178h14.685v1.584q0,1.419-.1,3.416a29.463,29.463,0,0,1-.668,4.636Zm5.643,4.074q-2.31.358-4.736.57t-4.8.342q-2.376.13-4.653.163t-4.257.032l-.3-2.211h3q1.584,0,3.267-.066v-5.841h2.673v5.775q2.442-.1,4.884-.264t4.719-.462ZM294.806.264a13.088,13.088,0,0,0,5.21-.846,2.652,2.652,0,0,0,1.9-2.4q0-1.526-1.9-2.372a16.465,16.465,0,0,0-10.419,0q-1.9.846-1.9,2.372a2.652,2.652,0,0,0,1.9,2.4A13.087,13.087,0,0,0,294.806.264Zm0-8.58a20.894,20.894,0,0,1,4.085.363,11.488,11.488,0,0,1,3.1,1.04,5.291,5.291,0,0,1,1.96,1.667A3.888,3.888,0,0,1,304.623-3a4.02,4.02,0,0,1-.675,2.294,5.225,5.225,0,0,1-1.96,1.683,11.488,11.488,0,0,1-3.1,1.04,20.894,20.894,0,0,1-4.085.363,20.894,20.894,0,0,1-4.085-.363,11.489,11.489,0,0,1-3.1-1.04,5.226,5.226,0,0,1-1.96-1.683A4.02,4.02,0,0,1,284.988-3a3.888,3.888,0,0,1,.675-2.244,5.291,5.291,0,0,1,1.96-1.667,11.489,11.489,0,0,1,3.1-1.04A20.894,20.894,0,0,1,294.806-8.316Zm13.777-10.725v2.211h-4.224v8.118h-2.706V-27.159h2.706v8.118Zm22.671-2.937H313.2v-2.211H333.96v2.937q0,1.386-.016,2.855t-.116,3.135q-.1,1.667-.33,3.564t-.66,4.141l-2.706-.3q.429-2.112.66-3.976t.33-3.515q.1-1.65.115-3.1t.017-2.805Zm5.907,18.051v2.211H310.4V-3.927h10.395V-14.52H323.5V-3.927Zm18.81-15.345a13.261,13.261,0,0,0,.627,4.026,15.8,15.8,0,0,0,1.7,3.679,15.656,15.656,0,0,0,2.508,3.052,10.891,10.891,0,0,0,3.085,2.079l-1.617,2.178A13.768,13.768,0,0,1,357.72-7.97a17.485,17.485,0,0,1-3.069-5.66,18.45,18.45,0,0,1-3.036,5.973A13.985,13.985,0,0,1,347-3.7l-1.65-2.211a12.274,12.274,0,0,0,3.069-2.178,15.6,15.6,0,0,0,2.541-3.168,16.593,16.593,0,0,0,1.716-3.845,14.279,14.279,0,0,0,.627-4.175v-5.313h2.673ZM369.7-27.159V2.508h-2.706V-27.159ZM390.39-10.725a11.83,11.83,0,0,1-4.372-2.492,11.224,11.224,0,0,1-2.789-3.877,12.105,12.105,0,0,1-2.871,4.422,12.421,12.421,0,0,1-4.587,2.838l-1.386-2.145a12.3,12.3,0,0,0,3.052-1.568,11.033,11.033,0,0,0,2.343-2.227,9.726,9.726,0,0,0,1.5-2.756,9.236,9.236,0,0,0,.528-3.086V-22.77h-6.633v-2.178H391.05v2.178h-6.534v1.155a7.868,7.868,0,0,0,.512,2.805,8.958,8.958,0,0,0,1.436,2.492,10.588,10.588,0,0,0,2.244,2.046,11.268,11.268,0,0,0,2.97,1.436ZM388.08.3a12.354,12.354,0,0,0,5.164-.879,2.721,2.721,0,0,0,1.865-2.471,2.691,2.691,0,0,0-1.865-2.454,12.564,12.564,0,0,0-5.164-.862,12.665,12.665,0,0,0-5.2.862,2.691,2.691,0,0,0-1.865,2.454,2.721,2.721,0,0,0,1.865,2.471A12.453,12.453,0,0,0,388.08.3Zm0-8.778a20.575,20.575,0,0,1,4.042.362,10.594,10.594,0,0,1,3.069,1.069,5.528,5.528,0,0,1,1.947,1.711,4,4,0,0,1,.676,2.287,4.073,4.073,0,0,1-.676,2.3A5.46,5.46,0,0,1,395.192.978a10.594,10.594,0,0,1-3.069,1.069,20.575,20.575,0,0,1-4.042.362A14.981,14.981,0,0,1,380.919.978a4.426,4.426,0,0,1-2.607-4.03,4.4,4.4,0,0,1,2.607-4A14.981,14.981,0,0,1,388.08-8.481Zm13.794-11.187v2.277h-4.389v8.118h-2.706V-27.126h2.706v7.458Z" transform="translate(1017 16733)" fill="#272727"/>
    <path id="패스_2504" data-name="패스 2504" d="M16.5-12.969v5.412h8.811V2.409H22.605V-5.379H4.587V-7.557h9.207v-5.412H1.749V-15.18H21.681a28.422,28.422,0,0,0,.693-4.686q.1-2.013.1-3.7H5.181V-25.74H25.146V-23.6q0,1.683-.082,3.729a28.361,28.361,0,0,1-.644,4.686h4.191v2.211ZM34.947-7.59q2.145-.033,4.488-.214a43.2,43.2,0,0,0,5.016-.71l.264,2.343a49.41,49.41,0,0,1-5.594.742q-2.591.182-5,.182H32.241V-23.562h2.706ZM55.9-27.126V2.409H53.3V-12.87H49.071V.924H46.563v-27.39h2.508v11.385H53.3V-27.126ZM90.189-5.511H87.483V-27.126h2.706ZM69.267-17.82a5.263,5.263,0,0,0,.378,2.013A4.652,4.652,0,0,0,70.7-14.223a4.735,4.735,0,0,0,1.6,1.023,5.423,5.423,0,0,0,2.006.363,5.555,5.555,0,0,0,2.023-.363,4.876,4.876,0,0,0,1.628-1.023,4.54,4.54,0,0,0,1.069-1.584A5.263,5.263,0,0,0,79.4-17.82a5.018,5.018,0,0,0-.378-1.98,4.616,4.616,0,0,0-1.069-1.551,4.876,4.876,0,0,0-1.628-1.023,5.555,5.555,0,0,0-2.023-.363,5.423,5.423,0,0,0-2.006.363,4.735,4.735,0,0,0-1.6,1.023A4.734,4.734,0,0,0,69.645-19.8,5.018,5.018,0,0,0,69.267-17.82Zm12.8,0a7.178,7.178,0,0,1-.6,2.954,7.052,7.052,0,0,1-1.637,2.31,7.484,7.484,0,0,1-2.464,1.518,8.528,8.528,0,0,1-3.075.545,8.4,8.4,0,0,1-3.059-.545,7.52,7.52,0,0,1-2.447-1.518,6.851,6.851,0,0,1-1.62-2.31,7.355,7.355,0,0,1-.579-2.954,7.27,7.27,0,0,1,.579-2.92,6.851,6.851,0,0,1,1.62-2.31,7.3,7.3,0,0,1,2.447-1.5A8.632,8.632,0,0,1,74.3-25.08a8.766,8.766,0,0,1,3.075.528,7.269,7.269,0,0,1,2.464,1.5,7.052,7.052,0,0,1,1.637,2.31A7.1,7.1,0,0,1,82.071-17.82ZM91.08-.429V1.782H71.148v-9.5h2.706V-.429ZM99-6.864q2.013,0,3.7-.049t3.2-.149q1.518-.1,2.953-.28t2.953-.446l.3,2.211q-1.617.3-3.135.479t-3.118.28q-1.6.1-3.382.132t-3.894.033H96.294v-19.8h13.695v2.211H99v6.1h9.7v2.178H99Zm20.328-20.3V2.475h-2.706V-13.761h-6.105v-2.244l6.105.033V-27.159ZM149.061-7.128h-2.574V-27.159h2.574Zm-8.514-11.088h-6.3v-2.178h6.3v-6.138h2.574V-9.768h-2.574ZM138.006-11.8a42.7,42.7,0,0,1-5.445.813q-2.508.2-5.115.2h-1.881V-24.453h2.673V-13q2.277-.033,4.587-.231a39.476,39.476,0,0,0,4.917-.759Zm2.475,4.242a4.841,4.841,0,0,0,.842,2.723,9.382,9.382,0,0,0,2.227,2.31,13.482,13.482,0,0,0,3.2,1.749A17.583,17.583,0,0,0,150.513.231L149.49,2.343a21.276,21.276,0,0,1-3.217-.842A16.244,16.244,0,0,1,143.336.149a13.358,13.358,0,0,1-2.442-1.832,9.74,9.74,0,0,1-1.766-2.244,9.741,9.741,0,0,1-1.766,2.244A13.615,13.615,0,0,1,134.937.149a15.749,15.749,0,0,1-2.92,1.353,21.276,21.276,0,0,1-3.218.842l-.99-2.112a17.269,17.269,0,0,0,3.745-1.007,13.58,13.58,0,0,0,3.184-1.749,9.108,9.108,0,0,0,2.211-2.31,4.909,4.909,0,0,0,.825-2.723V-8.613h2.706ZM172.475.33A14.3,14.3,0,0,0,177.915-.5,2.635,2.635,0,0,0,179.85-2.9a2.635,2.635,0,0,0-1.935-2.409,14.3,14.3,0,0,0-5.441-.825,14.54,14.54,0,0,0-5.49.825q-1.951.825-1.951,2.409T166.984-.5A14.54,14.54,0,0,0,172.475.33Zm0-8.58a23.356,23.356,0,0,1,4.217.346,11.015,11.015,0,0,1,3.179,1.04,5.551,5.551,0,0,1,1.993,1.683,3.876,3.876,0,0,1,.692,2.277,3.876,3.876,0,0,1-.692,2.277,5.551,5.551,0,0,1-1.993,1.683A11.015,11.015,0,0,1,176.692,2.1a23.356,23.356,0,0,1-4.217.346,16.519,16.519,0,0,1-7.446-1.386,4.313,4.313,0,0,1-2.7-3.96,4.313,4.313,0,0,1,2.7-3.96A16.519,16.519,0,0,1,172.475-8.25Zm13.414-4.29v2.178h-26.8V-12.54h12.045v-3.432h-8.679v-9.834h20.064v2.178H165.132v5.478h17.589v2.178h-8.877v3.432Zm5.28-5.841a4.682,4.682,0,0,0,.38,1.914,4.645,4.645,0,0,0,1.056,1.5,4.673,4.673,0,0,0,1.6.99,5.689,5.689,0,0,0,2.013.347,5.689,5.689,0,0,0,2.013-.347,4.5,4.5,0,0,0,1.584-.99,4.772,4.772,0,0,0,1.04-1.5,4.681,4.681,0,0,0,.38-1.914,4.715,4.715,0,0,0-.38-1.9,4.534,4.534,0,0,0-1.04-1.5,4.627,4.627,0,0,0-1.584-.974,5.689,5.689,0,0,0-2.013-.347,5.689,5.689,0,0,0-2.013.347,4.809,4.809,0,0,0-1.6.974,4.42,4.42,0,0,0-1.056,1.5A4.715,4.715,0,0,0,191.169-18.381Zm12.276-2.31a7.258,7.258,0,0,1,.363,2.31,6.707,6.707,0,0,1-.4,2.31h6.369v-4.62Zm-1.254,6.831a7.1,7.1,0,0,1-2.558,1.889,8.285,8.285,0,0,1-3.415.685,8.825,8.825,0,0,1-3.053-.513,6.985,6.985,0,0,1-2.409-1.455,6.822,6.822,0,0,1-1.584-2.249,7,7,0,0,1-.577-2.861,6.884,6.884,0,0,1,.577-2.845,6.687,6.687,0,0,1,1.584-2.216,7.123,7.123,0,0,1,2.409-1.439,8.825,8.825,0,0,1,3.053-.513,8.559,8.559,0,0,1,3.415.66,7.113,7.113,0,0,1,2.558,1.815h7.59v-4.257h2.706V-9.636h-2.706V-13.86ZM202.719.3a12.4,12.4,0,0,0,5.313-.928,2.873,2.873,0,0,0,1.914-2.619,2.9,2.9,0,0,0-1.914-2.636,12.209,12.209,0,0,0-5.313-.945,12,12,0,0,0-5.264.945,2.9,2.9,0,0,0-1.9,2.636,2.871,2.871,0,0,0,1.9,2.619A12.189,12.189,0,0,0,202.719.3Zm-.017-9.24a20.258,20.258,0,0,1,4.1.379,10.757,10.757,0,0,1,3.113,1.106,5.587,5.587,0,0,1,1.977,1.782,4.3,4.3,0,0,1,.692,2.409,4.3,4.3,0,0,1-.692,2.409A5.587,5.587,0,0,1,209.917.924,10.757,10.757,0,0,1,206.8,2.03a20.258,20.258,0,0,1-4.1.38,20.013,20.013,0,0,1-4.085-.38,10.762,10.762,0,0,1-3.1-1.105,5.437,5.437,0,0,1-1.96-1.782,4.374,4.374,0,0,1-.675-2.409,4.374,4.374,0,0,1,.675-2.409,5.437,5.437,0,0,1,1.96-1.782,10.762,10.762,0,0,1,3.1-1.106A20.013,20.013,0,0,1,202.7-8.943Zm30.146-2.17a12.2,12.2,0,0,1-4.24-2.64,12.3,12.3,0,0,1-2.822-4.026,12.358,12.358,0,0,1-2.822,4.554,12.306,12.306,0,0,1-4.5,2.937l-1.419-2.145a10.9,10.9,0,0,0,3.036-1.634,11.809,11.809,0,0,0,2.327-2.36,10.074,10.074,0,0,0,1.485-2.9A10.566,10.566,0,0,0,224.4-22.6v-3.036h2.706v3.267a8.265,8.265,0,0,0,.528,2.9,9.784,9.784,0,0,0,1.468,2.624,10.779,10.779,0,0,0,2.26,2.145,10.927,10.927,0,0,0,2.9,1.469ZM230.736.3A12.621,12.621,0,0,0,235.9-.561a2.662,2.662,0,0,0,1.865-2.409A2.679,2.679,0,0,0,235.9-5.412a12.621,12.621,0,0,0-5.165-.858,12.743,12.743,0,0,0-5.181.858,2.682,2.682,0,0,0-1.881,2.442,2.665,2.665,0,0,0,1.881,2.409A12.743,12.743,0,0,0,230.736.3Zm0-8.679a20.519,20.519,0,0,1,4.043.363,10.907,10.907,0,0,1,3.069,1.056,5.4,5.4,0,0,1,1.947,1.7,4.016,4.016,0,0,1,.676,2.294,4.016,4.016,0,0,1-.676,2.294,5.259,5.259,0,0,1-1.947,1.683,11.274,11.274,0,0,1-3.069,1.039,20.519,20.519,0,0,1-4.043.363,20.708,20.708,0,0,1-4.076-.363,11.274,11.274,0,0,1-3.069-1.039,5.259,5.259,0,0,1-1.947-1.683,4.016,4.016,0,0,1-.676-2.294,4.016,4.016,0,0,1,.676-2.294,5.4,5.4,0,0,1,1.947-1.7,10.907,10.907,0,0,1,3.069-1.056A20.708,20.708,0,0,1,230.736-8.382ZM244.53-19.47v2.211h-4.389v8.052h-2.706V-27.093h2.706v7.623Zm20.625,3.564a27.881,27.881,0,0,0,.643-4.125q.115-1.749.116-3.1H253.9v-2.178h14.685v1.584q0,1.419-.1,3.416a29.466,29.466,0,0,1-.668,4.636Zm5.643,4.074q-2.31.358-4.736.57t-4.8.342q-2.376.13-4.653.163t-4.257.032l-.3-2.211h3q1.584,0,3.267-.066v-5.841H261v5.775q2.442-.1,4.884-.264t4.719-.462ZM265.766.264a13.088,13.088,0,0,0,5.21-.846,2.651,2.651,0,0,0,1.9-2.4q0-1.526-1.9-2.372a16.465,16.465,0,0,0-10.419,0q-1.9.846-1.9,2.372a2.652,2.652,0,0,0,1.9,2.4A13.088,13.088,0,0,0,265.766.264Zm0-8.58a20.894,20.894,0,0,1,4.085.363,11.489,11.489,0,0,1,3.1,1.04,5.291,5.291,0,0,1,1.96,1.667A3.888,3.888,0,0,1,275.583-3a4.02,4.02,0,0,1-.675,2.294,5.226,5.226,0,0,1-1.96,1.683,11.489,11.489,0,0,1-3.1,1.04,20.894,20.894,0,0,1-4.085.363,20.894,20.894,0,0,1-4.085-.363,11.488,11.488,0,0,1-3.1-1.04,5.225,5.225,0,0,1-1.96-1.683A4.02,4.02,0,0,1,255.948-3a3.888,3.888,0,0,1,.675-2.244,5.291,5.291,0,0,1,1.96-1.667,11.488,11.488,0,0,1,3.1-1.04A20.894,20.894,0,0,1,265.766-8.316Zm13.777-10.725v2.211h-4.224v8.118h-2.706V-27.159h2.706v8.118Zm22.671-2.937H284.163v-2.211H304.92v2.937q0,1.386-.016,2.855t-.116,3.135q-.1,1.667-.33,3.564t-.66,4.141l-2.706-.3q.429-2.112.66-3.976t.33-3.515q.1-1.65.115-3.1t.017-2.805Zm5.907,18.051v2.211H281.358V-3.927h10.395V-14.52h2.706V-3.927Zm18.81-15.345a13.261,13.261,0,0,0,.627,4.026,15.8,15.8,0,0,0,1.7,3.679,15.656,15.656,0,0,0,2.508,3.052,10.891,10.891,0,0,0,3.085,2.079l-1.617,2.178A13.768,13.768,0,0,1,328.68-7.97a17.485,17.485,0,0,1-3.069-5.66,18.45,18.45,0,0,1-3.036,5.973,13.985,13.985,0,0,1-4.62,3.96l-1.65-2.211a12.274,12.274,0,0,0,3.069-2.178,15.6,15.6,0,0,0,2.541-3.168,16.593,16.593,0,0,0,1.716-3.845,14.279,14.279,0,0,0,.627-4.175v-5.313h2.673Zm13.728-7.887V2.508h-2.706V-27.159ZM361.35-10.725a11.83,11.83,0,0,1-4.372-2.492,11.224,11.224,0,0,1-2.789-3.877,12.105,12.105,0,0,1-2.871,4.422,12.421,12.421,0,0,1-4.587,2.838l-1.386-2.145a12.3,12.3,0,0,0,3.052-1.568,11.033,11.033,0,0,0,2.343-2.227,9.726,9.726,0,0,0,1.5-2.756,9.236,9.236,0,0,0,.528-3.086V-22.77h-6.633v-2.178H362.01v2.178h-6.534v1.155a7.868,7.868,0,0,0,.512,2.805,8.958,8.958,0,0,0,1.436,2.492,10.588,10.588,0,0,0,2.244,2.046,11.268,11.268,0,0,0,2.97,1.436ZM359.04.3A12.354,12.354,0,0,0,364.2-.582a2.721,2.721,0,0,0,1.865-2.471A2.691,2.691,0,0,0,364.2-5.507a12.564,12.564,0,0,0-5.164-.862,12.665,12.665,0,0,0-5.2.862,2.691,2.691,0,0,0-1.865,2.454,2.721,2.721,0,0,0,1.865,2.471A12.453,12.453,0,0,0,359.04.3Zm0-8.778a20.575,20.575,0,0,1,4.042.362,10.594,10.594,0,0,1,3.069,1.069A5.528,5.528,0,0,1,368.1-5.339a4,4,0,0,1,.676,2.287,4.073,4.073,0,0,1-.676,2.3A5.46,5.46,0,0,1,366.152.978a10.594,10.594,0,0,1-3.069,1.069,20.575,20.575,0,0,1-4.042.362A14.981,14.981,0,0,1,351.879.978a4.426,4.426,0,0,1-2.607-4.03,4.4,4.4,0,0,1,2.607-4A14.981,14.981,0,0,1,359.04-8.481Zm13.794-11.187v2.277h-4.389v8.118h-2.706V-27.126h2.706v7.458Z" transform="translate(1017 16879)" fill="#272727"/>
    <path id="패스_2501" data-name="패스 2501" d="M5.819-15.065H.713v-1.794H13.064v1.794H7.958V0H5.819ZM19.826.3a5.644,5.644,0,0,1-2.2-.437,5.456,5.456,0,0,1-1.852-1.277A6.146,6.146,0,0,1,14.5-3.462a7.581,7.581,0,0,1-.471-2.772A7.673,7.673,0,0,1,14.5-9.016a6.254,6.254,0,0,1,1.276-2.07,5.383,5.383,0,0,1,1.852-1.288,5.644,5.644,0,0,1,2.2-.437,5.644,5.644,0,0,1,2.2.437,5.383,5.383,0,0,1,1.851,1.288,6.254,6.254,0,0,1,1.277,2.07,7.674,7.674,0,0,1,.472,2.783,7.581,7.581,0,0,1-.472,2.772,6.146,6.146,0,0,1-1.277,2.047A5.456,5.456,0,0,1,22.023-.138,5.644,5.644,0,0,1,19.826.3Zm0-1.771A3.168,3.168,0,0,0,21.3-1.815a3.458,3.458,0,0,0,1.15-.961,4.514,4.514,0,0,0,.747-1.5,6.793,6.793,0,0,0,.264-1.957A6.792,6.792,0,0,0,23.2-8.19a4.793,4.793,0,0,0-.747-1.522A3.356,3.356,0,0,0,21.3-10.7a3.168,3.168,0,0,0-1.472-.343,3.168,3.168,0,0,0-1.472.343,3.252,3.252,0,0,0-1.139.984,4.942,4.942,0,0,0-.736,1.522,6.792,6.792,0,0,0-.264,1.957,6.793,6.793,0,0,0,.264,1.957,4.649,4.649,0,0,0,.736,1.5,3.347,3.347,0,0,0,1.139.961A3.168,3.168,0,0,0,19.826-1.472ZM31.924.3A4.2,4.2,0,0,1,30.233,0a2.734,2.734,0,0,1-1.092-.84,3.44,3.44,0,0,1-.6-1.311,7.385,7.385,0,0,1-.184-1.714v-6.923H26.5v-1.587l1.955-.115.253-3.5h1.748v3.5h3.381v1.7H30.452v6.969a3.234,3.234,0,0,0,.414,1.794,1.692,1.692,0,0,0,1.518.621,2.808,2.808,0,0,0,.713-.1q.391-.1.713-.218l.414,1.564A10.873,10.873,0,0,1,33.1.161,5.206,5.206,0,0,1,31.924.3Zm6.67,0A4.061,4.061,0,0,1,37.145.047a3.3,3.3,0,0,1-1.15-.723,3.338,3.338,0,0,1-.759-1.148A4.012,4.012,0,0,1,34.96-3.35a3.6,3.6,0,0,1,1.99-3.455A12.846,12.846,0,0,1,42.642-7.9a5.943,5.943,0,0,0-.115-1.17,2.822,2.822,0,0,0-.4-1.01,2.079,2.079,0,0,0-.793-.7,2.717,2.717,0,0,0-1.265-.264,6.322,6.322,0,0,0-2.116.357,7.431,7.431,0,0,0-1.748.863l-.828-1.5a10.694,10.694,0,0,1,2.2-1.025,8.485,8.485,0,0,1,2.84-.466,4.783,4.783,0,0,1,1.955.368A3.388,3.388,0,0,1,43.712-11.4a4.611,4.611,0,0,1,.771,1.622,8.072,8.072,0,0,1,.253,2.093V0H43.01l-.184-1.356h-.069a8.032,8.032,0,0,1-1.944,1.2A5.51,5.51,0,0,1,38.594.3Zm.6-1.7a4.6,4.6,0,0,0,1.725-.322,6.213,6.213,0,0,0,1.725-1.127v-3.7a22.266,22.266,0,0,0-2.748.334,5.865,5.865,0,0,0-1.737.586,2.123,2.123,0,0,0-.9.885,2.775,2.775,0,0,0-.253,1.23,1.963,1.963,0,0,0,.621,1.6A2.36,2.36,0,0,0,39.192-1.4Zm8.6,1.4V-18.308h2.093V0ZM64.768-6.854l-.805-2.583q-.46-1.453-.874-2.848t-.828-2.871h-.092q-.391,1.5-.805,2.883T60.49-9.437l-.828,2.583Zm.529,1.7H59.133L57.5,0H55.338l5.727-16.859h2.369L69.161,0H66.907Zm3.312-7.337h2.185L73.14-5.382q.3.92.587,1.863T74.313-1.7H74.4q.276-.874.575-1.817t.575-1.863l2.369-7.107h2.07L75.555,0H73.117ZM84.341.3A4.061,4.061,0,0,1,82.892.047a3.3,3.3,0,0,1-1.15-.723,3.338,3.338,0,0,1-.759-1.148,4.012,4.012,0,0,1-.276-1.526A3.6,3.6,0,0,1,82.7-6.805,12.846,12.846,0,0,1,88.389-7.9a5.943,5.943,0,0,0-.115-1.17,2.822,2.822,0,0,0-.4-1.01,2.079,2.079,0,0,0-.793-.7,2.717,2.717,0,0,0-1.265-.264,6.322,6.322,0,0,0-2.116.357,7.431,7.431,0,0,0-1.748.863l-.828-1.5a10.694,10.694,0,0,1,2.2-1.025,8.485,8.485,0,0,1,2.84-.466,4.783,4.783,0,0,1,1.955.368A3.388,3.388,0,0,1,89.459-11.4a4.611,4.611,0,0,1,.771,1.622,8.072,8.072,0,0,1,.253,2.093V0H88.757l-.184-1.356H88.5a8.032,8.032,0,0,1-1.943,1.2A5.51,5.51,0,0,1,84.341.3Zm.6-1.7a4.6,4.6,0,0,0,1.725-.322,6.213,6.213,0,0,0,1.725-1.127v-3.7a22.266,22.266,0,0,0-2.748.334,5.865,5.865,0,0,0-1.737.586,2.123,2.123,0,0,0-.9.885,2.775,2.775,0,0,0-.253,1.23,1.963,1.963,0,0,0,.621,1.6A2.36,2.36,0,0,0,84.939-1.4Zm8.6-11.086h2.093V0H93.541ZM94.6-15.065a1.473,1.473,0,0,1-1.035-.38,1.266,1.266,0,0,1-.414-.977,1.249,1.249,0,0,1,.414-1,1.53,1.53,0,0,1,1.035-.357,1.53,1.53,0,0,1,1.035.357,1.249,1.249,0,0,1,.414,1,1.266,1.266,0,0,1-.414.977A1.473,1.473,0,0,1,94.6-15.065ZM98.946,0V-18.308h2.093V0Zm8.211.3a4.061,4.061,0,0,1-1.449-.252,3.3,3.3,0,0,1-1.15-.723,3.338,3.338,0,0,1-.759-1.148,4.012,4.012,0,0,1-.276-1.526,3.6,3.6,0,0,1,1.99-3.455,12.846,12.846,0,0,1,5.692-1.09,5.943,5.943,0,0,0-.115-1.17,2.822,2.822,0,0,0-.4-1.01,2.079,2.079,0,0,0-.793-.7,2.717,2.717,0,0,0-1.265-.264,6.322,6.322,0,0,0-2.116.357,7.431,7.431,0,0,0-1.748.863l-.828-1.5a10.694,10.694,0,0,1,2.2-1.025,8.485,8.485,0,0,1,2.84-.466,4.783,4.783,0,0,1,1.955.368,3.388,3.388,0,0,1,1.346,1.046,4.611,4.611,0,0,1,.771,1.622,8.072,8.072,0,0,1,.253,2.093V0h-1.725l-.184-1.356h-.069a8.032,8.032,0,0,1-1.944,1.2A5.51,5.51,0,0,1,107.157.3Zm.6-1.7a4.6,4.6,0,0,0,1.725-.322,6.213,6.213,0,0,0,1.725-1.127v-3.7a22.266,22.266,0,0,0-2.748.334,5.865,5.865,0,0,0-1.737.586,2.123,2.123,0,0,0-.9.885,2.775,2.775,0,0,0-.253,1.23,1.963,1.963,0,0,0,.621,1.6A2.36,2.36,0,0,0,107.755-1.4Zm14.1,1.7a4.386,4.386,0,0,1-1.805-.419,6.522,6.522,0,0,1-1.76-1.188h-.069L118.036,0h-1.679V-18.308h2.093v5.014l-.069,2.254a9.331,9.331,0,0,1,1.863-1.253,4.454,4.454,0,0,1,2.047-.518,4.8,4.8,0,0,1,2.15.46,4.388,4.388,0,0,1,1.564,1.288,5.776,5.776,0,0,1,.954,2,9.807,9.807,0,0,1,.322,2.6,8.573,8.573,0,0,1-.449,2.875,6.551,6.551,0,0,1-1.2,2.128,5.064,5.064,0,0,1-1.725,1.311A4.879,4.879,0,0,1,121.854.3Zm-.345-1.771a3.045,3.045,0,0,0,1.438-.344,3.443,3.443,0,0,0,1.139-.975,4.631,4.631,0,0,0,.747-1.549,7.547,7.547,0,0,0,.265-2.088,8.9,8.9,0,0,0-.184-1.882,4.389,4.389,0,0,0-.575-1.457,2.71,2.71,0,0,0-1.012-.941,3.179,3.179,0,0,0-1.518-.333,3.486,3.486,0,0,0-1.633.436,7.975,7.975,0,0,0-1.725,1.285v6.54a5.075,5.075,0,0,0,1.633,1.021A4.322,4.322,0,0,0,121.509-1.472ZM129.651,0V-18.308h2.093V0Zm10.4.3a6.227,6.227,0,0,1-2.335-.437,5.351,5.351,0,0,1-1.9-1.277,6.123,6.123,0,0,1-1.277-2.059,7.6,7.6,0,0,1-.471-2.76,7.521,7.521,0,0,1,.473-2.737,6.468,6.468,0,0,1,1.256-2.07,5.5,5.5,0,0,1,1.809-1.311,5.1,5.1,0,0,1,2.109-.46,5.129,5.129,0,0,1,2.12.414,4.231,4.231,0,0,1,1.556,1.185,5.376,5.376,0,0,1,.968,1.852,8.157,8.157,0,0,1,.334,2.415q0,.345-.023.655a4.479,4.479,0,0,1-.069.541H136.16a4.832,4.832,0,0,0,1.23,3.18A3.842,3.842,0,0,0,140.3-1.4a5.075,5.075,0,0,0,1.679-.265,6.4,6.4,0,0,0,1.449-.724l.759,1.385a9.741,9.741,0,0,1-1.84.921A6.439,6.439,0,0,1,140.047.3Zm2.783-7.521a4.457,4.457,0,0,0-.816-2.9,2.8,2.8,0,0,0-2.289-.989,3.173,3.173,0,0,0-1.276.264,3.422,3.422,0,0,0-1.092.759,4.114,4.114,0,0,0-.805,1.219,5.337,5.337,0,0,0-.414,1.644Zm8.418-9.637h2.576l3.243,9.016q.3.874.587,1.76t.609,1.76h.115q.3-.874.575-1.76t.575-1.76l3.22-9.016h2.576V0h-2V-9.338q0-.552.023-1.184t.069-1.288q.046-.656.092-1.3t.092-1.2h-.092l-1.331,3.841L158.986-1.7h-1.423l-3.19-8.763-1.331-3.841h-.095q.023.552.07,1.2t.093,1.3q.047.656.07,1.288t.023,1.184V0h-1.955ZM171.672.3a4.061,4.061,0,0,1-1.449-.252,3.3,3.3,0,0,1-1.15-.723,3.338,3.338,0,0,1-.759-1.148,4.012,4.012,0,0,1-.276-1.526,3.6,3.6,0,0,1,1.99-3.455A12.846,12.846,0,0,1,175.72-7.9a5.942,5.942,0,0,0-.115-1.17,2.822,2.822,0,0,0-.4-1.01,2.079,2.079,0,0,0-.794-.7,2.717,2.717,0,0,0-1.265-.264,6.322,6.322,0,0,0-2.116.357,7.431,7.431,0,0,0-1.748.863l-.828-1.5a10.694,10.694,0,0,1,2.2-1.025,8.485,8.485,0,0,1,2.84-.466,4.783,4.783,0,0,1,1.955.368,3.388,3.388,0,0,1,1.345,1.046,4.611,4.611,0,0,1,.771,1.622,8.073,8.073,0,0,1,.253,2.093V0h-1.725L175.9-1.356h-.069a8.032,8.032,0,0,1-1.943,1.2A5.51,5.51,0,0,1,171.672.3Zm.6-1.7a4.6,4.6,0,0,0,1.725-.322,6.213,6.213,0,0,0,1.725-1.127v-3.7a22.266,22.266,0,0,0-2.749.334,5.865,5.865,0,0,0-1.736.586,2.123,2.123,0,0,0-.9.885,2.775,2.775,0,0,0-.253,1.23,1.963,1.963,0,0,0,.621,1.6A2.36,2.36,0,0,0,172.27-1.4Zm8.6-11.086H182.6l.184,2.277h.069a6.112,6.112,0,0,1,1.576-1.9,3.153,3.153,0,0,1,1.967-.7,4.021,4.021,0,0,1,.725.057,2.081,2.081,0,0,1,.609.219l-.391,1.84a3.713,3.713,0,0,0-.575-.161,3.708,3.708,0,0,0-.644-.046,2.46,2.46,0,0,0-.816.149,2.854,2.854,0,0,0-.84.483,4.371,4.371,0,0,0-.8.885,5.9,5.9,0,0,0-.69,1.357V0h-2.093Zm8-5.819h2.07v12.42h.046l5.359-6.6h2.323l-4.186,5.014L199.226,0h-2.277l-3.657-6.026-2.346,2.737V0h-2.07ZM205.689.3a6.227,6.227,0,0,1-2.335-.437,5.351,5.351,0,0,1-1.9-1.277,6.123,6.123,0,0,1-1.277-2.059,7.6,7.6,0,0,1-.471-2.76,7.521,7.521,0,0,1,.473-2.737,6.468,6.468,0,0,1,1.256-2.07,5.5,5.5,0,0,1,1.809-1.311,5.1,5.1,0,0,1,2.109-.46,5.129,5.129,0,0,1,2.12.414,4.231,4.231,0,0,1,1.556,1.185A5.376,5.376,0,0,1,210-9.361a8.157,8.157,0,0,1,.334,2.415q0,.345-.023.655a4.479,4.479,0,0,1-.069.541H201.8a4.832,4.832,0,0,0,1.23,3.18,3.842,3.842,0,0,0,2.91,1.167,5.075,5.075,0,0,0,1.679-.265,6.4,6.4,0,0,0,1.449-.724l.759,1.385a9.741,9.741,0,0,1-1.84.921A6.439,6.439,0,0,1,205.689.3Zm2.783-7.521a4.457,4.457,0,0,0-.816-2.9,2.8,2.8,0,0,0-2.289-.989,3.173,3.173,0,0,0-1.276.264,3.422,3.422,0,0,0-1.092.759,4.114,4.114,0,0,0-.805,1.219,5.337,5.337,0,0,0-.414,1.644ZM216.407.3a4.2,4.2,0,0,1-1.69-.3,2.734,2.734,0,0,1-1.092-.84,3.44,3.44,0,0,1-.6-1.311,7.385,7.385,0,0,1-.184-1.714v-6.923h-1.863v-1.587l1.955-.115.253-3.5h1.748v3.5h3.381v1.7h-3.381v6.969a3.234,3.234,0,0,0,.414,1.794,1.692,1.692,0,0,0,1.518.621,2.808,2.808,0,0,0,.713-.1q.391-.1.713-.218l.414,1.564a10.873,10.873,0,0,1-1.127.322A5.206,5.206,0,0,1,216.407.3Z" transform="translate(1017 16687)" fill="#bebebe"/>
    <path id="패스_2503" data-name="패스 2503" d="M6.992.3a8.061,8.061,0,0,1-3.3-.667,7.982,7.982,0,0,1-2.611-1.84L2.346-3.657a6.959,6.959,0,0,0,2.139,1.53,5.964,5.964,0,0,0,2.53.563,4.036,4.036,0,0,0,2.6-.759,2.443,2.443,0,0,0,.943-2,2.478,2.478,0,0,0-.218-1.092,2.475,2.475,0,0,0-.6-.782,4.132,4.132,0,0,0-.885-.586q-.506-.253-1.1-.529L5.313-8.372a9.779,9.779,0,0,1-1.2-.609,5.43,5.43,0,0,1-1.1-.874A4.1,4.1,0,0,1,2.2-11.075,3.973,3.973,0,0,1,1.886-12.7a4.049,4.049,0,0,1,.4-1.794,4.358,4.358,0,0,1,1.1-1.426,5.089,5.089,0,0,1,1.679-.931A6.549,6.549,0,0,1,7.2-17.181a6.725,6.725,0,0,1,2.794.575,6.834,6.834,0,0,1,2.174,1.518L11.04-13.731a6.266,6.266,0,0,0-1.725-1.162A5.089,5.089,0,0,0,7.2-15.318a3.631,3.631,0,0,0-2.3.667,2.185,2.185,0,0,0-.851,1.817A2.078,2.078,0,0,0,4.3-11.776a2.78,2.78,0,0,0,.644.759,4.016,4.016,0,0,0,.9.552q.506.23.989.437L9.246-8.993a10.931,10.931,0,0,1,1.368.713,4.964,4.964,0,0,1,1.1.92,3.894,3.894,0,0,1,.736,1.231,4.653,4.653,0,0,1,.264,1.645,4.377,4.377,0,0,1-.4,1.875,4.653,4.653,0,0,1-1.139,1.518A5.24,5.24,0,0,1,9.373-.069,7.282,7.282,0,0,1,6.992.3ZM19.964.3A6.227,6.227,0,0,1,17.63-.138a5.351,5.351,0,0,1-1.9-1.277,6.123,6.123,0,0,1-1.277-2.059,7.6,7.6,0,0,1-.471-2.76,7.521,7.521,0,0,1,.473-2.737,6.468,6.468,0,0,1,1.256-2.07,5.5,5.5,0,0,1,1.809-1.311,5.1,5.1,0,0,1,2.109-.46,5.129,5.129,0,0,1,2.12.414,4.231,4.231,0,0,1,1.556,1.185,5.376,5.376,0,0,1,.968,1.852,8.157,8.157,0,0,1,.334,2.415q0,.345-.023.655a4.479,4.479,0,0,1-.069.541H16.077a4.832,4.832,0,0,0,1.231,3.18A3.842,3.842,0,0,0,20.217-1.4,5.075,5.075,0,0,0,21.9-1.668a6.4,6.4,0,0,0,1.449-.724L24.1-1.007a9.741,9.741,0,0,1-1.84.921A6.439,6.439,0,0,1,19.964.3Zm2.783-7.521a4.457,4.457,0,0,0-.816-2.9,2.8,2.8,0,0,0-2.288-.989,3.173,3.173,0,0,0-1.277.264,3.422,3.422,0,0,0-1.093.759,4.114,4.114,0,0,0-.8,1.219,5.336,5.336,0,0,0-.414,1.644Zm4-5.267h1.725l.184,2.277h.069a6.112,6.112,0,0,1,1.576-1.9,3.153,3.153,0,0,1,1.967-.7,4.021,4.021,0,0,1,.724.057,2.081,2.081,0,0,1,.61.219l-.391,1.84a3.714,3.714,0,0,0-.575-.161,3.708,3.708,0,0,0-.644-.046,2.46,2.46,0,0,0-.817.149,2.854,2.854,0,0,0-.839.483,4.371,4.371,0,0,0-.805.885,5.9,5.9,0,0,0-.69,1.357V0H26.749Zm6.187,0h2.185l2.346,7.107q.3.92.586,1.863T38.64-1.7h.092q.276-.874.575-1.817t.575-1.863l2.369-7.107h2.07L39.882,0H37.444Zm12.88,0h2.093V0H45.816Zm1.058-2.576a1.473,1.473,0,0,1-1.035-.38,1.266,1.266,0,0,1-.414-.977,1.249,1.249,0,0,1,.414-1,1.53,1.53,0,0,1,1.035-.357,1.53,1.53,0,0,1,1.035.357,1.249,1.249,0,0,1,.414,1,1.266,1.266,0,0,1-.414.977A1.473,1.473,0,0,1,46.874-15.065ZM56.143.3a6.052,6.052,0,0,1-2.312-.437,5.286,5.286,0,0,1-1.863-1.277,5.956,5.956,0,0,1-1.242-2.047,7.93,7.93,0,0,1-.449-2.772,7.354,7.354,0,0,1,.494-2.783,6.352,6.352,0,0,1,1.323-2.07,5.5,5.5,0,0,1,1.92-1.288,6.105,6.105,0,0,1,2.289-.437,4.639,4.639,0,0,1,2.116.443,6.94,6.94,0,0,1,1.541,1.049L58.88-9.913a5.366,5.366,0,0,0-1.15-.817,2.9,2.9,0,0,0-1.357-.311,3.557,3.557,0,0,0-1.564.343,3.546,3.546,0,0,0-1.23.984,4.907,4.907,0,0,0-.816,1.522,6.063,6.063,0,0,0-.3,1.957,6.529,6.529,0,0,0,.276,1.957,4.31,4.31,0,0,0,.794,1.5,3.7,3.7,0,0,0,1.219.961,3.536,3.536,0,0,0,1.576.343,3.644,3.644,0,0,0,1.61-.357,5.853,5.853,0,0,0,1.334-.886l.9,1.405A6.063,6.063,0,0,1,58.305-.12,5.7,5.7,0,0,1,56.143.3Zm10.9,0A6.227,6.227,0,0,1,64.71-.138a5.351,5.351,0,0,1-1.9-1.277,6.123,6.123,0,0,1-1.277-2.059,7.6,7.6,0,0,1-.472-2.76,7.521,7.521,0,0,1,.473-2.737,6.468,6.468,0,0,1,1.256-2.07A5.5,5.5,0,0,1,64.6-12.351a5.1,5.1,0,0,1,2.109-.46,5.129,5.129,0,0,1,2.12.414,4.231,4.231,0,0,1,1.556,1.185,5.376,5.376,0,0,1,.968,1.852,8.157,8.157,0,0,1,.334,2.415q0,.345-.023.655a4.48,4.48,0,0,1-.069.541H63.158a4.832,4.832,0,0,0,1.23,3.18A3.842,3.842,0,0,0,67.3-1.4a5.075,5.075,0,0,0,1.679-.265,6.4,6.4,0,0,0,1.449-.724l.759,1.385a9.741,9.741,0,0,1-1.84.921A6.439,6.439,0,0,1,67.045.3Zm2.783-7.521a4.457,4.457,0,0,0-.816-2.9,2.8,2.8,0,0,0-2.288-.989,3.173,3.173,0,0,0-1.277.264,3.422,3.422,0,0,0-1.092.759,4.114,4.114,0,0,0-.8,1.219,5.336,5.336,0,0,0-.414,1.644ZM76.682.3A4.061,4.061,0,0,1,75.233.047a3.3,3.3,0,0,1-1.15-.723,3.338,3.338,0,0,1-.759-1.148,4.012,4.012,0,0,1-.276-1.526,3.6,3.6,0,0,1,1.99-3.455A12.846,12.846,0,0,1,80.73-7.9a5.943,5.943,0,0,0-.115-1.17,2.822,2.822,0,0,0-.4-1.01,2.079,2.079,0,0,0-.793-.7,2.717,2.717,0,0,0-1.265-.264,6.322,6.322,0,0,0-2.116.357,7.431,7.431,0,0,0-1.748.863l-.828-1.5a10.694,10.694,0,0,1,2.2-1.025,8.485,8.485,0,0,1,2.84-.466,4.783,4.783,0,0,1,1.955.368A3.388,3.388,0,0,1,81.8-11.4a4.611,4.611,0,0,1,.771,1.622,8.072,8.072,0,0,1,.253,2.093V0H81.1l-.184-1.356h-.069A8.032,8.032,0,0,1,78.9-.156,5.51,5.51,0,0,1,76.682.3Zm.6-1.7A4.6,4.6,0,0,0,79-1.725,6.213,6.213,0,0,0,80.73-2.852v-3.7a22.266,22.266,0,0,0-2.748.334,5.865,5.865,0,0,0-1.737.586,2.123,2.123,0,0,0-.9.885,2.775,2.775,0,0,0-.253,1.23,1.963,1.963,0,0,0,.621,1.6A2.36,2.36,0,0,0,77.28-1.4ZM91.379.3A4.386,4.386,0,0,1,89.574-.12a6.522,6.522,0,0,1-1.76-1.188h-.069L87.561,0H85.882V-18.308h2.093v5.014l-.069,2.254a9.331,9.331,0,0,1,1.863-1.253,4.454,4.454,0,0,1,2.047-.518,4.8,4.8,0,0,1,2.15.46,4.388,4.388,0,0,1,1.564,1.288,5.776,5.776,0,0,1,.954,2,9.807,9.807,0,0,1,.322,2.6,8.573,8.573,0,0,1-.449,2.875,6.551,6.551,0,0,1-1.2,2.128A5.064,5.064,0,0,1,93.438-.149,4.879,4.879,0,0,1,91.379.3Zm-.345-1.771a3.045,3.045,0,0,0,1.438-.344,3.443,3.443,0,0,0,1.139-.975,4.631,4.631,0,0,0,.747-1.549,7.547,7.547,0,0,0,.265-2.088,8.9,8.9,0,0,0-.184-1.882,4.389,4.389,0,0,0-.575-1.457,2.71,2.71,0,0,0-1.012-.941,3.179,3.179,0,0,0-1.518-.333A3.486,3.486,0,0,0,89.7-10.6a7.975,7.975,0,0,0-1.725,1.285v6.54a5.075,5.075,0,0,0,1.633,1.021A4.322,4.322,0,0,0,91.034-1.472ZM99.176,0V-18.308h2.093V0Zm10.4.3a6.227,6.227,0,0,1-2.334-.437,5.351,5.351,0,0,1-1.9-1.277,6.123,6.123,0,0,1-1.276-2.059,7.6,7.6,0,0,1-.472-2.76,7.521,7.521,0,0,1,.473-2.737,6.468,6.468,0,0,1,1.256-2.07,5.5,5.5,0,0,1,1.809-1.311,5.1,5.1,0,0,1,2.109-.46,5.129,5.129,0,0,1,2.12.414,4.231,4.231,0,0,1,1.556,1.185,5.376,5.376,0,0,1,.968,1.852,8.158,8.158,0,0,1,.334,2.415q0,.345-.023.655a4.48,4.48,0,0,1-.069.541h-8.441a4.832,4.832,0,0,0,1.23,3.18,3.842,3.842,0,0,0,2.91,1.167,5.075,5.075,0,0,0,1.679-.265,6.4,6.4,0,0,0,1.449-.724l.759,1.385a9.741,9.741,0,0,1-1.84.921A6.439,6.439,0,0,1,109.572.3Zm2.783-7.521a4.457,4.457,0,0,0-.816-2.9,2.8,2.8,0,0,0-2.288-.989,3.173,3.173,0,0,0-1.277.264,3.422,3.422,0,0,0-1.092.759,4.114,4.114,0,0,0-.805,1.219,5.336,5.336,0,0,0-.414,1.644ZM127.006.3A6.867,6.867,0,0,1,124.1-.31a6.481,6.481,0,0,1-2.277-1.748,8.185,8.185,0,0,1-1.483-2.772,11.832,11.832,0,0,1-.529-3.657,11.613,11.613,0,0,1,.529-3.634,8.086,8.086,0,0,1,1.483-2.737,6.417,6.417,0,0,1,2.277-1.725,6.98,6.98,0,0,1,2.91-.6,6.98,6.98,0,0,1,2.91.6,6.417,6.417,0,0,1,2.277,1.725,8.085,8.085,0,0,1,1.483,2.737,11.613,11.613,0,0,1,.529,3.634,11.831,11.831,0,0,1-.529,3.657,8.185,8.185,0,0,1-1.483,2.772A6.481,6.481,0,0,1,129.915-.31,6.867,6.867,0,0,1,127.006.3Zm0-1.863a4.321,4.321,0,0,0,2.059-.494,4.656,4.656,0,0,0,1.587-1.391,6.7,6.7,0,0,0,1.012-2.174,10.644,10.644,0,0,0,.357-2.864,10.517,10.517,0,0,0-.357-2.852,6.577,6.577,0,0,0-1.012-2.151,4.474,4.474,0,0,0-1.587-1.357,4.492,4.492,0,0,0-2.059-.471,4.472,4.472,0,0,0-2.07.471,4.505,4.505,0,0,0-1.576,1.357,6.577,6.577,0,0,0-1.012,2.151,10.517,10.517,0,0,0-.357,2.852,10.644,10.644,0,0,0,.357,2.864A6.705,6.705,0,0,0,123.36-3.45a4.692,4.692,0,0,0,1.576,1.391A4.3,4.3,0,0,0,127.006-1.564ZM142.232.3a4.386,4.386,0,0,1-1.806-.419,6.522,6.522,0,0,1-1.759-1.188H138.6L138.414,0h-1.679V-18.308h2.093v5.014l-.069,2.254a9.331,9.331,0,0,1,1.863-1.253,4.454,4.454,0,0,1,2.047-.518,4.8,4.8,0,0,1,2.15.46,4.388,4.388,0,0,1,1.564,1.288,5.776,5.776,0,0,1,.954,2,9.807,9.807,0,0,1,.322,2.6,8.573,8.573,0,0,1-.449,2.875,6.551,6.551,0,0,1-1.2,2.128A5.064,5.064,0,0,1,144.29-.149,4.879,4.879,0,0,1,142.232.3Zm-.345-1.771a3.045,3.045,0,0,0,1.438-.344,3.443,3.443,0,0,0,1.138-.975,4.631,4.631,0,0,0,.748-1.549,7.548,7.548,0,0,0,.264-2.088,8.9,8.9,0,0,0-.184-1.882,4.389,4.389,0,0,0-.575-1.457,2.71,2.71,0,0,0-1.012-.941,3.179,3.179,0,0,0-1.518-.333,3.486,3.486,0,0,0-1.633.436,7.975,7.975,0,0,0-1.725,1.285v6.54a5.075,5.075,0,0,0,1.633,1.021A4.322,4.322,0,0,0,141.887-1.472ZM153.962.3a4.2,4.2,0,0,1-1.69-.3,2.734,2.734,0,0,1-1.092-.84,3.44,3.44,0,0,1-.6-1.311,7.385,7.385,0,0,1-.184-1.714v-6.923h-1.863v-1.587l1.955-.115.253-3.5h1.748v3.5h3.381v1.7H152.49v6.969a3.234,3.234,0,0,0,.414,1.794,1.692,1.692,0,0,0,1.518.621,2.808,2.808,0,0,0,.713-.1q.391-.1.713-.218l.414,1.564a10.873,10.873,0,0,1-1.127.322A5.206,5.206,0,0,1,153.962.3Zm6.67,0a4.061,4.061,0,0,1-1.449-.252,3.3,3.3,0,0,1-1.15-.723,3.338,3.338,0,0,1-.759-1.148A4.012,4.012,0,0,1,157-3.35a3.6,3.6,0,0,1,1.99-3.455A12.846,12.846,0,0,1,164.68-7.9a5.942,5.942,0,0,0-.115-1.17,2.822,2.822,0,0,0-.4-1.01,2.079,2.079,0,0,0-.794-.7,2.717,2.717,0,0,0-1.265-.264,6.322,6.322,0,0,0-2.116.357,7.431,7.431,0,0,0-1.748.863l-.828-1.5a10.694,10.694,0,0,1,2.2-1.025,8.485,8.485,0,0,1,2.84-.466,4.783,4.783,0,0,1,1.955.368A3.388,3.388,0,0,1,165.75-11.4a4.611,4.611,0,0,1,.771,1.622,8.073,8.073,0,0,1,.253,2.093V0h-1.725l-.184-1.356H164.8a8.032,8.032,0,0,1-1.943,1.2A5.51,5.51,0,0,1,160.632.3Zm.6-1.7a4.6,4.6,0,0,0,1.725-.322,6.213,6.213,0,0,0,1.725-1.127v-3.7a22.266,22.266,0,0,0-2.749.334,5.865,5.865,0,0,0-1.736.586,2.123,2.123,0,0,0-.9.885,2.775,2.775,0,0,0-.253,1.23,1.963,1.963,0,0,0,.621,1.6A2.36,2.36,0,0,0,161.23-1.4Zm8.6-11.086h2.093V0h-2.093Zm1.058-2.576a1.473,1.473,0,0,1-1.035-.38,1.266,1.266,0,0,1-.414-.977,1.249,1.249,0,0,1,.414-1,1.53,1.53,0,0,1,1.035-.357,1.53,1.53,0,0,1,1.035.357,1.249,1.249,0,0,1,.414,1,1.266,1.266,0,0,1-.414.977A1.473,1.473,0,0,1,170.89-15.065Zm4.347,2.576h1.725l.184,1.794h.069a11.134,11.134,0,0,1,1.9-1.495,4.249,4.249,0,0,1,2.288-.621,3.368,3.368,0,0,1,2.9,1.242,6.1,6.1,0,0,1,.92,3.657V0h-2.093V-7.636a4.46,4.46,0,0,0-.564-2.553,2.073,2.073,0,0,0-1.805-.782,3.144,3.144,0,0,0-1.725.483,10.444,10.444,0,0,0-1.7,1.426V0h-2.093ZM191.222.3a4.061,4.061,0,0,1-1.449-.252,3.3,3.3,0,0,1-1.15-.723,3.338,3.338,0,0,1-.759-1.148,4.012,4.012,0,0,1-.276-1.526,3.6,3.6,0,0,1,1.99-3.455A12.846,12.846,0,0,1,195.27-7.9a5.942,5.942,0,0,0-.115-1.17,2.822,2.822,0,0,0-.4-1.01,2.079,2.079,0,0,0-.794-.7,2.717,2.717,0,0,0-1.265-.264,6.322,6.322,0,0,0-2.116.357,7.431,7.431,0,0,0-1.748.863L188-11.32a10.694,10.694,0,0,1,2.2-1.025,8.485,8.485,0,0,1,2.84-.466,4.783,4.783,0,0,1,1.955.368A3.388,3.388,0,0,1,196.34-11.4a4.611,4.611,0,0,1,.771,1.622,8.073,8.073,0,0,1,.253,2.093V0h-1.725l-.184-1.356h-.069a8.032,8.032,0,0,1-1.943,1.2A5.51,5.51,0,0,1,191.222.3Zm.6-1.7a4.6,4.6,0,0,0,1.725-.322,6.213,6.213,0,0,0,1.725-1.127v-3.7a22.266,22.266,0,0,0-2.749.334,5.865,5.865,0,0,0-1.736.586,2.123,2.123,0,0,0-.9.885,2.775,2.775,0,0,0-.253,1.23,1.963,1.963,0,0,0,.621,1.6A2.36,2.36,0,0,0,191.82-1.4Zm14.1,1.7a4.386,4.386,0,0,1-1.806-.419,6.522,6.522,0,0,1-1.759-1.188h-.069L202.1,0h-1.679V-18.308h2.093v5.014l-.069,2.254a9.331,9.331,0,0,1,1.863-1.253,4.454,4.454,0,0,1,2.047-.518,4.8,4.8,0,0,1,2.15.46,4.388,4.388,0,0,1,1.564,1.288,5.776,5.776,0,0,1,.954,2,9.807,9.807,0,0,1,.322,2.6,8.573,8.573,0,0,1-.449,2.875,6.551,6.551,0,0,1-1.2,2.128,5.064,5.064,0,0,1-1.725,1.311A4.879,4.879,0,0,1,205.919.3Zm-.345-1.771a3.045,3.045,0,0,0,1.438-.344,3.443,3.443,0,0,0,1.138-.975A4.631,4.631,0,0,0,208.9-4.34a7.548,7.548,0,0,0,.264-2.088,8.9,8.9,0,0,0-.184-1.882,4.389,4.389,0,0,0-.575-1.457,2.71,2.71,0,0,0-1.012-.941,3.179,3.179,0,0,0-1.518-.333,3.486,3.486,0,0,0-1.633.436,7.975,7.975,0,0,0-1.725,1.285v6.54a5.075,5.075,0,0,0,1.633,1.021A4.322,4.322,0,0,0,205.574-1.472ZM213.716,0V-18.308h2.093V0Zm10.4.3a6.227,6.227,0,0,1-2.335-.437,5.351,5.351,0,0,1-1.9-1.277A6.123,6.123,0,0,1,218.6-3.473a7.6,7.6,0,0,1-.471-2.76A7.521,7.521,0,0,1,218.6-8.97a6.468,6.468,0,0,1,1.256-2.07,5.5,5.5,0,0,1,1.809-1.311,5.1,5.1,0,0,1,2.109-.46,5.129,5.129,0,0,1,2.12.414,4.231,4.231,0,0,1,1.556,1.185,5.376,5.376,0,0,1,.968,1.852,8.157,8.157,0,0,1,.334,2.415q0,.345-.023.655a4.479,4.479,0,0,1-.069.541h-8.441a4.832,4.832,0,0,0,1.23,3.18,3.842,3.842,0,0,0,2.91,1.167,5.075,5.075,0,0,0,1.679-.265,6.4,6.4,0,0,0,1.449-.724l.759,1.385a9.741,9.741,0,0,1-1.84.921A6.439,6.439,0,0,1,224.112.3ZM226.9-7.222a4.457,4.457,0,0,0-.816-2.9,2.8,2.8,0,0,0-2.289-.989,3.173,3.173,0,0,0-1.276.264,3.422,3.422,0,0,0-1.092.759,4.114,4.114,0,0,0-.805,1.219,5.337,5.337,0,0,0-.414,1.644Zm8.418-9.637h2.576l3.243,9.016q.3.874.587,1.76t.609,1.76h.115q.3-.874.575-1.76t.575-1.76l3.22-9.016h2.576V0h-2V-9.338q0-.552.023-1.184t.069-1.288q.046-.656.092-1.3t.092-1.2h-.092l-1.331,3.841L243.051-1.7h-1.423l-3.19-8.763-1.331-3.841h-.095q.023.552.07,1.2t.093,1.3q.047.656.07,1.288t.023,1.184V0h-1.955ZM255.737.3a4.061,4.061,0,0,1-1.449-.252,3.3,3.3,0,0,1-1.15-.723,3.338,3.338,0,0,1-.759-1.148A4.012,4.012,0,0,1,252.1-3.35a3.6,3.6,0,0,1,1.99-3.455,12.846,12.846,0,0,1,5.692-1.09,5.943,5.943,0,0,0-.115-1.17,2.821,2.821,0,0,0-.4-1.01,2.079,2.079,0,0,0-.794-.7,2.717,2.717,0,0,0-1.265-.264,6.322,6.322,0,0,0-2.116.357,7.431,7.431,0,0,0-1.748.863l-.828-1.5a10.694,10.694,0,0,1,2.2-1.025,8.485,8.485,0,0,1,2.84-.466,4.783,4.783,0,0,1,1.955.368,3.388,3.388,0,0,1,1.346,1.046,4.611,4.611,0,0,1,.77,1.622,8.072,8.072,0,0,1,.253,2.093V0h-1.725l-.184-1.356H259.9a8.032,8.032,0,0,1-1.944,1.2A5.51,5.51,0,0,1,255.737.3Zm.6-1.7a4.6,4.6,0,0,0,1.725-.322,6.212,6.212,0,0,0,1.725-1.127v-3.7a22.266,22.266,0,0,0-2.749.334,5.865,5.865,0,0,0-1.736.586,2.123,2.123,0,0,0-.9.885,2.775,2.775,0,0,0-.253,1.23,1.963,1.963,0,0,0,.621,1.6A2.36,2.36,0,0,0,256.335-1.4Zm8.6-11.086h1.725l.184,2.277h.069a6.112,6.112,0,0,1,1.576-1.9,3.153,3.153,0,0,1,1.966-.7,4.022,4.022,0,0,1,.725.057,2.081,2.081,0,0,1,.609.219L271.4-10.7a3.714,3.714,0,0,0-.575-.161,3.707,3.707,0,0,0-.644-.046,2.461,2.461,0,0,0-.817.149,2.854,2.854,0,0,0-.839.483,4.371,4.371,0,0,0-.805.885,5.9,5.9,0,0,0-.69,1.357V0h-2.093Zm8-5.819h2.07v12.42h.046l5.359-6.6h2.323l-4.186,5.014L283.291,0h-2.277l-3.657-6.026-2.346,2.737V0h-2.07ZM289.754.3a6.227,6.227,0,0,1-2.335-.437,5.351,5.351,0,0,1-1.9-1.277,6.123,6.123,0,0,1-1.276-2.059,7.6,7.6,0,0,1-.471-2.76,7.521,7.521,0,0,1,.473-2.737,6.468,6.468,0,0,1,1.256-2.07,5.5,5.5,0,0,1,1.809-1.311,5.1,5.1,0,0,1,2.109-.46,5.129,5.129,0,0,1,2.12.414,4.23,4.23,0,0,1,1.556,1.185,5.376,5.376,0,0,1,.968,1.852,8.157,8.157,0,0,1,.334,2.415q0,.345-.023.655a4.482,4.482,0,0,1-.069.541h-8.441a4.832,4.832,0,0,0,1.23,3.18,3.843,3.843,0,0,0,2.91,1.167,5.075,5.075,0,0,0,1.679-.265,6.4,6.4,0,0,0,1.449-.724l.759,1.385a9.741,9.741,0,0,1-1.84.921A6.438,6.438,0,0,1,289.754.3Zm2.783-7.521a4.457,4.457,0,0,0-.816-2.9,2.8,2.8,0,0,0-2.289-.989,3.173,3.173,0,0,0-1.276.264,3.421,3.421,0,0,0-1.092.759,4.114,4.114,0,0,0-.8,1.219,5.335,5.335,0,0,0-.414,1.644ZM300.472.3a4.2,4.2,0,0,1-1.691-.3,2.734,2.734,0,0,1-1.092-.84,3.44,3.44,0,0,1-.6-1.311,7.386,7.386,0,0,1-.184-1.714v-6.923h-1.863v-1.587L297-12.489l.253-3.5H299v3.5h3.381v1.7H299v6.969a3.234,3.234,0,0,0,.414,1.794,1.692,1.692,0,0,0,1.518.621,2.808,2.808,0,0,0,.713-.1q.391-.1.713-.218l.414,1.564a10.874,10.874,0,0,1-1.127.322A5.206,5.206,0,0,1,300.472.3Z" transform="translate(1017 16833)" fill="#bebebe"/>
    <text id="_5.5조" data-name="5.5조" transform="translate(646 16876)" fill="#fff" font-size="30" font-family="SpoqaHanSans-Bold, SpoqaHanSans" font-weight="700" letter-spacing="-0.04em"><tspan x="0" y="0">5.5</tspan><tspan y="0" font-family="SpoqaHanSans-Light, SpoqaHanSans" font-weight="300">조</tspan></text>
    <line id="선_505" data-name="선 505" x2="214" transform="translate(759.5 16719.5)" fill="none" stroke="#555" stroke-width="1" stroke-dasharray="5"/>
    <line id="선_506" data-name="선 506" x2="214" transform="translate(759.5 16865.5)" fill="none" stroke="#555" stroke-width="1" stroke-dasharray="5"/>
  </g>
</svg>
