<svg xmlns="http://www.w3.org/2000/svg" xmlns:xlink="http://www.w3.org/1999/xlink" width="1184" height="524" viewBox="0 0 1184 524">
  <defs>
    <filter id="사각형_1366" x="0" y="0" width="1184" height="524" filterUnits="userSpaceOnUse">
      <feOffset dy="17" input="SourceAlpha"/>
      <feGaussianBlur stdDeviation="14" result="blur"/>
      <feFlood flood-color="#97a9ce" flood-opacity="0.102"/>
      <feComposite operator="in" in2="blur"/>
      <feComposite in="SourceGraphic"/>
    </filter>
    <linearGradient id="linear-gradient" x1="-0.009" y1="0.5" x2="1" y2="0.5" gradientUnits="objectBoundingBox">
      <stop offset="0" stop-color="#f2f2f2"/>
      <stop offset="1" stop-color="#6498ff"/>
    </linearGradient>
    <filter id="Combined_Shape" x="320" y="142" width="170" height="146.087" filterUnits="userSpaceOnUse">
      <feOffset dy="5" input="SourceAlpha"/>
      <feGaussianBlur stdDeviation="8" result="blur-2"/>
      <feFlood flood-color="#4b556e" flood-opacity="0.2"/>
      <feComposite operator="in" in2="blur-2"/>
      <feComposite in="SourceGraphic"/>
    </filter>
    <filter id="Combined_Shape-2" x="694" y="142.407" width="170" height="146.087" filterUnits="userSpaceOnUse">
      <feOffset dy="5" input="SourceAlpha"/>
      <feGaussianBlur stdDeviation="8" result="blur-3"/>
      <feFlood flood-color="#4b556e" flood-opacity="0.2"/>
      <feComposite operator="in" in2="blur-3"/>
      <feComposite in="SourceGraphic"/>
    </filter>
    <filter id="Combined_Shape-3" x="507" y="142.41" width="170" height="146.087" filterUnits="userSpaceOnUse">
      <feOffset dy="5" input="SourceAlpha"/>
      <feGaussianBlur stdDeviation="8" result="blur-4"/>
      <feFlood flood-color="#4b556e" flood-opacity="0.2"/>
      <feComposite operator="in" in2="blur-4"/>
      <feComposite in="SourceGraphic"/>
    </filter>
  </defs>
  <g id="그룹_4437" data-name="그룹 4437" transform="translate(-368 -6486)">
    <g transform="matrix(1, 0, 0, 1, 368, 6486)" filter="url(#사각형_1366)">
      <rect id="사각형_1366-2" data-name="사각형 1366" width="1100" height="440" transform="translate(42 25)" fill="#fff"/>
    </g>
    <rect id="사각형_1373" data-name="사각형 1373" width="1100" height="72" transform="translate(410 6511)" fill="#1382ce"/>
    <path id="보유_코인팀_승리시_리워드" data-name="보유 코인팀 승리시 리워드" d="M7.074-10.854H17.712v-3.483H7.074Zm16.605,7.4V-.567H1.161V-3.456h9.45V-8.019H3.537V-21.006H7.074v3.861H17.712v-3.861h3.51V-8.019H14.175v4.563ZM36.112-18.873a9.074,9.074,0,0,0-3.911.7,2.2,2.2,0,0,0-1.448,2.025A2.189,2.189,0,0,0,32.2-14.108a9.23,9.23,0,0,0,3.911.689,9.135,9.135,0,0,0,3.9-.689,2.188,2.188,0,0,0,1.435-2.039,2.2,2.2,0,0,0-1.435-2.025A8.981,8.981,0,0,0,36.112-18.873Zm.014,8.289a15.772,15.772,0,0,1-3.645-.391A9.665,9.665,0,0,1,29.646-12.1,5.69,5.69,0,0,1,27.8-13.851a4.145,4.145,0,0,1-.662-2.3,4.145,4.145,0,0,1,.662-2.295A5.69,5.69,0,0,1,29.646-20.2a9.665,9.665,0,0,1,2.835-1.121,15.772,15.772,0,0,1,3.645-.391,15.82,15.82,0,0,1,3.632.391A9.655,9.655,0,0,1,42.606-20.2a5.691,5.691,0,0,1,1.849,1.755,4.145,4.145,0,0,1,.661,2.295,4.145,4.145,0,0,1-.661,2.3A5.691,5.691,0,0,1,42.606-12.1a9.654,9.654,0,0,1-2.849,1.121A15.819,15.819,0,0,1,36.126-10.584ZM47.439-5.832H42.228V2.3H38.61V-5.832H33.615V2.3H30V-5.832h-5.1V-8.721H47.439Zm23-8.64q.054-.864.067-1.647t.014-1.512H56.268v-2.835H74.034v2.187q0,1.134-.013,2.363T73.9-13.244q-.108,1.445-.338,3.146T72.9-6.345l-3.51-.432q.324-1.377.527-2.606t.311-2.363l-14.256.756-.459-3ZM76.221-3.429V-.54H53.73V-3.429h7.965v-5.94h3.564v5.94ZM98.172-4.671H94.554V-22.518h3.618ZM81.324-14.634a3,3,0,0,0,.958,2.363,3.394,3.394,0,0,0,2.336.851,3.332,3.332,0,0,0,2.336-.851,3.038,3.038,0,0,0,.931-2.363,3.072,3.072,0,0,0-.931-2.389,3.332,3.332,0,0,0-2.336-.851,3.394,3.394,0,0,0-2.336.851A3.028,3.028,0,0,0,81.324-14.634Zm10.044,0a6.143,6.143,0,0,1-.513,2.511,5.9,5.9,0,0,1-1.431,2,6.742,6.742,0,0,1-2.146,1.309,7.346,7.346,0,0,1-2.66.473,7.455,7.455,0,0,1-2.673-.473A6.55,6.55,0,0,1,79.8-10.125a6.15,6.15,0,0,1-1.431-2,6.008,6.008,0,0,1-.526-2.511,6.073,6.073,0,0,1,.526-2.538,6.151,6.151,0,0,1,1.431-2,6.55,6.55,0,0,1,2.146-1.309,7.455,7.455,0,0,1,2.673-.472,7.346,7.346,0,0,1,2.66.472,6.743,6.743,0,0,1,2.146,1.309,5.9,5.9,0,0,1,1.431,2A6.209,6.209,0,0,1,91.368-14.634Zm7.4,13.689V1.89H81.594V-6.426h3.564V-.945Zm17.82-8.586q-1.323.216-2.605.337T111.308-9q-1.39.067-3,.094t-3.577.027H102.6V-21.114h11.961v2.808h-8.424v1.89h7.695v2.754h-7.695v1.971q1.62,0,2.956-.04t2.551-.094q1.215-.054,2.336-.176t2.282-.283ZM108.864-.756h9.558V-3.969h-9.558Zm-3.51-5.994h16.578v8.8H105.354Zm16.578-15.768V-7.776h-3.618V-22.518Zm28.215,10.071a15.269,15.269,0,0,1-5.414-1.728,10.013,10.013,0,0,1-3.442-3.078,9.753,9.753,0,0,1-3.416,3.078,15.269,15.269,0,0,1-5.413,1.728l-1.3-2.781a15,15,0,0,0,3.632-.891,9.835,9.835,0,0,0,2.592-1.472,5.956,5.956,0,0,0,1.553-1.836,4.211,4.211,0,0,0,.513-1.958v-.729h3.672v.729a4.211,4.211,0,0,0,.513,1.958,6.027,6.027,0,0,0,1.539,1.836,9.553,9.553,0,0,0,2.592,1.472,15.224,15.224,0,0,0,3.645.891Zm-8.9,12.123q5.009,0,5.008-1.836T141.251-4q-5.009,0-5.008,1.836T141.251-.324Zm-.013-6.345a19.865,19.865,0,0,1,3.618.3,9.809,9.809,0,0,1,2.714.878,4.694,4.694,0,0,1,1.715,1.418,3.229,3.229,0,0,1,.594,1.917,3.29,3.29,0,0,1-.594,1.931A4.635,4.635,0,0,1,147.569,1.2a9.809,9.809,0,0,1-2.714.878,19.865,19.865,0,0,1-3.618.3,19.865,19.865,0,0,1-3.618-.3,9.61,9.61,0,0,1-2.7-.878,4.658,4.658,0,0,1-1.7-1.431,3.29,3.29,0,0,1-.594-1.931,3.229,3.229,0,0,1,.594-1.917,4.719,4.719,0,0,1,1.7-1.418,9.61,9.61,0,0,1,2.7-.878A19.865,19.865,0,0,1,141.237-6.669Zm11.286-4.455v2.808H130.059v-2.808Zm6.237,4.779q1.4,0,2.727-.054t2.592-.148q1.269-.094,2.524-.243t2.579-.365l.378,2.889q-1.512.27-2.983.432t-2.956.257q-1.485.094-3.024.135t-3.229.041h-2.225V-13.635h8.073V-17.6h-8.1v-2.835h11.718v9.612H158.76ZM174.5-22.572V2.376h-3.564V-22.572Zm12.717,5.562a15.4,15.4,0,0,0,.378,3.4,12.985,12.985,0,0,0,1.134,3.132,10.317,10.317,0,0,0,1.917,2.605A8.7,8.7,0,0,0,193.4-6.048l-2.025,2.889a9.739,9.739,0,0,1-3.6-2.74,13.884,13.884,0,0,1-2.281-4.064,14.466,14.466,0,0,1-2.349,4.428,10.277,10.277,0,0,1-3.753,2.97l-2.133-2.943a9.183,9.183,0,0,0,2.835-1.9,10.65,10.65,0,0,0,2-2.727,13.631,13.631,0,0,0,1.174-3.294,16.5,16.5,0,0,0,.391-3.578v-3.618h3.564Zm10.962-5.562V2.376h-3.564V-22.572ZM211.329-6.345q1.4,0,2.727-.054t2.592-.148q1.269-.094,2.524-.243t2.579-.365l.378,2.889q-1.512.27-2.984.432t-2.956.257q-1.485.094-3.024.135t-3.229.041h-2.225V-13.635h8.073V-17.6h-8.1v-2.835H219.4v9.612h-8.073ZM227.07-22.572V2.376h-3.564V-22.572ZM238.1-18.819a3.5,3.5,0,0,0-2.17.634,2.09,2.09,0,0,0-.841,1.769,2.081,2.081,0,0,0,.841,1.782,3.559,3.559,0,0,0,2.17.621,3.439,3.439,0,0,0,2.143-.621,2.107,2.107,0,0,0,.814-1.782,2.116,2.116,0,0,0-.814-1.769A3.387,3.387,0,0,0,238.1-18.819Zm.014,7.506a8.158,8.158,0,0,1-2.538-.378,6.367,6.367,0,0,1-2-1.039,4.71,4.71,0,0,1-1.309-1.607,4.583,4.583,0,0,1-.473-2.079,4.5,4.5,0,0,1,.473-2.066,4.886,4.886,0,0,1,1.309-1.607,6.209,6.209,0,0,1,2-1.053,8.158,8.158,0,0,1,2.538-.378,8.031,8.031,0,0,1,2.524.378,6.232,6.232,0,0,1,1.984,1.053,4.886,4.886,0,0,1,1.31,1.607,4.5,4.5,0,0,1,.473,2.066,4.583,4.583,0,0,1-.473,2.079,4.71,4.71,0,0,1-1.31,1.607,6.393,6.393,0,0,1-1.984,1.039A8.031,8.031,0,0,1,238.113-11.313Zm8.154,3.24q-1.647.3-3.281.473t-3.253.31V1.593h-3.564V-7.1q-1.539.054-2.97.068t-2.727.013l-.4-2.889q1.728,0,3.7-.014t4.036-.094q2.065-.081,4.158-.23t4.09-.418Zm4.941-14.472V2.3h-3.564V-3.132h-4.995v-2.7h4.995V-22.545Zm22.815,14.31h-17.5V-20.493h17.307V-17.6H260.091v6.534h13.932Zm2.4,4.671V-.648H253.908V-3.564Z" transform="translate(821.207 6558)" fill="#fff"/>
    <circle id="타원_101" data-name="타원 101" cx="97.5" cy="97.5" r="97.5" transform="translate(450 6646)" fill="#00b9ff"/>
    <circle id="타원_105" data-name="타원 105" cx="97.5" cy="97.5" r="97.5" transform="translate(1275 6646)" fill="#00b9ff"/>
    <text id="STAKING" transform="translate(490.152 6735)" fill="#fff" font-size="28" font-family="SpoqaHanSans-Bold, SpoqaHanSans" font-weight="700" letter-spacing="-0.04em"><tspan x="0" y="0">STAKING</tspan></text>
    <path id="맨유_승리시" data-name="맨유 승리시" d="M17.64-5.068H14.224V-22.9H17.64v6.8h2.044v-7.252h3.472V-4.228H19.684v-8.9H17.64ZM8.9-18.06H5.516v6.5H8.9ZM12.32-8.736H2.1V-20.888H12.32ZM23.828-.98V1.96h-18V-6.58h3.7v5.6ZM37.45-19.572a9.41,9.41,0,0,0-4.056.728,2.28,2.28,0,0,0-1.5,2.1,2.27,2.27,0,0,0,1.5,2.114,9.572,9.572,0,0,0,4.056.714,9.473,9.473,0,0,0,4.042-.714,2.269,2.269,0,0,0,1.488-2.114,2.279,2.279,0,0,0-1.488-2.1A9.314,9.314,0,0,0,37.45-19.572Zm.014,8.6a16.356,16.356,0,0,1-3.78-.406,10.023,10.023,0,0,1-2.94-1.162,5.9,5.9,0,0,1-1.918-1.82,4.3,4.3,0,0,1-.686-2.38,4.3,4.3,0,0,1,.686-2.38,5.9,5.9,0,0,1,1.918-1.82,10.023,10.023,0,0,1,2.94-1.162,16.356,16.356,0,0,1,3.78-.406,16.405,16.405,0,0,1,3.766.406,10.012,10.012,0,0,1,2.954,1.162,5.9,5.9,0,0,1,1.918,1.82,4.3,4.3,0,0,1,.686,2.38,4.3,4.3,0,0,1-.686,2.38,5.9,5.9,0,0,1-1.918,1.82,10.012,10.012,0,0,1-2.954,1.162A16.4,16.4,0,0,1,37.464-10.976ZM49.2-6.048h-5.4V2.38H40.04V-6.048H34.86V2.38H31.108V-6.048H25.816v-3H49.2Zm27.356-6.86A15.835,15.835,0,0,1,70.938-14.7a10.384,10.384,0,0,1-3.57-3.192A10.115,10.115,0,0,1,63.826-14.7a15.835,15.835,0,0,1-5.614,1.792l-1.344-2.884a15.556,15.556,0,0,0,3.766-.924,10.2,10.2,0,0,0,2.688-1.526,6.176,6.176,0,0,0,1.61-1.9,4.367,4.367,0,0,0,.532-2.03v-.756h3.808v.756a4.367,4.367,0,0,0,.532,2.03,6.25,6.25,0,0,0,1.6,1.9,9.907,9.907,0,0,0,2.688,1.526,15.788,15.788,0,0,0,3.78.924ZM67.326-.336q5.194,0,5.194-1.9t-5.194-1.9q-5.194,0-5.194,1.9T67.326-.336Zm-.014-6.58a20.6,20.6,0,0,1,3.752.308,10.172,10.172,0,0,1,2.814.91,4.868,4.868,0,0,1,1.778,1.47,3.349,3.349,0,0,1,.616,1.988,3.412,3.412,0,0,1-.616,2,4.806,4.806,0,0,1-1.778,1.484,10.172,10.172,0,0,1-2.814.91,20.6,20.6,0,0,1-3.752.308,20.6,20.6,0,0,1-3.752-.308,9.966,9.966,0,0,1-2.8-.91A4.831,4.831,0,0,1,59-.238a3.412,3.412,0,0,1-.616-2A3.349,3.349,0,0,1,59-4.228,4.893,4.893,0,0,1,60.76-5.7a9.966,9.966,0,0,1,2.8-.91A20.6,20.6,0,0,1,67.312-6.916Zm11.7-4.62v2.912H55.72v-2.912ZM85.484-6.58q1.456,0,2.828-.056T91-6.79q1.316-.1,2.618-.252t2.674-.378l.392,3q-1.568.28-3.094.448t-3.066.266q-1.54.1-3.136.14t-3.349.042H81.732V-14.14H90.1v-4.116H81.7V-21.2H93.856v9.968H85.484Zm16.324-16.828V2.464h-3.7V-23.408ZM115-17.64a15.967,15.967,0,0,0,.392,3.528,13.466,13.466,0,0,0,1.176,3.248,10.7,10.7,0,0,0,1.988,2.7,9.021,9.021,0,0,0,2.856,1.89l-2.1,3a10.1,10.1,0,0,1-3.738-2.842,14.4,14.4,0,0,1-2.366-4.214,15,15,0,0,1-2.436,4.592,10.658,10.658,0,0,1-3.892,3.08l-2.212-3.052a9.523,9.523,0,0,0,2.94-1.974,11.044,11.044,0,0,0,2.072-2.828,14.136,14.136,0,0,0,1.218-3.416,17.114,17.114,0,0,0,.406-3.71v-3.752H115Zm11.368-5.768V2.464h-3.7V-23.408Z" transform="translate(1308.222 6735)" fill="#fff"/>
    <g id="그룹" transform="translate(0 -233)">
      <path id="패스_2492" data-name="패스 2492" d="M9.468-1.332V0H2.34V-1.332H5.274v-9.5q0-.261.018-.459L2.9-9.144l-.882-1.062,3.546-3.06H6.876V-1.332ZM20.988-6.57a10.781,10.781,0,0,1-.379,3.042A6.482,6.482,0,0,1,19.581-1.4,4.055,4.055,0,0,1,18.049-.153a4.532,4.532,0,0,1-1.912.405,4.532,4.532,0,0,1-1.912-.405A4.127,4.127,0,0,1,12.684-1.4a6.252,6.252,0,0,1-1.028-2.124,11.029,11.029,0,0,1-.37-3.042,11.127,11.127,0,0,1,.37-3.051,6.246,6.246,0,0,1,1.028-2.133,4.127,4.127,0,0,1,1.542-1.251,4.532,4.532,0,0,1,1.912-.405,4.532,4.532,0,0,1,1.912.405,4.055,4.055,0,0,1,1.533,1.251,6.474,6.474,0,0,1,1.028,2.133A10.878,10.878,0,0,1,20.988-6.57Zm-1.674-.009a11.039,11.039,0,0,0-.261-2.605,5.181,5.181,0,0,0-.7-1.695,2.663,2.663,0,0,0-1.017-.92,2.73,2.73,0,0,0-1.206-.279,2.73,2.73,0,0,0-1.206.279,2.6,2.6,0,0,0-1.008.92,5.318,5.318,0,0,0-.693,1.695,11.039,11.039,0,0,0-.261,2.605,10.947,10.947,0,0,0,.261,2.587,5.436,5.436,0,0,0,.693,1.7,2.581,2.581,0,0,0,1.008.929,2.73,2.73,0,0,0,1.206.279,2.73,2.73,0,0,0,1.206-.279,2.643,2.643,0,0,0,1.017-.929,5.3,5.3,0,0,0,.7-1.7A10.947,10.947,0,0,0,19.314-6.579Zm12.4.009a10.781,10.781,0,0,1-.379,3.042A6.482,6.482,0,0,1,30.309-1.4,4.055,4.055,0,0,1,28.777-.153a4.532,4.532,0,0,1-1.912.405,4.532,4.532,0,0,1-1.912-.405A4.127,4.127,0,0,1,23.412-1.4a6.252,6.252,0,0,1-1.028-2.124,11.028,11.028,0,0,1-.37-3.042,11.127,11.127,0,0,1,.37-3.051,6.246,6.246,0,0,1,1.028-2.133,4.127,4.127,0,0,1,1.542-1.251,4.532,4.532,0,0,1,1.912-.405,4.532,4.532,0,0,1,1.912.405,4.055,4.055,0,0,1,1.533,1.251,6.474,6.474,0,0,1,1.028,2.133A10.878,10.878,0,0,1,31.716-6.57Zm-1.674-.009a11.039,11.039,0,0,0-.261-2.605,5.181,5.181,0,0,0-.7-1.695,2.663,2.663,0,0,0-1.017-.92,2.73,2.73,0,0,0-1.206-.279,2.73,2.73,0,0,0-1.206.279,2.6,2.6,0,0,0-1.008.92,5.318,5.318,0,0,0-.693,1.695,11.039,11.039,0,0,0-.261,2.605,10.947,10.947,0,0,0,.261,2.587,5.436,5.436,0,0,0,.693,1.7,2.581,2.581,0,0,0,1.008.929,2.73,2.73,0,0,0,1.206.279,2.73,2.73,0,0,0,1.206-.279,2.643,2.643,0,0,0,1.017-.929,5.3,5.3,0,0,0,.7-1.7A10.947,10.947,0,0,0,30.042-6.579Zm9.738-5.607H35.262v5.13H39.78ZM41.238-5.9H33.8v-7.47h7.434ZM37.1-.234h9.288V.972H35.622V-4.1H37.1ZM48.06-9.9v1.242H45.666v5.652H44.19V-14.832h1.476V-9.9ZM61.434-5.274v-9.54H62.91V-2.52H61.434V-4.176H58.158v-1.1Zm-6.57-7.794A3.336,3.336,0,0,0,53-12.6a1.427,1.427,0,0,0-.711,1.242A1.441,1.441,0,0,0,53-10.1a3.336,3.336,0,0,0,1.863.468,3.336,3.336,0,0,0,1.863-.468,1.441,1.441,0,0,0,.711-1.26,1.427,1.427,0,0,0-.711-1.242A3.336,3.336,0,0,0,54.864-13.068Zm0,4.536a6.139,6.139,0,0,1-1.611-.2,4.048,4.048,0,0,1-1.26-.567,2.627,2.627,0,0,1-.819-.891,2.381,2.381,0,0,1-.288-1.17,2.345,2.345,0,0,1,.288-1.152,2.627,2.627,0,0,1,.819-.891,4.048,4.048,0,0,1,1.26-.567,6.139,6.139,0,0,1,1.611-.2,6.139,6.139,0,0,1,1.611.2,4.048,4.048,0,0,1,1.26.567,2.627,2.627,0,0,1,.819.891,2.345,2.345,0,0,1,.288,1.152,2.381,2.381,0,0,1-.288,1.17,2.627,2.627,0,0,1-.819.891,4.048,4.048,0,0,1-1.26.567A6.139,6.139,0,0,1,54.864-8.532ZM54.288-6.21q-1.206.054-2.34.072t-2.142.018l-.2-1.206q1.116,0,2.4-.009T54.648-7.4q1.35-.054,2.718-.144t2.646-.252l.126,1.059q-1.08.161-2.178.278t-2.2.188V-3.1H54.288ZM63.324-.234V.972H51.912v-4.7h1.476V-.234Z" transform="translate(515.348 6997)" fill="#fff"/>
      <path id="패스_2491" data-name="패스 2491" d="M1.8-13.194H3.816L6.354-6.138q.234.684.459,1.377T7.29-3.384h.09q.234-.684.45-1.377t.45-1.377l2.52-7.056h2.016V0H11.25V-7.308q0-.432.018-.927t.054-1.008q.036-.513.072-1.017t.072-.936h-.072L10.352-8.19l-2.5,6.858H6.742L4.246-8.19,3.2-11.2H3.13q.018.432.055.936t.073,1.017q.036.513.055,1.008t.018.927V0H1.8Zm14.616,0h1.728L22.95-4.878l1.4,2.718h.09q-.072-1.008-.144-2.079t-.072-2.1v-6.858h1.584V0H24.1L19.3-8.321l-1.422-2.714H17.8q.054,1.006.126,2.04T18-6.919V0H16.416ZM34.092.234A5.886,5.886,0,0,1,32.22-.054a3.618,3.618,0,0,1-1.5-.963,4.647,4.647,0,0,1-1-1.755,8.579,8.579,0,0,1-.36-2.682v-7.74h1.674V-5.4a7.2,7.2,0,0,0,.234,1.989,3.454,3.454,0,0,0,.648,1.287,2.331,2.331,0,0,0,.972.693,3.44,3.44,0,0,0,1.206.207,3.646,3.646,0,0,0,1.242-.207,2.375,2.375,0,0,0,1-.693A3.469,3.469,0,0,0,37-3.411,6.95,6.95,0,0,0,37.242-5.4v-7.794h1.6v7.74a8.579,8.579,0,0,1-.36,2.682,4.647,4.647,0,0,1-1,1.755,3.61,3.61,0,0,1-1.512.963A5.969,5.969,0,0,1,34.092.234Zm17.316,0a5.636,5.636,0,0,1-2.277-.459A5.138,5.138,0,0,1,47.3-1.566,6.29,6.29,0,0,1,46.1-3.717a8.882,8.882,0,0,1-.432-2.871,8.716,8.716,0,0,1,.441-2.871,6.423,6.423,0,0,1,1.224-2.16,5.23,5.23,0,0,1,1.854-1.359,5.758,5.758,0,0,1,2.331-.468,4.66,4.66,0,0,1,1.134.135,4.7,4.7,0,0,1,1,.369,5.123,5.123,0,0,1,.828.522,4.952,4.952,0,0,1,.657.612l-.9,1.08a4.529,4.529,0,0,0-1.179-.909,3.179,3.179,0,0,0-1.521-.351,3.864,3.864,0,0,0-1.7.369,3.729,3.729,0,0,0-1.314,1.062,4.985,4.985,0,0,0-.846,1.683,7.761,7.761,0,0,0-.3,2.232,8.182,8.182,0,0,0,.288,2.25,5.15,5.15,0,0,0,.819,1.71A3.642,3.642,0,0,0,49.77-1.6a3.771,3.771,0,0,0,1.71.378,3.523,3.523,0,0,0,1.692-.4A5.217,5.217,0,0,0,54.54-2.7l.918,1.044a5.661,5.661,0,0,1-1.773,1.4A5.068,5.068,0,0,1,51.408.234Zm10.152,0a4.417,4.417,0,0,1-1.719-.342,4.27,4.27,0,0,1-1.449-1,4.81,4.81,0,0,1-1-1.6,5.933,5.933,0,0,1-.369-2.169,6.005,6.005,0,0,1,.369-2.178,4.894,4.894,0,0,1,1-1.62,4.213,4.213,0,0,1,1.449-1.008,4.417,4.417,0,0,1,1.719-.342,4.417,4.417,0,0,1,1.719.342,4.213,4.213,0,0,1,1.449,1.008,4.894,4.894,0,0,1,1,1.62A6.005,6.005,0,0,1,66.1-4.878a5.933,5.933,0,0,1-.369,2.169,4.81,4.81,0,0,1-1,1.6,4.27,4.27,0,0,1-1.449,1A4.417,4.417,0,0,1,61.56.234Zm0-1.386a2.479,2.479,0,0,0,1.152-.269,2.707,2.707,0,0,0,.9-.752A3.533,3.533,0,0,0,64.2-3.346,5.316,5.316,0,0,0,64.4-4.878,5.316,5.316,0,0,0,64.2-6.41,3.751,3.751,0,0,0,63.612-7.6a2.627,2.627,0,0,0-.9-.77A2.479,2.479,0,0,0,61.56-8.64a2.479,2.479,0,0,0-1.152.269,2.545,2.545,0,0,0-.891.77,3.868,3.868,0,0,0-.576,1.191,5.316,5.316,0,0,0-.207,1.532,5.316,5.316,0,0,0,.207,1.532,3.639,3.639,0,0,0,.576,1.173,2.619,2.619,0,0,0,.891.752A2.479,2.479,0,0,0,61.56-1.152Zm7.11-8.622h1.638V0H68.67ZM69.5-11.79a1.153,1.153,0,0,1-.81-.3.991.991,0,0,1-.324-.765.978.978,0,0,1,.324-.783,1.2,1.2,0,0,1,.81-.279,1.2,1.2,0,0,1,.81.279.978.978,0,0,1,.324.783.991.991,0,0,1-.324.765A1.153,1.153,0,0,1,69.5-11.79ZM73.62-9.774h1.35l.144,1.4h.054a8.713,8.713,0,0,1,1.485-1.17,3.326,3.326,0,0,1,1.791-.486,2.636,2.636,0,0,1,2.268.972,4.771,4.771,0,0,1,.72,2.862V0H79.794V-5.976a3.491,3.491,0,0,0-.441-2,1.623,1.623,0,0,0-1.413-.612,2.461,2.461,0,0,0-1.35.378,8.173,8.173,0,0,0-1.332,1.116V0H73.62ZM91.134-6.606h8.244v-2.97H91.134Zm11.43,4.662V-.738H87.948V-1.944H94.5V-5.418H89.676v-8.244h1.458v2.88h8.244v-2.88h1.458v8.244h-4.86v3.474Zm9.225-11.034a7.97,7.97,0,0,0-1.67.162,4.675,4.675,0,0,0-1.3.468,2.484,2.484,0,0,0-.844.729,1.638,1.638,0,0,0-.3.963,1.679,1.679,0,0,0,.3.972,2.441,2.441,0,0,0,.844.738,4.675,4.675,0,0,0,1.3.468,7.969,7.969,0,0,0,1.67.162,8.1,8.1,0,0,0,1.679-.162,4.67,4.67,0,0,0,1.311-.468,2.441,2.441,0,0,0,.844-.738,1.679,1.679,0,0,0,.3-.972,1.638,1.638,0,0,0-.3-.963,2.484,2.484,0,0,0-.844-.729,4.67,4.67,0,0,0-1.311-.468A8.1,8.1,0,0,0,111.789-12.978Zm0,5.85a10.083,10.083,0,0,1-2.3-.243,6.022,6.022,0,0,1-1.785-.7,3.431,3.431,0,0,1-1.154-1.116,2.736,2.736,0,0,1-.406-1.467,2.691,2.691,0,0,1,.406-1.458,3.466,3.466,0,0,1,1.154-1.107,6.022,6.022,0,0,1,1.785-.7,10.083,10.083,0,0,1,2.3-.243,10.2,10.2,0,0,1,2.308.243,5.894,5.894,0,0,1,1.785.7,3.583,3.583,0,0,1,1.154,1.107,2.647,2.647,0,0,1,.415,1.458,2.692,2.692,0,0,1-.415,1.467,3.545,3.545,0,0,1-1.154,1.116,5.894,5.894,0,0,1-1.785.7A10.2,10.2,0,0,1,111.789-7.128Zm7.317,2.718H115.29V1.332h-1.476V-4.41h-4.068V1.332H108.27V-4.41h-3.762V-5.616h14.6Z" transform="translate(487.943 7017)" fill="#fff"/>
    </g>
    <g id="그룹-2" data-name="그룹" transform="translate(0 -233)">
      <path id="패스_2497" data-name="패스 2497" d="M4.338-6.03H.684V-7.236H4.338V-11.16H5.652v3.924H9.306V-6.03H5.652v3.942H4.338ZM16.974-4.788v-5.523q0-.235.018-.532t.054-.587l-4.86,6.624Zm3.456,0V-3.51h-2V0H16.974V-3.51H10.386V-4.734l6.5-8.6h1.548v8.55Zm5.616,3.636a3.241,3.241,0,0,0,1.2-.216,2.706,2.706,0,0,0,.936-.6,2.792,2.792,0,0,0,.6-.9A2.87,2.87,0,0,0,29-4a3.15,3.15,0,0,0-.207-1.17,2.561,2.561,0,0,0-.594-.9,2.5,2.5,0,0,0-.909-.567,3.307,3.307,0,0,0-1.134-.189,3.041,3.041,0,0,0-1.2.225,2.862,2.862,0,0,0-.918.612,2.565,2.565,0,0,0-.585.9,2.9,2.9,0,0,0-.2,1.053,3.419,3.419,0,0,0,.189,1.17,2.635,2.635,0,0,0,.549.909,2.4,2.4,0,0,0,.873.594A3.132,3.132,0,0,0,26.046-1.152ZM25.061-8.28q-.467.648-.629.864a4.2,4.2,0,0,1,1.046-.5A3.985,3.985,0,0,1,26.7-8.1a4.472,4.472,0,0,1,1.533.261,3.586,3.586,0,0,1,1.263.774,3.687,3.687,0,0,1,.857,1.26,4.287,4.287,0,0,1,.316,1.683A4.34,4.34,0,0,1,30.338-2.4,4.248,4.248,0,0,1,29.4-1.026,4.25,4.25,0,0,1,27.94-.1a5.059,5.059,0,0,1-1.849.333,4.927,4.927,0,0,1-1.84-.324,3.953,3.953,0,0,1-1.389-.918,4.1,4.1,0,0,1-.893-1.431A5.246,5.246,0,0,1,21.654-4.3a5.219,5.219,0,0,1,.387-1.881,8.906,8.906,0,0,1,1.251-2.133l3.672-4.95h2.07Zm7.393,5.994h1.782l-1.1,3.636H31.806Zm12.8-4.284a10.781,10.781,0,0,1-.379,3.042A6.482,6.482,0,0,1,43.845-1.4,4.055,4.055,0,0,1,42.313-.153,4.532,4.532,0,0,1,40.4.252a4.532,4.532,0,0,1-1.912-.405A4.127,4.127,0,0,1,36.948-1.4,6.252,6.252,0,0,1,35.92-3.528a11.028,11.028,0,0,1-.37-3.042,11.127,11.127,0,0,1,.37-3.051,6.246,6.246,0,0,1,1.028-2.133,4.127,4.127,0,0,1,1.542-1.251A4.532,4.532,0,0,1,40.4-13.41a4.532,4.532,0,0,1,1.912.405,4.055,4.055,0,0,1,1.533,1.251,6.474,6.474,0,0,1,1.028,2.133A10.877,10.877,0,0,1,45.252-6.57Zm-1.674-.009a11.039,11.039,0,0,0-.261-2.605,5.181,5.181,0,0,0-.7-1.695A2.663,2.663,0,0,0,41.6-11.8a2.73,2.73,0,0,0-1.206-.279,2.73,2.73,0,0,0-1.206.279,2.6,2.6,0,0,0-1.008.92,5.318,5.318,0,0,0-.693,1.695,11.039,11.039,0,0,0-.261,2.605,10.947,10.947,0,0,0,.261,2.587,5.436,5.436,0,0,0,.693,1.7,2.581,2.581,0,0,0,1.008.929,2.73,2.73,0,0,0,1.206.279A2.73,2.73,0,0,0,41.6-1.359a2.643,2.643,0,0,0,1.017-.929,5.3,5.3,0,0,0,.7-1.7A10.947,10.947,0,0,0,43.578-6.579Zm12.4.009A10.781,10.781,0,0,1,55.6-3.528,6.482,6.482,0,0,1,54.573-1.4,4.055,4.055,0,0,1,53.041-.153a4.532,4.532,0,0,1-1.912.405,4.532,4.532,0,0,1-1.912-.405A4.127,4.127,0,0,1,47.676-1.4a6.252,6.252,0,0,1-1.028-2.124,11.028,11.028,0,0,1-.37-3.042,11.127,11.127,0,0,1,.37-3.051,6.246,6.246,0,0,1,1.028-2.133,4.127,4.127,0,0,1,1.542-1.251,4.532,4.532,0,0,1,1.912-.405,4.532,4.532,0,0,1,1.912.405,4.055,4.055,0,0,1,1.533,1.251A6.474,6.474,0,0,1,55.6-9.621,10.877,10.877,0,0,1,55.98-6.57Zm-1.674-.009a11.039,11.039,0,0,0-.261-2.605,5.181,5.181,0,0,0-.7-1.695,2.663,2.663,0,0,0-1.017-.92,2.73,2.73,0,0,0-1.206-.279,2.73,2.73,0,0,0-1.206.279,2.6,2.6,0,0,0-1.008.92,5.318,5.318,0,0,0-.693,1.695,11.039,11.039,0,0,0-.261,2.605,10.947,10.947,0,0,0,.261,2.587,5.436,5.436,0,0,0,.693,1.7,2.581,2.581,0,0,0,1.008.929,2.73,2.73,0,0,0,1.206.279,2.73,2.73,0,0,0,1.206-.279,2.643,2.643,0,0,0,1.017-.929,5.3,5.3,0,0,0,.7-1.7A10.947,10.947,0,0,0,54.306-6.579Zm12.4.009a10.781,10.781,0,0,1-.379,3.042A6.482,6.482,0,0,1,65.3-1.4,4.055,4.055,0,0,1,63.769-.153a4.532,4.532,0,0,1-1.912.405,4.532,4.532,0,0,1-1.912-.405A4.127,4.127,0,0,1,58.4-1.4a6.252,6.252,0,0,1-1.028-2.124,11.028,11.028,0,0,1-.37-3.042,11.127,11.127,0,0,1,.37-3.051A6.246,6.246,0,0,1,58.4-11.754a4.127,4.127,0,0,1,1.542-1.251,4.532,4.532,0,0,1,1.912-.405,4.532,4.532,0,0,1,1.912.405A4.055,4.055,0,0,1,65.3-11.754a6.474,6.474,0,0,1,1.028,2.133A10.878,10.878,0,0,1,66.708-6.57Zm-1.674-.009a11.039,11.039,0,0,0-.261-2.605,5.182,5.182,0,0,0-.7-1.695,2.663,2.663,0,0,0-1.017-.92,2.73,2.73,0,0,0-1.206-.279,2.73,2.73,0,0,0-1.206.279,2.6,2.6,0,0,0-1.008.92,5.318,5.318,0,0,0-.693,1.695,11.039,11.039,0,0,0-.261,2.605,10.947,10.947,0,0,0,.261,2.587,5.436,5.436,0,0,0,.693,1.7,2.581,2.581,0,0,0,1.008.929,2.73,2.73,0,0,0,1.206.279,2.73,2.73,0,0,0,1.206-.279,2.643,2.643,0,0,0,1.017-.929,5.3,5.3,0,0,0,.7-1.7A10.947,10.947,0,0,0,65.034-6.579Zm14.832,1.3v-9.54h1.476V-2.52H79.866V-4.176H76.59v-1.1ZM73.3-13.068a3.336,3.336,0,0,0-1.863.468,1.427,1.427,0,0,0-.711,1.242,1.441,1.441,0,0,0,.711,1.26A3.336,3.336,0,0,0,73.3-9.63a3.336,3.336,0,0,0,1.863-.468,1.441,1.441,0,0,0,.711-1.26,1.427,1.427,0,0,0-.711-1.242A3.336,3.336,0,0,0,73.3-13.068Zm0,4.536a6.139,6.139,0,0,1-1.611-.2,4.048,4.048,0,0,1-1.26-.567,2.627,2.627,0,0,1-.819-.891,2.381,2.381,0,0,1-.288-1.17,2.345,2.345,0,0,1,.288-1.152,2.627,2.627,0,0,1,.819-.891,4.048,4.048,0,0,1,1.26-.567,6.139,6.139,0,0,1,1.611-.2,6.139,6.139,0,0,1,1.611.2,4.048,4.048,0,0,1,1.26.567,2.627,2.627,0,0,1,.819.891,2.345,2.345,0,0,1,.288,1.152,2.381,2.381,0,0,1-.288,1.17,2.627,2.627,0,0,1-.819.891,4.048,4.048,0,0,1-1.26.567A6.139,6.139,0,0,1,73.3-8.532ZM72.72-6.21q-1.206.054-2.34.072t-2.142.018l-.2-1.206q1.116,0,2.4-.009T73.08-7.4q1.35-.054,2.718-.144t2.646-.252l.126,1.059q-1.08.161-2.178.278t-2.2.188V-3.1H72.72ZM81.756-.234V.972H70.344v-4.7H71.82V-.234Z" transform="translate(1331.132 6997)" fill="#fff"/>
      <path id="패스_2496" data-name="패스 2496" d="M3.474-6.93H5.688a3.878,3.878,0,0,0,2.385-.626,2.275,2.275,0,0,0,.819-1.931,2.027,2.027,0,0,0-.819-1.85,4.44,4.44,0,0,0-2.385-.526H3.474ZM9.066,0,5.857-5.6H3.474V0H1.8V-13.194H5.948a8.541,8.541,0,0,1,1.858.189,3.936,3.936,0,0,1,1.461.63,2.993,2.993,0,0,1,.956,1.152,3.979,3.979,0,0,1,.343,1.737,3.566,3.566,0,0,1-.821,2.467A4.11,4.11,0,0,1,7.572-5.775L10.956,0Zm7.962.234A4.873,4.873,0,0,1,15.2-.108a4.187,4.187,0,0,1-1.485-1,4.792,4.792,0,0,1-1-1.611,5.951,5.951,0,0,1-.369-2.16,5.886,5.886,0,0,1,.37-2.142A5.062,5.062,0,0,1,13.7-8.64a4.3,4.3,0,0,1,1.416-1.026,3.994,3.994,0,0,1,1.651-.36,4.014,4.014,0,0,1,1.66.324,3.311,3.311,0,0,1,1.218.927A4.207,4.207,0,0,1,20.4-7.326a6.384,6.384,0,0,1,.262,1.89q0,.27-.018.513a3.505,3.505,0,0,1-.054.423H13.986a3.781,3.781,0,0,0,.963,2.489,3.007,3.007,0,0,0,2.277.913,3.971,3.971,0,0,0,1.314-.207,5.012,5.012,0,0,0,1.134-.567l.594,1.084a7.623,7.623,0,0,1-1.44.721A5.039,5.039,0,0,1,17.028.234Zm2.178-5.886a3.488,3.488,0,0,0-.639-2.268,2.193,2.193,0,0,0-1.791-.774,2.483,2.483,0,0,0-1,.207,2.678,2.678,0,0,0-.855.594,3.22,3.22,0,0,0-.63.954,4.176,4.176,0,0,0-.324,1.287Zm2.682-4.122h1.674L25.02-4.122q.144.7.288,1.377T25.6-1.386h.09q.162-.684.315-1.368t.351-1.368l1.512-5.652h1.6L31-4.122q.18.7.342,1.377t.342,1.359h.072q.162-.684.306-1.359t.306-1.377L33.8-9.774h1.548L32.724,0h-1.98L29.322-5.274q-.2-.684-.342-1.368t-.324-1.44h-.09q-.162.756-.315,1.449t-.351,1.4L26.532,0H24.606ZM39.726.234a3.178,3.178,0,0,1-1.134-.2,2.582,2.582,0,0,1-.9-.566,2.612,2.612,0,0,1-.594-.9,3.14,3.14,0,0,1-.216-1.194,2.819,2.819,0,0,1,1.557-2.7,10.053,10.053,0,0,1,4.455-.853A4.651,4.651,0,0,0,42.8-7.1a2.208,2.208,0,0,0-.315-.79,1.627,1.627,0,0,0-.621-.548,2.126,2.126,0,0,0-.99-.207,4.947,4.947,0,0,0-1.656.279,5.816,5.816,0,0,0-1.368.675l-.648-1.173a8.369,8.369,0,0,1,1.719-.8,6.64,6.64,0,0,1,2.223-.365,3.743,3.743,0,0,1,1.53.288,2.651,2.651,0,0,1,1.053.819,3.609,3.609,0,0,1,.6,1.269,6.317,6.317,0,0,1,.2,1.638V0h-1.35l-.144-1.061h-.054a6.286,6.286,0,0,1-1.521.94A4.312,4.312,0,0,1,39.726.234ZM40.194-1.1a3.6,3.6,0,0,0,1.35-.252,4.862,4.862,0,0,0,1.35-.882v-2.9a17.426,17.426,0,0,0-2.151.261,4.59,4.59,0,0,0-1.359.459,1.661,1.661,0,0,0-.7.693,2.172,2.172,0,0,0-.2.963A1.536,1.536,0,0,0,38.97-1.5,1.847,1.847,0,0,0,40.194-1.1Zm7.452-8.676H49l.144,1.782h.054a4.784,4.784,0,0,1,1.233-1.485,2.468,2.468,0,0,1,1.539-.549,3.147,3.147,0,0,1,.567.045,1.629,1.629,0,0,1,.477.171L52.7-8.37a2.906,2.906,0,0,0-.45-.126,2.9,2.9,0,0,0-.5-.036,1.926,1.926,0,0,0-.639.117,2.234,2.234,0,0,0-.657.378,3.421,3.421,0,0,0-.63.693,4.614,4.614,0,0,0-.54,1.062V0H47.646ZM57.96.234a3.953,3.953,0,0,1-1.665-.342,3.459,3.459,0,0,1-1.269-.99,4.678,4.678,0,0,1-.81-1.6,7.54,7.54,0,0,1-.288-2.178,6.169,6.169,0,0,1,.351-2.142,5.184,5.184,0,0,1,.927-1.62,4.027,4.027,0,0,1,1.341-1.026,3.738,3.738,0,0,1,1.611-.36,3.329,3.329,0,0,1,1.485.306,6.478,6.478,0,0,1,1.269.846l-.09-1.692v-3.762H62.46V0H61.128l-.162-1.152H60.93A5.627,5.627,0,0,1,59.6-.171,3.415,3.415,0,0,1,57.96.234Zm.36-1.386a2.627,2.627,0,0,0,1.287-.332A4.771,4.771,0,0,0,60.822-2.5V-7.617a4.378,4.378,0,0,0-1.2-.79,3.068,3.068,0,0,0-1.179-.233,2.346,2.346,0,0,0-1.107.269,2.785,2.785,0,0,0-.9.763,3.68,3.68,0,0,0-.6,1.185,5.068,5.068,0,0,0-.216,1.517,4.714,4.714,0,0,0,.7,2.765A2.305,2.305,0,0,0,58.32-1.152Z" transform="translate(1340.933 7017)" fill="#fff"/>
    </g>
    <g id="그룹_4089" data-name="그룹 4089" transform="translate(682 6761)">
      <rect id="사각형_1372" data-name="사각형 1372" width="539" height="6" transform="translate(0 9)" fill="url(#linear-gradient)"/>
      <path id="다각형_22" data-name="다각형 22" d="M12,0,24,17H0Z" transform="translate(556) rotate(90)" fill="#6498ff"/>
    </g>
    <g transform="matrix(1, 0, 0, 1, 368, 6486)" filter="url(#Combined_Shape)">
      <path id="Combined_Shape-4" data-name="Combined Shape" d="M48.471,87.534H8a8,8,0,0,1-8-8V8A8,8,0,0,1,8,0H114a8,8,0,0,1,8,8V79.534a8,8,0,0,1-8,8H73.529L61,98.087Z" transform="translate(344 161)" fill="#fff"/>
    </g>
    <path id="패스_2493" data-name="패스 2493" d="M11.572-1.628V0H2.86V-1.628H6.446V-13.233q0-.319.022-.561L3.542-11.176l-1.078-1.3L6.8-16.214H8.4V-1.628Zm17.974-8.624a12.292,12.292,0,0,1-2.233-.561,11.986,11.986,0,0,1-2.035-.935,9.351,9.351,0,0,1-1.708-1.265,6.44,6.44,0,0,1-1.229-1.551A6.09,6.09,0,0,1,21.112-13,9.653,9.653,0,0,1,19.4-11.748a11.842,11.842,0,0,1-2.046.935,12.561,12.561,0,0,1-2.244.561l-.66-1.408a12.547,12.547,0,0,0,2.574-.671A9.64,9.64,0,0,0,19.25-13.5a6.316,6.316,0,0,0,1.562-1.562,3.2,3.2,0,0,0,.594-1.837v-.88h1.87v.88a3.12,3.12,0,0,0,.594,1.8,6.5,6.5,0,0,0,1.573,1.562,10,10,0,0,0,2.222,1.188,11.912,11.912,0,0,0,2.563.682ZM22.319.22a9.707,9.707,0,0,0,3.627-.539q1.29-.539,1.29-1.573,0-1.012-1.29-1.562A9.531,9.531,0,0,0,22.319-4a9.693,9.693,0,0,0-3.66.55q-1.3.55-1.3,1.562,0,1.034,1.3,1.573A9.873,9.873,0,0,0,22.319.22Zm0-5.632a11.068,11.068,0,0,1,4.942.9A2.827,2.827,0,0,1,29.04-1.9a2.548,2.548,0,0,1-.461,1.512A3.659,3.659,0,0,1,27.25.712a7.564,7.564,0,0,1-2.109.684,15.48,15.48,0,0,1-2.822.232A11.1,11.1,0,0,1,17.355.712a2.849,2.849,0,0,1-1.8-2.615,2.513,2.513,0,0,1,.461-1.49,3.64,3.64,0,0,1,1.34-1.1,7.728,7.728,0,0,1,2.13-.684A15.663,15.663,0,0,1,22.319-5.412ZM31.24-8.69v1.474H13.4V-8.69Z" transform="translate(757 6701)" fill="#1382ce"/>
    <g id="타원_106" data-name="타원 106" transform="translate(757 6756)" fill="#fff" stroke="#6498ff" stroke-width="8">
      <circle cx="16.5" cy="16.5" r="16.5" stroke="none"/>
      <circle cx="16.5" cy="16.5" r="12.5" fill="none"/>
    </g>
    <rect id="사각형_1396" data-name="사각형 1396" width="80" height="31" rx="15.5" transform="translate(733 6802)" fill="#1382ce"/>
    <path id="_8:00" data-name="8:00" d="M10.26-6.57a10.781,10.781,0,0,1-.379,3.042A6.482,6.482,0,0,1,8.853-1.4,4.055,4.055,0,0,1,7.321-.153,4.532,4.532,0,0,1,5.409.252,4.532,4.532,0,0,1,3.5-.153,4.127,4.127,0,0,1,1.956-1.4,6.252,6.252,0,0,1,.928-3.528,11.029,11.029,0,0,1,.558-6.57a11.127,11.127,0,0,1,.37-3.051,6.246,6.246,0,0,1,1.028-2.133A4.127,4.127,0,0,1,3.5-13.005a4.532,4.532,0,0,1,1.912-.405,4.532,4.532,0,0,1,1.912.405,4.055,4.055,0,0,1,1.533,1.251A6.474,6.474,0,0,1,9.881-9.621,10.877,10.877,0,0,1,10.26-6.57ZM8.586-6.579a11.039,11.039,0,0,0-.261-2.605,5.181,5.181,0,0,0-.7-1.695,2.663,2.663,0,0,0-1.017-.92A2.73,2.73,0,0,0,5.4-12.078a2.73,2.73,0,0,0-1.206.279,2.6,2.6,0,0,0-1.008.92,5.318,5.318,0,0,0-.693,1.695,11.039,11.039,0,0,0-.261,2.605,10.947,10.947,0,0,0,.261,2.587,5.436,5.436,0,0,0,.693,1.7,2.581,2.581,0,0,0,1.008.929A2.73,2.73,0,0,0,5.4-1.08a2.73,2.73,0,0,0,1.206-.279,2.643,2.643,0,0,0,1.017-.929,5.3,5.3,0,0,0,.7-1.7A10.947,10.947,0,0,0,8.586-6.579ZM13.23.234a1.158,1.158,0,0,1-.837-.342,1.2,1.2,0,0,1-.351-.9,1.261,1.261,0,0,1,.351-.918,1.129,1.129,0,0,1,.837-.36,1.129,1.129,0,0,1,.837.36,1.261,1.261,0,0,1,.351.918,1.2,1.2,0,0,1-.351.9A1.158,1.158,0,0,1,13.23.234ZM19.17-8.28a8.546,8.546,0,0,1,1.89-.234,5.131,5.131,0,0,1,1.854.306,3.718,3.718,0,0,1,1.332.855,3.694,3.694,0,0,1,.819,1.269,4.4,4.4,0,0,1,.279,1.6,4.629,4.629,0,0,1-.378,1.908,4.691,4.691,0,0,1-1.017,1.467,4.26,4.26,0,0,1-1.521.945,5.386,5.386,0,0,1-1.872.324A5.343,5.343,0,0,1,19.422.045,5.655,5.655,0,0,1,18.414-.27a6.283,6.283,0,0,1-.873-.45,4.508,4.508,0,0,1-.711-.54l.882-1.206a3.539,3.539,0,0,0,.495.36q.243.144.576.324a4.7,4.7,0,0,0,.774.324,3.478,3.478,0,0,0,1.071.144,3.434,3.434,0,0,0,1.26-.225,3.246,3.246,0,0,0,.99-.594,2.481,2.481,0,0,0,.648-.963,3.505,3.505,0,0,0,.234-1.3,2.918,2.918,0,0,0-.216-1.143,2.434,2.434,0,0,0-.585-.855,2.644,2.644,0,0,0-.927-.54,3.811,3.811,0,0,0-1.278-.2,4.882,4.882,0,0,0-1.053.117,10.1,10.1,0,0,0-1.107.315L17.532-7l1.08-6.246H24.93v1.512H19.764ZM30.159-5.454a2.686,2.686,0,0,1-2.194-1.008,4.713,4.713,0,0,1-.821-3.024,4.6,4.6,0,0,1,.821-3,2.716,2.716,0,0,1,2.194-.981,2.762,2.762,0,0,1,2.22.981,4.56,4.56,0,0,1,.831,3,4.676,4.676,0,0,1-.831,3.024A2.73,2.73,0,0,1,30.159-5.454ZM30.15-6.57a1.424,1.424,0,0,0,1.224-.684,4.066,4.066,0,0,0,.468-2.232,3.921,3.921,0,0,0-.468-2.2,1.438,1.438,0,0,0-1.224-.657,1.418,1.418,0,0,0-1.206.666,3.927,3.927,0,0,0-.468,2.2,4.066,4.066,0,0,0,.468,2.232A1.409,1.409,0,0,0,30.15-6.57Zm7.536-6.894H39.11L31.83.216H30.388ZM39.3.18a2.747,2.747,0,0,1-2.211-1,4.6,4.6,0,0,1-.84-3.015,4.525,4.525,0,0,1,.84-3A2.769,2.769,0,0,1,39.3-7.812a2.742,2.742,0,0,1,2.2.981,4.561,4.561,0,0,1,.83,3,4.638,4.638,0,0,1-.83,3.015A2.721,2.721,0,0,1,39.3.18Zm0-1.116a1.4,1.4,0,0,0,1.208-.675,4.1,4.1,0,0,0,.457-2.223,4.05,4.05,0,0,0-.457-2.214A1.4,1.4,0,0,0,39.3-6.714a1.424,1.424,0,0,0-1.218.666,3.986,3.986,0,0,0-.465,2.214,4.035,4.035,0,0,0,.465,2.223A1.419,1.419,0,0,0,39.3-.936Z" transform="translate(752 6824)" fill="#fff"/>
    <g id="타원_106-2" data-name="타원 106" transform="translate(944 6756)" fill="#fff" stroke="#6498ff" stroke-width="8">
      <circle cx="16.5" cy="16.5" r="16.5" stroke="none"/>
      <circle cx="16.5" cy="16.5" r="12.5" fill="none"/>
    </g>
    <rect id="사각형_1396-2" data-name="사각형 1396" width="80" height="31" rx="15.5" transform="translate(920 6802)" fill="#1382ce"/>
    <path id="_8:00-2" data-name="8:00" d="M9.468-1.332V0H2.34V-1.332H5.274v-9.5q0-.261.018-.459L2.9-9.144l-.882-1.062,3.546-3.06H6.876V-1.332ZM13.23.234a1.158,1.158,0,0,1-.837-.342,1.2,1.2,0,0,1-.351-.9,1.261,1.261,0,0,1,.351-.918,1.129,1.129,0,0,1,.837-.36,1.129,1.129,0,0,1,.837.36,1.261,1.261,0,0,1,.351.918,1.2,1.2,0,0,1-.351.9A1.158,1.158,0,0,1,13.23.234Zm12.762-6.8a10.781,10.781,0,0,1-.379,3.042A6.482,6.482,0,0,1,24.585-1.4,4.055,4.055,0,0,1,23.053-.153a4.532,4.532,0,0,1-1.912.405,4.532,4.532,0,0,1-1.912-.405A4.127,4.127,0,0,1,17.688-1.4,6.252,6.252,0,0,1,16.66-3.528a11.028,11.028,0,0,1-.37-3.042,11.127,11.127,0,0,1,.37-3.051,6.246,6.246,0,0,1,1.028-2.133,4.127,4.127,0,0,1,1.542-1.251,4.532,4.532,0,0,1,1.912-.405,4.532,4.532,0,0,1,1.912.405,4.055,4.055,0,0,1,1.533,1.251,6.474,6.474,0,0,1,1.028,2.133A10.877,10.877,0,0,1,25.992-6.57Zm-1.674-.009a11.039,11.039,0,0,0-.261-2.605,5.181,5.181,0,0,0-.7-1.695,2.663,2.663,0,0,0-1.017-.92,2.73,2.73,0,0,0-1.206-.279,2.73,2.73,0,0,0-1.206.279,2.6,2.6,0,0,0-1.008.92,5.318,5.318,0,0,0-.693,1.695,11.039,11.039,0,0,0-.261,2.605,10.947,10.947,0,0,0,.261,2.587,5.436,5.436,0,0,0,.693,1.7,2.581,2.581,0,0,0,1.008.929,2.73,2.73,0,0,0,1.206.279,2.73,2.73,0,0,0,1.206-.279,2.643,2.643,0,0,0,1.017-.929,5.3,5.3,0,0,0,.7-1.7A10.947,10.947,0,0,0,24.318-6.579Zm5.841,1.125a2.686,2.686,0,0,1-2.194-1.008,4.713,4.713,0,0,1-.821-3.024,4.6,4.6,0,0,1,.821-3,2.716,2.716,0,0,1,2.194-.981,2.762,2.762,0,0,1,2.22.981,4.56,4.56,0,0,1,.831,3,4.676,4.676,0,0,1-.831,3.024A2.73,2.73,0,0,1,30.159-5.454ZM30.15-6.57a1.424,1.424,0,0,0,1.224-.684,4.066,4.066,0,0,0,.468-2.232,3.921,3.921,0,0,0-.468-2.2,1.438,1.438,0,0,0-1.224-.657,1.418,1.418,0,0,0-1.206.666,3.927,3.927,0,0,0-.468,2.2,4.066,4.066,0,0,0,.468,2.232A1.409,1.409,0,0,0,30.15-6.57Zm7.536-6.894H39.11L31.83.216H30.388ZM39.3.18a2.747,2.747,0,0,1-2.211-1,4.6,4.6,0,0,1-.84-3.015,4.525,4.525,0,0,1,.84-3A2.769,2.769,0,0,1,39.3-7.812a2.742,2.742,0,0,1,2.2.981,4.561,4.561,0,0,1,.83,3,4.638,4.638,0,0,1-.83,3.015A2.721,2.721,0,0,1,39.3.18Zm0-1.116a1.4,1.4,0,0,0,1.208-.675,4.1,4.1,0,0,0,.457-2.223,4.05,4.05,0,0,0-.457-2.214A1.4,1.4,0,0,0,39.3-6.714a1.424,1.424,0,0,0-1.218.666,3.986,3.986,0,0,0-.465,2.214,4.035,4.035,0,0,0,.465,2.223A1.419,1.419,0,0,0,39.3-.936Z" transform="translate(939 6824)" fill="#fff"/>
    <g transform="matrix(1, 0, 0, 1, 368, 6486)" filter="url(#Combined_Shape-2)">
      <path id="Combined_Shape-5" data-name="Combined Shape" d="M48.471,87.534H8a8,8,0,0,1-8-8V8A8,8,0,0,1,8,0H114a8,8,0,0,1,8,8V79.534a8,8,0,0,1-8,8H73.529L61,98.087Z" transform="translate(718 161.41)" fill="#fff"/>
    </g>
    <g id="타원_106-3" data-name="타원 106" transform="translate(1131 6756)" fill="#fff" stroke="#6498ff" stroke-width="8">
      <circle cx="16.5" cy="16.5" r="16.5" stroke="none"/>
      <circle cx="16.5" cy="16.5" r="12.5" fill="none"/>
    </g>
    <rect id="사각형_1396-3" data-name="사각형 1396" width="80" height="31" rx="15.5" transform="translate(1107 6802)" fill="#1382ce"/>
    <path id="_8:00-3" data-name="8:00" d="M9.468-1.332V0H2.34V-1.332H5.274v-9.5q0-.261.018-.459L2.9-9.144l-.882-1.062,3.546-3.06H6.876V-1.332ZM13.23.234a1.158,1.158,0,0,1-.837-.342,1.2,1.2,0,0,1-.351-.9,1.261,1.261,0,0,1,.351-.918,1.129,1.129,0,0,1,.837-.36,1.129,1.129,0,0,1,.837.36,1.261,1.261,0,0,1,.351.918,1.2,1.2,0,0,1-.351.9A1.158,1.158,0,0,1,13.23.234ZM19.17-8.28a8.546,8.546,0,0,1,1.89-.234,5.131,5.131,0,0,1,1.854.306,3.718,3.718,0,0,1,1.332.855,3.694,3.694,0,0,1,.819,1.269,4.4,4.4,0,0,1,.279,1.6,4.629,4.629,0,0,1-.378,1.908,4.691,4.691,0,0,1-1.017,1.467,4.26,4.26,0,0,1-1.521.945,5.386,5.386,0,0,1-1.872.324A5.343,5.343,0,0,1,19.422.045,5.655,5.655,0,0,1,18.414-.27a6.283,6.283,0,0,1-.873-.45,4.508,4.508,0,0,1-.711-.54l.882-1.206a3.539,3.539,0,0,0,.495.36q.243.144.576.324a4.7,4.7,0,0,0,.774.324,3.478,3.478,0,0,0,1.071.144,3.434,3.434,0,0,0,1.26-.225,3.246,3.246,0,0,0,.99-.594,2.481,2.481,0,0,0,.648-.963,3.505,3.505,0,0,0,.234-1.3,2.918,2.918,0,0,0-.216-1.143,2.434,2.434,0,0,0-.585-.855,2.644,2.644,0,0,0-.927-.54,3.811,3.811,0,0,0-1.278-.2,4.882,4.882,0,0,0-1.053.117,10.1,10.1,0,0,0-1.107.315L17.532-7l1.08-6.246H24.93v1.512H19.764ZM30.159-5.454a2.686,2.686,0,0,1-2.194-1.008,4.713,4.713,0,0,1-.821-3.024,4.6,4.6,0,0,1,.821-3,2.716,2.716,0,0,1,2.194-.981,2.762,2.762,0,0,1,2.22.981,4.56,4.56,0,0,1,.831,3,4.676,4.676,0,0,1-.831,3.024A2.73,2.73,0,0,1,30.159-5.454ZM30.15-6.57a1.424,1.424,0,0,0,1.224-.684,4.066,4.066,0,0,0,.468-2.232,3.921,3.921,0,0,0-.468-2.2,1.438,1.438,0,0,0-1.224-.657,1.418,1.418,0,0,0-1.206.666,3.927,3.927,0,0,0-.468,2.2,4.066,4.066,0,0,0,.468,2.232A1.409,1.409,0,0,0,30.15-6.57Zm7.536-6.894H39.11L31.83.216H30.388ZM39.3.18a2.747,2.747,0,0,1-2.211-1,4.6,4.6,0,0,1-.84-3.015,4.525,4.525,0,0,1,.84-3A2.769,2.769,0,0,1,39.3-7.812a2.742,2.742,0,0,1,2.2.981,4.561,4.561,0,0,1,.83,3,4.638,4.638,0,0,1-.83,3.015A2.721,2.721,0,0,1,39.3.18Zm0-1.116a1.4,1.4,0,0,0,1.208-.675,4.1,4.1,0,0,0,.457-2.223,4.05,4.05,0,0,0-.457-2.214A1.4,1.4,0,0,0,39.3-6.714a1.424,1.424,0,0,0-1.218.666,3.986,3.986,0,0,0-.465,2.214,4.035,4.035,0,0,0,.465,2.223A1.419,1.419,0,0,0,39.3-.936Z" transform="translate(1126 6824)" fill="#fff"/>
    <g transform="matrix(1, 0, 0, 1, 368, 6486)" filter="url(#Combined_Shape-3)">
      <path id="Combined_Shape-6" data-name="Combined Shape" d="M48.471,87.534H8a8,8,0,0,1-8-8V8A8,8,0,0,1,8,0H114a8,8,0,0,1,8,8V79.534a8,8,0,0,1-8,8H73.529L61,98.087Z" transform="translate(531 161.41)" fill="#fff"/>
    </g>
    <g id="그룹-3" data-name="그룹" transform="translate(0 -233)">
      <path id="패스_2499" data-name="패스 2499" d="M14.166-8.388a10.057,10.057,0,0,1-1.827-.459,9.807,9.807,0,0,1-1.665-.765,7.651,7.651,0,0,1-1.4-1.035,5.269,5.269,0,0,1-1.006-1.269,4.983,4.983,0,0,1-1.006,1.278,7.9,7.9,0,0,1-1.4,1.026,9.689,9.689,0,0,1-1.674.765,10.277,10.277,0,0,1-1.836.459L1.818-9.54a10.266,10.266,0,0,0,2.106-.549,7.887,7.887,0,0,0,1.818-.954A5.168,5.168,0,0,0,7.02-12.321a2.62,2.62,0,0,0,.486-1.5v-.72h1.53v.72a2.553,2.553,0,0,0,.486,1.476,5.314,5.314,0,0,0,1.287,1.278,8.182,8.182,0,0,0,1.818.972,9.746,9.746,0,0,0,2.1.558ZM8.253.18a7.942,7.942,0,0,0,2.968-.441Q12.276-.7,12.276-1.548q0-.828-1.055-1.278a7.8,7.8,0,0,0-2.968-.45,7.931,7.931,0,0,0-2.995.45q-1.064.45-1.064,1.278,0,.846,1.064,1.287A8.078,8.078,0,0,0,8.253.18Zm0-4.608a9.056,9.056,0,0,1,4.043.74,2.313,2.313,0,0,1,1.456,2.131A2.085,2.085,0,0,1,13.375-.32a2.994,2.994,0,0,1-1.087.9,6.189,6.189,0,0,1-1.725.56,12.666,12.666,0,0,1-2.309.19A9.079,9.079,0,0,1,4.192.583a2.331,2.331,0,0,1-1.474-2.14A2.056,2.056,0,0,1,3.1-2.776a2.978,2.978,0,0,1,1.1-.9,6.323,6.323,0,0,1,1.743-.56A12.815,12.815,0,0,1,8.253-4.428Zm7.3-2.682V-5.9H.954V-7.11Zm3.654,3.348q.99,0,1.944-.027t1.908-.09q.954-.063,1.944-.18t2.052-.279l.144,1.2q-1.1.177-2.115.293t-2.007.177q-.99.062-1.98.089t-2.034.027H17.73V-8.748h5.94v-3.366H17.676V-13.32h7.47v5.778h-5.94Zm10.836-11.07V1.35H28.566V-14.832ZM41.13-13.068a13.527,13.527,0,0,1-.418,3.375A11.166,11.166,0,0,1,39.4-6.606a11.791,11.791,0,0,1-2.318,2.7,15.745,15.745,0,0,1-3.438,2.232L32.85-2.88a12.538,12.538,0,0,0,4.914-3.834,10.02,10.02,0,0,0,1.89-5.166H33.588v-1.188Zm4.752-1.746V1.332H44.406V-14.814Zm5.94,14.58h9.63V.972H50.346V-3.492h1.476Zm.036-8.676h7.848v-2.07H51.858ZM63.072-5.994v1.206H48.456V-5.994h6.588V-7.722H50.4v-6.444h1.458v2.034h7.848v-2.034h1.458v6.444H56.52v1.728ZM76.14-1.332V0H69.012V-1.332h2.934v-9.5q0-.261.018-.459L69.57-9.144l-.882-1.062,3.546-3.06h1.314V-1.332Zm4.239-4.122a2.686,2.686,0,0,1-2.194-1.008,4.713,4.713,0,0,1-.821-3.024,4.6,4.6,0,0,1,.821-3,2.716,2.716,0,0,1,2.194-.981,2.762,2.762,0,0,1,2.22.981,4.56,4.56,0,0,1,.831,3A4.676,4.676,0,0,1,82.6-6.462,2.73,2.73,0,0,1,80.379-5.454ZM80.37-6.57a1.424,1.424,0,0,0,1.224-.684,4.066,4.066,0,0,0,.468-2.232,3.921,3.921,0,0,0-.468-2.2,1.438,1.438,0,0,0-1.224-.657,1.418,1.418,0,0,0-1.206.666,3.927,3.927,0,0,0-.468,2.2,4.066,4.066,0,0,0,.468,2.232A1.409,1.409,0,0,0,80.37-6.57Zm7.536-6.894H89.33L82.05.216H80.608ZM89.523.18a2.747,2.747,0,0,1-2.211-1,4.6,4.6,0,0,1-.84-3.015,4.525,4.525,0,0,1,.84-3,2.769,2.769,0,0,1,2.211-.981,2.742,2.742,0,0,1,2.2.981,4.561,4.561,0,0,1,.83,3,4.638,4.638,0,0,1-.83,3.015A2.721,2.721,0,0,1,89.523.18Zm0-1.116a1.4,1.4,0,0,0,1.208-.675,4.1,4.1,0,0,0,.457-2.223,4.05,4.05,0,0,0-.457-2.214,1.4,1.4,0,0,0-1.208-.666,1.424,1.424,0,0,0-1.218.666,3.986,3.986,0,0,0-.465,2.214,4.035,4.035,0,0,0,.465,2.223A1.419,1.419,0,0,0,89.523-.936ZM100.188-6.03H96.534V-7.236h3.654V-11.16H101.5v3.924h3.654V-6.03H101.5v3.942h-1.314ZM110.3-7.47A9.341,9.341,0,0,0,112.419-8a7.968,7.968,0,0,0,1.8-.945,5.022,5.022,0,0,0,1.251-1.242,2.51,2.51,0,0,0,.468-1.44h-5.13v-1.188h5.148V-14.8h1.476v1.98h5.148v1.188h-5.148A2.525,2.525,0,0,0,117.9-10.2a4.829,4.829,0,0,0,1.251,1.242,8.482,8.482,0,0,0,1.8.945,9.059,9.059,0,0,0,2.1.54l-.522,1.188a10.86,10.86,0,0,1-1.818-.441,9.516,9.516,0,0,1-1.647-.729,7.527,7.527,0,0,1-1.377-.99,5.142,5.142,0,0,1-.99-1.206,5.142,5.142,0,0,1-.99,1.206,7.528,7.528,0,0,1-1.377.99,9.409,9.409,0,0,1-1.656.729,11.108,11.108,0,0,1-1.827.441ZM124-3.852h-6.57v5.2h-1.476v-5.2H109.4V-5.058H124Zm9.468-9.234a13.4,13.4,0,0,1-.414,3.33,11.346,11.346,0,0,1-1.3,3.078,12.076,12.076,0,0,1-2.268,2.709,14.7,14.7,0,0,1-3.348,2.223l-.81-1.152a12.963,12.963,0,0,0,4.77-3.834,10.046,10.046,0,0,0,1.908-5.148H126.09v-1.206Zm6.768,6.048h-2.592v8.37H136.17V-14.8h1.476v6.552h2.592Zm12.654,5.706V0h-7.128V-1.332H148.7v-9.5q0-.261.018-.459l-2.394,2.142-.882-1.062,3.546-3.06H150.3V-1.332ZM155.934.234a1.158,1.158,0,0,1-.837-.342,1.2,1.2,0,0,1-.351-.9,1.261,1.261,0,0,1,.351-.918,1.129,1.129,0,0,1,.837-.36,1.129,1.129,0,0,1,.837.36,1.261,1.261,0,0,1,.351.918,1.2,1.2,0,0,1-.351.9A1.158,1.158,0,0,1,155.934.234Zm5.22-8.514a8.546,8.546,0,0,1,1.89-.234,5.131,5.131,0,0,1,1.854.306,3.718,3.718,0,0,1,1.332.855,3.694,3.694,0,0,1,.819,1.269,4.4,4.4,0,0,1,.279,1.6,4.629,4.629,0,0,1-.378,1.908,4.691,4.691,0,0,1-1.017,1.467,4.26,4.26,0,0,1-1.521.945,5.386,5.386,0,0,1-1.872.324,5.343,5.343,0,0,1-1.134-.117A5.655,5.655,0,0,1,160.4-.27a6.283,6.283,0,0,1-.873-.45,4.507,4.507,0,0,1-.711-.54l.882-1.206a3.539,3.539,0,0,0,.5.36q.243.144.576.324a4.7,4.7,0,0,0,.774.324,3.478,3.478,0,0,0,1.071.144,3.434,3.434,0,0,0,1.26-.225,3.246,3.246,0,0,0,.99-.594,2.481,2.481,0,0,0,.648-.963,3.505,3.505,0,0,0,.234-1.3,2.918,2.918,0,0,0-.216-1.143,2.435,2.435,0,0,0-.585-.855,2.644,2.644,0,0,0-.927-.54,3.811,3.811,0,0,0-1.278-.2,4.882,4.882,0,0,0-1.053.117,10.1,10.1,0,0,0-1.107.315L159.516-7l1.08-6.246h6.318v1.512h-5.166Zm10.269,2.826a2.686,2.686,0,0,1-2.194-1.008,4.713,4.713,0,0,1-.821-3.024,4.6,4.6,0,0,1,.821-3,2.716,2.716,0,0,1,2.194-.981,2.762,2.762,0,0,1,2.22.981,4.56,4.56,0,0,1,.831,3,4.676,4.676,0,0,1-.831,3.024A2.73,2.73,0,0,1,171.423-5.454Zm-.009-1.116a1.424,1.424,0,0,0,1.224-.684,4.066,4.066,0,0,0,.468-2.232,3.921,3.921,0,0,0-.468-2.2,1.438,1.438,0,0,0-1.224-.657,1.418,1.418,0,0,0-1.206.666,3.927,3.927,0,0,0-.468,2.2,4.066,4.066,0,0,0,.468,2.232A1.409,1.409,0,0,0,171.414-6.57Zm7.536-6.894h1.424L173.094.216h-1.442ZM180.567.18a2.747,2.747,0,0,1-2.211-1,4.6,4.6,0,0,1-.84-3.015,4.525,4.525,0,0,1,.84-3,2.769,2.769,0,0,1,2.211-.981,2.742,2.742,0,0,1,2.2.981,4.56,4.56,0,0,1,.83,3,4.638,4.638,0,0,1-.83,3.015A2.721,2.721,0,0,1,180.567.18Zm0-1.116a1.4,1.4,0,0,0,1.208-.675,4.1,4.1,0,0,0,.457-2.223,4.05,4.05,0,0,0-.457-2.214,1.4,1.4,0,0,0-1.208-.666,1.424,1.424,0,0,0-1.218.666,3.986,3.986,0,0,0-.465,2.214,4.035,4.035,0,0,0,.465,2.223A1.419,1.419,0,0,0,180.567-.936Z" transform="translate(1279.193 7107)" fill="#686868"/>
      <path id="패스_2498" data-name="패스 2498" d="M.684-9.378H9.306v1.206H.684Zm0,4.3H9.306V-3.87H.684Z" transform="translate(1366.349 7125)" fill="#686868"/>
      <path id="패스_2500" data-name="패스 2500" d="M1.818-8.8a12.762,12.762,0,0,0,2.133-.38,7.681,7.681,0,0,0,1.755-.7,4.425,4.425,0,0,0,1.224-.977,2.12,2.12,0,0,0,.522-1.222H2.466V-13.23H7.524v-1.638H9v1.638h5.058v1.152h-5a2.147,2.147,0,0,0,.513,1.222,4.255,4.255,0,0,0,1.224.977,7.837,7.837,0,0,0,1.773.7,12.983,12.983,0,0,0,2.142.38l-.45,1.152a13.7,13.7,0,0,1-1.926-.342,10.481,10.481,0,0,1-1.7-.585,6.746,6.746,0,0,1-1.4-.828,3.973,3.973,0,0,1-.972-1.071,4.334,4.334,0,0,1-.981,1.071A6.521,6.521,0,0,1,5.9-8.577a10.394,10.394,0,0,1-1.71.585,14.048,14.048,0,0,1-1.917.342ZM8.235.2a8.668,8.668,0,0,0,2.977-.405q1.064-.4,1.064-1.161t-1.064-1.17a8.494,8.494,0,0,0-2.977-.414,8.481,8.481,0,0,0-2.986.414q-1.055.414-1.055,1.17T5.249-.207A8.655,8.655,0,0,0,8.235.2Zm0-4.248a9.75,9.75,0,0,1,4.07.684,2.159,2.159,0,0,1,1.447,2,2.159,2.159,0,0,1-1.447,2,9.75,9.75,0,0,1-4.07.684A9.75,9.75,0,0,1,4.165.63a2.159,2.159,0,0,1-1.447-2,2.159,2.159,0,0,1,1.447-2A9.75,9.75,0,0,1,8.235-4.05Zm7.317-2.394v1.188H.954V-6.444h6.57v-2H9v2ZM33.318-8.388a10.057,10.057,0,0,1-1.827-.459,9.807,9.807,0,0,1-1.665-.765,7.651,7.651,0,0,1-1.4-1.035,5.269,5.269,0,0,1-1.006-1.269,4.983,4.983,0,0,1-1.006,1.278,7.9,7.9,0,0,1-1.4,1.026,9.689,9.689,0,0,1-1.674.765,10.277,10.277,0,0,1-1.836.459L20.97-9.54a10.266,10.266,0,0,0,2.106-.549,7.887,7.887,0,0,0,1.818-.954,5.168,5.168,0,0,0,1.278-1.278,2.62,2.62,0,0,0,.486-1.5v-.72h1.53v.72a2.553,2.553,0,0,0,.486,1.476,5.314,5.314,0,0,0,1.287,1.278,8.182,8.182,0,0,0,1.818.972,9.746,9.746,0,0,0,2.1.558ZM27.4.18a7.942,7.942,0,0,0,2.968-.441Q31.428-.7,31.428-1.548q0-.828-1.055-1.278a7.8,7.8,0,0,0-2.968-.45,7.931,7.931,0,0,0-2.995.45q-1.064.45-1.064,1.278,0,.846,1.064,1.287A8.078,8.078,0,0,0,27.4.18Zm0-4.608a9.056,9.056,0,0,1,4.043.74A2.313,2.313,0,0,1,32.9-1.557,2.085,2.085,0,0,1,32.527-.32a2.994,2.994,0,0,1-1.087.9,6.189,6.189,0,0,1-1.725.56,12.666,12.666,0,0,1-2.309.19A9.079,9.079,0,0,1,23.344.583a2.331,2.331,0,0,1-1.474-2.14,2.056,2.056,0,0,1,.377-1.219,2.978,2.978,0,0,1,1.1-.9,6.323,6.323,0,0,1,1.743-.56A12.815,12.815,0,0,1,27.4-4.428ZM34.7-7.11V-5.9h-14.6V-7.11Zm3.654,3.348q.99,0,1.944-.027t1.908-.09q.954-.063,1.944-.18t2.052-.279l.144,1.2q-1.1.177-2.115.293t-2.007.177q-.99.062-1.98.089t-2.034.027H36.882V-8.748h5.94v-3.366H36.828V-13.32H44.3v5.778h-5.94Zm10.836-11.07V1.35H47.718V-14.832Zm8.424,7.9h2.214a3.878,3.878,0,0,0,2.385-.626,2.275,2.275,0,0,0,.819-1.931,2.027,2.027,0,0,0-.819-1.85,4.44,4.44,0,0,0-2.385-.526H57.618ZM63.21,0,60-5.6H57.618V0H55.944V-13.194h4.148a8.541,8.541,0,0,1,1.858.189,3.936,3.936,0,0,1,1.461.63,2.993,2.993,0,0,1,.956,1.152,3.979,3.979,0,0,1,.343,1.737,3.566,3.566,0,0,1-.821,2.467,4.11,4.11,0,0,1-2.174,1.242L65.1,0Zm3.444-13.194h7.614v1.4h-5.94v4.158h5v1.4h-5V-1.4h6.138V0H66.654Zm8.514,0H76.9l1.386,7.182q.2,1.08.387,2.133t.387,2.133h.072q.234-1.08.468-2.133t.486-2.133L81.9-13.194h1.512l1.854,7.182q.252,1.062.477,2.124T86.2-1.746h.09q.378-2.16.756-4.266l1.386-7.182h1.6L87.3,0h-2l-2-7.956q-.18-.792-.333-1.521t-.315-1.485h-.072q-.162.756-.333,1.485t-.333,1.521L79.956,0h-1.98Zm22.068,7.83-.63-2.022q-.36-1.137-.684-2.229t-.648-2.247H95.2q-.306,1.173-.63,2.256t-.684,2.22L93.24-5.364Zm.414,1.332H92.826L91.548,0H89.856l4.482-13.194h1.854L100.674,0H98.91Zm5.832-2.9H105.7a3.878,3.878,0,0,0,2.385-.626,2.275,2.275,0,0,0,.819-1.931,2.027,2.027,0,0,0-.819-1.85,4.439,4.439,0,0,0-2.385-.526h-2.214ZM109.074,0l-3.209-5.6h-2.383V0h-1.674V-13.194h4.148a8.541,8.541,0,0,1,1.858.189,3.936,3.936,0,0,1,1.461.63,2.993,2.993,0,0,1,.956,1.152,3.979,3.979,0,0,1,.343,1.737,3.566,3.566,0,0,1-.821,2.467,4.11,4.11,0,0,1-2.174,1.242L110.964,0Zm3.444-13.194h3.306a6.039,6.039,0,0,1,4.635,1.692,6.858,6.858,0,0,1,1.581,4.86,8.967,8.967,0,0,1-.4,2.8,5.661,5.661,0,0,1-1.186,2.088A5.093,5.093,0,0,1,118.528-.45,7.139,7.139,0,0,1,115.9,0h-3.378Zm3.168,11.808a4.281,4.281,0,0,0,3.492-1.386A5.916,5.916,0,0,0,120.33-6.66a5.792,5.792,0,0,0-1.143-3.861,4.348,4.348,0,0,0-3.5-1.341h-1.494V-1.386Zm13.05-2.574h4.5v-8.046h-4.5Zm-1.458-9.234h7.416V-2.772h-7.416Zm14.436,6.066H139.05v8.46h-1.476V-14.8h1.476V-8.37h2.664Zm14,.594h-1.476v-8.28h1.476Zm-11.448-4.1a2.179,2.179,0,0,0,.207.954,2.252,2.252,0,0,0,.576.747,2.779,2.779,0,0,0,.864.495,3.166,3.166,0,0,0,1.089.18,3.243,3.243,0,0,0,1.1-.18,2.648,2.648,0,0,0,.864-.495,2.307,2.307,0,0,0,.567-.747,2.179,2.179,0,0,0,.207-.954,2.238,2.238,0,0,0-.207-.963,2.28,2.28,0,0,0-.567-.756,2.648,2.648,0,0,0-.864-.5,3.243,3.243,0,0,0-1.1-.18,3.166,3.166,0,0,0-1.089.18,2.779,2.779,0,0,0-.864.5,2.226,2.226,0,0,0-.576.756A2.238,2.238,0,0,0,144.27-10.638Zm6.93,0a3.3,3.3,0,0,1-.316,1.449,3.333,3.333,0,0,1-.875,1.125,4.1,4.1,0,0,1-1.326.729,5.147,5.147,0,0,1-1.669.261,5.147,5.147,0,0,1-1.669-.261,4.1,4.1,0,0,1-1.326-.729,3.235,3.235,0,0,1-.866-1.125,3.383,3.383,0,0,1-.307-1.449,3.426,3.426,0,0,1,.307-1.467,3.323,3.323,0,0,1,.866-1.134,4.008,4.008,0,0,1,1.326-.738,5.147,5.147,0,0,1,1.669-.261,5.147,5.147,0,0,1,1.669.261,4.008,4.008,0,0,1,1.326.738,3.426,3.426,0,0,1,.875,1.134A3.344,3.344,0,0,1,151.2-10.638Zm5.058,10.6V1.116H145.3v-4.05h8.964V-4.572h-9V-5.724h10.458v3.888h-8.964v1.8Zm4.464-3.726q.99,0,1.944-.027t1.908-.09q.954-.063,1.944-.18t2.052-.279l.144,1.2q-1.1.177-2.115.293t-2.007.177q-.99.062-1.98.089t-2.034.027h-1.332V-8.748h5.94v-3.366h-5.994V-13.32h7.47v5.778h-5.94Zm10.836-11.07V1.35h-1.476V-14.832Zm8.352,4.95a6.294,6.294,0,0,0,.342,2.034,7.954,7.954,0,0,0,.927,1.881,7.887,7.887,0,0,0,1.368,1.557,6.2,6.2,0,0,0,1.683,1.062L183.4-2.16a6.69,6.69,0,0,1-1.341-.828,8.816,8.816,0,0,1-1.188-1.134,8.587,8.587,0,0,1-.981-1.386,9.429,9.429,0,0,1-.72-1.584,9.49,9.49,0,0,1-.7,1.692,10.406,10.406,0,0,1-.972,1.5,8.882,8.882,0,0,1-1.17,1.242,6.272,6.272,0,0,1-1.314.891l-.864-1.188A6.509,6.509,0,0,0,175.8-4.1a8.422,8.422,0,0,0,1.368-1.674,8.9,8.9,0,0,0,.927-2,6.84,6.84,0,0,0,.342-2.106v-2.052H174.69V-13.14h9.018v1.206h-3.8Zm7.452-4.914V1.332h-1.476V-14.8ZM202.176-1.458V0H193.3V-1.154l4.554-4.38q.522-.559.963-1.055a7.435,7.435,0,0,0,.756-1,5.125,5.125,0,0,0,.495-1.019,3.275,3.275,0,0,0,.18-1.091,2.9,2.9,0,0,0-.2-1.027,1.906,1.906,0,0,0-.513-.721,2.224,2.224,0,0,0-.774-.433,3.021,3.021,0,0,0-.945-.144,2.943,2.943,0,0,0-.936.144,2.307,2.307,0,0,0-.756.414,2.7,2.7,0,0,0-.549.621,2.309,2.309,0,0,0-.315.783,3.267,3.267,0,0,0-.072.63l-1.62-.27a4.661,4.661,0,0,1,.5-1.611,3.957,3.957,0,0,1,.945-1.164,3.912,3.912,0,0,1,1.3-.711,5.094,5.094,0,0,1,1.584-.24,4.813,4.813,0,0,1,1.566.252,3.784,3.784,0,0,1,1.284.729,3.36,3.36,0,0,1,.855,1.161,3.763,3.763,0,0,1,.309,1.566,4.078,4.078,0,0,1-.227,1.377,5.372,5.372,0,0,1-.61,1.206,10.6,10.6,0,0,1-.88,1.125q-.5.558-1.055,1.116l-3.69,3.654a5.6,5.6,0,0,1,.765-.162,5.288,5.288,0,0,1,.729-.054ZM204.858.234a1.158,1.158,0,0,1-.837-.342,1.2,1.2,0,0,1-.351-.9,1.261,1.261,0,0,1,.351-.918,1.129,1.129,0,0,1,.837-.36,1.129,1.129,0,0,1,.837.36,1.261,1.261,0,0,1,.351.918,1.2,1.2,0,0,1-.351.9A1.158,1.158,0,0,1,204.858.234Zm5.22-8.514a8.546,8.546,0,0,1,1.89-.234,5.131,5.131,0,0,1,1.854.306,3.718,3.718,0,0,1,1.332.855,3.694,3.694,0,0,1,.819,1.269,4.4,4.4,0,0,1,.279,1.6,4.629,4.629,0,0,1-.378,1.908,4.691,4.691,0,0,1-1.017,1.467,4.26,4.26,0,0,1-1.521.945,5.386,5.386,0,0,1-1.872.324A5.343,5.343,0,0,1,210.33.045a5.655,5.655,0,0,1-1.008-.315,6.283,6.283,0,0,1-.873-.45,4.507,4.507,0,0,1-.711-.54l.882-1.206a3.539,3.539,0,0,0,.5.36q.243.144.576.324a4.7,4.7,0,0,0,.774.324,3.478,3.478,0,0,0,1.071.144,3.434,3.434,0,0,0,1.26-.225,3.246,3.246,0,0,0,.99-.594,2.481,2.481,0,0,0,.648-.963,3.505,3.505,0,0,0,.234-1.3,2.918,2.918,0,0,0-.216-1.143,2.435,2.435,0,0,0-.585-.855,2.644,2.644,0,0,0-.927-.54,3.811,3.811,0,0,0-1.278-.2,4.882,4.882,0,0,0-1.053.117A10.1,10.1,0,0,0,209.5-6.7L208.44-7l1.08-6.246h6.318v1.512h-5.166Zm10.269,2.826a2.686,2.686,0,0,1-2.194-1.008,4.713,4.713,0,0,1-.821-3.024,4.6,4.6,0,0,1,.821-3,2.716,2.716,0,0,1,2.194-.981,2.762,2.762,0,0,1,2.22.981,4.56,4.56,0,0,1,.831,3,4.676,4.676,0,0,1-.831,3.024A2.73,2.73,0,0,1,220.347-5.454Zm-.009-1.116a1.424,1.424,0,0,0,1.224-.684,4.066,4.066,0,0,0,.468-2.232,3.921,3.921,0,0,0-.468-2.2,1.438,1.438,0,0,0-1.224-.657,1.418,1.418,0,0,0-1.206.666,3.927,3.927,0,0,0-.468,2.2,4.066,4.066,0,0,0,.468,2.232A1.409,1.409,0,0,0,220.338-6.57Zm7.536-6.894H229.3L222.018.216h-1.442ZM229.491.18a2.747,2.747,0,0,1-2.211-1,4.6,4.6,0,0,1-.84-3.015,4.525,4.525,0,0,1,.84-3,2.769,2.769,0,0,1,2.211-.981,2.742,2.742,0,0,1,2.2.981,4.56,4.56,0,0,1,.83,3,4.638,4.638,0,0,1-.83,3.015A2.721,2.721,0,0,1,229.491.18Zm0-1.116a1.4,1.4,0,0,0,1.208-.675,4.1,4.1,0,0,0,.457-2.223,4.05,4.05,0,0,0-.457-2.214,1.4,1.4,0,0,0-1.208-.666,1.424,1.424,0,0,0-1.218.666,3.986,3.986,0,0,0-.465,2.214,4.035,4.035,0,0,0,.465,2.223A1.419,1.419,0,0,0,229.491-.936Z" transform="translate(1256.387 7143)" fill="#686868"/>
    </g>
    <path id="최대추가_3.0_가능" data-name="최대추가 +3.0% 가능" d="M2.465-11.107a11.314,11.314,0,0,0,2.625-1.175,8.986,8.986,0,0,0,2.059-1.711,7.587,7.587,0,0,0,1.334-2.132A6.734,6.734,0,0,0,8.99-18.56H3.074v-1.914H8.99v-3.19h2.378v3.19h6v1.914h-6A6.147,6.147,0,0,0,11.89-16.2a7.269,7.269,0,0,0,1.363,2.044,9.294,9.294,0,0,0,2.074,1.639,12.116,12.116,0,0,0,2.624,1.145l-1.1,1.827a11.316,11.316,0,0,1-4.031-2.117,9.546,9.546,0,0,1-2.61-3.364,9.173,9.173,0,0,1-2.567,3.538A11.651,11.651,0,0,1,3.567-9.251Zm8.9,5.713q1.827-.116,3.683-.261t3.6-.435l.2,1.769q-2.175.406-4.437.623t-4.437.334q-2.175.116-4.205.145T2-3.19l-.319-2q1.624,0,3.465-.015T8.99-5.278v-4.843h2.378ZM22.736-23.867V2.175H20.358V-23.867Zm7.6,17.661q1.305,0,2.436-.043t2.19-.131q1.058-.087,2.073-.232t2.088-.377l.2,1.954q-1.16.257-2.262.4T34.8-4.406q-1.16.086-2.407.114t-2.7.029H27.985V-20.706h9.686v1.943H30.334ZM49.155-23.867V2.146H46.864v-13.63H43.152V.841h-2.2V-23.287h2.2v9.86h3.712v-10.44Zm4.9,11.832a15.049,15.049,0,0,0,3.408-.856,12.836,12.836,0,0,0,2.9-1.522,8.091,8.091,0,0,0,2.016-2,4.044,4.044,0,0,0,.754-2.32H54.868v-1.914h8.294v-3.19H65.54v3.19h8.294v1.914H65.54a4.068,4.068,0,0,0,.754,2.306,7.779,7.779,0,0,0,2.015,2,13.666,13.666,0,0,0,2.9,1.523,14.594,14.594,0,0,0,3.379.87l-.841,1.914a17.5,17.5,0,0,1-2.929-.711,15.331,15.331,0,0,1-2.654-1.174,12.128,12.128,0,0,1-2.218-1.6,8.284,8.284,0,0,1-1.6-1.943,8.284,8.284,0,0,1-1.6,1.943,12.127,12.127,0,0,1-2.218,1.6,15.159,15.159,0,0,1-2.668,1.174,17.9,17.9,0,0,1-2.944.711ZM76.125-6.206H65.54V2.175H63.162V-6.206H52.606V-8.149H76.125ZM91.379-21.083a21.582,21.582,0,0,1-.667,5.365,18.28,18.28,0,0,1-2.088,4.959A19.457,19.457,0,0,1,84.97-6.395a23.683,23.683,0,0,1-5.394,3.582L78.271-4.669a20.885,20.885,0,0,0,7.685-6.177A16.186,16.186,0,0,0,89.03-19.14H79.489v-1.943Zm10.9,9.744H98.107V2.146H95.729V-23.838h2.378v10.556h4.176Zm12.093,2h-5.858v-3.016h5.858v-6.177h3.161v6.177h5.858v3.016h-5.858v6.177h-3.161Zm18.241-12.673a8.292,8.292,0,0,1,2.75.492,6.633,6.633,0,0,1,2.12,1.244,5.273,5.273,0,0,1,1.339,1.822,5.2,5.2,0,0,1,.432,2.256,4.552,4.552,0,0,1-.943,2.993A6.838,6.838,0,0,1,136.01-11.4a5.614,5.614,0,0,1,2.77,1.986,5.535,5.535,0,0,1,.855,3.176,6.735,6.735,0,0,1-.667,2.929,6.435,6.435,0,0,1-1.682,2.132A7.173,7.173,0,0,1,134.85.116a9.666,9.666,0,0,1-2.9.435,9.519,9.519,0,0,1-2.915-.406A6.364,6.364,0,0,1,126.86-1.03a7.146,7.146,0,0,1-1.566-1.885,11.939,11.939,0,0,1-1.087-2.538l3.538-1.392a6.28,6.28,0,0,0,.406,1.044,7.658,7.658,0,0,0,.624,1.088,4.761,4.761,0,0,0,.783.87,4.241,4.241,0,0,0,1.015.652,3.12,3.12,0,0,0,1.32.261,4.6,4.6,0,0,0,1.667-.276,3.629,3.629,0,0,0,1.189-.725,2.858,2.858,0,0,0,.71-1.029,3.175,3.175,0,0,0,.232-1.189,6.233,6.233,0,0,0-.146-1.392,2,2,0,0,0-.667-1.088,3.663,3.663,0,0,0-1.536-.7,11.848,11.848,0,0,0-2.7-.247v-2.9a10.827,10.827,0,0,0,2.349-.261,3.746,3.746,0,0,0,1.45-.653,2.225,2.225,0,0,0,.725-.986,3.714,3.714,0,0,0,.2-1.261,2.842,2.842,0,0,0-.769-2.247,3.138,3.138,0,0,0-2.218-.74,3.4,3.4,0,0,0-2.146.652,3.678,3.678,0,0,0-1.218,1.7,9.381,9.381,0,0,0-.319,1.363q-.928-.145-1.871-.333t-1.9-.333a7.857,7.857,0,0,1,2.624-4.857A7.873,7.873,0,0,1,132.617-22.011ZM144.159.406a2.487,2.487,0,0,1-1.885-.8,2.779,2.779,0,0,1-.754-1.987,2.779,2.779,0,0,1,.754-1.987,2.487,2.487,0,0,1,1.885-.8,2.52,2.52,0,0,1,1.914.8,2.779,2.779,0,0,1,.754,1.987,2.779,2.779,0,0,1-.754,1.987A2.52,2.52,0,0,1,144.159.406Zm20.213-11.165a18.022,18.022,0,0,1-.608,4.974,10.088,10.088,0,0,1-1.694,3.48,6.82,6.82,0,0,1-2.562,2.045A7.712,7.712,0,0,1,156.3.406a7.446,7.446,0,0,1-3.155-.667,6.886,6.886,0,0,1-2.533-2.045,10.088,10.088,0,0,1-1.694-3.48,18.022,18.022,0,0,1-.608-4.974,18.145,18.145,0,0,1,.608-5,10.088,10.088,0,0,1,1.694-3.48,6.886,6.886,0,0,1,2.533-2.045,7.446,7.446,0,0,1,3.155-.667,7.712,7.712,0,0,1,3.213.667,6.82,6.82,0,0,1,2.562,2.045,10.088,10.088,0,0,1,1.694,3.48A18.145,18.145,0,0,1,164.372-10.759Zm-4.031-.014a18.279,18.279,0,0,0-.335-3.835,7.682,7.682,0,0,0-.888-2.4,3.235,3.235,0,0,0-1.3-1.245,3.449,3.449,0,0,0-1.528-.362,3.212,3.212,0,0,0-1.47.362,3.3,3.3,0,0,0-1.266,1.245,7.682,7.682,0,0,0-.888,2.4,18.28,18.28,0,0,0-.335,3.835,17.857,17.857,0,0,0,.335,3.806,7.87,7.87,0,0,0,.888,2.388,3.17,3.17,0,0,0,1.266,1.245,3.321,3.321,0,0,0,1.47.347,3.567,3.567,0,0,0,1.528-.347,3.11,3.11,0,0,0,1.3-1.245,7.87,7.87,0,0,0,.888-2.388A17.856,17.856,0,0,0,160.341-10.774Zm4.611-5.466V-16.5a5.066,5.066,0,0,1,1.45-3.9,5.275,5.275,0,0,1,3.741-1.349,6.435,6.435,0,0,1,2.1.333,5.1,5.1,0,0,1,1.682.943,4.164,4.164,0,0,1,1.117,1.566,5.6,5.6,0,0,1,.406,2.2v.377a5.819,5.819,0,0,1-.406,2.233,4.669,4.669,0,0,1-1.117,1.653,4.611,4.611,0,0,1-1.682,1,6.435,6.435,0,0,1-2.1.333,5.379,5.379,0,0,1-3.741-1.305A4.886,4.886,0,0,1,164.952-16.24Zm7.25-.029.029-.377a3.7,3.7,0,0,0-.507-2.2,1.76,1.76,0,0,0-1.493-.667,2.006,2.006,0,0,0-1.624.652,3.241,3.241,0,0,0-.551,2.1l-.029.493a3.692,3.692,0,0,0,.508,2.219,1.912,1.912,0,0,0,1.609.653,1.829,1.829,0,0,0,1.581-.653A3.869,3.869,0,0,0,172.2-16.269Zm9.744-5.336h3.422L171.448,0h-3.567ZM178.408-5.539V-5.8a5.046,5.046,0,0,1,1.436-3.886,5.256,5.256,0,0,1,3.727-1.334,6.306,6.306,0,0,1,2.088.333,5.123,5.123,0,0,1,1.667.943,4.186,4.186,0,0,1,1.117,1.552A5.5,5.5,0,0,1,188.848-6v.377a5.71,5.71,0,0,1-.406,2.219,4.7,4.7,0,0,1-1.117,1.639,4.631,4.631,0,0,1-1.667,1,6.306,6.306,0,0,1-2.088.334,5.326,5.326,0,0,1-3.727-1.305A4.874,4.874,0,0,1,178.408-5.539Zm7.221-.029.029-.377a3.63,3.63,0,0,0-.507-2.19,1.777,1.777,0,0,0-1.493-.652,2.029,2.029,0,0,0-1.624.638,3.178,3.178,0,0,0-.551,2.088l-.029.493a3.621,3.621,0,0,0,.508,2.2,1.933,1.933,0,0,0,1.609.638,1.848,1.848,0,0,0,1.581-.638A3.794,3.794,0,0,0,185.629-5.568Zm23.287-15.515a21.583,21.583,0,0,1-.667,5.365,18.28,18.28,0,0,1-2.088,4.959,19.456,19.456,0,0,1-3.654,4.365,23.683,23.683,0,0,1-5.394,3.582l-1.305-1.856a20.885,20.885,0,0,0,7.685-6.177,16.186,16.186,0,0,0,3.074-8.294h-9.541v-1.943Zm10.9,9.744h-4.176V2.146h-2.378V-23.838h2.378v10.556h4.176ZM241.976-14.7H224.344v-8.613h2.378v6.7h15.254ZM232.884.2a12.238,12.238,0,0,0,4.8-.754q1.715-.754,1.715-2.117a2.369,2.369,0,0,0-1.715-2.146,15.628,15.628,0,0,0-9.591,0,2.369,2.369,0,0,0-1.715,2.146q0,1.363,1.715,2.117A12.238,12.238,0,0,0,232.884.2Zm0-7.627a19.558,19.558,0,0,1,3.72.319,10.191,10.191,0,0,1,2.794.928,4.789,4.789,0,0,1,1.766,1.494,3.473,3.473,0,0,1,.608,2.016,3.473,3.473,0,0,1-.608,2.016A4.672,4.672,0,0,1,239.4.827a10.537,10.537,0,0,1-2.794.913,19.559,19.559,0,0,1-3.72.319,19.558,19.558,0,0,1-3.72-.319A10.537,10.537,0,0,1,226.37.827,4.672,4.672,0,0,1,224.6-.653,3.473,3.473,0,0,1,224-2.668a3.473,3.473,0,0,1,.608-2.016,4.789,4.789,0,0,1,1.766-1.494,10.19,10.19,0,0,1,2.794-.928A19.558,19.558,0,0,1,232.884-7.424ZM244.7-11.687v1.943H221.183v-1.943Z" transform="translate(837 6897)" fill="#004777"/>
    <g id="그룹_4111" data-name="그룹 4111" transform="translate(0 -233)">
      <line id="선_338" data-name="선 338" x2="144" transform="translate(682.5 7117.5)" fill="none" stroke="#004777" stroke-width="1"/>
      <line id="선_340" data-name="선 340" y2="21" transform="translate(682.5 7106.5)" fill="none" stroke="#004777" stroke-width="1"/>
    </g>
    <g id="그룹_4110" data-name="그룹 4110" transform="translate(0 -233)">
      <line id="선_339" data-name="선 339" x2="144" transform="translate(1094.5 7117.5)" fill="none" stroke="#004777" stroke-width="1"/>
      <line id="선_341" data-name="선 341" y2="21" transform="translate(1238.5 7106.5)" fill="none" stroke="#004777" stroke-width="1"/>
    </g>
    <path id="패스_2494" data-name="패스 2494" d="M12.012-1.782V0H1.166V-1.41L6.732-6.764q.638-.683,1.177-1.289a9.087,9.087,0,0,0,.924-1.223,6.265,6.265,0,0,0,.605-1.245,4,4,0,0,0,.22-1.333,3.541,3.541,0,0,0-.242-1.256,2.329,2.329,0,0,0-.627-.881,2.719,2.719,0,0,0-.946-.529A3.692,3.692,0,0,0,6.688-14.7a3.6,3.6,0,0,0-1.144.176,2.82,2.82,0,0,0-.924.506,3.3,3.3,0,0,0-.671.759,2.823,2.823,0,0,0-.385.957,3.993,3.993,0,0,0-.088.77l-1.98-.33a5.7,5.7,0,0,1,.616-1.969A4.836,4.836,0,0,1,3.267-15.25a4.781,4.781,0,0,1,1.6-.869A6.226,6.226,0,0,1,6.8-16.412a5.883,5.883,0,0,1,1.914.308,4.625,4.625,0,0,1,1.569.891,4.107,4.107,0,0,1,1.045,1.419A4.6,4.6,0,0,1,11.7-11.88a4.984,4.984,0,0,1-.278,1.683,6.565,6.565,0,0,1-.745,1.474A12.953,12.953,0,0,1,9.606-7.348Q9-6.666,8.316-5.984L3.806-1.518a6.841,6.841,0,0,1,.935-.2,6.463,6.463,0,0,1,.891-.066Zm3.41-10.109a3.6,3.6,0,0,0,.253,1.357,3.089,3.089,0,0,0,.7,1.07,3.311,3.311,0,0,0,1.067.7,3.488,3.488,0,0,0,1.342.254,3.406,3.406,0,0,0,1.331-.254,3.342,3.342,0,0,0,1.056-.7,3.089,3.089,0,0,0,.7-1.07,3.6,3.6,0,0,0,.253-1.357,3.6,3.6,0,0,0-.253-1.357,3.089,3.089,0,0,0-.7-1.07,3.342,3.342,0,0,0-1.056-.7,3.406,3.406,0,0,0-1.331-.254,3.488,3.488,0,0,0-1.342.254,3.311,3.311,0,0,0-1.067.7,3.089,3.089,0,0,0-.7,1.07A3.6,3.6,0,0,0,15.422-11.891Zm8.162-1.661a5.054,5.054,0,0,1,.264,1.65,4.859,4.859,0,0,1-.264,1.628H27.83v-3.278Zm-.748,4.73A4.91,4.91,0,0,1,21.1-7.447a5.282,5.282,0,0,1-2.31.5,5.5,5.5,0,0,1-2.024-.362,4.811,4.811,0,0,1-1.606-1.021A4.7,4.7,0,0,1,14.091-9.9a5.051,5.051,0,0,1-.385-1.987,5.051,5.051,0,0,1,.385-1.987,4.7,4.7,0,0,1,1.067-1.57,4.811,4.811,0,0,1,1.606-1.021,5.5,5.5,0,0,1,2.024-.362,5.263,5.263,0,0,1,2.3.489A5.041,5.041,0,0,1,22.814-15H27.83v-3.08h1.8V-3.52h-1.8v-5.3ZM30.184-.286V1.188H17.028v-6.2h1.8v4.73Zm18.722-9.966a12.292,12.292,0,0,1-2.233-.561,11.986,11.986,0,0,1-2.035-.935,9.351,9.351,0,0,1-1.708-1.265A6.44,6.44,0,0,1,41.7-14.564,6.09,6.09,0,0,1,40.472-13a9.653,9.653,0,0,1-1.708,1.254,11.842,11.842,0,0,1-2.046.935,12.56,12.56,0,0,1-2.244.561l-.66-1.408a12.547,12.547,0,0,0,2.574-.671A9.64,9.64,0,0,0,38.61-13.5a6.316,6.316,0,0,0,1.562-1.562,3.2,3.2,0,0,0,.594-1.837v-.88h1.87v.88a3.12,3.12,0,0,0,.594,1.8A6.5,6.5,0,0,0,44.8-13.53a10,10,0,0,0,2.222,1.188,11.911,11.911,0,0,0,2.563.682ZM41.679.22a9.707,9.707,0,0,0,3.627-.539Q46.6-.858,46.6-1.892q0-1.012-1.29-1.562A9.531,9.531,0,0,0,41.679-4a9.693,9.693,0,0,0-3.66.55q-1.3.55-1.3,1.562,0,1.034,1.3,1.573A9.873,9.873,0,0,0,41.679.22Zm0-5.632a11.068,11.068,0,0,1,4.942.9A2.827,2.827,0,0,1,48.4-1.9a2.548,2.548,0,0,1-.461,1.512A3.659,3.659,0,0,1,46.61.712,7.564,7.564,0,0,1,44.5,1.4a15.48,15.48,0,0,1-2.822.232A11.1,11.1,0,0,1,36.715.712a2.849,2.849,0,0,1-1.8-2.615,2.513,2.513,0,0,1,.461-1.49,3.64,3.64,0,0,1,1.34-1.1,7.728,7.728,0,0,1,2.13-.684A15.663,15.663,0,0,1,41.679-5.412ZM50.6-8.69v1.474H32.758V-8.69Z" transform="translate(934 6701)" fill="#1382ce"/>
    <path id="패스_2495" data-name="패스 2495" d="M1.562-11.792a5.788,5.788,0,0,1,.616-1.958,4.884,4.884,0,0,1,1.155-1.441,4.922,4.922,0,0,1,1.6-.891,5.952,5.952,0,0,1,1.936-.308,5.73,5.73,0,0,1,1.925.308,4.67,4.67,0,0,1,1.507.858,3.847,3.847,0,0,1,.99,1.309,4.005,4.005,0,0,1,.352,1.705,4.519,4.519,0,0,1-.2,1.386,3.171,3.171,0,0,1-.572,1.067,3.534,3.534,0,0,1-.9.77A6.08,6.08,0,0,1,8.8-8.448a4.327,4.327,0,0,1,2.4,1.4,3.829,3.829,0,0,1,.814,2.5,4.6,4.6,0,0,1-.429,2,4.479,4.479,0,0,1-1.177,1.529,5.451,5.451,0,0,1-1.727.968A6.412,6.412,0,0,1,6.556.286a6.511,6.511,0,0,1-2.2-.326A4.835,4.835,0,0,1,2.805-.931,4.611,4.611,0,0,1,1.749-2.266a10.107,10.107,0,0,1-.693-1.672l1.8-.748a4.81,4.81,0,0,0,.33.99,4.936,4.936,0,0,0,.792,1.188,3.491,3.491,0,0,0,1.045.792,3.429,3.429,0,0,0,1.507.286,3.7,3.7,0,0,0,1.507-.287,3.358,3.358,0,0,0,1.067-.718,3.016,3.016,0,0,0,.638-.971A2.879,2.879,0,0,0,9.966-4.5,3.982,3.982,0,0,0,9.79-5.713a2.1,2.1,0,0,0-.627-.949,3.237,3.237,0,0,0-1.276-.629,7.936,7.936,0,0,0-2.1-.232V-8.976a7.2,7.2,0,0,0,1.793-.231,3.222,3.222,0,0,0,1.2-.594,2.168,2.168,0,0,0,.66-.913,3.3,3.3,0,0,0,.2-1.166,3.269,3.269,0,0,0-.209-1.21,2.146,2.146,0,0,0-.594-.858,2.678,2.678,0,0,0-.924-.506,3.7,3.7,0,0,0-1.155-.176,3.309,3.309,0,0,0-1.133.187,3.311,3.311,0,0,0-.924.506,2.764,2.764,0,0,0-.671.759,3.092,3.092,0,0,0-.374.968,3.915,3.915,0,0,0-.088.748Zm13.86-.1a3.6,3.6,0,0,0,.253,1.357,3.089,3.089,0,0,0,.7,1.07,3.311,3.311,0,0,0,1.067.7,3.488,3.488,0,0,0,1.342.254,3.406,3.406,0,0,0,1.331-.254,3.342,3.342,0,0,0,1.056-.7,3.089,3.089,0,0,0,.7-1.07,3.6,3.6,0,0,0,.253-1.357,3.6,3.6,0,0,0-.253-1.357,3.089,3.089,0,0,0-.7-1.07,3.342,3.342,0,0,0-1.056-.7,3.406,3.406,0,0,0-1.331-.254,3.488,3.488,0,0,0-1.342.254,3.311,3.311,0,0,0-1.067.7,3.089,3.089,0,0,0-.7,1.07A3.6,3.6,0,0,0,15.422-11.891Zm8.162-1.661a5.054,5.054,0,0,1,.264,1.65,4.859,4.859,0,0,1-.264,1.628H27.83v-3.278Zm-.748,4.73A4.91,4.91,0,0,1,21.1-7.447a5.282,5.282,0,0,1-2.31.5,5.5,5.5,0,0,1-2.024-.362,4.811,4.811,0,0,1-1.606-1.021A4.7,4.7,0,0,1,14.091-9.9a5.051,5.051,0,0,1-.385-1.987,5.051,5.051,0,0,1,.385-1.987,4.7,4.7,0,0,1,1.067-1.57,4.811,4.811,0,0,1,1.606-1.021,5.5,5.5,0,0,1,2.024-.362,5.263,5.263,0,0,1,2.3.489A5.041,5.041,0,0,1,22.814-15H27.83v-3.08h1.8V-3.52h-1.8v-5.3ZM30.184-.286V1.188H17.028v-6.2h1.8v4.73Zm18.722-9.966a12.292,12.292,0,0,1-2.233-.561,11.986,11.986,0,0,1-2.035-.935,9.351,9.351,0,0,1-1.708-1.265A6.44,6.44,0,0,1,41.7-14.564,6.09,6.09,0,0,1,40.472-13a9.653,9.653,0,0,1-1.708,1.254,11.842,11.842,0,0,1-2.046.935,12.56,12.56,0,0,1-2.244.561l-.66-1.408a12.547,12.547,0,0,0,2.574-.671A9.64,9.64,0,0,0,38.61-13.5a6.316,6.316,0,0,0,1.562-1.562,3.2,3.2,0,0,0,.594-1.837v-.88h1.87v.88a3.12,3.12,0,0,0,.594,1.8A6.5,6.5,0,0,0,44.8-13.53a10,10,0,0,0,2.222,1.188,11.911,11.911,0,0,0,2.563.682ZM41.679.22a9.707,9.707,0,0,0,3.627-.539Q46.6-.858,46.6-1.892q0-1.012-1.29-1.562A9.531,9.531,0,0,0,41.679-4a9.693,9.693,0,0,0-3.66.55q-1.3.55-1.3,1.562,0,1.034,1.3,1.573A9.873,9.873,0,0,0,41.679.22Zm0-5.632a11.068,11.068,0,0,1,4.942.9A2.827,2.827,0,0,1,48.4-1.9a2.548,2.548,0,0,1-.461,1.512A3.659,3.659,0,0,1,46.61.712,7.564,7.564,0,0,1,44.5,1.4a15.48,15.48,0,0,1-2.822.232A11.1,11.1,0,0,1,36.715.712a2.849,2.849,0,0,1-1.8-2.615,2.513,2.513,0,0,1,.461-1.49,3.64,3.64,0,0,1,1.34-1.1,7.728,7.728,0,0,1,2.13-.684A15.663,15.663,0,0,1,41.679-5.412ZM50.6-8.69v1.474H32.758V-8.69Z" transform="translate(1121 6701)" fill="#1382ce"/>
  </g>
</svg>
