<svg xmlns="http://www.w3.org/2000/svg" xmlns:xlink="http://www.w3.org/1999/xlink" width="234" height="208" viewBox="0 0 234 208">
  <defs>
    <filter id="사각형_1439" x="0" y="0" width="234" height="208" filterUnits="userSpaceOnUse">
      <feOffset dy="5" input="SourceAlpha"/>
      <feGaussianBlur stdDeviation="9" result="blur"/>
      <feFlood flood-color="#97a9ce" flood-opacity="0.239"/>
      <feComposite operator="in" in2="blur"/>
      <feComposite in="SourceGraphic"/>
    </filter>
  </defs>
  <g id="img_2-4_case-c" transform="translate(-1087 -10266)">
    <g transform="matrix(1, 0, 0, 1, 1087, 10266)" filter="url(#사각형_1439)">
      <g id="사각형_1439-2" data-name="사각형 1439" transform="translate(27 22)" fill="#fff" stroke="#97a9ce" stroke-width="1">
        <rect width="180" height="154" rx="16" stroke="none"/>
        <rect x="0.5" y="0.5" width="179" height="153" rx="15.5" fill="none"/>
      </g>
    </g>
    <rect id="사각형_1442" data-name="사각형 1442" width="140" height="40" rx="20" transform="translate(1134 10268)" fill="#00b9ff"/>
    <path id="Reward" d="M4.78-7.94H6.7a3.485,3.485,0,0,0,2.19-.59,2.138,2.138,0,0,0,.75-1.79,1.813,1.813,0,0,0-.75-1.67,4.16,4.16,0,0,0-2.19-.47H4.78ZM9.88,0,6.84-5.6H4.78V0H1.82V-14.8H6.98a10.326,10.326,0,0,1,2.18.22,4.873,4.873,0,0,1,1.77.74,3.609,3.609,0,0,1,1.18,1.38,4.761,4.761,0,0,1,.43,2.14,4.459,4.459,0,0,1-.77,2.72A4.545,4.545,0,0,1,9.72-6.06L13.18,0Zm10.2.28a5.894,5.894,0,0,1-2.19-.4,5.132,5.132,0,0,1-1.76-1.15,5.328,5.328,0,0,1-1.18-1.84,6.687,6.687,0,0,1-.43-2.47,6.482,6.482,0,0,1,.441-2.45,5.853,5.853,0,0,1,1.172-1.86,5.1,5.1,0,0,1,1.673-1.18,4.823,4.823,0,0,1,1.944-.41,4.834,4.834,0,0,1,2.034.4,4.051,4.051,0,0,1,1.463,1.12,4.917,4.917,0,0,1,.892,1.7,7.268,7.268,0,0,1,.3,2.14,7.166,7.166,0,0,1-.04.77,3.35,3.35,0,0,1-.1.57H17.38a3.169,3.169,0,0,0,1.01,2.09,3.1,3.1,0,0,0,2.09.71,4.18,4.18,0,0,0,1.31-.2A5.42,5.42,0,0,0,23-2.76l1,1.8a7.136,7.136,0,0,1-1.85.91A6.624,6.624,0,0,1,20.08.28Zm1.82-7a2.878,2.878,0,0,0-.52-1.81,1.9,1.9,0,0,0-1.6-.67,2.3,2.3,0,0,0-1.58.63,2.9,2.9,0,0,0-.86,1.85Zm3.9-4.48h2.94l1.22,5.54q.16.82.28,1.62t.28,1.64h.08q.16-.84.32-1.65t.38-1.61l1.34-5.54h2.62l1.4,5.54q.2.82.36,1.62t.34,1.64h.1q.16-.84.28-1.64t.28-1.62l1.22-5.54h2.72L39.2,0H35.74L34.56-4.868q-.18-.8-.33-1.576T33.92-8.12h-.1l-.3,1.686q-.14.788-.32,1.566L32.06,0H28.7ZM46.86.2a3.86,3.86,0,0,1-1.37-.23,2.892,2.892,0,0,1-1.04-.66,3.024,3.024,0,0,1-.67-1.031,3.539,3.539,0,0,1-.24-1.323A3.188,3.188,0,0,1,44.97-6.1,10.1,10.1,0,0,1,49.98-7.2a2.162,2.162,0,0,0-.27-1.414q-.35-.531-1.63-.531a5.205,5.205,0,0,0-1.63.28,6.775,6.775,0,0,0-1.61.78l-.88-2.091a9.676,9.676,0,0,1,2.13-.932,8.462,8.462,0,0,1,2.53-.377,4.054,4.054,0,0,1,3.233,1.25A5.478,5.478,0,0,1,52.94-6.54V0H50.524L50.3-1.14h-.06a5.984,5.984,0,0,1-1.572.98A4.593,4.593,0,0,1,46.86.2Zm.9-2.24a2.732,2.732,0,0,0,1.17-.29,4.209,4.209,0,0,0,1.05-.79V-5.38q-1.06.08-2.02.22a2.18,2.18,0,0,0-1.35.58,1.44,1.44,0,0,0-.37,1.04,1.491,1.491,0,0,0,.45,1.1A1.511,1.511,0,0,0,47.76-2.04Zm8.16-9.16h2.4l.2,1.98h.08a4.933,4.933,0,0,1,1.46-1.68,3,3,0,0,1,1.72-.58,3.428,3.428,0,0,1,.76.07,4.249,4.249,0,0,1,.56.17L62.58-8.7a2.9,2.9,0,0,0-.55-.14,4.192,4.192,0,0,0-.61-.04,2.47,2.47,0,0,0-1.38.49,3.579,3.579,0,0,0-1.2,1.71V0H55.92ZM68.581.28a4.387,4.387,0,0,1-1.891-.4,4,4,0,0,1-1.45-1.16,5.42,5.42,0,0,1-.92-1.84A8.66,8.66,0,0,1,64-5.58a7.3,7.3,0,0,1,.39-2.47A5.731,5.731,0,0,1,65.44-9.9a4.69,4.69,0,0,1,1.51-1.17,3.985,3.985,0,0,1,1.75-.41,3.47,3.47,0,0,1,1.6.33,5.563,5.563,0,0,1,1.24.89l-.12-1.76v-3.94h2.96V0h-2.4l-.242-1.16h-.06a6.112,6.112,0,0,1-1.42,1.02A3.568,3.568,0,0,1,68.581.28Zm.759-2.42a2.366,2.366,0,0,0,1.09-.26,2.986,2.986,0,0,0,.99-.9V-8.22a3.3,3.3,0,0,0-1.04-.65,3.013,3.013,0,0,0-1.04-.19,1.911,1.911,0,0,0-.9.22,2.071,2.071,0,0,0-.73.66,3.684,3.684,0,0,0-.5,1.08,5.213,5.213,0,0,0-.19,1.48A4.611,4.611,0,0,0,67.62-3,1.97,1.97,0,0,0,69.34-2.14Z" transform="translate(1166.03 10340)" fill="#1382ce"/>
    <text id="Case_C" data-name="Case C" transform="translate(1177.16 10295)" fill="#fff" font-size="16" font-family="SpoqaHanSans-Regular, SpoqaHanSans" letter-spacing="0.05em"><tspan x="0" y="0">Case </tspan><tspan y="0" font-family="SpoqaHanSans-Bold, SpoqaHanSans" font-weight="700">C</tspan></text>
    <g id="그룹">
      <path id="패스_2207" data-name="패스 2207" d="M2.992-3.344q.88,0,1.728-.024t1.7-.08q.848-.056,1.728-.16t1.824-.248L10.1-2.792q-.976.158-1.88.26t-1.784.158q-.88.055-1.76.079t-1.808.024H1.68v-5.5H6.96v-2.992H1.632V-11.84h6.64V-6.7H2.992Zm9.632-9.84V1.2H11.312V-13.184Zm6.92,1.744a2.789,2.789,0,0,0-1.718.494,1.554,1.554,0,0,0-.658,1.306,1.57,1.57,0,0,0,.658,1.322,2.789,2.789,0,0,0,1.718.494,2.789,2.789,0,0,0,1.718-.494A1.57,1.57,0,0,0,21.92-9.64a1.554,1.554,0,0,0-.658-1.306A2.789,2.789,0,0,0,19.544-11.44Zm0,4.64A5.025,5.025,0,0,1,18.083-7a3.342,3.342,0,0,1-1.134-.578,2.7,2.7,0,0,1-.734-.9,2.543,2.543,0,0,1-.263-1.163,2.508,2.508,0,0,1,.263-1.147,2.7,2.7,0,0,1,.734-.9,3.342,3.342,0,0,1,1.134-.578,5.025,5.025,0,0,1,1.461-.2,5.025,5.025,0,0,1,1.461.2,3.342,3.342,0,0,1,1.134.578,2.7,2.7,0,0,1,.734.9,2.508,2.508,0,0,1,.263,1.147,2.543,2.543,0,0,1-.263,1.163,2.7,2.7,0,0,1-.734.9A3.342,3.342,0,0,1,21-7,5.025,5.025,0,0,1,19.544-6.8ZM24.4-5.088q-1.056.176-2.128.28t-2.128.168V.752H18.832V-4.576q-1.024.032-1.976.048t-1.816.016l-.16-1.1q1.008,0,2.176-.008t2.392-.056q1.224-.048,2.464-.136T24.32-6.08Zm2.32-8.064V1.2H25.408V-2.336H22.16V-3.36h3.248v-9.792ZM40.512-5.216H30.656V-11.84h9.712v1.072H31.952v4.48h8.56Zm1.5,3.392V-.752H28.992V-1.824ZM47.9-3.52h4v-7.152h-4Zm-1.3-8.208H53.2v9.264H46.608ZM59.44-6.336H57.072v7.52H55.76V-13.152h1.312V-7.44H59.44Zm12.448.528H70.576v-7.36h1.312ZM61.712-9.456a1.937,1.937,0,0,0,.184.848,2,2,0,0,0,.512.664,2.47,2.47,0,0,0,.768.44,2.814,2.814,0,0,0,.968.16,2.882,2.882,0,0,0,.976-.16,2.354,2.354,0,0,0,.768-.44,2.051,2.051,0,0,0,.5-.664,1.937,1.937,0,0,0,.184-.848,1.989,1.989,0,0,0-.184-.856,2.026,2.026,0,0,0-.5-.672,2.354,2.354,0,0,0-.768-.44,2.882,2.882,0,0,0-.976-.16,2.814,2.814,0,0,0-.968.16,2.47,2.47,0,0,0-.768.44,1.979,1.979,0,0,0-.512.672A1.989,1.989,0,0,0,61.712-9.456Zm6.16,0a2.935,2.935,0,0,1-.281,1.288,2.963,2.963,0,0,1-.778,1,3.644,3.644,0,0,1-1.178.648,4.575,4.575,0,0,1-1.483.232,4.575,4.575,0,0,1-1.483-.232,3.644,3.644,0,0,1-1.179-.648,2.876,2.876,0,0,1-.77-1,3.007,3.007,0,0,1-.273-1.288,3.046,3.046,0,0,1,.273-1.3,2.954,2.954,0,0,1,.77-1.008,3.563,3.563,0,0,1,1.179-.656,4.575,4.575,0,0,1,1.483-.232,4.575,4.575,0,0,1,1.483.232,3.563,3.563,0,0,1,1.178.656,3.046,3.046,0,0,1,.778,1.008A2.972,2.972,0,0,1,67.872-9.456Zm4.5,9.424V.992H62.624v-3.6h7.968V-4.064h-8V-5.088h9.3v3.456H63.92v1.6Zm3.968-3.312q.88,0,1.728-.024t1.7-.08q.848-.056,1.728-.16t1.824-.248l.128,1.064q-.976.158-1.88.26t-1.784.158q-.88.055-1.76.079t-1.808.024H75.024v-5.5H80.3v-2.992H74.976V-11.84h6.64V-6.7h-5.28Zm9.632-9.84V1.2H84.656V-13.184Zm7.424,4.4a5.594,5.594,0,0,0,.3,1.808A7.07,7.07,0,0,0,94.52-5.3,7.011,7.011,0,0,0,95.736-3.92a5.514,5.514,0,0,0,1.5.944L96.5-1.92A5.947,5.947,0,0,1,95.3-2.656a7.838,7.838,0,0,1-1.056-1.008A7.632,7.632,0,0,1,93.376-4.9a8.38,8.38,0,0,1-.64-1.408,8.436,8.436,0,0,1-.624,1.5,9.249,9.249,0,0,1-.864,1.336,7.9,7.9,0,0,1-1.04,1.1,5.575,5.575,0,0,1-1.168.792l-.768-1.056a5.786,5.786,0,0,0,1.464-1.024,7.486,7.486,0,0,0,1.216-1.488,7.915,7.915,0,0,0,.824-1.776,6.08,6.08,0,0,0,.3-1.872v-1.824H88.752V-11.68h8.016v1.072H93.392Zm6.624-4.368V1.184H98.7V-13.152ZM115.36-1.664V-.592H102.336V-1.664h5.84v-2.7h-4.208V-8.8h8.512v-2.24h-8.544v-1.072h9.84v4.368h-8.512v2.32h8.816v1.056h-4.592v2.7Z" transform="translate(1145.888 10372)" fill="#333"/>
      <path id="패스_2206" data-name="패스 2206" d="M12.608-4.864a8.75,8.75,0,0,1-1.624-.56,7.879,7.879,0,0,1-1.512-.9A8.242,8.242,0,0,1,8.194-7.536a5.5,5.5,0,0,1-.906-1.472,5.589,5.589,0,0,1-.906,1.456A8.242,8.242,0,0,1,5.1-6.344a8.314,8.314,0,0,1-1.5.912,8.221,8.221,0,0,1-1.616.568L1.392-5.952a7.358,7.358,0,0,0,1.872-.664A7.511,7.511,0,0,0,4.936-7.768,5.9,5.9,0,0,0,6.144-9.3a3.62,3.62,0,0,0,.464-1.76v-1.1h1.36v1.1A3.62,3.62,0,0,0,8.432-9.3,5.9,5.9,0,0,0,9.64-7.768a7.648,7.648,0,0,0,1.68,1.16,6.876,6.876,0,0,0,1.88.656Zm1.248,3.056V-.736H.848V-1.808Zm5.76-4.224h3.568v-4.7H19.616Zm8.3,4.352V-.608H14.928V-1.68h5.808v-3.3H16.112V-6.032H18.3v-4.7H16.08v-1.056H26.72v1.056H24.5v4.7h2.192v1.056h-4.64v3.3Zm2.864-7.184a2.277,2.277,0,0,0,.183.928,2.031,2.031,0,0,0,.518.712,2.348,2.348,0,0,0,.8.456,3.105,3.105,0,0,0,1.021.16,3.054,3.054,0,0,0,1-.16,2.348,2.348,0,0,0,.8-.456,2.031,2.031,0,0,0,.518-.712,2.277,2.277,0,0,0,.183-.928,2.293,2.293,0,0,0-.183-.92,2.014,2.014,0,0,0-.518-.72,2.456,2.456,0,0,0-.8-.464,2.922,2.922,0,0,0-1-.168,2.971,2.971,0,0,0-1.021.168,2.456,2.456,0,0,0-.8.464,2.014,2.014,0,0,0-.518.72A2.293,2.293,0,0,0,30.784-8.864ZM33.952-3.1q.992-.048,1.968-.12t1.9-.2l.112.96q-1.136.192-2.32.3t-2.328.168q-1.144.056-2.232.072T29.024-1.9l-.176-1.1q.864,0,1.824-.008t1.968-.04v-2.48a3.917,3.917,0,0,1-1.28-.36,3.465,3.465,0,0,1-.992-.712,3.115,3.115,0,0,1-.648-1.008,3.309,3.309,0,0,1-.232-1.248,3.317,3.317,0,0,1,.281-1.376,3.054,3.054,0,0,1,.786-1.064,3.674,3.674,0,0,1,1.21-.688A4.612,4.612,0,0,1,33.3-12.24a4.492,4.492,0,0,1,1.515.248,3.69,3.69,0,0,1,1.2.688,3.143,3.143,0,0,1,.794,1.064A3.238,3.238,0,0,1,37.1-8.864a3.235,3.235,0,0,1-.233,1.24,3.135,3.135,0,0,1-.651,1,3.482,3.482,0,0,1-1,.712,4.237,4.237,0,0,1-1.271.376Zm8.368-3.04H40.048V1.184H38.736V-13.184h1.312v5.936H42.32Zm12.512-7.024V1.216H53.52V-13.168Zm-7.568,1.1a3.124,3.124,0,0,1,1.472.352A3.342,3.342,0,0,1,49.888-10.7a5.087,5.087,0,0,1,.752,1.576,7.3,7.3,0,0,1,.272,2.072,7.3,7.3,0,0,1-.272,2.072,5.087,5.087,0,0,1-.752,1.576A3.342,3.342,0,0,1,48.736-2.4a3.124,3.124,0,0,1-1.472.352A3.124,3.124,0,0,1,45.792-2.4,3.342,3.342,0,0,1,44.64-3.408a5.087,5.087,0,0,1-.752-1.576,7.3,7.3,0,0,1-.272-2.072,7.3,7.3,0,0,1,.272-2.072A5.087,5.087,0,0,1,44.64-10.7a3.342,3.342,0,0,1,1.152-1.008A3.124,3.124,0,0,1,47.264-12.064Zm0,1.184a1.808,1.808,0,0,0-.968.271,2.428,2.428,0,0,0-.76.766,3.964,3.964,0,0,0-.5,1.206,6.542,6.542,0,0,0-.176,1.573,6.517,6.517,0,0,0,.176,1.581,4.08,4.08,0,0,0,.5,1.206,2.4,2.4,0,0,0,.76.774,1.808,1.808,0,0,0,.968.271,1.768,1.768,0,0,0,.96-.271,2.437,2.437,0,0,0,.752-.774,4.08,4.08,0,0,0,.5-1.206,6.517,6.517,0,0,0,.176-1.581,6.542,6.542,0,0,0-.176-1.573,3.964,3.964,0,0,0-.5-1.206,2.463,2.463,0,0,0-.752-.766A1.768,1.768,0,0,0,47.264-10.88ZM68.672-5.216H58.816V-11.84h9.712v1.072H60.112v4.48h8.56Zm1.5,3.392V-.752H57.152V-1.824ZM76.208-3.68q1.04-.016,2.176-.1a20.946,20.946,0,0,0,2.432-.344l.128,1.136a23.956,23.956,0,0,1-2.712.36q-1.256.088-2.424.088H74.9v-8.88h1.312Zm10.16-9.472V1.168H85.1V-6.24H83.056V.448H81.84v-13.28h1.216v5.52H85.1v-5.84Zm16.608,8.288a8.75,8.75,0,0,1-1.624-.56,7.879,7.879,0,0,1-1.512-.9,8.242,8.242,0,0,1-1.278-1.208,5.5,5.5,0,0,1-.906-1.472,5.589,5.589,0,0,1-.906,1.456,8.242,8.242,0,0,1-1.278,1.208,8.313,8.313,0,0,1-1.5.912,8.221,8.221,0,0,1-1.616.568L91.76-5.952a7.358,7.358,0,0,0,1.872-.664A7.511,7.511,0,0,0,95.3-7.768,5.9,5.9,0,0,0,96.512-9.3a3.62,3.62,0,0,0,.464-1.76v-1.1h1.36v1.1A3.62,3.62,0,0,0,98.8-9.3a5.9,5.9,0,0,0,1.208,1.528,7.648,7.648,0,0,0,1.68,1.16,6.876,6.876,0,0,0,1.88.656Zm1.248,3.056V-.736H91.216V-1.808Zm14.1.144V-.592H105.28V-1.664h5.856V-4.64H106.96V-12h9.712v1.072h-8.4v2.016h8.08v1.024h-8.08v2.176h8.56V-4.64h-4.384v2.976Zm4.9-1.568a1.7,1.7,0,0,0,.936-.271,2.4,2.4,0,0,0,.736-.774,4.071,4.071,0,0,0,.48-1.206,6.813,6.813,0,0,0,.168-1.581,6.84,6.84,0,0,0-.168-1.573,3.957,3.957,0,0,0-.48-1.206,2.421,2.421,0,0,0-.736-.766,1.7,1.7,0,0,0-.936-.271,1.74,1.74,0,0,0-.944.271,2.386,2.386,0,0,0-.744.766,3.957,3.957,0,0,0-.48,1.206,6.84,6.84,0,0,0-.168,1.573,6.813,6.813,0,0,0,.168,1.581,4.071,4.071,0,0,0,.48,1.206,2.362,2.362,0,0,0,.744.774A1.74,1.74,0,0,0,123.216-3.232Zm7.984-9.936V1.216h-1.312v-7.84h-3.136a7.108,7.108,0,0,1-.327,1.9,4.706,4.706,0,0,1-.742,1.44,3.243,3.243,0,0,1-1.093.912,3.007,3.007,0,0,1-1.381.32,2.985,2.985,0,0,1-1.437-.352,3.388,3.388,0,0,1-1.133-1.008,4.964,4.964,0,0,1-.742-1.576,7.527,7.527,0,0,1-.263-2.072,7.527,7.527,0,0,1,.263-2.072,4.964,4.964,0,0,1,.742-1.576,3.388,3.388,0,0,1,1.133-1.008,2.985,2.985,0,0,1,1.437-.352,2.965,2.965,0,0,1,1.333.3,3.314,3.314,0,0,1,1.086.872,4.489,4.489,0,0,1,.758,1.376,7.077,7.077,0,0,1,.367,1.816h3.136v-5.472Zm16.96,8.24h-1.312v-8.24h1.312ZM142.576-11.2h-4.128v3.776h4.128Zm1.3,4.832h-6.72v-5.856h6.72Zm.4,3.424a1.649,1.649,0,0,0,.392,1.016,4.066,4.066,0,0,0,1.048.92,7.571,7.571,0,0,0,1.5.72,8.133,8.133,0,0,0,1.776.416l-.448,1.008a9.312,9.312,0,0,1-1.568-.352,8.64,8.64,0,0,1-1.392-.576,5.9,5.9,0,0,1-1.136-.768,4.061,4.061,0,0,1-.8-.928,3.963,3.963,0,0,1-.84.944,6.391,6.391,0,0,1-1.176.768,8.618,8.618,0,0,1-1.416.568,10.091,10.091,0,0,1-1.576.344L138.205.128a8.9,8.9,0,0,0,1.763-.4,7.117,7.117,0,0,0,1.516-.7,4.066,4.066,0,0,0,1.061-.928,1.683,1.683,0,0,0,.4-1.04h-4.192V-3.968h4.208V-5.36h1.312v1.392h4.208v1.024Z" transform="translate(1128.864 10394)" fill="#333"/>
      <path id="패스_2208" data-name="패스 2208" d="M11.344-9.12v-4.032h1.312V-2.544H11.344v-5.5H8.784V-9.12ZM3.968-6.032l1.088-.032q.544-.016,1.1-.048v-4.72H3.968Zm5.616.592q-1.072.192-2.2.3t-2.238.16q-1.108.056-2.158.072T1.04-4.9L.9-6h.872q.456,0,.936-.016v-4.816H1.28v-1.056h7.6v1.056H7.456v4.64q.512-.032,1.024-.08T9.488-6.4ZM13.04-.208V.864H3.472V-3.488H4.784v3.28ZM26.7-4.32H25.392v-8.832H26.7ZM24.08-6.256q-.8.16-1.56.256t-1.6.152q-.84.056-1.8.08t-2.144.024H15.792v-6.288h6.752v1.056H17.1v4.16q1.136,0,2.056-.024t1.728-.08q.808-.056,1.552-.152t1.512-.256ZM21.928.16A6.038,6.038,0,0,0,24.51-.29a1.393,1.393,0,0,0,.93-1.27,1.393,1.393,0,0,0-.93-1.27,6.038,6.038,0,0,0-2.582-.45,6.094,6.094,0,0,0-2.59.45A1.394,1.394,0,0,0,18.4-1.56a1.394,1.394,0,0,0,.938,1.27A6.094,6.094,0,0,0,21.928.16ZM21.936-4.3a10,10,0,0,1,2,.184,5.24,5.24,0,0,1,1.52.534,2.709,2.709,0,0,1,.96.862,2.07,2.07,0,0,1,.336,1.165A2.07,2.07,0,0,1,26.416-.4a2.709,2.709,0,0,1-.96.862A5.24,5.24,0,0,1,23.936,1a10,10,0,0,1-2,.183,10,10,0,0,1-2-.183,5.24,5.24,0,0,1-1.52-.535,2.709,2.709,0,0,1-.96-.862A2.07,2.07,0,0,1,17.12-1.56a2.07,2.07,0,0,1,.336-1.165,2.709,2.709,0,0,1,.96-.862,5.24,5.24,0,0,1,1.52-.534A10,10,0,0,1,21.936-4.3ZM36.768-9.339a6.361,6.361,0,0,0,.288,1.88A7.909,7.909,0,0,0,37.84-5.7,7.32,7.32,0,0,0,39-4.227a5.819,5.819,0,0,0,1.416,1.032L39.6-2.155a5.69,5.69,0,0,1-1.1-.76,7.452,7.452,0,0,1-.968-1.032A8.575,8.575,0,0,1,36.728-5.2a8.952,8.952,0,0,1-.6-1.416,8.8,8.8,0,0,1-1.408,2.84,6.68,6.68,0,0,1-2.16,1.912l-.784-1.056A5.919,5.919,0,0,0,33.224-4,7.336,7.336,0,0,0,34.4-5.547a8.531,8.531,0,0,0,.784-1.84,6.867,6.867,0,0,0,.288-1.952v-2.576h1.3ZM45.36-6.256H42.992v7.44H41.68v-14.32h1.312v5.808H45.36Zm7.16,6.4a6.97,6.97,0,0,0,2.634-.4q.942-.4.942-1.13t-.942-1.13a6.97,6.97,0,0,0-2.634-.4,6.97,6.97,0,0,0-2.634.4q-.942.4-.942,1.13t.942,1.13A6.97,6.97,0,0,0,52.52.144Zm-.008-4.08a8.006,8.006,0,0,1,3.6.664,2.065,2.065,0,0,1,1.292,1.9A2.05,2.05,0,0,1,56.116.512a8.091,8.091,0,0,1-3.6.656,8.1,8.1,0,0,1-3.6-.656,2.05,2.05,0,0,1-1.3-1.888,2.065,2.065,0,0,1,1.3-1.9A8.015,8.015,0,0,1,52.512-3.936ZM50.528-6.064h3.984v-1.68q-.448.08-.944.12t-1.056.04q-.544,0-1.04-.04t-.944-.12Zm-1.7-4.184q0,.764.982,1.2a6.792,6.792,0,0,0,2.706.438,6.792,6.792,0,0,0,2.706-.438q.982-.438.982-1.2,0-.78-.982-1.21a6.906,6.906,0,0,0-2.706-.43,6.906,6.906,0,0,0-2.706.43Q48.832-11.028,48.832-10.248ZM59.008-6.064v1.056H46.016V-6.064h3.216V-8.08a3.285,3.285,0,0,1-1.312-.888,1.92,1.92,0,0,1-.448-1.272,1.888,1.888,0,0,1,.352-1.12,2.8,2.8,0,0,1,1.008-.84,5.869,5.869,0,0,1,1.584-.528,10.831,10.831,0,0,1,2.1-.184,10.956,10.956,0,0,1,2.1.184A5.745,5.745,0,0,1,56.2-12.2a2.812,2.812,0,0,1,1,.84,1.888,1.888,0,0,1,.352,1.12A1.909,1.909,0,0,1,57.1-8.976a3.206,3.206,0,0,1-1.288.88v2.032Zm12.848-7.1V1.216H70.544V-13.168Zm-7.568,1.1a3.124,3.124,0,0,1,1.472.352A3.342,3.342,0,0,1,66.912-10.7a5.087,5.087,0,0,1,.752,1.576,7.3,7.3,0,0,1,.272,2.072,7.3,7.3,0,0,1-.272,2.072,5.087,5.087,0,0,1-.752,1.576A3.342,3.342,0,0,1,65.76-2.4a3.124,3.124,0,0,1-1.472.352A3.124,3.124,0,0,1,62.816-2.4a3.342,3.342,0,0,1-1.152-1.008,5.087,5.087,0,0,1-.752-1.576,7.3,7.3,0,0,1-.272-2.072,7.3,7.3,0,0,1,.272-2.072,5.087,5.087,0,0,1,.752-1.576,3.342,3.342,0,0,1,1.152-1.008A3.124,3.124,0,0,1,64.288-12.064Zm0,1.184a1.808,1.808,0,0,0-.968.271,2.428,2.428,0,0,0-.76.766,3.964,3.964,0,0,0-.5,1.206,6.542,6.542,0,0,0-.176,1.573,6.517,6.517,0,0,0,.176,1.581,4.08,4.08,0,0,0,.5,1.206,2.4,2.4,0,0,0,.76.774,1.808,1.808,0,0,0,.968.271,1.768,1.768,0,0,0,.96-.271A2.436,2.436,0,0,0,66-4.278a4.08,4.08,0,0,0,.5-1.206,6.517,6.517,0,0,0,.176-1.581A6.542,6.542,0,0,0,66.5-8.637,3.964,3.964,0,0,0,66-9.842a2.463,2.463,0,0,0-.752-.766A1.768,1.768,0,0,0,64.288-10.88Zm20.176-.752a11.907,11.907,0,0,1-.368,2.96,10.086,10.086,0,0,1-1.152,2.736,10.735,10.735,0,0,1-2.016,2.408,13.067,13.067,0,0,1-2.976,1.976l-.72-1.024a11.523,11.523,0,0,0,4.24-3.408,8.93,8.93,0,0,0,1.7-4.576H77.9v-1.072ZM90.48-6.256h-2.3v7.44H86.864V-13.152h1.312v5.824h2.3ZM102.7-8.112H92.976v-4.752h1.312v3.7H102.7ZM97.688.112A6.752,6.752,0,0,0,100.334-.3q.946-.416.946-1.168a1.307,1.307,0,0,0-.946-1.184,8.622,8.622,0,0,0-5.292,0A1.307,1.307,0,0,0,94.1-1.472q0,.752.946,1.168A6.752,6.752,0,0,0,97.688.112Zm0-4.208a10.791,10.791,0,0,1,2.053.176,5.622,5.622,0,0,1,1.541.512,2.642,2.642,0,0,1,.974.824,1.916,1.916,0,0,1,.336,1.112,1.916,1.916,0,0,1-.336,1.112,2.577,2.577,0,0,1-.974.816,5.813,5.813,0,0,1-1.541.5,10.791,10.791,0,0,1-2.053.176A10.791,10.791,0,0,1,95.635.96a5.814,5.814,0,0,1-1.541-.5A2.577,2.577,0,0,1,93.12-.36a1.916,1.916,0,0,1-.336-1.112,1.916,1.916,0,0,1,.336-1.112,2.642,2.642,0,0,1,.974-.824,5.622,5.622,0,0,1,1.541-.512A10.791,10.791,0,0,1,97.688-4.1Zm6.52-2.352v1.072H91.232V-6.448Z" transform="translate(1151.456 10416)" fill="#333"/>
    </g>
  </g>
</svg>
