<svg xmlns="http://www.w3.org/2000/svg" width="71.14" height="90.5" viewBox="0 0 71.14 90.5">
  <g id="ing_3-3_process_04" transform="translate(-1344.12 -14444)">
    <g id="그룹_4430" data-name="그룹 4430" transform="translate(841 -39)">
      <circle id="타원_153" data-name="타원 153" cx="29" cy="29" r="29" transform="translate(511 14483)" fill="#fff" opacity="0.15"/>
      <circle id="타원_152" data-name="타원 152" cx="20" cy="20" r="20" transform="translate(520 14492)" fill="#fff" opacity="0.3"/>
      <circle id="타원_151" data-name="타원 151" cx="8" cy="8" r="8" transform="translate(532 14504)" fill="#fff"/>
    </g>
    <path id="패스_2494" data-name="패스 2494" d="M5-7.32l1.41-.04q.715-.02,1.43-.06v-6.04H5Zm7.16.76q-1.34.22-2.77.34t-2.84.19q-1.41.07-2.75.09t-2.5.02L1.12-7.26H2.21q.57,0,1.17-.02v-6.18H1.62v-1.32H11.2v1.32H9.42v5.92q1.36-.06,2.62-.24ZM5.46-.26H15.78V1.08H3.82V-4.48H5.46ZM17.64-11v1.34H14.98v6.4H13.34v-13.2h1.64V-11Zm3.18,6.38H24.6V-13.1H20.82ZM19.3-14.38h6.82V-3.34H19.3Zm14.6-2.08V1.46H32.34V-8.02H29.9V.58H28.38V-16.06H29.9v6.7h2.44v-7.1ZM47.74-8.98a20.977,20.977,0,0,0,.4-2.72q.08-1.16.08-2.02H40.9v-1.34h8.94v.94q0,.9-.061,2.22a21.972,21.972,0,0,1-.4,3.1Zm3.44,2.46q-1.4.24-2.87.38t-2.93.21q-1.46.07-2.83.1t-2.57.03l-.16-1.34q.86,0,1.82-.01t1.98-.03v-3.88h1.62v3.82q1.48-.06,2.96-.17t2.86-.31ZM44.2-.26H54.48V1.08H42.56V-4.18H44.2ZM56.48-10.6v1.34H53.9v6.32H52.26v-13.5H53.9v5.84Zm3.74,6.42q1.1,0,2.16-.03t2.12-.1q1.06-.07,2.16-.2t2.28-.31l.16,1.33q-1.22.2-2.35.325t-2.23.2q-1.1.069-2.2.1t-2.26.03H58.58V-9.72h6.6v-3.74H58.52V-14.8h8.3v6.42h-6.6Zm12.04-12.3V1.5H70.62V-16.48Z" transform="translate(1343 14533)" fill="#fff"/>
  </g>
</svg>
