<svg xmlns="http://www.w3.org/2000/svg" xmlns:xlink="http://www.w3.org/1999/xlink" width="360" height="479.9" viewBox="0 0 360 479.9">
  <defs>
    <linearGradient id="linear-gradient" x1="0.5" x2="0.5" y2="1" gradientUnits="objectBoundingBox">
      <stop offset="0" stop-color="#00b9ff"/>
      <stop offset="1" stop-color="#1572de"/>
    </linearGradient>
    <linearGradient id="linear-gradient-4" x1="0.5" x2="0.5" y2="1" gradientUnits="objectBoundingBox">
      <stop offset="0" stop-color="#fff" stop-opacity="0"/>
      <stop offset="1" stop-color="#fff" stop-opacity="0.322"/>
    </linearGradient>
  </defs>
  <g id="mobile_img_10" transform="translate(0 -14456)">
    <g id="그룹_4459" data-name="그룹 4459">
      <path id="패스_2526" data-name="패스 2526" d="M0,0H360V429H0Z" transform="translate(0 14456)" fill="#f8f8f8"/>
      <g id="그룹_4448" data-name="그룹 4448" transform="translate(0 -17)">
        <ellipse id="타원_157" data-name="타원 157" cx="59" cy="10" rx="59" ry="10" transform="translate(92 14694)" fill="#efefef"/>
        <circle id="타원_156" data-name="타원 156" cx="99" cy="99" r="99" transform="translate(52 14506)" fill="url(#linear-gradient)"/>
        <circle id="타원_160" data-name="타원 160" cx="4.5" cy="4.5" r="4.5" transform="translate(292 14746)" fill="url(#linear-gradient)"/>
        <circle id="타원_161" data-name="타원 161" cx="4.5" cy="4.5" r="4.5" transform="translate(292 14842)" fill="url(#linear-gradient)"/>
        <g id="타원_158" data-name="타원 158" transform="translate(91 14583)" stroke="#8ee0ff" stroke-width="1" stroke-dasharray="5" fill="url(#linear-gradient-4)">
          <circle cx="59.5" cy="59.5" r="59.5" stroke="none"/>
          <circle cx="59.5" cy="59.5" r="59" fill="none"/>
        </g>
        <path id="패스_2532" data-name="패스 2532" d="M8.32-19.734a7.435,7.435,0,0,1,2.466.441,5.947,5.947,0,0,1,1.9,1.115,4.728,4.728,0,0,1,1.2,1.634,4.661,4.661,0,0,1,.387,2.023,4.081,4.081,0,0,1-.845,2.684,6.13,6.13,0,0,1-2.067,1.621,5.033,5.033,0,0,1,2.483,1.781,4.963,4.963,0,0,1,.767,2.847,6.038,6.038,0,0,1-.6,2.626,5.77,5.77,0,0,1-1.508,1.911A6.431,6.431,0,0,1,10.322.1a8.666,8.666,0,0,1-2.6.39A8.534,8.534,0,0,1,5.109.13,5.706,5.706,0,0,1,3.159-.923a6.407,6.407,0,0,1-1.4-1.69A10.7,10.7,0,0,1,.78-4.888L3.952-6.136a5.63,5.63,0,0,0,.364.936,6.865,6.865,0,0,0,.559.975,4.268,4.268,0,0,0,.7.78,3.8,3.8,0,0,0,.91.585,2.8,2.8,0,0,0,1.183.234,4.125,4.125,0,0,0,1.5-.247,3.253,3.253,0,0,0,1.066-.65,2.563,2.563,0,0,0,.637-.923,2.846,2.846,0,0,0,.208-1.066,5.588,5.588,0,0,0-.131-1.248,1.792,1.792,0,0,0-.6-.975A3.284,3.284,0,0,0,8.97-8.359,10.623,10.623,0,0,0,6.552-8.58v-2.6a9.707,9.707,0,0,0,2.106-.234A3.358,3.358,0,0,0,9.958-12a2,2,0,0,0,.65-.884,3.329,3.329,0,0,0,.182-1.131,2.548,2.548,0,0,0-.689-2.015,2.814,2.814,0,0,0-1.989-.663,3.047,3.047,0,0,0-1.924.585A3.3,3.3,0,0,0,5.1-14.586a8.41,8.41,0,0,0-.286,1.222q-.832-.13-1.677-.3t-1.7-.3a7.044,7.044,0,0,1,2.353-4.354A7.059,7.059,0,0,1,8.32-19.734Zm14.3-.026a7.143,7.143,0,0,1,2.483.416,5.763,5.763,0,0,1,1.937,1.157A5.242,5.242,0,0,1,28.3-16.406a5.647,5.647,0,0,1,.455,2.288,6.069,6.069,0,0,1-.377,1.963,9.486,9.486,0,0,1-.9,1.807,14.74,14.74,0,0,1-1.235,1.664q-.689.806-1.417,1.56L20.8-3.068a6.2,6.2,0,0,1,1-.169q.481-.039.923-.039h6.24V0H15.418V-2.08L21.944-8.5a19.09,19.09,0,0,0,2.34-2.756,4.879,4.879,0,0,0,.858-2.782,2.653,2.653,0,0,0-.741-2.041,2.842,2.842,0,0,0-2.015-.689,2.763,2.763,0,0,0-1.846.637,3.513,3.513,0,0,0-1.066,1.5,2.737,2.737,0,0,0-.143.6q-.039.312-.065.7L15.86-13.91a6.57,6.57,0,0,1,2.262-4.42A7.056,7.056,0,0,1,22.62-19.76ZM31.512-8.84a12.212,12.212,0,0,0,2.73-.923,13.7,13.7,0,0,0,2.821-1.729,10.3,10.3,0,0,0,2.2-2.366,4.978,4.978,0,0,0,.884-2.808V-17.81H32.11v-1.144H49.582v1.144H41.548v1.144a4.6,4.6,0,0,0,.416,1.911,7.468,7.468,0,0,0,1.1,1.742,10.109,10.109,0,0,0,1.586,1.508A13.9,13.9,0,0,0,46.514-10.3a15.827,15.827,0,0,0,1.924.884,9.061,9.061,0,0,0,1.794.494l-.6,1.118a13.7,13.7,0,0,1-2.483-.832,15.5,15.5,0,0,1-2.535-1.4,13.008,13.008,0,0,1-2.223-1.911A8.2,8.2,0,0,1,40.846-14.3a7.668,7.668,0,0,1-1.521,2.379A13.752,13.752,0,0,1,37.115-10,14.516,14.516,0,0,1,34.593-8.58a13.938,13.938,0,0,1-2.457.832ZM51.324-2.47v1.144H30.394V-2.47H40.17v-5.9h1.378v5.9Z" transform="translate(124 14559)" fill="#fff"/>
        <path id="패스_2533" data-name="패스 2533" d="M10.54-12.5H4.92l-.5,2.92a8.755,8.755,0,0,1,.89-.11q.43-.03.83-.03a5.79,5.79,0,0,1,2.12.36,4.349,4.349,0,0,1,1.54.99,4.169,4.169,0,0,1,.94,1.49,5.234,5.234,0,0,1,.32,1.84,5.511,5.511,0,0,1-.43,2.2A5.025,5.025,0,0,1,9.44-1.13a5.36,5.36,0,0,1-1.8,1.1A6.328,6.328,0,0,1,5.4.36,5.855,5.855,0,0,1,4.06.21a6.959,6.959,0,0,1-1.21-.4A7.772,7.772,0,0,1,1.78-.76,5.9,5.9,0,0,1,.9-1.44L2.3-3.48a9.662,9.662,0,0,0,.77.6q.27.18.59.35a6,6,0,0,0,.8.34,3.286,3.286,0,0,0,1.1.17,2.686,2.686,0,0,0,2.09-.8,2.994,2.994,0,0,0,.73-2.1A2.48,2.48,0,0,0,7.67-6.8,2.756,2.756,0,0,0,5.6-7.44a7.812,7.812,0,0,0-1.11.16,9.382,9.382,0,0,0-1.07.3l-1.68-.5q.94-5.595,1.24-7.5h7.56ZM14.36.28a1.715,1.715,0,0,1-1.3-.55,1.917,1.917,0,0,1-.52-1.37,1.917,1.917,0,0,1,.52-1.37,1.715,1.715,0,0,1,1.3-.55,1.738,1.738,0,0,1,1.32.55,1.917,1.917,0,0,1,.52,1.37,1.917,1.917,0,0,1-.52,1.37A1.738,1.738,0,0,1,14.36.28Zm13-12.78H21.74l-.5,2.92a8.755,8.755,0,0,1,.89-.11q.43-.03.83-.03a5.79,5.79,0,0,1,2.12.36,4.349,4.349,0,0,1,1.54.99,4.169,4.169,0,0,1,.94,1.49,5.234,5.234,0,0,1,.32,1.84,5.511,5.511,0,0,1-.43,2.2,5.025,5.025,0,0,1-1.19,1.71,5.36,5.36,0,0,1-1.8,1.1,6.328,6.328,0,0,1-2.24.39A5.855,5.855,0,0,1,20.88.21a6.959,6.959,0,0,1-1.21-.4A7.772,7.772,0,0,1,18.6-.76a5.9,5.9,0,0,1-.88-.68l1.4-2.04a9.662,9.662,0,0,0,.77.6q.27.18.59.35a6,6,0,0,0,.8.34,3.286,3.286,0,0,0,1.1.17,2.686,2.686,0,0,0,2.09-.8,2.994,2.994,0,0,0,.73-2.1,2.48,2.48,0,0,0-.71-1.88,2.756,2.756,0,0,0-2.07-.64,7.812,7.812,0,0,0-1.11.16,9.382,9.382,0,0,0-1.07.3l-1.68-.5q.94-5.595,1.24-7.5h7.56Zm2.58,5.7a9.394,9.394,0,0,0,2.1-.71,10.535,10.535,0,0,0,2.17-1.33,7.925,7.925,0,0,0,1.69-1.82,3.829,3.829,0,0,0,.68-2.16v-.88H30.4v-.88H43.84v.88H37.66v.88a3.54,3.54,0,0,0,.32,1.47,5.744,5.744,0,0,0,.85,1.34,7.776,7.776,0,0,0,1.22,1.16,10.7,10.7,0,0,0,1.43.93,12.175,12.175,0,0,0,1.48.68,6.97,6.97,0,0,0,1.38.38L43.88-6a10.536,10.536,0,0,1-1.91-.64,11.92,11.92,0,0,1-1.95-1.08,10.006,10.006,0,0,1-1.71-1.47A6.3,6.3,0,0,1,37.12-11a5.9,5.9,0,0,1-1.17,1.83,10.578,10.578,0,0,1-1.7,1.48A11.166,11.166,0,0,1,32.31-6.6a10.721,10.721,0,0,1-1.89.64ZM45.18-1.9v.88H29.08V-1.9H36.6V-6.44h1.06V-1.9Z" transform="translate(128 14651)" fill="#fff"/>
        <line id="선_505" data-name="선 505" x2="139" transform="translate(189.5 14548.501)" fill="none" stroke="#555" stroke-width="1" stroke-dasharray="5"/>
        <line id="선_506" data-name="선 506" x2="136.179" transform="translate(206.5 14643.5)" fill="none" stroke="#555" stroke-width="1" stroke-dasharray="5"/>
        <line id="선_510" data-name="선 510" x2="37.179" transform="translate(305.5 14846.5)" fill="none" stroke="#555" stroke-width="1" stroke-dasharray="5"/>
        <line id="선_511" data-name="선 511" x2="23" transform="translate(305.5 14750.5)" fill="none" stroke="#555" stroke-width="1" stroke-dasharray="5"/>
        <line id="선_509" data-name="선 509" y2="203" transform="translate(342.5 14643.5)" fill="none" stroke="#555" stroke-width="1" stroke-dasharray="5"/>
        <line id="선_512" data-name="선 512" y2="203" transform="translate(328.5 14548.5)" fill="none" stroke="#555" stroke-width="1" stroke-dasharray="5"/>
        <g id="그룹_4446" data-name="그룹 4446">
          <path id="패스_2530" data-name="패스 2530" d="M4.194-.036h9.972V1.116H2.736V-3.042h9.558V-4.824H2.682V-5.976H13.77v4.05H4.194ZM15.606-8.8v1.188H.954V-8.8H11.88a16.861,16.861,0,0,0,.324-2.34q.054-.99.054-1.8H2.826V-14.13h10.89V-13.1q0,.828-.045,1.881A16.275,16.275,0,0,1,13.356-8.8Zm15.822,6.93V-.666H16.776V-1.872h6.57V-4.914H18.612V-9.9h9.576v-2.52H18.576v-1.206h11.07v4.914H20.07V-6.1h9.918v1.188H24.822v3.042Zm7.83-8.748H34.9v2.412h4.356Zm1.458,3.564H33.444v-7.02H34.9v2.3h4.356v-2.3h1.458v2.88h3.726v-3.6h1.476v8.388H44.442v-3.6H40.716ZM46.53-.036V1.116H35.55v-4h8.91V-4.464H35.514V-5.616h10.4v3.834h-8.91V-.036Zm18.5-2.97H63.558V-14.8h1.476ZM53.622-9.72a2.871,2.871,0,0,0,.206,1.1,2.537,2.537,0,0,0,.574.864,2.583,2.583,0,0,0,.87.558,2.958,2.958,0,0,0,1.094.2,3.03,3.03,0,0,0,1.1-.2,2.66,2.66,0,0,0,.888-.558,2.476,2.476,0,0,0,.583-.864,2.871,2.871,0,0,0,.206-1.1,2.737,2.737,0,0,0-.206-1.08,2.518,2.518,0,0,0-.583-.846,2.66,2.66,0,0,0-.888-.558,3.03,3.03,0,0,0-1.1-.2,2.958,2.958,0,0,0-1.094.2,2.583,2.583,0,0,0-.87.558,2.582,2.582,0,0,0-.574.846A2.737,2.737,0,0,0,53.622-9.72Zm6.984,0a3.915,3.915,0,0,1-.325,1.611,3.846,3.846,0,0,1-.893,1.26,4.082,4.082,0,0,1-1.344.828,4.651,4.651,0,0,1-1.678.3,4.581,4.581,0,0,1-1.669-.3,4.1,4.1,0,0,1-1.335-.828,3.737,3.737,0,0,1-.884-1.26,4.012,4.012,0,0,1-.316-1.611,3.966,3.966,0,0,1,.316-1.593,3.737,3.737,0,0,1,.884-1.26,3.981,3.981,0,0,1,1.335-.819,4.708,4.708,0,0,1,1.669-.288,4.781,4.781,0,0,1,1.678.288,3.965,3.965,0,0,1,1.344.819,3.846,3.846,0,0,1,.893,1.26A3.871,3.871,0,0,1,60.606-9.72ZM65.52-.234V.972H54.648V-4.212h1.476V-.234Zm4.32-3.51q1.1,0,2.016-.027T73.6-3.852q.828-.054,1.611-.153t1.611-.243l.162,1.206q-.882.162-1.71.261t-1.7.153q-.873.054-1.845.072t-2.124.018H68.364v-10.8h7.47v1.206H69.84V-8.8h5.292v1.188H69.84Zm11.088-11.07V1.35H79.452V-7.506h-3.33V-8.73l3.33.018v-6.1ZM97.146-3.888h-1.4V-14.814h1.4ZM92.5-9.936H89.064v-1.188H92.5v-3.348h1.4v9.144H92.5Zm-1.386,3.5a23.291,23.291,0,0,1-2.97.443q-1.368.106-2.79.106H84.33v-7.452h1.458v6.246q1.242-.018,2.5-.126a21.532,21.532,0,0,0,2.682-.414Zm1.35,2.314a2.64,2.64,0,0,0,.459,1.485,5.117,5.117,0,0,0,1.215,1.26,7.354,7.354,0,0,0,1.746.954,9.59,9.59,0,0,0,2.052.549L97.38,1.278A11.605,11.605,0,0,1,95.625.819a8.86,8.86,0,0,1-1.6-.738,7.286,7.286,0,0,1-1.332-1,5.313,5.313,0,0,1-.963-1.224,5.313,5.313,0,0,1-.963,1.224,7.427,7.427,0,0,1-1.323,1,8.59,8.59,0,0,1-1.593.738,11.605,11.605,0,0,1-1.755.459L85.554.126A9.419,9.419,0,0,0,87.6-.423a7.407,7.407,0,0,0,1.737-.954,4.968,4.968,0,0,0,1.206-1.26,2.678,2.678,0,0,0,.45-1.485V-4.7h1.476ZM109.917.18a7.8,7.8,0,0,0,2.968-.45,1.437,1.437,0,0,0,1.055-1.314A1.437,1.437,0,0,0,112.885-2.9a7.8,7.8,0,0,0-2.968-.45,7.931,7.931,0,0,0-2.995.45q-1.064.45-1.064,1.314T106.922-.27A7.931,7.931,0,0,0,109.917.18Zm0-4.68a12.74,12.74,0,0,1,2.3.189,6.008,6.008,0,0,1,1.734.567,3.028,3.028,0,0,1,1.087.918,2.114,2.114,0,0,1,.377,1.242,2.114,2.114,0,0,1-.377,1.242,3.028,3.028,0,0,1-1.087.918,6.008,6.008,0,0,1-1.734.567,12.74,12.74,0,0,1-2.3.189,9.01,9.01,0,0,1-4.061-.756,2.352,2.352,0,0,1-1.474-2.16,2.352,2.352,0,0,1,1.474-2.16A9.01,9.01,0,0,1,109.917-4.5Zm7.317-2.34v1.188H102.618V-6.84h6.57V-8.712h-4.734v-5.364H115.4v1.188h-9.486V-9.9h9.594v1.188h-4.842V-6.84Zm2.88-3.186a2.554,2.554,0,0,0,.207,1.044,2.534,2.534,0,0,0,.576.819,2.549,2.549,0,0,0,.873.54,3.1,3.1,0,0,0,1.1.189,3.1,3.1,0,0,0,1.1-.189,2.455,2.455,0,0,0,.864-.54,2.6,2.6,0,0,0,.567-.819,2.554,2.554,0,0,0,.207-1.044,2.572,2.572,0,0,0-.207-1.035,2.473,2.473,0,0,0-.567-.819,2.524,2.524,0,0,0-.864-.531,3.1,3.1,0,0,0-1.1-.189,3.1,3.1,0,0,0-1.1.189,2.623,2.623,0,0,0-.873.531,2.411,2.411,0,0,0-.576.819A2.572,2.572,0,0,0,120.114-10.026Zm6.7-1.26a3.959,3.959,0,0,1,.2,1.26,3.658,3.658,0,0,1-.216,1.26h3.474v-2.52Zm-.684,3.726a3.873,3.873,0,0,1-1.4,1.03,4.519,4.519,0,0,1-1.863.374,4.814,4.814,0,0,1-1.665-.28,3.81,3.81,0,0,1-1.314-.794,3.721,3.721,0,0,1-.864-1.227,3.817,3.817,0,0,1-.315-1.561,3.755,3.755,0,0,1,.315-1.552,3.647,3.647,0,0,1,.864-1.209,3.885,3.885,0,0,1,1.314-.785,4.814,4.814,0,0,1,1.665-.28,4.668,4.668,0,0,1,1.863.36,3.88,3.88,0,0,1,1.4.99h4.14v-2.322h1.476v9.558h-1.476v-2.3Zm.288,7.722a6.763,6.763,0,0,0,2.9-.506,1.567,1.567,0,0,0,1.044-1.429,1.584,1.584,0,0,0-1.044-1.438,6.659,6.659,0,0,0-2.9-.515,6.547,6.547,0,0,0-2.871.515,1.583,1.583,0,0,0-1.035,1.438,1.566,1.566,0,0,0,1.035,1.429A6.648,6.648,0,0,0,126.414.162Zm-.009-5.04a11.05,11.05,0,0,1,2.237.207,5.867,5.867,0,0,1,1.7.6,3.048,3.048,0,0,1,1.078.972,2.343,2.343,0,0,1,.377,1.314,2.344,2.344,0,0,1-.377,1.314A3.048,3.048,0,0,1,130.34.5a5.867,5.867,0,0,1-1.7.6,11.05,11.05,0,0,1-2.237.207,10.916,10.916,0,0,1-2.228-.207,5.87,5.87,0,0,1-1.689-.6,2.966,2.966,0,0,1-1.069-.972,2.386,2.386,0,0,1-.368-1.314,2.386,2.386,0,0,1,.368-1.314,2.966,2.966,0,0,1,1.069-.972,5.87,5.87,0,0,1,1.689-.6A10.916,10.916,0,0,1,126.4-4.878Zm16.443-1.184a6.654,6.654,0,0,1-2.313-1.44A6.711,6.711,0,0,1,139-9.7a6.741,6.741,0,0,1-1.539,2.484A6.713,6.713,0,0,1,135-5.612l-.774-1.17a5.944,5.944,0,0,0,1.656-.891,6.441,6.441,0,0,0,1.269-1.287,5.5,5.5,0,0,0,.81-1.584,5.764,5.764,0,0,0,.279-1.782v-1.656h1.476V-12.2A4.508,4.508,0,0,0,140-10.616a5.337,5.337,0,0,0,.8,1.431,5.879,5.879,0,0,0,1.233,1.17,5.96,5.96,0,0,0,1.584.8ZM141.7.162a6.884,6.884,0,0,0,2.817-.468A1.452,1.452,0,0,0,145.53-1.62a1.461,1.461,0,0,0-1.017-1.332A6.884,6.884,0,0,0,141.7-3.42a6.951,6.951,0,0,0-2.826.468,1.463,1.463,0,0,0-1.026,1.332A1.454,1.454,0,0,0,138.87-.306,6.951,6.951,0,0,0,141.7.162Zm0-4.734a11.192,11.192,0,0,1,2.205.2,5.949,5.949,0,0,1,1.674.576,2.943,2.943,0,0,1,1.062.927,2.19,2.19,0,0,1,.369,1.251,2.19,2.19,0,0,1-.369,1.251,2.869,2.869,0,0,1-1.062.918,6.149,6.149,0,0,1-1.674.567,11.192,11.192,0,0,1-2.205.2,11.3,11.3,0,0,1-2.223-.2A6.149,6.149,0,0,1,137.8.549a2.869,2.869,0,0,1-1.062-.918,2.19,2.19,0,0,1-.369-1.251,2.19,2.19,0,0,1,.369-1.251A2.943,2.943,0,0,1,137.8-3.8a5.949,5.949,0,0,1,1.674-.576A11.3,11.3,0,0,1,141.7-4.572Zm7.524-6.048v1.206h-2.394v4.392H145.35v-9.756h1.476v4.158Zm11.25,1.944a15.208,15.208,0,0,0,.351-2.25q.063-.954.063-1.692h-6.552v-1.188h8.01v.864q0,.774-.055,1.863a16.069,16.069,0,0,1-.364,2.529Zm3.078,2.222q-1.26.2-2.583.311t-2.619.186q-1.3.071-2.538.089t-2.322.018l-.162-1.206h1.638q.864,0,1.782-.036v-3.186H158.2v3.15q1.332-.054,2.664-.144t2.574-.252ZM160.8.144a7.139,7.139,0,0,0,2.842-.461,1.446,1.446,0,0,0,1.037-1.312q0-.832-1.037-1.294a8.981,8.981,0,0,0-5.683,0q-1.037.461-1.037,1.294a1.446,1.446,0,0,0,1.037,1.312A7.139,7.139,0,0,0,160.8.144Zm0-4.68a11.4,11.4,0,0,1,2.228.2,6.267,6.267,0,0,1,1.689.567,2.886,2.886,0,0,1,1.069.909,2.121,2.121,0,0,1,.368,1.224,2.193,2.193,0,0,1-.368,1.251,2.85,2.85,0,0,1-1.069.918,6.267,6.267,0,0,1-1.689.567,11.4,11.4,0,0,1-2.228.2,11.4,11.4,0,0,1-2.228-.2,6.267,6.267,0,0,1-1.689-.567,2.85,2.85,0,0,1-1.069-.918,2.193,2.193,0,0,1-.368-1.251,2.121,2.121,0,0,1,.368-1.224,2.886,2.886,0,0,1,1.069-.909,6.267,6.267,0,0,1,1.689-.567A11.4,11.4,0,0,1,160.8-4.536Zm7.515-5.85V-9.18h-2.3v4.428h-1.476V-14.814h1.476v4.428Zm12.366-1.6h-9.846v-1.206H182.16v1.6q0,.756-.009,1.557t-.063,1.71q-.054.909-.18,1.944t-.36,2.259l-1.476-.162q.234-1.152.36-2.169t.18-1.917q.054-.9.063-1.692t.009-1.53Zm3.222,9.846V-.936h-14.6V-2.142h5.67V-7.92h1.476v5.778Zm10.26-8.37a7.233,7.233,0,0,0,.342,2.2,8.616,8.616,0,0,0,.927,2.007A8.54,8.54,0,0,0,196.8-4.644a5.941,5.941,0,0,0,1.683,1.134L197.6-2.322a7.51,7.51,0,0,1-2.484-2.025,9.537,9.537,0,0,1-1.674-3.087,10.064,10.064,0,0,1-1.656,3.258,7.628,7.628,0,0,1-2.52,2.16l-.9-1.206a6.7,6.7,0,0,0,1.674-1.188,8.507,8.507,0,0,0,1.386-1.728,9.052,9.052,0,0,0,.936-2.1,7.789,7.789,0,0,0,.342-2.277v-2.9h1.458Zm7.488-4.3V1.368h-1.476V-14.814ZM212.94-5.85a6.453,6.453,0,0,1-2.385-1.359,6.122,6.122,0,0,1-1.521-2.115,6.6,6.6,0,0,1-1.566,2.412,6.775,6.775,0,0,1-2.5,1.548l-.756-1.17a6.71,6.71,0,0,0,1.665-.855A6.017,6.017,0,0,0,207.153-8.6a5.3,5.3,0,0,0,.819-1.5,5.038,5.038,0,0,0,.288-1.683v-.63h-3.618v-1.188H213.3v1.188h-3.564v.63a4.292,4.292,0,0,0,.279,1.53A4.886,4.886,0,0,0,210.8-8.9a5.775,5.775,0,0,0,1.224,1.116,6.146,6.146,0,0,0,1.62.783ZM211.68.162A6.739,6.739,0,0,0,214.5-.317a1.484,1.484,0,0,0,1.017-1.348A1.468,1.468,0,0,0,214.5-3a6.853,6.853,0,0,0-2.817-.47,6.908,6.908,0,0,0-2.835.47,1.468,1.468,0,0,0-1.017,1.339,1.484,1.484,0,0,0,1.017,1.348A6.793,6.793,0,0,0,211.68.162Zm0-4.788a11.223,11.223,0,0,1,2.205.2,5.779,5.779,0,0,1,1.674.583,3.015,3.015,0,0,1,1.062.933,2.179,2.179,0,0,1,.369,1.247,2.222,2.222,0,0,1-.369,1.256,2.978,2.978,0,0,1-1.062.942,5.779,5.779,0,0,1-1.674.583,11.223,11.223,0,0,1-2.205.2,8.172,8.172,0,0,1-3.906-.781,2.414,2.414,0,0,1-1.422-2.2,2.4,2.4,0,0,1,1.422-2.18A8.172,8.172,0,0,1,211.68-4.626Zm7.524-6.1v1.242H216.81v4.428h-1.476V-14.8h1.476v4.068Z" transform="translate(54 14767)" fill="#272727"/>
          <path id="패스_2531" data-name="패스 2531" d="M3.036-7.86H.372V-8.8H6.816v.936H4.152V0H3.036ZM10.344.156A2.945,2.945,0,0,1,9.2-.072a2.847,2.847,0,0,1-.966-.666,3.207,3.207,0,0,1-.666-1.068A3.955,3.955,0,0,1,7.32-3.252,4,4,0,0,1,7.566-4.7a3.263,3.263,0,0,1,.666-1.08A2.809,2.809,0,0,1,9.2-6.456a2.945,2.945,0,0,1,1.146-.228,2.945,2.945,0,0,1,1.146.228,2.809,2.809,0,0,1,.966.672,3.263,3.263,0,0,1,.666,1.08,4,4,0,0,1,.246,1.452,3.955,3.955,0,0,1-.246,1.446,3.207,3.207,0,0,1-.666,1.068,2.847,2.847,0,0,1-.966.666A2.945,2.945,0,0,1,10.344.156Zm0-.924a1.653,1.653,0,0,0,.768-.179,1.8,1.8,0,0,0,.6-.5,2.355,2.355,0,0,0,.39-.782,3.544,3.544,0,0,0,.138-1.021A3.544,3.544,0,0,0,12.1-4.273a2.5,2.5,0,0,0-.39-.794,1.751,1.751,0,0,0-.6-.514,1.653,1.653,0,0,0-.768-.179,1.653,1.653,0,0,0-.768.179,1.7,1.7,0,0,0-.594.514,2.579,2.579,0,0,0-.384.794A3.544,3.544,0,0,0,8.46-3.252,3.544,3.544,0,0,0,8.6-2.231a2.426,2.426,0,0,0,.384.782,1.746,1.746,0,0,0,.594.5A1.653,1.653,0,0,0,10.344-.768Zm6.312.924A2.19,2.19,0,0,1,15.774,0a1.427,1.427,0,0,1-.57-.438,1.8,1.8,0,0,1-.312-.684,3.853,3.853,0,0,1-.1-.894V-5.628h-.972v-.828l1.02-.06.132-1.824h.912v1.824h1.764v.888H15.888v3.636a1.687,1.687,0,0,0,.216.936.883.883,0,0,0,.792.324,1.465,1.465,0,0,0,.372-.054q.2-.054.372-.114l.216.816a5.673,5.673,0,0,1-.588.168A2.716,2.716,0,0,1,16.656.156Zm3.48,0A2.119,2.119,0,0,1,19.38.024a1.721,1.721,0,0,1-.6-.377,1.741,1.741,0,0,1-.4-.6,2.093,2.093,0,0,1-.144-.8,1.879,1.879,0,0,1,1.038-1.8,6.7,6.7,0,0,1,2.97-.569,3.1,3.1,0,0,0-.06-.611,1.472,1.472,0,0,0-.21-.527,1.085,1.085,0,0,0-.414-.365,1.417,1.417,0,0,0-.66-.138,3.3,3.3,0,0,0-1.1.186,3.877,3.877,0,0,0-.912.45l-.432-.782A5.579,5.579,0,0,1,19.6-6.441a4.427,4.427,0,0,1,1.482-.243,2.5,2.5,0,0,1,1.02.192,1.768,1.768,0,0,1,.7.546,2.406,2.406,0,0,1,.4.846,4.212,4.212,0,0,1,.132,1.092V0h-.9l-.1-.708h-.036a4.191,4.191,0,0,1-1.014.626A2.875,2.875,0,0,1,20.136.156Zm.312-.888a2.4,2.4,0,0,0,.9-.168,3.242,3.242,0,0,0,.9-.588V-3.42a11.617,11.617,0,0,0-1.434.174,3.06,3.06,0,0,0-.906.306,1.107,1.107,0,0,0-.468.462,1.448,1.448,0,0,0-.132.642A1.024,1.024,0,0,0,19.632-1,1.232,1.232,0,0,0,20.448-.732ZM24.936,0V-9.552h1.092V0Zm8.856-3.576-.42-1.348q-.24-.758-.456-1.486t-.432-1.5h-.048q-.2.782-.42,1.5t-.456,1.48l-.432,1.348Zm.276.888H30.852L30,0H28.872L31.86-8.8H33.1L36.084,0H34.908ZM35.8-6.516h1.14L38.16-2.808q.156.48.306.972t.306.948h.048l.3-.948q.156-.492.3-.972l1.236-3.708h1.08L39.42,0H38.148ZM44,.156a2.119,2.119,0,0,1-.756-.132,1.721,1.721,0,0,1-.6-.377,1.742,1.742,0,0,1-.4-.6,2.093,2.093,0,0,1-.144-.8,1.879,1.879,0,0,1,1.038-1.8,6.7,6.7,0,0,1,2.97-.569,3.1,3.1,0,0,0-.06-.611,1.472,1.472,0,0,0-.21-.527,1.085,1.085,0,0,0-.414-.365,1.417,1.417,0,0,0-.66-.138,3.3,3.3,0,0,0-1.1.186,3.877,3.877,0,0,0-.912.45l-.432-.782a5.579,5.579,0,0,1,1.146-.535,4.427,4.427,0,0,1,1.482-.243,2.5,2.5,0,0,1,1.02.192,1.768,1.768,0,0,1,.7.546,2.406,2.406,0,0,1,.4.846,4.212,4.212,0,0,1,.132,1.092V0h-.9l-.1-.708h-.036a4.191,4.191,0,0,1-1.014.626A2.875,2.875,0,0,1,44,.156Zm.312-.888a2.4,2.4,0,0,0,.9-.168,3.242,3.242,0,0,0,.9-.588V-3.42a11.617,11.617,0,0,0-1.434.174,3.06,3.06,0,0,0-.906.306,1.108,1.108,0,0,0-.468.462,1.448,1.448,0,0,0-.132.642A1.024,1.024,0,0,0,43.5-1,1.232,1.232,0,0,0,44.316-.732ZM48.8-6.516H49.9V0H48.8Zm.552-1.344a.769.769,0,0,1-.54-.2.66.66,0,0,1-.216-.51.652.652,0,0,1,.216-.522.8.8,0,0,1,.54-.186.8.8,0,0,1,.54.186.652.652,0,0,1,.216.522.66.66,0,0,1-.216.51A.769.769,0,0,1,49.356-7.86ZM51.624,0V-9.552h1.092V0Zm4.284.156a2.119,2.119,0,0,1-.756-.132,1.721,1.721,0,0,1-.6-.377,1.742,1.742,0,0,1-.4-.6,2.093,2.093,0,0,1-.144-.8,1.879,1.879,0,0,1,1.038-1.8,6.7,6.7,0,0,1,2.97-.569,3.1,3.1,0,0,0-.06-.611,1.472,1.472,0,0,0-.21-.527,1.085,1.085,0,0,0-.414-.365,1.417,1.417,0,0,0-.66-.138,3.3,3.3,0,0,0-1.1.186,3.877,3.877,0,0,0-.912.45l-.432-.782a5.579,5.579,0,0,1,1.146-.535,4.427,4.427,0,0,1,1.482-.243,2.5,2.5,0,0,1,1.02.192,1.768,1.768,0,0,1,.7.546,2.406,2.406,0,0,1,.4.846,4.212,4.212,0,0,1,.132,1.092V0h-.9l-.1-.708H58.08a4.191,4.191,0,0,1-1.014.626A2.875,2.875,0,0,1,55.908.156Zm.312-.888a2.4,2.4,0,0,0,.9-.168,3.242,3.242,0,0,0,.9-.588V-3.42a11.617,11.617,0,0,0-1.434.174,3.06,3.06,0,0,0-.906.306,1.108,1.108,0,0,0-.468.462,1.448,1.448,0,0,0-.132.642A1.024,1.024,0,0,0,55.4-1,1.232,1.232,0,0,0,56.22-.732Zm7.356.888a2.288,2.288,0,0,1-.942-.219,3.4,3.4,0,0,1-.918-.62H61.68l-.1.683h-.876V-9.552H61.8v2.616L61.764-5.76a4.868,4.868,0,0,1,.972-.654,2.324,2.324,0,0,1,1.068-.27,2.5,2.5,0,0,1,1.122.24,2.289,2.289,0,0,1,.816.672,3.014,3.014,0,0,1,.5,1.044,5.117,5.117,0,0,1,.168,1.356,4.473,4.473,0,0,1-.234,1.5,3.418,3.418,0,0,1-.624,1.11,2.642,2.642,0,0,1-.9.684A2.546,2.546,0,0,1,63.576.156ZM63.4-.768a1.589,1.589,0,0,0,.75-.18,1.8,1.8,0,0,0,.594-.509,2.416,2.416,0,0,0,.39-.808,3.938,3.938,0,0,0,.138-1.089,4.643,4.643,0,0,0-.1-.982,2.29,2.29,0,0,0-.3-.76,1.414,1.414,0,0,0-.528-.491,1.659,1.659,0,0,0-.792-.174,1.819,1.819,0,0,0-.852.227,4.161,4.161,0,0,0-.9.67V-1.45a2.648,2.648,0,0,0,.852.533A2.255,2.255,0,0,0,63.4-.768ZM67.644,0V-9.552h1.092V0Zm5.424.156A3.249,3.249,0,0,1,71.85-.072a2.792,2.792,0,0,1-.99-.666,3.194,3.194,0,0,1-.666-1.074,3.968,3.968,0,0,1-.246-1.44,3.924,3.924,0,0,1,.247-1.428,3.375,3.375,0,0,1,.655-1.08,2.869,2.869,0,0,1,.944-.684,2.663,2.663,0,0,1,1.1-.24A2.676,2.676,0,0,1,74-6.468a2.207,2.207,0,0,1,.812.618,2.8,2.8,0,0,1,.505.966,4.256,4.256,0,0,1,.174,1.26q0,.18-.012.342A2.336,2.336,0,0,1,75.444-3h-4.4a2.521,2.521,0,0,0,.642,1.659A2,2,0,0,0,73.2-.732a2.648,2.648,0,0,0,.876-.138,3.341,3.341,0,0,0,.756-.378l.4.723a5.082,5.082,0,0,1-.96.48A3.359,3.359,0,0,1,73.068.156ZM74.52-3.768a2.325,2.325,0,0,0-.426-1.512A1.462,1.462,0,0,0,72.9-5.8a1.656,1.656,0,0,0-.666.138,1.785,1.785,0,0,0-.57.4,2.146,2.146,0,0,0-.42.636,2.784,2.784,0,0,0-.216.858ZM78.912-8.8h1.344l1.692,4.7q.156.456.306.918t.318.918h.06q.156-.456.3-.918t.3-.918l1.68-4.7h1.344V0H85.212V-4.872q0-.288.012-.618t.036-.672q.024-.342.048-.678t.048-.624h-.048l-.694,2L82.949-.888h-.743L80.542-5.46l-.694-2H79.8q.012.288.036.624t.049.678q.024.342.036.672t.012.618V0h-1.02ZM89.568.156a2.119,2.119,0,0,1-.756-.132,1.721,1.721,0,0,1-.6-.377,1.742,1.742,0,0,1-.4-.6,2.093,2.093,0,0,1-.144-.8,1.879,1.879,0,0,1,1.038-1.8,6.7,6.7,0,0,1,2.97-.569,3.1,3.1,0,0,0-.06-.611,1.472,1.472,0,0,0-.21-.527A1.085,1.085,0,0,0,91-5.622a1.417,1.417,0,0,0-.66-.138,3.3,3.3,0,0,0-1.1.186,3.877,3.877,0,0,0-.912.45l-.432-.782a5.579,5.579,0,0,1,1.146-.535,4.427,4.427,0,0,1,1.482-.243,2.5,2.5,0,0,1,1.02.192,1.768,1.768,0,0,1,.7.546,2.406,2.406,0,0,1,.4.846,4.212,4.212,0,0,1,.132,1.092V0h-.9l-.1-.708H91.74a4.191,4.191,0,0,1-1.014.626A2.875,2.875,0,0,1,89.568.156Zm.312-.888a2.4,2.4,0,0,0,.9-.168,3.242,3.242,0,0,0,.9-.588V-3.42a11.617,11.617,0,0,0-1.434.174,3.06,3.06,0,0,0-.906.306,1.107,1.107,0,0,0-.468.462,1.448,1.448,0,0,0-.132.642A1.024,1.024,0,0,0,89.064-1,1.232,1.232,0,0,0,89.88-.732Zm4.488-5.784h.9l.1,1.188H95.4a3.189,3.189,0,0,1,.822-.99,1.645,1.645,0,0,1,1.026-.366,2.1,2.1,0,0,1,.378.03,1.086,1.086,0,0,1,.318.114l-.2.96a1.938,1.938,0,0,0-.3-.084,1.934,1.934,0,0,0-.336-.024,1.284,1.284,0,0,0-.426.078,1.489,1.489,0,0,0-.438.252,2.28,2.28,0,0,0-.42.462,3.075,3.075,0,0,0-.36.708V0H94.368Zm4.176-3.036h1.08v6.48h.024l2.8-3.444h1.212L101.472-3.9,103.944,0h-1.188l-1.908-3.144L99.624-1.716V0h-1.08ZM107.316.156A3.249,3.249,0,0,1,106.1-.072a2.792,2.792,0,0,1-.99-.666,3.194,3.194,0,0,1-.666-1.074,3.968,3.968,0,0,1-.246-1.44,3.924,3.924,0,0,1,.247-1.428,3.375,3.375,0,0,1,.655-1.08,2.869,2.869,0,0,1,.944-.684,2.663,2.663,0,0,1,1.1-.24,2.676,2.676,0,0,1,1.106.216,2.207,2.207,0,0,1,.812.618,2.8,2.8,0,0,1,.505.966,4.256,4.256,0,0,1,.174,1.26q0,.18-.012.342a2.336,2.336,0,0,1-.036.282h-4.4a2.521,2.521,0,0,0,.642,1.659,2,2,0,0,0,1.518.609,2.648,2.648,0,0,0,.876-.138,3.341,3.341,0,0,0,.756-.378l.4.723a5.082,5.082,0,0,1-.96.48A3.359,3.359,0,0,1,107.316.156Zm1.452-3.924a2.325,2.325,0,0,0-.426-1.512,1.462,1.462,0,0,0-1.194-.516,1.656,1.656,0,0,0-.666.138,1.785,1.785,0,0,0-.57.4,2.146,2.146,0,0,0-.42.636,2.784,2.784,0,0,0-.216.858Zm4.14,3.924A2.19,2.19,0,0,1,112.026,0a1.427,1.427,0,0,1-.57-.438,1.8,1.8,0,0,1-.312-.684,3.853,3.853,0,0,1-.1-.894V-5.628h-.972v-.828l1.02-.06.132-1.824h.912v1.824H113.9v.888H112.14v3.636a1.687,1.687,0,0,0,.216.936.883.883,0,0,0,.792.324,1.465,1.465,0,0,0,.372-.054q.2-.054.372-.114l.216.816a5.673,5.673,0,0,1-.588.168A2.716,2.716,0,0,1,112.908.156Z" transform="translate(162 14742)" fill="#bebebe"/>
        </g>
        <g id="그룹_4447" data-name="그룹 4447">
          <path id="패스_2528" data-name="패스 2528" d="M9-7.074v2.952h4.806V1.314H12.33V-2.934H2.5V-4.122H7.524V-7.074H.954V-8.28H11.826a15.5,15.5,0,0,0,.378-2.556q.054-1.1.054-2.016H2.826V-14.04h10.89v1.17q0,.918-.045,2.034A15.47,15.47,0,0,1,13.32-8.28h2.286v1.206ZM19.062-4.14q1.17-.018,2.448-.117a23.565,23.565,0,0,0,2.736-.387l.144,1.278a26.951,26.951,0,0,1-3.051.4q-1.413.1-2.727.1H17.586v-9.99h1.476ZM30.492-14.8V1.314H29.07V-7.02h-2.3V.5H25.4v-14.94h1.368v6.21h2.3V-14.8Zm18.7,11.79H47.718V-14.8h1.476ZM37.782-9.72a2.871,2.871,0,0,0,.206,1.1,2.537,2.537,0,0,0,.574.864,2.583,2.583,0,0,0,.87.558,2.958,2.958,0,0,0,1.094.2,3.03,3.03,0,0,0,1.1-.2,2.66,2.66,0,0,0,.888-.558,2.476,2.476,0,0,0,.583-.864,2.871,2.871,0,0,0,.206-1.1A2.737,2.737,0,0,0,43.1-10.8a2.518,2.518,0,0,0-.583-.846,2.66,2.66,0,0,0-.888-.558,3.03,3.03,0,0,0-1.1-.2,2.958,2.958,0,0,0-1.094.2,2.583,2.583,0,0,0-.87.558,2.582,2.582,0,0,0-.574.846A2.737,2.737,0,0,0,37.782-9.72Zm6.984,0a3.915,3.915,0,0,1-.325,1.611,3.846,3.846,0,0,1-.893,1.26,4.082,4.082,0,0,1-1.344.828,4.651,4.651,0,0,1-1.678.3,4.581,4.581,0,0,1-1.669-.3,4.1,4.1,0,0,1-1.335-.828,3.737,3.737,0,0,1-.884-1.26,4.012,4.012,0,0,1-.316-1.611,3.966,3.966,0,0,1,.316-1.593,3.737,3.737,0,0,1,.884-1.26,3.981,3.981,0,0,1,1.335-.819,4.708,4.708,0,0,1,1.669-.288,4.781,4.781,0,0,1,1.678.288,3.965,3.965,0,0,1,1.344.819,3.846,3.846,0,0,1,.893,1.26A3.871,3.871,0,0,1,44.766-9.72ZM49.68-.234V.972H38.808V-4.212h1.476V-.234ZM54-3.744q1.1,0,2.016-.027t1.746-.081q.828-.054,1.611-.153t1.611-.243l.162,1.206q-.882.162-1.71.261t-1.7.153q-.873.054-1.845.072t-2.124.018H52.524v-10.8h7.47v1.206H54V-8.8h5.292v1.188H54Zm11.088-11.07V1.35H63.612V-7.506h-3.33V-8.73l3.33.018v-6.1ZM81.306-3.888H79.9V-14.814h1.4ZM76.662-9.936H73.224v-1.188h3.438v-3.348h1.4v9.144h-1.4Zm-1.386,3.5a23.291,23.291,0,0,1-2.97.443q-1.368.106-2.79.106H68.49v-7.452h1.458v6.246q1.242-.018,2.5-.126a21.532,21.532,0,0,0,2.682-.414Zm1.35,2.314a2.64,2.64,0,0,0,.459,1.485A5.117,5.117,0,0,0,78.3-1.377a7.354,7.354,0,0,0,1.746.954A9.59,9.59,0,0,0,82.1.126L81.54,1.278A11.605,11.605,0,0,1,79.785.819a8.86,8.86,0,0,1-1.6-.738,7.286,7.286,0,0,1-1.332-1,5.313,5.313,0,0,1-.963-1.224,5.313,5.313,0,0,1-.963,1.224,7.427,7.427,0,0,1-1.323,1,8.59,8.59,0,0,1-1.593.738,11.605,11.605,0,0,1-1.755.459L69.714.126a9.419,9.419,0,0,0,2.043-.549,7.407,7.407,0,0,0,1.737-.954A4.968,4.968,0,0,0,74.7-2.637a2.678,2.678,0,0,0,.45-1.485V-4.7h1.476ZM94.077.18a7.8,7.8,0,0,0,2.968-.45A1.437,1.437,0,0,0,98.1-1.584,1.437,1.437,0,0,0,97.045-2.9a7.8,7.8,0,0,0-2.968-.45,7.931,7.931,0,0,0-2.995.45q-1.064.45-1.064,1.314T91.082-.27A7.931,7.931,0,0,0,94.077.18Zm0-4.68a12.74,12.74,0,0,1,2.3.189,6.008,6.008,0,0,1,1.734.567,3.028,3.028,0,0,1,1.087.918,2.114,2.114,0,0,1,.377,1.242A2.114,2.114,0,0,1,99.2-.342a3.028,3.028,0,0,1-1.087.918,6.008,6.008,0,0,1-1.734.567,12.74,12.74,0,0,1-2.3.189A9.01,9.01,0,0,1,90.016.576a2.352,2.352,0,0,1-1.474-2.16,2.352,2.352,0,0,1,1.474-2.16A9.01,9.01,0,0,1,94.077-4.5Zm7.317-2.34v1.188H86.778V-6.84h6.57V-8.712H88.614v-5.364H99.558v1.188H90.072V-9.9h9.594v1.188H94.824V-6.84Zm2.88-3.186a2.554,2.554,0,0,0,.207,1.044,2.534,2.534,0,0,0,.576.819,2.549,2.549,0,0,0,.873.54,3.1,3.1,0,0,0,1.1.189,3.1,3.1,0,0,0,1.1-.189,2.455,2.455,0,0,0,.864-.54,2.6,2.6,0,0,0,.567-.819,2.554,2.554,0,0,0,.207-1.044,2.572,2.572,0,0,0-.207-1.035,2.473,2.473,0,0,0-.567-.819,2.524,2.524,0,0,0-.864-.531,3.1,3.1,0,0,0-1.1-.189,3.1,3.1,0,0,0-1.1.189,2.623,2.623,0,0,0-.873.531,2.411,2.411,0,0,0-.576.819A2.572,2.572,0,0,0,104.274-10.026Zm6.7-1.26a3.959,3.959,0,0,1,.2,1.26,3.658,3.658,0,0,1-.216,1.26h3.474v-2.52Zm-.684,3.726a3.873,3.873,0,0,1-1.4,1.03,4.519,4.519,0,0,1-1.863.374,4.814,4.814,0,0,1-1.665-.28,3.81,3.81,0,0,1-1.314-.794,3.721,3.721,0,0,1-.864-1.227,3.817,3.817,0,0,1-.315-1.561,3.755,3.755,0,0,1,.315-1.552,3.647,3.647,0,0,1,.864-1.209,3.885,3.885,0,0,1,1.314-.785,4.814,4.814,0,0,1,1.665-.28,4.668,4.668,0,0,1,1.863.36,3.88,3.88,0,0,1,1.4.99h4.14v-2.322H115.9v9.558h-1.476v-2.3Zm.288,7.722a6.763,6.763,0,0,0,2.9-.506,1.567,1.567,0,0,0,1.044-1.429,1.584,1.584,0,0,0-1.044-1.438,6.659,6.659,0,0,0-2.9-.515,6.547,6.547,0,0,0-2.871.515,1.583,1.583,0,0,0-1.035,1.438A1.566,1.566,0,0,0,107.7-.344,6.648,6.648,0,0,0,110.574.162Zm-.009-5.04a11.05,11.05,0,0,1,2.237.207,5.867,5.867,0,0,1,1.7.6,3.048,3.048,0,0,1,1.078.972,2.344,2.344,0,0,1,.377,1.314,2.344,2.344,0,0,1-.377,1.314A3.048,3.048,0,0,1,114.5.5a5.867,5.867,0,0,1-1.7.6,11.05,11.05,0,0,1-2.237.207,10.916,10.916,0,0,1-2.228-.207,5.87,5.87,0,0,1-1.689-.6,2.966,2.966,0,0,1-1.069-.972,2.386,2.386,0,0,1-.368-1.314,2.386,2.386,0,0,1,.368-1.314,2.966,2.966,0,0,1,1.069-.972,5.87,5.87,0,0,1,1.689-.6A10.916,10.916,0,0,1,110.565-4.878Zm16.443-1.184a6.654,6.654,0,0,1-2.313-1.44,6.711,6.711,0,0,1-1.539-2.2,6.741,6.741,0,0,1-1.539,2.484,6.713,6.713,0,0,1-2.457,1.6l-.774-1.17a5.944,5.944,0,0,0,1.656-.891,6.441,6.441,0,0,0,1.269-1.287,5.5,5.5,0,0,0,.81-1.584,5.763,5.763,0,0,0,.279-1.782v-1.656h1.476V-12.2a4.508,4.508,0,0,0,.288,1.584,5.336,5.336,0,0,0,.8,1.431,5.879,5.879,0,0,0,1.233,1.17,5.96,5.96,0,0,0,1.584.8ZM125.856.162a6.884,6.884,0,0,0,2.817-.468A1.452,1.452,0,0,0,129.69-1.62a1.461,1.461,0,0,0-1.017-1.332,6.884,6.884,0,0,0-2.817-.468,6.951,6.951,0,0,0-2.826.468A1.463,1.463,0,0,0,122-1.62,1.454,1.454,0,0,0,123.03-.306,6.951,6.951,0,0,0,125.856.162Zm0-4.734a11.192,11.192,0,0,1,2.205.2,5.949,5.949,0,0,1,1.674.576,2.943,2.943,0,0,1,1.062.927,2.19,2.19,0,0,1,.369,1.251A2.19,2.19,0,0,1,130.8-.369a2.869,2.869,0,0,1-1.062.918,6.149,6.149,0,0,1-1.674.567,11.192,11.192,0,0,1-2.205.2,11.3,11.3,0,0,1-2.223-.2,6.149,6.149,0,0,1-1.674-.567A2.869,2.869,0,0,1,120.9-.369a2.191,2.191,0,0,1-.369-1.251,2.191,2.191,0,0,1,.369-1.251,2.943,2.943,0,0,1,1.062-.927,5.949,5.949,0,0,1,1.674-.576A11.3,11.3,0,0,1,125.856-4.572Zm7.524-6.048v1.206h-2.394v4.392H129.51v-9.756h1.476v4.158Zm11.25,1.944a15.208,15.208,0,0,0,.351-2.25q.063-.954.063-1.692h-6.552v-1.188h8.01v.864q0,.774-.055,1.863a16.069,16.069,0,0,1-.364,2.529Zm3.078,2.222q-1.26.2-2.583.311t-2.619.186q-1.3.071-2.538.089t-2.322.018l-.162-1.206h1.638q.864,0,1.782-.036v-3.186h1.458v3.15q1.332-.054,2.664-.144t2.574-.252Zm-2.745,6.6A7.139,7.139,0,0,0,147.8-.317a1.446,1.446,0,0,0,1.037-1.312q0-.832-1.037-1.294a8.981,8.981,0,0,0-5.683,0q-1.037.461-1.037,1.294a1.446,1.446,0,0,0,1.037,1.312A7.139,7.139,0,0,0,144.963.144Zm0-4.68a11.4,11.4,0,0,1,2.228.2,6.267,6.267,0,0,1,1.689.567,2.886,2.886,0,0,1,1.069.909,2.121,2.121,0,0,1,.368,1.224,2.193,2.193,0,0,1-.368,1.251,2.85,2.85,0,0,1-1.069.918,6.267,6.267,0,0,1-1.689.567,11.4,11.4,0,0,1-2.228.2,11.4,11.4,0,0,1-2.228-.2,6.267,6.267,0,0,1-1.689-.567,2.85,2.85,0,0,1-1.069-.918,2.193,2.193,0,0,1-.368-1.251,2.121,2.121,0,0,1,.368-1.224,2.886,2.886,0,0,1,1.069-.909,6.267,6.267,0,0,1,1.689-.567A11.4,11.4,0,0,1,144.963-4.536Zm7.515-5.85V-9.18h-2.3v4.428H148.7V-14.814h1.476v4.428Zm12.366-1.6H155v-1.206H166.32v1.6q0,.756-.009,1.557t-.063,1.71q-.054.909-.18,1.944t-.36,2.259l-1.476-.162q.234-1.152.36-2.169t.18-1.917q.054-.9.063-1.692t.009-1.53Zm3.222,9.846V-.936h-14.6V-2.142h5.67V-7.92h1.476v5.778Zm10.26-8.37a7.233,7.233,0,0,0,.342,2.2,8.616,8.616,0,0,0,.927,2.007,8.54,8.54,0,0,0,1.368,1.665,5.941,5.941,0,0,0,1.683,1.134l-.882,1.188a7.51,7.51,0,0,1-2.484-2.025,9.537,9.537,0,0,1-1.674-3.087,10.064,10.064,0,0,1-1.656,3.258,7.628,7.628,0,0,1-2.52,2.16l-.9-1.206A6.7,6.7,0,0,0,174.2-4.41a8.507,8.507,0,0,0,1.386-1.728,9.052,9.052,0,0,0,.936-2.1,7.789,7.789,0,0,0,.342-2.277v-2.9h1.458Zm7.488-4.3V1.368h-1.476V-14.814ZM197.1-5.85a6.453,6.453,0,0,1-2.385-1.359,6.122,6.122,0,0,1-1.521-2.115,6.6,6.6,0,0,1-1.566,2.412,6.775,6.775,0,0,1-2.5,1.548l-.756-1.17a6.71,6.71,0,0,0,1.665-.855A6.017,6.017,0,0,0,191.313-8.6a5.3,5.3,0,0,0,.819-1.5,5.038,5.038,0,0,0,.288-1.683v-.63H188.8v-1.188h8.658v1.188H193.9v.63a4.292,4.292,0,0,0,.279,1.53,4.886,4.886,0,0,0,.783,1.359,5.775,5.775,0,0,0,1.224,1.116A6.146,6.146,0,0,0,197.8-7ZM195.84.162a6.739,6.739,0,0,0,2.817-.479,1.484,1.484,0,0,0,1.017-1.348A1.468,1.468,0,0,0,198.657-3a6.853,6.853,0,0,0-2.817-.47A6.908,6.908,0,0,0,193-3a1.468,1.468,0,0,0-1.017,1.339A1.484,1.484,0,0,0,193-.317,6.793,6.793,0,0,0,195.84.162Zm0-4.788a11.223,11.223,0,0,1,2.205.2,5.779,5.779,0,0,1,1.674.583,3.015,3.015,0,0,1,1.062.933,2.179,2.179,0,0,1,.369,1.247,2.222,2.222,0,0,1-.369,1.256,2.978,2.978,0,0,1-1.062.942,5.779,5.779,0,0,1-1.674.583,11.223,11.223,0,0,1-2.205.2,8.172,8.172,0,0,1-3.906-.781,2.414,2.414,0,0,1-1.422-2.2,2.4,2.4,0,0,1,1.422-2.18A8.172,8.172,0,0,1,195.84-4.626Zm7.524-6.1v1.242H200.97v4.428h-1.476V-14.8h1.476v4.068Z" transform="translate(70 14863)" fill="#272727"/>
          <path id="패스_2529" data-name="패스 2529" d="M3.648.156A4.206,4.206,0,0,1,1.926-.192a4.164,4.164,0,0,1-1.362-.96l.66-.756a3.631,3.631,0,0,0,1.116.8,3.112,3.112,0,0,0,1.32.294,2.106,2.106,0,0,0,1.356-.4,1.274,1.274,0,0,0,.492-1.044,1.293,1.293,0,0,0-.114-.57,1.291,1.291,0,0,0-.312-.408A2.156,2.156,0,0,0,4.62-3.54q-.264-.132-.576-.276L2.772-4.368a5.1,5.1,0,0,1-.624-.318,2.833,2.833,0,0,1-.576-.456,2.137,2.137,0,0,1-.426-.636,2.073,2.073,0,0,1-.162-.846,2.112,2.112,0,0,1,.21-.936A2.274,2.274,0,0,1,1.77-8.3a2.655,2.655,0,0,1,.876-.486,3.417,3.417,0,0,1,1.11-.174,3.509,3.509,0,0,1,1.458.3,3.565,3.565,0,0,1,1.134.792l-.588.708a3.269,3.269,0,0,0-.9-.606,2.655,2.655,0,0,0-1.1-.222,1.9,1.9,0,0,0-1.2.348,1.14,1.14,0,0,0-.444.948,1.084,1.084,0,0,0,.132.552,1.451,1.451,0,0,0,.336.4,2.1,2.1,0,0,0,.468.288q.264.12.516.228l1.26.54a5.7,5.7,0,0,1,.714.372,2.59,2.59,0,0,1,.576.48A2.032,2.032,0,0,1,6.5-3.2a2.428,2.428,0,0,1,.138.858,2.284,2.284,0,0,1-.21.978,2.428,2.428,0,0,1-.594.792,2.734,2.734,0,0,1-.942.534A3.8,3.8,0,0,1,3.648.156Zm6.768,0A3.249,3.249,0,0,1,9.2-.072a2.792,2.792,0,0,1-.99-.666,3.2,3.2,0,0,1-.666-1.074A3.968,3.968,0,0,1,7.3-3.252,3.924,3.924,0,0,1,7.543-4.68,3.375,3.375,0,0,1,8.2-5.76a2.869,2.869,0,0,1,.944-.684,2.663,2.663,0,0,1,1.1-.24,2.676,2.676,0,0,1,1.106.216,2.207,2.207,0,0,1,.812.618,2.8,2.8,0,0,1,.505.966,4.256,4.256,0,0,1,.174,1.26q0,.18-.012.342A2.337,2.337,0,0,1,12.792-3h-4.4A2.521,2.521,0,0,0,9.03-1.341a2,2,0,0,0,1.518.609,2.648,2.648,0,0,0,.876-.138,3.341,3.341,0,0,0,.756-.378l.4.723a5.082,5.082,0,0,1-.96.48A3.359,3.359,0,0,1,10.416.156Zm1.452-3.924a2.325,2.325,0,0,0-.426-1.512A1.462,1.462,0,0,0,10.248-5.8a1.656,1.656,0,0,0-.666.138,1.785,1.785,0,0,0-.57.4,2.147,2.147,0,0,0-.42.636,2.784,2.784,0,0,0-.216.858Zm2.088-2.748h.9l.1,1.188h.036a3.189,3.189,0,0,1,.822-.99,1.645,1.645,0,0,1,1.026-.366,2.1,2.1,0,0,1,.378.03,1.086,1.086,0,0,1,.318.114l-.2.96a1.938,1.938,0,0,0-.3-.084,1.934,1.934,0,0,0-.336-.024,1.284,1.284,0,0,0-.426.078,1.489,1.489,0,0,0-.438.252,2.28,2.28,0,0,0-.42.462,3.076,3.076,0,0,0-.36.708V0H13.956Zm3.228,0h1.14l1.224,3.708q.156.48.306.972t.306.948h.048l.3-.948q.156-.492.3-.972l1.236-3.708h1.08L20.808,0H19.536Zm6.72,0H25V0H23.9Zm.552-1.344a.769.769,0,0,1-.54-.2.66.66,0,0,1-.216-.51.652.652,0,0,1,.216-.522.8.8,0,0,1,.54-.186A.8.8,0,0,1,25-9.09a.652.652,0,0,1,.216.522.66.66,0,0,1-.216.51A.769.769,0,0,1,24.456-7.86ZM29.292.156a3.158,3.158,0,0,1-1.206-.228,2.758,2.758,0,0,1-.972-.666,3.107,3.107,0,0,1-.648-1.068,4.138,4.138,0,0,1-.234-1.446A3.837,3.837,0,0,1,26.49-4.7a3.314,3.314,0,0,1,.69-1.08,2.872,2.872,0,0,1,1-.672,3.185,3.185,0,0,1,1.194-.228,2.421,2.421,0,0,1,1.1.231,3.621,3.621,0,0,1,.8.547l-.564.734a2.8,2.8,0,0,0-.6-.426,1.514,1.514,0,0,0-.708-.162,1.856,1.856,0,0,0-.816.179,1.85,1.85,0,0,0-.642.514,2.56,2.56,0,0,0-.426.794,3.163,3.163,0,0,0-.156,1.021,3.406,3.406,0,0,0,.144,1.021,2.249,2.249,0,0,0,.414.782,1.929,1.929,0,0,0,.636.5,1.845,1.845,0,0,0,.822.179,1.9,1.9,0,0,0,.84-.186,3.054,3.054,0,0,0,.7-.462l.468.733a3.163,3.163,0,0,1-.972.62A2.976,2.976,0,0,1,29.292.156Zm5.688,0a3.249,3.249,0,0,1-1.218-.228,2.792,2.792,0,0,1-.99-.666,3.2,3.2,0,0,1-.666-1.074,3.968,3.968,0,0,1-.246-1.44,3.924,3.924,0,0,1,.247-1.428,3.375,3.375,0,0,1,.655-1.08,2.869,2.869,0,0,1,.944-.684,2.663,2.663,0,0,1,1.1-.24,2.676,2.676,0,0,1,1.106.216,2.207,2.207,0,0,1,.812.618,2.8,2.8,0,0,1,.505.966,4.256,4.256,0,0,1,.174,1.26q0,.18-.012.342A2.336,2.336,0,0,1,37.356-3h-4.4a2.521,2.521,0,0,0,.642,1.659,2,2,0,0,0,1.518.609,2.648,2.648,0,0,0,.876-.138,3.341,3.341,0,0,0,.756-.378l.4.723a5.082,5.082,0,0,1-.96.48A3.359,3.359,0,0,1,34.98.156Zm1.452-3.924a2.325,2.325,0,0,0-.426-1.512A1.462,1.462,0,0,0,34.812-5.8a1.656,1.656,0,0,0-.666.138,1.785,1.785,0,0,0-.57.4,2.147,2.147,0,0,0-.42.636,2.784,2.784,0,0,0-.216.858ZM40.008.156a2.119,2.119,0,0,1-.756-.132,1.721,1.721,0,0,1-.6-.377,1.742,1.742,0,0,1-.4-.6,2.093,2.093,0,0,1-.144-.8,1.879,1.879,0,0,1,1.038-1.8,6.7,6.7,0,0,1,2.97-.569,3.1,3.1,0,0,0-.06-.611,1.472,1.472,0,0,0-.21-.527,1.085,1.085,0,0,0-.414-.365,1.417,1.417,0,0,0-.66-.138,3.3,3.3,0,0,0-1.1.186,3.877,3.877,0,0,0-.912.45l-.432-.782a5.579,5.579,0,0,1,1.146-.535,4.427,4.427,0,0,1,1.482-.243,2.5,2.5,0,0,1,1.02.192,1.768,1.768,0,0,1,.7.546,2.406,2.406,0,0,1,.4.846,4.212,4.212,0,0,1,.132,1.092V0h-.9l-.1-.708H42.18a4.191,4.191,0,0,1-1.014.626A2.875,2.875,0,0,1,40.008.156Zm.312-.888a2.4,2.4,0,0,0,.9-.168,3.242,3.242,0,0,0,.9-.588V-3.42a11.617,11.617,0,0,0-1.434.174,3.06,3.06,0,0,0-.906.306,1.108,1.108,0,0,0-.468.462,1.448,1.448,0,0,0-.132.642A1.024,1.024,0,0,0,39.5-1,1.232,1.232,0,0,0,40.32-.732Zm7.356.888a2.288,2.288,0,0,1-.942-.219,3.4,3.4,0,0,1-.918-.62H45.78l-.1.683h-.876V-9.552H45.9v2.616L45.864-5.76a4.868,4.868,0,0,1,.972-.654,2.324,2.324,0,0,1,1.068-.27,2.5,2.5,0,0,1,1.122.24,2.289,2.289,0,0,1,.816.672,3.014,3.014,0,0,1,.5,1.044,5.117,5.117,0,0,1,.168,1.356,4.473,4.473,0,0,1-.234,1.5,3.418,3.418,0,0,1-.624,1.11,2.642,2.642,0,0,1-.9.684A2.546,2.546,0,0,1,47.676.156ZM47.5-.768a1.589,1.589,0,0,0,.75-.18,1.8,1.8,0,0,0,.594-.509,2.416,2.416,0,0,0,.39-.808,3.938,3.938,0,0,0,.138-1.089,4.643,4.643,0,0,0-.1-.982,2.29,2.29,0,0,0-.3-.76,1.414,1.414,0,0,0-.528-.491,1.659,1.659,0,0,0-.792-.174,1.819,1.819,0,0,0-.852.227,4.161,4.161,0,0,0-.9.67V-1.45a2.648,2.648,0,0,0,.852.533A2.255,2.255,0,0,0,47.5-.768ZM51.744,0V-9.552h1.092V0Zm5.424.156A3.249,3.249,0,0,1,55.95-.072a2.792,2.792,0,0,1-.99-.666,3.2,3.2,0,0,1-.666-1.074,3.968,3.968,0,0,1-.246-1.44,3.924,3.924,0,0,1,.247-1.428,3.375,3.375,0,0,1,.655-1.08,2.869,2.869,0,0,1,.944-.684,2.663,2.663,0,0,1,1.1-.24,2.676,2.676,0,0,1,1.106.216,2.207,2.207,0,0,1,.812.618,2.8,2.8,0,0,1,.505.966,4.256,4.256,0,0,1,.174,1.26q0,.18-.012.342A2.337,2.337,0,0,1,59.544-3h-4.4a2.521,2.521,0,0,0,.642,1.659A2,2,0,0,0,57.3-.732a2.648,2.648,0,0,0,.876-.138,3.341,3.341,0,0,0,.756-.378l.4.723a5.082,5.082,0,0,1-.96.48A3.359,3.359,0,0,1,57.168.156ZM58.62-3.768a2.325,2.325,0,0,0-.426-1.512A1.462,1.462,0,0,0,57-5.8a1.656,1.656,0,0,0-.666.138,1.785,1.785,0,0,0-.57.4,2.147,2.147,0,0,0-.42.636,2.784,2.784,0,0,0-.216.858ZM66.264.156a3.583,3.583,0,0,1-1.518-.318,3.381,3.381,0,0,1-1.188-.912,4.27,4.27,0,0,1-.774-1.446,6.173,6.173,0,0,1-.276-1.908,6.059,6.059,0,0,1,.276-1.9,4.219,4.219,0,0,1,.774-1.428,3.348,3.348,0,0,1,1.188-.9,3.642,3.642,0,0,1,1.518-.312,3.642,3.642,0,0,1,1.518.312,3.348,3.348,0,0,1,1.188.9,4.218,4.218,0,0,1,.774,1.428,6.059,6.059,0,0,1,.276,1.9,6.173,6.173,0,0,1-.276,1.908,4.27,4.27,0,0,1-.774,1.446,3.381,3.381,0,0,1-1.188.912A3.583,3.583,0,0,1,66.264.156Zm0-.972a2.254,2.254,0,0,0,1.074-.258,2.429,2.429,0,0,0,.828-.726,3.5,3.5,0,0,0,.528-1.134,5.554,5.554,0,0,0,.186-1.494,5.487,5.487,0,0,0-.186-1.488,3.431,3.431,0,0,0-.528-1.122,2.334,2.334,0,0,0-.828-.708,2.344,2.344,0,0,0-1.074-.246,2.333,2.333,0,0,0-1.08.246,2.35,2.35,0,0,0-.822.708,3.431,3.431,0,0,0-.528,1.122,5.487,5.487,0,0,0-.186,1.488,5.554,5.554,0,0,0,.186,1.494A3.5,3.5,0,0,0,64.362-1.8a2.448,2.448,0,0,0,.822.726A2.244,2.244,0,0,0,66.264-.816Zm7.944.972a2.288,2.288,0,0,1-.942-.219,3.4,3.4,0,0,1-.918-.62h-.036l-.1.683H71.34V-9.552h1.092v2.616L72.4-5.76a4.868,4.868,0,0,1,.972-.654,2.324,2.324,0,0,1,1.068-.27,2.5,2.5,0,0,1,1.122.24,2.289,2.289,0,0,1,.816.672,3.014,3.014,0,0,1,.5,1.044,5.117,5.117,0,0,1,.168,1.356,4.473,4.473,0,0,1-.234,1.5,3.418,3.418,0,0,1-.624,1.11,2.642,2.642,0,0,1-.9.684A2.546,2.546,0,0,1,74.208.156Zm-.18-.924a1.589,1.589,0,0,0,.75-.18,1.8,1.8,0,0,0,.594-.509,2.416,2.416,0,0,0,.39-.808A3.938,3.938,0,0,0,75.9-3.354a4.643,4.643,0,0,0-.1-.982,2.29,2.29,0,0,0-.3-.76,1.414,1.414,0,0,0-.528-.491,1.659,1.659,0,0,0-.792-.174,1.819,1.819,0,0,0-.852.227,4.161,4.161,0,0,0-.9.67V-1.45a2.648,2.648,0,0,0,.852.533A2.255,2.255,0,0,0,74.028-.768Zm6.3.924A2.19,2.19,0,0,1,79.446,0a1.427,1.427,0,0,1-.57-.438,1.8,1.8,0,0,1-.312-.684,3.853,3.853,0,0,1-.1-.894V-5.628H77.5v-.828l1.02-.06.132-1.824h.912v1.824h1.764v.888H79.56v3.636a1.687,1.687,0,0,0,.216.936.883.883,0,0,0,.792.324,1.465,1.465,0,0,0,.372-.054q.2-.054.372-.114l.216.816a5.673,5.673,0,0,1-.588.168A2.716,2.716,0,0,1,80.328.156Zm3.48,0a2.119,2.119,0,0,1-.756-.132,1.721,1.721,0,0,1-.6-.377,1.742,1.742,0,0,1-.4-.6,2.093,2.093,0,0,1-.144-.8,1.879,1.879,0,0,1,1.038-1.8,6.7,6.7,0,0,1,2.97-.569,3.1,3.1,0,0,0-.06-.611,1.472,1.472,0,0,0-.21-.527,1.085,1.085,0,0,0-.414-.365,1.417,1.417,0,0,0-.66-.138,3.3,3.3,0,0,0-1.1.186,3.877,3.877,0,0,0-.912.45l-.432-.782a5.579,5.579,0,0,1,1.146-.535,4.427,4.427,0,0,1,1.482-.243,2.5,2.5,0,0,1,1.02.192,1.768,1.768,0,0,1,.7.546,2.406,2.406,0,0,1,.4.846,4.212,4.212,0,0,1,.132,1.092V0h-.9l-.1-.708H85.98a4.191,4.191,0,0,1-1.014.626A2.875,2.875,0,0,1,83.808.156Zm.312-.888a2.4,2.4,0,0,0,.9-.168,3.242,3.242,0,0,0,.9-.588V-3.42a11.617,11.617,0,0,0-1.434.174,3.06,3.06,0,0,0-.906.306,1.107,1.107,0,0,0-.468.462,1.448,1.448,0,0,0-.132.642A1.024,1.024,0,0,0,83.3-1,1.232,1.232,0,0,0,84.12-.732Zm4.488-5.784H89.7V0H88.608ZM89.16-7.86a.769.769,0,0,1-.54-.2.66.66,0,0,1-.216-.51.652.652,0,0,1,.216-.522.8.8,0,0,1,.54-.186.8.8,0,0,1,.54.186.652.652,0,0,1,.216.522.66.66,0,0,1-.216.51A.769.769,0,0,1,89.16-7.86Zm2.268,1.344h.9l.1.936h.036a5.809,5.809,0,0,1,.99-.78,2.217,2.217,0,0,1,1.194-.324,1.757,1.757,0,0,1,1.512.648,3.181,3.181,0,0,1,.48,1.908V0H95.544V-3.984a2.327,2.327,0,0,0-.294-1.332,1.082,1.082,0,0,0-.942-.408,1.64,1.64,0,0,0-.9.252,5.449,5.449,0,0,0-.888.744V0H91.428ZM99.768.156a2.119,2.119,0,0,1-.756-.132,1.721,1.721,0,0,1-.6-.377,1.742,1.742,0,0,1-.4-.6,2.093,2.093,0,0,1-.144-.8,1.879,1.879,0,0,1,1.038-1.8,6.7,6.7,0,0,1,2.97-.569,3.1,3.1,0,0,0-.06-.611,1.472,1.472,0,0,0-.21-.527,1.085,1.085,0,0,0-.414-.365,1.417,1.417,0,0,0-.66-.138,3.3,3.3,0,0,0-1.1.186,3.877,3.877,0,0,0-.912.45l-.432-.782a5.579,5.579,0,0,1,1.146-.535,4.427,4.427,0,0,1,1.482-.243,2.5,2.5,0,0,1,1.02.192,1.768,1.768,0,0,1,.7.546,2.406,2.406,0,0,1,.4.846,4.212,4.212,0,0,1,.132,1.092V0h-.9l-.1-.708h-.036a4.191,4.191,0,0,1-1.014.626A2.875,2.875,0,0,1,99.768.156Zm.312-.888a2.4,2.4,0,0,0,.9-.168,3.242,3.242,0,0,0,.9-.588V-3.42a11.617,11.617,0,0,0-1.434.174,3.06,3.06,0,0,0-.906.306,1.107,1.107,0,0,0-.468.462,1.448,1.448,0,0,0-.132.642A1.024,1.024,0,0,0,99.264-1,1.232,1.232,0,0,0,100.08-.732Zm7.356.888a2.288,2.288,0,0,1-.942-.219,3.4,3.4,0,0,1-.918-.62h-.036l-.1.683h-.876V-9.552h1.092v2.616l-.036,1.176a4.868,4.868,0,0,1,.972-.654,2.324,2.324,0,0,1,1.068-.27,2.5,2.5,0,0,1,1.122.24,2.289,2.289,0,0,1,.816.672,3.014,3.014,0,0,1,.5,1.044,5.117,5.117,0,0,1,.168,1.356,4.473,4.473,0,0,1-.234,1.5,3.418,3.418,0,0,1-.624,1.11,2.642,2.642,0,0,1-.9.684A2.546,2.546,0,0,1,107.436.156Zm-.18-.924a1.589,1.589,0,0,0,.75-.18,1.8,1.8,0,0,0,.594-.509,2.416,2.416,0,0,0,.39-.808,3.938,3.938,0,0,0,.138-1.089,4.643,4.643,0,0,0-.1-.982,2.29,2.29,0,0,0-.3-.76,1.414,1.414,0,0,0-.528-.491,1.659,1.659,0,0,0-.792-.174,1.819,1.819,0,0,0-.852.227,4.161,4.161,0,0,0-.9.67V-1.45a2.648,2.648,0,0,0,.852.533A2.255,2.255,0,0,0,107.256-.768ZM111.5,0V-9.552H112.6V0Zm5.424.156a3.249,3.249,0,0,1-1.218-.228,2.792,2.792,0,0,1-.99-.666,3.2,3.2,0,0,1-.666-1.074,3.968,3.968,0,0,1-.246-1.44,3.924,3.924,0,0,1,.247-1.428,3.375,3.375,0,0,1,.655-1.08,2.869,2.869,0,0,1,.944-.684,2.663,2.663,0,0,1,1.1-.24,2.676,2.676,0,0,1,1.106.216,2.207,2.207,0,0,1,.812.618,2.8,2.8,0,0,1,.505.966,4.256,4.256,0,0,1,.174,1.26q0,.18-.012.342A2.336,2.336,0,0,1,119.3-3h-4.4a2.521,2.521,0,0,0,.642,1.659,2,2,0,0,0,1.518.609,2.648,2.648,0,0,0,.876-.138,3.341,3.341,0,0,0,.756-.378l.4.723a5.082,5.082,0,0,1-.96.48A3.359,3.359,0,0,1,116.928.156Zm1.452-3.924a2.325,2.325,0,0,0-.426-1.512A1.462,1.462,0,0,0,116.76-5.8a1.656,1.656,0,0,0-.666.138,1.785,1.785,0,0,0-.57.4,2.147,2.147,0,0,0-.42.636,2.784,2.784,0,0,0-.216.858ZM122.772-8.8h1.344l1.692,4.7q.156.456.306.918t.318.918h.06q.156-.456.3-.918t.3-.918l1.68-4.7h1.344V0h-1.044V-4.872q0-.288.012-.618t.036-.672q.024-.342.048-.678t.048-.624h-.048l-.695,2L126.809-.888h-.743L124.4-5.46l-.694-2h-.049q.012.288.036.624t.049.678q.024.342.036.672t.012.618V0h-1.02ZM133.428.156a2.119,2.119,0,0,1-.756-.132,1.722,1.722,0,0,1-.6-.377,1.741,1.741,0,0,1-.4-.6,2.093,2.093,0,0,1-.144-.8,1.879,1.879,0,0,1,1.038-1.8,6.7,6.7,0,0,1,2.97-.569,3.1,3.1,0,0,0-.06-.611,1.472,1.472,0,0,0-.21-.527,1.085,1.085,0,0,0-.414-.365,1.418,1.418,0,0,0-.66-.138,3.3,3.3,0,0,0-1.1.186,3.877,3.877,0,0,0-.912.45l-.432-.782a5.579,5.579,0,0,1,1.146-.535,4.427,4.427,0,0,1,1.482-.243,2.5,2.5,0,0,1,1.02.192,1.767,1.767,0,0,1,.7.546,2.406,2.406,0,0,1,.4.846,4.212,4.212,0,0,1,.132,1.092V0h-.9l-.1-.708H135.6a4.191,4.191,0,0,1-1.014.626A2.875,2.875,0,0,1,133.428.156Zm.312-.888a2.4,2.4,0,0,0,.9-.168,3.241,3.241,0,0,0,.9-.588V-3.42a11.617,11.617,0,0,0-1.434.174,3.06,3.06,0,0,0-.906.306,1.108,1.108,0,0,0-.468.462,1.448,1.448,0,0,0-.132.642,1.024,1.024,0,0,0,.324.834A1.232,1.232,0,0,0,133.74-.732Zm4.488-5.784h.9l.1,1.188h.036a3.189,3.189,0,0,1,.822-.99,1.645,1.645,0,0,1,1.026-.366,2.1,2.1,0,0,1,.378.03,1.086,1.086,0,0,1,.318.114l-.2.96a1.938,1.938,0,0,0-.3-.084,1.934,1.934,0,0,0-.336-.024,1.284,1.284,0,0,0-.426.078,1.489,1.489,0,0,0-.438.252,2.28,2.28,0,0,0-.42.462,3.076,3.076,0,0,0-.36.708V0h-1.092ZM142.4-9.552h1.08v6.48h.024l2.8-3.444h1.212L145.332-3.9,147.8,0h-1.188l-1.908-3.144-1.224,1.428V0H142.4ZM151.176.156a3.249,3.249,0,0,1-1.218-.228,2.792,2.792,0,0,1-.99-.666,3.2,3.2,0,0,1-.666-1.074,3.968,3.968,0,0,1-.246-1.44A3.924,3.924,0,0,1,148.3-4.68a3.374,3.374,0,0,1,.655-1.08,2.869,2.869,0,0,1,.944-.684,2.663,2.663,0,0,1,1.1-.24,2.676,2.676,0,0,1,1.106.216,2.207,2.207,0,0,1,.812.618,2.8,2.8,0,0,1,.505.966,4.256,4.256,0,0,1,.174,1.26q0,.18-.012.342a2.335,2.335,0,0,1-.036.282h-4.4a2.521,2.521,0,0,0,.642,1.659,2,2,0,0,0,1.518.609,2.648,2.648,0,0,0,.876-.138,3.342,3.342,0,0,0,.756-.378l.4.723a5.082,5.082,0,0,1-.96.48A3.359,3.359,0,0,1,151.176.156Zm1.452-3.924A2.325,2.325,0,0,0,152.2-5.28a1.462,1.462,0,0,0-1.194-.516,1.656,1.656,0,0,0-.666.138,1.785,1.785,0,0,0-.57.4,2.147,2.147,0,0,0-.42.636,2.784,2.784,0,0,0-.216.858Zm4.14,3.924A2.19,2.19,0,0,1,155.886,0a1.426,1.426,0,0,1-.57-.438A1.8,1.8,0,0,1,155-1.122a3.854,3.854,0,0,1-.1-.894V-5.628h-.972v-.828l1.02-.06.132-1.824H156v1.824h1.764v.888H156v3.636a1.687,1.687,0,0,0,.216.936.883.883,0,0,0,.792.324,1.465,1.465,0,0,0,.372-.054q.2-.054.372-.114l.216.816a5.674,5.674,0,0,1-.588.168A2.716,2.716,0,0,1,156.768.156Z" transform="translate(117 14837)" fill="#bebebe"/>
        </g>
      </g>
      <path id="패스_2527" data-name="패스 2527" d="M-104.616-6.036l.756-1.248-1.308-.54.216-.612,1.368.336.12-1.452h.648l.12,1.44,1.368-.324.2.612-1.308.54.768,1.248-.528.384-.948-1.14-.948,1.14Zm10.272-.552a4.132,4.132,0,0,0,.216,1.3,5.449,5.449,0,0,0,.594,1.242,5.634,5.634,0,0,0,.882,1.062,4.188,4.188,0,0,0,1.092.75l-.564.792a4.421,4.421,0,0,1-.864-.57,5.723,5.723,0,0,1-.756-.768,6.23,6.23,0,0,1-.624-.924,6.147,6.147,0,0,1-.456-1.038,6.811,6.811,0,0,1-.462,1.134A6.451,6.451,0,0,1-95.928-2.6a6.129,6.129,0,0,1-.774.828,4.046,4.046,0,0,1-.87.594l-.576-.78a4.354,4.354,0,0,0,1.092-.792,5.871,5.871,0,0,0,.9-1.128A6.139,6.139,0,0,0-95.544-5.2a4.469,4.469,0,0,0,.228-1.386V-7.956h-2.46v-.8h5.82v.8h-2.388ZM-87.912-4.7h-1.776V.888h-.984V-9.864h.984v4.332h1.776Zm4.2,3.456h2.46v-2.04h-2.46Zm6.072,0v.8h-9.78v-.8h2.736v-2.04H-86.2V-6.612h6.384V-8.28H-86.22v-.8h7.38V-5.82h-6.384v1.728H-78.6v.8h-1.68v2.04Zm4.032-4.272a.762.762,0,0,1-.558-.234.8.8,0,0,1-.234-.594.835.835,0,0,1,.234-.618.762.762,0,0,1,.558-.234.762.762,0,0,1,.558.234.835.835,0,0,1,.234.618.8.8,0,0,1-.234.594A.762.762,0,0,1-73.608-5.52Zm0,4.836a.772.772,0,0,1-.558-.228.8.8,0,0,1-.234-.6.84.84,0,0,1,.234-.612.752.752,0,0,1,.558-.24.752.752,0,0,1,.558.24.84.84,0,0,1,.234.612.8.8,0,0,1-.234.6A.772.772,0,0,1-73.608-.684Zm5.328-2.088h2.268V-7.86H-68.28Zm-.912-5.856H-65.1V-2h-4.092Zm8.76-1.248V.876h-.936V-4.812h-1.464V.348h-.912V-9.636h.912v4.02h1.464v-4.26Zm8.88,1.956H-57.96v-.816h6.924v.012h.456v1.08q0,.516-.006,1.068t-.048,1.194q-.042.642-.126,1.374T-51-2.4l-.984-.108A19.576,19.576,0,0,0-51.606-5.4q.054-1.248.054-2.244Zm2.28,6.432v.8H-59v-.8Zm2.22-1.176q1.164,0,2.37-.108a23.171,23.171,0,0,0,2.514-.372l.12.816a23.926,23.926,0,0,1-2.634.384q-1.254.108-2.49.108h-.852v-7h.972Zm8.6-2.1h-1.728V.888h-.984V-9.864h.984v4.3h1.728Zm2.712,4.74h6.648V.744h-7.62V-2.028h6.372V-3.216h-6.408v-.768h7.392v2.7h-6.384Zm7.608-5.844v.792H-37.9v-.792h7.284a11.241,11.241,0,0,0,.216-1.56q.036-.66.036-1.2h-6.288V-9.42h7.26v.684q0,.552-.03,1.254a10.85,10.85,0,0,1-.21,1.614Zm10.548,4.62v.8h-9.768v-.8h4.38V-3.276h-3.156V-6.6h6.384V-8.28h-6.408v-.8h7.38v3.276h-6.384v1.74h6.612v.792h-3.444v2.028Zm5.22-5.832h-2.9v1.608h2.9Zm.972,2.376h-4.848v-4.68h.972v1.536h2.9V-9.384h.972v1.92H-8.9v-2.4h.984v5.592H-8.9v-2.4h-2.484Zm3.876,4.68V.744h-7.32V-1.92h5.94V-2.976h-5.964v-.768H-7.92v2.556h-5.94V-.024Zm5.736,1.74a12.572,12.572,0,0,1-1.3-2.832A10.835,10.835,0,0,1-3.54-4.38a10.792,10.792,0,0,1,.468-3.252,12.572,12.572,0,0,1,1.3-2.832l.684.312A9.962,9.962,0,0,0-2.256-7.386,12.205,12.205,0,0,0-2.628-4.38a12.277,12.277,0,0,0,.372,3.012,9.777,9.777,0,0,0,1.164,2.76ZM.132-8.8H1.476l1.692,4.7q.156.456.306.918t.318.918h.06q.156-.456.3-.918t.3-.918l1.68-4.7H7.476V0H6.432V-4.872q0-.288.012-.618t.036-.672Q6.5-6.5,6.528-6.84t.048-.624H6.528l-.694,2L4.169-.888H3.427L1.763-5.46l-.694-2H1.019q.012.288.036.624t.049.678q.024.342.036.672t.012.618V0H.132ZM10.788.156a2.119,2.119,0,0,1-.756-.132,1.721,1.721,0,0,1-.6-.377,1.742,1.742,0,0,1-.4-.6,2.093,2.093,0,0,1-.144-.8,1.879,1.879,0,0,1,1.038-1.8,6.7,6.7,0,0,1,2.97-.569,3.1,3.1,0,0,0-.06-.611,1.472,1.472,0,0,0-.21-.527,1.085,1.085,0,0,0-.414-.365,1.417,1.417,0,0,0-.66-.138,3.3,3.3,0,0,0-1.1.186,3.877,3.877,0,0,0-.912.45l-.432-.782a5.579,5.579,0,0,1,1.146-.535,4.427,4.427,0,0,1,1.482-.243,2.5,2.5,0,0,1,1.02.192,1.768,1.768,0,0,1,.7.546,2.406,2.406,0,0,1,.4.846,4.212,4.212,0,0,1,.132,1.092V0h-.9L13-.708H12.96a4.191,4.191,0,0,1-1.014.626A2.875,2.875,0,0,1,10.788.156ZM11.1-.732A2.4,2.4,0,0,0,12-.9a3.242,3.242,0,0,0,.9-.588V-3.42a11.617,11.617,0,0,0-1.434.174,3.06,3.06,0,0,0-.906.306,1.108,1.108,0,0,0-.468.462,1.448,1.448,0,0,0-.132.642A1.024,1.024,0,0,0,10.284-1,1.232,1.232,0,0,0,11.1-.732ZM17.779,3a4.9,4.9,0,0,1-1.1-.114,2.736,2.736,0,0,1-.85-.337A1.655,1.655,0,0,1,15.282,2a1.435,1.435,0,0,1-.2-.751,1.385,1.385,0,0,1,.261-.8,2.553,2.553,0,0,1,.723-.679l-.012-.048a1.274,1.274,0,0,1-.432-.42,1.182,1.182,0,0,1-.168-.647,1.147,1.147,0,0,1,.24-.72,2.38,2.38,0,0,1,.492-.492v-.048a2.611,2.611,0,0,1-.588-.713,2.01,2.01,0,0,1-.264-1.037,2.265,2.265,0,0,1,.2-.965,2.273,2.273,0,0,1,.533-.731,2.331,2.331,0,0,1,.779-.468,2.7,2.7,0,0,1,.935-.162,2.262,2.262,0,0,1,.509.054,3.648,3.648,0,0,1,.4.114h2.267v.852H19.626a1.647,1.647,0,0,1,.379.574,2,2,0,0,1,.142.765,2.268,2.268,0,0,1-.185.939,2.172,2.172,0,0,1-.508.712,2.191,2.191,0,0,1-.754.454,2.692,2.692,0,0,1-.921.155,2.131,2.131,0,0,1-.969-.228,1.785,1.785,0,0,0-.3.329.767.767,0,0,0-.12.446.623.623,0,0,0,.239.505,1.48,1.48,0,0,0,.9.2H18.8a3.108,3.108,0,0,1,1.7.373A1.313,1.313,0,0,1,21.06.737a1.757,1.757,0,0,1-.228.867,2.244,2.244,0,0,1-.659.722,3.407,3.407,0,0,1-1.036.494A4.746,4.746,0,0,1,17.779,3Zm.005-5.808a1.327,1.327,0,0,0,.528-.108,1.256,1.256,0,0,0,.438-.312,1.607,1.607,0,0,0,.3-.486,1.7,1.7,0,0,0,.114-.642,1.517,1.517,0,0,0-.4-1.122,1.331,1.331,0,0,0-.978-.4,1.351,1.351,0,0,0-.984.4,1.5,1.5,0,0,0-.408,1.122,1.7,1.7,0,0,0,.114.642,1.607,1.607,0,0,0,.3.486,1.256,1.256,0,0,0,.438.312A1.356,1.356,0,0,0,17.784-2.808Zm.157,5.064a2.952,2.952,0,0,0,.847-.114,2.28,2.28,0,0,0,.65-.3,1.43,1.43,0,0,0,.417-.432A.952.952,0,0,0,20,.912a.644.644,0,0,0-.34-.63A2.215,2.215,0,0,0,18.68.108H17.559a3.727,3.727,0,0,1-.4-.024A2.7,2.7,0,0,1,16.724,0a1.763,1.763,0,0,0-.507.534,1.138,1.138,0,0,0-.161.57.953.953,0,0,0,.495.84A2.6,2.6,0,0,0,17.941,2.256Zm3.923-8.772h.9l.1.936H22.9a5.809,5.809,0,0,1,.99-.78,2.217,2.217,0,0,1,1.194-.324,1.757,1.757,0,0,1,1.512.648,3.181,3.181,0,0,1,.48,1.908V0H25.98V-3.984a2.327,2.327,0,0,0-.294-1.332,1.082,1.082,0,0,0-.942-.408,1.64,1.64,0,0,0-.9.252,5.449,5.449,0,0,0-.888.744V0H21.864ZM30.2.156a2.119,2.119,0,0,1-.756-.132,1.721,1.721,0,0,1-.6-.377,1.741,1.741,0,0,1-.4-.6,2.093,2.093,0,0,1-.144-.8,1.879,1.879,0,0,1,1.038-1.8,6.7,6.7,0,0,1,2.97-.569,3.1,3.1,0,0,0-.06-.611,1.472,1.472,0,0,0-.21-.527,1.085,1.085,0,0,0-.414-.365,1.417,1.417,0,0,0-.66-.138,3.3,3.3,0,0,0-1.1.186,3.877,3.877,0,0,0-.912.45l-.432-.782a5.579,5.579,0,0,1,1.146-.535,4.427,4.427,0,0,1,1.482-.243,2.5,2.5,0,0,1,1.02.192,1.768,1.768,0,0,1,.7.546,2.406,2.406,0,0,1,.4.846,4.212,4.212,0,0,1,.132,1.092V0h-.9l-.1-.708h-.036a4.191,4.191,0,0,1-1.014.626A2.875,2.875,0,0,1,30.2.156Zm.312-.888a2.4,2.4,0,0,0,.9-.168,3.242,3.242,0,0,0,.9-.588V-3.42a11.617,11.617,0,0,0-1.434.174,3.06,3.06,0,0,0-.906.306,1.107,1.107,0,0,0-.468.462,1.448,1.448,0,0,0-.132.642A1.024,1.024,0,0,0,29.7-1,1.232,1.232,0,0,0,30.516-.732ZM37.195,3a4.9,4.9,0,0,1-1.1-.114,2.736,2.736,0,0,1-.85-.337A1.655,1.655,0,0,1,34.7,2a1.435,1.435,0,0,1-.2-.751,1.385,1.385,0,0,1,.261-.8,2.553,2.553,0,0,1,.723-.679l-.012-.048A1.274,1.274,0,0,1,35.04-.7a1.182,1.182,0,0,1-.168-.647,1.147,1.147,0,0,1,.24-.72,2.38,2.38,0,0,1,.492-.492v-.048a2.611,2.611,0,0,1-.588-.713,2.01,2.01,0,0,1-.264-1.037,2.265,2.265,0,0,1,.2-.965,2.272,2.272,0,0,1,.533-.731,2.331,2.331,0,0,1,.779-.468,2.7,2.7,0,0,1,.935-.162,2.262,2.262,0,0,1,.509.054,3.648,3.648,0,0,1,.4.114h2.267v.852H39.042a1.647,1.647,0,0,1,.379.574,2,2,0,0,1,.142.765,2.267,2.267,0,0,1-.185.939,2.172,2.172,0,0,1-.508.712,2.191,2.191,0,0,1-.754.454,2.692,2.692,0,0,1-.921.155,2.131,2.131,0,0,1-.969-.228,1.785,1.785,0,0,0-.3.329.767.767,0,0,0-.12.446.623.623,0,0,0,.239.505,1.48,1.48,0,0,0,.9.2h1.269a3.108,3.108,0,0,1,1.7.373,1.313,1.313,0,0,1,.563,1.18,1.757,1.757,0,0,1-.228.867,2.244,2.244,0,0,1-.659.722,3.407,3.407,0,0,1-1.036.494A4.746,4.746,0,0,1,37.195,3ZM37.2-2.808a1.327,1.327,0,0,0,.528-.108,1.256,1.256,0,0,0,.438-.312,1.607,1.607,0,0,0,.3-.486,1.7,1.7,0,0,0,.114-.642,1.517,1.517,0,0,0-.4-1.122,1.331,1.331,0,0,0-.978-.4,1.351,1.351,0,0,0-.984.4,1.5,1.5,0,0,0-.408,1.122,1.7,1.7,0,0,0,.114.642,1.607,1.607,0,0,0,.3.486,1.256,1.256,0,0,0,.438.312A1.356,1.356,0,0,0,37.2-2.808Zm.157,5.064a2.952,2.952,0,0,0,.847-.114,2.28,2.28,0,0,0,.65-.3,1.43,1.43,0,0,0,.417-.432.952.952,0,0,0,.149-.5.644.644,0,0,0-.34-.63A2.215,2.215,0,0,0,38.1.108H36.975a3.727,3.727,0,0,1-.4-.024A2.7,2.7,0,0,1,36.14,0a1.763,1.763,0,0,0-.507.534,1.138,1.138,0,0,0-.161.57.953.953,0,0,0,.5.84A2.6,2.6,0,0,0,37.357,2.256ZM41.28,0V-9.552h1.092V0Zm5.328.156a2.945,2.945,0,0,1-1.146-.228A2.847,2.847,0,0,1,44.5-.738a3.207,3.207,0,0,1-.666-1.068,3.955,3.955,0,0,1-.246-1.446A4,4,0,0,1,43.83-4.7a3.263,3.263,0,0,1,.666-1.08,2.809,2.809,0,0,1,.966-.672,2.945,2.945,0,0,1,1.146-.228,2.945,2.945,0,0,1,1.146.228,2.809,2.809,0,0,1,.966.672,3.263,3.263,0,0,1,.666,1.08,4,4,0,0,1,.246,1.452,3.955,3.955,0,0,1-.246,1.446A3.207,3.207,0,0,1,48.72-.738a2.847,2.847,0,0,1-.966.666A2.945,2.945,0,0,1,46.608.156Zm0-.924a1.653,1.653,0,0,0,.768-.179,1.8,1.8,0,0,0,.6-.5,2.355,2.355,0,0,0,.39-.782A3.544,3.544,0,0,0,48.5-3.252a3.544,3.544,0,0,0-.138-1.021,2.5,2.5,0,0,0-.39-.794,1.751,1.751,0,0,0-.6-.514,1.653,1.653,0,0,0-.768-.179,1.653,1.653,0,0,0-.768.179,1.7,1.7,0,0,0-.594.514,2.579,2.579,0,0,0-.384.794,3.544,3.544,0,0,0-.138,1.021,3.544,3.544,0,0,0,.138,1.021,2.426,2.426,0,0,0,.384.782,1.746,1.746,0,0,0,.594.5A1.653,1.653,0,0,0,46.608-.768Zm7.128.924a2.288,2.288,0,0,1-.942-.219,3.4,3.4,0,0,1-.918-.62H51.84l-.1.683h-.876V-9.552H51.96v2.616L51.924-5.76a4.868,4.868,0,0,1,.972-.654,2.324,2.324,0,0,1,1.068-.27,2.5,2.5,0,0,1,1.122.24,2.289,2.289,0,0,1,.816.672,3.014,3.014,0,0,1,.5,1.044,5.117,5.117,0,0,1,.168,1.356,4.473,4.473,0,0,1-.234,1.5,3.418,3.418,0,0,1-.624,1.11,2.642,2.642,0,0,1-.9.684A2.546,2.546,0,0,1,53.736.156Zm-.18-.924a1.589,1.589,0,0,0,.75-.18,1.8,1.8,0,0,0,.594-.509,2.416,2.416,0,0,0,.39-.808,3.938,3.938,0,0,0,.138-1.089,4.643,4.643,0,0,0-.1-.982,2.29,2.29,0,0,0-.3-.76,1.414,1.414,0,0,0-.528-.491,1.659,1.659,0,0,0-.792-.174,1.819,1.819,0,0,0-.852.227,4.161,4.161,0,0,0-.9.67V-1.45a2.648,2.648,0,0,0,.852.533A2.255,2.255,0,0,0,53.556-.768Zm5.736.924a2.119,2.119,0,0,1-.756-.132,1.721,1.721,0,0,1-.6-.377,1.742,1.742,0,0,1-.4-.6,2.093,2.093,0,0,1-.144-.8,1.879,1.879,0,0,1,1.038-1.8,6.7,6.7,0,0,1,2.97-.569,3.1,3.1,0,0,0-.06-.611,1.472,1.472,0,0,0-.21-.527,1.085,1.085,0,0,0-.414-.365,1.417,1.417,0,0,0-.66-.138,3.3,3.3,0,0,0-1.1.186,3.877,3.877,0,0,0-.912.45l-.432-.782a5.579,5.579,0,0,1,1.146-.535,4.427,4.427,0,0,1,1.482-.243,2.5,2.5,0,0,1,1.02.192,1.768,1.768,0,0,1,.7.546,2.406,2.406,0,0,1,.4.846A4.212,4.212,0,0,1,62.5-4.008V0h-.9l-.1-.708h-.036a4.191,4.191,0,0,1-1.014.626A2.875,2.875,0,0,1,59.292.156ZM59.6-.732A2.4,2.4,0,0,0,60.5-.9a3.242,3.242,0,0,0,.9-.588V-3.42a11.617,11.617,0,0,0-1.434.174,3.06,3.06,0,0,0-.906.306,1.108,1.108,0,0,0-.468.462,1.448,1.448,0,0,0-.132.642A1.024,1.024,0,0,0,58.788-1,1.232,1.232,0,0,0,59.6-.732ZM64.092,0V-9.552h1.092V0ZM66.3,1.32a10.122,10.122,0,0,0,1.158-2.76,12.093,12.093,0,0,0,.378-3.012,12.022,12.022,0,0,0-.378-3.006A10.319,10.319,0,0,0,66.3-10.224l.672-.312A12.272,12.272,0,0,1,68.28-7.7a10.792,10.792,0,0,1,.468,3.252,10.835,10.835,0,0,1-.468,3.264,12.272,12.272,0,0,1-1.308,2.832ZM74.328-4.4h5.5v-1.98h-5.5ZM81.948-1.3v.8H72.2v-.8h4.368V-3.612H73.356v-5.5h.972v1.92h5.5v-1.92H80.8v5.5h-3.24V-1.3Zm8.412-6.7H83.8v-.8h7.548v1.068q0,.5-.006,1.038T91.3-5.55q-.036.606-.12,1.3t-.24,1.506l-.984-.108q.156-.768.24-1.446t.12-1.278q.036-.6.042-1.128t.006-1.02Zm2.148,6.564v.8H82.776v-.8h3.78V-5.28h.984v3.852ZM97.092-7.02a4.968,4.968,0,0,0,.216,1.446A5.828,5.828,0,0,0,97.9-4.236a5.47,5.47,0,0,0,.882,1.11,4.051,4.051,0,0,0,1.092.762l-.576.78a4.431,4.431,0,0,1-.87-.576,5.079,5.079,0,0,1-.756-.792,6.91,6.91,0,0,1-.618-.96,6.429,6.429,0,0,1-.456-1.08,7.335,7.335,0,0,1-.45,1.146,6.625,6.625,0,0,1-.612,1.008,5.77,5.77,0,0,1-.75.834,4.153,4.153,0,0,1-.864.612l-.6-.78a3.966,3.966,0,0,0,1.092-.8A5.941,5.941,0,0,0,95.3-4.14a6.158,6.158,0,0,0,.594-1.392,5.314,5.314,0,0,0,.216-1.488V-8.952h.984Zm5.1-2.856V.9h-.984V-5.424h-2.5v-.8h2.5V-9.876ZM-89.406,9.2h1.116V13.62h.036L-84.582,9.2h1.248l-2.748,3.348L-82.9,18H-84.15l-2.628-4.584-1.512,1.8V18h-1.116Zm10.524,8.952a3.583,3.583,0,0,1-1.518-.318,3.381,3.381,0,0,1-1.188-.912,4.27,4.27,0,0,1-.774-1.446,6.173,6.173,0,0,1-.276-1.908,6.059,6.059,0,0,1,.276-1.9,4.218,4.218,0,0,1,.774-1.428,3.348,3.348,0,0,1,1.188-.9,3.642,3.642,0,0,1,1.518-.312,3.642,3.642,0,0,1,1.518.312,3.348,3.348,0,0,1,1.188.9,4.218,4.218,0,0,1,.774,1.428,6.059,6.059,0,0,1,.276,1.9A6.173,6.173,0,0,1-75.4,15.48a4.27,4.27,0,0,1-.774,1.446,3.381,3.381,0,0,1-1.188.912A3.583,3.583,0,0,1-78.882,18.156Zm0-.972a2.254,2.254,0,0,0,1.074-.258,2.429,2.429,0,0,0,.828-.726,3.5,3.5,0,0,0,.528-1.134,5.554,5.554,0,0,0,.186-1.494,5.487,5.487,0,0,0-.186-1.488,3.431,3.431,0,0,0-.528-1.122,2.334,2.334,0,0,0-.828-.708,2.344,2.344,0,0,0-1.074-.246,2.333,2.333,0,0,0-1.08.246,2.35,2.35,0,0,0-.822.708,3.431,3.431,0,0,0-.528,1.122,5.487,5.487,0,0,0-.186,1.488,5.554,5.554,0,0,0,.186,1.494,3.5,3.5,0,0,0,.528,1.134,2.448,2.448,0,0,0,.822.726A2.244,2.244,0,0,0-78.882,17.184ZM-73.71,9.2h2.616a5.858,5.858,0,0,1,1.23.12,2.818,2.818,0,0,1,.954.378,1.827,1.827,0,0,1,.618.666,2.032,2.032,0,0,1,.222.984,2.136,2.136,0,0,1-.336,1.182,1.748,1.748,0,0,1-.96.726v.06a2.392,2.392,0,0,1,1.3.678,1.961,1.961,0,0,1,.5,1.422,2.48,2.48,0,0,1-.246,1.134,2.216,2.216,0,0,1-.684.8,3.129,3.129,0,0,1-1.056.48A5.315,5.315,0,0,1-70.9,18H-73.71Zm2.424,3.744a2.666,2.666,0,0,0,1.632-.388,1.275,1.275,0,0,0,.492-1.058,1.175,1.175,0,0,0-.522-1.093,3.047,3.047,0,0,0-1.554-.317h-1.356v2.856Zm.228,4.164a3.209,3.209,0,0,0,1.77-.414,1.458,1.458,0,0,0,.63-1.314,1.308,1.308,0,0,0-.618-1.206,3.443,3.443,0,0,0-1.782-.378h-1.536v3.312Zm8.508-2.688-.42-1.348q-.24-.758-.456-1.486t-.432-1.5h-.048q-.2.782-.42,1.5t-.456,1.48l-.432,1.348Zm.276.888H-65.49L-66.342,18H-67.47l2.988-8.8h1.236l2.988,8.8h-1.176Zm6.1,2.844A3.757,3.757,0,0,1-57.7,17.85a3.425,3.425,0,0,1-1.218-.894,4.193,4.193,0,0,1-.8-1.434,5.921,5.921,0,0,1-.288-1.914,5.81,5.81,0,0,1,.294-1.914,4.282,4.282,0,0,1,.816-1.44,3.487,3.487,0,0,1,1.236-.906,3.838,3.838,0,0,1,1.554-.312,3.106,3.106,0,0,1,.756.09,3.135,3.135,0,0,1,.666.246,3.415,3.415,0,0,1,.552.348,3.3,3.3,0,0,1,.438.408l-.6.72a3.019,3.019,0,0,0-.786-.606,2.12,2.12,0,0,0-1.014-.234,2.576,2.576,0,0,0-1.134.246,2.486,2.486,0,0,0-.876.708,3.323,3.323,0,0,0-.564,1.122,5.174,5.174,0,0,0-.2,1.488,5.455,5.455,0,0,0,.192,1.5,3.433,3.433,0,0,0,.546,1.14,2.428,2.428,0,0,0,.858.72,2.514,2.514,0,0,0,1.14.252A2.349,2.349,0,0,0-55,16.92a3.478,3.478,0,0,0,.912-.72l.612.7a3.774,3.774,0,0,1-1.182.936A3.378,3.378,0,0,1-56.178,18.156Zm7.1,0a3.583,3.583,0,0,1-1.518-.318,3.381,3.381,0,0,1-1.188-.912,4.27,4.27,0,0,1-.774-1.446,6.173,6.173,0,0,1-.276-1.908,6.059,6.059,0,0,1,.276-1.9,4.219,4.219,0,0,1,.774-1.428,3.348,3.348,0,0,1,1.188-.9,3.642,3.642,0,0,1,1.518-.312,3.642,3.642,0,0,1,1.518.312,3.348,3.348,0,0,1,1.188.9,4.219,4.219,0,0,1,.774,1.428,6.059,6.059,0,0,1,.276,1.9,6.173,6.173,0,0,1-.276,1.908,4.27,4.27,0,0,1-.774,1.446,3.381,3.381,0,0,1-1.188.912A3.583,3.583,0,0,1-49.074,18.156Zm0-.972A2.254,2.254,0,0,0-48,16.926a2.429,2.429,0,0,0,.828-.726,3.5,3.5,0,0,0,.528-1.134,5.554,5.554,0,0,0,.186-1.494,5.487,5.487,0,0,0-.186-1.488,3.431,3.431,0,0,0-.528-1.122A2.334,2.334,0,0,0-48,10.254a2.344,2.344,0,0,0-1.074-.246,2.333,2.333,0,0,0-1.08.246,2.35,2.35,0,0,0-.822.708,3.431,3.431,0,0,0-.528,1.122,5.487,5.487,0,0,0-.186,1.488,5.554,5.554,0,0,0,.186,1.494,3.5,3.5,0,0,0,.528,1.134,2.448,2.448,0,0,0,.822.726A2.244,2.244,0,0,0-49.074,17.184Zm4.644-.708h1.188l-.732,2.424h-.888Zm8.52-5.28h-3.048v1.776h3.048Zm.972,2.568H-39.93V8.808h.972v1.62h3.048V8.808h.972Zm-.5,4.356a4.419,4.419,0,0,0,1.878-.326,1,1,0,0,0,.678-.9.99.99,0,0,0-.678-.9,4.492,4.492,0,0,0-1.878-.32,4.528,4.528,0,0,0-1.89.32.99.99,0,0,0-.678.9,1,1,0,0,0,.678.9A4.454,4.454,0,0,0-35.442,18.12Zm0-3.24a7.461,7.461,0,0,1,1.47.132,3.843,3.843,0,0,1,1.116.39,1.988,1.988,0,0,1,.708.63,1.509,1.509,0,0,1,.246.852,1.509,1.509,0,0,1-.246.852,1.988,1.988,0,0,1-.708.63,3.843,3.843,0,0,1-1.116.39,7.461,7.461,0,0,1-1.47.132,7.53,7.53,0,0,1-1.482-.132,3.843,3.843,0,0,1-1.116-.39,1.988,1.988,0,0,1-.708-.63,1.509,1.509,0,0,1-.246-.852,1.509,1.509,0,0,1,.246-.852,1.988,1.988,0,0,1,.708-.63,3.843,3.843,0,0,1,1.116-.39A7.53,7.53,0,0,1-35.442,14.88Zm5.016-4.032v.8h-1.6V14.6h-.984V8.136h.984v2.712Zm9.384,1.6a7.974,7.974,0,0,1-1.206-.312,6.224,6.224,0,0,1-1.11-.5,5.055,5.055,0,0,1-.93-.69,3.467,3.467,0,0,1-.666-.846,3.538,3.538,0,0,1-.66.846,4.879,4.879,0,0,1-.924.69,6.224,6.224,0,0,1-1.11.5,7.974,7.974,0,0,1-1.206.312l-.372-.78a6.039,6.039,0,0,0,1.4-.36,5.322,5.322,0,0,0,1.206-.648,3.39,3.39,0,0,0,.846-.864,1.815,1.815,0,0,0,.318-1.02v-.48h1.008v.48a1.815,1.815,0,0,0,.318,1.02,3.352,3.352,0,0,0,.852.864,5.455,5.455,0,0,0,1.212.648,6.039,6.039,0,0,0,1.4.36Zm-3.918,5.664a5.571,5.571,0,0,0,1.99-.281q.7-.28.7-.817t-.7-.818a5.571,5.571,0,0,0-1.99-.28,5.571,5.571,0,0,0-1.99.28q-.7.281-.7.818t.7.817A5.571,5.571,0,0,0-24.96,18.108Zm0-2.964a6.208,6.208,0,0,1,2.7.482,1.5,1.5,0,0,1,.976,1.384,1.5,1.5,0,0,1-.976,1.384,6.208,6.208,0,0,1-2.7.482,6.208,6.208,0,0,1-2.7-.482,1.5,1.5,0,0,1-.976-1.384,1.5,1.5,0,0,1,.976-1.384A6.208,6.208,0,0,1-24.96,15.144Zm4.878-1.68v.792h-9.732v-.792h4.368V11.88h.984v1.584Zm5.688,4.668a6.306,6.306,0,0,0,2-.246q.7-.246.7-.738t-.7-.732a6.165,6.165,0,0,0-2-.252,6.165,6.165,0,0,0-2,.252q-.7.252-.7.732t.7.738A6.306,6.306,0,0,0-14.394,18.132Zm0-2.7a6.751,6.751,0,0,1,2.724.438,1.386,1.386,0,0,1,.96,1.278,1.392,1.392,0,0,1-.96,1.29,6.751,6.751,0,0,1-2.724.438,6.751,6.751,0,0,1-2.724-.438,1.392,1.392,0,0,1-.96-1.29,1.386,1.386,0,0,1,.96-1.278A6.751,6.751,0,0,1-14.394,15.432Zm4.872-1.608v.792h-9.744v-.792h4.38V12.768h-3.1V8.436h7.26V9.2H-17v1h5.988v.744H-17V12h6.336v.768H-13.9v1.056Zm9.66,2.2H-.846v-7.9H.138ZM-2.73,14.268a4.4,4.4,0,0,1-1.608-1.044A4.741,4.741,0,0,1-5.382,11.6a4.943,4.943,0,0,1-1.044,1.734A4.676,4.676,0,0,1-8.07,14.484l-.516-.8a3.949,3.949,0,0,0,1.11-.63,4.446,4.446,0,0,0,.852-.906,4.084,4.084,0,0,0,.546-1.1,3.974,3.974,0,0,0,.192-1.23V8.724H-4.9V9.816a3.524,3.524,0,0,0,.2,1.176,3.958,3.958,0,0,0,.552,1.044,4.294,4.294,0,0,0,.846.858,4.009,4.009,0,0,0,1.092.594ZM.462,17.844v.8H-6.786v-3.36H-5.8v2.556Zm6.084-5.628a10.138,10.138,0,0,0,.234-1.5q.042-.636.042-1.128H2.454V8.8h5.34v.576q0,.516-.036,1.242A10.714,10.714,0,0,1,7.515,12.3ZM8.6,13.7q-.84.13-1.722.207t-1.746.124q-.864.047-1.692.059T1.89,14.1l-.108-.8H2.874q.576,0,1.188-.024V11.148h.972v2.1q.888-.036,1.776-.1t1.716-.168Zm-1.83,4.4a4.759,4.759,0,0,0,1.894-.308.964.964,0,0,0,.692-.874q0-.555-.692-.862a4.759,4.759,0,0,0-1.894-.308,4.759,4.759,0,0,0-1.894.308q-.692.308-.692.862a.964.964,0,0,0,.692.874A4.759,4.759,0,0,0,6.768,18.1Zm0-3.12a7.6,7.6,0,0,1,1.486.132,4.178,4.178,0,0,1,1.126.378,1.924,1.924,0,0,1,.713.606,1.414,1.414,0,0,1,.246.816,1.462,1.462,0,0,1-.246.834,1.9,1.9,0,0,1-.713.612,4.178,4.178,0,0,1-1.126.378,7.6,7.6,0,0,1-1.486.132,7.6,7.6,0,0,1-1.486-.132,4.178,4.178,0,0,1-1.126-.378,1.9,1.9,0,0,1-.713-.612,1.462,1.462,0,0,1-.246-.834,1.414,1.414,0,0,1,.246-.816,1.924,1.924,0,0,1,.713-.606,4.178,4.178,0,0,1,1.126-.378A7.6,7.6,0,0,1,6.768,14.976Zm5.01-3.9v.8H10.242v2.952H9.258V8.124h.984v2.952Zm8.244-1.068H13.458V9.2h7.548v1.068q0,.5-.006,1.038t-.042,1.14q-.036.606-.12,1.3t-.24,1.506l-.984-.108q.156-.768.24-1.446t.12-1.278q.036-.6.042-1.128t.006-1.02Zm2.148,6.564v.8H12.438v-.8h3.78V12.72H17.2v3.852Zm9.624-8.448V18.9H30.81V8.124Zm-7.224.924v2.844h3.12V9.048h.972V16.3H23.6V9.048Zm0,6.444h3.12V12.66H24.57Zm11.652-1.824a5.514,5.514,0,0,0,1.392-.444,5.651,5.651,0,0,0,1.254-.792,4.1,4.1,0,0,0,.906-1.056,2.391,2.391,0,0,0,.348-1.236V9.912H36.558v-.8h8.148v.8H41.142v.228a2.359,2.359,0,0,0,.348,1.23,4.1,4.1,0,0,0,.912,1.05,5.618,5.618,0,0,0,1.26.786,5.289,5.289,0,0,0,1.4.426l-.4.792a6.493,6.493,0,0,1-1.224-.372,6.156,6.156,0,0,1-1.152-.624,5.778,5.778,0,0,1-.972-.84,3.866,3.866,0,0,1-.684-1.02,3.891,3.891,0,0,1-.684,1.038,5.746,5.746,0,0,1-.966.846,6.405,6.405,0,0,1-1.134.63,6.571,6.571,0,0,1-1.212.39Zm9.3,3.036v.8H35.754v-.8h4.392V14.1h.984v2.6ZM49.926,11a4.771,4.771,0,0,0,.216,1.41,5.931,5.931,0,0,0,.588,1.32,5.49,5.49,0,0,0,.87,1.1,4.364,4.364,0,0,0,1.062.774l-.612.78a4.268,4.268,0,0,1-.822-.57,5.589,5.589,0,0,1-.726-.774A6.431,6.431,0,0,1,49.9,14.1a6.714,6.714,0,0,1-.45-1.062,6.6,6.6,0,0,1-1.056,2.13A5.01,5.01,0,0,1,46.77,16.6l-.588-.792A4.439,4.439,0,0,0,47.268,15a5.5,5.5,0,0,0,.882-1.158,6.4,6.4,0,0,0,.588-1.38A5.15,5.15,0,0,0,48.954,11V9.064h.972Zm6.444,2.312H54.594v5.58H53.61V8.148h.984V12.5H56.37Zm4.836.288h5.5v-1.98h-5.5Zm7.62,3.108v.8H59.082v-.8H63.45V14.388H60.234v-5.5h.972v1.92h5.5V8.892h.972v5.5h-3.24V16.7Zm8.412-6.7H70.674V9.2h7.548v1.068q0,.5-.006,1.038t-.042,1.14q-.036.606-.12,1.3t-.24,1.506l-.984-.108q.156-.768.24-1.446t.12-1.278q.036-.6.042-1.128t.006-1.02Zm2.148,6.564v.8H69.654v-.8h3.78V12.72h.984v3.852ZM83.97,10.98a4.968,4.968,0,0,0,.216,1.446,5.828,5.828,0,0,0,.594,1.338,5.47,5.47,0,0,0,.882,1.11,4.051,4.051,0,0,0,1.092.762l-.576.78a4.431,4.431,0,0,1-.87-.576,5.079,5.079,0,0,1-.756-.792,6.91,6.91,0,0,1-.618-.96,6.429,6.429,0,0,1-.456-1.08,7.335,7.335,0,0,1-.45,1.146,6.625,6.625,0,0,1-.612,1.008,5.77,5.77,0,0,1-.75.834,4.153,4.153,0,0,1-.864.612l-.6-.78a3.966,3.966,0,0,0,1.092-.8,5.941,5.941,0,0,0,.882-1.164,6.158,6.158,0,0,0,.594-1.392,5.314,5.314,0,0,0,.216-1.488V9.048h.984Zm5.1-2.856V18.9h-.984V12.576h-2.5v-.8h2.5V8.124Z" transform="translate(180 14917)" fill="#c7c7c7"/>
    </g>
  </g>
</svg>
