<svg xmlns="http://www.w3.org/2000/svg" width="522.86" height="184.151" viewBox="0 0 522.86 184.151">
    <defs>
        <style>
            .cls-1{fill:#ebeef2}
        </style>
    </defs>
    <path id="title_2-staking" d="M6.552-53.28h17.5a38.674 38.674 0 0 1 8.208.828 18.329 18.329 0 0 1 6.62 2.772 13.6 13.6 0 0 1 4.428 5.148 17.528 17.528 0 0 1 1.62 7.956 17.921 17.921 0 0 1-1.62 7.884 15.32 15.32 0 0 1-4.392 5.508 18.6 18.6 0 0 1-6.516 3.2 29.919 29.919 0 0 1-8.064 1.044h-7.128V0H6.552zm17.064 25.92q10.872 0 10.872-9.216 0-4.68-2.844-6.48t-8.388-1.8h-6.048v17.5zM67.68 1.008a18.985 18.985 0 0 1-7.308-1.44 18.441 18.441 0 0 1-6.156-4.14 20.363 20.363 0 0 1-4.284-6.628 23.121 23.121 0 0 1-1.62-8.892 23.6 23.6 0 0 1 1.62-9 20.279 20.279 0 0 1 4.284-6.66 18.441 18.441 0 0 1 6.156-4.14 18.985 18.985 0 0 1 7.308-1.44 19.075 19.075 0 0 1 7.274 1.441 18.349 18.349 0 0 1 6.19 4.139 20.279 20.279 0 0 1 4.284 6.66 23.6 23.6 0 0 1 1.62 9 23.121 23.121 0 0 1-1.62 8.892 20.363 20.363 0 0 1-4.284 6.624 18.349 18.349 0 0 1-6.192 4.14 19.073 19.073 0 0 1-7.272 1.444zm0-8.64a7.155 7.155 0 0 0 6.336-3.384q2.232-3.384 2.232-9.072 0-5.76-2.232-9.18a7.136 7.136 0 0 0-6.336-3.42 7.136 7.136 0 0 0-6.336 3.42q-2.232 3.42-2.232 9.18 0 5.688 2.232 9.072a7.155 7.155 0 0 0 6.336 3.384zM93.024-40.32h10.512V0H93.024zm5.328-6.48a6.526 6.526 0 0 1-4.536-1.62 5.321 5.321 0 0 1-1.8-4.14 5.293 5.293 0 0 1 1.8-4.176 6.615 6.615 0 0 1 4.536-1.584 6.481 6.481 0 0 1 4.5 1.584 5.343 5.343 0 0 1 1.764 4.176 5.371 5.371 0 0 1-1.764 4.14 6.394 6.394 0 0 1-4.5 1.62zm13.68 6.48h8.64l.72 5.328h.288a30.911 30.911 0 0 1 5.849-4.464 14.093 14.093 0 0 1 7.292-1.872q6.57 0 9.53 4.284t2.96 11.916V0h-10.655v-23.832q0-4.68-1.332-6.552a4.975 4.975 0 0 0-4.356-1.872 7.844 7.844 0 0 0-4.32 1.152 27.381 27.381 0 0 0-4.1 3.384V0h-10.516zm58.1 41.328a15.66 15.66 0 0 1-6.144-1.08 10.449 10.449 0 0 1-4.132-3.06 12.5 12.5 0 0 1-2.32-4.788 24.749 24.749 0 0 1-.725-6.192v-17.856h-5.688v-7.848l6.192-.5 1.233-10.8h8.919v10.8h9.933v8.352h-9.936v17.8q0 6.748 5.472 6.748a9.181 9.181 0 0 0 2.088-.252 10.08 10.08 0 0 0 1.876-.612l1.728 7.762a33.925 33.925 0 0 1-3.74 1.054 21.655 21.655 0 0 1-4.752.472zm18.5 0a6.174 6.174 0 0 1-4.68-1.98 6.9 6.9 0 0 1-1.864-4.928 6.9 6.9 0 0 1 1.872-4.932 6.174 6.174 0 0 1 4.68-1.98 6.257 6.257 0 0 1 4.752 1.98 6.9 6.9 0 0 1 1.872 4.932 6.9 6.9 0 0 1-1.872 4.932 6.257 6.257 0 0 1-4.752 1.976zM220.1-54.72a19.78 19.78 0 0 1 6.876 1.152 15.96 15.96 0 0 1 5.364 3.2 14.515 14.515 0 0 1 3.492 4.932A15.637 15.637 0 0 1 237.1-39.1a16.807 16.807 0 0 1-1.044 5.436 26.268 26.268 0 0 1-2.484 5 40.82 40.82 0 0 1-3.42 4.608q-1.908 2.232-3.924 4.32L215.064-8.5a17.16 17.16 0 0 1 2.772-.468q1.332-.108 2.556-.108h17.28V0H200.16v-5.76l18.072-17.784a52.867 52.867 0 0 0 6.48-7.632 13.51 13.51 0 0 0 2.376-7.7 7.347 7.347 0 0 0-2.052-5.652 7.871 7.871 0 0 0-5.58-1.908 7.653 7.653 0 0 0-5.112 1.764 9.727 9.727 0 0 0-2.952 4.14 7.58 7.58 0 0 0-.4 1.656q-.108.864-.18 1.944l-9.432-1.584q1.224-8.28 6.264-12.24A19.54 19.54 0 0 1 220.1-54.72zM40.56 125.82a50.8 50.8 0 0 1-18.915-3.64 49.373 49.373 0 0 1-16.185-10.4l11.05-13.26a43.593 43.593 0 0 0 11.635 7.735 30.738 30.738 0 0 0 12.8 2.925q7.54 0 11.44-2.99a9.628 9.628 0 0 0 3.9-8.06 9.026 9.026 0 0 0-1.045-4.55 10.872 10.872 0 0 0-2.939-3.25 22.568 22.568 0 0 0-4.571-2.6l-5.943-2.6-12.927-5.46a51.014 51.014 0 0 1-7.1-3.77 27.291 27.291 0 0 1-6.2-5.4 26.845 26.845 0 0 1-4.391-7.28A24.691 24.691 0 0 1 9.49 53.8a25.153 25.153 0 0 1 2.454-10.985 26.272 26.272 0 0 1 6.843-8.84 33.113 33.113 0 0 1 10.481-5.85A40.016 40.016 0 0 1 42.64 25.98a43.564 43.564 0 0 1 16.38 3.185A39.8 39.8 0 0 1 72.8 38.33l-9.75 12.09a38 38 0 0 0-9.49-5.85 27.868 27.868 0 0 0-10.92-2.08q-6.37 0-10.14 2.665a8.63 8.63 0 0 0-3.77 7.475 7.658 7.658 0 0 0 1.241 4.42 12.9 12.9 0 0 0 3.265 3.25A25.768 25.768 0 0 0 38 62.9q2.743 1.17 5.877 2.34l12.673 5.33a47.775 47.775 0 0 1 7.995 4.16 26.492 26.492 0 0 1 6.11 5.46 22.708 22.708 0 0 1 3.9 7.215A29.328 29.328 0 0 1 75.92 96.7a26.973 26.973 0 0 1-9.36 20.475 34.167 34.167 0 0 1-11.115 6.305 44.163 44.163 0 0 1-14.885 2.34zm66.3-81.9H79.82V27.8h73.58v16.12h-27.3V124h-19.24zm97.89 40.43l-2.86-10.53q-2.21-7.54-4.225-15.6t-4.225-15.86h-.52q-1.82 7.93-3.9 15.925t-4.29 15.535l-2.86 10.53zm4.16 14.95h-31.2l-6.76 24.7h-19.5l30.81-96.2h22.62l30.94 96.2h-20.15zm33.02-71.5h19.24v41.73h.39l31.85-41.73h21.19l-29.38 37.83L319.8 124h-21.19l-24.83-43.16-12.61 16.12V124h-19.24zm83.98 0h19.24V124h-19.24zm37.7 0h19.624l27.942 51.22 9.616 20.8h.65q-.774-7.54-1.613-16.51t-.839-17.16V27.8h18.07V124h-19.494l-27.812-51.48-9.748-20.67h-.65q.646 7.8 1.485 16.51t.839 17.03V124h-18.07zm133.51 98.02a50.635 50.635 0 0 1-18.33-3.25 41.03 41.03 0 0 1-14.625-9.49 43.753 43.753 0 0 1-9.685-15.47 59.759 59.759 0 0 1-3.51-21.32 58.1 58.1 0 0 1 3.64-21.19 47.368 47.368 0 0 1 9.88-15.86 41.611 41.611 0 0 1 14.625-9.88 47.7 47.7 0 0 1 18.005-3.38q10.4 0 17.745 3.77a45.74 45.74 0 0 1 12.025 8.58l-10.27 12.22a35.507 35.507 0 0 0-7.865-5.72 23.044 23.044 0 0 0-10.985-2.34 26.234 26.234 0 0 0-10.985 2.275 23.942 23.942 0 0 0-8.58 6.565 31.416 31.416 0 0 0-5.59 10.4 44.337 44.337 0 0 0-2.015 13.91q0 15.73 7.15 24.635t21.32 8.9a24.953 24.953 0 0 0 6.76-.91 13.48 13.48 0 0 0 5.33-2.73V86.56h-17.03V70.83h34.19v43.42a41.294 41.294 0 0 1-13 8.19 46.664 46.664 0 0 1-18.2 3.38z" class="cls-1" transform="translate(-5.46 58.325)"/>
</svg>
