<svg xmlns="http://www.w3.org/2000/svg" width="397.15" height="184.15" viewBox="0 0 397.15 184.15">
    <defs>
        <style>
            .cls-1{fill:#ebeef2}
        </style>
    </defs>
    <path id="title_1-store" d="M6.552-53.28h17.5a38.674 38.674 0 0 1 8.208.828 18.329 18.329 0 0 1 6.62 2.772 13.6 13.6 0 0 1 4.428 5.148 17.528 17.528 0 0 1 1.62 7.956 17.921 17.921 0 0 1-1.62 7.884 15.32 15.32 0 0 1-4.392 5.508 18.6 18.6 0 0 1-6.516 3.2 29.919 29.919 0 0 1-8.064 1.044h-7.128V0H6.552zm17.064 25.92q10.872 0 10.872-9.216 0-4.68-2.844-6.48t-8.388-1.8h-6.048v17.5zM67.68 1.008a18.985 18.985 0 0 1-7.308-1.44 18.441 18.441 0 0 1-6.156-4.14 20.363 20.363 0 0 1-4.284-6.628 23.121 23.121 0 0 1-1.62-8.892 23.6 23.6 0 0 1 1.62-9 20.279 20.279 0 0 1 4.284-6.66 18.441 18.441 0 0 1 6.156-4.14 18.985 18.985 0 0 1 7.308-1.44 19.075 19.075 0 0 1 7.274 1.441 18.349 18.349 0 0 1 6.19 4.139 20.279 20.279 0 0 1 4.284 6.66 23.6 23.6 0 0 1 1.62 9 23.121 23.121 0 0 1-1.62 8.892 20.363 20.363 0 0 1-4.284 6.624 18.349 18.349 0 0 1-6.192 4.14 19.073 19.073 0 0 1-7.272 1.444zm0-8.64a7.155 7.155 0 0 0 6.336-3.384q2.232-3.384 2.232-9.072 0-5.76-2.232-9.18a7.136 7.136 0 0 0-6.336-3.42 7.136 7.136 0 0 0-6.336 3.42q-2.232 3.42-2.232 9.18 0 5.688 2.232 9.072a7.155 7.155 0 0 0 6.336 3.384zM93.024-40.32h10.512V0H93.024zm5.328-6.48a6.526 6.526 0 0 1-4.536-1.62 5.321 5.321 0 0 1-1.8-4.14 5.293 5.293 0 0 1 1.8-4.176 6.615 6.615 0 0 1 4.536-1.584 6.481 6.481 0 0 1 4.5 1.584 5.343 5.343 0 0 1 1.764 4.176 5.371 5.371 0 0 1-1.764 4.14 6.394 6.394 0 0 1-4.5 1.62zm13.68 6.48h8.64l.72 5.328h.288a30.911 30.911 0 0 1 5.849-4.464 14.093 14.093 0 0 1 7.292-1.872q6.57 0 9.53 4.284t2.96 11.916V0h-10.655v-23.832q0-4.68-1.332-6.552a4.975 4.975 0 0 0-4.356-1.872 7.844 7.844 0 0 0-4.32 1.152 27.381 27.381 0 0 0-4.1 3.384V0h-10.516zm58.1 41.328a15.66 15.66 0 0 1-6.144-1.08 10.449 10.449 0 0 1-4.132-3.06 12.5 12.5 0 0 1-2.32-4.788 24.749 24.749 0 0 1-.725-6.192v-17.856h-5.688v-7.848l6.192-.5 1.233-10.8h8.919v10.8h9.933v8.352h-9.936v17.8q0 6.748 5.472 6.748a9.181 9.181 0 0 0 2.088-.252 10.08 10.08 0 0 0 1.876-.612l1.728 7.762a33.925 33.925 0 0 1-3.74 1.054 21.655 21.655 0 0 1-4.752.472zm18.5 0a6.174 6.174 0 0 1-4.68-1.98 6.9 6.9 0 0 1-1.864-4.928 6.9 6.9 0 0 1 1.872-4.932 6.174 6.174 0 0 1 4.68-1.98 6.257 6.257 0 0 1 4.752 1.98 6.9 6.9 0 0 1 1.872 4.932 6.9 6.9 0 0 1-1.872 4.932 6.257 6.257 0 0 1-4.752 1.976zm38.232-54.864v45.792h9.288V0H206.5v-8.064h10.512v-29.258L217.3-42l-8.784 7.98-5.688-6.47 15.552-13.371zM40.56 125.82a50.8 50.8 0 0 1-18.915-3.64 49.373 49.373 0 0 1-16.185-10.4l11.05-13.26a43.593 43.593 0 0 0 11.635 7.735 30.738 30.738 0 0 0 12.8 2.925q7.54 0 11.44-2.99a9.628 9.628 0 0 0 3.9-8.06 9.026 9.026 0 0 0-1.045-4.55 10.872 10.872 0 0 0-2.939-3.25 22.568 22.568 0 0 0-4.571-2.6l-5.943-2.6-12.927-5.46a51.014 51.014 0 0 1-7.1-3.77 27.291 27.291 0 0 1-6.2-5.4 26.845 26.845 0 0 1-4.391-7.28A24.691 24.691 0 0 1 9.49 53.8a25.153 25.153 0 0 1 2.454-10.985 26.272 26.272 0 0 1 6.843-8.84 33.113 33.113 0 0 1 10.481-5.85A40.016 40.016 0 0 1 42.64 25.98a43.564 43.564 0 0 1 16.38 3.185A39.8 39.8 0 0 1 72.8 38.33l-9.75 12.09a38 38 0 0 0-9.49-5.85 27.868 27.868 0 0 0-10.92-2.08q-6.37 0-10.14 2.665a8.63 8.63 0 0 0-3.77 7.475 7.658 7.658 0 0 0 1.241 4.42 12.9 12.9 0 0 0 3.265 3.25A25.768 25.768 0 0 0 38 62.9q2.743 1.17 5.877 2.34l12.673 5.33a47.775 47.775 0 0 1 7.995 4.16 26.492 26.492 0 0 1 6.11 5.46 22.708 22.708 0 0 1 3.9 7.215A29.328 29.328 0 0 1 75.92 96.7a26.973 26.973 0 0 1-9.36 20.475 34.167 34.167 0 0 1-11.115 6.305 44.163 44.163 0 0 1-14.885 2.34zm66.3-81.9H79.82V27.8h73.58v16.12h-27.3V124h-19.24zm95.16 81.9a43.124 43.124 0 0 1-17.485-3.445 38.1 38.1 0 0 1-13.585-10.01 46.2 46.2 0 0 1-8.84-15.86 65.788 65.788 0 0 1-3.12-21 65.188 65.188 0 0 1 3.12-20.93 44.188 44.188 0 0 1 8.84-15.6 37.752 37.752 0 0 1 13.585-9.685 44.592 44.592 0 0 1 17.485-3.31 43.974 43.974 0 0 1 17.42 3.38 38.68 38.68 0 0 1 13.65 9.685 43.511 43.511 0 0 1 8.84 15.535 65.189 65.189 0 0 1 3.12 20.93 65.789 65.789 0 0 1-3.12 21 46.2 46.2 0 0 1-8.84 15.86 37.952 37.952 0 0 1-13.65 10.01 43.253 43.253 0 0 1-17.42 3.44zm0-16.64a20.132 20.132 0 0 0 9.685-2.34 21.14 21.14 0 0 0 7.41-6.76 33.388 33.388 0 0 0 4.68-10.66 55.211 55.211 0 0 0 1.625-13.91q0-15.6-6.305-24.31a21.131 21.131 0 0 0-34.19 0q-6.3 8.71-6.3 24.31a55.21 55.21 0 0 0 1.625 13.91 33.387 33.387 0 0 0 4.68 10.66 21.14 21.14 0 0 0 7.41 6.76 20.132 20.132 0 0 0 9.685 2.34zm75.92-36.79h12.48q9.36 0 14.235-3.835t4.875-11.635q0-7.8-4.875-10.855T290.42 43.01h-12.48zM311.09 124l-19.76-36.4h-13.39V124H258.7V27.8h33.54a67.122 67.122 0 0 1 14.17 1.43 31.674 31.674 0 0 1 11.505 4.81 23.457 23.457 0 0 1 7.67 8.97q2.8 5.59 2.8 13.91 0 10.92-5.005 17.68a29.541 29.541 0 0 1-13.33 10.01L332.54 124zm31.07-96.2h59.02v16.12H361.4v22.1h33.8v16.12h-33.8v25.74h41.21V124h-60.45z" class="cls-1" transform="translate(-5.46 58.325)"/>
</svg>
