<svg id="filter" xmlns="http://www.w3.org/2000/svg" width="22" height="22" viewBox="0 0 22 22">
  <g id="그룹_3786" data-name="그룹 3786" transform="translate(0)">
    <path id="패스_135" data-name="패스 135" d="M21.214,0H.786A.786.786,0,0,0,0,.786V4.714A.786.786,0,0,0,.26,5.3l7.6,6.837v9.079a.786.786,0,0,0,1.137.7l4.714-2.357a.786.786,0,0,0,.435-.7V12.135L21.74,5.3A.785.785,0,0,0,22,4.714V.786A.786.786,0,0,0,21.214,0Zm-.786,4.365-7.6,6.836a.786.786,0,0,0-.26.585v6.586L9.429,19.943V11.786a.786.786,0,0,0-.26-.584l-7.6-6.837V1.571H20.429Z" transform="translate(0)" fill="#555"/>
  </g>
</svg>
