<svg xmlns="http://www.w3.org/2000/svg" xmlns:xlink="http://www.w3.org/1999/xlink" width="22" height="22" viewBox="0 0 22 22">
  <defs>
    <clipPath id="clip-path">
      <rect id="사각형_1838" data-name="사각형 1838" width="22" height="22" transform="translate(-1930 -1690)" fill="#555"/>
    </clipPath>
  </defs>
  <g id="마스크_그룹_4" data-name="마스크 그룹 4" transform="translate(1930 1690)" clip-path="url(#clip-path)">
    <g id="e-commerce-like-heart" transform="translate(-1930 -1690)">
      <g id="그룹_3840" data-name="그룹 3840">
        <path id="패스_157" data-name="패스 157" d="M21.666,5.11A6.167,6.167,0,0,0,10.989,3.349,6.163,6.163,0,0,0,6.136.988h0A6.207,6.207,0,0,0,1.088,3.611,5.9,5.9,0,0,0,.043,6.344,7.453,7.453,0,0,0,.277,9.116a14.62,14.62,0,0,0,2.49,4.81,28.624,28.624,0,0,0,7.817,6.835l.406.255.406-.255c4.183-2.627,7.1-5.4,8.925-8.481a10.63,10.63,0,0,0,1.67-4.823A6.119,6.119,0,0,0,21.666,5.11ZM10.99,19.209a26.636,26.636,0,0,1-7-6.2,13.1,13.1,0,0,1-2.233-4.28,5.939,5.939,0,0,1-.193-2.2A4.384,4.384,0,0,1,2.338,4.49a4.64,4.64,0,0,1,7.966.625l.686,1.4.685-1.4a4.647,4.647,0,0,1,8.549.5,4.6,4.6,0,0,1,.241,1.764A9.178,9.178,0,0,1,19.007,11.5,24.132,24.132,0,0,1,10.99,19.209Z" fill="#555"/>
      </g>
    </g>
  </g>
</svg>
