<svg xmlns="http://www.w3.org/2000/svg" width="29.544" height="29.544" viewBox="0 0 29.544 29.544">
  <g id="_65b4efa83f0020b4c9693d8db093bd2e" data-name="65b4efa83f0020b4c9693d8db093bd2e" transform="translate(-10 -10)">
    <path id="패스_2524" data-name="패스 2524" d="M19.508,24.784a5.363,5.363,0,1,1,5.363,5.36,5.363,5.363,0,0,1-5.363-5.36ZM24.829,36.8a11.992,11.992,0,1,1,4.682-.944,11.951,11.951,0,0,1-4.682.944Zm0-22.851A10.835,10.835,0,1,0,35.676,24.784,10.853,10.853,0,0,0,24.829,13.949ZM24.2,10h1.182v3.361H24.2V10Zm0,26.183h1.182v3.361H24.2V36.183ZM10,24.208h3.431V25.39H10V24.208Zm26.113,0h3.431V25.39H36.113V24.208Z" fill="#555"/>
  </g>
</svg>
