<svg xmlns="http://www.w3.org/2000/svg" xmlns:xlink="http://www.w3.org/1999/xlink" width="104" height="61.001" viewBox="0 0 104 61.001">
  <defs>
    <filter id="합치기_14" x="0" y="0" width="104" height="61.001" filterUnits="userSpaceOnUse">
      <feOffset dy="5" input="SourceAlpha"/>
      <feGaussianBlur stdDeviation="4" result="blur"/>
      <feFlood flood-opacity="0.078"/>
      <feComposite operator="in" in2="blur"/>
      <feComposite in="SourceGraphic"/>
    </filter>
  </defs>
  <g id="그룹_4999" data-name="그룹 4999" transform="translate(7402 -1037)">
    <g id="그룹_4998" data-name="그룹 4998" transform="translate(-7627 638)">
      <g transform="matrix(1, 0, 0, 1, 225, 399)" filter="url(#합치기_14)">
        <g id="합치기_14-2" data-name="합치기 14" transform="translate(-3066 -1977)" fill="#fff">
          <path d="M 3109.99951171875 2020.028564453125 L 3105.029296875 2011.743286132813 L 3104.8837890625 2011.50048828125 L 3104.6005859375 2011.50048828125 L 3081.999755859375 2011.50048828125 C 3080.070068359375 2011.50048828125 3078.5 2009.93017578125 3078.5 2008 L 3078.5 1988.000122070313 C 3078.5 1986.069946289063 3080.070068359375 1984.499633789063 3081.999755859375 1984.499633789063 L 3153.999755859375 1984.499633789063 C 3155.929931640625 1984.499633789063 3157.500244140625 1986.069946289063 3157.500244140625 1988.000122070313 L 3157.500244140625 2008 C 3157.500244140625 2009.93017578125 3155.929931640625 2011.50048828125 3153.999755859375 2011.50048828125 L 3115.3994140625 2011.50048828125 L 3115.1162109375 2011.50048828125 L 3114.970703125 2011.743286132813 L 3109.99951171875 2020.028564453125 Z" stroke="none"/>
          <path d="M 3109.99951171875 2019.056640625 L 3114.5419921875 2011.485961914063 L 3114.833251953125 2011.00048828125 L 3115.3994140625 2011.00048828125 L 3153.999755859375 2011.00048828125 C 3155.654296875 2011.00048828125 3157.000244140625 2009.654418945313 3157.000244140625 2008 L 3157.000244140625 1988.000122070313 C 3157.000244140625 1986.345703125 3155.654296875 1984.999633789063 3153.999755859375 1984.999633789063 L 3081.999755859375 1984.999633789063 C 3080.345703125 1984.999633789063 3079 1986.345703125 3079 1988.000122070313 L 3079 2008 C 3079 2009.654418945313 3080.345703125 2011.00048828125 3081.999755859375 2011.00048828125 L 3104.6005859375 2011.00048828125 L 3105.166748046875 2011.00048828125 L 3105.4580078125 2011.486083984375 L 3109.99951171875 2019.056640625 M 3109.99951171875 2021.00048828125 L 3104.6005859375 2012.00048828125 L 3081.999755859375 2012.00048828125 C 3079.791015625 2012.00048828125 3078 2010.20947265625 3078 2008 L 3078 1988.000122070313 C 3078 1985.790649414063 3079.791015625 1983.999633789063 3081.999755859375 1983.999633789063 L 3153.999755859375 1983.999633789063 C 3156.209228515625 1983.999633789063 3158.000244140625 1985.790649414063 3158.000244140625 1988.000122070313 L 3158.000244140625 2008 C 3158.000244140625 2010.20947265625 3156.209228515625 2012.00048828125 3153.999755859375 2012.00048828125 L 3115.3994140625 2012.00048828125 L 3109.99951171875 2021.00048828125 Z" stroke="none" fill="#dbdbdb"/>
        </g>
      </g>
      <g id="그룹_3881" data-name="그룹 3881" transform="translate(176.055 364.831)">
        <g id="Layer_1_사본" data-name="Layer 1 사본" transform="translate(69.945 47.169)">
          <path id="패스_164" data-name="패스 164" d="M85.68,52.438l-7.375-5.156a.625.625,0,0,0-.716,0l-7.375,5.156a.625.625,0,0,0-.267.512l0,9.594a.625.625,0,0,0,.625.625H85.32a.625.625,0,0,0,.625-.625l0-9.594A.625.625,0,0,0,85.68,52.438Z" transform="translate(-69.945 -47.169)" fill="#222"/>
        </g>
        <g id="레이어_4" data-name="레이어 4" transform="translate(74.696 53.01)">
          <path id="패스_165" data-name="패스 165" d="M222.586,242.73a.625.625,0,0,0,.625-.625v-2h2.219a3.031,3.031,0,0,0,0-6.062h-2.844a.625.625,0,0,0-.625.625V242.1A.625.625,0,0,0,222.586,242.73Zm.625-7.437h2.219a1.781,1.781,0,0,1,0,3.562h-2.219Z" transform="translate(-221.961 -235.042)" fill="#fff"/>
        </g>
      </g>
    </g>
  </g>
</svg>
