<svg xmlns="http://www.w3.org/2000/svg" viewBox="0 0 20 13.3326"><defs><style>.cls-1{fill:#1c823b;}.cls-2{fill:#fff;}.cls-3{fill:#f19338;}.cls-4{fill:#1a274d;}</style></defs><title>icon_lang06_ID</title><g id="레이어_2" data-name="레이어 2"><g id="레이어_1-2" data-name="레이어 1"><rect class="cls-1" y="8.88868" width="20" height="4.44392"/><rect class="cls-2" y="4.4439" width="20" height="4.44478"/><rect class="cls-3" width="20" height="4.4439"/><rect class="cls-4" x="11.58816" y="5.9082" width="0.12008" height="0.11994" transform="translate(0.65779 13.07525) rotate(-60.01836)"/><polygon class="cls-4" points="11.773 6.503 11.688 6.418 11.773 6.334 11.857 6.418 11.773 6.503"/><polygon class="cls-4" points="11.755 6.968 11.694 6.864 11.798 6.804 11.858 6.908 11.755 6.968"/><polygon class="cls-4" points="11.616 7.412 11.585 7.295 11.701 7.265 11.732 7.381 11.616 7.412"/><rect class="cls-4" x="11.58816" y="5.9082" width="0.12008" height="0.11994" transform="translate(0.65779 13.07525) rotate(-60.01836)"/><polygon class="cls-4" points="11.773 6.503 11.688 6.418 11.773 6.334 11.857 6.418 11.773 6.503"/><polygon class="cls-4" points="11.755 6.968 11.694 6.864 11.798 6.804 11.858 6.908 11.755 6.968"/><polygon class="cls-4" points="11.616 7.412 11.585 7.295 11.701 7.265 11.732 7.381 11.616 7.412"/><rect class="cls-4" x="9.69184" y="4.83276" width="0.12017" height="0.12017" transform="translate(-0.59337 8.35909) rotate(-45.16802)"/><rect class="cls-4" x="10.15976" y="4.8291" width="0.11973" height="0.12045" transform="translate(-1.07875 5.72171) rotate(-29.78116)"/><polygon class="cls-4" points="10.745 5.049 10.629 5.08 10.599 4.964 10.714 4.933 10.745 5.049"/><rect class="cls-4" x="11.0181" y="5.1773" width="0.1201" height="0.1196"/><rect class="cls-4" x="11.35158" y="5.50515" width="0.11983" height="0.12014" transform="matrix(0.25919, -0.96583, 0.96583, 0.25919, 3.07868, 15.14426)"/><rect class="cls-4" x="11.3686" y="7.6851" width="0.1197" height="0.11984"/><polygon class="cls-4" points="11.027 8.121 11.058 8.004 11.174 8.036 11.143 8.152 11.027 8.121"/><polygon class="cls-4" points="10.615 8.336 10.676 8.233 10.779 8.293 10.72 8.396 10.615 8.336"/><polygon class="cls-4" points="10.162 8.439 10.247 8.355 10.332 8.439 10.247 8.524 10.162 8.439"/><polygon class="cls-4" points="9.697 8.421 9.802 8.361 9.861 8.465 9.758 8.525 9.697 8.421"/><rect class="cls-4" x="9.26698" y="8.26555" width="0.12009" height="0.11983" transform="translate(-1.83988 2.70346) rotate(-15.02958)"/><rect class="cls-4" x="8.8603" y="8.0352" width="0.12021" height="0.1196"/><rect class="cls-4" x="8.52762" y="7.70683" width="0.11982" height="0.12009" transform="translate(-1.14056 14.04655) rotate(-74.97042)"/><rect class="cls-4" x="8.29027" y="7.30406" width="0.12041" height="0.11973" transform="translate(-2.20097 10.91707) rotate(-60.01836)"/><rect class="cls-4" x="8.16584" y="6.85351" width="0.11997" height="0.11997" transform="translate(-2.47661 7.87188) rotate(-45.16285)"/><polygon class="cls-4" points="8.244 6.364 8.305 6.468 8.201 6.528 8.141 6.424 8.244 6.364"/><rect class="cls-4" x="8.28013" y="5.93353" width="0.11988" height="0.11984" transform="translate(-1.27586 2.38623) rotate(-15.13972)"/><rect class="cls-4" x="8.5107" y="5.52715" width="0.11995" height="0.11985" transform="translate(-0.02319 0.03573) rotate(-0.23853)"/><polygon class="cls-4" points="8.972 5.211 8.941 5.328 8.825 5.296 8.856 5.18 8.972 5.211"/><polygon class="cls-4" points="9.384 4.995 9.324 5.099 9.22 5.039 9.279 4.935 9.384 4.995"/><polygon class="cls-4" points="9.962 6.661 10.013 5.952 9.958 4.884 9.908 5.953 9.962 6.661"/><polygon class="cls-4" points="9.962 6.661 10.194 5.989 10.417 4.943 10.093 5.962 9.962 6.661"/><polygon class="cls-4" points="9.962 6.661 10.36 6.072 10.847 5.12 10.27 6.02 9.962 6.661"/><polygon class="cls-4" points="9.962 6.661 10.5 6.195 11.215 5.401 10.425 6.121 9.962 6.661"/><polygon class="cls-4" points="9.962 6.661 10.602 6.35 11.498 5.768 10.549 6.259 9.962 6.661"/><polygon class="cls-4" points="9.962 6.661 10.66 6.526 11.677 6.196 10.633 6.424 9.962 6.661"/><polygon class="cls-4" points="9.962 6.661 10.671 6.711 11.739 6.656 10.671 6.606 9.962 6.661"/><polygon class="cls-4" points="9.962 6.661 10.634 6.893 11.68 7.116 10.661 6.791 9.962 6.661"/><polygon class="cls-4" points="9.962 6.661 10.551 7.059 11.503 7.544 10.604 6.968 9.962 6.661"/><polygon class="cls-4" points="9.962 6.661 10.428 7.198 11.222 7.914 10.502 7.123 9.962 6.661"/><polygon class="cls-4" points="9.962 6.661 10.273 7.3 10.856 8.197 10.364 7.248 9.962 6.661"/><polygon class="cls-4" points="9.962 6.661 10.097 7.359 10.427 8.375 10.198 7.332 9.962 6.661"/><polygon class="cls-4" points="9.962 6.661 9.912 7.37 9.968 8.437 10.017 7.37 9.962 6.661"/><polygon class="cls-4" points="9.962 6.661 9.731 7.333 9.508 8.378 9.832 7.359 9.962 6.661"/><polygon class="cls-4" points="9.962 6.661 9.564 7.25 9.079 8.202 9.655 7.301 9.962 6.661"/><polygon class="cls-4" points="9.962 6.661 9.426 7.126 8.71 7.92 9.5 7.201 9.962 6.661"/><polygon class="cls-4" points="9.962 6.661 9.323 6.971 8.426 7.554 9.376 7.062 9.962 6.661"/><polygon class="cls-4" points="9.962 6.661 9.265 6.795 8.248 7.125 9.292 6.897 9.962 6.661"/><polygon class="cls-4" points="9.962 6.661 9.253 6.61 8.186 6.666 9.254 6.715 9.962 6.661"/><polygon class="cls-4" points="9.962 6.661 9.291 6.428 8.245 6.207 9.264 6.53 9.962 6.661"/><polygon class="cls-4" points="9.962 6.661 9.374 6.262 8.421 5.777 9.321 6.354 9.962 6.661"/><polygon class="cls-4" points="9.962 6.661 9.497 6.124 8.702 5.408 9.423 6.198 9.962 6.661"/><polygon class="cls-4" points="9.962 6.661 9.652 6.021 9.069 5.125 9.561 6.074 9.962 6.661"/><polygon class="cls-4" points="9.962 6.661 9.828 5.963 9.497 4.946 9.726 5.99 9.962 6.661"/><path class="cls-4" d="M10.52151,4.7183A2.017,2.017,0,1,0,11.9482,7.188,2.01666,2.01666,0,0,0,10.52151,4.7183ZM9.5371,8.3926a1.78722,1.78722,0,1,1,2.1885-1.2637A1.7875,1.7875,0,0,1,9.5371,8.3926Z"/><path class="cls-4" d="M10.3467,6.7593a.35926.35926,0,1,1-.2539-.4394A.35952.35952,0,0,1,10.3467,6.7593Z"/><polygon class="cls-4" points="10.745 5.049 10.629 5.08 10.599 4.964 10.714 4.933 10.745 5.049"/><rect class="cls-4" x="11.0181" y="5.1773" width="0.1201" height="0.1196"/><rect class="cls-4" x="11.35158" y="5.50515" width="0.11983" height="0.12014" transform="matrix(0.25919, -0.96583, 0.96583, 0.25919, 3.07868, 15.14426)"/><rect class="cls-4" x="11.3686" y="7.6851" width="0.1197" height="0.11984"/><polygon class="cls-4" points="11.027 8.121 11.058 8.004 11.174 8.036 11.143 8.152 11.027 8.121"/><polygon class="cls-4" points="10.615 8.336 10.676 8.233 10.779 8.293 10.72 8.396 10.615 8.336"/><polygon class="cls-4" points="10.162 8.439 10.247 8.355 10.332 8.439 10.247 8.524 10.162 8.439"/><polygon class="cls-4" points="9.697 8.421 9.802 8.361 9.861 8.465 9.758 8.525 9.697 8.421"/><rect class="cls-4" x="9.26698" y="8.26555" width="0.12009" height="0.11983" transform="translate(-1.83988 2.70346) rotate(-15.02958)"/><rect class="cls-4" x="8.8603" y="8.0352" width="0.12021" height="0.1196"/><rect class="cls-4" x="8.52762" y="7.70683" width="0.11982" height="0.12009" transform="translate(-1.14056 14.04655) rotate(-74.97042)"/><rect class="cls-4" x="8.29027" y="7.30406" width="0.12041" height="0.11973" transform="translate(-2.20097 10.91707) rotate(-60.01836)"/><rect class="cls-4" x="8.16584" y="6.85351" width="0.11997" height="0.11997" transform="translate(-2.47661 7.87188) rotate(-45.16285)"/><polygon class="cls-4" points="8.244 6.364 8.305 6.468 8.201 6.528 8.141 6.424 8.244 6.364"/><rect class="cls-4" x="8.28013" y="5.93353" width="0.11988" height="0.11984" transform="translate(-1.27586 2.38623) rotate(-15.13972)"/><rect class="cls-4" x="8.5107" y="5.52715" width="0.11995" height="0.11985" transform="translate(-0.02319 0.03573) rotate(-0.23853)"/><polygon class="cls-4" points="8.972 5.211 8.941 5.328 8.825 5.296 8.856 5.18 8.972 5.211"/><polygon class="cls-4" points="9.384 4.995 9.324 5.099 9.22 5.039 9.279 4.935 9.384 4.995"/><rect class="cls-4" x="9.69184" y="4.83276" width="0.12017" height="0.12017" transform="translate(-0.59337 8.35909) rotate(-45.16802)"/></g></g></svg>