<svg xmlns="http://www.w3.org/2000/svg" width="58.5" height="58.5" viewBox="0 0 58.5 58.5">
  <g id="icon_security-01" transform="translate(-281.772 -963.155)">
    <g id="그룹_23" data-name="그룹 23">
      <path id="패스_9" data-name="패스 9" d="M310.743,989.527v-4.5L324,973.47a24,24,0,0,0-32.185,35.018Z" fill="#ffd740"/>
      <path id="패스_10" data-name="패스 10" d="M291.811,1008.988h-.023a.5.5,0,0,1-.361-.179,24.5,24.5,0,0,1,32.855-35.748.5.5,0,0,1,.043.787l-13.082,11.408v4.272a.5.5,0,0,1-.146.354l-18.932,18.96A.5.5,0,0,1,291.811,1008.988Zm18.461-39.333a23.5,23.5,0,0,0-18.422,38.087l18.393-18.422v-4.293a.5.5,0,0,1,.172-.377l12.764-11.13A23.347,23.347,0,0,0,310.272,969.655Zm.471,19.872h0Z" fill="#263238"/>
    </g>
    <g id="그룹_24" data-name="그룹 24">
      <path id="패스_11" data-name="패스 11" d="M319.4,987.184v4l-27.223,17.726a24,24,0,0,0,38.481-28.419Z" fill="#ffd740"/>
      <path id="패스_12" data-name="패스 12" d="M310.272,1017.655a24.5,24.5,0,0,1-18.472-8.416.5.5,0,0,1,.1-.747l27-17.579v-3.729a.5.5,0,0,1,.245-.43l11.257-6.693a.5.5,0,0,1,.68.166,24.5,24.5,0,0,1-20.81,37.428Zm-17.334-8.643a23.5,23.5,0,0,0,37.55-27.839l-10.588,6.3v3.716a.5.5,0,0,1-.227.419ZM319.4,991.184h0Z" fill="#263238"/>
    </g>
    <g id="그룹_25" data-name="그룹 25">
      <path id="패스_13" data-name="패스 13" d="M310.743,989.527v-4.5l10.114-8.82a19.981,19.981,0,0,0-26.2,29.428Z" fill="#ffd740"/>
      <path id="패스_14" data-name="패스 14" d="M294.659,1006.135h-.027a.5.5,0,0,1-.363-.186,20.273,20.273,0,0,1-4.5-12.793,20.473,20.473,0,0,1,31.351-17.371.5.5,0,0,1,.063.8l-9.943,8.671v4.272a.5.5,0,0,1-.146.354l-16.084,16.108A.5.5,0,0,1,294.659,1006.135Zm15.613-32.48a19.522,19.522,0,0,0-19.5,19.5,19.26,19.26,0,0,0,3.934,11.726l15.537-15.561v-4.293a.5.5,0,0,1,.172-.377l9.6-8.368A19.418,19.418,0,0,0,310.272,973.655Zm.471,15.872h0Z" fill="#263238"/>
    </g>
    <g id="그룹_26" data-name="그룹 26">
      <path id="패스_15" data-name="패스 15" d="M319.4,987.184v4l-23.818,15.509A19.976,19.976,0,0,0,327.2,982.544Z" fill="#ffd740"/>
      <path id="패스_16" data-name="패스 16" d="M310.272,1013.655a20.551,20.551,0,0,1-15.058-6.623.5.5,0,0,1,.1-.758L318.9,990.913v-3.729a.5.5,0,0,1,.245-.43l7.8-4.64a.5.5,0,0,1,.678.164,20.473,20.473,0,0,1-17.355,31.377Zm-13.914-6.87a19.476,19.476,0,0,0,30.677-23.559l-7.135,4.242v3.716a.5.5,0,0,1-.227.419Zm23.042-15.6h0Z" fill="#263238"/>
    </g>
    <g id="그룹_27" data-name="그룹 27">
      <path id="패스_17" data-name="패스 17" d="M282.272,993.655a.5.5,0,0,1-.5-.5,28.533,28.533,0,0,1,28.5-28.5.5.5,0,0,1,0,1,27.531,27.531,0,0,0-27.5,27.5A.5.5,0,0,1,282.272,993.655Z" fill="#263238"/>
    </g>
    <g id="그룹_28" data-name="그룹 28">
      <path id="패스_18" data-name="패스 18" d="M313.272,965.655h-1a.5.5,0,0,1,0-1h1a.5.5,0,0,1,0,1Z" fill="#263238"/>
    </g>
    <g id="그룹_29" data-name="그룹 29">
      <path id="패스_19" data-name="패스 19" d="M310.272,1021.655a.5.5,0,0,1,0-1,27.531,27.531,0,0,0,27.5-27.5.5.5,0,0,1,1,0A28.532,28.532,0,0,1,310.272,1021.655Z" fill="#263238"/>
    </g>
    <g id="그룹_30" data-name="그룹 30">
      <path id="패스_20" data-name="패스 20" d="M332.772,966.155h-4a.5.5,0,0,1,0-1h4a.5.5,0,0,1,0,1Z" fill="#263238"/>
    </g>
    <g id="그룹_31" data-name="그룹 31">
      <path id="패스_21" data-name="패스 21" d="M330.772,968.155a.5.5,0,0,1-.5-.5v-4a.5.5,0,0,1,1,0v4A.5.5,0,0,1,330.772,968.155Z" fill="#263238"/>
    </g>
    <g id="그룹_32" data-name="그룹 32">
      <path id="패스_22" data-name="패스 22" d="M339.772,972.655h-4a.5.5,0,0,1,0-1h4a.5.5,0,0,1,0,1Z" fill="#263238"/>
    </g>
    <g id="그룹_33" data-name="그룹 33">
      <path id="패스_23" data-name="패스 23" d="M337.772,974.655a.5.5,0,0,1-.5-.5v-4a.5.5,0,0,1,1,0v4A.5.5,0,0,1,337.772,974.655Z" fill="#263238"/>
    </g>
    <g id="그룹_34" data-name="그룹 34">
      <path id="패스_24" data-name="패스 24" d="M318.217,992.375l0,0a6.3,6.3,0,0,0,.381-.664l-5.292,3.446h1.221a2.25,2.25,0,0,1,0,4.5h-7.75v-.248l-6,3.906v.342h5v3h3v-3H310.9v3h3v-3h.625a6.242,6.242,0,0,0,3.694-11.28Z" fill="#fff"/>
      <path id="패스_25" data-name="패스 25" d="M313.9,1007.155h-3a.5.5,0,0,1-.5-.5v-2.5h-1.125v2.5a.5.5,0,0,1-.5.5h-3a.5.5,0,0,1-.5-.5v-2.5h-4.5a.5.5,0,0,1-.5-.5v-.342a.5.5,0,0,1,.228-.418l6-3.907a.5.5,0,0,1,.7.167h7.318a1.75,1.75,0,0,0,0-3.5H313.3a.5.5,0,0,1-.273-.919l5.291-3.446a.5.5,0,0,1,.719.645c-.055.107-.111.214-.169.319a6.742,6.742,0,0,1-4.349,11.9H314.4v2.5A.5.5,0,0,1,313.9,1007.155Zm-2.5-1h2v-2.5a.5.5,0,0,1,.5-.5h.625a5.742,5.742,0,0,0,3.416-10.364l-.042-.031-2.958,1.926a2.75,2.75,0,0,1-.416,5.469h-7.75a.488.488,0,0,1-.18-.034l-4.659,3.034h3.839a.5.5,0,0,1,.5.5v2.5h2v-2.5a.5.5,0,0,1,.5-.5H310.9a.5.5,0,0,1,.5.5Zm-10.625-2.842h0Z" fill="#263238"/>
    </g>
    <g id="그룹_35" data-name="그룹 35">
      <path id="패스_26" data-name="패스 26" d="M302.773,997.51l6.346-6.355h-2.346v-4.5h3.971v-1.627l3.154-2.751v-2.622h-3v3h-2.125v-3h-3v3h-5v4h2Z" fill="#fff"/>
      <path id="패스_27" data-name="패스 27" d="M302.772,998.01a.493.493,0,0,1-.191-.038.5.5,0,0,1-.309-.462V987.155h-1.5a.5.5,0,0,1-.5-.5v-4a.5.5,0,0,1,.5-.5h4.5v-2.5a.5.5,0,0,1,.5-.5h3a.5.5,0,0,1,.5.5v2.5H310.4v-2.5a.5.5,0,0,1,.5-.5h3a.5.5,0,0,1,.5.5v2.621a.5.5,0,0,1-.171.377l-2.983,2.6v1.4a.5.5,0,0,1-.5.5h-3.471v3.5h1.846a.5.5,0,0,1,.354.853l-6.346,6.355A.5.5,0,0,1,302.772,998.01Zm-1.5-11.855h1.5a.5.5,0,0,1,.5.5V996.3l4.64-4.646h-1.14a.5.5,0,0,1-.5-.5v-4.5a.5.5,0,0,1,.5-.5h3.471v-1.128a.5.5,0,0,1,.172-.377l2.982-2.6v-1.894h-2v2.5a.5.5,0,0,1-.5.5h-2.125a.5.5,0,0,1-.5-.5v-2.5h-2v2.5a.5.5,0,0,1-.5.5h-4.5Z" fill="#263238"/>
    </g>
  </g>
</svg>
