<svg xmlns="http://www.w3.org/2000/svg" width="31.372" height="18" viewBox="0 0 31.372 18">
  <path id="패스_23" data-name="패스 23" d="M1334,1066l-.048,0a.514.514,0,0,1-.457-.42l-2.669-14.674-3.014,11.626a.515.515,0,0,1-.491.385h-.007a.515.515,0,0,1-.495-.373l-1.764-6.174-1.952,2.732a.513.513,0,0,1-.418.215h-6.171a.514.514,0,1,1,0-1.029h5.906l2.418-3.385a.514.514,0,0,1,.913.158l1.538,5.385,3.126-12.059a.5.5,0,0,1,.517-.385.513.513,0,0,1,.487.422l2.759,15.168,1.913-4.975a.515.515,0,0,1,.48-.33h10.286a.514.514,0,1,1,0,1.029h-9.932l-2.445,6.356A.514.514,0,0,1,1334,1066Z" transform="translate(-1316 -1048)" fill="#1b1b38"/>
</svg>
