<svg xmlns="http://www.w3.org/2000/svg" width="30.767" height="25.884" viewBox="0 0 30.767 25.884">
  <g id="레이어_2" data-name="레이어 2" transform="translate(0 0)">
    <g id="레이어_1" data-name="레이어 1" transform="translate(0)">
      <path id="패스_94" data-name="패스 94" d="M11.739,6.713a1.208,1.208,0,1,0,.856.354,1.209,1.209,0,0,0-.856-.354Z" transform="translate(5.468 3.486)" fill="#d8d8d8"/>
      <path id="패스_95" data-name="패스 95" d="M16.514,6.713a1.209,1.209,0,1,0,1.209,1.211,1.209,1.209,0,0,0-1.209-1.211Z" transform="translate(7.947 3.486)" fill="#d8d8d8"/>
      <path id="패스_96" data-name="패스 96" d="M25.906,0H4.858A4.868,4.868,0,0,0,0,4.878v11.57a4.865,4.865,0,0,0,4.858,4.875h7.252l2.475,4.027a.7.7,0,0,0,.079.116.828.828,0,0,0,1.436.006.536.536,0,0,0,.085-.122l2.472-4.027h7.251a4.87,4.87,0,0,0,4.861-4.875V4.878A4.872,4.872,0,0,0,25.906,0ZM6.834,14.279a1.806,1.806,0,0,1-1.583-.813v.614h-1.9V6.235H5.229V9.223a2.5,2.5,0,0,1,1.6-.745c2.555,0,2.653,2.866,2.653,2.866a2.78,2.78,0,0,1-2.653,2.935Zm5.933-.2H10.95V9.436c0-1.6-.857-1.564-.857-1.564V6.053c2.752,0,2.674,2.952,2.674,2.952Zm4.439.2a2.815,2.815,0,0,1-3.113-2.869c0-2.905,3.113-2.905,3.113-2.905a2.858,2.858,0,0,1,3.184,2.905c0,2.863-3.184,2.869-3.184,2.869Zm10.212-.27a2.735,2.735,0,0,1-2.753,2.941h-.734V15.282h.455c1.333,0,1.2-1.377,1.2-1.377v-.439a2.167,2.167,0,0,1-1.655.718c-2.619,0-2.59-2.8-2.59-2.8A2.594,2.594,0,0,1,24,8.5a2.06,2.06,0,0,1,1.582.718V8.688h1.831Z" transform="translate(0)" fill="#d8d8d8"/>
      <path id="패스_97" data-name="패스 97" d="M4.637,6.713a1.208,1.208,0,1,0,.856.354A1.209,1.209,0,0,0,4.637,6.713Z" transform="translate(1.781 3.486)" fill="#d8d8d8"/>
    </g>
  </g>
</svg>
