<svg id="레이어_2" data-name="레이어 2" xmlns="http://www.w3.org/2000/svg" width="20.251" height="17.037" viewBox="0 0 20.251 17.037">
  <g id="레이어_1" data-name="레이어 1">
    <path id="패스_117" data-name="패스 117" d="M11.326,6.713a.8.8,0,1,0,.564.233.8.8,0,0,0-.564-.233Z" fill="#fff"/>
    <path id="패스_118" data-name="패스 118" d="M16.1,6.713a.8.8,0,1,0,.8.8.8.8,0,0,0-.8-.8Z" fill="#fff"/>
    <path id="패스_119" data-name="패스 119" d="M17.051,0H3.2A3.2,3.2,0,0,0,0,3.211v7.615a3.2,3.2,0,0,0,3.2,3.209H7.97L9.6,16.686a.462.462,0,0,0,.052.076.545.545,0,0,0,.945,0,.353.353,0,0,0,.056-.08l1.627-2.65h4.772a3.205,3.205,0,0,0,3.2-3.209V3.211A3.207,3.207,0,0,0,17.051,0ZM4.5,9.4a1.189,1.189,0,0,1-1.042-.535v.4H2.2V4.1H3.442V6.07A1.649,1.649,0,0,1,4.5,5.58c1.682,0,1.746,1.887,1.746,1.887A1.83,1.83,0,0,1,4.5,9.4ZM8.4,9.268h-1.2V6.211c0-1.055-.564-1.029-.564-1.029v-1.2c1.812,0,1.76,1.943,1.76,1.943Zm2.922.131A1.853,1.853,0,0,1,9.276,7.51C9.276,5.6,11.325,5.6,11.325,5.6a1.881,1.881,0,0,1,2.1,1.912c0,1.885-2.1,1.889-2.1,1.889Zm6.722-.178a1.8,1.8,0,0,1-1.812,1.936h-.483v-1.1h.3c.877,0,.79-.906.79-.906V8.863a1.426,1.426,0,0,1-1.089.473c-1.724,0-1.705-1.84-1.705-1.84A1.707,1.707,0,0,1,15.8,5.6a1.356,1.356,0,0,1,1.041.473V5.719h1.206Z" fill="#fff"/>
    <path id="패스_120" data-name="패스 120" d="M4.224,6.713a.795.795,0,1,0,.564.233A.8.8,0,0,0,4.224,6.713Z" fill="#fff"/>
  </g>
</svg>
