<svg id="레이어_2" data-name="레이어 2" xmlns="http://www.w3.org/2000/svg" width="20.026" height="18.492" viewBox="0 0 20.026 18.492">
  <g id="레이어_1" data-name="레이어 1">
    <path id="패스_124" data-name="패스 124" d="M7.31,6.851,6.631,8.968H7.98L7.325,6.851Z" fill="#fff"/>
    <path id="패스_125" data-name="패스 125" d="M10.013,0C4.483,0,0,3.54,0,7.909c0,2.809,1.858,5.27,4.647,6.678L3.7,18.109a.293.293,0,0,0,.072.3.277.277,0,0,0,.379.017l4.058-2.74a12.66,12.66,0,0,0,1.8.132c5.529,0,10.014-3.54,10.014-7.909S15.542,0,10.013,0ZM4.664,10.41a.605.605,0,0,1-.158.435.554.554,0,0,1-.422.163.586.586,0,0,1-.369-.118.542.542,0,0,1-.194-.326.626.626,0,0,1-.01-.154l0-3.755H2.424a.721.721,0,0,1-.387-.1.428.428,0,0,1-.2-.292c-.006-.033-.012-.072-.016-.112a.44.44,0,0,1,.171-.37.675.675,0,0,1,.429-.134H5.753a.709.709,0,0,1,.386.1.431.431,0,0,1,.2.292.546.546,0,0,1,.007.109.454.454,0,0,1-.167.376.669.669,0,0,1-.426.132H4.666Zm4.762.446a.524.524,0,0,1-.383.152.491.491,0,0,1-.517-.328l-.3-.878H6.372l-.3.878a.481.481,0,0,1-.516.328.536.536,0,0,1-.34-.1.48.48,0,0,1-.177-.3.6.6,0,0,1-.01-.123.654.654,0,0,1,.031-.212,2.589,2.589,0,0,1,.078-.248l1.49-4.108a.512.512,0,0,1,.21-.281.664.664,0,0,1,.353-.085h.277a.722.722,0,0,1,.376.091.6.6,0,0,1,.239.348l1.392,4.034a2.4,2.4,0,0,1,.094.321,1.285,1.285,0,0,1,.02.139.506.506,0,0,1-.163.373Zm3.851-.073a.682.682,0,0,1-.429.132h-2.4a.754.754,0,0,1-.433-.111.526.526,0,0,1-.219-.356,1.643,1.643,0,0,1-.025-.235l0-4.065a.6.6,0,0,1,.158-.434.553.553,0,0,1,.422-.164.573.573,0,0,1,.37.12A.55.55,0,0,1,10.911,6a.567.567,0,0,1,.01.152V9.9h1.926a.7.7,0,0,1,.39.1.441.441,0,0,1,.2.293.683.683,0,0,1,.017.11.443.443,0,0,1-.17.373Zm4.331.091a.668.668,0,0,1-.42.134.577.577,0,0,1-.287-.062.766.766,0,0,1-.227-.251L15.346,8.556l-.633.659.006,1.194a.615.615,0,0,1-.158.435.558.558,0,0,1-.423.163.588.588,0,0,1-.37-.118.543.543,0,0,1-.194-.326.738.738,0,0,1-.01-.154l0-4.262a.611.611,0,0,1,.157-.434.554.554,0,0,1,.422-.164.571.571,0,0,1,.369.12A.536.536,0,0,1,14.705,6a.587.587,0,0,1,.011.152l0,1.746,1.811-2.081a1.272,1.272,0,0,1,.219-.2.432.432,0,0,1,.24-.064.59.59,0,0,1,.345.107.432.432,0,0,1,.192.281l.008.045a.18.18,0,0,0,0,.049.462.462,0,0,1-.053.219,1.1,1.1,0,0,1-.137.193L16.163,7.736l1.4,2.219.042.067a1.192,1.192,0,0,1,.166.335s0,.018.008.036a.2.2,0,0,0,0,.038.526.526,0,0,1-.173.443Z" fill="#fff"/>
  </g>
</svg>
