<svg id="레이어_2" data-name="레이어 2" xmlns="http://www.w3.org/2000/svg" width="31.14" height="22.081" viewBox="0 0 31.14 22.081">
  <g id="레이어_1" data-name="레이어 1">
    <path id="패스_103" data-name="패스 103" d="M30.668,4.022A4.112,4.112,0,0,0,26.909.4C25.733.223,20.068,0,15.569,0S5.406.223,4.23.4A4.109,4.109,0,0,0,.475,4.022,59.322,59.322,0,0,0,0,10.857v.368a59.409,59.409,0,0,0,.475,6.839A4.1,4.1,0,0,0,4.23,21.683c1.176.176,6.848.395,11.35.395l-.02,0c4.5,0,10.171-.223,11.35-.4a4.113,4.113,0,0,0,3.759-3.619,60.565,60.565,0,0,0,.471-6.839v-.368a60.477,60.477,0,0,0-.471-6.835ZM13.643,15.79v-9.5l6.64,4.64Z" fill="#d8d8d8"/>
  </g>
</svg>
