<svg id="레이어_2" data-name="레이어 2" xmlns="http://www.w3.org/2000/svg" width="26.804" height="26.801" viewBox="0 0 26.804 26.801">
  <g id="레이어_1" data-name="레이어 1" transform="translate(0)">
    <path id="패스_98" data-name="패스 98" d="M19.068,0H7.736A7.736,7.736,0,0,0,0,7.736v11.33A7.733,7.733,0,0,0,7.737,26.8H19.068A7.733,7.733,0,0,0,26.8,19.066V7.736A7.736,7.736,0,0,0,19.068,0m5.267,19.266A5.138,5.138,0,0,1,19.2,24.4H7.6a5.14,5.14,0,0,1-5.137-5.137V7.671A5.138,5.138,0,0,1,7.6,2.534H19.2a5.137,5.137,0,0,1,5.137,5.136Z" transform="translate(0 0)" fill="#d8d8d8"/>
    <path id="패스_99" data-name="패스 99" d="M11.2,4.287a6.954,6.954,0,1,0,6.957,6.956A6.954,6.954,0,0,0,11.2,4.287m0,11.463a4.509,4.509,0,1,1,4.509-4.508A4.509,4.509,0,0,1,11.2,15.75" transform="translate(2.204 2.226)" fill="#d8d8d8"/>
    <path id="패스_100" data-name="패스 100" d="M14.105,3.046a1.62,1.62,0,1,0,1.62,1.62,1.62,1.62,0,0,0-1.62-1.62" transform="translate(6.483 1.582)" fill="#d8d8d8"/>
  </g>
</svg>
