<svg xmlns="http://www.w3.org/2000/svg" width="73.166" height="73.166" viewBox="0 0 73.166 73.166">
  <g id="icon_wait" transform="translate(16837.5 16864.5)">
    <circle id="타원_64" data-name="타원 64" cx="36.085" cy="36.085" r="36.085" transform="translate(-16837 -16864)" fill="#fff"/>
    <g id="clock" transform="translate(-16837 -16864)">
      <g id="그룹_4134" data-name="그룹 4134">
        <g id="그룹_4133" data-name="그룹 4133">
          <path id="패스_2553" data-name="패스 2553" d="M36.083,0A36.083,36.083,0,1,0,72.166,36.083,36.083,36.083,0,0,0,36.083,0Zm1.548,68.993V62.646a1.548,1.548,0,0,0-3.1,0v6.347A32.972,32.972,0,0,1,3.173,37.631H9.52a1.548,1.548,0,0,0,0-3.1H3.173A32.972,32.972,0,0,1,34.535,3.173V9.52a1.548,1.548,0,0,0,3.1,0V3.173A32.972,32.972,0,0,1,68.993,34.535H62.646a1.548,1.548,0,0,0,0,3.1h6.362A32.972,32.972,0,0,1,37.631,68.993Z" fill="#7300df" stroke="#7300df" stroke-width="1"/>
        </g>
      </g>
      <g id="그룹_4136" data-name="그룹 4136" transform="translate(34.535 18.281)">
        <g id="그룹_4135" data-name="그룹 4135">
          <path id="패스_2554" data-name="패스 2554" d="M196.359,126.678l-14.783-15.031V96.028a1.548,1.548,0,1,0-3.1,0v16.254a1.548,1.548,0,0,0,.449,1.084l15.216,15.48a1.549,1.549,0,1,0,2.214-2.167Z" transform="translate(-178.48 -94.48)" fill="#7300df" stroke="#7300df" stroke-width="1"/>
        </g>
      </g>
    </g>
  </g>
</svg>
