<svg id="레이어_2" data-name="레이어 2" xmlns="http://www.w3.org/2000/svg" width="12.447" height="12.448" viewBox="0 0 12.447 12.448">
  <g id="레이어_1" data-name="레이어 1">
    <circle id="타원_61" data-name="타원 61" cx="6.224" cy="6.224" r="6.224" fill="#646cff"/>
    <path id="패스_128" data-name="패스 128" d="M12.6,12.4a.833.833,0,0,1,.062-.317.761.761,0,0,1,.172-.258.842.842,0,0,1,.261-.172.827.827,0,0,1,.64,0,.793.793,0,0,1,.43.43.823.823,0,0,1,0,.637.814.814,0,0,1-.172.255.78.78,0,0,1-.258.169.859.859,0,0,1-.64,0,.8.8,0,0,1-.261-.169.765.765,0,0,1-.172-.255.826.826,0,0,1-.062-.32ZM14.06,5.355V8.431a9.287,9.287,0,0,1-.049.96q-.048.47-.129,1h-.9q-.081-.527-.129-1a9.288,9.288,0,0,1-.049-.96V5.355Z" transform="translate(-7.193 -3.057)" fill="#fff"/>
  </g>
</svg>
