<svg xmlns="http://www.w3.org/2000/svg" width="58.99" height="59.145" viewBox="0 0 58.99 59.145">
  <g id="icon_notsearch" transform="translate(-1609.999 -259)" opacity="0.4">
    <g id="search" transform="translate(1610 259)">
      <path id="패스_2803" data-name="패스 2803" d="M22.5,45A22.5,22.5,0,1,1,45,22.5,22.525,22.525,0,0,1,22.5,45Zm0-43A20.5,20.5,0,1,0,43,22.5,20.523,20.523,0,0,0,22.5,2Z" fill="#fff"/>
      <path id="패스_2804" data-name="패스 2804" d="M54.343,59.144a4.635,4.635,0,0,1-3.285-1.358l-9.9-9.9a4.646,4.646,0,0,1,6.571-6.571l9.9,9.9a4.643,4.643,0,0,1-3.286,7.928Zm-9.9-17.189a2.645,2.645,0,0,0-1.872,4.517l9.9,9.9a2.646,2.646,0,1,0,3.743-3.742l-9.9-9.9a2.639,2.639,0,0,0-1.871-.774Z" fill="#fff"/>
      <path id="패스_2805" data-name="패스 2805" d="M38.838,36.858h2v5.96h-2Z" transform="translate(-16.501 39.838) rotate(-45)" fill="#fff"/>
      <path id="패스_2806" data-name="패스 2806" d="M22.5,40A17.5,17.5,0,1,1,40,22.5,17.521,17.521,0,0,1,22.5,40Zm0-33A15.5,15.5,0,1,0,38,22.5,15.517,15.517,0,0,0,22.5,7Z" fill="#fff"/>
    </g>
    <path id="합치기_1" data-name="합치기 1" d="M19712,24461l-6,6,6-6-6-6,6,6,6-6-6,6,6,6Z" transform="translate(-18079.5 -24179.5)" fill="none" stroke="#fff" stroke-linecap="round" stroke-width="3"/>
  </g>
</svg>
