<svg id="레이어_1" data-name="레이어 1" xmlns="http://www.w3.org/2000/svg" viewBox="0 0 25.34 34.19"><defs><style>.cls-1{fill:#b480d9;}.cls-2{fill:#474747;}</style></defs><title>admin_icon_1</title><rect class="cls-1" x="6.13" y="7.83" width="15.39" height="2.95"/><path class="cls-2" d="M23,34.19H2.35A2.36,2.36,0,0,1,0,31.84V2.35A2.36,2.36,0,0,1,2.35,0H23a2.35,2.35,0,0,1,2.35,2.35V31.84A2.35,2.35,0,0,1,23,34.19ZM2.35,1.33a1,1,0,0,0-1,1V31.84a1,1,0,0,0,1,1H23a1,1,0,0,0,1-1V2.35a1,1,0,0,0-1-1Z"/><path class="cls-2" d="M21.52,11.44H3.83a.67.67,0,0,1-.67-.66V5.72a.67.67,0,0,1,.67-.67H21.52a.67.67,0,0,1,.67.67v5.06A.67.67,0,0,1,21.52,11.44Zm-17-1.33H20.85V6.39H4.49Z"/><path class="cls-2" d="M21.52,30.4H3.83a.67.67,0,0,1-.67-.67V13.94a.67.67,0,0,1,.67-.67H21.52a.67.67,0,0,1,.67.67V29.73A.67.67,0,0,1,21.52,30.4Zm-17-1.33H20.85V14.6H4.49Z"/><path class="cls-2" d="M21.52,18.48H3.83a.67.67,0,0,1-.67-.67.66.66,0,0,1,.67-.66H21.52a.66.66,0,0,1,.67.66A.67.67,0,0,1,21.52,18.48Z"/><path class="cls-2" d="M21.52,22.5H3.83a.67.67,0,1,1,0-1.33H21.52a.67.67,0,1,1,0,1.33Z"/><path class="cls-2" d="M21.52,26.33H3.83a.67.67,0,1,1,0-1.34H21.52a.67.67,0,1,1,0,1.34Z"/><path class="cls-2" d="M8.25,26.33a.67.67,0,0,1-.67-.67V13.94a.67.67,0,0,1,1.34,0V25.66A.67.67,0,0,1,8.25,26.33Z"/><path class="cls-2" d="M17.09,30.4a.67.67,0,0,1-.66-.67V13.94a.67.67,0,1,1,1.33,0V29.73A.67.67,0,0,1,17.09,30.4Z"/><path class="cls-2" d="M12.67,30.4a.66.66,0,0,1-.66-.67V13.94a.66.66,0,0,1,.66-.67.67.67,0,0,1,.67.67V29.73A.67.67,0,0,1,12.67,30.4Z"/></svg>