<svg id="레이어_1" data-name="레이어 1" xmlns="http://www.w3.org/2000/svg" viewBox="0 0 34.09 32.34"><defs><style>.cls-1{opacity:0.3;}.cls-2{fill:#fff;}</style></defs><title>admin_icon_1</title><g class="cls-1"><path class="cls-2" d="M18.42,3.91V16.32c.23-.2.47-.4.72-.58,1.05-.78,2.21-1.38,3.26-2.14a2.38,2.38,0,0,1,3.23.84,2.42,2.42,0,0,1-.85,3.23l-.07,0s-.05.06-.08.08A30.52,30.52,0,0,1,21.55,20a13.26,13.26,0,0,0-1.7,1.48l-.16.18,0,0c-.15.13-.3.26-.46.38a1.62,1.62,0,0,1-.79.33v5.3H29.86V3.91Z"/></g><path class="cls-2" d="M30.18,28.34h-15a.67.67,0,0,1-.66-.66V26.27a.66.66,0,1,1,1.32,0V27H29.52V1.32H15.83V8.11a.66.66,0,0,1-1.32,0V.66A.67.67,0,0,1,15.17,0h15a.66.66,0,0,1,.66.66v27A.66.66,0,0,1,30.18,28.34Z"/><path class="cls-2" d="M30.18,28.34h-15a.67.67,0,0,1-.66-.66V25.87a.66.66,0,1,1,1.32,0V27H29.52V1.32H15.83V7.23a.66.66,0,1,1-1.32,0V.66A.67.67,0,0,1,15.17,0h15a.66.66,0,0,1,.66.66v27A.66.66,0,0,1,30.18,28.34Z"/><path class="cls-2" d="M8.28,28.05A.66.66,0,0,1,8,26.77a29.12,29.12,0,0,1,3.8-1,27.54,27.54,0,0,0,3.08-.76.88.88,0,0,0,.23-.09c.37-.23,1.89-1.68,3.1-2.84a29.6,29.6,0,0,1,3.25-2.91c3.34-1.79,3.86-3.2,3.88-3.88A1.55,1.55,0,0,0,24.61,14c-1.08-.64-2.21.13-3.93,1.46a12.21,12.21,0,0,1-2.56,1.67,2.71,2.71,0,0,1-2.39-.07,2.44,2.44,0,0,1-1.24-1.75,2.27,2.27,0,0,1,0-.69V8a27.35,27.35,0,0,0-3.59.86,5.69,5.69,0,0,0-2.83,2.43,15.58,15.58,0,0,0-1.34,3.27,13.37,13.37,0,0,1-1.95,4.31.66.66,0,0,1-.94,0,.67.67,0,0,1,0-.94,13.15,13.15,0,0,0,1.68-3.83A15.24,15.24,0,0,1,7,10.57a7,7,0,0,1,3.55-3,27.41,27.41,0,0,1,4.55-1,.66.66,0,0,1,.75.66v7.56a1.23,1.23,0,0,0,0,.33,1.13,1.13,0,0,0,.58.8,1.36,1.36,0,0,0,1.23,0,11.91,11.91,0,0,0,2.27-1.51c1.63-1.26,3.48-2.69,5.41-1.55a2.84,2.84,0,0,1,1.41,2.48c0,1.72-1.57,3.41-4.58,5-.3.18-1.83,1.64-2.95,2.7a36.85,36.85,0,0,1-3.33,3,1.94,1.94,0,0,1-.48.22,28.73,28.73,0,0,1-3.24.8,28.38,28.38,0,0,0-3.59.9A.69.69,0,0,1,8.28,28.05Z"/><path class="cls-2" d="M32.43,31.59h-14a.67.67,0,1,1,0-1.33h14a.33.33,0,0,0,.33-.33v-26a.67.67,0,1,1,1.33,0v26A1.67,1.67,0,0,1,32.43,31.59Z"/><path class="cls-2" d="M4.19,32.34A.65.65,0,0,1,3.6,32a.66.66,0,0,1,.28-.89l4.31-2.2L2.87,18.49,1,19.46a.66.66,0,0,1-.89-.29.68.68,0,0,1,.29-.89L2.86,17a.62.62,0,0,1,.5,0,.66.66,0,0,1,.39.32L9.67,28.87a.65.65,0,0,1,0,.51.66.66,0,0,1-.32.39l-4.9,2.5A.66.66,0,0,1,4.19,32.34Z"/></svg>