<svg id="레이어_1" data-name="레이어 1" xmlns="http://www.w3.org/2000/svg" viewBox="0 0 28.64 29.62"><defs><style>.cls-1{fill:#b480d9;}.cls-2{fill:#474747;}</style></defs><title>admin_icon_1</title><path class="cls-1" d="M10.93,19.94a9,9,0,1,1,9-9A9,9,0,0,1,10.93,19.94Zm0-16.07A7.06,7.06,0,1,0,18,10.93,7.06,7.06,0,0,0,10.93,3.87Z"/><path class="cls-2" d="M26.06,29.62a2.56,2.56,0,0,1-1.82-.75l-9.1-9.1a.6.6,0,0,1-.17-.51.62.62,0,0,1,.29-.45,7.7,7.7,0,0,0,2.57-2.57.63.63,0,0,1,.45-.29.63.63,0,0,1,.5.18l9.11,9.1a2.57,2.57,0,0,1-1.83,4.39ZM16.53,19.43,25.11,28a1.35,1.35,0,0,0,2.3-1A1.34,1.34,0,0,0,27,26.1l-8.58-8.58A8.65,8.65,0,0,1,16.53,19.43Z"/><path class="cls-2" d="M10.52,21h0A10.52,10.52,0,1,1,21,10.52,10.42,10.42,0,0,1,19.5,16,10.65,10.65,0,0,1,16,19.5,10.42,10.42,0,0,1,10.52,21Zm0-19.82a9.3,9.3,0,1,0,4.84,17.23,9.13,9.13,0,0,0,3.09-3.09A9.3,9.3,0,0,0,10.52,1.22Z"/><path class="cls-2" d="M10.45,17.42A7.06,7.06,0,0,1,8.8,3.5.61.61,0,0,1,9.53,4a.6.6,0,0,1-.45.73A5.74,5.74,0,0,0,6.33,6.24a5.83,5.83,0,1,0,8.25,0,.62.62,0,0,1,.87-.87,7.06,7.06,0,0,1-5,12.05Z"/></svg>