<?xml version="1.0" encoding="utf-8"?>
<!-- Generator: Adobe Illustrator 22.1.0, SVG Export Plug-In . SVG Version: 6.00 Build 0)  -->
<svg version="1.1" id="레이어_1" xmlns="http://www.w3.org/2000/svg" xmlns:xlink="http://www.w3.org/1999/xlink" x="0px"
	 y="0px" viewBox="0 0 29.9 30.9" style="enable-background:new 0 0 29.9 30.9;" xml:space="preserve">
<style type="text/css">
	.st0{opacity:0.3;}
	.st1{fill:#FFFFFF;}
</style>
<g>
	<g class="st0">
		<path class="st1" d="M0.6,20.1h22.5c0.7,0,1.3-0.6,1.3-1.3V0.6H28l0.8,0.5l0.4,1.3v20.9l-0.6,1.2l-8.9,0.3c0,0-1-0.4-1.3,0.6
			c-0.3,1-0.6,2.1-0.1,2.9s0.5,0.8,0.5,0.8l0.4,1c0,0-3.6-0.5-5.1-2.2c-1.5-1.6-2.2-3.2-2.2-3.2L1.4,24.6l-0.8-1.1V20.1z"/>
	</g>
	<g>
		<g>
			<g>
				<path class="st1" d="M20.3,30.9c-1.2,0-3.5-0.2-5.7-1.8c-1.6-1.1-2.5-2.5-3-3.6H2.1c-1.2,0-2.1-1-2.1-2.1V2.1C0,1,1,0,2.1,0
					h25.7c1.2,0,2.1,1,2.1,2.1v21.2c0,1.2-1,2.1-2.1,2.1h-8.6c-0.2,0.4-0.5,1-0.4,1.8c0.2,1.6,1.8,2.4,1.9,2.4
					c0.3,0.1,0.4,0.4,0.4,0.7c-0.1,0.3-0.3,0.5-0.6,0.5C20.3,30.9,20.3,30.9,20.3,30.9z M2.1,1.2c-0.5,0-0.9,0.4-0.9,0.9v21.2
					c0,0.5,0.4,0.9,0.9,0.9H12c0.2,0,0.5,0.1,0.6,0.4c0.4,1,1.2,2.4,2.8,3.5c1,0.7,2.1,1.2,3,1.4c-0.4-0.5-0.7-1.1-0.8-1.9
					c-0.2-1.5,0.5-2.6,0.8-3c0.1-0.2,0.3-0.3,0.5-0.3h9c0.5,0,0.9-0.4,0.9-0.9V2.1c0-0.5-0.4-0.9-0.9-0.9H2.1z"/>
			</g>
			<g>
				<path class="st1" d="M21,7H5.7C5.4,7,5.1,6.8,5.1,6.4s0.3-0.6,0.6-0.6H21c0.3,0,0.6,0.3,0.6,0.6S21.4,7,21,7z"/>
			</g>
			<g>
				<path class="st1" d="M21,11.3H5.7c-0.3,0-0.6-0.3-0.6-0.6c0-0.3,0.3-0.6,0.6-0.6H21c0.3,0,0.6,0.3,0.6,0.6
					C21.6,11,21.4,11.3,21,11.3z"/>
			</g>
			<g>
				<path class="st1" d="M18.5,15.5H5.7c-0.3,0-0.6-0.3-0.6-0.6c0-0.3,0.3-0.6,0.6-0.6h12.8c0.3,0,0.6,0.3,0.6,0.6
					C19.1,15.2,18.8,15.5,18.5,15.5z"/>
			</g>
		</g>
	</g>
</g>
</svg>
