<?xml version="1.0" encoding="utf-8"?>
<!-- Generator: Adobe Illustrator 22.1.0, SVG Export Plug-In . SVG Version: 6.00 Build 0)  -->
<svg version="1.1" id="레이어_1" xmlns="http://www.w3.org/2000/svg" xmlns:xlink="http://www.w3.org/1999/xlink" x="0px"
	 y="0px" viewBox="0 0 32.1 43.9" style="enable-background:new 0 0 32.1 43.9;" xml:space="preserve">
<style type="text/css">
	.st0{opacity:0.3;}
	.st1{fill:#FFFFFF;}
</style>
<g>
	<g class="st0">
		<path class="st1" d="M26.8,22.1C26.9,22.1,26.9,22.1,26.8,22.1c-0.1-0.2-0.2-0.3-0.3-0.4c-0.3-0.4-0.6-0.8-0.8-1.2
			c-0.4-0.8-0.6-1.6,0-2.3c0.3-0.4,0.7-0.7,1.2-0.9c0,0-0.1-0.1-0.1-0.1c-1-0.7-0.8-2.2-0.3-3c0.3-0.4,0.7-0.6,1.1-0.7V4.7H15.6
			c-1.1,0-2.1,0.9-2.1,2.1v21h14v-3.1C26.2,24.6,25.4,22.7,26.8,22.1z"/>
	</g>
	<g>
		<g>
			<path class="st1" d="M24.7,33.8H12.6c-2,0-3.7-1.7-3.7-3.7V3.7c0-2,1.7-3.7,3.7-3.7h12.2c2,0,3.7,1.7,3.7,3.7v9
				c0,0.5-0.4,0.9-0.9,0.9c-0.5,0-0.9-0.4-0.9-0.9v-9c0-1.1-0.9-2-2-2H12.6c-1.1,0-2,0.9-2,2v26.4c0,1.1,0.9,2,2,2h12.2
				c1.1,0,2-0.9,2-2v-4.8c0-0.5,0.4-0.9,0.9-0.9c0.5,0,0.9,0.4,0.9,0.9v4.8C28.4,32.1,26.8,33.8,24.7,33.8z"/>
		</g>
		<g>
			<path class="st1" d="M14.6,40.8c-0.3,0-0.5-0.1-0.7-0.4c-0.3-0.4-0.2-0.9,0.2-1.2c0.6-0.4,1.4-0.8,2.3-1.3
				c2.2-1.1,5.2-2.6,6.7-5.1c0.2-0.4,0.8-0.5,1.2-0.3c0.4,0.2,0.5,0.8,0.3,1.2c-1.7,2.9-5,4.5-7.4,5.7c-0.9,0.4-1.6,0.8-2,1.1
				C14.9,40.8,14.8,40.8,14.6,40.8z"/>
		</g>
		<g>
			<path class="st1" d="M5,30.9c-0.1,0-0.2,0-0.3,0c-0.5-0.2-0.7-0.6-0.5-1.1c0.3-0.9-0.6-3.5-1.1-4.9c-0.2-0.5-0.4-1-0.4-1.3
				c-0.5-1.8,0.3-3.7,1.2-6c0.9-2.2,1.9-4.6,1.9-7.4c0-1.7,1.2-2.6,2.3-2.7c1.1-0.1,2.4,0.7,2.6,2.6c0.1,0.5-0.3,0.9-0.7,1
				c-0.5,0.1-0.9-0.3-1-0.7C8.8,9.7,8.5,9.3,8.1,9.3c-0.3,0-0.7,0.3-0.7,1c0,3.1-1.1,5.7-2,8c-0.8,2-1.5,3.7-1.1,4.9
				c0.1,0.3,0.2,0.7,0.4,1.2c0.9,2.4,1.6,4.6,1.2,6C5.7,30.7,5.3,30.9,5,30.9z"/>
		</g>
		<g>
			<path class="st1" d="M27.4,17.6c-0.9,0-1.7-0.4-2.2-1.2c-0.8-1.2-0.4-2.8,0.8-3.6l1.9-1.2c0.6-0.4,1.3-0.5,1.9-0.3
				c0.7,0.2,1.3,0.6,1.6,1.1c0.4,0.6,0.5,1.3,0.3,1.9c-0.2,0.7-0.6,1.3-1.1,1.6l-1.9,1.2C28.4,17.5,27.9,17.6,27.4,17.6z M29.3,13
				c-0.2,0-0.3,0-0.5,0.1l-1.9,1.2c-0.4,0.3-0.5,0.8-0.3,1.2c0.3,0.4,0.8,0.5,1.2,0.3l1.9-1.2v0c0.2-0.1,0.3-0.3,0.4-0.5
				c0-0.2,0-0.5-0.1-0.6c-0.1-0.2-0.3-0.3-0.5-0.4C29.4,13,29.4,13,29.3,13z"/>
		</g>
		<g>
			<path class="st1" d="M26.6,21.9c-0.4,0-0.8-0.1-1.2-0.3c-0.6-0.3-1.1-0.9-1.3-1.5c-0.4-1.4,0.3-2.8,1.7-3.2l2.2-0.7
				c1.4-0.4,2.8,0.3,3.2,1.7c0.4,1.4-0.3,2.8-1.7,3.2l0,0l-2.2,0.7C27.1,21.8,26.8,21.9,26.6,21.9z M29.2,20.3L29.2,20.3L29.2,20.3z
				 M28.7,17.8c-0.1,0-0.2,0-0.3,0l-2.2,0.7c-0.4,0.1-0.7,0.6-0.6,1.1c0.1,0.4,0.6,0.7,1.1,0.6l2.2-0.7c0.4-0.1,0.7-0.6,0.6-1.1
				C29.4,18,29.1,17.8,28.7,17.8z"/>
		</g>
		<g>
			<path class="st1" d="M27.5,25.6c-1.4,0-2.5-1.1-2.5-2.5c0-0.7,0.2-1.3,0.7-1.8c0.5-0.5,1.1-0.8,1.8-0.8l0.8,0
				c0.7,0,1.3,0.2,1.8,0.7c0.5,0.5,0.8,1.1,0.8,1.8c0,1.4-1.1,2.5-2.5,2.6l0,0L27.5,25.6C27.5,25.6,27.5,25.6,27.5,25.6z M28.3,24.7
				L28.3,24.7L28.3,24.7z M28.3,22.3C28.3,22.3,28.3,22.3,28.3,22.3l-0.8,0c-0.2,0-0.4,0.1-0.6,0.2c-0.1,0.2-0.2,0.4-0.2,0.6
				c0,0.2,0.1,0.4,0.2,0.6c0.2,0.1,0.4,0.2,0.6,0.2l0.8,0c0.4,0,0.8-0.4,0.8-0.8c0-0.2-0.1-0.4-0.2-0.6
				C28.7,22.3,28.5,22.3,28.3,22.3z"/>
		</g>
		<g>
			<path class="st1" d="M27.6,11c-0.1,0-0.3,0-0.4-0.1c-0.3-0.2-0.4-0.4-0.4-0.8V6c0-0.3,0.2-0.6,0.4-0.7l1-0.6
				c0.6-0.4,1.3-0.5,2-0.3c0.7,0.2,1.3,0.6,1.6,1.2l0,0c0.4,0.6,0.5,1.3,0.3,2c-0.2,0.7-0.6,1.3-1.2,1.6L28,10.9
				C27.9,11,27.7,11,27.6,11z M28.4,6.5v2.1l1.5-1c0.2-0.1,0.3-0.3,0.4-0.6c0.1-0.2,0-0.5-0.1-0.7l0,0c-0.1-0.2-0.3-0.3-0.6-0.4
				S29.2,6,29,6.1L28.4,6.5z"/>
		</g>
		<g>
			<path class="st1" d="M13.3,43.9c-0.2,0-0.5-0.1-0.6-0.3c-0.3-0.3-0.3-0.9,0-1.2l1.3-1.2L4.7,31.1L1.4,34
				c-0.4,0.3-0.9,0.3-1.2-0.1c-0.3-0.4-0.3-0.9,0.1-1.2l3.9-3.5c0.3-0.3,0.9-0.3,1.2,0.1l10.5,11.3c0.2,0.2,0.2,0.4,0.2,0.6
				c0,0.2-0.1,0.4-0.3,0.6l-1.9,1.8C13.8,43.8,13.6,43.9,13.3,43.9z"/>
		</g>
		<g>
			<path class="st1" d="M23.7,28.7h-14c-0.5,0-0.9-0.4-0.9-0.9S9.3,27,9.8,27h14c0.5,0,0.9,0.4,0.9,0.9S24.2,28.7,23.7,28.7z"/>
		</g>
	</g>
</g>
</svg>
