<?xml version="1.0" encoding="utf-8"?>
<!-- Generator: Adobe Illustrator 22.1.0, SVG Export Plug-In . SVG Version: 6.00 Build 0)  -->
<svg version="1.1" id="레이어_1" xmlns="http://www.w3.org/2000/svg" xmlns:xlink="http://www.w3.org/1999/xlink" x="0px"
	 y="0px" viewBox="0 0 70 70" style="enable-background:new 0 0 70 70;" xml:space="preserve">
<style type="text/css">
	.st0{opacity:0.3;}
	.st1{fill:#FFFFFF;}
</style>
<g>
	<g class="st0">
		<path class="st1" d="M31.9,5.8c-14,0-25.4,11.4-25.4,25.4v20c0,3.1,0.6,6.1,1.6,8.9c4.2,4.8,10.3,7.9,17.2,7.9h19.9
			C57.8,67.9,68,57.7,68,45.2V25.2c0-7.7-3.9-14.6-9.8-18.7c-2-0.5-4.1-0.8-6.3-0.8H31.9z"/>
	</g>
	<g>
		<path class="st1" d="M45,70H25C11.2,70,0,58.8,0,45V25C0,11.2,11.2,0,25,0H45c13.8,0,25,11.2,25,25V45C70,58.8,58.8,70,45,70z
			 M25,2.3C12.5,2.3,2.3,12.5,2.3,25V45c0,12.5,10.2,22.7,22.7,22.7H45c12.5,0,22.7-10.2,22.7-22.7V25C67.7,12.5,57.5,2.3,45,2.3H25
			z"/>
		<path class="st1" d="M23.9,49.9c-4,0-8-1.8-10.8-4.8c-3-3.3-4.4-7.6-3.9-11.9c0.6-4.2,2.8-7.9,6.2-10.3c3.4-2.4,7.6-3.3,11.7-2.4
			c2.2,0.5,4.3,1.4,6.1,2.9l0.7,0.6l-4.6,8.9l-1.1-1c-0.8-0.7-2.1-1.2-3.6-1.3l-0.6,0c-2.1,0-3.9,1.4-4.4,3.4
			c-0.5,2.1,0.6,4.3,2.6,5.1c0.7,0.3,1.5,0.4,2.1,0.4c0.1,0,0.3,0,0.5,0c0.2,0,0.3-0.1,0.5-0.1l0.3-0.1c0.8-0.3,1.5-0.7,2.1-1.4
			c0.1-0.1,0.1-0.2,0.2-0.2c2.5-3.2,5.7-9.6,6-10.3l0.1-0.1c2.2-3.9,5.7-6.4,10.1-7c0.2,0,0.4-0.1,0.5-0.1c0.2,0,0.4,0,0.5,0
			c0.2,0,0.5,0,0.7,0l0.3,0c3.5,0,7,1.3,9.5,3.4c3.2,2.7,5.2,6.6,5.4,10.7h0l0,0.2c0,0,0,0,0,0.1l0,0.7l-0.1,0.9
			c0,0.2,0,0.5-0.1,0.7c0,0.2,0,0.4-0.1,0.5c0,0.2-0.1,0.5-0.1,0.7c-1.5,6.8-7.6,11.7-14.5,11.7c-3.2,0-6.3-1-8.8-2.9l0,0l-1.6-1.4
			l0,0l0,0l0,0c-0.2-0.2-0.4-0.4-0.6-0.6c-2.5,3.1-6,4.8-10.4,5.1C24.4,49.9,24.1,49.9,23.9,49.9z M23.9,22.5
			c-2.6,0-5.1,0.8-7.2,2.3c-2.9,2-4.7,5.1-5.2,8.7c-0.5,3.6,0.7,7.3,3.3,10c2.6,2.8,6.1,4.2,9.8,4.1c4.2-0.2,7.4-2,9.5-5.3l0.9-1.3
			l1,1.2c0,0,1.3,1.6,2.1,2.2l0.3,0.3c2.2,1.8,5,2.8,7.8,2.8c3.1,0,6-1.2,8.3-3.2c2.4-2.1,4.1-5.3,4.2-8.5c0-0.2,0-0.3,0-0.5
			c0-0.1,0-0.3,0-0.4l0-0.4c-0.1-3.6-1.8-7-4.6-9.3c-2.1-1.8-5.1-2.8-8-2.9l-0.2,0c-0.3,0-0.5,0-0.7,0c-0.2,0-0.3,0-0.4,0l-0.3,0
			c-3.8,0.6-6.7,2.6-8.6,5.9c-0.1,0.3-3.5,7.1-6.3,10.6c-0.1,0.1-0.2,0.2-0.3,0.3c-0.8,0.9-1.9,1.7-3,2.1c-0.1,0-0.2,0.1-0.3,0.1
			l-0.2,0.1c-0.3,0.1-0.5,0.1-0.8,0.2c-0.3,0-0.6,0.1-0.8,0.1c-1,0-2-0.2-2.9-0.6c-3.1-1.3-4.7-4.6-3.9-7.8c0.7-2.9,3.5-5.1,6.5-5.2
			c1.6,0,3.2,0.2,4.7,1l2.4-4.7c-1.3-0.9-2.8-1.6-4.4-1.9C25.7,22.6,24.8,22.5,23.9,22.5z M46.2,41.8l-0.6,0
			c-3.5-0.3-6.2-3.3-6.2-6.8c0-1.7,0.7-3.4,1.9-4.7c1.4-1.4,3.1-2.1,5-2.1c3.8,0,6.8,3.1,6.8,6.8C53,38.8,50,41.8,46.2,41.8z
			 M46.2,30.4c-1.2,0-2.4,0.5-3.3,1.4c-0.8,0.9-1.3,2-1.3,3.1c0,2.5,2,4.5,4.6,4.5h0.3c2.4-0.1,4.2-2.1,4.2-4.5
			C50.7,32.5,48.7,30.4,46.2,30.4z"/>
	</g>
</g>
</svg>
