<svg id="레이어_1" data-name="레이어 1" xmlns="http://www.w3.org/2000/svg" xmlns:xlink="http://www.w3.org/1999/xlink" viewBox="0 0 50 50"><defs><style>.cls-1,.cls-7{fill:none;}.cls-2{fill:url(#무제_그라디언트_79);}.cls-3{fill:url(#무제_그라디언트_45);}.cls-4{fill:#b5884e;}.cls-5{clip-path:url(#clip-path);}.cls-6{fill:#9b6a35;}.cls-7{stroke:#fff;stroke-miterlimit:10;}.cls-8{clip-path:url(#clip-path-2);}.cls-9{fill:#cef2b1;}</style><linearGradient id="무제_그라디언트_79" y1="25" x2="50" y2="25" gradientUnits="userSpaceOnUse"><stop offset="0" stop-color="#ca9c66"/><stop offset="1" stop-color="#b5884e"/></linearGradient><linearGradient id="무제_그라디언트_45" x1="-0.39" y1="32.26" x2="33.61" y2="0.22" xlink:href="#무제_그라디언트_79"/><clipPath id="clip-path"><circle class="cls-1" cx="25" cy="25" r="25"/></clipPath><clipPath id="clip-path-2"><circle class="cls-1" cx="280" cy="25" r="25"/></clipPath></defs><title>대지 3 사본 2</title><path class="cls-2" d="M42.68,7.32A25,25,0,1,0,50,25,25,25,0,0,0,42.68,7.32Z"/><path class="cls-3" d="M25,0A25,25,0,0,0,7.32,42.68L42.68,7.32A25,25,0,0,0,25,0Z"/><path class="cls-4" d="M42.68,7.32,7.32,42.68A25,25,0,0,0,42.68,7.32Z"/><g class="cls-5"><path class="cls-6" d="M50,26.63l-1.68-1.42-4.71-4L38.91,17.3l-4.71-4-2.36-2C31.17,10.79,30.45,10,29.5,10c-1.44.11-1.63,1.39-1.63,2.52V31.28a5.48,5.48,0,0,1-.63,3.08c-1.81-1.81-4-3.36-5.94-5-1.05-.89-3-3.14-4.43-2.71-1.22.37-1.23,1.53-1.23,2.57s0,1.84,0,2.76a8.85,8.85,0,0,0,3.48,6.66q3,2.52,6,5t6,5l.54.46A25,25,0,0,0,50,26.63Z"/><path class="cls-7" d="M29.63,10a1.76,1.76,0,0,0-1.76,1.76V32.4a4.38,4.38,0,0,1-4.79,4.09,4.55,4.55,0,0,1-4-4.59V28.31a1.73,1.73,0,0,0-3.46,0v3.51a8.06,8.06,0,0,0,6.84,8.08,8,8,0,0,0,8.92-7.8V11.79A1.76,1.76,0,0,0,29.63,10Z"/></g><g class="cls-8"><circle class="cls-9" cy="25" r="25"/><circle class="cls-4" cx="70" cy="25" r="25"/></g></svg>