<svg id="레이어_1" data-name="레이어 1" xmlns="http://www.w3.org/2000/svg" xmlns:xlink="http://www.w3.org/1999/xlink" viewBox="0 0 50 50"><defs><style>.cls-1,.cls-7{fill:none;}.cls-2{fill:url(#무제_그라디언트_31);}.cls-3{fill:#cef2b1;}.cls-4{fill:url(#무제_그라디언트_31-2);}.cls-5{clip-path:url(#clip-path);}.cls-6{fill:#afd190;}.cls-7{stroke:#fff;stroke-miterlimit:10;}</style><linearGradient id="무제_그라디언트_31" x1="7.3" y1="41.46" x2="42.81" y2="8.44" gradientUnits="userSpaceOnUse"><stop offset="0" stop-color="#e6fcd2"/><stop offset="1" stop-color="#cef2b1"/></linearGradient><linearGradient id="무제_그라디언트_31-2" x1="-0.9" y1="32.63" x2="34.6" y2="-0.37" xlink:href="#무제_그라디언트_31"/><clipPath id="clip-path"><circle class="cls-1" cx="25" cy="25" r="25"/></clipPath></defs><title>대지 1 사본 2</title><path class="cls-2" d="M42.68,7.32A25,25,0,1,0,50,25,25,25,0,0,0,42.68,7.32Z"/><path class="cls-3" d="M42.68,7.32,7.32,42.68A25,25,0,0,0,42.68,7.32Z"/><path class="cls-4" d="M25,0A25,25,0,0,0,7.32,42.68L42.68,7.32A25,25,0,0,0,25,0Z"/><g class="cls-5"><path class="cls-1" d="M32.44,47.82l.21.17h0Z"/><path class="cls-6" d="M43.51,28.61l-5.2-4.38-5.18-4.35L28,15.52l-5.2-4.38L20.15,9a2.1,2.1,0,0,0-2.5-.56,2,2,0,0,0-.95,1.76c0,1.1,0,2.2,0,3.29V25.21c0,3.16-.41,6.68,1.18,9.54,1.48,2.68,4.65,4.73,7,6.7l5.18,4.36,2.39,2L30.23,46l2.21,1.86.21.17h0l.71.61c.36.09,1.28-.53,1.63-.68.77-.34,1.52-.71,2.25-1.12a25.21,25.21,0,0,0,7-5.89,25.09,25.09,0,0,0,4.54-7.85C47,31.67,45.24,30.06,43.51,28.61Z"/><path class="cls-7" d="M16.7,10V30.17a9.46,9.46,0,0,0,2.75,6.68,9.47,9.47,0,0,0,3,2,9.5,9.5,0,0,0,7.35,0,9.31,9.31,0,0,0,5-5,9.5,9.5,0,0,0,0-7.35,9.36,9.36,0,0,0-8.68-5.75,9.19,9.19,0,0,0-3.09.52,9.81,9.81,0,0,0-2.66,1.45V10a1.84,1.84,0,0,0-3.68,0Zm3.68,20.15a5.62,5.62,0,0,1,.44-2.21,5.85,5.85,0,0,1,1.23-1.82,5.64,5.64,0,0,1,1.83-1.24,5.85,5.85,0,0,1,4.45,0,5.64,5.64,0,0,1,1.83,1.24,6,6,0,0,1,1.25,1.83,5.5,5.5,0,0,1,.46,2.23,5.43,5.43,0,0,1-.46,2.23,5.93,5.93,0,0,1-1.25,1.84,5.47,5.47,0,0,1-1.83,1.23,5.73,5.73,0,0,1-4.45,0,5.47,5.47,0,0,1-1.83-1.23,5.72,5.72,0,0,1-1.67-4.07Z"/></g></svg>