<svg xmlns="http://www.w3.org/2000/svg" width="238.928" height="58.215" viewBox="0 0 238.928 58.215">
  <g id="그룹_763" data-name="그룹 763" transform="translate(0)">
    <path id="패스_2412" data-name="패스 2412" d="M387.5,201.324H372.8v-8.76H412.79v8.76H397.954v43.519H387.5Z" transform="translate(-372.804 -187.619)" fill="#fff"/>
    <path id="패스_2413" data-name="패스 2413" d="M530.492,235.434h8.478l.707,6.994h.283a17.435,17.435,0,0,1,5.157-5.934,10.583,10.583,0,0,1,6.076-2.049,12.122,12.122,0,0,1,2.685.248,15.205,15.205,0,0,1,1.978.6l-1.837,8.972a10.326,10.326,0,0,0-1.943-.494,14.873,14.873,0,0,0-2.155-.141,8.725,8.725,0,0,0-4.875,1.731,12.651,12.651,0,0,0-4.239,6.04V275H530.492Z" transform="translate(-486.337 -217.772)" fill="#fff"/>
    <path id="패스_2414" data-name="패스 2414" d="M643.177,186.207a6.4,6.4,0,0,1-4.451-1.59,5.595,5.595,0,0,1,0-8.16,6.492,6.492,0,0,1,4.451-1.554,6.365,6.365,0,0,1,4.415,1.554,5.674,5.674,0,0,1,0,8.16A6.276,6.276,0,0,1,643.177,186.207Zm-5.228,6.358h10.315v39.563H637.949Z" transform="translate(-562.992 -174.903)" fill="#fff"/>
    <path id="패스_2415" data-name="패스 2415" d="M720.216,192.564h17.168a38,38,0,0,1,8.054.812,17.989,17.989,0,0,1,6.5,2.72,13.35,13.35,0,0,1,4.345,5.051,17.2,17.2,0,0,1,1.59,7.807,17.587,17.587,0,0,1-1.59,7.736,15.04,15.04,0,0,1-4.31,5.4,18.242,18.242,0,0,1-6.394,3.144,29.332,29.332,0,0,1-7.912,1.025h-6.994v18.58H720.216ZM736.959,218q10.667,0,10.668-9.043,0-4.591-2.791-6.358t-8.23-1.766h-5.934V218Z" transform="translate(-622.935 -187.619)" fill="#fff"/>
    <path id="패스_2416" data-name="패스 2416" d="M888.155,186.207a6.4,6.4,0,0,1-4.451-1.59,5.6,5.6,0,0,1,0-8.16,6.492,6.492,0,0,1,4.451-1.554,6.364,6.364,0,0,1,4.415,1.554,5.674,5.674,0,0,1,0,8.16A6.276,6.276,0,0,1,888.155,186.207Zm-5.228,6.358h10.315v39.563H882.927Z" transform="translate(-739.373 -174.903)" fill="#fff"/>
    <path id="패스_2417" data-name="패스 2417" d="M972.622,275.986a20.356,20.356,0,0,1-7.63-1.413,17.466,17.466,0,0,1-6.111-4.062,18.931,18.931,0,0,1-4.062-6.5,24.123,24.123,0,0,1-1.484-8.725,22.288,22.288,0,0,1,1.66-8.831,19.628,19.628,0,0,1,4.416-6.535,19.024,19.024,0,0,1,6.429-4.062,21.271,21.271,0,0,1,7.7-1.413,15.694,15.694,0,0,1,6.5,1.272,21.48,21.48,0,0,1,5.016,3.108l-4.945,6.712a12.93,12.93,0,0,0-2.932-1.943,7.4,7.4,0,0,0-3.144-.671,9.052,9.052,0,0,0-7.312,3.356q-2.792,3.356-2.791,9.007,0,5.582,2.755,8.9a8.766,8.766,0,0,0,7.065,3.32,9.938,9.938,0,0,0,4.1-.883,14.411,14.411,0,0,0,3.6-2.3l4.1,6.853a18.523,18.523,0,0,1-6.217,3.638A20.554,20.554,0,0,1,972.622,275.986Z" transform="translate(-790.778 -217.772)" fill="#fff"/>
    <path id="패스_2418" data-name="패스 2418" d="M1095.126,177.93h10.1v33.911h.282l13.706-17.1h11.3l-13.706,16.178,14.977,23.384h-11.233l-9.608-16.39-5.722,6.5v9.891h-10.1Z" transform="translate(-892.865 -177.082)" fill="#fff"/>
  </g>
</svg>
