<svg xmlns="http://www.w3.org/2000/svg" xmlns:xlink="http://www.w3.org/1999/xlink" width="720" height="423.521" viewBox="0 0 720 423.521">
  <defs>
    <linearGradient id="linear-gradient" x1="0.5" y1="1" x2="0.5" gradientUnits="objectBoundingBox">
      <stop offset="0" stop-color="#fff" stop-opacity="0"/>
      <stop offset="0.171" stop-color="#fff" stop-opacity="0.063"/>
      <stop offset="0.505" stop-color="#fff" stop-opacity="0.22"/>
      <stop offset="0.963" stop-color="#fff" stop-opacity="0.478"/>
      <stop offset="1" stop-color="#fff" stop-opacity="0.502"/>
    </linearGradient>
  </defs>
  <path id="패스_2407" data-name="패스 2407" d="M103.373,195.608a699.373,699.373,0,0,0,92.33,23.5c-16.18,61.389-26.408,131.016-29.95,204.418h7.155c3.621-74.356,14.092-143.45,29.774-203.143A908.072,908.072,0,0,0,357.05,233.738V423.522h7.128V233.738a908.205,908.205,0,0,0,153.155-13.359c15.682,59.694,26.148,128.788,29.768,203.143h7.168C550.726,350.119,540.5,280.493,524.3,219.1a698.335,698.335,0,0,0,92.31-23.5c33.358,65.012,55.645,143.043,62.69,227.914h7.207c-6.838-83.888-28.443-162.853-62.937-230.261a527.585,527.585,0,0,0,51.253-20.693c3.641-1.713,7.218-3.468,10.717-5.225A474.79,474.79,0,0,1,720,215.8v-7.857h-.077q-.1-2.994-.342-5.966-12.939-19.72-27.606-37.926,7.838-4.107,15.153-8.368-1.462-3.134-3.085-6.228-7.985,4.662-16.527,9.105C611.847,67.441,504.723,7.944,385.036.609,376.741.2,368.414,0,360.01,0s-16.743.2-25.038.609C215.291,7.944,108.161,67.441,32.485,158.561q-8.531-4.447-16.524-9.113-1.621,3.1-3.089,6.236,7.325,4.262,15.141,8.368Q13.371,182.232.419,201.978q-.238,2.973-.342,5.967H0v7.874a474.665,474.665,0,0,1,34.467-48.475c3.486,1.757,7.062,3.512,10.724,5.225a525.28,525.28,0,0,0,51.248,20.694C61.933,260.67,40.332,339.634,33.5,423.522h7.2C47.752,338.651,70.032,260.62,103.373,195.608Zm577.675-33.761a505.779,505.779,0,0,1-60.729,25.145,481.356,481.356,0,0,0-27.331-45.517C551.338,80.229,500.382,37.458,444.765,15.908,537.459,36.013,619.659,88.39,681.048,161.847Zm-67.687,27.465A700.866,700.866,0,0,1,522.49,212.3a650.255,650.255,0,0,0-23.34-70.167c-26.825-66.787-60.312-111.7-96.93-131.222,85.436,16.611,160.419,82.846,211.14,178.4ZM364.177,6.949C426.933,10.4,482.245,91.5,515.505,213.544a894.044,894.044,0,0,1-151.329,13.187ZM357.049,6.9V226.751a897.83,897.83,0,0,1-152.541-13.207C237.976,90.722,293.774,9.391,357.049,6.9ZM220.858,142.135A650.259,650.259,0,0,0,197.524,212.3a700.2,700.2,0,0,1-90.879-22.989c50.73-95.553,125.7-161.788,211.143-178.4C281.157,30.434,247.684,75.348,220.858,142.135ZM38.951,161.847C100.346,88.39,182.529,36.013,275.241,15.908,219.619,37.458,168.677,80.229,127.017,141.475A476.065,476.065,0,0,0,99.7,186.991a507,507,0,0,1-60.747-25.144Z" opacity="0.5" fill="url(#linear-gradient)"/>
</svg>
