<svg xmlns="http://www.w3.org/2000/svg" width="200.197" height="274.334" viewBox="0 0 200.197 274.334">
  <path id="패스_2405" data-name="패스 2405" d="M25.539,212.683c8.577,6.124,6.438,30.024,3.06,47.18s-8.882,41.374,1.853,68.036c10.717,26.659,35.1,60.354,49.638,54.234,5.822-2.445-15.942-53.313,7.35-58.528s39.536-4.29,54.551-28.5,33.394-47.49,45.336-56.075c11.957-8.58,35.865-28.194,32.5-44.437s-16.248-29.108-28.507-30.64-46.563,38.922-59.749,29.429c-13.18-9.516-10.732-28.2,5.211-37.091s24.515-14.093,28.5-19.61,16.6-14.815,23.292-11.641c11.652,5.513-2.449,24.821,5.2,28.8,7.671,3.988,26.975-11.037,20.232-23.587-6.743-12.572-30.952-23.606-38.616-21.459s-11.328,19-16.855,21.459c-5.506,2.441-17.459,2.136-23.281,4.287s-7.97,7.35-14.1,4.894-3.675-16.848-18.394-11.332S90.5,143.119,74.271,153.234c-12.343,7.676-19.2,19.588-33.06,23.134A163.917,163.917,0,0,0,19.946,212.6,4.5,4.5,0,0,1,25.539,212.683Z" transform="translate(-19.945 -108.527)" fill="#fff" opacity="0.3"/>
</svg>
