<svg xmlns="http://www.w3.org/2000/svg" width="166.557" height="311.086" viewBox="0 0 166.557 311.086">
  <path id="패스_2406" data-name="패스 2406" d="M1216.48,309.308q-.041-1.241-.108-2.479a222.454,222.454,0,0,0-22.831-52.4c-7.7-6.583-13.42-10.473-13.42-10.473-6.637-10.223-22.184-8.5-27.365-10.078s-13.685-10.364-27.07-17.564-17.858,2.157-24.476,13.962,10.8,15.412,8.487,27.217c-2.293,11.8-24.182,6.761-26.345,9.934s1.727,10.37,3.607,19.29-9.224,8.791-12.524,16.414c-3.324,7.632,1,15.265,2.446,21.742s-11.233,23.616-22.034,43.2-1.877,41.654,10.358,53.883,21.636,3.643,36.565,2.349,15.748,14.932,20.7,22.219,5.287,26.227,3.766,37.4c-1.538,11.169-3.53,36.217,10.338,40.681s41.964-45.378,45.7-53.152.578-19.29.861-25.629,10.945-21.594,12.96-27.355,0-16.991.289-21.6,6.619-9.221,9.79-13.526c3.165-4.326-3.737-19.3,5.181-20.454,1.729-.222,3.489.613,5.2,2.1v-55.68Z" transform="translate(-1050 -213.801)" fill="#fff" opacity="0.3"/>
</svg>
