<svg xmlns="http://www.w3.org/2000/svg" xmlns:xlink="http://www.w3.org/1999/xlink" width="718" height="147" viewBox="0 0 718 147">
  <defs>
    <clipPath id="clip-path">
      <rect id="사각형_322" data-name="사각형 322" width="718" height="147" transform="translate(-22251 -22530)" fill="#fff"/>
    </clipPath>
  </defs>
  <g id="마스크_그룹_28" data-name="마스크 그룹 28" transform="translate(22251 22530)" clip-path="url(#clip-path)">
    <path id="합치기_3" data-name="합치기 3" d="M365.038,199.911a44,44,0,0,1-61.588-5.443A65.01,65.01,0,0,1,180,166c0-.436,0-.869.013-1.3a65.493,65.493,0,0,1-32.006-1.516C138.872,190.231,109.868,210,75.5,210,33.8,210,0,180.9,0,145c0-14.492,5.507-27.874,14.819-38.683A65.006,65.006,0,1,1,128.012,48.986,65,65,0,0,1,232,101c0,.436,0,.869-.013,1.3a65.11,65.11,0,0,1,71.463,35.229,44,44,0,0,1,61.587-5.443C383.055,113.44,415.485,101,452.5,101c41.59,0,77.4,15.71,93.467,38.281A43.813,43.813,0,0,1,573,130q1.548,0,3.07.105c5.037-25.362,27.078-49.678,58.7-61.187,20.158-7.337,40.681-8.185,58.133-3.64a64.98,64.98,0,1,1,22.564,103.514,103.09,103.09,0,0,1-36.234,22.287c-23.335,8.493-47.162,8.289-66.146,1.092a44.013,44.013,0,0,1-74.553,9.179C520.259,219.2,488.555,231,452.5,231,415.485,231,383.055,218.56,365.038,199.911Z" transform="translate(-22271 -22530)" fill="#fff"/>
  </g>
</svg>
