<svg xmlns="http://www.w3.org/2000/svg" width="149.905" height="149.905" viewBox="0 0 149.905 149.905">
  <g id="login_symbol" transform="translate(-225.151 -349.19)">
    <path id="패스_1" data-name="패스 1" d="M242.591,409.857c-.426,2.119-1.789,3.526-3.625,3.161a3.367,3.367,0,0,1-2.363-4.191,2.68,2.68,0,0,1,.464-1.151c-.2,1.417.365,3.108,1.944,3.421,1.444.286,2.224-.612,2.487-1.913a6.933,6.933,0,0,0,.133-1.156l-7.414-1.47c-.92-.186-1.575-.334-2.244.435l-.052-.011.653-3.242.053.013c.125.891,1.361,1.031,2.1,1.175l6.195,1.223c.739.154,1.925.481,2.419-.262l.046.006-.8,3.961Z" transform="translate(0.359 2.889)" fill="#003f8f"/>
    <path id="패스_2" data-name="패스 2" d="M231.674,420.53a4.087,4.087,0,0,1-1.27-3.3,4.131,4.131,0,0,1,1.273-2.974,4.406,4.406,0,0,1,3.329-.732l4.467.138c.761.026,1.982.183,2.327-.649h.048l-.1,3.151H241.7c-.3-.838-1.522-.787-2.271-.8l-4.479-.145c-2.227-.081-3.289.821-3.352,2.527a2.914,2.914,0,0,0,1.09,2.462,2.249,2.249,0,0,0,1.515.4l5.043.174c.749.019,1.972.159,2.322-.664l.052,0-.108,3.145-.053.012c-.288-.856-1.513-.795-2.286-.816l-6.32-.211c-.751-.02-1.968-.164-2.314.674l-.051,0,.078-2.436,1.109.039Z" transform="translate(0.278 3.38)" fill="#003f8f"/>
    <path id="패스_3" data-name="패스 3" d="M240.5,430.112a3.825,3.825,0,0,0,.705-2.724c-.124-.936-.643-2.08-1.789-1.932-2.282.291-1.5,5.961-4.577,6.347-1.785.238-3.687-1.4-4.02-3.965a8.434,8.434,0,0,1,.108-3.013l2.014-.759a5.755,5.755,0,0,0-.9,3.8c.118.932.872,2.273,2.033,2.138,2.6-.34,1.387-5.953,4.913-6.4,2.092-.258,3.17,1.752,3.431,3.766a8.1,8.1,0,0,1-.042,2.505l-1.874.239Z" transform="translate(0.296 3.94)" fill="#003f8f"/>
    <path id="패스_4" data-name="패스 4" d="M238.707,437.816l-.907-3.15,4.519.442-3.613,2.708Zm-1.057.811-2.028,1.5c-1.008.751-1.142.926-1.732.24l-.044.019.947,3.274.041-.013c.213-1.041,1.034-1.587,1.845-2.206l7.317-5.667-.725-2.522-.052.014c-.026.83-.783.727-1.428.661l-7.493-.772a3.761,3.761,0,0,1-2.732-.908l-.046.015.837,2.945.053-.018c.071-.851.569-.873,1.571-.782l2.508.184,1.162,4.039Z" transform="translate(0.337 4.399)" fill="#003f8f"/>
    <path id="패스_5" data-name="패스 5" d="M237.727,444.822c-.846.409-1.452.682-1.531,1.7l-.047.02-1.3-2.642.044-.018c.855.563,1.458.264,2.3-.14l6.015-2.9c.849-.415,1.447-.708,1.519-1.7l.044-.027,1.074,2.186-.02.008a.976.976,0,0,0-.268.405l-.2.355L241.1,450.9l5.709-2.757c.849-.41,1.456-.681,1.513-1.7l.044-.021,1.293,2.638-.038.017c-.838-.558-1.437-.268-2.286.136l-8.449,4.094a4.651,4.651,0,0,1,.643-3.012L243.56,442l-5.833,2.821Z" transform="translate(0.514 4.762)" fill="#003f8f"/>
    <path id="패스_6" data-name="패스 6" d="M246.694,460.287c-.7.62-1.21,1.057-1,2.054l-.034.032-1.987-2.181.036-.038c.98.312,1.482-.129,2.175-.752l4.976-4.437c.7-.622,1.191-1.071.983-2.044l.034-.034,1.643,1.8-.009.014a.973.973,0,0,0-.152.463l-.089.391-1.646,9.657L256.34,461c.7-.623,1.209-1.051.984-2.038l.044-.037,1.974,2.174-.042.034c-.957-.305-1.457.13-2.153.757l-6.987,6.243a4.58,4.58,0,0,1-.216-3.077l1.566-9.063-4.816,4.3Z" transform="translate(0.981 5.492)" fill="#003f8f"/>
    <path id="패스_7" data-name="패스 7" d="M260.121,469l-2.605-2.02,3.908-2.286-1.3,4.305Zm-.374,1.258L259,472.666c-.362,1.192-.37,1.417-1.245,1.2l-.035.041L260.439,476l.04-.038a3.794,3.794,0,0,1,.162-2.857l2.529-8.855-2.086-1.616-.035.045c.477.688-.2,1.038-.757,1.369l-6.5,3.77a3.849,3.849,0,0,1-2.755.87l-.023.042,2.436,1.874.022-.042c-.446-.723-.053-1.042.8-1.554l2.14-1.32,3.339,2.568Z" transform="translate(1.37 6.008)" fill="#003f8f"/>
    <path id="패스_8" data-name="패스 8" d="M264.856,476.159c-.489.823-.826,1.38-.32,2.262l-.023.039-2.875-1.645.031-.042c.879.142,1.414-.957,1.79-1.6l3.753-6.413-1.274-.737a3,3,0,0,0-2.059-.417l-.051-.027,1.509-1.414.044.024a2.342,2.342,0,0,0,.492.413l.365.216,5.409,3.11a1.827,1.827,0,0,0,.727.281l.042.019-1.468,1.453-.039-.026c.1-.615-.436-1.022-.911-1.3l-1.306-.74-3.837,6.547Z" transform="translate(1.932 6.195)" fill="#003f8f"/>
    <path id="패스_9" data-name="패스 9" d="M272.422,472.718c.306-.7.907-1.763.256-2.393l.017-.047,2.918,1.274-.014.039c-.907-.039-1.309,1.128-1.608,1.81l-2.541,5.74c-.309.685-.891,1.748-.252,2.372l-.024.042-2.914-1.265.024-.045c.887.065,1.291-1.109,1.588-1.789l2.549-5.738Z" transform="translate(2.283 6.413)" fill="#003f8f"/>
    <path id="패스_10" data-name="패스 10" d="M281.406,474.438c2.551.7,3.421,3.377,2.763,5.708a4.072,4.072,0,0,1-5.2,3.049,4.491,4.491,0,0,1-2.859-5.685,4.135,4.135,0,0,1,5.291-3.073Zm.443-1.122a5.962,5.962,0,0,0-7.6,3.832,5.8,5.8,0,0,0,4.322,7.183,5.98,5.98,0,0,0,7.524-3.994,5.719,5.719,0,0,0-4.243-7.021Z" transform="translate(2.588 6.559)" fill="#003f8f"/>
    <path id="패스_11" data-name="패스 11" d="M288.189,483.826c-.068.928-.135,1.593.716,2.169l-.007.045-2.958-.219v-.044c.926-.447.979-1.113,1.051-2.042l.491-6.6c.071-.939.119-1.6-.712-2.159v-.049l2.447.179v.014a1.035,1.035,0,0,0,.22.435l.2.349,5.546,8.109.476-6.291c.072-.918.133-1.589-.719-2.148l.009-.038,2.941.209-.011.044c-.9.435-.951,1.1-1.02,2.028l-.694,9.292a4.624,4.624,0,0,1-2.3-2.059l-5.191-7.634-.485,6.414Z" transform="translate(3.219 6.659)" fill="#003f8f"/>
    <path id="패스_12" data-name="패스 12" d="M304.177,480.771l-3.29.333,1.226-4.329,2.065,4Zm.611,1.178,1.139,2.235c.565,1.116.72,1.287-.062,1.723l0,.057,3.422-.346-.007-.05c-1-.384-1.4-1.278-1.872-2.177l-4.346-8.135-2.624.268v.046c.829.166.584.892.4,1.517l-2.077,7.173a3.7,3.7,0,0,1-1.372,2.508l0,.051,3.07-.308,0-.052c-.834-.218-.767-.71-.51-1.663l.621-2.429,4.212-.419Z" transform="translate(3.826 6.677)" fill="#003f8f"/>
    <path id="패스_13" data-name="패스 13" d="M314.295,482.9a4.139,4.139,0,0,0,2.608-1.735l.045-.014-.259,2.353-6.663,1.765-.015-.045c.744-.512.333-1.674.132-2.395l-1.618-6.052c-.2-.735-.428-1.942-1.331-2.021l-.014-.055,3.093-.814.015.044c-.742.529-.313,1.691-.118,2.407l1.888,6.995,2.238-.434Z" transform="translate(4.344 6.604)" fill="#003f8f"/>
    <path id="패스_14" data-name="패스 14" d="M330.216,476.13a4.184,4.184,0,0,1-2.229,2.759,4.126,4.126,0,0,1-3.223.412,4.29,4.29,0,0,1-2.33-2.461l-2.149-3.9c-.36-.651-.843-1.769-1.752-1.643l-.02-.043,2.8-1.514.022.047c-.581.672.088,1.7.453,2.349l2.145,3.894c1.072,1.932,2.386,2.4,3.9,1.573a2.92,2.92,0,0,0,1.588-2.175,2.161,2.161,0,0,0-.421-1.5l-2.414-4.394c-.364-.658-.874-1.77-1.756-1.653l-.019-.031,2.792-1.519.038.042c-.6.673.078,1.694.45,2.364l3.025,5.5c.362.652.862,1.768,1.769,1.638l.023.042-2.168,1.167-.524-.959Z" transform="translate(4.945 6.204)" fill="#003f8f"/>
    <path id="패스_15" data-name="패스 15" d="M335.237,471.513c.6.715,1.02,1.24,2.032,1.068l.037.036-2.285,1.892-.026-.041c.348-.964-.085-1.472-.688-2.187l-4.288-5.1c-.6-.7-1.025-1.211-2.022-1.043l-.028-.045,1.88-1.552.011.012a1.041,1.041,0,0,0,.458.164l.4.108,9.67,1.985-4.076-4.828c-.605-.721-1.018-1.235-2.022-1.055l-.034-.042,2.271-1.874.026.043c-.345.935.08,1.447.682,2.156l6.03,7.155a4.591,4.591,0,0,1-3.1.1l-9.088-1.887,4.158,4.934Z" transform="translate(5.445 5.816)" fill="#003f8f"/>
    <path id="패스_16" data-name="패스 16" d="M339.168,458.908c-.568-.5-1.415-1.4-2.222-.977l-.031-.036,2.114-2.355.037.033c-.319.835.677,1.575,1.234,2.069l4.721,4.16c.572.508,1.413,1.391,2.211.971l.039.039-2.123,2.353-.037-.034c.332-.816-.664-1.563-1.221-2.053l-4.724-4.17Z" transform="translate(5.919 5.632)" fill="#003f8f"/>
    <path id="패스_17" data-name="패스 17" d="M346.082,451.135c-.705-1.051-1.515-2.289-2.451-1.683l-.045-.023,1.43-2.028,6.937,10.133c-1.3.514-1.633.751-3,.4l-7.075-1.82a5.058,5.058,0,0,0-2.717-.3l-.037-.027,1.392-1.993.155.124a6.378,6.378,0,0,0,1.542.513l7.507,1.962-3.64-5.255Z" transform="translate(6.036 5.201)" fill="#003f8f"/>
    <path id="패스_18" data-name="패스 18" d="M354.512,449.2l1.113-1.809a4.118,4.118,0,0,0,.477-3.2l.011-.044,1.651,1.622-3.066,6.23-.047-.025c.109-.889-1.059-1.348-1.735-1.674l-5.674-2.744c-.693-.332-1.748-.95-2.41-.324l-.041-.027,2.345-4.774a1.707,1.707,0,0,0,.273-.741l.013-.047,1.773.854-.025.044a2.36,2.36,0,0,0-1.466,1.47,8.876,8.876,0,0,0-.649,1.572l2.8,1.36.878-1.777a1.777,1.777,0,0,0,.232-.7l.019-.048,1.6.778-.016.043c-.554.031-.846.663-1.082,1.121l-.54,1.11,3.569,1.727Z" transform="translate(6.336 4.897)" fill="#003f8f"/>
    <path id="패스_19" data-name="패스 19" d="M349.106,436.9c.695-2.115,2.192-2.9,3.642-2.434a3.25,3.25,0,0,1,1.979,3.413l3.625-1.339a12.1,12.1,0,0,0,3.083-1.834l-.483,1.443a2.185,2.185,0,0,1-1.4,1.582l-3.042,1.148-2.723.73c.224-1.329.12-2.989-1.377-3.479a1.943,1.943,0,0,0-2.444,1.478,7.589,7.589,0,0,0-.222,1.108l7.137,2.306c.732.237,1.867.713,2.421,0l.043.014-.992,3.024-.043-.013c-.024-.9-1.244-1.175-1.955-1.414l-6.009-1.928c-.735-.242-1.855-.729-2.435-.021l-.047-.014,1.245-3.766Z" transform="translate(6.499 4.509)" fill="#003f8f"/>
    <path id="패스_20" data-name="패스 20" d="M353.434,426.589A3.811,3.811,0,0,0,351.97,429c-.154.938.017,2.172,1.16,2.349,2.262.377,3.163-5.269,6.219-4.773,1.775.284,3.118,2.4,2.7,4.957a8.559,8.559,0,0,1-.98,2.849l-2.145.137a5.726,5.726,0,0,0,1.964-3.364c.154-.933-.175-2.437-1.329-2.624-2.581-.419-3.06,5.3-6.564,4.73-2.08-.339-2.528-2.584-2.194-4.587a8.236,8.236,0,0,1,.767-2.385l1.866.3Z" transform="translate(6.649 4.083)" fill="#003f8f"/>
    <path id="패스_21" data-name="패스 21" d="M353.87,424c-.77-.044-1.987-.226-2.352.592h-.043l.178-3.134h.045c.27.841,1.523.816,2.267.855l6.309.357c.755.045,1.968.215,2.341-.59h.047l-.181,3.141-.049-.005c-.251-.846-1.493-.814-2.25-.861L353.87,424Z" transform="translate(6.69 3.827)" fill="#003f8f"/>
    <path id="패스_22" data-name="패스 22" d="M360.319,415.875c.957-.058,1.615-.074,2.08-.988l.062,0,.173,3.291-.06,0c-.36-.812-1.579-.652-2.332-.609l-7.463.395.078,1.465a2.89,2.89,0,0,0,.778,1.935l0,.046-2.026-.476,0-.047a1.9,1.9,0,0,0,.082-.632l-.021-.417-.339-6.195a1.673,1.673,0,0,0-.154-.756l0-.053,2.024.431v.051c-.574.243-.619.913-.595,1.463l.08,1.491,7.636-.4Z" transform="translate(6.674 3.371)" fill="#003f8f"/>
    <path id="패스_23" data-name="패스 23" d="M358.923,406.378c.984-.195,1.471-.294,1.913-1.246l.05-.019.658,3.177-.053.011c-.576-.71-1.618-.382-2.4-.227l-2.426.495-3.834,3.593a4.067,4.067,0,0,0-1.374,1.884l-.3-1.482a1.405,1.405,0,0,1,.205-1.31l3.747-3.481-3.467-1.4c-.469-.194-1.331-.411-1.592.592l-.049.007-.585-2.847,6.905,2.776,2.6-.526Z" transform="translate(6.581 2.91)" fill="#003f8f"/>
    <path id="패스_24" data-name="패스 24" d="M242.269,395.128a1.453,1.453,0,1,1-1.448-1.439,1.448,1.448,0,0,1,1.448,1.439Z" transform="translate(0.753 2.357)" fill="#003f8f"/>
    <path id="패스_25" data-name="패스 25" d="M353.566,395.128a1.454,1.454,0,1,1-1.446-1.439,1.446,1.446,0,0,1,1.446,1.439Z" transform="translate(6.647 2.357)" fill="#003f8f"/>
    <path id="패스_26" data-name="패스 26" d="M300.945,356.245h-1.419v-3.411h-1.7v8.84a2.256,2.256,0,0,1-1.563.585h-4.784a.128.128,0,0,1-.125-.132v-6.9h5.123v-1.367h-6.825l0,8.269a1.483,1.483,0,0,0,1.5,1.476h5.069a3.02,3.02,0,0,0,1.6-.357V368h1.7v-10.4h1.419V368h1.7v-15.17h-1.7v3.411Z" transform="translate(3.416 0.193)" fill="#003f8f"/>
    <path id="패스_27" data-name="패스 27" d="M248.033,387.278l4.328-4.752,3.807,3.409,1.141-1.252-3.807-3.409,4.313-4.731-1.02-.915-9.782,10.738,1.02.912Z" transform="translate(1.158 1.4)" fill="#003f8f"/>
    <path id="패스_28" data-name="패스 28" d="M246.284,383.384a1.509,1.509,0,0,0,2.119-.1l5.448-5.981a1.483,1.483,0,0,0-.108-2.1l-4.272-3.824-1.14,1.255,1.729,1.547-5.177,5.684-1.73-1.549-1.141,1.251,4.274,3.824Zm4.794-8.3,1.525,1.365a.125.125,0,0,1,.008.176l-5.007,5.5a.127.127,0,0,1-.178.01l-1.525-1.366,5.176-5.681Z" transform="translate(0.893 1.175)" fill="#003f8f"/>
    <path id="패스_29" data-name="패스 29" d="M273.644,356.759l-1.554.689,4.525,10.05,1.556-.688-2.563-5.693,2.059-.912-.559-1.244-2.061.911-1.4-3.114Z" transform="translate(2.486 0.401)" fill="#003f8f"/>
    <path id="패스_30" data-name="패스 30" d="M271.377,372l-1.682-3.731-1.552.685,1.678,3.735a1.507,1.507,0,0,0,1.982.75l8.2-3.635-.559-1.239-7.906,3.5a.126.126,0,0,1-.166-.065Z" transform="translate(2.277 1.011)" fill="#003f8f"/>
    <path id="패스_31" data-name="패스 31" d="M267.845,361.322l-.6-1.344-1.552.686.6,1.344c1.792,3.977-1.684,6.5-1.923,6.665l1.515.574a7.107,7.107,0,0,0,2.567-4.515,7.236,7.236,0,0,0,5.093,1.12l.58-1.5c-.353.079-4.5.912-6.281-3.029Z" transform="translate(2.077 0.571)" fill="#003f8f"/>
    <path id="패스_32" data-name="패스 32" d="M344.5,380.184l-1.143-1.215L339.006,383l-1.4-1.486,4.346-4.028-1.148-1.218-4.343,4.029-2.449-2.594-.989.922,9.721,10.3.991-.919-3.579-3.789,4.341-4.029Z" transform="translate(5.713 1.434)" fill="#003f8f"/>
    <path id="패스_33" data-name="패스 33" d="M345.274,382.1a10.541,10.541,0,0,1-3.191,2.148l1.161,1.23a10.666,10.666,0,0,0,3.186-2.155l4.4-4.082,0,0h0l-7.683-8.143-.994.92,6.534,6.919-3.412,3.167Z" transform="translate(6.193 1.16)" fill="#003f8f"/>
    <path id="패스_34" data-name="패스 34" d="M329.451,365.974,330,364.72l-2.077-.894,1.37-3.126-1.563-.674-3.589,8.2,1.563.674,1.67-3.819,2.077.893Z" transform="translate(5.243 0.574)" fill="#003f8f"/>
    <path id="패스_35" data-name="패스 35" d="M325.89,369.248,316,365l-.547,1.253,8.323,3.581-1.68,3.846,1.563.675,2.227-5.094,0,0,0-.007Z" transform="translate(4.783 0.837)" fill="#003f8f"/>
    <path id="패스_36" data-name="패스 36" d="M326.375,360.926l-3.953-1.7.683-1.559-1.568-.674-.684,1.56-3.946-1.7-.555,1.261,1.927.828a3.258,3.258,0,0,0-1.609,1.625,3.665,3.665,0,0,0,2.17,4.715,3.722,3.722,0,0,0,4.956-1.649,3.215,3.215,0,0,0,.1-2.272l1.926.83.549-1.262Zm-6.982,3.095a2.124,2.124,0,0,1-1.141-2.791,2.158,2.158,0,0,1,2.837-1.079,2.117,2.117,0,0,1,1.137,2.79,2.151,2.151,0,0,1-2.833,1.08Z" transform="translate(4.83 0.406)" fill="#003f8f"/>
    <path id="패스_37" data-name="패스 37" d="M375.056,424.144A74.952,74.952,0,1,1,300.1,349.19a74.952,74.952,0,0,1,74.951,74.954ZM300.1,350.213a73.929,73.929,0,1,0,73.924,73.931A73.93,73.93,0,0,0,300.1,350.213Z" transform="translate(0)" fill="#003f8f"/>
    <path id="패스_38" data-name="패스 38" d="M353.38,423.106a54.316,54.316,0,1,1-54.313-54.318,54.315,54.315,0,0,1,54.313,54.318Zm-54.313-53.3a53.3,53.3,0,1,0,53.293,53.3,53.3,53.3,0,0,0-53.293-53.3Z" transform="translate(1.038 1.038)" fill="#003f8f"/>
    <path id="패스_39" data-name="패스 39" d="M332.07,450.356l-25.217,0c-7.792.058-8.763,5.193-8.763,5.193-1.6-5.823-9.1-5.193-9.1-5.193H264.344V414.2H288.1c7.9.147,10.007,6.4,10.007,6.4,2.584-6.341,10.757-6.4,10.757-6.4l23.2,0v36.151Zm-24.806-39.75c-6.926.217-9.11,4.282-9.11,4.282-2.2-4.256-8.862-4.265-8.862-4.265H260.731v43.3h27.962c3.816,0,5.162,1.8,5.611,3.081h7.732c1.336-3.243,5.23-3.059,5.23-3.059H335.7V410.606Z" transform="translate(1.884 3.253)" fill="#00862f"/>
    <path id="패스_40" data-name="패스 40" d="M282.911,430.207H272.5V440.7h14.339v-.033h-.016v-6.856h3.632V440.7h14.31v-6.888h3.621v6.878H322.7v-3.63H312.308v-3.254h10.4V422.924H308.381V430.2H304.76v-7.272h-3.927v7.27H294.35v-7.27h-3.906V430.2h-3.613v-7.272h-14.34v3.616h10.42v3.666Zm.005,6.885H276.41v-3.281h6.506v3.281Zm17.934,0h-6.49v-3.282h6.49v3.282Zm11.457-10.561H318.8v3.67h-6.488v-3.67Z" transform="translate(2.507 3.905)" fill="#00862f"/>
    <path id="패스_41" data-name="패스 41" d="M294.276,391.628l3.467-1.147h-3.467v1.147Z" transform="translate(3.661 2.187)" fill="#003f8f"/>
    <path id="패스_42" data-name="패스 42" d="M288.574,396.828c1.271-1.331,2.6-1.164,2.6-.6a2.369,2.369,0,0,1-.654,1.249H282.3l-4.5-6.49h0c-1.126-1.667-2.562-2.388-4.948-2.388H260.743v19.547c7.361,0,25.475-.016,27.6,0,8.154.077,9.754,3.547,9.754,3.547,1.71-2.7,5-3.532,10.072-3.54h27.525L335.7,388.6h-12.28a5.267,5.267,0,0,0-4.932,2.388h-.006l-4.6,6.49h-6.82V391.7l4.669-4.562-4.823,0,1.217-1.069h-9.768c-1.962,0-3.512.8-4.072,1.914H290.85c-3.164,0-4.321,1.784-3.674,4.127l1.4,4.711Zm43.5,7.728h-23c-6.127,0-8.991.416-10.939,2.529-2.1-2.032-3.737-2.52-9.865-2.52H264.348V392.209h7.515a3.754,3.754,0,0,1,1.772.373,4.008,4.008,0,0,1,1.239,1.078c.5.692,4.956,7.222,4.956,7.222h12.847s1.2-2.477,1.934-4.2.49-2.962-1.1-3.083c-1.339-.1-2.181.214-2.324.768l-.569-1.95c-.342-.988-.1-1.7,1.279-1.7h4.155c0,.034.091-1.354,2.379-1.354h6.859l-1.933,1.782v9.736h13.32s4.237-6.525,4.738-7.217a3.814,3.814,0,0,1,1.236-1.078,4.046,4.046,0,0,1,1.761-.406l7.658,0v12.377Z" transform="translate(1.885 1.954)" fill="#003f8f"/>
    <path id="패스_43" data-name="패스 43" d="M290.632,443.315a2.333,2.333,0,0,0,1.239-.994h.018v3.212c0,.329-.023.586.283.788v.02h-1.2v-.02c.352-.17.326-.442.326-.788v-2.2h-.667v-.015Z" transform="translate(3.468 4.932)" fill="#00862f"/>
    <path id="패스_44" data-name="패스 44" d="M293.466,446.087a2.178,2.178,0,0,0,1.765-1.98,1.1,1.1,0,0,0-.993-1.218.833.833,0,0,0-.84.858.872.872,0,0,0,.874.93,1.131,1.131,0,0,0,.614-.179l-.391.478a1.446,1.446,0,0,1-.472.078,1.167,1.167,0,0,1-1.2-1.172,1.409,1.409,0,0,1,1.492-1.4,1.491,1.491,0,0,1,1.5,1.572,2.2,2.2,0,0,1-.868,1.682,3.392,3.392,0,0,1-1.766.707l.287-.356Z" transform="translate(3.584 4.941)" fill="#00862f"/>
    <path id="패스_45" data-name="패스 45" d="M297.869,445.1c-.5,0-.917-.025-1.229-.041l1.229-2.065V445.1Zm0,.448v.152c0,.293.039.5-.282.61v.02H298.7v-.02c-.249-.125-.259-.393-.259-.643v-.118h.455l.28-.685a1.132,1.132,0,0,1-.735.237v-2.528h-.795l-1.787,2.977Z" transform="translate(3.745 4.945)" fill="#00862f"/>
    <path id="패스_46" data-name="패스 46" d="M301.75,442.829a2.45,2.45,0,0,0-1.13.61,1.865,1.865,0,0,0-.622,1.384,1.1,1.1,0,0,0,1.012,1.222.8.8,0,0,0,.8-.869.843.843,0,0,0-.888-.949,1.217,1.217,0,0,0-.636.188l.373-.465a1.247,1.247,0,0,1,.505-.108,1.168,1.168,0,0,1,1.234,1.206,1.387,1.387,0,0,1-1.452,1.376,1.532,1.532,0,0,1-1.53-1.594,2.672,2.672,0,0,1,2.613-2.357l-.279.355Z" transform="translate(3.933 4.94)" fill="#00862f"/>
  </g>
</svg>
