<svg xmlns="http://www.w3.org/2000/svg" width="157.906" height="157.905" viewBox="0 0 157.906 157.905">
  <g id="login_symbol" transform="translate(-225.151 -349.19)" opacity="0.1">
    <path id="패스_1" data-name="패스 1" d="M243.16,410.183c-.449,2.232-1.884,3.715-3.819,3.33-1.992-.394-2.886-2.478-2.489-4.414a2.823,2.823,0,0,1,.489-1.212c-.212,1.493.385,3.274,2.047,3.6,1.521.3,2.343-.645,2.62-2.015a7.3,7.3,0,0,0,.14-1.218l-7.81-1.548c-.969-.2-1.659-.352-2.364.458l-.054-.011.688-3.415.055.013c.132.938,1.434,1.086,2.216,1.238l6.525,1.289c.779.162,2.028.507,2.548-.276l.049.007-.842,4.173Z" transform="translate(0.739 5.955)" fill="#f3f3f3"/>
    <path id="패스_2" data-name="패스 2" d="M231.742,420.931a4.305,4.305,0,0,1-1.338-3.472,4.351,4.351,0,0,1,1.341-3.132c1.051-.891,2.242-.82,3.507-.771l4.705.145c.8.028,2.087.193,2.451-.683h.051l-.11,3.32H242.3c-.314-.883-1.6-.829-2.392-.844l-4.718-.153c-2.346-.085-3.465.865-3.53,2.662a3.07,3.07,0,0,0,1.148,2.593,2.369,2.369,0,0,0,1.6.423l5.312.183c.789.02,2.077.167,2.446-.7l.054,0-.114,3.313-.055.012c-.3-.9-1.594-.837-2.408-.86l-6.657-.222c-.791-.021-2.073-.173-2.438.71l-.053,0,.082-2.567,1.168.041Z" transform="translate(0.573 6.967)" fill="#f3f3f3"/>
    <path id="패스_3" data-name="패스 3" d="M241.023,430.46a4.029,4.029,0,0,0,.743-2.869c-.131-.986-.678-2.191-1.884-2.035-2.4.306-1.582,6.279-4.822,6.686-1.88.251-3.884-1.472-4.235-4.177a8.884,8.884,0,0,1,.114-3.173l2.122-.8a6.062,6.062,0,0,0-.951,4c.124.982.918,2.395,2.142,2.253,2.735-.358,1.461-6.271,5.175-6.743,2.2-.272,3.34,1.846,3.614,3.967a8.531,8.531,0,0,1-.044,2.639l-1.974.252Z" transform="translate(0.61 8.12)" fill="#f3f3f3"/>
    <path id="패스_4" data-name="패스 4" d="M239.09,438.114l-.955-3.319,4.761.466-3.806,2.853Zm-1.114.854-2.136,1.576c-1.061.791-1.2.975-1.825.253l-.047.02,1,3.448.043-.013c.224-1.1,1.089-1.672,1.943-2.324l7.708-5.97L243.9,433.3l-.054.014c-.028.874-.825.765-1.5.7l-7.893-.813a3.961,3.961,0,0,1-2.878-.956l-.049.016.882,3.1.055-.019c.074-.9.6-.919,1.655-.824l2.642.194,1.225,4.255Z" transform="translate(0.695 9.066)" fill="#f3f3f3"/>
    <path id="패스_5" data-name="패스 5" d="M237.88,445.127c-.891.43-1.53.719-1.613,1.792l-.05.021-1.365-2.783.047-.019c.9.593,1.536.278,2.421-.148l6.336-3.052c.894-.437,1.524-.745,1.6-1.8l.047-.029,1.131,2.3-.021.009a1.028,1.028,0,0,0-.283.427l-.207.374-4.494,9.3,6.014-2.9c.894-.431,1.534-.718,1.594-1.788l.047-.022,1.362,2.778-.04.018c-.883-.588-1.514-.283-2.408.143l-8.9,4.312a4.9,4.9,0,0,1,.678-3.173l4.25-8.733-6.145,2.971Z" transform="translate(1.059 9.816)" fill="#f3f3f3"/>
    <path id="패스_6" data-name="패스 6" d="M246.855,460.682c-.734.653-1.274,1.114-1.056,2.164l-.035.033-2.093-2.3.038-.04c1.033.328,1.561-.135,2.292-.792l5.242-4.674c.733-.656,1.254-1.128,1.036-2.153l.036-.035,1.73,1.9-.01.014a1.024,1.024,0,0,0-.16.488l-.094.411-1.734,10.172,4.97-4.442c.738-.657,1.273-1.107,1.037-2.146l.047-.039,2.08,2.29-.044.035c-1.008-.322-1.535.136-2.268.8l-7.36,6.576a4.824,4.824,0,0,1-.227-3.241l1.649-9.547-5.073,4.525Z" transform="translate(2.022 11.32)" fill="#f3f3f3"/>
    <path id="패스_7" data-name="패스 7" d="M260.607,469.341l-2.744-2.127,4.116-2.408-1.372,4.535Zm-.394,1.325-.782,2.536c-.382,1.256-.389,1.493-1.311,1.269l-.037.043,2.858,2.2.042-.04a4,4,0,0,1,.171-3.009l2.664-9.328-2.2-1.7-.037.048c.5.724-.214,1.094-.8,1.442l-6.849,3.971a4.054,4.054,0,0,1-2.9.916l-.024.044,2.566,1.974.023-.044c-.47-.762-.055-1.1.841-1.637l2.254-1.391,3.517,2.705Z" transform="translate(2.823 12.384)" fill="#f3f3f3"/>
    <path id="패스_8" data-name="패스 8" d="M265.028,476.692c-.515.867-.87,1.454-.337,2.383l-.024.041-3.028-1.733.032-.044c.926.15,1.49-1.008,1.886-1.689l3.953-6.755-1.342-.776a3.163,3.163,0,0,0-2.168-.439l-.053-.029,1.589-1.49.047.025a2.468,2.468,0,0,0,.518.435l.385.227,5.7,3.276a1.925,1.925,0,0,0,.765.3l.044.02-1.546,1.531-.041-.028c.109-.648-.459-1.077-.959-1.369l-1.375-.78-4.042,6.9Z" transform="translate(3.983 12.768)" fill="#f3f3f3"/>
    <path id="패스_9" data-name="패스 9" d="M272.644,472.848c.323-.738.955-1.857.269-2.521l.018-.05,3.073,1.342-.014.041c-.955-.041-1.379,1.188-1.694,1.907l-2.676,6.046c-.325.722-.938,1.841-.265,2.5l-.026.044-3.069-1.332.026-.048c.934.069,1.36-1.168,1.673-1.884l2.685-6.044Z" transform="translate(4.706 13.218)" fill="#f3f3f3"/>
    <path id="패스_10" data-name="패스 10" d="M281.8,474.513c2.687.739,3.6,3.557,2.91,6.013a4.289,4.289,0,0,1-5.473,3.212c-2.679-.733-3.67-3.629-3.011-5.988a4.356,4.356,0,0,1,5.574-3.237Zm.467-1.182a6.28,6.28,0,0,0-8.009,4.036,6.112,6.112,0,0,0,4.553,7.567,6.3,6.3,0,0,0,7.926-4.207,6.024,6.024,0,0,0-4.47-7.4Z" transform="translate(5.334 13.518)" fill="#f3f3f3"/>
    <path id="패스_11" data-name="패스 11" d="M288.309,484.3c-.072.977-.142,1.678.754,2.285l-.008.048-3.116-.231v-.047c.975-.471,1.032-1.172,1.107-2.151l.517-6.956c.074-.989.125-1.684-.75-2.274v-.052l2.578.189v.014a1.091,1.091,0,0,0,.232.458l.215.367,5.842,8.542.5-6.627c.075-.967.14-1.674-.758-2.263l.01-.04,3.1.22-.011.047c-.947.458-1,1.161-1.075,2.136l-.731,9.788a4.871,4.871,0,0,1-2.425-2.168l-5.468-8.041-.511,6.756Z" transform="translate(6.636 13.725)" fill="#f3f3f3"/>
    <path id="패스_12" data-name="패스 12" d="M304.539,481.066l-3.466.351,1.291-4.56,2.175,4.209Zm.643,1.241,1.2,2.355c.6,1.176.759,1.355-.065,1.815l0,.06,3.6-.365-.008-.052c-1.049-.4-1.474-1.346-1.972-2.293l-4.577-8.569-2.764.283v.049c.873.175.616.939.425,1.6l-2.188,7.556c-.282,1.026-.475,2.039-1.445,2.642l0,.053,3.234-.325,0-.054c-.878-.23-.807-.748-.537-1.751l.654-2.559,4.437-.441Z" transform="translate(7.886 13.761)" fill="#f3f3f3"/>
    <path id="패스_13" data-name="패스 13" d="M314.675,483.379a4.36,4.36,0,0,0,2.747-1.828l.048-.014-.273,2.479-7.019,1.859-.016-.048c.784-.539.351-1.764.139-2.522l-1.7-6.375c-.214-.774-.45-2.045-1.4-2.128l-.014-.058,3.258-.857.016.047c-.782.557-.329,1.781-.124,2.536l1.989,7.368,2.357-.457Z" transform="translate(8.954 13.612)" fill="#f3f3f3"/>
    <path id="패스_14" data-name="패스 14" d="M330.84,476.653a4.408,4.408,0,0,1-2.348,2.906,4.346,4.346,0,0,1-3.4.434c-1.312-.434-1.855-1.485-2.455-2.592l-2.264-4.111c-.379-.685-.888-1.863-1.846-1.73l-.021-.046,2.948-1.6.023.05c-.612.708.093,1.786.477,2.475l2.259,4.1c1.129,2.035,2.513,2.528,4.112,1.657A3.076,3.076,0,0,0,330,475.911a2.277,2.277,0,0,0-.444-1.576l-2.543-4.629c-.384-.693-.921-1.865-1.85-1.741l-.02-.032,2.942-1.6.04.044c-.627.709.082,1.785.473,2.49l3.187,5.8c.382.687.908,1.862,1.863,1.726l.024.044-2.284,1.229-.552-1.011Z" transform="translate(10.191 12.787)" fill="#f3f3f3"/>
    <path id="패스_15" data-name="패스 15" d="M335.624,472.18c.634.753,1.075,1.307,2.141,1.125l.039.038-2.407,1.993-.028-.043c.366-1.015-.09-1.551-.724-2.3l-4.517-5.367c-.632-.739-1.079-1.276-2.13-1.1l-.03-.048,1.98-1.635.011.012a1.1,1.1,0,0,0,.482.173l.423.114,10.187,2.091-4.294-5.086c-.638-.76-1.073-1.3-2.13-1.111l-.035-.044,2.392-1.974.028.045c-.364.985.084,1.524.719,2.272l6.352,7.537a4.837,4.837,0,0,1-3.266.1l-9.573-1.988,4.38,5.2Z" transform="translate(11.224 11.988)" fill="#f3f3f3"/>
    <path id="패스_16" data-name="패스 16" d="M339.289,459.088c-.6-.529-1.491-1.477-2.34-1.029l-.032-.038,2.227-2.481.039.034c-.336.88.713,1.659,1.3,2.18l4.974,4.382c.6.535,1.488,1.465,2.329,1.023l.041.041-2.236,2.479-.039-.035c.349-.86-.7-1.646-1.287-2.163l-4.976-4.392Z" transform="translate(12.2 11.609)" fill="#f3f3f3"/>
    <path id="패스_17" data-name="패스 17" d="M346.453,451.334c-.743-1.107-1.6-2.411-2.582-1.773l-.048-.024,1.506-2.136,7.307,10.673c-1.374.541-1.72.791-3.157.417l-7.453-1.917a5.328,5.328,0,0,0-2.862-.314l-.039-.029,1.466-2.1.163.131a6.715,6.715,0,0,0,1.624.54l7.907,2.066-3.834-5.536Z" transform="translate(12.442 10.721)" fill="#f3f3f3"/>
    <path id="패스_18" data-name="패스 18" d="M355.031,449.607,356.2,447.7a4.338,4.338,0,0,0,.5-3.367l.011-.047L358.456,446l-3.23,6.563-.05-.027c.115-.936-1.116-1.42-1.828-1.764l-5.977-2.891c-.73-.349-1.841-1-2.539-.342l-.043-.029,2.47-5.029a1.8,1.8,0,0,0,.287-.781l.013-.05,1.868.9-.027.047a2.486,2.486,0,0,0-1.544,1.548,9.345,9.345,0,0,0-.683,1.656l2.949,1.433.925-1.872a1.871,1.871,0,0,0,.244-.735l.02-.051,1.685.82-.017.046c-.583.032-.891.7-1.14,1.181l-.569,1.169,3.76,1.819Z" transform="translate(13.06 10.093)" fill="#f3f3f3"/>
    <path id="패스_19" data-name="패스 19" d="M349.172,437.032c.732-2.228,2.309-3.058,3.837-2.564a3.423,3.423,0,0,1,2.084,3.595l3.819-1.411a12.744,12.744,0,0,0,3.248-1.932l-.509,1.52a2.3,2.3,0,0,1-1.475,1.666l-3.2,1.209-2.868.769c.236-1.4.126-3.149-1.451-3.665a2.046,2.046,0,0,0-2.574,1.557,8,8,0,0,0-.234,1.167l7.518,2.429c.771.25,1.967.751,2.55,0l.046.014-1.045,3.186-.045-.013c-.026-.946-1.31-1.238-2.06-1.49l-6.33-2.031c-.774-.255-1.954-.768-2.566-.022l-.05-.014,1.311-3.967Z" transform="translate(13.395 9.294)" fill="#f3f3f3"/>
    <path id="패스_20" data-name="패스 20" d="M353.58,426.605a4.015,4.015,0,0,0-1.543,2.539c-.162.988.018,2.288,1.222,2.474,2.382.4,3.332-5.55,6.551-5.028,1.87.3,3.284,2.523,2.846,5.222a9.015,9.015,0,0,1-1.033,3l-2.259.144a6.032,6.032,0,0,0,2.069-3.544c.162-.983-.184-2.567-1.4-2.764-2.719-.441-3.223,5.58-6.915,4.982-2.191-.357-2.663-2.722-2.311-4.831a8.674,8.674,0,0,1,.807-2.512l1.965.316Z" transform="translate(13.705 8.416)" fill="#f3f3f3"/>
    <path id="패스_21" data-name="패스 21" d="M354,424.135c-.811-.047-2.093-.238-2.478.623h-.046l.187-3.3h.048c.284.886,1.6.86,2.388.9l6.646.376c.8.048,2.073.226,2.466-.621h.05l-.191,3.309-.052-.006c-.264-.891-1.573-.857-2.37-.907L354,424.135Z" transform="translate(13.79 7.889)" fill="#f3f3f3"/>
    <path id="패스_22" data-name="패스 22" d="M360.807,416.037c1.008-.061,1.7-.078,2.191-1.04l.065,0,.182,3.466-.063,0c-.379-.855-1.664-.687-2.457-.641l-7.862.416.082,1.543a3.044,3.044,0,0,0,.82,2.039l0,.049-2.134-.5,0-.05a2,2,0,0,0,.087-.665l-.022-.439-.357-6.525a1.763,1.763,0,0,0-.162-.8l0-.055,2.132.454v.053c-.6.256-.652.962-.627,1.541l.084,1.571,8.044-.418Z" transform="translate(13.757 6.948)" fill="#f3f3f3"/>
    <path id="패스_23" data-name="패스 23" d="M359.43,406.5c1.036-.205,1.549-.309,2.015-1.312l.053-.02.693,3.346-.055.011c-.607-.748-1.7-.4-2.524-.24l-2.556.521-4.038,3.784a4.284,4.284,0,0,0-1.447,1.984l-.314-1.561a1.481,1.481,0,0,1,.216-1.38l3.948-3.667-3.652-1.47c-.493-.2-1.4-.433-1.677.623l-.052.008-.617-3,7.274,2.924,2.734-.555Z" transform="translate(13.565 5.997)" fill="#f3f3f3"/>
    <path id="패스_24" data-name="패스 24" d="M242.424,395.205a1.53,1.53,0,1,1-1.525-1.516,1.525,1.525,0,0,1,1.525,1.516Z" transform="translate(1.551 4.857)" fill="#f3f3f3"/>
    <path id="패스_25" data-name="패스 25" d="M353.721,395.205a1.532,1.532,0,1,1-1.523-1.516,1.523,1.523,0,0,1,1.523,1.516Z" transform="translate(13.7 4.857)" fill="#f3f3f3"/>
    <path id="패스_26" data-name="패스 26" d="M301.548,356.427h-1.5v-3.593h-1.8v9.311a2.376,2.376,0,0,1-1.646.617h-5.039a.135.135,0,0,1-.132-.139v-7.272h5.4v-1.44h-7.19l0,8.71a1.562,1.562,0,0,0,1.58,1.555h5.339a3.181,3.181,0,0,0,1.688-.376v5.012h1.8V357.861h1.5v10.953h1.789v-15.98h-1.789v3.593Z" transform="translate(7.04 0.398)" fill="#f3f3f3"/>
    <path id="패스_27" data-name="패스 27" d="M248.088,387.9l4.559-5.005,4.01,3.591,1.2-1.319-4.01-3.591,4.543-4.983-1.074-.964-10.3,11.312,1.074.961Z" transform="translate(2.386 2.886)" fill="#f3f3f3"/>
    <path id="패스_28" data-name="패스 28" d="M246.512,384.025a1.589,1.589,0,0,0,2.232-.109l5.739-6.3a1.562,1.562,0,0,0-.114-2.216l-4.5-4.029-1.2,1.322,1.821,1.629-5.454,5.987-1.822-1.632L242.01,380l4.5,4.028Zm5.05-8.739,1.606,1.437a.131.131,0,0,1,.009.185L247.9,382.7a.134.134,0,0,1-.187.011l-1.606-1.438,5.453-5.984Z" transform="translate(1.84 2.421)" fill="#f3f3f3"/>
    <path id="패스_29" data-name="패스 29" d="M273.727,356.759l-1.637.726,4.767,10.587,1.639-.725-2.7-6,2.169-.961-.589-1.311-2.171.96-1.477-3.28Z" transform="translate(5.124 0.826)" fill="#f3f3f3"/>
    <path id="패스_30" data-name="패스 30" d="M271.549,372.2l-1.771-3.93-1.635.722,1.768,3.934a1.587,1.587,0,0,0,2.087.79l8.643-3.829-.589-1.306-8.328,3.687a.133.133,0,0,1-.175-.069Z" transform="translate(4.693 2.083)" fill="#f3f3f3"/>
    <path id="패스_31" data-name="패스 31" d="M268.03,361.393l-.636-1.415-1.635.723.636,1.415c1.888,4.189-1.774,6.842-2.025,7.021l1.6.6a7.487,7.487,0,0,0,2.7-4.756,7.622,7.622,0,0,0,5.365,1.18l.611-1.582c-.372.083-4.744.96-6.616-3.191Z" transform="translate(4.281 1.178)" fill="#f3f3f3"/>
    <path id="패스_32" data-name="패스 32" d="M345.108,380.393l-1.2-1.28-4.577,4.244-1.478-1.565,4.578-4.243-1.209-1.283-4.575,4.244-2.58-2.733-1.042.972L343.26,389.6l1.044-.968-3.77-3.991,4.573-4.244Z" transform="translate(11.775 2.956)" fill="#f3f3f3"/>
    <path id="패스_33" data-name="패스 33" d="M345.444,382.687a11.1,11.1,0,0,1-3.362,2.263l1.223,1.3a11.236,11.236,0,0,0,3.356-2.27l4.636-4.3,0,0h0l-8.094-8.577-1.047.969,6.882,7.288-3.594,3.336Z" transform="translate(12.764 2.391)" fill="#f3f3f3"/>
    <path id="패스_34" data-name="패스 34" d="M329.734,366.291l.578-1.32-2.188-.941,1.443-3.293-1.647-.709-3.78,8.636,1.646.709,1.759-4.023,2.188.941Z" transform="translate(10.806 1.183)" fill="#f3f3f3"/>
    <path id="패스_35" data-name="패스 35" d="M326.447,369.475,316.033,365l-.576,1.32,8.767,3.772-1.77,4.051,1.646.711,2.346-5.366,0,0,0-.007Z" transform="translate(9.858 1.725)" fill="#f3f3f3"/>
    <path id="패스_36" data-name="패스 36" d="M326.91,361.143l-4.164-1.794.72-1.643-1.651-.71-.721,1.644-4.157-1.79-.585,1.329,2.03.872a3.432,3.432,0,0,0-1.695,1.711,3.861,3.861,0,0,0,2.286,4.967,3.92,3.92,0,0,0,5.221-1.737,3.386,3.386,0,0,0,.11-2.394l2.029.874.578-1.33Zm-7.355,3.26a2.238,2.238,0,0,1-1.2-2.94,2.273,2.273,0,0,1,2.988-1.137,2.23,2.23,0,0,1,1.2,2.939,2.266,2.266,0,0,1-2.984,1.138Z" transform="translate(9.956 0.836)" fill="#f3f3f3"/>
    <path id="패스_37" data-name="패스 37" d="M383.056,428.144a78.953,78.953,0,1,1-78.951-78.954,78.952,78.952,0,0,1,78.951,78.954Zm-78.951-77.876a77.875,77.875,0,1,0,77.87,77.876,77.876,77.876,0,0,0-77.87-77.876Z" transform="translate(0 0)" fill="#f3f3f3"/>
    <path id="패스_38" data-name="패스 38" d="M359.178,426.005a57.215,57.215,0,1,1-57.212-57.217,57.214,57.214,0,0,1,57.212,57.217Zm-57.212-56.141A56.14,56.14,0,1,0,358.1,426.005a56.141,56.141,0,0,0-56.137-56.141Z" transform="translate(2.139 2.139)" fill="#f3f3f3"/>
    <path id="패스_39" data-name="패스 39" d="M335.878,452.478l-26.563,0c-8.208.061-9.23,5.47-9.23,5.47-1.685-6.134-9.588-5.47-9.588-5.47h-25.96V414.395h25.028c8.327.155,10.541,6.745,10.541,6.745,2.722-6.679,11.331-6.738,11.331-6.738l24.44,0v38.081Zm-26.13-41.872c-7.3.229-9.6,4.511-9.6,4.511-2.314-4.483-9.335-4.492-9.335-4.492H260.731V456.24h29.455c4.02,0,5.437,1.892,5.911,3.245h8.145c1.408-3.416,5.509-3.222,5.509-3.222H339.7V410.606Z" transform="translate(3.884 6.704)" fill="#f3f3f3"/>
    <path id="패스_40" data-name="패스 40" d="M283.467,430.6H272.5v11.053h15.1v-.034h-.017v-7.222h3.826v7.256h15.074v-7.256H310.3v7.245h15.085v-3.823H314.433v-3.427h10.953V422.924H310.3v7.66h-3.814v-7.66h-4.136v7.658h-6.829v-7.658H291.4v7.66H287.6v-7.66H272.491v3.809h10.976V430.6Zm.006,7.253h-6.853v-3.456h6.853v3.456Zm18.891,0h-6.837V434.39h6.837v3.457Zm12.069-11.125h6.835v3.865h-6.835v-3.865Z" transform="translate(5.168 8.049)" fill="#f3f3f3"/>
    <path id="패스_41" data-name="패스 41" d="M294.276,391.689l3.652-1.208h-3.652v1.208Z" transform="translate(7.546 4.507)" fill="#f3f3f3"/>
    <path id="패스_42" data-name="패스 42" d="M290.059,397.4c1.339-1.4,2.737-1.226,2.737-.629a2.5,2.5,0,0,1-.689,1.315H283.45l-4.742-6.837h0c-1.186-1.756-2.7-2.516-5.212-2.516H260.743v20.59c7.754,0,26.835-.017,29.071,0,8.589.081,10.274,3.737,10.274,3.737,1.8-2.844,5.263-3.72,10.609-3.729h28.995l.009-20.6H326.766c-2.5,0-4.015.76-5.2,2.516h-.007l-4.844,6.837h-7.184V392l4.918-4.806-5.08,0,1.282-1.126h-10.29c-2.066,0-3.7.844-4.289,2.016h-3.62c-3.333,0-4.552,1.879-3.87,4.347l1.472,4.962Zm45.817,8.14H311.651c-6.454,0-9.471.438-11.523,2.664-2.213-2.141-3.936-2.654-10.392-2.654h-25.2V392.537h7.916a3.953,3.953,0,0,1,1.867.393,4.222,4.222,0,0,1,1.305,1.136c.522.729,5.221,7.608,5.221,7.608h13.533s1.259-2.609,2.038-4.426.516-3.12-1.161-3.248c-1.411-.109-2.3.225-2.448.809l-.6-2.054c-.36-1.04-.1-1.792,1.348-1.792h4.377c0,.036.1-1.426,2.506-1.426h7.225l-2.036,1.877v10.255h14.031s4.463-6.873,4.991-7.6a4.018,4.018,0,0,1,1.3-1.136,4.262,4.262,0,0,1,1.855-.428l8.067,0v13.037Z" transform="translate(3.885 4.026)" fill="#f3f3f3"/>
    <path id="패스_43" data-name="패스 43" d="M290.632,443.368a2.458,2.458,0,0,0,1.305-1.047h.019V445.7c0,.346-.024.618.3.83v.021H290.99v-.021c.37-.179.344-.466.344-.83v-2.32h-.7v-.016Z" transform="translate(7.148 10.166)" fill="#f3f3f3"/>
    <path id="패스_44" data-name="패스 44" d="M293.5,446.28a2.294,2.294,0,0,0,1.859-2.085,1.159,1.159,0,0,0-1.046-1.283.878.878,0,0,0-.885.9.918.918,0,0,0,.921.979,1.191,1.191,0,0,0,.647-.188l-.411.5a1.523,1.523,0,0,1-.5.082,1.229,1.229,0,0,1-1.263-1.234,1.484,1.484,0,0,1,1.572-1.474,1.571,1.571,0,0,1,1.576,1.656,2.316,2.316,0,0,1-.914,1.771,3.573,3.573,0,0,1-1.86.744l.3-.375Z" transform="translate(7.387 10.184)" fill="#f3f3f3"/>
    <path id="패스_45" data-name="패스 45" d="M297.976,445.232c-.529,0-.966-.027-1.294-.043l1.294-2.175v2.218Zm0,.472v.16c0,.308.041.522-.3.642v.021h1.176v-.021c-.262-.132-.273-.414-.273-.678V445.7h.479l.3-.722a1.193,1.193,0,0,1-.774.25v-2.663h-.837l-1.882,3.136Z" transform="translate(7.719 10.193)" fill="#f3f3f3"/>
    <path id="패스_46" data-name="패스 46" d="M301.875,442.848a2.58,2.58,0,0,0-1.19.642,1.965,1.965,0,0,0-.656,1.457,1.164,1.164,0,0,0,1.066,1.288.837.837,0,0,0,.842-.915.888.888,0,0,0-.935-1,1.281,1.281,0,0,0-.67.2l.393-.49a1.314,1.314,0,0,1,.532-.113,1.23,1.23,0,0,1,1.3,1.27,1.461,1.461,0,0,1-1.53,1.45,1.614,1.614,0,0,1-1.612-1.679c0-1.435,1.447-2.369,2.753-2.482l-.294.374Z" transform="translate(8.107 10.183)" fill="#f3f3f3"/>
  </g>
</svg>
