<svg xmlns="http://www.w3.org/2000/svg" xmlns:xlink="http://www.w3.org/1999/xlink" width="26" height="26" viewBox="0 0 26 26">
  <defs>
    <clipPath id="clip-path">
      <rect id="사각형_2190" data-name="사각형 2190" width="26" height="26" transform="translate(1967 3057)" fill="#222" stroke="#707070" stroke-width="1"/>
    </clipPath>
  </defs>
  <g id="마스크_그룹_52" data-name="마스크 그룹 52" transform="translate(-1967 -3057)" clip-path="url(#clip-path)">
    <g id="focus" transform="translate(1967 3061.002)">
      <path id="패스_328" data-name="패스 328" d="M26.923,13.559A16.054,16.054,0,0,0,23.708,10a16.078,16.078,0,0,0-2.071-1.468l1.557-2.919-1.479-.787L20.152,7.76A14.182,14.182,0,0,0,15.2,6.5l.028-2.942L13.554,3.54l-.028,2.936A14.228,14.228,0,0,0,8.469,7.67L7.146,4.829l-1.518.7L6.973,8.424A16.1,16.1,0,0,0,4.7,10a16.3,16.3,0,0,0-3.243,3.556l-.274.435.274.441A16.127,16.127,0,0,0,4.7,17.991a14.831,14.831,0,0,0,9.511,3.544A14.74,14.74,0,0,0,23.7,17.991a16.054,16.054,0,0,0,3.215-3.556L27.185,14Zm-4.331,3.182a12.892,12.892,0,0,1-8.373,3.12,12.986,12.986,0,0,1-8.4-3.12A15.841,15.841,0,0,1,3.195,14a15.841,15.841,0,0,1,2.623-2.741,12.831,12.831,0,0,1,16.773,0,15.271,15.271,0,0,1,2.6,2.746A16.356,16.356,0,0,1,22.591,16.741Z" transform="translate(-1.185 -3.54)" stroke="#707070" stroke-width="0.052"/>
      <path id="패스_329" data-name="패스 329" d="M13.577,8.548a5.029,5.029,0,1,0,5.029,5.029A5.034,5.034,0,0,0,13.577,8.548Zm0,8.384a3.355,3.355,0,1,1,3.355-3.355A3.358,3.358,0,0,1,13.577,16.932Z" transform="translate(-0.571 -3.122)" stroke="#707070" stroke-width="0.052"/>
    </g>
  </g>
</svg>
