<svg id="그룹_3812" data-name="그룹 3812" xmlns="http://www.w3.org/2000/svg" width="24" height="21.6" viewBox="0 0 24 21.6">
  <path id="패스_144" data-name="패스 144" d="M19.8,34.533a4.186,4.186,0,0,0-3.645,2.155L8.288,33.662a3.836,3.836,0,0,0-.081-2.118l8.076-3.728a4.189,4.189,0,1,0-.684-2.283,4.142,4.142,0,0,0,.192,1.189L7.716,30.45a4.211,4.211,0,1,0,.129,4.329L15.712,37.8A4.2,4.2,0,1,0,19.8,34.533Zm0-12a3,3,0,1,1-3,3A3,3,0,0,1,19.8,22.533ZM4.2,35.733a3,3,0,1,1,3-3A3,3,0,0,1,4.2,35.733Zm15.6,6a3,3,0,1,1,3-3A3,3,0,0,1,19.8,41.733Z" transform="translate(0 -21.333)" fill="#222"/>
</svg>
