<svg xmlns="http://www.w3.org/2000/svg" xmlns:xlink="http://www.w3.org/1999/xlink" width="23" height="28" viewBox="0 0 23 28">
  <defs>
    <clipPath id="clip-path">
      <rect id="사각형_1423" data-name="사각형 1423" width="23" height="28" transform="translate(317 258)" fill="red"/>
    </clipPath>
  </defs>
  <g id="icon_06_wh" transform="translate(-317 -258)" clip-path="url(#clip-path)">
    <path id="icon_06_wh-2" data-name="icon_06_wh" d="M11.5,0a11.444,11.444,0,0,0-.885,22.858V26.12a.883.883,0,0,0,1.164.834A16.348,16.348,0,0,0,23,11.446,11.486,11.486,0,0,0,11.5,0Zm-.885,13.292a4.043,4.043,0,0,1-2.258,3.637.887.887,0,0,1-1.187-.394.877.877,0,0,1,.4-1.179A2.289,2.289,0,0,0,8.832,13.5H6.192a.882.882,0,0,1-.885-.88V9.1a.882.882,0,0,1,.885-.88H9.731a.882.882,0,0,1,.884.88Zm7.077,0a4.043,4.043,0,0,1-2.258,3.637.887.887,0,0,1-1.187-.394.876.876,0,0,1,.4-1.179A2.289,2.289,0,0,0,15.909,13.5H13.269a.882.882,0,0,1-.885-.88V9.1a.882.882,0,0,1,.885-.88h3.538a.882.882,0,0,1,.885.88Z" transform="translate(317 259)" fill="#fff"/>
  </g>
</svg>
