<svg xmlns="http://www.w3.org/2000/svg" width="28" height="12" viewBox="0 0 28 12">
  <g id="badge_new" transform="translate(-913 -599)">
    <rect id="사각형_1143" data-name="사각형 1143" width="28" height="12" rx="6" transform="translate(913 599)" fill="#fc4ead"/>
    <path id="패스_188" data-name="패스 188" d="M-16.7-5.864h.768l2.136,3.7.624,1.208h.04q-.032-.448-.064-.924t-.032-.932V-5.864h.7V0h-.76l-2.136-3.7-.632-1.2h-.032q.024.447.056.907T-16-3.07V0h-.7Zm5.776,0H-7.54v.624h-2.64v1.848h2.22v.624h-2.224V-.624h2.728V0h-3.472Zm4.1,0h.768l.616,3.192q.088.48.172.948t.172.948h.032q.1-.48.208-.948t.216-.948l.808-3.192h.672l.824,3.192q.112.472.212.944t.2.952h.04q.168-.96.336-1.9l.616-3.192H-.22L-1.432,0H-2.32l-.888-3.536q-.08-.352-.148-.676t-.14-.66h-.032q-.072.336-.148.66t-.148.676L-4.7,0h-.88Z" transform="translate(935.702 607.865)" fill="#fff"/>
  </g>
</svg>
