<svg xmlns="http://www.w3.org/2000/svg" width="16" height="19" viewBox="0 0 16 19">
  <path id="icon_03_wh" d="M59.769,701.373H56.077c-.364-1.034-.763-2.376-2.461-2.376-2.545,0-3.328,1.342-3.692,2.376H46.231c-.982,0-1.231,1.39-1.231,2.374v12.469A1.778,1.778,0,0,0,46.778,718H59.222A1.778,1.778,0,0,0,61,716.216V703.747C61,702.764,60.751,701.373,59.769,701.373ZM53,701.966a.891.891,0,1,1-.889.891A.89.89,0,0,1,53,701.966ZM55,715H48v-2h7Zm3-4H48v-2H58Zm0-4H48v-2H58Z" transform="translate(-45 -698.997)" fill="#fff"/>
</svg>
