<svg xmlns="http://www.w3.org/2000/svg" width="28" height="26.247" viewBox="0 0 28 26.247">
  <path id="icon_img" d="M24.835,9.35H3.167A3.17,3.17,0,0,0,0,12.518V32.433A3.168,3.168,0,0,0,3.167,35.6H24.835A3.167,3.167,0,0,0,28,32.433V12.518A3.169,3.169,0,0,0,24.835,9.35Zm-6.728,4.712a3.059,3.059,0,1,1-3.059,3.059A3.059,3.059,0,0,1,18.106,14.062ZM23.842,32.67H4.6a.865.865,0,0,1-.84-1.365l5.249-10.4a.884.884,0,0,1,1.619-.15l5.279,6.9a1.294,1.294,0,0,0,2,.127L19.2,26.474a1.229,1.229,0,0,1,1.952.165l3.344,4.776C24.978,32.109,24.686,32.67,23.842,32.67Z" transform="translate(0 -9.35)" fill="#e7eaec"/>
</svg>
