<svg xmlns="http://www.w3.org/2000/svg" xmlns:xlink="http://www.w3.org/1999/xlink" width="23" height="28" viewBox="0 0 23 28">
  <defs>
    <clipPath id="clip-path">
      <rect id="사각형_1428" data-name="사각형 1428" width="23" height="28" transform="translate(317 146)" fill="red"/>
    </clipPath>
  </defs>
  <g id="icon_02_wh" transform="translate(-317 -146)" clip-path="url(#clip-path)">
    <path id="icon_02_wh-2" data-name="icon_02_wh" d="M63.643,372.261l2.509-7.526a.733.733,0,0,0-.071-.723,1.125,1.125,0,0,0-.9-.371l-14.178,0-.378-1.8a1,1,0,0,0-1.013-.831L46.329,361c-.413,0-1.336.2-1.336.591l.01.736a1.2,1.2,0,0,0,1.327,1.327h2.653l2.6,10.405a2.5,2.5,0,0,0,1.719,4.155,2.626,2.626,0,0,0,2.33-1.866h5.014a2.456,2.456,0,0,0,2.329,1.895,2.414,2.414,0,0,0,2.349-2.422,2.261,2.261,0,0,0-2.336-2.436,2.286,2.286,0,0,0-1.768.872H55.058a1.954,1.954,0,0,0-1.676-.938l-.084-.457h9.375c.706,0,.846-.259.971-.6ZM52.39,375.788a.893.893,0,1,1,.894.9A.9.9,0,0,1,52.39,375.788Zm10.6.885a.885.885,0,1,1,.883-.885A.885.885,0,0,1,62.993,376.674Z" transform="translate(273.007 -209.998)" fill="#fff"/>
  </g>
</svg>
