<svg xmlns="http://www.w3.org/2000/svg" width="17.01" height="20" viewBox="0 0 17.01 20">
  <path id="icon_06" d="M53.5,538a8.477,8.477,0,0,0-.654,16.931v2.417a.653.653,0,0,0,.861.618A12.108,12.108,0,0,0,62,546.476,8.5,8.5,0,0,0,53.5,538Zm-.654,9.845a3,3,0,0,1-1.67,2.694.652.652,0,1,1-.585-1.165A1.7,1.7,0,0,0,51.527,548H49.575a.653.653,0,0,1-.654-.652v-2.609a.653.653,0,0,1,.654-.652h2.617a.653.653,0,0,1,.654.652Zm5.234,0a3,3,0,0,1-1.67,2.694.652.652,0,1,1-.585-1.165A1.7,1.7,0,0,0,56.76,548H54.808a.653.653,0,0,1-.654-.652v-2.609a.653.653,0,0,1,.654-.652h2.617a.653.653,0,0,1,.654.652Z" transform="translate(-44.994 -537.998)" fill="#6a707e"/>
</svg>
