<svg xmlns="http://www.w3.org/2000/svg" width="16.004" height="16.004" viewBox="0 0 16.004 16.004">
  <path id="icon_01_on" d="M61,596.089A2.094,2.094,0,0,0,58.908,594H47.092A2.094,2.094,0,0,0,45,596.089v11.816A2.094,2.094,0,0,0,47.092,610H58.908A2.094,2.094,0,0,0,61,607.905Zm-8.045,1.619a2.042,2.042,0,1,1-2.042,2.043A2.042,2.042,0,0,1,52.957,597.708Zm3.308,9.452H49.792a1.123,1.123,0,0,1-1.117-1.123,4.208,4.208,0,0,1,2.627-3.9,2.9,2.9,0,0,0,3.361-.038,4.212,4.212,0,0,1,2.72,3.939A1.123,1.123,0,0,1,56.265,607.16Z" transform="translate(-44.998 -593.996)" fill="#3c3c64"/>
</svg>
