<svg xmlns="http://www.w3.org/2000/svg" xmlns:xlink="http://www.w3.org/1999/xlink" width="23" height="28" viewBox="0 0 23 28">
  <defs>
    <clipPath id="clip-path">
      <rect id="사각형_1425" data-name="사각형 1425" width="23" height="28" transform="translate(541 259)" fill="red"/>
    </clipPath>
  </defs>
  <g id="icon_08_wh" transform="translate(-541 -259)" clip-path="url(#clip-path)">
    <path id="icon_08_wh-2" data-name="icon_08_wh" d="M12.922,19H1.62C.568,19,0,16.96,0,15.721V.56A.524.524,0,0,1,.477,0H20.523A.524.524,0,0,1,21,.56V15.721C21,16.96,20.433,19,19.38,19ZM2.629,16.288H18.371V2.719H2.629Zm12.13-1.365c-.181,0-.327-.214-.327-.477V5.891c0-.264.146-.475.327-.475h1.963c.181,0,.327.211.327.475v8.555c0,.264-.146.477-.327.477Zm-5.254,0c-.183,0-.332-.227-.332-.509V7.295c0-.281.149-.508.332-.508H11.5c.183,0,.332.227.332.508v7.118c0,.282-.149.509-.332.509Zm-5.227,0c-.181,0-.327-.242-.327-.54V10.058c0-.3.146-.54.327-.54H6.241c.181,0,.327.242.327.54v4.323c0,.3-.146.54-.327.54Z" transform="translate(542 264)" fill="#fff"/>
  </g>
</svg>
