<svg xmlns="http://www.w3.org/2000/svg" xmlns:xlink="http://www.w3.org/1999/xlink" width="23" height="28" viewBox="0 0 23 28">
  <defs>
    <clipPath id="clip-path">
      <rect id="사각형_1429" data-name="사각형 1429" width="23" height="28" transform="translate(218 146)" fill="red"/>
    </clipPath>
  </defs>
  <g id="icon_01_wh" transform="translate(-218 -146)" clip-path="url(#clip-path)">
    <path id="icon_01_wh-2" data-name="icon_01_wh" d="M66.231,596.773A2.778,2.778,0,0,0,63.453,594H47.776A2.778,2.778,0,0,0,45,596.773V612.45a2.778,2.778,0,0,0,2.778,2.778H63.453a2.778,2.778,0,0,0,2.778-2.778Zm-10.673,2.148a2.71,2.71,0,1,1-2.71,2.71A2.709,2.709,0,0,1,55.557,598.921Zm4.389,12.54H51.358a1.49,1.49,0,0,1-1.482-1.49,5.582,5.582,0,0,1,3.486-5.176,3.849,3.849,0,0,0,4.459-.05,5.588,5.588,0,0,1,3.608,5.226A1.49,1.49,0,0,1,59.946,611.461Z" transform="translate(174.002 -444.996)" fill="#fff"/>
  </g>
</svg>
