<?xml version="1.0" encoding="utf-8"?>
<!-- Generator: Adobe Illustrator 22.1.0, SVG Export Plug-In . SVG Version: 6.00 Build 0)  -->
<svg version="1.1" id="레이어_1" xmlns="http://www.w3.org/2000/svg" xmlns:xlink="http://www.w3.org/1999/xlink" x="0px"
	 y="0px" viewBox="0 0 137.5 30" style="enable-background:new 0 0 137.5 30;" xml:space="preserve">
<style type="text/css">
	.st0{fill:url(#SVGID_1_);}
	.st1{fill:url(#SVGID_2_);}
	.st2{fill:url(#SVGID_3_);}
	.st3{fill:#FFFFFF;}
</style>
<g>
	<g>
		<linearGradient id="SVGID_1_" gradientUnits="userSpaceOnUse" x1="-0.5435" y1="15" x2="26.1613" y2="15">
			<stop  offset="0" style="stop-color:#F08C00"/>
			<stop  offset="0.3617" style="stop-color:#EF8A01"/>
			<stop  offset="0.5338" style="stop-color:#ED8202"/>
			<stop  offset="0.6658" style="stop-color:#E97506"/>
			<stop  offset="0.7773" style="stop-color:#E3630A"/>
			<stop  offset="0.876" style="stop-color:#DC4B10"/>
			<stop  offset="0.9642" style="stop-color:#D32E17"/>
			<stop  offset="1" style="stop-color:#CF201B"/>
		</linearGradient>
		<path class="st0" d="M27.2,18c-0.7,0-1.4-0.1-2-0.4c-1.2,4.6-5.3,8-10.2,8C9.2,25.6,4.4,20.8,4.4,15C4.4,9.2,9.2,4.4,15,4.4
			c3.7,0,6.9,1.9,8.8,4.8c0.9-0.8,2.1-1.3,3.4-1.3c0.3,0,0.7,0,1,0.1C25.7,3.2,20.7,0,15,0C6.7,0,0,6.7,0,15s6.7,15,15,15
			c3.9,0,7.5-1.5,10.2-4l4.6,3.5V17.3l0,0c0,0,0,0,0,0C29.1,17.7,28.2,18,27.2,18z"/>
		<linearGradient id="SVGID_2_" gradientUnits="userSpaceOnUse" x1="23.8107" y1="12.9322" x2="30.6751" y2="12.9322">
			<stop  offset="0" style="stop-color:#E48020"/>
			<stop  offset="0.2809" style="stop-color:#DD611E"/>
			<stop  offset="0.7604" style="stop-color:#D3321C"/>
			<stop  offset="1" style="stop-color:#CF201B"/>
		</linearGradient>
		<path class="st1" d="M30.7,12.9c0,1.9-1.5,3.4-3.4,3.4c-1.9,0-3.4-1.5-3.4-3.4c0-1.9,1.5-3.4,3.4-3.4C29.1,9.5,30.7,11,30.7,12.9z
			"/>
		<linearGradient id="SVGID_3_" gradientUnits="userSpaceOnUse" x1="12.6242" y1="27.7902" x2="12.6242" y2="2.2098">
			<stop  offset="0" style="stop-color:#FFE600"/>
			<stop  offset="1" style="stop-color:#B31E22"/>
		</linearGradient>
		<path class="st2" d="M12.6,27.8c6.1,0,11.5-4.4,12.6-10.2c0,0,0,0,0,0c-1.2,4.6-5.3,8-10.2,8C9.2,25.6,4.4,20.8,4.4,15
			C4.4,9.2,9.2,4.4,15,4.4c3.7,0,6.9,1.9,8.8,4.7c-2.1-4.1-6.3-7-11.2-7C5.9,2.2,0.4,7.6,0,14.3c0,0.2,0,0.4,0,0.7
			c0,0.2,0,0.4,0,0.7C0.4,22.4,5.9,27.8,12.6,27.8z"/>
	</g>
	<g>
		<path class="st3" d="M52.5,25.1L51,21.2h-7l-1.5,3.9h-3.7l7.1-17.5h3.4l7.1,17.5H52.5z M47.5,12.2l-2.2,5.6h4.4L47.5,12.2z"/>
		<path class="st3" d="M60.7,25.1V7.7h3.8v17.4H60.7z"/>
		<path class="st3" d="M84.2,23.6c-0.5,0.4-1,0.7-1.6,1c-0.6,0.3-1.2,0.5-1.9,0.6c-0.7,0.1-1.4,0.2-2.3,0.2c-1.3,0-2.5-0.2-3.5-0.7
			c-1.1-0.5-2-1.1-2.8-1.9c-0.8-0.8-1.4-1.7-1.9-2.8c-0.4-1.1-0.7-2.3-0.7-3.5v0c0-1.2,0.2-2.4,0.7-3.5c0.4-1.1,1.1-2,1.9-2.9
			c0.8-0.8,1.7-1.5,2.9-1.9c1.1-0.5,2.3-0.7,3.7-0.7c0.8,0,1.5,0.1,2.2,0.2c0.7,0.1,1.3,0.3,1.8,0.5c0.5,0.2,1,0.5,1.5,0.8
			c0.5,0.3,0.9,0.7,1.3,1.1L83,12.9c-0.7-0.6-1.4-1.1-2.1-1.4c-0.7-0.3-1.5-0.5-2.4-0.5c-0.7,0-1.4,0.1-2,0.4
			C76,11.6,75.4,12,75,12.5c-0.4,0.5-0.8,1.1-1,1.7c-0.2,0.7-0.4,1.4-0.4,2.1v0.1c0,0.7,0.1,1.4,0.4,2.1c0.2,0.7,0.6,1.2,1,1.7
			c0.4,0.5,1,0.9,1.6,1.2c0.6,0.3,1.3,0.4,2,0.4c1,0,1.8-0.2,2.5-0.5c0.7-0.4,1.4-0.9,2-1.5l2.4,2.5C85.1,22.8,84.7,23.2,84.2,23.6z
			"/>
		<path class="st3" d="M104.5,19.8c-0.4,1.1-1,2-1.8,2.8c-0.8,0.8-1.7,1.4-2.7,1.8c-1,0.4-2.2,0.7-3.5,0.7h-6.3V7.7h6.3
			c1.3,0,2.4,0.2,3.5,0.7c1,0.4,1.9,1,2.7,1.8c0.8,0.8,1.3,1.7,1.8,2.7c0.4,1.1,0.6,2.2,0.6,3.4v0.1
			C105.1,17.6,104.9,18.8,104.5,19.8z M101.4,16.4c0-0.8-0.1-1.5-0.4-2.1c-0.2-0.6-0.6-1.2-1-1.7c-0.4-0.5-0.9-0.8-1.5-1.1
			c-0.6-0.3-1.3-0.4-2-0.4h-2.7v10.5h2.7c0.7,0,1.4-0.1,2-0.4c0.6-0.2,1.1-0.6,1.5-1.1c0.4-0.5,0.7-1,1-1.6
			C101.3,17.9,101.4,17.2,101.4,16.4L101.4,16.4z"/>
		<path class="st3" d="M121.2,18.8c-0.2-0.6-0.5-1.1-0.9-1.6c-0.4-0.5-0.9-0.9-1.6-1.3c-0.6-0.4-1.4-0.7-2.2-1.1
			c-0.7-0.3-1.3-0.6-1.8-0.8c-0.5-0.2-0.8-0.4-1.1-0.6c-0.3-0.2-0.4-0.4-0.5-0.6c-0.1-0.2-0.1-0.5-0.1-0.7l0,0
			c0.1-0.4,0.3-0.8,0.7-1c0.4-0.2,1-0.3,1.7-0.2c0.7,0.1,1.5,0.4,2.1,0.8c0.7,0.4,1.4,0.9,2.1,1.5l0.5-4c-0.3-0.2-0.6-0.4-0.9-0.6
			c-1-0.5-2.1-0.9-3.4-1c-0.9-0.1-1.7-0.1-2.5,0c-0.8,0.1-1.4,0.4-2,0.8c-0.6,0.4-1.1,0.9-1.5,1.5c-0.4,0.6-0.6,1.3-0.7,2.1l0,0
			c-0.1,0.9-0.1,1.6,0.1,2.2c0.2,0.6,0.5,1.1,1,1.6c0.4,0.5,1,0.9,1.7,1.2c0.7,0.4,1.4,0.7,2.3,1c0.7,0.3,1.3,0.5,1.7,0.8
			c0.4,0.2,0.8,0.4,1,0.6c0.2,0.2,0.4,0.4,0.4,0.6c0.1,0.2,0.1,0.4,0,0.7l0,0c-0.1,0.5-0.3,0.9-0.8,1.1c-0.5,0.2-1.1,0.3-1.9,0.2
			c-1-0.1-1.9-0.4-2.6-0.9c-0.8-0.5-1.5-1.1-2.2-1.9l0,0l-0.6,4.2c0.4,0.3,0.7,0.5,1.1,0.7c1.2,0.6,2.5,1,3.8,1.2
			c0.9,0.1,1.8,0.1,2.6,0c0.8-0.1,1.5-0.4,2.1-0.8c0.6-0.4,1.1-0.9,1.5-1.5c0.4-0.6,0.7-1.4,0.8-2.2l0,0
			C121.4,20,121.4,19.3,121.2,18.8z"/>
		<path class="st3" d="M137.3,18.8c-0.2-0.6-0.5-1.1-0.9-1.6c-0.4-0.5-0.9-0.9-1.6-1.3c-0.6-0.4-1.4-0.7-2.2-1.1
			c-0.7-0.3-1.3-0.6-1.8-0.8c-0.5-0.2-0.8-0.4-1.1-0.6c-0.3-0.2-0.4-0.4-0.5-0.6c-0.1-0.2-0.1-0.5-0.1-0.7l0,0
			c0.1-0.4,0.3-0.8,0.7-1c0.4-0.2,1-0.3,1.7-0.2c0.7,0.1,1.5,0.4,2.1,0.8c0.7,0.4,1.4,0.9,2.1,1.5l0.5-4c-0.3-0.2-0.6-0.4-0.9-0.6
			c-1-0.5-2.1-0.9-3.4-1c-0.9-0.1-1.7-0.1-2.5,0c-0.8,0.1-1.4,0.4-2,0.8c-0.6,0.4-1.1,0.9-1.5,1.5c-0.4,0.6-0.6,1.3-0.7,2.1l0,0
			c-0.1,0.9-0.1,1.6,0.1,2.2c0.2,0.6,0.5,1.1,1,1.6c0.4,0.5,1,0.9,1.7,1.2c0.7,0.4,1.4,0.7,2.3,1c0.7,0.3,1.3,0.5,1.7,0.8
			c0.4,0.2,0.8,0.4,1,0.6c0.2,0.2,0.4,0.4,0.4,0.6c0.1,0.2,0.1,0.4,0,0.7l0,0c-0.1,0.5-0.3,0.9-0.8,1.1c-0.5,0.2-1.1,0.3-1.9,0.2
			c-1-0.1-1.9-0.4-2.6-0.9c-0.8-0.5-1.5-1.1-2.2-1.9l0,0l-0.6,4.2c0.4,0.3,0.7,0.5,1.1,0.7c1.2,0.6,2.5,1,3.8,1.2
			c0.9,0.1,1.8,0.1,2.6,0c0.8-0.1,1.5-0.4,2.1-0.8c0.6-0.4,1.1-0.9,1.5-1.5c0.4-0.6,0.7-1.4,0.8-2.2l0,0
			C137.5,20,137.5,19.3,137.3,18.8z"/>
	</g>
</g>
</svg>
