<?xml version="1.0" encoding="utf-8"?>
<!-- Generator: Adobe Illustrator 22.1.0, SVG Export Plug-In . SVG Version: 6.00 Build 0)  -->
<svg version="1.1" id="레이어_1" xmlns="http://www.w3.org/2000/svg" xmlns:xlink="http://www.w3.org/1999/xlink" x="0px"
	 y="0px" viewBox="0 0 76.9 10" style="enable-background:new 0 0 76.9 10;" xml:space="preserve">
<style type="text/css">
	.st0{clip-path:url(#SVGID_2_);fill:#464A58;}
	.st1{clip-path:url(#SVGID_2_);}
	.st2{clip-path:url(#SVGID_4_);fill:#464A58;}
	.st3{clip-path:url(#SVGID_4_);fill:#87CDCE;}
</style>
<g id="아트웍_4_1_">
	<g>
		<defs>
			<rect id="SVGID_1_" width="76.9" height="10"/>
		</defs>
		<clipPath id="SVGID_2_">
			<use xlink:href="#SVGID_1_"  style="overflow:visible;"/>
		</clipPath>
		<polygon class="st0" points="15.9,4 15.9,6.8 11.3,6.8 11.3,4 9.4,4 9.4,10 11.3,10 11.3,8.8 15.9,8.8 15.9,10 17.9,10 17.9,4 		
			"/>
		<g class="st1">
			<defs>
				<rect id="SVGID_3_" y="0" width="76.9" height="10"/>
			</defs>
			<clipPath id="SVGID_4_">
				<use xlink:href="#SVGID_3_"  style="overflow:visible;"/>
			</clipPath>
			<path class="st2" d="M34.6,6.2c0.1,0,0.2-0.1,0.3-0.1c0.9-0.4,1.4-1.3,1.4-2.2c0-0.6-0.2-1.2-0.7-1.7c-0.5-0.5-1.1-0.7-1.7-0.7
				h-5.3V10h2V6.3h1.2c0.4,0,0.8,0.2,1,0.6l1.6,3.1h2.2l-0.9-1.8L34.6,6.2z M30.6,3.4H34c0.2,0,0.3,0.1,0.3,0.1c0,0,0.1,0.2,0.1,0.3
				c0,0.2-0.1,0.4-0.3,0.4l0,0c-0.1,0-0.1,0-0.2,0l-3.4,0V3.4z"/>
			<path class="st2" d="M37.7,3.9v3.7c0,1.3,1.1,2.4,2.4,2.4h5.4v-2h-5.4c-0.3,0-0.5-0.2-0.5-0.5V6.7h5.1v-2h-5.1V3.9
				c0-0.3,0.2-0.5,0.5-0.5h5.4v-2h-5.4C38.7,1.5,37.7,2.6,37.7,3.9"/>
			<path class="st2" d="M54.3,5c0.2-0.3,0.3-0.7,0.3-1.1c0-1.3-1.1-2.4-2.4-2.4h-5.3V10h5.7c1.5,0,2.8-1.3,2.8-2.8
				C55.4,6.3,55,5.5,54.3,5 M52.2,4.4h-3.4V3.4h3.4c0.3,0,0.5,0.2,0.5,0.5C52.6,4.2,52.4,4.4,52.2,4.4 M48.8,6.3h3.8
				c0.5,0,0.9,0.4,0.9,0.9S53,8,52.6,8l-0.3,0h-3.5V6.3z"/>
			<rect x="56.3" y="1.5" class="st2" width="2" height="8.5"/>
			<polygon class="st2" points="59.2,3.4 62.5,3.4 62.5,10 64.4,10 64.4,3.4 67.7,3.4 67.7,1.5 59.2,1.5 			"/>
			<path class="st2" d="M71.2,4.8c-0.4,0-0.7-0.4-0.6-0.8c0.1-0.3,0.3-0.4,0.6-0.4h5.7c0-1.1-0.9-2-2-2h-3.7c-1.5,0-2.7,1.2-2.6,2.7
				c0,0,0,0.3,0,0.5c0,1.1,0.9,2,2,2h0.7h3c0.4,0,0.7,0.4,0.6,0.8C74.8,7.9,74.5,8,74.2,8h-5.7c0,1.1,0.9,2,2,2h3.6
				c1.4,0,2.6-1.1,2.7-2.5c0-0.3,0-0.7,0-0.7c0-1.1-0.9-2-2-2h-0.6H71.2z"/>
			<path class="st2" d="M2.6,4.8C2.2,4.8,1.9,4.3,2,3.9c0.1-0.3,0.3-0.4,0.6-0.4h5.7c0-1.1-0.9-2-2-2H2.6C1.1,1.5-0.1,2.7,0,4.2
				c0,0,0,0.3,0,0.5c0,1.1,0.9,2,2,2h0.7h3c0.4,0,0.7,0.4,0.6,0.8C6.2,7.9,5.9,8,5.7,8H0c0,1.1,0.9,2,2,2h3.6c1.4,0,2.6-1.1,2.7-2.5
				c0-0.3,0-0.7,0-0.7c0-1.1-0.9-2-2-2H5.7H2.6z"/>
			<polygon class="st3" points="16.6,3 13.6,0 10.6,3 12.3,3 12.9,2.3 12.9,5.3 14.3,5.3 14.3,2.3 15,3 			"/>
			<path class="st2" d="M25.5,10h2.2l-4.5-8.8l-3.6,7L18.6,10h2.2l0.6-1.2h3.4L25.5,10z M22.3,7.1l0.9-1.7L24,7.1H22.3z"/>
		</g>
	</g>
</g>
</svg>
