<svg xmlns="http://www.w3.org/2000/svg" width="42.685" height="62.284" viewBox="0 0 42.685 62.284">
  <g id="btn_type-solo" transform="translate(-879.007 -773.9)">
    <g id="그룹_840" data-name="그룹 840" transform="translate(-13 -18)">
      <path id="패스_2879" data-name="패스 2879" d="M933.942,829.905c0,4.719-5.49,8.545-12.26,8.545h0c-6.772,0-12.261-3.826-12.261-8.545V815.692c0-4.719,5.489-8.545,12.261-8.545h0c6.77,0,12.26,3.826,12.26,8.545Z" fill="#6d6d6d" stroke="#272720" stroke-width="1.5"/>
      <g id="그룹_839" data-name="그룹 839">
        <g id="그룹_833" data-name="그룹 833">
          <path id="패스_2880" data-name="패스 2880" d="M930.311,850.3a18.777,18.777,0,0,0-37.554,0v3.136h37.554Z" fill="#ffe8c2" stroke="#272720" stroke-linejoin="round" stroke-width="1.5"/>
        </g>
        <g id="그룹_834" data-name="그룹 834">
          <path id="패스_2881" data-name="패스 2881" d="M930.311,815.8v-4.369a18.777,18.777,0,1,0-37.554,0V815.8a16.753,16.753,0,0,0,1.012,5.847H929.3A16.752,16.752,0,0,0,930.311,815.8Z" fill="#6d6d6d" stroke="#272720" stroke-width="1.5"/>
        </g>
        <path id="패스_2882" data-name="패스 2882" d="M916.055,837.861a4.521,4.521,0,0,1-4.521,4.52h0a4.52,4.52,0,0,1-4.52-4.52v-5.912a4.52,4.52,0,0,1,4.52-4.519h0a4.52,4.52,0,0,1,4.521,4.519Z" fill="#fff" stroke="#272720" stroke-linejoin="round" stroke-width="1.5"/>
        <g id="그룹_835" data-name="그룹 835">
          <path id="패스_2883" data-name="패스 2883" d="M900.7,819.926a3.582,3.582,0,0,1-1.464,4.848h0a3.58,3.58,0,0,1-4.848-1.464l-.261-.485a3.582,3.582,0,0,1,1.464-4.849h0a3.58,3.58,0,0,1,4.847,1.465Z" fill="#fff" stroke="#272720" stroke-linejoin="round" stroke-width="1.5"/>
          <path id="패스_2884" data-name="패스 2884" d="M922.365,819.926a3.582,3.582,0,0,0,1.464,4.848h0a3.581,3.581,0,0,0,4.848-1.464l.26-.485a3.583,3.583,0,0,0-1.463-4.849h0a3.582,3.582,0,0,0-4.849,1.465Z" fill="#fff" stroke="#272720" stroke-linejoin="round" stroke-width="1.5"/>
        </g>
        <g id="그룹_836" data-name="그룹 836">
          <path id="패스_2885" data-name="패스 2885" d="M897.451,815.424v3.138c0,8.353,6.306,15.125,14.083,15.125s14.083-6.772,14.083-15.125v-8.048C914.9,816.41,901.462,815.776,897.451,815.424Z" fill="#fff" stroke="#272720" stroke-linejoin="round" stroke-width="1.5"/>
        </g>
        <g id="그룹_838" data-name="그룹 838">
          <g id="그룹_837" data-name="그룹 837">
            <path id="패스_2886" data-name="패스 2886" d="M906.48,822.816a1.3,1.3,0,0,1-1.295,1.3h0a1.3,1.3,0,0,1-1.3-1.3v-2.333a1.3,1.3,0,0,1,1.3-1.295h0a1.3,1.3,0,0,1,1.295,1.295Z" fill="#212121"/>
            <path id="패스_2887" data-name="패스 2887" d="M919.179,822.816a1.3,1.3,0,0,1-1.3,1.3h0a1.3,1.3,0,0,1-1.295-1.3v-2.333a1.3,1.3,0,0,1,1.295-1.295h0a1.3,1.3,0,0,1,1.3,1.295Z" fill="#212121"/>
          </g>
        </g>
      </g>
    </g>
    <circle id="타원_357" data-name="타원 357" cx="6.763" cy="6.763" r="6.763" transform="translate(907.076 813.734)" fill="#fff" stroke="#272720" stroke-linejoin="round" stroke-width="1.5"/>
    <g id="그룹_841" data-name="그룹 841" transform="translate(911.638 816.714)">
      <g id="패스_2888" data-name="패스 2888" transform="translate(-922.899 -832.543)" fill="none" stroke-linejoin="round">
        <path d="M926.3,839.724H924.71v-5.457l-1.812,1.087v-1.637l2.02-1.175H926.3Z" stroke="none"/>
        <path d="M 926.3028564453125 839.7239990234375 L 926.3028564453125 832.54296875 L 924.919189453125 832.54296875 L 922.89892578125 833.7178955078125 L 922.89892578125 835.3544311523438 L 924.71044921875 834.2669677734375 L 924.71044921875 839.7239990234375 L 926.3028564453125 839.7239990234375 M 926.3028564453125 841.2239990234375 L 924.71044921875 841.2239990234375 C 923.8820190429688 841.2239990234375 923.21044921875 840.5524291992188 923.21044921875 839.7239990234375 L 923.21044921875 836.82177734375 C 923.1078491210938 836.843505859375 923.0033569335938 836.8544311523438 922.89892578125 836.8544311523438 C 922.6442260742188 836.8544311523438 922.3894653320313 836.7896728515625 922.1600341796875 836.6597900390625 C 921.689697265625 836.3935546875 921.39892578125 835.8948974609375 921.39892578125 835.3544311523438 L 921.39892578125 833.7178955078125 C 921.39892578125 833.1836547851563 921.6830444335938 832.6898193359375 922.1448364257813 832.4212036132813 L 924.1651000976563 831.246337890625 C 924.3941040039063 831.1131591796875 924.654296875 831.04296875 924.919189453125 831.04296875 L 926.3028564453125 831.04296875 C 927.1312866210938 831.04296875 927.8028564453125 831.7145385742188 927.8028564453125 832.54296875 L 927.8028564453125 839.7239990234375 C 927.8028564453125 840.5524291992188 927.1312866210938 841.2239990234375 926.3028564453125 841.2239990234375 Z" stroke="none" fill="#272720"/>
      </g>
    </g>
  </g>
</svg>
