<svg xmlns="http://www.w3.org/2000/svg" width="47.415" height="45.338" viewBox="0 0 47.415 45.338">
  <g id="btn_gender-female" transform="translate(0.759 -0.279)">
    <g id="그룹_3638" data-name="그룹 3638">
      <path id="패스_2993" data-name="패스 2993" d="M15.355,31.558a15.231,15.231,0,0,0,2.876-.275,17.492,17.492,0,0,1-4.838-6.291A8.921,8.921,0,0,1,15.356,7.37a8.927,8.927,0,0,1,8.4,11.913,9.091,9.091,0,0,1-.435,1.017c0,.008.006.017.01.026A6.587,6.587,0,0,0,28.4,24.214a15.261,15.261,0,1,0-20.665,5.3L5.863,34.772,5.227,33.43a2.745,2.745,0,1,0-4.96,2.355L3.836,43.3a2.743,2.743,0,0,0,3.657,1.3l7.139-3.391a2.745,2.745,0,1,0-2.354-4.959l-1.341.637,1.969-5.531A15.088,15.088,0,0,0,15.355,31.558Z" fill="#e5dbc6" stroke="#272720" stroke-width="1.5"/>
      <path id="패스_2994" data-name="패스 2994" d="M45.668,33.191a2.745,2.745,0,0,0-3.608-1.428l-3.022,1.31-1.166-2.689A15.259,15.259,0,0,0,29.383,2.441a12.937,12.937,0,0,0-3.187.352A12.239,12.239,0,0,1,31.119,8.97a8.572,8.572,0,0,1,6.453,5.192A8.918,8.918,0,1,1,21,14.676c.03-.084.062-.168.095-.253a9.148,9.148,0,0,1,.621-1.25,8.807,8.807,0,0,0-4.662-3.847c-.117-.041-.237-.06-.354-.1a15.272,15.272,0,0,0-1.5,2.858c-.021.053-.04.1-.061.157A15.221,15.221,0,0,0,32.831,32.559L34,35.252l-3.023,1.311A2.744,2.744,0,1,0,33.158,41.6l3.021-1.309L37.3,42.865a2.745,2.745,0,0,0,5.038-2.181l-1.117-2.576L44.241,36.8A2.74,2.74,0,0,0,45.668,33.191Z" fill="#fabb3c" stroke="#272720" stroke-width="1.5"/>
    </g>
  </g>
</svg>
