<svg xmlns="http://www.w3.org/2000/svg" width="90.035" height="64.314" viewBox="0 0 90.035 64.314">
  <g id="btn_type-etc" transform="translate(-1223.56 -728.983)">
    <g id="그룹_944" data-name="그룹 944">
      <g id="그룹_941" data-name="그룹 941">
        <g id="그룹_927" data-name="그룹 927">
          <path id="패스_2917" data-name="패스 2917" d="M1275.606,745.672a16.344,16.344,0,0,0-.592,4.356v3.8a14.584,14.584,0,0,0,.88,5.083h30.889a14.584,14.584,0,0,0,.88-5.083v-3.8a16.34,16.34,0,0,0-.593-4.356Z" fill="#6d6d6d" stroke="#272720" stroke-linejoin="round" stroke-width="1.5"/>
        </g>
        <g id="그룹_928" data-name="그룹 928">
          <path id="패스_2918" data-name="패스 2918" d="M1291.4,767.13c0,4.967-4.828,8.995-10.782,8.995s-10.783-4.028-10.783-8.995,4.828-8.995,10.783-8.995S1291.4,762.162,1291.4,767.13Z" fill="#6d6d6d" stroke="#272720" stroke-linejoin="round" stroke-width="1.5"/>
          <path id="패스_2919" data-name="패스 2919" d="M1312.845,767.13c0,4.967-4.827,8.995-10.782,8.995s-10.782-4.028-10.782-8.995,4.827-8.995,10.782-8.995S1312.845,762.162,1312.845,767.13Z" fill="#6d6d6d" stroke="#272720" stroke-linejoin="round" stroke-width="1.5"/>
        </g>
        <path id="패스_2920" data-name="패스 2920" d="M1307.663,783.821a16.324,16.324,0,0,0-32.649,0v8.726h32.649Z" fill="#ffe8c2" stroke="#272720" stroke-linejoin="round" stroke-width="1.5"/>
        <path id="패스_2921" data-name="패스 2921" d="M1295.268,773.009a3.928,3.928,0,0,1-3.93,3.929h0a3.93,3.93,0,0,1-3.93-3.929v-5.14a3.931,3.931,0,0,1,3.93-3.93h0a3.929,3.929,0,0,1,3.93,3.93Z" fill="snow" stroke="#272720" stroke-linejoin="round" stroke-width="1.5"/>
        <path id="패스_2922" data-name="패스 2922" d="M1281.922,757.416a3.113,3.113,0,0,1-1.273,4.215h0a3.112,3.112,0,0,1-4.214-1.273l-.226-.421a3.113,3.113,0,0,1,1.272-4.215h0a3.113,3.113,0,0,1,4.215,1.272Z" fill="snow" stroke="#422626" stroke-linejoin="round" stroke-width="2.5"/>
        <path id="패스_2923" data-name="패스 2923" d="M1300.755,757.416a3.113,3.113,0,0,0,1.272,4.215h0a3.113,3.113,0,0,0,4.215-1.273l.226-.421a3.114,3.114,0,0,0-1.272-4.215h0a3.113,3.113,0,0,0-4.215,1.272Z" fill="snow" stroke="#272720" stroke-linejoin="round" stroke-width="1.5"/>
        <path id="패스_2924" data-name="패스 2924" d="M1279.095,753.5v2.728c0,7.263,5.482,13.15,12.244,13.15s12.243-5.887,12.243-13.15v-7C1294.266,754.36,1282.582,753.808,1279.095,753.5Z" fill="snow" stroke="#272720" stroke-linejoin="round" stroke-width="1.5"/>
        <g id="그룹_929" data-name="그룹 929">
          <path id="패스_2925" data-name="패스 2925" d="M1286.945,759.928a1.127,1.127,0,0,1-1.127,1.127h0a1.126,1.126,0,0,1-1.126-1.127V757.9a1.127,1.127,0,0,1,1.126-1.127h0a1.128,1.128,0,0,1,1.127,1.127Z" fill="#272720"/>
          <path id="패스_2926" data-name="패스 2926" d="M1297.985,759.928a1.126,1.126,0,0,1-1.126,1.127h0a1.126,1.126,0,0,1-1.127-1.127V757.9a1.127,1.127,0,0,1,1.127-1.127h0a1.127,1.127,0,0,1,1.126,1.127Z" fill="#272720"/>
        </g>
        <g id="그룹_931" data-name="그룹 931">
          <path id="패스_2929" data-name="패스 2929" d="M1303.788,742.23v-.285c.073-6.214-5.452-11.882-12.191-12.212-6.737.33-12.264,6-12.19,12.212v.285" fill="snow" stroke="#272720" stroke-linejoin="round" stroke-width="1.5"/>
          <path id="패스_2930" data-name="패스 2930" d="M1303.788,742.23c0,.151,0,.3,0,.451q0,1.648,0,3.295a23.758,23.758,0,0,1-24.386,0q0-1.645,0-3.295v-.451c-4.828,1.336-7.945,3.443-7.945,5.817,0,4.037,9.015,7.309,20.135,7.309s20.136-3.272,20.136-7.309C1311.733,745.673,1308.616,743.566,1303.788,742.23Z" fill="snow" stroke="#272720" stroke-linejoin="round" stroke-width="1.5"/>
          <path id="패스_2931" data-name="패스 2931" d="M1279.407,742.681q0,1.648,0,3.295a23.758,23.758,0,0,0,24.386,0q0-1.645,0-3.295A23.755,23.755,0,0,1,1279.407,742.681Z" fill="snow" stroke="#272720" stroke-linejoin="round" stroke-width="1.5"/>
          <path id="패스_2932" data-name="패스 2932" d="M1279.407,742.23v.451a23.755,23.755,0,0,0,24.382,0c0-.15,0-.3,0-.451" fill="snow" stroke="#272720" stroke-linejoin="round" stroke-width="1.5"/>
        </g>
        <path id="패스_2933" data-name="패스 2933" d="M1293.014,780.991a1.676,1.676,0,1,1-1.676-1.675A1.676,1.676,0,0,1,1293.014,780.991Z" fill="#eccdf7" stroke="#272720" stroke-linejoin="round" stroke-width="1.5"/>
        <path id="패스_2934" data-name="패스 2934" d="M1256.958,783.821a16.324,16.324,0,1,0-32.648,0v8.726h16.308v0h16.34Z" fill="snow" stroke="#272720" stroke-linejoin="round" stroke-width="1.5"/>
        <g id="그룹_932" data-name="그룹 932">
          <path id="패스_2935" data-name="패스 2935" d="M1256.958,753.826v-3.8a16.324,16.324,0,1,0-32.648,0v3.8a14.6,14.6,0,0,0,.854,5.013h30.94A14.6,14.6,0,0,0,1256.958,753.826Z" fill="#6d6d6d" stroke="#272720" stroke-linejoin="round" stroke-width="1.5"/>
        </g>
        <path id="패스_2936" data-name="패스 2936" d="M1244.563,773.008a3.929,3.929,0,0,1-3.93,3.93h0a3.93,3.93,0,0,1-3.93-3.93v-5.139a3.931,3.931,0,0,1,3.93-3.93h0a3.93,3.93,0,0,1,3.93,3.93Z" fill="snow" stroke="#272720" stroke-linejoin="round" stroke-width="1.5"/>
        <g id="그룹_933" data-name="그룹 933">
          <path id="패스_2937" data-name="패스 2937" d="M1231.217,757.416a3.113,3.113,0,0,1-1.272,4.215h0a3.115,3.115,0,0,1-4.216-1.273l-.225-.421a3.113,3.113,0,0,1,1.272-4.215h0a3.112,3.112,0,0,1,4.215,1.272Z" fill="snow" stroke="#272720" stroke-linejoin="round" stroke-width="1.5"/>
          <path id="패스_2938" data-name="패스 2938" d="M1250.05,757.416a3.113,3.113,0,0,0,1.272,4.215h0a3.113,3.113,0,0,0,4.215-1.273l.226-.421a3.112,3.112,0,0,0-1.272-4.215h0a3.112,3.112,0,0,0-4.215,1.272Z" fill="snow" stroke="#272720" stroke-linejoin="round" stroke-width="1.5"/>
        </g>
        <g id="그룹_934" data-name="그룹 934">
          <path id="패스_2939" data-name="패스 2939" d="M1229.082,752.84a.554.554,0,0,0-.692.538v2.852c0,7.263,5.482,13.15,12.243,13.15s12.244-5.887,12.244-13.15v-3.569a48.464,48.464,0,0,1-23.795.179Z" fill="snow" stroke="#272720" stroke-linejoin="round" stroke-width="1.5"/>
        </g>
        <path id="패스_2940" data-name="패스 2940" d="M1236.24,759.929a1.126,1.126,0,0,1-1.126,1.126h0a1.125,1.125,0,0,1-1.126-1.126V757.9a1.125,1.125,0,0,1,1.126-1.127h0a1.127,1.127,0,0,1,1.126,1.127Z" fill="#272720"/>
        <path id="패스_2941" data-name="패스 2941" d="M1247.28,759.929a1.126,1.126,0,0,1-1.127,1.126h0a1.126,1.126,0,0,1-1.126-1.126V757.9a1.126,1.126,0,0,1,1.126-1.127h0a1.126,1.126,0,0,1,1.127,1.127Z" fill="#272720"/>
        <path id="패스_2944" data-name="패스 2944" d="M1240.633,733.7h12.378s2.326,7.531-4.965,10.863" fill="#6d6d6d" stroke="#272720" stroke-linejoin="round" stroke-width="1.5"/>
        <line id="선_143" data-name="선 143" x2="3.571" transform="translate(1235.399 783.135)" fill="none" stroke="#272720" stroke-linejoin="round" stroke-width="2.5"/>
        <g id="그룹_936" data-name="그룹 936">
          <path id="패스_2945" data-name="패스 2945" d="M1281.526,784.079a14.784,14.784,0,1,0-29.567,0v8.468h29.567Z" fill="#ffd78f" stroke="#272720" stroke-linejoin="round" stroke-width="1.5"/>
        </g>
        <g id="그룹_937" data-name="그룹 937">
          <path id="패스_2946" data-name="패스 2946" d="M1281.526,756.913v-3.439a14.784,14.784,0,1,0-29.567,0v3.439a13,13,0,0,0,1.077,5.3h27.413A12.984,12.984,0,0,0,1281.526,756.913Z" fill="#6d6d6d" stroke="#272720" stroke-linejoin="round" stroke-width="1.5"/>
        </g>
        <path id="패스_2947" data-name="패스 2947" d="M1270.194,774.285a3.559,3.559,0,0,1-3.559,3.56h0a3.559,3.559,0,0,1-3.559-3.56v-4.653a3.558,3.558,0,0,1,3.559-3.559h0a3.558,3.558,0,0,1,3.559,3.559Z" fill="snow" stroke="#272720" stroke-linejoin="round" stroke-width="1.5"/>
        <g id="그룹_938" data-name="그룹 938">
          <path id="패스_2948" data-name="패스 2948" d="M1258.215,760.165a2.819,2.819,0,0,1-1.152,3.817h0a2.82,2.82,0,0,1-3.818-1.153l-.2-.381a2.822,2.822,0,0,1,1.153-3.818h0a2.82,2.82,0,0,1,3.817,1.153Z" fill="snow" stroke="#272720" stroke-linejoin="round" stroke-width="1.56"/>
          <path id="패스_2949" data-name="패스 2949" d="M1275.27,760.165a2.821,2.821,0,0,0,1.153,3.817h0a2.819,2.819,0,0,0,3.817-1.153l.2-.381a2.82,2.82,0,0,0-1.153-3.818h0a2.819,2.819,0,0,0-3.816,1.153Z" fill="snow" stroke="#272720" stroke-linejoin="round" stroke-width="1.56"/>
        </g>
        <g id="그룹_939" data-name="그룹 939">
          <path id="패스_2950" data-name="패스 2950" d="M1268.324,757.139l1.046-3.766c-4.909,2.978-11.113,3.788-13.715,4v1.715c0,6.577,4.964,11.909,11.088,11.909s11.088-5.332,11.088-11.909v-3.379A42.588,42.588,0,0,1,1268.324,757.139Z" fill="snow" stroke="#272720" stroke-linejoin="round" stroke-width="1.5"/>
        </g>
        <path id="패스_2951" data-name="패스 2951" d="M1262.764,762.44a1.02,1.02,0,0,1-1.02,1.02h0a1.021,1.021,0,0,1-1.021-1.02V760.6a1.02,1.02,0,0,1,1.021-1.02h0a1.02,1.02,0,0,1,1.02,1.02Z" fill="#272720"/>
        <path id="패스_2952" data-name="패스 2952" d="M1272.762,762.44a1.021,1.021,0,0,1-1.021,1.02h0a1.02,1.02,0,0,1-1.02-1.02V760.6a1.02,1.02,0,0,1,1.02-1.02h0a1.02,1.02,0,0,1,1.021,1.02Z" fill="#272720"/>
      </g>
    </g>
  </g>
</svg>
