<svg xmlns="http://www.w3.org/2000/svg" width="78.494" height="70.706" viewBox="0 0 78.494 70.706">
  <g id="btn_type-2080" transform="translate(-721.99 -783.656)">
    <g id="그룹_820" data-name="그룹 820">
      <circle id="타원_354" data-name="타원 354" cx="15.859" cy="15.859" r="15.859" transform="translate(767.58 816.427) rotate(-0.774)" fill="#6d6d6d" stroke="#272720" stroke-linejoin="round" stroke-width="1.5"/>
      <g id="그룹_819" data-name="그룹 819">
        <g id="그룹_813" data-name="그룹 813">
          <path id="패스_2856" data-name="패스 2856" d="M792.81,849.8a21.3,21.3,0,1,0-42.6,0v3.557h42.6Z" fill="#ffe8c2" stroke="#272720" stroke-linejoin="round" stroke-width="1.5"/>
        </g>
        <g id="그룹_814" data-name="그룹 814">
          <path id="패스_2857" data-name="패스 2857" d="M792.81,810.663v-4.956a21.3,21.3,0,0,0-42.6,0v4.956a19.019,19.019,0,0,0,1.148,6.633h40.306A19,19,0,0,0,792.81,810.663Z" fill="#6d6d6d" stroke="#272720" stroke-linejoin="round" stroke-width="1.5"/>
        </g>
        <path id="패스_2858" data-name="패스 2858" d="M776.637,835.694a5.126,5.126,0,0,1-5.128,5.126h0a5.128,5.128,0,0,1-5.128-5.126v-6.707a5.127,5.127,0,0,1,5.128-5.127h0a5.126,5.126,0,0,1,5.128,5.127Z" fill="#fff" stroke="#272720" stroke-linejoin="round" stroke-width="1.5"/>
        <g id="그룹_815" data-name="그룹 815">
          <path id="패스_2859" data-name="패스 2859" d="M759.223,815.347a4.062,4.062,0,0,1-1.661,5.5h0a4.062,4.062,0,0,1-5.5-1.661l-.294-.55a4.061,4.061,0,0,1,1.66-5.5h0a4.061,4.061,0,0,1,5.5,1.66Z" fill="#ffece1" stroke="#272720" stroke-linejoin="round" stroke-width="1.5"/>
          <path id="패스_2860" data-name="패스 2860" d="M783.8,815.347a4.062,4.062,0,0,0,1.661,5.5h0a4.06,4.06,0,0,0,5.5-1.661l.3-.55a4.061,4.061,0,0,0-1.661-5.5h0a4.062,4.062,0,0,0-5.5,1.66Z" fill="#fff" stroke="#272720" stroke-linejoin="round" stroke-width="1.5"/>
        </g>
        <g id="그룹_816" data-name="그룹 816">
          <path id="패스_2861" data-name="패스 2861" d="M755.534,810.241V813.8c0,9.476,7.152,17.158,15.976,17.158s15.975-7.682,15.975-17.158v-9.13C775.329,811.36,760.084,810.64,755.534,810.241Z" fill="#fff" stroke="#272720" stroke-linejoin="round" stroke-width="1.5"/>
        </g>
        <g id="그룹_818" data-name="그룹 818">
          <g id="그룹_817" data-name="그룹 817">
            <path id="패스_2862" data-name="패스 2862" d="M765.778,818.626a1.471,1.471,0,0,1-1.471,1.47h0a1.47,1.47,0,0,1-1.47-1.47V815.98a1.47,1.47,0,0,1,1.47-1.47h0a1.471,1.471,0,0,1,1.471,1.47Z" fill="#272720"/>
            <path id="패스_2863" data-name="패스 2863" d="M780.183,818.626a1.471,1.471,0,0,1-1.471,1.47h0a1.47,1.47,0,0,1-1.47-1.47V815.98a1.47,1.47,0,0,1,1.47-1.47h0a1.47,1.47,0,0,1,1.471,1.47Z" fill="#272720"/>
          </g>
        </g>
      </g>
    </g>
    <path id="패스_2864" data-name="패스 2864" d="M759.608,845.822c0,2.431-2.828,4.4-6.319,4.4H729.743c-3.49,0-6.319-1.971-6.319-4.4V835.28c0-2.431,2.829-4.4,6.319-4.4h23.546c3.491,0,6.319,1.97,6.319,4.4Z" fill="#ffcd85" stroke="#272720" stroke-linejoin="round" stroke-width="1.5"/>
    <g id="그룹_821" data-name="그룹 821">
      <path id="패스_2865" data-name="패스 2865" d="M760.293,850.224a18.777,18.777,0,1,0-37.553,0v3.135h37.553Z" fill="#ffe8c2" stroke="#272720" stroke-linejoin="round" stroke-width="1.5"/>
    </g>
    <path id="패스_2866" data-name="패스 2866" d="M745.8,838.713,741.38,853.2l-4.425-14.492Z" fill="#fff"/>
    <g id="그룹_822" data-name="그룹 822">
      <path id="패스_2867" data-name="패스 2867" d="M760.293,815.721v-4.369a18.777,18.777,0,1,0-37.553,0v4.369a16.521,16.521,0,0,0,1.367,6.728h34.817A16.472,16.472,0,0,0,760.293,815.721Z" fill="#6d6d6d" stroke="#272720" stroke-linejoin="round" stroke-width="1.5"/>
    </g>
    <path id="패스_2868" data-name="패스 2868" d="M745.9,836.408c0,2.167-2.024,3.924-4.521,3.924h0c-2.5,0-4.52-1.757-4.52-3.924v-5.13c0-2.167,2.024-3.924,4.52-3.924h0c2.5,0,4.521,1.757,4.521,3.924Z" fill="#fff" stroke="#212121" stroke-linejoin="round" stroke-width="1.5"/>
    <g id="그룹_823" data-name="그룹 823">
      <path id="패스_2869" data-name="패스 2869" d="M730.685,819.85a3.581,3.581,0,0,1-1.463,4.849h0a3.581,3.581,0,0,1-4.848-1.464l-.261-.485a3.581,3.581,0,0,1,1.464-4.848h0a3.581,3.581,0,0,1,4.848,1.463Z" fill="#fff" stroke="#272720" stroke-linejoin="round" stroke-width="1.5"/>
      <path id="패스_2870" data-name="패스 2870" d="M752.347,819.85a3.583,3.583,0,0,0,1.464,4.849h0a3.581,3.581,0,0,0,4.848-1.464l.261-.485a3.581,3.581,0,0,0-1.465-4.848h0a3.58,3.58,0,0,0-4.847,1.463Z" fill="#fff" stroke="#272720" stroke-linejoin="round" stroke-width="1.5"/>
    </g>
    <g id="그룹_826" data-name="그룹 826">
      <g id="그룹_825" data-name="그룹 825">
        <g id="그룹_824" data-name="그룹 824">
          <path id="패스_2871" data-name="패스 2871" d="M743.525,816.007l1.329-4.782c-6.235,3.782-14.115,4.81-17.42,5.083v2.179c0,8.353,6.3,15.125,14.082,15.125S755.6,826.84,755.6,818.487V814.2A54.082,54.082,0,0,1,743.525,816.007Z" fill="#fff" stroke="#272720" stroke-linejoin="round" stroke-width="1.5"/>
        </g>
        <path id="패스_2872" data-name="패스 2872" d="M736.463,822.74a1.3,1.3,0,0,1-1.3,1.3h0a1.3,1.3,0,0,1-1.3-1.3v-2.332a1.3,1.3,0,0,1,1.3-1.3h0a1.3,1.3,0,0,1,1.3,1.3Z" fill="#272720"/>
        <path id="패스_2873" data-name="패스 2873" d="M749.161,822.74a1.3,1.3,0,0,1-1.3,1.3h0a1.3,1.3,0,0,1-1.3-1.3v-2.332a1.3,1.3,0,0,1,1.3-1.3h0a1.3,1.3,0,0,1,1.3,1.3Z" fill="#272720"/>
      </g>
    </g>
    <path id="패스_2874" data-name="패스 2874" d="M736.955,838.713,741.38,853.2l4.425-14.492" fill="none" stroke="#212121" stroke-linecap="round" stroke-linejoin="round" stroke-width="1.5"/>
    <g id="그룹_827" data-name="그룹 827">
      <path id="패스_2875" data-name="패스 2875" d="M736.463,837.349l-4.74,3.46,6.115,12.55" fill="none" stroke="#212121" stroke-linecap="round" stroke-linejoin="round" stroke-width="1.5"/>
      <line id="선_124" data-name="선 124" x2="2.708" y2="4.701" transform="translate(730.765 834.83)" fill="none" stroke="#212121" stroke-linecap="round" stroke-linejoin="round" stroke-width="1.5"/>
    </g>
    <g id="그룹_828" data-name="그룹 828">
      <path id="패스_2876" data-name="패스 2876" d="M746.335,837.349l4.74,3.46-6.115,12.55" fill="none" stroke="#272720" stroke-linecap="round" stroke-linejoin="round" stroke-width="1.5"/>
      <line id="선_125" data-name="선 125" x1="2.708" y2="4.701" transform="translate(749.324 834.83)" fill="none" stroke="#272720" stroke-linecap="round" stroke-linejoin="round" stroke-width="1.5"/>
    </g>
    <path id="패스_2877" data-name="패스 2877" d="M736.859,837.785l4.52,1.989-2.663,4.708Z" fill="#fff" stroke="#212121" stroke-linecap="round" stroke-linejoin="round" stroke-width="1.5"/>
    <path id="패스_2878" data-name="패스 2878" d="M745.9,837.785l-4.521,1.989,2.663,4.708Z" fill="#fff" stroke="#212121" stroke-linecap="round" stroke-linejoin="round" stroke-width="1.5"/>
  </g>
</svg>
