<svg id="btn_profile" xmlns="http://www.w3.org/2000/svg" width="18" height="14.4" viewBox="0 0 18 14.4">
  <path id="패스_2568" data-name="패스 2568" d="M652,357.4a2.7,2.7,0,1,0,2.7,2.7,2.7,2.7,0,0,0-2.7-2.7Zm7.2-2.7h-2.16a.8.8,0,0,1-.71-.512l-.559-1.675a.8.8,0,0,0-.71-.512H648.94a.8.8,0,0,0-.71.512l-.559,1.675a.8.8,0,0,1-.71.512H644.8a1.806,1.806,0,0,0-1.8,1.8v8.1a1.806,1.806,0,0,0,1.8,1.8h14.4a1.806,1.806,0,0,0,1.8-1.8v-8.1a1.806,1.806,0,0,0-1.8-1.8Zm-7.2,9.9a4.5,4.5,0,1,1,4.5-4.5,4.5,4.5,0,0,1-4.5,4.5Zm6.57-6.841a.63.63,0,1,1,.63-.63.631.631,0,0,1-.63.63Zm0,0" transform="translate(-643 -352)" fill="#fff"/>
</svg>
