<svg xmlns="http://www.w3.org/2000/svg" width="71.262" height="65.662" viewBox="0 0 71.262 65.662">
  <g id="btn_type-8090" transform="translate(-722.837 -963.271)">
    <path id="패스_2889" data-name="패스 2889" d="M783.905,980.176" fill="snow" stroke="#422626" stroke-linecap="round" stroke-width="1.5"/>
    <g id="그룹_849" data-name="그룹 849">
      <g id="그룹_845" data-name="그룹 845">
        <path id="패스_2890" data-name="패스 2890" d="M793.349,1024.621a21.336,21.336,0,1,0-42.671,0v3.562h42.671Z" fill="#ffe8c2" stroke="#272720" stroke-linecap="round" stroke-width="1.5"/>
      </g>
      <path id="패스_2891" data-name="패스 2891" d="M777.15,1010.489a5.137,5.137,0,0,1-5.137,5.136h0a5.137,5.137,0,0,1-5.136-5.136v-6.718a5.136,5.136,0,0,1,5.136-5.135h0a5.137,5.137,0,0,1,5.137,5.135Z" fill="#fff" stroke="#272720" stroke-linejoin="round" stroke-width="1.5"/>
      <g id="그룹_846" data-name="그룹 846">
        <path id="패스_2892" data-name="패스 2892" d="M759.706,990.11a4.067,4.067,0,0,1-1.663,5.508h0a4.068,4.068,0,0,1-5.509-1.663l-.3-.551A4.07,4.07,0,0,1,753.9,987.9h0a4.067,4.067,0,0,1,5.508,1.663Z" fill="#ffece1" stroke="#212121" stroke-linejoin="round" stroke-width="1.5"/>
        <path id="패스_2893" data-name="패스 2893" d="M784.32,990.11a4.067,4.067,0,0,0,1.663,5.508h0a4.067,4.067,0,0,0,5.508-1.663l.3-.551a4.069,4.069,0,0,0-1.663-5.508h0a4.068,4.068,0,0,0-5.509,1.663Z" fill="#fff" stroke="#272720" stroke-linejoin="round" stroke-width="1.5"/>
      </g>
      <g id="그룹_848" data-name="그룹 848">
        <path id="패스_2894" data-name="패스 2894" d="M772.014,964.021c-8.838,0-16,7.694-16,17.186v7.353c0,9.492,7.164,17.187,16,17.187s16-7.7,16-17.187v-7.353C788.015,971.715,780.851,964.021,772.014,964.021Z" fill="#fff" stroke="#272720" stroke-linejoin="round" stroke-width="1.5"/>
        <line id="선_126" data-name="선 126" x2="9.155" transform="translate(767.436 985.081)" fill="none" stroke="#ffe8c2" stroke-linecap="round" stroke-width="1.5"/>
        <line id="선_127" data-name="선 127" x2="9.155" transform="translate(767.436 982.787)" fill="none" stroke="#ffe8c2" stroke-linecap="round" stroke-width="1.5"/>
        <g id="그룹_847" data-name="그룹 847">
          <path id="패스_2895" data-name="패스 2895" d="M763.327,990.432a1.472,1.472,0,0,1,1.472-1.473h0a1.472,1.472,0,0,1,1.473,1.473" fill="snow" stroke="#272720" stroke-linecap="round" stroke-linejoin="round" stroke-width="1.5"/>
          <path id="패스_2896" data-name="패스 2896" d="M777.756,990.432a1.472,1.472,0,0,1,1.472-1.473h0a1.472,1.472,0,0,1,1.472,1.473" fill="snow" stroke="#272720" stroke-linecap="round" stroke-linejoin="round" stroke-width="1.5"/>
        </g>
      </g>
      <path id="패스_2897" data-name="패스 2897" d="M758.97,971.883a9.6,9.6,0,0,0,2.36,2.28,1.583,1.583,0,0,1,.346,2.27c-1.92,2.52-5.627,7.723-6.168,10.979,0,0-.844-.576-2.11.484,0,0-1.073-9.3,2.916-15.854A1.6,1.6,0,0,1,758.97,971.883Z" fill="#dcdcdc" stroke="#272720" stroke-linecap="round" stroke-linejoin="round" stroke-width="1.5"/>
      <path id="패스_2898" data-name="패스 2898" d="M784.553,971.883a9.611,9.611,0,0,1-2.36,2.28,1.583,1.583,0,0,0-.346,2.27c1.92,2.52,5.627,7.723,6.168,10.979,0,0,.844-.576,2.11.484,0,0,1.073-9.3-2.916-15.854A1.6,1.6,0,0,0,784.553,971.883Z" fill="#dcdcdc" stroke="#272720" stroke-linecap="round" stroke-linejoin="round" stroke-width="1.5"/>
    </g>
    <g id="그룹_858" data-name="그룹 858">
      <path id="패스_2899" data-name="패스 2899" d="M742.363,980.176" fill="snow" stroke="#422626" stroke-linecap="round" stroke-width="1.5"/>
      <g id="그룹_857" data-name="그룹 857">
        <circle id="타원_360" data-name="타원 360" cx="6.028" cy="6.028" r="6.028" transform="translate(746.74 998.86)" fill="#dcdcdc" stroke="#272720" stroke-linecap="round" stroke-width="1.5"/>
        <g id="그룹_850" data-name="그룹 850">
          <path id="패스_2900" data-name="패스 2900" d="M761.14,1025.048a18.777,18.777,0,1,0-37.553,0v3.135H761.14Z" fill="#ffe8c2" stroke="#272720" stroke-linecap="round" stroke-width="1.5"/>
        </g>
        <g id="그룹_851" data-name="그룹 851">
          <path id="패스_2901" data-name="패스 2901" d="M761.14,990.547v-4.37a18.777,18.777,0,0,0-37.553,0v4.37a16.5,16.5,0,0,0,1.368,6.728h34.816A16.5,16.5,0,0,0,761.14,990.547Z" fill="#dcdcdc" stroke="#272720" stroke-linecap="round" stroke-width="1.5"/>
        </g>
        <path id="패스_2902" data-name="패스 2902" d="M746.884,1012.611a4.521,4.521,0,0,1-4.521,4.52h0a4.52,4.52,0,0,1-4.52-4.52V1006.7a4.52,4.52,0,0,1,4.52-4.52h0a4.521,4.521,0,0,1,4.521,4.52Z" fill="#fff" stroke="#272720" stroke-linejoin="round" stroke-width="1.5"/>
        <g id="그룹_852" data-name="그룹 852">
          <path id="패스_2903" data-name="패스 2903" d="M731.532,994.676a3.581,3.581,0,0,1-1.464,4.848h0a3.581,3.581,0,0,1-4.848-1.465l-.261-.484a3.582,3.582,0,0,1,1.465-4.848h0a3.579,3.579,0,0,1,4.847,1.463Z" fill="#fff" stroke="#272720" stroke-linejoin="round" stroke-width="1.5"/>
          <path id="패스_2904" data-name="패스 2904" d="M753.194,994.676a3.581,3.581,0,0,0,1.464,4.848h0a3.58,3.58,0,0,0,4.847-1.465l.261-.484a3.581,3.581,0,0,0-1.464-4.848h0a3.579,3.579,0,0,0-4.847,1.463Z" fill="#fff" stroke="#272720" stroke-linejoin="round" stroke-width="1.5"/>
        </g>
        <g id="그룹_856" data-name="그룹 856">
          <g id="그룹_854" data-name="그룹 854">
            <g id="그룹_853" data-name="그룹 853">
              <path id="패스_2905" data-name="패스 2905" d="M756.446,986.88v6.432c0,8.353-6.3,15.125-14.083,15.125s-14.083-6.772-14.083-15.125V986.88c0-.681,14.083-6.7,14.083-6.7S756.446,986.2,756.446,986.88Z" fill="#fff" stroke="#272720" stroke-linejoin="round" stroke-width="1.5"/>
            </g>
          </g>
          <line id="선_128" data-name="선 128" x2="8.057" transform="translate(738.335 988.231)" fill="none" stroke="#ffe8c2" stroke-linecap="round" stroke-width="1.5"/>
          <line id="선_129" data-name="선 129" x2="8.057" transform="translate(738.335 990.249)" fill="none" stroke="#ffe8c2" stroke-linecap="round" stroke-width="1.5"/>
          <g id="그룹_855" data-name="그룹 855">
            <path id="패스_2906" data-name="패스 2906" d="M734.718,994.959a1.3,1.3,0,0,1,1.3-1.3h0a1.3,1.3,0,0,1,1.3,1.3" fill="snow" stroke="#272720" stroke-linecap="round" stroke-linejoin="round" stroke-width="1.5"/>
            <path id="패스_2907" data-name="패스 2907" d="M747.417,994.959a1.3,1.3,0,0,1,1.3-1.3h0a1.3,1.3,0,0,1,1.295,1.3" fill="snow" stroke="#272720" stroke-linecap="round" stroke-linejoin="round" stroke-width="1.5"/>
          </g>
        </g>
      </g>
    </g>
  </g>
</svg>
