<?xml version="1.0" encoding="utf-8"?>
<!-- Generator: Adobe Illustrator 23.0.3, SVG Export Plug-In . SVG Version: 6.00 Build 0)  -->
<svg version="1.1" id="Capa_1" xmlns="http://www.w3.org/2000/svg" xmlns:xlink="http://www.w3.org/1999/xlink" x="0px" y="0px"
	 viewBox="0 0 297 250.8" style="enable-background:new 0 0 297 250.8;" xml:space="preserve">
<style type="text/css">
	.st0{fill:#FFC800;}
	.st1{fill:#FFFFFF;}
</style>
<g>
	<path class="st0" d="M206.1,158.4c17.4,0,31.5-14.1,31.5-31.5V31.5c0-17.4-14.1-31.5-31.5-31.5H31.5C14.1,0,0,14.1,0,31.5v95.4
		c0,17.4,14.1,31.5,31.5,31.5h22.9v33c0,4,2.4,7.6,6.1,9.2c1.2,0.5,2.5,0.8,3.8,0.8c2.6,0,5.1-1,7-2.9l40-40L206.1,158.4
		L206.1,158.4z"/>
	<path class="st0" d="M269.4,82.5h-15.9v44.4c0,26.1-21.3,47.4-47.4,47.4h-88.2l-18.5,18.5c2.2,13,13.6,22.9,27.2,22.9h76.8
		l32.2,32.2c1.9,1.9,4.4,2.9,7,2.9c1.3,0,2.6-0.2,3.8-0.8c3.7-1.5,6.1-5.1,6.1-9.2v-25.2h17c15.2,0,27.6-12.4,27.6-27.6v-78.1
		C297,94.9,284.6,82.5,269.4,82.5z"/>
</g>
<circle class="st1" cx="65.6" cy="82.7" r="14.9"/>
<circle class="st1" cx="118.8" cy="82.7" r="14.9"/>
<circle class="st1" cx="172" cy="82.7" r="14.9"/>
</svg>
