<?xml version="1.0" encoding="utf-8"?>
<!-- Generator: Adobe Illustrator 23.0.3, SVG Export Plug-In . SVG Version: 6.00 Build 0)  -->
<svg version="1.1" id="레이어_1" xmlns="http://www.w3.org/2000/svg" xmlns:xlink="http://www.w3.org/1999/xlink" x="0px"
	 y="0px" viewBox="0 0 156.4 156.2" style="enable-background:new 0 0 156.4 156.2;" xml:space="preserve">
<style type="text/css">
	.st0{fill:#FFC800;}
	.st1{fill:#FFFFFF;}
</style>
<g>
	<path class="st0" d="M98.7,11.2c7.1,0,12.9,5.8,12.9,12.9v74.6c0,7.1-5.8,12.9-12.9,12.9H24.1c-7.1,0-12.9-5.8-12.9-12.9V24.1
		c0-7.1,5.8-12.9,12.9-12.9L98.7,11.2 M98.7,0H24.1C10.8,0,0,10.8,0,24.1v74.6c0,13.3,10.8,24.1,24.1,24.1h74.6
		c13.3,0,24.1-10.8,24.1-24.1V24.1C122.8,10.8,112,0,98.7,0L98.7,0z"/>
	<g>
		<path class="st1" d="M154.1,156.2H35.7c-1.2,0-2.2-1-2.2-2.2V35.7c0-1.2,1-2.2,2.2-2.2h118.4c1.2,0,2.2,1,2.2,2.2v118.4
			C156.3,155.2,155.3,156.2,154.1,156.2z"/>
		<path class="st0" d="M132.2,44.7c7.1,0,12.9,5.8,12.9,12.9v74.6c0,7.1-5.8,12.9-12.9,12.9H57.6c-7.1,0-12.9-5.8-12.9-12.9V57.5
			c0-7.1,5.8-12.9,12.9-12.9L132.2,44.7 M132.2,33.5H57.6c-13.3,0-24,10.8-24,24v74.6c0,13.3,10.8,24.1,24.1,24.1h74.6
			c13.3,0,24.1-10.8,24.1-24.1V57.5C156.3,44.3,145.5,33.5,132.2,33.5L132.2,33.5z"/>
	</g>
</g>
</svg>
