<svg xmlns="http://www.w3.org/2000/svg" xmlns:xlink="http://www.w3.org/1999/xlink" width="277.353" height="41.121" viewBox="0 0 277.353 41.121">
  <defs>
    <linearGradient id="linear-gradient" x1="0.5" x2="0.5" y2="1" gradientUnits="objectBoundingBox">
      <stop offset="0" stop-color="#dbf5ff"/>
      <stop offset="1" stop-color="#fff"/>
    </linearGradient>
  </defs>
  <g id="그룹_4090" data-name="그룹 4090" transform="translate(-21.836 -395.442)">
    <path id="패스_4" data-name="패스 4" d="M617.082,1411.7c-3.095.667-.413,3.047-2.888,5.046s-2.269.476-7.014-.762-2.888,0-7.015,2.095-12.791-1.238-15.267-3.047-5.57-3.523-8.665-2-8.252-1.047-10.315-2.285-1.444-.476-4.333,0-1.857-.762-3.92-2.285-1.238-.952-4.126,1.238-3.714-3.428-5.364-5.427-1.238-2.38-3.3-.952-2.476-1.238-4.126-1.809-3.3-3.047-4.539-2.095-3.094.952-5.983-.857-3.714-.476-6.6.857-4.126-.476-6.6-.857-3.714-.762-8.871.857-8.046-.381-14.648-2.952-13.2.762-15.06,2.095-4.745,1.714-9.284,0-2.682,2.571-6.4,4.285-5.364-1.809-7.014,0-7.014,3.332-9.49,2-3.095,3.333-5.777,1.333-2.476,5.618-6.6,6.189-3.507-1.047-5.158-2.666-4.126-4.665-4.951-4-2.476.667-7.221-2.38-5.777.857-8.252,2.38-2.269.762-6.6-2.38-5.158,1.333-8.665-.476-5.777-2-9.49,0-5.57,2.285-12.172-2.19-9.9,2.38-15.886,3.618-15.485-2-15.485-2v33.969H617.082V1411.7Z" transform="translate(-318 -999.684)" fill="url(#linear-gradient)"/>
    <path id="패스_5" data-name="패스 5" d="M340,1402.415s9.5,3.3,15.485,2.04,9.284-8.257,15.886-3.691,8.459,4.274,12.172,2.234,5.983-1.846,9.49,0,4.332-2.72,8.665.486,4.126,3.983,6.6,2.429,3.507-5.537,8.252-2.429,6.4,3.109,7.221,2.429,3.3,2.429,4.951,4.08,1.031,3.3,5.158,2.72,3.92-8.354,6.6-6.314,3.3-2.72,5.777-1.36,7.84-.194,9.49-2.04,3.3,1.749,7.014,0,1.857-6.12,6.4-4.372,7.427,1.36,9.284,0,8.459-4.76,15.06-2.137,9.49,4.663,14.648,3.011,6.4-1.263,8.871-.874,3.714,2.234,6.6.874,3.714-2.72,6.6-.874,4.745,1.846,5.983.874,2.888,1.554,4.539,2.137,2.063,3.3,4.126,1.846,1.651-1.069,3.3.971,2.476,7.771,5.364,5.537,2.063-2.817,4.126-1.263,1.031,2.817,3.92,2.331,2.269-1.263,4.333,0,7.221,3.886,10.315,2.331,6.189.194,8.665,2.04,11.141,5.246,15.267,3.109,2.269-3.4,7.015-2.137,4.539,2.817,7.014.777-.206-4.469,2.888-5.149" transform="translate(-318 -999.572)" fill="none" stroke="#00b9ff" stroke-width="1"/>
  </g>
</svg>
