<svg xmlns="http://www.w3.org/2000/svg" width="294" height="637.803" viewBox="0 0 294 637.803">
  <g id="그룹_4082" data-name="그룹 4082" transform="translate(-13 -52)">
    <text id="리스크_단계_안내" data-name="리스크 단계 안내" transform="translate(160 81)" fill="#496582" font-size="25" font-family="SpoqaHanSans-Regular, SpoqaHanSans" letter-spacing="-0.04em"><tspan x="-82.1" y="0">리스크 단계 안내</tspan></text>
    <text id="리스크_단계는_파트너가_매매_전략을_이행함에_있어_스포와이드_통계_시스템에_따라_부여된_위험도_표식입니다." data-name="리스크 단계는 파트너가 매매 전략을 이행함에 있어
스포와이드 통계 시스템에 따라 부여된 위험도 표식입니다." transform="translate(160 114)" fill="#333" font-size="13" font-family="SpoqaHanSans-Light, SpoqaHanSans" font-weight="300" letter-spacing="-0.04em"><tspan x="-127.478" y="0">리스크 단계는 파트너가 매매 전략을 이행함에 있어</tspan><tspan x="-146.003" y="19">스포와이드 통계 시스템에 따라 부여된 위험도 표식입니다.</tspan></text>
    <text id="_-_보유기간_-_기간_수익률_-_전제자금_중_비중_조절_-_투자_시점_대비_기회비용_-_우량코인_알트코인_간의_적절한_비율_-_단기투자_중장기투자의_적절한_비율" data-name="- 보유기간
- 기간 수익률
- 전제자금 중 비중 조절
- 투자 시점 대비 기회비용
- 우량코인, 알트코인 간의 적절한 비율
- 단기투자 ~ 중장기투자의 적절한 비율" transform="translate(160 161)" fill="#333" font-size="12" font-family="SpoqaHanSans-Light, SpoqaHanSans" font-weight="300" letter-spacing="-0.04em"><tspan x="-24.612" y="0">- 보유기간</tspan><tspan x="-30.984" y="18">- 기간 수익률</tspan><tspan x="-54.288" y="36">- 전제자금 중 비중 조절</tspan><tspan x="-59.568" y="54">- 투자 시점 대비 기회비용</tspan><tspan x="-87.96" y="72">- 우량코인, 알트코인 간의 적절한 비율</tspan><tspan x="-90.03" y="90">- 단기투자 ~ 중장기투자의 적절한 비율</tspan></text>
    <text id="등등_여러_요소들을_종합하여_점수화한_표식입니다." data-name="등등 여러 요소들을 종합하여 점수화한 표식입니다." transform="translate(160 280)" fill="#333" font-size="13" font-family="SpoqaHanSans-Light, SpoqaHanSans" font-weight="300" letter-spacing="-0.04em"><tspan x="-127.66" y="0">등등 여러 요소들을 종합하여 점수화한 표식입니다.</tspan></text>
    <text id="_1로_낮아질_수록_위험도가_적고_안정성이_높다는_뜻으로_안정성이_강화된_투자를_지향하며_수익률은_낮을_수_있으나_안전성이_그만큼_높기_때문에_저수익_저위험_투자에_적합한_성향입니다._수익보다는_손실률_최소화에_초첨을_맞춘_중장기_투자를_지향합니다." data-name="1로 낮아질 수록 위험도가 적고 안정성이 높다는 뜻으로
안정성이 강화된 투자를 지향하며,
수익률은 낮을 수 있으나 안전성이 그만큼 높기 때문에
저수익 저위험 투자에 적합한 성향입니다.
수익보다는 손실률 최소화에 초첨을 맞춘
중장기 투자를 지향합니다." transform="translate(164 467.803)" fill="#6498ff" font-size="12" font-family="SpoqaHanSans-Regular, SpoqaHanSans" letter-spacing="-0.04em"><tspan x="-127.452" y="0">1로 낮아질 수록 위험도가 적고 안정성이 높다</tspan><tspan y="0" fill="#333" font-family="SpoqaHanSans-Light, SpoqaHanSans" font-weight="300">는 뜻으로</tspan><tspan y="0" fill="#333"></tspan><tspan fill="#333"><tspan x="-78.414" y="18">안정성이 강화된 투자를 지향하며,</tspan></tspan><tspan fill="#333" font-family="SpoqaHanSans-Light, SpoqaHanSans" font-weight="300"><tspan x="-124.044" y="36">수익률은 낮을 수 있으나 안전성이 그만큼 높기 때문에</tspan><tspan x="-95.628" y="54">저수익 저위험 투자에 적합한 성향입니다.</tspan><tspan x="-94.404" y="72">수익보다는 </tspan><tspan y="72" font-family="SpoqaHanSans-Regular, SpoqaHanSans" font-weight="400">손실률 최소화에 초첨을 맞춘</tspan></tspan><tspan fill="#333"><tspan x="-61.776" y="90">중장기 투자</tspan><tspan y="90" font-family="SpoqaHanSans-Light, SpoqaHanSans" font-weight="300">를 지향합니다.</tspan></tspan></text>
    <text id="_7로_높아질수록_위험도가_크고_안정성이_낮다는_뜻으로_공격성이_강화된_투자를_지향하며_수익률은_높을_수_있으나_안정성이_그만큼_낮기_때문에_고수익_고위험_투자에_적합한_성향입니다._손실보다는_수익률을_높이는데_초점을_맞춘_단기_투자를_지향합니다." data-name="7로 높아질수록 위험도가 크고 안정성이 낮다는 뜻으로
공격성이 강화된 투자를 지향하며,
수익률은 높을 수 있으나 안정성이 그만큼 낮기 때문에
고수익 고위험 투자에 적합한 성향입니다.
손실보다는 수익률을 높이는데 초점을 맞춘
단기 투자를 지향합니다." transform="translate(160 595.803)" fill="#ff6060" font-size="12" font-family="SpoqaHanSans-Regular, SpoqaHanSans" letter-spacing="-0.04em"><tspan x="-126.348" y="0">7로 높아질수록 위험도가 크고 안정성이 낮다</tspan><tspan y="0" fill="#333" font-family="SpoqaHanSans-Light, SpoqaHanSans" font-weight="300">는 뜻으로</tspan><tspan fill="#333"><tspan x="-78.414" y="18">공격성이 강화된 투자를 지향하며,</tspan></tspan><tspan fill="#333" font-family="SpoqaHanSans-Light, SpoqaHanSans" font-weight="300"><tspan x="-124.044" y="36">수익률은 높을 수 있으나 안정성이 그만큼 낮기 때문에</tspan><tspan x="-95.628" y="54">고수익 고위험 투자에 적합한 성향입니다.</tspan><tspan x="-99.684" y="72">손실보다는 </tspan><tspan y="72" font-family="SpoqaHanSans-Regular, SpoqaHanSans" font-weight="400">수익률을 높이는데 초점을 맞춘</tspan></tspan><tspan fill="#333"><tspan x="-56.496" y="90">단기 투자</tspan><tspan y="90" font-family="SpoqaHanSans-Light, SpoqaHanSans" font-weight="300">를 지향합니다.</tspan></tspan></text>
    <g id="icon_1risk" transform="translate(76.546 325.44)">
      <rect id="사각형_1295" data-name="사각형 1295" width="47.332" height="47.332" rx="10" transform="translate(0 0)" fill="#236dff"/>
      <path id="_1" data-name="1" d="M6.37-9.724V.574H8.459V2.388H1.788V.574H4.152v-6.58l.065-1.051L2.241-5.262.962-6.717l3.5-3.007Z" transform="translate(19.234 17.541)" fill="#fff"/>
      <path id="risk" d="M1.3-6.093h.777l.113,1.6h.032A4.191,4.191,0,0,1,3.284-5.817a2.154,2.154,0,0,1,1.384-.5,2.368,2.368,0,0,1,.461.04,1.489,1.489,0,0,1,.413.154l-.194.842A3.03,3.03,0,0,0,4.968-5.4a2.09,2.09,0,0,0-.413-.032,2.033,2.033,0,0,0-1.206.486A3.818,3.818,0,0,0,2.239-3.259v5.8H1.3Zm5.813,0h.939V2.538H7.113ZM7.6-8.117a.814.814,0,0,1-.559-.208.676.676,0,0,1-.235-.529.706.706,0,0,1,.235-.569.833.833,0,0,1,.559-.2.833.833,0,0,1,.559.2.706.706,0,0,1,.235.569.676.676,0,0,1-.235.529A.814.814,0,0,1,7.6-8.117ZM13.4,2.749A4.479,4.479,0,0,1,11.623,2.4a5.6,5.6,0,0,1-1.4-.834l.5-.68a5.982,5.982,0,0,0,1.2.777,3.448,3.448,0,0,0,1.522.308,2.055,2.055,0,0,0,1.482-.478A1.551,1.551,0,0,0,15.42.336a1.2,1.2,0,0,0-.186-.672,1.944,1.944,0,0,0-.486-.5,3.508,3.508,0,0,0-.672-.381q-.372-.162-.745-.291-.486-.162-.963-.364A4.333,4.333,0,0,1,11.5-2.36a2.407,2.407,0,0,1-.632-.672,1.769,1.769,0,0,1-.243-.955,2.234,2.234,0,0,1,.186-.9,2.063,2.063,0,0,1,.551-.745,2.737,2.737,0,0,1,.891-.5,3.607,3.607,0,0,1,1.206-.186,3.658,3.658,0,0,1,1.368.262,4.555,4.555,0,0,1,1.142.645l-.486.648a5.215,5.215,0,0,0-.931-.551,2.669,2.669,0,0,0-1.125-.227,1.919,1.919,0,0,0-1.409.454,1.431,1.431,0,0,0-.453,1.038,1.1,1.1,0,0,0,.17.616,1.554,1.554,0,0,0,.453.446,3.63,3.63,0,0,0,.648.333l.737.292q.5.195,1,.4a4.158,4.158,0,0,1,.891.495,2.444,2.444,0,0,1,.648.706A1.989,1.989,0,0,1,16.359.282a2.351,2.351,0,0,1-.194.949,2.26,2.26,0,0,1-.575.787,2.753,2.753,0,0,1-.931.535A3.779,3.779,0,0,1,13.4,2.749Zm5.2-13.084h.939v9.327h.032l4.129-5.084h1.069L21.945-2.676l3.271,5.214H24.18L21.395-2,19.533.206V2.538h-.939Z" transform="translate(11.529 36.075)" fill="#fff"/>
    </g>
    <g id="icon_2risk" transform="translate(136.334 325.44)">
      <rect id="사각형_1295-2" data-name="사각형 1295" width="47.332" height="47.332" rx="10" transform="translate(0 0)" fill="#0abac1"/>
      <path id="_2" data-name="2" d="M4.966-9.88a4.448,4.448,0,0,1,1.546.259A3.589,3.589,0,0,1,7.719-8.9,3.264,3.264,0,0,1,8.5-7.791a3.517,3.517,0,0,1,.283,1.425,3.78,3.78,0,0,1-.235,1.223,5.908,5.908,0,0,1-.559,1.125,9.18,9.18,0,0,1-.769,1.036q-.429.5-.882.972L3.833.516A3.859,3.859,0,0,1,4.456.41q.3-.024.575-.024H8.917v2.04H.481v-1.3l4.064-4A11.889,11.889,0,0,0,6-4.585a3.038,3.038,0,0,0,.534-1.733,1.652,1.652,0,0,0-.461-1.271,1.77,1.77,0,0,0-1.255-.429,1.721,1.721,0,0,0-1.15.4,2.188,2.188,0,0,0-.664.931,1.7,1.7,0,0,0-.089.372q-.024.194-.04.437L.756-6.237A4.092,4.092,0,0,1,2.165-8.989,4.394,4.394,0,0,1,4.966-9.88Z" transform="translate(19.116 17.503)" fill="#fff"/>
      <path id="risk-2" data-name="risk" d="M1.3-6.093h.777l.113,1.6h.032A4.191,4.191,0,0,1,3.284-5.817a2.154,2.154,0,0,1,1.384-.5,2.368,2.368,0,0,1,.461.04,1.489,1.489,0,0,1,.413.154l-.194.842A3.03,3.03,0,0,0,4.968-5.4a2.09,2.09,0,0,0-.413-.032,2.033,2.033,0,0,0-1.206.486A3.818,3.818,0,0,0,2.239-3.259v5.8H1.3Zm5.813,0h.939V2.538H7.113ZM7.6-8.117a.814.814,0,0,1-.559-.208.676.676,0,0,1-.235-.529.706.706,0,0,1,.235-.569.833.833,0,0,1,.559-.2.833.833,0,0,1,.559.2.706.706,0,0,1,.235.569.676.676,0,0,1-.235.529A.814.814,0,0,1,7.6-8.117ZM13.4,2.749A4.479,4.479,0,0,1,11.623,2.4a5.6,5.6,0,0,1-1.4-.834l.5-.68a5.982,5.982,0,0,0,1.2.777,3.448,3.448,0,0,0,1.522.308,2.055,2.055,0,0,0,1.482-.478A1.551,1.551,0,0,0,15.42.336a1.2,1.2,0,0,0-.186-.672,1.944,1.944,0,0,0-.486-.5,3.508,3.508,0,0,0-.672-.381q-.372-.162-.745-.291-.486-.162-.963-.364A4.333,4.333,0,0,1,11.5-2.36a2.407,2.407,0,0,1-.632-.672,1.769,1.769,0,0,1-.243-.955,2.234,2.234,0,0,1,.186-.9,2.063,2.063,0,0,1,.551-.745,2.737,2.737,0,0,1,.891-.5,3.607,3.607,0,0,1,1.206-.186,3.658,3.658,0,0,1,1.368.262,4.555,4.555,0,0,1,1.142.645l-.486.648a5.215,5.215,0,0,0-.931-.551,2.669,2.669,0,0,0-1.125-.227,1.919,1.919,0,0,0-1.409.454,1.431,1.431,0,0,0-.453,1.038,1.1,1.1,0,0,0,.17.616,1.554,1.554,0,0,0,.453.446,3.63,3.63,0,0,0,.648.333l.737.292q.5.195,1,.4a4.158,4.158,0,0,1,.891.495,2.444,2.444,0,0,1,.648.706A1.989,1.989,0,0,1,16.359.282a2.351,2.351,0,0,1-.194.949,2.26,2.26,0,0,1-.575.787,2.753,2.753,0,0,1-.931.535A3.779,3.779,0,0,1,13.4,2.749Zm5.2-13.084h.939v9.327h.032l4.129-5.084h1.069L21.945-2.676l3.271,5.214H24.18L21.395-2,19.533.206V2.538h-.939Z" transform="translate(11.529 36.075)" fill="#fff"/>
    </g>
    <g id="icon_3risk" transform="translate(196.122 325.44)">
      <rect id="사각형_1295-3" data-name="사각형 1295" width="47.332" height="47.332" rx="10" transform="translate(0 0)" fill="#8dbf09"/>
      <path id="_3" data-name="3" d="M5.086-9.867a4.63,4.63,0,0,1,1.536.275A3.7,3.7,0,0,1,7.806-8.9a2.944,2.944,0,0,1,.747,1.017,2.9,2.9,0,0,1,.241,1.26A2.541,2.541,0,0,1,8.268-4.95,3.818,3.818,0,0,1,6.98-3.941,3.135,3.135,0,0,1,8.527-2.831,3.091,3.091,0,0,1,9-1.058,3.76,3.76,0,0,1,8.632.577a3.593,3.593,0,0,1-.939,1.19,4.005,4.005,0,0,1-1.36.721,5.4,5.4,0,0,1-1.619.243A5.315,5.315,0,0,1,3.086,2.5a3.553,3.553,0,0,1-1.214-.656A3.99,3.99,0,0,1,1,.8,6.666,6.666,0,0,1,.39-.621L2.365-1.4a3.506,3.506,0,0,0,.227.583,4.275,4.275,0,0,0,.348.607,2.658,2.658,0,0,0,.437.486,2.368,2.368,0,0,0,.567.364,1.742,1.742,0,0,0,.737.146A2.569,2.569,0,0,0,5.612.634a2.026,2.026,0,0,0,.664-.4,1.6,1.6,0,0,0,.4-.575A1.773,1.773,0,0,0,6.8-1.01a3.48,3.48,0,0,0-.082-.777,1.116,1.116,0,0,0-.372-.607,2.045,2.045,0,0,0-.858-.389A6.616,6.616,0,0,0,3.985-2.92V-4.54A6.046,6.046,0,0,0,5.3-4.685a2.092,2.092,0,0,0,.81-.364,1.242,1.242,0,0,0,.4-.551,2.073,2.073,0,0,0,.113-.7A1.587,1.587,0,0,0,6.2-7.56a1.752,1.752,0,0,0-1.239-.413,1.9,1.9,0,0,0-1.2.364,2.054,2.054,0,0,0-.68.947A5.238,5.238,0,0,0,2.9-5.9q-.518-.081-1.044-.186T.795-6.272A4.387,4.387,0,0,1,2.26-8.984,4.4,4.4,0,0,1,5.086-9.867Z" transform="translate(19.093 17.506)" fill="#fff"/>
      <path id="risk-3" data-name="risk" d="M1.3-6.093h.777l.113,1.6h.032A4.191,4.191,0,0,1,3.284-5.817a2.154,2.154,0,0,1,1.384-.5,2.368,2.368,0,0,1,.461.04,1.489,1.489,0,0,1,.413.154l-.194.842A3.03,3.03,0,0,0,4.968-5.4a2.09,2.09,0,0,0-.413-.032,2.033,2.033,0,0,0-1.206.486A3.818,3.818,0,0,0,2.239-3.259v5.8H1.3Zm5.813,0h.939V2.538H7.113ZM7.6-8.117a.814.814,0,0,1-.559-.208.676.676,0,0,1-.235-.529.706.706,0,0,1,.235-.569.833.833,0,0,1,.559-.2.833.833,0,0,1,.559.2.706.706,0,0,1,.235.569.676.676,0,0,1-.235.529A.814.814,0,0,1,7.6-8.117ZM13.4,2.749A4.479,4.479,0,0,1,11.623,2.4a5.6,5.6,0,0,1-1.4-.834l.5-.68a5.982,5.982,0,0,0,1.2.777,3.448,3.448,0,0,0,1.522.308,2.055,2.055,0,0,0,1.482-.478A1.551,1.551,0,0,0,15.42.336a1.2,1.2,0,0,0-.186-.672,1.944,1.944,0,0,0-.486-.5,3.508,3.508,0,0,0-.672-.381q-.372-.162-.745-.291-.486-.162-.963-.364A4.333,4.333,0,0,1,11.5-2.36a2.407,2.407,0,0,1-.632-.672,1.769,1.769,0,0,1-.243-.955,2.234,2.234,0,0,1,.186-.9,2.063,2.063,0,0,1,.551-.745,2.737,2.737,0,0,1,.891-.5,3.607,3.607,0,0,1,1.206-.186,3.658,3.658,0,0,1,1.368.262,4.555,4.555,0,0,1,1.142.645l-.486.648a5.215,5.215,0,0,0-.931-.551,2.669,2.669,0,0,0-1.125-.227,1.919,1.919,0,0,0-1.409.454,1.431,1.431,0,0,0-.453,1.038,1.1,1.1,0,0,0,.17.616,1.554,1.554,0,0,0,.453.446,3.63,3.63,0,0,0,.648.333l.737.292q.5.195,1,.4a4.158,4.158,0,0,1,.891.495,2.444,2.444,0,0,1,.648.706A1.989,1.989,0,0,1,16.359.282a2.351,2.351,0,0,1-.194.949,2.26,2.26,0,0,1-.575.787,2.753,2.753,0,0,1-.931.535A3.779,3.779,0,0,1,13.4,2.749Zm5.2-13.084h.939v9.327h.032l4.129-5.084h1.069L21.945-2.676l3.271,5.214H24.18L21.395-2,19.533.206V2.538h-.939Z" transform="translate(11.529 36.075)" fill="#fff"/>
    </g>
    <g id="icon_4risk" transform="translate(46.652 385.228)">
      <rect id="사각형_1295-4" data-name="사각형 1295" width="47.332" height="47.332" rx="10" transform="translate(0 0)" fill="#ffa527"/>
      <path id="_4" data-name="4" d="M7.968-2.366H9.49V-.52H7.968V2.41H5.992V-.52H.26V-2.334Q1.669-4.18,3.069-6.066T5.863-9.815H7.968ZM5.992-6.094q0-.113.008-.4t.024-.613L2.462-2.334h3.53Z" transform="translate(19.061 17.519)" fill="#fff"/>
      <path id="risk-4" data-name="risk" d="M1.3-6.093h.777l.113,1.6h.032A4.191,4.191,0,0,1,3.284-5.817a2.154,2.154,0,0,1,1.384-.5,2.368,2.368,0,0,1,.461.04,1.489,1.489,0,0,1,.413.154l-.194.842A3.03,3.03,0,0,0,4.968-5.4a2.09,2.09,0,0,0-.413-.032,2.033,2.033,0,0,0-1.206.486A3.818,3.818,0,0,0,2.239-3.259v5.8H1.3Zm5.813,0h.939V2.538H7.113ZM7.6-8.117a.814.814,0,0,1-.559-.208.676.676,0,0,1-.235-.529.706.706,0,0,1,.235-.569.833.833,0,0,1,.559-.2.833.833,0,0,1,.559.2.706.706,0,0,1,.235.569.676.676,0,0,1-.235.529A.814.814,0,0,1,7.6-8.117ZM13.4,2.749A4.479,4.479,0,0,1,11.623,2.4a5.6,5.6,0,0,1-1.4-.834l.5-.68a5.982,5.982,0,0,0,1.2.777,3.448,3.448,0,0,0,1.522.308,2.055,2.055,0,0,0,1.482-.478A1.551,1.551,0,0,0,15.42.336a1.2,1.2,0,0,0-.186-.672,1.944,1.944,0,0,0-.486-.5,3.508,3.508,0,0,0-.672-.381q-.372-.162-.745-.291-.486-.162-.963-.364A4.333,4.333,0,0,1,11.5-2.36a2.407,2.407,0,0,1-.632-.672,1.769,1.769,0,0,1-.243-.955,2.234,2.234,0,0,1,.186-.9,2.063,2.063,0,0,1,.551-.745,2.737,2.737,0,0,1,.891-.5,3.607,3.607,0,0,1,1.206-.186,3.658,3.658,0,0,1,1.368.262,4.555,4.555,0,0,1,1.142.645l-.486.648a5.215,5.215,0,0,0-.931-.551,2.669,2.669,0,0,0-1.125-.227,1.919,1.919,0,0,0-1.409.454,1.431,1.431,0,0,0-.453,1.038,1.1,1.1,0,0,0,.17.616,1.554,1.554,0,0,0,.453.446,3.63,3.63,0,0,0,.648.333l.737.292q.5.195,1,.4a4.158,4.158,0,0,1,.891.495,2.444,2.444,0,0,1,.648.706A1.989,1.989,0,0,1,16.359.282a2.351,2.351,0,0,1-.194.949,2.26,2.26,0,0,1-.575.787,2.753,2.753,0,0,1-.931.535A3.779,3.779,0,0,1,13.4,2.749Zm5.2-13.084h.939v9.327h.032l4.129-5.084h1.069L21.945-2.676l3.271,5.214H24.18L21.395-2,19.533.206V2.538h-.939Z" transform="translate(11.529 36.075)" fill="#fff"/>
    </g>
    <g id="icon_5risk" transform="translate(106.44 385.228)">
      <rect id="사각형_1295-5" data-name="사각형 1295" width="47.332" height="47.332" rx="10" transform="translate(0 0)" fill="#ff7f51"/>
      <path id="_5" data-name="5" d="M8.39-7.729H3.84l-.4,2.364a7.088,7.088,0,0,1,.721-.089q.348-.024.672-.024a4.688,4.688,0,0,1,1.716.291,3.521,3.521,0,0,1,1.247.8,3.375,3.375,0,0,1,.761,1.206,4.237,4.237,0,0,1,.259,1.49A4.462,4.462,0,0,1,8.463.092,4.069,4.069,0,0,1,7.5,1.476a4.34,4.34,0,0,1-1.457.891,5.123,5.123,0,0,1-1.814.316,4.74,4.74,0,0,1-1.085-.121,5.634,5.634,0,0,1-.98-.324A6.292,6.292,0,0,1,1.3,1.776a4.773,4.773,0,0,1-.712-.551L1.718-.426a7.823,7.823,0,0,0,.623.486q.219.146.478.283a4.859,4.859,0,0,0,.648.275,2.661,2.661,0,0,0,.891.138A2.175,2.175,0,0,0,6.05.108a2.424,2.424,0,0,0,.591-1.7,2.008,2.008,0,0,0-.575-1.522A2.231,2.231,0,0,0,4.39-3.632a6.324,6.324,0,0,0-.9.13,7.6,7.6,0,0,0-.866.243l-1.36-.4q.761-4.53,1-6.072H8.39Z" transform="translate(19.141 17.538)" fill="#fff"/>
      <path id="risk-5" data-name="risk" d="M1.3-6.093h.777l.113,1.6h.032A4.191,4.191,0,0,1,3.284-5.817a2.154,2.154,0,0,1,1.384-.5,2.368,2.368,0,0,1,.461.04,1.489,1.489,0,0,1,.413.154l-.194.842A3.03,3.03,0,0,0,4.968-5.4a2.09,2.09,0,0,0-.413-.032,2.033,2.033,0,0,0-1.206.486A3.818,3.818,0,0,0,2.239-3.259v5.8H1.3Zm5.813,0h.939V2.538H7.113ZM7.6-8.117a.814.814,0,0,1-.559-.208.676.676,0,0,1-.235-.529.706.706,0,0,1,.235-.569.833.833,0,0,1,.559-.2.833.833,0,0,1,.559.2.706.706,0,0,1,.235.569.676.676,0,0,1-.235.529A.814.814,0,0,1,7.6-8.117ZM13.4,2.749A4.479,4.479,0,0,1,11.623,2.4a5.6,5.6,0,0,1-1.4-.834l.5-.68a5.982,5.982,0,0,0,1.2.777,3.448,3.448,0,0,0,1.522.308,2.055,2.055,0,0,0,1.482-.478A1.551,1.551,0,0,0,15.42.336a1.2,1.2,0,0,0-.186-.672,1.944,1.944,0,0,0-.486-.5,3.508,3.508,0,0,0-.672-.381q-.372-.162-.745-.291-.486-.162-.963-.364A4.333,4.333,0,0,1,11.5-2.36a2.407,2.407,0,0,1-.632-.672,1.769,1.769,0,0,1-.243-.955,2.234,2.234,0,0,1,.186-.9,2.063,2.063,0,0,1,.551-.745,2.737,2.737,0,0,1,.891-.5,3.607,3.607,0,0,1,1.206-.186,3.658,3.658,0,0,1,1.368.262,4.555,4.555,0,0,1,1.142.645l-.486.648a5.215,5.215,0,0,0-.931-.551,2.669,2.669,0,0,0-1.125-.227,1.919,1.919,0,0,0-1.409.454,1.431,1.431,0,0,0-.453,1.038,1.1,1.1,0,0,0,.17.616,1.554,1.554,0,0,0,.453.446,3.63,3.63,0,0,0,.648.333l.737.292q.5.195,1,.4a4.158,4.158,0,0,1,.891.495,2.444,2.444,0,0,1,.648.706A1.989,1.989,0,0,1,16.359.282a2.351,2.351,0,0,1-.194.949,2.26,2.26,0,0,1-.575.787,2.753,2.753,0,0,1-.931.535A3.779,3.779,0,0,1,13.4,2.749Zm5.2-13.084h.939v9.327h.032l4.129-5.084h1.069L21.945-2.676l3.271,5.214H24.18L21.395-2,19.533.206V2.538h-.939Z" transform="translate(11.529 36.075)" fill="#fff"/>
    </g>
    <g id="icon_6risk" transform="translate(166.228 385.228)">
      <path id="패스_2003" data-name="패스 2003" d="M12.456,0h22.42A12.456,12.456,0,0,1,47.332,12.456v22.42A12.456,12.456,0,0,1,34.876,47.332H12.456A12.456,12.456,0,0,1,0,34.876V12.456A12.456,12.456,0,0,1,12.456,0Z" transform="translate(0 0)" fill="#e4543e"/>
      <path id="_6" data-name="6" d="M5.426-5.138a4.181,4.181,0,0,1,1.36.227,3.256,3.256,0,0,1,1.166.688,3.431,3.431,0,0,1,.81,1.158,3.975,3.975,0,0,1,.308,1.619A4.123,4.123,0,0,1,8.754.165a4.076,4.076,0,0,1-.882,1.32,4.041,4.041,0,0,1-1.376.891A4.754,4.754,0,0,1,4.714,2.7a4.718,4.718,0,0,1-1.773-.316A3.824,3.824,0,0,1,1.6,1.5,3.876,3.876,0,0,1,.755.124a5.1,5.1,0,0,1-.3-1.781A4.74,4.74,0,0,1,.827-3.414,8.73,8.73,0,0,1,1.9-5.3L3.143-6.968l2.04-2.769H7.9Q7-8.6,6.114-7.494T4.341-5.252l-.162.146-.243.243.178-.081A3.217,3.217,0,0,1,4.73-5.09,4.918,4.918,0,0,1,5.426-5.138ZM2.592-1.333A2.206,2.206,0,0,0,3.167.286,2.031,2.031,0,0,0,4.681.869,2.4,2.4,0,0,0,5.539.715,2.119,2.119,0,0,0,6.252.27a2.029,2.029,0,0,0,.478-.7,2.277,2.277,0,0,0,.17-.891,2.028,2.028,0,0,0-.607-1.595A2.3,2.3,0,0,0,4.7-3.454a2.046,2.046,0,0,0-1.538.583A2.113,2.113,0,0,0,2.592-1.333Z" transform="translate(19.109 17.538)" fill="#fff"/>
      <path id="risk-6" data-name="risk" d="M1.3-6.093h.777l.113,1.6h.032A4.191,4.191,0,0,1,3.284-5.817a2.154,2.154,0,0,1,1.384-.5,2.368,2.368,0,0,1,.461.04,1.489,1.489,0,0,1,.413.154l-.194.842A3.03,3.03,0,0,0,4.968-5.4a2.09,2.09,0,0,0-.413-.032,2.033,2.033,0,0,0-1.206.486A3.818,3.818,0,0,0,2.239-3.259v5.8H1.3Zm5.813,0h.939V2.538H7.113ZM7.6-8.117a.814.814,0,0,1-.559-.208.676.676,0,0,1-.235-.529.706.706,0,0,1,.235-.569.833.833,0,0,1,.559-.2.833.833,0,0,1,.559.2.706.706,0,0,1,.235.569.676.676,0,0,1-.235.529A.814.814,0,0,1,7.6-8.117ZM13.4,2.749A4.479,4.479,0,0,1,11.623,2.4a5.6,5.6,0,0,1-1.4-.834l.5-.68a5.982,5.982,0,0,0,1.2.777,3.448,3.448,0,0,0,1.522.308,2.055,2.055,0,0,0,1.482-.478A1.551,1.551,0,0,0,15.42.336a1.2,1.2,0,0,0-.186-.672,1.944,1.944,0,0,0-.486-.5,3.508,3.508,0,0,0-.672-.381q-.372-.162-.745-.291-.486-.162-.963-.364A4.333,4.333,0,0,1,11.5-2.36a2.407,2.407,0,0,1-.632-.672,1.769,1.769,0,0,1-.243-.955,2.234,2.234,0,0,1,.186-.9,2.063,2.063,0,0,1,.551-.745,2.737,2.737,0,0,1,.891-.5,3.607,3.607,0,0,1,1.206-.186,3.658,3.658,0,0,1,1.368.262,4.555,4.555,0,0,1,1.142.645l-.486.648a5.215,5.215,0,0,0-.931-.551,2.669,2.669,0,0,0-1.125-.227,1.919,1.919,0,0,0-1.409.454,1.431,1.431,0,0,0-.453,1.038,1.1,1.1,0,0,0,.17.616,1.554,1.554,0,0,0,.453.446,3.63,3.63,0,0,0,.648.333l.737.292q.5.195,1,.4a4.158,4.158,0,0,1,.891.495,2.444,2.444,0,0,1,.648.706A1.989,1.989,0,0,1,16.359.282a2.351,2.351,0,0,1-.194.949,2.26,2.26,0,0,1-.575.787,2.753,2.753,0,0,1-.931.535A3.779,3.779,0,0,1,13.4,2.749Zm5.2-13.084h.939v9.327h.032l4.129-5.084h1.069L21.945-2.676l3.271,5.214H24.18L21.395-2,19.533.206V2.538h-.939Z" transform="translate(11.529 36.075)" fill="#fff"/>
    </g>
    <g id="icon_7risk" transform="translate(226.016 385.228)">
      <rect id="사각형_1295-6" data-name="사각형 1295" width="47.332" height="47.332" rx="10" transform="translate(0 0)" fill="#de2121"/>
      <path id="_7" data-name="7" d="M8.85-9.659v1.587L3.944,2.372H1.466Q2.5.222,3.6-1.985T5.725-6.325q.049-.081.138-.259t.154-.291a1.065,1.065,0,0,0,.065-.113A1.064,1.064,0,0,1,6.146-7.1a2.645,2.645,0,0,1,.324-.55H.689V-9.659Z" transform="translate(19.167 17.557)" fill="#fff"/>
      <path id="risk-7" data-name="risk" d="M1.3-6.093h.777l.113,1.6h.032A4.191,4.191,0,0,1,3.284-5.817a2.154,2.154,0,0,1,1.384-.5,2.368,2.368,0,0,1,.461.04,1.489,1.489,0,0,1,.413.154l-.194.842A3.03,3.03,0,0,0,4.968-5.4a2.09,2.09,0,0,0-.413-.032,2.033,2.033,0,0,0-1.206.486A3.818,3.818,0,0,0,2.239-3.259v5.8H1.3Zm5.813,0h.939V2.538H7.113ZM7.6-8.117a.814.814,0,0,1-.559-.208.676.676,0,0,1-.235-.529.706.706,0,0,1,.235-.569.833.833,0,0,1,.559-.2.833.833,0,0,1,.559.2.706.706,0,0,1,.235.569.676.676,0,0,1-.235.529A.814.814,0,0,1,7.6-8.117ZM13.4,2.749A4.479,4.479,0,0,1,11.623,2.4a5.6,5.6,0,0,1-1.4-.834l.5-.68a5.982,5.982,0,0,0,1.2.777,3.448,3.448,0,0,0,1.522.308,2.055,2.055,0,0,0,1.482-.478A1.551,1.551,0,0,0,15.42.336a1.2,1.2,0,0,0-.186-.672,1.944,1.944,0,0,0-.486-.5,3.508,3.508,0,0,0-.672-.381q-.372-.162-.745-.291-.486-.162-.963-.364A4.333,4.333,0,0,1,11.5-2.36a2.407,2.407,0,0,1-.632-.672,1.769,1.769,0,0,1-.243-.955,2.234,2.234,0,0,1,.186-.9,2.063,2.063,0,0,1,.551-.745,2.737,2.737,0,0,1,.891-.5,3.607,3.607,0,0,1,1.206-.186,3.658,3.658,0,0,1,1.368.262,4.555,4.555,0,0,1,1.142.645l-.486.648a5.215,5.215,0,0,0-.931-.551,2.669,2.669,0,0,0-1.125-.227,1.919,1.919,0,0,0-1.409.454,1.431,1.431,0,0,0-.453,1.038,1.1,1.1,0,0,0,.17.616,1.554,1.554,0,0,0,.453.446,3.63,3.63,0,0,0,.648.333l.737.292q.5.195,1,.4a4.158,4.158,0,0,1,.891.495,2.444,2.444,0,0,1,.648.706A1.989,1.989,0,0,1,16.359.282a2.351,2.351,0,0,1-.194.949,2.26,2.26,0,0,1-.575.787,2.753,2.753,0,0,1-.931.535A3.779,3.779,0,0,1,13.4,2.749Zm5.2-13.084h.939v9.327h.032l4.129-5.084h1.069L21.945-2.676l3.271,5.214H24.18L21.395-2,19.533.206V2.538h-.939Z" transform="translate(11.529 36.075)" fill="#fff"/>
    </g>
    <line id="선_304" data-name="선 304" x2="290" transform="translate(15.5 304.5)" fill="none" stroke="#dcdcdc" stroke-width="1"/>
  </g>
</svg>
