<svg xmlns="http://www.w3.org/2000/svg" width="72.814" height="72.814" viewBox="0 0 72.814 72.814">
  <g id="그룹_442" data-name="그룹 442" transform="translate(-1080 -335)">
    <g id="패스_89" data-name="패스 89" transform="translate(1080 335)" fill="#fff" stroke-linecap="round">
      <path d="M 36.406982421875 70.31397247314453 C 31.82846450805664 70.31397247314453 27.38822937011719 69.41781616210938 23.20961761474609 67.65042114257813 C 19.17230033874512 65.94277191162109 15.54588794708252 63.49760437011719 12.43112373352051 60.38284301757813 C 9.31635856628418 57.2680778503418 6.871194362640381 53.64166641235352 5.163558959960938 49.60434722900391 C 3.396158933639526 45.42573547363281 2.500005960464478 40.98550033569336 2.500005960464478 36.406982421875 C 2.500005960464478 31.82846450805664 3.396158933639526 27.38822937011719 5.163558959960938 23.20961761474609 C 6.871194362640381 19.17230033874512 9.31635856628418 15.54588794708252 12.43112373352051 12.43112373352051 C 15.54588794708252 9.31635856628418 19.17230033874512 6.871194362640381 23.20961761474609 5.163558959960938 C 27.38822937011719 3.396158933639526 31.82846450805664 2.500005960464478 36.406982421875 2.500005960464478 C 40.98550033569336 2.500005960464478 45.42573547363281 3.396158933639526 49.60434722900391 5.163558959960938 C 53.64166641235352 6.871194362640381 57.2680778503418 9.31635856628418 60.38284301757813 12.43112373352051 C 63.49760437011719 15.54588794708252 65.94277191162109 19.17230033874512 67.65042114257813 23.20961761474609 C 69.41781616210938 27.38822937011719 70.31397247314453 31.82846450805664 70.31397247314453 36.406982421875 C 70.31397247314453 39.99023056030273 69.75617218017578 43.51632308959961 68.65606689453125 46.88731002807617 C 67.58586120605469 50.16666412353516 66.00685119628906 53.28954696655273 63.96287536621094 56.16920471191406 C 60.94247817993164 60.42559432983398 56.87852478027344 63.97258377075195 52.21015930175781 66.42697143554688 C 49.82797241210938 67.67940521240234 47.29697036743164 68.64546203613281 44.68746566772461 69.29832458496094 C 41.99374771118164 69.97226715087891 39.20779418945313 70.31397247314453 36.406982421875 70.31397247314453 Z" stroke="none"/>
      <path d="M 36.406982421875 5 C 32.16486740112305 5 28.05229568481445 5.829696655273438 24.18350982666016 7.466064453125 C 20.44418334960938 9.04766845703125 17.08486938476563 11.31291198730469 14.19889831542969 14.19889831542969 C 11.31291198730469 17.08486938476563 9.04766845703125 20.44418334960938 7.466064453125 24.18350982666016 C 5.829696655273438 28.05229568481445 5 32.16486740112305 5 36.406982421875 C 5 40.64909744262695 5.829696655273438 44.76166534423828 7.466064453125 48.63045501708984 C 9.04766845703125 52.36978149414063 11.31291198730469 55.72909545898438 14.19889831542969 58.61506652832031 C 17.08486938476563 61.50105285644531 20.44418334960938 63.76629638671875 24.18350982666016 65.347900390625 C 28.05229568481445 66.98426818847656 32.16486740112305 67.81396484375 36.406982421875 67.81396484375 C 39.00342559814453 67.81396484375 41.58523941040039 67.49741363525391 44.08071136474609 66.87308502197266 C 46.4970817565918 66.26853942871094 48.84081268310547 65.37393951416016 51.04678344726563 64.21415710449219 C 55.36882781982422 61.94184112548828 59.13006591796875 58.65974044799805 61.92420959472656 54.72218322753906 C 63.82218170166016 52.04822540283203 65.28748321533203 49.15123748779297 66.27942657470703 46.1116943359375 C 67.29766845703125 42.99152374267578 67.81396484375 39.72638320922852 67.81396484375 36.406982421875 C 67.81396484375 32.16486740112305 66.98426818847656 28.05229568481445 65.347900390625 24.18350982666016 C 63.76629638671875 20.44418334960938 61.50105285644531 17.08486938476563 58.61506652832031 14.19889831542969 C 55.72909545898438 11.31291198730469 52.36978149414063 9.04766845703125 48.63045501708984 7.466064453125 C 44.76166534423828 5.829696655273438 40.64909744262695 5 36.406982421875 5 M 36.406982421875 0 C 56.51399612426758 0 72.81396484375 16.29996871948242 72.81396484375 36.406982421875 C 72.81396484375 44.24868011474609 70.33475494384766 51.51133728027344 66.00152587890625 57.61624145507813 C 59.52098083496094 66.74871063232422 48.67229461669922 72.81396484375 36.406982421875 72.81396484375 C 16.29996871948242 72.81396484375 0 56.51399612426758 0 36.406982421875 C 0 16.29996871948242 16.29996871948242 0 36.406982421875 0 Z" stroke="none" fill="#7e2aff"/>
    </g>
    <path id="패스_82" data-name="패스 82" d="M10.25,26.692l9.4,11.744L38.436,10.25" transform="translate(1092.064 347.064)" fill="#fff" stroke="#7e2aff" stroke-linecap="round" stroke-linejoin="round" stroke-width="5"/>
  </g>
</svg>
