<svg id="레이어_2" data-name="레이어 2" xmlns="http://www.w3.org/2000/svg" width="18.864" height="13.377" viewBox="0 0 18.864 13.377">
  <g id="레이어_1" data-name="레이어 1">
    <path id="패스_126" data-name="패스 126" d="M18.579,2.437A2.491,2.491,0,0,0,16.3.242C15.589.135,12.157,0,9.431,0S3.275.135,2.563.242A2.489,2.489,0,0,0,.288,2.437,35.938,35.938,0,0,0,0,6.577V6.8a35.991,35.991,0,0,0,.288,4.143,2.487,2.487,0,0,0,2.275,2.192c.713.106,4.148.239,6.876.239l-.012,0c2.727,0,6.162-.135,6.876-.242a2.491,2.491,0,0,0,2.277-2.192A36.69,36.69,0,0,0,18.864,6.8V6.577a36.637,36.637,0,0,0-.285-4.141ZM8.265,9.566V3.811l4.023,2.811Z" fill="#fff"/>
  </g>
</svg>
