<svg id="레이어_2" data-name="레이어 2" xmlns="http://www.w3.org/2000/svg" width="17.643" height="17.641" viewBox="0 0 17.643 17.641">
  <g id="레이어_1" data-name="레이어 1">
    <path id="패스_121" data-name="패스 121" d="M12.551,0H5.092A5.092,5.092,0,0,0,0,5.092V12.55a5.09,5.09,0,0,0,5.093,5.091h7.458a5.09,5.09,0,0,0,5.092-5.091V5.092A5.092,5.092,0,0,0,12.551,0m3.467,12.681a3.382,3.382,0,0,1-3.38,3.381H5a3.383,3.383,0,0,1-3.381-3.381V5.049A3.382,3.382,0,0,1,5,1.668h7.633a3.381,3.381,0,0,1,3.381,3.381Z" fill="#fff"/>
    <path id="패스_122" data-name="패스 122" d="M8.82,4.287A4.577,4.577,0,1,0,13.4,8.865,4.577,4.577,0,0,0,8.82,4.287m0,7.545a2.968,2.968,0,1,1,2.968-2.967A2.968,2.968,0,0,1,8.82,11.832" fill="#fff"/>
    <path id="패스_123" data-name="패스 123" d="M13.552,3.046a1.066,1.066,0,1,0,1.066,1.066,1.066,1.066,0,0,0-1.066-1.066" fill="#fff"/>
  </g>
</svg>
