<svg xmlns="http://www.w3.org/2000/svg" width="30.426" height="28.096" viewBox="0 0 30.426 28.096">
  <g id="레이어_2" data-name="레이어 2" transform="translate(0 0)">
    <g id="레이어_1" data-name="레이어 1">
      <path id="패스_101" data-name="패스 101" d="M7.663,6.851,6.631,10.067h2.05l-1-3.216Z" transform="translate(3.443 3.557)" fill="#d8d8d8"/>
      <path id="패스_102" data-name="패스 102" d="M15.212,0C6.811,0,0,5.378,0,12.015c0,4.268,2.822,8.007,7.059,10.146L5.625,27.512a.445.445,0,0,0,.109.457.42.42,0,0,0,.575.025l6.165-4.163a19.234,19.234,0,0,0,2.739.2c8.4,0,15.214-5.378,15.214-12.016S23.612,0,15.212,0ZM7.086,15.815a.919.919,0,0,1-.24.661.841.841,0,0,1-.642.248.89.89,0,0,1-.56-.179.824.824,0,0,1-.3-.5.951.951,0,0,1-.015-.234l0-5.7H3.683a1.1,1.1,0,0,1-.588-.156.651.651,0,0,1-.3-.444c-.009-.051-.018-.11-.024-.171a.668.668,0,0,1,.26-.562,1.025,1.025,0,0,1,.651-.2H8.74a1.077,1.077,0,0,1,.586.156.655.655,0,0,1,.307.444.829.829,0,0,1,.011.166.69.69,0,0,1-.253.571,1.016,1.016,0,0,1-.647.2H7.089Zm7.235.677a.8.8,0,0,1-.582.232.746.746,0,0,1-.786-.5L12.5,14.891H9.68l-.455,1.334a.731.731,0,0,1-.784.5.814.814,0,0,1-.517-.159.73.73,0,0,1-.269-.452.914.914,0,0,1-.016-.186.993.993,0,0,1,.048-.322,3.933,3.933,0,0,1,.119-.377L10.07,8.987a.778.778,0,0,1,.319-.428,1.009,1.009,0,0,1,.536-.128h.421a1.1,1.1,0,0,1,.572.139.916.916,0,0,1,.362.529L14.4,15.228a3.643,3.643,0,0,1,.143.488,1.952,1.952,0,0,1,.031.211.769.769,0,0,1-.247.566Zm5.851-.111a1.035,1.035,0,0,1-.652.2H15.866a1.146,1.146,0,0,1-.658-.168.8.8,0,0,1-.332-.541,2.5,2.5,0,0,1-.038-.358l0-6.176a.917.917,0,0,1,.24-.659.84.84,0,0,1,.642-.25.87.87,0,0,1,.562.182.835.835,0,0,1,.293.5.862.862,0,0,1,.015.231l0,5.708h2.926a1.058,1.058,0,0,1,.593.156.67.67,0,0,1,.3.446,1.037,1.037,0,0,1,.025.166.673.673,0,0,1-.258.566Zm6.58.139a1.015,1.015,0,0,1-.638.2.877.877,0,0,1-.436-.094,1.164,1.164,0,0,1-.344-.381L23.315,13l-.961,1,.01,1.814a.934.934,0,0,1-.24.661.847.847,0,0,1-.643.248.893.893,0,0,1-.562-.179.825.825,0,0,1-.294-.5,1.122,1.122,0,0,1-.016-.234l0-6.476a.928.928,0,0,1,.239-.659.842.842,0,0,1,.642-.25.867.867,0,0,1,.56.182.814.814,0,0,1,.294.5.892.892,0,0,1,.017.231l0,2.652L25.115,8.83a1.932,1.932,0,0,1,.333-.3.657.657,0,0,1,.365-.1.9.9,0,0,1,.524.163.657.657,0,0,1,.291.427l.013.068a.274.274,0,0,0,0,.075.7.7,0,0,1-.081.333,1.668,1.668,0,0,1-.209.293l-1.8,1.965,2.129,3.372.064.1a1.81,1.81,0,0,1,.252.509c0,.006.006.027.013.054a.3.3,0,0,0,0,.057.8.8,0,0,1-.263.673Z" fill="#d8d8d8"/>
    </g>
  </g>
</svg>
