<?xml version="1.0" standalone="no"?>
<!DOCTYPE svg PUBLIC "-//W3C//DTD SVG 20010904//EN"
 "http://www.w3.org/TR/2001/REC-SVG-20010904/DTD/svg10.dtd">
<svg version="1.0" xmlns="http://www.w3.org/2000/svg"
 width="300.000000pt" height="300.000000pt" viewBox="0 0 300.000000 300.000000"
 preserveAspectRatio="xMidYMid meet">
<metadata>
Created by potrace 1.11, written by Peter Selinger 2001-2013
</metadata>
<g transform="translate(0.000000,300.000000) scale(0.100000,-0.100000)"
fill="#000000" stroke="none">
<path d="M622 2975 c-189 -49 -318 -131 -467 -298 -25 -28 -87 -138 -118 -207
l-32 -75 -3 -875 c-3 -874 -3 -875 19 -940 89 -267 289 -461 566 -547 l88 -28
795 -2 795 -2 93 24 c111 28 181 60 271 120 183 123 287 276 358 525 12 40 13
1567 2 1634 -13 79 -51 185 -95 265 -120 219 -349 380 -599 420 -35 6 -376 10
-820 10 l-760 0 -93 -24z"/>
</g>
</svg>
