<?xml version="1.0" encoding="utf-8"?>
<!-- Generator: Adobe Illustrator 22.1.0, SVG Export Plug-In . SVG Version: 6.00 Build 0)  -->
<svg version="1.1" id="레이어_1" xmlns="http://www.w3.org/2000/svg" xmlns:xlink="http://www.w3.org/1999/xlink" x="0px"
	 y="0px" viewBox="0 0 18 20" style="enable-background:new 0 0 18 20;" xml:space="preserve">
<style type="text/css">
	.st0{fill:#FFFFFF;stroke:#0072FF;stroke-miterlimit:10;}
	.st1{fill:none;stroke:#0072FF;stroke-miterlimit:10;}
	.st2{fill:#0072FF;}
</style>
<g>
	<path class="st2" d="M7.2,6.5l-3,7H3l-3-7h1.4l2.3,5.4L6,6.5H7.2z"/>
	<path class="st2" d="M12.1,11.2H8c0.1,0.8,0.8,1.3,1.7,1.3c0.6,0,1-0.2,1.4-0.6l0.6,0.8c-0.5,0.6-1.2,0.9-2.1,0.9
		c-1.7,0-2.9-1.1-2.9-2.7c0-1.6,1.1-2.7,2.7-2.7c1.5,0,2.6,1.1,2.6,2.8C12.1,10.9,12.1,11.1,12.1,11.2z M8,10.4h2.9
		c-0.1-0.8-0.7-1.3-1.5-1.3C8.7,9.1,8.1,9.6,8,10.4z"/>
	<path class="st2" d="M16,8.1v1.2c-0.1,0-0.2,0-0.3,0c-0.9,0-1.5,0.6-1.5,1.6v2.6H13V8.1h1.2v0.8C14.5,8.3,15.1,8.1,16,8.1z"/>
	<path class="st2" d="M16.3,12.7c0-0.5,0.4-0.8,0.8-0.8c0.4,0,0.8,0.3,0.8,0.8c0,0.5-0.4,0.8-0.8,0.8C16.7,13.5,16.3,13.2,16.3,12.7
		z"/>
</g>
</svg>
