<?xml version="1.0" encoding="utf-8"?>
<!-- Generator: Adobe Illustrator 22.1.0, SVG Export Plug-In . SVG Version: 6.00 Build 0)  -->
<svg version="1.1" id="레이어_1" xmlns="http://www.w3.org/2000/svg" xmlns:xlink="http://www.w3.org/1999/xlink" x="0px"
	 y="0px" viewBox="0 0 83.2 22" style="enable-background:new 0 0 83.2 22;" xml:space="preserve">
<style type="text/css">
	.st0{fill:url(#SVGID_1_);}
	.st1{fill:url(#SVGID_2_);}
	.st2{fill:#004DC8;}
	.st3{fill:#3C3C3C;}
</style>
<g>
	<g>
		<linearGradient id="SVGID_1_" gradientUnits="userSpaceOnUse" x1="6.0662" y1="3.4811" x2="16.5783" y2="3.4811">
			<stop  offset="0" style="stop-color:#1D0A72"/>
			<stop  offset="0.2341" style="stop-color:#1A1179"/>
			<stop  offset="0.5766" style="stop-color:#10258B"/>
			<stop  offset="0.984" style="stop-color:#0145A9"/>
			<stop  offset="1" style="stop-color:#0046AA"/>
		</linearGradient>
		<path class="st0" d="M6.1,0.9l0,6.1h10.5V0.9C16,0.3,15.2,0,14.4,0H8.2C7.4,0,6.6,0.3,6.1,0.9z"/>
		<linearGradient id="SVGID_2_" gradientUnits="userSpaceOnUse" x1="6.0662" y1="18.5189" x2="13.3575" y2="18.5189">
			<stop  offset="0" style="stop-color:#1D0A72"/>
			<stop  offset="0.2341" style="stop-color:#1A1179"/>
			<stop  offset="0.5766" style="stop-color:#10258B"/>
			<stop  offset="0.984" style="stop-color:#0145A9"/>
			<stop  offset="1" style="stop-color:#0046AA"/>
		</linearGradient>
		<path class="st1" d="M6.1,15v6.1C6.6,21.7,7.4,22,8.2,22h5.1v-7H6.1z"/>
		<path class="st2" d="M7,19.1V15V7V2.9C7,1.3,8.2,0,9.8,0c0,0,0,0,0,0H8.2C7.8,0,7.4,0.1,7,0.3C6.6,0.4,6.3,0.6,6.1,0.9
			c0,0,0,0,0,0L0.9,6.1C0.6,6.3,0.4,6.6,0.3,7C0.1,7.4,0,7.8,0,8.2v5.5c0,0.4,0.1,0.9,0.3,1.3c0.2,0.3,0.4,0.6,0.6,0.9l5.2,5.2
			c0.3,0.3,0.6,0.5,0.9,0.6C7.4,21.9,7.8,22,8.2,22h1.6c0,0,0,0,0,0C8.2,22,7,20.7,7,19.1z"/>
		<path class="st2" d="M22.6,22V8.2c0-0.4-0.1-0.9-0.3-1.3c-0.2-0.3-0.4-0.6-0.6-0.9l-5.2-5.2c0,0,0,0,0,0c-0.3-0.3-0.6-0.5-0.9-0.6
			C15.3,0.1,14.9,0,14.4,0h-1.6c0,0,0,0,0,0c1.6,0,2.8,1.3,2.9,2.9V22H22.6z"/>
	</g>
	<g>
		<path class="st3" d="M38.7,10.9c-0.1-0.1-0.2-0.3-0.3-0.4l-2.9-2.9c-0.1-0.1-0.1-0.1-0.2-0.2c0,0,0,0-0.1,0l-0.1-0.1
			c-0.1,0-0.1-0.1-0.2-0.1l-0.1,0c-0.1,0-0.2,0-0.3,0h-3.5c-0.1,0-0.2,0-0.3,0l0,0c-0.1,0-0.1,0-0.2,0.1l-0.1,0.1c0,0,0,0-0.1,0
			c-0.1,0-0.1,0.1-0.2,0.2l-2.9,2.9c-0.1,0.1-0.2,0.2-0.3,0.4C27,11.1,27,11.2,27,11.4v3.1c0,0.2,0,0.4,0.1,0.5
			c0.1,0.1,0.2,0.3,0.3,0.4l2.9,2.9c0.1,0.1,0.1,0.1,0.2,0.2c0,0,0,0,0.1,0l0.1,0.1c0.1,0,0.1,0.1,0.2,0.1l0.1,0c0.1,0,0.2,0,0.3,0
			h2.7v-3.1H30v-5.3h5.7v8.4h3.1v-7.3C38.8,11.2,38.8,11.1,38.7,10.9L38.7,10.9z"/>
		<path class="st2" d="M42.4,2.8c-0.6,0-1,0.2-1.3,0.5c-0.3,0.4-0.5,0.8-0.5,1.3c0,0.5,0.2,1,0.5,1.3c0.3,0.4,0.8,0.5,1.3,0.5
			c0.6,0,1-0.2,1.4-0.5c0.3-0.4,0.5-0.8,0.5-1.3c0-0.5-0.2-1-0.5-1.3C43.4,3,42.9,2.8,42.4,2.8z"/>
		<rect x="40.9" y="7.7" class="st3" width="2.9" height="11.2"/>
		<path class="st3" d="M52.5,6.8c-1.4,0-2.6,0.4-3.3,1.2V3.2h-2.9v15.8H49l0-0.3c0-0.3,0-0.6,0-0.9c0.8,0.9,1.9,1.4,3.5,1.4
			c1.7,0,3-0.6,4-1.8l0,0c0.9-1.2,1.4-2.7,1.4-4.4c0-1.7-0.5-3.2-1.4-4.4C55.6,7.4,54.2,6.8,52.5,6.8z M55,13c0,1.1-0.3,2.1-0.8,2.7
			c-0.5,0.6-1.2,1-2.1,1c-0.9,0-1.6-0.3-2.1-1c-0.5-0.7-0.8-1.6-0.8-2.7s0.3-2,0.8-2.7c0.5-0.7,1.2-1,2.1-1c0.9,0,1.6,0.3,2.1,1
			C54.7,11,55,11.9,55,13z"/>
		<path class="st2" d="M61.1,2.8c-0.6,0-1,0.2-1.3,0.5c-0.3,0.4-0.5,0.8-0.5,1.3c0,0.5,0.2,1,0.5,1.3c0.3,0.4,0.8,0.5,1.3,0.5
			c0.6,0,1-0.2,1.4-0.5c0.3-0.4,0.5-0.8,0.5-1.3c0-0.5-0.2-1-0.5-1.3C62.1,3,61.6,2.8,61.1,2.8z"/>
		<rect x="59.6" y="7.7" class="st3" width="2.9" height="11.2"/>
		<path class="st3" d="M70,16.4c-0.5,0-0.8-0.1-1-0.3c-0.1-0.2-0.3-0.6-0.3-1.6v-5h2.7V7h-2.7V4.4h-2.9V7H64v2.4h1.7v5
			c0,1.8,0.4,2.9,1.1,3.6c0.7,0.6,1.8,1,3.1,1c0.4,0,0.8,0,1.1-0.1l0.7-0.1v-2.5L71,16.3C70.7,16.4,70.4,16.4,70,16.4z"/>
		<path class="st3" d="M82.7,13.6c-0.3-0.5-0.7-0.8-1.2-1.1c-0.4-0.2-0.8-0.4-1.3-0.5c-0.4-0.1-0.9-0.2-1.4-0.3
			c-0.8-0.1-1.5-0.3-2.1-0.5c-0.7-0.2-0.7-0.5-0.7-0.8c0-0.3,0.2-0.6,0.5-0.8l0,0c0.4-0.2,0.9-0.4,1.4-0.4c0.5,0,1,0.2,1.4,0.5
			c0.4,0.3,0.5,0.6,0.5,1v0.3h3v-0.3c0-0.9-0.3-1.7-0.8-2.3c-0.5-0.6-1.1-1-1.8-1.3c-0.4-0.2-0.8-0.3-1.2-0.3
			c-0.8-0.1-1.5-0.1-2.2,0C76.4,6.9,76,7,75.7,7.2c-0.7,0.2-1.3,0.6-1.8,1.2C73.3,8.9,73,9.6,73,10.5c0,0.7,0.2,1.3,0.5,1.8
			c0.3,0.5,0.7,0.8,1.2,1.1c0.7,0.4,1.5,0.6,2.4,0.8c0.9,0.1,1.6,0.3,2.2,0.5c0.3,0.1,0.5,0.2,0.7,0.4c0.1,0.1,0.2,0.3,0.2,0.5
			c0,0.2-0.1,0.6-0.6,0.8c-1,0.4-2.2,0.5-3.2,0c-0.4-0.2-0.6-0.5-0.6-0.9l0-0.3h-3v0.3c0,0.5,0.1,0.9,0.3,1.3c0.2,0.4,0.4,0.7,0.7,1
			c0.5,0.5,1.2,0.9,2,1.1c0.8,0.2,1.5,0.3,2.3,0.3c0.7,0,1.5-0.1,2.3-0.3c0.8-0.2,1.5-0.6,2-1.1c0.3-0.3,0.5-0.6,0.7-1
			c0.2-0.4,0.3-0.8,0.3-1.3C83.2,14.7,83,14,82.7,13.6z"/>
	</g>
</g>
</svg>
