<?xml version="1.0" encoding="utf-8"?>
<!-- Generator: Adobe Illustrator 22.1.0, SVG Export Plug-In . SVG Version: 6.00 Build 0)  -->
<svg version="1.1" id="레이어_1" xmlns="http://www.w3.org/2000/svg" xmlns:xlink="http://www.w3.org/1999/xlink" x="0px"
	 y="0px" viewBox="0 0 90.3 31.2" style="enable-background:new 0 0 90.3 31.2;" xml:space="preserve">
<style type="text/css">
	.st0{fill:#0747AD;}
	.st1{fill:url(#SVGID_1_);}
	.st2{fill:none;}
	.st3{fill:#1D324F;}
	.st4{fill:url(#SVGID_2_);}
	.st5{fill:url(#SVGID_3_);}
	.st6{fill:url(#SVGID_4_);}
	.st7{fill:none;stroke:#0747AD;stroke-width:3;stroke-linecap:square;stroke-miterlimit:10;}
</style>
<g>
	<g>
		<path class="st0" d="M37.8,13.3h-5.2l-0.9,2.3h-3.5l5.2-13.3h3.5l5.3,13.3h-3.6L37.8,13.3z M35.2,6.6l-1.4,3.7h2.9L35.2,6.6z"/>
		<path class="st0" d="M43.3,2.3h3.6v13.3h-3.6V2.3z"/>
		<path class="st0" d="M48.3,2.3h3.6v13.3h-3.6V2.3z"/>
	</g>
	<linearGradient id="SVGID_1_" gradientUnits="userSpaceOnUse" x1="28.3071" y1="11.9661" x2="33.3868" y2="13.9689">
		<stop  offset="0" style="stop-color:#FFFFFF;stop-opacity:0"/>
		<stop  offset="0.1496" style="stop-color:#BFC5CE;stop-opacity:0.2016"/>
		<stop  offset="0.3018" style="stop-color:#8691A1;stop-opacity:0.4068"/>
		<stop  offset="0.4427" style="stop-color:#59687E;stop-opacity:0.5966"/>
		<stop  offset="0.5675" style="stop-color:#384B64;stop-opacity:0.7648"/>
		<stop  offset="0.6715" style="stop-color:#243955;stop-opacity:0.905"/>
		<stop  offset="0.742" style="stop-color:#1D324F"/>
	</linearGradient>
	<path class="st1" d="M30,12.6C30,12.6,30,12.6,30,12.6C30,12.6,30,12.6,30,12.6C30,12.6,30,12.6,30,12.6C30,12.6,30,12.6,30,12.6z"
		/>
	<g>
		<path class="st0" d="M74.9,5.7h3.6v8.8h-3.6V5.7z M74.9,1.2h3.5v3.1h-3.5V1.2z"/>
		<path class="st0" d="M90.3,8v6.5h-3.6v-6c0-1.2-0.6-1.9-1.5-1.9c-1.1,0-1.6,0.8-1.6,2.2v5.7H80V3.8h2.7l0.1,1.1
			c0.8-0.9,1.8-1.3,3.5-1.3C88.7,3.6,90.3,5.5,90.3,8z"/>
		<path class="st2" d="M60.7,10.8c0,0,0.1-0.1,0.1-0.1C60.7,10.7,60.7,10.8,60.7,10.8z"/>
		<path class="st2" d="M66.2,7.8c0-0.1,0.1-0.1,0.1-0.2C66.2,7.7,66.2,7.8,66.2,7.8z"/>
		<path class="st3" d="M65.9,8.2C65.9,8.2,65.9,8.2,65.9,8.2C65.9,8.2,65.9,8.2,65.9,8.2z"/>
		<path class="st3" d="M66,8C66,8,66,8,66,8C66,8,66,8,66,8z"/>
		<path class="st0" d="M63.4,12.6c0.8-1.1,2-3.5,2-3.5c0.3-0.5,0.5-0.9,0.8-1.3c0-0.1,0.1-0.1,0.1-0.2c0,0,0,0,0,0c0,0,0,0,0,0
			c0.4-0.4,1-0.7,1.7-0.7c1.3,0,2.4,1.1,2.4,2.4s-1.1,2.4-2.4,2.4v3.3c0,0,0,0,0,0v0c2.7,0,5-1.9,5.5-4.5c0-0.1,0-0.2,0.1-0.3
			c0-0.1,0-0.1,0-0.2c0-0.1,0-0.2,0-0.3c0,0,0-0.1,0-0.1c0,0,0,0,0-0.1c0-0.1,0-0.2,0-0.3c0,0,0-0.1,0-0.1c0,0,0,0,0,0
			c0,0,0,0,0-0.1c-0.1-1.6-0.8-3.1-2.1-4.2c-1-0.8-2.3-1.3-3.6-1.3c0,0-0.1,0-0.1,0c-0.1,0-0.2,0-0.3,0c-0.1,0-0.1,0-0.2,0
			c-0.1,0-0.1,0-0.2,0c-1.6,0.2-3,1.1-3.8,2.7c0,0,0,0,0,0c0,0-1.4,2.9-2.5,4.3c0,0-0.1,0.1-0.1,0.1c0,0,0,0,0,0c0,0,0,0,0,0
			c-0.3,0.3-0.6,0.6-1,0.7c0,0-0.1,0-0.1,0c0,0-0.1,0-0.1,0c-0.1,0-0.2,0-0.3,0.1c0,0,0,0,0,0c-0.1,0-0.2,0-0.3,0c0,0,0,0,0,0
			c0,0,0,0,0,0c-0.3,0-0.7-0.1-1-0.2c-1.1-0.4-1.6-1.6-1.3-2.7C56.8,7.7,57.8,7,58.8,7l0,0c0.8,0,1.5,0.2,2,0.7l1.4-2.8
			c-0.7-0.6-1.4-0.9-2.3-1.1c-3.3-0.7-6.4,1.5-6.8,4.8c-0.5,3.4,2.4,6.6,5.9,6.4C60.9,14.9,62.4,14.1,63.4,12.6"/>
		<path class="st3" d="M66.1,7.8C66.2,7.8,66.2,7.8,66.1,7.8C66.2,7.8,66.2,7.8,66.1,7.8z"/>
		<linearGradient id="SVGID_2_" gradientUnits="userSpaceOnUse" x1="64.8058" y1="7.1848" x2="69.8855" y2="9.1876">
			<stop  offset="0" style="stop-color:#FFFFFF;stop-opacity:0"/>
			<stop  offset="0.1496" style="stop-color:#BFC5CE;stop-opacity:0.2016"/>
			<stop  offset="0.3018" style="stop-color:#8691A1;stop-opacity:0.4068"/>
			<stop  offset="0.4427" style="stop-color:#59687E;stop-opacity:0.5966"/>
			<stop  offset="0.5675" style="stop-color:#384B64;stop-opacity:0.7648"/>
			<stop  offset="0.6715" style="stop-color:#243955;stop-opacity:0.905"/>
			<stop  offset="0.742" style="stop-color:#1D324F"/>
		</linearGradient>
		<path class="st4" d="M66.3,7.7C66.3,7.7,66.3,7.7,66.3,7.7c0,0-0.1,0.1-0.1,0.2c0,0,0,0,0,0C66.2,7.8,66.2,7.7,66.3,7.7z"/>
		<polygon class="st3" points="66.3,7.7 66.3,7.7 66.3,7.7 		"/>
		<linearGradient id="SVGID_3_" gradientUnits="userSpaceOnUse" x1="64.8435" y1="7.0892" x2="69.9232" y2="9.0921">
			<stop  offset="0" style="stop-color:#FFFFFF;stop-opacity:0"/>
			<stop  offset="0.1496" style="stop-color:#BFC5CE;stop-opacity:0.2016"/>
			<stop  offset="0.3018" style="stop-color:#8691A1;stop-opacity:0.4068"/>
			<stop  offset="0.4427" style="stop-color:#59687E;stop-opacity:0.5966"/>
			<stop  offset="0.5675" style="stop-color:#384B64;stop-opacity:0.7648"/>
			<stop  offset="0.6715" style="stop-color:#243955;stop-opacity:0.905"/>
			<stop  offset="0.742" style="stop-color:#1D324F"/>
		</linearGradient>
		<polygon class="st5" points="66.3,7.7 66.3,7.7 66.3,7.7 		"/>
		<linearGradient id="SVGID_4_" gradientUnits="userSpaceOnUse" x1="63.6468" y1="10.1245" x2="68.7265" y2="12.1273">
			<stop  offset="0" style="stop-color:#FFFFFF;stop-opacity:0"/>
			<stop  offset="2.102072e-02" style="stop-color:#F4F7FB;stop-opacity:2.657628e-02"/>
			<stop  offset="0.145" style="stop-color:#B6C9E7;stop-opacity:0.1833"/>
			<stop  offset="0.2679" style="stop-color:#81A1D5;stop-opacity:0.3387"/>
			<stop  offset="0.3868" style="stop-color:#5581C7;stop-opacity:0.489"/>
			<stop  offset="0.5008" style="stop-color:#3368BC;stop-opacity:0.6332"/>
			<stop  offset="0.6088" style="stop-color:#1B56B4;stop-opacity:0.7697"/>
			<stop  offset="0.7082" style="stop-color:#0C4BAF;stop-opacity:0.8953"/>
			<stop  offset="0.791" style="stop-color:#0747AD"/>
		</linearGradient>
		<path class="st6" d="M68,11.6c-1.3,0-2.4-1.1-2.4-2.4c0-0.6,0.3-1.2,0.7-1.6c-0.4,0.4-0.7,0.9-1,1.4c0,0-1.1,2.3-2,3.5
			c0,0,0.6,0.7,0.9,1c0,0,0,0,0,0c0,0,0,0,0,0c1,0.8,2.3,1.4,3.7,1.4c0,0,0,0,0,0L68,11.6L68,11.6z"/>
	</g>
	<g>
		<polygon class="st0" points="8.5,6.8 14.1,8 14.1,5.7 		"/>
		<path class="st7" d="M20,12.4"/>
		<path class="st0" d="M20.3,11.3l-0.6-0.1c0,0,0,0-0.1,0c-0.1,0-0.1,0-0.2,0c-0.1,0-0.2,0-0.3-0.1C19,11,18.9,11,18.7,11
			c-0.2,0-0.3-0.1-0.5-0.1c-0.2,0-0.4-0.1-0.6-0.1c-0.2,0-0.4-0.1-0.6-0.1c-0.2,0-0.5-0.1-0.7-0.1c-0.2-0.1-0.5-0.1-0.7-0.2
			c-0.3-0.1-0.5-0.1-0.8-0.2C14.6,10.1,14.3,10,14,10c-0.3-0.1-0.6-0.1-0.8-0.2c-0.3-0.1-0.6-0.1-0.8-0.2c-0.3-0.1-0.6-0.1-0.8-0.2
			c-0.3-0.1-0.6-0.1-0.8-0.2c-0.3-0.1-0.5-0.1-0.8-0.2C9.6,9.1,9.3,9,9.1,8.9C8.8,8.9,8.6,8.8,8.3,8.8c-0.2,0-0.5-0.1-0.7-0.1
			C7.5,8.6,7.3,8.6,7,8.5c-0.2,0-0.4-0.1-0.5-0.1C6.3,8.4,6,8.3,5.8,8.3c-0.2,0-0.5-0.1-0.7-0.2C4.8,8,4.5,7.8,4.3,7.5
			C4,7.2,4,6.7,4.2,6.3c0-0.1,0.1-0.3,0.2-0.4c0.2-0.3,0.5-0.4,0.8-0.5c0.1,0,0.1,0,0.2,0c0.1,0,0.2,0,0.3-0.1c0.1,0,0.2,0,0.3-0.1
			c0.1,0,0.3-0.1,0.4-0.1c0.1,0,0.3-0.1,0.4-0.1c0.2,0,0.3-0.1,0.5-0.1C7.4,5,7.6,5,7.8,5c0.2,0,0.4-0.1,0.6-0.1
			c0.2,0,0.4-0.1,0.6-0.1c0.2,0,0.4-0.1,0.7-0.1c0.2,0,0.5-0.1,0.7-0.1c0.2,0,0.5-0.1,0.7-0.1c0.2,0,0.5-0.1,0.7-0.1
			C12.1,4.1,12.3,4,12.6,4c0.3-0.1,0.5-0.1,0.8-0.2c0.3-0.1,0.5-0.1,0.8-0.2c0.3-0.1,0.5-0.1,0.8-0.2c0.3-0.1,0.5-0.1,0.8-0.2
			c0.2-0.1,0.5-0.1,0.7-0.2c0.2,0,0.5-0.1,0.7-0.1c0.2,0,0.5-0.1,0.7-0.1c0.2,0,0.5-0.1,0.7-0.1c0.2,0,0.4-0.1,0.6-0.1
			c0.2,0,0.4-0.1,0.6-0.1c0.2,0,0.4-0.1,0.6-0.1c0.2,0,0.4-0.1,0.5-0.1c0.2,0,0.3-0.1,0.5-0.1c0.1,0,0.3-0.1,0.4-0.1
			c0.1,0,0.2,0,0.4-0.1c0.1,0,0.2,0,0.3-0.1c0.1,0,0.2,0,0.2,0c0.1,0,0.1,0,0.2,0c0,0,0.1,0,0.1,0c0-1.2-1.1-2.1-2.3-1.8l-16,3.3
			c-0.1,0-0.2,0-0.3,0.1L4,3.4c-2.3,0.4-3.9,2.4-4,5l0,14.5c0,2.5,1.8,4.7,4.2,5.2l13.9,2.9c0.4,0.1,0.7,0.1,1.1,0.1
			c1.2,0,2.4-0.4,3.3-1.2c1.3-1,2-2.5,2-4.1v-9.3C24.5,14,22.7,11.8,20.3,11.3z M21.8,22.4c0,0.8-0.7,1.4-1.5,1.3l-5.1-1.1
			c-0.6-0.1-1.1-0.7-1.1-1.3v-2.1c0-0.8,0.7-1.4,1.5-1.3l5.1,1.1c0.6,0.1,1.1,0.7,1.1,1.3V22.4z"/>
		<polygon class="st0" points="22.8,3.9 16.4,5.2 16.4,8.5 22.8,9.8 		"/>
		<circle class="st0" cx="16.4" cy="20.6" r="1"/>
	</g>
	<g>
		<g>
			<path class="st3" d="M41.7,20.5L39,28.9h-2.3L35,25.1l-1.6,3.8H31l-2.8-8.4h3l1.3,4.1l1.7-4.1h1.5l1.8,4.1l1.3-4.1H41.7z"/>
			<path class="st3" d="M51,20.4v8.4h-2.2l-0.2-0.6c-0.7,0.6-1.6,0.9-2.5,0.9c-2.6,0-4.4-1.9-4.4-4.5c0-2.6,1.8-4.5,4.4-4.5
				c1,0,1.9,0.3,2.6,0.9l0.3-0.7H51z M48.1,24.7c0-1.1-0.8-1.9-1.9-1.9c-1.1,0-1.9,0.8-1.9,1.9c0,1.1,0.8,1.9,1.9,1.9
				C47.3,26.6,48.1,25.8,48.1,24.7z"/>
			<path class="st3" d="M52.4,18.8h2.9v10.1h-2.9V18.8z"/>
			<path class="st3" d="M56.8,18.8h2.9v10.1h-2.9V18.8z"/>
			<path class="st3" d="M69.8,24.6c0,0.3,0,0.5-0.1,0.8h-6.3c0.2,1,0.8,1.5,1.7,1.5c0.7,0,1.2-0.3,1.5-0.8h2.9
				c-0.6,1.9-2.3,3.1-4.4,3.1c-2.6,0-4.6-1.9-4.6-4.5c0-2.6,1.9-4.5,4.6-4.5C67.9,20.2,69.8,22.1,69.8,24.6L69.8,24.6z M63.5,23.8
				H67c-0.3-0.8-0.9-1.3-1.7-1.3C64.4,22.5,63.8,22.9,63.5,23.8z"/>
		</g>
		<path class="st3" d="M75.6,26.4c-0.6,0-1-0.4-1-0.9v-2.3h1.7V21h-1.7v-2.2H74h-2.2V21h-1.4v2.2h1.4V26c0,1.8,1.1,2.9,2.9,2.9h1.6
			v-2.5H75.6z"/>
	</g>
</g>
</svg>
