<?xml version="1.0" encoding="utf-8"?>
<!-- Generator: Adobe Illustrator 22.1.0, SVG Export Plug-In . SVG Version: 6.00 Build 0)  -->
<svg version="1.1" id="레이어_1" xmlns="http://www.w3.org/2000/svg" xmlns:xlink="http://www.w3.org/1999/xlink" x="0px"
	 y="0px" viewBox="0 0 25.4 26.5" style="enable-background:new 0 0 25.4 26.5;" xml:space="preserve">
<style type="text/css">
	.st0{opacity:0.5;}
	.st1{fill:#0072FF;}
	.st2{fill:#FFFFFF;}
	.st3{opacity:0.5;fill:#0072FF;}
</style>
<g>
	<path class="st3" d="M21.1,23.3c-0.3,0-0.6,0-0.9-0.1l-9.9-2.1c-2-0.4-3.4-2.2-3.4-4.2V6.5c0-0.2,0-0.4,0.1-0.7
		C7,5.6,7,5.4,7.1,5.2C7.2,5,7.3,4.8,7.4,4.6C7.4,4.4,7.6,4.2,7.7,4c0.1-0.2,0.3-0.3,0.4-0.5c0.2-0.2,0.3-0.3,0.5-0.4
		C8.7,3,8.9,2.9,9.1,2.8c0.2-0.1,0.4-0.2,0.6-0.2c0.1,0,0.2-0.1,0.3-0.1c0.2-0.1,0.4-0.1,0.5-0.1C10.6,2.4,22,0,22,0
		c0.5-0.1,1.1,0,1.5,0.4c0.4,0.4,0.7,0.9,0.7,1.4v7.5c0.7,0.8,1.2,1.8,1.2,3V19c0,1.3-0.6,2.5-1.6,3.3C23.1,23,22.1,23.3,21.1,23.3z
		 M22.4,1c-0.1,0-0.1,0-0.2,0C10.7,3.4,10.7,3.4,10.7,3.4l-0.4,0.1c-0.2,0-0.3,0.1-0.3,0.1c-0.2,0-0.3,0.1-0.4,0.2
		C9.4,3.8,9.3,3.9,9.2,4C9,4,8.9,4.1,8.8,4.3S8.6,4.5,8.5,4.6C8.4,4.8,8.3,4.9,8.3,5C8.2,5.2,8.1,5.4,8.1,5.5C8,5.7,8,5.9,7.9,6
		c0,0.2,0,0.3,0,0.5v10.4c0,1.6,1.1,2.9,2.6,3.2l9.9,2.1c1,0.2,2,0,2.8-0.7c0.8-0.6,1.2-1.6,1.2-2.6v-6.7c0-1.6-1.1-2.9-2.6-3.2l0,0
		c-3.5-0.7-10.2-2.1-10.4-2.2c-0.2,0-0.4-0.1-0.5-0.1c-0.4-0.1-0.7-0.3-0.9-0.6C9.8,5.8,9.7,5.3,9.9,4.8c0-0.1,0.1-0.3,0.2-0.4
		C10.3,4.2,10.6,4,11,3.9c0,0,5.2-1.1,8.9-1.8l3.3-0.7c-0.1-0.1-0.1-0.2-0.2-0.3C22.8,1.1,22.6,1,22.4,1z M23.2,2.5
		c-0.7,0.1-1.8,0.4-3.2,0.6c-3.7,0.8-8.8,1.8-8.9,1.8C11,5,11,5,10.9,5c0,0-0.1,0.1-0.1,0.1c-0.1,0.1,0,0.3,0,0.4
		c0.1,0.1,0.2,0.2,0.3,0.2c0.1,0,0.3,0.1,0.4,0.1C11.8,6,21.6,8,22,8.1l0,0c0.4,0.1,0.9,0.3,1.2,0.5V2.5z M22.1,18
		c-0.1,0-0.1,0-0.2,0l-3.7-0.8c-0.7-0.1-1.2-0.7-1.2-1.4v-1.5c0-0.4,0.2-0.8,0.5-1.1c0.3-0.3,0.7-0.4,1.1-0.3l3.7,0.8
		c0.7,0.1,1.2,0.7,1.2,1.4v1.5c0,0.4-0.2,0.8-0.5,1.1C22.7,17.9,22.4,18,22.1,18z M18.4,13.9c-0.1,0-0.2,0.1-0.2,0.1
		c-0.1,0.1-0.2,0.2-0.2,0.4v1.5c0,0.2,0.2,0.4,0.4,0.5L22,17c0.1,0,0.2,0,0.3-0.1c0.1-0.1,0.2-0.2,0.2-0.4v-1.5
		c0-0.2-0.2-0.4-0.4-0.5L18.4,13.9C18.5,13.9,18.4,13.9,18.4,13.9z"/>
	<circle class="st1" cx="6.8" cy="19.7" r="6.8"/>
	<g>
		<polygon class="st2" points="6.5,17.4 5,20.8 3.5,17.5 3.5,17.4 3.1,17.4 2.3,21.9 2.8,21.9 3.4,18.5 4.9,21.7 5.1,21.7 6.6,18.4 
			7.2,21.9 7.7,21.9 6.9,17.4 		"/>
		<polygon class="st2" points="10.8,17.4 9.4,19.6 8,17.4 7.4,17.4 9.1,20.1 9.1,21.9 9.6,21.9 9.6,20.1 11.3,17.4 		"/>
	</g>
</g>
</svg>
