<?xml version="1.0" encoding="utf-8"?>
<!-- Generator: Adobe Illustrator 22.1.0, SVG Export Plug-In . SVG Version: 6.00 Build 0)  -->
<svg version="1.1" id="레이어_1" xmlns="http://www.w3.org/2000/svg" xmlns:xlink="http://www.w3.org/1999/xlink" x="0px"
	 y="0px" viewBox="0 0 50 51" enable-background="new 0 0 50 51" xml:space="preserve">
<g>
	<g>
		<path fill="#0072FF" d="M25,48.9c-12.9,0-23.4-10.5-23.4-23.4S12.1,2.1,25,2.1s23.4,10.5,23.4,23.4S37.9,48.9,25,48.9z"/>
		<path fill="#FFFFFF" d="M25,3.6c12.1,0,21.9,9.8,21.9,21.9S37.1,47.4,25,47.4S3.1,37.6,3.1,25.5S12.9,3.6,25,3.6 M25,0.6
			C11.3,0.6,0.1,11.8,0.1,25.5S11.3,50.4,25,50.4s24.9-11.2,24.9-24.9S38.7,0.6,25,0.6L25,0.6z"/>
	</g>
	<g>
		<rect x="24.3" y="17.7" fill="#FFFFFF" width="2" height="7.7"/>
		<polygon fill="#FFFFFF" points="25.3,27.4 21.2,23.3 22.6,21.9 25.3,24.5 28,21.9 29.4,23.3 		"/>
		<polygon fill="#FFFFFF" points="33.4,31.2 17.3,31.2 15.7,19.3 12,19.3 12,17.3 17.5,17.3 19.1,29.2 31.7,29.2 32.9,21.7 
			30.4,21.7 30.4,19.7 35.2,19.7 		"/>
		<rect x="17.4" y="19.7" fill="#FFFFFF" width="3.6" height="2"/>
		<circle fill="#FFFFFF" cx="19.8" cy="34.6" r="1.7"/>
		<circle fill="#FFFFFF" cx="30.8" cy="34.6" r="1.7"/>
	</g>
</g>
</svg>
