<?xml version="1.0" encoding="utf-8"?>
<!-- Generator: Adobe Illustrator 22.1.0, SVG Export Plug-In . SVG Version: 6.00 Build 0)  -->
<svg version="1.1" id="레이어_1" xmlns="http://www.w3.org/2000/svg" xmlns:xlink="http://www.w3.org/1999/xlink" x="0px"
	 y="0px" viewBox="0 0 70 15.4" style="enable-background:new 0 0 70 15.4;" xml:space="preserve">
<style type="text/css">
	.st0{fill:none;stroke:#646464;stroke-miterlimit:10;}
	.st1{fill:#0747AD;}
	.st2{fill:#1D324F;}
	.st3{fill:none;}
	.st4{fill:url(#SVGID_1_);}
	.st5{fill:url(#SVGID_2_);}
	.st6{fill:url(#SVGID_3_);}
	.st7{fill:url(#SVGID_4_);}
	.st8{fill:#0045AB;}
</style>
<g>
	<path class="st1" d="M10.8,12.4H4.9l-1,2.5H0L5.8,0h4l5.9,15h-4L10.8,12.4z M7.8,4.9L6.2,9.1h3.3L7.8,4.9z"/>
	<path class="st1" d="M17,0h4v15h-4V0z"/>
	<path class="st1" d="M22.5,0h4v15h-4V0z"/>
	<path class="st2" d="M52.7,5h4V15h-4V5z M52.7,0h4v3.5h-4V0z"/>
	<path class="st2" d="M70,7.6V15h-4V8.2c0-1.4-0.6-2.1-1.7-2.1c-1.3,0-1.8,0.9-1.8,2.4V15h-4V2.9h3l0.1,1.2c0.9-1,2-1.5,3.9-1.5
		C68.2,2.7,70,4.8,70,7.6z"/>
	<path class="st3" d="M35.4,11.6c0,0,0.1,0,0.1,0C35.5,11.6,35.4,11.6,35.4,11.6z"/>
	<path class="st3" d="M34.7,11.7c0.1,0,0.2,0,0.3,0C34.9,11.7,34.8,11.7,34.7,11.7z"/>
	<path class="st3" d="M35,11.7c0.1,0,0.2,0,0.3-0.1C35.2,11.6,35.1,11.7,35,11.7z"/>
	<path class="st2" d="M35,11.7C35,11.7,35,11.7,35,11.7C35,11.7,35,11.7,35,11.7z"/>
	<path class="st2" d="M35.3,11.6C35.4,11.6,35.4,11.6,35.3,11.6C35.4,11.6,35.4,11.6,35.3,11.6z"/>
	<path class="st3" d="M36.7,10.8c0,0,0.1-0.1,0.1-0.1C36.8,10.7,36.7,10.7,36.7,10.8z"/>
	<path class="st3" d="M42.9,7.4C42.9,7.3,43,7.3,43,7.2C43,7.3,42.9,7.3,42.9,7.4z"/>
	<path class="st2" d="M42.6,7.8C42.6,7.8,42.6,7.8,42.6,7.8C42.6,7.8,42.6,7.8,42.6,7.8z"/>
	<path class="st2" d="M42.7,7.6C42.7,7.6,42.7,7.6,42.7,7.6C42.7,7.6,42.7,7.6,42.7,7.6z"/>
	<path class="st2" d="M39.7,12.7c0.9-1.3,2.2-3.9,2.2-3.9c0.3-0.6,0.6-1,0.9-1.4c0-0.1,0.1-0.1,0.2-0.2c0,0,0,0,0,0c0,0,0,0,0,0
		c0.5-0.5,1.2-0.8,1.9-0.8c1.5,0,2.6,1.2,2.6,2.6s-1.2,2.6-2.6,2.6v3.7c0,0,0,0,0,0v0c3.1,0,5.6-2.2,6.2-5c0-0.1,0-0.2,0.1-0.3
		c0-0.1,0-0.1,0-0.2c0-0.1,0-0.2,0-0.3c0-0.1,0-0.1,0-0.2c0,0,0,0,0-0.1c0-0.1,0-0.2,0-0.3c0,0,0-0.1,0-0.1c0,0,0,0,0,0
		c0,0,0-0.1,0-0.1c-0.1-1.8-0.9-3.5-2.3-4.7c-1.1-0.9-2.6-1.4-4.1-1.5c0,0-0.1,0-0.1,0c-0.1,0-0.2,0-0.3,0c-0.1,0-0.2,0-0.2,0
		c-0.1,0-0.1,0-0.2,0c-1.8,0.3-3.3,1.2-4.3,3c0,0,0,0,0,0c0,0-1.6,3.3-2.9,4.9c0,0-0.1,0.1-0.1,0.1c0,0,0,0,0,0c0,0,0,0,0,0
		c-0.3,0.4-0.7,0.6-1.2,0.8c0,0-0.1,0-0.1,0c0,0-0.1,0-0.1,0c-0.1,0-0.2,0-0.3,0.1c0,0,0,0,0,0c-0.1,0-0.2,0-0.3,0c0,0,0,0,0,0
		c0,0,0,0,0,0c-0.4,0-0.8-0.1-1.1-0.2c-1.2-0.5-1.8-1.8-1.5-3c0.3-1.2,1.4-2,2.6-2l0,0c0.9,0,1.7,0.2,2.3,0.7l1.6-3.1
		c-0.8-0.6-1.6-1-2.6-1.2c-3.7-0.8-7.2,1.7-7.7,5.4c-0.5,3.9,2.7,7.4,6.6,7.2C37,15.3,38.6,14.5,39.7,12.7"/>
	<path class="st2" d="M42.9,7.4C42.9,7.4,42.9,7.4,42.9,7.4C42.9,7.4,42.9,7.4,42.9,7.4z"/>
	<linearGradient id="SVGID_1_" gradientUnits="userSpaceOnUse" x1="41.3464" y1="6.6914" x2="47.0623" y2="8.9451">
		<stop  offset="0" style="stop-color:#FFFFFF;stop-opacity:0"/>
		<stop  offset="0.1496" style="stop-color:#BFC5CE;stop-opacity:0.2016"/>
		<stop  offset="0.3018" style="stop-color:#8691A1;stop-opacity:0.4068"/>
		<stop  offset="0.4427" style="stop-color:#59687E;stop-opacity:0.5966"/>
		<stop  offset="0.5675" style="stop-color:#384B64;stop-opacity:0.7648"/>
		<stop  offset="0.6715" style="stop-color:#243955;stop-opacity:0.905"/>
		<stop  offset="0.742" style="stop-color:#1D324F"/>
	</linearGradient>
	<path class="st4" d="M43,7.2C43,7.2,43,7.2,43,7.2c-0.1,0.1-0.1,0.1-0.2,0.2c0,0,0,0,0,0C42.9,7.3,43,7.3,43,7.2z"/>
	<linearGradient id="SVGID_2_" gradientUnits="userSpaceOnUse" x1="38.8211" y1="13.096" x2="44.5371" y2="15.3497">
		<stop  offset="0" style="stop-color:#FFFFFF;stop-opacity:0"/>
		<stop  offset="0.1496" style="stop-color:#BFC5CE;stop-opacity:0.2016"/>
		<stop  offset="0.3018" style="stop-color:#8691A1;stop-opacity:0.4068"/>
		<stop  offset="0.4427" style="stop-color:#59687E;stop-opacity:0.5966"/>
		<stop  offset="0.5675" style="stop-color:#384B64;stop-opacity:0.7648"/>
		<stop  offset="0.6715" style="stop-color:#243955;stop-opacity:0.905"/>
		<stop  offset="0.742" style="stop-color:#1D324F"/>
	</linearGradient>
	<path class="st5" d="M40.8,13.8C40.8,13.9,40.7,13.9,40.8,13.8C40.7,13.9,40.7,13.9,40.8,13.8C40.7,13.9,40.8,13.9,40.8,13.8
		C40.8,13.8,40.8,13.8,40.8,13.8z"/>
	<polygon class="st2" points="43,7.2 43,7.2 43,7.2 	"/>
	<linearGradient id="SVGID_3_" gradientUnits="userSpaceOnUse" x1="41.3888" y1="6.5839" x2="47.1047" y2="8.8376">
		<stop  offset="0" style="stop-color:#FFFFFF;stop-opacity:0"/>
		<stop  offset="0.1496" style="stop-color:#BFC5CE;stop-opacity:0.2016"/>
		<stop  offset="0.3018" style="stop-color:#8691A1;stop-opacity:0.4068"/>
		<stop  offset="0.4427" style="stop-color:#59687E;stop-opacity:0.5966"/>
		<stop  offset="0.5675" style="stop-color:#384B64;stop-opacity:0.7648"/>
		<stop  offset="0.6715" style="stop-color:#243955;stop-opacity:0.905"/>
		<stop  offset="0.742" style="stop-color:#1D324F"/>
	</linearGradient>
	<polygon class="st6" points="43,7.2 43,7.2 43,7.2 	"/>
	<linearGradient id="SVGID_4_" gradientUnits="userSpaceOnUse" x1="40.0422" y1="9.9993" x2="45.7581" y2="12.253">
		<stop  offset="0" style="stop-color:#FFFFFF;stop-opacity:0"/>
		<stop  offset="6.959521e-02" style="stop-color:#D4D8DD;stop-opacity:9.379452e-02"/>
		<stop  offset="0.1583" style="stop-color:#A4ACB8;stop-opacity:0.2134"/>
		<stop  offset="0.2497" style="stop-color:#7A8798;stop-opacity:0.3365"/>
		<stop  offset="0.3423" style="stop-color:#59687D;stop-opacity:0.4613"/>
		<stop  offset="0.4365" style="stop-color:#3E5069;stop-opacity:0.5883"/>
		<stop  offset="0.5328" style="stop-color:#2C3F5A;stop-opacity:0.7181"/>
		<stop  offset="0.6328" style="stop-color:#213552;stop-opacity:0.8528"/>
		<stop  offset="0.742" style="stop-color:#1D324F"/>
	</linearGradient>
	<path class="st7" d="M44.9,11.7c-1.5,0-2.6-1.2-2.6-2.6c0-0.7,0.3-1.4,0.7-1.8c-0.4,0.4-0.8,1-1.1,1.6c0,0-1.3,2.6-2.2,3.9
		c0,0,0.6,0.8,1,1.1c0,0,0,0,0,0c0,0,0,0,0,0c1.1,1,2.6,1.5,4.1,1.5c0,0,0,0,0,0L44.9,11.7L44.9,11.7z"/>
</g>
</svg>
