<?xml version="1.0" encoding="utf-8"?>
<!-- Generator: Adobe Illustrator 22.1.0, SVG Export Plug-In . SVG Version: 6.00 Build 0)  -->
<svg version="1.1" id="레이어_1" xmlns="http://www.w3.org/2000/svg" xmlns:xlink="http://www.w3.org/1999/xlink" x="0px"
	 y="0px" viewBox="0 0 22 22" style="enable-background:new 0 0 22 22;" xml:space="preserve">
<style type="text/css">
	.st0{fill:#6265E3;}
	.st1{fill:#FFA000;}
	.st2{fill:#2DA804;}
	.st3{fill:#969696;}
	.st4{fill:#00ACDF;}
	.st5{fill:#D965E3;}
	.st6{fill:#FFFFFF;}
	.st7{fill:#49D094;}
</style>
<g>
	<circle class="st5" cx="11" cy="11" r="11"/>
	<polygon class="st6" points="11,6.3 11,10.2 12,10.2 12,6.3 13.2,7.5 13.9,6.8 11.5,4.4 9.1,6.8 9.8,7.5 	"/>
	<polygon class="st6" points="14.6,8 14.6,9 16.3,9 15.5,13.8 7.6,13.8 7,9 8.9,9 8.9,8 6.9,8 6.7,6.5 3.4,6.5 3.4,7.5 5.8,7.5 
		6.8,14.8 16.4,14.8 17.4,8 	"/>
	<circle class="st6" cx="8.2" cy="17" r="1"/>
	<circle class="st6" cx="14.9" cy="17" r="1"/>
</g>
</svg>
