<?xml version="1.0" encoding="utf-8"?>
<!-- Generator: Adobe Illustrator 22.1.0, SVG Export Plug-In . SVG Version: 6.00 Build 0)  -->
<svg version="1.1" id="레이어_1" xmlns="http://www.w3.org/2000/svg" xmlns:xlink="http://www.w3.org/1999/xlink" x="0px"
	 y="0px" viewBox="0 0 50 51" enable-background="new 0 0 50 51" xml:space="preserve">
<g>
	<g>
		<path fill="#0072FF" d="M25,48.9c-12.9,0-23.4-10.5-23.4-23.4S12.1,2.1,25,2.1s23.4,10.5,23.4,23.4S37.9,48.9,25,48.9z"/>
		<path fill="#FFFFFF" d="M25,3.6c12.1,0,21.9,9.8,21.9,21.9S37.1,47.4,25,47.4S3.1,37.6,3.1,25.5S12.9,3.6,25,3.6 M25,0.6
			C11.3,0.6,0.1,11.8,0.1,25.5S11.3,50.4,25,50.4s24.9-11.2,24.9-24.9S38.7,0.6,25,0.6L25,0.6z"/>
	</g>
	<g>
		<path fill="#FFFFFF" d="M25,34.1c-4.4,0-8-3.6-8-8c0-2.5,1.2-4.8,3.2-6.4l1.2,1.6c-1.5,1.2-2.4,2.9-2.4,4.8c0,3.3,2.7,6,6,6
			c3.3,0,6-2.7,6-6c0-1.9-0.9-3.6-2.4-4.8l1.2-1.6c2,1.5,3.2,3.9,3.2,6.4C33,30.5,29.4,34.1,25,34.1z"/>
		<rect x="24" y="15.3" fill="#FFFFFF" width="2" height="9.6"/>
	</g>
</g>
</svg>
