<?xml version="1.0" encoding="utf-8"?>
<!-- Generator: Adobe Illustrator 22.1.0, SVG Export Plug-In . SVG Version: 6.00 Build 0)  -->
<svg version="1.1" id="레이어_1" xmlns="http://www.w3.org/2000/svg" xmlns:xlink="http://www.w3.org/1999/xlink" x="0px"
	 y="0px" viewBox="0 0 49.7 49.7" style="enable-background:new 0 0 49.7 49.7;" xml:space="preserve">
<style type="text/css">
	.st0{fill:#0072FF;}
	.st1{fill:#FFFFFF;}
	.st2{fill:none;stroke:#FFFFFF;stroke-width:2;stroke-miterlimit:10;}
</style>
<g>
	<g>
		<path class="st0" d="M24.9,48.2C12,48.2,1.5,37.8,1.5,24.9S12,1.5,24.9,1.5S48.2,12,48.2,24.9S37.8,48.2,24.9,48.2z"/>
		<path class="st1" d="M24.9,3c12.1,0,21.9,9.8,21.9,21.9s-9.8,21.9-21.9,21.9S3,36.9,3,24.9S12.8,3,24.9,3 M24.9,0
			C11.2,0,0,11.2,0,24.9s11.2,24.9,24.9,24.9s24.9-11.2,24.9-24.9S38.6,0,24.9,0L24.9,0z"/>
	</g>
	<g>
		<path class="st2" d="M30.9,17.4c4.6,0.9,8.1,4.1,8.1,7.9c0,2.4-1.4,4.6-3.6,6.1l1.6,3.3l-5.4-1.6c-1,0.2-2.1,0.4-3.2,0.4
			c-4.2,0-7.9-1.9-9.6-4.6"/>
		<path class="st2" d="M21.4,13c-5.9,0-10.7,3.6-10.7,8.2c0,2.4,1.4,4.6,3.6,6.1l-1.6,3.3l5.4-1.6c1,0.2,2.1,0.4,3.2,0.4
			c5.9,0,10.7-3.6,10.7-8.2S27.3,13,21.4,13z"/>
	</g>
</g>
</svg>
