<?xml version="1.0" encoding="utf-8"?>
<!-- Generator: Adobe Illustrator 22.1.0, SVG Export Plug-In . SVG Version: 6.00 Build 0)  -->
<svg version="1.1" id="레이어_1" xmlns="http://www.w3.org/2000/svg" xmlns:xlink="http://www.w3.org/1999/xlink" x="0px"
	 y="0px" viewBox="0 0 157 47" enable-background="new 0 0 157 47" xml:space="preserve">
<g>
	<g>
		<path fill="#0747AD" d="M59.5,24.6h-9.7l-1.6,4.2h-6.4l9.6-24.6h6.6l9.8,24.6h-6.6L59.5,24.6z M54.6,12.2l-2.7,6.9h5.4L54.6,12.2z
			"/>
		<path fill="#0747AD" d="M69.7,4.2h6.6v24.6h-6.6V4.2z"/>
		<path fill="#0747AD" d="M78.8,4.2h6.6v24.6h-6.6V4.2z"/>
		<path fill="#1D324F" d="M128.4,12.4h6.6v16.3h-6.6V12.4z M128.4,4.2h6.5v5.8h-6.5V4.2z"/>
		<path fill="#1D324F" d="M156.8,16.7v12.1h-6.6V17.6c0-2.3-1.1-3.4-2.7-3.4c-2.1,0-3,1.5-3,4v10.6h-6.6V8.9h5l0.2,2
			c1.4-1.6,3.3-2.4,6.5-2.4C153.9,8.6,156.8,12,156.8,16.7z"/>
		<path fill="none" d="M100,23.2c0.1,0,0.1,0,0.2-0.1C100.1,23.2,100,23.2,100,23.2z"/>
		<path fill="none" d="M98.8,23.4c0.2,0,0.3,0,0.5,0C99.2,23.4,99,23.4,98.8,23.4z"/>
		<path fill="none" d="M99.3,23.3c0.2,0,0.3-0.1,0.5-0.1C99.7,23.3,99.5,23.3,99.3,23.3z"/>
		<path fill="#1D324F" d="M99.3,23.3C99.3,23.3,99.3,23.3,99.3,23.3C99.3,23.3,99.3,23.3,99.3,23.3z"/>
		<path fill="#1D324F" d="M99.8,23.3c0.1,0,0.1,0,0.2,0C99.9,23.2,99.9,23.2,99.8,23.3z"/>
		<path fill="none" d="M102.1,21.8c0.1-0.1,0.1-0.1,0.2-0.2C102.2,21.7,102.1,21.8,102.1,21.8z"/>
		<path fill="none" d="M112.2,16.3c0.1-0.1,0.2-0.2,0.2-0.3C112.4,16.1,112.3,16.2,112.2,16.3z"/>
		<path fill="#1D324F" d="M111.8,17C111.8,17,111.8,17,111.8,17C111.8,17,111.8,17,111.8,17z"/>
		<path fill="#1D324F" d="M112,16.7C112,16.7,112,16.7,112,16.7C112,16.7,112,16.7,112,16.7z"/>
		<path fill="#1D324F" d="M107.1,25.1c1.5-2.1,3.6-6.4,3.6-6.4c0.5-0.9,1-1.7,1.5-2.4c0.1-0.1,0.2-0.2,0.2-0.3c0,0,0,0,0,0
			c0,0,0,0,0,0c0.8-0.8,1.9-1.3,3.1-1.3c2.4,0,4.4,1.9,4.4,4.4s-1.9,4.4-4.4,4.4v6c0,0,0,0-0.1,0v0c5,0,9.2-3.5,10.2-8.3
			c0-0.2,0.1-0.3,0.1-0.5c0-0.1,0-0.2,0-0.3c0-0.2,0-0.3,0.1-0.5c0-0.1,0-0.2,0-0.3c0,0,0-0.1,0-0.1c0-0.2,0-0.3,0-0.5
			c0-0.1,0-0.1,0-0.2c0,0,0,0,0,0c0,0,0-0.1,0-0.1c-0.1-2.9-1.4-5.8-3.8-7.7c-1.8-1.5-4.2-2.4-6.7-2.4c-0.1,0-0.2,0-0.2,0
			c-0.2,0-0.3,0-0.5,0c-0.1,0-0.3,0-0.4,0c-0.1,0-0.2,0-0.3,0c-2.9,0.4-5.5,2-7.1,5c0,0,0,0,0,0c0,0-2.6,5.3-4.7,8
			c-0.1,0.1-0.1,0.1-0.2,0.2c0,0,0,0,0,0c0,0,0,0,0,0c-0.5,0.6-1.2,1.1-1.9,1.3c-0.1,0-0.1,0-0.2,0.1c-0.1,0-0.1,0-0.2,0
			c-0.2,0-0.3,0.1-0.5,0.1c0,0,0,0,0,0c-0.2,0-0.3,0-0.5,0c0,0,0,0,0,0c0,0,0,0,0,0c-0.6,0-1.3-0.1-1.9-0.4c-2-0.8-3-2.9-2.5-4.9
			c0.5-2,2.2-3.3,4.3-3.3l0,0c1.5,0,2.9,0.4,3.7,1.2l2.6-5.1c-1.3-1-2.7-1.7-4.3-2c-6.1-1.3-11.8,2.8-12.6,8.9
			c-0.9,6.3,4.5,12.1,10.9,11.8C102.5,29.3,105.2,27.9,107.1,25.1"/>
		<path fill="#1D324F" d="M112.2,16.3C112.2,16.3,112.2,16.3,112.2,16.3C112.2,16.3,112.2,16.3,112.2,16.3z"/>
		<linearGradient id="SVGID_1_" gradientUnits="userSpaceOnUse" x1="109.7302" y1="15.1531" x2="119.1259" y2="18.8577">
			<stop  offset="0" style="stop-color:#FFFFFF;stop-opacity:0"/>
			<stop  offset="0.1496" style="stop-color:#BFC5CE;stop-opacity:0.2016"/>
			<stop  offset="0.3018" style="stop-color:#8691A1;stop-opacity:0.4068"/>
			<stop  offset="0.4427" style="stop-color:#59687E;stop-opacity:0.5966"/>
			<stop  offset="0.5675" style="stop-color:#384B64;stop-opacity:0.7648"/>
			<stop  offset="0.6715" style="stop-color:#243955;stop-opacity:0.905"/>
			<stop  offset="0.742" style="stop-color:#1D324F"/>
		</linearGradient>
		<path fill="url(#SVGID_1_)" d="M112.5,16C112.5,16,112.5,16,112.5,16c-0.1,0.1-0.2,0.2-0.3,0.3c0,0,0,0,0,0
			C112.3,16.2,112.4,16.1,112.5,16z"/>
		<linearGradient id="SVGID_2_" gradientUnits="userSpaceOnUse" x1="105.5792" y1="25.6809" x2="114.9749" y2="29.3855">
			<stop  offset="0" style="stop-color:#FFFFFF;stop-opacity:0"/>
			<stop  offset="0.1496" style="stop-color:#BFC5CE;stop-opacity:0.2016"/>
			<stop  offset="0.3018" style="stop-color:#8691A1;stop-opacity:0.4068"/>
			<stop  offset="0.4427" style="stop-color:#59687E;stop-opacity:0.5966"/>
			<stop  offset="0.5675" style="stop-color:#384B64;stop-opacity:0.7648"/>
			<stop  offset="0.6715" style="stop-color:#243955;stop-opacity:0.905"/>
			<stop  offset="0.742" style="stop-color:#1D324F"/>
		</linearGradient>
		<path fill="url(#SVGID_2_)" d="M108.8,26.9C108.8,26.9,108.7,26.9,108.8,26.9C108.7,26.9,108.7,26.9,108.8,26.9
			C108.7,26.9,108.8,26.9,108.8,26.9C108.8,26.9,108.8,26.9,108.8,26.9z"/>
		<polygon fill="#1D324F" points="112.5,16 112.5,16 112.5,16 		"/>
		<linearGradient id="SVGID_3_" gradientUnits="userSpaceOnUse" x1="109.7999" y1="14.9763" x2="119.1956" y2="18.6809">
			<stop  offset="0" style="stop-color:#FFFFFF;stop-opacity:0"/>
			<stop  offset="0.1496" style="stop-color:#BFC5CE;stop-opacity:0.2016"/>
			<stop  offset="0.3018" style="stop-color:#8691A1;stop-opacity:0.4068"/>
			<stop  offset="0.4427" style="stop-color:#59687E;stop-opacity:0.5966"/>
			<stop  offset="0.5675" style="stop-color:#384B64;stop-opacity:0.7648"/>
			<stop  offset="0.6715" style="stop-color:#243955;stop-opacity:0.905"/>
			<stop  offset="0.742" style="stop-color:#1D324F"/>
		</linearGradient>
		<polygon fill="url(#SVGID_3_)" points="112.5,16 112.5,16 112.5,16 		"/>
		<linearGradient id="SVGID_4_" gradientUnits="userSpaceOnUse" x1="107.5863" y1="20.5905" x2="116.9821" y2="24.2952">
			<stop  offset="0" style="stop-color:#FFFFFF;stop-opacity:0"/>
			<stop  offset="6.959521e-02" style="stop-color:#D4D8DD;stop-opacity:9.379452e-02"/>
			<stop  offset="0.1583" style="stop-color:#A4ACB8;stop-opacity:0.2134"/>
			<stop  offset="0.2497" style="stop-color:#7A8798;stop-opacity:0.3365"/>
			<stop  offset="0.3423" style="stop-color:#59687D;stop-opacity:0.4613"/>
			<stop  offset="0.4365" style="stop-color:#3E5069;stop-opacity:0.5883"/>
			<stop  offset="0.5328" style="stop-color:#2C3F5A;stop-opacity:0.7181"/>
			<stop  offset="0.6328" style="stop-color:#213552;stop-opacity:0.8528"/>
			<stop  offset="0.742" style="stop-color:#1D324F"/>
		</linearGradient>
		<path fill="url(#SVGID_4_)" d="M115.6,23.4c-2.4,0-4.4-1.9-4.4-4.4c0-1.2,0.5-2.2,1.2-3c-0.7,0.7-1.3,1.6-1.8,2.7
			c0,0-2.1,4.3-3.6,6.4c0,0,1,1.3,1.7,1.8c0,0,0,0,0,0c0,0,0,0,0,0c1.8,1.6,4.2,2.5,6.8,2.5c0,0,0,0,0.1,0L115.6,23.4L115.6,23.4z"
			/>
	</g>
	<g>
		<g>
			<polygon fill="#787878" points="51.9,42.2 50.7,38.4 49.6,38.4 48.3,42.2 47.1,38.4 45.9,38.4 47.7,44.2 48.9,44.2 50.1,40.3 
				51.4,44.2 52.5,44.2 54.4,38.4 53.2,38.4 			"/>
			<path fill="#787878" d="M59.4,39.2c-0.5-0.6-1.3-1-2.1-1c-0.8,0-1.5,0.3-2.1,0.9c-0.5,0.6-0.8,1.3-0.8,2.2c0,0.8,0.3,1.6,0.8,2.1
				c0.6,0.6,1.3,0.9,2.1,0.9c0.9,0,1.6-0.3,2.1-1v0.8h1.2v-5.8h-1.2V39.2z M58.7,39.9c0.4,0.4,0.6,0.8,0.6,1.4c0,0.5-0.2,1-0.6,1.4
				c-0.4,0.4-0.8,0.6-1.3,0.6c-0.5,0-1-0.2-1.3-0.6c-0.4-0.4-0.5-0.8-0.5-1.4c0-0.3,0-0.5,0.1-0.7c0.1-0.2,0.2-0.4,0.4-0.6
				c0.4-0.4,0.8-0.6,1.3-0.6C57.9,39.3,58.4,39.5,58.7,39.9L58.7,39.9z"/>
			<path fill="#787878" d="M81.7,38.2c-0.9,0-1.6,0.3-2.1,1v-2.6h-1.2v7.6h1.2v-0.8c0.6,0.7,1.3,1,2.1,1c0.8,0,1.5-0.3,2.1-0.9
				c0.5-0.6,0.8-1.3,0.8-2.1c0-0.8-0.3-1.5-0.8-2.2C83.2,38.5,82.5,38.2,81.7,38.2z M83.4,41.3c0,0.5-0.2,1-0.5,1.4
				c-0.4,0.4-0.8,0.6-1.3,0.6c-0.5,0-0.9-0.2-1.3-0.6c-0.4-0.4-0.6-0.8-0.6-1.4c0-0.5,0.2-1,0.6-1.4c0.4-0.4,0.8-0.6,1.3-0.6
				c0.5,0,0.9,0.2,1.3,0.6c0.2,0.2,0.3,0.4,0.4,0.6C83.4,40.8,83.4,41,83.4,41.3z"/>
			<rect x="61.5" y="37.3" fill="#787878" width="1.1" height="6.9"/>
			<rect x="63.5" y="37.3" fill="#787878" width="1.1" height="6.9"/>
			<path fill="#787878" d="M68.7,38.2c-0.8,0-1.6,0.3-2.2,0.9c-0.6,0.6-0.9,1.3-0.9,2.2c0,0.8,0.3,1.6,0.9,2.2
				c0.6,0.6,1.3,0.9,2.2,0.9c0.5,0,0.9-0.1,1.4-0.3c0.4-0.2,0.8-0.5,1.1-0.9l0.1-0.1l-1-0.6l-0.1,0.1c-0.4,0.5-0.9,0.7-1.5,0.7
				c-0.4,0-0.8-0.1-1.2-0.4c-0.3-0.3-0.5-0.6-0.6-0.9h4.9l0-0.1c0-0.1,0-0.3,0-0.5c0-0.8-0.3-1.6-0.9-2.2
				C70.3,38.5,69.5,38.2,68.7,38.2z M66.8,40.7c0.1-0.4,0.3-0.7,0.6-0.9c0.4-0.3,0.8-0.4,1.2-0.4c0.4,0,0.8,0.1,1.2,0.4l0,0
				c0.3,0.2,0.5,0.6,0.6,0.9H66.8z"/>
			<polygon fill="#787878" points="74.4,36.9 73.2,36.9 73.2,38.4 72.1,38.4 72.1,39.6 73.2,39.6 73.2,44.2 74.4,44.2 74.4,39.6 
				75.5,39.6 75.5,38.4 74.4,38.4 			"/>
			<path fill="#787878" d="M89.2,38.4l-1.7,4.1l-1.7-4.1h-1.2l2.3,5.6l-0.3,0.8c0,0.1-0.1,0.2-0.3,0.2c-0.1,0-0.3,0-0.4-0.1l-0.1,0
				v1.2l0.1,0c0.2,0.1,0.4,0.1,0.5,0.1c0.7,0,1.2-0.3,1.4-0.9l2.8-6.8H89.2z"/>
		</g>
		<g>
			<g>
				<path fill="#0747AD" d="M98.7,39.7h-0.6c-0.1-0.4-0.4-0.8-0.7-1.1c-0.4-0.3-0.8-0.4-1.3-0.4c-0.6,0-1.2,0.2-1.6,0.7
					c-0.4,0.5-0.6,1.1-0.6,1.9c0,0.8,0.2,1.4,0.6,1.8c0.4,0.5,0.9,0.7,1.6,0.7c0.5,0,0.9-0.1,1.3-0.4c0.3-0.3,0.6-0.7,0.7-1.1h0.5
					h0.7c-0.2,0.7-0.5,1.4-1.1,1.9c-0.5,0.5-1.2,0.7-2.1,0.7c-1,0-1.9-0.3-2.5-1c-0.6-0.7-1-1.6-1-2.6c0-1,0.3-1.9,1-2.6
					c0.6-0.7,1.5-1,2.5-1c0.9,0,1.6,0.2,2.1,0.7c0.6,0.5,0.9,1.1,1.1,1.9H98.7z"/>
				<path fill="#0747AD" d="M101,43.3c-0.6-0.7-1-1.6-1-2.6c0-1,0.3-1.9,1-2.6c0.6-0.7,1.5-1,2.5-1c1,0,1.9,0.3,2.5,1
					c0.6,0.7,1,1.6,1,2.6c0,1-0.3,1.9-1,2.6c-0.6,0.7-1.5,1-2.5,1C102.4,44.4,101.6,44,101,43.3z M105.1,38.9
					c-0.4-0.5-0.9-0.7-1.6-0.7c-0.6,0-1.2,0.2-1.6,0.7c-0.4,0.5-0.6,1.1-0.6,1.9c0,0.8,0.2,1.4,0.6,1.8c0.4,0.5,0.9,0.7,1.6,0.7
					c0.6,0,1.2-0.2,1.6-0.7c0.4-0.5,0.6-1.1,0.6-1.8C105.7,40,105.5,39.4,105.1,38.9z"/>
				<path fill="#0747AD" d="M108.2,41.2v-3.9h0.8h0.4v6.9h-1.2V41.2z"/>
				<path fill="#0747AD" d="M110.9,41.2v-3.9h0.1h0.5h0h0.6h0.2c0.9,1.3,2.2,3,3.9,5.3v-1.5v-3.9h0.8h0.5v6.9h-0.1h-1.1h-0.2
					c-0.7-1-2-2.7-3.9-5.3v5.3h-1.2V41.2z"/>
				<path fill="#0747AD" d="M121,41.8v-3.4h-2.6v-1h5.4h1v0.6v0.4h-2.6v5.8H121V41.8z"/>
				<path fill="#0747AD" d="M126,43.3c-0.6-0.7-1-1.6-1-2.6c0-1,0.3-1.9,1-2.6c0.6-0.7,1.5-1,2.5-1c1,0,1.9,0.3,2.5,1
					c0.6,0.7,1,1.6,1,2.6c0,1-0.3,1.9-1,2.6c-0.6,0.7-1.5,1-2.5,1C127.5,44.4,126.6,44,126,43.3z M130.1,38.9
					c-0.4-0.5-0.9-0.7-1.6-0.7c-0.6,0-1.2,0.2-1.6,0.7c-0.4,0.5-0.6,1.1-0.6,1.9c0,0.8,0.2,1.4,0.6,1.8c0.4,0.5,0.9,0.7,1.6,0.7
					c0.6,0,1.2-0.2,1.6-0.7c0.4-0.5,0.6-1.1,0.6-1.8C130.7,40,130.5,39.4,130.1,38.9z"/>
				<path fill="#0747AD" d="M134,43.4c-0.6-0.6-0.9-1.5-0.9-2.7v-2.2v-1.1h1.2V39v1.7c0,0.9,0.2,1.6,0.5,2c0.4,0.4,0.8,0.6,1.4,0.6
					c0.6,0,1-0.2,1.4-0.6c0.4-0.4,0.5-1.1,0.5-2V39v-1.7h1.2v1.5v1.8c0,1.2-0.3,2.1-0.9,2.7c-0.6,0.6-1.3,0.9-2.3,0.9
					C135.3,44.3,134.5,44,134,43.4z"/>
				<path fill="#0747AD" d="M142.3,38.5c-0.3,0.2-0.4,0.5-0.4,0.8c0,0.2,0.1,0.3,0.2,0.4c0.1,0.1,0.3,0.2,0.5,0.3
					c0.4,0.1,0.8,0.2,1.3,0.3c0.5,0.1,1,0.2,1.4,0.4c0.3,0.1,0.5,0.3,0.7,0.6c0.2,0.2,0.3,0.6,0.3,1c0,0.3,0,0.5-0.1,0.7
					c-0.1,0.2-0.2,0.4-0.4,0.6c-0.3,0.3-0.6,0.5-1.1,0.6c-0.4,0.1-0.9,0.2-1.3,0.2c-0.4,0-0.9-0.1-1.3-0.2c-0.4-0.1-0.8-0.4-1.1-0.7
					c-0.1-0.2-0.3-0.4-0.4-0.6c-0.1-0.2-0.1-0.5-0.1-0.8h1.3c0,0.4,0.2,0.7,0.5,0.9c0.3,0.2,0.7,0.3,1.2,0.3c0.4,0,0.8-0.1,1.2-0.2
					c0.3-0.2,0.5-0.4,0.5-0.8c0-0.2-0.1-0.3-0.2-0.5c-0.1-0.1-0.3-0.2-0.5-0.3c-0.4-0.1-0.8-0.2-1.3-0.3c-0.5-0.1-1-0.2-1.4-0.4
					c-0.3-0.1-0.5-0.3-0.7-0.6c-0.2-0.2-0.3-0.6-0.3-1c0-0.3,0-0.5,0.1-0.7c0.1-0.2,0.2-0.4,0.4-0.5c0.3-0.3,0.6-0.5,1-0.6
					c0.4-0.1,0.8-0.2,1.2-0.2c0.2,0,0.4,0,0.6,0.1c0.2,0,0.4,0.1,0.6,0.2c0.4,0.2,0.7,0.4,1,0.7c0.3,0.3,0.4,0.7,0.4,1.3h-1.3
					c0-0.3-0.1-0.6-0.4-0.8c-0.3-0.2-0.6-0.3-1-0.3C142.9,38.2,142.6,38.3,142.3,38.5z"/>
				<path fill="#0747AD" d="M147.4,37.3h1.2h3.7v1h-3.7v1.8h3.4v1h-3.4v2h3.7v1h-3.7h-1.2V37.3z"/>
			</g>
		</g>
	</g>
	<g>
		<polygon fill="#0747AD" points="12.3,10.6 20.4,12.3 20.4,8.9 		"/>
		<path fill="none" stroke="#0747AD" stroke-width="3" stroke-linecap="square" stroke-miterlimit="10" d="M28.9,18.6"/>
		<path fill="#0747AD" d="M29.2,17c0,0-20.4-4.3-20.7-4.3c-0.3-0.1-0.7-0.1-1-0.2C7,12.3,6.6,12,6.3,11.6C6,11.1,5.9,10.4,6.1,9.8
			c0.1-0.2,0.2-0.4,0.3-0.5C6.7,9,7.1,8.8,7.6,8.7c0.1,0,25.3-5.2,25.3-5.2c0-1.7-1.6-3-3.2-2.6c0,0-23,4.7-23,4.7
			C6.4,5.6,6.1,5.7,5.8,5.7C5.6,5.8,5.3,5.9,5.1,5.9C4.7,6,4.4,6.2,4.1,6.3C3.7,6.5,3.4,6.7,3.1,6.9C2.8,7.1,2.5,7.4,2.3,7.6
			C2,7.9,1.8,8.2,1.6,8.5C1.4,8.8,1.2,9.1,1,9.5c-0.2,0.3-0.3,0.7-0.4,1.1c-0.1,0.4-0.2,0.8-0.3,1.2c-0.1,0.4-0.1,0.8-0.1,1.1
			c0,0,0,20.8,0,20.8c0,3.6,2.5,6.7,6.1,7.5l19.9,4.2c0.5,0.1,1.1,0.2,1.6,0.2c1.7,0,3.4-0.6,4.8-1.7c1.8-1.5,2.8-3.6,2.8-5.9V24.4
			C35.3,20.9,32.7,17.7,29.2,17z M31.4,32.9c0,1.2-1,2.1-2.1,1.9L22,33.3c-0.9-0.1-1.6-0.9-1.6-1.9v-3c0-1.2,1-2.1,2.1-1.9l7.3,1.5
			c0.9,0.1,1.6,0.9,1.6,1.9V32.9z"/>
		<polygon fill="#0747AD" points="32.9,6.4 23.6,8.3 23.6,12.9 32.9,14.9 		"/>
		<circle fill="#0747AD" cx="23.6" cy="30.3" r="1.5"/>
	</g>
</g>
</svg>
