<?xml version="1.0" encoding="utf-8"?>
<!-- Generator: Adobe Illustrator 22.1.0, SVG Export Plug-In . SVG Version: 6.00 Build 0)  -->
<svg version="1.1" id="레이어_1" xmlns="http://www.w3.org/2000/svg" xmlns:xlink="http://www.w3.org/1999/xlink" x="0px"
	 y="0px" viewBox="0 0 62 62" enable-background="new 0 0 62 62" xml:space="preserve">
<g>
	<g>
		<circle fill="#FFFFFF" cx="31" cy="31" r="30"/>
		<path fill="#0045AB" d="M31,2c16,0,29,13,29,29S47,60,31,60S2,47,2,31S15,2,31,2 M31,0C13.9,0,0,13.9,0,31s13.9,31,31,31
			s31-13.9,31-31S48.1,0,31,0L31,0z"/>
	</g>
	<g>
		<line fill="none" stroke="#0045AB" stroke-width="2" stroke-miterlimit="10" x1="31" y1="20.2" x2="31" y2="36.7"/>
		<polyline fill="none" stroke="#0045AB" stroke-width="2" stroke-miterlimit="10" points="23.7,26.3 31,19 38.3,26.3 		"/>
		<line fill="none" stroke="#0045AB" stroke-width="2" stroke-miterlimit="10" x1="23.7" y1="43" x2="38.3" y2="43"/>
	</g>
	<g>
		<path fill="#49D094" d="M31,6c13.8,0,25,11.2,25,25S44.8,56,31,56S6,44.8,6,31S17.2,6,31,6 M31,2C15,2,2,15,2,31s13,29,29,29
			s29-13,29-29S47,2,31,2L31,2z"/>
	</g>
</g>
</svg>
