<?xml version="1.0" encoding="utf-8"?>
<!-- Generator: Adobe Illustrator 22.1.0, SVG Export Plug-In . SVG Version: 6.00 Build 0)  -->
<svg version="1.1" id="레이어_1" xmlns="http://www.w3.org/2000/svg" xmlns:xlink="http://www.w3.org/1999/xlink" x="0px"
	 y="0px" viewBox="0 0 50 51" style="enable-background:new 0 0 50 51;" xml:space="preserve">
<style type="text/css">
	.st0{fill:#0072FF;}
	.st1{fill:#FFFFFF;}
	.st2{fill:none;stroke:#FFFFFF;stroke-width:2;stroke-miterlimit:10;}
</style>
<g>
	<g>
		<path class="st0" d="M25,48.9c-12.9,0-23.4-10.5-23.4-23.4S12.1,2.1,25,2.1s23.4,10.5,23.4,23.4S37.9,48.9,25,48.9z"/>
		<path class="st1" d="M25,3.6c12.1,0,21.9,9.8,21.9,21.9S37.1,47.4,25,47.4S3.1,37.6,3.1,25.5S12.9,3.6,25,3.6 M25,0.6
			C11.3,0.6,0.1,11.8,0.1,25.5S11.3,50.4,25,50.4s24.9-11.2,24.9-24.9S38.7,0.6,25,0.6L25,0.6z"/>
	</g>
	<g>
		<line class="st2" x1="25" y1="16.8" x2="25" y2="30.1"/>
		<polyline class="st2" points="19.2,21.7 25,15.9 30.8,21.7 		"/>
		<line class="st2" x1="19.2" y1="35.1" x2="30.8" y2="35.1"/>
	</g>
</g>
</svg>
