<?xml version="1.0" encoding="utf-8"?>
<!-- Generator: Adobe Illustrator 22.1.0, SVG Export Plug-In . SVG Version: 6.00 Build 0)  -->
<svg version="1.1" id="레이어_1" xmlns="http://www.w3.org/2000/svg" xmlns:xlink="http://www.w3.org/1999/xlink" x="0px"
	 y="0px" viewBox="0 0 54 39.1" style="enable-background:new 0 0 54 39.1;" xml:space="preserve">
<style type="text/css">
	.st0{fill:#00B7B2;}
</style>
<g>
	<path class="st0" d="M48.3,39.1H5.7c-3.2,0-5.7-2.6-5.7-5.7V5.7C0,2.6,2.6,0,5.7,0h42.5C51.4,0,54,2.6,54,5.7v27.6
		C54,36.5,51.4,39.1,48.3,39.1z M5.7,2.3c-1.9,0-3.4,1.5-3.4,3.4v27.6c0,1.9,1.5,3.4,3.4,3.4h42.5c1.9,0,3.4-1.5,3.4-3.4V5.7
		c0-1.9-1.5-3.4-3.4-3.4H5.7z"/>
	<path class="st0" d="M27,25.3C27,25.3,27,25.3,27,25.3c-7.5,0-25.8-13.6-26.5-14.2l1.4-1.8C7,13,21.4,23,27,23c0,0,0,0,0,0
		c5.6,0,20.3-9.9,25.4-13.8l1.4,1.8C53,11.7,34.5,25.3,27,25.3z"/>
	<rect x="-0.5" y="27.8" transform="matrix(0.75 -0.6614 0.6614 0.75 -16.4776 14.3537)" class="st0" width="22.4" height="2.3"/>
	
		<rect x="42.1" y="17.8" transform="matrix(0.6613 -0.7501 0.7501 0.6613 -7.0874 42.2553)" class="st0" width="2.3" height="22.4"/>
</g>
</svg>
