<?xml version="1.0" encoding="utf-8"?>
<!-- Generator: Adobe Illustrator 22.1.0, SVG Export Plug-In . SVG Version: 6.00 Build 0)  -->
<svg version="1.1" id="레이어_1" xmlns="http://www.w3.org/2000/svg" xmlns:xlink="http://www.w3.org/1999/xlink" x="0px"
	 y="0px" viewBox="0 0 51.7 57.2" style="enable-background:new 0 0 51.7 57.2;" xml:space="preserve">
<style type="text/css">
	.st0{fill:#00B7B2;}
</style>
<g>
	<path class="st0" d="M37.9,56.7c-1.4,0.4-2.9,0.6-4.3,0.4c-2.8-0.3-5.3-1.7-7.1-3.9L2.3,23c-1.8-2.2-2.6-5-2.2-7.8
		c0.3-2.8,1.7-5.3,3.8-7l6.5-6.8c2.7-2.2,6.7-1.7,8.9,1l5.4,6.7c1.5,1.9,1.2,4.7-0.7,6.3l-1,0.8c-1.5,1.2-1.8,3.4-0.6,4.9l10.3,13
		c1.2,1.5,3.4,1.8,4.9,0.6l1-0.8c0.9-0.7,2.1-1.1,3.3-0.9c1.2,0.1,2.2,0.7,3,1.7l5.4,6.7c2.2,2.7,1.7,6.7-1,8.9l-0.2,0.1l-7.9,4.7
		C40.2,55.7,39.1,56.3,37.9,56.7z M12.2,3.5l-6.5,6.8c-1.6,1.3-2.6,3.2-2.9,5.2c-0.2,2.1,0.4,4.1,1.6,5.7l24.1,30.2
		c1.3,1.6,3.2,2.6,5.2,2.9c2.1,0.2,4.1-0.4,5.7-1.6l0.2-0.1l7.9-4.7c1.5-1.2,1.7-3.4,0.5-4.9l-5.4-6.7c-0.3-0.3-0.7-0.6-1.1-0.6
		c-0.4,0-0.9,0.1-1.2,0.4l-1,0.8c-2.7,2.2-6.7,1.7-8.9-1l-10.3-13c-2.2-2.7-1.7-6.7,1-8.9l1-0.8c0.7-0.6,0.8-1.6,0.3-2.3l-5.4-6.7
		C15.9,2.6,13.7,2.4,12.2,3.5z"/>
</g>
</svg>
