<?xml version="1.0" encoding="utf-8"?>
<!-- Generator: Adobe Illustrator 22.1.0, SVG Export Plug-In . SVG Version: 6.00 Build 0)  -->
<svg version="1.1" id="레이어_1" xmlns="http://www.w3.org/2000/svg" xmlns:xlink="http://www.w3.org/1999/xlink" x="0px"
	 y="0px" viewBox="0 0 52 53.7" style="enable-background:new 0 0 52 53.7;" xml:space="preserve">
<style type="text/css">
	.st0{fill:#00B7B2;}
</style>
<g>
	<path class="st0" d="M26,32.6c-7.2,0-13-5.8-13-13s5.8-13,13-13s13,5.8,13,13S33.2,32.6,26,32.6z M26,9.1
		c-5.8,0-10.5,4.7-10.5,10.5S20.2,30.1,26,30.1s10.5-4.7,10.5-10.5S31.8,9.1,26,9.1z"/>
	<path class="st0" d="M52,53.7H0v-1.2c0-9.6,11.7-17.3,26-17.3s26,7.8,26,17.3V53.7z M2.6,51.2h46.9c-1-7.6-11.1-13.6-23.4-13.6
		S3.6,43.6,2.6,51.2z"/>
	<path class="st0" d="M43.9,25.8c-0.4,0-0.8-0.1-1.2-0.3c-1.2-0.7-1.6-2.2-0.9-3.4c1.7-2.9,0.1-5.4,0.1-5.4
		c-0.8-1.1-0.5-2.7,0.7-3.4c1.1-0.8,2.7-0.5,3.4,0.7c0.1,0.2,3.3,5.1,0.1,10.6C45.6,25.3,44.8,25.8,43.9,25.8z"/>
	<path class="st0" d="M8.1,25.8c-0.9,0-1.7-0.4-2.2-1.2c-3.2-5.6,0-10.4,0.1-10.6c0.8-1.1,2.3-1.4,3.4-0.7c1.1,0.8,1.4,2.3,0.7,3.4
		c-0.1,0.1-1.6,2.6,0.1,5.5c0.7,1.2,0.3,2.7-0.9,3.4C8.9,25.7,8.5,25.8,8.1,25.8z"/>
	<path class="st0" d="M41.2,11.1c-5.3-6-10.7-8.9-16.2-8.6C16.6,3,11,10.9,10.9,11l-2-1.4c0.3-0.4,6.4-9,16-9.6
		C31.1-0.3,37.2,2.9,43,9.5L41.2,11.1z"/>
</g>
</svg>
