<svg xmlns="http://www.w3.org/2000/svg" width="1257" height="358.309" viewBox="0 0 1257 358.309">
  <path id="bg_cloud" d="M112.394-2086q-1.457-.5-2.888-1.012A103.023,103.023,0,0,1,21-2189a103,103,0,0,1,103-103,102.8,102.8,0,0,1,36.175,6.532C179.744-2323.829,228.478-2351,285.5-2351c44.989,0,84.816,16.911,109.234,42.89A103.043,103.043,0,0,1,487-2365a103.049,103.049,0,0,1,93.663,59.8A69.379,69.379,0,0,1,635.5-2332a69.251,69.251,0,0,1,47.1,18.4c28.064-30.718,80.652-51.4,140.9-51.4,66.668,0,123.958,25.321,149.014,61.551A70.32,70.32,0,0,1,1018-2320a71.306,71.306,0,0,1,14.081,1.4c11.139-36.654,44.375-70.667,90.5-87.455,31.8-11.576,64.181-12.938,91.741-5.811A102.746,102.746,0,0,1,1278-2444.309V-2086Z" transform="translate(-21 2444.309)" fill="#fff"/>
</svg>
