<svg xmlns="http://www.w3.org/2000/svg" viewBox="0 0 20 13.3335"><defs><style>.cls-1{fill:#d12e1a;}.cls-2{fill:#f4d621;}</style></defs><title>flag_ch</title><g id="레이어_2" data-name="레이어 2"><g id="Layer_1" data-name="Layer 1"><rect class="cls-1" width="20" height="13.3335"/><polygon class="cls-2" points="3.35 1.505 3.771 2.804 5.138 2.804 4.032 3.608 4.454 4.908 3.35 4.104 2.244 4.908 2.666 3.608 1.561 2.804 2.927 2.804 3.35 1.505"/><polygon class="cls-2" points="6.91 0.827 6.882 1.276 7.299 1.442 6.863 1.553 6.834 2.002 6.594 1.622 6.158 1.733 6.445 1.387 6.206 1.007 6.623 1.173 6.91 0.827"/><polygon class="cls-2" points="8.444 2.283 8.239 2.683 8.557 3.001 8.113 2.93 7.907 3.33 7.839 2.886 7.394 2.815 7.795 2.612 7.727 2.168 8.043 2.486 8.444 2.283"/><polygon class="cls-2" points="7.983 4.105 8.121 4.533 8.571 4.533 8.207 4.797 8.346 5.225 7.982 4.96 7.618 5.225 7.758 4.797 7.394 4.533 7.844 4.533 7.983 4.105"/><polygon class="cls-2" points="6.907 5.477 6.878 5.926 7.296 6.092 6.859 6.203 6.831 6.652 6.591 6.272 6.154 6.383 6.441 6.037 6.202 5.657 6.62 5.824 6.907 5.477"/></g></g></svg>