<svg xmlns="http://www.w3.org/2000/svg" width="27" height="26.072" viewBox="0 0 27 26.072">
  <g id="그룹_2474" data-name="그룹 2474" transform="translate(0.5 0.5)">
    <path id="패스_1531" data-name="패스 1531" d="M16.216,25.606c-.642-.1-.656-1.866-.656-1.866a8.982,8.982,0,0,0,2.3-4.376c1.105,0,1.788-2.668.682-3.607C18.585,14.769,19.959,8,13,8s-5.584,6.769-5.538,7.757c-1.105.939-.423,3.607.683,3.607a8.982,8.982,0,0,0,2.3,4.376s-.015,1.764-.656,1.866C7.717,25.935,0,29.339,0,33.071H26C26,29.339,18.283,25.935,16.216,25.606Z" transform="translate(0 -8)" fill="#00b9ff" stroke="rgba(93,93,93,0)" stroke-width="1"/>
  </g>
</svg>
