<svg xmlns="http://www.w3.org/2000/svg" width="20.018" height="20.018" viewBox="0 0 20.018 20.018">
  <g id="icon_notice" transform="translate(-776 -1606)">
    <circle id="타원_30" data-name="타원 30" cx="10.009" cy="10.009" r="10.009" transform="translate(776 1606)" fill="#00b9ff"/>
    <path id="패스_1003" data-name="패스 1003" d="M-1.517-13.281-1.586-15.2H.458L.389-13.281.1-8.187H-1.227Zm.953,8.767a1.184,1.184,0,0,1-.9-.38A1.323,1.323,0,0,1-1.82-5.84a1.323,1.323,0,0,1,.359-.946,1.184,1.184,0,0,1,.9-.38,1.206,1.206,0,0,1,.9.38,1.312,1.312,0,0,1,.366.946,1.312,1.312,0,0,1-.366.946,1.206,1.206,0,0,1-.9.38Z" transform="translate(786.794 1626.032)" fill="#fff"/>
  </g>
</svg>
