<svg xmlns="http://www.w3.org/2000/svg" width="47" height="60.451" viewBox="0 0 47 60.451">
  <g id="그룹_3763" data-name="그룹 3763" transform="translate(-102.453 -61.92)">
    <path id="패스_2999" data-name="패스 2999" d="M237.391,420.109c.9,0,1.641-.46,1.641-1.025s-.737-1.025-1.641-1.025-1.642.46-1.642,1.025S236.486,420.109,237.391,420.109Z" transform="translate(-111.437 -297.738)" fill="#8e8e8e" fill-rule="evenodd"/>
    <g id="그룹_3762" data-name="그룹 3762" transform="translate(102.453 61.92)">
      <path id="패스_3000" data-name="패스 3000" d="M241.776,62.892a.972.972,0,0,0-1.944,0v2.115a.972.972,0,1,0,1.944,0Z" transform="translate(-217.304 -61.92)" fill="#ce9e1d"/>
      <path id="패스_3001" data-name="패스 3001" d="M315.6,84.652a.968.968,0,0,0-1.679-.965l-1.057,1.832a.968.968,0,1,0,1.678.965Z" transform="translate(-278.255 -79.711)" fill="#ce9e1d"/>
      <path id="패스_3002" data-name="패스 3002" d="M369.373,143.082a.968.968,0,0,0-.965-1.678l-1.832,1.057a.968.968,0,1,0,.965,1.679Z" transform="translate(-322.859 -128.262)" fill="#ce9e1d"/>
      <path id="패스_3003" data-name="패스 3003" d="M103.9,141.4a.968.968,0,0,0-.965,1.678l1.832,1.058a.968.968,0,0,0,.965-1.679Z" transform="translate(-102.453 -128.262)" fill="#ce9e1d"/>
      <path id="패스_3004" data-name="패스 3004" d="M162.334,83.687a.968.968,0,0,0-1.679.965l1.058,1.832a.968.968,0,1,0,1.678-.965Z" transform="translate(-151.003 -79.711)" fill="#ce9e1d"/>
    </g>
    <path id="패스_3005" data-name="패스 3005" d="M140.87,149.4h13.467a32.517,32.517,0,0,1,5.744-7.588c3.4-3.676,6.776-7.33,6.776-13.457a19.253,19.253,0,1,0-38.507,0c0,6.126,3.378,9.781,6.776,13.457A32.517,32.517,0,0,1,140.87,149.4Z" transform="translate(-21.65 -39.442)" fill="#fabe1f" fill-rule="evenodd"/>
    <path id="패스_3006" data-name="패스 3006" d="M215.949,257.967h1.944V247.475l4.556-7.891a.968.968,0,1,0-1.678-.965l-2.877,4.984v-4.5a.972.972,0,1,0-1.944,0v4.5l-2.877-4.984a.968.968,0,1,0-1.678.965l4.556,7.891Z" transform="translate(-90.968 -147.314)" fill="#352128" fill-rule="evenodd"/>
    <path id="패스_3007" data-name="패스 3007" d="M204.879,353.7h13.408v5.214a6.724,6.724,0,0,1-6.7,6.7h0a6.724,6.724,0,0,1-6.7-6.7Z" transform="translate(-85.63 -243.93)" fill="#9d9d9d" fill-rule="evenodd"/>
    <path id="패스_3008" data-name="패스 3008" d="M218.924,394.234a6.647,6.647,0,0,1-.388,1.2H206.216a6.648,6.648,0,0,1-.388-1.2Z" transform="translate(-86.423 -277.82)" fill="#616161" fill-rule="evenodd"/>
    <rect id="사각형_1173" data-name="사각형 1173" width="13.408" height="1.203" transform="translate(119.249 110.981)" fill="#616161"/>
    <rect id="사각형_1174" data-name="사각형 1174" width="13.408" height="1.203" transform="translate(119.249 113.698)" fill="#616161"/>
  </g>
</svg>
