<svg id="icon_06_trading" xmlns="http://www.w3.org/2000/svg" width="19.102" height="19.102" viewBox="0 0 19.102 19.102">
  <g id="레이어_1" data-name="레이어 1">
    <path id="패스_1860" data-name="패스 1860" d="M6.988,5.125h6.988V1.864A1.864,1.864,0,0,0,12.113,0H1.864A1.864,1.864,0,0,0,0,1.864v10.25a1.864,1.864,0,0,0,1.864,1.864H5.125V6.988A1.864,1.864,0,0,1,6.988,5.125Z" fill="#00b9ff"/>
    <path id="패스_1861" data-name="패스 1861" d="M17.613,5.5H14.352v6.988a1.864,1.864,0,0,1-1.864,1.864H5.5v3.261a1.864,1.864,0,0,0,1.864,1.864h10.25a1.864,1.864,0,0,0,1.864-1.864V7.364A1.864,1.864,0,0,0,17.613,5.5Z" transform="translate(-0.375 -0.375)" fill="#00b9ff"/>
    <path id="패스_1862" data-name="패스 1862" d="M14.352,12.488V5.5H7.364A1.864,1.864,0,0,0,5.5,7.364v6.988h6.988A1.864,1.864,0,0,0,14.352,12.488Z" transform="translate(-0.375 -0.375)" fill="#fff"/>
  </g>
</svg>
