<svg xmlns="http://www.w3.org/2000/svg" id="icon_05_IEO" width="22" height="15" viewBox="0 0 22 15">
    <defs>
        <style>
            .cls-1{fill:#00b9ff}
        </style>
    </defs>
    <g id="레이어_1" data-name="레이어 1">
        <path id="패스_1981" d="M17.28 5.3a2 2 0 0 0-1.58-.79 1.87 1.87 0 0 0-.9.21 1.92 1.92 0 0 0-.69.58 2.82 2.82 0 0 0-.44.94 4.72 4.72 0 0 0-.16 1.24 4.8 4.8 0 0 0 .16 1.25 2.92 2.92 0 0 0 .44.94 2.11 2.11 0 0 0 .69.61 1.87 1.87 0 0 0 .9.21 1.91 1.91 0 0 0 .89-.21 2.11 2.11 0 0 0 .69-.61 2.92 2.92 0 0 0 .44-.94 4.8 4.8 0 0 0 .16-1.25 4.72 4.72 0 0 0-.16-1.24 2.82 2.82 0 0 0-.44-.94z" class="cls-1" data-name="패스 1981"/>
        <path id="패스_1982" d="M20 0H2a2 2 0 0 0-2 2v11a2 2 0 0 0 2 2h18a2 2 0 0 0 2-2V2a2 2 0 0 0-2-2zM5.11 11.17h-.93V3.84h.93zm6.34 0H7.11V3.84h4.23v.78H8v2.31h2.78v.78H8v2.68h3.41zm7.14-2.1a3.49 3.49 0 0 1-.59 1.21 2.92 2.92 0 0 1-1 .72 3.05 3.05 0 0 1-1.26.26 3.1 3.1 0 0 1-1.31-.26 2.92 2.92 0 0 1-1-.76 3.49 3.49 0 0 1-.64-1.21 4.92 4.92 0 0 1-.23-1.59 4.86 4.86 0 0 1 .24-1.54 3.4 3.4 0 0 1 .64-1.19 2.77 2.77 0 0 1 1-.75 3.1 3.1 0 0 1 1.26-.26A3.05 3.05 0 0 1 17 4a2.77 2.77 0 0 1 1 .75 3.4 3.4 0 0 1 .64 1.19 4.86 4.86 0 0 1 .23 1.58 4.92 4.92 0 0 1-.28 1.55z" class="cls-1" data-name="패스 1982"/>
    </g>
</svg>
