<svg xmlns="http://www.w3.org/2000/svg" width="16.528" height="17.721" viewBox="0 0 16.528 17.721">
  <g id="레이어_2" data-name="레이어 2" transform="translate(55.015 1)">
    <g id="icon_07_store" transform="translate(-55 -1.001)">
      <path id="패스_1863" data-name="패스 1863" d="M14.08,17.72H2.42A1.46,1.46,0,0,1,1,16.4L0,8.71A1.5,1.5,0,0,1,1.41,7H15.09a1.5,1.5,0,0,1,1.4,1.76l-1,7.69a1.46,1.46,0,0,1-1.41,1.27Z" fill="#00b9ff"/>
      <path id="패스_1864" data-name="패스 1864" d="M15.09,7H1.41A1.5,1.5,0,0,0,0,8.71L1,16.4a1.46,1.46,0,0,0,1.4,1.32H14.08a1.46,1.46,0,0,0,1.4-1.32l1-7.69A1.5,1.5,0,0,0,15.09,7Z" fill="none"/>
      <path id="패스_1865" data-name="패스 1865" d="M7.42.67,6.08,0,3.35,5.45H5.03Z" fill="#00b9ff"/>
      <path id="패스_1866" data-name="패스 1866" d="M10.42,0,9.08.67l2.39,4.78h1.67Z" fill="#00b9ff"/>
    </g>
  </g>
</svg>
