<svg xmlns="http://www.w3.org/2000/svg" width="25.016" height="21.988" viewBox="0 0 25.016 21.988">
  <g id="그룹_3698" data-name="그룹 3698" transform="translate(0 -31)">
    <path id="패스_1924" data-name="패스 1924" d="M211,271h4.4v1.466H211Z" transform="translate(-200.691 -228.274)" fill="#00b9ff"/>
    <path id="패스_1925" data-name="패스 1925" d="M20.3,117.82H16.173v.733a.733.733,0,0,1-.733.733H9.577a.733.733,0,0,1-.733-.733v-.733H4.721a2.2,2.2,0,0,1-2.086-1.5L0,108.41v16.006a2.2,2.2,0,0,0,2.2,2.2H22.818a2.2,2.2,0,0,0,2.2-2.2V108.411l-2.635,7.906A2.2,2.2,0,0,1,20.3,117.82Z" transform="translate(0 -73.628)" fill="#00b9ff"/>
    <path id="패스_1926" data-name="패스 1926" d="M39.988,31H34.125a2.2,2.2,0,0,0-2.2,2.2v.733H25.809l2.764,8.294a.733.733,0,0,0,.7.5h4.123v-.733a.733.733,0,0,1,.733-.733h5.863a.733.733,0,0,1,.733.733v.733h4.123a.733.733,0,0,0,.7-.5L48.3,33.932H42.186V33.2A2.2,2.2,0,0,0,39.988,31Zm-6.6,2.932V33.2a.733.733,0,0,1,.733-.733h5.863a.733.733,0,0,1,.733.733v.733Z" transform="translate(-24.548)" fill="#00b9ff"/>
  </g>
</svg>
