<svg id="icon_11_info" xmlns="http://www.w3.org/2000/svg" width="20" height="20" viewBox="0 0 20 20">
  <circle id="icon_11_info-2" data-name="icon 11 info" cx="10" cy="10" r="10" fill="#00b9ff"/>
  <g id="그룹_1" data-name="그룹 1">
    <path id="패스_1" data-name="패스 1" d="M10.007,6.325a1.351,1.351,0,0,1-.944-.338,1.1,1.1,0,0,1-.375-.862,1.105,1.105,0,0,1,.375-.87,1.374,1.374,0,0,1,.944-.33,1.349,1.349,0,0,1,.937.33,1.117,1.117,0,0,1,.369.87,1.116,1.116,0,0,1-.369.862A1.327,1.327,0,0,1,10.007,6.325ZM8.9,7.675h2.19v8.4H8.9Z" fill="#fff"/>
  </g>
</svg>
