<svg id="레이어_1" data-name="레이어 1" xmlns="http://www.w3.org/2000/svg" width="54" height="58.5" viewBox="0 0 54 58.5">
  <circle id="타원_35" data-name="타원 35" cx="10" cy="10" r="10" transform="translate(33.5 38)" fill="#ffd740"/>
  <path id="패스_1826" data-name="패스 1826" d="M43.5,58.5A10.5,10.5,0,1,1,54,48,10.5,10.5,0,0,1,43.5,58.5Zm0-20A9.5,9.5,0,1,0,53,48a9.5,9.5,0,0,0-9.5-9.5Z" fill="#263238"/>
  <path id="패스_1827" data-name="패스 1827" d="M.5,54.5A.5.5,0,0,1,0,54V53a.5.5,0,0,1,1,0v1a.5.5,0,0,1-.5.5Z" fill="#263238"/>
  <path id="패스_1828" data-name="패스 1828" d="M.5,51.5A.5.5,0,0,1,0,51V36a.5.5,0,0,1,1,0V51a.5.5,0,0,1-.5.5Z" fill="#263238"/>
  <path id="패스_1829" data-name="패스 1829" d="M44.5,11.5A.5.5,0,0,1,44,11V10a.5.5,0,0,1,1,0v1A.5.5,0,0,1,44.5,11.5Z" fill="#263238"/>
  <path id="패스_1830" data-name="패스 1830" d="M44.5,28.5A.5.5,0,0,1,44,28V13a.5.5,0,0,1,1,0V28A.5.5,0,0,1,44.5,28.5Z" fill="#263238"/>
  <path id="패스_1831" data-name="패스 1831" d="M31.89,51.5H10.5A5.51,5.51,0,0,1,5,46V24a5.51,5.51,0,0,1,5.5-5.5h24A5.51,5.51,0,0,1,40,24V36.7a.5.5,0,0,1-1,0V24a4.51,4.51,0,0,0-4.5-4.5h-24A4.51,4.51,0,0,0,6,24V46a4.51,4.51,0,0,0,4.5,4.5H31.89a.5.5,0,0,1,0,1Z" fill="#263238"/>
  <path id="패스_1832" data-name="패스 1832" d="M20.38,41.1a1.51,1.51,0,0,1-1.06-.44l-5-4.95a1.5,1.5,0,0,1,2.12-2.12l3.89,3.89,8.13-8.14a1.51,1.51,0,0,1,2.12,0,1.49,1.49,0,0,1,0,2.12l-9.19,9.2A1.51,1.51,0,0,1,20.38,41.1Z" fill="#00b9ff"/>
  <path id="패스_1833" data-name="패스 1833" d="M20.38,41.6A2,2,0,0,1,19,41l-5-4.95a2,2,0,0,1,0-2.83,2.06,2.06,0,0,1,2.83,0l3.54,3.54L28.16,29A2,2,0,1,1,31,31.82L21.79,41A2,2,0,0,1,20.38,41.6Zm-4.95-8a1,1,0,0,0-.71,1.7l5,4.95a1,1,0,0,0,1.42,0l9.19-9.19a1,1,0,1,0-1.42-1.41l-8.13,8.13a.5.5,0,0,1-.7,0l-3.89-3.89a1,1,0,0,0-.76-.24Z" fill="#263238"/>
  <path id="패스_1834" data-name="패스 1834" d="M34.5,19a.5.5,0,0,1-.5-.5v-6a11.5,11.5,0,1,0-23,0v6a.5.5,0,0,1-1,0v-6a12.5,12.5,0,1,1,25,0v6A.5.5,0,0,1,34.5,19Z" fill="#263238"/>
  <path id="패스_1835" data-name="패스 1835" d="M30.5,19a.5.5,0,0,1-.5-.5v-6a7.5,7.5,0,0,0-15,0v6a.5.5,0,0,1-1,0v-6a8.5,8.5,0,0,1,17,0v6A.5.5,0,0,1,30.5,19Z" fill="#263238"/>
  <path id="패스_1836" data-name="패스 1836" d="M33.12,54.5H10.5A1.5,1.5,0,0,1,9,53a.5.5,0,1,1,1,0,.5.5,0,0,0,.5.5H33.12a.5.5,0,0,1,0,1Z" fill="#263238"/>
  <circle id="타원_36" data-name="타원 36" cx="3.25" cy="3.25" r="3.25" transform="translate(40.29 42.69)" fill="none" stroke="#263238" stroke-miterlimit="10" stroke-width="1"/>
  <path id="패스_1837" data-name="패스 1837" d="M38.85,52.5c0-1.79,2.1-3.25,4.69-3.25s4.69,1.46,4.69,3.25" fill="none" stroke="#263238" stroke-miterlimit="10" stroke-width="1"/>
</svg>
