<svg xmlns="http://www.w3.org/2000/svg" width="54.936" height="36.9" viewBox="0 0 54.936 36.9">
  <g id="레이어_2" data-name="레이어 2" transform="translate(-0.004 -12)">
    <g id="레이어_1" data-name="레이어 1" transform="translate(0 12)">
      <path id="패스_1812" data-name="패스 1812" d="M10.23,3.89a16.12,16.12,0,0,0-5.42,3.6A16.4,16.4,0,0,0,28,30.69a16.12,16.12,0,0,0,3.6-5.42A16.383,16.383,0,0,0,10.25,3.92ZM4.1,26a11.36,11.36,0,0,1-2.16-1.74,15.44,15.44,0,0,1-.5-8.62A12.76,12.76,0,0,1,2.49,13.9c.12-.18.23-.35.36-.52l3.71,2.19v.09a28.72,28.72,0,0,0,.59,5.92h0L4.29,26.1Zm11,7.61a14.69,14.69,0,0,0,2,.83,15.4,15.4,0,0,1-8.32-2L15,33.53Zm0-1.12-7.33-1.3a23.6,23.6,0,0,1-2.29-3.32c-.17-.3-.35-.59-.5-.9l2.87-4.5.22.05a47.94,47.94,0,0,0,5.46,1.09h.27l3.44,5.94c-.6.84-1.2,1.68-1.82,2.5a3.357,3.357,0,0,1-.33.44ZM27.27,30a15.311,15.311,0,0,1-1.85,1.58A13.76,13.76,0,0,0,24.87,29l3.67-6.84a17.14,17.14,0,0,0,2.89-1.63,1.11,1.11,0,0,0,.29-.28A15.26,15.26,0,0,1,27.27,30Zm-.16-8.88.41.79L24,28.48h-.06a32.09,32.09,0,0,1-5.79.56l-3.54-6.11c.55-1,1.1-2.05,1.64-3.08.37-.7.73-1.4,1.09-2.1L24.63,17a43.321,43.321,0,0,1,2.48,4.08Zm-1.48-7.84c-.35.92-.72,1.82-1.09,2.73l-7.13.74q-.14-.18-.27-.33c-.84-1-1.69-1.9-2.54-2.85h0l-1-1,2-6a1.86,1.86,0,0,1,.4-.15c1.08-.11,2.16-.24,3.24-.3a16.84,16.84,0,0,1,2,0l4.91,5.54c-.15.52-.33,1.06-.52,1.58Zm1.64-5a15.13,15.13,0,0,1,3.15,4.55,15.58,15.58,0,0,0-2.93-1.57A4.84,4.84,0,0,0,27,11L22.16,5.58a5.67,5.67,0,0,0,.06-.71,15.29,15.29,0,0,1,5.05,3.36ZM11.49,4.58h0a12,12,0,0,1,3.05,1.61l-1.85,5.59h0c-.38.15-.76.29-1.14.46A32.37,32.37,0,0,0,7.1,14.65L3.45,12.52a.92.92,0,0,1,.06-.33c.25-.66.49-1.31.77-2A14.7,14.7,0,0,1,5,8.8q.27-.3.54-.57a15.25,15.25,0,0,1,6-3.7Z" fill="#263238"/>
      <path id="패스_1813" data-name="패스 1813" d="M35.41,32.5v-8a1.5,1.5,0,0,1,3,0v8a1.5,1.5,0,0,1-3,0Z" fill="#00b9ff" stroke="#263238" stroke-miterlimit="10" stroke-width="1"/>
      <path id="패스_1814" data-name="패스 1814" d="M41.41,32.5v-15a1.5,1.5,0,0,1,3,0v15a1.5,1.5,0,0,1-3,0Z" fill="#00b9ff" stroke="#263238" stroke-miterlimit="10" stroke-width="1"/>
      <path id="패스_1815" data-name="패스 1815" d="M47.41,32.5V7.5a1.5,1.5,0,0,1,3,0v25a1.5,1.5,0,0,1-3,0Z" fill="#00b9ff" stroke="#263238" stroke-miterlimit="10" stroke-width="1"/>
      <path id="패스_1816" data-name="패스 1816" d="M54.44,21.2h-1.5a.5.5,0,0,1,0-1h1.5a.51.51,0,0,1,.5.5A.5.5,0,0,1,54.44,21.2Z" fill="#263238"/>
      <path id="패스_1817" data-name="패스 1817" d="M54.44,12.5h-1.5a.5.5,0,0,1,0-1h1.5a.5.5,0,1,1,0,1Z" fill="#263238"/>
      <path id="패스_1818" data-name="패스 1818" d="M54.44,29.9h-1.5a.5.5,0,0,1,0-1h1.5a.51.51,0,0,1,.5.5.5.5,0,0,1-.5.5Z" fill="#263238"/>
      <circle id="타원_34" data-name="타원 34" cx="10" cy="10" r="10" transform="translate(12.94 16.4)" fill="#ffd740"/>
      <path id="패스_1819" data-name="패스 1819" d="M22.94,36.9a10.5,10.5,0,1,1,10.5-10.5A10.5,10.5,0,0,1,22.94,36.9Zm0-20a9.5,9.5,0,1,0,9.5,9.5,9.5,9.5,0,0,0-9.5-9.5Z" fill="#263238"/>
      <path id="패스_1820" data-name="패스 1820" d="M23.94,26.9h-3.5a.5.5,0,0,1-.5-.5v-4a.5.5,0,0,1,.5-.5h3.5a2.5,2.5,0,0,1,0,5Zm-3-1h3a1.5,1.5,0,1,0,0-3h-3Z" fill="#263238"/>
      <path id="패스_1821" data-name="패스 1821" d="M24.94,30.9h-4.5a.5.5,0,0,1-.5-.5v-4a.5.5,0,0,1,.5-.5h4.5a2.5,2.5,0,1,1,0,5Zm-4-1h4a1.5,1.5,0,1,0,0-3h-4Z" fill="#263238"/>
      <path id="패스_1822" data-name="패스 1822" d="M21.94,22.9a.5.5,0,0,1-.5-.5v-2a.5.5,0,0,1,.5-.5.51.51,0,0,1,.5.5v2A.5.5,0,0,1,21.94,22.9Z" fill="#263238"/>
      <path id="패스_1823" data-name="패스 1823" d="M23.94,22.9a.5.5,0,0,1-.5-.5v-2a.5.5,0,0,1,.5-.5.51.51,0,0,1,.5.5v2A.5.5,0,0,1,23.94,22.9Z" fill="#263238"/>
      <path id="패스_1824" data-name="패스 1824" d="M21.94,32.9a.5.5,0,0,1-.5-.5v-2a.5.5,0,0,1,.5-.5.51.51,0,0,1,.5.5v2A.5.5,0,0,1,21.94,32.9Z" fill="#263238"/>
      <path id="패스_1825" data-name="패스 1825" d="M23.94,32.9a.5.5,0,0,1-.5-.5v-2a.5.5,0,0,1,.5-.5.51.51,0,0,1,.5.5v2A.5.5,0,0,1,23.94,32.9Z" fill="#263238"/>
      <line id="선_125" data-name="선 125" y2="4" transform="translate(32.91 0.5)" fill="#fff" stroke="#263238" stroke-linecap="round" stroke-miterlimit="10" stroke-width="1"/>
      <line id="선_126" data-name="선 126" x2="4" transform="translate(30.91 2.5)" fill="#fff" stroke="#263238" stroke-linecap="round" stroke-miterlimit="10" stroke-width="1"/>
      <line id="선_127" data-name="선 127" y2="4" transform="translate(38.41 8)" fill="#fff" stroke="#263238" stroke-linecap="round" stroke-miterlimit="10" stroke-width="1"/>
      <line id="선_128" data-name="선 128" x2="4" transform="translate(36.41 10)" fill="#fff" stroke="#263238" stroke-linecap="round" stroke-miterlimit="10" stroke-width="1"/>
    </g>
  </g>
</svg>
