<svg xmlns="http://www.w3.org/2000/svg" width="29.226" height="25.354" viewBox="0 0 29.226 25.354">
    <defs>
        <style>
            .cls-1{fill:#00b9ff}
        </style>
    </defs>
    <g id="레이어_2" data-name="레이어 2">
        <g id="레이어_1" data-name="레이어 1">
            <path id="제외_1" d="M14.192 9.5H2a2 2 0 0 1-2-2V2a2 2 0 0 1 2-2h12.192a2 2 0 0 1 2 2v5.5a2 2 0 0 1-2 2zM5.211 3.026A1.724 1.724 0 1 0 6.926 4.75a1.722 1.722 0 0 0-1.715-1.724z" class="cls-1" data-name="제외 1" transform="translate(13.034 7.934)"/>
            <path id="패스_1859" d="M15.471 19.156a4.164 4.164 0 0 1-4.154-4.161v-4.611a4.163 4.163 0 0 1 4.154-4.136h11.056V2.5A2.493 2.493 0 0 0 24.04 0H2.487A2.493 2.493 0 0 0 0 2.5v20.355a2.493 2.493 0 0 0 2.487 2.5H24.04a2.493 2.493 0 0 0 2.487-2.5v-3.749z" class="cls-1" data-name="패스 1859"/>
        </g>
    </g>
</svg>
