<?xml version="1.0" encoding="utf-8"?>
<!-- Generator: Adobe Illustrator 23.0.3, SVG Export Plug-In . SVG Version: 6.00 Build 0)  -->
<svg version="1.1" id="레이어_1" xmlns="http://www.w3.org/2000/svg" xmlns:xlink="http://www.w3.org/1999/xlink" x="0px"
	 y="0px" viewBox="0 0 25.7 18.7" style="enable-background:new 0 0 25.7 18.7;" xml:space="preserve">
<style type="text/css">
	.st0{fill:#FFC800;}
	.st1{fill:none;stroke:#474846;stroke-width:0.7;stroke-miterlimit:10;}
</style>
<g>
	<g>
		<g>
			<path class="st0" d="M5.88,13.26H5.17V5.51h0.71V13.26z"/>
			<path class="st0" d="M12.99,12.86c-0.47,0.33-1.11,0.49-1.93,0.49c-1.17,0-2.12-0.36-2.84-1.07c-0.72-0.71-1.08-1.69-1.08-2.94
				c0-1.16,0.37-2.11,1.11-2.84s1.66-1.09,2.76-1.09c0.76,0,1.41,0.14,1.95,0.41v0.75c-0.34-0.18-0.64-0.3-0.9-0.37
				c-0.26-0.07-0.62-0.11-1.08-0.11c-0.89,0-1.63,0.3-2.22,0.9c-0.59,0.6-0.89,1.39-0.89,2.35c0,1.01,0.29,1.82,0.88,2.43
				s1.37,0.91,2.34,0.91c0.76,0,1.39-0.2,1.9-0.6V12.86z"/>
			<path class="st0" d="M20.53,9.35c0,1.23-0.3,2.2-0.91,2.92c-0.61,0.72-1.43,1.08-2.47,1.08c-1.03,0-1.85-0.36-2.48-1.09
				c-0.62-0.73-0.94-1.7-0.94-2.91c0-1.22,0.3-2.19,0.91-2.91c0.61-0.72,1.43-1.09,2.48-1.09c1.07,0,1.91,0.36,2.51,1.07
				C20.24,7.14,20.53,8.12,20.53,9.35z M14.48,9.35c0,1.02,0.24,1.83,0.73,2.42c0.49,0.59,1.14,0.89,1.95,0.89
				c0.84,0,1.49-0.29,1.95-0.88c0.46-0.59,0.69-1.4,0.69-2.43c0-1.04-0.23-1.85-0.7-2.44c-0.46-0.58-1.12-0.87-1.97-0.87
				c-0.83,0-1.48,0.29-1.95,0.88C14.71,7.51,14.48,8.32,14.48,9.35z"/>
		</g>
	</g>
	<path class="st1" d="M22.35,18.35h-19c-1.66,0-3-1.34-3-3v-12c0-1.66,1.34-3,3-3h19c1.66,0,3,1.34,3,3v12
		C25.35,17.01,24.01,18.35,22.35,18.35z"/>
</g>
</svg>
