<svg xmlns="http://www.w3.org/2000/svg" width="7.16" height="9.66" viewBox="0 0 7.16 9.66">
  <path id="hashtag_gr" d="M3.217-8.628a.412.412,0,0,1,.283.115.335.335,0,0,1,.067.29L3.244-5.918h2L5.59-8.291q.04-.364.458-.337a.4.4,0,0,1,.27.115.335.335,0,0,1,.067.29L6.062-5.918H7.181a.3.3,0,0,1,.27.121.523.523,0,0,1,.081.3.5.5,0,0,1-.081.283.3.3,0,0,1-.27.121H5.941L5.59-2.533H6.736a.3.3,0,0,1,.27.121.523.523,0,0,1,.081.3.5.5,0,0,1-.081.283.3.3,0,0,1-.27.121H5.482L5.145.7q-.04.364-.458.324A.412.412,0,0,1,4.4.912a.335.335,0,0,1-.067-.29L4.66-1.711H2.651L2.327.7a.377.377,0,0,1-.472.324.4.4,0,0,1-.27-.115.335.335,0,0,1-.067-.29l.324-2.333H.723a.3.3,0,0,1-.27-.121.5.5,0,0,1-.081-.283.523.523,0,0,1,.081-.3.3.3,0,0,1,.27-.121H1.95L2.314-5.1H1.154A.286.286,0,0,1,.9-5.216.5.5,0,0,1,.817-5.5.523.523,0,0,1,.9-5.8a.286.286,0,0,1,.256-.121H2.422l.337-2.373a.366.366,0,0,1,.148-.27A.484.484,0,0,1,3.217-8.628ZM4.781-2.533,5.145-5.1H3.123L2.772-2.533Z" transform="translate(-0.372 8.63)" fill="#646464"/>
</svg>
