<svg xmlns="http://www.w3.org/2000/svg" xmlns:xlink="http://www.w3.org/1999/xlink" width="439" height="202.001" viewBox="0 0 439 202.001">
  <defs>
    <filter id="빼기_1" x="0" y="0" width="439" height="202.001" filterUnits="userSpaceOnUse">
      <feOffset dy="8" input="SourceAlpha"/>
      <feGaussianBlur stdDeviation="7" result="blur"/>
      <feFlood flood-color="#333" flood-opacity="0.078"/>
      <feComposite operator="in" in2="blur"/>
      <feComposite in="SourceGraphic"/>
    </filter>
    <linearGradient id="linear-gradient" x1="0.5" x2="0.5" y2="1" gradientUnits="objectBoundingBox">
      <stop offset="0" stop-color="#c163fe"/>
      <stop offset="1" stop-color="#ff91cd"/>
    </linearGradient>
  </defs>
  <g id="icon_coupon" transform="translate(-640 -665)">
    <g transform="matrix(1, 0, 0, 1, 640, 665)" filter="url(#빼기_1)">
      <path id="빼기_1-2" data-name="빼기 1" d="M693,6153H324a14,14,0,0,1-14-14v-53c8.371,0,15.179-5.833,15.179-13s-6.809-13-15.179-13v-53a14,14,0,0,1,14-14H693a14,14,0,0,1,14,14v53c-8.371,0-15.179,5.832-15.179,13s6.809,13,15.179,13v53a14,14,0,0,1-14,14Z" transform="translate(-289 -5980)" fill="#fff"/>
    </g>
    <path id="교차_1" data-name="교차 1" d="M311,6167a14,14,0,0,1-14-13.792V6100a13,13,0,0,0,0-26v-53.208A14,14,0,0,1,311,6007h40v160Z" transform="translate(363.999 -5329)" fill="url(#linear-gradient)"/>
    <path id="패스_139" data-name="패스 139" d="M-28.23.168a4.2,4.2,0,0,1-1.584-.3,3.681,3.681,0,0,1-1.3-.876,4.109,4.109,0,0,1-.87-1.428A5.61,5.61,0,0,1-32.3-4.4a5.451,5.451,0,0,1,.33-1.956,4.4,4.4,0,0,1,.894-1.464,3.776,3.776,0,0,1,1.314-.912,4.1,4.1,0,0,1,1.59-.312,3.239,3.239,0,0,1,1.512.342,4.058,4.058,0,0,1,1.092.8L-26.5-6.78a3.236,3.236,0,0,0-.732-.534,1.891,1.891,0,0,0-.9-.21,2.112,2.112,0,0,0-.936.21,2.12,2.12,0,0,0-.744.606,3.017,3.017,0,0,0-.492.96,4.219,4.219,0,0,0-.18,1.284,4.787,4.787,0,0,0,.162,1.3,2.887,2.887,0,0,0,.468.978,2.057,2.057,0,0,0,.732.612,2.128,2.128,0,0,0,.954.21,2.1,2.1,0,0,0,1.026-.246,3.227,3.227,0,0,0,.81-.63l.936,1.1a3.709,3.709,0,0,1-1.26.978A3.676,3.676,0,0,1-28.23.168Zm10.5,0A3.981,3.981,0,0,1-19.344-.15,3.517,3.517,0,0,1-20.6-1.074a4.264,4.264,0,0,1-.816-1.464A6.073,6.073,0,0,1-21.7-4.476a6.017,6.017,0,0,1,.288-1.932,4.079,4.079,0,0,1,.816-1.44,3.485,3.485,0,0,1,1.254-.894,4.116,4.116,0,0,1,1.614-.306,4.059,4.059,0,0,1,1.608.312,3.57,3.57,0,0,1,1.26.894,4.016,4.016,0,0,1,.816,1.434,6.017,6.017,0,0,1,.288,1.932,6.073,6.073,0,0,1-.288,1.938,4.264,4.264,0,0,1-.816,1.464,3.5,3.5,0,0,1-1.26.924A3.993,3.993,0,0,1-17.73.168Zm0-1.536a1.858,1.858,0,0,0,.894-.216,1.951,1.951,0,0,0,.684-.624,3.082,3.082,0,0,0,.432-.984,5.1,5.1,0,0,0,.15-1.284,3.771,3.771,0,0,0-.582-2.244,1.847,1.847,0,0,0-1.578-.8,1.847,1.847,0,0,0-1.578.8,3.771,3.771,0,0,0-.582,2.244,5.1,5.1,0,0,0,.15,1.284,3.082,3.082,0,0,0,.432.984,1.951,1.951,0,0,0,.684.624A1.858,1.858,0,0,0-17.73-1.368ZM-5.9.168A4.188,4.188,0,0,1-7.35-.066,2.67,2.67,0,0,1-8.436-.8,3.331,3.331,0,0,1-9.12-2.1,6.745,6.745,0,0,1-9.354-4V-8.88h1.776v5.04a5.1,5.1,0,0,0,.114,1.17,2.067,2.067,0,0,0,.33.762,1.228,1.228,0,0,0,.528.414,1.877,1.877,0,0,0,.708.126,1.924,1.924,0,0,0,.714-.126,1.3,1.3,0,0,0,.546-.414A2.01,2.01,0,0,0-4.29-2.67a4.85,4.85,0,0,0,.12-1.17V-8.88h1.7V-4a6.912,6.912,0,0,1-.228,1.9A3.317,3.317,0,0,1-3.366-.8a2.624,2.624,0,0,1-1.08.738A4.188,4.188,0,0,1-5.9.168ZM2.382-8.88H5.3a6.446,6.446,0,0,1,1.368.138,3.055,3.055,0,0,1,1.1.462,2.266,2.266,0,0,1,.738.858A2.921,2.921,0,0,1,8.778-6.1a2.987,2.987,0,0,1-.27,1.314,2.553,2.553,0,0,1-.732.918A3.1,3.1,0,0,1,6.69-3.33a4.986,4.986,0,0,1-1.344.174H4.158V0H2.382ZM5.226-4.56q1.812,0,1.812-1.536a1.177,1.177,0,0,0-.474-1.08,2.641,2.641,0,0,0-1.4-.3H4.158V-4.56ZM16.626.168A3.981,3.981,0,0,1,15.012-.15a3.517,3.517,0,0,1-1.254-.924,4.264,4.264,0,0,1-.816-1.464,6.073,6.073,0,0,1-.288-1.938,6.017,6.017,0,0,1,.288-1.932,4.079,4.079,0,0,1,.816-1.44,3.485,3.485,0,0,1,1.254-.894,4.116,4.116,0,0,1,1.614-.306,4.059,4.059,0,0,1,1.608.312,3.57,3.57,0,0,1,1.26.894,4.016,4.016,0,0,1,.816,1.434A6.017,6.017,0,0,1,20.6-4.476a6.073,6.073,0,0,1-.288,1.938,4.264,4.264,0,0,1-.816,1.464,3.5,3.5,0,0,1-1.26.924A3.993,3.993,0,0,1,16.626.168Zm0-1.536a1.858,1.858,0,0,0,.894-.216,1.951,1.951,0,0,0,.684-.624,3.082,3.082,0,0,0,.432-.984,5.1,5.1,0,0,0,.15-1.284A3.771,3.771,0,0,0,18.2-6.72a1.847,1.847,0,0,0-1.578-.8,1.847,1.847,0,0,0-1.578.8,3.771,3.771,0,0,0-.582,2.244,5.1,5.1,0,0,0,.15,1.284,3.082,3.082,0,0,0,.432.984,1.951,1.951,0,0,0,.684.624A1.858,1.858,0,0,0,16.626-1.368ZM25.05-8.88h1.811l2.579,4.728.888,1.92h.06q-.071-.7-.149-1.524T30.162-5.34V-8.88H31.83V0h-1.8L27.463-4.752l-.9-1.908H26.5q.06.72.137,1.524t.077,1.572V0H25.05Z" transform="translate(698 758) rotate(-90)" fill="#fff"/>
  </g>
</svg>
