<svg xmlns="http://www.w3.org/2000/svg" width="57.604" height="72.13" viewBox="0 0 57.604 72.13">
  <g id="레이어_2" data-name="레이어 2" transform="translate(0.005)">
    <g id="레이어_1" data-name="레이어 1" transform="translate(-0.005 0)">
      <path id="패스_2983" data-name="패스 2983" d="M15.654,46.567a10.03,10.03,0,0,1-4.191,5.852.868.868,0,0,0,.1,1.508,10.03,10.03,0,0,1,4.924,5.247.523.523,0,0,0,1-.066,10.03,10.03,0,0,1,4.187-5.852.868.868,0,0,0-.1-1.5A10.03,10.03,0,0,1,16.65,46.5a.52.52,0,0,0-1,.066Z" transform="translate(-7.6 -31.691)" fill="#fdcb9b"/>
      <path id="패스_2984" data-name="패스 2984" d="M2.93,112.848a6.422,6.422,0,0,1-2.683,3.761.555.555,0,0,0,.063.965,6.416,6.416,0,0,1,3.153,3.36.335.335,0,0,0,.627-.041,6.441,6.441,0,0,1,2.683-3.761.555.555,0,0,0-.063-.962,6.413,6.413,0,0,1-3.141-3.363.335.335,0,0,0-.639.041Z" transform="translate(0.005 -77.301)" fill="#fdcb9b"/>
      <circle id="타원_381" data-name="타원 381" cx="23.655" cy="23.655" r="23.655" transform="translate(10.295 24.821)" fill="#ca7748"/>
      <circle id="타원_382" data-name="타원 382" cx="23.655" cy="23.655" r="23.655" transform="translate(10.295 22.232)" fill="#ffba6f"/>
      <circle id="타원_383" data-name="타원 383" cx="18.48" cy="18.48" r="18.48" transform="translate(15.469 27.406)" fill="#fec485"/>
      <path id="패스_2985" data-name="패스 2985" d="M67.83,90.771a18.492,18.492,0,0,1,18.458,17.618q.019-.426.019-.865a18.492,18.492,0,0,0-36.957,0c0,.291,0,.58.022.865A18.492,18.492,0,0,1,67.83,90.771Z" transform="translate(-33.881 -61.622)" fill="#e69e52"/>
      <g id="그룹_1045" data-name="그룹 1045" transform="translate(14.194 27.494)" opacity="0.6">
        <path id="패스_2986" data-name="패스 2986" d="M164.194,109.05l-3.4,3.031a18.217,18.217,0,0,1,1.41,3.369l3.592-3.2-.094-.232A22.924,22.924,0,0,0,164.194,109.05Z" transform="translate(-124.586 -102.365)" fill="#fff1e1"/>
        <path id="패스_2987" data-name="패스 2987" d="M67.661,195.09l-3.4,3.031a22.608,22.608,0,0,0,2.774,1.837l.219.119,3.592-3.2A18.4,18.4,0,0,1,67.661,195.09Z" transform="translate(-58.311 -161.437)" fill="#fff1e1"/>
        <path id="패스_2988" data-name="패스 2988" d="M48.7,173.26l-3.42,3.053.072.129a23.012,23.012,0,0,0,4.915,5.918l.075.063,3.369-3A18.564,18.564,0,0,1,48.7,173.26Z" transform="translate(-45.28 -146.449)" fill="#fff1e1"/>
        <path id="패스_2989" data-name="패스 2989" d="M146.807,96.443l3.354-2.993c-.019-.028-.034-.056-.053-.081a23.031,23.031,0,0,0-5.328-5.56c-.038-.031-.081-.06-.119-.088l-3.42,3.047a18.643,18.643,0,0,1,5.567,5.676Z" transform="translate(-111.163 -87.72)" fill="#fff1e1"/>
      </g>
      <path id="패스_2990" data-name="패스 2990" d="M101.345,56.61a3.382,3.382,0,1,0,3.379,3.379A3.382,3.382,0,0,0,101.345,56.61Zm0,4.545a1.163,1.163,0,1,1,.823-.342A1.166,1.166,0,0,1,101.345,61.155Z" transform="translate(-67.255 -38.867)" fill="#ffba6f"/>
      <path id="패스_2991" data-name="패스 2991" d="M106.2,63.68a1.166,1.166,0,1,0,1.163,1.163A1.166,1.166,0,0,0,106.2,63.68Z" transform="translate(-72.109 -43.721)" fill="#fff"/>
      <path id="패스_2992" data-name="패스 2992" d="M88.283,0H56.8a.793.793,0,0,0-.8.793V9.538a5.429,5.429,0,0,0,3.134,4.918l7.7,3.134,3.761,1.53a4.827,4.827,0,0,0,4.131-.016l3.529-1.457,7.735-3.181a5.429,5.429,0,0,0,3.087-4.9V.79A.793.793,0,0,0,88.283,0Z" transform="translate(-38.446 0)" fill="#fed800"/>
      <path id="패스_2993" data-name="패스 2993" d="M56.8,0a.793.793,0,0,0-.8.793V9.538a5.429,5.429,0,0,0,3.134,4.918l7.7,3.134V0Z" transform="translate(-38.446 0)" fill="#e69e52"/>
      <path id="패스_2994" data-name="패스 2994" d="M90.55,0V17.574l3.761,1.53a4.827,4.827,0,0,0,4.131-.016l3.532-1.442V0Z" transform="translate(-62.167 0)" fill="#fed800"/>
      <path id="패스_2995" data-name="패스 2995" d="M137.03,0H127V17.646l7.735-3.181a5.429,5.429,0,0,0,3.087-4.9V.79A.793.793,0,0,0,137.03,0Z" transform="translate(-87.193 0)" fill="#e69e52"/>
      <path id="패스_2996" data-name="패스 2996" d="M90.55,0V17.574l3.761,1.53a4.827,4.827,0,0,0,4.131-.016l3.532-1.442V0Z" transform="translate(-62.167 0)" fill="#ffba6f"/>
      <path id="패스_2997" data-name="패스 2997" d="M104.774,60.454a4.827,4.827,0,0,1-4.131.031l-.58-.235a3.447,3.447,0,0,0-.313.373l.878.354a4.811,4.811,0,0,0,1.567.429,1.21,1.21,0,0,1,.373-.066,1.178,1.178,0,0,1,.407.078,4.811,4.811,0,0,0,1.793-.458l.652-.266a3.69,3.69,0,0,0-.279-.379Z" transform="translate(-68.484 -41.366)" fill="#e69e52"/>
      <g id="그룹_1047" data-name="그룹 1047" transform="translate(25.397 36.426)" opacity="0.5">
        <g id="그룹_1046" data-name="그룹 1046" transform="translate(1.265)">
          <path id="패스_2998" data-name="패스 2998" d="M94.15,133.493a8.721,8.721,0,1,0-9.09-13.158l9.09,13.183Zm-2.059-2.981-2.216-3.219-.044-.063h0a3.175,3.175,0,1,1,5.281,0h0l-.053.078-2.194,3.206a.461.461,0,0,1-.774,0Z" transform="translate(-85.06 -116.216)" fill="#ca7748"/>
          <circle id="타원_384" data-name="타원 384" cx="1.163" cy="1.163" r="1.163" transform="matrix(0.967, -0.257, 0.257, 0.967, 5.987, 8.426)" fill="#ca7748"/>
        </g>
        <circle id="타원_385" data-name="타원 385" cx="1.191" cy="1.191" r="1.191" transform="translate(7.455 7.991)" fill="#ca7748"/>
        <path id="패스_2999" data-name="패스 2999" d="M83.994,156.4a1.232,1.232,0,0,0-.244-.47Q83.869,156.171,83.994,156.4Z" transform="translate(-82.896 -143.482)" fill="#ca7748"/>
        <path id="패스_3000" data-name="패스 3000" d="M91.793,143.029l-.36-.7L84.85,132.8h0c-.382.16-1.022-.724-1.3-1.426a2.288,2.288,0,0,1-.16-.7l-1.05-1.52a8.776,8.776,0,0,0-1.172,6.175v.019a8.72,8.72,0,0,0,.727,2.194,1.254,1.254,0,0,1,.244.467,8.968,8.968,0,0,0,.68,1.028l.06.075h0l.335.5h0l6.544,9.462s1.454-1.254,1.62-1.445A3.977,3.977,0,0,0,91.793,143.029Z" transform="translate(-81.025 -125.096)" fill="#ca7748"/>
        <path id="패스_3001" data-name="패스 3001" d="M90,136.125h0L88.54,134a2.288,2.288,0,0,0,.16.7C89,135.4,89.624,136.285,90,136.125Z" transform="translate(-86.184 -128.426)" fill="#ca7748"/>
        <circle id="타원_386" data-name="타원 386" cx="1.341" cy="1.341" r="1.341" transform="translate(7.267 7.727)" fill="#ca7748"/>
        <path id="패스_3002" data-name="패스 3002" d="M85.827,159.516l-.047-.066Z" transform="translate(-84.29 -145.899)" fill="#ca7748" opacity="0.5"/>
        <path id="패스_3003" data-name="패스 3003" d="M82.51,152.92Z" transform="translate(-82.044 -141.416)" fill="#ca7748" opacity="0.5"/>
        <path id="패스_3004" data-name="패스 3004" d="M81.64,149.8Z" transform="translate(-81.447 -139.274)" fill="#ca7748" opacity="0.5"/>
        <path id="패스_3005" data-name="패스 3005" d="M82.67,153.36Z" transform="translate(-82.154 -141.718)" fill="#ca7748" opacity="0.5"/>
        <path id="패스_3006" data-name="패스 3006" d="M87.219,161.452h0l-.339-.492Z" transform="translate(-85.045 -146.936)" fill="#ca7748" opacity="0.5"/>
        <path id="패스_3007" data-name="패스 3007" d="M82.36,152.47Z" transform="translate(-81.941 -141.107)" fill="#ca7748" opacity="0.5"/>
        <path id="패스_3008" data-name="패스 3008" d="M84.53,157.43Z" transform="translate(-83.431 -144.512)" fill="#ca7748" opacity="0.5"/>
        <path id="패스_3009" data-name="패스 3009" d="M85.258,158.653c0-.019-.022-.034-.031-.05A.377.377,0,0,1,85.258,158.653Z" transform="translate(-83.908 -145.315)" fill="#ca7748" opacity="0.5"/>
        <path id="패스_3010" data-name="패스 3010" d="M85,158.231l-.025-.041Z" transform="translate(-83.733 -145.034)" fill="#ca7748" opacity="0.5"/>
        <path id="패스_3011" data-name="패스 3011" d="M86.47,160.422l-.1-.132Z" transform="translate(-84.695 -146.476)" fill="#ca7748" opacity="0.5"/>
        <path id="패스_3012" data-name="패스 3012" d="M85.538,159.066,85.5,159Z" transform="translate(-84.097 -145.59)" fill="#ca7748" opacity="0.5"/>
        <path id="패스_3013" data-name="패스 3013" d="M84.749,157.811l-.019-.031Z" transform="translate(-83.569 -144.752)" fill="#ca7748" opacity="0.5"/>
        <path id="패스_3014" data-name="패스 3014" d="M86.13,159.952l-.06-.081Z" transform="translate(-84.489 -146.187)" fill="#ca7748" opacity="0.5"/>
        <path id="패스_3015" data-name="패스 3015" d="M81.55,149.35Z" transform="translate(-81.385 -138.965)" fill="#ca7748" opacity="0.5"/>
        <path id="패스_3016" data-name="패스 3016" d="M81.46,148.9Z" transform="translate(-81.324 -138.656)" fill="#ca7748" opacity="0.5"/>
        <path id="패스_3017" data-name="패스 3017" d="M85.67,159.285l-.05-.075Z" transform="translate(-84.18 -145.734)" fill="#ca7748"/>
        <path id="패스_3018" data-name="패스 3018" d="M91.144,120.48a8.892,8.892,0,0,0-1.254.959c.376-.088.558-.407.887-.627A1.191,1.191,0,0,0,91.144,120.48Z" transform="translate(-87.111 -119.143)" fill="#ca7748"/>
        <path id="패스_3019" data-name="패스 3019" d="M85.383,158.822c-.019-.028-.034-.056-.053-.081A.367.367,0,0,0,85.383,158.822Z" transform="translate(-83.981 -145.412)" fill="#ca7748"/>
        <path id="패스_3020" data-name="패스 3020" d="M82.67,153.36a8.464,8.464,0,0,0,.583,1.276,1.232,1.232,0,0,0-.244-.47A7.835,7.835,0,0,1,82.67,153.36Z" transform="translate(-82.154 -141.718)" fill="#ca7748"/>
        <path id="패스_3021" data-name="패스 3021" d="M85.974,159.726l-.044-.066Z" transform="translate(-84.393 -146.043)" fill="#ca7748"/>
        <path id="패스_3022" data-name="패스 3022" d="M81.866,150.637a8.28,8.28,0,0,1-.226-.837A8.28,8.28,0,0,0,81.866,150.637Z" transform="translate(-81.447 -139.274)" fill="#ca7748"/>
        <path id="패스_3023" data-name="패스 3023" d="M86.294,160.18l-.034-.05Z" transform="translate(-84.619 -146.366)" fill="#ca7748"/>
        <path id="패스_3024" data-name="패스 3024" d="M85.106,158.411l-.056-.091Z" transform="translate(-83.788 -145.123)" fill="#ca7748"/>
        <path id="패스_3025" data-name="패스 3025" d="M82.4,152.6l-.044-.132Z" transform="translate(-81.941 -141.107)" fill="#ca7748"/>
        <path id="패스_3026" data-name="패스 3026" d="M84.876,157.977l-.056-.1Z" transform="translate(-83.63 -144.821)" fill="#ca7748"/>
        <path id="패스_3027" data-name="패스 3027" d="M81.578,149.488l-.028-.138Z" transform="translate(-81.385 -138.965)" fill="#ca7748"/>
        <path id="패스_3028" data-name="패스 3028" d="M82.557,153.052l-.047-.132Z" transform="translate(-82.044 -141.416)" fill="#ca7748"/>
        <path id="패스_3029" data-name="패스 3029" d="M81.485,149.031a1.109,1.109,0,0,0-.025-.141C81.466,148.924,81.476,148.984,81.485,149.031Z" transform="translate(-81.324 -138.649)" fill="#ca7748"/>
        <path id="패스_3030" data-name="패스 3030" d="M84.593,157.54l-.063-.11Z" transform="translate(-83.431 -144.512)" fill="#ca7748"/>
        <path id="패스_3031" data-name="패스 3031" d="M106.146,142a1.163,1.163,0,1,0,1.16,1.16,1.163,1.163,0,0,0-1.16-1.16Z" transform="translate(-97.472 -133.918)" fill="#ca7748"/>
      </g>
      <g id="그룹_1048" data-name="그룹 1048" transform="translate(26.662 34.444)">
        <path id="패스_3032" data-name="패스 3032" d="M94.15,127.182a8.632,8.632,0,0,0,3.608-1.614,8.726,8.726,0,1,0-12.7-11.544l9.09,13.183ZM92.09,124.2l-2.216-3.222c0-.019-.028-.041-.044-.063h0a3.175,3.175,0,1,1,5.281,0h0l-.053.075-2.194,3.21a.464.464,0,0,1-.774,0Z" transform="translate(-85.06 -109.894)" fill="#fff"/>
        <circle id="타원_387" data-name="타원 387" cx="1.168" cy="1.168" r="1.168" transform="translate(6.244 8.474) rotate(-15.005)" fill="#fff"/>
      </g>
      <circle id="타원_388" data-name="타원 388" cx="1.191" cy="1.191" r="1.191" transform="translate(32.852 42.445)" fill="#fff"/>
      <path id="패스_3033" data-name="패스 3033" d="M83.994,150.11a1.254,1.254,0,0,0-.244-.47Q83.869,149.881,83.994,150.11Z" transform="translate(-57.499 -102.738)" fill="#fff"/>
      <path id="패스_3034" data-name="패스 3034" d="M91.793,136.739l-.36-.7-6.582-9.538h0c-.382.16-1.022-.724-1.3-1.426a2.291,2.291,0,0,1-.16-.7l-1.05-1.523a8.776,8.776,0,0,0-1.172,6.175v.022a8.7,8.7,0,0,0,.727,2.194,1.254,1.254,0,0,1,.244.47,8.933,8.933,0,0,0,.68,1.025l.06.075h0l.335.5h0l6.544,9.462s1.454-1.254,1.62-1.442A3.981,3.981,0,0,0,91.793,136.739Z" transform="translate(-55.627 -84.352)" fill="#fff"/>
      <path id="패스_3035" data-name="패스 3035" d="M90,129.842h0L88.54,127.72a2.291,2.291,0,0,0,.16.7C89,129.118,89.624,130,90,129.842Z" transform="translate(-60.787 -87.689)" fill="#fff"/>
      <circle id="타원_389" data-name="타원 389" cx="1.341" cy="1.341" r="1.341" transform="translate(32.664 42.182)" fill="#fff"/>
      <path id="패스_3036" data-name="패스 3036" d="M85.827,153.226l-.047-.066Z" transform="translate(-58.892 -105.155)" fill="#fff" opacity="0.5"/>
      <path id="패스_3037" data-name="패스 3037" d="M82.51,146.63Z" transform="translate(-56.647 -100.672)" fill="#fff" opacity="0.5"/>
      <path id="패스_3038" data-name="패스 3038" d="M81.64,143.51Z" transform="translate(-56.05 -98.529)" fill="#fff" opacity="0.5"/>
      <path id="패스_3039" data-name="패스 3039" d="M82.67,147.07Z" transform="translate(-56.757 -100.974)" fill="#fff" opacity="0.5"/>
      <path id="패스_3040" data-name="패스 3040" d="M87.219,155.162h0l-.339-.492Z" transform="translate(-59.648 -106.192)" fill="#fff" opacity="0.5"/>
      <path id="패스_3041" data-name="패스 3041" d="M82.36,146.18Z" transform="translate(-56.544 -100.363)" fill="#fff" opacity="0.5"/>
      <path id="패스_3042" data-name="패스 3042" d="M84.53,151.14Z" transform="translate(-58.034 -103.768)" fill="#fff" opacity="0.5"/>
      <path id="패스_3043" data-name="패스 3043" d="M85.258,152.363c0-.019-.022-.034-.031-.05A.377.377,0,0,1,85.258,152.363Z" transform="translate(-58.511 -104.571)" fill="#fff" opacity="0.5"/>
      <path id="패스_3044" data-name="패스 3044" d="M85.016,151.931,85,151.9Z" transform="translate(-58.357 -104.29)" fill="#fff" opacity="0.5"/>
      <path id="패스_3045" data-name="패스 3045" d="M86.47,154.132l-.1-.132Z" transform="translate(-59.297 -105.732)" fill="#fff" opacity="0.5"/>
      <path id="패스_3046" data-name="패스 3046" d="M85.538,152.8l-.038-.056Z" transform="translate(-58.7 -104.867)" fill="#fff" opacity="0.5"/>
      <path id="패스_3047" data-name="패스 3047" d="M84.749,151.528l-.019-.028Z" transform="translate(-58.171 -104.015)" fill="#fff" opacity="0.5"/>
      <path id="패스_3048" data-name="패스 3048" d="M86.13,153.661l-.06-.081Z" transform="translate(-59.091 -105.443)" fill="#fff" opacity="0.5"/>
      <path id="패스_3049" data-name="패스 3049" d="M81.55,143.07Z" transform="translate(-55.988 -98.227)" fill="#fff" opacity="0.5"/>
      <path id="패스_3050" data-name="패스 3050" d="M81.46,142.61Z" transform="translate(-55.926 -97.912)" fill="#fff" opacity="0.5"/>
      <path id="패스_3051" data-name="패스 3051" d="M85.67,153l-.05-.075Z" transform="translate(-58.782 -104.99)" fill="#fff"/>
      <path id="패스_3052" data-name="패스 3052" d="M91.144,114.2a8.644,8.644,0,0,0-1.254.94c.376-.088.558-.407.887-.627A1.226,1.226,0,0,0,91.144,114.2Z" transform="translate(-61.714 -78.406)" fill="#fff"/>
      <path id="패스_3053" data-name="패스 3053" d="M85.383,152.561c-.019-.028-.034-.056-.053-.081C85.349,152.505,85.364,152.533,85.383,152.561Z" transform="translate(-58.583 -104.688)" fill="#fff"/>
      <path id="패스_3054" data-name="패스 3054" d="M82.67,147.07a8.464,8.464,0,0,0,.583,1.276,1.254,1.254,0,0,0-.244-.47,7.835,7.835,0,0,1-.339-.806Z" transform="translate(-56.757 -100.974)" fill="#fff"/>
      <path id="패스_3055" data-name="패스 3055" d="M85.974,153.436l-.044-.066Z" transform="translate(-58.995 -105.299)" fill="#fff"/>
      <path id="패스_3056" data-name="패스 3056" d="M81.866,144.347a8.069,8.069,0,0,1-.226-.837A8.069,8.069,0,0,0,81.866,144.347Z" transform="translate(-56.05 -98.529)" fill="#fff"/>
      <path id="패스_3057" data-name="패스 3057" d="M86.294,153.89l-.034-.05Z" transform="translate(-59.222 -105.622)" fill="#fff"/>
      <path id="패스_3058" data-name="패스 3058" d="M85.106,152.121l-.056-.091Z" transform="translate(-58.391 -104.379)" fill="#fff"/>
      <path id="패스_3059" data-name="패스 3059" d="M82.4,146.312l-.044-.132Z" transform="translate(-56.544 -100.363)" fill="#fff"/>
      <path id="패스_3060" data-name="패스 3060" d="M84.876,151.687l-.056-.1Z" transform="translate(-58.233 -104.077)" fill="#fff"/>
      <path id="패스_3061" data-name="패스 3061" d="M81.578,143.208l-.028-.138Z" transform="translate(-55.988 -98.227)" fill="#fff"/>
      <path id="패스_3062" data-name="패스 3062" d="M82.557,146.762l-.047-.132Z" transform="translate(-56.647 -100.672)" fill="#fff"/>
      <path id="패스_3063" data-name="패스 3063" d="M81.485,142.748a.974.974,0,0,0-.025-.138C81.466,142.654,81.476,142.7,81.485,142.748Z" transform="translate(-55.926 -97.912)" fill="#fff"/>
      <path id="패스_3064" data-name="패스 3064" d="M84.593,151.253c-.019-.038-.041-.075-.063-.113C84.552,151.178,84.574,151.215,84.593,151.253Z" transform="translate(-58.034 -103.768)" fill="#fff"/>
      <path id="패스_3065" data-name="패스 3065" d="M106.146,135.74a1.163,1.163,0,1,0,1.16,1.16,1.163,1.163,0,0,0-1.16-1.16Z" transform="translate(-72.074 -93.195)" fill="#fff"/>
    </g>
  </g>
</svg>
