<svg xmlns="http://www.w3.org/2000/svg" width="42" height="44.282" viewBox="0 0 42 44.282">
  <g id="그룹_820" data-name="그룹 820" transform="translate(-540 -2029)">
    <g id="그룹_814" data-name="그룹 814" transform="translate(552.326 2029)">
      <path id="패스_2782" data-name="패스 2782" d="M573.913,2046.8a.913.913,0,0,1-.913-.913v-15.978a.913.913,0,1,1,1.826,0v15.978A.913.913,0,0,1,573.913,2046.8Z" transform="translate(-570.261 -2029)" fill="#062950"/>
      <path id="패스_2783" data-name="패스 2783" d="M586.145,2042.13h-.012l-11.565-.152a.913.913,0,0,1-.9-.913v-7a.913.913,0,0,1,.9-.913l11.565-.152a.892.892,0,0,1,.829.506.914.914,0,0,1-.1.967l-2.4,3.092,2.4,3.092a.913.913,0,0,1-.721,1.474Zm-10.652-1.966,8.766.115-1.675-2.153a.913.913,0,0,1,0-1.121l1.675-2.153-8.766.115Z" transform="translate(-570.623 -2031.173)" fill="#062950"/>
      <g id="그룹_813" data-name="그룹 813" transform="translate(0 16.435)">
        <ellipse id="타원_351" data-name="타원 351" cx="2.967" cy="1.37" rx="2.967" ry="1.37" transform="translate(0.913 0.913)" fill="#062950"/>
        <path id="패스_2784" data-name="패스 2784" d="M570.88,2069.565c-2.248,0-3.88-.96-3.88-2.283s1.632-2.282,3.88-2.282,3.88.96,3.88,2.282S573.129,2069.565,570.88,2069.565Zm-1.966-2.283a4.464,4.464,0,1,0,1.966-.456A3.682,3.682,0,0,0,568.914,2067.282Zm4.043.1h0Z" transform="translate(-567 -2065)" fill="#062950"/>
      </g>
    </g>
    <g id="그룹_816" data-name="그룹 816" transform="translate(565.565 2045.435)">
      <path id="패스_2785" data-name="패스 2785" d="M602.913,2082.8a.913.913,0,0,1-.913-.913v-15.978a.913.913,0,1,1,1.826,0v15.978A.913.913,0,0,1,602.913,2082.8Z" transform="translate(-599.261 -2065)" fill="#062950"/>
      <path id="패스_2786" data-name="패스 2786" d="M615.145,2078.13h-.012l-11.565-.152a.913.913,0,0,1-.9-.913v-7a.913.913,0,0,1,.9-.913l11.565-.152a.944.944,0,0,1,.829.506.914.914,0,0,1-.1.967l-2.4,3.092,2.4,3.092a.913.913,0,0,1-.721,1.474Zm-10.652-1.966,8.766.115-1.675-2.154a.913.913,0,0,1,0-1.121l1.675-2.154-8.766.115Z" transform="translate(-599.623 -2067.174)" fill="#062950"/>
      <g id="그룹_815" data-name="그룹 815" transform="translate(0 16.435)">
        <ellipse id="타원_352" data-name="타원 352" cx="2.967" cy="1.37" rx="2.967" ry="1.37" transform="translate(0.913 0.913)" fill="#062950"/>
        <path id="패스_2787" data-name="패스 2787" d="M599.88,2105.565c-2.248,0-3.88-.96-3.88-2.283s1.632-2.282,3.88-2.282,3.88.96,3.88,2.282S602.129,2105.565,599.88,2105.565Zm-1.966-2.283a4.462,4.462,0,1,0,1.966-.457A3.682,3.682,0,0,0,597.914,2103.282Zm4.043.1h0Z" transform="translate(-596 -2101)" fill="#062950"/>
      </g>
    </g>
    <g id="그룹_818" data-name="그룹 818" transform="translate(540 2052.282)">
      <path id="패스_2788" data-name="패스 2788" d="M546.913,2097.8a.913.913,0,0,1-.913-.913v-15.978a.913.913,0,1,1,1.826,0v15.978A.913.913,0,0,1,546.913,2097.8Z" transform="translate(-543.261 -2080)" fill="#062950"/>
      <path id="패스_2789" data-name="패스 2789" d="M559.145,2093.13h-.012l-11.565-.152a.913.913,0,0,1-.9-.913v-7a.913.913,0,0,1,.9-.913l11.565-.152a.944.944,0,0,1,.829.506.913.913,0,0,1-.1.967l-2.4,3.092,2.4,3.092a.913.913,0,0,1-.721,1.474Zm-10.652-1.966,8.766.115-1.675-2.154a.913.913,0,0,1,0-1.121l1.675-2.154-8.766.115Z" transform="translate(-543.623 -2082.174)" fill="#062950"/>
      <g id="그룹_817" data-name="그룹 817" transform="translate(0 16.435)">
        <ellipse id="타원_353" data-name="타원 353" cx="2.967" cy="1.37" rx="2.967" ry="1.37" transform="translate(0.913 0.913)" fill="#062950"/>
        <path id="패스_2790" data-name="패스 2790" d="M543.88,2120.565c-2.248,0-3.88-.96-3.88-2.283s1.632-2.282,3.88-2.282,3.88.96,3.88,2.282S546.129,2120.565,543.88,2120.565Zm-1.966-2.283a4.464,4.464,0,1,0,1.966-.456A3.683,3.683,0,0,0,541.914,2118.282Zm4.043.1h0Z" transform="translate(-540 -2116)" fill="#062950"/>
      </g>
    </g>
    <g id="그룹_819" data-name="그룹 819" transform="translate(543.195 2046.804)">
      <path id="패스_2791" data-name="패스 2791" d="M576.346,2071.6a.912.912,0,0,1-.712-.341l-1.432-1.777a.913.913,0,1,1,1.422-1.146l1.432,1.778a.913.913,0,0,1-.71,1.486Z" transform="translate(-561.674 -2068)" fill="#062950"/>
      <path id="패스_2792" data-name="패스 2792" d="M588.821,2087.091a.913.913,0,0,1-.712-.34l-2.075-2.576a.913.913,0,0,1,1.422-1.146l2.074,2.576a.913.913,0,0,1-.71,1.486Zm-4.15-5.152a.913.913,0,0,1-.712-.34l-2.075-2.576a.913.913,0,0,1,1.422-1.146l2.075,2.576a.913.913,0,0,1-.71,1.486Z" transform="translate(-565.849 -2073.183)" fill="#062950"/>
      <path id="패스_2793" data-name="패스 2793" d="M599.083,2104.3a.913.913,0,0,1-.236-1.8l.85-.228-.552-.686a.913.913,0,1,1,1.422-1.146l1.432,1.777a.914.914,0,0,1-.475,1.455l-2.205.591A.934.934,0,0,1,599.083,2104.3Z" transform="translate(-574.81 -2085.449)" fill="#062950"/>
      <path id="패스_2794" data-name="패스 2794" d="M562.01,2113a.913.913,0,0,1-.236-1.8l4.231-1.133a.913.913,0,1,1,.472,1.763l-4.231,1.133A.907.907,0,0,1,562.01,2113Zm8.462-2.267a.913.913,0,0,1-.236-1.8l4.231-1.133a.913.913,0,1,1,.472,1.763l-4.231,1.133A.9.9,0,0,1,570.472,2110.735Z" transform="translate(-554.661 -2089.617)" fill="#062950"/>
      <path id="패스_2795" data-name="패스 2795" d="M547.912,2120.122a.913.913,0,0,1-.236-1.8l2.205-.591a.913.913,0,0,1,.472,1.764l-2.2.591A.906.906,0,0,1,547.912,2120.122Z" transform="translate(-546.999 -2095.013)" fill="#062950"/>
    </g>
  </g>
</svg>
