<svg xmlns="http://www.w3.org/2000/svg" width="38.061" height="30.749" viewBox="0 0 38.061 30.749">
  <g id="그룹_488" data-name="그룹 488" transform="translate(0.75 0.75)">
    <path id="패스_2568" data-name="패스 2568" d="M661.28,362.968a5.484,5.484,0,1,0,5.484,5.484,5.484,5.484,0,0,0-5.484-5.484Zm14.624-5.484h-4.388a1.624,1.624,0,0,1-1.443-1.041l-1.135-3.4A1.626,1.626,0,0,0,667.5,352H655.064a1.623,1.623,0,0,0-1.442,1.041l-1.135,3.4a1.626,1.626,0,0,1-1.442,1.041h-4.388A3.668,3.668,0,0,0,643,361.14v16.453a3.668,3.668,0,0,0,3.656,3.656H675.9a3.668,3.668,0,0,0,3.656-3.656V361.14a3.668,3.668,0,0,0-3.656-3.656ZM661.28,377.593a9.14,9.14,0,1,1,9.14-9.14,9.139,9.139,0,0,1-9.14,9.14Zm13.344-13.9a1.279,1.279,0,1,1,1.28-1.28,1.281,1.281,0,0,1-1.28,1.28Zm0,0" transform="translate(-643 -352)" fill="none" stroke="#cad4dd" stroke-width="1.5"/>
  </g>
</svg>
