<svg xmlns="http://www.w3.org/2000/svg" xmlns:xlink="http://www.w3.org/1999/xlink" width="60.957" height="56" viewBox="0 0 60.957 56">
  <defs>
    <linearGradient id="linear-gradient" y1="0.5" x2="1" y2="0.5" gradientUnits="objectBoundingBox">
      <stop offset="0" stop-color="#e5dd4a"/>
      <stop offset="0.024" stop-color="#e4dc47"/>
      <stop offset="0.178" stop-color="#e4d83b"/>
      <stop offset="0.396" stop-color="#e4d534"/>
      <stop offset="1" stop-color="#e4d533"/>
    </linearGradient>
  </defs>
  <g id="그룹_762" data-name="그룹 762" transform="translate(-313.114 -2318.238)">
    <path id="패스_2651" data-name="패스 2651" d="M343.592,2318.238c-16.832,0-30.478,10.788-30.478,24.094,0,8.661,5.782,16.253,14.459,20.5-.638,2.38-2.308,8.622-2.642,9.957-.414,1.658.605,1.637,1.275,1.19.524-.349,8.35-5.671,11.728-7.969a38.611,38.611,0,0,0,5.657.416c16.832,0,30.478-10.787,30.478-24.094S360.424,2318.238,343.592,2318.238Z" fill="#381e1f"/>
    <g id="그룹_761" data-name="그룹 761" transform="translate(321.098 2337.084)">
      <g id="그룹_760" data-name="그룹 760" transform="translate(0 0)">
        <g id="그룹_755" data-name="그룹 755" transform="translate(0 0)">
          <path id="패스_2652" data-name="패스 2652" d="M337.268,2349.157c-2.224,0-9.661.013-9.661.013-1.863,0-1.858,3.121,0,3.121h3.176s.02,8.65,0,10.683c0,1.483,3.3,1.467,3.3-.017l.015-10.683s1.064,0,3.161,0A1.56,1.56,0,0,0,337.268,2349.157Z" transform="translate(-326.212 -2349.157)" fill="url(#linear-gradient)"/>
        </g>
        <g id="그룹_757" data-name="그룹 757" transform="translate(9.979)">
          <g id="그룹_756" data-name="그룹 756">
            <path id="패스_2653" data-name="패스 2653" d="M351.1,2350.111c-.476-1.017-3.192-1.5-3.876,0-.782,1.721-3.6,9.852-4.543,12.009-.677,1.558,2.246,2.829,2.923,1.271l.635-2.224h5.814s-.2.092.572,2.128c.625,1.649,3.643.505,3.018-1.143C354.752,2359.795,351.664,2351.313,351.1,2350.111Zm-3.812,8.133,1.917-5.539,1.768,5.539Z" transform="translate(-342.582 -2349.156)" fill="url(#linear-gradient)"/>
          </g>
        </g>
        <g id="그룹_758" data-name="그룹 758" transform="translate(24.153 0.004)">
          <path id="패스_2654" data-name="패스 2654" d="M373.484,2360.867c-1.493,0-4.218-.016-4.218-.016s.013-8.236.008-10.237c0-1.94-3.443-1.932-3.439.008.006,2.764.016,11.667.016,11.667s-.254,1.771,1.262,1.771,4.884-.016,6.378-.016S374.977,2360.867,373.484,2360.867Z" transform="translate(-365.836 -2349.163)" fill="url(#linear-gradient)"/>
        </g>
        <g id="그룹_759" data-name="그룹 759" transform="translate(33.662 0.011)">
          <path id="패스_2655" data-name="패스 2655" d="M392.507,2361.781l-4.447-5.855s3.019-3.266,4.209-4.448c.695-.69-1.455-2.854-2.15-2.164-.673.668-5.4,5.4-5.4,5.4s.043-2.972,0-4.616c-.035-1.29-3.277-1.2-3.242.087.032,1.212-.039,12.167-.038,12.98,0,1.28,3.262,1.278,3.261,0,0-1.487,0-4.31,0-4.31l.959-.768,4.188,5.713C390.69,2364.916,393.353,2362.9,392.507,2361.781Z" transform="translate(-381.436 -2349.174)" fill="url(#linear-gradient)"/>
        </g>
      </g>
    </g>
  </g>
</svg>
