<svg xmlns="http://www.w3.org/2000/svg" viewBox="0 0 190.1 200.5"><defs><style>.cls-1{fill:#ffa000;}.cls-2{fill:#fed800;}.cls-3{fill:#ffbf00;}.cls-4{fill:#fea300;}.cls-5{fill:#fff5a0;}.cls-6{fill:#fff;}</style></defs><title>Asset 3</title><g id="Layer_2" data-name="Layer 2"><g id="레이어_1" data-name="레이어 1"><circle class="cls-1" cx="95.05" cy="105.45" r="95.05"/><circle class="cls-2" cx="95.05" cy="95.05" r="95.05"/><circle class="cls-3" cx="95.05" cy="95.05" r="74.25"/><path class="cls-4" d="M95.05,27.74a74.24,74.24,0,0,1,74.17,70.78c.05-1.15.08-2.31.08-3.47a74.25,74.25,0,0,0-148.5,0c0,1.16,0,2.32.08,3.47A74.26,74.26,0,0,1,95.05,27.74Z"/><path class="cls-5" d="M174.83,48,161.16,60.19a73.91,73.91,0,0,1,5.66,13.53l14.43-12.86c-.12-.31-.24-.62-.37-.93A93.36,93.36,0,0,0,174.83,48Z"/><path class="cls-5" d="M53.24,156.37,39.58,168.55a92,92,0,0,0,11.15,7.38l.88.48L66,163.55A74.15,74.15,0,0,1,53.24,156.37Z"/><path class="cls-5" d="M29.42,128.87,15.67,141.12l.29.52a92.82,92.82,0,0,0,19.76,23.78l.29.25,13.54-12.06A74.76,74.76,0,0,1,29.42,128.87Z"/><path class="cls-5" d="M158.84,56.2l13.53-12.06-.21-.33A92.93,92.93,0,0,0,150.8,21.46l-.48-.34L136.57,33.36A74.65,74.65,0,0,1,158.84,56.2Z"/><path class="cls-4" d="M46.91,64H65.38l7.2,41.82c1.24,7.77,2.14,15.12,3.12,23h.6a209.84,209.84,0,0,1,4.16-23l7.41-33.9h15.46l7.33,33.9c1.68,7.77,3.45,15.12,4.49,23h.65c1.19-7.89,1.77-15.24,2.94-23l7-41.82h17.48l-14.73,80.36H105.59L98.83,112.3c-1.19-6.28-2.32-14.08-3.45-23.8h-.66c-1,8.46-2,15.9-3.32,23.8l-6.56,32.07H62.22Z"/><rect class="cls-4" x="38.05" y="87.04" width="114" height="9.08"/><rect class="cls-4" x="38.05" y="103.19" width="114" height="9.08"/><path class="cls-6" d="M49.45,62.13H66.94l6.83,39.62c1.16,7.35,2,14.32,3,21.79h.56a200.35,200.35,0,0,1,4-21.79l7-32.13H102.9l6.94,32.13c1.59,7.35,3.26,14.32,4.25,21.79h.62c1.13-7.47,1.67-14.44,2.79-21.79l6.6-39.62h16.56l-14,76.13H105l-6.4-30.39c-1.13-6-2.2-13.33-3.27-22.55h-.62c-.95,8-1.91,15.06-3.15,22.55l-6.21,30.39H63.94Z"/><rect class="cls-6" x="41.05" y="83.95" width="108" height="8.6"/><rect class="cls-6" x="41.05" y="99.24" width="108" height="8.6"/></g></g></svg>