<svg xmlns="http://www.w3.org/2000/svg" width="33" height="37.271" viewBox="0 0 33 37.271">
  <g id="그룹_821" data-name="그룹 821" transform="translate(-942.75 -1695)">
    <g id="그룹_822" data-name="그룹 822" transform="translate(942.75 1695)">
      <path id="패스_2796" data-name="패스 2796" d="M966.779,1715.553a1.552,1.552,0,0,0-1.553-1.553H952.8a1.553,1.553,0,1,0,0,3.106h12.423A1.553,1.553,0,0,0,966.779,1715.553Z" transform="translate(-944.65 -1699.247)" fill="#00244c"/>
      <path id="패스_2797" data-name="패스 2797" d="M957.988,1722h-5.435a1.553,1.553,0,0,0,0,3.106h5.435a1.553,1.553,0,0,0,0-3.106Z" transform="translate(-944.594 -1701.035)" fill="#00244c"/>
      <path id="패스_2798" data-name="패스 2798" d="M971.479,1716.344v-10.43a7.814,7.814,0,0,0-6.794-7.734v-1.627a1.553,1.553,0,0,0-3.106,0v1.553h-9.318v-1.553a1.553,1.553,0,0,0-3.106,0v1.686a7.816,7.816,0,0,0-6.406,7.675v13.115a7.817,7.817,0,0,0,7.807,7.807h8.7a8.536,8.536,0,1,0,12.219-10.492Zm-20.922,7.386a4.707,4.707,0,0,1-4.7-4.7v-12.381h22.518v8.63a8.479,8.479,0,0,0-9.706,8.452Zm16.651,5.435a5.43,5.43,0,1,1,5.435-5.435A5.429,5.429,0,0,1,967.209,1729.165Z" transform="translate(-942.75 -1695)" fill="#00244c"/>
      <path id="패스_2799" data-name="패스 2799" d="M977.015,1730.306a.978.978,0,0,0-.366-.074h-1.694v-2.471a.936.936,0,0,0-.043-.213.973.973,0,0,0-.945-.775.988.988,0,0,0-.988.988v3.459a.989.989,0,0,0,.988.989h2.683a.986.986,0,0,0,.366-1.9Z" transform="translate(-949.507 -1702.102)" fill="#00244c"/>
    </g>
  </g>
</svg>
