<svg xmlns="http://www.w3.org/2000/svg" width="88.5" height="60.096" viewBox="0 0 88.5 60.096">
  <g id="그룹_804" data-name="그룹 804" transform="translate(-328.072 -2120.52)">
    <path id="패스_2775" data-name="패스 2775" d="M393.947,2174.146c.026.479-7.025.889-7.025,1.373a2.185,2.185,0,0,1-2.184,2.184H363.177a1.875,1.875,0,0,0,.759.161h42.335a1.893,1.893,0,0,0,1.892-1.891A23.1,23.1,0,0,0,392.1,2154a12.112,12.112,0,1,0-17.809-15.339c0,.031,0,.061,0,.091a13.829,13.829,0,0,1-1.292,5.8,12.106,12.106,0,0,0,5.1,9.448c-.5.159,1.491.344,1.007.537a26.691,26.691,0,0,1,3.167,2.9c1.687-.483.987-.746,2.826-.746" transform="translate(8.41 2.75)" fill="#cecece" opacity="0.4"/>
    <path id="패스_2776" data-name="패스 2776" d="M351.132,2156.7c2.019,0,1.483-.914,3.313-.334a26.705,26.705,0,0,1,3.1-2.895c-.619-.26-1.247-.5-1.892-.706,3.094-2.2,7.6-4.564,7.6-8.639a12.363,12.363,0,0,0-.092-1.428,13.773,13.773,0,0,1-.487-2.261A12.119,12.119,0,1,0,344.132,2154a23.1,23.1,0,0,0-16.06,21.97,1.893,1.893,0,0,0,1.893,1.891H372.3a1.872,1.872,0,0,0,.759-.161H352.132a2.185,2.185,0,0,1-2.184-2.184c0-.485-4.637-.895-4.611-1.373" transform="translate(0 2.75)" fill="#cecece" opacity="0.4"/>
    <path id="패스_2777" data-name="패스 2777" d="M373.024,2144.858a30.176,30.176,0,0,1,9.36,4.972c.55-.219,1.1-.427,1.672-.608a13.745,13.745,0,0,1-5.785-10.725A15.99,15.99,0,0,1,373.024,2144.858Z" transform="translate(10.769 4.307)" fill="none"/>
    <path id="패스_2778" data-name="패스 2778" d="M354.455,2136.794a13.607,13.607,0,0,1-5.711,12.836c.731.233,1.445.505,2.148.8a30.172,30.172,0,0,1,9.605-5.163A15.947,15.947,0,0,1,354.455,2136.794Z" transform="translate(4.952 3.899)" fill="none"/>
    <path id="패스_2779" data-name="패스 2779" d="M352.906,2134.723a15.7,15.7,0,0,0,.552,2.567A13.689,13.689,0,0,0,352.906,2134.723Z" transform="translate(5.949 3.403)" fill="#cecece"/>
    <path id="패스_2780" data-name="패스 2780" d="M399.757,2176.5a30.061,30.061,0,0,0-8.02-18.884,30.582,30.582,0,0,0-12.956-8.269c5.988-5.922,6.714-10.776,6.714-13.128,0-.035,0-.068-.006-.1l-.009.021a15.878,15.878,0,1,0-31.636,2.17,13.645,13.645,0,0,1,.552,2.567,15.955,15.955,0,0,0,6.043,8.473,30.322,30.322,0,0,0-20.976,27.153c-.029.543-.067,1.083-.067,1.634a2.48,2.48,0,0,0,2.479,2.479h55.471a2.479,2.479,0,0,0,2.479-2.479C399.824,2177.585,399.787,2177.045,399.757,2176.5Zm-41.073-40.1a10.926,10.926,0,1,1,10.926,10.926A10.938,10.938,0,0,1,358.684,2136.4Zm17.423,39.253H344.474a25.227,25.227,0,0,1,38.775-18.754,25.481,25.481,0,0,1,3.6,2.811,25.2,25.2,0,0,1,7.895,15.944Z" transform="translate(2.713)" fill="#cecece"/>
  </g>
</svg>
