<svg xmlns="http://www.w3.org/2000/svg" width="36.418" height="38.41" viewBox="0 0 36.418 38.41">
  <g id="그룹_698" data-name="그룹 698" transform="translate(-411.972 -812)">
    <circle id="타원_89" data-name="타원 89" cx="18.209" cy="18.209" r="18.209" transform="translate(411.972 813.992)" fill="#ffa000"/>
    <circle id="타원_90" data-name="타원 90" cx="18.209" cy="18.209" r="18.209" transform="translate(411.972 812)" fill="#fed800"/>
    <circle id="타원_91" data-name="타원 91" cx="14.224" cy="14.224" r="14.224" transform="translate(415.957 815.985)" fill="#ffbf00"/>
    <path id="패스_2634" data-name="패스 2634" d="M462.2,849.328a14.224,14.224,0,0,1,14.208,13.56c.01-.22.016-.441.016-.664a14.224,14.224,0,0,0-28.448,0c0,.223.006.444.016.664A14.224,14.224,0,0,1,462.2,849.328Z" transform="translate(-32.015 -32.015)" fill="#fea300"/>
    <path id="패스_2635" data-name="패스 2635" d="M526.11,894.88a7.893,7.893,0,0,0-3.718-2.373q-.97-.31-1.7-.62a5.478,5.478,0,0,1-1.467-.954,1.66,1.66,0,0,1-.684-1.359q.1-1.574,1.964-1.5a8.947,8.947,0,0,1,4.6,1.908l1.915-3.267a11.067,11.067,0,0,0-5.249-2.31v-1.528h-3.1V884.4a5.888,5.888,0,0,0-2.941,1.225,5.068,5.068,0,0,0-1.741,4.185,4.725,4.725,0,0,0,1.156,3.291,8.741,8.741,0,0,0,3.245,2.051q1.765.644,2.362.882a4.149,4.149,0,0,1,1.678,1.1,1.718,1.718,0,0,1,.46,1.5,2.065,2.065,0,0,1-.945,1.526,3.564,3.564,0,0,1-2.089.31,8.335,8.335,0,0,1-4.5-2.432l-2.138,3.339a9.773,9.773,0,0,0,2.909,1.848,13.474,13.474,0,0,0,2.543.819v1.867h3.1v-1.724a6.558,6.558,0,0,0,2.937-1.01,5.64,5.64,0,0,0,2.462-4.28A5.006,5.006,0,0,0,526.11,894.88Z" transform="translate(-90.038 -63.03)" fill="#fea300"/>
    <path id="패스_2636" data-name="패스 2636" d="M526.11,888.88a7.893,7.893,0,0,0-3.718-2.373q-.97-.31-1.7-.62a5.479,5.479,0,0,1-1.467-.954,1.66,1.66,0,0,1-.684-1.359q.1-1.574,1.964-1.5a8.948,8.948,0,0,1,4.6,1.908l1.915-3.267a11.066,11.066,0,0,0-5.249-2.31v-1.528h-3.1V878.4a5.888,5.888,0,0,0-2.941,1.225,5.068,5.068,0,0,0-1.741,4.185,4.725,4.725,0,0,0,1.156,3.291,8.741,8.741,0,0,0,3.245,2.051q1.765.644,2.362.882a4.149,4.149,0,0,1,1.678,1.1,1.718,1.718,0,0,1,.46,1.5,2.065,2.065,0,0,1-.945,1.526,3.565,3.565,0,0,1-2.089.31,8.335,8.335,0,0,1-4.5-2.432l-2.138,3.339a9.773,9.773,0,0,0,2.909,1.848,13.471,13.471,0,0,0,2.543.819v1.867h3.1v-1.724a6.558,6.558,0,0,0,2.937-1.01,5.64,5.64,0,0,0,2.462-4.28A5.006,5.006,0,0,0,526.11,888.88Z" transform="translate(-90.038 -57.694)" fill="#fff"/>
    <g id="그룹_697" data-name="그룹 697" transform="translate(414.974 816.045)">
      <path id="패스_2637" data-name="패스 2637" d="M693.5,895.078l-2.618,2.334A14.183,14.183,0,0,1,691.963,900l2.764-2.463c-.024-.059-.047-.119-.072-.178A17.643,17.643,0,0,0,693.5,895.078Z" transform="translate(-663.007 -889.927)" fill="#fff5a0"/>
      <path id="패스_2638" data-name="패스 2638" d="M483.081,1082.619l-2.618,2.334a17.63,17.63,0,0,0,2.136,1.414c.056.031.113.061.169.092l2.764-2.464A14.179,14.179,0,0,1,483.081,1082.619Z" transform="translate(-475.883 -1056.708)" fill="#fff5a0"/>
      <path id="패스_2639" data-name="패스 2639" d="M441.725,1035.025l-2.634,2.348c.019.033.037.067.056.1a17.755,17.755,0,0,0,3.784,4.555l.057.048,2.593-2.311A14.3,14.3,0,0,1,441.725,1035.025Z" transform="translate(-439.091 -1014.383)" fill="#fff5a0"/>
      <path id="패스_2640" data-name="패스 2640" d="M652.6,855.263l2.592-2.31-.041-.062a17.755,17.755,0,0,0-4.091-4.281l-.093-.067-2.633,2.346A14.3,14.3,0,0,1,652.6,855.263Z" transform="translate(-625.171 -848.543)" fill="#fff5a0"/>
    </g>
  </g>
</svg>
