<svg xmlns="http://www.w3.org/2000/svg" width="38.16" height="29.063" viewBox="0 0 38.16 29.063">
  <g id="레이어_1" data-name="레이어 1" transform="translate(1 1)">
    <path id="패스_2547" data-name="패스 2547" d="M9.678,23.028,3.5,16.847a8.584,8.584,0,0,1,0-12.1h0a8.584,8.584,0,0,1,12.1,0L18.356,7.5" transform="translate(-1 -1.357)" fill="none" stroke="#00dbd8" stroke-linecap="round" stroke-linejoin="round" stroke-width="2"/>
    <path id="패스_2548" data-name="패스 2548" d="M18.5,12.574,27.578,3.5a8.584,8.584,0,0,1,12.1,0h0a8.584,8.584,0,0,1,0,12.1L30.6,24.678" transform="translate(-6.019 -1)" fill="none" stroke="#00dbd8" stroke-linecap="round" stroke-linejoin="round" stroke-width="2"/>
    <path id="패스_2549" data-name="패스 2549" d="M37.016,21.356l-8.069,8.069a6.438,6.438,0,0,1-9.078,0h0a6.438,6.438,0,0,1,0-9.078l8.069-8.069" transform="translate(-5.874 -4.234)" fill="none" stroke="#00dbd8" stroke-linecap="round" stroke-linejoin="round" stroke-width="2"/>
    <path id="패스_2550" data-name="패스 2550" d="M24.511,16.283l7.565-7.565a3.21,3.21,0,0,1,4.539,0h0a3.21,3.21,0,0,1,0,4.539l-8.826,8.826" transform="translate(-7.742 -2.944)" fill="none" stroke="#00dbd8" stroke-linecap="round" stroke-linejoin="round" stroke-width="2"/>
  </g>
</svg>
