<svg xmlns="http://www.w3.org/2000/svg" width="60" height="67.766" viewBox="0 0 60 67.766">
  <g id="그룹_787" data-name="그룹 787" transform="translate(-260.75 -1731)">
    <path id="패스_2736" data-name="패스 2736" d="M297.485,1752.823a2.823,2.823,0,0,0-2.824-2.823H272.073a2.824,2.824,0,0,0,0,5.647h22.588A2.824,2.824,0,0,0,297.485,1752.823Z" transform="translate(3.5 7.824)" fill="#cecece"/>
    <path id="패스_2737" data-name="패스 2737" d="M281.706,1758h-9.882a2.824,2.824,0,0,0,0,5.647h9.882a2.824,2.824,0,0,0,0-5.647Z" transform="translate(3.397 11.118)" fill="#cecece"/>
    <path id="패스_2738" data-name="패스 2738" d="M312.985,1769.806v-18.964a14.207,14.207,0,0,0-12.353-14.061v-2.958a2.824,2.824,0,0,0-5.647,0v2.823H278.044v-2.823a2.824,2.824,0,0,0-5.647,0v3.065a14.211,14.211,0,0,0-11.647,13.954v23.844a14.212,14.212,0,0,0,14.2,14.2H290.77a15.519,15.519,0,1,0,22.216-19.076Zm-38.04,13.429a8.557,8.557,0,0,1-8.548-8.548v-22.51h40.941v15.692a15.413,15.413,0,0,0-17.647,15.367Zm30.275,9.882a9.874,9.874,0,1,1,9.882-9.882A9.871,9.871,0,0,1,305.221,1793.117Z" fill="#cecece"/>
    <path id="패스_2739" data-name="패스 2739" d="M298.318,1769.2a1.783,1.783,0,0,0-.666-.135h-3.08v-4.492a1.7,1.7,0,0,0-.079-.387,1.768,1.768,0,0,0-1.718-1.409,1.8,1.8,0,0,0-1.8,1.8v6.289a1.8,1.8,0,0,0,1.8,1.8h4.878a1.793,1.793,0,0,0,.666-3.459Z" transform="translate(12.446 13.083)" fill="#cecece"/>
  </g>
</svg>
