<svg xmlns="http://www.w3.org/2000/svg" width="64" height="77.861" viewBox="0 0 64 77.861">
  <g id="그룹_801" data-name="그룹 801" transform="translate(-271.42 -2085)">
    <g id="그룹_800" data-name="그룹 800" transform="translate(271.42 2091.598)">
      <path id="패스_2757" data-name="패스 2757" d="M309.031,2107.331v-6.815A10.529,10.529,0,0,0,298.514,2090h-5.36a10.529,10.529,0,0,0-10.516,10.517v6.815a13.277,13.277,0,0,0-11.217,13.094v22.289a13.277,13.277,0,0,0,11.234,13.1c0,.058-.017.114-.017.173v2.639a2.639,2.639,0,1,0,5.279,0v-2.639h15.836v2.639a2.639,2.639,0,1,0,5.279,0v-2.639c0-.059-.013-.115-.017-.173a13.277,13.277,0,0,0,11.234-13.1v-22.289A13.277,13.277,0,0,0,309.031,2107.331Zm-15.877-12.052h5.36a5.243,5.243,0,0,1,5.238,5.238v6.639H287.916v-6.639A5.243,5.243,0,0,1,293.154,2095.279Zm21.815,47.435a8,8,0,0,1-7.991,7.99H284.689a8,8,0,0,1-7.991-7.99v-22.289a8,8,0,0,1,7.991-7.99h22.289a8,8,0,0,1,7.991,7.99Z" transform="translate(-271.42 -2090)" fill="#00dbd8"/>
      <path id="패스_2758" data-name="패스 2758" d="M303.674,2115H282.559a2.639,2.639,0,0,0,0,5.279h21.115a2.639,2.639,0,0,0,0-5.279Z" transform="translate(-268.703 -2082.008)" fill="#00dbd8"/>
      <path id="패스_2759" data-name="패스 2759" d="M300.4,2124H284.559a2.639,2.639,0,0,0,0,5.279H300.4a2.639,2.639,0,0,0,0-5.279Z" transform="translate(-268.063 -2079.131)" fill="#00dbd8"/>
    </g>
    <path id="패스_2760" data-name="패스 2760" d="M320.95,2085H308.678a3.761,3.761,0,0,0-3.761,3.762v12.27a3.761,3.761,0,0,0,3.761,3.762h1.82a7.484,7.484,0,0,1-.925,4.095.493.493,0,0,0,.633.686,9.45,9.45,0,0,0,4.822-4.781h5.921a3.762,3.762,0,0,0,3.762-3.762v-12.27A3.762,3.762,0,0,0,320.95,2085Zm-9.1,5.2a1.32,1.32,0,1,1-1.32,1.32A1.319,1.319,0,0,1,311.845,2090.2Zm5.938,8.578a1.32,1.32,0,1,1,1.32-1.32A1.319,1.319,0,0,1,317.784,2098.775Zm1.23-6.39-6.3,6.3a1.484,1.484,0,1,1-2.1-2.1l6.3-6.3a1.485,1.485,0,0,1,2.1,2.1Z" transform="translate(10.708)" fill="#00dbd8"/>
  </g>
</svg>
