<svg xmlns="http://www.w3.org/2000/svg" width="56" height="56" viewBox="0 0 56 56">
  <g id="그룹_871" data-name="그룹 871" transform="translate(-406 -335)">
    <circle id="타원_348" data-name="타원 348" cx="25.5" cy="25.5" r="25.5" transform="translate(408.5 337.5)" fill="#00dbd8" stroke="#fff" stroke-width="5"/>
    <g id="그룹_488" data-name="그룹 488" transform="translate(421 352)">
      <path id="패스_2568" data-name="패스 2568" d="M656.28,359.968a3.984,3.984,0,1,0,3.984,3.984,3.984,3.984,0,0,0-3.984-3.984Zm10.624-3.984h-3.188a1.18,1.18,0,0,1-1.048-.756l-.824-2.472A1.181,1.181,0,0,0,660.8,352h-9.031a1.179,1.179,0,0,0-1.048.756l-.825,2.472a1.181,1.181,0,0,1-1.048.756h-3.188A2.665,2.665,0,0,0,643,358.64v11.952a2.665,2.665,0,0,0,2.656,2.656H666.9a2.665,2.665,0,0,0,2.656-2.656V358.64a2.665,2.665,0,0,0-2.656-2.656ZM656.28,370.592a6.64,6.64,0,1,1,6.64-6.64,6.639,6.639,0,0,1-6.64,6.64Zm9.694-10.095a.929.929,0,1,1,.93-.93.931.931,0,0,1-.93.93Zm0,0" transform="translate(-643 -352)" fill="#fff"/>
    </g>
  </g>
</svg>
