<svg xmlns="http://www.w3.org/2000/svg" width="38.416" height="23.729" viewBox="0 0 38.416 23.729">
  <g id="그룹_733" data-name="그룹 733" transform="translate(0 -0.001)">
    <g id="그룹_714" data-name="그룹 714" transform="translate(0 9.227)">
      <path id="패스_2644" data-name="패스 2644" d="M-228.4,120.79l1.393,2.823a1.09,1.09,0,0,0,.82.6l3.116.453a1.089,1.089,0,0,1,.6,1.857l-2.255,2.2a1.088,1.088,0,0,0-.313.964l.532,3.1a1.089,1.089,0,0,1-1.58,1.148l-2.787-1.465a1.089,1.089,0,0,0-1.013,0l-2.787,1.465a1.089,1.089,0,0,1-1.58-1.148l.532-3.1a1.089,1.089,0,0,0-.313-.964l-2.255-2.2a1.089,1.089,0,0,1,.6-1.857l3.116-.453a1.09,1.09,0,0,0,.82-.6l1.393-2.823A1.089,1.089,0,0,1-228.4,120.79Z" transform="translate(260.554 -120.183)" fill="#fff" opacity="0.467"/>
      <path id="패스_2645" data-name="패스 2645" d="M-228.4,120.79l1.393,2.823a1.09,1.09,0,0,0,.82.6l3.116.453a1.089,1.089,0,0,1,.6,1.857l-2.255,2.2a1.088,1.088,0,0,0-.313.964l.532,3.1a1.089,1.089,0,0,1-1.58,1.148l-2.787-1.465a1.089,1.089,0,0,0-1.013,0l-2.787,1.465a1.089,1.089,0,0,1-1.58-1.148l.532-3.1a1.089,1.089,0,0,0-.313-.964l-2.255-2.2a1.089,1.089,0,0,1,.6-1.857l3.116-.453a1.09,1.09,0,0,0,.82-.6l1.393-2.823A1.089,1.089,0,0,1-228.4,120.79Z" transform="translate(236.615 -120.183)" fill="#fff" opacity="0.467"/>
    </g>
    <path id="패스_2641" data-name="패스 2641" d="M-220.536,121.221l2.727,4.828a2.135,2.135,0,0,0,1.6,1.019l6.1.774c1.748.222,2.446,2.1,1.181,3.176l-4.413,3.759a1.721,1.721,0,0,0-.613,1.648l1.041,5.307c.3,1.521-1.529,2.681-3.092,1.963l-5.454-2.506a2.407,2.407,0,0,0-1.983,0l-5.454,2.506c-1.563.718-3.391-.442-3.092-1.963l1.041-5.307a1.721,1.721,0,0,0-.613-1.648l-4.413-3.759c-1.265-1.077-.567-2.954,1.181-3.176l6.1-.774a2.135,2.135,0,0,0,1.6-1.019l2.727-4.828A2.278,2.278,0,0,1-220.536,121.221Z" transform="translate(241.655 -120.183)" fill="#fff"/>
  </g>
</svg>
