<svg id="btn_message_wh" xmlns="http://www.w3.org/2000/svg" width="30.012" height="21.827" viewBox="0 0 30.012 21.827">
  <g id="레이어_1" data-name="레이어 1">
    <path id="패스_2541" data-name="패스 2541" d="M15.006,20.13a4.87,4.87,0,0,1-2.357-.611L0,12.54V24.8a2.728,2.728,0,0,0,2.728,2.728H27.284A2.728,2.728,0,0,0,30.012,24.8V12.54L17.363,19.519a4.87,4.87,0,0,1-2.357.611Z" transform="translate(0 -5.697)" fill="#fff"/>
    <path id="패스_2542" data-name="패스 2542" d="M16.573,12.389l13.44-7.415V2.728A2.728,2.728,0,0,0,27.284,0H2.728A2.728,2.728,0,0,0,0,2.728V4.973l13.44,7.415a3.226,3.226,0,0,0,3.133,0Z" fill="#fff"/>
  </g>
</svg>
