<svg xmlns="http://www.w3.org/2000/svg" width="29.703" height="29.703" viewBox="0 0 29.703 29.703">
  <g id="그룹_824" data-name="그룹 824" transform="translate(1066.728 1726.203) rotate(180)">
    <path id="패스_2800" data-name="패스 2800" d="M1051.877,1726.2a14.852,14.852,0,1,1,14.852-14.852A14.868,14.868,0,0,1,1051.877,1726.2Zm0-26.94a12.089,12.089,0,1,0,12.089,12.088A12.1,12.1,0,0,0,1051.877,1699.263Z" transform="translate(0 0)" fill="#00244c"/>
    <g id="그룹_823" data-name="그룹 823" transform="translate(1050.15 1702.717)">
      <path id="패스_2801" data-name="패스 2801" d="M1057.783,1705.5a1.658,1.658,0,0,0-1.658,1.658v9.118a1.658,1.658,0,0,0,3.316,0v-9.118A1.658,1.658,0,0,0,1057.783,1705.5Z" transform="translate(-1056.056 -1705.5)" fill="#00244c"/>
      <circle id="타원_354" data-name="타원 354" cx="1.727" cy="1.727" r="1.727" transform="translate(0 13.815)" fill="#00244c"/>
    </g>
  </g>
</svg>
