<svg xmlns="http://www.w3.org/2000/svg" width="25.766" height="24.712" viewBox="0 0 25.766 24.712">
  <g id="icon_star" transform="translate(-0.005 0)">
    <g id="레이어_1" data-name="레이어 1" transform="translate(0.005 0)">
      <path id="패스_2562" data-name="패스 2562" d="M14.789,1.181l2.34,4.741a2.119,2.119,0,0,0,1.6,1.159l5.232.76a2.119,2.119,0,0,1,1.175,3.615l-3.786,3.69a2.119,2.119,0,0,0-.61,1.876l.894,5.211a2.119,2.119,0,0,1-3.075,2.234l-4.68-2.46a2.119,2.119,0,0,0-1.972,0l-4.68,2.46a2.119,2.119,0,0,1-3.075-2.234l.894-5.211a2.119,2.119,0,0,0-.61-1.876L.646,11.457A2.119,2.119,0,0,1,1.82,7.842l5.232-.76a2.119,2.119,0,0,0,1.6-1.159l2.34-4.741a2.119,2.119,0,0,1,3.8,0Z" transform="translate(-0.005 0)" fill="#00dbd8"/>
    </g>
  </g>
</svg>
