<svg xmlns="http://www.w3.org/2000/svg" width="14.941" height="21.345" viewBox="0 0 14.941 21.345">
  <path id="패스_2781" data-name="패스 2781" d="M-450.246,1071.188a7.428,7.428,0,0,0-5.283-2.187,7.465,7.465,0,0,0-7.471,7.471v.235a7.474,7.474,0,0,0,.907,3.575l4.333,7.93.651,1.2a1.806,1.806,0,0,0,1.58.939,1.806,1.806,0,0,0,1.579-.939l.651-1.2,4.333-7.93a7.474,7.474,0,0,0,.907-3.575v-.235A7.427,7.427,0,0,0-450.246,1071.188Zm-5.283,8.618a3.338,3.338,0,0,1-3.335-3.335,3.338,3.338,0,0,1,3.335-3.335,3.338,3.338,0,0,1,3.335,3.335A3.338,3.338,0,0,1-455.529,1079.806Z" transform="translate(463 -1069)" fill="#6d7986"/>
</svg>
