<svg xmlns="http://www.w3.org/2000/svg" width="56" height="88.137" viewBox="0 0 56 88.137">
  <path id="패스_2756" data-name="패스 2756" d="M968.6,1396.75a27.984,27.984,0,0,0-17.188,50.079l6.945,18.966h-4.394a2.545,2.545,0,0,0-2.5,3l2.546,14a2.545,2.545,0,0,0,2.5,2.091h24.182a2.544,2.544,0,0,0,2.5-2.091l2.546-14a2.545,2.545,0,0,0-2.5-3h-4.395l6.945-18.966A27.983,27.983,0,0,0,968.6,1396.75Zm3.361,69.045h-5.442c-.589-4.4-1.284-9.69-1.737-13.313a27.543,27.543,0,0,0,8.676-.163l-1.509,13.333A1.276,1.276,0,0,0,971.961,1465.8Zm-3.365-19.427c-3.05-3.705-8.905-12.065-8.905-21.619,0-9.519,5.865-17.9,8.913-21.618,3.048,3.7,8.905,12.065,8.905,21.618C977.509,1434.269,971.643,1442.653,968.6,1446.369Zm-22.905-21.619a22.93,22.93,0,0,1,16.829-22.064c-3.52,4.923-7.92,12.9-7.92,22.064s4.4,17.141,7.92,22.064A22.93,22.93,0,0,1,945.691,1424.75Zm9.3,24.46a27.833,27.833,0,0,0,7.16,2.784c.484,3.942,1.294,10.06,1.795,13.8h-2.882Zm25.19,21.676-1.619,8.909H958.633l-1.62-8.909Zm-4.055-5.091h-1.638l1.593-14.07a27.749,27.749,0,0,0,6.117-2.515Zm-1.452-18.981c3.522-4.923,7.921-12.9,7.921-22.064s-4.4-17.141-7.921-22.064a22.878,22.878,0,0,1,0,44.128Z" transform="translate(-940.6 -1396.75)" fill="#00dbd8"/>
</svg>
