<svg xmlns="http://www.w3.org/2000/svg" width="45.496" height="40.036" viewBox="0 0 45.496 40.036">
  <g id="그룹_677" data-name="그룹 677" transform="translate(-86.5 -205.5)">
    <path id="패스_2560" data-name="패스 2560" d="M21.748,1C10.289,1,1,8.431,1,17.6c0,4.91,2.68,9.308,6.916,12.347v4.977a2.075,2.075,0,0,0,3.035,1.839L16.807,33.7a25.661,25.661,0,0,0,4.941.493C33.207,34.2,42.5,26.765,42.5,17.6S33.207,1,21.748,1Z" transform="translate(87.5 206.5)" fill="none" stroke="#00dbd8" stroke-linecap="round" stroke-linejoin="round" stroke-width="4"/>
    <g id="그룹_676" data-name="그룹 676" transform="translate(2 0.844)">
      <circle id="타원_79" data-name="타원 79" cx="2.578" cy="2.578" r="2.578" transform="translate(95 221)" fill="#00dbd8"/>
      <circle id="타원_80" data-name="타원 80" cx="2.578" cy="2.578" r="2.578" transform="translate(104.452 221)" fill="#00dbd8"/>
      <circle id="타원_81" data-name="타원 81" cx="2.578" cy="2.578" r="2.578" transform="translate(113.905 221)" fill="#00dbd8"/>
    </g>
  </g>
</svg>
