<svg xmlns="http://www.w3.org/2000/svg" width="33" height="32.829" viewBox="0 0 33 32.829">
  <g id="그룹_882" data-name="그룹 882" transform="translate(-199.961 -58.537)">
    <path id="패스_2566" data-name="패스 2566" d="M219.722,172.106l-17.934,17.938h0a.82.82,0,0,0-.223.415l-1.584,7.705a.814.814,0,0,0,.985.969l7.568-1.707a.82.82,0,0,0,.4-.22l17.944-17.944Z" transform="translate(0 -107.79)" fill="#fff"/>
    <path id="패스_2567" data-name="패스 2567" d="M634.483,62.653l-3.191-3.191a3.167,3.167,0,0,0-4.473,0l-3.057,3.057,7.155,7.155,3.566-3.565A2.44,2.44,0,0,0,634.483,62.653Z" transform="translate(-402.239 0)" fill="#fff"/>
  </g>
</svg>
