<svg xmlns="http://www.w3.org/2000/svg" width="87.661" height="83.279" viewBox="0 0 87.661 83.279">
  <g id="그룹_1040" data-name="그룹 1040" transform="translate(-44.485 -45.32)">
    <g id="그룹_549" data-name="그룹 549" transform="translate(70.617 45.32)">
      <path id="패스_2576" data-name="패스 2576" d="M95.621,88.64A20.78,20.78,0,1,0,73.963,57.288L95.651,88.7Zm-4.912-7.1-5.278-7.673q-.051-.072-.1-.146l-.007-.01h0a7.559,7.559,0,1,1,12.579,0h0l0,0c-.041.061-.082.121-.124.18l-5.259,7.646a1.1,1.1,0,0,1-1.808,0Z" transform="translate(-73.963 -47.468)" fill="#fff"/>
    </g>
    <path id="패스_2578" data-name="패스 2578" d="M96.458,90.653,95.6,89,79.909,66.272l-3.492-5.057-2.5-3.626A20.906,20.906,0,0,0,71.124,72.3l0,.051a20.618,20.618,0,0,0,1.727,5.25,3.049,3.049,0,0,1,.587,1.119,20.875,20.875,0,0,0,1.615,2.445c.047.061.1.119.145.18l0,0L76,82.51l-.011.008,15.589,22.539s3.463-2.951,3.862-3.436A9.474,9.474,0,0,0,96.458,90.653Z" transform="translate(-3.202 -2.605)" fill="#fff"/>
    <circle id="타원_57" data-name="타원 57" cx="3.194" cy="3.194" r="3.194" transform="translate(84.919 63.735)" fill="#fff"/>
    <path id="패스_2608" data-name="패스 2608" d="M51.984,117.436H46.592v-3.214H61.263v3.214H55.82V133.4H51.984Z" transform="translate(-2.108 -5.167)" fill="#fff"/>
    <path id="패스_2609" data-name="패스 2609" d="M63.56,119.092h3.11l.259,2.566h.1a6.4,6.4,0,0,1,1.892-2.177,3.882,3.882,0,0,1,2.229-.752,4.452,4.452,0,0,1,.985.091,5.584,5.584,0,0,1,.726.22l-.674,3.292a3.79,3.79,0,0,0-.713-.181,5.453,5.453,0,0,0-.791-.052,3.2,3.2,0,0,0-1.789.635,4.642,4.642,0,0,0-1.555,2.216v8.657H63.56Z" transform="translate(-2.875 -5.371)" fill="#fff"/>
    <path id="패스_2610" data-name="패스 2610" d="M77.3,116.469a2.348,2.348,0,0,1-1.633-.583,2.053,2.053,0,0,1,0-2.994,2.382,2.382,0,0,1,1.633-.57,2.335,2.335,0,0,1,1.62.57,2.082,2.082,0,0,1,0,2.994A2.3,2.3,0,0,1,77.3,116.469ZM75.38,118.8h3.784v14.515H75.38Z" transform="translate(-3.394 -5.081)" fill="#fff"/>
    <path id="패스_2611" data-name="패스 2611" d="M83.975,114.221h6.3a13.941,13.941,0,0,1,2.955.3,6.6,6.6,0,0,1,2.385,1,4.9,4.9,0,0,1,1.594,1.853,6.311,6.311,0,0,1,.583,2.864,6.452,6.452,0,0,1-.583,2.838,5.519,5.519,0,0,1-1.581,1.983,6.694,6.694,0,0,1-2.346,1.153,10.766,10.766,0,0,1-2.9.376H87.812V133.4H83.975Zm6.143,9.332q3.914,0,3.914-3.318a2.543,2.543,0,0,0-1.024-2.333,5.707,5.707,0,0,0-3.02-.648H87.812v6.3Z" transform="translate(-3.799 -5.167)" fill="#fff"/>
    <path id="패스_2612" data-name="패스 2612" d="M103.659,116.469a2.348,2.348,0,0,1-1.633-.583,2.053,2.053,0,0,1,0-2.994,2.382,2.382,0,0,1,1.633-.57,2.335,2.335,0,0,1,1.62.57,2.082,2.082,0,0,1,0,2.994,2.3,2.3,0,0,1-1.62.583Zm-1.918,2.333h3.784v14.515H101.74Z" transform="translate(-4.586 -5.081)" fill="#fff"/>
    <path id="패스_2613" data-name="패스 2613" d="M116.136,133.97a7.469,7.469,0,0,1-2.8-.518,6.407,6.407,0,0,1-2.242-1.49,6.945,6.945,0,0,1-1.49-2.385,8.851,8.851,0,0,1-.544-3.2,8.175,8.175,0,0,1,.609-3.24,7.2,7.2,0,0,1,1.62-2.4,6.982,6.982,0,0,1,2.359-1.49,7.8,7.8,0,0,1,2.825-.518,5.758,5.758,0,0,1,2.385.467,7.881,7.881,0,0,1,1.84,1.14l-1.814,2.462a4.743,4.743,0,0,0-1.076-.713,2.712,2.712,0,0,0-1.154-.246,3.321,3.321,0,0,0-2.683,1.231,5.005,5.005,0,0,0-1.024,3.3,4.954,4.954,0,0,0,1.011,3.266,3.216,3.216,0,0,0,2.592,1.218,3.647,3.647,0,0,0,1.5-.324,5.287,5.287,0,0,0,1.321-.842l1.5,2.514a6.8,6.8,0,0,1-2.281,1.335A7.54,7.54,0,0,1,116.136,133.97Z" transform="translate(-4.934 -5.371)" fill="#fff"/>
    <path id="패스_2614" data-name="패스 2614" d="M124.317,112.647h3.707v12.442h.1l5.029-6.273H137.3l-5.029,5.936,5.5,8.58h-4.121l-3.525-6.014-2.1,2.385v3.629h-3.707Z" transform="translate(-5.624 -5.096)" fill="#fff"/>
  </g>
</svg>
