<svg xmlns="http://www.w3.org/2000/svg" width="235.244" height="28.239" viewBox="0 0 235.244 28.239">
  <g id="logo_header_wh" transform="translate(-50 -23)">
    <g id="그룹_16" data-name="그룹 16" transform="translate(90.963 29.619)">
      <path id="패스_50" data-name="패스 50" d="M-1035.014,496.356l6.952,0a7.736,7.736,0,0,1,2.02.258,4.714,4.714,0,0,1,1.681.82,4,4,0,0,1,1.158,1.478,5.043,5.043,0,0,1,.429,2.164,4.843,4.843,0,0,1-1.387,3.835,5.748,5.748,0,0,1-3.907,1.207l-3.138,0,0,4.882-3.815,0Zm3.81,6.81,2.563,0a2.377,2.377,0,0,0,1.5-.43,1.654,1.654,0,0,0,.555-1.394,1.793,1.793,0,0,0-.563-1.457,2.243,2.243,0,0,0-1.486-.472l-2.564,0Z" transform="translate(1035.024 -496.061)" fill="#fff"/>
      <path id="패스_51" data-name="패스 51" d="M-1011.818,500.5a7.128,7.128,0,0,1,1.416-2.429,6.446,6.446,0,0,1,2.288-1.629,7.569,7.569,0,0,1,3.035-.582,7.577,7.577,0,0,1,3.035.586,6.445,6.445,0,0,1,2.286,1.631,7.125,7.125,0,0,1,1.413,2.431,9.014,9.014,0,0,1,.481,2.984,9.069,9.069,0,0,1-.484,2.985,7.17,7.17,0,0,1-1.416,2.429,6.445,6.445,0,0,1-2.288,1.63,7.6,7.6,0,0,1-3.036.582,7.594,7.594,0,0,1-3.035-.586,6.442,6.442,0,0,1-2.285-1.633,7.1,7.1,0,0,1-1.414-2.431,8.981,8.981,0,0,1-.48-2.984A9.012,9.012,0,0,1-1011.818,500.5Zm3.525,4.607a4.425,4.425,0,0,0,.6,1.394,2.961,2.961,0,0,0,1.065.974,3.17,3.17,0,0,0,1.538.361,3.173,3.173,0,0,0,1.539-.359,2.975,2.975,0,0,0,1.067-.974,4.425,4.425,0,0,0,.606-1.394,6.635,6.635,0,0,0,.2-1.62,6.69,6.69,0,0,0-.194-1.621,4.434,4.434,0,0,0-.6-1.394,2.993,2.993,0,0,0-1.066-.976,3.164,3.164,0,0,0-1.538-.359,3.165,3.165,0,0,0-1.539.357,2.986,2.986,0,0,0-1.066.975,4.416,4.416,0,0,0-.607,1.394,6.617,6.617,0,0,0-.2,1.62A6.648,6.648,0,0,0-1008.294,505.107Z" transform="translate(1025.801 -495.859)" fill="#fff"/>
      <path id="패스_52" data-name="패스 52" d="M-975.791,501.413a2.36,2.36,0,0,0-.932-1.671,3.3,3.3,0,0,0-2.02-.587,3.172,3.172,0,0,0-1.539.358,2.974,2.974,0,0,0-1.065.974,4.427,4.427,0,0,0-.607,1.394,6.654,6.654,0,0,0-.2,1.621,6.7,6.7,0,0,0,.194,1.62,4.415,4.415,0,0,0,.6,1.394,2.97,2.97,0,0,0,1.065.975,3.151,3.151,0,0,0,1.538.361,2.921,2.921,0,0,0,2.092-.716,2.957,2.957,0,0,0,.863-1.989l3.815,0a6.836,6.836,0,0,1-.607,2.512A5.6,5.6,0,0,1-974,509.546a6.294,6.294,0,0,1-2.083,1.179,7.883,7.883,0,0,1-2.584.408,7.422,7.422,0,0,1-2.972-.586,6.854,6.854,0,0,1-2.326-1.632,7.162,7.162,0,0,1-1.486-2.442,8.518,8.518,0,0,1-.51-2.973,8.565,8.565,0,0,1,.514-2.974,7.18,7.18,0,0,1,1.488-2.439,6.857,6.857,0,0,1,2.329-1.629,7.41,7.41,0,0,1,2.973-.582,7.844,7.844,0,0,1,2.379.371,7.014,7.014,0,0,1,2.132,1.1,5.713,5.713,0,0,1,1.548,1.765,4.951,4.951,0,0,1,.624,2.307Z" transform="translate(1015.11 -495.865)" fill="#fff"/>
      <path id="패스_53" data-name="패스 53" d="M-960.385,496.4l3.815,0,0,5.619,4.824-5.616,4.736,0-5.418,5.76,6.085,8.884-4.736,0-3.934-6.155-1.56,1.64,0,4.512-3.815,0Z" transform="translate(1004.732 -496.079)" fill="#fff"/>
      <path id="패스_54" data-name="패스 54" d="M-935.5,496.416l11.669.007,0,3.056-7.855,0,0,2.564,7.179,0,0,2.953-7.179,0,0,2.79,8.06,0,0,3.281-11.874-.008Z" transform="translate(994.63 -496.085)" fill="#fff"/>
      <path id="패스_55" data-name="패스 55" d="M-900.885,499.718l-4.368,0-.007,11.362-3.815,0,.007-11.362-4.368,0,0-3.281,12.551.008Z" transform="translate(985.672 -496.09)" fill="#fff"/>
      <path id="패스_56" data-name="패스 56" d="M-876.1,501.474a2.355,2.355,0,0,0-.932-1.671,3.3,3.3,0,0,0-2.019-.587,3.166,3.166,0,0,0-1.539.358,2.979,2.979,0,0,0-1.066.974,4.428,4.428,0,0,0-.606,1.393,6.655,6.655,0,0,0-.2,1.621,6.7,6.7,0,0,0,.194,1.62,4.436,4.436,0,0,0,.6,1.395,2.984,2.984,0,0,0,1.066.974,3.158,3.158,0,0,0,1.538.361,2.918,2.918,0,0,0,2.092-.717,2.951,2.951,0,0,0,.863-1.988l3.815,0a6.845,6.845,0,0,1-.607,2.512,5.593,5.593,0,0,1-1.416,1.886,6.305,6.305,0,0,1-2.083,1.179,7.914,7.914,0,0,1-2.584.408,7.415,7.415,0,0,1-2.973-.586,6.853,6.853,0,0,1-2.327-1.632,7.149,7.149,0,0,1-1.486-2.442,8.523,8.523,0,0,1-.51-2.974,8.559,8.559,0,0,1,.514-2.973,7.177,7.177,0,0,1,1.488-2.439,6.857,6.857,0,0,1,2.329-1.629,7.419,7.419,0,0,1,2.973-.582,7.862,7.862,0,0,1,2.378.371,7.019,7.019,0,0,1,2.132,1.1,5.705,5.705,0,0,1,1.548,1.765,4.956,4.956,0,0,1,.624,2.307Z" transform="translate(974.646 -495.89)" fill="#fff"/>
      <path id="패스_57" data-name="패스 57" d="M-859.763,500.593a7.14,7.14,0,0,1,1.416-2.429,6.45,6.45,0,0,1,2.288-1.629,7.574,7.574,0,0,1,3.035-.582,7.587,7.587,0,0,1,3.036.586,6.446,6.446,0,0,1,2.285,1.632,7.125,7.125,0,0,1,1.413,2.431,9.012,9.012,0,0,1,.481,2.984,9.051,9.051,0,0,1-.483,2.985A7.159,7.159,0,0,1-847.708,509,6.426,6.426,0,0,1-850,510.628a7.585,7.585,0,0,1-3.035.583,7.6,7.6,0,0,1-3.036-.586,6.441,6.441,0,0,1-2.285-1.633,7.1,7.1,0,0,1-1.413-2.431,9,9,0,0,1-.481-2.984A9.016,9.016,0,0,1-859.763,500.593Zm3.525,4.607a4.442,4.442,0,0,0,.6,1.394,2.962,2.962,0,0,0,1.066.974,3.167,3.167,0,0,0,1.538.361,3.171,3.171,0,0,0,1.539-.359,2.97,2.97,0,0,0,1.067-.974,4.423,4.423,0,0,0,.607-1.394,6.691,6.691,0,0,0,.2-1.62,6.716,6.716,0,0,0-.194-1.621,4.442,4.442,0,0,0-.6-1.394,2.994,2.994,0,0,0-1.066-.976,3.162,3.162,0,0,0-1.538-.359,3.162,3.162,0,0,0-1.538.357,2.984,2.984,0,0,0-1.066.975,4.424,4.424,0,0,0-.607,1.394,6.644,6.644,0,0,0-.2,1.62A6.672,6.672,0,0,0-856.239,505.2Z" transform="translate(964.083 -495.897)" fill="#fff"/>
      <path id="패스_58" data-name="패스 58" d="M-832.424,496.478l5.62,0,2.516,9.763h.041l2.529-9.761,5.619,0-.01,14.643-3.588,0,.007-11.116h-.041l-3.083,11.115-2.912,0-3.069-11.117h-.041l-.007,11.116-3.59,0Z" transform="translate(952.793 -496.11)" fill="#fff"/>
      <path id="패스_59" data-name="패스 59" d="M-800.492,496.5l6.952,0a7.736,7.736,0,0,1,2.02.257,4.72,4.72,0,0,1,1.681.821,4,4,0,0,1,1.158,1.478,5.041,5.041,0,0,1,.429,2.164,4.837,4.837,0,0,1-1.387,3.834,5.745,5.745,0,0,1-3.907,1.208l-3.138,0,0,4.881-3.814,0Zm3.811,6.811h2.563a2.375,2.375,0,0,0,1.5-.429,1.659,1.659,0,0,0,.556-1.395,1.792,1.792,0,0,0-.564-1.456,2.243,2.243,0,0,0-1.486-.473h-2.563Z" transform="translate(939.832 -496.118)" fill="#fff"/>
      <path id="패스_60" data-name="패스 60" d="M-776.445,496.515l3.875,0,5.466,14.646-3.979,0-.9-2.626-5.105,0-.925,2.625-3.918,0Zm.241,9.188,3.321,0-1.616-5.128h-.041Z" transform="translate(932.294 -496.125)" fill="#fff"/>
      <path id="패스_61" data-name="패스 61" d="M-755.169,496.527l3.917,0,5.08,9.027h.041l.006-9.024,3.589,0-.009,14.643-3.917,0-5.081-9.13h-.041l-.006,9.127-3.588,0Z" transform="translate(921.435 -496.13)" fill="#fff"/>
      <path id="패스_62" data-name="패스 62" d="M-723.239,505.734l0,5.456-3.815,0,0-5.456-5.326-9.19,4.327,0,2.908,5.949,2.916-5.945,4.328,0Z" transform="translate(912.182 -496.136)" fill="#fff"/>
    </g>
    <g id="그룹_55" data-name="그룹 55" transform="translate(50 23)">
      <path id="패스_63" data-name="패스 63" d="M-1089.235,497.057l-14.739-8.794v18.676Z" transform="translate(1103.974 -488.263)" fill="#fff" opacity="0.64"/>
      <path id="패스_64" data-name="패스 64" d="M-1089.036,496.938l-14.938,10v.026l14.739,9.537,14.739-9.537v-18.7Z" transform="translate(1103.974 -488.263)" fill="#fff"/>
    </g>
  </g>
</svg>
