<svg xmlns="http://www.w3.org/2000/svg" width="65.223" height="63.927" viewBox="0 0 65.223 63.927">
  <g id="icon-nothing-basket" transform="translate(22559.223 -7168.073)">
    <g id="그룹_3653" data-name="그룹 3653" transform="translate(-122.796 112.204)">
      <g id="타원_110" data-name="타원 110" transform="translate(-22393.203 7097.796)" fill="none" stroke="#fff" stroke-width="2">
        <circle cx="11" cy="11" r="11" stroke="none"/>
        <circle cx="11" cy="11" r="10" fill="none"/>
      </g>
      <g id="그룹_3652" data-name="그룹 3652" transform="translate(-22386.43 7104.571)">
        <line id="선_432" data-name="선 432" x2="8" y2="8" transform="translate(0.226 0.225)" fill="none" stroke="#fff" stroke-linecap="round" stroke-width="2"/>
        <line id="선_433" data-name="선 433" x1="8" y2="8" transform="translate(0.226 0.225)" fill="none" stroke="#fff" stroke-linecap="round" stroke-width="2"/>
      </g>
    </g>
    <g id="basketball_hoop_net" data-name="basketball, hoop, net" transform="translate(-22559.223 7168.073)">
      <path id="패스_147" data-name="패스 147" d="M57.842,4H5.381A1.381,1.381,0,0,0,4,5.381V41.275a1.381,1.381,0,0,0,1.381,1.381h8.283a1.381,1.381,0,1,0,0-2.761h-6.9V6.761h49.7V39.895h-6.9a1.381,1.381,0,1,0,0,2.761h8.283a1.381,1.381,0,0,0,1.381-1.381V5.381A1.381,1.381,0,0,0,57.842,4Z" transform="translate(-4 -4)" fill="#fff"/>
      <path id="패스_148" data-name="패스 148" d="M48.656,20.142A4.146,4.146,0,0,0,44.514,16H14.142a4.132,4.132,0,0,0-1.061,8.128c2.716,8.623,5.2,24.188,5.2,29.147a1.381,1.381,0,0,0,2.761,0c0-1.063-.095-2.487-.262-4.142h3.633c.055,1.6.082,3.018.082,4.142a1.381,1.381,0,0,0,2.761,0c0-1-.024-2.43-.082-4.142h4.306c-.058,1.712-.083,3.141-.083,4.142a1.381,1.381,0,0,0,2.761,0c0-1.124.028-2.544.082-4.142h3.632c-.168,1.655-.262,3.079-.262,4.142a1.381,1.381,0,0,0,2.761,0c0-4.959,2.487-20.524,5.2-29.147A4.136,4.136,0,0,0,48.656,20.142ZM18.072,32.567h4.985c.251,1.8.462,3.663.641,5.522H19.159C18.825,36.243,18.46,34.383,18.072,32.567ZM21.4,24.283a50.117,50.117,0,0,1,1.227,5.522H17.457c-.464-1.991-.949-3.864-1.439-5.522Zm2.876,0H34.382c-.447,1.666-.829,3.542-1.158,5.522H25.432C25.1,27.826,24.722,25.949,24.275,24.283Zm1.576,8.283h6.956c-.249,1.82-.453,3.682-.625,5.522H26.475c-.173-1.84-.377-3.7-.625-5.522Zm9.749,0h4.985c-.388,1.816-.753,3.677-1.088,5.522H34.959c.179-1.86.39-3.724.641-5.522Zm.43-2.761a50.121,50.121,0,0,1,1.227-5.522h5.382c-.49,1.658-.975,3.532-1.439,5.522ZM14.142,18.761H44.514a1.381,1.381,0,1,1,0,2.761H14.142a1.381,1.381,0,1,1,0-2.761Zm6.317,27.611c-.222-1.722-.5-3.583-.818-5.522h4.3c.153,1.921.268,3.784.355,5.522Zm6.6,0c-.083-1.71-.2-3.573-.346-5.522h5.23c-.151,1.949-.264,3.812-.346,5.522Zm7.3,0c.086-1.739.2-3.6.355-5.522h4.3c-.322,1.94-.6,3.8-.818,5.522Z" transform="translate(-1.717 0.567)" fill="#fff"/>
    </g>
  </g>
</svg>
