<svg xmlns="http://www.w3.org/2000/svg" width="58" height="55.183" viewBox="0 0 58 55.183">
  <g id="icon-nothing-base" transform="translate(22453 -7207.976)">
    <g id="그룹_3655" data-name="그룹 3655" transform="translate(-23.796 143.204)">
      <g id="타원_110" data-name="타원 110" transform="translate(-22393.203 7097.796)" fill="none" stroke="#fff" stroke-width="2">
        <circle cx="11" cy="11" r="11" stroke="none"/>
        <circle cx="11" cy="11" r="10" fill="none"/>
      </g>
      <g id="그룹_3652" data-name="그룹 3652" transform="translate(-22386.43 7104.571)">
        <line id="선_432" data-name="선 432" x2="8" y2="8" transform="translate(0.226 0.225)" fill="none" stroke="#fff" stroke-linecap="round" stroke-width="2"/>
        <line id="선_433" data-name="선 433" x1="8" y2="8" transform="translate(0.226 0.225)" fill="none" stroke="#fff" stroke-linecap="round" stroke-width="2"/>
      </g>
    </g>
    <g id="bat_baseball_softball" data-name="bat, baseball, softball" transform="translate(-22453 7207.976)">
      <path id="패스_151" data-name="패스 151" d="M57.151,6.05a6.91,6.91,0,0,0-9.761,0L29.735,23.709,9.859,47.341a4.142,4.142,0,0,0-4.616,6.712l3.9,3.9a4.142,4.142,0,0,0,6.712-4.616L39.577,33.384,57.151,15.811a6.91,6.91,0,0,0,0-9.761ZM55.2,13.859,37.712,31.351,13.141,52.019a1.382,1.382,0,0,0-.089,2.033A1.381,1.381,0,0,1,11.1,56L7.2,52.1a1.381,1.381,0,1,1,1.952-1.952,1.428,1.428,0,0,0,1.035.4,1.4,1.4,0,0,0,1-.491L31.768,25.575,49.341,8A4.142,4.142,0,1,1,55.2,13.859Z" transform="translate(-4.028 -3.988)" fill="#fff"/>
      <path id="패스_152" data-name="패스 152" d="M14.283,20.567A8.283,8.283,0,1,0,6,12.283,8.283,8.283,0,0,0,14.283,20.567Zm0-13.806a5.522,5.522,0,1,1-5.522,5.522,5.522,5.522,0,0,1,5.522-5.522Z" transform="translate(-3.278 -4)" fill="#fff"/>
    </g>
  </g>
</svg>
