<svg xmlns="http://www.w3.org/2000/svg" width="28" height="14" viewBox="0 0 28 14">
  <g id="그룹_4085" data-name="그룹 4085" transform="translate(-696 -541)">
    <g id="그룹_4084" data-name="그룹 4084" transform="translate(-207 259)">
      <rect id="사각형_964" data-name="사각형 964" width="28" height="14" rx="7" transform="translate(903 282)" fill="#f80"/>
      <path id="NEW" d="M5.441,0H4.426L1.75-4.117a1.826,1.826,0,0,1-.168-.324H1.559a5.767,5.767,0,0,1,.031.77V0h-.9V-5.6H1.773l2.586,4.02q.164.25.211.344h.016a4.977,4.977,0,0,1-.039-.754V-5.6h.895ZM9.973,0H6.828V-5.6h3.02v.789H7.758v1.586H9.684v.785H7.758V-.785H9.973Zm8.078-5.6L16.516,0H15.465L14.4-3.918a2.678,2.678,0,0,1-.082-.547H14.3a2.654,2.654,0,0,1-.094.539L13.137,0H12.063L10.5-5.6h1.02l1.016,4.1a2.987,2.987,0,0,1,.078.539h.02a3.058,3.058,0,0,1,.109-.539l1.148-4.1h.957l1.063,4.133a3.227,3.227,0,0,1,.082.5H16a3.07,3.07,0,0,1,.09-.516l1-4.117Z" transform="translate(907.932 292)" fill="#fff"/>
    </g>
  </g>
</svg>
