<svg xmlns="http://www.w3.org/2000/svg" width="19.166" height="17.668" viewBox="0 0 19.166 17.668">
    <defs>
        <style>
            .cls-1{fill:#04b5ff}
        </style>
    </defs>
    <path id="slate_icon" d="M355.787 349.767s-11 .017-16.409.017l-.05-.313 15.914-3.964-.965-3.591c-6.259 1.545-17.636 4.4-17.636 4.4s-.022 10.963 0 11.424a1.76 1.76 0 0 0 1.944 1.821c5.1.026 10.209.059 15.311-.052.629-.014 1.741-.846 1.773-1.349.178-2.74.118-8.393.118-8.393zM351 350.853h1.224v2.08H351zm-2.114 0h1.224v2.08h-1.224zm-2.114 0H348v2.08h-1.224zm-2.1 0h1.224v2.08h-1.224zm-2.114 0h1.224v2.08h-1.224zm-2.114 0h1.224v2.08h-1.224zm12.846-7.891l.559 2.01-1.183.3-.559-2.01zm-2.054.521l.559 2.01-1.183.3-.559-2.01zm-2.043.518l.559 2.01-1.183.3-.559-2.01zm-2.043.518l.559 2.01-1.183.3-.559-2.01zm-2.032.516l.559 2.01-1.183.3-.559-2.01zm-2.043.518l.559 2.01-1.183.3-.559-2.01zm-2.043.518l.559 2.01-1.183.3-.559-2.01zm-2.043.518l.559 2.01-1.183.3-.559-2.01zm-.659 4.262h1.224v2.08h-1.224zm15.69 5.01h-15.5v-.389h15.5zm0-1.1h-15.5v-.389h15.5zm.331-1.829h-1.224v-2.08h1.224z" class="cls-1" transform="translate(-336.631 -341.916)"/>
</svg>
