<svg xmlns="http://www.w3.org/2000/svg" width="31" height="31" viewBox="0 0 31 31">
  <g id="그룹_4082" data-name="그룹 4082" transform="translate(-410 -787)">
    <g id="타원_99" data-name="타원 99" transform="translate(410 787)" fill="none" stroke="#00b9ff" stroke-width="1">
      <circle cx="15.5" cy="15.5" r="15.5" stroke="none"/>
      <circle cx="15.5" cy="15.5" r="15" fill="none"/>
    </g>
    <path id="icon_list_01_popularity" d="M9.321,1.557l1.917,3.885a.915.915,0,0,0,.689.5l4.288.623a.915.915,0,0,1,.507,1.561l-3.1,3.024a.916.916,0,0,0-.263.81l.732,4.27a.916.916,0,0,1-1.328.965L8.927,15.181a.917.917,0,0,0-.852,0L4.24,17.2a.916.916,0,0,1-1.328-.965l.732-4.27a.916.916,0,0,0-.263-.81L.278,8.127A.915.915,0,0,1,.786,6.566l4.288-.623a.915.915,0,0,0,.689-.5L7.68,1.557a.915.915,0,0,1,1.641,0Z" transform="translate(416.998 791.906)" fill="#00b9ff"/>
  </g>
</svg>
