<svg xmlns="http://www.w3.org/2000/svg" xmlns:xlink="http://www.w3.org/1999/xlink" width="74" height="66.575" viewBox="0 0 74 66.575">
  <defs>
    <linearGradient id="linear-gradient" x1="0.5" y1="-0.322" x2="0.5" y2="1.592" gradientUnits="objectBoundingBox">
      <stop offset="0" stop-color="#7febcf"/>
      <stop offset="1" stop-color="#069571"/>
    </linearGradient>
    <linearGradient id="linear-gradient-2" x1="-6.172" y1="-26.963" x2="-6.172" y2="-26.979" xlink:href="#linear-gradient"/>
    <linearGradient id="linear-gradient-3" x1="-5.298" y1="-23.298" x2="-5.298" y2="-23.312" xlink:href="#linear-gradient"/>
    <linearGradient id="linear-gradient-4" x1="-6.941" y1="-30.207" x2="-6.941" y2="-30.225" xlink:href="#linear-gradient"/>
    <linearGradient id="linear-gradient-5" x1="-12.843" y1="-39.767" x2="-12.843" y2="-39.79" xlink:href="#linear-gradient"/>
  </defs>
  <g id="그룹_4298" data-name="그룹 4298" transform="translate(-227.981 -1732.701)">
    <path id="패스_2107" data-name="패스 2107" d="M277.11,1734.74c-9.38,0-15.366,2.757-15.366,4.655,0,.852,1.213,1.874,3.389,2.746a25.039,25.039,0,0,0,4.908,1.325,43.019,43.019,0,0,0,14.139,0,25.024,25.024,0,0,0,4.907-1.325c2.175-.871,3.389-1.894,3.389-2.746C292.476,1737.5,286.49,1734.74,277.11,1734.74Z" transform="translate(7.041 0.425)" fill="none"/>
    <path id="패스_2108" data-name="패스 2108" d="M295.266,1739.091c-.886-4.2-9.357-6.39-17.741-6.39s-16.856,2.192-17.741,6.39l-.024,6.961q1.231.564,2.4,1.234v-3.69c.149.1.3.2.456.295a15.542,15.542,0,0,0,2.933,1.326,42.48,42.48,0,0,0,23.953,0,15.506,15.506,0,0,0,2.933-1.326c.16-.094.307-.195.456-.295v4.609a1.883,1.883,0,0,1-1.007,1.664c-2.944,1.565-7.439,2.475-12.135,2.693-.134.007-.266.016-.4.021-.477.018-.956.026-1.435.03-.132,0-.254.008-.387.008s-.255-.007-.385-.008c-.48,0-.958-.012-1.436-.03-.137-.005-.267-.013-.4-.021a40.2,40.2,0,0,1-7.383-.993,30.2,30.2,0,0,1,2.771,3.006,45.275,45.275,0,0,0,6.834.511,38.586,38.586,0,0,0,11.977-1.724,15.506,15.506,0,0,0,2.933-1.325c.16-.1.307-.2.456-.3v4.58a1.919,1.919,0,0,1-1.027,1.7c-2.945,1.558-7.429,2.464-12.114,2.682-.134.006-.267.016-.4.021-.477.018-.956.027-1.435.03-.129,0-.257.007-.387.007s-.257-.006-.385-.007c-.48,0-.958-.012-1.436-.03-.134,0-.267-.014-.4-.021-.278-.013-.55-.039-.827-.056q.58,1.236,1.05,2.532c.665.028,1.332.047,2,.047A38.622,38.622,0,0,0,289.5,1761.5a15.575,15.575,0,0,0,2.933-1.325c.16-.1.307-.2.456-.3v5l-.508.922a15.7,15.7,0,0,1-2.881,1.3,26.661,26.661,0,0,1-2.719.76,42.908,42.908,0,0,1-9.257.962c-.19,0-.378-.012-.568-.014.128.841.213,1.695.27,2.556.1,0,.2.006.3.006,8.86,0,17.83-2.446,17.83-7.121Zm-5.765,3.476a25.033,25.033,0,0,1-4.907,1.324,43.019,43.019,0,0,1-14.139,0,25.048,25.048,0,0,1-4.908-1.324c-2.175-.871-3.389-1.894-3.389-2.746,0-1.9,5.986-4.655,15.365-4.655s15.365,2.757,15.365,4.655C292.89,1740.672,291.677,1741.695,289.5,1742.566Z" transform="translate(6.627 0)" fill="url(#linear-gradient)"/>
    <g id="그룹_4175" data-name="그룹 4175" transform="translate(227.981 1747.458)">
      <path id="패스_2091" data-name="패스 2091" d="M253.306,1747.709a22.527,22.527,0,1,0,22.526,22.528A22.556,22.556,0,0,0,253.306,1747.709Zm0,43.863a21.333,21.333,0,1,1,21.333-21.334A21.36,21.36,0,0,1,253.306,1791.572Z" transform="translate(-227.397 -1744.328)" fill="url(#linear-gradient-2)"/>
      <path id="패스_2092" data-name="패스 2092" d="M253.89,1744.912a25.909,25.909,0,1,0,25.909,25.909A25.94,25.94,0,0,0,253.89,1744.912Zm0,50.128a24.22,24.22,0,0,1-24.219-24.218h0a24.219,24.219,0,1,1,24.22,24.218Z" transform="translate(-227.981 -1744.912)" fill="url(#linear-gradient-3)"/>
      <path id="패스_2093" data-name="패스 2093" d="M252.906,1749.631a20.206,20.206,0,0,0-20.206,20.206h0a20.206,20.206,0,0,0,20.206,20.207h0a20.206,20.206,0,0,0,0-40.412Zm0,39.286a19.079,19.079,0,1,1,19.079-19.081A19.1,19.1,0,0,1,252.906,1788.917Z" transform="translate(-226.997 -1743.928)" fill="url(#linear-gradient-4)"/>
      <path id="패스_2094" data-name="패스 2094" d="M261.783,1770.2a5.034,5.034,0,0,0-2.617-2,5.406,5.406,0,0,0,1.727-1.29,5.042,5.042,0,0,0,1.048-3.334,5.753,5.753,0,0,0-1.039-3.455q-1.728-2.351-5.868-2.411h-2.682v-4.219h-2.619v4.219h-1.787v-4.219h-2.62v4.219h-5.254v3.945h4.021v14.754h-4.021v3.946h5.254v4.218h2.62v-4.218h1.79v4.218h2.619v-4.218H254.3a15.629,15.629,0,0,0,3.2-.308,6.216,6.216,0,0,0,4.161-2.917,6.62,6.62,0,0,0,1.008-3.611A5.988,5.988,0,0,0,261.783,1770.2Zm-9.879-8.545v-.013h1.628a8.558,8.558,0,0,1,2.676.354,2.029,2.029,0,0,1,1.217,2.087,2.139,2.139,0,0,1-.915,1.99,4.543,4.543,0,0,1-2.394.561h-5.5v-4.98Zm4.493,14.366a5.346,5.346,0,0,1-2.294.4h-2.2v-.013h-3.3v-6.025h5.573a5.732,5.732,0,0,1,2.265.384,2.432,2.432,0,0,1,1.439,2.428,2.839,2.839,0,0,1-1.484,2.824Z" transform="translate(-225.459 -1743.122)" fill="url(#linear-gradient-5)"/>
    </g>
  </g>
</svg>
