<svg xmlns="http://www.w3.org/2000/svg" width="20" height="20" viewBox="0 0 20 20">
  <g id="그룹_4048" data-name="그룹 4048" transform="translate(-1301 -431)">
    <g id="타원_100" data-name="타원 100" transform="translate(1301 431)" fill="#fff" stroke="#969696" stroke-width="1">
      <circle cx="10" cy="10" r="10" stroke="none"/>
      <circle cx="10" cy="10" r="9.5" fill="none"/>
    </g>
    <path id="btn_question" d="M2.392-3.25A3.592,3.592,0,0,1,2.47-4.44a2.778,2.778,0,0,1,.344-.8,2.882,2.882,0,0,1,.475-.56q.26-.234.487-.455a2.224,2.224,0,0,0,.384-.494,1.345,1.345,0,0,0,.156-.676,1.423,1.423,0,0,0-.247-.851.909.909,0,0,0-.793-.345,1.171,1.171,0,0,0-.9.377,1.838,1.838,0,0,0-.4,1.157H.351A3.72,3.72,0,0,1,.7-8.528a2.852,2.852,0,0,1,.715-.936,2.431,2.431,0,0,1,.93-.487,3.134,3.134,0,0,1,.988-.111,3.737,3.737,0,0,1,1.073.2,2.606,2.606,0,0,1,.865.494,2.266,2.266,0,0,1,.572.774,2.476,2.476,0,0,1,.208,1.04,2.947,2.947,0,0,1-.169,1.092,2.327,2.327,0,0,1-.423.7,3.541,3.541,0,0,1-.539.487,3.825,3.825,0,0,0-.527.462,2.073,2.073,0,0,0-.4.617,2.186,2.186,0,0,0-.13.949ZM3.133.182a1.115,1.115,0,0,1-.845-.358,1.246,1.246,0,0,1-.338-.89,1.246,1.246,0,0,1,.338-.891,1.115,1.115,0,0,1,.845-.357,1.13,1.13,0,0,1,.858.357,1.246,1.246,0,0,1,.338.891,1.246,1.246,0,0,1-.338.89,1.13,1.13,0,0,1-.858.358Z" transform="translate(1307.649 446.065)" fill="#00b9ff"/>
  </g>
</svg>
