<svg id="레이어_1" data-name="레이어 1" xmlns="http://www.w3.org/2000/svg" viewBox="0 0 32.6 19"><title>00_button_lan_other</title><rect y="-0.02" width="32.6" height="19.04" fill="#64e196"/><path d="M31.9.7V18.3H.7V.7H31.9m.7-.7H0V19H32.6V0Z" fill="#e6e6e6"/><path d="M19.49,6.65v.16c0,.92-.37,1.53-1.7,2.74-.83.73-.94,1-.94,1.63a.75.75,0,0,1-.82.69c-.47,0-.87-.23-.87-.74a2.67,2.67,0,0,1,1.18-2.41c1.18-1,1.33-1.33,1.33-1.9V6.75c0-.59-.41-1.12-1.53-1.12a3,3,0,0,0-1.8.61.71.71,0,0,1-1-.2.75.75,0,0,1,.1-1.1A4.47,4.47,0,0,1,16.2,4C18.25,4,19.49,5.11,19.49,6.65Zm-2.4,7.25A1.08,1.08,0,1,1,16,12.82,1.06,1.06,0,0,1,17.09,13.9Z" fill="#fff"/></svg>