<svg id="레이어_1" data-name="레이어 1" xmlns="http://www.w3.org/2000/svg" viewBox="0 0 32.6 19"><title>00_button_lan_KR</title><rect y="-0.02" width="32.6" height="19.04" fill="#dd2911"/><polygon points="2.89 6.67 5.55 6.67 6.39 4.21 7.22 6.71 9.84 6.71 7.71 8.22 8.59 10.64 6.41 9.16 4.24 10.73 5.02 8.24 2.89 6.67" fill="#fedd19"/><polygon points="12.41 4.63 11.54 4.81 12.15 4.21 11.68 3.4 12.45 3.76 13.05 3.18 12.96 3.95 13.81 4.3 12.95 4.51 12.87 5.38 12.41 4.63" fill="#fedd19"/><polygon points="13.84 6.77 14.62 6.41 14.49 5.53 15.12 6.14 15.91 5.77 15.53 6.52 16.13 7.16 15.23 7.01 14.83 7.78 14.72 6.94 13.84 6.77" fill="#fedd19"/><polygon points="13.89 9.89 14.75 9.89 14.98 8.99 15.31 9.81 16.16 9.81 15.53 10.29 15.79 11.12 15.05 10.65 14.32 11.21 14.59 10.37 13.89 9.89" fill="#fedd19"/><polygon points="12.42 12.14 13.01 11.48 13.01 12.35 13.73 12.65 12.93 12.88 12.93 13.73 12.41 13.04 11.56 13.25 12.08 12.57 11.65 11.87 12.42 12.14" fill="#fedd19"/><path d="M31.9.7V18.3H.7V.7H31.9m.7-.7H0V19H32.6V0Z" fill="#e6e6e6"/></svg>