<?xml version="1.0" standalone="no"?>
<!DOCTYPE svg PUBLIC "-//W3C//DTD SVG 20010904//EN"
 "http://www.w3.org/TR/2001/REC-SVG-20010904/DTD/svg10.dtd">
<svg version="1.0" xmlns="http://www.w3.org/2000/svg"
 width="700.000000pt" height="700.000000pt" viewBox="0 0 700.000000 700.000000"
 preserveAspectRatio="xMidYMid meet">
<metadata>
Created by potrace 1.11, written by Peter Selinger 2001-2013
</metadata>
<g transform="translate(0.000000,700.000000) scale(0.100000,-0.100000)"
fill="#000000" stroke="none">
<path d="M2119 6616 c-2 -2 -34 -6 -70 -10 -36 -3 -72 -7 -80 -10 -8 -3 -32
-7 -54 -10 -22 -3 -55 -10 -73 -15 -18 -5 -33 -10 -35 -9 -5 1 -99 -26 -167
-48 -105 -35 -319 -141 -420 -210 -317 -214 -562 -515 -703 -866 -34 -84 -91
-271 -101 -333 -28 -167 -34 -242 -31 -410 3 -136 12 -217 40 -364 10 -54 58
-207 86 -279 67 -168 142 -301 260 -459 68 -89 77 -108 61 -115 -15 -6 -109
-132 -160 -214 -116 -187 -200 -401 -249 -631 -23 -113 -26 -152 -27 -333 -1
-232 4 -287 40 -450 109 -488 422 -921 859 -1190 177 -109 409 -198 630 -241
105 -21 148 -24 350 -23 212 0 240 2 360 27 168 36 337 93 472 161 108 55 280
164 330 210 57 53 66 53 125 4 232 -196 544 -330 920 -395 75 -12 415 -10 508
4 547 81 1015 379 1315 838 106 161 215 407 241 544 3 14 7 28 9 31 2 4 7 20
9 36 3 16 8 40 11 54 29 139 40 429 22 579 -37 316 -165 641 -354 898 -23 32
-53 70 -67 84 l-24 26 46 54 c55 67 152 211 199 298 155 287 233 621 220 951
-3 80 -8 160 -11 178 -3 18 -8 52 -11 75 -16 106 -66 281 -112 392 -234 565
-706 973 -1292 1119 -53 13 -116 27 -141 31 -25 4 -54 9 -65 12 -54 12 -397
10 -495 -3 -338 -46 -660 -183 -926 -395 l-64 -51 -99 76 c-55 42 -102 76
-105 76 -3 0 -25 14 -50 30 -143 97 -448 216 -626 245 -19 3 -46 7 -60 10 -14
3 -43 7 -65 11 -46 6 -370 15 -376 10z"/>
</g>
</svg>
