<?xml version="1.0" standalone="no"?>
<!DOCTYPE svg PUBLIC "-//W3C//DTD SVG 20010904//EN"
 "http://www.w3.org/TR/2001/REC-SVG-20010904/DTD/svg10.dtd">
<svg version="1.0" xmlns="http://www.w3.org/2000/svg"
 width="700.000000pt" height="700.000000pt" viewBox="0 0 700.000000 700.000000"
 preserveAspectRatio="xMidYMid meet">
<metadata>
Created by potrace 1.11, written by Peter Selinger 2001-2013
</metadata>
<g transform="translate(0.000000,700.000000) scale(0.100000,-0.100000)"
fill="#000000" stroke="none">
<path d="M3309 6866 c-2 -2 -40 -6 -84 -10 -543 -42 -1098 -235 -1555 -539
-41 -28 -77 -53 -80 -56 -3 -4 -18 -15 -35 -25 -121 -77 -441 -371 -551 -506
-16 -19 -35 -41 -42 -49 -39 -41 -252 -335 -252 -348 0 -4 -6 -14 -14 -22 -13
-15 -22 -31 -81 -136 -85 -153 -172 -344 -229 -504 -60 -168 -131 -449 -151
-601 -3 -25 -8 -56 -10 -70 -2 -14 -7 -52 -10 -85 -3 -33 -8 -85 -11 -115 -7
-70 -7 -359 0 -470 7 -102 29 -278 41 -320 2 -8 7 -35 10 -60 21 -150 115
-466 197 -660 128 -305 343 -651 545 -880 140 -159 359 -366 488 -461 33 -24
62 -47 65 -50 8 -10 211 -143 275 -181 178 -106 428 -219 645 -291 106 -35
360 -101 435 -112 22 -3 67 -10 100 -15 106 -17 128 -20 225 -27 168 -13 569
-7 655 11 11 2 43 7 70 10 541 72 1073 291 1520 627 168 126 205 158 355 309
154 155 178 181 273 303 378 484 610 1055 681 1677 27 232 23 576 -8 782 -3
21 -8 55 -11 75 -5 34 -10 66 -19 113 -30 159 -99 415 -132 487 -8 17 -14 35
-14 40 0 4 -20 56 -45 115 -60 146 -143 312 -211 423 -13 22 -32 55 -41 73 -9
17 -20 32 -25 32 -4 0 -8 4 -8 10 0 29 -217 311 -345 448 -332 354 -699 613
-1129 797 -290 123 -631 213 -911 241 -33 3 -71 8 -85 11 -28 5 -486 14 -491
9z"/>
</g>
</svg>
