<svg xmlns="http://www.w3.org/2000/svg" width="178.028" height="43.962" viewBox="0 0 178.028 43.962">
  <g id="그룹_24" data-name="그룹 24" transform="translate(-138.152 -379.44)">
    <g id="그룹_12" data-name="그룹 12" transform="translate(138.152 379.44)">
      <g id="그룹_9" data-name="그룹 9">
        <g id="그룹_3" data-name="그룹 3" transform="translate(1.621 13.741)">
          <g id="그룹_2" data-name="그룹 2">
            <path id="패스_47" data-name="패스 47" d="M144.992,411.154c-.124.623-.523,1.037-1.062.928a.985.985,0,0,1-.693-1.229.762.762,0,0,1,.135-.337.838.838,0,0,0,.57,1c.423.084.651-.18.73-.561a2.094,2.094,0,0,0,.038-.339l-2.174-.431c-.27-.055-.461-.1-.657.128l-.016,0,.191-.95.015,0c.037.26.4.3.618.345l1.817.359c.215.043.564.14.709-.078l.013,0Z" transform="translate(-141.395 -406.258)" fill="#fff"/>
            <path id="패스_48" data-name="패스 48" d="M141.4,416.653a1.317,1.317,0,0,1,0-1.838,1.284,1.284,0,0,1,.976-.215l1.31.04c.222.008.582.054.682-.191h.014l-.032.926h-.012c-.088-.246-.445-.231-.666-.235l-1.313-.042c-.653-.024-.966.24-.983.74a.861.861,0,0,0,.317.723.662.662,0,0,0,.446.117l1.48.051c.218.006.578.046.681-.194h.015l-.033.923-.014,0c-.085-.251-.445-.234-.671-.24l-1.854-.063c-.22-.005-.577-.047-.678.2h-.016l.025-.714Z" transform="translate(-141.031 -408.48)" fill="#fff"/>
            <path id="패스_49" data-name="패스 49" d="M144.078,422.159a1.116,1.116,0,0,0,.207-.8c-.035-.275-.189-.609-.525-.566-.669.084-.439,1.746-1.341,1.86a1.188,1.188,0,0,1-1.18-1.162,2.5,2.5,0,0,1,.032-.883l.593-.222a1.675,1.675,0,0,0-.266,1.114c.034.273.256.667.6.627.761-.1.406-1.746,1.44-1.878.614-.075.931.513,1.007,1.105a2.376,2.376,0,0,1-.012.734Z" transform="translate(-141.111 -411.013)" fill="#fff"/>
            <path id="패스_50" data-name="패스 50" d="M143.751,426.63l-.266-.925,1.325.13Zm-.309.238-.6.439c-.295.219-.335.27-.509.07l-.012,0,.278.96.012,0c.063-.306.3-.466.541-.647l2.144-1.662-.212-.74-.016,0c-.007.244-.229.214-.418.2l-2.2-.226a1.114,1.114,0,0,1-.8-.267l-.013,0,.245.863.016-.005c.021-.249.167-.256.462-.229l.734.053Z" transform="translate(-141.298 -413.09)" fill="#fff"/>
            <path id="패스_51" data-name="패스 51" d="M144.314,430.438c-.248.12-.427.2-.449.5l-.013.006-.381-.775.014-.006c.249.165.427.079.673-.041l1.763-.85c.249-.122.426-.207.446-.5l.014-.008.315.64-.006,0a.287.287,0,0,0-.079.119l-.057.1-1.252,2.588,1.674-.809c.251-.12.428-.2.445-.5l.013-.006.379.773-.012.005c-.245-.163-.421-.078-.67.041l-2.478,1.2a1.36,1.36,0,0,1,.189-.883l1.183-2.431Z" transform="translate(-142.097 -414.737)" fill="#fff"/>
            <path id="패스_52" data-name="패스 52" d="M149.2,438.489c-.2.181-.357.309-.295.6l-.01.01-.583-.641.01-.011c.287.091.435-.037.638-.22l1.459-1.3c.2-.181.349-.312.288-.6l.01-.011.483.53,0,0a.261.261,0,0,0-.044.136l-.027.115-.482,2.831,1.383-1.236c.2-.183.355-.309.288-.6l.014-.01.578.638-.011.01c-.281-.09-.426.037-.631.222l-2.05,1.832a1.336,1.336,0,0,1-.063-.9l.459-2.657Z" transform="translate(-144.212 -418.038)" fill="#fff"/>
            <path id="패스_53" data-name="패스 53" d="M155.007,443.533l-.763-.592,1.145-.671Zm-.108.369-.22.705c-.105.348-.108.416-.364.352l-.012.013.8.613.011-.011a1.12,1.12,0,0,1,.047-.838l.743-2.6-.613-.475-.009.014c.139.2-.061.3-.223.4l-1.906,1.1a1.131,1.131,0,0,1-.808.256l-.006.012.714.548.006-.011c-.131-.212-.016-.3.235-.455l.627-.388Z" transform="translate(-145.971 -420.375)" fill="#fff"/>
            <path id="패스_54" data-name="패스 54" d="M159.109,446.532c-.145.24-.243.4-.1.663l0,.012-.844-.482.007-.013c.258.043.415-.28.526-.471l1.1-1.879-.374-.216a.879.879,0,0,0-.6-.123l-.015-.008.443-.414.012.007a.658.658,0,0,0,.144.122l.109.062,1.584.914a.543.543,0,0,0,.214.081l.012.007-.431.425-.011-.008c.03-.18-.128-.3-.266-.381l-.384-.216Z" transform="translate(-148.519 -421.22)" fill="#fff"/>
            <path id="패스_55" data-name="패스 55" d="M163.016,446.573c.09-.2.267-.517.075-.7l.005-.014.855.374,0,.011c-.265-.011-.383.331-.471.531l-.745,1.682c-.09.2-.26.514-.075.7l-.006.011-.855-.371.007-.012c.261.017.378-.326.466-.526Z" transform="translate(-150.106 -422.207)" fill="#fff"/>
            <path id="패스_56" data-name="패스 56" d="M167.12,447.779a1.289,1.289,0,0,1,.81,1.673,1.193,1.193,0,0,1-1.523.894,1.318,1.318,0,0,1-.839-1.666A1.214,1.214,0,0,1,167.12,447.779Zm.131-.33a1.75,1.75,0,0,0-2.231,1.124,1.7,1.7,0,0,0,1.268,2.108,1.753,1.753,0,0,0,2.205-1.172A1.677,1.677,0,0,0,167.251,447.449Z" transform="translate(-151.485 -422.866)" fill="#fff"/>
            <path id="패스_57" data-name="패스 57" d="M172.153,451.015c-.02.274-.04.467.211.637l0,.014-.868-.065v-.012c.271-.132.289-.328.309-.6l.144-1.938c.02-.275.037-.468-.209-.633V448.4l.718.054v0a.313.313,0,0,0,.064.127l.06.1,1.626,2.379.141-1.847c.02-.268.039-.466-.212-.629v-.011l.863.061,0,.015c-.262.126-.278.322-.3.594l-.2,2.724a1.347,1.347,0,0,1-.675-.6l-1.522-2.239Z" transform="translate(-154.343 -423.32)" fill="#fff"/>
            <path id="패스_58" data-name="패스 58" d="M179.766,450.206l-.965.1.359-1.268Zm.179.346.333.656c.167.327.212.377-.018.506v.015l1-.1,0-.013c-.292-.114-.41-.374-.548-.638l-1.275-2.386-.771.079v.014c.244.048.173.261.12.444l-.609,2.1a1.1,1.1,0,0,1-.4.736v.013l.9-.09v-.015c-.244-.063-.224-.207-.149-.488l.181-.71Z" transform="translate(-157.09 -423.401)" fill="#fff"/>
            <path id="패스_59" data-name="패스 59" d="M185.231,450.48a1.209,1.209,0,0,0,.763-.51l.014,0-.076.69-1.954.518,0-.015c.217-.149.1-.49.039-.7l-.475-1.775c-.059-.216-.125-.57-.391-.592l0-.015.908-.24,0,.013c-.218.155-.091.5-.034.705l.555,2.052Z" transform="translate(-159.435 -423.072)" fill="#fff"/>
            <path id="패스_60" data-name="패스 60" d="M192.793,446.567a1.226,1.226,0,0,1-.655.808,1.21,1.21,0,0,1-.944.122,1.265,1.265,0,0,1-.683-.722l-.629-1.143c-.106-.191-.247-.52-.513-.482l-.005-.012.82-.444.006.012c-.171.2.025.5.132.69l.628,1.143c.315.566.7.7,1.145.461a.855.855,0,0,0,.466-.639.639.639,0,0,0-.124-.438l-.709-1.289c-.105-.193-.254-.518-.512-.485l-.007-.009.819-.445.011.012c-.176.2.023.5.132.693l.887,1.615c.106.191.252.517.518.48l.007.012-.636.342Z" transform="translate(-162.152 -421.261)" fill="#fff"/>
            <path id="패스_61" data-name="패스 61" d="M196.677,443.345c.177.209.3.364.6.313l.012.011-.672.555-.007-.012c.1-.282-.024-.432-.2-.641l-1.258-1.495c-.176-.206-.3-.356-.592-.306l-.008-.012.552-.455,0,0a.271.271,0,0,0,.134.048l.116.032,2.836.583-1.2-1.415c-.176-.212-.3-.363-.593-.311l-.007-.011.664-.549.007.012c-.1.274.024.424.2.631l1.767,2.1a1.352,1.352,0,0,1-.909.029l-2.666-.555Z" transform="translate(-164.418 -419.508)" fill="#fff"/>
            <path id="패스_62" data-name="패스 62" d="M200.115,438.761c-.167-.148-.415-.411-.651-.287l-.01-.01.621-.692.01.01c-.094.245.2.462.363.606l1.385,1.221c.167.149.413.408.647.284l.011.012-.622.691-.012-.011c.1-.238-.195-.458-.358-.6Z" transform="translate(-166.562 -418.674)" fill="#fff"/>
            <path id="패스_63" data-name="패스 63" d="M202.706,434.4c-.208-.308-.445-.671-.719-.494l-.013-.005.419-.6,2.035,2.971a1.071,1.071,0,0,1-.879.115l-2.074-.533a1.5,1.5,0,0,0-.8-.088l-.011-.007.409-.585.044.037a1.8,1.8,0,0,0,.453.149l2.2.576Z" transform="translate(-167.093 -416.723)" fill="#fff"/>
            <path id="패스_64" data-name="패스 64" d="M206.624,432.37l.328-.531a1.215,1.215,0,0,0,.138-.939l0-.012.486.476-.9,1.826-.012-.007c.032-.261-.312-.4-.509-.491l-1.665-.8c-.2-.1-.512-.28-.707-.1l-.011-.008.687-1.4a.515.515,0,0,0,.081-.216l0-.015.52.251-.007.012a.688.688,0,0,0-.43.431,2.594,2.594,0,0,0-.19.461l.82.4.257-.522a.519.519,0,0,0,.069-.206l.005-.014.469.229-.005.011c-.162.009-.248.2-.318.329l-.158.325Z" transform="translate(-168.45 -415.344)" fill="#fff"/>
            <path id="패스_65" data-name="패스 65" d="M205.822,426.893c.2-.621.643-.851,1.069-.714a.955.955,0,0,1,.582,1l1.062-.392a3.522,3.522,0,0,0,.9-.538l-.143.423a.638.638,0,0,1-.409.463l-.894.338-.8.213c.065-.391.035-.878-.4-1.02a.567.567,0,0,0-.716.433,2.1,2.1,0,0,0-.066.325l2.093.676c.214.069.547.209.709,0l.014.006-.292.887-.013,0c-.008-.262-.365-.344-.574-.414l-1.762-.565c-.215-.072-.544-.214-.715-.007l-.012,0Z" transform="translate(-169.187 -413.59)" fill="#fff"/>
            <path id="패스_66" data-name="패스 66" d="M207.816,421.818a1.12,1.12,0,0,0-.429.707c-.045.274,0,.637.339.689.663.112.928-1.545,1.825-1.4a1.187,1.187,0,0,1,.792,1.453,2.5,2.5,0,0,1-.288.837l-.629.039a1.684,1.684,0,0,0,.577-.985c.044-.275-.051-.716-.391-.771-.755-.123-.9,1.553-1.924,1.386-.612-.1-.741-.756-.645-1.344a2.453,2.453,0,0,1,.225-.7Z" transform="translate(-169.867 -411.663)" fill="#fff"/>
            <path id="패스_67" data-name="패스 67" d="M208.143,419.823c-.226-.012-.584-.066-.691.175h-.011l.052-.92h.014c.079.248.445.24.665.251l1.849.105c.222.012.578.062.687-.173h.013l-.053.92-.015,0c-.074-.248-.437-.238-.659-.252Z" transform="translate(-170.053 -410.504)" fill="#fff"/>
            <path id="패스_68" data-name="패스 68" d="M209.955,415.241c.283-.016.474-.02.611-.289h.017l.051.967h-.018c-.105-.239-.463-.193-.683-.178l-2.189.115.024.431a.839.839,0,0,0,.227.565v.014l-.593-.14,0-.014a.528.528,0,0,0,.025-.184l-.006-.125-.1-1.815a.5.5,0,0,0-.044-.222l0-.015.594.127v.014c-.168.072-.183.269-.175.428l.023.438Z" transform="translate(-169.98 -408.438)" fill="#fff"/>
            <path id="패스_69" data-name="패스 69" d="M209.1,410.234c.288-.057.432-.085.559-.364l.017-.007.193.932-.015,0c-.169-.209-.476-.113-.7-.068l-.712.145-1.123,1.053a1.182,1.182,0,0,0-.4.552l-.088-.434a.411.411,0,0,1,.062-.385l1.1-1.021-1.017-.41c-.137-.057-.39-.119-.467.175l-.013,0-.173-.835,2.026.814Z" transform="translate(-169.56 -406.351)" fill="#fff"/>
            <path id="패스_70" data-name="패스 70" d="M146.8,404.27a.426.426,0,1,1-.425-.422A.425.425,0,0,1,146.8,404.27Z" transform="translate(-143.179 -403.848)" fill="#fff"/>
            <path id="패스_71" data-name="패스 71" d="M207.845,404.27a.426.426,0,1,1-.425-.422A.425.425,0,0,1,207.845,404.27Z" transform="translate(-169.857 -403.848)" fill="#fff"/>
          </g>
        </g>
        <g id="그룹_4" data-name="그룹 4" transform="translate(19.915 1.126)">
          <path id="패스_72" data-name="패스 72" d="M176.84,382.44h-.417v-1h-.5v2.593a.658.658,0,0,1-.457.172h-1.4a.038.038,0,0,1-.037-.039v-2.024h1.5v-.4h-2l0,2.425a.435.435,0,0,0,.439.433h1.486a.9.9,0,0,0,.471-.105v1.4h.5v-3.049h.417v3.049h.5V381.44h-.5Z" transform="translate(-173.526 -381.44)" fill="#fff"/>
        </g>
        <path id="패스_73" data-name="패스 73" d="M150.441,397.357l1.268-1.393,1.118,1,.334-.367-1.117-1,1.266-1.388-.3-.269-2.869,3.15Z" transform="translate(-143.391 -385.777)" fill="#fff"/>
        <path id="패스_74" data-name="패스 74" d="M148.652,395.131a.443.443,0,0,0,.621-.032l1.6-1.753a.435.435,0,0,0-.032-.617l-1.252-1.122-.337.369.509.452-1.518,1.668-.509-.454-.333.366Zm1.406-2.433.446.4a.035.035,0,0,1,0,.052l-1.467,1.612a.038.038,0,0,1-.052,0l-.447-.4Z" transform="translate(-142.193 -384.757)" fill="#fff"/>
        <path id="패스_75" data-name="패스 75" d="M164.353,383.592l-.456.2,1.327,2.948.456-.2-.751-1.67.6-.267-.165-.365-.6.267Z" transform="translate(-149.403 -381.254)" fill="#fff"/>
        <path id="패스_76" data-name="패스 76" d="M162.679,391l-.493-1.1-.455.2.492,1.093a.441.441,0,0,0,.581.221l2.408-1.066-.165-.364-2.319,1.026A.038.038,0,0,1,162.679,391Z" transform="translate(-148.457 -384.014)" fill="#fff"/>
        <g id="그룹_5" data-name="그룹 5" transform="translate(12.111 3.331)">
          <path id="패스_77" data-name="패스 77" d="M160.682,385.752l-.177-.395-.456.2.178.394a1.591,1.591,0,0,1-.563,1.954l.445.169a2.1,2.1,0,0,0,.752-1.325,2.11,2.11,0,0,0,1.494.327l.171-.439A1.618,1.618,0,0,1,160.682,385.752Z" transform="translate(-159.664 -385.357)" fill="#fff"/>
        </g>
        <g id="그룹_6" data-name="그룹 6" transform="translate(33.309 6.764)">
          <path id="패스_78" data-name="패스 78" d="M200.684,395.44l-.337-.355-1.273,1.181-.412-.436,1.273-1.181-.336-.358-1.272,1.182-.719-.76-.29.271L200.169,398l.289-.269-1.048-1.111Z" transform="translate(-197.318 -392.694)" fill="#fff"/>
          <path id="패스_79" data-name="패스 79" d="M203.224,394.682a3.1,3.1,0,0,1-.935.63l.339.36a3.093,3.093,0,0,0,.933-.631l1.291-1.2,0,0h0l-2.254-2.388-.289.269,1.914,2.03Z" transform="translate(-199.49 -391.454)" fill="#fff"/>
        </g>
        <g id="그룹_7" data-name="그룹 7" transform="translate(27.886 2.366)">
          <path id="패스_80" data-name="패스 80" d="M194,387.128l.162-.368-.61-.261.4-.917-.458-.2-1.053,2.4.46.2.49-1.12Z" transform="translate(-189.765 -384.404)" fill="#fff"/>
          <path id="패스_81" data-name="패스 81" d="M190.743,389.357l-2.9-1.248-.16.369,2.44,1.049-.493,1.129.459.2.652-1.494h0Z" transform="translate(-187.684 -385.594)" fill="#fff"/>
          <path id="패스_82" data-name="패스 82" d="M191.114,384.838l-1.159-.5.2-.457-.461-.2-.2.457-1.157-.5-.162.37.564.243a.957.957,0,0,0-.471.476,1.075,1.075,0,0,0,.636,1.383,1.094,1.094,0,0,0,1.454-.483.953.953,0,0,0,.03-.668l.565.243Zm-2.047.907a.621.621,0,0,1-.334-.818.632.632,0,0,1,.832-.317.623.623,0,0,1,.334.819A.632.632,0,0,1,189.067,385.745Z" transform="translate(-187.899 -383.642)" fill="#fff"/>
        </g>
        <g id="그룹_8" data-name="그룹 8">
          <path id="패스_83" data-name="패스 83" d="M182.113,401.421a21.981,21.981,0,1,1-21.98-21.981A21.982,21.982,0,0,1,182.113,401.421Zm-21.98-21.68a21.68,21.68,0,1,0,21.68,21.68A21.68,21.68,0,0,0,160.133,379.741Z" transform="translate(-138.152 -379.44)" fill="#fff"/>
          <path id="패스_84" data-name="패스 84" d="M180.758,406.119a15.93,15.93,0,1,1-15.928-15.929A15.929,15.929,0,0,1,180.758,406.119ZM164.829,390.49a15.629,15.629,0,1,0,15.628,15.629A15.631,15.631,0,0,0,164.829,390.49Z" transform="translate(-142.848 -384.138)" fill="#fff"/>
        </g>
      </g>
      <g id="그룹_11" data-name="그룹 11" transform="translate(10.986 11.39)">
        <path id="패스_85" data-name="패스 85" d="M178.586,424.787l-7.394,0c-2.286.016-2.571,1.525-2.571,1.525-.468-1.709-2.669-1.525-2.669-1.525h-7.228v-10.6h6.968a3.051,3.051,0,0,1,2.936,1.878c.759-1.86,3.156-1.876,3.156-1.876h6.8Zm-7.274-11.656a3.022,3.022,0,0,0-2.671,1.254c-.646-1.248-2.6-1.25-2.6-1.25h-8.375v12.7h8.2c1.118,0,1.514.526,1.647.9h2.265a1.632,1.632,0,0,1,1.535-.9h8.338V413.13Z" transform="translate(-157.666 -405.553)" fill="#fff"/>
        <path id="패스_86" data-name="패스 86" d="M167.172,422.02h-3.055V425.1h4.2v-.01h0v-2.01h1.065V425.1h4.2v-2.019h1.062v2.015h4.2v-1.063h-3.048v-.954h3.05v-3.192h-4.2v2.133h-1.062v-2.133h-1.151v2.131h-1.9v-2.131h-1.146v2.133h-1.06v-2.133h-4.207v1.06h3.058Zm0,2.02h-1.909v-.962h1.909Zm5.259,0h-1.9v-.963h1.9Zm3.36-3.1h1.9v1.076h-1.9Z" transform="translate(-160.484 -408.505)" fill="#fff"/>
        <g id="그룹_10" data-name="그룹 10" transform="translate(0.003)">
          <path id="패스_87" data-name="패스 87" d="M176.068,402.425l1.017-.336h-1.017Z" transform="translate(-165.711 -400.728)" fill="#fff"/>
          <path id="패스_88" data-name="패스 88" d="M165.834,402.826c.374-.391.763-.341.763-.175a.7.7,0,0,1-.193.367h-2.41l-1.321-1.9h0a1.547,1.547,0,0,0-1.451-.7h-3.551v5.733c2.158,0,7.471-.006,8.095,0,2.391.022,2.859,1.041,2.859,1.041.5-.793,1.467-1.037,2.955-1.039h8.071l0-5.735h-3.6a1.544,1.544,0,0,0-1.446.7h0l-1.348,1.9h-2v-1.695l1.369-1.338h-1.413l.357-.313H168.7a1.3,1.3,0,0,0-1.2.562H166.5c-.928,0-1.266.523-1.077,1.209Zm12.755,2.266h-6.743c-1.8,0-2.636.122-3.208.743-.616-.6-1.1-.74-2.894-.74h-7.014v-3.623h2.2a1.078,1.078,0,0,1,.519.109,1.192,1.192,0,0,1,.364.315c.146.2,1.453,2.117,1.453,2.117h3.768s.351-.725.566-1.231.144-.869-.322-.9c-.394-.031-.64.063-.681.224l-.167-.571c-.1-.29-.029-.5.374-.5h1.221c0,.012.025-.4.7-.4h2.012l-.566.523v2.855h3.905s1.243-1.914,1.389-2.117a1.134,1.134,0,0,1,.363-.315,1.168,1.168,0,0,1,.518-.119h2.244Z" transform="translate(-157.672 -399.672)" fill="#fff"/>
        </g>
        <path id="패스_89" data-name="패스 89" d="M174.191,430.928a.664.664,0,0,0,.348-.28h.006v.905c0,.092-.008.164.079.221v.006h-.338v-.006c.1-.047.092-.123.092-.221v-.621h-.188Z" transform="translate(-164.888 -413.209)" fill="#fff"/>
        <path id="패스_90" data-name="패스 90" d="M175.526,431.749a.613.613,0,0,0,.5-.558.31.31,0,0,0-.28-.343.235.235,0,0,0-.237.242.246.246,0,0,0,.248.263.311.311,0,0,0,.171-.051l-.109.135a.4.4,0,0,1-.133.022.329.329,0,0,1-.339-.33.4.4,0,0,1,.421-.394.419.419,0,0,1,.421.442.626.626,0,0,1-.243.475.975.975,0,0,1-.5.2Z" transform="translate(-165.392 -413.246)" fill="#fff"/>
        <path id="패스_91" data-name="패스 91" d="M177.513,431.491c-.142,0-.258-.007-.346-.011l.346-.583Zm0,.128v.041c0,.083.01.141-.079.172v.006h.315v-.006c-.072-.034-.075-.11-.075-.18v-.033h.13l.078-.194a.319.319,0,0,1-.208.066v-.712h-.224l-.5.839Z" transform="translate(-166.092 -413.266)" fill="#fff"/>
        <path id="패스_92" data-name="패스 92" d="M179.479,430.829a.69.69,0,0,0-.318.171.529.529,0,0,0-.176.39.311.311,0,0,0,.284.345.224.224,0,0,0,.226-.245.237.237,0,0,0-.249-.267.343.343,0,0,0-.179.053l.1-.13a.339.339,0,0,1,.142-.031.328.328,0,0,1,.346.34.389.389,0,0,1-.408.387.431.431,0,0,1-.431-.449.752.752,0,0,1,.736-.663Z" transform="translate(-166.911 -413.245)" fill="#fff"/>
      </g>
    </g>
    <g id="그룹_14" data-name="그룹 14" transform="translate(189.762 411.032)">
      <g id="그룹_13" data-name="그룹 13" transform="translate(0 0)">
        <path id="패스_93" data-name="패스 93" d="M232.071,435.832c1.2,0,2.111.581,2.111,1.613a1.875,1.875,0,0,1-2.026,1.735,1.506,1.506,0,0,1-.673-.131,1.584,1.584,0,0,0,1.652-1.418c0-.81-.573-1.134-1.309-1.134a3.569,3.569,0,0,0-.645.056v4.156c0,.516-.009.883.478,1.16v.029h-1.833v-.029c.469-.168.414-.848.414-1.26v-3.474c0-.415.055-1.087-.4-1.271v-.031Z" transform="translate(-229.825 -435.677)" fill="#fff"/>
        <path id="패스_94" data-name="패스 94" d="M242.546,441.288a2.292,2.292,0,0,1-1.807.754,2.257,2.257,0,0,1-1.667-.643,2.4,2.4,0,0,1-.47-1.813v-2.463c0-.414.066-1.089-.405-1.261v-.031h1.749v.031c-.459.172-.4.846-.4,1.261v2.463c0,1.222.515,1.8,1.467,1.8a1.626,1.626,0,0,0,1.343-.646,1.215,1.215,0,0,0,.194-.841v-2.772c0-.414.056-1.089-.4-1.261v-.031h1.749l.008.031c-.466.172-.415.846-.415,1.271v3.474c0,.412-.051,1.085.415,1.26v.029h-1.352Z" transform="translate(-233.484 -435.677)" fill="#fff"/>
        <path id="패스_95" data-name="패스 95" d="M253.542,436.818a2.1,2.1,0,0,0-1.446-.576c-.526,0-1.192.2-1.192.835,0,1.262,3.17,1.243,3.17,2.948a2.243,2.243,0,0,1-2.468,1.9,4.8,4.8,0,0,1-1.648-.274l-.267-1.154a3.189,3.189,0,0,0,2.017.767c.528,0,1.322-.312,1.322-.961,0-1.435-3.172-1.178-3.172-3.131,0-1.158,1.19-1.6,2.313-1.6a4.524,4.524,0,0,1,1.372.2Z" transform="translate(-238.506 -435.565)" fill="#fff"/>
        <path id="패스_96" data-name="패스 96" d="M261.334,438.937h-1.813l.911-2.321Zm.269.685.5,1.3c.253.642.325.75-.126.949v.029h1.887v-.029a2.166,2.166,0,0,1-.9-1.31l-1.918-4.727h-1.458v.031c.445.136.27.528.14.856l-1.54,3.841a2.058,2.058,0,0,1-.893,1.31v.029h1.7v-.029c-.447-.168-.381-.435-.184-.949l.476-1.3Z" transform="translate(-241.828 -435.677)" fill="#fff"/>
        <path id="패스_97" data-name="패스 97" d="M270.332,440.7c0,.52-.013.886.477,1.172v.029h-1.63v-.029c.489-.286.489-.652.489-1.172v-3.677c0-.514,0-.882-.479-1.156v-.031h1.346v.011a.56.56,0,0,0,.138.227l.128.189,3.375,4.253v-3.493c0-.514.007-.882-.482-1.156v-.031h1.62v.031c-.477.274-.477.642-.477,1.156v5.173a2.551,2.551,0,0,1-1.345-1.051l-3.159-4.007Z" transform="translate(-247.023 -435.677)" fill="#fff"/>
        <path id="패스_98" data-name="패스 98" d="M287.007,440.7c0,.52-.011.886.476,1.172v.029h-1.63v-.029c.489-.286.489-.652.489-1.172v-3.677c0-.514,0-.882-.481-1.156v-.031h1.348v.011a.538.538,0,0,0,.139.227l.129.189,3.369,4.253v-3.493c0-.514.008-.882-.477-1.156v-.031h1.618v.031c-.476.274-.476.642-.476,1.156v5.173a2.529,2.529,0,0,1-1.347-1.051l-3.158-4.007Z" transform="translate(-254.31 -435.677)" fill="#fff"/>
        <path id="패스_99" data-name="패스 99" d="M300.668,438.937h-1.815l.91-2.321Zm.266.685.5,1.3c.249.642.322.75-.128.949v.029h1.888v-.029a2.156,2.156,0,0,1-.9-1.31l-1.917-4.727h-1.453v.031c.437.136.269.528.137.856l-1.541,3.841c-.2.526-.358,1.042-.893,1.31v.029h1.7v-.029c-.441-.168-.378-.435-.184-.949l.476-1.3Z" transform="translate(-259.016 -435.677)" fill="#fff"/>
        <path id="패스_100" data-name="패스 100" d="M309.711,440.647c0,.529-.007.886.479,1.172v.029h-1.821v-.029c.458-.176.4-.848.4-1.26v-4.112h-.81a1.6,1.6,0,0,0-1.1.372h-.031l.325-1.1h.029a1.31,1.31,0,0,0,.353.064h3.665a.988.988,0,0,0,.422-.064h.03l-.3,1.1h-.029c-.117-.322-.488-.372-.795-.372h-.828Z" transform="translate(-263.479 -435.627)" fill="#fff"/>
        <path id="패스_101" data-name="패스 101" d="M316.981,437.134c0-.425.065-1.1-.4-1.271v-.031h1.745v.031c-.458.172-.4.856-.4,1.271v3.474c0,.412-.054,1.085.4,1.26v.029H316.58v-.029c.452-.168.4-.848.4-1.26Z" transform="translate(-267.739 -435.677)" fill="#fff"/>
        <path id="패스_102" data-name="패스 102" d="M323.907,436.221a2.448,2.448,0,0,1,2.317,2.644,2.239,2.239,0,0,1-2.295,2.4,2.5,2.5,0,0,1-2.356-2.614A2.27,2.27,0,0,1,323.907,436.221Zm.065-.664a3.27,3.27,0,0,0-3.447,3.169,3.218,3.218,0,0,0,3.353,3.2,3.288,3.288,0,0,0,3.4-3.242A3.183,3.183,0,0,0,323.972,435.557Z" transform="translate(-269.463 -435.556)" fill="#fff"/>
        <path id="패스_103" data-name="패스 103" d="M334.179,440.7c0,.52-.012.886.479,1.172v.029h-1.626v-.029c.486-.286.486-.652.486-1.172v-3.677c0-.514,0-.882-.477-1.156v-.031h1.342v.011a.546.546,0,0,0,.136.227l.129.189,3.373,4.253v-3.493c0-.514.011-.882-.48-1.156v-.031h1.623v.031c-.476.274-.476.642-.476,1.156v5.173a2.55,2.55,0,0,1-1.347-1.051l-3.161-4.007Z" transform="translate(-274.928 -435.677)" fill="#fff"/>
        <path id="패스_104" data-name="패스 104" d="M347.775,438.937H345.96l.913-2.321Zm.27.685.5,1.3c.251.642.321.75-.125.949v.029H350.3v-.029a2.182,2.182,0,0,1-.9-1.31l-1.919-4.727h-1.456v.031c.445.136.27.528.142.856l-1.538,3.841a2.092,2.092,0,0,1-.889,1.31v.029h1.691v-.029c-.442-.168-.379-.435-.189-.949l.484-1.3Z" transform="translate(-279.607 -435.677)" fill="#fff"/>
        <path id="패스_105" data-name="패스 105" d="M358.587,441.234a2.267,2.267,0,0,0,1.631-.563h.028l-.475,1.227H355.98v-.029c.47-.168.415-.848.415-1.26v-3.474c0-.425.055-1.1-.415-1.271v-.031h1.76v.031c-.476.172-.4.856-.4,1.271v4.017Z" transform="translate(-284.957 -435.677)" fill="#fff"/>
        <path id="패스_106" data-name="패스 106" d="M372.409,441.288a2.293,2.293,0,0,1-1.805.754,2.256,2.256,0,0,1-1.667-.643,2.4,2.4,0,0,1-.473-1.813v-2.463c0-.414.067-1.089-.4-1.261v-.031h1.749v.031c-.455.172-.4.846-.4,1.261v2.463c0,1.222.513,1.8,1.466,1.8a1.642,1.642,0,0,0,1.348-.646,1.25,1.25,0,0,0,.19-.841v-2.772c0-.414.055-1.089-.407-1.261v-.031h1.749l.013.031c-.472.172-.414.846-.414,1.271v3.474c0,.412-.058,1.085.414,1.26v.029h-1.355Z" transform="translate(-290.236 -435.677)" fill="#fff"/>
        <path id="패스_107" data-name="패스 107" d="M380.811,440.7c0,.52-.016.886.475,1.172v.029h-1.632v-.029c.491-.286.491-.652.491-1.172v-3.677c0-.514,0-.882-.48-1.156v-.031h1.346v.011a.517.517,0,0,0,.136.227l.134.189,3.366,4.253v-3.493c0-.514.014-.882-.475-1.156v-.031h1.62v.031c-.477.274-.477.642-.477,1.156v5.173a2.545,2.545,0,0,1-1.345-1.051l-3.158-4.007Z" transform="translate(-295.303 -435.677)" fill="#fff"/>
        <path id="패스_108" data-name="패스 108" d="M392.632,437.134c0-.425.067-1.1-.409-1.271v-.031h1.758v.031c-.463.172-.406.856-.406,1.271v3.474c0,.412-.057,1.085.406,1.26v.029h-1.758v-.029c.471-.168.409-.848.409-1.26Z" transform="translate(-300.796 -435.677)" fill="#fff"/>
        <path id="패스_109" data-name="패스 109" d="M400.244,437.5c.248-.654.56-1.41-.009-1.638v-.031h1.373l-2.434,6.343c-.64-.427-.855-.5-1.123-1.228l-1.393-3.768a2.763,2.763,0,0,0-.718-1.316v-.031h1.348l-.01.113a3.6,3.6,0,0,0,.251.859l1.46,4Z" transform="translate(-302.42 -435.677)" fill="#fff"/>
        <path id="패스_110" data-name="패스 110" d="M408.121,441.087l1.171.113a2.294,2.294,0,0,0,1.7-.547h.029l-.417,1.211h-3.84v-.029c.472-.168.417-.848.417-1.26V437.1c0-.425.056-1.1-.417-1.271V435.8h2.948a.934.934,0,0,0,.434-.044h.03v1.081h-.03a1.281,1.281,0,0,0-1.087-.372,4.99,4.99,0,0,0-.938.066v1.715h1.093a.909.909,0,0,0,.4-.057h.025v.98h-.025c-.146-.267-.534-.262-.818-.262h-.68Z" transform="translate(-307.151 -435.642)" fill="#fff"/>
        <path id="패스_111" data-name="패스 111" d="M417.271,435.832c1.23,0,1.905.646,1.905,1.486a1.789,1.789,0,0,1-1.462,1.619l1.328,1.671a6.541,6.541,0,0,0,1.491,1.29h-.849a1.215,1.215,0,0,1-1.07-.464l-1.124-1.391-.848-1.3c.737-.112,1.594-.45,1.594-1.32a1.055,1.055,0,0,0-1.185-1.019,4.3,4.3,0,0,0-.628.072v4.13c0,.421-.059,1.093.412,1.26v.029h-1.758v-.029c.471-.168.4-.848.4-1.26v-3.474c0-.425.072-1.1-.4-1.271v-.031Z" transform="translate(-310.784 -435.677)" fill="#fff"/>
        <path id="패스_112" data-name="패스 112" d="M427.817,436.818a2.111,2.111,0,0,0-1.454-.576c-.521,0-1.185.2-1.185.835,0,1.262,3.175,1.243,3.175,2.948a2.248,2.248,0,0,1-2.472,1.9,4.8,4.8,0,0,1-1.653-.274l-.269-1.154a3.2,3.2,0,0,0,2.02.767c.526,0,1.321-.312,1.321-.961,0-1.435-3.174-1.178-3.174-3.131,0-1.158,1.188-1.6,2.312-1.6a4.565,4.565,0,0,1,1.379.2Z" transform="translate(-314.665 -435.565)" fill="#fff"/>
        <path id="패스_113" data-name="패스 113" d="M433.38,437.134c0-.425.069-1.1-.4-1.271v-.031h1.747v.031c-.458.172-.4.856-.4,1.271v3.474c0,.412-.058,1.085.4,1.26v.029h-1.747v-.029c.459-.168.4-.848.4-1.26Z" transform="translate(-318.606 -435.677)" fill="#fff"/>
        <path id="패스_114" data-name="패스 114" d="M439.687,440.647c0,.529-.006.886.482,1.172v.029h-1.827v-.029c.462-.176.4-.848.4-1.26v-4.112h-.81a1.591,1.591,0,0,0-1.1.372h-.03l.324-1.1h.029a1.343,1.343,0,0,0,.348.064h3.669a1.012,1.012,0,0,0,.427-.064h.024l-.292,1.1h-.028c-.12-.322-.495-.372-.792-.372h-.834Z" transform="translate(-320.282 -435.627)" fill="#fff"/>
        <path id="패스_115" data-name="패스 115" d="M447.756,440.7c0,.558,0,.83.471,1.172v.029h-1.8v-.029c.451-.23.383-.826.383-1.26v-1.366l-1.527-2.459a2.236,2.236,0,0,0-.878-.952h.84a.791.791,0,0,1,.69.26l1.473,2.4,1.142-1.712c.16-.231.373-.671-.144-.921v-.031h1.611l-2.264,3.411Z" transform="translate(-323.602 -435.677)" fill="#fff"/>
      </g>
    </g>
    <g id="그룹_23" data-name="그룹 23" transform="translate(189.757 385.346)">
      <g id="그룹_16" data-name="그룹 16" transform="translate(54.072 0.463)">
        <g id="그룹_15" data-name="그룹 15">
          <path id="패스_116" data-name="패스 116" d="M341.32,395.461h-1.936v-4.708h-2.33v12.2a3.077,3.077,0,0,1-2.142.806h-6.546a.174.174,0,0,1-.171-.176v-9.533h7.013v-1.886h-9.346l0,11.42a2.042,2.042,0,0,0,2.055,2.036h6.937a4.147,4.147,0,0,0,2.2-.5v6.567h2.33v-14.35h1.936v14.35h2.328v-20.94H341.32Z" transform="translate(-325.861 -390.753)" fill="#fff"/>
        </g>
      </g>
      <g id="그룹_17" data-name="그룹 17" transform="translate(0 0.643)">
        <path id="패스_117" data-name="패스 117" d="M229.816,414.007h8.837v7.02h2.331v-7.02h8.806v-1.881H229.816Z" transform="translate(-229.816 -400.274)" fill="#fff"/>
        <path id="패스_118" data-name="패스 118" d="M236.078,401.006H247.2a2.054,2.054,0,0,0,2.055-2.055l0-7.878h-2.328l0,3.188H236.354v-3.188h-2.331l0,7.878A2.053,2.053,0,0,0,236.078,401.006Zm10.848-4.865,0,2.812a.173.173,0,0,1-.173.174H236.528a.172.172,0,0,1-.172-.174l0-2.812Z" transform="translate(-231.654 -391.073)" fill="#fff"/>
      </g>
      <g id="그룹_19" data-name="그룹 19" transform="translate(25.188 0.456)">
        <path id="패스_119" data-name="패스 119" d="M306.323,390.74h-2.331v15.2h2.331v-8.605h3.09v-1.881h-3.09Z" transform="translate(-287.42 -390.74)" fill="#fff"/>
        <path id="패스_120" data-name="패스 120" d="M284.972,419.411l0-5.642h-2.327l0,5.642a2.055,2.055,0,0,0,2.054,2.05H297v-1.876h-11.85A.173.173,0,0,1,284.972,419.411Z" transform="translate(-278.089 -400.804)" fill="#fff"/>
        <g id="그룹_18" data-name="그룹 18" transform="translate(0 0.472)">
          <path id="패스_121" data-name="패스 121" d="M283.038,393.608v-2.03h-2.327v2.03c0,6.015-5.76,7.251-6.155,7.329l1.568,1.571c1.389-.431,4.365-1.631,5.751-4.261,1.382,2.621,4.345,3.821,5.736,4.256l1.569-1.568C288.7,400.837,283.038,399.571,283.038,393.608Z" transform="translate(-274.556 -391.578)" fill="#fff"/>
        </g>
      </g>
      <g id="그룹_21" data-name="그룹 21" transform="translate(106.032 1.423)">
        <g id="그룹_20" data-name="그룹 20">
          <path id="패스_122" data-name="패스 122" d="M430.464,406.6h-2.3v8.137h-2.809V406.6h-2.3v8.137h-4.9v1.86h19.471v-1.86h-7.164Z" transform="translate(-418.156 -398.638)" fill="#fff"/>
          <path id="패스_123" data-name="패스 123" d="M434.884,400.711a14.4,14.4,0,0,1-.819,5.217h2.329a14.669,14.669,0,0,0,.8-5.217v-8.25h-.005v0H421.8v1.857h13.087Z" transform="translate(-419.747 -392.458)" fill="#fff"/>
        </g>
      </g>
      <g id="그룹_22" data-name="그룹 22" transform="translate(79.09)">
        <path id="패스_124" data-name="패스 124" d="M400.964,395.457v-4.7h-2.336V403.09h2.336v-5.745h3.1v-1.888Z" transform="translate(-382.681 -390.29)" fill="#fff"/>
        <path id="패스_125" data-name="패스 125" d="M391.32,414.313H376.566V416.2h12.421v5.785h2.336v-7.663h0Z" transform="translate(-373.039 -400.586)" fill="#fff"/>
        <path id="패스_126" data-name="패스 126" d="M382.681,397.109a4.472,4.472,0,0,0-1.117-2.935h2.874v-1.9h-5.9v-2.346H376.2v2.346h-5.9v1.9h2.873a4.477,4.477,0,0,0-1.123,2.935,5.344,5.344,0,0,0,10.63,0Zm-8.276-.019A2.964,2.964,0,1,1,377.368,400,2.936,2.936,0,0,1,374.4,397.09Z" transform="translate(-370.301 -389.931)" fill="#fff"/>
      </g>
    </g>
  </g>
</svg>
