<svg xmlns="http://www.w3.org/2000/svg" viewBox="0 0 14 14"><defs><style>.cls-1{fill:#4aa4a4;}</style></defs><title>check</title><g id="레이어_2" data-name="레이어 2"><g id="_02_my_P2P" data-name="02_my P2P"><path class="cls-1" d="M11.84,3H11V2.16A2.16,2.16,0,0,0,8.84,0H2.16A2.16,2.16,0,0,0,0,2.16V8.84A2.16,2.16,0,0,0,2.16,11H3v.84A2.16,2.16,0,0,0,5.16,14h6.68A2.16,2.16,0,0,0,14,11.84V5.16A2.16,2.16,0,0,0,11.84,3ZM3,5.16V9.5H2.16a.65.65,0,0,1-.66-.66V2.16a.65.65,0,0,1,.66-.66H8.84a.65.65,0,0,1,.66.66V3H5.16A2.16,2.16,0,0,0,3,5.16Zm9.5,6.68a.65.65,0,0,1-.66.66H5.16a.65.65,0,0,1-.66-.66V5.16a.65.65,0,0,1,.66-.66h6.68a.65.65,0,0,1,.66.66Z"/></g></g></svg>