<svg xmlns="http://www.w3.org/2000/svg" viewBox="0 0 75.8 76.95"><defs><style>.cls-1{fill:#fff;}.cls-1,.cls-3,.cls-4{stroke:#28283c;}.cls-1,.cls-2,.cls-3{stroke-linecap:round;}.cls-1,.cls-2,.cls-3,.cls-4{stroke-linejoin:round;stroke-width:1.5px;}.cls-2,.cls-3,.cls-4{fill:none;}.cls-2{stroke:#62cccc;}</style></defs><title>icon_otp</title><g id="레이어_2" data-name="레이어 2"><g id="_03_lock" data-name="03_lock"><path class="cls-1" d="M51.6.82C51.56,17.08,66.42,15,66.42,15,76.12,54.18,38.15,71.81,37.3,72.2c0,0-38.84-17.76-28.84-57.34,0,0,14.84,2.16,14.88-14.11Z"/><path class="cls-2" d="M75.05,32.05a40.36,40.36,0,0,1-6.26,20.42"/><path class="cls-2" d="M65.24,58a53.93,53.93,0,0,1-4.39,5.17"/><path class="cls-3" d="M45.46,10.7C48,22,58.2,20.87,58.2,20.87c7,28.1-20.26,40.74-20.87,41,0,0-27.85-12.73-20.69-41.11,0,0,10.9.49,12.8-10.12Z"/><path class="cls-2" d="M7,54.52A51.32,51.32,0,0,1,.75,39.09"/><path class="cls-2" d="M13.3,63.12c-1-1.09-1.92-2.25-2.85-3.47"/><path class="cls-2" d="M20.08,69.74c-1.13-1-2.32-2-3.53-3.21"/><path class="cls-2" d="M29.3,76.2a48.78,48.78,0,0,1-5.37-3.45"/><path class="cls-4" d="M34.87,44a3,3,0,0,1-2.21-1l-5.85-6.5a3,3,0,1,1,4.42-4l3.92,4.35,10.79-9.18a3,3,0,0,1,3.86,4.54l-13,11A3,3,0,0,1,34.87,44Z"/></g></g></svg>