<svg xmlns="http://www.w3.org/2000/svg" viewBox="0 0 32.33301 23"><defs><style>.cls-1{fill:#a0a0a0;}</style></defs><title>level_icon1_b</title><g id="레이어_2" data-name="레이어 2"><g id="레이어_1-2" data-name="레이어 1"><path class="cls-1" d="M27.333,0H5A5.00588,5.00588,0,0,0,0,5V18a5.00588,5.00588,0,0,0,5,5H27.333a5.00589,5.00589,0,0,0,5-5V5A5.00589,5.00589,0,0,0,27.333,0ZM5,2H27.333a3.00328,3.00328,0,0,1,3,3v.09088L19.0083,14.103a4.06446,4.06446,0,0,1-4.98535.062L2,5.0755V5A3.00328,3.00328,0,0,1,5,2ZM27.333,21H5a3.00328,3.00328,0,0,1-3-3V7.583l10.81689,8.17773a6.0637,6.0637,0,0,0,7.43653-.09277L30.333,7.64667V18A3.00328,3.00328,0,0,1,27.333,21Z"/></g></g></svg>