<svg xmlns="http://www.w3.org/2000/svg" width="93" height="93" viewBox="0 0 93 93">
  <g id="empty_order" transform="translate(-1021 -741)">
    <path id="패스_177" data-name="패스 177" d="M46.5,0A46.5,46.5,0,1,1,0,46.5,46.5,46.5,0,0,1,46.5,0Z" transform="translate(1021 741)" fill="#f9f5fd"/>
    <circle id="타원_125" data-name="타원 125" cx="36.344" cy="36.344" r="36.344" transform="translate(1031.001 751)" fill="#f2e8f9"/>
    <g id="그룹_3704" data-name="그룹 3704" transform="translate(1047.537 771.02)">
      <path id="패스_163" data-name="패스 163" d="M7.658,6.366H3.808A2.555,2.555,0,0,1,1.25,3.808h0A2.559,2.559,0,0,1,3.808,1.25H35.382A2.559,2.559,0,0,1,37.94,3.808h0a2.559,2.559,0,0,1-2.558,2.558H31.648" fill="none" stroke="#fff" stroke-linecap="round" stroke-linejoin="round" stroke-miterlimit="10" stroke-width="2.5"/>
      <path id="패스_164" data-name="패스 164" d="M11.94,29.74V1.25h22.8V29.74" transform="translate(-3.749)" fill="none" stroke="#fff" stroke-linecap="round" stroke-linejoin="round" stroke-miterlimit="10" stroke-width="2.5"/>
      <g id="그룹_3696" data-name="그룹 3696" transform="translate(8.307 29.792)">
        <path id="패스_165" data-name="패스 165" d="M12.12,45.21l2.259,1.35,2.253-1.35,2.253,1.35,2.259-1.35L23.4,46.56l2.253-1.35,2.259,1.35,2.253-1.35,2.259,1.35,2.266-1.35" transform="translate(-12.12 -45.21)" fill="none" stroke="#fff" stroke-linecap="round" stroke-linejoin="round" stroke-miterlimit="10" stroke-width="2.5"/>
      </g>
      <line id="선_471" data-name="선 471" x2="12.907" transform="translate(13.138 8.554)" fill="#fff" stroke="#fff" stroke-linecap="round" stroke-linejoin="round" stroke-miterlimit="10" stroke-width="2.5"/>
      <line id="선_472" data-name="선 472" x2="12.907" transform="translate(13.138 14.398)" fill="#fff" stroke="#fff" stroke-linecap="round" stroke-linejoin="round" stroke-miterlimit="10" stroke-width="2.5"/>
      <line id="선_473" data-name="선 473" x2="12.907" transform="translate(13.138 20.241)" fill="#fff" stroke="#fff" stroke-linecap="round" stroke-linejoin="round" stroke-miterlimit="10" stroke-width="2.5"/>
    </g>
    <circle id="타원_127" data-name="타원 127" cx="13.775" cy="13.775" r="13.775" transform="translate(1075.25 788.387)" fill="#fff" stroke="#ead9f5" stroke-miterlimit="10" stroke-width="2"/>
    <g id="그룹_3690" data-name="그룹 3690" transform="translate(1084.204 797.34)">
      <line id="선_468" data-name="선 468" x2="9.645" y2="9.645" fill="none" stroke="#ead9f5" stroke-linecap="round" stroke-miterlimit="10" stroke-width="2"/>
      <line id="선_469" data-name="선 469" x1="9.645" y2="9.645" fill="none" stroke="#ead9f5" stroke-linecap="round" stroke-miterlimit="10" stroke-width="2"/>
    </g>
    <line id="선_470" data-name="선 470" x2="4.326" y2="4.326" transform="translate(1098.954 811.115)" fill="none" stroke="#ead9f5" stroke-miterlimit="10" stroke-width="2"/>
    <path id="패스_160" data-name="패스 160" d="M57.134,53.091l1.507-1.507a2.247,2.247,0,0,0,0-3.191L54.528,44.28a2.247,2.247,0,0,0-3.191,0L49.83,45.787a2.247,2.247,0,0,0,0,3.191l4.113,4.113A2.247,2.247,0,0,0,57.134,53.091Z" transform="translate(1052.971 770.683)" fill="#fff" stroke="#ead9f5" stroke-miterlimit="10" stroke-width="2"/>
  </g>
</svg>
