<svg xmlns="http://www.w3.org/2000/svg" width="93" height="93" viewBox="0 0 93 93">
  <g id="empty_like" transform="translate(-1021 -741)">
    <circle id="타원_126" data-name="타원 126" cx="46.5" cy="46.5" r="46.5" transform="translate(1021 741)" fill="#f9f5fd"/>
    <circle id="타원_125" data-name="타원 125" cx="36.344" cy="36.344" r="36.344" transform="translate(1031.001 751.156)" fill="#f2e8f9"/>
    <g id="btn_heart-off" transform="translate(1048.37 749.465)" fill="none" stroke-linejoin="round">
      <path d="M19.525,58.519l-2.734-2.9C6.639,46.089,0,39.667,0,31.794,0,25.372,4.686,20.4,10.739,20.4a11.472,11.472,0,0,1,8.786,4.351A11.472,11.472,0,0,1,28.312,20.4c6.053,0,10.739,4.972,10.739,11.394,0,7.872-6.639,14.295-16.792,23.824Z" stroke="none"/>
      <path d="M 19.5254077911377 54.87406539916992 L 20.43965721130371 53.90402984619141 C 20.47467803955078 53.86687850952148 20.51082801818848 53.830810546875 20.54804801940918 53.79586029052734 C 25.81465721130371 48.85263824462891 29.7537670135498 45.08102035522461 32.48596954345703 41.55400085449219 C 35.29717636108398 37.92499160766602 36.55081939697266 34.91497802734375 36.55081939697266 31.79429054260254 C 36.55081939697266 29.32819938659668 35.69174957275391 27.05855941772461 34.1318473815918 25.40348052978516 C 32.61029815673828 23.7890796661377 30.54337692260742 22.89999008178711 28.31183815002441 22.89999008178711 C 25.77485847473145 22.89999008178711 23.15703773498535 24.20635986328125 21.47996711730957 26.30928993225098 C 21.00561714172363 26.90410995483398 20.28620719909668 27.25054931640625 19.5254077911377 27.25054931640625 C 18.76460838317871 27.25054931640625 18.04520797729492 26.90410995483398 17.57084846496582 26.30929946899414 C 15.89376735687256 24.20635986328125 13.27594757080078 22.89999008178711 10.73897743225098 22.89999008178711 C 8.507437705993652 22.89999008178711 6.440517902374268 23.7890796661377 4.918967723846436 25.40348052978516 C 3.359067678451538 27.05855941772461 2.499997854232788 29.32819938659668 2.499997854232788 31.79429054260254 C 2.499997854232788 34.91497802734375 3.753637790679932 37.92499160766602 6.564847946166992 41.55400085449219 C 9.29704761505127 45.08102035522461 13.23615741729736 48.85263824462891 18.50276756286621 53.79586029052734 C 18.53998756408691 53.830810546875 18.57613754272461 53.86687850952148 18.61115837097168 53.90402984619141 L 19.5254077911377 54.87406539916992 M 19.5254077911377 58.51906967163086 L 16.79184722900391 55.61870956420898 C 6.638638019561768 46.08893966674805 -2.208862269981182e-06 39.66669845581055 -2.208862269981182e-06 31.79429054260254 C -2.208862269981182e-06 25.37204933166504 4.686097621917725 20.39999008178711 10.73897743225098 20.39999008178711 C 14.05829811096191 20.39999008178711 17.37760734558105 22.05735969543457 19.5254077911377 24.75054931640625 C 21.67319869995117 22.05735969543457 24.99251747131348 20.39999008178711 28.31183815002441 20.39999008178711 C 34.36470794677734 20.39999008178711 39.05081939697266 25.37204933166504 39.05081939697266 31.79429054260254 C 39.05081939697266 39.66669845581055 32.41217803955078 46.08893966674805 22.25896835327148 55.61870956420898 L 19.5254077911377 58.51906967163086 Z" stroke="none" fill="#fff"/>
    </g>
    <circle id="타원_127" data-name="타원 127" cx="13.775" cy="13.775" r="13.775" transform="translate(1075.25 788.387)" fill="#fff" stroke="#ead9f5" stroke-miterlimit="10" stroke-width="2"/>
    <g id="그룹_3690" data-name="그룹 3690" transform="translate(1084.204 797.34)">
      <line id="선_468" data-name="선 468" x2="9.645" y2="9.645" fill="none" stroke="#ead9f5" stroke-linecap="round" stroke-miterlimit="10" stroke-width="2"/>
      <line id="선_469" data-name="선 469" x1="9.645" y2="9.645" fill="none" stroke="#ead9f5" stroke-linecap="round" stroke-miterlimit="10" stroke-width="2"/>
    </g>
    <line id="선_470" data-name="선 470" x2="4.326" y2="4.326" transform="translate(1098.954 811.115)" fill="none" stroke="#ead9f5" stroke-miterlimit="10" stroke-width="2"/>
    <path id="패스_160" data-name="패스 160" d="M57.134,53.091l1.507-1.507a2.247,2.247,0,0,0,0-3.191L54.528,44.28a2.247,2.247,0,0,0-3.191,0L49.83,45.787a2.247,2.247,0,0,0,0,3.191l4.113,4.113A2.247,2.247,0,0,0,57.134,53.091Z" transform="translate(1052.971 770.683)" fill="#fff" stroke="#ead9f5" stroke-miterlimit="10" stroke-width="2"/>
  </g>
</svg>
