<svg xmlns="http://www.w3.org/2000/svg" xmlns:xlink="http://www.w3.org/1999/xlink" width="37.245" height="29.094" viewBox="0 0 37.245 29.094">
  <defs>
    <linearGradient id="linear-gradient" x1="0.5" x2="0.5" y2="1" gradientUnits="objectBoundingBox">
      <stop offset="0" stop-color="#ff7ec4"/>
      <stop offset="1" stop-color="#ffb047"/>
    </linearGradient>
  </defs>
  <path id="icon_id" d="M-18-2.691a3.137,3.137,0,0,0,.878,2.321A3.137,3.137,0,0,0-14.8.507a3.122,3.122,0,0,0,2.34-.878A3.177,3.177,0,0,0-11.6-2.691v-22.7a3.177,3.177,0,0,0-.858-2.321,3.122,3.122,0,0,0-2.34-.877,3.137,3.137,0,0,0-2.32.877A3.137,3.137,0,0,0-18-25.389ZM-5.674-3.744A3.725,3.725,0,0,0-4.719-.858,4.045,4.045,0,0,0-1.93,0H5.753q6.4,0,9.945-3.686T19.247-14.04a18.887,18.887,0,0,0-1.053-6.728,10.627,10.627,0,0,0-2.905-4.348A11.069,11.069,0,0,0,11.057-27.4,18.752,18.752,0,0,0,5.87-28.08h-7.8a4.045,4.045,0,0,0-2.788.858,3.725,3.725,0,0,0-.956,2.886Zm6.4-19.188H6.065a5.885,5.885,0,0,1,5.109,2.32,11.083,11.083,0,0,1,1.677,6.572,15.151,15.151,0,0,1-.351,3.3A8.913,8.913,0,0,1,11.349-7.9,5.885,5.885,0,0,1,9.243-5.889,6.267,6.267,0,0,1,6.1-5.148H.722Z" transform="translate(17.998 28.587)" fill="url(#linear-gradient)"/>
</svg>
