<svg xmlns="http://www.w3.org/2000/svg" width="29.752" height="21.251" viewBox="0 0 29.752 21.251">
  <g id="icon_order" transform="translate(-0.5 -0.5)">
    <path id="패스_76" data-name="패스 76" d="M29.5,3.22a1.971,1.971,0,0,1-1.97,1.97H3.22A1.968,1.968,0,0,1,1.25,3.22h0A1.971,1.971,0,0,1,3.22,1.25H27.537A1.967,1.967,0,0,1,29.5,3.22Z" fill="none" stroke="#3a3a3a" stroke-linecap="round" stroke-linejoin="round" stroke-miterlimit="10" stroke-width="1.5"/>
    <path id="패스_77" data-name="패스 77" d="M11.94,19.921V1.25H29.5V19.921" transform="translate(-5.345)" fill="#fff" stroke="#3a3a3a" stroke-linecap="round" stroke-linejoin="round" stroke-miterlimit="10" stroke-width="1.5"/>
    <g id="그룹_419" data-name="그룹 419" transform="translate(6.685 19.961)">
      <path id="패스_78" data-name="패스 78" d="M12.12,45.21l1.74,1.04L15.6,45.21l1.735,1.04,1.74-1.04,1.735,1.04,1.735-1.04,1.74,1.04,1.735-1.04,1.74,1.04L29.5,45.21" transform="translate(-12.12 -45.21)" fill="none" stroke="#3a3a3a" stroke-linecap="round" stroke-linejoin="round" stroke-miterlimit="10" stroke-width="1.5"/>
    </g>
    <line id="선_238" data-name="선 238" x2="9.941" transform="translate(10.406 6.023)" fill="#fff" stroke="#3a3a3a" stroke-linecap="round" stroke-linejoin="round" stroke-miterlimit="10" stroke-width="1.5"/>
    <line id="선_239" data-name="선 239" x2="9.941" transform="translate(10.406 10.523)" fill="#fff" stroke="#3a3a3a" stroke-linecap="round" stroke-linejoin="round" stroke-miterlimit="10" stroke-width="1.5"/>
    <line id="선_240" data-name="선 240" x2="9.941" transform="translate(10.406 15.023)" fill="#fff" stroke="#3a3a3a" stroke-linecap="round" stroke-linejoin="round" stroke-miterlimit="10" stroke-width="1.5"/>
  </g>
</svg>
