<svg xmlns="http://www.w3.org/2000/svg" width="56.285" height="48.412" viewBox="0 0 56.285 48.412">
  <g id="icon_share_blog" transform="translate(-910.955 -778.02)">
    <rect id="사각형_1179" data-name="사각형 1179" width="47.415" height="26.049" transform="translate(914.854 784.976)" fill="#fff"/>
    <path id="패스_206" data-name="패스 206" d="M923.238,797.284a1.938,1.938,0,1,0,1.939,1.938A1.938,1.938,0,0,0,923.238,797.284Z" fill="#5dad32"/>
    <circle id="타원_130" data-name="타원 130" cx="2.087" cy="2.087" r="2.087" transform="translate(940.295 797.082)" fill="#5dad32"/>
    <path id="패스_207" data-name="패스 207" d="M959.712,778.02H918.485a7.529,7.529,0,0,0-7.529,7.529v24.468a7.53,7.53,0,0,0,7.529,7.53h14.561L938,825.42s.34,1.012,1.166,1.012h0c.826,0,1.166-1.012,1.166-1.012l4.953-7.873h14.428a7.53,7.53,0,0,0,7.529-7.53V785.549A7.529,7.529,0,0,0,959.712,778.02Zm-31.073,21.629c-.024,4.472-4.648,4.6-4.648,4.6a3.868,3.868,0,0,1-2.8-1.186v.806h-3.367V789.981c-.015,0-.015-.005,0-.008v.008c.208.033,3.367-.008,3.367-.008v5.312c.793-1.35,3.083-1.328,3.083-1.328C929.262,794.422,928.639,799.649,928.639,799.649Zm5.929-5.265v9.51h-3.3v-9.415c0-1.281-1.589-1.636-1.589-1.636v-3.321C934.947,789.736,934.568,794.384,934.568,794.384Zm7.814,9.872a5.1,5.1,0,1,1,5.526-5.087A5.32,5.32,0,0,1,942.382,804.256Zm18.06,0s.047,4.832-4.862,4.832h-1.494v-3.131h.9s2.063.19,2.039-2.988c0,0-.4,1.287-3.3,1.287,0,0-4.1-.3-4.1-4.3v-1.518a4.688,4.688,0,0,1,4.6-4.482,3.355,3.355,0,0,1,2.87,1.281v-1.02h3.344Z" fill="#5dad32"/>
    <circle id="타원_131" data-name="타원 131" cx="2.04" cy="2.04" r="2.04" transform="translate(953.161 797.129)" fill="#5dad32"/>
  </g>
</svg>
