<svg xmlns="http://www.w3.org/2000/svg" xmlns:xlink="http://www.w3.org/1999/xlink" width="95" height="62.035" viewBox="0 0 95 62.035">
  <defs>
    <linearGradient id="linear-gradient" x1="0.853" y1="0.854" x2="0.144" y2="0.189" gradientUnits="objectBoundingBox">
      <stop offset="0" stop-color="#a134e8"/>
      <stop offset="1" stop-color="#3482e8"/>
    </linearGradient>
  </defs>
  <g id="icon_complete" transform="translate(-414 -192.482)">
    <path id="패스_131" data-name="패스 131" d="M31.018,0A31.018,31.018,0,1,1,0,31.018,31.018,31.018,0,0,1,31.018,0Z" transform="translate(430.482 192.482)" fill="url(#linear-gradient)"/>
    <circle id="타원_102" data-name="타원 102" cx="6" cy="6" r="6" transform="translate(428 201)" fill="none" stroke="#94c2ff" stroke-width="1.5" opacity="0.7"/>
    <g id="타원_107" data-name="타원 107" transform="translate(414 214)" fill="none" stroke="#3482e8" stroke-width="1.5">
      <circle cx="5" cy="5" r="5" stroke="none"/>
      <circle cx="5" cy="5" r="4.25" fill="none"/>
    </g>
    <g id="타원_103" data-name="타원 103" transform="translate(499 226)" fill="none" stroke="#ad38d4" stroke-width="1.5">
      <circle cx="5" cy="5" r="5" stroke="none"/>
      <circle cx="5" cy="5" r="4.25" fill="none"/>
    </g>
    <circle id="타원_104" data-name="타원 104" cx="2.5" cy="2.5" r="2.5" transform="translate(420 233)" fill="#546ce8"/>
    <circle id="타원_105" data-name="타원 105" cx="2.5" cy="2.5" r="2.5" transform="translate(492 202)" fill="#7455e8"/>
    <circle id="타원_106" data-name="타원 106" cx="5" cy="5" r="5" transform="translate(483 234)" fill="#d492ff" opacity="0.5"/>
    <circle id="타원_108" data-name="타원 108" cx="3.5" cy="3.5" r="3.5" transform="translate(458 235)" fill="#fff"/>
    <path id="패스_136" data-name="패스 136" d="M.45,4.375a7.1,7.1,0,1,1,9.012,9.793,4.319,4.319,0,0,0-2.7,4.017v2.947" transform="translate(454.551 208.001)" fill="none" stroke="#fff" stroke-linecap="round" stroke-miterlimit="10" stroke-width="5"/>
  </g>
</svg>
