<svg xmlns="http://www.w3.org/2000/svg" width="91" height="14.328" viewBox="0 0 91 14.328">
  <g id="icon_star_04" transform="translate(-907.138 -937.999)">
    <path id="icon_review" d="M8.5.808l1.887,3.83a.558.558,0,0,0,.414.3l4.227.613a.552.552,0,0,1,.3.944L12.27,9.478a.557.557,0,0,0-.16.491l.723,4.211a.55.55,0,0,1-.8.579l-3.78-1.987a.561.561,0,0,0-.513,0l-3.78,1.987a.551.551,0,0,1-.8-.579l.723-4.211a.547.547,0,0,0-.16-.491L.664,6.5a.554.554,0,0,1,.3-.944L5.2,4.942a.571.571,0,0,0,.419-.3L7.508.808A.548.548,0,0,1,8.5.808Z" transform="translate(906.641 937.502)" fill="#ffd600"/>
    <path id="icon_review-2" data-name="icon_review" d="M8.5.808l1.887,3.83a.558.558,0,0,0,.414.3l4.227.613a.552.552,0,0,1,.3.944L12.27,9.478a.557.557,0,0,0-.16.491l.723,4.211a.55.55,0,0,1-.8.579l-3.78-1.987a.561.561,0,0,0-.513,0l-3.78,1.987a.551.551,0,0,1-.8-.579l.723-4.211a.547.547,0,0,0-.16-.491L.664,6.5a.554.554,0,0,1,.3-.944L5.2,4.942a.571.571,0,0,0,.419-.3L7.508.808A.548.548,0,0,1,8.5.808Z" transform="translate(925.641 937.502)" fill="#ffd600"/>
    <path id="icon_review-3" data-name="icon_review" d="M8.5.808l1.887,3.83a.558.558,0,0,0,.414.3l4.227.613a.552.552,0,0,1,.3.944L12.27,9.478a.557.557,0,0,0-.16.491l.723,4.211a.55.55,0,0,1-.8.579l-3.78-1.987a.561.561,0,0,0-.513,0l-3.78,1.987a.551.551,0,0,1-.8-.579l.723-4.211a.547.547,0,0,0-.16-.491L.664,6.5a.554.554,0,0,1,.3-.944L5.2,4.942a.571.571,0,0,0,.419-.3L7.508.808A.548.548,0,0,1,8.5.808Z" transform="translate(944.641 937.502)" fill="#ffd600"/>
    <path id="icon_review-4" data-name="icon_review" d="M8.5.808l1.887,3.83a.558.558,0,0,0,.414.3l4.227.613a.552.552,0,0,1,.3.944L12.27,9.478a.557.557,0,0,0-.16.491l.723,4.211a.55.55,0,0,1-.8.579l-3.78-1.987a.561.561,0,0,0-.513,0l-3.78,1.987a.551.551,0,0,1-.8-.579l.723-4.211a.547.547,0,0,0-.16-.491L.664,6.5a.554.554,0,0,1,.3-.944L5.2,4.942a.571.571,0,0,0,.419-.3L7.508.808A.548.548,0,0,1,8.5.808Z" transform="translate(963.641 937.502)" fill="#ffd600"/>
    <path id="icon_review-5" data-name="icon_review" d="M8.5.808l1.887,3.83a.558.558,0,0,0,.414.3l4.227.613a.552.552,0,0,1,.3.944L12.27,9.478a.557.557,0,0,0-.16.491l.723,4.211a.55.55,0,0,1-.8.579l-3.78-1.987a.561.561,0,0,0-.513,0l-3.78,1.987a.551.551,0,0,1-.8-.579l.723-4.211a.547.547,0,0,0-.16-.491L.664,6.5a.554.554,0,0,1,.3-.944L5.2,4.942a.571.571,0,0,0,.419-.3L7.508.808A.548.548,0,0,1,8.5.808Z" transform="translate(982.641 937.502)" fill="#f0f0f0"/>
  </g>
</svg>
