<svg xmlns="http://www.w3.org/2000/svg" width="48.41" height="48.411" viewBox="0 0 48.41 48.411">
  <g id="icon_share_twitter" transform="translate(-798.83 -778.021)">
    <rect id="사각형_1178" data-name="사각형 1178" width="48.411" height="48.411" rx="11.274" transform="translate(798.83 778.021)" fill="#228cce"/>
    <path id="패스_205" data-name="패스 205" d="M817.422,814.882c11.419,0,17.662-10.2,17.662-18.391,0-.269-.005-.536-.018-.8a12.6,12.6,0,0,0,3.1-3.212,12.384,12.384,0,0,1-3.564.977,6.224,6.224,0,0,0,2.729-3.431,12.434,12.434,0,0,1-3.942,1.505,6.2,6.2,0,0,0-4.531-1.959c-3.429,0-6.208,3.521-6.208,6.945a6.228,6.228,0,0,0,.161,1.415,17.625,17.625,0,0,1-12.506-6.134.3.3,0,0,0-.508.064,6.2,6.2,0,0,0,2.14,7.869,6.166,6.166,0,0,1-2.812-.775h0a6.208,6.208,0,0,0,4.98,6.16,6.25,6.25,0,0,1-1.636.217,6.142,6.142,0,0,1-1.167-.112,6.212,6.212,0,0,0,5.8,4.308,12.462,12.462,0,0,1-7.709,2.656,12.682,12.682,0,0,1-1.481-.086,17.584,17.584,0,0,0,9.515,2.786" fill="#fff"/>
  </g>
</svg>
