<svg xmlns="http://www.w3.org/2000/svg" xmlns:xlink="http://www.w3.org/1999/xlink" width="375.999" height="173" viewBox="0 0 375.999 173">
  <defs>
    <filter id="빼기_1" x="0" y="0" width="375.999" height="173" filterUnits="userSpaceOnUse">
      <feOffset dy="4" input="SourceAlpha"/>
      <feGaussianBlur stdDeviation="6" result="blur"/>
      <feFlood flood-color="#333" flood-opacity="0.078"/>
      <feComposite operator="in" in2="blur"/>
      <feComposite in="SourceGraphic"/>
    </filter>
  </defs>
  <g id="icon_coupon" transform="translate(18 13.938)">
    <g transform="matrix(1, 0, 0, 1, -18, -13.94)" filter="url(#빼기_1)">
      <g id="빼기_1-2" data-name="빼기 1" transform="translate(18 14)" fill="#fff">
        <path d="M 326.5088195800781 136.4998168945313 L 13.4913854598999 136.4998168945313 C 13.36710643768311 133.0861206054688 11.97574710845947 129.8920135498047 9.541888236999512 127.4583206176758 C 7.107866287231445 125.0244140625 3.913310289382935 123.6332397460938 0.5000543594360352 123.5092544555664 L 0.5000130534172058 13.49128532409668 C 7.547977447509766 13.23274612426758 13.23379039764404 7.547038078308105 13.49137783050537 0.4999841451644897 L 326.5088195800781 0.4999841451644897 C 326.6330871582031 3.913887023925781 328.0243530273438 7.108208179473877 330.4580078125 9.542067527770996 C 332.8919067382813 11.97612857818604 336.0862426757813 13.36742496490479 339.4993591308594 13.49141788482666 L 339.4993591308594 123.509391784668 C 332.4525146484375 123.7678985595703 326.76708984375 129.4537506103516 326.5088195800781 136.4998168945313 Z" stroke="none"/>
        <path d="M 326.0350646972656 135.9998168945313 C 326.5263366699219 129.076904296875 332.0758666992188 123.5278625488281 338.9993591308594 123.0356903076172 L 338.9993591308594 13.96542835235596 C 335.6413269042969 13.72912788391113 332.513671875 12.30501461029053 330.1044616699219 9.895627975463867 C 327.6956176757813 7.486531257629395 326.2715454101563 4.358453750610352 326.0348510742188 0.9999917149543762 L 13.96519565582275 0.9999917149543762 C 13.4738655090332 7.923693656921387 7.924759387969971 13.47345924377441 1.000043630599976 13.96502590179443 L 1.000088214874268 123.0352783203125 C 4.358237743377686 123.2715530395508 7.486065864562988 124.6955413818359 9.895452499389648 127.1047210693359 C 12.30450820922852 129.5136871337891 13.72864437103271 132.6415405273438 13.96535968780518 135.9998168945313 L 326.0350646972656 135.9998168945313 M 326.9996948242188 136.9998168945313 L 13.00054359436035 136.9998168945313 C 13.00004291534424 133.5325317382813 11.64645195007324 130.2698516845703 9.188361167907715 127.8118591308594 C 6.730179786682129 125.3538589477539 3.467043161392212 124.0002212524414 8.865633571986109e-05 124.0002212524414 L 4.320179505157284e-05 13.00049209594727 C 7.169816017150879 12.99949169158936 13.00054359436035 7.167946338653564 13.00054359436035 -8.273037565231789e-06 L 326.9996948242188 -8.273037565231789e-06 C 327.0001831054688 3.46753716468811 328.3536376953125 6.730355262756348 330.8115844726563 9.18853759765625 C 333.2695922851563 11.64671897888184 336.5325927734375 13.00049209594727 339.9993591308594 13.00049209594727 L 339.9993591308594 124.0002212524414 C 332.8307189941406 124.001220703125 327.0003967285156 129.8318939208984 326.9996948242188 136.9988098144531 L 326.9996948242188 136.9998168945313 Z" stroke="none" fill="#c8c8c8"/>
      </g>
    </g>
  </g>
</svg>
