<svg xmlns="http://www.w3.org/2000/svg" width="21.125" height="16.165" viewBox="0 0 21.125 16.165">
  <g id="icon_product" transform="translate(-0.748 -0.75)">
    <path id="패스_1921" data-name="패스 1921" d="M1.448,24.762a1.113,1.113,0,0,0-.183.43.893.893,0,0,0,.966,1.046H20.39a.894.894,0,0,0,.966-1.05,1.113,1.113,0,0,0-.183-.43c-.388-.548-9.646-7.648-9.646-7.648S1.837,24.214,1.448,24.762Z" transform="translate(0 -9.823)" fill="none" stroke="#3a3a3a" stroke-linecap="round" stroke-linejoin="round" stroke-miterlimit="10" stroke-width="1"/>
    <path id="패스_1922" data-name="패스 1922" d="M19.7,2.5l.909-.681a2.8,2.8,0,0,1,3.919.556l.1.137a2.8,2.8,0,0,1-.556,3.919l-2.606,1.96" transform="translate(-11.429)" fill="none" stroke="#3a3a3a" stroke-linecap="round" stroke-linejoin="round" stroke-miterlimit="10" stroke-width="1"/>
  </g>
</svg>
