<svg xmlns="http://www.w3.org/2000/svg" width="14.264" height="13" viewBox="0 0 14.264 13">
  <g id="icon_filter_bk" transform="translate(-267 -78)">
    <path id="Path" d="M0,.5H0Z" transform="translate(267.5 80.621)" fill="none" stroke="#333" stroke-linecap="round" stroke-linejoin="round" stroke-miterlimit="10" stroke-width="1"/>
    <path id="Path-2" data-name="Path" d="M0,.5H0Z" transform="translate(274.194 80.621)" fill="none" stroke="#333" stroke-linecap="round" stroke-linejoin="round" stroke-miterlimit="10" stroke-width="1"/>
    <path id="Path-3" data-name="Path" d="M2.526,5.053A2.526,2.526,0,1,1,5.053,2.526,2.526,2.526,0,0,1,2.526,5.053Z" transform="translate(269.142 78.5)" fill="none" stroke="#333" stroke-linecap="round" stroke-linejoin="round" stroke-miterlimit="10" stroke-width="1"/>
    <path id="Path-4" data-name="Path" d="M1.642.5h0Z" transform="translate(279.121 87.569)" fill="none" stroke="#333" stroke-linecap="round" stroke-linejoin="round" stroke-miterlimit="10" stroke-width="1"/>
    <path id="Path-5" data-name="Path" d="M6.568.5h0Z" transform="translate(267.5 87.569)" fill="none" stroke="#333" stroke-linecap="round" stroke-linejoin="round" stroke-miterlimit="10" stroke-width="1"/>
    <path id="Path-6" data-name="Path" d="M2.526,5.053A2.526,2.526,0,1,1,5.053,2.526,2.526,2.526,0,0,1,2.526,5.053Z" transform="translate(274.069 85.447)" fill="none" stroke="#333" stroke-linecap="round" stroke-linejoin="round" stroke-miterlimit="10" stroke-width="1"/>
  </g>
</svg>
