<svg xmlns="http://www.w3.org/2000/svg" width="22.26" height="20.479" viewBox="0 0 22.26 20.479">
  <g id="icon_03_like" transform="translate(-289 -233)">
    <g id="btn_heart-off_bk" transform="translate(289 212.6)" fill="none" stroke-linejoin="round">
      <path d="M11.13,40.879,9.572,39.321C3.784,34.2,0,30.751,0,26.522A6.035,6.035,0,0,1,6.122,20.4a6.689,6.689,0,0,1,5.009,2.337A6.689,6.689,0,0,1,16.139,20.4a6.035,6.035,0,0,1,6.122,6.122c0,4.229-3.784,7.68-9.572,12.8Z" stroke="none"/>
      <path d="M 11.13013744354248 39.18239593505859 L 11.83982753753662 38.47270584106445 C 11.85712718963623 38.45541381835938 11.8749475479126 38.43864440917969 11.89326763153076 38.42243576049805 C 14.90174770355225 35.76109313964844 17.15227699279785 33.73007583618164 18.71764755249023 31.8255443572998 C 20.33778762817383 29.85437393188477 21.06027793884277 28.21857452392578 21.06027793884277 26.52157402038574 C 21.06027793884277 25.17336463928223 20.55759811401367 23.92819404602051 19.64483833312988 23.01543426513672 C 18.73207664489746 22.10267448425293 17.48690795898438 21.59999465942383 16.13869667053223 21.59999465942383 C 14.61251735687256 21.59999465942383 13.04436779022217 22.33280563354492 12.04619789123535 23.51245498657227 C 11.81819725036621 23.78191566467285 11.48311710357666 23.93732452392578 11.13013744354248 23.93732452392578 C 10.7771577835083 23.93732452392578 10.44208717346191 23.78191566467285 10.21407699584961 23.51245498657227 C 9.215897560119629 22.33280563354492 7.64774751663208 21.59999465942383 6.121577262878418 21.59999465942383 C 4.773367404937744 21.59999465942383 3.528197526931763 22.10267448425293 2.615437507629395 23.01543426513672 C 1.702677488327026 23.92819404602051 1.199997425079346 25.17336463928223 1.199997425079346 26.52157402038574 C 1.199997425079346 28.21857452392578 1.922487497329712 29.85437393188477 3.542627334594727 31.8255443572998 C 5.107997417449951 33.73007583618164 7.358527660369873 35.76109313964844 10.3670072555542 38.42243576049805 C 10.38532733917236 38.43864440917969 10.40314769744873 38.45541381835938 10.42044734954834 38.47270584106445 L 11.13013744354248 39.18239593505859 M 11.13013744354248 40.87945556640625 L 9.571917533874512 39.32123565673828 C 3.784247398376465 34.20137405395508 -2.556457502578269e-06 30.75102424621582 -2.556457502578269e-06 26.52157402038574 C -2.556457502578269e-06 23.07123565673828 2.671237468719482 20.39999389648438 6.121577262878418 20.39999389648438 C 8.013697624206543 20.39999389648438 9.905817031860352 21.29041481018066 11.13013744354248 22.73732566833496 C 12.35444736480713 21.29041481018066 14.24657726287842 20.39999389648438 16.13869667053223 20.39999389648438 C 19.58903694152832 20.39999389648438 22.26027679443359 23.07123565673828 22.26027679443359 26.52157402038574 C 22.26027679443359 30.75102424621582 18.47602653503418 34.20137405395508 12.68835735321045 39.32123565673828 L 11.13013744354248 40.87945556640625 Z" stroke="none" fill="#333"/>
    </g>
    <path id="패스_177" data-name="패스 177" d="M-20656.059-8012.462s1.275,2.205-.871,4.815" transform="translate(20963.564 8250)" fill="none" stroke="#a134e8" stroke-linecap="round" stroke-width="1.2"/>
    <path id="패스_178" data-name="패스 178" d="M-20658.941-8005.863s-.943.892-1.561,1.394" transform="translate(20964.143 8250)" fill="none" stroke="#fc4ead" stroke-linecap="round" stroke-width="1.2"/>
  </g>
</svg>
