<svg xmlns="http://www.w3.org/2000/svg" width="24" height="23.645" viewBox="0 0 24 23.645">
  <g id="icon_navi-01_on" transform="translate(-48.5 -749.492)">
    <g id="그룹_795" data-name="그룹 795">
      <rect id="사각형_391" data-name="사각형 391" width="23" height="20.579" rx="3.029" transform="translate(49 752.058)" fill="#ffe5b1"/>
      <path id="사각형_390" data-name="사각형 390" d="M3,0H20a3,3,0,0,1,3,3V6a0,0,0,0,1,0,0H0A0,0,0,0,1,0,6V3A3,3,0,0,1,3,0Z" transform="translate(49 752)" fill="#fcd658"/>
      <line id="선_111" data-name="선 111" x2="21.789" transform="translate(49.605 757.505)" fill="none" stroke="#272720" stroke-linecap="round" stroke-linejoin="round" stroke-width="1"/>
      <g id="그룹_784" data-name="그룹 784" transform="translate(54.972 750)">
        <line id="선_112" data-name="선 112" x1="0.081" y1="4.761" stroke-width="1" stroke="#272720" stroke-linecap="round" stroke-linejoin="round" fill="none"/>
        <line id="선_113" data-name="선 113" x1="0.081" y1="4.761" transform="translate(10.975)" fill="none" stroke="#272720" stroke-linecap="round" stroke-linejoin="round" stroke-width="1"/>
      </g>
      <path id="패스_2853" data-name="패스 2853" d="M-359,809.469l3.6,3.7,6-6.174" transform="translate(414.698 -45.339)" fill="none" stroke="#272720" stroke-miterlimit="10" stroke-width="1"/>
    </g>
    <rect id="사각형_389" data-name="사각형 389" width="23" height="20.579" rx="3.029" transform="translate(49 752.058)" fill="none" stroke="#272720" stroke-miterlimit="10" stroke-width="1"/>
  </g>
</svg>
