<svg xmlns="http://www.w3.org/2000/svg" xmlns:xlink="http://www.w3.org/1999/xlink" width="49.89" height="25.113" viewBox="0 0 49.89 25.113">
  <defs>
    <radialGradient id="radial-gradient" cx="-6587.244" cy="-3778.915" r="53.215" gradientTransform="translate(-4254.745 -3297.848) scale(0.416 0.187)" gradientUnits="userSpaceOnUse">
      <stop offset="0" stop-color="#fff"/>
      <stop offset="0.385" stop-color="#fefcfd"/>
      <stop offset="0.559" stop-color="#fcf5f7"/>
      <stop offset="0.69" stop-color="#f8e8ec"/>
      <stop offset="0.8" stop-color="#f3d6dd"/>
      <stop offset="0.897" stop-color="#ecbfca"/>
      <stop offset="0.982" stop-color="#e4a2b2"/>
      <stop offset="1" stop-color="#e29cad"/>
    </radialGradient>
    <radialGradient id="radial-gradient-2" cx="-6587.244" cy="-3778.915" r="53.215" gradientTransform="translate(-4254.745 -3297.848) scale(0.416 0.187)" gradientUnits="userSpaceOnUse">
      <stop offset="0" stop-color="#fff"/>
      <stop offset="0.423" stop-color="#fefcfd"/>
      <stop offset="0.614" stop-color="#fcf5f7"/>
      <stop offset="0.757" stop-color="#f8e8ec"/>
      <stop offset="0.878" stop-color="#f3d6dd"/>
      <stop offset="0.983" stop-color="#ecbfca"/>
      <stop offset="1" stop-color="#ebbbc7"/>
    </radialGradient>
  </defs>
  <g id="icon_eyes" transform="translate(-706.336 -276.839)" opacity="0.4">
    <path id="패스_116" data-name="패스 116" d="M760.841,294.3s-3.507-13.1-22.677-13.1c-17.682,0-23.88,14.174-23.88,14.174l46.556-1.073Z" transform="translate(-4.615 -2.533)" fill="#664329"/>
    <g id="그룹_61" data-name="그룹 61" transform="translate(706.336 285.548)">
      <path id="패스_117" data-name="패스 117" d="M712.2,302.017a6.925,6.925,0,0,1-3.541-1.292,7.646,7.646,0,0,1-1.369-1.238,4.581,4.581,0,0,1-.942-1.6.212.212,0,0,1,.4-.149l.007.016a4.1,4.1,0,0,0,.995,1.3,6.928,6.928,0,0,0,1.36.965,5.877,5.877,0,0,0,3.094.747.63.63,0,1,1,.078,1.258C712.251,302.018,712.222,302.018,712.2,302.017Z" transform="translate(-706.336 -297.607)" fill="#664329"/>
    </g>
    <g id="그룹_63" data-name="그룹 63" transform="translate(709.114 283.027)">
      <g id="그룹_62" data-name="그룹 62" transform="translate(0)">
        <path id="패스_118" data-name="패스 118" d="M718.038,296.2a6.842,6.842,0,0,1-3.159-1.469,6.725,6.725,0,0,1-1.187-1.239,3.864,3.864,0,0,1-.727-1.591.259.259,0,0,1,.5-.118l.005.019a3.3,3.3,0,0,0,.763,1.245,5.954,5.954,0,0,0,1.167.967,5.77,5.77,0,0,0,2.769.935.63.63,0,0,1-.06,1.259C718.089,296.2,718.062,296.2,718.038,296.2Z" transform="translate(-712.961 -291.595)" fill="#664329"/>
      </g>
    </g>
    <g id="그룹_65" data-name="그룹 65" transform="translate(711.89 281.561)">
      <g id="그룹_64" data-name="그룹 64" transform="translate(0 0)">
        <path id="패스_119" data-name="패스 119" d="M724.084,292.454a5.793,5.793,0,0,1-2.849-1.533,6.634,6.634,0,0,1-1.646-2.618.155.155,0,0,1,.284-.121l0,0a6.086,6.086,0,0,0,1.864,2.134,4.759,4.759,0,0,0,2.511.886.631.631,0,1,1-.06,1.261.61.61,0,0,1-.1-.012Z" transform="translate(-719.581 -288.099)" fill="#664329"/>
      </g>
    </g>
    <g id="그룹_67" data-name="그룹 67" transform="translate(714.496 279.834)">
      <g id="그룹_66" data-name="그룹 66" transform="translate(0 0)">
        <path id="패스_120" data-name="패스 120" d="M729.4,288.64a6.66,6.66,0,0,1-2.262-1.966,8.114,8.114,0,0,1-1.338-2.528.127.127,0,0,1,.235-.095l0,0a7.636,7.636,0,0,0,1.659,2.109,5.669,5.669,0,0,0,2.166,1.305.633.633,0,1,1-.341,1.219.643.643,0,0,1-.11-.042Z" transform="translate(-725.795 -283.981)" fill="#664329"/>
      </g>
    </g>
    <g id="그룹_69" data-name="그룹 69" transform="translate(717.494 278.613)">
      <g id="그룹_68" data-name="그룹 68" transform="translate(0)">
        <path id="패스_121" data-name="패스 121" d="M735.878,285.767a5.457,5.457,0,0,1-2-2.035,7.688,7.688,0,0,1-.932-2.527.115.115,0,0,1,.221-.063v0a7.208,7.208,0,0,0,1.313,2.152,4.453,4.453,0,0,0,1.914,1.323.633.633,0,1,1-.5,1.159Z" transform="translate(-732.943 -281.07)" fill="#664329"/>
      </g>
    </g>
    <g id="그룹_71" data-name="그룹 71" transform="translate(720.58 277.45)">
      <g id="그룹_70" data-name="그룹 70" transform="translate(0 0)">
        <path id="패스_122" data-name="패스 122" d="M743.467,282.729a6.543,6.543,0,0,1-2.158-1.784,5.467,5.467,0,0,1-.718-1.174,3.011,3.011,0,0,1-.286-1.347.136.136,0,0,1,.27-.012v.007a2.631,2.631,0,0,0,.468,1.1,4.837,4.837,0,0,0,.821.9,5.545,5.545,0,0,0,2.065,1.139.632.632,0,1,1-.453,1.175Z" transform="translate(-740.302 -278.295)" fill="#664329"/>
      </g>
    </g>
    <g id="그룹_73" data-name="그룹 73" transform="translate(723.979 276.839)">
      <g id="그룹_72" data-name="그룹 72">
        <path id="패스_123" data-name="패스 123" d="M751.314,280.98a6.093,6.093,0,0,1-2-1.686,5.1,5.1,0,0,1-.655-1.1,2.787,2.787,0,0,1-.25-1.251.112.112,0,0,1,.223-.01v.006a2.452,2.452,0,0,0,.449,1.023,4.5,4.5,0,0,0,.772.822,5.1,5.1,0,0,0,1.921,1.025.633.633,0,1,1-.323,1.225.619.619,0,0,1-.128-.049Z" transform="translate(-748.407 -276.839)" fill="#664329"/>
      </g>
    </g>
    <path id="패스_124" data-name="패스 124" d="M760.819,296.789s-6.123,10-22.325,10c-19.3,0-24.21-9.109-24.21-9.109s10.206-12.509,23.778-12.509S760.819,296.789,760.819,296.789Z" transform="translate(-4.615 -4.84)" fill="#664329"/>
    <path id="패스_125" data-name="패스 125" d="M760.819,296.789S753.4,306,738.063,306c-16.683,0-23.778-8.317-23.778-8.317s10.205-12.508,23.778-12.508S760.819,296.789,760.819,296.789Z" transform="translate(-4.615 -4.84)" fill="#ad624b"/>
    <path id="패스_126" data-name="패스 126" d="M760.8,295.249c0-1.184-6.128-12.148-22.637-12.148-16.355,0-23.88,13.378-23.88,13.378l46.534-.895S760.8,295.406,760.8,295.249Z" transform="translate(-4.615 -3.636)" fill="#ad624b"/>
    <path id="패스_127" data-name="패스 127" d="M762.507,297.167c0,.806-.852.218-2.42,1.418-3.586,2.744-11.415,6.406-20.858,6.406a37.542,37.542,0,0,1-22.075-6.841s7.8-12.016,22.575-12.016a29.156,29.156,0,0,1,21.668,9.429A4.236,4.236,0,0,1,762.507,297.167Z" transform="translate(-6.281 -5.397)" fill="url(#radial-gradient)"/>
    <path id="패스_128" data-name="패스 128" d="M762.507,297.167c0,.806-.852.218-2.42,1.418-3.586,2.744-11.415,6.406-20.858,6.406a37.542,37.542,0,0,1-22.075-6.841s7.8-12.016,22.575-12.016a29.156,29.156,0,0,1,21.668,9.429A4.236,4.236,0,0,1,762.507,297.167Z" transform="translate(-6.281 -5.397)" fill="url(#radial-gradient-2)"/>
    <path id="패스_130" data-name="패스 130" d="M746.735,287.471a11.635,11.635,0,0,0,.758,16.9,39.819,39.819,0,0,0,7.01.62,37.836,37.836,0,0,0,8.647-1.015,11.637,11.637,0,0,0,.138-16.7A29.877,29.877,0,0,0,755,286.134,26.016,26.016,0,0,0,746.735,287.471Z" transform="translate(-21.556 -5.397)" fill="#1e120e"/>
    <path id="패스_131" data-name="패스 131" d="M760.154,297.935l5.912,1.919-5.535-2.828,6.174.72-5.983-1.687,6.2-.5-6.2-.5,5.983-1.687-6.174.72,5.535-2.827-5.912,1.919,4.875-3.857L759.6,292.37l4.031-4.732-4.732,4.031,2.761-4.931-.1-.02-3.482,4.4,1.533-4.723-.208-.026-2.233,4.372.529-4.537c-.088-.006-.178-.009-.266-.015l-1.229,4.36-.354-4.414c-.082,0-.162,0-.245,0h-.041l-.354,4.417-1.23-4.363-.266.017.529,4.537-2.227-4.36-.209.031,1.528,4.707-3.445-4.354-.107.025,2.73,4.878-4.731-4.031,4.031,4.732-5.424-3.036,4.874,3.858-5.912-1.919,5.535,2.828-6.174-.72,5.983,1.687-6.2.5,6.2.5-5.983,1.687,6.174-.72-5.535,2.827,5.912-1.919-4.874,3.857,5.424-3.036-4.031,4.731,4.732-4.031-2.886,5.156.055.009,3.652-4.615-1.571,4.841.192.013,2.287-4.477-.534,4.576c.086,0,.175,0,.262.006l1.238-4.391.354,4.41.287,0,.354-4.406,1.224,4.343c.09-.005.179-.014.268-.021l-.527-4.514,2.225,4.356.212-.023-1.529-4.709,3.494,4.415.1-.016-2.77-4.949,4.732,4.031-4.031-4.732,5.424,3.036Z" transform="translate(-22.162 -5.397)" fill="#604028"/>
    <circle id="타원_55" data-name="타원 55" cx="5.974" cy="5.974" r="5.974" transform="matrix(0.822, -0.57, 0.57, 0.822, 725.236, 288.657)"/>
    <path id="패스_132" data-name="패스 132" d="M751.138,296.06a2.987,2.987,0,1,1-2.987-2.987A2.987,2.987,0,0,1,751.138,296.06Z" transform="translate(-22.546 -9.426)" fill="#fff"/>
    <path id="패스_133" data-name="패스 133" d="M730.672,310.518" transform="translate(-14.13 -19.555)" fill="none" stroke="#ba5b74" stroke-linecap="round" stroke-linejoin="round" stroke-width="1"/>
    <g id="그룹_79" data-name="그룹 79" transform="translate(710.872 287.144)">
      <path id="패스_134" data-name="패스 134" d="M724.264,308.711a4.709,4.709,0,0,0-2.228,1.019,9.47,9.47,0,0,1-1.936,1.085,5.428,5.428,0,0,1-2.8.226c-.1.136-.149.218-.149.218s.109.087.312.235a6.024,6.024,0,0,0,.83.057,5.563,5.563,0,0,0,1.952-.344,9.9,9.9,0,0,0,2.022-1.129,4.382,4.382,0,0,1,2.015-.948.209.209,0,0,0,.2-.219A.2.2,0,0,0,724.264,308.711Z" transform="translate(-717.153 -305.648)" fill="#ba5b74"/>
      <g id="그룹_74" data-name="그룹 74" transform="translate(4.074 4.512)">
        <path id="패스_135" data-name="패스 135" d="M730.566,313.8a5.485,5.485,0,0,1-3.634-1.274.21.21,0,0,1,.294-.3,5.137,5.137,0,0,0,3.648,1.145.21.21,0,0,1,.023.419Q730.73,313.8,730.566,313.8Z" transform="translate(-726.869 -312.17)" fill="#ba5b74"/>
      </g>
      <g id="그룹_75" data-name="그룹 75" transform="translate(4.961 1.308)">
        <path id="패스_136" data-name="패스 136" d="M729.194,307.572a.2.2,0,0,1-.047-.005.21.21,0,0,1-.157-.252,3.881,3.881,0,0,1,2.435-2.777.207.207,0,0,1,.26.144.21.21,0,0,1-.143.259,3.471,3.471,0,0,0-2.142,2.468A.211.211,0,0,1,729.194,307.572Z" transform="translate(-728.984 -304.53)" fill="#ba5b74"/>
      </g>
      <path id="패스_137" data-name="패스 137" d="M724.286,301.414c-1.572.189-3.421,2.106-4.362,3.813a1.827,1.827,0,0,1-1.748.967c-.115.15-.211.278-.292.391a2.69,2.69,0,0,0,.365.025,2.228,2.228,0,0,0,2.043-1.18c.9-1.639,2.664-3.433,4.045-3.6a.209.209,0,0,0,.183-.233A.206.206,0,0,0,724.286,301.414Z" transform="translate(-717.577 -301.412)" fill="#ba5b74"/>
      <g id="그룹_76" data-name="그룹 76" transform="translate(3.177 2.266)">
        <path id="패스_138" data-name="패스 138" d="M725.62,307.485a2.05,2.05,0,0,1-.759-.14.21.21,0,1,1,.155-.39,2.24,2.24,0,0,0,1.621-.121.21.21,0,0,1,.172.382A3.016,3.016,0,0,1,725.62,307.485Z" transform="translate(-724.729 -306.816)" fill="#ba5b74"/>
      </g>
      <g id="그룹_77" data-name="그룹 77" transform="translate(2.582 5.231)">
        <path id="패스_139" data-name="패스 139" d="M728.078,316.446h0a5.874,5.874,0,0,1-4.728-2.234.21.21,0,1,1,.35-.232,5.441,5.441,0,0,0,4.386,2.046.21.21,0,0,1,0,.419Z" transform="translate(-723.311 -313.887)" fill="#ba5b74"/>
      </g>
      <g id="그룹_78" data-name="그룹 78" transform="translate(5.394 7.113)">
        <path id="패스_140" data-name="패스 140" d="M731.744,320.217a.221.221,0,0,1-.037,0,1.858,1.858,0,0,1-1.689-1.611.21.21,0,0,1,.189-.229.218.218,0,0,1,.229.189,1.444,1.444,0,0,0,1.345,1.238.21.21,0,0,1-.036.416Z" transform="translate(-730.017 -318.374)" fill="#ba5b74"/>
      </g>
      <path id="패스_141" data-name="패스 141" d="M738.468,321.142a3.7,3.7,0,0,0-2.932,1.49c.14.054.279.108.422.162a3.137,3.137,0,0,1,2.5-1.232.2.2,0,0,0,.215-.2A.21.21,0,0,0,738.468,321.142Z" transform="translate(-727.827 -312.868)" fill="#ba5b74"/>
    </g>
    <g id="그룹_85" data-name="그룹 85" transform="translate(743.792 287.144)">
      <path id="패스_142" data-name="패스 142" d="M804.255,308.711a4.709,4.709,0,0,1,2.228,1.019,9.472,9.472,0,0,0,1.936,1.085,5.43,5.43,0,0,0,2.8.226c.1.136.149.218.149.218s-.109.087-.312.235a6.022,6.022,0,0,1-.83.057,5.566,5.566,0,0,1-1.952-.344,9.888,9.888,0,0,1-2.022-1.129,4.382,4.382,0,0,0-2.015-.948.209.209,0,0,1-.2-.219A.2.2,0,0,1,804.255,308.711Z" transform="translate(-800.521 -305.648)" fill="#ba5b74"/>
      <g id="그룹_80" data-name="그룹 80" transform="translate(2.546 4.512)">
        <path id="패스_143" data-name="패스 143" d="M802.253,313.8a5.486,5.486,0,0,0,3.634-1.274.21.21,0,1,0-.294-.3,5.139,5.139,0,0,1-3.648,1.145.21.21,0,1,0-.023.419Q802.088,313.8,802.253,313.8Z" transform="translate(-801.724 -312.17)" fill="#ba5b74"/>
      </g>
      <g id="그룹_81" data-name="그룹 81" transform="translate(3.176 1.308)">
        <path id="패스_144" data-name="패스 144" d="M805.725,307.572a.2.2,0,0,0,.047-.005.209.209,0,0,0,.157-.252,3.88,3.88,0,0,0-2.435-2.777.208.208,0,0,0-.26.144.21.21,0,0,0,.143.259,3.472,3.472,0,0,1,2.143,2.468A.21.21,0,0,0,805.725,307.572Z" transform="translate(-803.227 -304.53)" fill="#ba5b74"/>
      </g>
      <path id="패스_145" data-name="패스 145" d="M805.193,301.414c1.572.189,3.421,2.106,4.362,3.813a1.828,1.828,0,0,0,1.749.967c.115.15.21.278.292.391a2.693,2.693,0,0,1-.365.025,2.228,2.228,0,0,1-2.043-1.18c-.9-1.639-2.664-3.433-4.045-3.6a.21.21,0,0,1-.183-.233A.207.207,0,0,1,805.193,301.414Z" transform="translate(-801.056 -301.412)" fill="#ba5b74"/>
      <g id="그룹_82" data-name="그룹 82" transform="translate(5.465 2.266)">
        <path id="패스_146" data-name="패스 146" d="M810,307.485a2.047,2.047,0,0,0,.759-.14.21.21,0,1,0-.155-.39,2.24,2.24,0,0,1-1.621-.121.21.21,0,0,0-.172.382A3.011,3.011,0,0,0,810,307.485Z" transform="translate(-808.685 -306.816)" fill="#ba5b74"/>
      </g>
      <g id="그룹_83" data-name="그룹 83" transform="translate(3.287 5.231)">
        <path id="패스_147" data-name="패스 147" d="M803.7,316.446h0a5.876,5.876,0,0,0,4.729-2.234.21.21,0,1,0-.35-.232,5.441,5.441,0,0,1-4.386,2.046.21.21,0,0,0,0,.419Z" transform="translate(-803.492 -313.887)" fill="#ba5b74"/>
      </g>
      <g id="그룹_84" data-name="그룹 84" transform="translate(3.515 7.113)">
        <path id="패스_148" data-name="패스 148" d="M804.245,320.217a.216.216,0,0,0,.037,0,1.859,1.859,0,0,0,1.689-1.611.211.211,0,0,0-.189-.229.217.217,0,0,0-.229.189,1.445,1.445,0,0,1-1.345,1.238.21.21,0,0,0,.036.416Z" transform="translate(-804.035 -318.374)" fill="#ba5b74"/>
      </g>
      <path id="패스_149" data-name="패스 149" d="M795.859,321.142a3.7,3.7,0,0,1,2.932,1.49c-.139.054-.279.108-.422.162a3.136,3.136,0,0,0-2.5-1.232.2.2,0,0,1-.214-.2A.21.21,0,0,1,795.859,321.142Z" transform="translate(-795.654 -312.868)" fill="#ba5b74"/>
    </g>
    <path id="패스_150" data-name="패스 150" d="M816.356,304.02h0s1.262,2,1.1,3.1-2.294,3.1-2.294,3.1h0a21.455,21.455,0,0,0,1.834-1.245c1.568-1.2,2.42-.612,2.42-1.418a4.236,4.236,0,0,0-1.111-1.6C817.8,305.391,817.145,304.729,816.356,304.02Z" transform="translate(-63.188 -15.782)" fill="#f4d0d0"/>
    <g id="그룹_86" data-name="그룹 86" transform="translate(750.367 286.424)">
      <path id="패스_151" data-name="패스 151" d="M813.021,304.228a.2.2,0,0,1-.083-.017.21.21,0,0,1-.109-.276c.639-1.475-.44-3.146-1.411-3.862a.21.21,0,0,1,.249-.338c1.082.8,2.277,2.68,1.547,4.366A.209.209,0,0,1,813.021,304.228Z" transform="translate(-811.332 -299.695)" fill="#ba5b74"/>
    </g>
    <g id="그룹_87" data-name="그룹 87" transform="translate(748.543 285.766)">
      <path id="패스_152" data-name="패스 152" d="M808.077,300.659a.2.2,0,0,1-.066-.01.21.21,0,0,1-.133-.265,1.784,1.784,0,0,0-.766-1.854.21.21,0,1,1,.166-.386,2.175,2.175,0,0,1,1,2.371A.21.21,0,0,1,808.077,300.659Z" transform="translate(-806.985 -298.127)" fill="#ba5b74"/>
    </g>
  </g>
</svg>
