<svg xmlns="http://www.w3.org/2000/svg" width="51.863" height="58.618" viewBox="0 0 51.863 58.618">
  <g id="그룹_59" data-name="그룹 59" transform="translate(-244.726 -284.679)">
    <path id="패스_89" data-name="패스 89" d="M291.583,327.488c0,10.766-7.845,19.493-17.522,19.493s-17.531-8.727-17.531-19.493,7.85-19.5,17.531-19.5S291.583,316.718,291.583,327.488Z" transform="translate(-1.865 -3.684)" fill="#f4bd9f"/>
    <path id="패스_90" data-name="패스 90" d="M279.143,309.283s-8.529,15.142-22.628,13.054c0,0-.173-6.962,0-10.618,0,0,3.307-14.446,19.146-14.273,0,0,10.768-.882,15.642,12.694v10.444S282.624,321.119,279.143,309.283Z" transform="translate(-1.851 -2.015)" fill="#8a5d3b"/>
    <path id="패스_91" data-name="패스 91" d="M264.7,333.026l-.252-.8,4.814-1.513-4.814-1.513.252-.8,7.369,2.317Z" transform="translate(-3.115 -6.907)" fill="#231f20"/>
    <path id="패스_92" data-name="패스 92" d="M289.705,332.77l-6.29-2.232,6.927-3.734.4.741-5.257,2.834,4.5,1.6Z" transform="translate(-6.113 -6.656)" fill="#231f20"/>
    <path id="패스_93" data-name="패스 93" d="M262.93,336.619l24.553-.3.069,7.375a7.875,7.875,0,0,1-7.175,6.126l-10.74.108s-4.278.044-6.636-5.7Z" transform="translate(-2.876 -8.159)" fill="#fff"/>
    <rect id="사각형_305" data-name="사각형 305" width="6.442" height="0.842" transform="matrix(0.788, -0.615, 0.615, 0.788, 284.382, 328.494)" fill="#fff"/>
    <rect id="사각형_306" data-name="사각형 306" width="0.843" height="6.735" transform="translate(254.708 326.432) rotate(-63.638)" fill="#fff"/>
    <rect id="사각형_307" data-name="사각형 307" width="0.842" height="3.437" transform="translate(257.727 335.519) rotate(-63.945)" fill="#fff"/>
    <rect id="사각형_308" data-name="사각형 308" width="3.439" height="0.842" transform="translate(283.725 336.148) rotate(-31.05)" fill="#fff"/>
    <g id="그룹_58" data-name="그룹 58" transform="translate(244.726 284.679)">
      <path id="패스_94" data-name="패스 94" d="M255.892,293.5a.946.946,0,1,1-.946-.944A.945.945,0,0,1,255.892,293.5Z" transform="translate(-246.192 -285.925)" fill="#a6a8ab"/>
      <circle id="타원_54" data-name="타원 54" cx="0.28" cy="0.28" r="0.28" transform="translate(6.119 12.973)" fill="#a6a8ab"/>
      <path id="패스_95" data-name="패스 95" d="M272.137,290.848a1.438,1.438,0,1,1,.99-1.779A1.439,1.439,0,0,1,272.137,290.848Z" transform="translate(-248.768 -285.208)" fill="#a6a8ab"/>
      <path id="패스_96" data-name="패스 96" d="M264.518,288.269a.542.542,0,1,1-.374.671A.541.541,0,0,1,264.518,288.269Z" transform="translate(-247.791 -285.243)" fill="#a6a8ab"/>
      <path id="패스_97" data-name="패스 97" d="M298.93,306.414a.946.946,0,1,1-.946-.946A.946.946,0,0,1,298.93,306.414Z" transform="translate(-252.992 -287.964)" fill="#a6a8ab"/>
      <path id="패스_98" data-name="패스 98" d="M296.788,296.465a.542.542,0,1,1-.372.671A.542.542,0,0,1,296.788,296.465Z" transform="translate(-252.89 -286.538)" fill="#a6a8ab"/>
      <path id="패스_99" data-name="패스 99" d="M255.892,307.537a.946.946,0,1,1-.946-.946A.946.946,0,0,1,255.892,307.537Z" transform="translate(-246.192 -288.142)" fill="#a6a8ab"/>
      <path id="패스_100" data-name="패스 100" d="M292.326,293.684a.946.946,0,1,1-1.021.864A.946.946,0,0,1,292.326,293.684Z" transform="translate(-252.085 -286.102)" fill="#a6a8ab"/>
      <path id="패스_101" data-name="패스 101" d="M283.349,291.825a.542.542,0,1,1,.637.427A.542.542,0,0,1,283.349,291.825Z" transform="translate(-250.827 -285.706)" fill="#a6a8ab"/>
      <path id="패스_102" data-name="패스 102" d="M255.892,315.289a.946.946,0,1,1-.946-.944A.945.945,0,0,1,255.892,315.289Z" transform="translate(-246.192 -289.367)" fill="#a6a8ab"/>
      <path id="패스_103" data-name="패스 103" d="M258.68,299.463a.542.542,0,1,1-.372.669A.543.543,0,0,1,258.68,299.463Z" transform="translate(-246.869 -287.012)" fill="#a6a8ab"/>
      <path id="패스_104" data-name="패스 104" d="M287.426,284.7a.542.542,0,1,1-.373.67A.543.543,0,0,1,287.426,284.7Z" transform="translate(-251.411 -284.679)" fill="#a6a8ab"/>
      <path id="패스_105" data-name="패스 105" d="M249.632,307.661a.28.28,0,1,1,.28.28A.28.28,0,0,1,249.632,307.661Z" transform="translate(-245.501 -288.266)" fill="#a6a8ab"/>
      <path id="패스_106" data-name="패스 106" d="M294.8,300.7a.28.28,0,0,1,.561,0,.28.28,0,1,1-.561,0Z" transform="translate(-252.638 -287.167)" fill="#a6a8ab"/>
      <path id="패스_107" data-name="패스 107" d="M296.971,315.333a.709.709,0,1,1-.709-.708A.71.71,0,0,1,296.971,315.333Z" transform="translate(-252.757 -289.411)" fill="#a6a8ab"/>
      <path id="패스_108" data-name="패스 108" d="M246.616,303.611a.945.945,0,1,1-.946-.946A.945.945,0,0,1,246.616,303.611Z" transform="translate(-244.726 -287.521)" fill="#a6a8ab"/>
      <path id="패스_109" data-name="패스 109" d="M249.779,320.153a.945.945,0,1,1-.945-.946A.946.946,0,0,1,249.779,320.153Z" transform="translate(-245.226 -290.135)" fill="#a6a8ab"/>
      <path id="패스_110" data-name="패스 110" d="M249.4,309.568a.542.542,0,1,1-.371.67A.542.542,0,0,1,249.4,309.568Z" transform="translate(-245.403 -288.609)" fill="#a6a8ab"/>
      <path id="패스_111" data-name="패스 111" d="M301.83,313.429a.946.946,0,1,1-.945-.944A.944.944,0,0,1,301.83,313.429Z" transform="translate(-253.45 -289.073)" fill="#a6a8ab"/>
      <path id="패스_112" data-name="패스 112" d="M305.427,307.09a.543.543,0,1,1-.371.671A.542.542,0,0,1,305.427,307.09Z" transform="translate(-254.255 -288.217)" fill="#a6a8ab"/>
      <path id="패스_113" data-name="패스 113" d="M300.965,299.577a.946.946,0,1,1-1.023.864A.947.947,0,0,1,300.965,299.577Z" transform="translate(-253.45 -287.033)" fill="#a6a8ab"/>
      <path id="패스_114" data-name="패스 114" d="M300.813,295.3a.542.542,0,1,1-.374.67A.541.541,0,0,1,300.813,295.3Z" transform="translate(-253.526 -286.355)" fill="#a6a8ab"/>
      <path id="패스_115" data-name="패스 115" d="M300.167,319.707a.543.543,0,1,1-.371.67A.543.543,0,0,1,300.167,319.707Z" transform="translate(-253.424 -290.211)" fill="#a6a8ab"/>
    </g>
  </g>
</svg>
