<svg xmlns="http://www.w3.org/2000/svg" width="20" height="20" viewBox="0 0 20 20">
  <g id="그룹_865" data-name="그룹 865" transform="translate(-305 -65)">
    <g id="타원_362" data-name="타원 362" transform="translate(305 65)" fill="none" stroke="#fff" stroke-width="1.5">
      <circle cx="10" cy="10" r="10" stroke="none"/>
      <circle cx="10" cy="10" r="9.25" fill="none"/>
    </g>
    <path id="패스_2908" data-name="패스 2908" d="M-.57-2.94a4.775,4.775,0,0,1,.1-1.4A3.268,3.268,0,0,1-.082-5.3a3.765,3.765,0,0,1,.547-.683q.3-.292.57-.607a3.047,3.047,0,0,0,.457-.727,2.682,2.682,0,0,0,.2-1.043,2.1,2.1,0,0,0-.1-.727,1.738,1.738,0,0,0-.33-.608A1.675,1.675,0,0,0,.735-10.1a1.589,1.589,0,0,0-.72-.157,1.887,1.887,0,0,0-.585.1,1.493,1.493,0,0,0-.563.345,1.982,1.982,0,0,0-.443.66A3.2,3.2,0,0,0-1.8-8.115H-2.955a4.2,4.2,0,0,1,.383-1.643A3.136,3.136,0,0,1-1.8-10.77a2.482,2.482,0,0,1,.967-.51,3.948,3.948,0,0,1,1-.135,2.645,2.645,0,0,1,1.14.24,2.723,2.723,0,0,1,.87.638,2.7,2.7,0,0,1,.547.938A3.5,3.5,0,0,1,2.91-8.445a3.335,3.335,0,0,1-.187,1.193,3.634,3.634,0,0,1-.465.863,5.71,5.71,0,0,1-.6.69,4.849,4.849,0,0,0-.585.69,3.045,3.045,0,0,0-.413.87,3.418,3.418,0,0,0-.105,1.2ZM-.03.2a.965.965,0,0,1-.7-.285A1,1,0,0,1-1.02-.84a1.05,1.05,0,0,1,.292-.765.941.941,0,0,1,.7-.3.957.957,0,0,1,.713.3A1.05,1.05,0,0,1,.975-.84a1,1,0,0,1-.293.75A.983.983,0,0,1-.03.2Z" transform="translate(314.955 80.415)" fill="#fff"/>
  </g>
</svg>
