<svg xmlns="http://www.w3.org/2000/svg" width="21.385" height="33.591" viewBox="0 0 21.385 33.591">
  <g id="icon_sikgi" transform="translate(3135.86 -3496.843)">
    <path id="패스_2820" data-name="패스 2820" d="M403.232,370.383a.519.519,0,0,0-.613.4l-1.583,7.548-2.417-.507a.48.48,0,0,0,.093-.153l1.549-7.383a.517.517,0,1,0-1.013-.212l-1.549,7.382a.5.5,0,0,0,0,.172l-2.209-.463,1.584-7.548a.518.518,0,0,0-1.014-.212l-1.622,7.734-.282,1.34a8.279,8.279,0,0,0,.287,4.428,6.148,6.148,0,0,1,.225,3.292l-2.522,12.022,3.491.732,2.523-12.021a6.159,6.159,0,0,1,1.529-2.928,8.265,8.265,0,0,0,2.041-3.935l.321-1.528h0L403.633,371A.519.519,0,0,0,403.232,370.383Zm-2.517,9.476a7.226,7.226,0,0,1-1.783,3.441,7.191,7.191,0,0,0-1.787,3.42l-2.31,11.01-1.464-.307,2.31-11.01a7.2,7.2,0,0,0-.261-3.846,7.236,7.236,0,0,1-.251-3.872l.108-.514,5.546,1.164Z" transform="translate(-3518.119 3128)" fill="#3c3c3c"/>
    <path id="패스_2821" data-name="패스 2821" d="M400.715,379.859a7.226,7.226,0,0,1-1.783,3.441,7.191,7.191,0,0,0-1.787,3.42l-2.31,11.01-1.464-.307,2.31-11.01a7.2,7.2,0,0,0-.261-3.846,7.236,7.236,0,0,1-.251-3.872l.108-.514,5.546,1.164Z" transform="translate(-3518.119 3128)" fill="#fff"/>
    <path id="패스_2822" data-name="패스 2822" d="M392.126,402.434l-2.841-1.841.068-.344c.909-4.612-.326-10.319-1.522-14.295a4.577,4.577,0,0,0-1.772-2.523,9.439,9.439,0,0,1-3.533-5.872,10.385,10.385,0,0,1,.234-5.57,3.941,3.941,0,0,1,7.068-1.509,10.387,10.387,0,0,1,2.488,4.989,9.444,9.444,0,0,1-.827,6.8,4.578,4.578,0,0,0-.588,3.027h0c.531,4.118,1.734,9.832,4.447,13.671l.2.287-1.841,2.841-1.066-1.812-.283.06Z" transform="translate(-3518.119 3128)" fill="#fff"/>
    <path id="패스_2823" data-name="패스 2823" d="M392.126,402.434l-2.841-1.841.068-.344c.909-4.612-.326-10.319-1.522-14.295a4.577,4.577,0,0,0-1.772-2.523,9.439,9.439,0,0,1-3.533-5.872,10.385,10.385,0,0,1,.234-5.57,3.941,3.941,0,0,1,7.068-1.509,10.387,10.387,0,0,1,2.488,4.989,9.444,9.444,0,0,1-.827,6.8,4.578,4.578,0,0,0-.588,3.027h0c.531,4.118,1.734,9.832,4.447,13.671l.2.287-1.841,2.841-1.066-1.812-.283.06Zm-1.693-2.331.851.551.129-1.165,1.744-.373.594,1.011.551-.85c-2.694-4-3.895-9.713-4.429-13.846h0a5.619,5.619,0,0,1,.739-3.711,8.411,8.411,0,0,0,.692-6.035,9.343,9.343,0,0,0-2.223-4.488,2.928,2.928,0,0,0-5.346,1.141,9.335,9.335,0,0,0-.2,5,8.4,8.4,0,0,0,3.094,5.227,5.621,5.621,0,0,1,2.19,3.086C390.023,389.647,391.259,395.35,390.433,400.1Z" transform="translate(-3518.119 3128)" fill="#3c3c3c"/>
  </g>
</svg>
