<svg xmlns="http://www.w3.org/2000/svg" width="48.943" height="46.894" viewBox="0 0 48.943 46.894">
  <g id="btn_send" transform="translate(0.033 -0.036)">
    <path id="패스_2564" data-name="패스 2564" d="M186.7,375.7v9.454a1.53,1.53,0,0,0,1.051,1.453,1.613,1.613,0,0,0,.478.076,1.526,1.526,0,0,0,1.233-.621L195,378.529Z" transform="translate(-168.883 -339.754)" fill="#cad4dd"/>
    <path id="패스_2565" data-name="패스 2565" d="M48.272.32A1.548,1.548,0,0,0,46.676.2L.793,24.169A1.545,1.545,0,0,0-.03,25.642,1.514,1.514,0,0,0,1,26.97l12.752,4.359L40.921,8.1,19.9,33.432l21.374,7.3a1.47,1.47,0,0,0,.5.086,1.55,1.55,0,0,0,.793-.22,1.52,1.52,0,0,0,.717-1.08l5.611-37.73A1.523,1.523,0,0,0,48.272.32Z" transform="translate(0 0)" fill="#cad4dd"/>
  </g>
</svg>
