<svg xmlns="http://www.w3.org/2000/svg" width="27.017" height="21.928" viewBox="0 0 27.017 21.928">
  <g id="btn_profile_photo" transform="translate(0 0)">
    <g id="그룹_550" data-name="그룹 550" transform="translate(0 0)">
      <path id="패스_2616" data-name="패스 2616" d="M0,52.816V64.731a3.3,3.3,0,0,0,3.3,3.3H23.72a3.3,3.3,0,0,0,3.3-3.3V52.81a3.139,3.139,0,0,0-3.137-3.137H19.491l-.1-.458A4.008,4.008,0,0,0,15.461,46.1H11.551a4.017,4.017,0,0,0-3.926,3.115l-.1.458H3.137A3.147,3.147,0,0,0,0,52.816Zm8.061-1.792a.672.672,0,0,0,.656-.524l.226-.981a2.667,2.667,0,0,1,2.608-2.068h3.909a2.667,2.667,0,0,1,2.608,2.068l.226.981a.678.678,0,0,0,.656.524h4.924a1.786,1.786,0,0,1,1.786,1.786V64.731a1.946,1.946,0,0,1-1.946,1.946H3.3a1.946,1.946,0,0,1-1.946-1.946V52.81a1.786,1.786,0,0,1,1.786-1.786Z" transform="translate(0 -46.1)" fill="#00244c"/>
      <circle id="타원_59" data-name="타원 59" cx="0.904" cy="0.904" r="0.904" transform="translate(3.667 6.909)" fill="#00244c"/>
      <path id="패스_2617" data-name="패스 2617" d="M147.774,186.547a5.674,5.674,0,1,0-5.674-5.674A5.683,5.683,0,0,0,147.774,186.547Zm0-10a4.323,4.323,0,1,1-4.323,4.323A4.33,4.33,0,0,1,147.774,176.545Z" transform="translate(-134.265 -168.082)" fill="#00244c"/>
    </g>
  </g>
</svg>
