<svg xmlns="http://www.w3.org/2000/svg" width="56.182" height="53.432" viewBox="0 0 56.182 53.432">
  <g id="btn_profile01_product" transform="translate(1 1.035)">
    <g id="레이어_1" data-name="레이어 1">
      <line id="선_27" data-name="선 27" x2="14.4" transform="translate(1.6 19.407)" fill="none" stroke="#00dbd8" stroke-linecap="round" stroke-miterlimit="10" stroke-width="2"/>
      <line id="선_28" data-name="선 28" x2="6" transform="translate(45 34.407)" fill="none" stroke="#00dbd8" stroke-linecap="round" stroke-miterlimit="10" stroke-width="2"/>
      <line id="선_29" data-name="선 29" x2="3" transform="translate(50 40.407)" fill="none" stroke="#00dbd8" stroke-linecap="round" stroke-miterlimit="10" stroke-width="2"/>
      <path id="패스_2551" data-name="패스 2551" d="M13.393,46.172l-1.6.545a2.163,2.163,0,0,1-2.82-2.735l.481-1.545a15.592,15.592,0,0,1,3.867-6.365l30.63-30.63a15.606,15.606,0,0,1,6.173-3.806l1.57-.512A2.163,2.163,0,0,1,54.476,3.9l-.512,1.57a15.606,15.606,0,0,1-3.806,6.173L19.371,42.431a15.619,15.619,0,0,1-5.978,3.741Z" transform="translate(-1 -0.99)" fill="none" stroke="#191919" stroke-miterlimit="10" stroke-width="2"/>
      <path id="패스_2552" data-name="패스 2552" d="M10.537,38.86,3.523,34.6c-.625-.379,0-1.558.827-1.566l12.127-.118" transform="translate(-1 -0.99)" fill="none" stroke="#191919" stroke-linecap="round" stroke-miterlimit="10" stroke-width="2"/>
      <path id="패스_2553" data-name="패스 2553" d="M16.74,45.063,21,52.077c.379.625,1.558,0,1.566-.827l.118-12.127" transform="translate(-1 -0.99)" fill="none" stroke="#191919" stroke-linecap="round" stroke-miterlimit="10" stroke-width="2"/>
      <path id="패스_2554" data-name="패스 2554" d="M35.086,14.311,24.372,25.025,4.979,10.606c-1.727-1.284-.937-3.743,1.05-3.266Z" transform="translate(-1 -0.99)" fill="none" stroke="#191919" stroke-linecap="round" stroke-linejoin="round" stroke-width="2"/>
      <path id="패스_2555" data-name="패스 2555" d="M22.68,10.928l3.1-3.1a1.994,1.994,0,0,1,2.819,0h0a1.994,1.994,0,0,1,0,2.819l-1.41,1.41" transform="translate(-1 -0.99)" fill="none" stroke="#191919" stroke-linecap="round" stroke-miterlimit="10" stroke-width="2"/>
      <path id="패스_2556" data-name="패스 2556" d="M41.289,20.514,30.575,31.228,44.993,50.621c1.284,1.727,3.743.937,3.266-1.05Z" transform="translate(-1 -0.99)" fill="none" stroke="#191919" stroke-linecap="round" stroke-linejoin="round" stroke-width="2"/>
      <path id="패스_2557" data-name="패스 2557" d="M44.672,32.92l3.1-3.1a1.994,1.994,0,0,0,0-2.819h0a1.994,1.994,0,0,0-2.819,0l-1.41,1.41" transform="translate(-1 -0.99)" fill="none" stroke="#191919" stroke-linecap="round" stroke-miterlimit="10" stroke-width="2"/>
      <line id="선_30" data-name="선 30" x2="8" transform="translate(0 24.407)" fill="none" stroke="#00dbd8" stroke-linecap="round" stroke-miterlimit="10" stroke-width="2"/>
      <line id="선_31" data-name="선 31" x2="8.182" transform="translate(46 19.407)" fill="none" stroke="#00dbd8" stroke-linecap="round" stroke-miterlimit="10" stroke-width="2"/>
    </g>
  </g>
</svg>
