<svg xmlns="http://www.w3.org/2000/svg" width="42.269" height="42.683" viewBox="0 0 42.269 42.683">
  <path id="패스_1622" data-name="패스 1622" d="M-8163.4,2223.09h34.808a3.731,3.731,0,0,0,3.731-3.732v-22.1a3.729,3.729,0,0,0-1.485-2.98l-17.4-13.123a3.734,3.734,0,0,0-4.493,0l-17.405,13.123a3.732,3.732,0,0,0-1.482,2.98v22.1a3.731,3.731,0,0,0,3.729,3.732Zm1.281-26.911,14.771-10.578a2.321,2.321,0,0,1,2.7,0l14.656,10.5a3.455,3.455,0,0,1,1.443,2.81v19.166a1.333,1.333,0,0,1-1.332,1.333h-12.14v-11.6a1.367,1.367,0,0,0-1.367-1.366h-5.228a1.365,1.365,0,0,0-1.363,1.366v11.6h-12.14a1.333,1.333,0,0,1-1.334-1.333v-19.306A3.182,3.182,0,0,1-8162.118,2196.179Zm2.449,2.941" transform="translate(8167.129 -2180.407)" fill="#fff"/>
</svg>
