<svg xmlns="http://www.w3.org/2000/svg" width="38.809" height="41.059" viewBox="0 0 38.809 41.059">
  <g id="그룹_1112" data-name="그룹 1112" transform="translate(49.792)">
    <path id="패스_2997" data-name="패스 2997" d="M-25.3,10.859h-18.8a1,1,0,0,0-1,1,1,1,0,0,0,1,1h18.8a1,1,0,0,0,1-1A1,1,0,0,0-25.3,10.859Z" fill="#062950"/>
    <path id="패스_2998" data-name="패스 2998" d="M-11.276,39.352l-4.642-4.642a8.428,8.428,0,0,0,1.828-5.258,8.441,8.441,0,0,0-2.49-6.01,8.44,8.44,0,0,0-6.01-2.49,8.441,8.441,0,0,0-6.01,2.49,8.441,8.441,0,0,0-2.49,6.01,8.441,8.441,0,0,0,2.49,6.01,8.446,8.446,0,0,0,6.01,2.49,8.434,8.434,0,0,0,5.258-1.828l4.642,4.642a1,1,0,0,0,.707.293,1,1,0,0,0,.707-.293A1,1,0,0,0-11.276,39.352Zm-11.314-3.4a6.461,6.461,0,0,1-4.6-1.9,6.459,6.459,0,0,1-1.9-4.6,6.455,6.455,0,0,1,1.9-4.6,6.457,6.457,0,0,1,4.6-1.9,6.455,6.455,0,0,1,4.6,1.9,6.455,6.455,0,0,1,1.9,4.6,6.459,6.459,0,0,1-1.9,4.6A6.459,6.459,0,0,1-22.59,35.952Z" fill="#062950"/>
    <path id="패스_2999" data-name="패스 2999" d="M-24.3,16.859a1,1,0,0,0-1-1h-18.8a1,1,0,0,0-1,1,1,1,0,0,0,1,1h18.8A1,1,0,0,0-24.3,16.859Z" fill="#062950"/>
    <path id="패스_3000" data-name="패스 3000" d="M-32.692,33.88h-1.579l0-.008H-47.792V2H-21.6V17h.006v1.3a1,1,0,0,0,1,1,1,1,0,0,0,1-1v-8a.248.248,0,0,0-.006-.029V1a1,1,0,0,0-1-1H-48.792a1,1,0,0,0-1,1V34.872a1,1,0,0,0,1,1h8.762c.013,0,.025.008.038.008h7.3a1,1,0,0,0,1-1A1,1,0,0,0-32.692,33.88Z" fill="#062950"/>
    <path id="패스_3001" data-name="패스 3001" d="M-36.292,20.848h-7.8a1,1,0,0,0-1,1,1,1,0,0,0,1,1h11.37a1,1,0,0,0,1-1,1,1,0,0,0-1-1Z" fill="#062950"/>
  </g>
</svg>
