<svg id="_05off" data-name="05off" xmlns="http://www.w3.org/2000/svg" width="35.414" height="35.344" viewBox="0 0 35.414 35.344">
  <path id="패스_2816" data-name="패스 2816" d="M20.266,18.44a9.22,9.22,0,1,1,9.22-9.22A9.23,9.23,0,0,1,20.266,18.44Zm0-16.9A7.683,7.683,0,1,0,27.949,9.22,7.692,7.692,0,0,0,20.266,1.537Z" transform="translate(-2.559)" fill="#062950"/>
  <path id="패스_2817" data-name="패스 2817" d="M.769,41.366a.759.759,0,0,1-.154-.016.767.767,0,0,1-.6-.906A18.059,18.059,0,0,1,35.4,40.415a.768.768,0,0,1-1.505.31,16.523,16.523,0,0,0-32.371.026A.769.769,0,0,1,.769,41.366Z" transform="translate(0 -6.024)" fill="#062950"/>
</svg>
