<svg id="btn_menu_01consumer_now_off" xmlns="http://www.w3.org/2000/svg" width="43.064" height="31.383" viewBox="0 0 43.064 31.383">
  <path id="패스_2979" data-name="패스 2979" d="M20.125,13.251A6.625,6.625,0,1,1,26.75,6.625,6.633,6.633,0,0,1,20.125,13.251Zm0-11.856a5.23,5.23,0,1,0,5.23,5.23A5.236,5.236,0,0,0,20.125,1.395Z" transform="translate(-4.085 0)" fill="#062950"/>
  <path id="패스_2980" data-name="패스 2980" d="M31.383,37.737H.7a.7.7,0,0,1-.7-.7,16.04,16.04,0,1,1,32.08,0A.7.7,0,0,1,31.383,37.737ZM1.411,36.343H30.669a14.646,14.646,0,0,0-29.258,0Z" transform="translate(0 -6.355)" fill="#062950"/>
  <path id="패스_2981" data-name="패스 2981" d="M54.4,12.395H40.447a.7.7,0,1,1,0-1.395H54.4a.7.7,0,1,1,0,1.395Z" transform="translate(-12.029 -3.329)" fill="#062950"/>
  <path id="패스_2982" data-name="패스 2982" d="M55.3,22.895H43.447a.7.7,0,0,1,0-1.395H55.3a.7.7,0,0,1,0,1.395Z" transform="translate(-12.936 -6.506)" fill="#062950"/>
  <path id="패스_2983" data-name="패스 2983" d="M56.816,33.395H48.447a.7.7,0,0,1,0-1.395h8.369a.7.7,0,1,1,0,1.395Z" transform="translate(-14.449 -9.683)" fill="#062950"/>
</svg>
