<svg id="btn_menu_02change_trip_on" xmlns="http://www.w3.org/2000/svg" width="35.068" height="32.58" viewBox="0 0 35.068 32.58">
  <path id="패스_2984" data-name="패스 2984" d="M25.566,38.885H19.29A2.792,2.792,0,0,1,16.5,36.1V33.684a.7.7,0,0,1,.7-.7H27.658a.7.7,0,0,1,.7.7V36.1A2.792,2.792,0,0,1,25.566,38.885Zm-7.671-4.5V36.1A1.4,1.4,0,0,0,19.29,37.49h6.277A1.4,1.4,0,0,0,26.961,36.1V34.382Z" transform="translate(-4.993 -9.982)" fill="#00dbd8"/>
  <path id="패스_2985" data-name="패스 2985" d="M29.218,34.309H9.7a3.206,3.206,0,0,1-3.2-3.2V12.822a7.114,7.114,0,0,1,7.106-7.106H25.314a7.114,7.114,0,0,1,7.106,7.106V31.107A3.206,3.206,0,0,1,29.218,34.309ZM13.606,7.111a5.717,5.717,0,0,0-5.711,5.711V31.107A1.809,1.809,0,0,0,9.7,32.914H29.218a1.809,1.809,0,0,0,1.807-1.807V12.822a5.717,5.717,0,0,0-5.711-5.711Z" transform="translate(-1.967 -1.73)" fill="#00dbd8"/>
  <path id="패스_2986" data-name="패스 2986" d="M46.113,38.48H42.982a.7.7,0,0,1-.7-.7V29.413a.7.7,0,0,1,.7-.7h3.13a1.754,1.754,0,0,1,1.752,1.752v6.259A1.754,1.754,0,0,1,46.113,38.48ZM43.68,37.085h2.433a.358.358,0,0,0,.357-.358V30.468a.357.357,0,0,0-.357-.357H43.68Z" transform="translate(-12.796 -8.69)" fill="#00dbd8"/>
  <path id="패스_2987" data-name="패스 2987" d="M4.882,38.48H1.752A1.754,1.754,0,0,1,0,36.728V30.469a1.754,1.754,0,0,1,1.75-1.753H4.882a.7.7,0,0,1,.7.7v8.369A.7.7,0,0,1,4.882,38.48Zm-3.13-8.369a.358.358,0,0,0-.357.357v6.26a.358.358,0,0,0,.357.357H4.184V30.111Z" transform="translate(0 -8.69)" fill="#00dbd8"/>
  <g id="그룹_1060" data-name="그룹 1060" transform="translate(1.743 1.197)">
    <rect id="사각형_349" data-name="사각형 349" width="29.106" height="9.764" rx="4.882" transform="translate(0.697 0.697)" fill="#fff"/>
    <path id="패스_2988" data-name="패스 2988" d="M28.852,12.874H6.649A4.154,4.154,0,0,1,2.5,8.725V5.866a4.154,4.154,0,0,1,4.149-4.15h22.2A4.154,4.154,0,0,1,33,5.866V8.725A4.154,4.154,0,0,1,28.852,12.874ZM6.649,3.111A2.758,2.758,0,0,0,3.895,5.866V8.725A2.758,2.758,0,0,0,6.649,11.48h22.2a2.758,2.758,0,0,0,2.755-2.755V5.866a2.758,2.758,0,0,0-2.755-2.755Z" transform="translate(-2.5 -1.716)" fill="#00dbd8"/>
  </g>
  <g id="그룹_1022" data-name="그룹 1022" transform="translate(7.671)">
    <g id="그룹_1021" data-name="그룹 1021">
      <g id="그룹_1061" data-name="그룹 1061" transform="translate(1.395)">
        <path id="사각형_350" data-name="사각형 350" d="M14,1h2.79V15.447a1.394,1.394,0,0,1-1.395,1.395h0A1.394,1.394,0,0,1,14,15.447V1Z" transform="translate(-13.303 -0.303)" fill="#fff"/>
        <path id="패스_2989" data-name="패스 2989" d="M15.092,17.237A2.1,2.1,0,0,1,13,15.145V.7a.7.7,0,0,1,.7-.7h2.79a.7.7,0,0,1,.7.7V15.145A2.1,2.1,0,0,1,15.092,17.237Zm-.7-15.842v13.75a.7.7,0,1,0,1.395,0V1.395Z" transform="translate(-13)" fill="#00dbd8"/>
      </g>
      <path id="패스_2990" data-name="패스 2990" d="M17.277,20.111H11.7a.7.7,0,0,1,0-1.395h5.579a.7.7,0,0,1,0,1.395Z" transform="translate(-11 -5.664)" fill="#00dbd8"/>
    </g>
    <g id="그룹_1020" data-name="그룹 1020" transform="translate(12.303)">
      <g id="그룹_1062" data-name="그룹 1062" transform="translate(1.628)">
        <path id="사각형_351" data-name="사각형 351" d="M31.976,1h2.79V15.447a1.394,1.394,0,0,1-1.395,1.395h0a1.394,1.394,0,0,1-1.395-1.395V1Z" transform="translate(-31.279 -0.303)" fill="#fff"/>
        <path id="패스_2991" data-name="패스 2991" d="M33.068,17.237a2.094,2.094,0,0,1-2.092-2.092V.7a.7.7,0,0,1,.7-.7h2.79a.7.7,0,0,1,.7.7V15.145A2.1,2.1,0,0,1,33.068,17.237Zm-.7-15.842v13.75a.7.7,0,1,0,1.395,0V1.395Z" transform="translate(-30.976)" fill="#00dbd8"/>
      </g>
      <path id="패스_2992" data-name="패스 2992" d="M34.919,20.111H29.339a.7.7,0,0,1,0-1.395h5.579a.7.7,0,0,1,0,1.395Z" transform="translate(-28.642 -5.664)" fill="#00dbd8"/>
    </g>
  </g>
</svg>
