<svg id="_04off" data-name="04off" xmlns="http://www.w3.org/2000/svg" width="28.428" height="21.094" viewBox="0 0 28.428 21.094">
  <path id="패스_2814" data-name="패스 2814" d="M23.818,21.093H4.61A4.615,4.615,0,0,1,0,16.484V4.61A4.615,4.615,0,0,1,4.61,0H23.818a4.615,4.615,0,0,1,4.61,4.61V16.484A4.615,4.615,0,0,1,23.818,21.093ZM4.61,1.537A3.076,3.076,0,0,0,1.537,4.61V16.484A3.076,3.076,0,0,0,4.61,19.557H23.818a3.076,3.076,0,0,0,3.073-3.073V4.61a3.076,3.076,0,0,0-3.073-3.073Z" transform="translate(0)" fill="#00244c"/>
  <path id="패스_2815" data-name="패스 2815" d="M14.123,15.431a4.8,4.8,0,0,1-2.209-.538L.413,8.881a.768.768,0,1,1,.711-1.361l11.5,6.01a3.264,3.264,0,0,0,3,0L27.3,7.425a.768.768,0,1,1,.711,1.361L16.335,14.892A4.8,4.8,0,0,1,14.123,15.431Z" transform="translate(0 -1.7)" fill="#00244c"/>
</svg>
