<svg id="_02on" data-name="02on" xmlns="http://www.w3.org/2000/svg" width="41.059" height="31.115" viewBox="0 0 41.059 31.115">
  <path id="패스_2807" data-name="패스 2807" d="M10.261,25.531a.766.766,0,0,1-.543-.225L2.957,18.544A10.127,10.127,0,0,1,17.278,4.221l3.015,3.016a.768.768,0,1,1-1.087,1.086L16.192,5.308A8.591,8.591,0,1,0,4.045,17.459l6.76,6.76a.768.768,0,0,1-.543,1.312Z" transform="translate(-0.011 -0.306)" fill="#00dbd8"/>
  <path id="패스_2808" data-name="패스 2808" d="M31.77,27.432a.768.768,0,0,1-.543-1.312l9.927-9.927A8.591,8.591,0,1,0,29,4.046l-9.926,9.926a.768.768,0,0,1-1.086-1.086l9.928-9.927A10.127,10.127,0,0,1,42.241,17.279l-9.928,9.928A.763.763,0,0,1,31.77,27.432Z" transform="translate(-4.124 -0.013)" fill="#00dbd8"/>
  <path id="패스_2809" data-name="패스 2809" d="M25.034,33.777A7.772,7.772,0,0,1,19.527,20.5l8.826-8.826a.768.768,0,0,1,1.086,1.086l-8.824,8.824a6.252,6.252,0,1,0,8.843,8.84L38.28,21.6a.768.768,0,0,1,1.086,1.086l-8.824,8.824A7.791,7.791,0,0,1,25.034,33.777Z" transform="translate(-4.008 -2.663)" fill="#00dbd8"/>
  <path id="패스_2810" data-name="패스 2810" d="M28.22,24.061a.768.768,0,0,1-.543-1.312L37.328,13.1a2.742,2.742,0,0,0,0-3.877,2.809,2.809,0,0,0-3.877,0l-8.273,8.272a.768.768,0,0,1-1.086-1.086l8.273-8.272a4.278,4.278,0,1,1,6.05,6.05l-9.652,9.652A.763.763,0,0,1,28.22,24.061Z" transform="translate(-5.538 -1.604)" fill="#00dbd8"/>
</svg>
