<svg id="_01on" data-name="01on" xmlns="http://www.w3.org/2000/svg" width="31.732" height="34.967" viewBox="0 0 31.732 34.967">
  <g id="레이어_1" data-name="레이어 1" transform="translate(0 0)">
    <path id="패스_2805" data-name="패스 2805" d="M30.964,34.965H.768A.768.768,0,0,1,0,34.2V13.349a.768.768,0,0,1,.277-.59L15.373.178a.766.766,0,0,1,.983,0l15.1,12.581a.768.768,0,0,1,.277.59V34.2A.768.768,0,0,1,30.964,34.965ZM1.537,33.429H30.2V13.709L15.865,1.769,1.537,13.709Z" transform="translate(0 0.001)" fill="#00dbd8"/>
    <path id="패스_2806" data-name="패스 2806" d="M23.43,41.577H14.8a.768.768,0,0,1-.768-.768v-11.5a.768.768,0,0,1,.768-.768H23.43a.768.768,0,0,1,.768.768v11.5A.768.768,0,0,1,23.43,41.577Zm-7.858-1.537h7.09V30.075h-7.09Z" transform="translate(-3.252 -6.611)" fill="#00dbd8"/>
  </g>
</svg>
