<svg id="_03on" data-name="03on" xmlns="http://www.w3.org/2000/svg" width="26.139" height="35.447" viewBox="0 0 26.139 35.447">
  <g id="레이어_1" data-name="레이어 1" transform="translate(0 0)">
    <path id="패스_2811" data-name="패스 2811" d="M16.294,19.671a2.4,2.4,0,1,1,2.4-2.4A2.407,2.407,0,0,1,16.294,19.671Zm0-3.273a.868.868,0,1,0,.868.868A.869.869,0,0,0,16.294,16.4Z" transform="translate(-3.224 -3.421)" fill="#00dbd8"/>
    <path id="패스_2812" data-name="패스 2812" d="M13.09,35.417a.716.716,0,0,1-.1-.006.768.768,0,0,1-.532-.324l-9.767-14.1A13.074,13.074,0,1,1,16.57,25.645l.043.066a6.379,6.379,0,0,1-.663,7.408c-.238.292-1.731,1.577-2.361,2.114A.772.772,0,0,1,13.09,35.417Zm-.035-33.91a11.54,11.54,0,0,0-9.14,18.549l.078.1L13.236,33.51c.736-.637,1.422-1.248,1.543-1.385a4.836,4.836,0,0,0,.529-5.6L11.9,21.346,8.732,16.74a5.237,5.237,0,1,1,8.7-.016l-.066.091L14.244,21.36a1.391,1.391,0,0,1-.29.309l1.723,2.618A11.536,11.536,0,0,0,22.241,6.037,11.464,11.464,0,0,0,14.6,1.611,11.8,11.8,0,0,0,13.054,1.508Zm.031,8.613A3.7,3.7,0,0,0,10,15.872l3.078,4.472,3.111-4.515a3.7,3.7,0,0,0-3.1-5.709Zm-.007,6.1a2.405,2.405,0,0,1,0-4.81h0a2.4,2.4,0,1,1,0,4.81Zm0-3.273a.867.867,0,0,0-.867.867.868.868,0,1,0,.868-.867h0Z" transform="translate(-0.009 0.029)" fill="#00dbd8"/>
    <path id="패스_2813" data-name="패스 2813" d="M19.869,33.178a.768.768,0,0,1-.148-1.522c.184-.036.366-.076.549-.121.1-.025.207-.051.308-.08a.768.768,0,1,1,.413,1.48c-.119.033-.238.065-.357.094-.2.049-.41.1-.617.136A.819.819,0,0,1,19.869,33.178Z" transform="translate(-4.432 -7.258)" fill="#00dbd8"/>
  </g>
</svg>
