<?xml version="1.0" encoding="utf-8"?>
<!-- Generator: Adobe Illustrator 22.1.0, SVG Export Plug-In . SVG Version: 6.00 Build 0)  -->
<svg version="1.1" id="레이어_1" xmlns="http://www.w3.org/2000/svg" xmlns:xlink="http://www.w3.org/1999/xlink" x="0px"
	 y="0px" viewBox="0 0 161.1 35" style="enable-background:new 0 0 161.1 35;" xml:space="preserve">
<style type="text/css">
	.st0{clip-path:url(#SVGID_2_);}
	.st1{clip-path:url(#SVGID_4_);}
	.st2{clip-path:url(#SVGID_6_);fill:#6C00B7;}
	.st3{filter:url(#Adobe_OpacityMaskFilter);}
	.st4{clip-path:url(#SVGID_8_);fill:url(#SVGID_10_);}
	.st5{clip-path:url(#SVGID_8_);mask:url(#SVGID_9_);fill:url(#SVGID_11_);}
	.st6{clip-path:url(#SVGID_13_);fill:#6C00B7;}
	.st7{clip-path:url(#SVGID_13_);fill:#1B314E;}
	.st8{filter:url(#Adobe_OpacityMaskFilter_1_);}
	.st9{clip-path:url(#SVGID_15_);fill:url(#SVGID_17_);}
	.st10{clip-path:url(#SVGID_15_);mask:url(#SVGID_16_);fill:url(#SVGID_18_);}
	.st11{clip-path:url(#SVGID_20_);}
	.st12{clip-path:url(#SVGID_22_);}
	.st13{clip-path:url(#SVGID_24_);fill:url(#SVGID_25_);}
	.st14{clip-path:url(#SVGID_27_);fill:#FFFFFF;}
	.st15{filter:url(#Adobe_OpacityMaskFilter_2_);}
	.st16{clip-path:url(#SVGID_29_);fill:url(#SVGID_31_);}
	.st17{clip-path:url(#SVGID_29_);mask:url(#SVGID_30_);fill:url(#SVGID_32_);}
</style>
<g>
	<g>
		<g id="아트웍_4_9_">
			<g>
				<defs>
					<rect id="SVGID_1_" x="42.3" y="7.9" width="118.7" height="20.4"/>
				</defs>
				<clipPath id="SVGID_2_">
					<use xlink:href="#SVGID_1_"  style="overflow:visible;"/>
				</clipPath>
				<g class="st0">
					<defs>
						<rect id="SVGID_3_" x="42.3" y="7.9" width="118.7" height="20.4"/>
					</defs>
					<clipPath id="SVGID_4_">
						<use xlink:href="#SVGID_3_"  style="overflow:visible;"/>
					</clipPath>
					<g class="st1">
						<defs>
							<rect id="SVGID_5_" x="42.3" y="7.9" width="118.7" height="20.4"/>
						</defs>
						<clipPath id="SVGID_6_">
							<use xlink:href="#SVGID_5_"  style="overflow:visible;"/>
						</clipPath>
						<path class="st2" d="M161.1,11.4l-5.2,11.7c-1.7,3.8-3.2,5.1-6.4,5.1h-1.5v-3.6h1.2c1.6,0,2.1-0.4,2.7-1.9l-5.1-11.3h4.3
							l2.9,6.8l2.7-6.8H161.1z"/>
					</g>
					<g class="st1">
						<defs>
							<path id="SVGID_7_" d="M135.5,17.3c0,0-1.3,2.7-2.3,4c0,0,0.7,0.8,1,1.1c0,0,0,0,0,0c0,0,0,0,0,0c1.1,1,2.6,1.6,4.3,1.6
								c0,0,0,0,0,0v-3.8c-1.5,0-2.7-1.2-2.7-2.7c0-0.7,0.3-1.4,0.8-1.9C136.2,16.1,135.8,16.7,135.5,17.3"/>
						</defs>
						<clipPath id="SVGID_8_">
							<use xlink:href="#SVGID_7_"  style="overflow:visible;"/>
						</clipPath>
						<defs>
							<filter id="Adobe_OpacityMaskFilter" filterUnits="userSpaceOnUse" x="130.4" y="13.9" width="11.1" height="12">
								<feColorMatrix  type="matrix" values="1 0 0 0 0  0 1 0 0 0  0 0 1 0 0  0 0 0 1 0"/>
							</filter>
						</defs>
						<mask maskUnits="userSpaceOnUse" x="130.4" y="13.9" width="11.1" height="12" id="SVGID_9_">
							<g class="st3">
								
									<linearGradient id="SVGID_10_" gradientUnits="userSpaceOnUse" x1="237.199" y1="111.0463" x2="238.4718" y2="111.0463" gradientTransform="matrix(5.8878 2.3134 2.3215 -5.8674 -1522.209 121.2194)">
									<stop  offset="0" style="stop-color:#000000"/>
									<stop  offset="2.168548e-02" style="stop-color:#101010"/>
									<stop  offset="0.1045" style="stop-color:#474747"/>
									<stop  offset="0.19" style="stop-color:#787878"/>
									<stop  offset="0.2764" style="stop-color:#A2A2A2"/>
									<stop  offset="0.3641" style="stop-color:#C3C3C3"/>
									<stop  offset="0.4531" style="stop-color:#DEDEDE"/>
									<stop  offset="0.5442" style="stop-color:#F0F0F0"/>
									<stop  offset="0.6388" style="stop-color:#FBFBFB"/>
									<stop  offset="0.742" style="stop-color:#FFFFFF"/>
									<stop  offset="1" style="stop-color:#FFFFFF"/>
								</linearGradient>
								<polygon class="st4" points="134,13.9 141.5,16.8 137.9,25.9 130.4,22.9 								"/>
							</g>
						</mask>
						
							<linearGradient id="SVGID_11_" gradientUnits="userSpaceOnUse" x1="237.199" y1="111.0463" x2="238.4718" y2="111.0463" gradientTransform="matrix(5.8878 2.3134 2.3215 -5.8674 -1522.2091 121.2192)">
							<stop  offset="0" style="stop-color:#FFFFFF"/>
							<stop  offset="2.168548e-02" style="stop-color:#F6EFFB"/>
							<stop  offset="0.1045" style="stop-color:#D6B8EB"/>
							<stop  offset="0.19" style="stop-color:#BA87DD"/>
							<stop  offset="0.2764" style="stop-color:#A25DD1"/>
							<stop  offset="0.3641" style="stop-color:#8E3CC8"/>
							<stop  offset="0.4531" style="stop-color:#7F21C0"/>
							<stop  offset="0.5442" style="stop-color:#740FBB"/>
							<stop  offset="0.6388" style="stop-color:#6E04B8"/>
							<stop  offset="0.742" style="stop-color:#6C00B7"/>
							<stop  offset="1" style="stop-color:#6C00B7"/>
						</linearGradient>
						<polygon class="st5" points="134,13.9 141.5,16.8 137.9,25.9 130.4,22.9 						"/>
					</g>
					<g class="st1">
						<defs>
							<rect id="SVGID_12_" x="42.3" y="7.9" width="118.7" height="20.4"/>
						</defs>
						<clipPath id="SVGID_13_">
							<use xlink:href="#SVGID_12_"  style="overflow:visible;"/>
						</clipPath>
						<path class="st6" d="M142.8,11.4l-0.4,0.8c-1.1-0.8-2.4-1.2-3.8-1.2c-0.1,0-0.1,0-0.1,0c-0.1,0-0.2,0-0.3,0
							c-0.1,0-0.2,0-0.2,0c-0.1,0-0.1,0-0.2,0c-1.8,0.3-3.4,1.3-4.4,3.1c0,0-1.7,3.3-2.9,5c0,0-0.1,0.1-0.1,0.1
							c-0.3,0.4-0.7,0.7-1.2,0.8c0,0-0.1,0-0.1,0c0,0-0.1,0-0.1,0c-0.1,0-0.2,0-0.3,0.1c0,0,0,0,0,0c-0.1,0-0.2,0-0.3,0
							c-0.4,0-0.8-0.1-1.2-0.2c-1.2-0.5-1.9-1.8-1.6-3.1c0.3-1.2,1.4-2.1,2.7-2l0,0c0.9,0,1.8,0.2,2.3,0.8l1.7-3.2
							c-0.8-0.6-1.7-1.1-2.7-1.3c-1.7-0.4-3.4,0-4.7,0.8l-0.3-0.6h-3.2v16.7h4.2v-4.6c0.9,0.4,1.9,0.6,2.9,0.5c2.1-0.1,3.8-1,5-2.8
							v0c0.9-1.3,2.3-4,2.3-4c0.3-0.6,0.6-1.1,1-1.5c0-0.1,0.1-0.1,0.2-0.2c0,0,0,0,0,0c0.5-0.5,1.2-0.8,2-0.8
							c1.5,0,2.7,1.2,2.7,2.7c0,1.5-1.2,2.7-2.7,2.7v3.8c0,0,0,0,0,0v0c1.4,0,2.7-0.4,3.8-1.2l0.3,0.8h3.3V11.4H142.8z"/>
						<path class="st6" d="M53.8,21.1h-6.2l-1,2.7h-4.1l6.2-15.9h4.2l6.3,15.9h-4.2L53.8,21.1z M50.6,13.1l-1.7,4.4h3.5L50.6,13.1z"
							/>
						<rect x="60.4" y="7.9" class="st6" width="4.3" height="15.9"/>
						<rect x="66.3" y="7.9" class="st6" width="4.3" height="15.9"/>
						<path class="st6" d="M98.1,13.2h4.3v10.5h-4.3V13.2z M98.1,7.9h4.2v3.7h-4.2V7.9z"/>
						<path class="st6" d="M116.5,16v7.8h-4.3v-7.2c0-1.5-0.7-2.2-1.8-2.2c-1.3,0-2,1-2,2.6v6.8h-4.3V11h3.2l0.1,1.3
							c0.9-1.1,2.2-1.6,4.2-1.6C114.6,10.8,116.5,12.9,116.5,16"/>
						<polyline class="st7" points="87.5,14.7 87.5,14.7 87.5,14.7 						"/>
						<path class="st6" d="M84.4,21.2c1-1.4,2.3-4.1,2.3-4.1c0.3-0.6,0.6-1.1,1-1.5c0.1-0.1,0.1-0.1,0.2-0.2c0,0,0,0,0,0
							c0,0,0,0,0,0c0.5-0.5,1.2-0.9,2-0.9c1.6,0,2.8,1.3,2.8,2.8c0,1.5-1.3,2.8-2.8,2.8V24c0,0,0,0,0,0c3.2,0,6-2.3,6.6-5.3
							c0-0.1,0-0.2,0.1-0.3c0-0.1,0-0.1,0-0.2c0-0.1,0-0.2,0-0.3c0-0.1,0-0.1,0-0.2c0,0,0,0,0-0.1c0-0.1,0-0.2,0-0.3
							c0,0,0-0.1,0-0.1c0,0,0,0,0,0c0,0,0-0.1,0-0.1c-0.1-1.9-0.9-3.7-2.5-5c-1.1-0.9-2.7-1.5-4.3-1.5c-0.1,0-0.1,0-0.2,0
							c-0.1,0-0.2,0-0.3,0c-0.1,0-0.2,0-0.2,0c-0.1,0-0.2,0-0.2,0c-1.9,0.3-3.5,1.3-4.6,3.2c0,0-1.7,3.4-3,5.1c0,0-0.1,0.1-0.1,0.1
							c0,0,0,0,0,0c0,0,0,0,0,0c-0.3,0.4-0.8,0.7-1.3,0.8c0,0-0.1,0-0.1,0c0,0-0.1,0-0.1,0c-0.1,0-0.2,0-0.3,0.1c0,0,0,0,0,0
							c-0.1,0-0.2,0-0.3,0c0,0,0,0,0,0c0,0,0,0,0,0c-0.4,0-0.8-0.1-1.2-0.2c-1.3-0.5-1.9-1.9-1.6-3.2c0.3-1.3,1.5-2.1,2.8-2.1l0,0
							c1,0,1.8,0.3,2.4,0.8l1.7-3.3c-0.8-0.7-1.7-1.1-2.8-1.3c-3.9-0.8-7.6,1.8-8.1,5.8c-0.6,4.1,2.9,7.8,7.1,7.6
							C81.4,23.9,83.2,23,84.4,21.2"/>
					</g>
					<g class="st1">
						<defs>
							<path id="SVGID_14_" d="M86.7,17.1c0,0-1.4,2.8-2.3,4.1c0,0,0.7,0.8,1.1,1.2c0,0,0,0,0,0c0,0,0,0,0,0c1.2,1,2.7,1.6,4.4,1.6
								c0,0,0,0,0,0v-3.9c-1.6,0-2.8-1.3-2.8-2.8c0-0.8,0.3-1.4,0.8-1.9C87.4,15.8,87,16.4,86.7,17.1"/>
						</defs>
						<clipPath id="SVGID_15_">
							<use xlink:href="#SVGID_14_"  style="overflow:visible;"/>
						</clipPath>
						<defs>
							<filter id="Adobe_OpacityMaskFilter_1_" filterUnits="userSpaceOnUse" x="81.4" y="13.5" width="11.4" height="12.4">
								<feColorMatrix  type="matrix" values="1 0 0 0 0  0 1 0 0 0  0 0 1 0 0  0 0 0 1 0"/>
							</filter>
						</defs>
						<mask maskUnits="userSpaceOnUse" x="81.4" y="13.5" width="11.4" height="12.4" id="SVGID_16_">
							<g class="st8">
								
									<linearGradient id="SVGID_17_" gradientUnits="userSpaceOnUse" x1="202.6538" y1="93.6298" x2="203.9267" y2="93.6298" gradientTransform="matrix(6.0743 2.3867 2.395 -6.0532 -1371.9731 101.2604)">
									<stop  offset="0" style="stop-color:#000000"/>
									<stop  offset="2.168548e-02" style="stop-color:#101010"/>
									<stop  offset="0.1045" style="stop-color:#474747"/>
									<stop  offset="0.19" style="stop-color:#787878"/>
									<stop  offset="0.2764" style="stop-color:#A2A2A2"/>
									<stop  offset="0.3641" style="stop-color:#C3C3C3"/>
									<stop  offset="0.4531" style="stop-color:#DEDEDE"/>
									<stop  offset="0.5442" style="stop-color:#F0F0F0"/>
									<stop  offset="0.6388" style="stop-color:#FBFBFB"/>
									<stop  offset="0.742" style="stop-color:#FFFFFF"/>
									<stop  offset="1" style="stop-color:#FFFFFF"/>
								</linearGradient>
								<polygon class="st9" points="85.1,13.5 92.8,16.5 89.1,25.9 81.4,22.8 								"/>
							</g>
						</mask>
						
							<linearGradient id="SVGID_18_" gradientUnits="userSpaceOnUse" x1="202.6537" y1="93.6298" x2="203.9266" y2="93.6298" gradientTransform="matrix(6.0743 2.3867 2.395 -6.0532 -1371.9727 101.2604)">
							<stop  offset="0" style="stop-color:#FFFFFF"/>
							<stop  offset="2.168548e-02" style="stop-color:#F6EFFB"/>
							<stop  offset="0.1045" style="stop-color:#D6B8EB"/>
							<stop  offset="0.19" style="stop-color:#BA87DD"/>
							<stop  offset="0.2764" style="stop-color:#A25DD1"/>
							<stop  offset="0.3641" style="stop-color:#8E3CC8"/>
							<stop  offset="0.4531" style="stop-color:#7F21C0"/>
							<stop  offset="0.5442" style="stop-color:#740FBB"/>
							<stop  offset="0.6388" style="stop-color:#6E04B8"/>
							<stop  offset="0.742" style="stop-color:#6C00B7"/>
							<stop  offset="1" style="stop-color:#6C00B7"/>
						</linearGradient>
						<polygon class="st10" points="85.1,13.5 92.8,16.5 89.1,25.9 81.4,22.8 						"/>
					</g>
				</g>
			</g>
		</g>
	</g>
	<g id="아트웍_9_28_">
		<g>
			<defs>
				<rect id="SVGID_19_" x="0.3" y="0.2" width="34.6" height="34.5"/>
			</defs>
			<clipPath id="SVGID_20_">
				<use xlink:href="#SVGID_19_"  style="overflow:visible;"/>
			</clipPath>
			<g class="st11">
				<defs>
					<rect id="SVGID_21_" x="0.3" y="0.2" width="34.6" height="34.5"/>
				</defs>
				<clipPath id="SVGID_22_">
					<use xlink:href="#SVGID_21_"  style="overflow:visible;"/>
				</clipPath>
				<g class="st12">
					<defs>
						<path id="SVGID_23_" d="M9.9,0.2c-5.3,0-9.6,4.3-9.6,9.6v15.3c0,5.3,4.3,9.6,9.6,9.6h15.4c5.3,0,9.6-4.3,9.6-9.5V9.7
							c0-5.2-4.4-9.5-9.6-9.5H9.9z"/>
					</defs>
					<clipPath id="SVGID_24_">
						<use xlink:href="#SVGID_23_"  style="overflow:visible;"/>
					</clipPath>
					
						<linearGradient id="SVGID_25_" gradientUnits="userSpaceOnUse" x1="-763.5063" y1="-306.5839" x2="-762.3115" y2="-306.5839" gradientTransform="matrix(28.9672 28.8668 28.9672 -28.8668 30997.7793 13190.1582)">
						<stop  offset="0" style="stop-color:#00B7B2"/>
						<stop  offset="0.2662" style="stop-color:#2677B4"/>
						<stop  offset="0.5101" style="stop-color:#4444B5"/>
						<stop  offset="0.7214" style="stop-color:#5A1FB6"/>
						<stop  offset="0.8918" style="stop-color:#6708B7"/>
						<stop  offset="1" style="stop-color:#6C00B7"/>
					</linearGradient>
					<polygon class="st13" points="17.6,-17 52.2,17.5 17.6,52 -17,17.5 					"/>
				</g>
				<g class="st12">
					<defs>
						<rect id="SVGID_26_" x="0.3" y="0.2" width="34.6" height="34.5"/>
					</defs>
					<clipPath id="SVGID_27_">
						<use xlink:href="#SVGID_26_"  style="overflow:visible;"/>
					</clipPath>
					<path class="st14" d="M17.6,21.5c1-1.4,2.4-4.3,2.4-4.3c0.3-0.6,0.6-1.1,1-1.6c0.1-0.1,0.1-0.1,0.2-0.2c0,0,0,0,0,0
						c0,0,0,0,0,0c0.5-0.6,1.3-0.9,2.1-0.9c1.6,0,2.9,1.3,2.9,2.9c0,1.6-1.3,2.9-2.9,2.9v4c0,0,0,0,0,0c3.4,0,6.2-2.4,6.8-5.5
						c0-0.1,0-0.2,0.1-0.3c0-0.1,0-0.1,0-0.2c0-0.1,0-0.2,0-0.3c0-0.1,0-0.1,0-0.2c0,0,0-0.1,0-0.1c0-0.1,0-0.2,0-0.3
						c0,0,0-0.1,0-0.1c0,0,0,0,0,0c0,0,0-0.1,0-0.1c-0.1-2-0.9-3.8-2.5-5.2c-1.2-1-2.8-1.6-4.5-1.6c-0.1,0-0.1,0-0.2,0
						c-0.1,0-0.2,0-0.3,0c-0.1,0-0.2,0-0.3,0c-0.1,0-0.2,0-0.2,0c-1.9,0.3-3.7,1.4-4.8,3.3c0,0-1.8,3.6-3.1,5.3
						c0,0.1-0.1,0.1-0.1,0.1c0,0,0,0,0,0c0,0,0,0,0,0c-0.3,0.4-0.8,0.7-1.3,0.9c0,0-0.1,0-0.1,0c0,0-0.1,0-0.1,0
						c-0.1,0-0.2,0-0.3,0.1l0,0c-0.1,0-0.2,0-0.3,0c0,0,0,0,0,0c0,0,0,0,0,0c-0.4,0-0.9-0.1-1.3-0.3c-1.3-0.5-2-1.9-1.7-3.3
						c0.3-1.3,1.5-2.2,2.9-2.2l0,0c1,0,1.9,0.3,2.5,0.8l1.8-3.4c-0.8-0.7-1.8-1.1-2.9-1.4c-4.1-0.8-7.9,1.9-8.4,6
						c-0.6,4.2,3,8.1,7.3,7.8C14.6,24.4,16.4,23.4,17.6,21.5"/>
				</g>
				<g class="st12">
					<defs>
						<path id="SVGID_28_" d="M20,17.2c0,0-1.4,2.9-2.4,4.3c0,0,0.7,0.9,1.1,1.2c0,0,0,0,0,0c0,0,0,0,0,0c1.2,1,2.8,1.7,4.6,1.7
							c0,0,0,0,0,0v-4c-1.6,0-2.9-1.3-2.9-2.9c0-0.8,0.3-1.5,0.8-2C20.8,15.9,20.4,16.5,20,17.2"/>
					</defs>
					<clipPath id="SVGID_29_">
						<use xlink:href="#SVGID_28_"  style="overflow:visible;"/>
					</clipPath>
					<defs>
						<filter id="Adobe_OpacityMaskFilter_2_" filterUnits="userSpaceOnUse" x="14.6" y="13.5" width="11.8" height="12.8">
							<feColorMatrix  type="matrix" values="1 0 0 0 0  0 1 0 0 0  0 0 1 0 0  0 0 0 1 0"/>
						</filter>
					</defs>
					<mask maskUnits="userSpaceOnUse" x="14.6" y="13.5" width="11.8" height="12.8" id="SVGID_30_">
						<g class="st15">
							
								<linearGradient id="SVGID_31_" gradientUnits="userSpaceOnUse" x1="164.8854" y1="74.5886" x2="166.1582" y2="74.5886" gradientTransform="matrix(6.2921 2.4723 2.4809 -6.2703 -1206.0524 78.4265)">
								<stop  offset="0" style="stop-color:#000000"/>
								<stop  offset="2.168548e-02" style="stop-color:#101010"/>
								<stop  offset="0.1045" style="stop-color:#474747"/>
								<stop  offset="0.19" style="stop-color:#787878"/>
								<stop  offset="0.2764" style="stop-color:#A2A2A2"/>
								<stop  offset="0.3641" style="stop-color:#C3C3C3"/>
								<stop  offset="0.4531" style="stop-color:#DEDEDE"/>
								<stop  offset="0.5442" style="stop-color:#F0F0F0"/>
								<stop  offset="0.6388" style="stop-color:#FBFBFB"/>
								<stop  offset="0.742" style="stop-color:#FFFFFF"/>
								<stop  offset="1" style="stop-color:#FFFFFF"/>
							</linearGradient>
							<polygon class="st16" points="18.4,13.5 26.4,16.7 22.6,26.4 14.6,23.2 							"/>
						</g>
					</mask>
					
						<linearGradient id="SVGID_32_" gradientUnits="userSpaceOnUse" x1="164.8854" y1="74.5886" x2="166.1582" y2="74.5886" gradientTransform="matrix(6.2921 2.4723 2.4809 -6.2703 -1206.0524 78.4265)">
						<stop  offset="0" style="stop-color:#FFFFFF"/>
						<stop  offset="3.322067e-02" style="stop-color:#FFFFFF"/>
						<stop  offset="0.742" style="stop-color:#FFFFFF"/>
						<stop  offset="1" style="stop-color:#FFFFFF"/>
					</linearGradient>
					<polygon class="st17" points="18.4,13.5 26.4,16.7 22.6,26.4 14.6,23.2 					"/>
				</g>
			</g>
		</g>
	</g>
</g>
</svg>
