<?xml version="1.0" encoding="utf-8"?>
<!-- Generator: Adobe Illustrator 22.1.0, SVG Export Plug-In . SVG Version: 6.00 Build 0)  -->
<svg version="1.1" id="레이어_1" xmlns="http://www.w3.org/2000/svg" xmlns:xlink="http://www.w3.org/1999/xlink" x="0px"
	 y="0px" viewBox="0 0 112.9 57.3" style="enable-background:new 0 0 112.9 57.3;" xml:space="preserve">
<style type="text/css">
	.st0{clip-path:url(#SVGID_2_);}
	.st1{clip-path:url(#SVGID_4_);}
	.st2{clip-path:url(#SVGID_6_);fill:url(#SVGID_7_);}
	.st3{clip-path:url(#SVGID_9_);fill:#FFFFFF;}
	.st4{filter:url(#Adobe_OpacityMaskFilter);}
	.st5{clip-path:url(#SVGID_11_);fill:url(#SVGID_13_);}
	.st6{clip-path:url(#SVGID_11_);mask:url(#SVGID_12_);fill:url(#SVGID_14_);}
	.st7{fill:#B480D9;}
	.st8{fill:#474747;}
	.st9{clip-path:url(#SVGID_16_);}
	.st10{clip-path:url(#SVGID_18_);}
	.st11{clip-path:url(#SVGID_20_);fill:#6C00B7;}
	.st12{filter:url(#Adobe_OpacityMaskFilter_1_);}
	.st13{clip-path:url(#SVGID_22_);fill:url(#SVGID_24_);}
	.st14{clip-path:url(#SVGID_22_);mask:url(#SVGID_23_);fill:url(#SVGID_25_);}
	.st15{clip-path:url(#SVGID_27_);fill:#6C00B7;}
	.st16{clip-path:url(#SVGID_27_);fill:#1B314E;}
	.st17{filter:url(#Adobe_OpacityMaskFilter_2_);}
	.st18{clip-path:url(#SVGID_29_);fill:url(#SVGID_31_);}
	.st19{clip-path:url(#SVGID_29_);mask:url(#SVGID_30_);fill:url(#SVGID_32_);}
</style>
<g id="아트웍_2_4_">
	<g>
		<defs>
			<rect id="SVGID_15_" x="0" y="0" width="112.9" height="57.3"/>
		</defs>
		<clipPath id="SVGID_2_">
			<use xlink:href="#SVGID_15_"  style="overflow:visible;"/>
		</clipPath>
		<g class="st0">
			<defs>
				<rect id="SVGID_17_" x="0" y="0" width="112.9" height="57.3"/>
			</defs>
			<clipPath id="SVGID_4_">
				<use xlink:href="#SVGID_17_"  style="overflow:visible;"/>
			</clipPath>
			<g class="st1">
				<defs>
					<rect id="SVGID_19_" x="0" y="0" width="112.9" height="57.3"/>
				</defs>
				<clipPath id="SVGID_6_">
					<use xlink:href="#SVGID_19_"  style="overflow:visible;"/>
				</clipPath>
				<path style="clip-path:url(#SVGID_6_);fill:#6C00B7;" d="M88.3,31.6l-7.9,17.9c-2.5,5.7-4.8,7.8-9.7,7.8h-2.2v-5.5h1.8
					c2.5,0,3.2-0.6,4.1-3l-7.7-17.2h6.5l4.5,10.3l4.1-10.3H88.3z"/>
			</g>
			<g class="st1">
				<defs>
					<path id="SVGID_21_" d="M49.5,40.6c0,0-2,4.1-3.4,6.1c0,0,1,1.2,1.6,1.7c0,0,0,0,0,0c0,0,0,0,0,0c1.7,1.5,4,2.4,6.5,2.4
						c0,0,0,0,0.1,0v-5.8c-2.3,0-4.1-1.9-4.1-4.1c0-1.1,0.4-2.1,1.2-2.9C50.5,38.7,50,39.6,49.5,40.6"/>
				</defs>
				<clipPath id="SVGID_7_">
					<use xlink:href="#SVGID_21_"  style="overflow:visible;"/>
				</clipPath>
				<defs>
					<filter id="Adobe_OpacityMaskFilter" filterUnits="userSpaceOnUse" x="41.6" y="35.3" width="16.9" height="18.3">
						<feColorMatrix  type="matrix" values="1 0 0 0 0  0 1 0 0 0  0 0 1 0 0  0 0 0 1 0"/>
					</filter>
				</defs>
				<mask maskUnits="userSpaceOnUse" x="41.6" y="35.3" width="16.9" height="18.3" id="SVGID_9_">
					<g class="st4">
						
							<linearGradient id="SVGID_11_" gradientUnits="userSpaceOnUse" x1="-931.4584" y1="-155.7089" x2="-930.1855" y2="-155.7089" gradientTransform="matrix(8.9563 3.5313 3.5313 -8.9563 8936.6709 1936.9536)">
							<stop  offset="0" style="stop-color:#000000"/>
							<stop  offset="2.168548e-02" style="stop-color:#101010"/>
							<stop  offset="0.1045" style="stop-color:#474747"/>
							<stop  offset="0.19" style="stop-color:#787878"/>
							<stop  offset="0.2764" style="stop-color:#A2A2A2"/>
							<stop  offset="0.3641" style="stop-color:#C3C3C3"/>
							<stop  offset="0.4531" style="stop-color:#DEDEDE"/>
							<stop  offset="0.5442" style="stop-color:#F0F0F0"/>
							<stop  offset="0.6388" style="stop-color:#FBFBFB"/>
							<stop  offset="0.742" style="stop-color:#FFFFFF"/>
							<stop  offset="1" style="stop-color:#FFFFFF"/>
						</linearGradient>
						<polygon style="clip-path:url(#SVGID_7_);fill:url(#SVGID_11_);" points="47.1,35.3 58.5,39.8 53,53.6 41.6,49.2 						"/>
					</g>
				</mask>
				
					<linearGradient id="SVGID_12_" gradientUnits="userSpaceOnUse" x1="-931.4584" y1="-155.7089" x2="-930.1855" y2="-155.7089" gradientTransform="matrix(8.9563 3.5313 3.5313 -8.9563 8936.6709 1936.9534)">
					<stop  offset="0" style="stop-color:#FFFFFF"/>
					<stop  offset="2.168548e-02" style="stop-color:#F6EFFB"/>
					<stop  offset="0.1045" style="stop-color:#D6B8EB"/>
					<stop  offset="0.19" style="stop-color:#BA87DD"/>
					<stop  offset="0.2764" style="stop-color:#A25DD1"/>
					<stop  offset="0.3641" style="stop-color:#8E3CC8"/>
					<stop  offset="0.4531" style="stop-color:#7F21C0"/>
					<stop  offset="0.5442" style="stop-color:#740FBB"/>
					<stop  offset="0.6388" style="stop-color:#6E04B8"/>
					<stop  offset="0.742" style="stop-color:#6C00B7"/>
					<stop  offset="1" style="stop-color:#6C00B7"/>
				</linearGradient>
				<polygon style="clip-path:url(#SVGID_7_);mask:url(#SVGID_9_);fill:url(#SVGID_12_);" points="47.1,35.3 58.5,39.8 53,53.6 
					41.6,49.2 				"/>
			</g>
			<g class="st1">
				<defs>
					<rect id="SVGID_26_" x="0" y="0" width="112.9" height="57.3"/>
				</defs>
				<clipPath id="SVGID_13_">
					<use xlink:href="#SVGID_26_"  style="overflow:visible;"/>
				</clipPath>
				<path style="clip-path:url(#SVGID_13_);fill:#6C00B7;" d="M60.5,31.6l-0.6,1.3c-1.6-1.2-3.7-1.9-5.8-1.9c-0.1,0-0.2,0-0.2,0
					c-0.2,0-0.3,0-0.5,0c-0.1,0-0.2,0-0.4,0c-0.1,0-0.2,0-0.3,0c-2.8,0.4-5.2,1.9-6.8,4.7c0,0-2.5,5.1-4.5,7.6
					c-0.1,0.1-0.1,0.1-0.2,0.2c-0.5,0.6-1.1,1-1.8,1.2c-0.1,0-0.1,0-0.2,0.1c0,0-0.1,0-0.1,0c-0.2,0-0.3,0.1-0.5,0.1c0,0,0,0,0,0
					c-0.2,0-0.3,0-0.5,0c-0.6,0-1.2-0.1-1.8-0.4c-1.9-0.8-2.8-2.8-2.4-4.7c0.5-1.9,2.1-3.2,4.1-3.1l0,0c1.4,0,2.7,0.4,3.6,1.2
					l2.5-4.9c-1.2-1-2.6-1.6-4.1-1.9c-2.6-0.5-5.1,0-7.2,1.2l-0.4-0.9h-4.8v25.5H34v-7c1.4,0.6,2.9,0.9,4.5,0.8
					c3.2-0.2,5.8-1.5,7.6-4.2v0c1.4-2,3.4-6.1,3.4-6.1c0.4-0.9,0.9-1.6,1.5-2.3c0.1-0.1,0.2-0.2,0.2-0.3c0,0,0,0,0,0
					c0.8-0.8,1.8-1.3,3-1.3c2.3,0,4.1,1.9,4.1,4.1c0,2.3-1.9,4.1-4.1,4.1v5.8c0,0,0,0-0.1,0v0c2.1,0,4.1-0.7,5.7-1.8l0.5,1.3h5V31.6
					H60.5z"/>
				<path style="clip-path:url(#SVGID_13_);fill:#6C00B7;" d="M17.4,20.1H7.9l-1.6,4.1H0L9.4,0h6.4l9.6,24.2H19L17.4,20.1z
					 M12.6,7.9L10,14.7h5.3L12.6,7.9z"/>
				<rect x="27.5" y="0" style="clip-path:url(#SVGID_13_);fill:#6C00B7;" width="6.5" height="24.2"/>
				<rect x="36.4" y="0" style="clip-path:url(#SVGID_13_);fill:#6C00B7;" width="6.5" height="24.2"/>
				<path style="clip-path:url(#SVGID_13_);fill:#6C00B7;" d="M84.9,8.1h6.5v16.1h-6.5V8.1z M84.9,0h6.4v5.7h-6.4V0z"/>
				<path style="clip-path:url(#SVGID_13_);fill:#6C00B7;" d="M112.9,12.3v11.9h-6.5v-11c0-2.3-1-3.4-2.7-3.4c-2,0-3,1.5-3,3.9v10.4
					h-6.5V4.7h4.9l0.2,2c1.4-1.6,3.3-2.4,6.4-2.4C110,4.4,112.9,7.7,112.9,12.3"/>
				<polyline style="clip-path:url(#SVGID_13_);fill:#1B314E;" points="68.7,10.4 68.8,10.4 68.7,10.4 				"/>
				<path style="clip-path:url(#SVGID_13_);fill:#6C00B7;" d="M63.9,20.3c1.5-2.1,3.6-6.3,3.6-6.3c0.5-0.9,0.9-1.7,1.5-2.3
					c0.1-0.1,0.2-0.2,0.2-0.3c0,0,0,0,0,0c0,0,0,0,0,0c0.8-0.8,1.9-1.3,3.1-1.3c2.4,0,4.3,1.9,4.3,4.3c0,2.4-1.9,4.3-4.3,4.3v5.9
					c0,0,0,0-0.1,0c4.9,0,9.1-3.5,10-8.1c0-0.2,0.1-0.3,0.1-0.5c0-0.1,0-0.2,0-0.3c0-0.2,0-0.3,0.1-0.5c0-0.1,0-0.2,0-0.2
					c0,0,0-0.1,0-0.1c0-0.2,0-0.3,0-0.5c0-0.1,0-0.1,0-0.2c0,0,0,0,0,0c0,0,0-0.1,0-0.1c-0.1-2.9-1.4-5.7-3.7-7.6
					c-1.7-1.4-4.1-2.3-6.6-2.3c-0.1,0-0.2,0-0.2,0c-0.2,0-0.3,0-0.5,0c-0.1,0-0.3,0-0.4,0c-0.1,0-0.2,0-0.3,0c-2.8,0.4-5.4,2-7,4.9
					c0,0-2.6,5.3-4.6,7.9c-0.1,0.1-0.1,0.1-0.2,0.2c0,0,0,0,0,0c0,0,0,0,0,0c-0.5,0.6-1.2,1-1.9,1.3c-0.1,0-0.1,0-0.2,0.1
					c-0.1,0-0.1,0-0.2,0c-0.2,0-0.3,0.1-0.5,0.1c0,0,0,0,0,0c-0.2,0-0.3,0-0.5,0c0,0,0,0,0,0c0,0,0,0,0,0c-0.6,0-1.3-0.1-1.9-0.4
					c-1.9-0.8-2.9-2.9-2.4-4.8c0.5-2,2.2-3.3,4.2-3.2l0,0c1.5,0,2.8,0.4,3.7,1.2L62,6.3c-1.2-1-2.6-1.7-4.2-2
					c-6-1.2-11.6,2.8-12.4,8.8c-0.8,6.2,4.4,11.9,10.7,11.6C59.5,24.5,62.1,23.1,63.9,20.3"/>
			</g>
			<g class="st1">
				<defs>
					<path id="SVGID_28_" d="M67.5,14c0,0-2.1,4.2-3.6,6.3c0,0,1,1.3,1.6,1.8c0,0,0,0,0,0c0,0,0,0,0,0c1.8,1.5,4.1,2.5,6.7,2.5
						c0,0,0,0,0.1,0v-5.9c-2.4,0-4.3-1.9-4.3-4.3c0-1.2,0.5-2.2,1.2-3C68.6,12.1,68,13,67.5,14"/>
				</defs>
				<clipPath id="SVGID_14_">
					<use xlink:href="#SVGID_28_"  style="overflow:visible;"/>
				</clipPath>
				<defs>
					<filter id="Adobe_OpacityMaskFilter_1_" filterUnits="userSpaceOnUse" x="59.4" y="8.5" width="17.4" height="18.9">
						<feColorMatrix  type="matrix" values="1 0 0 0 0  0 1 0 0 0  0 0 1 0 0  0 0 0 1 0"/>
					</filter>
				</defs>
				<mask maskUnits="userSpaceOnUse" x="59.4" y="8.5" width="17.4" height="18.9" id="SVGID_16_">
					<g class="st12">
						
							<linearGradient id="SVGID_18_" gradientUnits="userSpaceOnUse" x1="-928.5214" y1="-157.8377" x2="-927.2486" y2="-157.8377" gradientTransform="matrix(9.24 3.6432 3.6432 -9.24 9216.7783 1940.0417)">
							<stop  offset="0" style="stop-color:#000000"/>
							<stop  offset="2.168548e-02" style="stop-color:#101010"/>
							<stop  offset="0.1045" style="stop-color:#474747"/>
							<stop  offset="0.19" style="stop-color:#787878"/>
							<stop  offset="0.2764" style="stop-color:#A2A2A2"/>
							<stop  offset="0.3641" style="stop-color:#C3C3C3"/>
							<stop  offset="0.4531" style="stop-color:#DEDEDE"/>
							<stop  offset="0.5442" style="stop-color:#F0F0F0"/>
							<stop  offset="0.6388" style="stop-color:#FBFBFB"/>
							<stop  offset="0.742" style="stop-color:#FFFFFF"/>
							<stop  offset="1" style="stop-color:#FFFFFF"/>
						</linearGradient>
						<polygon style="clip-path:url(#SVGID_14_);fill:url(#SVGID_18_);" points="65.1,8.5 76.8,13.2 71.2,27.5 59.4,22.8 						"/>
					</g>
				</mask>
				
					<linearGradient id="SVGID_20_" gradientUnits="userSpaceOnUse" x1="-928.5214" y1="-157.8377" x2="-927.2486" y2="-157.8377" gradientTransform="matrix(9.24 3.6432 3.6432 -9.24 9216.7793 1940.0419)">
					<stop  offset="0" style="stop-color:#FFFFFF"/>
					<stop  offset="2.168548e-02" style="stop-color:#F6EFFB"/>
					<stop  offset="0.1045" style="stop-color:#D6B8EB"/>
					<stop  offset="0.19" style="stop-color:#BA87DD"/>
					<stop  offset="0.2764" style="stop-color:#A25DD1"/>
					<stop  offset="0.3641" style="stop-color:#8E3CC8"/>
					<stop  offset="0.4531" style="stop-color:#7F21C0"/>
					<stop  offset="0.5442" style="stop-color:#740FBB"/>
					<stop  offset="0.6388" style="stop-color:#6E04B8"/>
					<stop  offset="0.742" style="stop-color:#6C00B7"/>
					<stop  offset="1" style="stop-color:#6C00B7"/>
				</linearGradient>
				<polygon style="clip-path:url(#SVGID_14_);mask:url(#SVGID_16_);fill:url(#SVGID_20_);" points="65.1,8.5 76.8,13.2 71.2,27.5 
					59.4,22.8 				"/>
			</g>
		</g>
	</g>
</g>
</svg>
