<?xml version="1.0" encoding="utf-8"?>
<!-- Generator: Adobe Illustrator 22.1.0, SVG Export Plug-In . SVG Version: 6.00 Build 0)  -->
<svg version="1.1" id="레이어_1" xmlns="http://www.w3.org/2000/svg" xmlns:xlink="http://www.w3.org/1999/xlink" x="0px"
	 y="0px" viewBox="0 0 397.8 68" style="enable-background:new 0 0 397.8 68;" xml:space="preserve">
<style type="text/css">
	.st0{clip-path:url(#SVGID_2_);}
	.st1{clip-path:url(#SVGID_4_);}
	.st2{clip-path:url(#SVGID_6_);fill:#FFFFFF;}
	.st3{filter:url(#Adobe_OpacityMaskFilter);}
	.st4{clip-path:url(#SVGID_8_);fill:url(#SVGID_10_);}
	.st5{clip-path:url(#SVGID_8_);mask:url(#SVGID_9_);fill:url(#SVGID_11_);}
	.st6{clip-path:url(#SVGID_13_);fill:#FFFFFF;}
	.st7{clip-path:url(#SVGID_13_);fill:#1B314E;}
	.st8{filter:url(#Adobe_OpacityMaskFilter_1_);}
	.st9{clip-path:url(#SVGID_15_);fill:url(#SVGID_17_);}
	.st10{clip-path:url(#SVGID_15_);mask:url(#SVGID_16_);fill:url(#SVGID_18_);}
</style>
<g id="아트웍_3_1_">
	<g>
		<defs>
			<rect id="SVGID_1_" x="0" width="397.8" height="68"/>
		</defs>
		<clipPath id="SVGID_2_">
			<use xlink:href="#SVGID_1_"  style="overflow:visible;"/>
		</clipPath>
		<g class="st0">
			<defs>
				<rect id="SVGID_3_" x="0" width="397.8" height="68"/>
			</defs>
			<clipPath id="SVGID_4_">
				<use xlink:href="#SVGID_3_"  style="overflow:visible;"/>
			</clipPath>
			<g class="st1">
				<defs>
					<rect id="SVGID_5_" x="0" y="0" width="397.8" height="68"/>
				</defs>
				<clipPath id="SVGID_6_">
					<use xlink:href="#SVGID_5_"  style="overflow:visible;"/>
				</clipPath>
				<path class="st2" d="M397.8,11.9L380.6,51c-5.5,12.5-10.6,17-21.1,17h-4.8V55.9h3.9c5.4,0,7-1.4,8.9-6.5l-16.9-37.5h14.2
					l9.8,22.5l9-22.5H397.8z"/>
			</g>
			<g class="st1">
				<defs>
					<path id="SVGID_7_" d="M312.9,31.6c0,0-4.4,8.9-7.5,13.4c0,0,2.2,2.7,3.5,3.8c0,0,0,0,0,0.1c0,0,0,0,0,0
						c3.8,3.3,8.7,5.2,14.1,5.2c0,0,0.1,0,0.1,0V41.4c-5,0-9-4.1-9-9c0-2.4,1-4.7,2.5-6.3C315.2,27.5,314,29.4,312.9,31.6"/>
				</defs>
				<clipPath id="SVGID_8_">
					<use xlink:href="#SVGID_7_"  style="overflow:visible;"/>
				</clipPath>
				<defs>
					<filter id="Adobe_OpacityMaskFilter" filterUnits="userSpaceOnUse" x="295.9" y="20" width="36.8" height="40">
						<feColorMatrix  type="matrix" values="1 0 0 0 0  0 1 0 0 0  0 0 1 0 0  0 0 0 1 0"/>
					</filter>
				</defs>
				<mask maskUnits="userSpaceOnUse" x="295.9" y="20" width="36.8" height="40" id="SVGID_9_">
					<g class="st3">
						
							<linearGradient id="SVGID_10_" gradientUnits="userSpaceOnUse" x1="-1159.8113" y1="201.3874" x2="-1158.5385" y2="201.3874" gradientTransform="matrix(19.5391 7.704 7.704 -19.5391 21412.0156 12905.2178)">
							<stop  offset="0" style="stop-color:#000000"/>
							<stop  offset="2.168548e-02" style="stop-color:#101010"/>
							<stop  offset="0.1045" style="stop-color:#474747"/>
							<stop  offset="0.19" style="stop-color:#787878"/>
							<stop  offset="0.2764" style="stop-color:#A2A2A2"/>
							<stop  offset="0.3641" style="stop-color:#C3C3C3"/>
							<stop  offset="0.4531" style="stop-color:#DEDEDE"/>
							<stop  offset="0.5442" style="stop-color:#F0F0F0"/>
							<stop  offset="0.6388" style="stop-color:#FBFBFB"/>
							<stop  offset="0.742" style="stop-color:#FFFFFF"/>
							<stop  offset="1" style="stop-color:#FFFFFF"/>
						</linearGradient>
						<polygon class="st4" points="307.8,20 332.7,29.8 320.8,60 295.9,50.2 						"/>
					</g>
				</mask>
				
					<linearGradient id="SVGID_11_" gradientUnits="userSpaceOnUse" x1="-1159.8113" y1="201.3874" x2="-1158.5385" y2="201.3874" gradientTransform="matrix(19.5391 7.704 7.704 -19.5391 21412.0156 12905.2178)">
					<stop  offset="0" style="stop-color:#FFFFFF"/>
					<stop  offset="3.322067e-02" style="stop-color:#FFFFFF"/>
					<stop  offset="0.742" style="stop-color:#FFFFFF"/>
					<stop  offset="1" style="stop-color:#FFFFFF"/>
				</linearGradient>
				<polygon class="st5" points="307.8,20 332.7,29.8 320.8,60 295.9,50.2 				"/>
			</g>
			<g class="st1">
				<defs>
					<rect id="SVGID_12_" x="0" y="0" width="397.8" height="68"/>
				</defs>
				<clipPath id="SVGID_13_">
					<use xlink:href="#SVGID_12_"  style="overflow:visible;"/>
				</clipPath>
				<path class="st6" d="M337,11.8l-1.3,2.8c-3.6-2.5-8.1-4-12.7-4.1c-0.2,0-0.3,0-0.5,0c-0.3,0-0.7,0-1,0c-0.3,0-0.5,0-0.8,0.1
					c-0.2,0-0.5,0.1-0.7,0.1c-6,0.9-11.3,4.2-14.8,10.3c0,0-5.5,11.1-9.8,16.6c-0.1,0.2-0.2,0.3-0.4,0.5c-1.1,1.2-2.4,2.2-4,2.7
					c-0.1,0-0.2,0.1-0.4,0.1c-0.1,0-0.2,0.1-0.3,0.1c-0.3,0.1-0.7,0.1-1,0.2c0,0,0,0,0,0c-0.3,0-0.7,0.1-1,0.1
					c-1.3,0-2.7-0.3-3.9-0.8c-4.1-1.7-6.2-6.1-5.2-10.2c1-4.1,4.7-6.9,8.9-6.8l0,0c3.2,0,5.9,0.8,7.8,2.5l5.5-10.7
					c-2.6-2.1-5.6-3.5-8.9-4.2c-5.7-1.2-11.2-0.1-15.8,2.6l-0.9-1.9h-10.5v55.7h13.9V52.4c3,1.3,6.3,2,9.7,1.8
					c7.1-0.4,12.7-3.3,16.5-9.2c3.1-4.4,7.5-13.4,7.5-13.4c1-1.9,2-3.6,3.2-4.9c0.2-0.2,0.3-0.4,0.5-0.6c0,0,0,0,0,0
					c1.6-1.7,4-2.8,6.5-2.8c5,0,9,4.1,9,9c0,5-4,9-9,9V54c0,0-0.1,0-0.1,0c4.7,0,9-1.5,12.5-4l1.1,2.7h10.9V11.8H337z"/>
				<path class="st6" d="M38,43.8H17.2l-3.5,8.9H0L20.5,0h14.1l21,52.8H41.5L38,43.8z M27.5,17.2L21.8,32h11.5L27.5,17.2z"/>
				<rect x="60" y="0" class="st6" width="14.2" height="52.8"/>
				<rect x="79.5" y="0" class="st6" width="14.2" height="52.8"/>
				<path class="st6" d="M185.2,17.7h14.2v35h-14.2V17.7z M185.3,0h14v12.4h-14V0z"/>
				<path class="st6" d="M246.2,26.9v25.9H232V28.9c0-4.9-2.3-7.4-5.8-7.4c-4.4,0-6.5,3.2-6.5,8.6v22.7h-14.2V10.3h10.7l0.4,4.4
					c3.1-3.5,7.1-5.2,13.9-5.2C239.9,9.5,246.2,16.8,246.2,26.9"/>
				<path class="st7" d="M150,22.7C150,22.7,150,22.7,150,22.7C150,22.7,150,22.7,150,22.7"/>
				<path class="st6" d="M139.5,44.4c3.2-4.6,7.8-13.8,7.8-13.8c1-2,2.1-3.7,3.3-5.1c0.2-0.2,0.3-0.4,0.5-0.6c0,0,0,0,0,0
					c0,0,0,0,0,0c1.7-1.8,4.1-2.9,6.7-2.9c5.2,0,9.3,4.2,9.3,9.3s-4.2,9.3-9.3,9.3v13c0,0-0.1,0-0.1,0c10.8,0,19.7-7.6,21.9-17.7
					c0.1-0.4,0.1-0.7,0.2-1.1c0-0.2,0.1-0.5,0.1-0.7c0-0.4,0.1-0.7,0.1-1.1c0-0.2,0-0.4,0-0.5c0-0.1,0-0.2,0-0.2c0-0.3,0-0.7,0-1
					c0-0.1,0-0.2,0-0.3c0,0,0,0,0-0.1c0-0.1,0-0.2,0-0.3c-0.2-6.3-3-12.4-8.1-16.6c-3.8-3.2-9-5-14.3-5.1c-0.2,0-0.3,0-0.5,0
					c-0.4,0-0.7,0-1.1,0.1c-0.3,0-0.5,0-0.8,0.1c-0.2,0-0.5,0.1-0.7,0.1c-6.2,0.9-11.7,4.4-15.2,10.6v0c0,0-5.7,11.5-10.1,17.1
					c-0.1,0.2-0.2,0.3-0.4,0.5c0,0-0.1,0.1-0.1,0.1c0,0,0.1-0.1,0.1-0.1c-1.1,1.3-2.5,2.3-4.2,2.8c-0.1,0-0.2,0.1-0.4,0.1
					c-0.1,0-0.2,0.1-0.3,0.1c-0.3,0.1-0.7,0.2-1,0.2c0,0,0,0,0,0c-0.4,0-0.7,0.1-1.1,0.1c0,0-0.1,0-0.1,0c0,0,0.1,0,0.1,0
					c-1.4,0-2.7-0.3-4.1-0.8c-4.2-1.8-6.4-6.3-5.3-10.5c1.1-4.3,4.8-7.1,9.1-7l0,0c3.2,0,6.1,0.8,8,2.6l5.7-11
					c-2.7-2.2-5.8-3.7-9.1-4.4c-13-2.7-25.2,6-27,19.2c-1.9,13.6,9.7,26,23.4,25.2C129.7,53.4,135.5,50.4,139.5,44.4"/>
			</g>
			<g class="st1">
				<defs>
					<path id="SVGID_14_" d="M147.2,30.6c0,0-4.6,9.2-7.8,13.8c0,0,2.2,2.7,3.6,3.9c0,0,0,0,0,0.1c0,0,0,0,0,0
						c3.9,3.4,9,5.4,14.6,5.4c0,0,0.1,0,0.1,0v-13c-5.2,0-9.3-4.2-9.3-9.3c0-2.5,1-4.8,2.6-6.5C149.6,26.4,148.4,28.3,147.2,30.6"/>
				</defs>
				<clipPath id="SVGID_15_">
					<use xlink:href="#SVGID_14_"  style="overflow:visible;"/>
				</clipPath>
				<defs>
					<filter id="Adobe_OpacityMaskFilter_1_" filterUnits="userSpaceOnUse" x="129.7" y="18.6" width="37.9" height="41.3">
						<feColorMatrix  type="matrix" values="1 0 0 0 0  0 1 0 0 0  0 0 1 0 0  0 0 0 1 0"/>
					</filter>
				</defs>
				<mask maskUnits="userSpaceOnUse" x="129.7" y="18.6" width="37.9" height="41.3" id="SVGID_16_">
					<g class="st8">
						
							<linearGradient id="SVGID_17_" gradientUnits="userSpaceOnUse" x1="-1159.4108" y1="198.8258" x2="-1158.1381" y2="198.8258" gradientTransform="matrix(20.1579 7.948 7.948 -20.1579 21926.8047 13257.0645)">
							<stop  offset="0" style="stop-color:#000000"/>
							<stop  offset="2.168548e-02" style="stop-color:#101010"/>
							<stop  offset="0.1045" style="stop-color:#474747"/>
							<stop  offset="0.19" style="stop-color:#787878"/>
							<stop  offset="0.2764" style="stop-color:#A2A2A2"/>
							<stop  offset="0.3641" style="stop-color:#C3C3C3"/>
							<stop  offset="0.4531" style="stop-color:#DEDEDE"/>
							<stop  offset="0.5442" style="stop-color:#F0F0F0"/>
							<stop  offset="0.6388" style="stop-color:#FBFBFB"/>
							<stop  offset="0.742" style="stop-color:#FFFFFF"/>
							<stop  offset="1" style="stop-color:#FFFFFF"/>
						</linearGradient>
						<polygon class="st9" points="142,18.6 167.6,28.8 155.3,59.9 129.7,49.8 						"/>
					</g>
				</mask>
				
					<linearGradient id="SVGID_18_" gradientUnits="userSpaceOnUse" x1="-1159.4108" y1="198.8258" x2="-1158.1381" y2="198.8258" gradientTransform="matrix(20.1579 7.948 7.948 -20.1579 21926.8047 13257.0654)">
					<stop  offset="0" style="stop-color:#FFFFFF"/>
					<stop  offset="3.322067e-02" style="stop-color:#FFFFFF"/>
					<stop  offset="0.742" style="stop-color:#FFFFFF"/>
					<stop  offset="1" style="stop-color:#FFFFFF"/>
				</linearGradient>
				<polygon class="st10" points="142,18.6 167.6,28.8 155.3,59.9 129.7,49.8 				"/>
			</g>
		</g>
	</g>
</g>
</svg>
