<svg xmlns="http://www.w3.org/2000/svg" id="레이어_2" width="299.11" height="46.7" data-name="레이어 2" viewBox="0 0 299.11 46.7">
    <defs>
        <style>
            .cls-1{fill:#007bd2}.cls-2{fill:#d3e4f0}
        </style>
    </defs>
    <g id="레이어_1" data-name="레이어 1">
        <path id="패스_2483" d="M24.55 0l7.59 15.37 16.96 2.47L36.83 29.8l2.9 16.9-15.18-7.98L9.38 46.7l2.9-16.9L0 17.84l16.96-2.47z" class="cls-1" data-name="패스 2483"/>
        <path id="패스_2484" d="M87.05 0l7.59 15.37 16.97 2.47L99.33 29.8l2.9 16.9-15.18-7.98-15.17 7.98 2.9-16.9L62.5 17.84l16.97-2.47z" class="cls-1" data-name="패스 2484"/>
        <path id="패스_2485" d="M149.55 0l7.59 15.37 16.96 2.47-12.27 11.96 2.9 16.9-15.18-7.98-15.17 7.98 2.9-16.9L125 17.84l16.97-2.47z" class="cls-2" data-name="패스 2485"/>
        <path id="패스_2486" d="M212.05 0l7.59 15.37 16.96 2.47-12.27 11.96 2.9 16.9-15.18-7.98-15.17 7.98 2.9-16.9-12.28-11.96 16.97-2.47z" class="cls-2" data-name="패스 2486"/>
        <path id="패스_2487" d="M274.55 0l7.59 15.37 16.97 2.47-12.28 11.96 2.9 16.9-15.18-7.98-15.17 7.98 2.9-16.9L250 17.84l16.96-2.47z" class="cls-2" data-name="패스 2487"/>
    </g>
</svg>
