<svg xmlns="http://www.w3.org/2000/svg" viewBox="0 0 50.41 50.41"><defs><style>.cls-1{fill:#0079d5;}</style></defs><title>33</title><g id="레이어_2" data-name="레이어 2"><g id="레이어_1-2" data-name="레이어 1"><path class="cls-1" d="M25.21,0a25.21,25.21,0,1,0,25.2,25.21A25.24,25.24,0,0,0,25.21,0Zm0,46.14A20.94,20.94,0,1,1,46.14,25.21,21,21,0,0,1,25.21,46.14Z"/><path class="cls-1" d="M26.54,22.75V18.83a9.33,9.33,0,0,1,2.62.74,1.59,1.59,0,0,0,2.26-.77,1.82,1.82,0,0,0-.91-2.6,10.18,10.18,0,0,0-4-1V13.33a1.59,1.59,0,0,0-3.17,0v1.9c-3.83.51-5.68,2.73-5.68,5.17v.14c0,3.16,1.48,4.76,5.68,5.72v4.16A11.6,11.6,0,0,1,20,29.29a1.73,1.73,0,0,0-2.47.84,1.87,1.87,0,0,0,.66,2.57,13.6,13.6,0,0,0,5.19,1.47v1.88a1.59,1.59,0,0,0,3.17,0V34.16c3.76-.46,6.09-2.65,6.09-5.42V28.6C32.63,25.29,31.3,23.81,26.54,22.75ZM23.37,22c-1.11-.38-1.3-.78-1.3-1.54V20.4c0-.55.36-1.06,1.3-1.36Zm4.82,6.73c0,.77-.45,1.41-1.65,1.69V27c1.44.44,1.65.87,1.65,1.69Z"/></g></g></svg>