<svg xmlns="http://www.w3.org/2000/svg" viewBox="0 0 52.5 51.59"><defs><style>.cls-1{fill:#d3d8e0;}</style></defs><title>4</title><g id="레이어_2" data-name="레이어 2"><g id="레이어_1-2" data-name="레이어 1"><path class="cls-1" d="M17.65,51.59a2.25,2.25,0,0,1-1.44-4c3.56-2.94,4.11-4.53,4.18-5.07H15.23C6.55,42.54,0,35.6,0,26.4V16.14A16.16,16.16,0,0,1,16.14,0H36.36A16.16,16.16,0,0,1,52.5,16.14V26.4c0,8.75-7.8,16.14-17,16.14H33.74C26.94,51.49,18,51.59,17.65,51.59ZM16.14,4.5A11.65,11.65,0,0,0,4.5,16.14V26.4C4.5,33.14,9,38,15.23,38h6.48a2.24,2.24,0,0,1,1.55.62,5.05,5.05,0,0,1,1.64,3.93A6.4,6.4,0,0,1,24.29,45a19.57,19.57,0,0,0,6.45-6,2.24,2.24,0,0,1,1.85-1h2.87C42.14,38,48,32.6,48,26.4V16.14A11.65,11.65,0,0,0,36.36,4.5Z"/><polygon class="cls-1" points="25.36 17.8 25.4 17.77 24.34 16.78 25.36 17.8"/><path class="cls-1" d="M36.25,19a6,6,0,0,0,.67-5.87.7.7,0,0,0-.48-.39.64.64,0,0,0-.59.19l-3.3,3.31H30.66V14.33L34,11a.63.63,0,0,0,.17-.59.62.62,0,0,0-.39-.47,6,6,0,0,0-8.31,5.79l6.12,5.73A6,6,0,0,0,36.25,19Z"/><path class="cls-1" d="M15.88,27.32a2.69,2.69,0,0,0,0,3.77,2.62,2.62,0,0,0,3.75,0L25.1,25.6l-3.76-3.76Z"/><path class="cls-1" d="M37.05,28.67,22.46,14.89h0a.65.65,0,0,0,.19-.51.63.63,0,0,0-.25-.47l-4.23-3.31a.66.66,0,0,0-.87.05l-1.89,1.89a.67.67,0,0,0-.05.87l3.3,4.26a.64.64,0,0,0,.48.25.63.63,0,0,0,.5-.2L34,32.39a3.27,3.27,0,0,0,2.11-.95A3.31,3.31,0,0,0,37.05,28.67Z"/></g></g></svg>