<svg xmlns="http://www.w3.org/2000/svg" width="720" height="291.5" viewBox="0 0 720 291.5">
    <defs>
        <style>
            .cls-1{fill:#fff}.cls-2,.cls-3{fill:#b67a55;opacity:.87}.cls-3{fill:#a2582b}.cls-4{fill:#b2b2b2}.cls-5{fill:#333}.cls-6{fill:#e9e9e9}.cls-7{fill:#d6d6d6}.cls-8{fill:#d9dbdd}.cls-9{fill:#c3c5c6}.cls-10{fill:#f3f3f3}.cls-11{fill:#f6f6f6}.cls-12{fill:#cecfd4}.cls-13{fill:#aeb0b1;stroke:#c3c5c6}.cls-14{clip-path:url(#clip-path)}.cls-15{fill:#777478}.cls-16{fill:#848386}.cls-17{fill:#a2abab;opacity:.7}.cls-18{fill:#d3d3d1}.cls-19{fill:#c9c9c7}.cls-20{fill:#c8ba9f}.cls-21{stroke:none}.cls-22{fill:none}
        </style>
        <clipPath id="clip-path">
            <path id="사각형_56" d="M0 0h420v59.746H0z" class="cls-1" data-name="사각형 56"/>
        </clipPath>
    </defs>
    <g id="bg_main_kitchen" transform="translate(0 -717.5)">
        <g id="그룹_110" data-name="그룹 110" transform="translate(20.367 77.5)">
            <g id="그룹_101" data-name="그룹 101" transform="translate(583.086 646.885)">
                <path id="사각형_57" d="M0 0h82.547v12.069H0z" class="cls-2" data-name="사각형 57"/>
                <path id="사각형_58" d="M0 0h82.547v7.746H0z" class="cls-3" data-name="사각형 58" transform="translate(0 4.323)"/>
            </g>
            <g id="그룹_100" data-name="그룹 100" transform="translate(632.929 640)">
                <path id="패스_1627" d="M482.386 1099.46l-.732-21.3a16.385 16.385 0 0 0-2.555-8.329l-6.8-10.693a16.385 16.385 0 0 1-2.55-8.167l-.269-7.008v-16.723a16.384 16.384 0 0 0-.841-5.18v-.06h-.861l-.02.059a16.383 16.383 0 0 0-.841 5.181v22.692a16.384 16.384 0 0 1-2.561 8.8l-7.061 11.1a16.378 16.378 0 0 0-2.555 8.329l-.732 21.3s-.861 8.606 9.467 8.606h9.45c10.322-.007 9.461-8.607 9.461-8.607zm-19.736 1.74a1.742 1.742 0 0 1-3.484 0v-18.115a1.742 1.742 0 0 1 3.484 0zm7.3 0a1.742 1.742 0 0 1-1.742 1.742 1.742 1.742 0 0 1-1.742-1.742v-18.115a1.742 1.742 0 0 1 1.742-1.742 1.742 1.742 0 0 1 1.742 1.742zm7.3 0a1.742 1.742 0 0 1-3.484 0v-18.115a1.742 1.742 0 0 1 3.484 0z" class="cls-4" data-name="패스 1627" transform="translate(-453.985 -974.665)"/>
                <path id="패스_1628" d="M469.659 967a5.164 5.164 0 0 0-5.164 5.164v46.416a2.641 2.641 0 0 0 2.64 2.64h5.047a2.641 2.641 0 0 0 2.64-2.64v-46.416a5.163 5.163 0 0 0-5.164-5.164zm0 8.606a2.582 2.582 0 1 1 2.582-2.582 2.582 2.582 0 0 1-2.582 2.582z" class="cls-5" data-name="패스 1628" transform="translate(-455.449 -967)"/>
            </g>
            <g id="그룹_102" data-name="그룹 102" transform="translate(593.34 640)">
                <path id="패스_1629" d="M606.3 1083.71a18.442 18.442 0 0 0-3.8-10.816c-2.458-3.021-6.885-4.4-8.468-8.121a5.391 5.391 0 0 1-.279-2.156c.07-8.887.018-17.773 0-26.66v-16.717a16.384 16.384 0 0 0-.841-5.18v-.06h-.861a16.725 16.725 0 0 0-.861 5.3c0 14.55-.041 29.1.018 43.65a4.811 4.811 0 0 1-.272 1.98c-1.424 3.2-4.732 4.547-7.159 6.806-6.512 6.063-5.968 16.4-2.883 24.068a20.19 20.19 0 0 0 7.926 9.648c4.389 2.518 7.665.527 10.926-2.739 4.754-4.753 6.854-12.373 6.554-19.003z" class="cls-4" data-name="패스 1629" transform="translate(-578.691 -973.55)"/>
                <path id="패스_1630" d="M593.961 967a5.163 5.163 0 0 0-5.164 5.165v46.415a2.64 2.64 0 0 0 2.64 2.64h5.046a2.641 2.641 0 0 0 2.641-2.64v-46.416a5.164 5.164 0 0 0-5.163-5.164zm0 8.606a2.582 2.582 0 1 1 2.582-2.582 2.582 2.582 0 0 1-2.582 2.582z" class="cls-5" data-name="패스 1630" transform="translate(-580.1 -967)"/>
            </g>
        </g>
        <g id="그룹_313" data-name="그룹 313">
            <path id="Dividing_Line_bot" d="M0 0h720v10H0z" class="cls-6" transform="translate(0 999)"/>
            <path id="Dividing_Line_top" d="M0 0h720v2H0z" class="cls-7" transform="translate(0 999)"/>
            <path id="사각형_51" d="M0 0h347.831v39.042H0z" class="cls-8" data-name="사각형 51" transform="translate(186.084 902.577)"/>
            <path id="사각형_53" d="M0 0h347.831v56.197H0z" class="cls-8" data-name="사각형 53" transform="translate(186.084 942.803)"/>
            <path id="사각형_52" d="M0 0h347.831v3.549H0z" class="cls-9" data-name="사각형 52" transform="translate(186.084 939.253)"/>
            <path id="사각형_67" d="M0 0h184.916v39.042H0z" class="cls-10" data-name="사각형 67" transform="translate(535.084 903)"/>
            <path id="사각형_68" d="M0 0h184.916v56.197H0z" class="cls-11" data-name="사각형 68" transform="translate(535.084 942.803)"/>
            <path id="사각형_69" d="M0 0h184.916v3.549H0z" class="cls-9" data-name="사각형 69" transform="translate(535.084 939.253)"/>
            <g id="그룹_112" data-name="그룹 112" transform="translate(-535.084)">
                <path id="사각형_67-2" d="M0 0h184.916v39.042H0z" class="cls-10" data-name="사각형 67" transform="translate(535.084 902.577)"/>
                <path id="사각형_68-2" d="M0 0h184.916v56.197H0z" class="cls-11" data-name="사각형 68" transform="translate(535.084 942.803)"/>
                <path id="사각형_69-2" d="M0 0h184.916v3.549H0z" class="cls-9" data-name="사각형 69" transform="translate(535.084 939.253)"/>
            </g>
            <path id="사각형_54" d="M0 0h82.817v3.549H0z" class="cls-9" data-name="사각형 54" transform="translate(318.592 956.408)"/>
            <path id="사각형_50" d="M0 0h347.408v13.014H0z" class="cls-12" data-name="사각형 50" transform="translate(186.296 890)"/>
            <g id="타원_14" class="cls-13" data-name="타원 14" transform="translate(216.845 912.042)">
                <circle cx="10.056" cy="10.056" r="10.056" class="cls-21"/>
                <circle cx="10.056" cy="10.056" r="9.556" class="cls-22"/>
            </g>
            <g id="타원_19" class="cls-13" data-name="타원 19" transform="translate(64.845 960.042)">
                <circle cx="7.056" cy="7.056" r="7.056" class="cls-21"/>
                <circle cx="7.056" cy="7.056" r="6.556" class="cls-22"/>
            </g>
            <g id="타원_20" class="cls-13" data-name="타원 20" transform="translate(14.845 960.042)">
                <circle cx="7.056" cy="7.056" r="7.056" class="cls-21"/>
                <circle cx="7.056" cy="7.056" r="6.556" class="cls-22"/>
            </g>
            <g id="타원_15" class="cls-13" data-name="타원 15" transform="translate(260.028 915.592)">
                <circle cx="6.507" cy="6.507" r="6.507" class="cls-21"/>
                <circle cx="6.507" cy="6.507" r="6.007" class="cls-22"/>
            </g>
            <g id="타원_18" class="cls-13" data-name="타원 18" transform="translate(469.437 915.592)">
                <circle cx="6.507" cy="6.507" r="6.507" class="cls-21"/>
                <circle cx="6.507" cy="6.507" r="6.007" class="cls-22"/>
            </g>
            <g id="타원_16" class="cls-13" data-name="타원 16" transform="translate(281.324 915.592)">
                <circle cx="6.507" cy="6.507" r="6.507" class="cls-21"/>
                <circle cx="6.507" cy="6.507" r="6.007" class="cls-22"/>
            </g>
            <g id="타원_17" class="cls-13" data-name="타원 17" transform="translate(490.732 915.592)">
                <circle cx="6.507" cy="6.507" r="6.507" class="cls-21"/>
                <circle cx="6.507" cy="6.507" r="6.007" class="cls-22"/>
            </g>
            <g id="마스크_그룹_8" class="cls-14" data-name="마스크 그룹 8" transform="translate(150 939.253)">
                <g id="그룹_99" data-name="그룹 99" transform="translate(117.127 40.225)">
                    <rect id="사각형_55" width="185.746" height="185.746" class="cls-15" data-name="사각형 55" rx="6.175"/>
                    <path id="패스_1626" d="M606.746 459.461V452.2a6.2 6.2 0 0 0-6.2-6.2H427.2a6.2 6.2 0 0 0-6.2 6.2v173.347a6.165 6.165 0 0 0 .8 3.042c21.832-55.955 72.163-137.151 184.946-169.128z" class="cls-16" data-name="패스 1626" transform="translate(-421 -446)"/>
                </g>
            </g>
            <path id="사각형_70" d="M0 0h347.408v4H0z" class="cls-17" data-name="사각형 70" transform="translate(186.296 899)"/>
            <g id="그룹_113" data-name="그룹 113" transform="translate(467.904 681)">
                <path id="패스_1631" d="M239.641 243.723l-2.2-3.794a5.871 5.871 0 0 0-5.078-2.929h-18.908a5.871 5.871 0 0 0-5.081 2.929l-2.2 3.794a.6.6 0 0 0 .519.9h32.425a.6.6 0 0 0 .523-.9z" class="cls-18" data-name="패스 1631"/>
                <path id="패스_1632" d="M239.232 252h-32.647l-.408.7a.6.6 0 0 0 .519.9h32.425a.6.6 0 0 0 .519-.9z" class="cls-19" data-name="패스 1632" transform="translate(0 -8.982)"/>
            </g>
            <g id="그룹_114" data-name="그룹 114" transform="translate(-174.913 681)">
                <path id="패스_1631-2" d="M239.641 243.723l-2.2-3.794a5.871 5.871 0 0 0-5.078-2.929h-18.908a5.871 5.871 0 0 0-5.081 2.929l-2.2 3.794a.6.6 0 0 0 .519.9h32.425a.6.6 0 0 0 .523-.9z" class="cls-18" data-name="패스 1631"/>
                <path id="패스_1632-2" d="M239.232 252h-32.647l-.408.7a.6.6 0 0 0 .519.9h32.425a.6.6 0 0 0 .519-.9z" class="cls-19" data-name="패스 1632" transform="translate(0 -8.982)"/>
            </g>
            <path id="사각형_73" d="M0 0h2.831v60.549H0z" class="cls-9" data-name="사각형 73" transform="translate(45.253 939.253)"/>
            <path id="사각형_66" d="M0 0h185.408v12.014H0z" class="cls-20" data-name="사각형 66" transform="translate(0 890.563)"/>
            <path id="사각형_65" d="M0 0h185.408v13.014H0z" class="cls-20" data-name="사각형 65" transform="translate(534.296 890)"/>
            <path id="사각형_71" d="M0 0h1.831v108.549H0z" class="cls-9" data-name="사각형 71" transform="translate(533.253 890.253)"/>
            <path id="사각형_72" d="M0 0h2.831v108.549H0z" class="cls-9" data-name="사각형 72" transform="translate(185.253 890.253)"/>
        </g>
    </g>
</svg>
