<svg xmlns="http://www.w3.org/2000/svg" width="39.541" height="54.076" viewBox="0 0 39.541 54.076">
    <defs>
        <style>
            .cls-1{fill:none;stroke:#007bd2;stroke-linecap:round;stroke-linejoin:round;stroke-width:2.5px}
        </style>
    </defs>
    <g id="btn_menu_03_on" transform="translate(.041)">
        <g id="레이어_1" data-name="레이어 1">
            <path id="패스_2338" d="M10.507 24.331H7.235a4.687 4.687 0 0 1-4.687-4.687V5.937A4.687 4.687 0 0 1 7.235 1.25h13.707a4.687 4.687 0 0 1 4.687 4.687v13.707a4.687 4.687 0 0 1-4.687 4.687h-3.435" class="cls-1" data-name="패스 2338"/>
            <path id="패스_2339" d="M17.465 33.45v-20.9a3.465 3.465 0 0 0-6.929 0v29.163l-2.285-8.574c-1.144-1.969-2-2.539-4.162-2.585a2.7 2.7 0 0 0-2.748 3.465L3.816 44.61a23.785 23.785 0 0 0 3.067 8.217" class="cls-1" data-name="패스 2339"/>
            <path id="패스_2340" d="M21.824 24.6a10.957 10.957 0 0 1 2.376 6.817v2.318" class="cls-1" data-name="패스 2340"/>
            <path id="패스_2341" d="M27.909 24.046a10.957 10.957 0 0 1 2.85 7.371v2.318" class="cls-1" data-name="패스 2341"/>
            <path id="패스_2342" d="M35.318 28.035a10.957 10.957 0 0 1 2.849 7.371l.083 5.819a32.788 32.788 0 0 1-2.121 11.595" class="cls-1" data-name="패스 2342"/>
        </g>
    </g>
</svg>
