<svg xmlns="http://www.w3.org/2000/svg" width="47.847" height="47.172" viewBox="0 0 47.847 47.172">
    <defs>
        <style>
            .cls-1{fill:none;stroke:#007bd2;stroke-linecap:round;stroke-linejoin:round;stroke-width:2.5px}.cls-2{fill:#007bd2}
        </style>
    </defs>
    <g id="btn_menu_02_on" transform="translate(.151 .15)">
        <g id="레이어_1" data-name="레이어 1">
            <path id="사각형_288" d="M0 0h3.389v21.463H0z" class="cls-1" data-name="사각형 288" transform="rotate(45 11.492 51.322)"/>
            <path id="패스_2334" d="M41.653 9.7l-2.4-2.4 3.195-4.792 3.994 3.994z" class="cls-1" data-name="패스 2334"/>
            <path id="패스_2335" d="M28.872 26.476l-3.2-3.2-3.2-3.2-3.639 3.639a3.94 3.94 0 0 1-3.9 3.905L4.51 38.058a4.519 4.519 0 1 0 6.39 6.39L21.329 34.02a3.94 3.94 0 0 1 3.905-3.9z" class="cls-1" data-name="패스 2335"/>
            <path id="선_28" d="M7.988 0L0 7.988" class="cls-1" data-name="선 28" transform="translate(8.503 32.467)"/>
            <path id="패스_2336" d="M24.581 30.829l12.5 13.237a4.94 4.94 0 1 0 6.984-6.984L28.743 22.611" class="cls-1" data-name="패스 2336"/>
            <path id="패스_2337" d="M26.07 20.086l-5.205-4.916A10.168 10.168 0 0 0 7.587 2l5.294 5.29a1.883 1.883 0 0 1 0 2.663l-2.929 2.928a1.883 1.883 0 0 1-2.663 0L2 7.587a10.168 10.168 0 0 0 13.17 13.278l3.307 3.5" class="cls-1" data-name="패스 2337"/>
            <circle id="타원_279" cx="1.694" cy="1.694" r="1.694" class="cls-2" data-name="타원 279" transform="translate(38.079 38.079)"/>
        </g>
    </g>
</svg>
