<svg xmlns="http://www.w3.org/2000/svg" viewBox="0 0 51 51.32735"><defs><style>.cls-1{fill:#fff;}</style></defs><title>btn_setting</title><g id="레이어_2" data-name="레이어 2"><g id="레이어_1-2" data-name="레이어 1"><path class="cls-1" d="M43.41224,40.90771a2.59175,2.59175,0,1,0,2.59169,2.5918A2.59471,2.59471,0,0,0,43.41224,40.90771Zm-.0001,3.64751a1.05571,1.05571,0,1,1,1.05571-1.05571A1.05694,1.05694,0,0,1,43.41214,44.55522Z"/><path class="cls-1" d="M50.99746,43.34954A7.39025,7.39025,0,0,0,48.537,38.00362L33.54515,24.48151,46.66921,11.3578a1.91551,1.91551,0,0,0,.219-.09813l2.96053-1.5628a2.04429,2.04429,0,0,0,.49148-3.25293l-3.33376-3.3334a2.04392,2.04392,0,0,0-3.2528.49136L42.19117,6.56208a1.96392,1.96392,0,0,0-.09989.221l-5.39063,5.39063a1.37044,1.37044,0,1,0,1.93827,1.93792l4.53215-4.53216.69987.7001L29.57848,24.57211l-.7-.69986L35.063,17.68786a1.37052,1.37052,0,1,0-1.93827-1.93815L28.733,20.14138l-4.5038-4.06222A12.39643,12.39643,0,0,0,7.9483.82175,1.37038,1.37038,0,0,0,7.47012,3.0703l6.02966,6.02954a.3423.3423,0,0,1,0,.48407L9.58347,13.5a.34668.34668,0,0,1-.48336-.00047L3.07033,7.47a1.37037,1.37037,0,0,0-2.24867.47818A12.39457,12.39457,0,0,0,15.83881,24.29866l3.48,3.80594a3.50677,3.50677,0,0,1-.43947.53772,3.55421,3.55421,0,0,1-3.79818.79823,1.37156,1.37156,0,0,0-1.46549.30851L4.2119,39.15272A7.13174,7.13174,0,0,0,14.29765,49.23859l9.4039-9.40366a1.37151,1.37151,0,0,0,.30839-1.46538,3.55073,3.55073,0,0,1,4.59664-4.59687,1.37055,1.37055,0,0,0,1.46526-.30828l1.774-1.77389a3.43037,3.43037,0,0,0,0-4.851l-.3291-.32922.08789-.088L46.70145,40.039a4.71708,4.71708,0,1,1-6.64163,6.68469L30.4479,36.27326a1.37047,1.37047,0,1,0-2.02146,1.85108l9.6118,10.4504a7.45811,7.45811,0,0,0,12.95922-5.2252ZM21.1839,38.47616l-8.8244,8.82405a4.39062,4.39062,0,0,1-6.20921-6.20934l8.82428-8.824a6.29133,6.29133,0,0,0,7.52916-7.52928L23.69825,23.543a.70693.70693,0,0,1,.97473,0l5.23449,5.23438a.69071.69071,0,0,1,.00012.97472l-1.19452,1.19476a6.291,6.291,0,0,0-7.52917,7.52928Zm-5.74609-26.9541a3.08337,3.08337,0,0,0-.00012-4.36013L11.10274,2.82674A9.65387,9.65387,0,0,1,21.35981,15.97633a1.37556,1.37556,0,0,0,.35487,1.52586l3.67428,3.3141a3.43938,3.43938,0,0,0-3.629.78858L19.98585,23.379a1.37117,1.37117,0,0,0-.401.955l-2.32138-2.53871-.00024-.00023a1.36551,1.36551,0,0,0-1.49009-.35888A9.65168,9.65168,0,0,1,2.827,11.10294l4.335,4.33472a3.08308,3.08308,0,0,0,4.36,0ZM47.73371,7.714l-1.67023.88177L44.855,7.38713l.88165-1.67035Z"/><path class="cls-1" d="M16.32961,34.49856a.76829.76829,0,0,0-1.08625,0L7.96793,41.774a.7681.7681,0,0,0,1.08625,1.08626l7.27543-7.27543A.76829.76829,0,0,0,16.32961,34.49856Z"/><path class="cls-1" d="M19.01774,37.18669a.76829.76829,0,0,0-1.08626,0L10.65605,44.462a.7681.7681,0,0,0,1.08626,1.08626l7.27543-7.27534A.76811.76811,0,0,0,19.01774,37.18669Z"/></g></g></svg>