<svg xmlns="http://www.w3.org/2000/svg" viewBox="0 0 60 60"><defs><style>.cls-1{fill:#fff;}</style></defs><title>자산 9</title><g id="레이어_2" data-name="레이어 2"><g id="레이어_1-2" data-name="레이어 1"><path class="cls-1" d="M30,0A30,30,0,1,0,60,30,30,30,0,0,0,30,0ZM48,40.8a3.61,3.61,0,0,1-3.6,3.6H15.6A3.61,3.61,0,0,1,12,40.8V24.6A3.61,3.61,0,0,1,15.6,21h4.32a1.61,1.61,0,0,0,1.42-1l1.12-3.36a1.61,1.61,0,0,1,1.42-1H36.12a1.61,1.61,0,0,1,1.42,1L38.66,20a1.61,1.61,0,0,0,1.42,1H44.4A3.61,3.61,0,0,1,48,24.6Z"/><path class="cls-1" d="M43.14,24.6a1.26,1.26,0,1,0,1.26,1.26A1.26,1.26,0,0,0,43.14,24.6Z"/><path class="cls-1" d="M30,22.8a9,9,0,1,0,9,9A9,9,0,0,0,30,22.8Zm0,14.4a5.4,5.4,0,1,1,5.4-5.4A5.4,5.4,0,0,1,30,37.2Z"/></g></g></svg>