<svg xmlns="http://www.w3.org/2000/svg" viewBox="0 0 60 60"><defs><style>.cls-1{fill:#58b8eb;}.cls-2{fill:#fff;}</style></defs><title>자산 8</title><g id="레이어_2" data-name="레이어 2"><g id="레이어_1-2" data-name="레이어 1"><circle class="cls-1" cx="30" cy="30" r="30"/><path class="cls-2" d="M30,26.4a5.4,5.4,0,1,0,5.4,5.4A5.4,5.4,0,0,0,30,26.4ZM44.4,21H40.08a1.61,1.61,0,0,1-1.42-1l-1.12-3.36a1.61,1.61,0,0,0-1.42-1H23.88a1.61,1.61,0,0,0-1.42,1L21.34,20a1.61,1.61,0,0,1-1.42,1H15.6A3.61,3.61,0,0,0,12,24.6V40.8a3.61,3.61,0,0,0,3.6,3.6H44.4A3.61,3.61,0,0,0,48,40.8V24.6A3.61,3.61,0,0,0,44.4,21ZM30,40.8a9,9,0,1,1,9-9,9,9,0,0,1-9,9ZM43.14,27.12a1.26,1.26,0,1,1,0-2.52,1.26,1.26,0,1,1,0,2.52Z"/></g></g></svg>