<svg xmlns="http://www.w3.org/2000/svg" width="627" height="338.985" viewBox="0 0 627 338.985">
  <g id="그룹_215" data-name="그룹 215" transform="translate(-47 -337)">
    <rect id="사각형_136" data-name="사각형 136" width="627" height="274" transform="translate(47 337)" fill="#f6f6f6"/>
    <g id="그룹_189" data-name="그룹 189" transform="translate(-40.16 244.702)">
      <g id="etc" transform="translate(190.488 229.266)">
        <g id="그룹_160" data-name="그룹 160" transform="translate(0 0)">
          <path id="사각형_98" data-name="사각형 98" d="M5.4,0h0a5.4,5.4,0,0,1,5.4,5.4V114.064a0,0,0,0,1,0,0H0a0,0,0,0,1,0,0V5.4A5.4,5.4,0,0,1,5.4,0Z" transform="translate(113.995 100.74) rotate(135)" fill="#cc7611"/>
          <rect id="사각형_99" data-name="사각형 99" width="10.81" height="8.219" transform="translate(25.696 27.729) rotate(-45)" fill="#a45e14"/>
          <path id="패스_1659" data-name="패스 1659" d="M207.961,301.794l4.11-6.094,9.467,9.467-6.094,4.11Z" transform="translate(-199.646 -274.977)" fill="#686869"/>
          <path id="패스_1660" data-name="패스 1660" d="M231.9,278.449l5.82-4.157,6.652,6.652-4.157,5.82Z" transform="translate(-205.297 -269.924)" fill="#686869"/>
          <rect id="사각형_100" data-name="사각형 100" width="19.99" height="17.639" rx="4.07" transform="translate(37.417 17.671) rotate(135)" fill="#818181"/>
          <rect id="사각형_101" data-name="사각형 101" width="10.583" height="16.463" rx="2.464" transform="translate(19.124 35.964) rotate(135)" fill="#818181"/>
          <path id="패스_1661" data-name="패스 1661" d="M238.241,273.674l6.851,6.852a.689.689,0,0,0,1.125-.225l3.838-9.318a1.74,1.74,0,0,0-2.271-2.271l-9.318,3.837A.69.69,0,0,0,238.241,273.674Z" transform="translate(-206.744 -268.575)" fill="#818181"/>
        </g>
        <g id="그룹_161" data-name="그룹 161" transform="translate(61.917 3.652)">
          <path id="패스_1662" data-name="패스 1662" d="M329.652,292.712s-2.072,6.217-10.36,14.505l-39.025,39.025a7.322,7.322,0,0,0,8.826,11.527c.759-.4,27.436-27.068,37.8-37.429s13.124-8.979,13.124-8.979c8.979.691,8.979-2.072,8.979-2.072l-1.381-5.526c10.36-2.072,11.742-10.36,11.742-10.36l-.691-3.453L344.157,293.4l-2.763-8.289,15.2-4.145s-6.907-12.432-17.958-5.525C338.632,275.445,333.8,278.9,329.652,292.712Zm-46.968,55.256a3.907,3.907,0,1,1,0,5.526A3.908,3.908,0,0,1,282.684,347.969Z" transform="translate(-278.121 -273.355)" fill="#b3b2b1"/>
          <path id="패스_1663" data-name="패스 1663" d="M293.189,357.1h0a4.4,4.4,0,0,0,6.217,0l33.153-33.154a4.395,4.395,0,0,0,0-6.216h0a4.395,4.395,0,0,0-6.216,0l-33.154,33.153A4.4,4.4,0,0,0,293.189,357.1Z" transform="translate(-281.374 -283.525)" fill="#5b5b5a"/>
          <path id="패스_1664" data-name="패스 1664" d="M356.169,275.445c11.051-6.907,17.958,5.525,17.958,5.525l-15.2,4.145,2.763,8.289L376.2,289.95l.691,3.453s-1.381,8.289-11.742,10.36l1.381,5.526s-.018,2.022-5.664,2.168l-8.438-31.272A16.7,16.7,0,0,1,356.169,275.445Z" transform="translate(-295.658 -273.355)" fill="#5b5b5a"/>
          <rect id="사각형_102" data-name="사각형 102" width="11.722" height="7.814" transform="matrix(-0.259, -0.966, 0.966, -0.259, 56.181, 34.318)" fill="#5b5b5a"/>
          <path id="패스_1665" data-name="패스 1665" d="M333.134,315.715l6.859,13.915-3.965,3.965-5.417-15.358Z" transform="translate(-290.51 -283.353)" fill="#fff" opacity="0.25"/>
          <path id="패스_1666" data-name="패스 1666" d="M328.612,320.619l5.331,15.443-2.638,2.638-3.982-16.793Z" transform="translate(-289.734 -284.51)" fill="#fff" opacity="0.25"/>
        </g>
      </g>
      <g id="cloth" transform="translate(169.16 102.015)">
        <g id="그룹_162" data-name="그룹 162" transform="translate(174.045 77.247)">
          <path id="사각형_103" data-name="사각형 103" d="M4.054,0h0A4.054,4.054,0,0,1,8.108,4.054V28.636A3.311,3.311,0,0,1,4.8,31.947H3.311A3.311,3.311,0,0,1,0,28.636V4.054A4.054,4.054,0,0,1,4.054,0Z" transform="translate(0 1.432) rotate(-10.174)" fill="#fff1d8"/>
          <path id="사각형_104" data-name="사각형 104" d="M0,0H31.108a0,0,0,0,1,0,0V11.11A15.554,15.554,0,0,1,15.554,26.664h0A15.554,15.554,0,0,1,0,11.11V0A0,0,0,0,1,0,0Z" transform="translate(3.813 22.677) rotate(-10.174)" fill="#fff1d8"/>
          <path id="패스_1667" data-name="패스 1667" d="M423.316,249.5l-.817.147a12.317,12.317,0,0,1-14.3-9.948l-.262-1.461a8.024,8.024,0,0,1,6.481-9.316l9.266-1.662A8.024,8.024,0,0,1,433,233.738l.262,1.461A12.316,12.316,0,0,1,423.316,249.5Z" transform="translate(-399.529 -208.79)" fill="#fccba4" opacity="0.49"/>
          <path id="사각형_105" data-name="사각형 105" d="M4.131,0h6.458a5.059,5.059,0,0,1,5.059,5.059v0a5.059,5.059,0,0,1-5.059,5.059H4.131A4.131,4.131,0,0,1,0,5.987V4.131A4.131,4.131,0,0,1,4.131,0Z" transform="translate(1.392 26.856) rotate(-10.174)" fill="#fff1d8"/>
          <rect id="사각형_106" data-name="사각형 106" width="8.108" height="16.826" rx="4.054" transform="translate(10.154 12.992) rotate(-10.174)" fill="#fff1d8"/>
          <rect id="사각형_107" data-name="사각형 107" width="8.108" height="16.826" rx="4.054" transform="translate(18.135 11.56) rotate(-10.174)" fill="#fff1d8"/>
          <rect id="사각형_108" data-name="사각형 108" width="8.108" height="16.826" rx="4.054" transform="translate(26.116 10.127) rotate(-10.174)" fill="#fff1d8"/>
        </g>
        <g id="그룹_163" data-name="그룹 163" transform="translate(125.467 118.656)">
          <path id="패스_1668" data-name="패스 1668" d="M333.385,301.015s40.415,28.545,53.492,14.922c10.528-10.968,9.025-39.49,8.039-50.19a4.833,4.833,0,0,1,3.673-5.139l12.9-3.142a4.833,4.833,0,0,1,5.765,3.258c6.635,21.391,30.5,114.055-62.6,90.615Z" transform="translate(-333.385 -257.325)" fill="#faba00"/>
          <path id="패스_1669" data-name="패스 1669" d="M441.044,277.4l-20.653,2.179s15.025-1.312,22.337,5.612C442.194,282.429,441.621,279.817,441.044,277.4Z" transform="translate(-353.919 -262.063)" fill="#f89f00"/>
          <ellipse id="타원_26" data-name="타원 26" cx="2.534" cy="3.492" rx="2.534" ry="3.492" transform="translate(76.045 6.795) rotate(-14.667)" fill="#f89f00"/>
          <path id="패스_1670" data-name="패스 1670" d="M422.149,260.723a4.833,4.833,0,0,0-5.765-3.258l-3.095.754c7.633,27.9,17.262,91.786-59.153,80.305l5.415,12.814C452.647,374.778,428.784,282.113,422.149,260.723Z" transform="translate(-338.282 -257.325)" fill="#e48d00" opacity="0.35"/>
        </g>
        <g id="그룹_166" data-name="그룹 166" transform="translate(23.636 9.537)">
          <g id="그룹_164" data-name="그룹 164" transform="translate(0 71.646)">
            <path id="사각형_109" data-name="사각형 109" d="M16.016,0h.128A15.816,15.816,0,0,1,31.96,15.816V37.054a0,0,0,0,1,0,0H21.038A21.038,21.038,0,0,1,0,16.016v0A16.016,16.016,0,0,1,16.016,0Z" transform="translate(0 6.12) rotate(-11.039)" fill="#fff1d8"/>
            <path id="패스_1671" data-name="패스 1671" d="M235.179,241.06l-6.712,1.309a13.33,13.33,0,0,1-15.635-10.53h0a10.148,10.148,0,0,1,8.017-11.9h0a10.021,10.021,0,0,1,11.755,7.916Z" transform="translate(-203.058 -210.984)" fill="#fccba4"/>
            <path id="패스_1672" data-name="패스 1672" d="M233.226,247.6l11.075-2.16-4.254-21.805a14.833,14.833,0,0,0-15.629-11.949C225.01,217.933,227.239,236.9,233.226,247.6Z" transform="translate(-205.837 -209.072)" fill="#fccba4" opacity="0.49"/>
          </g>
          <g id="그룹_165" data-name="그룹 165" transform="translate(110.577 71.646)">
            <path id="사각형_110" data-name="사각형 110" d="M21.038,0H31.96a0,0,0,0,1,0,0V21.237A15.816,15.816,0,0,1,16.144,37.054h-.128A16.016,16.016,0,0,1,0,21.038v0A21.038,21.038,0,0,1,21.038,0Z" transform="translate(31.369 42.488) rotate(-168.961)" fill="#fff1d8"/>
            <path id="패스_1673" data-name="패스 1673" d="M353.134,241.06l6.713,1.309a13.329,13.329,0,0,0,15.634-10.53h0a10.147,10.147,0,0,0-8.017-11.9h0a10.021,10.021,0,0,0-11.754,7.916Z" transform="translate(-346.792 -210.984)" fill="#fccba4"/>
            <path id="패스_1674" data-name="패스 1674" d="M355.907,247.6l-11.074-2.16,4.253-21.805a14.833,14.833,0,0,1,15.63-11.949C364.124,217.933,361.894,236.9,355.907,247.6Z" transform="translate(-344.833 -209.072)" fill="#fccba4" opacity="0.49"/>
          </g>
          <path id="패스_1675" data-name="패스 1675" d="M293.606,316.845h0A12.122,12.122,0,0,1,281.5,305.336l-.946-18.669h26.1l-.945,18.669A12.122,12.122,0,0,1,293.606,316.845Z" transform="translate(-219.086 -155.131)" fill="#fff1d8"/>
          <path id="패스_1676" data-name="패스 1676" d="M281.041,296.292a52.834,52.834,0,0,0,12.527,1.452h.075a52.827,52.827,0,0,0,12.526-1.452l.487-9.625h-26.1Z" transform="translate(-219.086 -155.131)" fill="#fccba4"/>
          <path id="패스_1677" data-name="패스 1677" d="M333.757,173.327c0-59.105-50.824-58.848-52.3-58.828-1.471-.02-52.3-.277-52.3,58.828,0,0-4.2,77.093,52.258,77.161v0h.075v0C337.954,250.419,333.757,173.327,333.757,173.327Z" transform="translate(-206.941 -114.498)" fill="#fff1d8"/>
        </g>
        <path id="패스_1678" data-name="패스 1678" d="M278.647,161.485h5.628c28.113,0,42.78,10.035,49.542,16.934.044-3.2-.06-5.092-.06-5.092,0-59.105-50.824-58.848-52.3-58.828-1.471-.02-52.3-.277-52.3,58.828,0,0-.1,1.9-.06,5.093C235.867,171.52,250.534,161.485,278.647,161.485Z" transform="translate(-183.305 -104.961)" fill="#fccba4"/>
        <g id="그룹_167" data-name="그룹 167" transform="translate(77.116 35.844)">
          <path id="패스_1679" data-name="패스 1679" d="M270.6,152.995s-6.181,21.8,24.756,24.067a2.083,2.083,0,0,0,2.07-2.9,5.809,5.809,0,0,1-.468-2.643s5.135,2.934,13.251,2.445a2.1,2.1,0,0,0,1.027-3.84c-3.809-2.578-9.318-12.137-9.318-20.092,0,0-22.325-3.9-31.318,2.96Z" transform="translate(-270.098 -148.932)" fill="#373229"/>
          <path id="패스_1680" data-name="패스 1680" d="M276.3,163.115c1.19,7.285,5.094,8.022,8.149,9.55s-1.782-4.329.128-4.329,2.419,2.674,3.056,2.164-2.674-9.932-3.566-8.658.636,5.73-.764,4.456S275.282,156.876,276.3,163.115Z" transform="translate(-271.536 -151.73)" fill="#5c4430"/>
        </g>
        <path id="패스_1681" data-name="패스 1681" d="M295.922,223.5h-.009c-4.129.008-5.566,5.478-5.566,10.186s2.128-.885,5.571-.891,5.57,5.6,5.57.891S300.051,223.506,295.922,223.5Z" transform="translate(-197.761 -130.686)" fill="#fccba4" opacity="0.5"/>
        <path id="패스_1682" data-name="패스 1682" d="M290.955,238.433c.8.18,2.609-2.765,5.106-2.769,2.426,0,4.2,2.786,5.035,2.776" transform="translate(-197.904 -133.557)" fill="none" stroke="#efa36d" stroke-linecap="round" stroke-miterlimit="10" stroke-width="2"/>
        <path id="패스_1683" data-name="패스 1683" d="M309.65,253s-3.884,5.22-16.521,5.22h-1.719c-12.638,0-16.521-5.22-16.521-5.22" transform="translate(-194.113 -137.649)" fill="none" stroke="#f7ac7e" stroke-linecap="round" stroke-miterlimit="10" stroke-width="2"/>
        <path id="패스_1684" data-name="패스 1684" d="M321.721,191.657s6.748-.637,11.969,3.692" transform="translate(-205.166 -123.163)" fill="none" stroke="#5d5546" stroke-linecap="round" stroke-miterlimit="10" stroke-width="3"/>
        <path id="패스_1685" data-name="패스 1685" d="M269.857,191.657s-6.748-.637-11.969,3.692" transform="translate(-190.1 -123.163)" fill="none" stroke="#5d5546" stroke-linecap="round" stroke-miterlimit="10" stroke-width="3"/>
        <g id="그룹_168" data-name="그룹 168" transform="translate(56.175 95.105)">
          <rect id="사각형_111" data-name="사각형 111" width="20.628" height="12.097" rx="6.048" transform="translate(2.827)" fill="#fccba4" opacity="0.5"/>
          <circle id="타원_27" data-name="타원 27" cx="0.891" cy="0.891" r="0.891" transform="translate(2.212 0.573)" fill="#fccba4"/>
          <circle id="타원_28" data-name="타원 28" cx="0.891" cy="0.891" r="0.891" transform="translate(4.87 4.409)" fill="#fccba4"/>
          <circle id="타원_29" data-name="타원 29" cx="0.891" cy="0.891" r="0.891" transform="translate(0 5.459)" fill="#fccba4"/>
          <circle id="타원_30" data-name="타원 30" cx="0.891" cy="0.891" r="0.891" transform="translate(8.324 2.666)" fill="#fccba4"/>
          <circle id="타원_31" data-name="타원 31" cx="0.891" cy="0.891" r="0.891" transform="translate(10.712 6.152)" fill="#fccba4"/>
          <circle id="타원_32" data-name="타원 32" cx="0.891" cy="0.891" r="0.891" transform="translate(14.094 4.098)" fill="#fccba4"/>
        </g>
        <g id="그룹_169" data-name="그룹 169" transform="translate(116.683 95.105)">
          <rect id="사각형_112" data-name="사각형 112" width="20.628" height="12.097" rx="6.048" transform="translate(20.628 12.097) rotate(180)" fill="#fccba4" opacity="0.5"/>
          <circle id="타원_33" data-name="타원 33" cx="0.891" cy="0.891" r="0.891" transform="translate(19.46 0.573)" fill="#fccba4"/>
          <circle id="타원_34" data-name="타원 34" cx="0.891" cy="0.891" r="0.891" transform="translate(16.802 4.409)" fill="#fccba4"/>
          <circle id="타원_35" data-name="타원 35" cx="0.891" cy="0.891" r="0.891" transform="translate(21.672 5.459)" fill="#fccba4"/>
          <circle id="타원_36" data-name="타원 36" cx="0.891" cy="0.891" r="0.891" transform="translate(13.348 2.666)" fill="#fccba4"/>
          <circle id="타원_37" data-name="타원 37" cx="0.891" cy="0.891" r="0.891" transform="translate(10.96 6.152)" fill="#fccba4"/>
          <circle id="타원_38" data-name="타원 38" cx="0.891" cy="0.891" r="0.891" transform="translate(7.578 4.098)" fill="#fccba4"/>
        </g>
        <g id="그룹_170" data-name="그룹 170" transform="translate(70.843 81.863)">
          <ellipse id="타원_39" data-name="타원 39" cx="4.393" cy="9.041" rx="4.393" ry="9.041" transform="translate(45.839)" fill="#353d3d"/>
          <ellipse id="타원_40" data-name="타원 40" cx="4.393" cy="9.041" rx="4.393" ry="9.041" fill="#353d3d"/>
        </g>
        <g id="그룹_171" data-name="그룹 171" transform="translate(0 156.296)">
          <path id="패스_1686" data-name="패스 1686" d="M202.069,341.284c-27.17,42.8-44.911,81.615-23.191,134.1a6.8,6.8,0,0,0,6.288,4.178h10.015a4.532,4.532,0,0,0,4.523-4.874c-1.39-18.153-3.624-83.169,30.127-129.419a2.925,2.925,0,0,1,.27-.32l28.3-29.037-8.423-9.322C236.619,308.668,217.833,316.45,202.069,341.284Z" transform="translate(-169.16 -306.594)" fill="#faba00"/>
          <path id="패스_1687" data-name="패스 1687" d="M177.25,515.01c7.267,2.694,16.875-1.024,16.875-1.024a32.709,32.709,0,0,1-19.019-5.709Q176.068,511.607,177.25,515.01Z" transform="translate(-170.563 -354.193)" fill="#e48d00"/>
          <ellipse id="타원_41" data-name="타원 41" cx="2.165" cy="2.801" rx="2.165" ry="2.801" transform="translate(10.746 165.169) rotate(-22.593)" fill="#e48d00"/>
          <path id="패스_1688" data-name="패스 1688" d="M256.211,326.5a69.72,69.72,0,0,0-9.5,6.316c-9.907,9.409-21.1,18.152-29.45,28.836a127.422,127.422,0,0,0-18.893,33.592c-5.406,14.392-8.25,29.734-9.818,44.869a214.067,214.067,0,0,0-.532,39.64,4.083,4.083,0,0,1-2,3.8,7.272,7.272,0,0,0,3.125.712H199.16a4.342,4.342,0,0,0,4.523-4.511c-1.39-16.8-3.624-76.967,30.127-119.769l.27-.3,28.3-26.873Z" transform="translate(-173.139 -311.292)" fill="#e48d00" opacity="0.35"/>
        </g>
        <path id="패스_1689" data-name="패스 1689" d="M294.8,316.125h-35.31c-19.806,9.3-49.138,38.835-48.694,132.2a26.989,26.989,0,0,0,27.016,26.807h19.376a20.231,20.231,0,0,0,19.46-14l.5-1.61.5,1.61a20.23,20.23,0,0,0,19.459,14h19.376a26.989,26.989,0,0,0,27.017-26.807C343.933,354.96,314.6,325.427,294.8,316.125Z" transform="translate(-178.984 -152.547)" fill="#fabb04"/>
        <path id="패스_1690" data-name="패스 1690" d="M294.8,316.125h-35.31c-19.806,9.3-49.138,38.835-48.694,132.2a26.989,26.989,0,0,0,27.016,26.807h19.376a20.231,20.231,0,0,0,19.46-14l.5-1.61.5,1.61a20.23,20.23,0,0,0,19.459,14h19.376a26.989,26.989,0,0,0,27.017-26.807C343.933,354.96,314.6,325.427,294.8,316.125Z" transform="translate(-178.984 -152.547)" fill="#faba00"/>
        <path id="패스_1691" data-name="패스 1691" d="M311.358,306.629a1.764,1.764,0,0,0-.8-.847l-5.421-2.807a4.27,4.27,0,0,0-4.663.484l-11.351,9.268-11.351-9.268a4.27,4.27,0,0,0-4.663-.484l-5.421,2.807a1.764,1.764,0,0,0-.8.847c-1.6.395-3.26.872-4.96,1.454.845,7.366,5.078,24.608,26.2,24.608h1.985c21.121,0,25.353-17.242,26.2-24.608C314.618,307.5,312.962,307.024,311.358,306.629Z" transform="translate(-191.056 -149.331)" fill="#f89f00"/>
        <path id="패스_1692" data-name="패스 1692" d="M279.348,303.441l11.357,9.273-8.634,11.445a3.7,3.7,0,0,1-6.3-.646l-7.293-15.4a1.781,1.781,0,0,1,.791-2.345l5.421-2.807A4.27,4.27,0,0,1,279.348,303.441Z" transform="translate(-192.558 -149.326)" fill="#faba00"/>
        <path id="패스_1693" data-name="패스 1693" d="M308.985,303.441l-11.357,9.273,8.634,11.445a3.7,3.7,0,0,0,6.3-.646l7.293-15.4a1.781,1.781,0,0,0-.791-2.345l-5.421-2.807A4.27,4.27,0,0,0,308.985,303.441Z" transform="translate(-199.479 -149.326)" fill="#faba00"/>
        <circle id="타원_42" data-name="타원 42" cx="3.406" cy="3.406" r="3.406" transform="translate(94.75 172.841)" fill="#faba00"/>
        <g id="그룹_184" data-name="그룹 184" transform="translate(26.472 156.522)">
          <rect id="사각형_113" data-name="사각형 113" width="103.139" height="16.044" transform="translate(20.114 128.435)" fill="#433d2d"/>
          <g id="그룹_177" data-name="그룹 177" transform="translate(0 0)">
            <path id="패스_1694" data-name="패스 1694" d="M249.554,357.4S229.977,399.8,221,454.042l15.853,5.921c8.977-54.243,28.554-96.645,28.554-96.645h14.134V343.836h-10.7c-6.871-3.679-8.748-22.591-9.262-32.651a4.531,4.531,0,0,0-6.173-3.983l-9.2,3.583a4.53,4.53,0,0,0-2.886,4.4C241.614,322.633,243,341.538,249.554,357.4Z" transform="translate(-207.867 -306.889)" fill="#433d2d"/>
            <rect id="사각형_114" data-name="사각형 114" width="19.793" height="15.916" rx="4.312" transform="translate(30.302 75.172) rotate(19.531)" fill="none" stroke="#221f19" stroke-miterlimit="10" stroke-width="5"/>
            <g id="그룹_172" data-name="그룹 172" transform="translate(31.828 8.739)">
              <rect id="사각형_115" data-name="사각형 115" width="21.689" height="24.734" rx="3.962" transform="translate(0.624 6.14) rotate(-10.463)" fill="#2d2921"/>
              <path id="사각형_116" data-name="사각형 116" d="M0,0H3.008a0,0,0,0,1,0,0V17.787a1.5,1.5,0,0,1-1.5,1.5h0a1.5,1.5,0,0,1-1.5-1.5V0A0,0,0,0,1,0,0Z" transform="translate(10.155 6.322) rotate(-10.463)" fill="#1a1915"/>
              <path id="패스_1695" data-name="패스 1695" d="M246.992,328.727l1.5,8.107a6.345,6.345,0,0,0,5.822,1.868l10.737-1.983a6.346,6.346,0,0,0,4.77-3.824l-1.5-8.107a2.857,2.857,0,0,0-.415-1.028l-20.892,3.858A2.839,2.839,0,0,0,246.992,328.727Z" transform="translate(-245.818 -319.61)" fill="#0e0d0d" opacity="0.3"/>
              <path id="사각형_117" data-name="사각형 117" d="M0,0H22.146a0,0,0,0,1,0,0V4.474a7.75,7.75,0,0,1-7.75,7.75H7.75A7.75,7.75,0,0,1,0,4.474V0A0,0,0,0,1,0,0Z" transform="translate(0 4.022) rotate(-10.463)" fill="#2d2921"/>
              <path id="패스_1696" data-name="패스 1696" d="M267.248,318.328l1.144,6.2a5.921,5.921,0,0,1-4.747,6.9l-10.133,1.871a5.92,5.92,0,0,1-6.9-4.747l-1.144-6.2" transform="translate(-245.47 -318.328)" fill="none" stroke="#e75521" stroke-miterlimit="10" stroke-width="2"/>
              <circle id="타원_43" data-name="타원 43" cx="2.133" cy="2.133" r="2.133" transform="translate(10.621 7.74)" fill="#1a1915"/>
              <circle id="타원_44" data-name="타원 44" cx="2.133" cy="2.133" r="2.133" transform="translate(10.022 6.734)" fill="#433d2d"/>
            </g>
            <g id="그룹_176" data-name="그룹 176" transform="translate(0 111.301)">
              <g id="그룹_173" data-name="그룹 173" transform="translate(0 2.045)">
                <path id="패스_1697" data-name="패스 1697" d="M206.184,468.938s-1.783,13.37-2.292,17.572,1.464,4.647,2.928,5.666,15.343,5.6,16.553,6.049a10.159,10.159,0,0,0,6.557-.51c2.546-1.082,4.2-1.018,5.22-5.6s5.794-28.841,5.794-28.841L220.89,455.25Z" transform="translate(-203.81 -455.25)" fill="#2d2921"/>
                <path id="패스_1698" data-name="패스 1698" d="M240.391,494.288c1.018-4.582,5.789-28.819,5.793-28.84l-1.267-.506c-.021-.01-.042-.017-.063-.027l-.448-.179c-8.969-3.157-12.046,22.415-13.183,29.615-.753,4.763-3.427,4.8-5.213,5.157,1.343.457,2.32.788,2.6.892a10.159,10.159,0,0,0,6.557-.51C237.717,498.808,239.372,498.872,240.391,494.288Z" transform="translate(-209.049 -457.425)" fill="#0e0d0d" opacity="0.3"/>
                <path id="사각형_118" data-name="사각형 118" d="M0,0H3.247a0,0,0,0,1,0,0V14.42a1.623,1.623,0,0,1-1.623,1.623h0A1.623,1.623,0,0,1,0,14.42V0A0,0,0,0,1,0,0Z" transform="translate(11.03 19.022) rotate(9.311)" fill="#1a1915"/>
              </g>
              <g id="그룹_175" data-name="그룹 175" transform="translate(1.99)">
                <path id="패스_1699" data-name="패스 1699" d="M222.855,453.441a8.876,8.876,0,0,0-5.778-.652c-9.012,2.023-8.672,4.439-10.056,11.793-1.528,8.117-.286,7.067,5.061,9.645s11.46,5.252,13.752,5.252,3.533-2.769,4.679-7.162,1.337-9.836,10.791-10.027Z" transform="translate(-206.414 -452.573)" fill="#2d2921"/>
                <path id="패스_1700" data-name="패스 1700" d="M219.882,452.667c-11.842,1.082-11.477,4.583-12.861,11.937-1.528,8.117-.286,7.067,5.061,9.645s11.46,5.252,13.752,5.252,3.533-2.769,4.679-7.162,1.337-9.836,10.791-10.027" transform="translate(-206.414 -452.595)" fill="none" stroke="#e75521" stroke-linecap="round" stroke-miterlimit="10" stroke-width="2"/>
                <g id="그룹_174" data-name="그룹 174" transform="translate(6.621 12.662)">
                  <ellipse id="타원_45" data-name="타원 45" cx="3.183" cy="2.543" rx="3.183" ry="2.543" transform="translate(1.186 7.331) rotate(-75.982)" fill="#0e0d0d" opacity="0.3"/>
                  <ellipse id="타원_46" data-name="타원 46" cx="3.183" cy="2.543" rx="3.183" ry="2.543" transform="translate(0 6.177) rotate(-75.982)" fill="#433d2d"/>
                </g>
              </g>
            </g>
          </g>
          <g id="그룹_183" data-name="그룹 183" transform="translate(71.669 0)">
            <path id="패스_1701" data-name="패스 1701" d="M327.606,357.4s19.577,42.4,28.554,96.645l-15.853,5.921c-8.977-54.243-28.554-96.645-28.554-96.645H297.619V343.836h10.7c6.871-3.679,8.749-22.591,9.262-32.651a4.531,4.531,0,0,1,6.173-3.983l9.2,3.583a4.529,4.529,0,0,1,2.886,4.4C335.546,322.633,334.164,341.538,327.606,357.4Z" transform="translate(-297.619 -306.889)" fill="#433d2d"/>
            <rect id="사각형_119" data-name="사각형 119" width="19.793" height="15.916" rx="4.312" transform="translate(46.693 90.172) rotate(160.469)" fill="none" stroke="#221f19" stroke-miterlimit="10" stroke-width="5"/>
            <g id="그룹_178" data-name="그룹 178" transform="translate(13.403 8.739)">
              <rect id="사각형_120" data-name="사각형 120" width="21.689" height="24.734" rx="3.962" transform="matrix(-0.983, -0.182, 0.182, -0.983, 21.328, 30.463)" fill="#2d2921"/>
              <path id="사각형_121" data-name="사각형 121" d="M1.5,0h0a1.5,1.5,0,0,1,1.5,1.5V19.291a0,0,0,0,1,0,0H0a0,0,0,0,1,0,0V1.5A1.5,1.5,0,0,1,1.5,0Z" transform="matrix(-0.983, -0.182, 0.182, -0.983, 12.785, 25.292)" fill="#1a1915"/>
              <path id="패스_1702" data-name="패스 1702" d="M341.188,328.727l-1.5,8.107a6.344,6.344,0,0,1-5.821,1.868l-10.737-1.983a6.345,6.345,0,0,1-4.77-3.824l1.5-8.107a2.857,2.857,0,0,1,.415-1.028l20.893,3.858A2.869,2.869,0,0,1,341.188,328.727Z" transform="translate(-315.917 -319.61)" fill="#0e0d0d" opacity="0.3"/>
              <path id="사각형_122" data-name="사각형 122" d="M7.75,0H14.4a7.75,7.75,0,0,1,7.75,7.75v4.474a0,0,0,0,1,0,0H0a0,0,0,0,1,0,0V7.75A7.75,7.75,0,0,1,7.75,0Z" transform="matrix(-0.983, -0.182, 0.182, -0.983, 24.224, 16.042)" fill="#2d2921"/>
              <path id="패스_1703" data-name="패스 1703" d="M320.885,318.328l-1.144,6.2a5.921,5.921,0,0,0,4.747,6.9l10.133,1.871a5.92,5.92,0,0,0,6.9-4.747l1.144-6.2" transform="translate(-316.219 -318.328)" fill="none" stroke="#e75521" stroke-miterlimit="10" stroke-width="2"/>
              <circle id="타원_47" data-name="타원 47" cx="2.133" cy="2.133" r="2.133" transform="translate(11.557 7.74)" fill="#1a1915"/>
              <circle id="타원_48" data-name="타원 48" cx="2.133" cy="2.133" r="2.133" transform="translate(12.156 6.734)" fill="#433d2d"/>
            </g>
            <g id="그룹_182" data-name="그룹 182" transform="translate(34.539 111.301)">
              <g id="그룹_179" data-name="그룹 179" transform="translate(0 2.045)">
                <path id="패스_1704" data-name="패스 1704" d="M377.59,468.938s1.782,13.37,2.292,17.572-1.465,4.647-2.929,5.666-15.343,5.6-16.553,6.049a10.161,10.161,0,0,1-6.558-.51c-2.546-1.082-4.2-1.018-5.22-5.6s-5.793-28.841-5.793-28.841l20.055-8.022Z" transform="translate(-342.828 -455.25)" fill="#2d2921"/>
                <path id="패스_1705" data-name="패스 1705" d="M348.621,494.288c-1.018-4.582-5.79-28.819-5.793-28.84l1.267-.506.063-.027.448-.179c8.969-3.157,12.046,22.415,13.183,29.615.752,4.763,3.427,4.8,5.213,5.157-1.343.457-2.32.788-2.6.892a10.159,10.159,0,0,1-6.557-.51C351.3,498.808,349.64,498.872,348.621,494.288Z" transform="translate(-342.828 -457.425)" fill="#0e0d0d" opacity="0.3"/>
                <path id="사각형_123" data-name="사각형 123" d="M1.623,0h0A1.623,1.623,0,0,1,3.247,1.623v14.42a0,0,0,0,1,0,0H0a0,0,0,0,1,0,0V1.623A1.623,1.623,0,0,1,1.623,0Z" transform="translate(28.7 34.855) rotate(170.689)" fill="#1a1915"/>
              </g>
              <g id="그룹_181" data-name="그룹 181" transform="translate(0.254)">
                <path id="패스_1706" data-name="패스 1706" d="M361.611,453.441a8.878,8.878,0,0,1,5.778-.652c9.012,2.023,8.672,4.439,10.056,11.793,1.528,8.117.286,7.067-5.061,9.645s-11.46,5.252-13.752,5.252-3.533-2.769-4.679-7.162-1.337-9.836-10.791-10.027Z" transform="translate(-343.161 -452.573)" fill="#2d2921"/>
                <path id="패스_1707" data-name="패스 1707" d="M364.585,452.667c11.842,1.082,11.476,4.583,12.86,11.937,1.528,8.117.286,7.067-5.061,9.645s-11.46,5.252-13.752,5.252-3.533-2.769-4.679-7.162-1.337-9.836-10.791-10.027" transform="translate(-343.161 -452.595)" fill="none" stroke="#e75521" stroke-linecap="round" stroke-miterlimit="10" stroke-width="2"/>
                <g id="그룹_180" data-name="그룹 180" transform="translate(20.607 12.662)">
                  <ellipse id="타원_49" data-name="타원 49" cx="2.543" cy="3.183" rx="2.543" ry="3.183" transform="translate(0 2.386) rotate(-14.018)" fill="#0e0d0d" opacity="0.3"/>
                  <ellipse id="타원_50" data-name="타원 50" cx="2.543" cy="3.183" rx="2.543" ry="3.183" transform="translate(1.186 1.232) rotate(-14.018)" fill="#433d2d"/>
                </g>
              </g>
            </g>
          </g>
          <rect id="사각형_124" data-name="사각형 124" width="20.691" height="20.691" rx="6.216" transform="translate(61.254 36.247)" fill="none" stroke="#221f19" stroke-miterlimit="10" stroke-width="5"/>
          <rect id="사각형_125" data-name="사각형 125" width="17.721" height="17.721" rx="6.216" transform="translate(62.739 127.596)" fill="none" stroke="#221f19" stroke-miterlimit="10" stroke-width="5"/>
        </g>
        <path id="패스_1708" data-name="패스 1708" d="M309.748,146.5s19.969,33.973,40.877,38.869a3.578,3.578,0,0,0,4.291-4.222C352.666,170.312,343.759,145.012,309.748,146.5Z" transform="translate(-202.34 -112.5)" fill="#373229"/>
        <path id="패스_1709" data-name="패스 1709" d="M270.384,146.5s-19.969,33.973-40.877,38.869a3.578,3.578,0,0,1-4.291-4.222C227.466,170.312,236.373,145.012,270.384,146.5Z" transform="translate(-182.371 -112.5)" fill="#373229"/>
        <g id="그룹_186" data-name="그룹 186" transform="translate(35.919)">
          <path id="패스_1710" data-name="패스 1710" d="M336.531,157.966l-2-18.1a31.864,31.864,0,0,0-16.352-24.44l-12.656-6.939a52.576,52.576,0,0,0-50.561.005l-12.639,6.933a31.863,31.863,0,0,0-16.352,24.44l-2,18.1,33.489-21.2,22.791-1.4,22.791,1.4Z" transform="translate(-218.015 -102.015)" fill="#004496"/>
          <path id="패스_1711" data-name="패스 1711" d="M335.682,181.844a4.969,4.969,0,0,1-4.674-3.288c-.462-1.264-11.22-29.374-49.783-29.374H275.6c-38.885,0-49.673,29.065-49.778,29.359a4.966,4.966,0,0,1-9.357-3.328c.522-1.468,13.318-35.963,59.135-35.963h5.627c45.817,0,58.613,34.494,59.136,35.963a4.97,4.97,0,0,1-4.679,6.631Z" transform="translate(-216.174 -110.803)" fill="#0062af"/>
          <g id="그룹_185" data-name="그룹 185" transform="translate(38.862 12.919)">
            <path id="패스_1712" data-name="패스 1712" d="M267.495,124.714q1.449-.627,2.921-1.17a3.158,3.158,0,0,1,.85-.2,1.359,1.359,0,0,1,.7.112.98.98,0,0,1,.46.481,1.823,1.823,0,0,1,.133.885,3.029,3.029,0,0,1-.691,1.873,4.046,4.046,0,0,1-1.713,1.122q-.674.249-1.342.515-.071,1.07-.141,2.141-.818.324-1.629.675Zm1.4,2.325q.544-.217,1.091-.422a1.633,1.633,0,0,0,.652-.424,1.1,1.1,0,0,0,.274-.7q.025-.431-.2-.552a.763.763,0,0,0-.62.027q-.546.2-1.086.419Q268.949,126.216,268.9,127.039Z" transform="translate(-267.041 -119.967)" fill="#fff"/>
            <path id="패스_1713" data-name="패스 1713" d="M275.548,121.8q2.507-.763,5.063-1.293-.024.665-.049,1.329-1.725.358-3.432.822l-.053,1.118q1.564-.426,3.146-.762l-.048,1.284q-1.587.338-3.158.766l-.057,1.216q1.771-.482,3.562-.85-.025.713-.051,1.426-2.649.545-5.255,1.338Z" transform="translate(-268.97 -119.297)" fill="#fff"/>
            <path id="패스_1714" data-name="패스 1714" d="M283.813,120.022q1.639-.3,3.289-.511a3.163,3.163,0,0,1,.846,0,1.966,1.966,0,0,1,.72.244,1.346,1.346,0,0,1,.5.513,1.559,1.559,0,0,1,.174.788,1.971,1.971,0,0,1-.281.992,1.748,1.748,0,0,1-.772.7v.018a.82.82,0,0,1,.423.166,1,1,0,0,1,.279.342,2.115,2.115,0,0,1,.159.434,2.729,2.729,0,0,1,.07.487l.008.106c.009.189.016.324.021.406s.017.189.037.321a2.7,2.7,0,0,0,.073.353.461.461,0,0,0,.118.222q-.854.07-1.705.166a.748.748,0,0,1-.112-.347q-.032-.241-.053-.539-.008-.1-.007-.105a3.839,3.839,0,0,0-.05-.5,1.166,1.166,0,0,0-.134-.374.6.6,0,0,0-.278-.254.839.839,0,0,0-.466-.047q-.646.086-1.291.186l-.064,2.315q-.856.133-1.711.29Q283.709,123.2,283.813,120.022Zm1.6,2.475q.711-.11,1.423-.2a.8.8,0,0,0,.8-.844.506.506,0,0,0-.231-.483.921.921,0,0,0-.61-.1q-.673.088-1.345.192Q285.434,121.78,285.415,122.5Z" transform="translate(-270.95 -119.057)" fill="#fff"/>
            <path id="패스_1715" data-name="패스 1715" d="M292.11,124.07q1.714-1.908,3.4-3.718-1.576.023-3.148.131.008-.712.017-1.423,2.658-.182,5.323-.119,0,.639.005,1.28-1.709,1.781-3.456,3.663,1.795-.064,3.592-.018,0,.711.006,1.422-2.876-.074-5.752.133Q292.1,124.745,292.11,124.07Z" transform="translate(-272.953 -118.925)" fill="#fff"/>
            <path id="패스_1716" data-name="패스 1716" d="M306.556,123.237a2.42,2.42,0,0,1-.643,1.984,2.851,2.851,0,0,1-2.165.44,3.415,3.415,0,0,1-2.193-.838,2.911,2.911,0,0,1-.716-2.109q-.014-1.862-.028-3.724.848.036,1.694.1.025,1.912.05,3.822a1.479,1.479,0,0,0,.28.953,1.262,1.262,0,0,0,.891.376,1.038,1.038,0,0,0,.88-.215,1.246,1.246,0,0,0,.248-.9q-.038-1.913-.076-3.825.843.094,1.685.213Z" transform="translate(-275.011 -118.94)" fill="#fff"/>
            <path id="패스_1717" data-name="패스 1717" d="M309.214,119.817q1.239.191,2.469.438.627,2.232,1.267,4.479l.018,0q.476-2,.935-3.993,1.223.295,2.434.643l.316,6.388q-.79-.228-1.583-.432-.109-2.421-.217-4.843l-.018,0q-.563,2.248-1.148,4.509-.647-.15-1.3-.286-.775-2.56-1.532-5.1l-.018,0q.078,2.415.157,4.829-.8-.147-1.61-.272Q309.3,123,309.214,119.817Z" transform="translate(-276.994 -119.135)" fill="#fff"/>
            <path id="패스_1718" data-name="패스 1718" d="M321.862,123.127q.825.288,1.643.6,1.359,3.652,2.75,7.373-.845-.366-1.7-.7-.231-.652-.461-1.3-1.094-.424-2.2-.8-.166.505-.335,1.012-.853-.285-1.712-.544Q320.884,125.924,321.862,123.127Zm.341,4.058q.716.251,1.426.52-.417-1.255-.831-2.5l-.018-.007Q322.494,126.188,322.2,127.185Z" transform="translate(-279.504 -119.917)" fill="#fff"/>
          </g>
        </g>
        <g id="그룹_187" data-name="그룹 187" transform="translate(94.75 233.833)">
          <circle id="타원_51" data-name="타원 51" cx="3.406" cy="3.406" r="3.406" transform="translate(1.003 1.003)" fill="#f89f00"/>
          <circle id="타원_52" data-name="타원 52" cx="3.406" cy="3.406" r="3.406" fill="#fcce03"/>
        </g>
        <g id="그룹_188" data-name="그룹 188" transform="translate(94.75 264.775)">
          <circle id="타원_53" data-name="타원 53" cx="3.406" cy="3.406" r="3.406" transform="translate(1.003 1.003)" fill="#f89f00"/>
          <circle id="타원_54" data-name="타원 54" cx="3.406" cy="3.406" r="3.406" fill="#fcce03"/>
        </g>
      </g>
    </g>
    <path id="합치기_1" data-name="합치기 1" d="M-4003.668-1335q-.973,0-1.938-.027l.039.027H-4079l27.735-19.639a67.3,67.3,0,0,1-19.9-47.86,67.5,67.5,0,0,1,67.5-67.5H-3865.5a67.5,67.5,0,0,1,67.5,67.5,67.5,67.5,0,0,1-67.5,67.5Z" transform="translate(4438 1807)" fill="#fff"/>
    <text id="퍼주맨의_서비스를_통해_더욱_완벽한_시공을_받으세요_" data-name="퍼주맨의 서비스를 통해
더욱 완벽한 시공을 받으세요!" transform="translate(503 398)" fill="#707070" font-size="20" font-family="SpoqaHanSans-Bold, SpoqaHanSans" letter-spacing="-0.02em" font-weight="700"><tspan x="-94.31" y="0">퍼주맨의 서비스</tspan><tspan y="0" font-family="SpoqaHanSans-Regular, SpoqaHanSans" font-weight="400">를 통해</tspan><tspan font-family="SpoqaHanSans-Regular, SpoqaHanSans" font-weight="400"><tspan x="-117.35" y="29">더욱 완벽한 시공을 받으세요!</tspan></tspan></text>
  </g>
</svg>
