<svg xmlns="http://www.w3.org/2000/svg" width="77.663" height="77.663" viewBox="0 0 77.663 77.663">
  <g id="그룹_191" data-name="그룹 191" transform="translate(-1130 -585)">
    <circle id="타원_56" data-name="타원 56" cx="38.832" cy="38.832" r="38.832" transform="translate(1130 585)" fill="#ffce00"/>
    <g id="그룹_190" data-name="그룹 190" transform="translate(1148.239 605.011)">
      <path id="패스_1719" data-name="패스 1719" d="M1202.185,633.594V621.508a1.666,1.666,0,0,0-2.872-1.149l-8.87,9.306-7.52-9.989a1.665,1.665,0,0,0-2.661,0l-7.52,9.989-8.87-9.306a1.666,1.666,0,0,0-2.872,1.149V642.2h41.185v-8.6Zm-20.593-.022,2.87,1.657v3.315l-2.87,1.657-2.871-1.657v-3.315Z" transform="translate(-1161 -619.011)" fill="#fff"/>
      <path id="패스_1720" data-name="패스 1720" d="M1202.185,676.133v-6.9h-9.394V666.61h9.394v-3.859H1161v3.859h9.394v2.619H1161v6.9Zm-15.412-9.523v2.619h-10.361V666.61Z" transform="translate(-1161 -637.016)" fill="#fff"/>
    </g>
  </g>
</svg>
