<svg xmlns="http://www.w3.org/2000/svg" viewBox="0 0 94 75.35789"><defs><style>.cls-1{fill:none;}.cls-1,.cls-2,.cls-3,.cls-4,.cls-5{stroke:#3c3c3c;stroke-linecap:round;stroke-linejoin:round;stroke-width:2px;}.cls-2{fill:#5e5e5e;}.cls-3{fill:#ffce00;}.cls-4{fill:#ff4c29;}.cls-5{fill:#61c427;}</style></defs><title>icon_07</title><g id="레이어_2" data-name="레이어 2"><g id="레이어_1-2" data-name="레이어 1"><path class="cls-1" d="M13.26665,25.37193h7.586a0,0,0,0,1,0,0V49.90526a0,0,0,0,1,0,0h-7.586A12.26665,12.26665,0,0,1,1,37.63861v0A12.26665,12.26665,0,0,1,13.26665,25.37193Z"/><path class="cls-1" d="M85.414,25.37193H93a0,0,0,0,1,0,0V49.90526a0,0,0,0,1,0,0H85.414A12.26665,12.26665,0,0,1,73.14737,37.63861v0A12.26665,12.26665,0,0,1,85.414,25.37193Z" transform="translate(166.14737 75.27719) rotate(180)"/><circle class="cls-2" cx="47" cy="37.67895" r="36.67895"/><circle class="cls-3" cx="47" cy="37.67895" r="33.01105"/><path class="cls-4" d="M47.32281,21.94165V13.44109a4.12435,4.12435,0,0,0-4.80349-4.07065,28.49747,28.49747,0,0,0-7.52653,2.3763,4.1163,4.1163,0,0,0-1.57344,6.076l4.87741,6.9657a4.10909,4.10909,0,0,0,4.79178,1.50939q.547-.204,1.11789-.35593A4.15178,4.15178,0,0,0,47.32281,21.94165Z"/><path class="cls-4" d="M38.298,24.79021,33.4237,17.829a4.11963,4.11963,0,0,0-6.25967-.58873,28.81772,28.81772,0,0,0-4.80045,6.2445,4.12154,4.12154,0,0,0,2.18321,5.90443l7.94407,2.8914a4.16173,4.16173,0,0,0,4.84471-1.506,12.18573,12.18573,0,0,1,.75213-.97538A4.1,4.1,0,0,0,38.298,24.79021Z"/><path class="cls-4" d="M35.18094,37.679q0-.57756.05306-1.14171a4.11439,4.11439,0,0,0-2.69777-4.24018l-7.99016-2.90818A4.121,4.121,0,0,0,19.07871,32.508,28.86185,28.86185,0,0,0,18.614,37.679q0,1.33356.12,2.63685a4.13332,4.13332,0,0,0,5.17934,3.6357l8.21052-2.2A4.14776,4.14776,0,0,0,35.181,37.71155Z"/><path class="cls-4" d="M57.47512,25.57986,62.902,19.11239a4.11921,4.11921,0,0,0-1.04576-6.19532,28.51741,28.51741,0,0,0-9.70851-3.543,4.12945,4.12945,0,0,0-4.82491,4.06706V21.942a4.133,4.133,0,0,0,3.09246,3.993,12.04981,12.04981,0,0,1,2.09809.76584A4.16888,4.16888,0,0,0,57.47512,25.57986Z"/><path class="cls-4" d="M62.48,33.6176l8.25536-2.212a4.1224,4.1224,0,0,0,2.689-5.693,28.727,28.727,0,0,0-4.241-6.6411,4.119,4.119,0,0,0-6.28413.04427l-5.46268,6.51015a4.101,4.101,0,0,0-.22541,5.00906,12.14782,12.14782,0,0,1,.6575,1.02664A4.09586,4.09586,0,0,0,62.48,33.6176Z"/><path class="cls-4" d="M70.73227,31.4064l-8.21052,2.2a4.14779,4.14779,0,0,0-3.05712,4.03994l.00005.03261q0,.57755-.05306,1.14171a4.11436,4.11436,0,0,0,2.69777,4.24018L70.09954,45.969a4.121,4.121,0,0,0,5.46737-3.11915,28.86277,28.86277,0,0,0,.46474-5.17091q0-1.33357-.12-2.63686A4.13331,4.13331,0,0,0,70.73227,31.4064Z"/><path class="cls-4" d="M32.16565,41.74029l-8.25536,2.212a4.12239,4.12239,0,0,0-2.689,5.693,28.72692,28.72692,0,0,0,4.241,6.64109,4.119,4.119,0,0,0,6.28413-.04427L37.20909,49.732A4.10092,4.10092,0,0,0,37.4345,44.723a12.14772,12.14772,0,0,1-.65749-1.02664A4.09588,4.09588,0,0,0,32.16565,41.74029Z"/><path class="cls-4" d="M47.32281,53.41624v8.50057a4.12434,4.12434,0,0,0,4.80348,4.07064,28.4977,28.4977,0,0,0,7.52653-2.37629,4.11631,4.11631,0,0,0,1.57344-6.076l-4.87741-6.9657a4.10912,4.10912,0,0,0-4.7918-1.50939q-.547.204-1.11788.35594A4.15174,4.15174,0,0,0,47.32281,53.41624Z"/><path class="cls-4" d="M56.34756,50.56762,61.22191,57.529a4.11964,4.11964,0,0,0,6.25968.58872A28.81762,28.81762,0,0,0,72.282,51.87318a4.12154,4.12154,0,0,0-2.18321-5.90443l-7.94406-2.8914a4.16177,4.16177,0,0,0-4.84474,1.506,12.18789,12.18789,0,0,1-.75213.97537A4.1,4.1,0,0,0,56.34756,50.56762Z"/><path class="cls-4" d="M37.1705,49.778,31.74363,56.2455a4.11919,4.11919,0,0,0,1.04577,6.19531,28.51774,28.51774,0,0,0,9.70849,3.54305,4.12946,4.12946,0,0,0,4.82492-4.06706V53.41586a4.133,4.133,0,0,0-3.09246-3.993,12.05114,12.05114,0,0,1-2.09809-.76584A4.16887,4.16887,0,0,0,37.1705,49.778Z"/><path class="cls-4" d="M46.4806,35.83812V27.33756a4.12434,4.12434,0,0,0-4.80349-4.07064,28.49782,28.49782,0,0,0-7.52653,2.37629,4.11631,4.11631,0,0,0-1.57344,6.076l4.87741,6.96569a4.10909,4.10909,0,0,0,4.79178,1.5094q.547-.204,1.11789-.35594A4.15176,4.15176,0,0,0,46.4806,35.83812Z"/><path class="cls-4" d="M48.87531,36.2334,57.14648,34.272a4.12435,4.12435,0,0,0,2.85244-5.61313,28.49755,28.49755,0,0,0-4.04886-6.77513,4.1163,4.1163,0,0,0-6.27509-.129l-5.6523,6.35306a4.10911,4.10911,0,0,0-.363,5.01076q.32472.48516.60427,1.00559A4.15179,4.15179,0,0,0,48.87531,36.2334Z"/><path class="cls-4" d="M46.457,40.79493l5.03127,6.8517a4.12433,4.12433,0,0,0,6.28106.438,28.49728,28.49728,0,0,0,4.66015-6.37013,4.1163,4.1163,0,0,0-2.328-5.82871l-8.05416-2.72774a4.10911,4.10911,0,0,0-4.7557,1.61952q-.32015.48818-.69038.94854A4.15178,4.15178,0,0,0,46.457,40.79493Z"/><path class="cls-4" d="M36.97243,32.76645l-7.12384,4.63793a4.12434,4.12434,0,0,0-.79059,6.24648,28.49739,28.49739,0,0,0,6.09793,5.01106,4.11631,4.11631,0,0,0,5.95043-1.99647l3.17643-7.888a4.1091,4.1091,0,0,0-1.34947-4.83926q-.46939-.3471-.90821-.74264A4.15176,4.15176,0,0,0,36.97243,32.76645Z"/><path class="cls-4" d="M41.44244,39.65229,39.58622,47.9477A4.12435,4.12435,0,0,0,43.3849,52.969a28.49774,28.49774,0,0,0,7.86379-.67542,4.1163,4.1163,0,0,0,2.86225-5.58578L50.8723,38.84518a4.1091,4.1091,0,0,0-4.34654-2.51933q-.57834.07963-1.16863.10324A4.15178,4.15178,0,0,0,41.44244,39.65229Z"/><rect class="cls-5" x="31.51791" y="47.25998" width="4.35789" height="7.75854" transform="translate(-21.96398 76.68474) rotate(-81.27089)"/><rect class="cls-5" x="23.92007" y="37.50404" width="4.35789" height="6.41982" transform="translate(-16.86037 18.50415) rotate(-30)"/><rect class="cls-5" x="62.73334" y="45.54419" width="4.35789" height="9.62352" transform="translate(145.41021 33.94222) rotate(130.67257)"/><rect class="cls-5" x="43.59068" y="44.86149" width="4.35789" height="6.7595" transform="translate(-19.58815 60.50652) rotate(-57.13471)"/><rect class="cls-5" x="54.6149" y="17.03018" width="4.35789" height="7.75854" transform="translate(106.74962 -13.25439) rotate(125.4206)"/><rect class="cls-5" x="61.0781" y="31.07235" width="4.35789" height="6.41982" transform="translate(128.38716 64.85667) rotate(176.69149)"/><rect class="cls-5" x="33.63716" y="21.66018" width="4.35789" height="9.62352" transform="translate(-7.42942 15.82386) rotate(-22.63594)"/><rect class="cls-5" x="42.52688" y="31.48193" width="4.35789" height="6.7595" transform="translate(100.91201 42.2653) rotate(149.55677)"/></g></g></svg>