<svg xmlns="http://www.w3.org/2000/svg" viewBox="0 0 74 62.45283"><defs><style>.cls-1,.cls-5{fill:#fff;}.cls-1,.cls-2,.cls-3,.cls-4,.cls-5,.cls-6{stroke:#3c3c3c;stroke-linejoin:round;stroke-width:2px;}.cls-2{fill:#ff624d;}.cls-3{fill:none;}.cls-3,.cls-5,.cls-6{stroke-linecap:round;}.cls-4{fill:#636363;}.cls-6{fill:#ffe6bb;}</style></defs><title>icon_03</title><g id="레이어_2" data-name="레이어 2"><g id="레이어_1-2" data-name="레이어 1"><rect class="cls-1" x="4.72447" y="4.95249" width="66.12827" height="38.05495" rx="19.02745" ry="19.02745"/><path class="cls-2" d="M2.5772,20.02749v0C2.5772,9.51888,11.64932,1,22.84034,1H52.73686C63.92788,1,73,9.51888,73,20.02745v0Z"/><path class="cls-3" d="M22.98443,9.10664S24.3065,3.9685,31.61415,1.03488"/><path class="cls-3" d="M33.47374,9.10664s1.32207-5.13814,8.62972-8.07176"/><path class="cls-3" d="M43.96305,9.10664s1.32208-5.13814,8.62972-8.07176"/><rect class="cls-4" x="30.41568" y="1" width="12.7696" height="41.95724"/><line class="cls-5" x1="13.99762" y1="25.019" x2="16.04988" y2="27.07126"/><line class="cls-3" x1="23.4228" y1="30.79572" x2="21.97862" y2="32.2399"/><line class="cls-3" x1="51.09026" y1="32.61995" x2="53.21853" y2="34.74822"/><line class="cls-3" x1="59.45131" y1="26.38717" x2="58.15914" y2="27.67933"/><rect class="cls-6" x="1" y="43.26128" width="71.60095" height="8.20903"/><rect class="cls-6" x="8.10236" y="51.51887" width="12.39623" height="9.93396"/><rect class="cls-6" x="53.10236" y="51.51887" width="12.39623" height="9.93396"/></g></g></svg>