<?xml version="1.0" encoding="utf-8"?>
<!-- Generator: Adobe Illustrator 22.1.0, SVG Export Plug-In . SVG Version: 6.00 Build 0)  -->
<svg version="1.1" id="레이어_1" xmlns="http://www.w3.org/2000/svg" xmlns:xlink="http://www.w3.org/1999/xlink" x="0px"
	 y="0px" viewBox="0 0 27 27" style="enable-background:new 0 0 27 27;" xml:space="preserve">
<style type="text/css">
	.st0{fill:#DF4900;}
	.st1{enable-background:new    ;}
	.st2{fill:#FFFFFF;}
</style>
<circle id="타원_1" class="st0" cx="13.5" cy="13.5" r="13.5"/>
<g class="st1">
	<path class="st2" d="M12.3,16c-0.1-0.7,0-1.3,0.1-1.7c0.1-0.5,0.3-0.9,0.5-1.2c0.2-0.3,0.4-0.6,0.7-0.8c0.3-0.2,0.5-0.5,0.7-0.7
		c0.2-0.2,0.4-0.5,0.6-0.7c0.2-0.3,0.2-0.6,0.2-1c0-0.5-0.1-0.9-0.4-1.2c-0.2-0.3-0.6-0.5-1.2-0.5c-0.5,0-1,0.2-1.3,0.6
		C12,9,11.8,9.6,11.7,10.4H9.3c0.1-0.8,0.2-1.5,0.5-2.1c0.3-0.6,0.6-1,1-1.4s0.9-0.6,1.4-0.7C12.7,6,13.2,6,13.7,6
		c0.6,0,1.1,0.1,1.6,0.3c0.5,0.2,0.9,0.4,1.3,0.7s0.6,0.7,0.8,1.1c0.2,0.4,0.3,0.9,0.3,1.5c0,0.7-0.1,1.2-0.2,1.6
		c-0.2,0.4-0.4,0.7-0.6,1c-0.2,0.3-0.5,0.5-0.8,0.7c-0.3,0.2-0.5,0.4-0.8,0.7c-0.2,0.2-0.4,0.5-0.6,0.9s-0.2,0.8-0.2,1.4H12.3z
		 M13.4,21c-0.5,0-0.9-0.2-1.2-0.5c-0.3-0.3-0.5-0.8-0.5-1.3s0.2-1,0.5-1.3c0.3-0.3,0.7-0.5,1.2-0.5c0.5,0,0.9,0.2,1.3,0.5
		c0.3,0.3,0.5,0.8,0.5,1.3s-0.2,1-0.5,1.3C14.3,20.8,13.9,21,13.4,21z"/>
</g>
</svg>
