<svg xmlns="http://www.w3.org/2000/svg" width="42.141" height="41.544" viewBox="0 0 42.141 41.544">
    <defs>
        <style>
            .cls-1,.cls-2{fill:none;stroke-linecap:round;stroke-width:2px}.cls-1{stroke:#bfc9d1;stroke-linejoin:round}.cls-2{stroke:#80c0ff;stroke-miterlimit:10}.cls-3{fill:#80c0ff}
        </style>
    </defs>
    <g id="icon_btn_estimate_off" transform="translate(-1.868 .132)">
        <g id="레이어_1" data-name="레이어 1" transform="translate(2)">
            <path id="사각형_323" d="M0 0h3v19H0z" class="cls-1" data-name="사각형 323" transform="rotate(45 10.248 45.25)"/>
            <path id="패스_2448" d="M36.766 8.482L34.645 6.36l2.828-4.242 3.536 3.535z" class="cls-1" data-name="패스 2448"/>
            <path id="패스_2449" d="M25.452 23.331L22.624 20.5 19.8 17.674 16.574 20.9a3.487 3.487 0 0 1-3.457 3.457l-9.232 9.227a4 4 0 1 0 5.657 5.657l9.232-9.232a3.487 3.487 0 0 1 3.457-3.457z" class="cls-1" data-name="패스 2449"/>
            <path id="선_53" d="M7.071 0L0 7.071" class="cls-2" data-name="선 53" transform="translate(7.421 28.634)"/>
            <path id="패스_2450" d="M21.653 27.184L32.72 38.9a4.373 4.373 0 1 0 6.18-6.18L25.338 19.91" class="cls-1" data-name="패스 2450"/>
            <path id="패스_2451" d="M22.971 17.674l-4.608-4.352A9 9 0 0 0 6.61 1.66l4.69 4.686a1.667 1.667 0 0 1 0 2.357L8.7 11.3a1.667 1.667 0 0 1-2.357 0L1.66 6.61a9 9 0 0 0 11.662 11.753l2.928 3.1" class="cls-1" data-name="패스 2451"/>
            <circle id="타원_317" cx="1.5" cy="1.5" r="1.5" class="cls-3" data-name="타원 317" transform="translate(33.602 33.602)"/>
        </g>
    </g>
</svg>
