<svg xmlns="http://www.w3.org/2000/svg" viewBox="0 0 94 75.35789"><defs><style>.cls-1{fill:none;}.cls-1,.cls-2,.cls-3,.cls-4,.cls-5{stroke:#3c3c3c;stroke-linecap:round;stroke-linejoin:round;stroke-width:2px;}.cls-2{fill:#5e5e5e;}.cls-3{fill:#ff4c29;}.cls-4{fill:#c19e61;}.cls-5{fill:#61c427;}</style></defs><title>icon_08</title><g id="레이어_2" data-name="레이어 2"><g id="레이어_1-2" data-name="레이어 1"><path class="cls-1" d="M13.26665,25.37193h7.586a0,0,0,0,1,0,0V49.90526a0,0,0,0,1,0,0h-7.586A12.26665,12.26665,0,0,1,1,37.63861v0A12.26665,12.26665,0,0,1,13.26665,25.37193Z"/><path class="cls-1" d="M85.414,25.37193H93a0,0,0,0,1,0,0V49.90526a0,0,0,0,1,0,0H85.414A12.26665,12.26665,0,0,1,73.14737,37.63861v0A12.26665,12.26665,0,0,1,85.414,25.37193Z" transform="translate(166.14737 75.27719) rotate(180)"/><circle class="cls-2" cx="47" cy="37.67895" r="36.67895"/><circle class="cls-3" cx="47" cy="37.67895" r="33.01105"/><path class="cls-4" d="M46.757,9.19223A28.355,28.355,0,0,0,29.83708,14.941a4.47371,4.47371,0,0,0-.83135,6.2911l1.4816,1.92843a4.49786,4.49786,0,0,0,6.22864.8646A17.09335,17.09335,0,1,1,29.90735,37.679q0-.07778.0007-.15539a3.43211,3.43211,0,0,0-2.45835-3.32792L23.356,32.98907a3.75971,3.75971,0,0,0-4.817,3.45025q-.02657.61648-.02667,1.2396A28.48773,28.48773,0,1,0,46.757,9.19223Z"/><path class="cls-4" d="M58.133,44.37535l-6.00584-2.47049a2.80066,2.80066,0,0,0-2.50138.17917,5.12819,5.12819,0,1,1,1.17748-7.84419,2.795,2.795,0,0,0,3.23537.64305l5.45127-2.49677a3.24225,3.24225,0,0,0,1.23974-4.8885,17.09358,17.09358,0,1,0-1.52274,22.14452A3.23937,3.23937,0,0,0,58.133,44.37535Z"/><line class="cls-1" x1="19.35965" y1="39.73684" x2="23.87895" y2="40.70526"/><line class="cls-1" x1="20.16667" y1="45.06316" x2="23.23333" y2="45.22456"/><line class="cls-1" x1="29.20526" y1="49.90526" x2="32.75614" y2="48.12982"/><line class="cls-1" x1="33.24035" y1="52.81053" x2="35.01579" y2="51.35789"/><line class="cls-1" x1="39.53509" y1="54.10175" x2="36.95263" y2="57.65263"/><line class="cls-1" x1="50.83333" y1="61.52632" x2="52.12456" y2="65.07719"/><line class="cls-1" x1="56.96667" y1="61.20351" x2="58.4193" y2="63.30175"/><line class="cls-1" x1="60.19474" y1="56.3614" x2="62.45439" y2="60.55789"/><line class="cls-1" x1="40.1807" y1="32.95789" x2="42.60175" y2="33.60351"/><line class="cls-1" x1="39.05088" y1="38.12281" x2="40.82632" y2="37.8"/><line class="cls-1" x1="41.14912" y1="42.80351" x2="43.40877" y2="41.99649"/><line class="cls-1" x1="51.47895" y1="17.30175" x2="51.15614" y2="20.69123"/><line class="cls-1" x1="57.28947" y1="20.69123" x2="55.99825" y2="22.62807"/><line class="cls-1" x1="61.48596" y1="24.24211" x2="59.54912" y2="25.21053"/><line class="cls-1" x1="40.50351" y1="10.3614" x2="41.47193" y2="12.29825"/><line class="cls-1" x1="35.3386" y1="11.81404" x2="36.79123" y2="14.39649"/><line class="cls-1" x1="32.43333" y1="14.23509" x2="33.56316" y2="16.17193"/><line class="cls-1" x1="69.87895" y1="29.89123" x2="73.42982" y2="29.08421"/><line class="cls-1" x1="72.1386" y1="34.24912" x2="74.72105" y2="34.24912"/><line class="cls-1" x1="63.90702" y1="43.12632" x2="66.65088" y2="43.44912"/><line class="cls-1" x1="64.39123" y1="38.44561" x2="66.32807" y2="38.60702"/><rect class="cls-5" x="24.053" y="31.44244" width="4.35789" height="7.75854" transform="translate(-14.14644 17.84818) rotate(-30)"/><rect class="cls-5" x="29.69025" y="23.94615" width="4.35789" height="6.41982" transform="translate(-9.30837 19.57282) rotate(-30)"/><rect class="cls-5" x="39.74994" y="38.87436" width="4.35789" height="6.02872" transform="matrix(0.76687, 0.6418, -0.6418, 0.76687, 36.65915, -17.14454)"/><rect class="cls-5" x="69.47193" y="29.08103" width="4.35789" height="9.62352" transform="translate(38.45644 -38.08428) rotate(39.92635)"/><rect class="cls-5" x="51.45911" y="29.36675" width="4.35789" height="6.7595" transform="translate(-2.97486 60.02932) rotate(-57.13471)"/><rect class="cls-5" x="60.66927" y="45.1297" width="4.35789" height="4.18702" transform="matrix(-0.5, -0.86603, 0.86603, -0.5, 53.37582, 125.26296)"/></g></g></svg>