<svg xmlns="http://www.w3.org/2000/svg" viewBox="0 0 80 80"><defs><style>.cls-1{fill:#a0d866;}.cls-1,.cls-10,.cls-2,.cls-3,.cls-4,.cls-5,.cls-6,.cls-7,.cls-8,.cls-9{stroke:#3c3c3c;stroke-linecap:round;stroke-linejoin:round;stroke-width:2px;}.cls-2{fill:#fcff92;}.cls-3{fill:#ffb05a;}.cls-4{fill:#ff9017;}.cls-5{fill:#61c427;}.cls-6{fill:#ff4c29;}.cls-7{fill:#9b622f;}.cls-8{fill:#fff6e3;}.cls-9{fill:#fff;}.cls-10{fill:#ffce00;}</style></defs><title>icon_01</title><g id="레이어_2" data-name="레이어 2"><g id="레이어_1-2" data-name="레이어 1"><rect class="cls-1" x="31.24752" y="5.80528" width="4.46205" height="32.77888"/><rect class="cls-1" x="35.59516" y="5.80528" width="4.46205" height="32.77888"/><rect class="cls-1" x="39.94279" y="5.80528" width="4.46205" height="32.77888"/><rect class="cls-1" x="44.29043" y="5.80528" width="4.46205" height="32.77888"/><rect class="cls-1" x="22.60462" y="12.4198" width="4.46205" height="32.77888" transform="translate(-11.87303 18.84658) rotate(-34.05209)"/><rect class="cls-1" x="26.20676" y="9.98536" width="4.46205" height="32.77888" transform="translate(-9.89221 20.44615) rotate(-34.05209)"/><rect class="cls-1" x="29.8089" y="7.55092" width="4.46205" height="32.77888" transform="translate(-7.91139 22.04572) rotate(-34.05209)"/><rect class="cls-1" x="33.41105" y="5.11647" width="4.46205" height="32.77888" transform="translate(-5.93057 23.64529) rotate(-34.05209)"/><rect class="cls-2" x="19.14751" y="22.73968" width="4.46205" height="32.77888" transform="translate(-22.90044 44.37344) rotate(-68.10418)"/><rect class="cls-2" x="20.76883" y="18.70567" width="4.46205" height="32.77888" transform="translate(-18.14073 43.34816) rotate(-68.10418)"/><rect class="cls-2" x="22.39015" y="14.67166" width="4.46205" height="32.77888" transform="translate(-13.38102 42.32288) rotate(-68.10418)"/><rect class="cls-2" x="24.01147" y="10.63765" width="4.46205" height="32.77888" transform="translate(-8.62131 41.29759) rotate(-68.10418)"/><rect class="cls-3" x="22.74824" y="33.2258" width="4.46205" height="32.77888" transform="translate(-18.26335 84.48231) rotate(-102.15627)"/><rect class="cls-3" x="21.83272" y="28.97566" width="4.46205" height="32.77888" transform="translate(-15.21682 78.44218) rotate(-102.15627)"/><rect class="cls-3" x="20.9172" y="24.72551" width="4.46205" height="32.77888" transform="translate(-12.17028 72.40205) rotate(-102.15627)"/><rect class="cls-3" x="20.00168" y="20.47536" width="4.46205" height="32.77888" transform="translate(-9.12374 66.36192) rotate(-102.15627)"/><rect class="cls-4" x="30.34798" y="40.28203" width="4.46205" height="32.77888" transform="translate(16.87773 120.1263) rotate(-136.20836)"/><rect class="cls-4" x="27.20959" y="37.2733" width="4.46205" height="32.77888" transform="translate(13.55601 112.77381) rotate(-136.20836)"/><rect class="cls-4" x="24.0712" y="34.26457" width="4.46205" height="32.77888" transform="translate(10.23429 105.42131) rotate(-136.20836)"/><rect class="cls-4" x="20.93281" y="31.25584" width="4.46205" height="32.77888" transform="translate(6.91258 98.06882) rotate(-136.20836)"/><rect class="cls-5" x="41.16445" y="41.48847" width="4.46205" height="32.77888" transform="translate(76.37431 122.26283) rotate(-170.26046)"/><rect class="cls-5" x="36.87948" y="40.75299" width="4.46205" height="32.77888" transform="translate(67.99055 120.07757) rotate(-170.26046)"/><rect class="cls-5" x="32.59451" y="40.0175" width="4.46205" height="32.77888" transform="translate(59.60678 117.8923) rotate(-170.26046)"/><rect class="cls-5" x="28.30954" y="39.28201" width="4.46205" height="32.77888" transform="translate(51.22302 115.70704) rotate(-170.26046)"/><rect class="cls-6" x="50.80176" y="36.43141" width="4.46205" height="32.77888" transform="translate(123.10934 79.12284) rotate(155.68745)"/><rect class="cls-6" x="46.83971" y="38.22139" width="4.46205" height="32.77888" transform="translate(116.27357 84.17529) rotate(155.68745)"/><rect class="cls-6" x="42.87765" y="40.01137" width="4.46205" height="32.77888" transform="translate(109.4378 89.22774) rotate(155.68745)"/><rect class="cls-6" x="38.91559" y="41.80135" width="4.46205" height="32.77888" transform="translate(102.60203 94.28019) rotate(155.68745)"/><rect class="cls-7" x="55.95486" y="26.8451" width="4.46205" height="32.77888" transform="translate(125.51509 16.3719) rotate(121.63536)"/><rect class="cls-7" x="53.67448" y="30.5467" width="4.46205" height="32.77888" transform="matrix(-0.52451, 0.8514, -0.8514, -0.52451, 125.19016, 23.95654)"/><rect class="cls-7" x="51.39409" y="34.24829" width="4.46205" height="32.77888" transform="translate(124.86524 31.54119) rotate(121.63536)"/><rect class="cls-7" x="49.11371" y="37.94988" width="4.46205" height="32.77888" transform="translate(124.54031 39.12583) rotate(121.63536)"/><rect class="cls-2" x="54.85654" y="16.01712" width="4.46205" height="32.77888" transform="translate(87.05806 -25.99673) rotate(87.58327)"/><rect class="cls-2" x="55.03987" y="20.36088" width="4.46205" height="32.77888" transform="matrix(0.04217, 0.99911, -0.99911, 0.04217, 91.57356, -22.01929)"/><rect class="cls-2" x="55.22319" y="24.70465" width="4.46205" height="32.77888" transform="translate(96.08906 -18.04185) rotate(87.58327)"/><rect class="cls-2" x="55.40652" y="29.04842" width="4.46205" height="32.77888" transform="translate(100.60457 -14.06442) rotate(87.58327)"/><rect class="cls-4" x="47.88345" y="7.66082" width="4.46205" height="32.77888" transform="translate(39.66792 -30.54594) rotate(53.53118)"/><rect class="cls-4" x="50.46762" y="11.1571" width="4.46205" height="32.77888" transform="translate(43.52774 -31.20594) rotate(53.53118)"/><rect class="cls-4" x="53.05179" y="14.65339" width="4.46205" height="32.77888" transform="translate(47.38756 -31.86593) rotate(53.53118)"/><rect class="cls-4" x="55.63596" y="18.14967" width="4.46205" height="32.77888" transform="translate(51.24738 -32.52593) rotate(53.53118)"/><rect class="cls-1" x="37.42697" y="4.64194" width="4.46205" height="32.77888" transform="translate(9.28308 -12.0207) rotate(19.47909)"/><rect class="cls-1" x="41.52576" y="6.09172" width="4.46205" height="32.77888" transform="translate(10.00112 -13.30451) rotate(19.47909)"/><rect class="cls-1" x="45.62455" y="7.54149" width="4.46205" height="32.77888" transform="translate(10.71917 -14.58832) rotate(19.47909)"/><rect class="cls-1" x="49.72334" y="8.99126" width="4.46205" height="32.77888" transform="translate(11.43722 -15.87214) rotate(19.47909)"/><path class="cls-8" d="M40,1A39,39,0,1,0,79,40,39,39,0,0,0,40,1Zm0,72.55116A33.55116,33.55116,0,1,1,73.55116,40,33.55117,33.55117,0,0,1,40,73.55116Z"/><path class="cls-9" d="M41.93069,23.73927c-5.67672-.73532-10.38284.08581-14.33,4.033s-7.89439,6.17822-10.21122,8.66666-3.0033,7.9802,4.11881,11.67,13.64357,10.38284,19.9934,9.52475,20.42244-7.89439,19.39274-18.0198S58.49175,25.88449,41.93069,23.73927Z"/><circle class="cls-10" cx="43.73267" cy="39.9571" r="8.23762"/></g></g></svg>