<svg xmlns="http://www.w3.org/2000/svg" viewBox="0 0 66 76"><defs><style>.cls-1,.cls-2{fill:none;stroke-linecap:round;stroke-width:3px;}.cls-1{stroke:#bfc9d1;stroke-linejoin:round;}.cls-2{stroke:#80c0ff;stroke-miterlimit:10;}</style></defs><title>icon_02_1</title><g id="레이어_2" data-name="레이어 2"><g id="레이어_1-2" data-name="레이어 1"><rect class="cls-1" x="1.5" y="1.5" width="63" height="73" rx="3" ry="3"/><path class="cls-1" d="M16.5,1.5h33a0,0,0,0,1,0,0V7.33333A5.16667,5.16667,0,0,1,44.33333,12.5H21.66667A5.16667,5.16667,0,0,1,16.5,7.33333V1.5A0,0,0,0,1,16.5,1.5Z"/><line class="cls-2" x1="14" y1="37" x2="22" y2="37"/><line class="cls-2" x1="29" y1="37" x2="52" y2="37"/><line class="cls-2" x1="14" y1="47" x2="22" y2="47"/><line class="cls-2" x1="29" y1="47" x2="52" y2="47"/><line class="cls-2" x1="14" y1="57" x2="22" y2="57"/><line class="cls-2" x1="29" y1="57" x2="52" y2="57"/></g></g></svg>