<svg xmlns="http://www.w3.org/2000/svg" viewBox="0 0 89 55.87997"><defs><style>.cls-1{fill:#fff3d9;}.cls-1,.cls-2,.cls-3,.cls-5{stroke:#3c3c3c;stroke-width:2px;}.cls-1,.cls-2{stroke-miterlimit:10;}.cls-2,.cls-3,.cls-5{fill:none;}.cls-2,.cls-5{stroke-linecap:round;}.cls-3,.cls-5{stroke-linejoin:round;}.cls-4{fill:#ff7189;}</style></defs><title>icon_05</title><g id="레이어_2" data-name="레이어 2"><g id="레이어_1-2" data-name="레이어 1"><path class="cls-1" d="M32.00116,42.69643V7.281a2.42157,2.42157,0,0,1,2.42157-2.42157h0A2.42157,2.42157,0,0,1,36.8443,7.281V42.69643"/><path class="cls-1" d="M36.8443,42.69643V7.281a2.42157,2.42157,0,0,1,2.42157-2.42157h0A2.42157,2.42157,0,0,1,41.68745,7.281V42.69643"/><path class="cls-1" d="M41.68745,42.69643V7.281A2.42156,2.42156,0,0,1,44.109,4.85938h0A2.42157,2.42157,0,0,1,46.53059,7.281V42.69643"/><line class="cls-2" x1="29.95796" y1="1" x2="47.28733" y2="1"/><path class="cls-2" d="M87.84865,5.23775H63.9363a13.56153,13.56153,0,0,1-7.00174-1.97284A15.757,15.757,0,0,0,48.79528,1H46.68194V14.62134h2.11334a15.757,15.757,0,0,0,8.13928-2.26491,13.56153,13.56153,0,0,1,7.00174-1.97284H87.84865Z"/><path class="cls-3" d="M18.07712,42.77211H88a0,0,0,0,1,0,0v0A12.10785,12.10785,0,0,1,75.89215,54.88H30.185A12.10785,12.10785,0,0,1,18.07712,42.77212v0a0,0,0,0,1,0,0Z"/><path class="cls-1" d="M55.46013,38.9884H81.94608a3.7837,3.7837,0,0,1,3.7837,3.7837v0a0,0,0,0,1,0,0H51.67643a0,0,0,0,1,0,0v0a3.7837,3.7837,0,0,1,3.7837-3.7837Z"/><rect class="cls-1" x="54.55204" y="34.75065" width="28.30212" height="4.23775" rx="2.11887" ry="2.11887"/><path class="cls-1" d="M61.51406,49.58278a2.27025,2.27025,0,0,1-2.27022-2.27023V42.59741a8.51893,8.51893,0,0,1,2.18317-5.6995l4.00526-4.46123a8.5428,8.5428,0,0,1,6.3482-2.83187h3.27926a2.27023,2.27023,0,0,1,0,4.54045H71.78047A3.99643,3.99643,0,0,0,68.81085,35.47l-4.00526,4.46122a3.98494,3.98494,0,0,0-1.0213,2.66619v4.71514A2.27025,2.27025,0,0,1,61.51406,49.58278Z"/><line class="cls-2" x1="29.95796" y1="5.54045" x2="32.22818" y2="5.54045"/><line class="cls-2" x1="29.95796" y1="10.08089" x2="31.83336" y2="10.08089"/><line class="cls-2" x1="29.95796" y1="14.62134" x2="31.73466" y2="14.62134"/><path class="cls-4" d="M20.22122,18.178a9.6106,9.6106,0,0,1-9.6106,9.6106h0A9.6106,9.6106,0,0,1,1,18.178Z"/><path class="cls-5" d="M1,1H20.22122a0,0,0,0,1,0,0V18.178a9.6106,9.6106,0,0,1-9.6106,9.6106h0A9.6106,9.6106,0,0,1,1,18.178V1A0,0,0,0,1,1,1Z"/><line class="cls-2" x1="10.61061" y1="27.78863" x2="10.61061" y2="50.18817"/><line class="cls-2" x1="4.93505" y1="50.18817" x2="16.28617" y2="50.18817"/></g></g></svg>