<svg xmlns="http://www.w3.org/2000/svg" viewBox="0 0 249 228.19256"><defs><style>.cls-1{fill:#fff;}</style></defs><title>icon_main_logo</title><g id="레이어_2" data-name="레이어 2"><g id="레이어_1-2" data-name="레이어 1"><path class="cls-1" d="M0,153.72639H16.435a18.34289,18.34289,0,0,1,4.77538.60586,11.14617,11.14617,0,0,1,3.9755,1.93942,9.40994,9.40994,0,0,1,2.73929,3.49047,11.8901,11.8901,0,0,1,1.01838,5.11506q0,6.20628-3.273,9.06606-3.27162,2.86113-9.23556,2.86046H9.01772v11.53849H0Zm9.01772,16.09569h6.05993a5.62019,5.62019,0,0,0,3.53915-1.018,3.91861,3.91861,0,0,0,1.309-3.29681,4.23521,4.23521,0,0,0-1.33356-3.44214,5.29915,5.29915,0,0,0-3.51464-1.115H9.01772Z"/><path class="cls-1" d="M34.17913,153.72639H61.76532V160.95H43.19685v6.06026H60.16558v6.9813H43.19685v6.59362H62.25v7.757H34.17913Z"/><path class="cls-1" d="M68.35893,153.72639H86.00636a18.07642,18.07642,0,0,1,4.533.55752,12.10763,12.10763,0,0,1,3.87816,1.74541,8.53871,8.53871,0,0,1,2.71546,3.05413,9.21835,9.21835,0,0,1,.99319,4.38769,10.17947,10.17947,0,0,1-1.40572,5.28456,7.84512,7.84512,0,0,1-4.02383,3.39348v.097a4.90831,4.90831,0,0,1,2.2546,1.13956,6.38527,6.38527,0,0,1,1.50238,2.01191,12.61749,12.61749,0,0,1,.87271,2.44827,15.9087,15.9087,0,0,1,.41252,2.69062l.04834.582q.097,1.55208.14567,2.23009.047.67955.21784,1.76958a17.232,17.232,0,0,0,.41185,1.96358,2.86025,2.86025,0,0,0,.63036,1.26039H90.27254a4.71868,4.71868,0,0,1-.63036-1.96359q-.194-1.33254-.339-2.98163-.049-.533-.049-.58169a21.98456,21.98456,0,0,0-.31518-2.78761,7.46753,7.46753,0,0,0-.75086-2.13343,4.03641,4.03641,0,0,0-1.50306-1.57557,4.75091,4.75091,0,0,0-2.47244-.58169h-6.836v12.60521H68.35893Zm9.01773,15.02931h7.563q4.16917,0,4.16951-4.07251a3.24239,3.24239,0,0,0-1.28523-2.78762,5.37706,5.37706,0,0,0-3.2723-.94554h-7.175Z"/><path class="cls-1" d="M102.39238,180.97289l17.7441-19.4895H103.45842v-7.757h28.31321v6.9813l-18.18044,19.87752H132.402v7.757H102.39238Z"/><path class="cls-1" d="M167.55117,174.04026q0,7.61184-3.66032,11.32032-3.66066,3.70866-11.41732,3.709-7.75734,0-11.41732-3.709-3.66169-3.70866-3.66033-11.32032V153.72639h9.01773v20.84689a7.71373,7.71373,0,0,0,1.40572,5.09055q1.405,1.64908,4.6542,1.64841,3.24711,0,4.6542-1.64841a7.71762,7.71762,0,0,0,1.40572-5.09055V153.72639h9.01772Z"/><path class="cls-1" d="M171.67235,153.72639h13.28391l5.96325,23.07733h.09667l5.96326-23.07733h13.2839v34.61582h-8.484V162.06508H201.682l-7.27232,26.27713h-6.88429l-7.27231-26.27713h-.09667v26.27713h-8.484Z"/><path class="cls-1" d="M226.89238,153.72639h9.16272L249,188.34221h-9.40574l-2.13275-6.2056H225.38932l-2.18177,6.2056h-9.26006Zm.58135,21.7196h7.85435l-3.82983-12.12019h-.09735Z"/><path class="cls-1" d="M39.46709,219.861q.70253-.05,1.39279-.11267.69027-.06279,1.34241-.13819l.20082,2.40913q-1.7318.30123-3.55072.47686-1.81962.17563-3.6011.276-1.78183.10057-3.47585.12525-1.694.02553-3.17427.02519l-.35126-2.68517h2.53438V209.698H28.87755v-2.63513H41.625V209.698H39.46709Zm-5.49559.30122q.58305-.02451,1.15453-.03744c.37985-.00851.76515-.02927,1.15385-.063V209.698H33.9715Zm13.77676-15.1321v23.13723H44.43579V216.09688H40.99807v-2.68517h3.43772v-8.38157Z"/><path class="cls-1" d="M63.23162,217.75311q-1.3305.25119-2.823.40164-1.49286.15061-2.97346.22566-1.48163.07557-2.86114.10041-1.38054.02553-2.484.02519l-.32675-2.68517H53.5706v-6.39893H52.13969v-2.66032h10.565v2.66032H61.19894v6.0977q.50238-.04951.95371-.08781.45133-.03728.90334-.08782Zm-7.7039,2.43432H71.71361v7.97994H68.42633v-5.37H55.52772Zm1.00409-4.41662q.42581-.025.853-.02519.4258,0,.853-.02519v-6.29852H56.53181Zm7.7039-4.743V205.3814H67.297v13.75191H64.23571v-5.42037H62.12747v-2.68517Zm7.4779-5.99763v14.20358H68.602V205.03014Z"/><path class="cls-1" d="M96.457,222.79737v2.68483H75.52778v-2.68483Zm-2.2335-3.23724H77.98728V206.71156H94.04791v2.66H81.35012v2.43431H93.521v2.55958H81.35012v2.58475H94.22354Z"/><path class="cls-1" d="M123.208,220.43828h-8.85843v7.75428h-3.31247v-7.75428h-8.708v-2.63479H123.208Zm-19.90067-6.54971a14.17425,14.17425,0,0,0,3.11233-.72771,9.395,9.395,0,0,0,2.2832-1.17938,5.69957,5.69957,0,0,0,1.45541-1.49319,4.18208,4.18208,0,0,0,.65283-1.64364h-6.65012v-2.63514h17.1396v2.63514h-6.55006a4.27687,4.27687,0,0,0,.6399,1.64364,5.51738,5.51738,0,0,0,1.44316,1.49319,9.45093,9.45093,0,0,0,2.27094,1.17938,13.9321,13.9321,0,0,0,3.09939.72771l-1.17971,2.58476a13.91371,13.91371,0,0,1-5.11915-1.64364,8.5359,8.5359,0,0,1-3.13683-2.999,8.53594,8.53594,0,0,1-3.13684,2.999,13.9136,13.9136,0,0,1-5.11914,1.64364Z"/><path class="cls-1" d="M137.63686,217.35182H126.57012V206.51074h3.26277v2.8608h4.54188v-2.8608h3.26209Zm-1.12934,1.80667a15.96583,15.96583,0,0,1,3.24984.30123,8.24722,8.24722,0,0,1,2.4595.89075,4.58284,4.58284,0,0,1,1.56842,1.43056,3.52658,3.52658,0,0,1,0,3.789,4.47136,4.47136,0,0,1-1.56842,1.418,8.73369,8.73369,0,0,1-2.4595.89075,16.98417,16.98417,0,0,1-6.49968,0,8.72883,8.72883,0,0,1-2.45882-.89075,4.3472,4.3472,0,0,1-1.55616-1.418,3.59807,3.59807,0,0,1,0-3.789,4.45361,4.45361,0,0,1,1.55616-1.43056,8.24268,8.24268,0,0,1,2.45882-.89075A15.97063,15.97063,0,0,1,136.50752,219.15849Zm-2.13275-7.25223h-4.54188v2.8608h4.54188Zm2.13275,13.70154a9.27506,9.27506,0,0,0,3.388-.47686,1.49462,1.49462,0,0,0,0-2.91083,9.29,9.29,0,0,0-3.388-.47686,9.1915,9.1915,0,0,0-3.36216.47686,1.49462,1.49462,0,0,0,0,2.91083A9.17665,9.17665,0,0,0,136.50752,225.6078Zm10.6406-15.18214v2.71h-3.06195v5.52078H140.7737V205.05532h3.31247v5.37034Z"/><path class="cls-1" d="M154.87721,207.21326h11.04156v15.30808H154.87721Zm3.26209,12.69813H162.656V209.82321H158.1393Zm17.49086-3.43806h-3.36284v11.66919h-3.31247v-23.0872h3.31247v8.68281h3.36284Z"/><path class="cls-1" d="M198.69217,222.64659v2.68517H177.76291v-2.68517Zm-2.13275-3.965a12.80641,12.80641,0,0,1-5.18245-2.18313,10.78189,10.78189,0,0,1-3.275-3.78932,10.93651,10.93651,0,0,1-3.26209,3.80192,12.35371,12.35371,0,0,1-5.16952,2.17053l-1.405-2.76039a11.01574,11.01574,0,0,0,3.46291-1.14194,10.12818,10.12818,0,0,0,2.53439-1.89449,7.68533,7.68533,0,0,0,1.55616-2.33391,6.435,6.435,0,0,0,.52689-2.50953v-1.65624h3.53847v1.65624a6.49508,6.49508,0,0,0,.52689,2.53472,7.687,7.687,0,0,0,1.55549,2.33391,9.89342,9.89342,0,0,0,2.53506,1.8819,11.21478,11.21478,0,0,0,3.46291,1.12934Z"/><path class="cls-1" d="M205.69355,220.28784q2.33322-.025,4.34106-.13819a38.866,38.866,0,0,0,4.14092-.46426l.30089,2.66q-1.25494.20115-2.45882.31381-1.2049.11284-2.43432.17564-1.23043.06279-2.53438.08781-1.306.02553-2.76107.02519h-1.88156V206.96241h10.6903v2.66h-7.403v3.76448h6.62493v2.58475h-6.62493ZM220.75009,205.005v23.18761h-3.31246V215.82084H213.473v-2.66h3.96462V205.005Z"/><path class="cls-1" d="M73.16923,106.34251a10.18056,10.18056,0,0,0,10.16909,10.169h27.42131V91.73608H73.16923Zm26.94486-8.31242h4.27163v12.24535h-4.27163Z"/><path class="cls-1" d="M175.83077,105.51958V91.73608h-37.5904v24.77546h26.59845A11.00447,11.00447,0,0,0,175.83077,105.51958Zm-15.71854-3.645H155.8406V98.03009h4.27163Zm4.108-3.84445h4.27163v3.84445h-4.27163Z"/><path class="cls-1" d="M116.45513,116.51154h15.94733V91.73608H116.45513Zm5.86712-18.48145h4.27162v3.84445h-4.27162Z"/><rect class="cls-1" x="73.16923" y="72.65611" width="37.5904" height="13.24205"/><polygon class="cls-1" points="114.773 53.308 112.773 40.04 110.495 40.04 111.707 53.308 114.773 53.308"/><polygon class="cls-1" points="109.093 40.04 107.75 40.04 106.538 53.308 110.304 53.308 109.093 40.04"/><polygon class="cls-1" points="106.347 40.04 104.107 40.04 102.108 53.308 105.136 53.308 106.347 40.04"/><polygon class="cls-1" points="146.075 39.157 135.894 53.965 171.2 53.965 161.02 39.157 146.075 39.157"/><rect class="cls-1" x="147.42442" y="14.23875" width="12.24535" height="19.22237"/><path class="cls-1" d="M170.12186,0H78.87814A19.37814,19.37814,0,0,0,59.5,19.37814v91.24372A19.37814,19.37814,0,0,0,78.87814,130h91.24372A19.37814,19.37814,0,0,0,189.5,110.62186V19.37814A19.37814,19.37814,0,0,0,170.12186,0ZM98.40494,52.88854l2.03489-13.50386a3.58525,3.58525,0,0,1,3.56605-3.06893h2.63351a1.86033,1.86033,0,0,1-.061-.46553V18.62551a1.86213,1.86213,0,0,1,3.72426,0V35.85022a1.86033,1.86033,0,0,1-.061.46553h2.63351a3.58486,3.58486,0,0,1,3.56583,3.06893L118.476,52.88831a3.60658,3.60658,0,0,1-3.56628,4.14365H101.97122a3.60655,3.60655,0,0,1-3.56628-4.14342ZM80.6831,34.15425V18.62551a1.86213,1.86213,0,1,1,3.72426,0V34.11663a11.99073,11.99073,0,1,1-3.72426.03762Zm100.84318,71.36533A16.7063,16.7063,0,0,1,164.83882,122.207H83.33832a15.88247,15.88247,0,0,1-15.8646-15.86453V66.96061h48.98141v19.08h65.07115ZM125.06669,59.66047l16.66222-24.23606V8.54325h23.63636V35.42441l16.66234,24.23606Z"/><circle class="cls-1" cx="82.66161" cy="45.97556" r="8.26321"/></g></g></svg>