<svg xmlns="http://www.w3.org/2000/svg" viewBox="0 0 70 78.31861"><defs><style>.cls-1,.cls-4{fill:#fff;}.cls-2{fill:#3c3c3c;}.cls-3{fill:#823f1d;stroke-miterlimit:10;}.cls-3,.cls-4,.cls-5{stroke:#3c3c3c;stroke-width:2px;}.cls-4,.cls-5{stroke-linejoin:round;}.cls-5{fill:#00dd2a;}</style></defs><title>icon_02</title><g id="레이어_2" data-name="레이어 2"><g id="레이어_1-2" data-name="레이어 1"><path class="cls-1" d="M66.16748,16.15967a2.0067,2.0067,0,0,1-.21777-.02832L6.95508,4.87939a1.95668,1.95668,0,1,1,.73486-3.84375L66.67725,12.28613A1.95681,1.95681,0,0,1,66.311,16.165C66.28613,16.165,66.19189,16.16162,66.16748,16.15967Z"/><path class="cls-2" d="M7.32043,2a.95143.95143,0,0,1,.18055.01733L66.4895,13.26855a.95684.95684,0,0,1-.178,1.89673c-.02343,0-.04687-.001-.07055-.00268a.94912.94912,0,0,1-.10987-.01465L7.14258,3.89673A.95684.95684,0,0,1,7.32043,2m.00025-2a2.9568,2.9568,0,0,0-.55237,5.86133l58.988,11.25122a2.93781,2.93781,0,0,0,.33838.04468c.07165.00537.14428.00805.21679.00805a2.9568,2.9568,0,0,0,.55225-5.86132L7.87573.05273A2.97087,2.97087,0,0,0,7.32068,0Z"/><path class="cls-1" d="M6.59326,16.27979a1.95679,1.95679,0,1,1,0-3.91358H66.645a1.95679,1.95679,0,0,1,0,3.91358Z"/><path class="cls-2" d="M66.645,13.36621a.95667.95667,0,0,1,0,1.91333H6.593a.95667.95667,0,1,1,0-1.91333H66.645m0-2H6.593a2.95667,2.95667,0,1,0,0,5.91333H66.645a2.95667,2.95667,0,0,0,0-5.91333Z"/><circle class="cls-3" cx="51.92641" cy="51.41384" r="14.20346"/><circle class="cls-3" cx="51.92641" cy="51.41384" r="10.68194"/><circle class="cls-3" cx="51.92641" cy="51.41384" r="6.92566"/><ellipse class="cls-3" cx="35.44156" cy="52.11298" rx="17.80952" ry="17.77273"/><ellipse class="cls-3" cx="35.44156" cy="52.11298" rx="13.39394" ry="13.36627"/><ellipse class="cls-3" cx="35.44156" cy="52.11298" rx="8.68398" ry="8.66604"/><path class="cls-3" d="M14.54113,48.24934V13.80778a2.355,2.355,0,0,1,2.355-2.355h0a2.355,2.355,0,0,1,2.355,2.355V48.24934"/><path class="cls-3" d="M19.25108,48.24934V13.80778a2.355,2.355,0,0,1,2.355-2.355h0a2.355,2.355,0,0,1,2.355,2.355V48.24934"/><path class="cls-3" d="M23.961,48.24934V13.80778a2.355,2.355,0,0,1,2.355-2.355h0a2.355,2.355,0,0,1,2.355,2.355V48.24934"/><path class="cls-4" d="M1,48.32293H69a0,0,0,0,1,0,0v0A28.99564,28.99564,0,0,1,40.00436,77.31861H29.99564A28.99564,28.99564,0,0,1,1,48.323v0A0,0,0,0,1,1,48.32293Z"/><rect class="cls-5" x="26.90476" y="33.89869" width="5.44589" height="6.77056" rx="2.72294" ry="2.72294"/><rect class="cls-5" x="38.53247" y="33.89869" width="5.44589" height="6.77056" rx="2.72294" ry="2.72294"/><rect class="cls-5" x="50.16017" y="33.89869" width="5.44589" height="6.77056" rx="2.72294" ry="2.72294"/></g></g></svg>