<svg xmlns="http://www.w3.org/2000/svg" viewBox="0 0 94 58.9272"><defs><style>.cls-1{fill:#d3e9ea;}.cls-1,.cls-2,.cls-3,.cls-4{stroke:#3c3c3c;stroke-linecap:round;stroke-linejoin:round;stroke-width:2px;}.cls-2{fill:#fff6e3;}.cls-3{fill:#fc6;}.cls-4{fill:none;}</style></defs><title>icon_04</title><g id="레이어_2" data-name="레이어 2"><g id="레이어_1-2" data-name="레이어 1"><path class="cls-1" d="M26.14879,10.0992h.23875L27.97924,1H12.699l1.5917,9.09919h.23875A41.56477,41.56477,0,0,0,8.16263,32.43865V57.26644H32.51557V32.43865A41.56477,41.56477,0,0,0,26.14879,10.0992Z"/><polygon class="cls-1" points="12.938 57.266 1.318 57.266 1 41.668 13.256 41.668 12.938 57.266"/><circle class="cls-2" cx="32.75338" cy="49.90762" r="8.01958"/><circle class="cls-3" cx="48.6849" cy="49.90762" r="8.01958"/><circle class="cls-2" cx="64.61642" cy="49.90762" r="8.01958"/><line class="cls-4" x1="75.57815" y1="49.97675" x2="93" y2="49.97675"/><circle class="cls-3" cx="31.84482" cy="39.59853" r="8.01958"/><circle class="cls-2" cx="46.86758" cy="34.29477" r="8.01958"/><circle class="cls-3" cx="61.89034" cy="28.99101" r="8.01958"/><line class="cls-4" x1="72.24982" y1="25.40692" x2="88.6779" y2="19.60701"/></g></g></svg>