<svg xmlns="http://www.w3.org/2000/svg" width="28.328" height="28.328" viewBox="0 0 28.328 28.328"><g transform="translate(14 -383.84)"><path d="M12.878,395.03l-1.988-.337a11.24,11.24,0,0,0-.8-1.929l1.172-1.639a1.745,1.745,0,0,0-.189-2.255L9.31,387.107a1.738,1.738,0,0,0-1.237-.515,1.718,1.718,0,0,0-1.012.326l-1.645,1.172a11.1,11.1,0,0,0-2-.823L3.084,385.3a1.748,1.748,0,0,0-1.728-1.462H-1.135A1.748,1.748,0,0,0-2.863,385.3l-.343,2.012a10.942,10.942,0,0,0-1.923.811l-1.627-1.172a1.738,1.738,0,0,0-1.018-.325,1.726,1.726,0,0,0-1.237.515l-1.769,1.763a1.751,1.751,0,0,0-.189,2.255l1.184,1.663a10.941,10.941,0,0,0-.787,1.935l-1.965.331A1.748,1.748,0,0,0-14,396.818v2.491a1.748,1.748,0,0,0,1.462,1.728l2.012.343a10.958,10.958,0,0,0,.811,1.923l-1.166,1.621a1.745,1.745,0,0,0,.189,2.255l1.763,1.763a1.737,1.737,0,0,0,1.237.515,1.72,1.72,0,0,0,1.012-.325l1.663-1.184a11.193,11.193,0,0,0,1.87.769l.331,1.988a1.748,1.748,0,0,0,1.728,1.462h2.5a1.748,1.748,0,0,0,1.728-1.462l.337-1.988a11.21,11.21,0,0,0,1.929-.8l1.639,1.172A1.748,1.748,0,0,0,9.3,408.9l1.763-1.763a1.752,1.752,0,0,0,.189-2.255l-1.172-1.645a11.115,11.115,0,0,0,.8-1.929l1.988-.331a1.748,1.748,0,0,0,1.462-1.728v-2.491a1.727,1.727,0,0,0-1.45-1.728Zm-.136,4.219a.153.153,0,0,1-.13.154l-2.486.414a.794.794,0,0,0-.639.586,9.479,9.479,0,0,1-1.03,2.479.8.8,0,0,0,.035.87l1.462,2.059a.162.162,0,0,1-.018.2l-1.763,1.763a.151.151,0,0,1-.113.047.147.147,0,0,1-.089-.029l-2.053-1.462a.8.8,0,0,0-.87-.035,9.476,9.476,0,0,1-2.48,1.03.786.786,0,0,0-.586.639l-.42,2.486a.153.153,0,0,1-.154.13H-1.082a.153.153,0,0,1-.154-.13l-.414-2.486a.8.8,0,0,0-.586-.639,9.839,9.839,0,0,1-2.426-.994.82.82,0,0,0-.4-.106.78.78,0,0,0-.462.148L-7.6,407.848a.174.174,0,0,1-.089.03.159.159,0,0,1-.112-.047l-1.763-1.763a.16.16,0,0,1-.018-.2l1.456-2.042a.811.811,0,0,0,.036-.876,9.373,9.373,0,0,1-1.042-2.474.811.811,0,0,0-.639-.586l-2.5-.426a.153.153,0,0,1-.13-.154v-2.491a.153.153,0,0,1,.13-.154l2.468-.414a.8.8,0,0,0,.645-.592,9.456,9.456,0,0,1,1.012-2.486.79.79,0,0,0-.042-.864l-1.473-2.071a.161.161,0,0,1,.018-.2l1.763-1.763a.15.15,0,0,1,.112-.047.146.146,0,0,1,.089.03l2.041,1.456a.81.81,0,0,0,.876.036A9.388,9.388,0,0,1-2.289,388.7a.81.81,0,0,0,.586-.639l.426-2.5a.153.153,0,0,1,.154-.13H1.368a.153.153,0,0,1,.154.13l.414,2.468a.8.8,0,0,0,.592.645,9.607,9.607,0,0,1,2.539,1.042.8.8,0,0,0,.87-.035l2.042-1.468a.175.175,0,0,1,.089-.03.159.159,0,0,1,.112.047l1.763,1.763a.161.161,0,0,1,.018.2L8.5,392.249a.8.8,0,0,0-.036.87,9.475,9.475,0,0,1,1.03,2.479.785.785,0,0,0,.639.586l2.486.42a.154.154,0,0,1,.13.154v2.491Zm0,0" transform="translate(0 0)" fill="#9b9b9b"/><path d="M100.992,492.641a6.113,6.113,0,1,0,6.113,6.113,6.117,6.117,0,0,0-6.113-6.113Zm0,10.628a4.515,4.515,0,1,1,4.515-4.515,4.518,4.518,0,0,1-4.515,4.515Zm0,0" transform="translate(-100.825 -100.753)" fill="#9b9b9b"/></g></svg>