<svg id="icon_question" xmlns="http://www.w3.org/2000/svg" width="40" height="40" viewBox="0 0 40 40">
  <circle id="타원_1" cx="20" cy="20" r="20" fill="#007bd2"/>
  <g id="그룹_192" data-name="그룹 192" transform="translate(13.799 8.926)">
    <path id="패스_1721" data-name="패스 1721" d="M13.73,20.765a6.526,6.526,0,0,1,.148-2.51,4.928,4.928,0,0,1,.738-1.772A3.98,3.98,0,0,1,15.649,15.3a6.821,6.821,0,0,0,1.034-1.034c.3-.3.591-.738.886-1.034a2.428,2.428,0,0,0,.3-1.477,2.354,2.354,0,0,0-.591-1.772A2.014,2.014,0,0,0,15.5,9.248a2.381,2.381,0,0,0-1.919.886,4.828,4.828,0,0,0-.738,2.362H9.3a9.563,9.563,0,0,1,.738-3.1,7.411,7.411,0,0,1,1.477-2.067A3.937,3.937,0,0,1,13.582,6.3,5.739,5.739,0,0,1,15.8,6a6.121,6.121,0,0,1,2.362.443,7.955,7.955,0,0,1,1.919,1.034A4.188,4.188,0,0,1,21.26,9.1a4.931,4.931,0,0,1,.443,2.215,9.253,9.253,0,0,1-.3,2.362,12.985,12.985,0,0,1-.886,1.477,3.98,3.98,0,0,1-1.181,1.034,7.4,7.4,0,0,0-1.181,1.034,5.153,5.153,0,0,0-.886,1.329,4.379,4.379,0,0,0-.3,2.067H13.73Zm1.624,7.383a2.445,2.445,0,0,1-1.772-.738,2.864,2.864,0,0,1,0-3.839,2.445,2.445,0,0,1,1.772-.738,3.11,3.11,0,0,1,1.919.738,2.864,2.864,0,0,1,0,3.839A3.11,3.11,0,0,1,15.354,28.148Z" transform="translate(-9.3 -6)" fill="#fff"/>
  </g>
</svg>
