<svg xmlns="http://www.w3.org/2000/svg" viewBox="0 0 72 52.90904"><defs><style>.cls-1{fill:#fff3d9;stroke-miterlimit:10;}.cls-1,.cls-2,.cls-3{stroke:#3c3c3c;stroke-width:2px;}.cls-2{fill:#ff624d;}.cls-2,.cls-3{stroke-linejoin:round;}.cls-3{fill:none;stroke-linecap:round;}</style></defs><title>icon_06</title><g id="레이어_2" data-name="레이어 2"><g id="레이어_1-2" data-name="레이어 1"><path class="cls-1" d="M71,21.67978C70.9984,10.25842,58.17834,1,42.36383,1a37.036,37.036,0,0,0-14.5974,2.89886c-4.7718,2.05506-9.79408,3.43613-14.724,5.07569C5.89143,11.35217,1.00214,16.14427,1,21.67871v9.55162c.00214,5.53444,4.89143,10.32654,12.043,12.7047,4.92935,1.639,9.95163,3.02009,14.72343,5.07515A37.03791,37.03791,0,0,0,42.36383,51.909C58.17834,51.909,70.9984,42.65062,71,31.22926Z"/><path class="cls-2" d="M67.61461,23.89612A3.21135,3.21135,0,0,0,64.47008,20.091H55.091c-6.36383,0-6.0904,2.40486-6.0904,3.18191a2.89047,2.89047,0,0,0,.85129,2.05666c2.101,2.101,2.99179,4.156,3.36991,8.0146a2.99266,2.99266,0,0,0,4.36538,2.33116C62.97685,32.903,66.72487,28.70477,67.61461,23.89612Z"/><path class="cls-2" d="M42.36276,10.27925a34.3966,34.3966,0,0,0,6.89362,4.5005C54.47092,17.33736,61.89325,16.909,61.89325,16.909a2.71453,2.71453,0,0,0,1.92581-4.60838C59.8414,8.00737,53.22443,4.98033,45.54575,4.3181,39.18192,4.18192,39.18192,7.36383,42.36276,10.27925Z"/><path class="cls-2" d="M14.56176,13.69c-1.28441-.51369-3.1752.23307-5.20171,1.47728a16.53767,16.53767,0,0,0-7.821,14.4907c.0436,1.88965.07712,3.34709.07712,3.34709C.38329,36.84064,8.2237,42.62917,13.671,44.10092c.42059.1137-.82192-5.20548,3.56165-10.95891s7.26026-3.243,7.26026-6.84931C24.49326,22.50821,17.64433,14.92284,14.56176,13.69Z"/><path class="cls-2" d="M44.72276,23.13589a5.98088,5.98088,0,0,1,.70976-2.76108,3.19664,3.19664,0,0,0-1.21338-4.273A39.73041,39.73041,0,0,1,38.086,11.59544c-.13726-.1207-.43473-.40429-.82993-.78667a12.46872,12.46872,0,0,0-12.991-2.73117c-4.08714,1.152-3.94615,5.04364-2.08763,6.85783,5.10612,4.87221,6.115,12.6294,6.31416,17.74567a5.32283,5.32283,0,0,0,3.23,5.06447,35.31837,35.31837,0,0,0,9.54628,1.29936q.67452,0,1.33995-.02457a6.38685,6.38685,0,0,0,6.00281-7.74811,7.2136,7.2136,0,0,0-2.10419-3.82972A6.05382,6.05382,0,0,1,44.72276,23.13589Z"/><path class="cls-3" d="M42.36383,1A37.42981,37.42981,0,0,0,29.03429,3.384,150.84768,150.84768,0,0,1,14.64143,8.49336C6.62843,10.6579,1,15.74319,1,21.68192S6.62843,32.7054,14.64143,34.87047a150.99276,150.99276,0,0,1,14.39286,5.10879,37.42963,37.42963,0,0,0,13.32954,2.38457C58.17888,42.36383,71,33.10381,71,21.68192,71,10.25949,58.17888,1,42.36383,1Z"/></g></g></svg>