<svg xmlns="http://www.w3.org/2000/svg" viewBox="0 0 66 76"><defs><style>.cls-1{fill:none;stroke:#fff;stroke-linecap:round;stroke-linejoin:round;stroke-width:3px;}.cls-2{fill:#fff;}</style></defs><title>icon_01_1</title><g id="레이어_2" data-name="레이어 2"><g id="레이어_1-2" data-name="레이어 1"><rect class="cls-1" x="1.5" y="1.5" width="63" height="73" rx="3" ry="3"/><line class="cls-1" x1="1.5" y1="22" x2="64.5" y2="22"/><line class="cls-1" x1="22" y1="22" x2="22" y2="74"/><line class="cls-1" x1="43" y1="22" x2="43" y2="74"/><line class="cls-1" x1="2" y1="48.25" x2="43" y2="48.25"/><line class="cls-1" x1="48.75" y1="45" x2="58.75" y2="45"/><line class="cls-1" x1="27.5" y1="35" x2="37.5" y2="35"/><line class="cls-1" x1="7" y1="35" x2="17" y2="35"/><line class="cls-1" x1="12" y1="40" x2="12" y2="30"/><line class="cls-1" x1="8.46447" y1="57.46447" x2="15.53553" y2="64.53553"/><line class="cls-1" x1="8.46447" y1="64.53553" x2="15.53553" y2="57.46447"/><line class="cls-1" x1="48.75" y1="51" x2="58.75" y2="51"/><line class="cls-1" x1="28.96447" y1="64.28553" x2="36.03553" y2="57.21447"/><circle class="cls-2" cx="29.14124" cy="57.39124" r="2"/><circle class="cls-2" cx="35.85876" cy="64.10876" r="2"/></g></g></svg>