<?xml version="1.0" encoding="utf-8"?>
<!-- Generator: Adobe Illustrator 22.1.0, SVG Export Plug-In . SVG Version: 6.00 Build 0)  -->
<svg version="1.1" id="레이어_1" xmlns="http://www.w3.org/2000/svg" xmlns:xlink="http://www.w3.org/1999/xlink" x="0px"
	 y="0px" viewBox="0 0 285.8 84.5" style="enable-background:new 0 0 285.8 84.5;" xml:space="preserve">
<style type="text/css">
	.st0{opacity:0.15;}
	.st1{enable-background:new    ;}
	.st2{fill:#1385C8;}
</style>
<g id="그룹_43" transform="translate(7683.765 -2899.56)" class="st0">
	<g class="st1">
		<path class="st2" d="M-7683.8,2899.6h18.6c7.3,0,14.2,3.4,14.2,12.6c0,9.7-5.6,13.5-14.2,13.5h-8.4v13.1h-10.2V2899.6z
			 M-7673.5,2917.8h6.9c3.2,0,5.5-1.3,5.5-4.9c0-3.7-2.4-5.2-5.5-5.2h-6.9V2917.8z"/>
		<path class="st2" d="M-7645,2899.6h31.3v8.2h-21.1v6.9h19.2v7.9h-19.2v7.5h21.6v8.8h-31.8V2899.6z"/>
		<path class="st2" d="M-7606.2,2899.6h20c6.9,0,13.7,3.1,13.7,11.1c0,4.2-2,8.2-6.2,9.8v0.1c4.1,1,5.4,5.7,5.7,9.4
			c0.2,1.7,0.3,7.3,1.6,8.9h-10.1c-0.9-1.4-1-5.1-1.2-6.3c-0.3-4-0.9-8-5.7-8h-7.8v14.3h-10.2V2899.6z M-7596,2916.6h8.6
			c3.1,0,4.7-1.6,4.7-4.6c0-2.9-2.3-4.2-5.2-4.2h-8.1V2916.6z"/>
		<path class="st2" d="M-7567.6,2930.5l20.1-22.1h-18.9v-8.8h32.1v7.9l-20.6,22.5h21.3v8.8h-34V2930.5z"/>
		<path class="st2" d="M-7493.7,2922.6c0,11.4-5.2,17-17.1,17c-11.9,0-17.1-5.7-17.1-17v-23h10.2v23.6c0,5.1,1.8,7.6,6.9,7.6
			s6.9-2.6,6.9-7.6v-23.6h10.2V2922.6z"/>
		<path class="st2" d="M-7485.7,2899.6h15.1l6.8,26.2h0.1l6.8-26.2h15.1v39.3h-9.6V2909h-0.1l-8.2,29.8h-7.8l-8.2-29.8h-0.1v29.8
			h-9.6V2899.6z"/>
		<path class="st2" d="M-7423.1,2899.6h10.4l14.7,39.3h-10.7l-2.4-7h-13.7l-2.5,7h-10.5L-7423.1,2899.6z M-7422.4,2924.2h8.9
			l-4.3-13.7h-0.1L-7422.4,2924.2z"/>
	</g>
	<g class="st1">
		<path class="st2" d="M-7641.4,2974.8c0.5,0,1-0.1,1.6-0.1c0.5,0,1-0.1,1.5-0.2l0.2,2.7c-1.3,0.2-2.6,0.4-4,0.5s-2.7,0.2-4,0.3
			c-1.3,0.1-2.6,0.1-3.9,0.1c-1.3,0-2.4,0-3.5,0l-0.4-3h2.8v-11.8h-2.1v-2.9h14.2v2.9h-2.4V2974.8z M-7647.6,2975.1
			c0.4,0,0.9,0,1.3,0c0.4,0,0.9,0,1.3-0.1v-11.6h-2.6V2975.1z M-7632.2,2958.3v25.8h-3.7v-13.5h-3.8v-3h3.8v-9.4H-7632.2z"/>
		<path class="st2" d="M-7614.9,2972.4c-1,0.2-2,0.3-3.2,0.4c-1.1,0.1-2.2,0.2-3.3,0.3c-1.1,0.1-2.2,0.1-3.2,0.1c-1,0-2,0-2.8,0
			l-0.4-3h2v-7.1h-1.6v-3h11.8v3h-1.7v6.8c0.4,0,0.7-0.1,1.1-0.1c0.3,0,0.7-0.1,1-0.1L-7614.9,2972.4z M-7623.5,2975.2h18.1v8.9
			h-3.7v-6h-14.4V2975.2z M-7622.4,2970.2c0.3,0,0.6,0,1,0s0.6,0,1,0v-7h-1.9V2970.2z M-7613.8,2964.9v-6.3h3.4v15.3h-3.4v-6h-2.4
			v-3H-7613.8z M-7605.5,2958.3v15.8h-3.5v-15.8H-7605.5z"/>
		<path class="st2" d="M-7577.8,2978.1v3h-23.4v-3H-7577.8z M-7580.3,2974.5h-18.1v-14.3h17.9v3h-14.2v2.7h13.6v2.9h-13.6v2.9h14.4
			V2974.5z"/>
		<path class="st2" d="M-7544.6,2975.4h-9.9v8.7h-3.7v-8.7h-9.7v-2.9h23.3V2975.4z M-7566.8,2968.1c1.3-0.2,2.5-0.4,3.5-0.8
			c1-0.4,1.9-0.8,2.5-1.3c0.7-0.5,1.2-1.1,1.6-1.7c0.4-0.6,0.6-1.2,0.7-1.8h-7.4v-2.9h19.1v2.9h-7.3c0.1,0.6,0.3,1.2,0.7,1.8
			c0.4,0.6,0.9,1.2,1.6,1.7c0.7,0.5,1.5,0.9,2.5,1.3c1,0.4,2.2,0.6,3.5,0.8l-1.3,2.9c-2.3-0.3-4.2-0.9-5.7-1.8
			c-1.5-0.9-2.7-2-3.5-3.3c-0.8,1.3-2,2.4-3.5,3.3c-1.5,0.9-3.5,1.5-5.7,1.8L-7566.8,2968.1z"/>
		<path class="st2" d="M-7528.5,2972h-12.3v-12.1h3.6v3.2h5.1v-3.2h3.6V2972z M-7529.8,2974c1.3,0,2.6,0.1,3.6,0.3
			c1.1,0.2,2,0.6,2.7,1s1.3,1,1.8,1.6c0.4,0.6,0.6,1.3,0.6,2.1s-0.2,1.5-0.6,2.1s-1,1.2-1.8,1.6c-0.8,0.4-1.7,0.8-2.7,1
			s-2.3,0.3-3.6,0.3c-1.3,0-2.6-0.1-3.6-0.3c-1.1-0.2-2-0.6-2.7-1c-0.8-0.4-1.3-1-1.7-1.6s-0.6-1.3-0.6-2.1s0.2-1.5,0.6-2.1
			c0.4-0.6,1-1.2,1.7-1.6c0.8-0.4,1.7-0.8,2.7-1C-7532.4,2974.1-7531.1,2974-7529.8,2974z M-7532.2,2965.9h-5.1v3.2h5.1V2965.9z
			 M-7529.8,2981.2c1.7,0,2.9-0.2,3.8-0.5c0.9-0.4,1.3-0.9,1.3-1.6c0-0.7-0.4-1.3-1.3-1.6c-0.9-0.4-2.1-0.5-3.8-0.5
			c-1.6,0-2.9,0.2-3.8,0.5c-0.9,0.4-1.3,0.9-1.3,1.6c0,0.7,0.4,1.3,1.3,1.6C-7532.7,2981-7531.4,2981.2-7529.8,2981.2z
			 M-7517.9,2964.3v3h-3.4v6.2h-3.7v-15.2h3.7v6H-7517.9z"/>
		<path class="st2" d="M-7507.6,2960.7h12.3v17.1h-12.3V2960.7z M-7504,2974.9h5v-11.3h-5V2974.9z M-7484.5,2971h-3.8v13h-3.7v-25.8
			h3.7v9.7h3.8V2971z"/>
		<path class="st2" d="M-7458.7,2977.9v3h-23.4v-3H-7458.7z M-7461.1,2973.5c-2.3-0.4-4.2-1.3-5.8-2.4c-1.6-1.2-2.8-2.6-3.7-4.2
			c-0.8,1.6-2.1,3.1-3.6,4.2c-1.6,1.2-3.5,2-5.8,2.4l-1.6-3.1c1.5-0.2,2.7-0.7,3.9-1.3s2.1-1.3,2.8-2.1c0.8-0.8,1.3-1.7,1.7-2.6
			c0.4-0.9,0.6-1.9,0.6-2.8v-1.8h3.9v1.8c0,1,0.2,1.9,0.6,2.8c0.4,0.9,1,1.8,1.7,2.6s1.7,1.5,2.8,2.1c1.1,0.6,2.4,1,3.9,1.3
			L-7461.1,2973.5z"/>
		<path class="st2" d="M-7450.9,2975.3c1.7,0,3.4-0.1,4.8-0.2c1.5-0.1,3-0.3,4.6-0.5l0.3,3c-0.9,0.1-1.8,0.3-2.7,0.3
			c-0.9,0.1-1.8,0.1-2.7,0.2s-1.9,0.1-2.8,0.1s-2,0-3.1,0h-2.1v-17.8h11.9v3h-8.3v4.2h7.4v2.9h-7.4V2975.3z M-7434.1,2958.2v25.9
			h-3.7v-13.8h-4.4v-3h4.4v-9.1H-7434.1z"/>
	</g>
</g>
</svg>
