<svg xmlns="http://www.w3.org/2000/svg" width="76.922" height="76.922" viewBox="0 0 76.922 76.922"><g transform="translate(7916.43 -2042.499)"><path d="M-7699.7,2067.631h-13.986v15.906l-9.859,14.341h33.7l-9.859-14.341Zm-10.616,3.37h7.246v11.374h-7.246Zm14.068,23.506h-20.891l6.024-8.762h8.843Z" transform="translate(-154.086 -20.077)" fill="none"/><path d="M-7854.47,2250.772h-9.521v-11.29h-28.983v23.3a9.4,9.4,0,0,0,9.387,9.387h48.225a9.885,9.885,0,0,0,9.874-9.874v-11.526h-28.982Zm-12.891,18.03h-16.226a6.024,6.024,0,0,1-6.017-6.017v-8.643h22.243Zm0-18.114H-7889.6v-7.835h22.243Zm12.806,18.114h-9.436v-14.66h9.436Zm3.455-14.66h22.242v8.156a6.511,6.511,0,0,1-6.5,6.5H-7851.1Z" transform="translate(-18.739 -157.362)" fill="none"/><g transform="translate(-7908.342 2085.49)"><path d="M-7876.219,2321.008a6.024,6.024,0,0,0,6.017,6.017h16.226v-14.66h-22.243Z" transform="translate(7876.219 -2301.075)" fill="#008ed8"/><path d="M-7662.552,2320.521v-8.156h-22.242v14.66h15.738A6.511,6.511,0,0,0-7662.552,2320.521Z" transform="translate(7723.297 -2301.075)" fill="#008ed8"/><rect width="9.436" height="14.66" transform="translate(25.613 11.29)" fill="#008ed8"/><rect width="22.243" height="7.835" transform="translate(0 0)" fill="#008ed8"/></g><g transform="translate(-7871.227 2050.924)"><path d="M-7685.673,2157.689l-6.024,8.762h20.891l-6.024-8.762Z" transform="translate(7691.697 -2142.945)" fill="#008ed8"/><rect width="7.246" height="11.374" transform="translate(6.823 0)" fill="#008ed8"/></g><g transform="translate(-7891.219 2066.191)"><path d="M-7763.884,2168.138l-1.183-7.851h-1.348l.717,7.851Z" transform="translate(7771.377 -2160.287)" fill="#008ed8"/><path d="M-7775.828,2168.138l-.717-7.851h-.794l-.717,7.851Z" transform="translate(7780.677 -2160.287)" fill="#008ed8"/><path d="M-7788.579,2160.287h-1.325l-1.184,7.851h1.792Z" transform="translate(7791.088 -2160.287)" fill="#008ed8"/></g><path d="M-7854.47,2250.772h-9.521v-11.29h-28.983v23.3a9.4,9.4,0,0,0,9.387,9.387h48.225a9.885,9.885,0,0,0,9.874-9.874v-11.526h-28.982Z" transform="translate(-18.739 -157.362)" fill="none"/><path d="M-7799.965,2115.64h7.656a2.13,2.13,0,0,0,1.617-.742,2.13,2.13,0,0,0,.493-1.71l-1.2-7.99a2.122,2.122,0,0,0-2.11-1.816h-1.558a1.09,1.09,0,0,0,.036-.275v-10.192a1.1,1.1,0,0,0-1.1-1.1,1.1,1.1,0,0,0-1.1,1.1v10.192a1.09,1.09,0,0,0,.036.275h-1.558a2.122,2.122,0,0,0-2.11,1.816l-1.2,7.99a2.135,2.135,0,0,0,.493,1.71A2.133,2.133,0,0,0-7799.965,2115.64Z" transform="translate(-91.334 -39.395)" fill="none"/><path d="M-7876.466,2116.191a7.1,7.1,0,0,0,7.093-7.093,7.1,7.1,0,0,0-6.061-7.017v-9.166a1.1,1.1,0,0,0-1.1-1.1,1.1,1.1,0,0,0-1.1,1.1v9.188a7.1,7.1,0,0,0-5.922,6.995A7.1,7.1,0,0,0-7876.466,2116.191Zm0-11.982a4.895,4.895,0,0,1,4.89,4.889,4.895,4.895,0,0,1-4.89,4.889,4.895,4.895,0,0,1-4.89-4.889A4.895,4.895,0,0,1-7876.466,2104.209Z" transform="translate(-26.259 -39.395)" fill="none"/><path d="M-7699.7,2067.631h-13.986v15.906l-9.859,14.341h33.7l-9.859-14.341Z" transform="translate(-154.086 -20.077)" fill="none"/><path d="M-7850.974,2042.5h-53.99a11.466,11.466,0,0,0-11.466,11.466v53.99a11.466,11.466,0,0,0,11.466,11.466h53.99a11.466,11.466,0,0,0,11.466-11.466v-53.99A11.466,11.466,0,0,0-7850.974,2042.5Zm-42.436,31.295,1.2-7.99a2.122,2.122,0,0,1,2.11-1.816h1.558a1.089,1.089,0,0,1-.036-.275V2053.52a1.1,1.1,0,0,1,1.1-1.1,1.1,1.1,0,0,1,1.1,1.1v10.192a1.089,1.089,0,0,1-.036.275h1.558a2.122,2.122,0,0,1,2.11,1.816l1.2,7.99a2.13,2.13,0,0,1-.493,1.71,2.131,2.131,0,0,1-1.617.742h-7.656a2.133,2.133,0,0,1-1.618-.742A2.135,2.135,0,0,1-7893.41,2073.794Zm-10.486-11.085v-9.188a1.1,1.1,0,0,1,1.1-1.1,1.1,1.1,0,0,1,1.1,1.1v9.166a7.1,7.1,0,0,1,6.061,7.017,7.1,7.1,0,0,1-7.093,7.093,7.1,7.1,0,0,1-7.093-7.093A7.1,7.1,0,0,1-7903.9,2062.708Zm59.67,42.228a9.885,9.885,0,0,1-9.875,9.874h-48.225a9.4,9.4,0,0,1-9.387-9.387v-23.3h28.983v11.29h38.5Zm-33.408-27.135,9.859-14.341v-15.906h13.986v15.906l9.859,14.341Z" fill="#008ed8"/><circle cx="4.889" cy="4.889" r="4.889" transform="translate(-7907.615 2064.814)" fill="#008ed8"/></g></svg>