<svg xmlns="http://www.w3.org/2000/svg" width="164.645" height="23.37" viewBox="0 0 164.645 23.37">
  <g id="그룹_272" data-name="그룹 272" transform="translate(-1278.549 172.374)">
    <g id="그룹_271" data-name="그룹 271">
      <path id="패스_1846" data-name="패스 1846" d="M1278.549-172.374h10.867a12.116,12.116,0,0,1,3.157.4,7.372,7.372,0,0,1,2.629,1.282,6.212,6.212,0,0,1,1.811,2.308,7.859,7.859,0,0,1,.674,3.382q0,4.1-2.164,6a8.986,8.986,0,0,1-6.107,1.892h-4.905v7.629h-5.962Zm5.962,10.643h4.007a3.718,3.718,0,0,0,2.341-.673,2.591,2.591,0,0,0,.865-2.18,2.8,2.8,0,0,0-.882-2.276,3.506,3.506,0,0,0-2.324-.737h-4.007Z" fill="#007bd2"/>
      <path id="패스_1847" data-name="패스 1847" d="M1301.149-172.374h18.24v4.777h-12.278v4.007h11.221v4.616h-11.221v4.36h12.6v5.129h-18.561Z" fill="#007bd2"/>
      <path id="패스_1848" data-name="패스 1848" d="M1323.749-172.374h11.669a11.923,11.923,0,0,1,3,.369,8.018,8.018,0,0,1,2.565,1.154,5.646,5.646,0,0,1,1.8,2.019,6.1,6.1,0,0,1,.657,2.9,6.729,6.729,0,0,1-.93,3.494,5.188,5.188,0,0,1-2.66,2.244v.064a3.252,3.252,0,0,1,1.491.753,4.244,4.244,0,0,1,.993,1.331,8.322,8.322,0,0,1,.577,1.619,10.485,10.485,0,0,1,.273,1.779l.032.385q.064,1.026.1,1.474c.021.3.069.689.144,1.17a11.5,11.5,0,0,0,.272,1.3,1.9,1.9,0,0,0,.417.833h-5.9a3.117,3.117,0,0,1-.417-1.3q-.127-.882-.224-1.972c-.022-.235-.032-.363-.032-.384a14.668,14.668,0,0,0-.209-1.844,4.948,4.948,0,0,0-.5-1.41,2.669,2.669,0,0,0-.994-1.042,3.135,3.135,0,0,0-1.635-.385h-4.52v8.335h-5.963Zm5.963,9.938h5q2.757,0,2.757-2.693a2.145,2.145,0,0,0-.85-1.843,3.554,3.554,0,0,0-2.164-.625h-4.744Z" fill="#007bd2"/>
      <path id="패스_1849" data-name="패스 1849" d="M1346.253-154.358l11.733-12.887h-11.028v-5.129h18.721v4.616l-12.021,13.144H1366.1v5.129h-19.843Z" fill="#007bd2"/>
      <path id="패스_1850" data-name="패스 1850" d="M1389.337-158.942q0,5.034-2.42,7.486T1379.368-149q-5.13,0-7.55-2.452t-2.42-7.486v-13.432h5.963v13.785a5.1,5.1,0,0,0,.929,3.366,3.846,3.846,0,0,0,3.078,1.09,3.846,3.846,0,0,0,3.077-1.09,5.1,5.1,0,0,0,.93-3.366v-13.785h5.962Z" fill="#007bd2"/>
      <path id="패스_1851" data-name="패스 1851" d="M1392.062-172.374h8.784l3.943,15.26h.064l3.943-15.26h8.784v22.889h-5.61V-166.86h-.065l-4.808,17.375h-4.552l-4.809-17.375h-.064v17.375h-5.61Z" fill="#007bd2"/>
      <path id="패스_1852" data-name="패스 1852" d="M1428.575-172.374h6.059l8.559,22.889h-6.219l-1.41-4.1h-7.983l-1.442,4.1h-6.123Zm.385,14.362h5.193l-2.532-8.014h-.065Z" fill="#007bd2"/>
    </g>
  </g>
</svg>
