<svg xmlns="http://www.w3.org/2000/svg" viewBox="0 0 112.36938 113.25248"><defs><style>.cls-1,.cls-2{fill:none;stroke:#007bd2;stroke-linecap:round;stroke-width:3px;}.cls-1{stroke-linejoin:round;}.cls-3{isolation:isolate;}.cls-4{fill:#007bd2;}</style></defs><title>perzuman name</title><g id="레이어_2" data-name="레이어 2"><g id="레이어_1-2" data-name="레이어 1"><g id="perzuman_name" data-name="perzuman name"><path id="패스_1926" data-name="패스 1926" class="cls-1" d="M98.70166,89.79968l7.56158,10.789L97.696,111.75248"/><path id="패스_1927" data-name="패스 1927" class="cls-2" d="M58.39823,45.05466c-3.82341,44.02773,31.75523,55.77544,39.49411,56.35108"/><g id="나_퍼주맨_" data-name="나 퍼주맨 " class="cls-3"><g class="cls-3"><path class="cls-4" d="M2.74032,8.98767q-.18017.8291-.28759,1.72754-.10841.90087-.144,1.76464-.03662.86427,0,1.65528.03516.79248.10791,1.36816a9.806,9.806,0,0,0,2.68213-1.458,22.49192,22.49192,0,0,0,2.68164-2.28613,3.24525,3.24525,0,0,1,.63038-.55762.51459.51459,0,0,1,.59375-.01757.47583.47583,0,0,1,.03613.25195,2.778,2.778,0,0,1-.0542.50391,3.445,3.445,0,0,1-.17969.61132,1.96723,1.96723,0,0,1-.34228.57618,16.94637,16.94637,0,0,1-2.41211,2.70019,14.76917,14.76917,0,0,1-2.66358,1.87207,2.715,2.715,0,0,1-1.17041.36035,1.22928,1.22928,0,0,1-.98974-.36035A4.111,4.111,0,0,1,.22031,15.558a13.14291,13.14291,0,0,1-.21582-2.75391,15.82036,15.82036,0,0,1,.27-2.61035A15.24644,15.24644,0,0,1,.68857,8.44763a.97193.97193,0,0,1,.396-.54,1.42717,1.42717,0,0,1,.54-.17969,1.02015,1.02015,0,0,1,.86377.35938A.9713.9713,0,0,1,2.74032,8.98767Zm16.77637.90039q-1.15283.39551-2.124.71972-.97192.32373-2.23193.75586a1.97148,1.97148,0,0,1-.97217.1084,3.24216,3.24216,0,0,1-.86426-.25293,31.26257,31.26257,0,0,0,.36035,4.08692q.28785,1.74609.57568,3.11328a.81908.81908,0,0,1-.08984.59472.54111.54111,0,0,1-.62988.2334,2.10049,2.10049,0,0,1-.82813-.37793,1.63457,1.63457,0,0,1-.61181-.8457,16.47492,16.47492,0,0,1-.77393-2.96973,26.46085,26.46085,0,0,1-.34228-3.25879q-.07251-1.65526,0-3.23925.07178-1.585.252-2.95215a2.34416,2.34416,0,0,1,.36035-1.08008.67916.67916,0,0,1,.50391-.32422,1.15941,1.15941,0,0,1,1.15185.792,3.64737,3.64737,0,0,1,.252,1.69239c-.04834.52734-.08448,1.03222-.10792,1.51171q-.03662.72071-.07226,1.43946a14.13827,14.13827,0,0,1,2.75439-.98926,31.2834,31.2834,0,0,1,3.33008-.666q1.4751-.21679,1.51172.39551a1.02747,1.02747,0,0,1-.35986.918A2.50372,2.50372,0,0,1,19.51669,9.88806Z"/><path class="cls-4" d="M29.16415,10.932a10.76857,10.76857,0,0,1-1.00781,1.08008,11.43919,11.43919,0,0,0-.99023,1.044,4.40593,4.40593,0,0,0-.70166,1.15136,2.4709,2.4709,0,0,0-.1084,1.4043,1.4863,1.4863,0,0,1,.21631.77344.6478.6478,0,0,1-.28809.45019,1.00092,1.00092,0,0,1-1.2959-.32324,2.5227,2.5227,0,0,1-.59424-1.13476,3.56675,3.56675,0,0,1-.07177-1.332,4.45068,4.45068,0,0,1,.396-1.31347,4.07135,4.07135,0,0,1,.81006-1.15235q.50317-.50389,1.04395-1.06152A9.86431,9.86431,0,0,0,27.54452,9.348a4.95093,4.95093,0,0,0,.648-1.24219,2.69951,2.69951,0,0,0,.10791-1.31445.70852.70852,0,0,0-.28808-.4502,2.07092,2.07092,0,0,0-.64795-.32324,3.341,3.341,0,0,0-.88184-.14453,3.17908,3.17908,0,0,0-.99023.126,3.33675,3.33675,0,0,0-1.43994.88183,2.0709,2.0709,0,0,0-.648,1.35059q.25122.57569-.03614.792a.885.885,0,0,1-.522.17969.85757.85757,0,0,1-.48584-.14356,2.19355,2.19355,0,0,1-.73828-1.87207,3.674,3.674,0,0,1,.77393-1.83594,4.40346,4.40346,0,0,1,1.5664-1.31445,5.24393,5.24393,0,0,1,2.06983-.55762,5.1199,5.1199,0,0,1,2.646.48536,3.24233,3.24233,0,0,1,1.71,1.998,4.32042,4.32042,0,0,1,0,2.8086A7.89437,7.89437,0,0,1,29.16415,10.932ZM27.90439,22.09118a1.164,1.164,0,0,1-.144.90039,1.7268,1.7268,0,0,1-.666.61231,1.56659,1.56659,0,0,1-.86426.17969,1.08972,1.08972,0,0,1-.77392-.43165,1.04422,1.04422,0,0,1-.252-.57617,2.64136,2.64136,0,0,1,.01807-.68457,5.762,5.762,0,0,1,.144-.68359,2.19969,2.19969,0,0,0,.08985-.57617.57756.57756,0,0,1,.07226-.252.61765.61765,0,0,1,.19775-.23339.45279.45279,0,0,1,.27-.09083q.14356,0,.32422.2168.50391.39551,1.044.80957A1.10918,1.10918,0,0,1,27.90439,22.09118Z"/><path class="cls-4" d="M49.00009,7.25915q-1.15282.145-2.07031.23438-.91773.09081-1.76367.17968-.84669.09082-1.69239.19825-.84594.10839-1.854.28808a3.00443,3.00443,0,0,1-.936,0,.669.669,0,0,1-.54-.6123A1.36463,1.36463,0,0,1,40.252,6.7738a1.16187,1.16187,0,0,1,.89991-.666,22.31441,22.31441,0,0,1,3.54589-.68457,19.80432,19.80432,0,0,1,3.76221,0,1.862,1.862,0,0,1,1.062.37793A1.02089,1.02089,0,0,1,49.9,6.39587a.61749.61749,0,0,1-.23388.55762A1.36614,1.36614,0,0,1,49.00009,7.25915Zm-4.35644,8.89258q.07177.72071.09033,1.15234a.662.662,0,0,1-.37793.64746.68924.68924,0,0,1-.57617.08985,1.18827,1.18827,0,0,1-.4502-.28809,2.30023,2.30023,0,0,1-.3418-.43164,1.46386,1.46386,0,0,1-.18017-.37793,7.55366,7.55366,0,0,1-.43164-1.584,16.84244,16.84244,0,0,1-.19825-1.78223,15.26568,15.26568,0,0,1,0-1.81836,13.03991,13.03991,0,0,1,.19825-1.65527,1.71981,1.71981,0,0,1,.35986-.68457.80079.80079,0,0,1,.792-.28809.71158.71158,0,0,1,.43213.23438,1.48923,1.48923,0,0,1,.2876.48632,3.2282,3.2282,0,0,1,.16211.61133,1.91275,1.91275,0,0,1,.01806.57617q0,.57715.01807,1.24219.01758.66651.0542,1.34961.03516.68554.07178,1.332Q44.607,15.61218,44.64365,16.15173Zm4.896-4.28418q-.03588.72071-.14355,1.49414-.10841.7749-.25244,1.53027-.1443.75587-.30567,1.47559-.16187.72071-.30615,1.25977,1.15211-.64748,2.16016-1.332,1.00707-.68261,1.90771-1.332a3.32435,3.32435,0,0,1,.75635-.43164.68372.68372,0,0,1,.68359,0,.57587.57587,0,0,1,.19824.50391,2.02243,2.02243,0,0,1-.21582.73828,4.54284,4.54284,0,0,1-.54.8457,5.36438,5.36438,0,0,1-.77392.792q-.82911.72071-1.9624,1.53028a16.51767,16.51767,0,0,1-2.21387,1.34961,3.12968,3.12968,0,0,1-1.22412.39648,1.36466,1.36466,0,0,1-.86377-.18066,1.12407,1.12407,0,0,1-.4502-.666,1.9144,1.9144,0,0,1,.0542-1.06152q.14357-.54053.3418-1.44043.19774-.89942.396-1.90723.19775-1.0078.34228-1.998.14355-.99024.21582-1.7461a2.54987,2.54987,0,0,1,.32422-.93652.99438.99438,0,0,1,.75586-.50391.8686.8686,0,0,1,.59375.126.956.956,0,0,1,.34228.41406,2.02961,2.02961,0,0,1,.14405.5586A4.69776,4.69776,0,0,1,49.53964,11.86755Zm10.65625-6.876q0-1.043.8999-.93554a2.51354,2.51354,0,0,1,.88184.34179.69638.69638,0,0,1,.41406.666q.07178,2.23242.09033,4.41015.01758,2.17822-.0542,4.40918a.98073.98073,0,0,1-.43212.84668.8722.8722,0,0,1-.6836.2334,1.30153,1.30153,0,0,1-.90039-1.2959q-.03588-1.11474-.05371-2.28613-.019-1.169-.0542-2.32129-.75585.28858-1.63769.666-.88257.37793-1.78223.75586-.90015.37793-1.69189.7373-.79249.36036-1.36817.61231a1.41893,1.41893,0,0,1-.59375.08984,1.813,1.813,0,0,1-.57617-.126,1.19258,1.19258,0,0,1-.4502-.30566.61077.61077,0,0,1-.17968-.41406q.07177-.71924,1.332-1.36817c.35986-.167.81543-.37207,1.36767-.61132q.82764-.36036,1.76416-.75684.936-.39551,1.92578-.77344.99024-.37792,1.854-.70215-.0359-.46728-.05371-.918C60.20126,5.64587,60.19589,5.32751,60.19589,4.99157Z"/><path class="cls-4" d="M72.32724,2.75915a5.53756,5.53756,0,0,1-.50391,1.13477q-.32373.55811-.64795,1.13379a2.55811,2.55811,0,0,1,.666-.21582,5.56293,5.56293,0,0,1,1.16992-.03614,18.87746,18.87746,0,0,1,2.17822.21582,16.68861,16.68861,0,0,1,2.25.50391,13.50964,13.50964,0,0,1,1.94385.73828,2.81736,2.81736,0,0,1,1.188.918.86032.86032,0,0,1,.03613.54.71207.71207,0,0,1-.57617.32422,4.98443,4.98443,0,0,1-1.458-.05469q-.5581-.126-1.2959-.30566-.73827-.18018-1.92578-.37793a26.80858,26.80858,0,0,0-3.27636-.27051,5.53755,5.53755,0,0,0-.88184,0,1.002,1.002,0,0,1-.84619-.43164A6.83915,6.83915,0,0,0,69.33945,8.934a16.56118,16.56118,0,0,0-.32422,2.42968,1.00853,1.00853,0,0,1-.44971.77442,1.16431,1.16431,0,0,1-.73828.19726,1.01059,1.01059,0,0,1-.62988-.30566,1.46262,1.46262,0,0,1-.3418-.88184,7.674,7.674,0,0,1,.144-2.3584,12.08785,12.08785,0,0,1,.70166-2.17773,18.88994,18.88994,0,0,1,1.02637-2.03418q.57495-.99024,1.07959-1.92578a7.35606,7.35606,0,0,0-2.05176.64746,21.19206,21.19206,0,0,0-2.3042,1.22461,2.072,2.072,0,0,1-.82763.252.92786.92786,0,0,1-.72022-.21582,1.2575,1.2575,0,0,1-.35986-.666.80882.80882,0,0,1,.144-.666,5.36188,5.36188,0,0,1,.86377-.73828,10.3177,10.3177,0,0,1,1.314-.792q.73755-.37794,1.53028-.70215A11.14224,11.14224,0,0,1,68.90732.49157a4.46089,4.46089,0,0,1,1.2959-.1084,3.54236,3.54236,0,0,1,1.27832.28809,1.71171,1.71171,0,0,1,.82812.75586A1.73172,1.73172,0,0,1,72.32724,2.75915Zm2.8081,23.18457a.80834.80834,0,0,1-.666-.08984,1.15708,1.15708,0,0,1-.522-.48633,7.25411,7.25411,0,0,1-.43213-1.9082,21.99211,21.99211,0,0,1-.14405-2.57422q0-1.34913.09034-2.62793a14.02416,14.02416,0,0,1,.27-2.06934,1.75156,1.75156,0,0,1,.17968-.46875q-1.83545.397-3.59961.88281-1.76441.48488-3.38427.98926a1.55691,1.55691,0,0,1-1.188.03614,1.26506,1.26506,0,0,1-.57617-.75586.92291.92291,0,0,1,.18017-.88184,2.22572,2.22572,0,0,1,.97217-.666q1.25976-.46728,3.0957-.99023a36.46111,36.46111,0,0,1,3.85205-.86426,30.54159,30.54159,0,0,1,3.9961-.41308,12.11749,12.11749,0,0,1,3.49219.32324,1.144,1.144,0,0,1,.61181.37793.56946.56946,0,0,1,.144.52246.93559.93559,0,0,1-.25195.41406.99863.99863,0,0,1-.75586.2334q-1.26049,0-2.57422.12695-1.31469.126-2.68213.37793a1.57723,1.57723,0,0,1,.75635,1.65528q-.07251.68408-.126,1.6748-.05421.99024-.0542,2.06934,0,1.07958.03613,2.10644.03516,1.0254.10791,1.71a1.02643,1.02643,0,0,1-.18018.77344A1.30966,1.30966,0,0,1,75.13534,25.94372Z"/><path class="cls-4" d="M84.711,15.46716a.857.857,0,0,1-.08985.52246.76848.76848,0,0,1-.48584.3418,1.11461,1.11461,0,0,1-.90039-.16211,1.01222,1.01222,0,0,1-.46777-.62989,10.15022,10.15022,0,0,1-.27-1.56543q-.09009-.88183-.126-1.83593-.03661-.95361.01807-1.90821A14.23543,14.23543,0,0,1,82.587,8.48376a2.51351,2.51351,0,0,1,.396-.918.71069.71069,0,0,1,.792-.30664,1.00207,1.00207,0,0,1,.72022.46875,1.30774,1.30774,0,0,1,.144.97168q-.10839.936-.144,1.92578-.03663.99024-.01807,1.90821.01758.91845.08985,1.69238Q84.63877,14.99938,84.711,15.46716Zm1.22412-7.48731q.82764-.39551,1.81787-.75586a4.95784,4.95784,0,0,1,1.602-.36035,2.48528,2.48528,0,0,1,1.60205.50391A1.66042,1.66042,0,0,1,91.443,8.98767a6.87294,6.87294,0,0,1-.32373,1.43945,15.78788,15.78788,0,0,1-.59424,1.5127q-.342.75585-.70166,1.43945-.36034.68407-.64843,1.26074a8.49022,8.49022,0,0,0,1.42236-.39648q.66577-.252,1.458-.57618a2.99972,2.99972,0,0,1,.936-.21582.566.566,0,0,1,.648.36036,1.17909,1.17909,0,0,1-.126.93554,2.14763,2.14763,0,0,1-.918.90039,15.68558,15.68558,0,0,1-2.08838.97168,10.91908,10.91908,0,0,1-2.15967.54,1.86056,1.86056,0,0,1-.84619-.05371,2.04542,2.04542,0,0,1-.77393-.39648,1.29184,1.29184,0,0,1-.43213-.666,1.24615,1.24615,0,0,1,.10791-.86328q.252-.54053.61231-1.26074.35961-.71924.73779-1.51172.37792-.791.73828-1.62012A12.04546,12.04546,0,0,0,89.067,9.16735,10.18263,10.18263,0,0,0,87.71689,9.6q-.73829.28857-1.458.61133a.70417.70417,0,0,1-.8457-.126,1.40639,1.40639,0,0,1-.41407-.666,1.16945,1.16945,0,0,1,.126-.77344A1.67162,1.67162,0,0,1,85.93515,7.97985ZM97.419,13.70349q.07178,1.333-.936,1.51172a.533.533,0,0,1-.41406-.10743,1.932,1.932,0,0,1-.35987-.34179,1.87739,1.87739,0,0,1-.27-.4502,2.24947,2.24947,0,0,1-.144-.43262,18.53625,18.53625,0,0,1-.19775-2.06933q-.05419-1.17041-.01807-2.376.03516-1.20556.14405-2.3584a19.901,19.901,0,0,1,.28808-2.05175.8001.8001,0,0,1,.53955-.70215,2.8436,2.8436,0,0,1,.54-.126,1.24137,1.24137,0,0,1,1.0083.64844,1.70381,1.70381,0,0,1,.25195,1.0791c-.04834.33691-.08447.6543-.10791.9541q-.03661.45117-.07226.918a16.987,16.987,0,0,0,2.46631-.71973q1.13379-.43212,2.28564-.93554.14356-.50391.30615-.97266.16187-.46728.37793-.97168a1.3529,1.3529,0,0,1,1.2959-1.00781,1.20854,1.20854,0,0,1,.61231.37793q.28784.30615.07177,1.13379-.28857,1.2246-.46777,2.21386-.1809.99024-.27,1.94434-.09009.95361-.144,1.94434-.0542.99022-.126,2.21386a1.83684,1.83684,0,0,1-.23388.77344,1.06827,1.06827,0,0,1-.34229.41406.85567.85567,0,0,1-1.044-.26953,2.25024,2.25024,0,0,1-.43212-1.09863q-.10767-1.043-.144-2.124a13.00963,13.00963,0,0,1,.1084-2.15918q-1.11621.46728-2.26806.88183a15.3616,15.3616,0,0,1-2.26807.62988q-.07251,1.00782-.08985,1.90821A15.94068,15.94068,0,0,0,97.419,13.70349ZM98.89511,17.808a12.05825,12.05825,0,0,1-.27,1.92578,8.29579,8.29579,0,0,0-.19775,1.88965A17.02484,17.02484,0,0,0,101.523,20.598q1.404-.62988,2.66406-1.27832.53981-.252.72022.10742a.89964.89964,0,0,1,.03564.57617,2.698,2.698,0,0,1-.28808.75586,3.61708,3.61708,0,0,1-1.2959,1.332,12.47788,12.47788,0,0,1-1.79981.90039,13.07985,13.07985,0,0,1-1.54785.55762,7.03933,7.03933,0,0,1-1.728.30664,2.40113,2.40113,0,0,1-1.36816-.30664,1.52,1.52,0,0,1-.68408-1.20605,8.05031,8.05031,0,0,1,.0542-2.376q.197-1.00635.48584-2.05176a3.77535,3.77535,0,0,1,.126-.50391,3.18939,3.18939,0,0,1,.23389-.55761,2.87206,2.87206,0,0,1,.30615-.46875.4803.4803,0,0,1,.37793-.19727.94907.94907,0,0,1,.88184.4502A1.87467,1.87467,0,0,1,98.89511,17.808Z"/><path class="cls-4" d="M110.88339,21.1195a8.36,8.36,0,0,1-.09033,1.0625,6.50413,6.50413,0,0,1-.2876,1.24121,2.54036,2.54036,0,0,1-.54.93653.69188.69188,0,0,1-.84619.14355,1.89235,1.89235,0,0,1-.57617-.68359,1.6232,1.6232,0,0,1-.25195-.93653,6.84376,6.84376,0,0,1,.36035-1.6914,1.519,1.519,0,0,1,.75586-1.00781.83755.83755,0,0,1,.48584,0,1.41186,1.41186,0,0,1,.48633.23339,1.7348,1.7348,0,0,1,.35986.36036A.62027.62027,0,0,1,110.88339,21.1195Zm1.43994-19.36816q-.32373,1.585-.666,3.13183-.34278,1.54835-.62989,3.09668-.28857,1.54834-.43212,3.09571a19.05465,19.05465,0,0,0-.03614,3.0957,1.11294,1.11294,0,0,1-.126.75586,1.00782,1.00782,0,0,1-.44971.46875.832.832,0,0,1-1.15234-.39648,16.53206,16.53206,0,0,1-.44971-3.63575,21.971,21.971,0,0,1,.252-3.56445,35.58826,35.58826,0,0,1,.71973-3.50977q.4497-1.74609.918-3.47363.18017-.7207.57617-.792a1.35123,1.35123,0,0,1,.75586.07227.98756.98756,0,0,1,.68408.71972A1.80446,1.80446,0,0,1,112.32333,1.75134Z"/></g></g></g></g></g></svg>