<svg xmlns="http://www.w3.org/2000/svg" id="perzuman_induction" width="189.57" height="293" viewBox="0 0 189.57 293">
    <defs>
        <style>
            .cls-1{fill:#d48b1f}.cls-2{fill:#b17320}.cls-3{fill:#7c7b7c}.cls-4{fill:#939393}.cls-5{fill:#c0bfbf}.cls-6{fill:#6e6e6d}.cls-31,.cls-7{fill:#fff}.cls-7{opacity:.25}.cls-8{fill:#fdf4e0}.cls-13,.cls-16,.cls-9{fill:#fbd6b4}.cls-9{opacity:.49}.cls-10{fill:#f5c71d}.cls-11{fill:#f5b116}.cls-12{fill:#e6a015;opacity:.35}.cls-14{fill:#464237}.cls-15{fill:#6e563f}.cls-16{opacity:.5}.cls-17,.cls-18,.cls-19,.cls-23,.cls-27,.cls-28{fill:none;stroke-miterlimit:10}.cls-17{stroke:#f0b482}.cls-17,.cls-18,.cls-19,.cls-28{stroke-linecap:round}.cls-17,.cls-18,.cls-27,.cls-28{stroke-width:2px}.cls-18{stroke:#f7bc92}.cls-19{stroke:#6f6859;stroke-width:3px}.cls-20{fill:#454e4d}.cls-21{fill:#f5c820}.cls-22{fill:#534e3c}.cls-23{stroke:#2c2921;stroke-width:5px}.cls-24{fill:#3a362c}.cls-25{fill:#22201b}.cls-26{fill:#0e0e0d;opacity:.3}.cls-27,.cls-28{stroke:#ed6d30}.cls-29{fill:#1554a5}.cls-30{fill:#1173bc}.cls-32{fill:#f4d823}.cls-33{fill:#3d3f42}.cls-34{fill:#1d1e20}
        </style>
    </defs>
    <g id="_02" data-name="2">
        <path id="패스_2364" d="M4.89 0h.038a4.89 4.89 0 0 1 4.89 4.89v98.71H0V4.89A4.89 4.89 0 0 1 4.89 0z" class="cls-1" data-name="패스 2364" transform="rotate(135 14.804 127.437)"/>
        <path id="사각형_301" d="M0 0h9.819v7.465H0z" class="cls-2" data-name="사각형 301" transform="rotate(-45 187.512 27.912)"/>
        <path id="패스_2365" d="M27.952 199.22l3.733-5.535 8.6 8.6-5.535 3.733z" class="cls-3" data-name="패스 2365" transform="translate(-8.555 -59.282)"/>
        <path id="패스_2366" d="M51.9 176.052l5.286-3.776 6.042 6.042-3.78 5.282z" class="cls-3" data-name="패스 2366" transform="translate(-15.884 -52.73)"/>
        <path id="패스_2367" d="M2.825 0h12.508a2.825 2.825 0 0 1 2.825 2.825V13.2a2.825 2.825 0 0 1-2.825 2.825H2.825A2.825 2.825 0 0 1 0 13.2V2.825A2.825 2.825 0 0 1 2.825 0z" class="cls-4" data-name="패스 2367" transform="rotate(135 -4.347 75.306)"/>
        <path id="패스_2368" d="M1.71 0H7.9a1.71 1.71 0 0 1 1.71 1.71v11.533a1.71 1.71 0 0 1-1.71 1.71H1.71A1.71 1.71 0 0 1 0 13.243V1.71A1.71 1.71 0 0 1 1.71 0z" class="cls-4" data-name="패스 2368" transform="rotate(135 -16.096 80.173)"/>
        <path id="패스_2369" d="M58.214 171.193l6.223 6.223a.626.626 0 0 0 1.022-.2l3.485-8.464a1.58 1.58 0 0 0-2.063-2.063l-8.464 3.485a.626.626 0 0 0-.2 1.023z" class="cls-4" data-name="패스 2369" transform="translate(-17.762 -50.982)"/>
        <path id="패스_2370" d="M144.917 188.922s-1.882 5.646-9.41 13.175l-35.446 35.446a6.651 6.651 0 0 0 8.017 10.47c.69-.36 24.92-24.586 34.33-34s11.92-8.156 11.92-8.156c8.156.627 8.156-1.882 8.156-1.882l-1.255-5.019c9.41-1.882 10.665-9.411 10.665-9.411l-.627-3.137-13.175 3.137-2.509-7.528 13.8-3.764s-6.274-11.293-16.312-5.019c.002.004-4.39 3.141-8.154 15.688zm-42.661 50.189a3.549 3.549 0 1 1 0 5.019 3.549 3.549 0 0 1 0-5.019z" class="cls-5" data-name="패스 2370" transform="translate(-30.029 -52.443)"/>
        <path id="패스_2371" d="M113.062 251.358a3.992 3.992 0 0 0 5.646 0l30.113-30.113a3.992 3.992 0 0 0 0-5.646 3.992 3.992 0 0 0-5.646 0l-30.113 30.113a3.992 3.992 0 0 0 0 5.646z" class="cls-6" data-name="패스 2371" transform="translate(-34.248 -65.632)"/>
        <path id="패스_2372" d="M175.817 173.238c10.038-6.274 16.312 5.019 16.312 5.019l-13.8 3.764 2.509 7.528 13.175-3.137.627 3.137s-1.255 7.528-10.665 9.41l1.255 5.019s-.017 1.836-5.145 1.97l-7.664-28.4a15.184 15.184 0 0 1 3.396-4.31z" class="cls-6" data-name="패스 2372" transform="translate(-52.773 -52.443)"/>
        <path id="사각형_302" d="M0 0h10.647v7.098H0z" class="cls-6" data-name="사각형 302" transform="rotate(-105.01 117.117 29.334)"/>
        <path id="패스_2373" d="M152.894 213.7l6.23 12.639-3.6 3.6-4.924-13.948z" class="cls-7" data-name="패스 2373" transform="translate(-46.096 -65.408)"/>
        <path id="패스_2374" d="M148.485 218.6l4.842 14.027-2.4 2.4-3.617-15.252z" class="cls-7" data-name="패스 2374" transform="translate(-45.09 -66.909)"/>
        <path id="패스_2375" d="M3.682 0a3.682 3.682 0 0 1 3.683 3.682V26.01a3.007 3.007 0 0 1-3.007 3.007H3.007A3.007 3.007 0 0 1 0 26.01V3.682A3.682 3.682 0 0 1 3.682 0z" class="cls-8" data-name="패스 2375" transform="rotate(-10.174 476.67 -809.909)"/>
        <path id="패스_2376" d="M0 0h28.256v13.058a11.161 11.161 0 0 1-11.162 11.161h-5.933A11.161 11.161 0 0 1 0 13.058z" class="cls-8" data-name="패스 2376" transform="rotate(-10.174 586.788 -819.706)"/>
        <path id="패스_2377" d="M241.885 145.431l-.742.133a11.187 11.187 0 0 1-12.987-9.035l-.238-1.327a7.289 7.289 0 0 1 5.887-8.462l8.416-1.51a7.289 7.289 0 0 1 8.462 5.887l.238 1.327a11.187 11.187 0 0 1-9.036 12.987z" class="cls-9" data-name="패스 2377" transform="translate(-69.725 -38.294)"/>
        <path id="패스_2378" d="M3.752 0h5.866a4.6 4.6 0 0 1 4.6 4.6 4.6 4.6 0 0 1-4.6 4.6H3.752A3.752 3.752 0 0 1 0 5.438V3.752A3.752 3.752 0 0 1 3.752 0z" class="cls-8" data-name="패스 2378" transform="rotate(-10.174 607.005 -805.463)"/>
        <rect id="사각형_303" width="7.365" height="15.283" class="cls-8" data-name="사각형 303" rx="3.682" transform="rotate(-10.174 540.257 -856.457)"/>
        <rect id="사각형_304" width="7.365" height="15.283" class="cls-8" data-name="사각형 304" rx="3.682" transform="rotate(-10.174 536.569 -897.824)"/>
        <rect id="사각형_305" width="7.365" height="15.283" class="cls-8" data-name="사각형 305" rx="3.682" transform="rotate(-10.174 532.886 -939.196)"/>
        <path id="패스_2379" d="M153.376 194.992s36.709 25.927 48.585 13.553c9.562-9.962 8.2-35.869 7.3-45.587a4.39 4.39 0 0 1 3.337-4.668l11.714-2.854a4.39 4.39 0 0 1 5.236 2.96c6.027 19.429 27.7 103.595-56.856 82.3z" class="cls-10" data-name="패스 2379" transform="translate(-46.945 -47.536)"/>
        <path id="패스_2380" d="M259.141 175.383l-18.759 1.979s13.647-1.192 20.288 5.1a167.643 167.643 0 0 0-1.529-7.079z" class="cls-11" data-name="패스 2380" transform="translate(-73.575 -53.681)"/>
        <ellipse id="타원_286" cx="2.302" cy="3.171" class="cls-11" data-name="타원 286" rx="2.302" ry="3.171" transform="rotate(-14.666 530.472 -624.914)"/>
        <path id="패스_2381" d="M235.9 158.4a4.39 4.39 0 0 0-5.236-2.96l-2.811.685c6.933 25.341 15.679 83.368-53.728 72.941l4.919 11.638c84.556 21.287 62.885-62.879 56.856-82.304z" class="cls-12" data-name="패스 2381" transform="translate(-53.296 -47.536)"/>
        <path id="패스_2382" d="M13.647 0h1.905a13.477 13.477 0 0 1 13.477 13.477v20.178h-11.1A17.926 17.926 0 0 1 0 15.729v-2.082A13.647 13.647 0 0 1 13.647 0z" class="cls-8" data-name="패스 2382" transform="rotate(-11.039 417.267 -32.48)"/>
        <path id="패스_2383" d="M53.1 137.09l-6.1 1.189a12.107 12.107 0 0 1-14.2-9.565 9.217 9.217 0 0 1 7.287-10.814 9.1 9.1 0 0 1 10.676 7.19z" class="cls-13" data-name="패스 2383" transform="translate(-9.988 -36.035)"/>
        <path id="패스_2384" d="M52.41 142.288l10.059-1.962-3.869-19.805a13.472 13.472 0 0 0-14.2-10.853c.547 5.674 2.571 22.898 8.01 32.62z" class="cls-9" data-name="패스 2384" transform="translate(-13.593 -33.556)"/>
        <path id="패스_2385" d="M17.926 0h11.1v20.178a13.477 13.477 0 0 1-13.474 13.477h-1.905A13.647 13.647 0 0 1 0 20.008v-2.082A17.926 17.926 0 0 1 17.926 0z" class="cls-8" data-name="패스 2385" transform="rotate(-168.961 76.86 49.261)"/>
        <path id="패스_2386" d="M173.126 137.09l6.1 1.189a12.107 12.107 0 0 0 14.2-9.565 9.217 9.217 0 0 0-7.281-10.811 9.1 9.1 0 0 0-10.676 7.191z" class="cls-13" data-name="패스 2386" transform="translate(-52.99 -36.035)"/>
        <path id="패스_2387" d="M174.883 142.288l-10.059-1.962 3.864-19.805a13.472 13.472 0 0 1 14.2-10.853c-.542 5.674-2.567 22.898-8.005 32.62z" class="cls-9" data-name="패스 2387" transform="translate(-50.449 -33.556)"/>
        <path id="패스_2388" d="M112.4 212.062a11.01 11.01 0 0 1-11-10.453l-.859-16.957h23.709l-.859 16.957a11.01 11.01 0 0 1-11 10.453z" class="cls-8" data-name="패스 2388" transform="translate(-30.775 -56.518)"/>
        <path id="패스_2389" d="M100.988 193.394a47.976 47.976 0 0 0 11.378 1.318h.068a47.974 47.974 0 0 0 11.378-1.318l.443-8.742h-23.709z" class="cls-13" data-name="패스 2389" transform="translate(-30.775 -56.518)"/>
        <path id="패스_2390" d="M144.149 65.916c0-53.684-46.163-53.451-47.5-53.433-1.337-.018-47.5-.252-47.5 53.433 0 0-3.812 70.022 47.466 70.085h.068c51.279-.063 47.466-70.085 47.466-70.085z" class="cls-8" data-name="패스 2390" transform="translate(-15.024 -3.821)"/>
        <path id="패스_2391" d="M94.094 55.161H99.2c25.535 0 38.857 9.115 45 15.381.04-2.9-.054-4.625-.054-4.625 0-53.684-46.163-53.451-47.5-53.433-1.337-.018-47.5-.252-47.5 53.433 0 0-.094 1.722-.054 4.625 6.145-6.267 19.467-15.381 45.002-15.381z" class="cls-13" data-name="패스 2391" transform="translate(-15.024 -3.821)"/>
        <path id="패스_2392" d="M90.547 50.607s-5.614 19.8 22.486 21.86a1.892 1.892 0 0 0 1.88-2.632 5.277 5.277 0 0 1-.425-2.4 23.2 23.2 0 0 0 12.036 2.221 1.9 1.9 0 0 0 .933-3.488c-3.46-2.342-8.463-11.023-8.463-18.249 0 0-20.278-3.539-28.446 2.689z" class="cls-14" data-name="패스 2392" transform="translate(-27.574 -14.36)"/>
        <path id="패스_2393" d="M96.282 60.887c1.08 6.617 4.626 7.286 7.4 8.674s-1.619-3.932.116-3.932 2.2 2.429 2.776 1.966-2.429-9.021-3.238-7.864.578 5.2-.694 4.048-7.285-8.559-6.36-2.892z" class="cls-15" data-name="패스 2393" transform="translate(-29.44 -17.989)"/>
        <path id="패스_2394" d="M115.4 121.483h-.008c-3.751.008-5.056 4.976-5.056 9.252s1.934-.8 5.06-.809 5.06 5.087 5.06.809-1.304-9.245-5.056-9.252z" class="cls-16" data-name="패스 2394" transform="translate(-33.772 -37.183)"/>
        <path id="패스_2395" d="M110.946 136.164c.73.163 2.37-2.511 4.638-2.515 2.2 0 3.815 2.53 4.574 2.522" class="cls-17" data-name="패스 2395" transform="translate(-33.958 -40.907)"/>
        <path id="패스_2396" d="M126.453 150.985s-3.527 4.742-15.006 4.742h-1.561c-11.479 0-15.006-4.742-15.006-4.742" class="cls-18" data-name="패스 2396" transform="translate(-29.04 -46.213)"/>
        <path id="패스_2397" d="M141.712 89.638a16.3 16.3 0 0 1 10.871 3.354" class="cls-19" data-name="패스 2397" transform="translate(-43.375 -27.427)"/>
        <path id="패스_2398" d="M88.75 89.638a16.3 16.3 0 0 0-10.871 3.354" class="cls-19" data-name="패스 2398" transform="translate(-23.837 -27.427)"/>
        <rect id="사각형_306" width="18.736" height="10.987" class="cls-16" data-name="사각형 306" rx="5.494" transform="translate(46.062 86.383)"/>
        <circle id="타원_287" cx=".81" cy=".81" r=".81" class="cls-13" data-name="타원 287" transform="translate(45.504 86.904)"/>
        <circle id="타원_288" cx=".81" cy=".81" r=".81" class="cls-13" data-name="타원 288" transform="translate(47.918 90.387)"/>
        <circle id="타원_289" cx=".81" cy=".81" r=".81" class="cls-13" data-name="타원 289" transform="translate(43.494 91.341)"/>
        <circle id="타원_290" cx=".81" cy=".81" r=".81" class="cls-13" data-name="타원 290" transform="translate(51.055 88.804)"/>
        <circle id="타원_291" cx=".81" cy=".81" r=".81" class="cls-13" data-name="타원 291" transform="translate(53.224 91.971)"/>
        <circle id="타원_292" cx=".81" cy=".81" r=".81" class="cls-13" data-name="타원 292" transform="translate(56.296 90.106)"/>
        <rect id="사각형_307" width="18.736" height="10.987" class="cls-16" data-name="사각형 307" rx="5.494" transform="rotate(180 58.594 48.685)"/>
        <circle id="타원_293" cx=".81" cy=".81" r=".81" class="cls-13" data-name="타원 293" transform="translate(116.128 86.904)"/>
        <circle id="타원_294" cx=".81" cy=".81" r=".81" class="cls-13" data-name="타원 294" transform="translate(113.714 90.387)"/>
        <circle id="타원_295" cx=".81" cy=".81" r=".81" class="cls-13" data-name="타원 295" transform="translate(118.138 91.341)"/>
        <circle id="타원_296" cx=".81" cy=".81" r=".81" class="cls-13" data-name="타원 296" transform="translate(110.577 88.804)"/>
        <circle id="타원_297" cx=".81" cy=".81" r=".81" class="cls-13" data-name="타원 297" transform="translate(108.408 91.971)"/>
        <circle id="타원_298" cx=".81" cy=".81" r=".81" class="cls-13" data-name="타원 298" transform="translate(105.336 90.106)"/>
        <ellipse id="타원_299" cx="3.99" cy="8.211" class="cls-20" data-name="타원 299" rx="3.99" ry="8.211" transform="translate(98.453 74.355)"/>
        <ellipse id="타원_300" cx="3.99" cy="8.211" class="cls-20" data-name="타원 300" rx="3.99" ry="8.211" transform="translate(56.818 74.355)"/>
        <path id="패스_2399" d="M107.081 214.11H75.01c-17.989 8.449-44.631 35.274-44.229 120.075a24.514 24.514 0 0 0 24.539 24.348h17.6a18.375 18.375 0 0 0 17.675-12.712l.452-1.462.452 1.462a18.376 18.376 0 0 0 17.675 12.712h17.6a24.514 24.514 0 0 0 24.539-24.348c.4-84.801-26.242-111.626-44.232-120.075z" class="cls-21" data-name="패스 2399" transform="translate(-9.42 -65.534)"/>
        <path id="패스_2400" d="M107.081 214.11H75.01c-17.989 8.449-44.631 35.274-44.229 120.075a24.514 24.514 0 0 0 24.539 24.348h17.6a18.375 18.375 0 0 0 17.675-12.712l.452-1.462.452 1.462a18.376 18.376 0 0 0 17.675 12.712h17.6a24.514 24.514 0 0 0 24.539-24.348c.4-84.801-26.242-111.626-44.232-120.075z" class="cls-10" data-name="패스 2400" transform="translate(-9.42 -65.534)"/>
        <path id="패스_2401" d="M57.474 277.7a25.458 25.458 0 0 0-9.611-20.15c-5.528 11.05-10.223 25.689-13.034 45.077C47.4 302.2 57.474 291.206 57.474 277.7z" class="cls-11" data-name="패스 2401" transform="translate(-10.66 -78.83)"/>
        <path id="패스_2402" d="M126.816 204.235a1.6 1.6 0 0 0-.723-.77l-4.924-2.549a3.878 3.878 0 0 0-4.235.44l-10.31 8.418-10.31-8.418a3.878 3.878 0 0 0-4.235-.44l-4.924 2.549a1.6 1.6 0 0 0-.722.77 53.359 53.359 0 0 0-4.505 1.321c.768 6.69 4.612 22.351 23.8 22.351h1.8c19.183 0 23.028-15.661 23.8-22.351a53.397 53.397 0 0 0-4.512-1.321z" class="cls-11" data-name="패스 2402" transform="translate(-25.076 -61.363)"/>
        <path id="패스_2403" d="M98.325 201.338l10.315 8.422-7.842 10.4a3.364 3.364 0 0 1-5.726-.586l-6.625-13.992a1.618 1.618 0 0 1 .719-2.13l4.924-2.552a3.878 3.878 0 0 1 4.235.438z" class="cls-10" data-name="패스 2403" transform="translate(-27.024 -61.357)"/>
        <path id="패스_2404" d="M127.934 201.338l-10.315 8.422 7.842 10.4a3.364 3.364 0 0 0 5.726-.586l6.625-13.992a1.618 1.618 0 0 0-.719-2.13l-4.924-2.549a3.878 3.878 0 0 0-4.235.44z" class="cls-10" data-name="패스 2404" transform="translate(-36 -61.357)"/>
        <circle id="타원_301" cx="3.094" cy="3.094" r="3.094" class="cls-10" data-name="타원 301" transform="translate(78.532 156.99)"/>
        <path id="사각형_308" d="M0 0h93.68v14.572H0z" class="cls-22" data-name="사각형 308" transform="translate(34.786 258.823)"/>
        <path id="패스_2405" d="M66.927 250.751a381.4 381.4 0 0 0-25.935 87.781l14.4 5.378a381.4 381.4 0 0 1 25.935-87.781h12.836v-17.7h-9.715c-6.241-3.341-7.946-20.52-8.412-29.657a4.116 4.116 0 0 0-5.607-3.618l-8.357 3.255a4.113 4.113 0 0 0-2.621 4c.264 6.766 1.519 23.938 7.476 38.342z" class="cls-22" data-name="패스 2405" transform="translate(-12.546 -62.708)"/>
        <rect id="사각형_309" width="17.978" height="14.457" class="cls-23" data-name="사각형 309" rx="4.312" transform="rotate(19.52 -589.932 233.34)"/>
        <rect id="사각형_310" width="19.7" height="22.466" class="cls-24" data-name="사각형 310" rx="3.962" transform="rotate(-10.463 873.14 -173.308)"/>
        <path id="패스_2406" d="M0 0h2.732v16.155a1.366 1.366 0 0 1-1.366 1.366A1.366 1.366 0 0 1 0 16.155z" class="cls-25" data-name="패스 2406" transform="rotate(-10.463 878.37 -220.505)"/>
        <path id="패스_2407" d="M66.979 226.257l1.36 7.364a5.763 5.763 0 0 0 5.287 1.7l9.752-1.8a5.763 5.763 0 0 0 4.333-3.473l-1.36-7.364a2.6 2.6 0 0 0-.377-.933L67 225.251a2.6 2.6 0 0 0-.021 1.006z" class="cls-26" data-name="패스 2407" transform="translate(-20.488 -67.871)"/>
        <path id="패스_2408" d="M0 0h20.115v5.725a5.378 5.378 0 0 1-5.378 5.375H5.378A5.378 5.378 0 0 1 0 5.725z" class="cls-24" data-name="패스 2408" transform="rotate(-10.463 862.35 -171.179)"/>
        <path id="패스_2409" d="M85.241 216.313l1.04 5.63a5.378 5.378 0 0 1-4.312 6.265l-9.2 1.7A5.378 5.378 0 0 1 66.5 225.6l-1.04-5.63" class="cls-27" data-name="패스 2409" transform="translate(-20.036 -66.208)"/>
        <circle id="타원_302" cx="1.937" cy="1.937" r="1.937" class="cls-25" data-name="타원 302" transform="translate(55.071 157.134)"/>
        <circle id="타원_303" cx="1.937" cy="1.937" r="1.937" class="cls-22" data-name="타원 303" transform="translate(54.528 156.221)"/>
        <path id="패스_2410" d="M25.957 365.668s-1.619 12.144-2.082 15.96 1.33 4.221 2.66 5.147 13.936 5.089 15.035 5.494a9.228 9.228 0 0 0 5.956-.463c2.313-.983 3.817-.925 4.742-5.089s5.262-26.2 5.262-26.2l-18.216-7.286z" class="cls-24" data-name="패스 2410" transform="translate(-7.285 -108.117)"/>
        <path id="패스_2411" d="M59.063 389.538c.925-4.162 5.258-26.176 5.262-26.195l-1.151-.46-.057-.024-.407-.163c-8.147-2.868-10.942 20.359-11.974 26.9-.683 4.326-3.113 4.364-4.735 4.683 1.22.415 2.108.716 2.364.81a9.227 9.227 0 0 0 5.956-.463c2.314-.982 3.817-.926 4.742-5.088z" class="cls-26" data-name="패스 2411" transform="translate(-14.08 -110.938)"/>
        <path id="패스_2412" d="M0 0h2.949v13.1a1.475 1.475 0 0 1-1.475 1.475A1.475 1.475 0 0 1 0 13.1z" class="cls-25" data-name="패스 2412" transform="rotate(9.25 -1596.298 291.9)"/>
        <path id="패스_2413" d="M41.338 351.346a8.062 8.062 0 0 0-5.248-.591c-8.186 1.837-7.877 4.032-9.134 10.711-1.388 7.373-.26 6.419 4.6 8.761S41.963 375 44.044 375s3.209-2.515 4.25-6.506 1.214-8.934 9.8-9.108z" class="cls-24" data-name="패스 2413" transform="translate(-8.082 -107.297)"/>
        <path id="패스_2414" d="M38.637 350.652c-10.756.983-10.424 4.163-11.681 10.843-1.388 7.373-.26 6.419 4.6 8.761s10.409 4.771 12.491 4.771 3.209-2.515 4.25-6.506 1.214-8.934 9.8-9.108" class="cls-28" data-name="패스 2414" transform="translate(-8.082 -107.326)"/>
        <ellipse id="타원_304" cx="2.891" cy="2.31" class="cls-26" data-name="타원 304" rx="2.891" ry="2.31" transform="rotate(-75.982 180.062 114.441)"/>
        <ellipse id="타원_305" cx="2.891" cy="2.31" class="cls-22" data-name="타원 305" rx="2.891" ry="2.31" transform="rotate(-75.982 178.853 114.606)"/>
        <path id="패스_2415" d="M144.847 250.751a381.4 381.4 0 0 1 25.935 87.781l-14.4 5.378a381.4 381.4 0 0 0-25.935-87.781H117.61v-17.7h9.715c6.241-3.341 7.946-20.52 8.412-29.657a4.116 4.116 0 0 1 5.607-3.618l8.357 3.255a4.113 4.113 0 0 1 2.621 4c-.264 6.766-1.522 23.938-7.475 38.342z" class="cls-22" data-name="패스 2415" transform="translate(-35.998 -62.708)"/>
        <rect id="사각형_311" width="17.978" height="14.457" class="cls-23" data-name="사각형 311" rx="4.312" transform="scale(-1) rotate(-19.52 -713.628 248.554)"/>
        <rect id="사각형_312" width="19.7" height="22.466" class="cls-24" data-name="사각형 312" rx="3.962" transform="scale(-1) rotate(10.49 912.023 -705.465)"/>
        <path id="패스_2416" d="M1.366 0a1.366 1.366 0 0 1 1.366 1.366v16.156H0V1.366A1.366 1.366 0 0 1 1.366 0z" class="cls-25" data-name="패스 2416" transform="scale(-1) rotate(10.49 890.317 -660.84)"/>
        <path id="패스_2417" d="M159.085 226.257l-1.36 7.364a5.763 5.763 0 0 1-5.287 1.7l-9.752-1.8a5.763 5.763 0 0 1-4.333-3.473l1.36-7.364a2.6 2.6 0 0 1 .377-.933l18.977 3.5a2.6 2.6 0 0 1 .019 1.006z" class="cls-26" data-name="패스 2417" transform="translate(-42.347 -67.871)"/>
        <path id="패스_2418" d="M5.378 0h9.359a5.378 5.378 0 0 1 5.378 5.378V11.1H0V5.378A5.378 5.378 0 0 1 5.378 0z" class="cls-24" data-name="패스 2418" transform="scale(-1) rotate(10.49 839.342 -713.244)"/>
        <path id="패스_2419" d="M140.762 216.313l-1.04 5.63a5.378 5.378 0 0 0 4.312 6.265l9.2 1.7a5.378 5.378 0 0 0 6.266-4.308l1.04-5.63" class="cls-27" data-name="패스 2419" transform="translate(-42.738 -66.208)"/>
        <circle id="타원_306" cx="1.937" cy="1.937" r="1.937" class="cls-25" data-name="타원 306" transform="translate(104.283 157.134)"/>
        <circle id="타원_307" cx="1.937" cy="1.937" r="1.937" class="cls-22" data-name="타원 307" transform="translate(104.827 156.221)"/>
        <path id="패스_2420" d="M194.393 365.668s1.619 12.144 2.082 15.96-1.33 4.221-2.66 5.147-13.936 5.089-15.035 5.494a9.228 9.228 0 0 1-5.956-.463c-2.313-.983-3.817-.925-4.742-5.089s-5.262-26.2-5.262-26.2l18.215-7.286z" class="cls-24" data-name="패스 2420" transform="translate(-49.835 -108.117)"/>
        <path id="패스_2421" d="M168.081 389.538c-.925-4.162-5.258-26.176-5.262-26.195l1.151-.46.057-.024.407-.163c8.147-2.868 10.942 20.359 11.974 26.9.683 4.326 3.113 4.364 4.735 4.683-1.22.415-2.108.716-2.364.81a9.227 9.227 0 0 1-5.956-.463c-2.313-.982-3.817-.926-4.742-5.088z" class="cls-26" data-name="패스 2421" transform="translate(-49.835 -110.938)"/>
        <path id="패스_2422" d="M1.475 0a1.475 1.475 0 0 1 1.474 1.475v13.1H0v-13.1A1.475 1.475 0 0 1 1.475 0z" class="cls-25" data-name="패스 2422" transform="rotate(170.75 58.238 144.042)"/>
        <path id="패스_2423" d="M179.909 351.346a8.062 8.062 0 0 1 5.248-.591c8.186 1.837 7.877 4.032 9.134 10.711 1.388 7.373.26 6.419-4.6 8.761S179.285 375 177.2 375s-3.209-2.515-4.25-6.506-1.214-8.934-9.8-9.108z" class="cls-24" data-name="패스 2423" transform="translate(-49.937 -107.297)"/>
        <path id="패스_2424" d="M182.611 350.652c10.756.983 10.424 4.163 11.681 10.843 1.388 7.373.26 6.419-4.6 8.761s-10.409 4.771-12.491 4.771-3.209-2.515-4.25-6.506-1.214-8.934-9.8-9.108" class="cls-28" data-name="패스 2424" transform="translate(-49.937 -107.326)"/>
        <ellipse id="타원_308" cx="2.31" cy="2.891" class="cls-26" data-name="타원 308" rx="2.31" ry="2.891" transform="rotate(-14.018 1110.86 -408.09)"/>
        <ellipse id="타원_309" cx="2.31" cy="2.891" class="cls-22" data-name="타원 309" rx="2.31" ry="2.891" transform="rotate(-14.018 1107.14 -412.993)"/>
        <rect id="사각형_313" width="18.794" height="18.794" class="cls-23" data-name="사각형 313" rx="6.216" transform="translate(72.152 175.09)"/>
        <rect id="사각형_314" width="16.096" height="16.096" class="cls-23" data-name="사각형 314" rx="6.216" transform="translate(73.5 258.061)"/>
        <path id="패스_2425" d="M129.739 44.484s18.138 30.857 37.129 35.3a3.249 3.249 0 0 0 3.9-3.834c-2.047-9.842-10.137-32.822-41.029-31.466z" class="cls-14" data-name="패스 2425" transform="translate(-39.71 -13.598)"/>
        <path id="패스_2426" d="M86.227 44.484S68.088 75.341 49.1 79.788a3.249 3.249 0 0 1-3.9-3.834c2.044-9.846 10.134-32.826 41.027-31.47z" class="cls-14" data-name="패스 2426" transform="translate(-13.813 -13.598)"/>
        <path id="패스_2427" d="M146.2 50.82l-1.816-16.438a28.942 28.942 0 0 0-14.852-22.2l-11.495-6.3a47.754 47.754 0 0 0-45.924 0l-11.48 6.3a28.942 28.942 0 0 0-14.852 22.2L43.964 50.82 74.38 31.563l20.7-1.269 20.7 1.269z" class="cls-29" data-name="패스 2427" transform="translate(-13.456)"/>
        <path id="패스_2428" d="M144.713 75.923a4.513 4.513 0 0 1-4.245-2.987c-.42-1.148-10.191-26.68-45.218-26.68h-5.11c-35.319 0-45.118 26.4-45.213 26.666a4.51 4.51 0 1 1-8.5-3.023c.474-1.334 12.1-32.664 53.712-32.664h5.111c41.615 0 53.238 31.331 53.712 32.664a4.514 4.514 0 0 1-4.25 6.023z" class="cls-30" data-name="패스 2428" transform="translate(-11.069 -11.397)"/>
        <path id="패스_2429" d="M87.444 22.572Q88.76 22 90.1 21.509a2.871 2.871 0 0 1 .773-.179 1.232 1.232 0 0 1 .632.1.888.888 0 0 1 .418.437 1.655 1.655 0 0 1 .121.8 2.751 2.751 0 0 1-.627 1.7 3.675 3.675 0 0 1-1.556 1.019q-.612.226-1.219.467l-.128 1.945q-.743.3-1.479.614zm1.272 2.111q.494-.2.991-.383a1.484 1.484 0 0 0 .592-.385 1 1 0 0 0 .249-.632q.023-.391-.184-.5a.692.692 0 0 0-.563.024q-.494.185-.986.381l-.1 1.5z" class="cls-31" data-name="패스 2429" transform="translate(-26.639 -6.527)"/>
        <path id="패스_2430" d="M95.509 19.662q2.278-.693 4.6-1.174l-.044 1.207q-1.567.325-3.117.747l-.048 1.014q1.421-.387 2.857-.693l-.044 1.167q-1.441.307-2.869.7l-.052 1.1q1.608-.438 3.235-.772l-.047 1.3q-2.407.5-4.773 1.215z" class="cls-31" data-name="패스 2430" transform="translate(-29.141 -5.659)"/>
        <path id="패스_2431" d="M103.786 17.957q1.488-.276 2.987-.465a2.877 2.877 0 0 1 .768 0 1.79 1.79 0 0 1 .655.222 1.215 1.215 0 0 1 .455.465 1.41 1.41 0 0 1 .158.716 1.789 1.789 0 0 1-.255.9 1.588 1.588 0 0 1-.7.633v.016a.744.744 0 0 1 .384.151.907.907 0 0 1 .253.311 1.882 1.882 0 0 1 .144.394 2.457 2.457 0 0 1 .064.442l.007.1q.012.257.019.369t.033.291a2.555 2.555 0 0 0 .066.321.418.418 0 0 0 .106.2q-.775.064-1.548.151a.676.676 0 0 1-.1-.315q-.029-.218-.048-.49c0-.059-.007-.091-.006-.1a3.378 3.378 0 0 0-.045-.458 1.059 1.059 0 0 0-.122-.34.552.552 0 0 0-.253-.231.767.767 0 0 0-.423-.043q-.587.078-1.173.168l-.058 2.1q-.778.121-1.554.264.091-2.882.186-5.772zm1.455 2.248q.646-.1 1.293-.184a.726.726 0 0 0 .728-.766.461.461 0 0 0-.21-.439.838.838 0 0 0-.555-.088q-.611.08-1.221.174l-.036 1.3z" class="cls-31" data-name="패스 2431" transform="translate(-31.708 -5.346)"/>
        <path id="패스_2432" d="M112.1 21.583q1.557-1.734 3.084-3.377-1.431.02-2.859.118l.016-1.292q2.414-.166 4.834-.108v1.162q-1.551 1.617-3.139 3.327 1.63-.058 3.262-.016 0 .646.006 1.291-2.613-.067-5.225.121.012-.609.021-1.226z" class="cls-31" data-name="패스 2432" transform="translate(-34.306 -5.176)"/>
        <path id="패스_2433" d="M126.02 20.833a2.2 2.2 0 0 1-.585 1.8 2.588 2.588 0 0 1-1.966.4 3.1 3.1 0 0 1-1.992-.762 2.641 2.641 0 0 1-.65-1.915l-.026-3.382q.77.032 1.538.087l.045 3.472a1.342 1.342 0 0 0 .254.866 1.146 1.146 0 0 0 .809.342.946.946 0 0 0 .8-.195 1.132 1.132 0 0 0 .226-.822l-.069-3.474q.766.085 1.531.193l.085 3.39z" class="cls-31" data-name="패스 2433" transform="translate(-36.975 -5.196)"/>
        <path id="패스_2434" d="M129.206 17.8q1.124.174 2.242.4.57 2.028 1.151 4.068h.016q.432-1.817.85-3.627 1.11.268 2.211.585l.287 5.8q-.717-.206-1.438-.392l-.2-4.4h-.016q-.511 2.042-1.043 4.1-.588-.137-1.178-.26-.7-2.325-1.391-4.632h-.016l.142 4.387q-.73-.134-1.462-.247-.076-2.893-.155-5.782z" class="cls-31" data-name="패스 2434" transform="translate(-39.547 -5.449)"/>
        <path id="패스_2435" d="M141.668 21.112q.749.261 1.492.545 1.235 3.317 2.5 6.7-.768-.332-1.543-.639l-.419-1.183q-.993-.385-2-.73-.151.459-.3.919-.775-.259-1.555-.494.937-2.577 1.825-5.118zm.31 3.685q.65.228 1.3.473l-.755-2.274-.016-.006q-.259.9-.524 1.807z" class="cls-31" data-name="패스 2435" transform="translate(-42.801 -6.462)"/>
        <circle id="타원_310" cx="3.094" cy="3.094" r="3.094" class="cls-11" data-name="타원 310" transform="translate(79.442 213.299)"/>
        <circle id="타원_311" cx="3.094" cy="3.094" r="3.094" class="cls-32" data-name="타원 311" transform="translate(78.532 212.388)"/>
        <ellipse id="타원_312" cx="19.923" cy="21.234" class="cls-10" data-name="타원 312" rx="19.923" ry="21.234" transform="translate(0 173.923)"/>
        <circle id="타원_313" cx="3.094" cy="3.094" r="3.094" class="cls-11" data-name="타원 313" transform="translate(79.442 241.403)"/>
        <circle id="타원_314" cx="3.094" cy="3.094" r="3.094" class="cls-32" data-name="타원 314" transform="translate(78.532 240.492)"/>
        <rect id="사각형_315" width="41.928" height="71.196" class="cls-33" data-name="사각형 315" rx="9.498" transform="translate(9.853 138.325)"/>
        <path id="사각형_316" d="M0 0h33.286v58.608H0z" class="cls-31" data-name="사각형 316" transform="translate(14.174 144.619)"/>
        <rect id="사각형_317" width="10.452" height="1.388" class="cls-34" data-name="사각형 317" rx=".694" transform="translate(25.59 141.03)"/>
        <rect id="사각형_318" width="12.622" height="14.656" class="cls-8" data-name="사각형 318" rx="6.311" transform="translate(43.935 179.568)"/>
        <path id="패스_2436" d="M5.349 0A5.349 5.349 0 0 1 10.7 5.349v5.8A5.349 5.349 0 0 1 5.349 16.5 5.349 5.349 0 0 1 0 11.152v-5.8A5.349 5.349 0 0 1 5.349 0z" class="cls-8" data-name="패스 2436" transform="rotate(62.826 -119.348 91.258)"/>
        <path id="패스_2437" d="M8 241.484a5.363 5.363 0 0 0 5.758.571l5.162-2.65a5.367 5.367 0 0 0 2.885-5.19z" class="cls-9" data-name="패스 2437" transform="translate(-2.448 -71.687)"/>
        <path id="패스_2438" d="M5.349 0A5.349 5.349 0 0 1 10.7 5.349v5.8A5.349 5.349 0 0 1 5.349 16.5 5.349 5.349 0 0 1 0 11.152v-5.8A5.349 5.349 0 0 1 5.349 0z" class="cls-8" data-name="패스 2438" transform="rotate(62.826 -127.808 96.425)"/>
        <path id="패스_2439" d="M8 256.375a5.363 5.363 0 0 0 5.758.571l5.162-2.65a5.367 5.367 0 0 0 2.885-5.19z" class="cls-9" data-name="패스 2439" transform="translate(-2.448 -76.245)"/>
        <path id="패스_2440" d="M5.349 0A5.349 5.349 0 0 1 10.7 5.349v5.8A5.349 5.349 0 0 1 5.349 16.5 5.349 5.349 0 0 1 0 11.152v-5.8A5.349 5.349 0 0 1 5.349 0z" class="cls-8" data-name="패스 2440" transform="rotate(62.826 -136.43 101.69)"/>
        <path id="패스_2441" d="M8 271.552a5.363 5.363 0 0 0 5.758.571l5.162-2.65a5.367 5.367 0 0 0 2.885-5.19z" class="cls-9" data-name="패스 2441" transform="translate(-2.448 -80.89)"/>
        <rect id="사각형_319" width="10.698" height="16.501" class="cls-8" data-name="사각형 319" rx="5.349" transform="rotate(62.826 -144.727 106.758)"/>
        <path id="패스_2442" d="M8 286.157a5.363 5.363 0 0 0 5.758.571l5.162-2.65a5.367 5.367 0 0 0 2.885-5.19z" class="cls-9" data-name="패스 2442" transform="translate(-2.448 -85.361)"/>
        <g id="그룹_191" data-name="그룹 191" transform="translate(20.873 162.916)">
            <circle id="타원_56" cx="9.944" cy="9.944" r="9.944" class="cls-10" data-name="타원 56"/>
            <g id="그룹_190" data-name="그룹 190" transform="translate(4.67 5.124)">
                <path id="패스_1719" d="M47.356 245.894V242.8a.427.427 0 0 0-.735-.294l-2.271 2.383-1.926-2.558a.426.426 0 0 0-.681 0l-1.926 2.558-2.271-2.382a.427.427 0 0 0-.735.294v5.3h10.545v-2.2zm-5.273-.006l.735.424v.849l-.735.424-.735-.424v-.849z" class="cls-31" data-name="패스 1719" transform="translate(-36.81 -242.16)"/>
                <path id="패스_1720" d="M47.356 255.084v-1.767h-2.405v-.672h2.405v-.988H36.81v.988h2.405v.671H36.81v1.767zm-3.946-2.439v.671h-2.653v-.671z" class="cls-31" data-name="패스 1720" transform="translate(-36.81 -245.067)"/>
            </g>
        </g>
    </g>
</svg>
