<svg xmlns="http://www.w3.org/2000/svg" id="perzuman_round" width="153" height="153" viewBox="0 0 153 153">
    <defs>
        <style>
            .cls-1,.cls-15,.cls-16,.cls-17,.cls-32,.cls-33,.cls-34,.cls-39,.cls-43,.cls-44{fill:none}.cls-2{fill:#cce4f6}.cls-3{clip-path:url(#clip-path)}.cls-4{fill:#d48b1f}.cls-5{fill:#b17320}.cls-6{fill:#7c7b7c}.cls-7{fill:#939393}.cls-8{fill:#c0bfbf}.cls-9{fill:#6e6e6d}.cls-10,.cls-25{fill:#fff}.cls-10{opacity:.25}.cls-11,.cls-18{fill:#fdf4e0}.cls-12,.cls-13,.cls-14{fill:#fbd6b4}.cls-13{opacity:.49}.cls-14{opacity:.5}.cls-15{stroke:#f0b482}.cls-15,.cls-16,.cls-17,.cls-32,.cls-33,.cls-34,.cls-44{stroke-linecap:round}.cls-15,.cls-16,.cls-17,.cls-32,.cls-33,.cls-34,.cls-39,.cls-43,.cls-44{stroke-miterlimit:10}.cls-15,.cls-16,.cls-17,.cls-43,.cls-44{stroke-width:2px}.cls-16{stroke:#f7bc92}.cls-17{stroke:#6f6859}.cls-18{opacity:.51}.cls-19{fill:#192337}.cls-20{fill:#454e4d}.cls-21{fill:#464237}.cls-22{fill:#6e563f}.cls-23{fill:#1554a5}.cls-24{fill:#1173bc}.cls-26{fill:#f5c71d}.cls-27,.cls-28{fill:#e6a015}.cls-28{opacity:.35}.cls-29{fill:#f5c820}.cls-30{fill:#3b445c}.cls-31{fill:#2e384e}.cls-32,.cls-33,.cls-34{stroke:#c5b14a}.cls-33{stroke-dasharray:5.174 5.174 5.174 5.174}.cls-34{stroke-dasharray:5.174 5.174 5.174 5.174 5.174 5.174}.cls-35{fill:#151e2c;opacity:.41}.cls-36{fill:#f5b116}.cls-37{fill:#f4d823}.cls-38{fill:#534e3c}.cls-39{stroke:#2c2921;stroke-width:5px}.cls-40{fill:#3a362c}.cls-41{fill:#22201b}.cls-42{fill:#0e0e0d;opacity:.3}.cls-43,.cls-44{stroke:#ed6d30}
        </style>
        <clipPath id="clip-path">
            <circle id="타원_211" cx="76.5" cy="76.5" r="76.5" class="cls-1" data-name="타원 211"/>
        </clipPath>
    </defs>
    <g id="_03" data-name="3">
        <circle id="타원_179" cx="76.5" cy="76.5" r="76.5" class="cls-2" data-name="타원 179"/>
        <g id="그룹_346" class="cls-3" data-name="그룹 346">
            <path id="패스_2075" d="M3.143 0h.025a3.144 3.144 0 0 1 3.143 3.144V66.6H0V3.143A3.143 3.143 0 0 1 3.143 0z" class="cls-4" data-name="패스 2075" transform="rotate(135 15.452 102.189)"/>
            <path id="사각형_246" d="M0 0h6.312v4.799H0z" class="cls-5" data-name="사각형 246" transform="rotate(-45 169.473 3.611)"/>
            <path id="패스_2076" d="M82.8 265.41l2.4-3.558 5.528 5.528-3.558 2.4z" class="cls-6" data-name="패스 2076" transform="translate(-45.868 -145.049)"/>
            <path id="패스_2077" d="M106.747 242.87l3.4-2.427 3.883 3.884-2.427 3.4z" class="cls-6" data-name="패스 2077" transform="translate(-59.131 -133.19)"/>
            <path id="패스_2078" d="M1.816 0h8.04a1.816 1.816 0 0 1 1.816 1.816v6.667A1.816 1.816 0 0 1 9.856 10.3h-8.04A1.816 1.816 0 0 1 0 8.483V1.816A1.816 1.816 0 0 1 1.816 0z" class="cls-7" data-name="패스 2078" transform="rotate(135 3.142 68.679)"/>
            <path id="패스_2079" d="M1.1 0h3.98a1.1 1.1 0 0 1 1.1 1.1v7.413a1.1 1.1 0 0 1-1.1 1.1H1.1a1.1 1.1 0 0 1-1.1-1.1V1.1A1.1 1.1 0 0 1 1.1 0z" class="cls-7" data-name="패스 2079" transform="rotate(135 -4.41 71.807)"/>
            <path id="패스_2080" d="M113 237.707l4 4a.4.4 0 0 0 .657-.131l2.24-5.441a1.016 1.016 0 0 0-1.326-1.326l-5.441 2.24a.4.4 0 0 0-.131.657z" class="cls-7" data-name="패스 2080" transform="translate(-62.53 -130.027)"/>
            <path id="패스_2081" d="M183.05 250.808s-1.21 3.63-6.049 8.469l-22.785 22.785a4.275 4.275 0 0 0 5.153 6.73c.444-.231 16.019-15.8 22.068-21.853s7.663-5.239 7.663-5.239c5.243.4 5.243-1.21 5.243-1.21l-.807-3.226c6.049-1.21 6.856-6.049 6.856-6.049l-.4-2.016-8.469 2.016-1.613-4.839 8.872-2.42s-4.033-7.259-10.485-3.226c-.005-.004-2.827 2.013-5.247 10.078zm-27.423 32.262a2.281 2.281 0 1 1 0 3.226 2.281 2.281 0 0 1 0-3.226z" class="cls-8" data-name="패스 2081" transform="translate(-84.731 -132.671)"/>
            <path id="패스_2082" d="M167.5 306.335a2.566 2.566 0 0 0 3.629 0l19.357-19.357a2.566 2.566 0 0 0 0-3.629 2.566 2.566 0 0 0-3.629 0L167.5 302.705a2.566 2.566 0 0 0 0 3.63z" class="cls-9" data-name="패스 2082" transform="translate(-92.365 -156.54)"/>
            <path id="패스_2083" d="M229.454 240.726c6.452-4.033 10.485 3.226 10.485 3.226l-8.872 2.42 1.613 4.839 8.469-2.016.4 2.016s-.807 4.839-6.856 6.049l.807 3.226s-.011 1.18-3.307 1.266l-4.924-18.252a9.769 9.769 0 0 1 2.185-2.774z" class="cls-9" data-name="패스 2083" transform="translate(-125.892 -132.671)"/>
            <path id="사각형_247" d="M0 0h6.844v4.563H0z" class="cls-9" data-name="사각형 247" transform="rotate(-105.01 99.18 24.673)"/>
            <path id="패스_2084" d="M206.927 281.867l4.005 8.125-2.315 2.315-3.163-8.967z" class="cls-10" data-name="패스 2084" transform="translate(-113.809 -156.136)"/>
            <path id="패스_2085" d="M202.919 286.771l3.113 9.017-1.54 1.54-2.324-9.8z" class="cls-10" data-name="패스 2085" transform="translate(-111.988 -158.853)"/>
            <path id="패스_2086" d="M8.773 0H10a8.663 8.663 0 0 1 8.66 8.663v12.971h-7.137A11.523 11.523 0 0 1 0 10.111V8.773A8.773 8.773 0 0 1 8.773 0z" class="cls-11" data-name="패스 2086" transform="rotate(-11.039 437.578 -130.04)"/>
            <path id="패스_2087" d="M99.674 198.343l-3.919.765a7.782 7.782 0 0 1-9.129-6.148 5.925 5.925 0 0 1 4.681-6.95 5.851 5.851 0 0 1 6.863 4.622z" class="cls-12" data-name="패스 2087" transform="translate(-47.924 -102.977)"/>
            <path id="패스_2088" d="M103.434 198.791l6.466-1.261-2.483-12.73a8.66 8.66 0 0 0-9.125-6.976c.345 3.646 1.647 14.717 5.142 20.967z" class="cls-13" data-name="패스 2088" transform="translate(-54.447 -98.49)"/>
            <path id="패스_2089" d="M11.524 0h7.137v12.971A8.663 8.663 0 0 1 10 21.634H8.773A8.773 8.773 0 0 1 0 12.862v-1.339A11.523 11.523 0 0 1 11.524 0z" class="cls-11" data-name="패스 2089" transform="rotate(-168.961 62.894 45.708)"/>
            <path id="패스_2090" d="M227.008 198.343l3.919.765a7.782 7.782 0 0 0 9.129-6.148 5.925 5.925 0 0 0-4.681-6.95 5.851 5.851 0 0 0-6.863 4.622z" class="cls-12" data-name="패스 2090" transform="translate(-125.748 -102.977)"/>
            <path id="패스_2091" d="M225.172 198.791l-6.466-1.261 2.484-12.73a8.66 8.66 0 0 1 9.125-6.976c-.346 3.645-1.647 14.717-5.143 20.967z" class="cls-13" data-name="패스 2091" transform="translate(-121.149 -98.489)"/>
            <path id="패스_2092" d="M162.048 270.438a7.077 7.077 0 0 1-7.068-6.72l-.552-10.9h15.241l-.552 10.9a7.077 7.077 0 0 1-7.069 6.72z" class="cls-11" data-name="패스 2092" transform="translate(-85.543 -140.045)"/>
            <path id="패스_2093" d="M154.713 258.438a30.84 30.84 0 0 0 7.314.847h.044a30.84 30.84 0 0 0 7.314-.847l.285-5.62h-15.242z" class="cls-12" data-name="패스 2093" transform="translate(-85.543 -140.045)"/>
            <path id="패스_2094" d="M164.076 115c0-34.509-29.674-34.359-30.534-34.347-.859-.012-30.534-.162-30.534 34.347 0 0-2.45 45.011 30.512 45.052h.044c32.963-.043 30.512-45.052 30.512-45.052z" class="cls-11" data-name="패스 2094" transform="translate(-57.038 -44.675)"/>
            <path id="패스_2095" d="M131.9 108.084h3.286c16.414 0 24.978 5.859 28.926 9.887.025-1.866-.035-2.973-.035-2.973 0-34.509-29.674-34.359-30.534-34.347-.859-.012-30.534-.162-30.534 34.347 0 0-.06 1.107-.035 2.973 3.949-4.028 12.512-9.887 28.926-9.887z" class="cls-12" data-name="패스 2095" transform="translate(-57.038 -44.675)"/>
            <path id="패스_2096" d="M167.475 189.649h-.005c-2.411 0-3.25 3.2-3.25 5.947s1.243-.517 3.253-.52 3.253 3.27 3.253.52-.84-5.942-3.251-5.947z" class="cls-14" data-name="패스 2096" transform="translate(-90.967 -105.053)"/>
            <path id="패스_2097" d="M164.828 203.433c.469.105 1.523-1.614 2.981-1.616 1.417 0 2.452 1.626 2.94 1.621" class="cls-15" data-name="패스 2097" transform="translate(-91.304 -111.793)"/>
            <path id="패스_2098" d="M169.057 219.152s-2.267 3.048-9.646 3.048h-1c-7.379 0-9.646-3.048-9.646-3.048" class="cls-16" data-name="패스 2098" transform="translate(-82.404 -121.396)"/>
            <path id="패스_2099" d="M195.6 157.794a10.475 10.475 0 0 1 6.988 2.156" class="cls-17" data-name="패스 2099" transform="translate(-108.347 -87.397)"/>
            <path id="패스_2100" d="M138.75 157.794a10.475 10.475 0 0 0-6.988 2.156" class="cls-17" data-name="패스 2100" transform="translate(-72.987 -87.397)"/>
            <path id="패스_2101" d="M171.5 272.369s21.807-5.5 38.089 20.147 26.764 48.844 12.49 80.738H210.7s5.8-46.837-17.4-78.507z" class="cls-18" data-name="패스 2101" transform="translate(-94.999 -150.601)"/>
            <path id="패스_2102" d="M155.755 548.219c-6.291-.892-7.743-5.055-7.743-5.055 6.935-40.458 9.508-71.376 9.364-95.012h-62.73c-.144 23.635 2.43 54.553 9.364 95.012 0 0-1.452 4.163-7.743 5.055s-6.9 1.784-6.9 4.312 16.453 1.487 23.832 1.487 7.743-2.825 7.743-7.732-1.6-68.685 5.064-68.694c6.667.009 5.064 63.787 5.064 68.694s.363 7.732 7.743 7.732 23.832 1.041 23.832-1.487-.599-3.42-6.89-4.312z" class="cls-19" data-name="패스 2102" transform="translate(-49.506 -248.247)"/>
            <rect id="사각형_248" width="12.044" height="7.063" class="cls-14" data-name="사각형 248" rx="3.531" transform="translate(53.644 85.935)"/>
            <circle id="타원_180" cx=".52" cy=".52" r=".52" class="cls-12" data-name="타원 180" transform="translate(53.286 86.269)"/>
            <circle id="타원_181" cx=".52" cy=".52" r=".52" class="cls-12" data-name="타원 181" transform="translate(54.837 88.509)"/>
            <circle id="타원_182" cx=".52" cy=".52" r=".52" class="cls-12" data-name="타원 182" transform="translate(51.994 89.122)"/>
            <circle id="타원_183" cx=".52" cy=".52" r=".52" class="cls-12" data-name="타원 183" transform="translate(56.854 87.492)"/>
            <circle id="타원_184" cx=".52" cy=".52" r=".52" class="cls-12" data-name="타원 184" transform="translate(58.248 89.527)"/>
            <circle id="타원_185" cx=".52" cy=".52" r=".52" class="cls-12" data-name="타원 185" transform="translate(60.223 88.328)"/>
            <rect id="사각형_249" width="12.044" height="7.063" class="cls-14" data-name="사각형 249" rx="3.531" transform="rotate(180 49.683 46.498)"/>
            <circle id="타원_186" cx=".52" cy=".52" r=".52" class="cls-12" data-name="타원 186" transform="translate(98.684 86.269)"/>
            <circle id="타원_187" cx=".52" cy=".52" r=".52" class="cls-12" data-name="타원 187" transform="translate(97.132 88.509)"/>
            <circle id="타원_188" cx=".52" cy=".52" r=".52" class="cls-12" data-name="타원 188" transform="translate(99.976 89.122)"/>
            <circle id="타원_189" cx=".52" cy=".52" r=".52" class="cls-12" data-name="타원 189" transform="translate(95.115 87.492)"/>
            <circle id="타원_190" cx=".52" cy=".52" r=".52" class="cls-12" data-name="타원 190" transform="translate(93.721 89.527)"/>
            <circle id="타원_191" cx=".52" cy=".52" r=".52" class="cls-12" data-name="타원 191" transform="translate(91.747 88.328)"/>
            <ellipse id="타원_192" cx="2.565" cy="5.278" class="cls-20" data-name="타원 192" rx="2.565" ry="5.278" transform="translate(87.322 78.203)"/>
            <ellipse id="타원_193" cx="2.565" cy="5.278" class="cls-20" data-name="타원 193" rx="2.565" ry="5.278" transform="translate(60.558 78.203)"/>
            <path id="패스_2103" d="M144.266 117.456s-3.609 12.731 14.454 14.052a1.216 1.216 0 0 0 1.208-1.692 3.393 3.393 0 0 1-.273-1.543 14.911 14.911 0 0 0 7.737 1.427 1.223 1.223 0 0 0 .6-2.242c-2.224-1.505-5.44-7.086-5.44-11.731 0 0-13.035-2.275-18.285 1.729z" class="cls-21" data-name="패스 2103" transform="translate(-79.751 -63.749)"/>
            <path id="패스_2104" d="M150.13 128.3c.694 4.254 2.974 4.684 4.758 5.576s-1.041-2.528.074-2.528 1.413 1.561 1.784 1.264-1.561-5.8-2.082-5.055.372 3.345-.446 2.6-4.682-5.501-4.088-1.857z" class="cls-22" data-name="패스 2104" transform="translate(-83.128 -70.317)"/>
            <path id="패스_2105" d="M183.621 112.63s11.659 19.835 23.867 22.694a2.089 2.089 0 0 0 2.505-2.465c-1.314-6.329-6.514-21.101-26.372-20.229z" class="cls-21" data-name="패스 2105" transform="translate(-101.714 -62.369)"/>
            <path id="패스_2106" d="M125.43 112.63s-11.659 19.835-23.867 22.694a2.089 2.089 0 0 1-2.505-2.465c1.314-6.329 6.514-21.101 26.372-20.229z" class="cls-21" data-name="패스 2106" transform="translate(-54.847 -62.369)"/>
            <path id="패스_2107" d="M163.565 100.834L162.4 90.268A18.6 18.6 0 0 0 152.85 76l-7.389-4.051a30.7 30.7 0 0 0-29.521 0L108.561 76a18.6 18.6 0 0 0-9.547 14.27l-1.168 10.567L117.4 88.456l13.307-.816 13.307.816z" class="cls-23" data-name="패스 2107" transform="translate(-54.2 -37.76)"/>
            <path id="패스_2108" d="M159.823 130.271a2.9 2.9 0 0 1-2.729-1.92c-.27-.738-6.551-17.15-29.066-17.15h-3.285c-22.7 0-29 16.97-29.063 17.141a2.9 2.9 0 0 1-5.463-1.943c.3-.857 7.776-21 34.527-21h3.285c26.751 0 34.222 20.14 34.527 21a2.9 2.9 0 0 1-2.732 3.872z" class="cls-24" data-name="패스 2108" transform="translate(-49.881 -58.386)"/>
            <path id="패스_2109" d="M141.18 90.293q.845-.366 1.705-.683a1.846 1.846 0 0 1 .5-.115.792.792 0 0 1 .407.065.572.572 0 0 1 .269.281 1.063 1.063 0 0 1 .078.517 1.769 1.769 0 0 1-.4 1.094 2.363 2.363 0 0 1-1 .655q-.393.145-.783.3l-.082 1.25q-.478.19-.951.395zm.82 1.357q.318-.126.637-.246a.953.953 0 0 0 .38-.248.642.642 0 0 0 .16-.406q.015-.252-.118-.322a.445.445 0 0 0-.362.015q-.318.119-.634.245l-.063.961z" class="cls-25" data-name="패스 2109" transform="translate(-78.058 -49.572)"/>
            <path id="패스_2110" d="M149.283 87.409q1.464-.446 2.956-.755l-.028.776q-1.007.209-2 .48l-.031.653q.913-.249 1.837-.445l-.028.75q-.927.2-1.844.447l-.033.71q1.034-.281 2.079-.5l-.03.833q-1.547.319-3.068.781.093-1.864.19-3.73z" class="cls-25" data-name="패스 2110" transform="translate(-82.586 -48.001)"/>
            <path id="패스_2111" d="M157.6 85.949q.956-.177 1.92-.3a1.849 1.849 0 0 1 .494 0 1.151 1.151 0 0 1 .421.142.78.78 0 0 1 .292.3.905.905 0 0 1 .1.46 1.15 1.15 0 0 1-.164.58 1.023 1.023 0 0 1-.451.407v.01a.478.478 0 0 1 .247.1.584.584 0 0 1 .163.2 1.2 1.2 0 0 1 .093.253 1.571 1.571 0 0 1 .041.284v.062l.012.237q.004.072.021.187a1.674 1.674 0 0 0 .043.206.268.268 0 0 0 .068.129q-.5.041-1 .1a.435.435 0 0 1-.066-.2q-.019-.14-.031-.315v-.062a2.179 2.179 0 0 0-.029-.295.687.687 0 0 0-.078-.219.355.355 0 0 0-.163-.149.493.493 0 0 0-.272-.027q-.377.05-.754.108l-.037 1.352q-.5.077-1 .17.07-1.863.13-3.72zm.935 1.445q.415-.064.831-.118a.467.467 0 0 0 .468-.493.3.3 0 0 0-.135-.282.538.538 0 0 0-.356-.056q-.393.051-.785.112l-.023.837z" class="cls-25" data-name="패스 2111" transform="translate(-87.233 -47.436)"/>
            <path id="패스_2112" d="M165.975 88.08q1-1.114 1.982-2.171-.92.013-1.838.076l.01-.83q1.552-.107 3.107-.07v.747q-1 1.04-2.018 2.139 1.048-.037 2.1-.01v.83q-1.68-.043-3.359.078.011-.394.016-.789z" class="cls-25" data-name="패스 2112" transform="translate(-91.934 -47.127)"/>
            <path id="패스_2113" d="M178.04 87.622a1.412 1.412 0 0 1-.376 1.158 1.664 1.664 0 0 1-1.264.257 1.994 1.994 0 0 1-1.28-.49 1.7 1.7 0 0 1-.418-1.231l-.016-2.174q.495.021.989.056l.029 2.232a.861.861 0 0 0 .163.556.737.737 0 0 0 .52.22.608.608 0 0 0 .514-.125.727.727 0 0 0 .145-.528L177 85.32q.493.055.984.124l.056 2.178z" class="cls-25" data-name="패스 2113" transform="translate(-96.764 -47.164)"/>
            <path id="패스_2114" d="M183.088 85.968q.723.112 1.441.256.366 1.3.74 2.615h.011q.278-1.168.546-2.331.714.172 1.421.376l.184 3.73q-.461-.133-.924-.252l-.126-2.828h-.01q-.328 1.313-.67 2.633-.378-.088-.757-.167-.452-1.495-.894-2.977h-.011l.091 2.82q-.469-.086-.94-.159l-.102-3.716z" class="cls-25" data-name="패스 2114" transform="translate(-101.419 -47.621)"/>
            <path id="패스_2115" d="M194.9 89.279q.482.168.959.351.794 2.132 1.606 4.3-.493-.214-.992-.411l-.269-.761q-.639-.248-1.284-.469l-.2.591q-.5-.167-1-.318.607-1.65 1.18-3.283zm.2 2.369q.418.146.833.3l-.485-1.462h-.01q-.167.58-.337 1.162z" class="cls-25" data-name="패스 2115" transform="translate(-107.309 -49.455)"/>
            <path id="패스_2116" d="M81.847 497.726s4.089-.3 5.613 2.937.112 5.2-.781 5.5-2.23-.855-3.011-2.974-1.821-5.463-1.821-5.463z" class="cls-11" data-name="패스 2116" transform="translate(-45.338 -275.704)"/>
            <path id="패스_2117" d="M81.18 505.281s3.324-.189 4.563 1.871.091 3.315-.635 3.5-1.813-.545-2.448-1.894-1.48-3.477-1.48-3.477z" class="cls-12" data-name="패스 2117" transform="translate(-44.969 -279.891)"/>
            <path id="패스_2118" d="M66.436 496.471s.565 5.863 3.284 6.569 3.108 5.969.318 7.664-14.55 4.979-16.7-4.98 7.982-11.3 7.982-11.3 4.98.14 5.116 2.047z" class="cls-11" data-name="패스 2118" transform="translate(-29.377 -273.878)"/>
            <path id="패스_2119" d="M253.345 497.726s-4.089-.3-5.613 2.937-.112 5.2.781 5.5 2.23-.855 3.011-2.974 1.821-5.463 1.821-5.463z" class="cls-11" data-name="패스 2119" transform="translate(-136.854 -275.704)"/>
            <path id="패스_2120" d="M255.473 505.281s-3.324-.189-4.563 1.871-.091 3.315.635 3.5 1.813-.545 2.448-1.894 1.48-3.477 1.48-3.477z" class="cls-12" data-name="패스 2120" transform="translate(-138.684 -279.891)"/>
            <path id="패스_2121" d="M253.067 496.471s-.565 5.863-3.284 6.569-3.108 5.968-.318 7.664 14.55 4.98 16.7-4.98-7.982-11.3-7.982-11.3-4.975.14-5.116 2.047z" class="cls-11" data-name="패스 2121" transform="translate(-137.126 -273.879)"/>
            <path id="패스_2122" d="M62.248 293c-15.863 24.99-26.222 47.652-13.54 78.3a3.97 3.97 0 0 0 3.671 2.439h5.847a2.646 2.646 0 0 0 2.641-2.846c-.812-10.6-2.116-48.559 17.59-75.563a1.724 1.724 0 0 1 .158-.187l16.522-16.954-4.918-5.443C82.42 273.957 71.452 278.5 62.248 293z" class="cls-26" data-name="패스 2122" transform="translate(-23.838 -151.084)"/>
            <path id="패스_2123" d="M50.231 478.361c4.243 1.573 9.853-.6 9.853-.6a19.1 19.1 0 0 1-11.1-3.333q.557 1.946 1.247 3.933z" class="cls-27" data-name="패스 2123" transform="translate(-27.131 -262.804)"/>
            <ellipse id="타원_194" cx="1.264" cy="1.636" class="cls-27" data-name="타원 194" rx="1.264" ry="1.636" transform="rotate(-22.593 558.647 45.3)"/>
            <path id="패스_2124" d="M100.874 292.652a40.724 40.724 0 0 0-5.544 3.688c-5.784 5.493-12.32 10.6-17.195 16.836A74.4 74.4 0 0 0 67.1 332.789a105.474 105.474 0 0 0-5.732 26.2 124.973 124.973 0 0 0-.311 23.145 2.385 2.385 0 0 1-1.169 2.218 4.244 4.244 0 0 0 1.825.416h5.847a2.535 2.535 0 0 0 2.641-2.633c-.812-9.808-2.116-44.939 17.59-69.929l.158-.173 16.522-15.69z" class="cls-28" data-name="패스 2124" transform="translate(-33.177 -162.11)"/>
            <path id="패스_2125" d="M216.049 293c15.863 24.99 26.222 47.652 13.54 78.3a3.97 3.97 0 0 1-3.671 2.439h-5.847a2.646 2.646 0 0 1-2.641-2.846c.812-10.6 2.116-48.559-17.59-75.563a1.725 1.725 0 0 0-.158-.187l-16.522-16.954 4.918-5.443c7.799 1.211 18.768 5.754 27.971 20.254z" class="cls-26" data-name="패스 2125" transform="translate(-101.459 -151.084)"/>
            <path id="패스_2126" d="M278.979 478.361c-4.243 1.573-9.853-.6-9.853-.6a19.1 19.1 0 0 0 11.1-3.333q-.556 1.946-1.247 3.933z" class="cls-27" data-name="패스 2126" transform="translate(-149.079 -262.804)"/>
            <ellipse id="타원_195" cx="1.636" cy="1.264" class="cls-27" data-name="타원 195" rx="1.636" ry="1.264" transform="rotate(-67.407 226.995 17.165)"/>
            <path id="패스_2127" d="M186.762 292.652a40.725 40.725 0 0 1 5.544 3.688c5.784 5.493 12.32 10.6 17.195 16.836a74.4 74.4 0 0 1 11.031 19.613 105.473 105.473 0 0 1 5.732 26.2 124.974 124.974 0 0 1 .311 23.145 2.385 2.385 0 0 0 1.169 2.218 4.244 4.244 0 0 1-1.825.416h-5.847a2.535 2.535 0 0 1-2.641-2.633c.812-9.808 2.116-44.939-17.59-69.929l-.158-.173-16.522-15.69z" class="cls-28" data-name="패스 2127" transform="translate(-101.459 -162.11)"/>
            <path id="패스_2128" d="M133.709 282.277h-20.616c-11.564 5.431-28.69 22.674-28.431 77.186a15.758 15.758 0 0 0 15.774 15.651h11.313a11.812 11.812 0 0 0 11.362-8.171l.291-.94.291.94a11.812 11.812 0 0 0 11.362 8.171h11.313a15.758 15.758 0 0 0 15.774-15.651c.258-54.512-16.869-71.755-28.433-77.186z" class="cls-29" data-name="패스 2128" transform="translate(-46.896 -156.363)"/>
            <path id="패스_2129" d="M163.6 446.481l-.008-1.33H98.2l-.008 1.33c-.157 25.862 2.977 57.772 9.316 94.85h19.621c-.1-6.867-.3-22.017.168-36.089.785-23.537 2.938-27.309 3.6-27.912.66.6 2.814 4.375 3.6 27.912.469 14.072.267 29.221.168 36.089h19.615c6.339-37.082 9.473-68.989 9.32-94.85z" class="cls-30" data-name="패스 2129" transform="translate(-54.387 -246.585)"/>
            <path id="패스_2130" d="M98.188 446.481c-.07 11.5.513 24.2 1.737 38.011l3.642-1.016a15.3 15.3 0 0 0 11.19-14.564l.275-23.76H98.2z" class="cls-31" data-name="패스 2130" transform="translate(-54.387 -246.585)"/>
            <path id="선_11" d="M0 .402L1.276 0" class="cls-32" data-name="선 11" transform="translate(46.26 234.575)"/>
            <path id="패스_2131" d="M111.492 518.027a12.545 12.545 0 0 0 6.13-5.044" class="cls-33" data-name="패스 2131" transform="translate(-61.759 -284.16)"/>
            <path id="패스_2132" d="M126.547 478.156a15.31 15.31 0 0 0 1.782-7.066l.2-19.184" class="cls-34" data-name="패스 2132" transform="translate(-70.099 -250.327)"/>
            <path id="선_12" d="M0 1.338L.013 0" class="cls-32" data-name="선 12" transform="translate(58.439 199.086)"/>
            <path id="패스_2133" d="M223.912 446.481c.07 11.5-.513 24.2-1.737 38.011l-3.642-1.016a15.3 15.3 0 0 1-11.19-14.564l-.275-23.76H223.9z" class="cls-31" data-name="패스 2133" transform="translate(-114.703 -246.585)"/>
            <path id="선_13" d="M1.276.402L0 0" class="cls-32" data-name="선 13" transform="translate(105.474 234.575)"/>
            <path id="패스_2134" d="M223.917 518.027a12.545 12.545 0 0 1-6.13-5.044" class="cls-33" data-name="패스 2134" transform="translate(-120.64 -284.16)"/>
            <path id="패스_2135" d="M214.018 478.156a15.31 15.31 0 0 1-1.782-7.066l-.2-19.184" class="cls-34" data-name="패스 2135" transform="translate(-117.456 -250.327)"/>
            <path id="선_14" d="M.014 1.338L0 0" class="cls-32" data-name="선 14" transform="translate(94.558 199.086)"/>
            <path id="패스_2136" d="M163.587 445.152H98.2l-.008 1.33q-.072 11.878.78 25.433a15.729 15.729 0 0 0 8.958 2.789h11.313a11.812 11.812 0 0 0 11.362-8.171l.291-.94.291.94a11.812 11.812 0 0 0 11.362 8.171h11.313a15.729 15.729 0 0 0 8.959-2.789q.85-13.541.78-25.433z" class="cls-35" data-name="패스 2136" transform="translate(-54.387 -246.586)"/>
            <path id="패스_2137" d="M133.709 282.277h-20.616c-11.564 5.431-28.69 22.674-28.431 77.186a15.758 15.758 0 0 0 15.774 15.651h11.313a11.812 11.812 0 0 0 11.362-8.171l.291-.94.291.94a11.812 11.812 0 0 0 11.362 8.171h11.313a15.758 15.758 0 0 0 15.774-15.651c.258-54.512-16.869-71.755-28.433-77.186z" class="cls-26" data-name="패스 2137" transform="translate(-46.896 -156.363)"/>
            <path id="패스_2138" d="M164.666 271.061a1.031 1.031 0 0 0-.464-.495l-3.165-1.639a2.493 2.493 0 0 0-2.722.283l-6.628 5.411-6.628-5.411a2.493 2.493 0 0 0-2.722-.283l-3.165 1.639a1.031 1.031 0 0 0-.464.495c-.936.231-1.9.51-2.9.849.494 4.3 2.965 14.368 15.3 14.368h1.159c12.331 0 14.8-10.067 15.3-14.368a35.545 35.545 0 0 0-2.901-.849z" class="cls-36" data-name="패스 2138" transform="translate(-75.23 -148.814)"/>
            <path id="패스_2139" d="M148.625 269.192l6.631 5.414-5.041 6.682a2.162 2.162 0 0 1-3.681-.377l-4.258-8.994a1.04 1.04 0 0 1 .462-1.369l3.165-1.639a2.493 2.493 0 0 1 2.722.283z" class="cls-26" data-name="패스 2139" transform="translate(-78.756 -148.804)"/>
            <path id="패스_2140" d="M178.132 269.192l-6.631 5.414 5.041 6.682a2.163 2.163 0 0 0 3.681-.377l4.258-8.994a1.04 1.04 0 0 0-.462-1.369l-3.165-1.639a2.493 2.493 0 0 0-2.722.283z" class="cls-26" data-name="패스 2140" transform="translate(-95.001 -148.804)"/>
            <circle id="타원_196" cx="1.989" cy="1.989" r="1.989" class="cls-26" data-name="타원 196" transform="translate(74.516 131.322)"/>
            <circle id="타원_197" cx="1.989" cy="1.989" r="1.989" class="cls-36" data-name="타원 197" transform="translate(75.102 167.518)"/>
            <circle id="타원_198" cx="1.989" cy="1.989" r="1.989" class="cls-37" data-name="타원 198" transform="translate(74.516 166.933)"/>
            <circle id="타원_199" cx="1.989" cy="1.989" r="1.989" class="cls-36" data-name="타원 199" transform="translate(75.102 185.584)"/>
            <circle id="타원_200" cx="1.989" cy="1.989" r="1.989" class="cls-37" data-name="타원 200" transform="translate(74.516 184.998)"/>
            <circle id="타원_201" cx="1.989" cy="1.989" r="1.989" class="cls-36" data-name="타원 201" transform="translate(75.102 203.65)"/>
            <circle id="타원_202" cx="1.989" cy="1.989" r="1.989" class="cls-29" data-name="타원 202" transform="translate(74.516 203.064)"/>
            <path id="사각형_250" d="M0 0h60.219v9.367H0z" class="cls-38" data-name="사각형 250" transform="translate(46.396 196.782)"/>
            <path id="패스_2141" d="M111.546 302.533a245.173 245.173 0 0 0-16.672 56.427l9.256 3.457a245.172 245.172 0 0 1 16.67-56.427h8.252v-11.375h-6.245c-4.012-2.148-5.108-13.19-5.407-19.064a2.646 2.646 0 0 0-3.6-2.326l-5.372 2.092a2.644 2.644 0 0 0-1.685 2.568c.167 4.35.974 15.388 4.803 24.648z" class="cls-38" data-name="패스 2141" transform="translate(-52.554 -151.249)"/>
            <rect id="사각형_251" width="11.557" height="9.293" class="cls-39" data-name="사각형 251" rx="4.312" transform="rotate(19.52 -455.615 235.097)"/>
            <rect id="사각형_252" width="12.663" height="14.441" class="cls-40" data-name="사각형 252" rx="3.962" transform="rotate(-10.463 739.332 -227.454)"/>
            <path id="패스_2142" d="M0 0h1.756v10.385a.878.878 0 0 1-.878.878.878.878 0 0 1-.878-.878z" class="cls-41" data-name="패스 2142" transform="rotate(-10.463 742.693 -257.79)"/>
            <path id="패스_2143" d="M120.847 292.812l.874 4.733a3.7 3.7 0 0 0 3.4 1.091l6.269-1.158a3.7 3.7 0 0 0 2.785-2.233l-.874-4.734a1.669 1.669 0 0 0-.242-.6l-12.2 2.253a1.669 1.669 0 0 0-.012.647z" class="cls-42" data-name="패스 2143" transform="translate(-66.927 -160.593)"/>
            <path id="패스_2144" d="M0 0h12.93v3.68a3.457 3.457 0 0 1-3.457 3.457H3.457A3.457 3.457 0 0 1 0 3.68V0z" class="cls-40" data-name="패스 2144" transform="rotate(-10.463 732.394 -226.079)"/>
            <path id="패스_2145" d="M132.059 284.479l.668 3.619a3.457 3.457 0 0 1-2.772 4.027l-5.916 1.093a3.457 3.457 0 0 1-4.027-2.772l-.668-3.619" class="cls-43" data-name="패스 2145" transform="translate(-66.108 -157.583)"/>
            <circle id="타원_203" cx="1.245" cy="1.245" r="1.245" class="cls-41" data-name="타원 203" transform="translate(59.436 131.415)"/>
            <circle id="타원_204" cx="1.245" cy="1.245" r="1.245" class="cls-38" data-name="타원 204" transform="translate(59.086 130.828)"/>
            <path id="패스_2146" d="M79.069 429.393s-1.041 7.806-1.338 10.259.855 2.714 1.71 3.308 8.958 3.271 9.665 3.531a5.932 5.932 0 0 0 3.829-.3c1.487-.632 2.453-.595 3.048-3.271s3.383-16.839 3.383-16.839l-11.71-4.681z" class="cls-40" data-name="패스 2146" transform="translate(-43.031 -233.429)"/>
            <path id="패스_2147" d="M108.28 448.03c.594-2.675 3.38-16.826 3.383-16.838l-.74-.3-.037-.015-.261-.1c-5.237-1.843-7.033 13.087-7.7 17.291-.439 2.781-2 2.805-3.044 3.011.784.267 1.355.46 1.52.521a5.931 5.931 0 0 0 3.829-.3c1.489-.631 2.455-.593 3.05-3.27z" class="cls-42" data-name="패스 2147" transform="translate(-55.329 -238.536)"/>
            <path id="패스_2148" d="M0 0h1.9v8.419a.948.948 0 0 1-.948.948A.948.948 0 0 1 0 8.419z" class="cls-41" data-name="패스 2148" transform="rotate(9.25 -1200.789 350.014)"/>
            <path id="패스_2149" d="M89.887 419.231a5.182 5.182 0 0 0-3.373-.38c-5.262 1.181-5.063 2.592-5.871 6.885-.892 4.739-.167 4.126 2.955 5.632s6.691 3.067 8.029 3.067 2.063-1.617 2.732-4.182.781-5.743 6.3-5.855z" class="cls-40" data-name="패스 2149" transform="translate(-44.475 -231.946)"/>
            <path id="패스_2150" d="M88.151 418.818c-6.914.632-6.7 2.676-7.509 6.97-.892 4.739-.167 4.126 2.955 5.632s6.691 3.067 8.029 3.067 2.063-1.617 2.732-4.182.781-5.743 6.3-5.855" class="cls-44" data-name="패스 2150" transform="translate(-44.474 -231.998)"/>
            <ellipse id="타원_205" cx="1.859" cy="1.485" class="cls-42" data-name="타원 205" rx="1.859" ry="1.485" transform="rotate(-75.982 147.23 73.38)"/>
            <ellipse id="타원_206" cx="1.859" cy="1.485" class="cls-38" data-name="타원 206" rx="1.859" ry="1.485" transform="rotate(-75.982 146.452 73.487)"/>
            <path id="패스_2151" d="M189 302.533a245.173 245.173 0 0 1 16.672 56.427l-9.256 3.457a245.173 245.173 0 0 0-16.672-56.427h-8.252v-11.375h6.245c4.012-2.148 5.108-13.19 5.407-19.064a2.646 2.646 0 0 1 3.6-2.326l5.372 2.092a2.644 2.644 0 0 1 1.685 2.568c-.164 4.35-.971 15.388-4.801 24.648z" class="cls-38" data-name="패스 2151" transform="translate(-94.996 -151.249)"/>
            <rect id="사각형_253" width="11.557" height="9.293" class="cls-39" data-name="사각형 253" rx="4.312" transform="scale(-1) rotate(-19.52 -559.175 214.455)"/>
            <rect id="사각형_254" width="12.663" height="14.441" class="cls-40" data-name="사각형 254" rx="3.962" transform="scale(-1) rotate(10.49 739.917 -599.65)"/>
            <path id="패스_2152" d="M.878 0a.878.878 0 0 1 .878.878v10.385H0V.878A.878.878 0 0 1 .878 0z" class="cls-41" data-name="패스 2152" transform="scale(-1) rotate(10.49 725.957 -570.963)"/>
            <path id="패스_2153" d="M205.562 292.812l-.874 4.733a3.7 3.7 0 0 1-3.4 1.091l-6.269-1.158a3.7 3.7 0 0 1-2.785-2.233l.874-4.734a1.669 1.669 0 0 1 .242-.6l12.2 2.253a1.669 1.669 0 0 1 .012.647z" class="cls-42" data-name="패스 2153" transform="translate(-106.486 -160.593)"/>
            <path id="패스_2154" d="M3.457 0h6.016a3.457 3.457 0 0 1 3.457 3.457v3.68H0v-3.68A3.457 3.457 0 0 1 3.457 0z" class="cls-40" data-name="패스 2154" transform="scale(-1) rotate(10.49 693.195 -604.647)"/>
            <path id="패스_2155" d="M194.241 284.479l-.668 3.619a3.457 3.457 0 0 0 2.772 4.027l5.916 1.093a3.457 3.457 0 0 0 4.027-2.772l.668-3.619" class="cls-43" data-name="패스 2155" transform="translate(-107.195 -157.583)"/>
            <circle id="타원_207" cx="1.245" cy="1.245" r="1.245" class="cls-41" data-name="타원 207" transform="translate(91.07 131.415)"/>
            <circle id="타원_208" cx="1.245" cy="1.245" r="1.245" class="cls-38" data-name="타원 208" transform="translate(91.419 130.828)"/>
            <path id="패스_2156" d="M237 429.393s1.041 7.806 1.338 10.259-.855 2.714-1.71 3.308-8.958 3.271-9.665 3.531a5.932 5.932 0 0 1-3.829-.3c-1.487-.632-2.453-.595-3.048-3.271s-3.383-16.839-3.383-16.839l11.707-4.681z" class="cls-40" data-name="패스 2156" transform="translate(-120.038 -233.429)"/>
            <path id="패스_2157" d="M220.083 448.03c-.594-2.675-3.38-16.826-3.383-16.838l.74-.3.037-.015.261-.1c5.237-1.843 7.033 13.087 7.7 17.291.439 2.781 2 2.805 3.044 3.011-.784.267-1.355.46-1.52.521a5.931 5.931 0 0 1-3.829-.3c-1.488-.631-2.454-.593-3.05-3.27z" class="cls-42" data-name="패스 2157" transform="translate(-120.038 -238.536)"/>
            <path id="패스_2158" d="M.948 0A.948.948 0 0 1 1.9.948v8.419H0V.948A.948.948 0 0 1 .948 0z" class="cls-41" data-name="패스 2158" transform="rotate(170.75 48.213 108.774)"/>
            <path id="패스_2159" d="M227.807 419.231a5.182 5.182 0 0 1 3.373-.38c5.262 1.181 5.063 2.592 5.872 6.885.892 4.739.167 4.126-2.955 5.632s-6.691 3.067-8.029 3.067-2.063-1.617-2.732-4.182-.781-5.743-6.3-5.855z" class="cls-40" data-name="패스 2159" transform="translate(-120.223 -231.946)"/>
            <path id="패스_2160" d="M229.543 418.818c6.914.632 6.7 2.676 7.509 6.97.892 4.739.167 4.126-2.955 5.632s-6.691 3.067-8.029 3.067-2.063-1.617-2.732-4.182-.781-5.743-6.3-5.855" class="cls-44" data-name="패스 2160" transform="translate(-120.223 -231.998)"/>
            <ellipse id="타원_209" cx="1.485" cy="1.859" class="cls-42" data-name="타원 209" rx="1.485" ry="1.859" transform="rotate(-14.018 849.755 -344.871)"/>
            <ellipse id="타원_210" cx="1.485" cy="1.859" class="cls-38" data-name="타원 210" rx="1.485" ry="1.859" transform="rotate(-14.018 847.365 -348.026)"/>
            <rect id="사각형_255" width="12.081" height="12.081" class="cls-39" data-name="사각형 255" rx="6.04" transform="translate(70.415 142.957)"/>
            <rect id="사각형_256" width="10.347" height="10.347" class="cls-39" data-name="사각형 256" rx="5.173" transform="translate(71.282 196.292)"/>
        </g>
    </g>
</svg>
