<svg xmlns="http://www.w3.org/2000/svg" id="perzuman_round_02" width="115" height="115" viewBox="0 0 115 115">
    <defs>
        <style>
            .cls-1,.cls-15,.cls-16,.cls-31,.cls-35,.cls-36{fill:none}.cls-2,.cls-22{fill:#1173bc}.cls-2{opacity:.2}.cls-3{clip-path:url(#clip-path)}.cls-4{fill:#d48b1f}.cls-5{fill:#b17320}.cls-6{fill:#7c7b7c}.cls-7{fill:#939393}.cls-8{fill:#c0bfbf}.cls-9{fill:#6e6e6d}.cls-10,.cls-23{fill:#fff}.cls-10{opacity:.25}.cls-11,.cls-17{fill:#fdf4e0}.cls-12,.cls-13,.cls-14{fill:#fbd6b4}.cls-13{opacity:.49}.cls-14{opacity:.5}.cls-15{stroke:#f0b482}.cls-15,.cls-16,.cls-36{stroke-linecap:round}.cls-15,.cls-16,.cls-31,.cls-35,.cls-36{stroke-miterlimit:10}.cls-15,.cls-16,.cls-35,.cls-36{stroke-width:2px}.cls-16{stroke:#6f6859}.cls-17{opacity:.51}.cls-18{fill:#454e4d}.cls-19{fill:#464237}.cls-20{fill:#6e563f}.cls-21{fill:#1554a5}.cls-24{fill:#f5c71d}.cls-25,.cls-26{fill:#e6a015}.cls-26{opacity:.35}.cls-27{fill:#f5c820}.cls-28{fill:#f5b116}.cls-29{fill:#f4d823}.cls-30{fill:#534e3c}.cls-31{stroke:#2c2921;stroke-width:5px}.cls-32{fill:#3a362c}.cls-33{fill:#22201b}.cls-34{fill:#0e0e0d;opacity:.3}.cls-35,.cls-36{stroke:#ed6d30}.cls-37{fill:#f7bc92}
        </style>
        <clipPath id="clip-path">
            <circle id="타원_245" cx="57.5" cy="57.5" r="57.5" class="cls-1" data-name="타원 245"/>
        </clipPath>
    </defs>
    <g id="_03" data-name="3">
        <circle id="타원_212" cx="57.5" cy="57.5" r="57.5" class="cls-2" data-name="타원 212"/>
        <g id="그룹_347" class="cls-3" data-name="그룹 347">
            <path id="패스_2161" d="M2.363 0h.018a2.363 2.363 0 0 1 2.363 2.363v47.694H0V2.363A2.363 2.363 0 0 1 2.363 0z" class="cls-4" data-name="패스 2161" transform="rotate(135 11.614 76.809)"/>
            <path id="사각형_257" d="M0 0h4.744v3.607H0z" class="cls-5" data-name="사각형 257" transform="rotate(-45 127.382 2.714)"/>
            <path id="패스_2162" d="M82.8 264.526l1.8-2.674 4.155 4.155-2.674 1.8z" class="cls-6" data-name="패스 2162" transform="translate(-55.041 -174.059)"/>
            <path id="패스_2163" d="M106.747 242.267l2.554-1.824 2.919 2.919-1.824 2.554z" class="cls-6" data-name="패스 2163" transform="translate(-70.957 -159.828)"/>
            <path id="패스_2164" d="M1.365 0h6.043a1.365 1.365 0 0 1 1.365 1.365v5.011a1.365 1.365 0 0 1-1.365 1.365H1.365A1.365 1.365 0 0 1 0 6.376V1.365A1.365 1.365 0 0 1 1.365 0z" class="cls-7" data-name="패스 2164" transform="rotate(135 2.361 51.621)"/>
            <path id="패스_2165" d="M.826 0h2.992a.826.826 0 0 1 .826.826V6.4a.826.826 0 0 1-.826.826H.826A.826.826 0 0 1 0 6.4V.826A.826.826 0 0 1 .826 0z" class="cls-7" data-name="패스 2165" transform="rotate(135 -3.315 53.973)"/>
            <path id="패스_2166" d="M112.971 236.968l3.007 3.007a.3.3 0 0 0 .494-.1l1.684-4.089a.763.763 0 0 0-1-1l-4.089 1.684a.3.3 0 0 0-.1.494z" class="cls-7" data-name="패스 2166" transform="translate(-75.036 -156.032)"/>
            <path id="패스_2167" d="M175.577 248s-.909 2.728-4.547 6.365l-17.13 17.128a3.213 3.213 0 0 0 3.873 5.059c.333-.174 12.04-11.879 16.587-16.426s5.759-3.941 5.759-3.941c3.941.3 3.941-.909 3.941-.909l-.606-2.425c4.547-.909 5.153-4.547 5.153-4.547l-.3-1.516-6.365 1.516-1.212-3.637 6.669-1.819s-3.031-5.456-7.881-2.425c-.001 0-2.118 1.516-3.941 7.577zm-20.612 24.25a1.715 1.715 0 1 1 0 2.425 1.715 1.715 0 0 1 0-2.424z" class="cls-8" data-name="패스 2167" transform="translate(-101.677 -159.205)"/>
            <path id="패스_2168" d="M167.309 300.439a1.929 1.929 0 0 0 2.728 0l14.55-14.55a1.929 1.929 0 0 0 0-2.728 1.929 1.929 0 0 0-2.728 0l-14.55 14.55a1.929 1.929 0 0 0 0 2.728z" class="cls-9" data-name="패스 2168" transform="translate(-110.838 -187.848)"/>
            <path id="패스_2169" d="M228.911 240.423c4.85-3.031 7.881 2.425 7.881 2.425l-6.669 1.819 1.212 3.637 6.365-1.516.3 1.516s-.606 3.637-5.153 4.547l.606 2.425s-.008.887-2.486.952l-3.7-13.723a7.343 7.343 0 0 1 1.644-2.082z" class="cls-9" data-name="패스 2169" transform="translate(-151.071 -159.206)"/>
            <path id="사각형_258" d="M0 0h5.144v3.429H0z" class="cls-9" data-name="사각형 258" transform="rotate(-105.01 74.548 18.545)"/>
            <path id="패스_2170" d="M206.562 281.867l3.01 6.107-1.74 1.74-2.377-6.74z" class="cls-10" data-name="패스 2170" transform="translate(-136.571 -187.363)"/>
            <path id="패스_2171" d="M202.732 286.771l2.34 6.777-1.158 1.157-1.747-7.37z" class="cls-10" data-name="패스 2171" transform="translate(-134.385 -190.623)"/>
            <path id="패스_2172" d="M6.594 0h.92a6.512 6.512 0 0 1 6.512 6.512v9.749H8.661A8.661 8.661 0 0 1 0 7.6V6.594A6.594 6.594 0 0 1 6.594 0z" class="cls-11" data-name="패스 2172" transform="rotate(-11.039 328.898 -97.742)"/>
            <path id="패스_2173" d="M96.406 195.253l-2.946.575a5.85 5.85 0 0 1-6.861-4.621 4.453 4.453 0 0 1 3.518-5.224 4.4 4.4 0 0 1 5.158 3.474z" class="cls-12" data-name="패스 2173" transform="translate(-57.509 -123.573)"/>
            <path id="패스_2174" d="M102.157 193.578l4.86-.948-1.867-9.569a6.509 6.509 0 0 0-6.859-5.244c.26 2.741 1.239 11.063 3.866 15.761z" class="cls-13" data-name="패스 2174" transform="translate(-65.337 -118.187)"/>
            <path id="패스_2175" d="M8.662 0h5.364v9.749a6.512 6.512 0 0 1-6.512 6.512h-.92A6.594 6.594 0 0 1 0 9.667V8.661A8.661 8.661 0 0 1 8.662 0z" class="cls-11" data-name="패스 2175" transform="rotate(-168.961 47.273 34.355)"/>
            <path id="패스_2176" d="M227.008 195.253l2.946.575a5.85 5.85 0 0 0 6.861-4.621 4.453 4.453 0 0 0-3.518-5.224 4.4 4.4 0 0 0-5.158 3.474z" class="cls-12" data-name="패스 2176" transform="translate(-150.897 -123.573)"/>
            <path id="패스_2177" d="M223.566 193.577l-4.86-.948 1.867-9.569a6.509 6.509 0 0 1 6.859-5.244c-.26 2.742-1.238 11.064-3.866 15.761z" class="cls-13" data-name="패스 2177" transform="translate(-145.379 -118.187)"/>
            <path id="패스_2178" d="M160.155 266.061a5.32 5.32 0 0 1-5.313-5.051l-.415-8.193h11.455l-.415 8.193a5.32 5.32 0 0 1-5.312 5.051z" class="cls-11" data-name="패스 2178" transform="translate(-102.652 -168.054)"/>
            <path id="패스_2179" d="M154.642 257.042a23.18 23.18 0 0 0 5.5.637h.033a23.18 23.18 0 0 0 5.5-.637l.214-4.224h-11.461z" class="cls-12" data-name="패스 2179" transform="translate(-102.652 -168.054)"/>
            <path id="패스_2180" d="M148.9 106.467c0-25.938-22.3-25.825-22.95-25.817-.646-.009-22.95-.122-22.95 25.817 0 0-1.842 33.832 22.934 33.862h.033c24.774-.029 22.933-33.862 22.933-33.862z" class="cls-11" data-name="패스 2180" transform="translate(-68.445 -53.61)"/>
            <path id="패스_2181" d="M124.715 101.27h2.469c12.337 0 18.774 4.4 21.741 7.432.019-1.4-.026-2.235-.026-2.235 0-25.938-22.3-25.825-22.95-25.817-.646-.009-22.95-.122-22.95 25.817 0 0-.045.832-.026 2.235 2.968-3.028 9.404-7.432 21.742-7.432z" class="cls-12" data-name="패스 2181" transform="translate(-68.446 -53.61)"/>
            <path id="패스_2182" d="M166.666 189.649c-1.812 0-2.443 2.4-2.443 4.47s.934-.389 2.445-.391 2.445 2.458 2.445.391-.635-4.466-2.447-4.47z" class="cls-14" data-name="패스 2182" transform="translate(-109.16 -126.064)"/>
            <path id="패스_2183" d="M164.828 203.031c.353.079 1.145-1.213 2.241-1.215 1.065 0 1.843 1.222 2.21 1.218" class="cls-15" data-name="패스 2183" transform="translate(-109.565 -134.152)"/>
            <path id="패스_2184" d="M195.6 157.789a7.873 7.873 0 0 1 5.253 1.62" class="cls-16" data-name="패스 2184" transform="translate(-130.016 -104.877)"/>
            <path id="패스_2185" d="M137.014 157.789a7.873 7.873 0 0 0-5.253 1.62" class="cls-16" data-name="패스 2185" transform="translate(-87.585 -104.877)"/>
            <path id="패스_2186" d="M171.5 272.246s16.391-4.135 28.629 15.143 20.117 36.713 9.388 60.685h-8.55s4.359-35.2-13.076-59.009z" class="cls-17" data-name="패스 2186" transform="translate(-113.999 -180.721)"/>
            <rect id="사각형_259" width="9.052" height="5.309" class="cls-14" data-name="사각형 259" rx="2.654" transform="translate(40.321 64.592)"/>
            <circle id="타원_213" cx=".391" cy=".391" r=".391" class="cls-12" data-name="타원 213" transform="translate(40.051 64.843)"/>
            <circle id="타원_214" cx=".391" cy=".391" r=".391" class="cls-12" data-name="타원 214" transform="translate(41.218 66.526)"/>
            <circle id="타원_215" cx=".391" cy=".391" r=".391" class="cls-12" data-name="타원 215" transform="translate(39.08 66.987)"/>
            <circle id="타원_216" cx=".391" cy=".391" r=".391" class="cls-12" data-name="타원 216" transform="translate(42.734 65.762)"/>
            <circle id="타원_217" cx=".391" cy=".391" r=".391" class="cls-12" data-name="타원 217" transform="translate(43.781 67.291)"/>
            <circle id="타원_218" cx=".391" cy=".391" r=".391" class="cls-12" data-name="타원 218" transform="translate(45.266 66.39)"/>
            <rect id="사각형_260" width="9.052" height="5.309" class="cls-14" data-name="사각형 260" rx="2.654" transform="rotate(180 37.343 34.95)"/>
            <circle id="타원_219" cx=".391" cy=".391" r=".391" class="cls-12" data-name="타원 219" transform="translate(74.174 64.843)"/>
            <circle id="타원_220" cx=".391" cy=".391" r=".391" class="cls-12" data-name="타원 220" transform="translate(73.008 66.526)"/>
            <circle id="타원_221" cx=".391" cy=".391" r=".391" class="cls-12" data-name="타원 221" transform="translate(75.145 66.987)"/>
            <circle id="타원_222" cx=".391" cy=".391" r=".391" class="cls-12" data-name="타원 222" transform="translate(71.492 65.762)"/>
            <circle id="타원_223" cx=".391" cy=".391" r=".391" class="cls-12" data-name="타원 223" transform="translate(70.444 67.291)"/>
            <circle id="타원_224" cx=".391" cy=".391" r=".391" class="cls-12" data-name="타원 224" transform="translate(68.96 66.39)"/>
            <ellipse id="타원_225" cx="1.928" cy="3.967" class="cls-18" data-name="타원 225" rx="1.928" ry="3.967" transform="translate(65.634 58.78)"/>
            <ellipse id="타원_226" cx="1.928" cy="3.967" class="cls-18" data-name="타원 226" rx="1.928" ry="3.967" transform="translate(45.518 58.78)"/>
            <path id="패스_2187" d="M144.193 116.867s-2.712 9.569 10.864 10.562a.914.914 0 0 0 .908-1.272 2.55 2.55 0 0 1-.205-1.16 11.207 11.207 0 0 0 5.815 1.073.919.919 0 0 0 .451-1.685c-1.672-1.131-4.089-5.326-4.089-8.817 0 0-9.8-1.71-13.744 1.3z" class="cls-19" data-name="패스 2187" transform="translate(-95.701 -76.499)"/>
            <path id="패스_2188" d="M150.115 127.961c.522 3.2 2.235 3.52 3.576 4.191s-.782-1.9.056-1.9 1.062 1.173 1.341.95-1.173-4.359-1.565-3.8.279 2.515-.335 1.956-3.52-4.135-3.073-1.397z" class="cls-20" data-name="패스 2188" transform="translate(-99.754 -84.38)"/>
            <path id="패스_2189" d="M183.621 112.621s8.764 14.909 17.939 17.057a1.57 1.57 0 0 0 1.883-1.853c-.987-4.757-4.896-15.859-19.822-15.204z" class="cls-19" data-name="패스 2189" transform="translate(-122.057 -74.843)"/>
            <path id="패스_2190" d="M118.869 112.621s-8.764 14.909-17.939 17.057a1.57 1.57 0 0 1-1.883-1.853c.988-4.757 4.896-15.859 19.822-15.204z" class="cls-19" data-name="패스 2190" transform="translate(-65.816 -74.843)"/>
            <path id="패스_2191" d="M147.243 92.721l-.878-7.942a13.983 13.983 0 0 0-7.176-10.726l-5.554-3.045a23.073 23.073 0 0 0-22.189 0l-5.546 3.045a13.983 13.983 0 0 0-7.176 10.726l-.878 7.942 14.7-9.3 10-.613 10 .613z" class="cls-21" data-name="패스 2191" transform="translate(-65.041 -45.312)"/>
            <path id="패스_2192" d="M142.493 124.094a2.18 2.18 0 0 1-2.051-1.443c-.2-.555-4.924-12.891-21.847-12.891h-2.469c-17.065 0-21.8 12.755-21.845 12.884a2.179 2.179 0 0 1-4.106-1.461c.229-.644 5.845-15.782 25.952-15.782h2.473c20.107 0 25.722 15.138 25.952 15.782a2.181 2.181 0 0 1-2.053 2.91z" class="cls-22" data-name="패스 2192" transform="translate(-59.857 -70.063)"/>
            <path id="패스_2193" d="M141.114 90.093q.635-.275 1.282-.514a1.388 1.388 0 0 1 .373-.086.6.6 0 0 1 .306.049.43.43 0 0 1 .2.211.8.8 0 0 1 .058.389 1.329 1.329 0 0 1-.3.822 1.776 1.776 0 0 1-.752.492q-.3.109-.589.226l-.062.94q-.359.143-.715.3zm.615 1.02q.239-.095.479-.185a.716.716 0 0 0 .286-.186.482.482 0 0 0 .12-.305q.011-.189-.089-.242a.334.334 0 0 0-.272.011q-.239.089-.476.184l-.047.723z" class="cls-23" data-name="패스 2193" transform="translate(-93.67 -59.486)"/>
            <path id="패스_2194" d="M149.235 87.221q1.1-.335 2.222-.567l-.021.583q-.757.157-1.506.361l-.023.49q.687-.187 1.381-.335l-.021.564q-.7.148-1.386.336l-.025.534q.777-.211 1.563-.373l-.023.626q-1.163.239-2.306.587l.145-2.806z" class="cls-23" data-name="패스 2194" transform="translate(-99.103 -57.601)"/>
            <path id="패스_2195" d="M157.57 85.871q.719-.133 1.443-.224a1.39 1.39 0 0 1 .371 0 .865.865 0 0 1 .316.107.586.586 0 0 1 .22.225.68.68 0 0 1 .077.346.864.864 0 0 1-.123.436.769.769 0 0 1-.339.306v.008a.359.359 0 0 1 .186.073.439.439 0 0 1 .122.15.9.9 0 0 1 .07.19 1.181 1.181 0 0 1 .031.213v.046l.009.178q.003.054.016.141a1.261 1.261 0 0 0 .032.155.2.2 0 0 0 .051.1q-.374.031-.748.073a.327.327 0 0 1-.05-.152q-.014-.105-.023-.237v-.046a1.642 1.642 0 0 0-.022-.221.517.517 0 0 0-.059-.164.267.267 0 0 0-.122-.112.37.37 0 0 0-.2-.021q-.284.037-.567.081l-.028 1.016q-.376.058-.751.128.042-1.399.088-2.795zm.7 1.086q.312-.048.625-.089a.351.351 0 0 0 .352-.37.223.223 0 0 0-.1-.212.4.4 0 0 0-.268-.042q-.3.039-.59.084l-.017.629z" class="cls-23" data-name="패스 2195" transform="translate(-104.68 -56.923)"/>
            <path id="패스_2196" d="M165.973 87.334q.752-.838 1.49-1.632-.691.01-1.381.057l.008-.624q1.166-.08 2.336-.052v.561q-.75.782-1.516 1.608.788-.028 1.576-.008v.624q-1.263-.033-2.524.058.007-.295.011-.592z" class="cls-23" data-name="패스 2196" transform="translate(-110.321 -56.552)"/>
            <path id="패스_2197" d="M177.206 87.006a1.061 1.061 0 0 1-.282.871 1.25 1.25 0 0 1-.95.193 1.5 1.5 0 0 1-.962-.368 1.277 1.277 0 0 1-.314-.925l-.012-1.634q.372.016.743.042l.022 1.677a.647.647 0 0 0 .123.418.554.554 0 0 0 .391.165.457.457 0 0 0 .386-.094.547.547 0 0 0 .109-.4l-.033-1.678q.37.041.74.093l.039 1.64z" class="cls-23" data-name="패스 2197" transform="translate(-116.117 -56.597)"/>
            <path id="패스_2198" d="M183.088 85.968q.543.084 1.083.192.275.98.556 1.965h.008q.209-.878.41-1.752.536.129 1.068.283l.139 2.8q-.346-.1-.695-.19l-.1-2.125h-.008q-.247.987-.5 1.979-.284-.066-.569-.125-.34-1.123-.672-2.238h-.008l.069 2.12q-.353-.065-.706-.12-.036-1.394-.075-2.789z" class="cls-23" data-name="패스 2198" transform="translate(-121.703 -57.145)"/>
            <path id="패스_2199" d="M194.606 89.279q.362.126.721.263.6 1.6 1.207 3.236-.371-.161-.745-.309l-.2-.572q-.48-.186-.965-.353l-.147.444q-.374-.125-.751-.239.451-1.242.88-2.47zm.15 1.78q.314.11.626.228l-.365-1.1h-.008q-.125.436-.253.873z" class="cls-23" data-name="패스 2199" transform="translate(-128.771 -59.346)"/>
            <path id="패스_2200" d="M57.476 287.969c-11.924 18.784-19.71 35.817-10.176 58.852a2.984 2.984 0 0 0 2.759 1.833h4.4a1.989 1.989 0 0 0 1.985-2.139c-.61-7.966-1.591-36.5 13.221-56.8a1.293 1.293 0 0 1 .119-.14L82.2 276.837l-3.7-4.091c-5.862.91-14.107 4.325-21.024 15.223z" class="cls-24" data-name="패스 2200" transform="translate(-28.605 -181.3)"/>
            <path id="패스_2201" d="M49.92 477.384c3.189 1.182 7.406-.449 7.406-.449a14.353 14.353 0 0 1-8.346-2.505q.42 1.461.94 2.954z" class="cls-25" data-name="패스 2201" transform="translate(-32.558 -315.364)"/>
            <ellipse id="타원_227" cx=".95" cy="1.229" class="cls-25" data-name="타원 227" rx=".95" ry="1.229" transform="rotate(-22.593 419.897 34.05)"/>
            <path id="패스_2202" d="M90.7 292.652a30.613 30.613 0 0 0-4.167 2.772c-4.348 4.129-9.26 7.966-12.924 12.655a55.918 55.918 0 0 0-8.292 14.742A79.277 79.277 0 0 0 61 342.511a93.934 93.934 0 0 0-.234 17.4 1.792 1.792 0 0 1-.878 1.667 3.19 3.19 0 0 0 1.372.312h4.4a1.906 1.906 0 0 0 1.985-1.979c-.61-7.372-1.591-33.777 13.221-52.561l.119-.13L93.4 295.424z" class="cls-26" data-name="패스 2202" transform="translate(-39.812 -194.533)"/>
            <path id="패스_2203" d="M207.881 287.969c11.923 18.784 19.709 35.817 10.177 58.852a2.984 2.984 0 0 1-2.759 1.833H210.9a1.989 1.989 0 0 1-1.985-2.139c.61-7.966 1.591-36.5-13.221-56.8a1.293 1.293 0 0 0-.119-.14l-12.418-12.743 3.7-4.091c5.862.915 14.106 4.33 21.024 15.228z" class="cls-24" data-name="패스 2203" transform="translate(-121.751 -181.3)"/>
            <path id="패스_2204" d="M276.532 477.384c-3.189 1.182-7.406-.449-7.406-.449a14.353 14.353 0 0 0 8.346-2.505q-.421 1.461-.94 2.954z" class="cls-25" data-name="패스 2204" transform="translate(-178.895 -315.364)"/>
            <ellipse id="타원_228" cx="1.229" cy=".95" class="cls-25" data-name="타원 228" rx="1.229" ry=".95" transform="rotate(-67.407 170.617 12.902)"/>
            <path id="패스_2205" d="M185.867 292.652a30.612 30.612 0 0 1 4.167 2.772c4.348 4.129 9.26 7.966 12.924 12.654a55.918 55.918 0 0 1 8.291 14.742 79.277 79.277 0 0 1 4.309 19.691 93.935 93.935 0 0 1 .234 17.4 1.792 1.792 0 0 0 .878 1.667 3.19 3.19 0 0 1-1.372.312h-4.4a1.906 1.906 0 0 1-1.985-1.979c.61-7.372 1.591-33.777-13.221-52.561l-.119-.13-12.418-11.793z" class="cls-26" data-name="패스 2205" transform="translate(-121.751 -194.533)"/>
            <path id="패스_2206" d="M121.527 282.277h-15.5c-8.692 4.082-21.564 17.043-21.37 58.015a11.844 11.844 0 0 0 11.856 11.764h8.5a8.878 8.878 0 0 0 8.54-6.142l.218-.706.218.706a8.878 8.878 0 0 0 8.54 6.142h8.5a11.844 11.844 0 0 0 11.871-11.764c.191-40.973-12.682-53.933-21.373-58.015z" class="cls-27" data-name="패스 2206" transform="translate(-56.275 -187.636)"/>
            <path id="패스_2207" d="M121.527 282.277h-15.5c-8.692 4.082-21.564 17.043-21.37 58.015a11.844 11.844 0 0 0 11.856 11.764h8.5a8.878 8.878 0 0 0 8.54-6.142l.218-.706.218.706a8.878 8.878 0 0 0 8.54 6.142h8.5a11.844 11.844 0 0 0 11.871-11.764c.191-40.973-12.682-53.933-21.373-58.015z" class="cls-24" data-name="패스 2207" transform="translate(-56.275 -187.636)"/>
            <path id="패스_2208" d="M157.5 270.462a.775.775 0 0 0-.349-.372l-2.379-1.232a1.873 1.873 0 0 0-2.046.213l-4.981 4.067-4.981-4.067a1.873 1.873 0 0 0-2.046-.213l-2.379 1.232a.775.775 0 0 0-.349.372c-.7.174-1.431.383-2.177.638.371 3.232 2.229 10.8 11.5 10.8h.871c9.269 0 11.126-7.567 11.5-10.8a27.261 27.261 0 0 0-2.184-.638z" class="cls-28" data-name="패스 2208" transform="translate(-90.276 -178.577)"/>
            <path id="패스_2209" d="M147.023 269.053l4.984 4.069-3.789 5.023a1.625 1.625 0 0 1-2.767-.283l-3.2-6.76a.782.782 0 0 1 .347-1.029l2.379-1.232a1.874 1.874 0 0 1 2.046.212z" class="cls-24" data-name="패스 2209" transform="translate(-94.507 -178.565)"/>
            <path id="패스_2210" d="M176.485 269.053l-4.984 4.069 3.789 5.023a1.625 1.625 0 0 0 2.767-.283l3.2-6.76a.782.782 0 0 0-.347-1.029l-2.379-1.232a1.873 1.873 0 0 0-2.046.212z" class="cls-24" data-name="패스 2210" transform="translate(-114.001 -178.565)"/>
            <circle id="타원_229" cx="1.495" cy="1.495" r="1.495" class="cls-24" data-name="타원 229" transform="translate(56.009 98.706)"/>
            <circle id="타원_230" cx="1.495" cy="1.495" r="1.495" class="cls-28" data-name="타원 230" transform="translate(56.449 125.912)"/>
            <circle id="타원_231" cx="1.495" cy="1.495" r="1.495" class="cls-29" data-name="타원 231" transform="translate(56.009 125.472)"/>
            <circle id="타원_232" cx="1.495" cy="1.495" r="1.495" class="cls-28" data-name="타원 232" transform="translate(56.449 139.491)"/>
            <circle id="타원_233" cx="1.495" cy="1.495" r="1.495" class="cls-29" data-name="타원 233" transform="translate(56.009 139.051)"/>
            <circle id="타원_234" cx="1.495" cy="1.495" r="1.495" class="cls-28" data-name="타원 234" transform="translate(56.449 153.07)"/>
            <circle id="타원_235" cx="1.495" cy="1.495" r="1.495" class="cls-27" data-name="타원 235" transform="translate(56.009 152.63)"/>
            <path id="사각형_261" d="M0 0h45.262v7.041H0z" class="cls-30" data-name="사각형 261" transform="translate(34.872 147.908)"/>
            <path id="패스_2211" d="M107.4 295.209a184.28 184.28 0 0 0-12.531 42.413l6.957 2.6a184.28 184.28 0 0 1 12.531-42.413h6.2v-8.55h-4.694c-3.015-1.614-3.839-9.914-4.064-14.329a1.988 1.988 0 0 0-2.709-1.748l-4.038 1.573a1.987 1.987 0 0 0-1.266 1.93c.134 3.267.741 11.564 3.614 18.524z" class="cls-30" data-name="패스 2211" transform="translate(-63.065 -181.499)"/>
            <rect id="사각형_262" width="8.686" height="6.985" class="cls-31" data-name="사각형 262" rx="3.492" transform="rotate(19.52 -342.453 176.708)"/>
            <rect id="사각형_263" width="9.518" height="10.855" class="cls-32" data-name="사각형 263" rx="3.962" transform="rotate(-10.463 555.707 -170.957)"/>
            <path id="패스_2212" d="M0 0h1.32v7.806a.66.66 0 0 1-.66.66.66.66 0 0 1-.66-.66z" class="cls-33" data-name="패스 2212" transform="rotate(-10.463 558.235 -193.765)"/>
            <path id="패스_2213" d="M120.84 292.092l.657 3.558a2.785 2.785 0 0 0 2.555.82l4.712-.87a2.785 2.785 0 0 0 2.093-1.678l-.657-3.558a1.254 1.254 0 0 0-.182-.451l-9.169 1.693a1.254 1.254 0 0 0-.009.486z" class="cls-34" data-name="패스 2213" transform="translate(-80.313 -192.712)"/>
            <path id="패스_2214" d="M0 0h9.719v2.766a2.6 2.6 0 0 1-2.6 2.6H2.6a2.6 2.6 0 0 1-2.6-2.6V0z" class="cls-32" data-name="패스 2214" transform="rotate(-10.463 550.492 -169.931)"/>
            <path id="패스_2215" d="M128.9 284.479l.5 2.72a2.6 2.6 0 0 1-2.083 3.027l-4.447.821a2.6 2.6 0 0 1-3.027-2.083l-.5-2.72" class="cls-35" data-name="패스 2215" transform="translate(-79.33 -189.1)"/>
            <circle id="타원_236" cx=".936" cy=".936" r=".936" class="cls-33" data-name="타원 236" transform="translate(44.674 98.776)"/>
            <circle id="타원_237" cx=".936" cy=".936" r=".936" class="cls-30" data-name="타원 237" transform="translate(44.411 98.335)"/>
            <path id="패스_2216" d="M78.725 427.408s-.782 5.867-1.006 7.711.643 2.04 1.285 2.487 6.733 2.459 7.264 2.654a4.458 4.458 0 0 0 2.878-.224c1.118-.475 1.844-.447 2.291-2.459s2.543-12.657 2.543-12.657l-8.8-3.52z" class="cls-32" data-name="패스 2216" transform="translate(-51.638 -280.115)"/>
            <path id="패스_2217" d="M106.194 443.706c.447-2.011 2.541-12.647 2.542-12.656l-.556-.222-.028-.012-.2-.079c-3.936-1.386-5.287 9.837-5.785 13-.33 2.09-1.5 2.109-2.288 2.263.59.2 1.018.346 1.142.391a4.459 4.459 0 0 0 2.878-.224c1.122-.477 1.848-.449 2.295-2.461z" class="cls-34" data-name="패스 2217" transform="translate(-66.395 -286.243)"/>
            <path id="패스_2218" d="M0 0h1.425v6.328a.712.712 0 0 1-.712.712A.712.712 0 0 1 0 6.328z" class="cls-33" data-name="패스 2218" transform="rotate(9.25 -902.549 263.081)"/>
            <path id="패스_2219" d="M87.5 419.1a3.9 3.9 0 0 0-2.536-.286c-3.955.888-3.806 1.948-4.413 5.175-.671 3.562-.126 3.1 2.221 4.233s5.029 2.305 6.035 2.305 1.551-1.215 2.054-3.143.587-4.317 4.736-4.4z" class="cls-32" data-name="패스 2219" transform="translate(-53.37 -278.335)"/>
            <path id="패스_2220" d="M86.2 418.818c-5.2.475-5.036 2.012-5.644 5.239-.671 3.562-.126 3.1 2.221 4.233s5.029 2.305 6.035 2.305 1.551-1.215 2.054-3.143.587-4.317 4.736-4.4" class="cls-36" data-name="패스 2220" transform="translate(-53.369 -278.398)"/>
            <ellipse id="타원_238" cx="1.397" cy="1.116" class="cls-34" data-name="타원 238" rx="1.397" ry="1.116" transform="rotate(-75.982 110.663 55.156)"/>
            <ellipse id="타원_239" cx="1.397" cy="1.116" class="cls-30" data-name="타원 239" rx="1.397" ry="1.116" transform="rotate(-75.982 110.078 55.235)"/>
            <path id="패스_2221" d="M184.653 295.209a184.281 184.281 0 0 1 12.531 42.413l-6.957 2.6a184.28 184.28 0 0 0-12.527-42.415h-6.2v-8.55h4.694c3.015-1.614 3.839-9.914 4.064-14.329a1.988 1.988 0 0 1 2.709-1.748l4.033 1.573a1.987 1.987 0 0 1 1.266 1.93c-.129 3.269-.735 11.566-3.613 18.526z" class="cls-30" data-name="패스 2221" transform="translate(-113.995 -181.499)"/>
            <rect id="사각형_264" width="8.686" height="6.985" class="cls-31" data-name="사각형 264" rx="3.492" transform="scale(-1) rotate(-19.52 -420.296 161.191)"/>
            <rect id="사각형_265" width="9.518" height="10.855" class="cls-32" data-name="사각형 265" rx="3.962" transform="scale(-1) rotate(10.49 556.144 -450.715)"/>
            <path id="패스_2222" d="M.66 0a.66.66 0 0 1 .66.66v7.806H0V.66A.66.66 0 0 1 .66 0z" class="cls-33" data-name="패스 2222" transform="scale(-1) rotate(10.49 545.656 -429.154)"/>
            <path id="패스_2223" d="M202.252 292.092l-.657 3.558a2.785 2.785 0 0 1-2.555.82l-4.712-.87a2.785 2.785 0 0 1-2.093-1.678l.657-3.558a1.255 1.255 0 0 1 .182-.451l9.169 1.693a1.255 1.255 0 0 1 .009.486z" class="cls-34" data-name="패스 2223" transform="translate(-127.783 -192.712)"/>
            <path id="패스_2224" d="M2.6 0h4.52a2.6 2.6 0 0 1 2.6 2.6v2.764H0V2.6A2.6 2.6 0 0 1 2.6 0z" class="cls-32" data-name="패스 2224" transform="scale(-1) rotate(10.49 521.03 -454.476)"/>
            <path id="패스_2225" d="M194.061 284.479l-.5 2.72a2.6 2.6 0 0 0 2.083 3.027l4.447.821a2.6 2.6 0 0 0 3.027-2.083l.5-2.72" class="cls-35" data-name="패스 2225" transform="translate(-128.634 -189.1)"/>
            <circle id="타원_240" cx=".936" cy=".936" r=".936" class="cls-33" data-name="타원 240" transform="translate(68.451 98.776)"/>
            <circle id="타원_241" cx=".936" cy=".936" r=".936" class="cls-30" data-name="타원 241" transform="translate(68.714 98.335)"/>
            <path id="패스_2226" d="M231.956 427.408s.782 5.867 1.006 7.711-.643 2.04-1.285 2.487-6.733 2.459-7.264 2.654a4.459 4.459 0 0 1-2.878-.224c-1.118-.475-1.844-.447-2.291-2.459s-2.543-12.657-2.543-12.657l8.8-3.52z" class="cls-32" data-name="패스 2226" transform="translate(-144.046 -280.115)"/>
            <path id="패스_2227" d="M219.243 443.706c-.447-2.011-2.541-12.647-2.542-12.656l.556-.222.028-.012.2-.079c3.936-1.386 5.287 9.837 5.786 13 .33 2.09 1.5 2.109 2.288 2.263-.59.2-1.018.346-1.142.391a4.459 4.459 0 0 1-2.878-.224c-1.122-.477-1.848-.449-2.296-2.461z" class="cls-34" data-name="패스 2227" transform="translate(-144.046 -286.243)"/>
            <path id="패스_2228" d="M.712 0a.712.712 0 0 1 .712.712v6.329H0V.712A.712.712 0 0 1 .712 0z" class="cls-33" data-name="패스 2228" transform="rotate(170.75 36.239 81.758)"/>
            <path id="패스_2229" d="M225.131 419.1a3.9 3.9 0 0 1 2.536-.286c3.955.888 3.806 1.948 4.413 5.175.671 3.562.126 3.1-2.221 4.233s-5.029 2.305-6.035 2.305-1.551-1.215-2.054-3.143-.587-4.317-4.736-4.4z" class="cls-32" data-name="패스 2229" transform="translate(-144.268 -278.335)"/>
            <path id="패스_2230" d="M226.436 418.818c5.2.475 5.036 2.012 5.644 5.239.671 3.562.126 3.1-2.221 4.233s-5.029 2.305-6.035 2.305-1.551-1.215-2.054-3.143-.587-4.317-4.736-4.4" class="cls-36" data-name="패스 2230" transform="translate(-144.268 -278.398)"/>
            <ellipse id="타원_242" cx="1.116" cy="1.397" class="cls-34" data-name="타원 242" rx="1.116" ry="1.397" transform="rotate(-14.018 638.706 -259.216)"/>
            <ellipse id="타원_243" cx="1.116" cy="1.397" class="cls-30" data-name="타원 243" rx="1.116" ry="1.397" transform="rotate(-14.018 636.908 -261.588)"/>
            <rect id="사각형_266" width="9.08" height="9.08" class="cls-31" data-name="사각형 266" rx="4.54" transform="translate(52.926 107.451)"/>
            <rect id="사각형_267" width="7.777" height="7.777" class="cls-31" data-name="사각형 267" rx="3.888" transform="translate(53.578 147.54)"/>
            <ellipse id="타원_244" cx="3.012" cy="3.572" class="cls-37" data-name="타원 244" rx="3.012" ry="3.572" transform="translate(54.492 74.221)"/>
        </g>
    </g>
</svg>
