<svg xmlns="http://www.w3.org/2000/svg" id="perzuman_basic" width="180.067" height="432.97" viewBox="0 0 180.067 432.97">
    <defs>
        <style>
            .cls-1{fill:#d48b1f}.cls-2{fill:#b17320}.cls-3{fill:#7c7b7c}.cls-4{fill:#939393}.cls-5{fill:#c0bfbf}.cls-6{fill:#6e6e6d}.cls-22,.cls-7{fill:#fff}.cls-7{opacity:.25}.cls-15,.cls-8{fill:#fdf4e0}.cls-10,.cls-11,.cls-9{fill:#fbd6b4}.cls-10{opacity:.49}.cls-11{opacity:.5}.cls-12,.cls-13,.cls-14,.cls-29,.cls-30,.cls-31,.cls-36,.cls-40,.cls-41{fill:none;stroke-miterlimit:10}.cls-12{stroke:#f0b482}.cls-12,.cls-13,.cls-14,.cls-29,.cls-30,.cls-31,.cls-41{stroke-linecap:round}.cls-12,.cls-13,.cls-40,.cls-41{stroke-width:2px}.cls-13{stroke:#f7bc92}.cls-14{stroke:#6f6859;stroke-width:3px}.cls-15{opacity:.51}.cls-16{fill:#192337}.cls-17{fill:#454e4d}.cls-18{fill:#464237}.cls-19{fill:#6e563f}.cls-20{fill:#1554a5}.cls-21{fill:#1173bc}.cls-23{fill:#f5c71d}.cls-24,.cls-25{fill:#e6a015}.cls-25{opacity:.35}.cls-26{fill:#f5c820}.cls-27{fill:#3b445c}.cls-28{fill:#2e384e}.cls-29,.cls-30,.cls-31{stroke:#c5b14a}.cls-30{stroke-dasharray:5.174 5.174 5.174 5.174}.cls-31{stroke-dasharray:5.174 5.174 5.174 5.174 5.174 5.174}.cls-32{fill:#151e2c;opacity:.41}.cls-33{fill:#f5b116}.cls-34{fill:#f4d823}.cls-35{fill:#534e3c}.cls-36{stroke:#2c2921;stroke-width:5px}.cls-37{fill:#3a362c}.cls-38{fill:#22201b}.cls-39{fill:#0e0e0d;opacity:.3}.cls-40,.cls-41{stroke:#ed6d30}
        </style>
    </defs>
    <g id="etc" transform="translate(20.244 116.735)">
        <path id="패스_2231" d="M4.939 0h.039a4.939 4.939 0 0 1 4.938 4.939v99.7H0v-99.7A4.939 4.939 0 0 1 4.939 0z" class="cls-1" data-name="패스 2231" transform="rotate(135 33.147 67.861)"/>
        <path id="사각형_269" d="M0 0h9.916v7.539H0z" class="cls-2" data-name="사각형 269" transform="rotate(-45 42.487 -15.739)"/>
        <path id="패스_2232" d="M39.77 199.276l3.77-5.591 8.685 8.685-5.59 3.77z" class="cls-3" data-name="패스 2232" transform="translate(-32.141 -174.679)"/>
        <path id="패스_2233" d="M63.714 176.09l5.339-3.814 6.1 6.1-3.814 5.339z" class="cls-3" data-name="패스 2233" transform="translate(-39.305 -168.274)"/>
        <path id="패스_2234" d="M2.853 0h12.632a2.853 2.853 0 0 1 2.853 2.853v10.475a2.853 2.853 0 0 1-2.853 2.853H2.853A2.853 2.853 0 0 1 0 13.328V2.853A2.853 2.853 0 0 1 2.853 0z" class="cls-4" data-name="패스 2234" transform="rotate(135 13.806 15.212)"/>
        <path id="패스_2235" d="M1.727 0h6.254a1.727 1.727 0 0 1 1.727 1.727v11.648A1.727 1.727 0 0 1 7.981 15.1H1.727A1.727 1.727 0 0 1 0 13.375V1.727A1.727 1.727 0 0 1 1.727 0z" class="cls-4" data-name="패스 2235" transform="rotate(135 1.94 20.126)"/>
        <path id="패스_2236" d="M70.034 171.239l6.285 6.285a.633.633 0 0 0 1.032-.206l3.52-8.549a1.6 1.6 0 0 0-2.083-2.083l-8.548 3.52a.633.633 0 0 0-.206 1.033z" class="cls-4" data-name="패스 2236" transform="translate(-41.14 -166.566)"/>
        <path id="패스_2237" d="M157.2 189.1s-1.9 5.7-9.5 13.306l-35.8 35.8a6.717 6.717 0 0 0 8.1 10.574c.7-.364 25.168-24.83 34.672-34.334s12.039-8.237 12.039-8.237c8.237.634 8.237-1.9 8.237-1.9l-1.267-5.069c9.5-1.9 10.771-9.5 10.771-9.5l-.634-3.168-13.306 3.168-2.534-7.6 13.939-3.8s-6.336-11.4-16.474-5.069c-.005-.014-4.443 3.154-8.243 15.829zm-43.086 50.688a3.584 3.584 0 1 1 0 5.069 3.584 3.584 0 0 1 .001-5.071z" class="cls-5" data-name="패스 2237" transform="translate(-53.13 -167.994)"/>
        <path id="패스_2238" d="M124.892 251.726a4.032 4.032 0 0 0 5.7 0l30.413-30.413a4.032 4.032 0 0 0 0-5.7 4.032 4.032 0 0 0-5.7 0l-30.413 30.413a4.032 4.032 0 0 0 0 5.7z" class="cls-6" data-name="패스 2238" transform="translate(-57.254 -180.885)"/>
        <path id="패스_2239" d="M187.669 173.257c10.138-6.336 16.474 5.069 16.474 5.069l-13.94 3.8 2.535 7.6 13.306-3.168.634 3.168s-1.267 7.6-10.771 9.5l1.267 5.069s-.017 1.855-5.2 1.989l-7.741-28.687a15.335 15.335 0 0 1 3.436-4.34z" class="cls-6" data-name="패스 2239" transform="translate(-75.361 -167.994)"/>
        <path id="사각형_270" d="M0 0h10.753v7.168H0z" class="cls-6" data-name="사각형 270" transform="rotate(-105.01 67.523 -24.147)"/>
        <path id="패스_2240" d="M164.735 213.7l6.292 12.765-3.637 3.637-4.97-14.088z" class="cls-7" data-name="패스 2240" transform="translate(-68.835 -180.667)"/>
        <path id="패스_2241" d="M160.315 218.6l4.89 14.167-2.419 2.419-3.653-15.4z" class="cls-7" data-name="패스 2241" transform="translate(-67.851 -182.134)"/>
    </g>
    <g id="body" transform="translate(21.682)">
        <path id="패스_2242" d="M13.783 0h1.924a13.611 13.611 0 0 1 13.611 13.611V33.99H18.1A18.1 18.1 0 0 1 0 15.886v-2.1A13.783 13.783 0 0 1 13.783 0z" class="cls-8" data-name="패스 2242" transform="rotate(-11.039 414.384 40.043)"/>
        <path id="패스_2243" d="M64.156 137.283L58 138.484a12.227 12.227 0 0 1-14.342-9.66 9.309 9.309 0 0 1 7.354-10.919 9.192 9.192 0 0 1 10.783 7.262z" class="cls-9" data-name="패스 2243" transform="translate(-34.69 -35.222)"/>
        <path id="패스_2244" d="M63.338 142.613l10.162-1.982-3.9-20a13.606 13.606 0 0 0-14.337-10.961c.537 5.73 2.583 23.124 8.075 32.943z" class="cls-10" data-name="패스 2244" transform="translate(-38.213 -32.798)"/>
        <path id="패스_2245" d="M18.1 0h11.218v20.379a13.611 13.611 0 0 1-13.611 13.612h-1.924A13.783 13.783 0 0 1 0 20.207V18.1A18.1 18.1 0 0 1 18.1 0z" class="cls-8" data-name="패스 2245" transform="rotate(-168.961 70.587 50.432)"/>
        <path id="패스_2246" d="M183.975 137.283l6.158 1.2a12.227 12.227 0 0 0 14.342-9.66 9.309 9.309 0 0 0-7.354-10.919 9.192 9.192 0 0 0-10.783 7.262z" class="cls-9" data-name="패스 2246" transform="translate(-76.722 -35.222)"/>
        <path id="패스_2247" d="M185.832 142.613l-10.159-1.982 3.9-20a13.606 13.606 0 0 1 14.337-10.961c-.541 5.73-2.586 23.124-8.078 32.943z" class="cls-10" data-name="패스 2247" transform="translate(-74.238 -32.798)"/>
        <path id="패스_2248" d="M123.367 212.335a11.12 11.12 0 0 1-11.105-10.557l-.867-17.126h23.945l-.867 17.126a11.12 11.12 0 0 1-11.106 10.557z" class="cls-8" data-name="패스 2248" transform="translate(-55.008 -55.242)"/>
        <path id="패스_2249" d="M111.841 193.481a48.453 48.453 0 0 0 11.491 1.331h.069a48.451 48.451 0 0 0 11.491-1.331l.447-8.829h-23.944z" class="cls-9" data-name="패스 2249" transform="translate(-55.008 -55.242)"/>
        <path id="패스_2250" d="M155.945 66.448c0-54.219-46.623-53.983-47.973-53.965C106.622 12.466 60 12.23 60 66.448c0 0-3.85 70.72 47.938 70.783h.069c51.788-.064 47.938-70.783 47.938-70.783z" class="cls-8" data-name="패스 2250" transform="translate(-39.613 -3.734)"/>
        <path id="패스_2251" d="M105.391 55.586h5.162c25.789 0 39.243 9.205 45.446 15.534.04-2.932-.055-4.671-.055-4.671 0-54.219-46.623-53.983-47.973-53.965C106.622 12.466 60 12.23 60 66.449c0 0-.094 1.739-.054 4.671 6.202-6.329 19.654-15.534 45.445-15.534z" class="cls-9" data-name="패스 2251" transform="translate(-39.613 -3.734)"/>
        <path id="패스_2252" d="M126.3 121.483h-.008c-3.788.008-5.106 5.025-5.106 9.344s1.953-.813 5.11-.817 5.11 5.137 5.11.817-1.317-9.337-5.106-9.344z" class="cls-11" data-name="패스 2252" transform="translate(-57.937 -36.343)"/>
        <path id="패스_2253" d="M121.795 136.189c.737.165 2.394-2.536 4.684-2.54 2.226 0 3.853 2.555 4.619 2.547" class="cls-12" data-name="패스 2253" transform="translate(-58.119 -39.983)"/>
        <path id="패스_2254" d="M137.616 150.985s-3.563 4.789-15.155 4.789h-1.577c-11.593 0-15.155-4.789-15.155-4.789" class="cls-13" data-name="패스 2254" transform="translate(-53.312 -45.17)"/>
        <path id="패스_2255" d="M152.561 89.639a16.457 16.457 0 0 1 10.98 3.387" class="cls-14" data-name="패스 2255" transform="translate(-67.323 -26.808)"/>
        <path id="패스_2256" d="M99.708 89.639a16.458 16.458 0 0 0-10.98 3.387" class="cls-14" data-name="패스 2256" transform="translate(-48.227 -26.808)"/>
        <path id="패스_2257" d="M128.466 204.485s34.262-8.643 59.843 31.655 42.05 76.741 19.623 126.851h-17.871s9.111-73.587-27.332-123.347z" class="cls-15" data-name="패스 2257" transform="translate(-60.115 -60.942)"/>
        <path id="패스_2258" d="M150.636 537.2c-9.884-1.4-12.165-7.943-12.165-7.943 10.9-63.566 14.939-112.143 14.713-149.277h-98.56c-.224 37.139 3.818 85.72 14.713 149.282 0 0-2.281 6.541-12.165 7.943s-10.834 2.8-10.834 6.775 25.85 2.336 37.444 2.336 12.165-4.439 12.165-12.148-2.518-107.914 7.953-107.928c10.475.015 7.957 100.219 7.957 107.928s.57 12.148 12.165 12.148 37.444 1.635 37.444-2.336-.946-5.373-10.83-6.78z" class="cls-16" data-name="패스 2258" transform="translate(-35.545 -113.679)"/>
        <rect id="사각형_271" width="18.922" height="11.096" class="cls-11" data-name="사각형 271" rx="5.548" transform="translate(32.442 87.243)"/>
        <ellipse id="타원_246" cx=".818" cy=".818" class="cls-9" data-name="타원 246" rx=".818" ry=".818" transform="translate(31.878 87.769)"/>
        <ellipse id="타원_247" cx=".818" cy=".818" class="cls-9" data-name="타원 247" rx=".818" ry=".818" transform="translate(34.316 91.287)"/>
        <ellipse id="타원_248" cx=".818" cy=".818" class="cls-9" data-name="타원 248" rx=".818" ry=".818" transform="translate(29.849 92.251)"/>
        <ellipse id="타원_249" cx=".818" cy=".818" class="cls-9" data-name="타원 249" rx=".818" ry=".818" transform="translate(37.485 89.689)"/>
        <ellipse id="타원_250" cx=".818" cy=".818" class="cls-9" data-name="타원 250" rx=".818" ry=".818" transform="translate(39.675 92.887)"/>
        <ellipse id="타원_251" cx=".818" cy=".818" class="cls-9" data-name="타원 251" rx=".818" ry=".818" transform="translate(42.777 91.003)"/>
        <rect id="사각형_272" width="18.922" height="11.096" class="cls-11" data-name="사각형 272" rx="5.548" transform="rotate(180 52.139 49.17)"/>
        <ellipse id="타원_252" cx=".818" cy=".818" class="cls-9" data-name="타원 252" rx=".818" ry=".818" transform="translate(103.206 87.769)"/>
        <ellipse id="타원_253" cx=".818" cy=".818" class="cls-9" data-name="타원 253" rx=".818" ry=".818" transform="translate(100.768 91.287)"/>
        <ellipse id="타원_254" cx=".818" cy=".818" class="cls-9" data-name="타원 254" rx=".818" ry=".818" transform="translate(105.235 92.251)"/>
        <ellipse id="타원_255" cx=".818" cy=".818" class="cls-9" data-name="타원 255" rx=".818" ry=".818" transform="translate(97.599 89.689)"/>
        <ellipse id="타원_256" cx=".818" cy=".818" class="cls-9" data-name="타원 256" rx=".818" ry=".818" transform="translate(95.409 92.887)"/>
        <ellipse id="타원_257" cx=".818" cy=".818" class="cls-9" data-name="타원 257" rx=".818" ry=".818" transform="translate(92.306 91.003)"/>
        <ellipse id="타원_258" cx="4.03" cy="8.293" class="cls-17" data-name="타원 258" rx="4.03" ry="8.293" transform="translate(85.355 75.095)"/>
        <ellipse id="타원_259" cx="4.03" cy="8.293" class="cls-17" data-name="타원 259" rx="4.03" ry="8.293" transform="translate(43.305 75.095)"/>
        <path id="패스_2259" d="M101.4 50.644s-5.67 20 22.709 22.078a1.911 1.911 0 0 0 1.9-2.658 5.33 5.33 0 0 1-.429-2.424 23.427 23.427 0 0 0 12.156 2.243 1.922 1.922 0 0 0 .942-3.522c-3.494-2.365-8.547-11.133-8.547-18.431 0 0-20.48-3.574-28.729 2.716z" class="cls-18" data-name="패스 2259" transform="translate(-51.88 -14.036)"/>
        <path id="패스_2260" d="M107.132 60.908c1.091 6.683 4.672 7.359 7.476 8.76s-1.635-3.971.117-3.971 2.219 2.453 2.8 1.986-2.453-9.111-3.271-7.943.584 5.256-.7 4.088-7.354-8.644-6.422-2.92z" class="cls-19" data-name="패스 2260" transform="translate(-53.704 -17.583)"/>
        <path id="패스_2261" d="M140.588 44.485s18.319 31.164 37.5 35.655a3.282 3.282 0 0 0 3.936-3.873c-2.066-9.944-10.236-33.152-41.436-31.782z" class="cls-18" data-name="패스 2261" transform="translate(-63.741 -13.291)"/>
        <path id="패스_2262" d="M97.485 44.485S79.166 75.649 59.986 80.14a3.282 3.282 0 0 1-3.936-3.873c2.064-9.944 10.235-33.152 41.435-31.782z" class="cls-18" data-name="패스 2262" transform="translate(-38.429 -13.291)"/>
        <path id="패스_2263" d="M158.066 51.325l-1.834-16.6a29.23 29.23 0 0 0-15-22.42l-11.61-6.366a48.229 48.229 0 0 0-46.381.005L71.647 12.3a29.23 29.23 0 0 0-15 22.42l-1.834 16.6 30.72-19.448L106.44 30.6l20.907 1.282z" class="cls-20" data-name="패스 2263" transform="translate(-38.08)"/>
        <path id="패스_2264" d="M156.642 76.308a4.557 4.557 0 0 1-4.287-3.017c-.424-1.159-10.293-26.945-45.668-26.945h-5.162c-35.671 0-45.567 26.662-45.663 26.932a4.555 4.555 0 1 1-8.584-3.053c.479-1.347 12.217-32.989 54.246-32.989h5.162c42.029 0 53.768 31.643 54.247 32.989a4.559 4.559 0 0 1-4.292 6.083z" class="cls-21" data-name="패스 2264" transform="translate(-35.747 -11.139)"/>
        <path id="패스_2265" d="M98.3 22.585q1.328-.575 2.679-1.074a2.9 2.9 0 0 1 .78-.181 1.244 1.244 0 0 1 .639.1.9.9 0 0 1 .422.441 1.669 1.669 0 0 1 .122.812 2.779 2.779 0 0 1-.634 1.718 3.713 3.713 0 0 1-1.572 1.029q-.617.228-1.231.472l-.129 1.964q-.75.3-1.494.62zm1.285 2.132q.5-.2 1-.386a1.5 1.5 0 0 0 .6-.389 1.008 1.008 0 0 0 .251-.638q.024-.4-.186-.505a.7.7 0 0 0-.569.024q-.5.187-1 .384l-.1 1.51z" class="cls-22" data-name="패스 2265" transform="translate(-50.965 -6.379)"/>
        <path id="패스_2266" d="M106.361 19.673q2.3-.7 4.644-1.186l-.044 1.219q-1.583.329-3.148.754l-.048 1.025q1.435-.391 2.886-.7l-.044 1.178q-1.456.31-2.9.7l-.052 1.115q1.624-.442 3.267-.78l-.047 1.309q-2.43.5-4.82 1.227l.306-5.861z" class="cls-22" data-name="패스 2266" transform="translate(-53.411 -5.531)"/>
        <path id="패스_2267" d="M114.637 17.962q1.5-.278 3.016-.469a2.9 2.9 0 0 1 .776 0 1.808 1.808 0 0 1 .661.224 1.225 1.225 0 0 1 .459.47 1.422 1.422 0 0 1 .16.723 1.807 1.807 0 0 1-.258.911 1.607 1.607 0 0 1-.708.639v.016a.75.75 0 0 1 .388.152.918.918 0 0 1 .256.314 1.882 1.882 0 0 1 .145.4 2.468 2.468 0 0 1 .065.446l.007.1.02.373q.007.113.034.294a2.63 2.63 0 0 0 .067.324.42.42 0 0 0 .107.2q-.783.065-1.564.152a.683.683 0 0 1-.1-.318q-.029-.22-.049-.5c0-.059-.007-.091-.007-.1a3.432 3.432 0 0 0-.045-.463 1.08 1.08 0 0 0-.123-.344.558.558 0 0 0-.256-.234.774.774 0 0 0-.427-.043q-.593.078-1.185.17l-.058 2.124q-.786.122-1.569.267.092-2.91.188-5.828zm1.469 2.27q.652-.1 1.306-.186a.734.734 0 0 0 .736-.774.466.466 0 0 0-.212-.443.846.846 0 0 0-.56-.088q-.617.081-1.233.176l-.036 1.315z" class="cls-22" data-name="패스 2267" transform="translate(-55.921 -5.226)"/>
        <path id="패스_2268" d="M122.948 21.63q1.573-1.751 3.115-3.41-1.445.021-2.888.12l.016-1.3q2.438-.167 4.882-.11 0 .587.005 1.174-1.567 1.634-3.17 3.361 1.647-.059 3.294-.016 0 .652.006 1.3-2.639-.068-5.277.122l.017-1.241z" class="cls-22" data-name="패스 2268" transform="translate(-58.459 -5.059)"/>
        <path id="패스_2269" d="M136.921 20.871a2.218 2.218 0 0 1-.59 1.82 2.614 2.614 0 0 1-1.986.4 3.132 3.132 0 0 1-2.011-.769 2.67 2.67 0 0 1-.657-1.934l-.026-3.415q.777.033 1.554.088l.045 3.506a1.352 1.352 0 0 0 .257.874 1.158 1.158 0 0 0 .817.345.955.955 0 0 0 .807-.2 1.143 1.143 0 0 0 .228-.83l-.07-3.508q.774.086 1.546.2l.086 3.423z" class="cls-22" data-name="패스 2269" transform="translate(-61.068 -5.079)"/>
        <path id="패스_2270" d="M140.055 17.8q1.135.176 2.265.4.575 2.048 1.162 4.108h.017q.437-1.835.858-3.663 1.121.271 2.233.591l.29 5.86q-.724-.208-1.452-.4l-.2-4.443h-.016q-.516 2.063-1.053 4.136-.593-.138-1.189-.262-.711-2.348-1.4-4.678h-.017l.144 4.43q-.737-.135-1.477-.25-.085-2.912-.165-5.829z" class="cls-22" data-name="패스 2270" transform="translate(-63.582 -5.326)"/>
        <path id="패스_2271" d="M152.535 21.112q.757.264 1.507.551 1.247 3.35 2.523 6.764-.775-.335-1.558-.646l-.423-1.2q-1-.389-2.018-.737l-.307.929q-.782-.262-1.57-.5.949-2.595 1.846-5.161zm.313 3.722q.656.23 1.308.478-.383-1.151-.763-2.3l-.016-.006q-.262.911-.53 1.825z" class="cls-22" data-name="패스 2271" transform="translate(-66.763 -6.316)"/>
    </g>
    <g id="cloth" transform="translate(0 140.491)">
        <path id="패스_2272" d="M38.813 429.563s6.424-.467 8.819 4.614.175 8.176-1.226 8.644-3.5-1.343-4.731-4.672-2.862-8.586-2.862-8.586z" class="cls-8" data-name="패스 2272" transform="translate(-11.612 -268.999)"/>
        <path id="패스_2273" d="M38.146 437.117s5.223-.3 7.169 2.939.142 5.208-1 5.506-2.849-.856-3.846-2.976-2.323-5.469-2.323-5.469z" class="cls-9" data-name="패스 2273" transform="translate(-11.412 -271.26)"/>
        <path id="패스_2274" d="M31.058 429.474s.888 9.211 5.16 10.321 4.883 9.377.5 12.041-22.861 7.824-26.246-7.824 12.54-17.756 12.54-17.756 7.824.221 8.046 3.218z" class="cls-8" data-name="패스 2274" transform="translate(-2.992 -268.013)"/>
        <path id="패스_2275" d="M213.9 429.563s-6.424-.467-8.819 4.614-.175 8.176 1.226 8.644 3.5-1.343 4.731-4.672 2.862-8.586 2.862-8.586z" class="cls-8" data-name="패스 2275" transform="translate(-61.038 -268.999)"/>
        <path id="패스_2276" d="M215.359 437.117s-5.223-.3-7.169 2.939-.142 5.208 1 5.506 2.849-.856 3.846-2.976 2.323-5.469 2.323-5.469z" class="cls-9" data-name="패스 2276" transform="translate(-62.026 -271.26)"/>
        <path id="패스_2277" d="M213.185 429.474s-.888 9.211-5.16 10.321-4.883 9.377-.5 12.041 22.861 7.824 26.246-7.824-12.54-17.756-12.54-17.756-7.824.221-8.046 3.218z" class="cls-8" data-name="패스 2277" transform="translate(-61.185 -268.013)"/>
        <path id="패스_2278" d="M30.189 236.4C5.265 275.664-11.01 311.269 8.915 359.419a6.237 6.237 0 0 0 5.768 3.832h9.187a4.157 4.157 0 0 0 4.149-4.471c-1.276-16.652-3.325-76.293 27.637-118.72a2.708 2.708 0 0 1 .248-.293l25.957-26.637-7.727-8.552c-12.252 1.903-29.485 9.042-43.945 31.822z" class="cls-23" data-name="패스 2278" transform="translate(0 -201.695)"/>
        <path id="패스_2279" d="M7.912 412.439c6.666 2.471 15.48-.939 15.48-.939a30 30 0 0 1-17.447-5.237q.883 3.054 1.967 6.176z" class="cls-24" data-name="패스 2279" transform="translate(-1.779 -262.032)"/>
        <ellipse id="타원_260" cx="1.986" cy="2.57" class="cls-24" data-name="타원 260" rx="1.986" ry="2.57" transform="rotate(-22.593 391.4 52.53)"/>
        <path id="패스_2280" d="M81.248 224.485a63.983 63.983 0 0 0-8.71 5.794c-9.088 8.631-19.357 16.652-27.016 26.452a116.887 116.887 0 0 0-17.332 30.815c-4.959 13.2-7.569 27.277-9.006 41.16a196.353 196.353 0 0 0-.488 36.364 3.747 3.747 0 0 1-1.836 3.484 6.668 6.668 0 0 0 2.867.653h9.187a3.984 3.984 0 0 0 4.149-4.137c-1.276-15.411-3.325-70.606 27.637-109.87l.248-.271 25.952-24.65z" class="cls-25" data-name="패스 2280" transform="translate(-5.044 -207.65)"/>
        <path id="패스_2281" d="M191.8 236.4c24.924 39.264 41.2 74.868 21.274 123.019a6.237 6.237 0 0 1-5.768 3.832h-9.187a4.157 4.157 0 0 1-4.149-4.471c1.276-16.652 3.325-76.293-27.637-118.72a2.7 2.7 0 0 0-.248-.293l-25.958-26.637 7.727-8.552c12.252 1.903 29.485 9.042 43.946 31.822z" class="cls-23" data-name="패스 2281" transform="translate(-41.922 -201.695)"/>
        <path id="패스_2282" d="M241.573 412.439c-6.666 2.471-15.48-.939-15.48-.939a30 30 0 0 0 17.447-5.237q-.882 3.054-1.967 6.176z" class="cls-24" data-name="패스 2282" transform="translate(-67.64 -262.032)"/>
        <ellipse id="타원_261" cx="2.57" cy="1.986" class="cls-24" data-name="타원 261" rx="2.57" ry="1.986" transform="rotate(-67.407 200.436 -44.555)"/>
        <path id="패스_2283" d="M145.784 224.485a63.986 63.986 0 0 1 8.71 5.794c9.088 8.631 19.357 16.652 27.016 26.452a116.885 116.885 0 0 1 17.332 30.815c4.959 13.2 7.569 27.277 9.006 41.16a196.353 196.353 0 0 1 .488 36.364 3.747 3.747 0 0 0 1.836 3.484 6.669 6.669 0 0 1-2.867.653h-9.187a3.984 3.984 0 0 1-4.149-4.137c1.276-15.41 3.325-70.605-27.636-109.868l-.248-.271-25.958-24.651z" class="cls-25" data-name="패스 2283" transform="translate(-41.922 -207.65)"/>
        <path id="패스_2284" d="M118.69 214.11H86.3c-18.168 8.533-45.076 35.625-44.669 121.27a24.758 24.758 0 0 0 24.783 24.591h17.773a18.558 18.558 0 0 0 17.851-12.838l.457-1.477.457 1.477a18.558 18.558 0 0 0 17.85 12.838h17.774a24.758 24.758 0 0 0 24.783-24.591c.406-85.645-26.501-112.737-44.669-121.27z" class="cls-26" data-name="패스 2284" transform="translate(-12.453 -204.546)"/>
        <path id="패스_2285" d="M157.922 379.074l-.013-2.089H55.17l-.013 2.089c-.247 40.633 4.678 90.768 14.637 149.024h30.827c-.155-10.789-.473-34.592.264-56.7 1.233-36.98 4.616-42.907 5.654-43.853 1.038.947 4.421 6.874 5.654 43.854.737 22.109.419 45.91.264 56.7h30.828c9.961-58.263 14.885-108.399 14.637-149.025z" class="cls-27" data-name="패스 2285" transform="translate(-16.499 -253.273)"/>
        <path id="패스_2286" d="M55.158 379.074c-.11 18.068.806 38.018 2.729 59.721l5.722-1.6a24.045 24.045 0 0 0 17.58-22.883l.432-37.331H55.17z" class="cls-28" data-name="패스 2286" transform="translate(-16.499 -253.273)"/>
        <path id="선_15" d="M0 .633L2.005 0" class="cls-29" data-name="선 15" transform="translate(42.522 180.287)"/>
        <path id="패스_2287" d="M68.459 452.741a19.711 19.711 0 0 0 9.631-7.925" class="cls-30" data-name="패스 2287" transform="translate(-20.481 -273.566)"/>
        <path id="패스_2288" d="M83.514 424.981a24.053 24.053 0 0 0 2.8-11.1l.308-30.142" class="cls-31" data-name="패스 2288" transform="translate(-24.985 -255.293)"/>
        <path id="선_16" d="M0 2.102L.021 0" class="cls-29" data-name="선 16" transform="translate(61.656 124.53)"/>
        <path id="패스_2289" d="M190.5 379.074c.11 18.068-.806 38.018-2.729 59.721l-5.722-1.6a24.045 24.045 0 0 1-17.58-22.883l-.432-37.331h26.45z" class="cls-28" data-name="패스 2289" transform="translate(-49.074 -253.273)"/>
        <path id="선_17" d="M2.005.633L0 0" class="cls-29" data-name="선 17" transform="translate(135.555 180.287)"/>
        <path id="패스_2290" d="M184.386 452.741a19.711 19.711 0 0 1-9.631-7.925" class="cls-30" data-name="패스 2290" transform="translate(-52.281 -273.566)"/>
        <path id="패스_2291" d="M172.115 424.981a24.053 24.053 0 0 1-2.8-11.1l-.308-30.142" class="cls-31" data-name="패스 2291" transform="translate(-50.561 -255.293)"/>
        <path id="선_18" d="M.022 2.102L0 0" class="cls-29" data-name="선 18" transform="translate(118.405 124.53)"/>
        <path id="패스_2292" d="M157.91 376.985H55.17l-.013 2.089q-.113 18.661 1.226 39.959a24.712 24.712 0 0 0 14.075 4.382h17.775a18.558 18.558 0 0 0 17.851-12.838l.457-1.477.457 1.477a18.559 18.559 0 0 0 17.85 12.838h17.774a24.713 24.713 0 0 0 14.075-4.382q1.335-21.274 1.226-39.959z" class="cls-32" data-name="패스 2292" transform="translate(-16.499 -253.273)"/>
        <path id="패스_2293" d="M118.69 214.11H86.3c-18.168 8.533-45.076 35.625-44.669 121.27a24.758 24.758 0 0 0 24.783 24.591h17.773a18.558 18.558 0 0 0 17.851-12.838l.457-1.477.457 1.477a18.558 18.558 0 0 0 17.85 12.838h17.774a24.758 24.758 0 0 0 24.783-24.591c.406-85.645-26.501-112.737-44.669-121.27z" class="cls-23" data-name="패스 2293" transform="translate(-12.453 -204.546)"/>
        <path id="패스_2294" d="M138.112 204.272a1.62 1.62 0 0 0-.73-.777l-4.973-2.574a3.916 3.916 0 0 0-4.277.444l-10.413 8.5-10.413-8.5a3.916 3.916 0 0 0-4.277-.444l-4.973 2.574a1.62 1.62 0 0 0-.73.777c-1.471.363-2.99.8-4.55 1.334.776 6.757 4.658 22.574 24.032 22.574h1.821c19.374 0 23.257-15.817 24.032-22.574a53.507 53.507 0 0 0-4.549-1.334z" class="cls-33" data-name="패스 2294" transform="translate(-27.756 -200.469)"/>
        <path id="패스_2295" d="M109.274 201.346l10.418 8.506-7.92 10.5a3.4 3.4 0 0 1-5.783-.592L99.3 205.627a1.634 1.634 0 0 1 .726-2.151L105 200.9a3.916 3.916 0 0 1 4.274.446z" class="cls-23" data-name="패스 2295" transform="translate(-29.66 -200.464)"/>
        <path id="패스_2296" d="M138.886 201.346l-10.418 8.506 7.92 10.5a3.4 3.4 0 0 0 5.783-.592l6.691-14.131a1.634 1.634 0 0 0-.726-2.151l-4.973-2.574a3.916 3.916 0 0 0-4.277.444z" class="cls-23" data-name="패스 2296" transform="translate(-38.434 -200.464)"/>
        <ellipse id="타원_262" cx="3.125" cy="3.125" class="cls-23" data-name="타원 262" rx="3.125" ry="3.125" transform="translate(86.917 18.061)"/>
        <ellipse id="타원_263" cx="3.125" cy="3.125" class="cls-33" data-name="타원 263" rx="3.125" ry="3.125" transform="translate(87.836 74.931)"/>
        <ellipse id="타원_264" cx="3.125" cy="3.125" class="cls-34" data-name="타원 264" rx="3.125" ry="3.125" transform="translate(86.917 74.011)"/>
        <ellipse id="타원_265" cx="3.125" cy="3.125" class="cls-33" data-name="타원 265" rx="3.125" ry="3.125" transform="translate(87.836 103.315)"/>
        <ellipse id="타원_266" cx="3.125" cy="3.125" class="cls-34" data-name="타원 266" rx="3.125" ry="3.125" transform="translate(86.917 102.395)"/>
        <ellipse id="타원_267" cx="3.125" cy="3.125" class="cls-33" data-name="타원 267" rx="3.125" ry="3.125" transform="translate(87.836 131.698)"/>
        <ellipse id="타원_268" cx="3.125" cy="3.125" class="cls-26" data-name="타원 268" rx="3.125" ry="3.125" transform="translate(86.917 130.779)"/>
        <path id="사각형_273" d="M0 0h94.612v14.717H0z" class="cls-35" data-name="사각형 273" transform="translate(42.735 120.909)"/>
        <path id="패스_2297" d="M78.034 251.208a385.2 385.2 0 0 0-26.194 88.655l14.542 5.431a385.2 385.2 0 0 1 26.194-88.655h12.965v-17.871H95.73c-6.3-3.375-8.025-20.724-8.5-29.952a4.157 4.157 0 0 0-5.663-3.654l-8.44 3.287a4.154 4.154 0 0 0-2.647 4.035c.27 6.834 1.538 24.176 7.554 38.724z" class="cls-35" data-name="패스 2297" transform="translate(-15.509 -201.784)"/>
        <rect id="사각형_274" width="18.157" height="14.601" class="cls-36" data-name="사각형 274" rx="4.312" transform="rotate(19.52 -183.458 187.49)"/>
        <rect id="사각형_275" width="19.896" height="22.689" class="cls-37" data-name="사각형 275" rx="3.962" transform="rotate(-10.463 118.44 -286.798)"/>
        <path id="패스_2298" d="M0 0h2.76v16.316A1.38 1.38 0 0 1 1.38 17.7 1.38 1.38 0 0 1 0 16.316z" class="cls-38" data-name="패스 2298" transform="rotate(-10.463 123.718 -334.464)"/>
        <path id="패스_2299" d="M77.828 226.3l1.373 7.437a5.821 5.821 0 0 0 5.34 1.714l9.849-1.819a5.821 5.821 0 0 0 4.376-3.508l-1.373-7.437a2.622 2.622 0 0 0-.381-.942l-19.165 3.539a2.622 2.622 0 0 0-.019 1.016z" class="cls-39" data-name="패스 2299" transform="translate(-23.272 -206.831)"/>
        <path id="패스_2300" d="M0 0h20.315v5.782a5.431 5.431 0 0 1-5.431 5.431H5.431A5.431 5.431 0 0 1 0 5.782z" class="cls-37" data-name="패스 2300" transform="rotate(-10.463 107.544 -284.646)"/>
        <path id="패스_2301" d="M96.287 216.313l1.05 5.687a5.431 5.431 0 0 1-4.355 6.327l-9.3 1.717a5.431 5.431 0 0 1-6.327-4.355L76.31 220" class="cls-40" data-name="패스 2301" transform="translate(-22.83 -205.205)"/>
        <ellipse id="타원_269" cx="1.956" cy="1.956" class="cls-38" data-name="타원 269" rx="1.956" ry="1.956" transform="translate(63.223 18.207)"/>
        <ellipse id="타원_270" cx="1.956" cy="1.956" class="cls-35" data-name="타원 270" rx="1.956" ry="1.956" transform="translate(62.674 17.284)"/>
        <path id="패스_2302" d="M36.827 365.792s-1.635 12.265-2.1 16.119 1.343 4.263 2.687 5.2 14.075 5.139 15.185 5.548a9.319 9.319 0 0 0 6.015-.467c2.336-.993 3.855-.934 4.789-5.139s5.315-26.456 5.315-26.456l-18.4-7.359z" class="cls-37" data-name="패스 2302" transform="translate(-10.366 -246.168)"/>
        <path id="패스_2303" d="M70.042 389.808c.934-4.2 5.311-26.437 5.314-26.456l-1.162-.465-.058-.024-.411-.164c-8.228-2.9-11.05 20.562-12.093 27.167-.69 4.369-3.144 4.408-4.782 4.73 1.232.419 2.129.723 2.388.818a9.319 9.319 0 0 0 6.015-.467c2.336-.992 3.855-.934 4.789-5.139z" class="cls-39" data-name="패스 2303" transform="translate(-17.008 -248.925)"/>
        <path id="패스_2304" d="M0 0h2.979v13.228a1.489 1.489 0 0 1-1.489 1.489A1.489 1.489 0 0 1 0 13.228z" class="cls-38" data-name="패스 2304" transform="rotate(9.25 -746.767 272.29)"/>
        <path id="패스_2305" d="M52.336 351.354a8.142 8.142 0 0 0-5.3-.6c-8.267 1.855-7.955 4.072-9.225 10.818-1.4 7.446-.263 6.483 4.643 8.848s10.512 4.818 12.615 4.818 3.241-2.541 4.293-6.57 1.226-9.023 9.9-9.2z" class="cls-37" data-name="패스 2305" transform="translate(-11.145 -245.367)"/>
        <path id="패스_2306" d="M49.608 350.652c-10.863.993-10.528 4.2-11.8 10.951-1.4 7.446-.263 6.483 4.643 8.848s10.512 4.818 12.615 4.818 3.241-2.541 4.293-6.57 1.226-9.023 9.9-9.2" class="cls-41" data-name="패스 2306" transform="translate(-11.145 -245.395)"/>
        <ellipse id="타원_271" cx="2.92" cy="2.333" class="cls-39" data-name="타원 271" rx="2.92" ry="2.333" transform="rotate(-75.982 95.717 40.467)"/>
        <ellipse id="타원_272" cx="2.92" cy="2.333" class="cls-35" data-name="타원 272" rx="2.92" ry="2.333" transform="rotate(-75.982 94.496 40.634)"/>
        <path id="패스_2307" d="M155.967 251.208a385.2 385.2 0 0 1 26.194 88.655l-14.542 5.431a385.2 385.2 0 0 0-26.194-88.655h-12.966v-17.871h9.812c6.3-3.375 8.025-20.724 8.5-29.952a4.157 4.157 0 0 1 5.663-3.654l8.44 3.287a4.154 4.154 0 0 1 2.647 4.035c-.271 6.834-1.538 24.176-7.554 38.724z" class="cls-35" data-name="패스 2307" transform="translate(-38.431 -201.784)"/>
        <rect id="사각형_276" width="18.157" height="14.601" class="cls-36" data-name="사각형 276" rx="4.312" transform="matrix(-.942 .334 -.334 -.942 132.86 85.81)"/>
        <rect id="사각형_277" width="19.896" height="22.689" class="cls-37" data-name="사각형 277" rx="3.962" transform="scale(-1) rotate(10.49 151.817 -683.65)"/>
        <path id="패스_2308" d="M1.38 0a1.38 1.38 0 0 1 1.38 1.38V17.7H0V1.38A1.38 1.38 0 0 1 1.38 0z" class="cls-38" data-name="패스 2308" transform="scale(-1) rotate(10.49 129.9 -638.578)"/>
        <path id="패스_2309" d="M170.141 226.3l-1.373 7.437a5.821 5.821 0 0 1-5.34 1.714l-9.85-1.819a5.821 5.821 0 0 1-4.376-3.508l1.373-7.437a2.622 2.622 0 0 1 .381-.942l19.165 3.539a2.622 2.622 0 0 1 .019 1.016z" class="cls-39" data-name="패스 2309" transform="translate(-44.637 -206.831)"/>
        <path id="패스_2310" d="M5.431 0h9.452a5.431 5.431 0 0 1 5.431 5.431v5.782H0V5.431A5.431 5.431 0 0 1 5.431 0z" class="cls-37" data-name="패스 2310" transform="scale(-1) rotate(10.49 78.414 -691.506)"/>
        <path id="패스_2311" d="M151.622 216.313l-1.05 5.687a5.431 5.431 0 0 0 4.355 6.327l9.3 1.717a5.431 5.431 0 0 0 6.327-4.355L171.6 220" class="cls-40" data-name="패스 2311" transform="translate(-45.019 -205.205)"/>
        <ellipse id="타원_273" cx="1.956" cy="1.956" class="cls-38" data-name="타원 273" rx="1.956" ry="1.956" transform="translate(112.924 18.207)"/>
        <ellipse id="타원_274" cx="1.956" cy="1.956" class="cls-35" data-name="타원 274" rx="1.956" ry="1.956" transform="translate(113.474 17.284)"/>
        <path id="패스_2312" d="M205.556 365.792s1.635 12.265 2.1 16.119-1.343 4.263-2.687 5.2-14.075 5.139-15.185 5.548a9.319 9.319 0 0 1-6.015-.467c-2.336-.993-3.855-.934-4.789-5.139s-5.315-26.456-5.315-26.456l18.4-7.359z" class="cls-37" data-name="패스 2312" transform="translate(-51.956 -246.168)"/>
        <path id="패스_2313" d="M178.982 389.808c-.934-4.2-5.311-26.437-5.314-26.456l1.162-.465.058-.024.411-.164c8.228-2.9 11.05 20.562 12.093 27.167.69 4.369 3.144 4.408 4.782 4.73-1.232.419-2.129.723-2.388.818a9.319 9.319 0 0 1-6.015-.467c-2.336-.992-3.854-.934-4.789-5.139z" class="cls-39" data-name="패스 2313" transform="translate(-51.956 -248.925)"/>
        <path id="패스_2314" d="M1.489 0a1.489 1.489 0 0 1 1.49 1.489v13.228H0V1.489A1.489 1.489 0 0 1 1.489 0z" class="cls-38" data-name="패스 2314" transform="rotate(170.75 68.345 75.548)"/>
        <path id="패스_2315" d="M190.925 351.354a8.142 8.142 0 0 1 5.3-.6c8.267 1.855 7.955 4.072 9.225 10.818 1.4 7.446.263 6.483-4.643 8.848s-10.512 4.818-12.615 4.818-3.241-2.541-4.293-6.57-1.226-9.023-9.9-9.2z" class="cls-37" data-name="패스 2315" transform="translate(-52.056 -245.367)"/>
        <path id="패스_2316" d="M193.654 350.652c10.863.993 10.528 4.2 11.8 10.951 1.4 7.446.263 6.483-4.643 8.848s-10.512 4.818-12.615 4.818-3.241-2.541-4.293-6.57-1.226-9.023-9.9-9.2" class="cls-41" data-name="패스 2316" transform="translate(-52.056 -245.395)"/>
        <ellipse id="타원_275" cx="2.333" cy="2.92" class="cls-39" data-name="타원 275" rx="2.333" ry="2.92" transform="rotate(-14.018 554.36 -513.32)"/>
        <ellipse id="타원_276" cx="2.333" cy="2.92" class="cls-35" data-name="타원 276" rx="2.333" ry="2.92" transform="rotate(-14.018 550.601 -518.274)"/>
        <rect id="사각형_278" width="18.981" height="18.981" class="cls-36" data-name="사각형 278" rx="6.216" transform="translate(80.474 36.341)"/>
        <rect id="사각형_279" width="16.256" height="16.256" class="cls-36" data-name="사각형 279" rx="6.216" transform="translate(81.835 120.139)"/>
    </g>
</svg>
