<svg xmlns="http://www.w3.org/2000/svg" viewBox="0 0 55.83 52.89"><defs><style>.cls-1{fill:#adb3bc;}</style></defs><title>프로필</title><g id="레이어_2" data-name="레이어 2"><g id="레이어_1-2" data-name="레이어 1"><path class="cls-1" d="M51.82,25.59A24.2,24.2,0,0,0,38.08,6.9V0H17.76V6.9A24.19,24.19,0,0,0,4,25.59H0v4.5H3.84a24.12,24.12,0,0,0,48.16,0h3.83v-4.5ZM17.76,12V20.4h4.5V5.33a23.9,23.9,0,0,1,11.32,0V20.4h4.5V12a19.62,19.62,0,0,1,9.17,13.57H8.58A19.6,19.6,0,0,1,17.76,12ZM27.92,48.39A19.64,19.64,0,0,1,8.36,30.09H47.47A19.64,19.64,0,0,1,27.92,48.39Z"/></g></g></svg>