<?xml version="1.0" encoding="utf-8"?>
<!-- Generator: Adobe Illustrator 22.1.0, SVG Export Plug-In . SVG Version: 6.00 Build 0)  -->
<svg version="1.1" id="레이어_1" xmlns="http://www.w3.org/2000/svg" xmlns:xlink="http://www.w3.org/1999/xlink" x="0px"
	 y="0px" viewBox="0 0 615 69.5" style="enable-background:new 0 0 615 69.5;" xml:space="preserve">
<style type="text/css">
	.st0{fill:#FFFFFF;}
</style>
<path class="st0" d="M0.5,69.5l19.3-16.5h5.6l19.3,16.5l19.3-16.5h5.5l19.3,16.5l19.3-16.5h5.5l19.3,16.5L152,52.9h5.5l19.3,16.5
	l19.3-16.5h5.5l19.3,16.5l19.3-16.5h5.5L265,69.5l19.3-16.5h5.6l19.3,16.5l19.3-16.5h5.5l19.3,16.5l19.3-16.5h5.5l19.3,16.5
	l19.3-16.5h5.5l19.3,16.5l19.3-16.5h5.5l19.3,16.5l19.3-16.5h5.5l19.3,16.5l19.3-16.5h5.5l19.3,16.5l19.3-16.5h5.5L615,67.2V0H0
	v40.8V69L0.5,69.5z"/>
</svg>
