<?xml version="1.0" encoding="utf-8"?>
<!-- Generator: Adobe Illustrator 22.1.0, SVG Export Plug-In . SVG Version: 6.00 Build 0)  -->
<svg version="1.1" id="레이어_1" xmlns="http://www.w3.org/2000/svg" xmlns:xlink="http://www.w3.org/1999/xlink" x="0px"
	 y="0px" viewBox="0 0 615 69.5" style="enable-background:new 0 0 615 69.5;" xml:space="preserve">
<style type="text/css">
	.st0{fill:#FFFFFF;}
</style>
<path class="st0" d="M595.2,16.5h-5.6L570.4,0l-19.3,16.5h-5.5L526.3,0L507,16.5h-5.5L482.3,0L463,16.5h-5.5L438.2,0l-19.3,16.5
	h-5.5L394.1,0l-19.3,16.5h-5.5L350,0l-19.3,16.5h-5.6L305.9,0l-19.3,16.5h-5.5L261.9,0l-19.3,16.5H237L217.8,0l-19.3,16.5H193
	L173.7,0l-19.3,16.5h-5.5L129.6,0l-19.3,16.5h-5.5L85.6,0L66.3,16.5h-5.5L41.5,0L22.2,16.5h-5.5L0,0v69.5h615V0L595.2,16.5z"/>
</svg>
