<svg xmlns="http://www.w3.org/2000/svg" viewBox="0 0 34 29"><defs><style>.cls-1{fill:#00a2ff;}</style></defs><title>자산 6</title><g id="레이어_2" data-name="레이어 2"><g id="레이어_1-2" data-name="레이어 1"><path class="cls-1" d="M33,29H1a1,1,0,0,1-1-1V16a1,1,0,0,1,2,0V27H32V16a1,1,0,0,1,2,0V28A1,1,0,0,1,33,29Z"/><path class="cls-1" d="M17,18a1,1,0,0,1-1-1V1a1,1,0,0,1,2,0V17A1,1,0,0,1,17,18Z"/><path class="cls-1" d="M17,18a1,1,0,0,1-.71-.29l-7-7a1,1,0,0,1,1.42-1.42l7,7a1,1,0,0,1,0,1.42A1,1,0,0,1,17,18Z"/><path class="cls-1" d="M17,18a1,1,0,0,1-.71-.29,1,1,0,0,1,0-1.42l7-7a1,1,0,0,1,1.42,1.42l-7,7A1,1,0,0,1,17,18Z"/></g></g></svg>