<svg xmlns="http://www.w3.org/2000/svg" xmlns:xlink="http://www.w3.org/1999/xlink" width="56" height="56" viewBox="0 0 56 56">
  <defs>
    <clipPath id="clip-path">
      <circle id="타원_157" data-name="타원 157" cx="28" cy="28" r="28" transform="translate(236 459)" fill="#ebebeb"/>
    </clipPath>
    <clipPath id="clip-path-2">
      <circle id="타원_163" data-name="타원 163" cx="28" cy="28" r="28"/>
    </clipPath>
  </defs>
  <g id="마스크_그룹_22" data-name="마스크 그룹 22" transform="translate(-236 -459)" clip-path="url(#clip-path)">
    <g id="ᄂ_이버ᄇ_ᆫ드_56px_" data-name="네이버밴드(56px)" transform="translate(236 459)">
      <g id="그룹_3963" data-name="그룹 3963" clip-path="url(#clip-path-2)">
        <path id="패스_216" data-name="패스 216" d="M56.2,45.8A10.285,10.285,0,0,1,45.9,56.1H10A10.415,10.415,0,0,1-.3,45.8V10.3A10.285,10.285,0,0,1,10,0H45.9A10.285,10.285,0,0,1,56.2,10.3Z" fill="#5b5c64"/>
        <path id="패스_217" data-name="패스 217" d="M38.1,15.6H17.4a5.789,5.789,0,0,0-5.6,5.9,5.725,5.725,0,0,0,5.6,5.9H38.1a5.744,5.744,0,0,0,5.7-5.9,5.872,5.872,0,0,0-5.7-5.9m-.1,11H17.5a5.052,5.052,0,0,1,0-10.1H38a5.052,5.052,0,0,1,0,10.1M20.3,21.4a1.786,1.786,0,0,0-1.2-3.2h-2a.945.945,0,0,0-1,1v4.7a.945.945,0,0,0,1,1h2a1.87,1.87,0,0,0,2.1-2,1.8,1.8,0,0,0-.9-1.5m-2.9-1.8h1.4c.5,0,.7.2.7.6s-.2.6-.7.6H17.4Zm1.5,3.9H17.4V22.1h1.5c.4,0,.8.1.8.7,0,.5-.3.7-.8.7M25.8,19a1.291,1.291,0,0,0-1.3-.9,1.377,1.377,0,0,0-1.3.9l-1.7,4.9a.751.751,0,0,0,.4.9h.3c.3,0,.5-.2.7-.5l.5-1.4h2.4l.5,1.4a.738.738,0,0,0,.6.5.367.367,0,0,0,.3-.1.807.807,0,0,0,.4-.9Zm-2,2.7.7-2.1a.1.1,0,1,1,.2,0l.7,2.1Zm13.1-3.5H35.5a.945.945,0,0,0-1,1v4.7a.945.945,0,0,0,1,1h1.4A2.886,2.886,0,0,0,40,22V21a2.764,2.764,0,0,0-3.1-2.8m1.7,3.7A1.444,1.444,0,0,1,37,23.4H36V19.5h1a1.427,1.427,0,0,1,1.6,1.6v.8M33,18.2a.684.684,0,0,0-.7.7v3.9l-2.2-4a1.113,1.113,0,0,0-2.1.5v4.9a.7.7,0,0,0,1.4,0v-4l2.3,4.2a1.113,1.113,0,0,0,1,.6,1.028,1.028,0,0,0,1-1.1v-5a.684.684,0,0,0-.7-.7" fill="#fff"/>
        <rect id="사각형_1940" data-name="사각형 1940" width="56.4" height="9.4" transform="translate(-0.3 35.6)" fill="#68bf7e"/>
      </g>
      <g id="그룹_3964" data-name="그룹 3964" clip-path="url(#clip-path-2)">
        <path id="패스_218" data-name="패스 218" d="M56,51.4a4.481,4.481,0,0,1-4.5,4.5H4.5A4.481,4.481,0,0,1,0,51.4V4.4A4.481,4.481,0,0,1,4.5-.1h47A4.481,4.481,0,0,1,56,4.4Z" fill="none"/>
      </g>
    </g>
  </g>
</svg>
