<svg xmlns="http://www.w3.org/2000/svg" xmlns:xlink="http://www.w3.org/1999/xlink" width="56" height="56" viewBox="0 0 56 56">
  <defs>
    <clipPath id="clip-path">
      <circle id="타원_156" data-name="타원 156" cx="28" cy="28" r="28" transform="translate(160 459)" fill="#ebebeb"/>
    </clipPath>
    <clipPath id="clip-path-2">
      <circle id="타원_165" data-name="타원 165" cx="28" cy="28" r="28"/>
    </clipPath>
  </defs>
  <g id="마스크_그룹_23" data-name="마스크 그룹 23" transform="translate(-160 -459)" clip-path="url(#clip-path)">
    <g id="ᄂ_이버블로그_56px_" data-name="네이버블로그(56px)" transform="translate(160 459)">
      <g id="그룹_3968" data-name="그룹 3968">
        <g id="그룹_3965" data-name="그룹 3965">
          <circle id="SVGID_1_" cx="28" cy="28" r="28" fill="#2fb14a"/>
        </g>
        <g id="그룹_3967" data-name="그룹 3967">
          <g id="그룹_3966" data-name="그룹 3966" clip-path="url(#clip-path-2)">
            <path id="패스_219" data-name="패스 219" d="M56,51.4a4.481,4.481,0,0,1-4.5,4.5H4.5A4.481,4.481,0,0,1,0,51.4V4.4A4.481,4.481,0,0,1,4.5-.1h47A4.481,4.481,0,0,1,56,4.4Z" fill="#2fb14a"/>
          </g>
        </g>
      </g>
      <g id="그룹_3969" data-name="그룹 3969">
        <path id="패스_220" data-name="패스 220" d="M37.3,16.5H18.6a4.268,4.268,0,0,0-4.3,4.3V31.1a4.268,4.268,0,0,0,4.3,4.3H25L27.2,39l.1.1a.822.822,0,0,0,.6.4.548.548,0,0,0,.6-.4l.1-.1,2.2-3.6h6.4a4.268,4.268,0,0,0,4.3-4.3V20.9a4.209,4.209,0,0,0-4.2-4.4" fill="#fff"/>
        <path id="패스_221" data-name="패스 221" d="M20.4,24a2.168,2.168,0,0,0-1.4.7V22H17.3v7H19v-.5a1.61,1.61,0,0,0,1.4.7,2.5,2.5,0,0,0,2.4-2.6c-.1,0-.2-2.6-2.4-2.6M20,27.7a1.1,1.1,0,1,1,1.1-1.1A1.11,1.11,0,0,1,20,27.7" fill="#f17528"/>
        <path id="패스_222" data-name="패스 222" d="M23.3,21.9v1.6s.8,0,.8,1.4V29h1.6V24.5c-.1,0,0-2.6-2.4-2.6" fill="#f17528"/>
        <path id="패스_223" data-name="패스 223" d="M29.6,24.1s-2.8,0-2.8,2.6a2.476,2.476,0,0,0,2.8,2.5s2.8,0,2.8-2.5a2.536,2.536,0,0,0-2.8-2.6m0,3.6a1.1,1.1,0,1,1,1.1-1.1,1.182,1.182,0,0,1-1.1,1.1" fill="#f17528"/>
        <path id="패스_224" data-name="패스 224" d="M37,24.2v.5a1.911,1.911,0,0,0-1.4-.6,2.341,2.341,0,0,0-2.4,2.6s0,2.5,2.3,2.5a2.343,2.343,0,0,0,1.5-.6V29a1.069,1.069,0,0,1-1.1,1.2h-.4v1.5h.7a2.418,2.418,0,0,0,2.4-2.6V24.4H37Zm-1,3.5a1.1,1.1,0,1,1,1.1-1.1A1.11,1.11,0,0,1,36,27.7" fill="#f17528"/>
      </g>
    </g>
  </g>
</svg>
