<svg xmlns="http://www.w3.org/2000/svg" xmlns:xlink="http://www.w3.org/1999/xlink" width="56" height="56" viewBox="0 0 56 56">
  <defs>
    <clipPath id="clip-path">
      <circle id="타원_153" data-name="타원 153" cx="28" cy="28" r="28" transform="translate(84 362)" fill="#ebebeb"/>
    </clipPath>
  </defs>
  <g id="마스크_그룹_19" data-name="마스크 그룹 19" transform="translate(-84 -362)" clip-path="url(#clip-path)">
    <g id="카카오톡" transform="translate(84 362)">
      <circle id="타원_160" data-name="타원 160" cx="28" cy="28" r="28" fill="#ffe300"/>
      <path id="패스_64" d="M28,19.017c-5.483,0-9.8,3.5-9.8,7.7a7.366,7.366,0,0,0,4.667,6.533c-.233.817-.817,2.683-.933,3.15-.117.583.233.583.467.35.117-.117,2.683-1.867,3.733-2.567A10.036,10.036,0,0,0,28,34.3c5.483,0,9.8-3.5,9.8-7.7S33.483,19.017,28,19.017Z" fill="#381e1f"/>
    </g>
  </g>
</svg>
