<svg xmlns="http://www.w3.org/2000/svg" xmlns:xlink="http://www.w3.org/1999/xlink" width="56" height="56" viewBox="0 0 56 56">
  <defs>
    <clipPath id="clip-path">
      <circle id="타원_158" data-name="타원 158" cx="28" cy="28" r="28" transform="translate(84 459)" fill="#ebebeb"/>
    </clipPath>
    <clipPath id="clip-path-2">
      <circle id="타원_166" data-name="타원 166" cx="28" cy="28" r="28"/>
    </clipPath>
    <linearGradient id="linear-gradient" x1="0.499" y1="1" x2="0.499" gradientUnits="objectBoundingBox">
      <stop offset="0" stop-color="#fdbc0f"/>
      <stop offset="1" stop-color="#ffd900"/>
    </linearGradient>
  </defs>
  <g id="마스크_그룹_24" data-name="마스크 그룹 24" transform="translate(-84 -459)" clip-path="url(#clip-path)">
    <g id="카카오스토리_56px_" data-name="카카오스토리(56px)" transform="translate(84 459)">
      <g id="그룹_3972" data-name="그룹 3972">
        <g id="그룹_3970" data-name="그룹 3970" clip-path="url(#clip-path-2)">
          <path id="패스_225" data-name="패스 225" d="M56,51.5A4.481,4.481,0,0,1,51.5,56H4.5A4.481,4.481,0,0,1,0,51.5V4.5A4.461,4.461,0,0,1,4.4,0h47A4.567,4.567,0,0,1,56,4.5Z" fill="url(#linear-gradient)"/>
        </g>
        <g id="그룹_3971" data-name="그룹 3971" clip-path="url(#clip-path-2)">
          <path id="패스_226" data-name="패스 226" d="M56,51.4a4.481,4.481,0,0,1-4.5,4.5H4.5A4.481,4.481,0,0,1,0,51.4V4.4A4.481,4.481,0,0,1,4.5-.1h47A4.481,4.481,0,0,1,56,4.4Z" fill="none"/>
        </g>
      </g>
      <path id="패스_227" data-name="패스 227" d="M32.6,17H23.2a1.11,1.11,0,0,0-1.1,1.1v9.3a1.11,1.11,0,0,0,1.1,1.1h4.3a6.674,6.674,0,0,1-1.2,3.4,14.335,14.335,0,0,1-2.4,2.5.6.6,0,0,0,0,.9l3,3.4a.37.37,0,0,0,.3.2h.4a15.164,15.164,0,0,0,6.1-11.8V18.2A1.03,1.03,0,0,0,32.6,17" fill="#fff"/>
    </g>
  </g>
</svg>
