<svg xmlns="http://www.w3.org/2000/svg" xmlns:xlink="http://www.w3.org/1999/xlink" width="56" height="56" viewBox="0 0 56 56">
  <defs>
    <clipPath id="clip-path">
      <circle id="타원_159" data-name="타원 159" cx="28" cy="28" r="28" fill="#5cbaf0"/>
    </clipPath>
  </defs>
  <g id="그룹_3962" data-name="그룹 3962" transform="translate(-160 -362)">
    <g id="트ᄋ_터_56px_" data-name="트위터(56px)" transform="translate(160 362)">
      <g id="마스크_그룹_21" data-name="마스크 그룹 21" clip-path="url(#clip-path)">
        <g id="트ᄋ_터_56px_2" data-name="트위터(56px)">
          <circle id="타원_162" data-name="타원 162" cx="28" cy="28" r="28" fill="#059ff5"/>
          <path id="패스_215" data-name="패스 215" d="M23.6,37.7a13.5,13.5,0,0,1-7.5-2.2c.4,0,.8.1,1.2.1a10,10,0,0,0,6.1-2.1,4.863,4.863,0,0,1-4.6-3.4,2.769,2.769,0,0,0,.9.1A5.853,5.853,0,0,0,21,30a4.933,4.933,0,0,1-3.9-4.8v-.1a4.282,4.282,0,0,0,2.2.6,5.021,5.021,0,0,1-2.2-4.1,4.514,4.514,0,0,1,.7-2.5,13.676,13.676,0,0,0,10.1,5.1,4.1,4.1,0,0,1-.1-1.1,4.908,4.908,0,0,1,4.9-4.9,4.841,4.841,0,0,1,3.6,1.6,8.356,8.356,0,0,0,3.1-1.2,4.87,4.87,0,0,1-2.2,2.7,9.006,9.006,0,0,0,2.8-.8A8.509,8.509,0,0,1,37.5,23v.6c0,6.6-4.9,14.1-13.9,14.1" fill="#fff"/>
        </g>
      </g>
    </g>
  </g>
</svg>
