<svg xmlns="http://www.w3.org/2000/svg" xmlns:xlink="http://www.w3.org/1999/xlink" width="240" height="60" viewBox="0 0 240 60">
  <defs>
    <clipPath id="clip-path">
      <rect id="사각형_313" data-name="사각형 313" width="240" height="60"/>
    </clipPath>
  </defs>
  <g id="아트보드_1" data-name="아트보드 – 1" clip-path="url(#clip-path)">
    <g id="그룹_443" data-name="그룹 443" transform="translate(-1560 -1011)">
      <g id="아트보드_1-2" data-name="아트보드 – 1" transform="translate(1560 1011)" clip-path="url(#clip-path)">
        <g id="레이어_2" data-name="레이어 2" transform="translate(211 3)">
          <g id="레이어_1" data-name="레이어 1">
            <path id="패스_136" data-name="패스 136" d="M26.591,2.152a7.346,7.346,0,0,0-10.389,0l-1.831,1.83-1.83-1.83a7.346,7.346,0,0,0-10.389,0h0a7.346,7.346,0,0,0,0,10.389l12.22,12.022,12.22-12.022a7.346,7.346,0,0,0,0-10.389Z" fill="#7e2aff"/>
          </g>
        </g>
        <g id="레이어_2-2" data-name="레이어 2" transform="translate(181 3)" opacity="0.5">
          <g id="레이어_1-2" data-name="레이어 1">
            <g id="패스_135" data-name="패스 135">
              <path id="패스_120" data-name="패스 120" d="M26.591,2.152a7.346,7.346,0,0,0-10.389,0l-1.831,1.83-1.83-1.83a7.346,7.346,0,0,0-10.389,0h0a7.346,7.346,0,0,0,0,10.389l12.22,12.022,12.22-12.022a7.346,7.346,0,0,0,0-10.389Z" fill="none"/>
              <path id="패스_121" data-name="패스 121" d="M7.346,1A6.346,6.346,0,0,0,2.857,11.832L14.371,23.16,25.887,11.83a6.346,6.346,0,1,0-8.978-8.972L15.078,4.689l-.707.707-.707-.707-1.83-1.83A6.3,6.3,0,0,0,7.346,1m0-1a7.323,7.323,0,0,1,5.2,2.152l1.831,1.831L16.2,2.152a7.346,7.346,0,0,1,10.389,0h0a7.346,7.346,0,0,1,0,10.389L14.371,24.562,2.152,12.541a7.346,7.346,0,0,1,0-10.389h0A7.323,7.323,0,0,1,7.346,0Z" fill="#333"/>
            </g>
          </g>
        </g>
        <path id="패스_137" data-name="패스 137" d="M772.373,1064.53l-14.058,9.34a1.477,1.477,0,0,1-2.315-1.142v-18.68a1.476,1.476,0,0,1,2.315-1.142l14.058,9.34a1.353,1.353,0,0,1,0,2.284Z" transform="translate(-749 -1048.648)" fill="#333"/>
        <g id="그룹_426" data-name="그룹 426" transform="translate(-1212.039 -1195.244)">
          <rect id="사각형_62" data-name="사각형 62" width="4" height="24" rx="2" transform="translate(1249.039 1198.245)" fill="#333"/>
          <rect id="사각형_63" data-name="사각형 63" width="4" height="24" rx="2" transform="translate(1261.123 1198.245)" fill="#333"/>
        </g>
        <g id="그룹_424" data-name="그룹 424" transform="translate(63 5)">
          <line id="선_11" data-name="선 11" x2="24.091" fill="none" stroke="#333" stroke-linecap="round" stroke-width="1.5"/>
          <line id="선_12" data-name="선 12" x2="24.091" transform="translate(0 8.339)" fill="none" stroke="#333" stroke-linecap="round" stroke-width="1.5"/>
          <line id="선_13" data-name="선 13" x2="10.192" transform="translate(0 16.679)" fill="none" stroke="#333" stroke-linecap="round" stroke-width="1.5"/>
          <g id="그룹_45" data-name="그룹 45" transform="translate(15.752 12.972)">
            <line id="선_14" data-name="선 14" x2="7.413" transform="translate(0 3.706)" fill="none" stroke="#333" stroke-linecap="round" stroke-width="1.5"/>
            <line id="선_15" data-name="선 15" y2="7.413" transform="translate(3.706)" fill="none" stroke="#333" stroke-linecap="round" stroke-width="1.5"/>
          </g>
        </g>
        <g id="그룹_425" data-name="그룹 425" transform="translate(93 5)">
          <line id="선_11-2" data-name="선 11" x2="24.091" fill="none" stroke="#7e2aff" stroke-linecap="round" stroke-width="1.5"/>
          <line id="선_12-2" data-name="선 12" x2="24.091" transform="translate(0 8.339)" fill="none" stroke="#7e2aff" stroke-linecap="round" stroke-width="1.5"/>
          <line id="선_13-2" data-name="선 13" x2="10.192" transform="translate(0 16.679)" fill="none" stroke="#7e2aff" stroke-linecap="round" stroke-width="1.5"/>
          <g id="그룹_45-2" data-name="그룹 45" transform="translate(15.752 12.972)">
            <line id="선_14-2" data-name="선 14" x2="7.413" transform="translate(0 3.706)" fill="none" stroke="#7e2aff" stroke-linecap="round" stroke-width="1.5"/>
            <line id="선_15-2" data-name="선 15" y2="7.413" transform="translate(3.706)" fill="none" stroke="#7e2aff" stroke-linecap="round" stroke-width="1.5"/>
          </g>
        </g>
        <g id="레이어_2-3" data-name="레이어 2" transform="translate(13 35)">
          <g id="레이어_1-3" data-name="레이어 1">
            <path id="패스_11" data-name="패스 11" d="M2.1,0A2.1,2.1,0,1,1,0,2.1,2.1,2.1,0,0,1,2.1,0Z" fill="#333" opacity="0.8"/>
            <circle id="타원_7" data-name="타원 7" cx="2.1" cy="2.1" r="2.1" transform="translate(0 8.4)" fill="#333" opacity="0.6"/>
            <path id="패스_10" data-name="패스 10" d="M2.1,0A2.1,2.1,0,1,1,0,2.1,2.1,2.1,0,0,1,2.1,0Z" transform="translate(0 16.8)" fill="#333" opacity="0.4"/>
          </g>
        </g>
        <g id="레이어_2-4" data-name="레이어 2" transform="translate(43.8 35)">
          <g id="레이어_1-4" data-name="레이어 1">
            <path id="패스_11-2" data-name="패스 11" d="M2.1,0A2.1,2.1,0,1,1,0,2.1,2.1,2.1,0,0,1,2.1,0Z" fill="#7e2aff" opacity="0.8"/>
            <circle id="타원_7-2" data-name="타원 7" cx="2.1" cy="2.1" r="2.1" transform="translate(0 8.4)" fill="#7e2aff" opacity="0.6"/>
            <path id="패스_10-2" data-name="패스 10" d="M2.1,0A2.1,2.1,0,1,1,0,2.1,2.1,2.1,0,0,1,2.1,0Z" transform="translate(0 16.8)" fill="#7e2aff" opacity="0.4"/>
          </g>
        </g>
        <g id="레이어_2-5" data-name="레이어 2" transform="translate(94 34)">
          <g id="레이어_1-5" data-name="레이어 1">
            <rect id="사각형_5" data-name="사각형 5" width="22" height="16" transform="translate(0 7)" fill="none" stroke="#fff" stroke-miterlimit="10" stroke-width="1.5"/>
            <path id="패스_3" data-name="패스 3" d="M7.25,14.75V.75h9v14" transform="translate(-0.75 -0.75)" fill="none" stroke="#fff" stroke-miterlimit="10" stroke-width="1.5"/>
          </g>
        </g>
        <g id="레이어_2-6" data-name="레이어 2" transform="translate(64 34)" opacity="0.6">
          <g id="레이어_1-6" data-name="레이어 1">
            <rect id="사각형_5-2" data-name="사각형 5" width="22" height="16" transform="translate(0 7)" fill="none" stroke="#fff" stroke-miterlimit="10" stroke-width="1.5"/>
            <path id="패스_3-2" data-name="패스 3" d="M7.25,14.75V.75h9v14" transform="translate(-0.75 -0.75)" fill="none" stroke="#fff" stroke-miterlimit="10" stroke-width="1.5"/>
          </g>
        </g>
        <g id="레이어_2-7" data-name="레이어 2" transform="translate(122.25 2.25)">
          <g id="레이어_1-7" data-name="레이어 1" transform="translate(0.75 0.75)">
            <line id="선_62" data-name="선 62" y1="11.623" x2="11.623" transform="translate(11.623)" fill="none" stroke="#333" stroke-linecap="round" stroke-linejoin="round" stroke-width="1.5"/>
            <path id="패스_56" data-name="패스 56" d="M10.26.75H.75V24H24V14.49" transform="translate(-0.75 -0.75)" fill="none" stroke="#333" stroke-linecap="round" stroke-linejoin="round" stroke-width="1.5"/>
            <path id="패스_57" data-name="패스 57" d="M23.146,8.146V.75h-7.4" transform="translate(0.1 -0.75)" fill="none" stroke="#333" stroke-linecap="round" stroke-linejoin="round" stroke-width="1.5"/>
          </g>
        </g>
        <g id="레이어_2-8" data-name="레이어 2" transform="translate(152.25 2.25)">
          <g id="레이어_1-8" data-name="레이어 1" transform="translate(0.75 0.75)">
            <line id="선_62-2" data-name="선 62" y1="11.623" x2="11.623" transform="translate(11.623)" fill="none" stroke="#7e2aff" stroke-linecap="round" stroke-linejoin="round" stroke-width="1.5"/>
            <path id="패스_56-2" data-name="패스 56" d="M10.26.75H.75V24H24V14.49" transform="translate(-0.75 -0.75)" fill="none" stroke="#7e2aff" stroke-linecap="round" stroke-linejoin="round" stroke-width="1.5"/>
            <path id="패스_57-2" data-name="패스 57" d="M23.146,8.146V.75h-7.4" transform="translate(0.1 -0.75)" fill="none" stroke="#7e2aff" stroke-linecap="round" stroke-linejoin="round" stroke-width="1.5"/>
          </g>
        </g>
      </g>
    </g>
    <g id="레이어_2-9" data-name="레이어 2" transform="translate(154.25 32.25)">
      <g id="레이어_1-9" data-name="레이어 1" transform="translate(0 1)">
        <line id="선_87" data-name="선 87" x1="8" transform="translate(6.75 0.75)" fill="none" stroke="#7e2aff" stroke-linecap="round" stroke-linejoin="round" stroke-width="1.5"/>
        <line id="선_88" data-name="선 88" x1="20" transform="translate(0.75 4.75)" fill="none" stroke="#7e2aff" stroke-linecap="round" stroke-linejoin="round" stroke-width="1.5"/>
        <path id="패스_76" data-name="패스 76" d="M3.25,4.75h15v14.5a4.5,4.5,0,0,1-4.5,4.5h-6a4.5,4.5,0,0,1-4.5-4.5Z" fill="none" stroke="#7e2aff" stroke-linecap="round" stroke-linejoin="round" stroke-width="1.5"/>
        <line id="선_89" data-name="선 89" y2="10" transform="translate(8.25 8.75)" fill="none" stroke="#7e2aff" stroke-linecap="round" stroke-linejoin="round" stroke-width="1.5"/>
        <line id="선_90" data-name="선 90" y2="10" transform="translate(13.25 8.75)" fill="none" stroke="#7e2aff" stroke-linecap="round" stroke-linejoin="round" stroke-width="1.5"/>
      </g>
    </g>
    <g id="레이어_2-10" data-name="레이어 2" transform="translate(124.25 33.25)" opacity="0.5">
      <g id="레이어_1-10" data-name="레이어 1">
        <line id="선_87-2" data-name="선 87" x1="8" transform="translate(6.75 0.75)" fill="none" stroke="#333" stroke-linecap="round" stroke-linejoin="round" stroke-width="1.5"/>
        <line id="선_88-2" data-name="선 88" x1="20" transform="translate(0.75 4.75)" fill="none" stroke="#333" stroke-linecap="round" stroke-linejoin="round" stroke-width="1.5"/>
        <path id="패스_76-2" data-name="패스 76" d="M3.25,4.75h15v14.5a4.5,4.5,0,0,1-4.5,4.5h-6a4.5,4.5,0,0,1-4.5-4.5Z" fill="none" stroke="#333" stroke-linecap="round" stroke-linejoin="round" stroke-width="1.5"/>
        <line id="선_89-2" data-name="선 89" y2="10" transform="translate(8.25 8.75)" fill="none" stroke="#333" stroke-linecap="round" stroke-linejoin="round" stroke-width="1.5"/>
        <line id="선_90-2" data-name="선 90" y2="10" transform="translate(13.25 8.75)" fill="none" stroke="#333" stroke-linecap="round" stroke-linejoin="round" stroke-width="1.5"/>
      </g>
    </g>
  </g>
</svg>
