<svg xmlns="http://www.w3.org/2000/svg" xmlns:xlink="http://www.w3.org/1999/xlink" width="240" height="60" viewBox="0 0 240 60">
  <defs>
    <clipPath id="clip-아트보드_1">
      <rect width="240" height="60"/>
    </clipPath>
  </defs>
  <g id="아트보드_1" data-name="아트보드 – 1" clip-path="url(#clip-아트보드_1)">
    <g id="레이어_2" data-name="레이어 2" transform="translate(211 3)">
      <g id="레이어_1" data-name="레이어 1">
        <path id="패스_136" data-name="패스 136" d="M26.591,2.152a7.346,7.346,0,0,0-10.389,0L14.371,3.982,12.541,2.152a7.346,7.346,0,0,0-10.389,0h0a7.346,7.346,0,0,0,0,10.389l12.22,12.022,12.22-12.022a7.346,7.346,0,0,0,0-10.389Z" fill="#7e2aff"/>
      </g>
    </g>
    <g id="레이어_2-2" data-name="레이어 2" transform="translate(181 3)">
      <g id="레이어_1-2" data-name="레이어 1">
        <g id="패스_135" data-name="패스 135" fill="none">
          <path d="M26.591,2.152a7.346,7.346,0,0,0-10.389,0L14.371,3.982,12.541,2.152a7.346,7.346,0,0,0-10.389,0h0a7.346,7.346,0,0,0,0,10.389l12.22,12.022,12.22-12.022a7.346,7.346,0,0,0,0-10.389Z" stroke="none"/>
          <path d="M 7.346254348754883 0.9999942779541016 C 5.651113510131836 0.9999942779541016 4.05743408203125 1.660114288330078 2.858804702758789 2.858755111694336 C 0.3850173950195313 5.332540512084961 0.3842258453369141 9.357099533081055 2.856803894042969 11.83163261413574 L 14.37139415740967 23.15955352783203 L 25.88705825805664 11.83042812347412 C 28.35824775695801 9.355779647827148 28.35718727111816 5.332067489624023 25.88388442993164 2.858743667602539 C 24.68525314331055 1.660114288330078 23.09159469604492 0.9999942779541016 21.39645385742188 0.9999942779541016 C 19.70131301879883 0.9999942779541016 18.10764312744141 1.660114288330078 16.90901374816895 2.858743667602539 L 15.07851409912109 4.689273834228516 L 14.37142372131348 5.396385192871094 L 13.66431427001953 4.689294815063477 L 11.83369445800781 2.858755111694336 C 10.63506317138672 1.660114288330078 9.041383743286133 0.9999942779541016 7.346254348754883 0.9999942779541016 M 7.346254348754883 -7.62939453125e-06 C 9.226310729980469 -7.62939453125e-06 11.10636901855469 0.7172088623046875 12.54080390930176 2.151643753051758 L 14.37140369415283 3.982173919677734 L 16.201904296875 2.151643753051758 C 17.63633918762207 0.7172088623046875 19.51639556884766 -7.62939453125e-06 21.39645385742188 -7.62939453125e-06 C 23.27650833129883 -7.62939453125e-06 25.15656471252441 0.7172088623046875 26.59099388122559 2.151643753051758 L 26.59100341796875 2.151655197143555 C 29.4598445892334 5.020515441894531 29.4598445892334 9.671834945678711 26.59099388122559 12.54070472717285 L 14.37140369415283 24.56235504150391 L 2.151704788208008 12.5407543182373 C -0.7171764373779297 9.671884536743164 -0.7171764373779297 5.020524978637695 2.151693344116211 2.151643753051758 L 2.151704788208008 2.151643753051758 C 3.586139678955078 0.7172088623046875 5.466196060180664 -7.62939453125e-06 7.346254348754883 -7.62939453125e-06 Z" stroke="none" fill="#fff"/>
        </g>
      </g>
    </g>
    <path id="패스_137" data-name="패스 137" d="M772.373,1064.528l-14.058,9.34a1.477,1.477,0,0,1-2.315-1.142v-18.68a1.476,1.476,0,0,1,2.315-1.142l14.058,9.34A1.353,1.353,0,0,1,772.373,1064.528Z" transform="translate(-749 -1048.648)" fill="#fff"/>
    <g id="그룹_426" data-name="그룹 426" transform="translate(-1212.039 -1195.244)">
      <rect id="사각형_62" data-name="사각형 62" width="4" height="24" rx="2" transform="translate(1249.039 1198.245)" fill="#fff"/>
      <rect id="사각형_63" data-name="사각형 63" width="4" height="24" rx="2" transform="translate(1261.123 1198.245)" fill="#fff"/>
    </g>
    <g id="그룹_424" data-name="그룹 424" transform="translate(63 5)">
      <line id="선_11" data-name="선 11" x2="24.091" fill="none" stroke="#fff" stroke-linecap="round" stroke-width="1.5"/>
      <line id="선_12" data-name="선 12" x2="24.091" transform="translate(0 8.339)" fill="none" stroke="#fff" stroke-linecap="round" stroke-width="1.5"/>
      <line id="선_13" data-name="선 13" x2="10.192" transform="translate(0 16.679)" fill="none" stroke="#fff" stroke-linecap="round" stroke-width="1.5"/>
      <g id="그룹_45" data-name="그룹 45" transform="translate(15.752 12.972)">
        <line id="선_14" data-name="선 14" x2="7.413" transform="translate(0 3.706)" fill="none" stroke="#fff" stroke-linecap="round" stroke-width="1.5"/>
        <line id="선_15" data-name="선 15" y2="7.413" transform="translate(3.706)" fill="none" stroke="#fff" stroke-linecap="round" stroke-width="1.5"/>
      </g>
    </g>
    <g id="그룹_425" data-name="그룹 425" transform="translate(93 5)">
      <line id="선_11-2" data-name="선 11" x2="24.091" fill="none" stroke="#7e2aff" stroke-linecap="round" stroke-width="1.5"/>
      <line id="선_12-2" data-name="선 12" x2="24.091" transform="translate(0 8.339)" fill="none" stroke="#7e2aff" stroke-linecap="round" stroke-width="1.5"/>
      <line id="선_13-2" data-name="선 13" x2="10.192" transform="translate(0 16.679)" fill="none" stroke="#7e2aff" stroke-linecap="round" stroke-width="1.5"/>
      <g id="그룹_45-2" data-name="그룹 45" transform="translate(15.752 12.972)">
        <line id="선_14-2" data-name="선 14" x2="7.413" transform="translate(0 3.706)" fill="none" stroke="#7e2aff" stroke-linecap="round" stroke-width="1.5"/>
        <line id="선_15-2" data-name="선 15" y2="7.413" transform="translate(3.706)" fill="none" stroke="#7e2aff" stroke-linecap="round" stroke-width="1.5"/>
      </g>
    </g>
    <g id="레이어_2-3" data-name="레이어 2" transform="translate(13 35)">
      <g id="레이어_1-3" data-name="레이어 1">
        <path id="패스_11" data-name="패스 11" d="M2.1,0A2.1,2.1,0,1,1,0,2.1,2.1,2.1,0,0,1,2.1,0Z" fill="#fff" opacity="0.8"/>
        <circle id="타원_7" data-name="타원 7" cx="2.1" cy="2.1" r="2.1" transform="translate(0 8.4)" fill="#fff" opacity="0.6"/>
        <path id="패스_10" data-name="패스 10" d="M2.1,0A2.1,2.1,0,1,1,0,2.1,2.1,2.1,0,0,1,2.1,0Z" transform="translate(0 16.8)" fill="#fff" opacity="0.4"/>
      </g>
    </g>
    <g id="레이어_2-4" data-name="레이어 2" transform="translate(43.8 35)">
      <g id="레이어_1-4" data-name="레이어 1">
        <path id="패스_11-2" data-name="패스 11" d="M2.1,0A2.1,2.1,0,1,1,0,2.1,2.1,2.1,0,0,1,2.1,0Z" fill="#7e2aff" opacity="0.8"/>
        <circle id="타원_7-2" data-name="타원 7" cx="2.1" cy="2.1" r="2.1" transform="translate(0 8.4)" fill="#7e2aff" opacity="0.6"/>
        <path id="패스_10-2" data-name="패스 10" d="M2.1,0A2.1,2.1,0,1,1,0,2.1,2.1,2.1,0,0,1,2.1,0Z" transform="translate(0 16.8)" fill="#7e2aff" opacity="0.4"/>
      </g>
    </g>
    <g id="레이어_2-5" data-name="레이어 2" transform="translate(94 34)">
      <g id="레이어_1-5" data-name="레이어 1">
        <rect id="사각형_5" data-name="사각형 5" width="22" height="16" transform="translate(0 7)" fill="none" stroke="#fff" stroke-miterlimit="10" stroke-width="1.5"/>
        <path id="패스_3" data-name="패스 3" d="M7.25,14.75V.75h9v14" transform="translate(-0.75 -0.75)" fill="none" stroke="#fff" stroke-miterlimit="10" stroke-width="1.5"/>
      </g>
    </g>
    <g id="레이어_2-6" data-name="레이어 2" transform="translate(64 34)" opacity="0.6">
      <g id="레이어_1-6" data-name="레이어 1">
        <rect id="사각형_5-2" data-name="사각형 5" width="22" height="16" transform="translate(0 7)" fill="none" stroke="#fff" stroke-miterlimit="10" stroke-width="1.5"/>
        <path id="패스_3-2" data-name="패스 3" d="M7.25,14.75V.75h9v14" transform="translate(-0.75 -0.75)" fill="none" stroke="#fff" stroke-miterlimit="10" stroke-width="1.5"/>
      </g>
    </g>
    <g id="레이어_2-7" data-name="레이어 2" transform="translate(122.25 2.25)">
      <g id="레이어_1-7" data-name="레이어 1" transform="translate(0.75 0.75)">
        <line id="선_62" data-name="선 62" y1="11.623" x2="11.623" transform="translate(11.623)" fill="none" stroke="#fff" stroke-linecap="round" stroke-linejoin="round" stroke-width="1.5"/>
        <path id="패스_56" data-name="패스 56" d="M10.26.75H.75V24H24v-9.51" transform="translate(-0.75 -0.75)" fill="none" stroke="#fff" stroke-linecap="round" stroke-linejoin="round" stroke-width="1.5"/>
        <path id="패스_57" data-name="패스 57" d="M23.146,8.146V.75h-7.4" transform="translate(0.1 -0.75)" fill="none" stroke="#fff" stroke-linecap="round" stroke-linejoin="round" stroke-width="1.5"/>
      </g>
    </g>
    <g id="레이어_2-8" data-name="레이어 2" transform="translate(152.25 2.25)">
      <g id="레이어_1-8" data-name="레이어 1" transform="translate(0.75 0.75)">
        <line id="선_62-2" data-name="선 62" y1="11.623" x2="11.623" transform="translate(11.623)" fill="none" stroke="#7e2aff" stroke-linecap="round" stroke-linejoin="round" stroke-width="1.5"/>
        <path id="패스_56-2" data-name="패스 56" d="M10.26.75H.75V24H24v-9.51" transform="translate(-0.75 -0.75)" fill="none" stroke="#7e2aff" stroke-linecap="round" stroke-linejoin="round" stroke-width="1.5"/>
        <path id="패스_57-2" data-name="패스 57" d="M23.146,8.146V.75h-7.4" transform="translate(0.1 -0.75)" fill="none" stroke="#7e2aff" stroke-linecap="round" stroke-linejoin="round" stroke-width="1.5"/>
      </g>
    </g>
  </g>
</svg>
