<?xml version="1.0" encoding="utf-8"?>
<!-- Generator: Adobe Illustrator 23.0.3, SVG Export Plug-In . SVG Version: 6.00 Build 0)  -->
<svg version="1.1" id="레이어_1" xmlns="http://www.w3.org/2000/svg" xmlns:xlink="http://www.w3.org/1999/xlink" x="0px"
	 y="0px" viewBox="0 0 112 71.7" style="enable-background:new 0 0 112 71.7;" xml:space="preserve">
<style type="text/css">
	.st0{fill:#EAC039;}
</style>
<g>
	<g>
		<path class="st0" d="M101.5,71.7h-91C4.7,71.7,0,67,0,61.2V10.5C0,4.7,4.7,0,10.5,0h91c5.8,0,10.5,4.7,10.5,10.5v10
			c0,1.9-1.5,3.4-3.4,3.4s-3.4-1.5-3.4-3.4v-10c0-2-1.6-3.7-3.7-3.7h-91c-2,0-3.7,1.6-3.7,3.7v50.7c0,2,1.6,3.7,3.7,3.7h91
			c2,0,3.7-1.6,3.7-3.7v-10c0-1.9,1.5-3.4,3.4-3.4s3.4,1.5,3.4,3.4v10C111.9,67,107.2,71.7,101.5,71.7z"/>
		<g>
			<path class="st0" d="M71.3,39.3H33.7c-1.9,0-3.4-1.5-3.4-3.4s1.5-3.4,3.4-3.4h37.5c1.9,0,3.4,1.5,3.4,3.4S73.1,39.3,71.3,39.3z"
				/>
			<path class="st0" d="M64.4,51.2c-1,0-1.9-0.4-2.6-1.2c-1.2-1.4-1.1-3.6,0.3-4.8l10.8-9.4l-10.8-9.4c-1.4-1.2-1.6-3.4-0.3-4.8
				c1.2-1.4,3.4-1.6,4.8-0.3l13.8,11.9c0.7,0.6,1.2,1.6,1.2,2.6s-0.4,1.9-1.2,2.6L66.6,50.3C66,50.9,65.2,51.2,64.4,51.2z"/>
		</g>
	</g>
</g>
</svg>
