<?xml version="1.0" encoding="utf-8"?>
<!-- Generator: Adobe Illustrator 23.0.3, SVG Export Plug-In . SVG Version: 6.00 Build 0)  -->
<svg version="1.1" id="레이어_1" xmlns="http://www.w3.org/2000/svg" xmlns:xlink="http://www.w3.org/1999/xlink" x="0px"
	 y="0px" viewBox="0 0 112.5 115.6" style="enable-background:new 0 0 112.5 115.6;" xml:space="preserve">
<style type="text/css">
	.st0{fill:#EAC039;}
</style>
<g>
	<path class="st0" d="M57.8,115.6C25.9,115.6,0,89.7,0,57.8S25.9,0,57.8,0c24.4,0,46.3,15.5,54.4,38.5c0.7,2.1-0.4,4.4-2.4,5.1
		c-2.1,0.7-4.4-0.4-5.1-2.4C97.7,21.3,78.8,8,57.8,8C30.3,8,8,30.3,8,57.8s22.3,49.8,49.8,49.8c21,0,39.9-13.3,46.9-33.2
		c0.7-2.1,3-3.2,5.1-2.4c2.1,0.7,3.2,3,2.4,5.1C104.1,100.1,82.2,115.6,57.8,115.6z"/>
	<g>
		<path class="st0" d="M74.1,61.8H30.3c-2.2,0-4-1.8-4-4s1.8-4,4-4h43.8c2.2,0,4,1.8,4,4S76.3,61.8,74.1,61.8z"/>
		<path class="st0" d="M66.1,75.8c-1.1,0-2.2-0.5-3-1.4c-1.4-1.7-1.3-4.2,0.4-5.6l12.6-10.9l-12.6-11c-1.7-1.4-1.8-4-0.4-5.6
			c1.4-1.7,4-1.8,5.6-0.4l16.1,13.9c0.9,0.8,1.4,1.9,1.4,3s-0.5,2.3-1.4,3L68.7,74.7C67.9,75.5,67,75.8,66.1,75.8z"/>
	</g>
</g>
</svg>
