<?xml version="1.0" encoding="utf-8"?>
<!-- Generator: Adobe Illustrator 23.0.3, SVG Export Plug-In . SVG Version: 6.00 Build 0)  -->
<svg version="1.1" id="레이어_1" xmlns="http://www.w3.org/2000/svg" xmlns:xlink="http://www.w3.org/1999/xlink" x="0px"
	 y="0px" viewBox="0 0 112.1 105.2" style="enable-background:new 0 0 112.1 105.2;" xml:space="preserve">
<style type="text/css">
	.st0{fill:#EAC039;}
</style>
<g>
	<g>
		<g>
			<path class="st0" d="M46.9,29.9H4.3C1.9,29.9,0,28,0,25.6s1.9-4.3,4.3-4.3h42.6c2.4,0,4.3,1.9,4.3,4.3S49.3,29.9,46.9,29.9z"/>
			<path class="st0" d="M107.8,29.9H65.2c-2.4,0-4.3-1.9-4.3-4.3s1.9-4.3,4.3-4.3h42.6c2.4,0,4.3,1.9,4.3,4.3S110.2,29.9,107.8,29.9
				z"/>
			<path class="st0" d="M25.6,51.2c-2.4,0-4.3-1.9-4.3-4.3V4.3c0-2.4,1.9-4.3,4.3-4.3s4.3,1.9,4.3,4.3v42.6
				C29.9,49.3,28,51.2,25.6,51.2z"/>
			<path class="st0" d="M42.4,105.2c-1.1,0-2.2-0.4-3-1.3L5.9,70.4c-1.7-1.7-1.7-4.4,0-6c1.7-1.7,4.4-1.7,6,0l33.5,33.5
				c1.7,1.7,1.7,4.4,0,6C44.6,104.8,43.5,105.2,42.4,105.2z"/>
			<path class="st0" d="M8.9,105.2c-1.1,0-2.2-0.4-3-1.3c-1.7-1.7-1.7-4.4,0-6l33.5-33.5c1.7-1.7,4.4-1.7,6,0c1.6,1.7,1.7,4.4,0,6
				l-33.5,33.5C11.1,104.8,10,105.2,8.9,105.2z"/>
			<g>
				<path class="st0" d="M107.8,85.5H65.2c-2.4,0-4.3-1.9-4.3-4.3c0-2.4,1.9-4.3,4.3-4.3h42.6c2.4,0,4.3,1.9,4.3,4.3
					C112.1,83.5,110.2,85.5,107.8,85.5z"/>
				<g>
					<path class="st0" d="M86.5,71.1c3.7,0,6.7-3,6.7-6.7c0-3.7-3-6.7-6.7-6.7s-6.7,3-6.7,6.7C79.8,68.1,82.8,71.1,86.5,71.1z"/>
					<path class="st0" d="M86.5,91.2c-3.7,0-6.7,3-6.7,6.7s3,6.7,6.7,6.7s6.7-3,6.7-6.7S90.2,91.2,86.5,91.2z"/>
				</g>
			</g>
		</g>
	</g>
</g>
</svg>
