<svg xmlns="http://www.w3.org/2000/svg" width="18.274" height="18.079" viewBox="0 0 18.274 18.079">
  <g id="icon_share" transform="translate(-1384.805 -845)">
    <path id="Path" d="M4.638,4.638A2.717,2.717,0,1,1,4.638.8,2.717,2.717,0,0,1,4.638,4.638Z" transform="translate(1385.5 851.478)" fill="none" stroke="#000" stroke-linecap="round" stroke-linejoin="round" stroke-miterlimit="10" stroke-width="1"/>
    <path id="Path-2" data-name="Path" d="M2.717,5.434A2.717,2.717,0,1,1,5.434,2.717,2.717,2.717,0,0,1,2.717,5.434Z" transform="translate(1397.145 857.145)" fill="none" stroke="#000" stroke-linecap="round" stroke-linejoin="round" stroke-miterlimit="10" stroke-width="1"/>
    <path id="Path-3" data-name="Path" d="M2.717,5.434A2.717,2.717,0,1,1,5.434,2.717,2.717,2.717,0,0,1,2.717,5.434Z" transform="translate(1397.145 845.5)" fill="none" stroke="#000" stroke-linecap="round" stroke-linejoin="round" stroke-miterlimit="10" stroke-width="1"/>
    <path id="Path-4" data-name="Path" d="M0,0,6.647,3.434Z" transform="translate(1390.79 855.175)" fill="none" stroke="#000" stroke-linecap="round" stroke-linejoin="round" stroke-miterlimit="10" stroke-width="1"/>
    <path id="Path-5" data-name="Path" d="M6.669,0,0,3.442Z" transform="translate(1390.715 849.496)" fill="none" stroke="#000" stroke-linecap="round" stroke-linejoin="round" stroke-miterlimit="10" stroke-width="1"/>
  </g>
</svg>
