<svg xmlns="http://www.w3.org/2000/svg" xmlns:xlink="http://www.w3.org/1999/xlink" width="95" height="62.035" viewBox="0 0 95 62.035">
  <defs>
    <linearGradient id="linear-gradient" x1="0.853" y1="0.854" x2="0.144" y2="0.189" gradientUnits="objectBoundingBox">
      <stop offset="0" stop-color="#fc4ead"/>
      <stop offset="1" stop-color="#a134e8"/>
    </linearGradient>
  </defs>
  <g id="icon_complete" transform="translate(-414 -192.482)">
    <path id="패스_131" data-name="패스 131" d="M31.018,0A31.018,31.018,0,1,1,0,31.018,31.018,31.018,0,0,1,31.018,0Z" transform="translate(430.482 192.482)" fill="url(#linear-gradient)"/>
    <path id="패스_135" data-name="패스 135" d="M-21751.26,18555.5c1.066,1.24,9.646,10.375,9.646,10.375l16.674-22.65" transform="translate(22200 -18332)" fill="none" stroke="#fff" stroke-linecap="round" stroke-linejoin="round" stroke-width="5"/>
    <circle id="타원_102" data-name="타원 102" cx="6" cy="6" r="6" transform="translate(428 201)" fill="none" stroke="#d79aff" stroke-width="1.5" opacity="0.7"/>
    <g id="타원_107" data-name="타원 107" transform="translate(414 214)" fill="none" stroke="#a134e8" stroke-width="1.5">
      <circle cx="5" cy="5" r="5" stroke="none"/>
      <circle cx="5" cy="5" r="4.25" fill="none"/>
    </g>
    <g id="타원_103" data-name="타원 103" transform="translate(499 226)" fill="none" stroke="#fc4ead" stroke-width="1.5">
      <circle cx="5" cy="5" r="5" stroke="none"/>
      <circle cx="5" cy="5" r="4.25" fill="none"/>
    </g>
    <circle id="타원_104" data-name="타원 104" cx="2.5" cy="2.5" r="2.5" transform="translate(420 233)" fill="#b339dc"/>
    <circle id="타원_105" data-name="타원 105" cx="2.5" cy="2.5" r="2.5" transform="translate(492 202)" fill="#c73fd0"/>
    <circle id="타원_106" data-name="타원 106" cx="5" cy="5" r="5" transform="translate(483 234)" fill="#ff95cf" opacity="0.5"/>
  </g>
</svg>
