<svg xmlns="http://www.w3.org/2000/svg" width="63.652" height="45.613" viewBox="0 0 63.652 45.613">
  <path id="icon_05" d="M2896.531,4026.943a1.113,1.113,0,0,0-.545,1.458l2.5,5.374a1.111,1.111,0,0,0,1.468.545l18.911-8.833-1.713,17.91a1.111,1.111,0,0,0,.366.934,4.854,4.854,0,0,0,2.938,1.113,3.573,3.573,0,0,0,.878-.111c1.536-.4,2.726-1.769,3.538-4.1l7.442-22.037,14.738-6.875c4.338-2.024,6.575-6.129,5.073-9.333a5.633,5.633,0,0,0-4.35-3.037,10.31,10.31,0,0,0-6.074.935l-17.009,7.976-18.288-7.153c-2.3-.867-4.127-.845-5.406.079a4.533,4.533,0,0,0-1.658,3.592,1.112,1.112,0,0,0,.478.879l12.314,8.465-7.052,3.337-11.825-3a1.112,1.112,0,0,0-1.234.534l-2.948,5.306a1.112,1.112,0,0,0,.579,1.568l8.754,3.616Zm-4.917-6.062" transform="translate(-2888.944 -3999.83)" fill="#fff"/>
</svg>
