<svg id="logo_header_wh" xmlns="http://www.w3.org/2000/svg" width="111.97" height="30.037" viewBox="0 0 111.97 30.037">
  <path id="logo_wh" d="M23.269,6.593V2.472c-.443-.306-.9-.593-1.367-.855v3.8a.049.049,0,0,1-.025-.025,13.791,13.791,0,0,0-2.66-1.555V.418c-.456-.156-.912-.3-1.38-.418V3.315a13.708,13.708,0,1,0,5.432,3.278ZM19.2,5.351a12.348,12.348,0,0,1,2.66,1.811v4.277A9.637,9.637,0,0,0,19.2,8.572Zm0,11V16.3h0V10.32A8.135,8.135,0,1,1,17.837,9.3v3.421A5.513,5.513,0,1,0,19.2,16.352Zm-1.367,0A4.152,4.152,0,1,1,13.686,12.2,4.154,4.154,0,0,1,17.837,16.352ZM13.686,28.67A12.318,12.318,0,1,1,17.837,4.757v3a9.451,9.451,0,0,0-4.152-.949,9.552,9.552,0,1,0,9.552,9.552V16.3h0V8.591A12.306,12.306,0,0,1,13.686,28.67Z" fill="#fff"/>
  <path id="패스_4025" data-name="패스 4025" d="M63.041,8.4a1.018,1.018,0,0,0-1.018,1.018v7.049a5.269,5.269,0,0,0-1.473-.8,4.971,4.971,0,0,0-1.711-.287,5.151,5.151,0,0,0-2.035.406,5.216,5.216,0,0,0-2.778,2.778,5.307,5.307,0,0,0,0,4.071A5.216,5.216,0,0,0,56.8,25.413a5.307,5.307,0,0,0,4.071,0,5.216,5.216,0,0,0,2.778-2.778,5.15,5.15,0,0,0,.406-2.035V9.418A1.018,1.018,0,0,0,63.041,8.4ZM62.024,20.593a3.166,3.166,0,0,1-.924,2.254,3.1,3.1,0,0,1-1.018.681,3.161,3.161,0,0,1-1.23.25,3.052,3.052,0,0,1-1.23-.25,3.235,3.235,0,0,1-1.018-.681,3.287,3.287,0,0,1-.687-1.018,3.113,3.113,0,0,1,0-2.472A3.287,3.287,0,0,1,56.6,18.34a3.1,3.1,0,0,1,1.018-.681,3.161,3.161,0,0,1,1.23-.25,3.052,3.052,0,0,1,1.23.25,3.235,3.235,0,0,1,1.018.681,3.179,3.179,0,0,1,.681,1.005,3.1,3.1,0,0,1,.243,1.224Z" transform="translate(-20.143 -3.156)" fill="#fff"/>
  <path id="패스_4026" data-name="패스 4026" d="M83.256,21.063a5.224,5.224,0,0,0-1.661-1.118,5.307,5.307,0,0,0-4.071,0,5.216,5.216,0,0,0-2.778,2.778,5.307,5.307,0,0,0,0,4.071,5.216,5.216,0,0,0,2.778,2.778,5.307,5.307,0,0,0,4.071,0,5.216,5.216,0,0,0,2.778-2.778,5.23,5.23,0,0,0-1.118-5.731ZM82.494,26a3.165,3.165,0,0,1-.681,1.018,3.1,3.1,0,0,1-1.018.681,3.161,3.161,0,0,1-1.23.25,3.052,3.052,0,0,1-1.23-.25,3.235,3.235,0,0,1-1.018-.681A3.287,3.287,0,0,1,76.631,26a3.113,3.113,0,0,1,0-2.472,3.287,3.287,0,0,1,.687-1.018,3.1,3.1,0,0,1,1.018-.681,3.161,3.161,0,0,1,1.23-.25,3.052,3.052,0,0,1,1.23.25,3.235,3.235,0,0,1,1.018.681,3.166,3.166,0,0,1,.924,2.254A3.077,3.077,0,0,1,82.494,26Z" transform="translate(-27.926 -7.34)" fill="#fff"/>
  <path id="패스_4027" data-name="패스 4027" d="M155.488,8.46a1.018,1.018,0,0,0-1.018,1.018V24.7a1.018,1.018,0,1,0,2.035,0V9.478A1.018,1.018,0,0,0,155.488,8.46Z" transform="translate(-58.028 -3.178)" fill="#fff"/>
  <path id="패스_4028" data-name="패스 4028" d="M97.088,24.371a2.557,2.557,0,0,1,2.8-2.541,2.635,2.635,0,0,1,2.3,2.653v4.533a1,1,0,0,0,1,1h0a1,1,0,0,0,1-1V24.527a4.655,4.655,0,0,0-3.952-4.67,4.552,4.552,0,0,0-5.145,4.508V29.01a1,1,0,0,0,1,1h0a1,1,0,0,0,1-1V24.371Z" transform="translate(-35.721 -7.445)" fill="#fff"/>
  <path id="패스_4029" data-name="패스 4029" d="M171.567,25.238a1.356,1.356,0,0,0,1.349-1.355,1.5,1.5,0,0,0-.019-.175c-.012-.069-.025-.131-.044-.2-.025-.119-.044-.243-.075-.362a5.36,5.36,0,0,0-5.669-3.94,5.42,5.42,0,0,0-1,.187,5.326,5.326,0,0,0-1.767.912,5.3,5.3,0,0,0-.724.674,5.7,5.7,0,0,0-.593.793,5.349,5.349,0,0,0-.787,2.891,5.457,5.457,0,0,0,.144,1.149,5.626,5.626,0,0,0,.312.949,5.463,5.463,0,0,0,.468.862,5.621,5.621,0,0,0,1.33,1.4,5.361,5.361,0,0,0,.83.506,5.248,5.248,0,0,0,.918.35,5.373,5.373,0,0,0,.986.181q.234.019.468.019a5.424,5.424,0,0,0,4.651-2.66.966.966,0,0,0-.83-1.461.952.952,0,0,0-.818.468,3.52,3.52,0,0,1-3,1.723,3.561,3.561,0,0,1-3.465-2.928C164.244,25.238,171.548,25.238,171.567,25.238Zm-3.952-4.127a3.44,3.44,0,0,1,3.134,2.035h-6.262A3.417,3.417,0,0,1,167.615,21.111Z" transform="translate(-60.946 -7.207)" fill="#fff"/>
  <path id="패스_4030" data-name="패스 4030" d="M124.643,32.016a2.641,2.641,0,0,0-.587-.912,2.384,2.384,0,0,0-.762-.524,2.3,2.3,0,0,0-.762-.187h-5.725a.83.83,0,0,1,0-1.661h.662c.006,0,.012-.006.019-.006h1.467a4.613,4.613,0,0,0,1.686-.437,4.445,4.445,0,0,0,1.367-.98,4.612,4.612,0,0,0,.912-1.411,4.409,4.409,0,0,0,.337-1.717,4.555,4.555,0,0,0-.2-1.336,4.875,4.875,0,0,0-.556-1.2h.368a1.018,1.018,0,1,0,0-2.035h-4.183a4.38,4.38,0,0,0-1.767.356,4.509,4.509,0,0,0-1.442.98,4.667,4.667,0,0,0-.98,1.455,4.484,4.484,0,0,0-.356,1.779,4.531,4.531,0,0,0,.275,1.573,4.807,4.807,0,0,0,.768,1.336,3.228,3.228,0,0,0-1.08.949,2.386,2.386,0,0,0-.425,1.424,2.444,2.444,0,0,0,.343,1.324,3,3,0,0,0,.9.918,4.129,4.129,0,0,0,1.242.543,5.623,5.623,0,0,0,1.4.175h4.6a.961.961,0,0,1,.375.081.92.92,0,0,1,.543.843.9.9,0,0,1-.481.8.952.952,0,0,1-.437.119H117.62a1.018,1.018,0,1,0,0,2.035h4.87a2.132,2.132,0,0,0,.768-.156,2.278,2.278,0,0,0,.768-.506,2.653,2.653,0,0,0,.593-.912,3.563,3.563,0,0,0,.237-1.374A3.338,3.338,0,0,0,124.643,32.016Zm-8.273-8.8a2.688,2.688,0,0,1,.531-.812,2.451,2.451,0,0,1,.8-.543,2.5,2.5,0,0,1,.98-.2,2.443,2.443,0,0,1,.986.2,2.531,2.531,0,0,1,1.342,3.315,2.387,2.387,0,0,1-.543.8,2.666,2.666,0,0,1-.8.531,2.465,2.465,0,0,1-.986.2,2.4,2.4,0,0,1-.98-.2,2.554,2.554,0,0,1-.8-.531,2.523,2.523,0,0,1-.531-2.76Z" transform="translate(-42.705 -7.367)" fill="#fff"/>
  <path id="패스_4031" data-name="패스 4031" d="M144.033,32.016a2.641,2.641,0,0,0-.587-.912,2.384,2.384,0,0,0-.762-.524,2.3,2.3,0,0,0-.762-.187H136.2a.83.83,0,1,1,0-1.661h.662c.006,0,.012-.006.019-.006h1.467a4.612,4.612,0,0,0,1.686-.437,4.445,4.445,0,0,0,1.367-.98,4.612,4.612,0,0,0,.912-1.411,4.409,4.409,0,0,0,.337-1.717,4.555,4.555,0,0,0-.2-1.336,4.874,4.874,0,0,0-.556-1.2h.368a1.018,1.018,0,1,0,0-2.035h-4.183a4.38,4.38,0,0,0-1.767.356,4.509,4.509,0,0,0-1.442.98,4.667,4.667,0,0,0-.98,1.455,4.484,4.484,0,0,0-.356,1.779,4.53,4.53,0,0,0,.275,1.573,4.807,4.807,0,0,0,.768,1.336,3.228,3.228,0,0,0-1.08.949,2.386,2.386,0,0,0-.425,1.424,2.444,2.444,0,0,0,.343,1.324,3,3,0,0,0,.9.918,4.129,4.129,0,0,0,1.242.543,5.623,5.623,0,0,0,1.4.175h4.6a.961.961,0,0,1,.375.081.92.92,0,0,1,.543.843.9.9,0,0,1-.481.8.952.952,0,0,1-.437.119H137.01a1.018,1.018,0,1,0,0,2.035h4.87a2.132,2.132,0,0,0,.768-.156,2.278,2.278,0,0,0,.768-.506,2.652,2.652,0,0,0,.593-.912,3.564,3.564,0,0,0,.237-1.374A3.232,3.232,0,0,0,144.033,32.016Zm-8.273-8.8a2.687,2.687,0,0,1,.531-.812,2.451,2.451,0,0,1,.8-.543,2.5,2.5,0,0,1,.98-.2,2.443,2.443,0,0,1,.986.2,2.531,2.531,0,0,1,1.342,3.315,2.387,2.387,0,0,1-.543.8,2.666,2.666,0,0,1-.8.531,2.465,2.465,0,0,1-.986.2,2.4,2.4,0,0,1-.98-.2,2.554,2.554,0,0,1-.8-.531,2.56,2.56,0,0,1-.73-1.779A2.618,2.618,0,0,1,135.761,23.212Z" transform="translate(-49.989 -7.367)" fill="#fff"/>
</svg>
