<svg xmlns="http://www.w3.org/2000/svg" width="18.553" height="23.327" viewBox="0 0 18.553 23.327">
  <path id="icon_02-profits" d="M312.9,69.56s-10.2-2.138-10.363-2.169a4.908,4.908,0,0,1-.49-.116,1.059,1.059,0,0,1-.607-.425.967.967,0,0,1-.08-.86,1.143,1.143,0,0,1,.14-.26.887.887,0,0,1,.568-.323l12.662-2.585a1.35,1.35,0,0,0-1.62-1.323l-11.489,2.346q-.2.042-.4.09c-.127.03-.255.057-.379.094a3.287,3.287,0,0,0-.989.492,3.378,3.378,0,0,0-.415.36,3.527,3.527,0,0,0-.354.426,3.654,3.654,0,0,0-.289.485,3.992,3.992,0,0,0-.217.539,4.207,4.207,0,0,0-.14.584,3.518,3.518,0,0,0-.056.569V77.9a3.828,3.828,0,0,0,3.03,3.731l9.93,2.082a3.8,3.8,0,0,0,3.185-.772,3.8,3.8,0,0,0,1.408-2.959V73.29A3.828,3.828,0,0,0,312.9,69.56Zm1.072,7.977a.931.931,0,0,1-1.063.944l-3.634-.755a.944.944,0,0,1-.776-.944V75.3a.931.931,0,0,1,1.063-.944l3.634.755a.944.944,0,0,1,.776.944Zm.758-14.715v7.531" transform="translate(-297.877 -60.967)" fill="none" stroke="#19b4aa" stroke-miterlimit="10" stroke-width="1"/>
</svg>
