<svg xmlns="http://www.w3.org/2000/svg" width="17.831" height="7.067" viewBox="0 0 17.831 7.067">
  <g id="icon_ver" transform="translate(-18.342 -317.449)">
    <path id="패스_1928" data-name="패스 1928" d="M25.5,317.449l-2.954,7h-1.24l-2.964-7h1.365l2.257,5.4,2.277-5.4Z" fill="#19b4aa"/>
    <path id="패스_1929" data-name="패스 1929" d="M30.317,322.177H26.259a1.574,1.574,0,0,0,1.676,1.279,1.823,1.823,0,0,0,1.4-.58l.649.77a2.582,2.582,0,0,1-2.083.87,2.664,2.664,0,0,1-2.857-2.739,2.614,2.614,0,0,1,2.674-2.729,2.566,2.566,0,0,1,2.615,2.759C30.337,321.907,30.327,322.057,30.317,322.177Zm-4.068-.83h2.935a1.422,1.422,0,0,0-1.462-1.3A1.445,1.445,0,0,0,26.249,321.347Z" fill="#19b4aa"/>
    <path id="패스_1930" data-name="패스 1930" d="M34.253,319.048v1.19a1.5,1.5,0,0,0-.281-.03c-.92,0-1.5.56-1.5,1.649v2.589H31.26v-5.337h1.152v.779A2.014,2.014,0,0,1,34.253,319.048Z" fill="#19b4aa"/>
    <path id="패스_1931" data-name="패스 1931" d="M34.584,323.686a.8.8,0,1,1,1.589,0,.8.8,0,1,1-1.589,0Z" fill="#19b4aa"/>
  </g>
</svg>
