<svg xmlns="http://www.w3.org/2000/svg" width="24" height="24" viewBox="0 0 24 24">
  <g id="icon_dollar" transform="translate(-18 -69)">
    <circle id="타원_25" data-name="타원 25" cx="12" cy="12" r="12" transform="translate(18 69)" fill="#ffb400"/>
    <path id="패스_1915" data-name="패스 1915" d="M-1.275-9.6a3.242,3.242,0,0,0-2.28-1.2v-1.65h-.72v1.65a2.581,2.581,0,0,0-2.37,2.625c0,3.345,4.77,2.505,4.77,5.655a1.875,1.875,0,0,1-2.1,1.965A3.958,3.958,0,0,1-6.615-1.71l-.45.615A4.791,4.791,0,0,0-4.275.18V1.83h.72V.18A2.672,2.672,0,0,0-1-2.58C-1-6.33-5.76-5.43-5.76-8.22a1.776,1.776,0,0,1,1.875-1.83,2.627,2.627,0,0,1,2.115.99Z" transform="translate(34 86.45)" fill="#fff"/>
  </g>
</svg>
