<svg xmlns="http://www.w3.org/2000/svg" xmlns:xlink="http://www.w3.org/1999/xlink" width="90" height="90" viewBox="0 0 90 90">
  <defs>
    <filter id="타원_33" x="0" y="0" width="90" height="90" filterUnits="userSpaceOnUse">
      <feOffset dy="6" input="SourceAlpha"/>
      <feGaussianBlur stdDeviation="5" result="blur"/>
      <feFlood flood-color="#c3d7d7" flood-opacity="0.349"/>
      <feComposite operator="in" in2="blur"/>
      <feComposite in="SourceGraphic"/>
    </filter>
  </defs>
  <g id="icon_idcard" transform="translate(-135 -191.811)">
    <g transform="matrix(1, 0, 0, 1, 135, 191.81)" filter="url(#타원_33)">
      <g id="타원_33-2" data-name="타원 33" transform="translate(15 9)" fill="#fff" stroke="#19b4aa" stroke-miterlimit="10" stroke-width="2">
        <circle cx="30" cy="30" r="30" stroke="none"/>
        <circle cx="30" cy="30" r="29" fill="none"/>
      </g>
    </g>
    <g id="사각형_1082" data-name="사각형 1082" transform="translate(161 219)" fill="#fff" stroke="#19b4aa" stroke-width="2">
      <rect width="39" height="25" rx="5" stroke="none"/>
      <rect x="1" y="1" width="37" height="23" rx="4" fill="none"/>
    </g>
    <g id="그룹_122" data-name="그룹 122" transform="translate(181.248 224.248)">
      <g id="그룹_120" data-name="그룹 120" transform="translate(1.753 1.753)">
        <line id="선_103" data-name="선 103" x2="11.218" y2="11.223" transform="translate(15.8 16.235)" fill="#fff" stroke="#19b4aa" stroke-width="2"/>
        <path id="패스_2085" data-name="패스 2085" d="M18.645,4.65a9.9,9.9,0,1,1-13.995,0A9.9,9.9,0,0,1,18.645,4.65Z" transform="translate(-1.753 -1.752)" fill="#fff" stroke="#19b4aa" stroke-width="2"/>
      </g>
      <g id="그룹_121" data-name="그룹 121" transform="translate(16.845 7.719) rotate(90)">
        <line id="선_104" data-name="선 104" y2="5.755" transform="translate(0 3.831)" fill="#fff" stroke="#64e196" stroke-width="2"/>
        <line id="선_105" data-name="선 105" y2="9.586" transform="translate(4.075)" fill="#fff" stroke="#64e196" stroke-width="2"/>
        <line id="선_106" data-name="선 106" y2="4.313" transform="translate(8.15 5.273)" fill="#fff" stroke="#64e196" stroke-width="2"/>
      </g>
    </g>
    <g id="사각형_1083" data-name="사각형 1083" transform="translate(167 225)" fill="#fff" stroke="#19b4aa" stroke-width="2">
      <rect width="10" height="13" stroke="none"/>
      <rect x="1" y="1" width="8" height="11" fill="none"/>
    </g>
    <line id="선_107" data-name="선 107" x2="12" transform="translate(180.5 226)" fill="none" stroke="#19b4aa" stroke-width="2"/>
    <line id="선_108" data-name="선 108" x2="5" transform="translate(180.5 230)" fill="none" stroke="#19b4aa" stroke-width="2"/>
  </g>
</svg>
