<svg xmlns="http://www.w3.org/2000/svg" width="22.829" height="18.092" viewBox="0 0 22.829 18.092">
  <g id="icon_04-inquire" transform="translate(-18.329 -162.925)">
    <path id="패스_1926" data-name="패스 1926" d="M31.194,165.925c4.557,0,8.251,2.827,8.251,6.313a5.791,5.791,0,0,1-2.786,4.722l1.208,2.528-4.209-1.222a10.581,10.581,0,0,1-2.464.287c-4.557,0-8.251-2.827-8.251-6.315S26.636,165.925,31.194,165.925Z" transform="translate(1.214 0.738)" fill="#fff" stroke="#19b4aa" stroke-miterlimit="10" stroke-width="1"/>
    <path id="패스_1927" data-name="패스 1927" d="M27.08,163.425c-4.557,0-8.251,2.827-8.251,6.313a5.791,5.791,0,0,0,2.786,4.722l-1.207,2.528,4.208-1.222a10.581,10.581,0,0,0,2.464.287c4.557,0,8.252-2.827,8.252-6.315S31.637,163.425,27.08,163.425Z" transform="translate(0)" fill="#fff" stroke="#19b4aa" stroke-miterlimit="10" stroke-width="1"/>
  </g>
</svg>
