<svg xmlns="http://www.w3.org/2000/svg" width="20.037" height="20.026" viewBox="0 0 20.037 20.026">
  <g id="icon_qrcode" transform="translate(-164.48 -332.521)">
    <path id="패스_71" data-name="패스 71" d="M164.48,343.986V342h11.011v8.994H184.5v2H173.5v-9.006Z" transform="translate(0 -0.452)" fill="#19b4aa"/>
    <path id="패스_72" data-name="패스 72" d="M164.482,339.261v-6.74h6.743v6.74Zm2.007-4.74v2.727h2.723v-2.727Z" transform="translate(0)" fill="#19b4aa"/>
    <path id="패스_73" data-name="패스 73" d="M185.172,339.264h-6.737v-6.74h6.737Zm-2-4.741h-2.726v2.723h2.726Z" transform="translate(-0.666 0)" fill="#19b4aa"/>
    <path id="패스_74" data-name="패스 74" d="M171.226,353.212h-6.741v-6.744h6.741Zm-4.74-4.737v2.73h2.726v-2.73Z" transform="translate(0 -0.665)" fill="#19b4aa"/>
    <path id="패스_75" data-name="패스 75" d="M185.168,348.244c-.061,0-.115.01-.17.01-.542,0-1.083,0-1.625,0-.153,0-.2-.04-.2-.2.006-1.292,0-2.584.008-3.875,0-.166-.049-.208-.21-.206q-1.176.011-2.352,0c-.148,0-.191.041-.191.19.006,1.3,0,2.6.008,3.892,0,.161-.05.2-.2.2-.547-.008-1.094-.007-1.641,0-.132,0-.175-.038-.174-.172q.006-2.97,0-5.94c0-.137.047-.171.176-.17q3.207,0,6.413,0c.11,0,.175.008.175.15q-.007,3,0,6.007C185.177,348.166,185.172,348.2,185.168,348.244Z" transform="translate(-0.665 -0.451)" fill="#19b4aa"/>
    <path id="패스_76" data-name="패스 76" d="M175.941,339.263h-1.988v-6.741h1.988Z" transform="translate(-0.452 0)" fill="#19b4aa"/>
  </g>
</svg>
