<svg xmlns="http://www.w3.org/2000/svg" xmlns:xlink="http://www.w3.org/1999/xlink" width="48" height="48" viewBox="0 0 48 48">
  <defs>
    <linearGradient id="linear-gradient" x1="0.5" x2="0.5" y2="1" gradientUnits="objectBoundingBox">
      <stop offset="0" stop-color="#64e196"/>
      <stop offset="1" stop-color="#19b4aa"/>
    </linearGradient>
  </defs>
  <g id="icon_earth" transform="translate(386 -1263)">
    <g id="타원_50" data-name="타원 50" transform="translate(-383 1266)" stroke="#fff" stroke-miterlimit="10" stroke-width="3" fill="url(#linear-gradient)">
      <circle cx="21" cy="21" r="21" stroke="none"/>
      <circle cx="21" cy="21" r="22.5" fill="none"/>
    </g>
    <g id="그룹_100" data-name="그룹 100" transform="translate(0.049 -0.818)">
      <path id="패스_1949" data-name="패스 1949" d="M189.579,229.607c.064.281.438.474.88.446q-.207-.733-.481-1.436A1.1,1.1,0,0,0,189.579,229.607Z" transform="translate(-537.015 1053.43)" fill="#fff"/>
      <path id="패스_1950" data-name="패스 1950" d="M180.086,219.4c-.171.419-.479.338-.762.25a1.277,1.277,0,0,0-1.09.147q-1,.6-1.987,1.208a.521.521,0,0,0-.092.114,1.269,1.269,0,0,0,.878.326,10.763,10.763,0,0,1,1.724.245.5.5,0,0,1,.328.295c.085.372.248.554.643.431.009,0,.03.033.063.07-.335.129-.322.354-.169.615a.361.361,0,0,1,.043.136,1.849,1.849,0,0,0,1.251,1.484c.64.272.735.245,1.06-.379a1.186,1.186,0,0,1,.787-.669c.659-.166,1.31-.36,1.97-.525.321-.081.6-.17.471-.628l.528.217c.008-.077.021-.15.033-.22a16.025,16.025,0,0,0-5.529-3.263A.331.331,0,0,0,180.086,219.4Z" transform="translate(-537.015 1053.43)" fill="#fff"/>
      <path id="패스_1951" data-name="패스 1951" d="M163.082,226.169c.127.158.215.278.314.389a3.069,3.069,0,0,0,.537.564,1.211,1.211,0,0,1,.615,1.271,2.112,2.112,0,0,0,.754,1.875c.45.454.839.97,1.248,1.464.273.331.528.676.8,1a1.257,1.257,0,0,0,.3.2l.068-.066-.641-1.054.14-.091a5.352,5.352,0,0,1,1.321,1.459,1.785,1.785,0,0,0,.546.726,2.59,2.59,0,0,0,1.948.66.3.3,0,0,1,.206.032c.594.427,1.41.508,1.8,1.27a.939.939,0,0,0,1.21.407.4.4,0,0,1,.343.132.945.945,0,0,1-.191,1.365,1,1,0,0,0-.312.526,1.831,1.831,0,0,0,.389,1.73c.187.187.245.5.419.7a4.411,4.411,0,0,0,.921.915,1,1,0,0,1,.551,1.061c-.1.7-.2,1.394-.335,2.085-.106.547-.278,1.081-.39,1.627s-.152,1.11-.284,1.651a1.726,1.726,0,0,0,.431,1.718,1.172,1.172,0,0,0,1.423.169.272.272,0,0,0-.042-.057c-.618-.468-.812-.522-.134-1.178.1-.094.172-.371.113-.437-.239-.271-.009-.425.133-.525.285-.2.492-.387.21-.749a3.663,3.663,0,0,1,1.067-.5c.417-.043.526-.209.553-.564a.412.412,0,0,1,.419-.411.964.964,0,0,0,.794-.468c.127-.187.311-.336.43-.527a2.216,2.216,0,0,0,.294-.653.816.816,0,0,1,.548-.649c.191-.065.393-.1.588-.15a1.013,1.013,0,0,0,.785-.84,5.161,5.161,0,0,1,.946-2.217c.321-.432.253-.748-.263-.915a12.886,12.886,0,0,0-3.326-1,1.271,1.271,0,0,0,.259-.2c.06-.08.134-.233.1-.287-.248-.384-.531-.782-1.017-.829a1.343,1.343,0,0,1-.813-.382,2.343,2.343,0,0,0-1.838-.723.576.576,0,0,1-.312-.07c-.226-.145-.372-.084-.5.133-.034.06-.112.1-.218.181l-.009-.152a.276.276,0,0,0-.42-.216.88.88,0,0,0-.125.089,1.6,1.6,0,0,1-1.513.3c-.444-.107-.5-.163-.488-.633.012-.625.013-.661-.534-.706a.523.523,0,0,1-.368-.192c-.183-.234,0-.376.038-.552.029-.132.1-.317.037-.392a.447.447,0,0,0-.388-.074.761.761,0,0,0-.39.259.68.68,0,0,1-1.016.195,1.452,1.452,0,0,1-.459-1.427.826.826,0,0,1,.74-.759c.4-.1.806-.139,1.206-.222a1.244,1.244,0,0,1,1.246.449,6.347,6.347,0,0,0,.436.478l.083-.04a5.357,5.357,0,0,1-.1-.781c0-.184.034-.47.151-.536.953-.537,1.125-1.812,2.161-2.26.073-.032.089-.188.162-.227.169-.09.442-.255.523-.193.384.291.718.146,1.072-.015.151-.069.306-.129.536-.226-.36-.141-.707-.167-.822-.345a.9.9,0,0,0-.856-.382.563.563,0,0,1,.8-.222.571.571,0,0,0,.6,0c.246-.123.506-.218.821-.351l-.181.791c.24.013.442.038.643.03a1.169,1.169,0,0,0,.308-.1c-.066-.084-.114-.2-.2-.245-.262-.154-.439-.32-.31-.664.026-.07-.055-.216-.128-.28-.486-.423-.987-.829-1.476-1.25a.348.348,0,0,0-.509-.03c-.212.175-.516.207-.639,0a1.392,1.392,0,0,0-1.268-.589.759.759,0,0,0-.6.173.836.836,0,0,0-.008.658c.2.525.219.522-.283.7l-.069.761a2.58,2.58,0,0,1-.423-.325,1.8,1.8,0,0,0-1-.578,15.438,15.438,0,0,1-1.66-.55c-.382-.152-.39-.442-.034-.654.388-.233.789-.445,1.193-.651a.383.383,0,0,1,.305-.014,1.11,1.11,0,0,0,1.058.019l-.666-.389c.346-.112.768-.085.691-.608,0-.019.016-.045.031-.062.159-.174.988-.021,1.07.206.074.2.167.271.369.142a1.022,1.022,0,0,1,.294-.083l.063.142-.987.516.01.094a9.8,9.8,0,0,0,2.9.386l-.383-.582c.32-.048.68.256.907-.131l-1.486-.989c-.009-.006-.023,0-.034-.008-.454-.15-.906-.3-1.36-.448a2.31,2.31,0,0,0-2.194.15c-.025.017-.067.009-.1.012-.36-.536-.543-.528-.982.1l1.005.465a.35.35,0,0,1-.512.211c-.329-.13-.639-.307-.957-.464l-.03-.014a.239.239,0,0,0-.333.15l-.013.041c-.035.1-.074.205-.116.315a.157.157,0,0,1-.249.061l-.158-.14a.236.236,0,0,0-.372.071c-.083.193-.284.188-.512.16s-.454-.007-.68-.021a1.43,1.43,0,0,1-.273-.072l0-.1.785-.279a2.152,2.152,0,0,1-.369-.284,3.543,3.543,0,0,1-.549-.8c-.1-.238-.189-.335-.443-.355-.747-.06-1.492-.14-2.236-.223-.151.1-.3.208-.446.316l.52.027.014.128a1.982,1.982,0,0,1-.375.129c-.2.027-.4.028-.594.047-.175.137-.346.279-.514.423a.4.4,0,0,0,.169.174,1.081,1.081,0,0,0,.581.05c.468-.111.614-.047.792.482-.263-.02-.51-.035-.756-.058-.454-.042-.908-.093-1.363-.129a16.218,16.218,0,0,0-2.183,2.544l1.061,1.205Z" transform="translate(-537.015 1053.43)" fill="#fff"/>
      <path id="패스_1952" data-name="패스 1952" d="M191.056,233.917a16.1,16.1,0,0,0-.5-3.5,1.179,1.179,0,0,0-1.033.908,1.043,1.043,0,0,1-.295.433c-.206.214-.446.4-.654.609a1.275,1.275,0,0,0-.421,1.13,1.828,1.828,0,0,1-.124,1.077.868.868,0,0,0,.248,1.036,9.341,9.341,0,0,1,.782.834c.38.464.774.833,1.422.474a.2.2,0,0,1,.107-.007.278.278,0,0,0,.306-.14.5.5,0,0,0,.043-.2c0-.06,0-.119.008-.179a16.19,16.19,0,0,0,.119-1.956C191.065,234.26,191.061,234.088,191.056,233.917Z" transform="translate(-537.015 1053.43)" fill="#fff"/>
      <circle id="타원_51" data-name="타원 51" cx="16.049" cy="16.049" r="16.049" transform="translate(-378.049 1271.818)" fill="none"/>
    </g>
  </g>
</svg>
