<svg xmlns="http://www.w3.org/2000/svg" width="7" height="7.281" viewBox="0 0 7 7.281">
  <path id="btn_tag" d="M4.088-7.332a.58.58,0,0,1,.323.091.319.319,0,0,1,.141.288v2.727H7.237a.3.3,0,0,1,.267.119.538.538,0,0,1,.084.316.52.52,0,0,1-.084.3.3.3,0,0,1-.267.127H4.552V-.43a.319.319,0,0,1-.141.288.58.58,0,0,1-.323.091.615.615,0,0,1-.33-.091A.314.314,0,0,1,3.61-.43V-3.368H.939a.3.3,0,0,1-.267-.127.52.52,0,0,1-.084-.3.538.538,0,0,1,.084-.316.3.3,0,0,1,.267-.119H3.61V-6.952a.314.314,0,0,1,.148-.288A.615.615,0,0,1,4.088-7.332Z" transform="translate(-0.588 7.332)" fill="#b4b4b4"/>
</svg>
