<svg xmlns="http://www.w3.org/2000/svg" width="22.26" height="20.479" viewBox="0 0 22.26 20.479">
  <g id="btn_heart-off_bk" transform="translate(0 -20.4)" fill="none" stroke-linejoin="round">
    <path d="M11.13,40.879,9.572,39.321C3.784,34.2,0,30.751,0,26.522A6.035,6.035,0,0,1,6.122,20.4a6.689,6.689,0,0,1,5.009,2.337A6.689,6.689,0,0,1,16.139,20.4a6.035,6.035,0,0,1,6.122,6.122c0,4.229-3.784,7.68-9.572,12.8Z" stroke="none"/>
    <path d="M 11.13013744354248 39.46523284912109 L 11.9812479019165 38.6141242980957 C 11.99566745758057 38.59971618652344 12.01051712036133 38.58574295043945 12.02578735351563 38.57223510742188 C 15.04123783111572 35.90472412109375 17.29741668701172 33.86846542358398 18.87215805053711 31.95253562927246 C 20.52375793457031 29.94308471679688 21.26027679443359 28.26811408996582 21.26027679443359 26.52157402038574 C 21.26027679443359 25.11994552612305 20.73679733276367 23.82455444335938 19.78625679016113 22.87401390075684 C 18.83571815490723 21.92347526550293 17.54032707214355 21.39999389648438 16.13869667053223 21.39999389648438 C 14.55530738830566 21.39999389648438 12.9286470413208 22.15994453430176 11.89352703094482 23.38326454162598 C 11.70351791381836 23.60781478881836 11.42428779602051 23.73732566833496 11.13013744354248 23.73732566833496 C 10.83598709106445 23.73732566833496 10.5567569732666 23.60781478881836 10.3667573928833 23.38327407836914 C 9.33161735534668 22.15994453430176 7.704967498779297 21.39999389648438 6.121577262878418 21.39999389648438 C 4.719947338104248 21.39999389648438 3.424557447433472 21.92347526550293 2.474017381668091 22.87401390075684 C 1.523477435112 23.82455444335938 0.9999974370002747 25.11994552612305 0.9999974370002747 26.52157402038574 C 0.9999974370002747 28.26811408996582 1.736517429351807 29.94308471679688 3.388117551803589 31.95253562927246 C 4.962857246398926 33.86846542358398 7.219037532806396 35.90472412109375 10.23448753356934 38.57223510742188 C 10.24975776672363 38.58574295043945 10.26460742950439 38.59971618652344 10.27902698516846 38.6141242980957 L 11.13013744354248 39.46523284912109 M 11.13013744354248 40.87945556640625 L 9.571917533874512 39.32123565673828 C 3.784247398376465 34.20137405395508 -2.556457502578269e-06 30.75102424621582 -2.556457502578269e-06 26.52157402038574 C -2.556457502578269e-06 23.07123565673828 2.671237468719482 20.39999389648438 6.121577262878418 20.39999389648438 C 8.013697624206543 20.39999389648438 9.905817031860352 21.29041481018066 11.13013744354248 22.73732566833496 C 12.35444736480713 21.29041481018066 14.24657726287842 20.39999389648438 16.13869667053223 20.39999389648438 C 19.58903694152832 20.39999389648438 22.26027679443359 23.07123565673828 22.26027679443359 26.52157402038574 C 22.26027679443359 30.75102424621582 18.47602653503418 34.20137405395508 12.68835735321045 39.32123565673828 L 11.13013744354248 40.87945556640625 Z" stroke="none" fill="#333"/>
  </g>
</svg>
