<svg xmlns="http://www.w3.org/2000/svg" width="30.254" height="25.313" viewBox="0 0 30.254 25.313">
  <path id="패스_205" data-name="패스 205" d="M817.422,814.882c11.419,0,17.662-10.2,17.662-18.391,0-.269-.005-.536-.018-.8a12.6,12.6,0,0,0,3.1-3.212,12.387,12.387,0,0,1-3.564.977,6.223,6.223,0,0,0,2.729-3.431,12.433,12.433,0,0,1-3.942,1.5,6.2,6.2,0,0,0-4.531-1.959c-3.429,0-6.208,3.521-6.208,6.945a6.223,6.223,0,0,0,.161,1.415A17.625,17.625,0,0,1,810.3,791.8a.3.3,0,0,0-.508.064,6.2,6.2,0,0,0,2.14,7.869,6.165,6.165,0,0,1-2.812-.775h0a6.208,6.208,0,0,0,4.98,6.16,6.249,6.249,0,0,1-1.636.217,6.126,6.126,0,0,1-1.166-.112,6.212,6.212,0,0,0,5.8,4.308,12.462,12.462,0,0,1-7.709,2.656,12.683,12.683,0,0,1-1.481-.086,17.585,17.585,0,0,0,9.515,2.786" transform="translate(-807.912 -789.571)" fill="#736678"/>
</svg>
