<svg xmlns="http://www.w3.org/2000/svg" width="26.304" height="22.001" viewBox="0 0 26.304 22.001">
  <g id="btn_twitter" transform="translate(-811.901 -787.047)">
    <path id="패스_205" data-name="패스 205" d="M816.177,811.569c9.925,0,15.35-8.865,15.35-15.984,0-.234,0-.466-.016-.7a10.953,10.953,0,0,0,2.694-2.792,10.768,10.768,0,0,1-3.1.849,5.408,5.408,0,0,0,2.372-2.982,10.805,10.805,0,0,1-3.426,1.308,5.389,5.389,0,0,0-3.938-1.7c-2.98,0-5.4,3.06-5.4,6.036a5.4,5.4,0,0,0,.14,1.23,15.318,15.318,0,0,1-10.869-5.331.261.261,0,0,0-.442.056,5.389,5.389,0,0,0,1.86,6.839,5.359,5.359,0,0,1-2.444-.674h0a5.4,5.4,0,0,0,4.328,5.354,5.428,5.428,0,0,1-1.422.189,5.321,5.321,0,0,1-1.014-.1,5.4,5.4,0,0,0,5.04,3.744,10.831,10.831,0,0,1-6.7,2.308,11.028,11.028,0,0,1-1.289-.075,15.282,15.282,0,0,0,8.272,2.421" transform="translate(4 -2.521)" fill="#736678"/>
  </g>
</svg>
