<svg xmlns="http://www.w3.org/2000/svg" width="18.635" height="19.035" viewBox="0 0 18.635 19.035">
  <g id="btn_calendar" transform="translate(-1181 -588)">
    <path id="Path" d="M2.261,0H15.374a2.729,2.729,0,0,1,1.359.218A1.549,1.549,0,0,1,17.4.837a2.225,2.225,0,0,1,.236,1.26V13.439A2.225,2.225,0,0,1,17.4,14.7a1.549,1.549,0,0,1-.667.618,2.729,2.729,0,0,1-1.359.218H2.261A2.729,2.729,0,0,1,.9,15.317,1.549,1.549,0,0,1,.236,14.7,2.225,2.225,0,0,1,0,13.439V2.1A2.225,2.225,0,0,1,.236.837,1.549,1.549,0,0,1,.9.218,2.729,2.729,0,0,1,2.261,0Z" transform="translate(1181.5 591)" fill="none" stroke="#000" stroke-linecap="round" stroke-linejoin="round" stroke-miterlimit="10" stroke-width="1"/>
    <path id="Path-2" data-name="Path" d="M.5,0V0Z" transform="translate(1184.779 588.5)" fill="none" stroke="#000" stroke-linecap="round" stroke-linejoin="round" stroke-miterlimit="10" stroke-width="1"/>
    <path id="Path-3" data-name="Path" d="M.5,0V0Z" transform="translate(1194.856 588.5)" fill="none" stroke="#000" stroke-linecap="round" stroke-linejoin="round" stroke-miterlimit="10" stroke-width="1"/>
    <g id="그룹_435" data-name="그룹 435" transform="translate(0 -0.299)">
      <path id="Path-4" data-name="Path" d="M.5.25.5.67Z" transform="translate(1185.624 594.548)" fill="none" stroke="#000" stroke-linecap="round" stroke-linejoin="round" stroke-miterlimit="10" stroke-width="1"/>
      <path id="Path-5" data-name="Path" d="M.5.25.5.67Z" transform="translate(1185.624 598.548)" fill="none" stroke="#000" stroke-linecap="round" stroke-linejoin="round" stroke-miterlimit="10" stroke-width="1"/>
      <path id="Path-6" data-name="Path" d="M.5.25.5.67Z" transform="translate(1185.624 602.548)" fill="none" stroke="#000" stroke-linecap="round" stroke-linejoin="round" stroke-miterlimit="10" stroke-width="1"/>
      <path id="Path-7" data-name="Path" d="M.5.25.5.67Z" transform="translate(1189.823 594.548)" fill="none" stroke="#000" stroke-linecap="round" stroke-linejoin="round" stroke-miterlimit="10" stroke-width="1"/>
      <path id="Path-8" data-name="Path" d="M.5.25.5.67Z" transform="translate(1189.823 598.548)" fill="none" stroke="#000" stroke-linecap="round" stroke-linejoin="round" stroke-miterlimit="10" stroke-width="1"/>
      <path id="Path-9" data-name="Path" d="M.5.25.5.67Z" transform="translate(1189.823 602.548)" fill="none" stroke="#000" stroke-linecap="round" stroke-linejoin="round" stroke-miterlimit="10" stroke-width="1"/>
      <path id="Path-10" data-name="Path" d="M.5.25.5.67Z" transform="translate(1194.022 594.548)" fill="none" stroke="#000" stroke-linecap="round" stroke-linejoin="round" stroke-miterlimit="10" stroke-width="1"/>
      <path id="Path-11" data-name="Path" d="M.5.25.5.67Z" transform="translate(1194.022 598.548)" fill="none" stroke="#000" stroke-linecap="round" stroke-linejoin="round" stroke-miterlimit="10" stroke-width="1"/>
      <path id="Path-12" data-name="Path" d="M.5.25.5.67Z" transform="translate(1194.022 602.548)" fill="none" stroke="#000" stroke-linecap="round" stroke-linejoin="round" stroke-miterlimit="10" stroke-width="1"/>
    </g>
  </g>
</svg>
