<svg xmlns="http://www.w3.org/2000/svg" width="22.199" height="22.199" viewBox="0 0 22.199 22.199">
  <g id="btn_support" transform="translate(20746.1 17541.1)">
    <path id="Rectangle_17" data-name="Rectangle 17" d="M3.875,0A2.625,2.625,0,0,1,6.5,2.625v5.25A2.625,2.625,0,0,1,3.875,10.5H.84A.84.84,0,0,1,0,9.66V.84A.84.84,0,0,1,.84,0Z" transform="translate(-20731 -17530)" fill="none" stroke="#333" stroke-linecap="round" stroke-linejoin="round" stroke-miterlimit="10" stroke-width="1.2"/>
    <path id="Path" d="M21,15.251V10.5a10.5,10.5,0,0,0-21,0v4.807" transform="translate(-20745.5 -17540.5)" fill="none" stroke="#333" stroke-linecap="round" stroke-linejoin="round" stroke-miterlimit="10" stroke-width="1.2"/>
    <path id="Path-2" data-name="Path" d="M2.625,0H5.66A.84.84,0,0,1,6.5.84V9.66a.84.84,0,0,1-.84.84H2.625A2.625,2.625,0,0,1,0,7.875V2.625A2.625,2.625,0,0,1,2.625,0Z" transform="translate(-20745.5 -17530)" fill="none" stroke="#333" stroke-linecap="round" stroke-linejoin="round" stroke-miterlimit="10" stroke-width="1.2"/>
  </g>
</svg>
