<svg xmlns="http://www.w3.org/2000/svg" xmlns:xlink="http://www.w3.org/1999/xlink" width="453" height="179" viewBox="0 0 453 179">
  <defs>
    <clipPath id="clip-control_btn">
      <rect width="453" height="179"/>
    </clipPath>
  </defs>
  <g id="control_btn" clip-path="url(#clip-control_btn)">
    <g id="그룹_271" data-name="그룹 271" transform="translate(-706.524 -2490.053)">
      <rect id="사각형_34" data-name="사각형 34" width="3.904" height="27.331" rx="1.952" transform="translate(845.524 2506.053)" fill="#fff"/>
      <path id="패스_13" data-name="패스 13" d="M500.879,1062.377,514.258,1053a1.4,1.4,0,0,1,2.2,1.146V1072.9a1.4,1.4,0,0,1-2.2,1.146l-13.379-9.377A1.4,1.4,0,0,1,500.879,1062.377Z" transform="translate(351.709 1456.233)" fill="#fff"/>
    </g>
    <g id="그룹_279" data-name="그룹 279" transform="translate(-732.678 -2490.053)">
      <g id="그룹_38" data-name="그룹 38" transform="translate(1051.678 2506.053)">
        <rect id="사각형_35" data-name="사각형 35" width="3.904" height="27.331" rx="1.952" transform="translate(22.646 27.331) rotate(-180)" fill="#fff"/>
        <path id="패스_14" data-name="패스 14" d="M771.582,1064.574l-13.379,9.377a1.4,1.4,0,0,1-2.2-1.146v-18.753a1.4,1.4,0,0,1,2.2-1.146l13.379,9.377A1.4,1.4,0,0,1,771.582,1064.574Z" transform="translate(-756 -1049.8)" fill="#fff"/>
      </g>
    </g>
    <g id="그룹_284" data-name="그룹 284">
      <path id="패스_15" data-name="패스 15" d="M350.48,1068.907h-3.134a3.5,3.5,0,0,1-3.5-3.5v-7.815a3.519,3.519,0,0,1,3.519-3.519h17.956v2.517a.235.235,0,0,0,.408.159l3.368-3.689a.235.235,0,0,0,0-.317l-3.367-3.689a.236.236,0,0,0-.409.159v2.518H346.19a4.69,4.69,0,0,0-4.69,4.69v10.158a4.674,4.674,0,0,0,4.674,4.674h4.306a1.171,1.171,0,1,0,0-2.343Z" transform="translate(-331.5 -1031.974)" fill="#fff" opacity="0.4"/>
      <path id="패스_16" data-name="패스 16" d="M379.228,1052.5h-2.687a1.171,1.171,0,1,0,0,2.343h1.516a3.56,3.56,0,0,1,3.56,3.56v7.789a3.488,3.488,0,0,1-3.488,3.488H360.923v-2.518a.235.235,0,0,0-.408-.159l-3.368,3.689a.235.235,0,0,0,0,.317l3.368,3.689a.235.235,0,0,0,.408-.159v-2.517H379.3a4.66,4.66,0,0,0,4.66-4.66v-10.131A4.732,4.732,0,0,0,379.228,1052.5Z" transform="translate(-334.915 -1032.747)" fill="#fff" opacity="0.4"/>
    </g>
    <g id="그룹_274" data-name="그룹 274" transform="translate(-1144.66 -2370.109)">
      <path id="패스_17" data-name="패스 17" d="M922.413,1067.56a.315.315,0,0,0-.52.239v1.877a19.916,19.916,0,0,1-10.013-4.2,21.608,21.608,0,0,1-1.838-1.623,21.8,21.8,0,0,1,1.839-1.623,19.917,19.917,0,0,1,10.013-4.2v1.848a.315.315,0,0,0,.52.239l3.123-2.685a.313.313,0,0,0,0-.477l-3.123-2.685a.315.315,0,0,0-.52.239v1.949a21.168,21.168,0,0,0-10.965,4.534,23.342,23.342,0,0,0-1.994,1.76l-.121-.123c-2.006-2.035-4.082-4.141-7.079-4.995a19.136,19.136,0,0,0-6-.419c-.654.025-1.306.049-1.951.049a.781.781,0,0,0,0,1.562c.665,0,1.336-.024,2.009-.049a17.588,17.588,0,0,1,5.515.359c2.6.742,4.446,2.61,6.4,4.589l.126.127-.126.127c-1.951,1.979-3.793,3.847-6.4,4.589a17.61,17.61,0,0,1-5.515.359c-.673-.025-1.344-.049-2.009-.049a.781.781,0,1,0,0,1.562c.646,0,1.3.024,1.951.049.671.024,1.349.049,2.031.049a14.372,14.372,0,0,0,3.97-.469c3-.854,5.073-2.96,7.079-4.995l.121-.123a23.2,23.2,0,0,0,1.993,1.759,21.168,21.168,0,0,0,10.966,4.535v1.92a.315.315,0,0,0,.52.239l3.123-2.685a.313.313,0,0,0,0-.477Z" transform="translate(265.66 1455.916)" fill="#fff" opacity="0.3"/>
    </g>
    <g id="그룹_283" data-name="그룹 283" transform="translate(-1084.66 -2370.109)">
      <path id="패스_17-2" data-name="패스 17" d="M922.413,1067.56a.315.315,0,0,0-.52.239v1.877a19.916,19.916,0,0,1-10.013-4.2,21.608,21.608,0,0,1-1.838-1.623,21.8,21.8,0,0,1,1.839-1.623,19.917,19.917,0,0,1,10.013-4.2v1.848a.315.315,0,0,0,.52.239l3.123-2.685a.313.313,0,0,0,0-.477l-3.123-2.685a.315.315,0,0,0-.52.239v1.949a21.168,21.168,0,0,0-10.965,4.534,23.342,23.342,0,0,0-1.994,1.76l-.121-.123c-2.006-2.035-4.082-4.141-7.079-4.995a19.136,19.136,0,0,0-6-.419c-.654.025-1.306.049-1.951.049a.781.781,0,0,0,0,1.562c.665,0,1.336-.024,2.009-.049a17.588,17.588,0,0,1,5.515.359c2.6.742,4.446,2.61,6.4,4.589l.126.127-.126.127c-1.951,1.979-3.793,3.847-6.4,4.589a17.61,17.61,0,0,1-5.515.359c-.673-.025-1.344-.049-2.009-.049a.781.781,0,1,0,0,1.562c.646,0,1.3.024,1.951.049.671.024,1.349.049,2.031.049a14.372,14.372,0,0,0,3.97-.469c3-.854,5.073-2.96,7.079-4.995l.121-.123a23.2,23.2,0,0,0,1.993,1.759,21.168,21.168,0,0,0,10.966,4.535v1.92a.315.315,0,0,0,.52.239l3.123-2.685a.313.313,0,0,0,0-.477Z" transform="translate(265.66 1455.916)" fill="#fff"/>
    </g>
    <g id="그룹_276" data-name="그룹 276" transform="translate(-1537 -2076)" opacity="0.4">
      <path id="패스_14-2" data-name="패스 14" d="M763.561,1058.436l-6.492,4.55a.679.679,0,0,1-1.069-.556v-9.1a.679.679,0,0,1,1.069-.556l6.492,4.55A.679.679,0,0,1,763.561,1058.436Z" transform="translate(936.678 1115.351)" fill="#fff"/>
      <line id="선_11" data-name="선 11" x2="29.028" transform="translate(1672 2153)" fill="none" stroke="#fff" stroke-linecap="round" stroke-width="1.5"/>
      <line id="선_12" data-name="선 12" x2="29.028" transform="translate(1672 2163.048)" fill="none" stroke="#fff" stroke-linecap="round" stroke-width="1.5"/>
      <line id="선_13" data-name="선 13" x2="12.281" transform="translate(1672 2173.096)" fill="none" stroke="#fff" stroke-linecap="round" stroke-width="1.5"/>
    </g>
    <g id="그룹_281" data-name="그룹 281" transform="translate(-1477 -2076)">
      <path id="패스_14-3" data-name="패스 14" d="M763.561,1058.436l-6.492,4.55a.679.679,0,0,1-1.069-.556v-9.1a.679.679,0,0,1,1.069-.556l6.492,4.55A.679.679,0,0,1,763.561,1058.436Z" transform="translate(936.678 1115.351)" fill="#fff"/>
      <line id="선_11-2" data-name="선 11" x2="29.028" transform="translate(1672 2153)" fill="none" stroke="#fff" stroke-linecap="round" stroke-width="1.5"/>
      <line id="선_12-2" data-name="선 12" x2="29.028" transform="translate(1672 2163.048)" fill="none" stroke="#fff" stroke-linecap="round" stroke-width="1.5"/>
      <line id="선_13-2" data-name="선 13" x2="12.281" transform="translate(1672 2173.096)" fill="none" stroke="#fff" stroke-linecap="round" stroke-width="1.5"/>
    </g>
    <g id="그룹_275" data-name="그룹 275" transform="translate(-1174 -973.125)" opacity="0.4">
      <path id="패스_18" data-name="패스 18" d="M1206.455,1078.125l-7.711-6.168a3.934,3.934,0,0,0-2.457-.862h-6.258a2.029,2.029,0,0,1-2.029-2.029v-10.881a2.029,2.029,0,0,1,2.029-2.029h6.258a3.934,3.934,0,0,0,2.457-.862l7.711-6.168" fill="none" stroke="#fff" stroke-linecap="round" stroke-linejoin="round" stroke-width="1.5"/>
      <path id="패스_19" data-name="패스 19" d="M1209,1062.125a6.327,6.327,0,0,1,0,6.151" transform="translate(-2.545 -1.576)" fill="none" stroke="#fff" stroke-linecap="round" stroke-linejoin="round" stroke-width="1.5"/>
      <path id="패스_20" data-name="패스 20" d="M1213,1057.125a6.981,6.981,0,0,1,3.515,6.151v2.636a6.981,6.981,0,0,1-3.515,6.152" transform="translate(-3.03 -0.97)" fill="none" stroke="#fff" stroke-linecap="round" stroke-linejoin="round" stroke-width="1.5"/>
      <path id="패스_21" data-name="패스 21" d="M1218,1051.625s5.273,2.636,5.273,10.545v3.515c0,7.909-5.273,10.546-5.273,10.546" transform="translate(-3.636 -0.303)" fill="none" stroke="#fff" stroke-linecap="round" stroke-linejoin="round" stroke-width="1.5"/>
    </g>
    <g id="그룹_280" data-name="그룹 280" transform="translate(-1114 -973.125)">
      <path id="패스_18-2" data-name="패스 18" d="M1206.455,1078.125l-7.711-6.168a3.934,3.934,0,0,0-2.457-.862h-6.258a2.029,2.029,0,0,1-2.029-2.029v-10.881a2.029,2.029,0,0,1,2.029-2.029h6.258a3.934,3.934,0,0,0,2.457-.862l7.711-6.168" fill="none" stroke="#fff" stroke-linecap="round" stroke-linejoin="round" stroke-width="1.5"/>
      <path id="패스_19-2" data-name="패스 19" d="M1209,1062.125a6.327,6.327,0,0,1,0,6.151" transform="translate(-2.545 -1.576)" fill="none" stroke="#fff" stroke-linecap="round" stroke-linejoin="round" stroke-width="1.5"/>
      <path id="패스_20-2" data-name="패스 20" d="M1213,1057.125a6.981,6.981,0,0,1,3.515,6.151v2.636a6.981,6.981,0,0,1-3.515,6.152" transform="translate(-3.03 -0.97)" fill="none" stroke="#fff" stroke-linecap="round" stroke-linejoin="round" stroke-width="1.5"/>
      <path id="패스_21-2" data-name="패스 21" d="M1218,1051.625s5.273,2.636,5.273,10.545v3.515c0,7.909-5.273,10.546-5.273,10.546" transform="translate(-3.636 -0.303)" fill="none" stroke="#fff" stroke-linecap="round" stroke-linejoin="round" stroke-width="1.5"/>
    </g>
    <g id="그룹_277" data-name="그룹 277" transform="translate(-934 -973.125)" opacity="0.4">
      <path id="패스_18-3" data-name="패스 18" d="M1206.455,1078.125l-7.711-6.168a3.934,3.934,0,0,0-2.457-.862h-6.258a2.029,2.029,0,0,1-2.029-2.029v-10.881a2.029,2.029,0,0,1,2.029-2.029h6.258a3.934,3.934,0,0,0,2.457-.862l7.711-6.168" fill="none" stroke="#fff" stroke-linecap="round" stroke-linejoin="round" stroke-width="1.5"/>
      <path id="패스_19-3" data-name="패스 19" d="M1209,1062.125a6.327,6.327,0,0,1,0,6.151" transform="translate(-2.545 -1.576)" fill="none" stroke="#fff" stroke-linecap="round" stroke-linejoin="round" stroke-width="1.5"/>
      <path id="패스_20-3" data-name="패스 20" d="M1213,1057.125a6.981,6.981,0,0,1,3.515,6.151v2.636a6.981,6.981,0,0,1-3.515,6.152" transform="translate(-3.03 -0.97)" fill="none" stroke="#fff" stroke-linecap="round" stroke-linejoin="round" stroke-width="1.5"/>
      <path id="패스_21-3" data-name="패스 21" d="M1218,1051.625s5.273,2.636,5.273,10.545v3.515c0,7.909-5.273,10.546-5.273,10.546" transform="translate(-3.636 -0.303)" fill="none" stroke="#fff" stroke-linecap="round" stroke-linejoin="round" stroke-width="1.5"/>
    </g>
    <g id="그룹_282" data-name="그룹 282" transform="translate(-874 -973.125)">
      <path id="패스_18-4" data-name="패스 18" d="M1206.455,1078.125l-7.711-6.168a3.934,3.934,0,0,0-2.457-.862h-6.258a2.029,2.029,0,0,1-2.029-2.029v-10.881a2.029,2.029,0,0,1,2.029-2.029h6.258a3.934,3.934,0,0,0,2.457-.862l7.711-6.168" fill="none" stroke="#fff" stroke-linecap="round" stroke-linejoin="round" stroke-width="1.5"/>
      <path id="패스_19-4" data-name="패스 19" d="M1209,1062.125a6.327,6.327,0,0,1,0,6.151" transform="translate(-2.545 -1.576)" fill="none" stroke="#fff" stroke-linecap="round" stroke-linejoin="round" stroke-width="1.5"/>
      <path id="패스_20-4" data-name="패스 20" d="M1213,1057.125a6.981,6.981,0,0,1,3.515,6.151v2.636a6.981,6.981,0,0,1-3.515,6.152" transform="translate(-3.03 -0.97)" fill="none" stroke="#fff" stroke-linecap="round" stroke-linejoin="round" stroke-width="1.5"/>
      <path id="패스_21-4" data-name="패스 21" d="M1218,1051.625s5.273,2.636,5.273,10.545v3.515c0,7.909-5.273,10.546-5.273,10.546" transform="translate(-3.636 -0.303)" fill="none" stroke="#fff" stroke-linecap="round" stroke-linejoin="round" stroke-width="1.5"/>
    </g>
    <g id="레이어_2" data-name="레이어 2" transform="translate(136 137)" opacity="0.4">
      <g id="레이어_1" data-name="레이어 1">
        <path id="패스_7" data-name="패스 7" d="M26.591,2.152a7.346,7.346,0,0,0-10.389,0L14.371,3.982,12.541,2.152a7.346,7.346,0,0,0-10.389,0h0a7.346,7.346,0,0,0,0,10.389l12.22,12.022,12.22-12.022a7.346,7.346,0,0,0,0-10.389Z" transform="translate(0 0)" fill="none" stroke="#fff" stroke-linecap="round" stroke-linejoin="round" stroke-width="1.5"/>
      </g>
    </g>
    <g id="레이어_2-2" data-name="레이어 2" transform="translate(196 137)">
      <g id="레이어_1-2" data-name="레이어 1">
        <path id="패스_7-2" data-name="패스 7" d="M26.591,2.152a7.346,7.346,0,0,0-10.389,0L14.371,3.982,12.541,2.152a7.346,7.346,0,0,0-10.389,0h0a7.346,7.346,0,0,0,0,10.389l12.22,12.022,12.22-12.022a7.346,7.346,0,0,0,0-10.389Z" transform="translate(0 0)" fill="#7300df" stroke="#7300df" stroke-linecap="round" stroke-linejoin="round" stroke-width="1.5"/>
      </g>
    </g>
    <g id="레이어_2-3" data-name="레이어 2" transform="translate(250 7.999)">
      <g id="레이어_1-3" data-name="레이어 1" transform="translate(0 0.001)">
        <path id="패스_73" data-name="패스 73" d="M37.6,18.721,6.125.549A4.083,4.083,0,0,0,0,4.085V40.429a4.083,4.083,0,0,0,6.125,3.536L37.6,25.793a4.083,4.083,0,0,0,0-7.073Z" transform="translate(0 -0.001)" fill="#fff"/>
      </g>
    </g>
    <g id="그룹_285" data-name="그룹 285" transform="translate(-1 1)">
      <path id="패스_75" data-name="패스 75" d="M350.48,1068.907h-3.134a3.5,3.5,0,0,1-3.5-3.5v-7.815a3.519,3.519,0,0,1,3.519-3.519h17.956v2.517a.235.235,0,0,0,.408.159l3.368-3.689a.235.235,0,0,0,0-.317l-3.367-3.689a.236.236,0,0,0-.409.159v2.518H346.19a4.69,4.69,0,0,0-4.69,4.69v10.158a4.674,4.674,0,0,0,4.674,4.674h4.306a1.171,1.171,0,1,0,0-2.343Z" transform="translate(-270.5 -1031.974)" fill="#fff"/>
      <path id="패스_74" data-name="패스 74" d="M379.228,1052.5h-2.687a1.171,1.171,0,1,0,0,2.343h1.516a3.56,3.56,0,0,1,3.56,3.56v7.789a3.488,3.488,0,0,1-3.488,3.488H360.923v-2.518a.235.235,0,0,0-.408-.159l-3.368,3.689a.235.235,0,0,0,0,.317l3.368,3.689a.235.235,0,0,0,.408-.159v-2.517H379.3a4.66,4.66,0,0,0,4.66-4.66v-10.131A4.732,4.732,0,0,0,379.228,1052.5Z" transform="translate(-273.915 -1032.747)" fill="#fff"/>
    </g>
    <g id="그룹_272" data-name="그룹 272" transform="translate(-752.039 -2490.245)">
      <rect id="사각형_32" data-name="사각형 32" width="9.371" height="44.511" rx="3.354" transform="translate(947.039 2498.245)" fill="#fff"/>
      <rect id="사각형_33" data-name="사각형 33" width="9.371" height="44.511" rx="3.354" transform="translate(968.123 2498.245)" fill="#fff"/>
    </g>
    <g id="레이어_2-4" data-name="레이어 2" transform="translate(256.25 136.25)" opacity="0.4">
      <g id="레이어_1-4" data-name="레이어 1" transform="translate(0.75 0.75)">
        <line id="선_35" data-name="선 35" x1="25.46" y2="25.46" fill="none" stroke="#fff" stroke-linecap="round" stroke-miterlimit="10" stroke-width="3"/>
        <line id="선_36" data-name="선 36" x2="25.46" y2="25.46" fill="none" stroke="#fff" stroke-linecap="round" stroke-miterlimit="10" stroke-width="3"/>
      </g>
    </g>
    <g id="레이어_2-5" data-name="레이어 2" transform="translate(316.25 136.25)">
      <g id="레이어_1-5" data-name="레이어 1" transform="translate(0.75 0.75)">
        <path id="패스_76" data-name="패스 76" d="M25.46,0,0,25.46" fill="none" stroke="#fff" stroke-linecap="round" stroke-width="3"/>
        <line id="선_36-2" data-name="선 36" x2="25.46" y2="25.46" fill="none" stroke="#fff" stroke-linecap="round" stroke-miterlimit="10" stroke-width="3"/>
      </g>
    </g>
    <g id="그룹_288" data-name="그룹 288" transform="translate(-1492.4 -158)">
      <path id="패스_11" data-name="패스 11" d="M2.1,0A2.1,2.1,0,1,1,0,2.1,2.1,2.1,0,0,1,2.1,0Z" transform="translate(1867.4 178)" fill="#fff" opacity="0.8"/>
      <circle id="타원_7" data-name="타원 7" cx="2.1" cy="2.1" r="2.1" transform="translate(1867.4 186.4)" fill="#fff" opacity="0.6"/>
      <path id="패스_10" data-name="패스 10" d="M2.1,0A2.1,2.1,0,1,1,0,2.1,2.1,2.1,0,0,1,2.1,0Z" transform="translate(1867.4 194.8)" fill="#fff" opacity="0.4"/>
    </g>
    <g id="그룹_289" data-name="그룹 289" transform="translate(399 80.352)">
      <path id="패스_30" data-name="패스 30" d="M1609.75,1053.046v19.626a1.125,1.125,0,0,0,1.125,1.125h24.633a1.125,1.125,0,0,0,1.125-1.125v-15.926a1.113,1.113,0,0,0-1.114-1.114h-12.691L1619.2,1052h-8.4A1.046,1.046,0,0,0,1609.75,1053.046Z" transform="translate(-1609.75 -1052)" fill="none" stroke="#fff" stroke-linecap="round" stroke-linejoin="round" stroke-miterlimit="10" stroke-width="1.5"/>
      <g id="그룹_62" data-name="그룹 62" transform="translate(9.082 8.719)">
        <line id="선_21" data-name="선 21" y2="8.719" transform="translate(4.359)" fill="none" stroke="#fff" stroke-linecap="round" stroke-linejoin="round" stroke-width="1.5"/>
        <line id="선_22" data-name="선 22" x1="8.719" transform="translate(0 4.359)" fill="none" stroke="#fff" stroke-linecap="round" stroke-linejoin="round" stroke-width="1.5"/>
      </g>
    </g>
    <text id="Buy" transform="translate(365 96.258)" fill="#f7f7f7" font-size="14" font-family="NotoSansCJKkr-Bold, Noto Sans CJK KR" font-weight="700" letter-spacing="-0.02em"><tspan x="0" y="0">Buy</tspan></text>
  </g>
</svg>
