<svg xmlns="http://www.w3.org/2000/svg" width="58.61" height="58.611" viewBox="0 0 58.61 58.611">
  <g id="그룹_1239" data-name="그룹 1239" transform="translate(13309.906 5326.611)">
    <circle id="타원_187" data-name="타원 187" cx="29.305" cy="29.305" r="29.305" transform="translate(-13309.906 -5326.611)" fill="#585858"/>
    <path id="btn_01-youtube" d="M3752.183,4160.6a4.66,4.66,0,0,0-3.285-3.285c-2.9-.774-14.512-.774-14.512-.774s-11.611,0-14.512.774a4.659,4.659,0,0,0-3.285,3.285c-.774,2.9-.774,8.94-.774,8.94s0,6.044.774,8.94a4.659,4.659,0,0,0,3.285,3.285c2.9.774,14.512.774,14.512.774s11.616,0,14.512-.774a4.658,4.658,0,0,0,3.285-3.285c.774-2.9.774-8.94.774-8.94S3752.957,4163.5,3752.183,4160.6Zm-21.508,14.512v-11.144l9.649,5.572Z" transform="translate(-17014.557 -9466.406)" fill="#fff"/>
  </g>
</svg>
