<svg xmlns="http://www.w3.org/2000/svg" width="58.61" height="58.611" viewBox="0 0 58.61 58.611">
  <g id="그룹_1240" data-name="그룹 1240" transform="translate(13231.759 5326.611)">
    <circle id="타원_185" data-name="타원 185" cx="29.305" cy="29.305" r="29.305" transform="translate(-13231.759 -5326.611)" fill="#585858"/>
    <g id="btn_02-insta" transform="translate(-13218.734 -5313.586)">
      <g id="그룹_42" data-name="그룹 42" transform="translate(0 0)">
        <path id="패스_87" data-name="패스 87" d="M7069.163,3456.29h-14.168a9.675,9.675,0,0,0-9.675,9.675v14.169a9.675,9.675,0,0,0,9.675,9.675h14.168a9.674,9.674,0,0,0,9.675-9.675v-14.169A9.674,9.674,0,0,0,7069.163,3456.29Zm6.588,24.093a6.422,6.422,0,0,1-6.422,6.422h-14.5a6.422,6.422,0,0,1-6.421-6.422v-14.5a6.422,6.422,0,0,1,6.421-6.422h14.5a6.422,6.422,0,0,1,6.422,6.422Z" transform="translate(-7045.32 -3456.29)" fill="#fff"/>
        <path id="패스_88" data-name="패스 88" d="M7111.27,3514.135a8.7,8.7,0,1,0,8.7,8.7A8.7,8.7,0,0,0,7111.27,3514.135Zm0,14.334a5.638,5.638,0,1,1,5.638-5.638A5.638,5.638,0,0,1,7111.27,3528.469Z" transform="translate(-7094.511 -3505.99)" fill="#fff"/>
        <circle id="타원_7" data-name="타원 7" cx="2.026" cy="2.026" r="2.026" transform="translate(23.72 5.789)" fill="#fff"/>
      </g>
    </g>
  </g>
</svg>
