<svg xmlns="http://www.w3.org/2000/svg" width="19.002" height="16.775" viewBox="0 0 19.002 16.775">
  <g id="그룹_1264" data-name="그룹 1264" transform="translate(-270 -28)">
    <g id="그룹_1263" data-name="그룹 1263" transform="translate(270 28)">
      <path id="패스_100" data-name="패스 100" d="M1077.232,782.51h-13.38l-.6-2.1a1.335,1.335,0,0,0-1.243-.862h-2.67a.623.623,0,1,0,0,1.247H1062c.034,0,.065.022.061.006l.584,2.039,1.869,8.1a2.373,2.373,0,0,0,2.313,1.84h7.25a2.284,2.284,0,0,0,2.25-1.888l1.374-7.814A.481.481,0,0,0,1077.232,782.51Z" transform="translate(-1058.711 -779.546)" fill="#fff"/>
      <g id="그룹_1260" data-name="그룹 1260" transform="translate(7.496 5.446)">
        <g id="그룹_1257" data-name="그룹 1257">
          <path id="패스_101" data-name="패스 101" d="M1074.562,795.167a.65.65,0,0,1-.636-.521l-.769-3.837a.649.649,0,0,1,1.273-.256l.77,3.837a.65.65,0,0,1-.509.765A.675.675,0,0,1,1074.562,795.167Z" transform="translate(-1073.143 -790.031)" fill="rgba(29,127,255,0.33)"/>
        </g>
        <g id="그룹_1258" data-name="그룹 1258" transform="translate(2.8 0.097)">
          <path id="패스_102" data-name="패스 102" d="M1079.951,795.353a.649.649,0,0,1-.636-.521l-.769-3.837a.649.649,0,1,1,1.273-.256l.769,3.836a.649.649,0,0,1-.509.765A.636.636,0,0,1,1079.951,795.353Z" transform="translate(-1078.533 -790.217)" fill="rgba(29,127,255,0.33)"/>
        </g>
        <g id="그룹_1259" data-name="그룹 1259" transform="translate(5.598 0.195)">
          <path id="패스_103" data-name="패스 103" d="M1085.34,795.542a.649.649,0,0,1-.636-.521l-.77-3.836a.649.649,0,0,1,1.273-.256l.77,3.836a.65.65,0,0,1-.509.765A.676.676,0,0,1,1085.34,795.542Z" transform="translate(-1083.922 -790.407)" fill="rgba(29,127,255,0.33)"/>
        </g>
      </g>
      <g id="그룹_1261" data-name="그룹 1261" transform="translate(5.499 13.879)">
        <circle id="타원_26" data-name="타원 26" cx="1.448" cy="1.448" r="1.448" fill="#fff"/>
      </g>
      <g id="그룹_1262" data-name="그룹 1262" transform="translate(14.864 13.879)">
        <circle id="타원_27" data-name="타원 27" cx="1.448" cy="1.448" r="1.448" fill="#fff"/>
      </g>
    </g>
  </g>
</svg>
