<svg xmlns="http://www.w3.org/2000/svg" xmlns:xlink="http://www.w3.org/1999/xlink" width="56" height="56" viewBox="0 0 56 56">
  <defs>
    <linearGradient id="linear-gradient" x1="0.5" x2="0.5" y2="1" gradientUnits="objectBoundingBox">
      <stop offset="0" stop-color="#b3ccd9"/>
      <stop offset="1" stop-color="#a5c6d8"/>
    </linearGradient>
    <linearGradient id="linear-gradient-2" x1="0.153" x2="0.9" y2="0.892" gradientUnits="objectBoundingBox">
      <stop offset="0" stop-color="#0069fd"/>
      <stop offset="1" stop-color="#1dbbff"/>
    </linearGradient>
    <filter id="타원_20" x="10.733" y="7.235" width="33.548" height="33.548" filterUnits="userSpaceOnUse">
      <feOffset dy="3" input="SourceAlpha"/>
      <feGaussianBlur stdDeviation="3" result="blur"/>
      <feFlood flood-color="#1dbbff" flood-opacity="0.122"/>
      <feComposite operator="in" in2="blur"/>
      <feComposite in="SourceGraphic"/>
    </filter>
  </defs>
  <g id="그룹_1276" data-name="그룹 1276" transform="translate(-105 169)">
    <circle id="타원_25" data-name="타원 25" cx="28" cy="28" r="28" transform="translate(105 -169)" fill="#1655cb" opacity="0.164"/>
    <ellipse id="타원_23" data-name="타원 23" cx="23.5" cy="24" rx="23.5" ry="24" transform="translate(110 -165)" fill="#fff"/>
    <g id="그룹_85" data-name="그룹 85" transform="translate(119.203 -155.765)">
      <ellipse id="타원_24" data-name="타원 24" cx="14.5" cy="1.5" rx="14.5" ry="1.5" transform="translate(-0.203 24.765)" fill="#dfecf3" opacity="0.4"/>
      <g id="그룹_84" data-name="그룹 84" transform="translate(0.683 0)">
        <g id="그룹_83" data-name="그룹 83">
          <path id="패스_97" data-name="패스 97" d="M305.765,243v3.552L280,248.32V243Z" transform="translate(-279.556 -233.771)" fill="#9bb6bf"/>
          <path id="패스_98" data-name="패스 98" d="M305.209,243H279.444l.888,1.284L279,246.108c6.219,0,15.992,0,26.654,0l-1.333-1.824Z" transform="translate(-279 -233.771)" fill="url(#linear-gradient)"/>
          <g id="그룹_80" data-name="그룹 80" transform="translate(4.848 0)">
            <g transform="matrix(1, 0, 0, 1, -19.73, -13.23)" filter="url(#타원_20)">
              <circle id="타원_20-2" data-name="타원 20" cx="7.774" cy="7.774" r="7.774" transform="translate(19.73 13.23)" fill="url(#linear-gradient-2)"/>
            </g>
            <g id="그룹_79" data-name="그룹 79" transform="translate(4.399 4.985)">
              <path id="패스_63" data-name="패스 63" d="M303.191,233.125l-3.375-2.014v4.277Z" transform="translate(-299.816 -231.111)" fill="#fff" opacity="0.64" style="isolation: isolate"/>
              <path id="패스_64" data-name="패스 64" d="M303.237,233.1l-3.421,2.29v.006l3.375,2.184,3.375-2.184v-4.282Z" transform="translate(-299.816 -231.112)" fill="#fff"/>
            </g>
          </g>
          <g id="그룹_82" data-name="그룹 82" transform="translate(0 12.339)">
            <path id="사각형_366" data-name="사각형 366" d="M0,0H26.654a0,0,0,0,1,0,0V3.956a9.816,9.816,0,0,1-9.816,9.816H9.816A9.816,9.816,0,0,1,0,3.956V0A0,0,0,0,1,0,0Z" fill="#dfecf3"/>
            <g id="그룹_81" data-name="그룹 81" transform="translate(4.887 2.221)">
              <circle id="타원_21" data-name="타원 21" cx="1.111" cy="1.111" r="1.111" fill="#b9cdd6"/>
              <circle id="타원_22" data-name="타원 22" cx="1.111" cy="1.111" r="1.111" transform="translate(14.66)" fill="#b9cdd6"/>
            </g>
            <path id="패스_99" data-name="패스 99" d="M299.718,264.94h-.888c-5.414,0-7.161-5.058-7.328-7.732a.666.666,0,1,1,1.33-.083c.017.264.488,6.483,6,6.483h.888c5.51,0,5.981-6.219,6-6.484a.666.666,0,0,1,1.33.084C306.88,259.882,305.132,264.94,299.718,264.94Z" transform="translate(-285.947 -253.612)" fill="#fff"/>
          </g>
        </g>
      </g>
    </g>
  </g>
</svg>
