<svg xmlns="http://www.w3.org/2000/svg" xmlns:xlink="http://www.w3.org/1999/xlink" width="80" height="80" viewBox="0 0 80 80">
  <defs>
    <linearGradient id="linear-gradient" x1="0.131" x2="0.819" y2="0.876" gradientUnits="objectBoundingBox">
      <stop offset="0" stop-color="#1db2ff"/>
      <stop offset="1" stop-color="#1d71ff"/>
    </linearGradient>
    <filter id="패스_101" x="18" y="3.41" width="44" height="57.176" filterUnits="userSpaceOnUse">
      <feOffset dy="4" input="SourceAlpha"/>
      <feGaussianBlur stdDeviation="4" result="blur"/>
      <feFlood flood-color="#186dd8" flood-opacity="0.486"/>
      <feComposite operator="in" in2="blur"/>
      <feComposite in="SourceGraphic"/>
    </filter>
  </defs>
  <g id="그룹_1279" data-name="그룹 1279" transform="translate(-4626 -2436)">
    <circle id="타원_27" data-name="타원 27" cx="40" cy="40" r="40" transform="translate(4626 2436)" fill="url(#linear-gradient)"/>
    <g transform="matrix(1, 0, 0, 1, 4626, 2436)" filter="url(#패스_101)">
      <path id="패스_101-2" data-name="패스 101" d="M511.546,485.12a12.231,12.231,0,0,1-.05,1.234,1.6,1.6,0,0,1-.2.686.665.665,0,0,1-.436.289,4.056,4.056,0,0,1-.764.058h-4.643a.817.817,0,0,1-.675-.3,1.06,1.06,0,0,1-.238-.677c0-.7.01-1.318.029-1.85s.05-1,.09-1.393a7.046,7.046,0,0,1,.159-1,2.336,2.336,0,0,1,.258-.654,6.3,6.3,0,0,1,1.26-1.493,11.078,11.078,0,0,1,1.44-1.045q.734-.45,1.448-.826a7.083,7.083,0,0,0,1.26-.837,3.669,3.669,0,0,0,.885-1.083,3.293,3.293,0,0,0,.336-1.563,2.886,2.886,0,0,0-.278-1.234,3.591,3.591,0,0,0-.744-1.054,3.532,3.532,0,0,0-1.091-.726,3.252,3.252,0,0,0-1.3-.269,3.085,3.085,0,0,0-1.289.278,3.7,3.7,0,0,0-1.845,1.85,3.066,3.066,0,0,0-.278,1.275v.458a.532.532,0,0,1-.238.487,1.422,1.422,0,0,1-.6.188,4.676,4.676,0,0,1-.766.021c-.272-.013-.515-.021-.727-.021h-3.441a.781.781,0,0,1-.687-.269.938.938,0,0,1-.189-.547v-.656a8.837,8.837,0,0,1,.824-3.83,9.489,9.489,0,0,1,2.207-3,10.094,10.094,0,0,1,3.2-1.95,10.542,10.542,0,0,1,3.808-.7,10.135,10.135,0,0,1,3.858.737,10,10,0,0,1,3.171,2.039,9.582,9.582,0,0,1,2.146,3.086,10.28,10.28,0,0,1,.5,6.358,7.315,7.315,0,0,1-.757,1.838,6.045,6.045,0,0,1-1.073,1.354,12.021,12.021,0,0,1-1.234,1.017q-.626.447-1.224.826a8.08,8.08,0,0,0-1.064.8,3.735,3.735,0,0,0-.756.913A2.3,2.3,0,0,0,511.546,485.12Zm-6.965,7.3a.908.908,0,0,1,.219-.638.843.843,0,0,1,.654-.24h5.239a.964.964,0,0,1,.625.24.788.788,0,0,1,.287.638v4.813a.974.974,0,0,1-.228.638.836.836,0,0,1-.684.279h-6.112Z" transform="translate(-468.23 -453.57)" fill="#eff4fd"/>
    </g>
    <text id="Click" transform="translate(4666 2497)" fill="#fff" font-size="14" font-family="SpoqaHanSans-Regular, SpoqaHanSans" letter-spacing="-0.035em" opacity="0.45"><tspan x="-14.749" y="0">Click</tspan></text>
  </g>
</svg>
