<?xml version="1.0" encoding="utf-8"?>
<!-- Generator: Adobe Illustrator 23.0.3, SVG Export Plug-In . SVG Version: 6.00 Build 0)  -->
<svg version="1.1" id="레이어_1" xmlns="http://www.w3.org/2000/svg" xmlns:xlink="http://www.w3.org/1999/xlink" x="0px"
	 y="0px" viewBox="0 0 376.3 208.6" style="enable-background:new 0 0 376.3 208.6;" xml:space="preserve">
<style type="text/css">
	.st0{fill:url(#SVGID_1_);}
	.st1{fill:url(#SVGID_2_);}
</style>
<g>
	
		<linearGradient id="SVGID_1_" gradientUnits="userSpaceOnUse" x1="-23.5242" y1="187.9839" x2="335.6747" y2="46.357" gradientTransform="matrix(1 0 0 -1 0 208.8)">
		<stop  offset="0" style="stop-color:#00B7B2"/>
		<stop  offset="0.2662" style="stop-color:#2677B4"/>
		<stop  offset="0.5101" style="stop-color:#4444B5"/>
		<stop  offset="0.7214" style="stop-color:#5A1FB6"/>
		<stop  offset="0.8918" style="stop-color:#6708B7"/>
		<stop  offset="1" style="stop-color:#6C00B7"/>
	</linearGradient>
	<path class="st0" d="M376.3,102.2c0-0.1,0-0.2,0-0.3c0-0.4,0-0.9,0-1.3c-0.9-29.2-14.1-57.3-37.7-76.9C321,9.1,296.9,0.3,272.3,0
		c-0.8,0-1.6,0-2.4,0.1c-1.7,0-3.3,0.1-5,0.2c-1.3,0.1-2.5,0.2-3.8,0.3c-1.2,0.1-2.3,0.3-3.5,0.5c-28.7,4.2-54.2,20.3-70.5,49.3l0,0
		c0,0-26.3,53.1-46.7,79.4c-0.6,0.8-1.1,1.5-1.8,2.2c-5.1,5.9-11.7,10.5-19.3,13c-0.6,0.2-1.2,0.4-1.7,0.6c-0.5,0.1-1,0.3-1.5,0.4
		c-1.6,0.4-3.2,0.7-4.8,0.9h-0.1c-1.6,0.2-3.3,0.3-5,0.3c-6.3,0-12.7-1.3-18.8-3.8c-19.4-8.2-29.6-29-24.7-48.8S85,61.5,105,62l0,0
		c15.1,0,28.4,3.9,37.2,12l26.2-51C155.9,12.9,141.7,6.1,126,2.8C65.9-9.7,9.2,30.6,0.9,91.6c-8.6,63,44.9,120.5,108.4,116.8
		c33.8-1.9,60.7-16,79-44c0,0,10.4,12.7,16.6,18c-0.1,0.1-0.1,0.2-0.2,0.3c0.1-0.1,0.1-0.1,0.2-0.2c18.2,15.6,41.8,25,67.6,25l0,0
		c49.9,0,91.5-35.1,101.5-82c0.4-1.7,0.7-3.4,1-5.1c0.2-1.1,0.3-2.2,0.5-3.3c0.2-1.7,0.5-3.4,0.5-5.2c0-0.8,0.1-1.7,0.2-2.5
		c0-0.4,0-0.7,0-1.1c0.1-1.6,0.1-3.1,0.1-4.7C376.3,103.2,376.3,102.7,376.3,102.2z M241.9,74.3l0.1-0.1
		C242,74.3,241.9,74.3,241.9,74.3L241.9,74.3c-0.8,0.8-1.6,1.9-2.5,2.8l0,0C240.2,76.2,241,75.2,241.9,74.3z M235.3,82.2L235.3,82.2
		L235.3,82.2z M273.1,147.5L273.1,147.5L273.1,147.5c-23.9,0-43.2-19.4-43.2-43.2c0-11.6,4.6-22.2,12.1-30
		c7.9-8.2,18.9-13.3,31.1-13.3c23.9,0,43.2,19.4,43.2,43.2C316.3,128.1,296.9,147.5,273.1,147.5z"/>
	
		<linearGradient id="SVGID_2_" gradientUnits="userSpaceOnUse" x1="193.274" y1="89.2729" x2="286.6527" y2="52.455" gradientTransform="matrix(1 0 0 -1 0 208.8)">
		<stop  offset="0" style="stop-color:#FFFFFF"/>
		<stop  offset="3.321970e-02" style="stop-color:#FFFFFF;stop-opacity:0.9552"/>
		<stop  offset="0.742" style="stop-color:#FFFFFF;stop-opacity:0"/>
	</linearGradient>
	<path class="st1" d="M273.1,147.4c-23.9,0-43.2-19.4-43.2-43.2c0-11.7,4.6-22.2,12.1-30c-6.8,6.8-12.5,15.9-17.8,26.4
		c0,0-21.1,42.7-35.9,63.8c0,0,10.4,12.7,16.6,18c-0.1,0.1-0.1,0.2-0.2,0.3c0.1-0.1,0.1-0.1,0.2-0.2c18.2,15.6,41.8,25,67.6,25
		c0.2,0,0.4,0,0.5,0L273.1,147.4L273.1,147.4z"/>
</g>
</svg>
