<svg xmlns="http://www.w3.org/2000/svg" width="1329" height="270" viewBox="0 0 1329 270">
  <path id="bg_cloud" d="M1.943-3413A103.869,103.869,0,0,1,1-3427a103,103,0,0,1,103-103,102.8,102.8,0,0,1,36.175,6.533c19.568-38.36,68.3-65.531,125.324-65.531,44.989,0,84.816,16.912,109.233,42.889A103.045,103.045,0,0,1,467-3603a103.048,103.048,0,0,1,93.662,59.8A69.38,69.38,0,0,1,615.5-3570a69.248,69.248,0,0,1,47.1,18.4c28.063-30.718,80.653-51.4,140.9-51.4,66.669,0,123.959,25.321,149.014,61.551A70.321,70.321,0,0,1,998-3558a71.368,71.368,0,0,1,14.081,1.4c11.138-36.654,44.376-70.667,90.5-87.455,31.8-11.576,64.18-12.939,91.74-5.811A102.713,102.713,0,0,1,1270-3683a102.519,102.519,0,0,1,60,19.271V-3413Z" transform="translate(-1 3683)" fill="#fff"/>
</svg>
