<?xml version="1.0" encoding="utf-8"?>
<!-- Generator: Adobe Illustrator 23.0.3, SVG Export Plug-In . SVG Version: 6.00 Build 0)  -->
<svg version="1.1" id="레이어_1" xmlns="http://www.w3.org/2000/svg" xmlns:xlink="http://www.w3.org/1999/xlink" x="0px"
	 y="0px" viewBox="0 0 337.1 309.4" style="enable-background:new 0 0 337.1 309.4;" xml:space="preserve">
<style type="text/css">
	.st0{fill:none;}
	.st1{fill:#FFFFFF;}
	.st2{fill:#28283C;}
</style>
<g>
	<path class="st0" d="M315.8,109.2c-5-20.4-27.2-58.7-33.8-70l-1.7-2.9l-1.7,2.9c-13.6,22.9-29.6,53.3-33.8,70l-0.6,2.5h72.3
		L315.8,109.2z"/>
	<path class="st0" d="M56.9,85.2l-1.7,2.9c-13.6,22.9-29.6,53.3-33.8,70l-0.6,2.5h72.3l-0.6-2.5c-5-20.4-27.2-58.7-33.8-70
		L56.9,85.2z"/>
	<path class="st1" d="M164.8,63.7l-2.3-0.4v187.1h13V63.2l-2.3,0.4C170.3,64.2,167.6,64.2,164.8,63.7z"/>
	<path class="st1" d="M168.9,54.4c7.8,0,14.2-6.4,14.2-14.2S176.7,26,168.9,26c-7.8,0-14.2,6.4-14.2,14.2S161.1,54.4,168.9,54.4z"/>
	<path class="st1" d="M56.9,58.4c-3.5,0-6.4,2.9-6.4,6.4c0,3.5,2.9,6.4,6.4,6.4c3.5,0,6.4-2.9,6.4-6.4
		C63.3,61.3,60.4,58.4,56.9,58.4z"/>
	<path class="st1" d="M280.3,22.4c3.5,0,6.4-2.9,6.4-6.4s-2.9-6.4-6.4-6.4s-6.4,2.9-6.4,6.4C273.9,19.5,276.8,22.4,280.3,22.4z"/>
	<rect x="138.4" y="259.9" class="st1" width="61.1" height="14.5"/>
	<rect x="113.6" y="283.9" class="st1" width="110.6" height="15.9"/>
	<path class="st1" d="M103.9,170.1h-94l0.3,2.3c1.7,11,7.3,21.2,15.8,28.5c8.6,7.4,19.5,11.5,30.9,11.5c11.3,0,22.3-4.1,30.9-11.5
		c8.5-7.4,14.1-17.5,15.8-28.5L103.9,170.1z"/>
	<path class="st1" d="M233.7,123.6c1.7,11,7.3,21.2,15.8,28.5c8.6,7.4,19.5,11.5,30.9,11.5c11.3,0,22.3-4.1,30.9-11.5
		c8.5-7.4,14.1-17.5,15.8-28.5l0.3-2.3h-94L233.7,123.6z"/>
	<path class="st2" d="M332.3,111.7h-6.2l-0.3-1.6c-4.4-22.3-27.3-62.1-37-78.2l-1-1.6l1.5-1.1c4.4-3,7-7.9,7-13.2
		c0-8.8-7.2-16-16-16s-16,7.2-16,16c0,5.3,2.6,10.2,7,13.2l1.5,1.1l-1,1.6c-9.7,16.1-32.6,56-37,78.2l-0.3,1.6h-6.2
		c-2.6,0-4.8,2.2-4.8,4.8c0,31.3,25.5,56.8,56.8,56.8s56.8-25.5,56.8-56.8C337.1,113.9,334.9,111.7,332.3,111.7z M327,123.6
		c-1.7,11-7.3,21.2-15.8,28.5c-8.6,7.4-19.5,11.5-30.9,11.5c-11.3,0-22.3-4.1-30.9-11.5c-8.5-7.4-14.1-17.5-15.8-28.5l-0.3-2.3h94
		L327,123.6z M280.3,9.6c3.5,0,6.4,2.9,6.4,6.4s-2.9,6.4-6.4,6.4s-6.4-2.9-6.4-6.4S276.8,9.6,280.3,9.6z M244.8,109.2
		c4.1-16.7,20.2-47.1,33.8-70l1.7-2.9l1.7,2.9c6.7,11.2,28.8,49.5,33.8,70l0.6,2.5h-72.3L244.8,109.2z"/>
	<path class="st2" d="M229,274.3h-20v-19.2c0-2.6-2.2-4.8-4.8-4.8H185V57.7l0.6-0.6c4.2-4.2,6.7-9.8,7-15.7l0.1-1.5l30.2-6.5
		c2.6-0.6,4.2-3.1,3.7-5.7c-0.6-2.6-3.1-4.2-5.7-3.7l-30.3,6.5l-0.7-1.3c-4.1-7.9-12.2-12.7-21-12.7c-12.6,0-23,9.8-23.7,22.4
		l-0.1,1.5l-74.6,16l-0.8-1c-3-4.1-7.8-6.6-12.9-6.6c-8.8,0-16,7.2-16,16c0,5.3,2.6,10.2,7,13.2l1.5,1.1l-1,1.6
		c-9.7,16.1-32.6,55.9-37,78.2l-0.3,1.6H4.8c-2.6,0-4.8,2.2-4.8,4.8c0,31.3,25.5,56.8,56.8,56.8s56.8-25.5,56.8-56.8
		c0-2.6-2.2-4.8-4.8-4.8h-6.2l-0.3-1.6c-4.4-22.3-27.3-62.1-37-78.2l-1-1.6l1.5-1.1c3.7-2.5,6.2-6.5,6.8-10.9l0.2-1.4l74.2-16
		l0.7,1.4c1.2,2.2,2.7,4.3,4.4,6l0.6,0.6v192.6h-19.2c-2.6,0-4.8,2.2-4.8,4.8v19.2h-20c-2.6,0-4.8,2.2-4.8,4.8v25.5
		c0,2.6,2.2,4.8,4.8,4.8h120.2c2.6,0,4.8-2.2,4.8-4.8v-25.5C233.8,276.5,231.7,274.3,229,274.3z M56.9,71.2c-3.5,0-6.4-2.9-6.4-6.4
		c0-3.5,2.9-6.4,6.4-6.4c3.5,0,6.4,2.9,6.4,6.4C63.3,68.3,60.4,71.2,56.9,71.2z M87.8,200.9c-8.6,7.4-19.5,11.5-30.9,11.5
		c-11.3,0-22.3-4.1-30.9-11.5c-8.5-7.4-14.1-17.5-15.8-28.5l-0.3-2.3h94l-0.3,2.3C101.9,183.4,96.3,193.6,87.8,200.9z M92.4,158
		l0.6,2.5H20.7l0.6-2.5c4.1-16.7,20.2-47.1,33.8-70l1.7-2.9l1.7,2.9C65.2,99.3,87.4,137.6,92.4,158z M224.3,299.8H113.6v-15.9h110.7
		V299.8z M168.9,26.1c7.8,0,14.2,6.4,14.2,14.2s-6.4,14.2-14.2,14.2c-7.8,0-14.2-6.4-14.2-14.2S161.1,26.1,168.9,26.1z M175.5,63.2
		v187.1h-13V63.2l2.3,0.4c2.8,0.5,5.5,0.5,8.3,0L175.5,63.2z M138.4,259.9h61.1v14.5h-61.1V259.9z"/>
	<path class="st2" d="M243.2,29.4c0.3,0,0.7,0,1-0.1l5-1.1c2.6-0.6,4.2-3.1,3.7-5.7c-0.5-2.2-2.5-3.8-4.7-3.8c-0.3,0-0.7,0-1,0.1
		l-4.9,1.1c-2.6,0.6-4.2,3.1-3.7,5.7C239,27.8,240.9,29.4,243.2,29.4z"/>
</g>
</svg>
