<?xml version="1.0" encoding="utf-8"?>
<!-- Generator: Adobe Illustrator 22.1.0, SVG Export Plug-In . SVG Version: 6.00 Build 0)  -->
<svg version="1.1" id="레이어_1" xmlns="http://www.w3.org/2000/svg" xmlns:xlink="http://www.w3.org/1999/xlink" x="0px"
	 y="0px" viewBox="0 0 64 79.3" style="enable-background:new 0 0 64 79.3;" xml:space="preserve">
<style type="text/css">
	.st0{fill:url(#SVGID_1_);}
	.st1{fill:url(#SVGID_2_);}
	.st2{fill:url(#SVGID_3_);}
	.st3{fill:#FFFFFF;}
</style>
<g>
	<linearGradient id="SVGID_1_" gradientUnits="userSpaceOnUse" x1="-1.134" y1="31.2957" x2="54.5825" y2="31.2957">
		<stop  offset="0" style="stop-color:#F08C00"/>
		<stop  offset="0.3617" style="stop-color:#EF8A01"/>
		<stop  offset="0.5338" style="stop-color:#ED8202"/>
		<stop  offset="0.6658" style="stop-color:#E97506"/>
		<stop  offset="0.7773" style="stop-color:#E3630A"/>
		<stop  offset="0.876" style="stop-color:#DC4B10"/>
		<stop  offset="0.9642" style="stop-color:#D32E17"/>
		<stop  offset="1" style="stop-color:#CF201B"/>
	</linearGradient>
	<path class="st0" d="M56.8,37.5c-1.5,0-2.9-0.3-4.2-0.9c-2.4,9.6-11.1,16.7-21.4,16.7c-12.2,0-22-9.9-22-22s9.9-22,22-22
		c7.7,0,14.5,4,18.4,10c1.9-1.7,4.4-2.8,7.1-2.8c0.7,0,1.4,0.1,2.1,0.2C53.7,6.7,43.3,0,31.3,0C14,0,0,14,0,31.3s14,31.3,31.3,31.3
		c8.2,0,15.7-3.2,21.3-8.4l9.7,7.2V36l0,0c0,0,0,0,0,0C60.7,37,58.8,37.5,56.8,37.5z"/>
	<linearGradient id="SVGID_2_" gradientUnits="userSpaceOnUse" x1="49.6784" y1="26.9814" x2="64" y2="26.9814">
		<stop  offset="0" style="stop-color:#E48020"/>
		<stop  offset="0.2809" style="stop-color:#DD611E"/>
		<stop  offset="0.7604" style="stop-color:#D3321C"/>
		<stop  offset="1" style="stop-color:#CF201B"/>
	</linearGradient>
	<circle class="st1" cx="56.8" cy="27" r="7.2"/>
	<linearGradient id="SVGID_3_" gradientUnits="userSpaceOnUse" x1="26.3389" y1="57.9811" x2="26.3389" y2="4.6104">
		<stop  offset="0" style="stop-color:#FFE600"/>
		<stop  offset="1" style="stop-color:#B31E22"/>
	</linearGradient>
	<path class="st2" d="M26.3,58c12.7,0,23.9-9.1,26.4-21.3c0,0,0,0,0,0c-2.4,9.6-11.1,16.7-21.4,16.7c-12.2,0-22-9.9-22-22
		s9.9-22,22-22c7.7,0,14.5,3.9,18.4,9.9C45.3,10.5,36.5,4.6,26.3,4.6C12.2,4.6,0.7,15.8,0,29.9c0,0.5,0,0.9,0,1.4s0,0.9,0,1.4
		C0.7,46.8,12.2,58,26.3,58z"/>
	<g>
		<path class="st3" d="M12,79.1l-0.9-2.3H7l-0.9,2.3H3.9l4.2-10.3h2l4.2,10.3H12z M9.1,71.5l-1.3,3.3h2.6L9.1,71.5z"/>
		<path class="st3" d="M16.9,79.1V68.9h2.3v10.2H16.9z"/>
		<path class="st3" d="M30.8,78.2c-0.3,0.2-0.6,0.4-0.9,0.6c-0.3,0.2-0.7,0.3-1.1,0.4c-0.4,0.1-0.8,0.1-1.3,0.1
			c-0.8,0-1.4-0.1-2.1-0.4c-0.6-0.3-1.2-0.6-1.7-1.1c-0.5-0.5-0.8-1-1.1-1.7c-0.3-0.6-0.4-1.3-0.4-2.1v0c0-0.7,0.1-1.4,0.4-2.1
			c0.3-0.6,0.6-1.2,1.1-1.7c0.5-0.5,1-0.9,1.7-1.1c0.7-0.3,1.4-0.4,2.2-0.4c0.5,0,0.9,0,1.3,0.1c0.4,0.1,0.8,0.2,1.1,0.3
			c0.3,0.1,0.6,0.3,0.9,0.5c0.3,0.2,0.5,0.4,0.8,0.6l-1.4,1.7c-0.4-0.4-0.8-0.6-1.2-0.8c-0.4-0.2-0.9-0.3-1.4-0.3
			c-0.4,0-0.8,0.1-1.2,0.2c-0.4,0.2-0.7,0.4-0.9,0.7c-0.3,0.3-0.5,0.6-0.6,1c-0.1,0.4-0.2,0.8-0.2,1.2v0c0,0.4,0.1,0.9,0.2,1.2
			c0.1,0.4,0.3,0.7,0.6,1c0.3,0.3,0.6,0.5,0.9,0.7c0.4,0.2,0.8,0.3,1.2,0.3c0.6,0,1.1-0.1,1.5-0.3c0.4-0.2,0.8-0.5,1.2-0.9l1.4,1.4
			C31.3,77.7,31,78,30.8,78.2z"/>
		<path class="st3" d="M42.7,76c-0.2,0.6-0.6,1.2-1,1.6c-0.4,0.5-1,0.8-1.6,1.1c-0.6,0.3-1.3,0.4-2,0.4h-3.7V68.9H38
			c0.7,0,1.4,0.1,2,0.4c0.6,0.3,1.2,0.6,1.6,1.1c0.4,0.5,0.8,1,1,1.6c0.2,0.6,0.4,1.3,0.4,2v0C43.1,74.7,43,75.4,42.7,76z M40.9,74
			c0-0.4-0.1-0.9-0.2-1.2c-0.1-0.4-0.3-0.7-0.6-1c-0.2-0.3-0.5-0.5-0.9-0.6c-0.4-0.2-0.7-0.2-1.2-0.2h-1.6v6.2H38
			c0.4,0,0.8-0.1,1.2-0.2c0.4-0.1,0.7-0.4,0.9-0.6c0.2-0.3,0.4-0.6,0.6-1C40.8,74.9,40.9,74.5,40.9,74L40.9,74z"/>
		<path class="st3" d="M52.6,75.4c-0.1-0.3-0.3-0.6-0.5-0.9c-0.2-0.3-0.6-0.5-0.9-0.7c-0.4-0.2-0.8-0.4-1.3-0.6
			c-0.4-0.2-0.8-0.3-1-0.5c-0.3-0.1-0.5-0.2-0.6-0.4c-0.2-0.1-0.3-0.2-0.3-0.4c0-0.1-0.1-0.3,0-0.4l0,0c0-0.3,0.2-0.4,0.4-0.6
			c0.2-0.1,0.6-0.2,1-0.1c0.4,0.1,0.9,0.2,1.3,0.4c0.4,0.2,0.8,0.5,1.2,0.9l0.3-2.4c-0.2-0.1-0.3-0.2-0.5-0.3
			c-0.6-0.3-1.3-0.5-2-0.6c-0.5-0.1-1-0.1-1.5,0c-0.5,0.1-0.9,0.2-1.2,0.5c-0.3,0.2-0.6,0.5-0.9,0.9c-0.2,0.3-0.4,0.8-0.4,1.2l0,0
			c-0.1,0.5,0,0.9,0.1,1.3c0.1,0.4,0.3,0.7,0.6,0.9c0.3,0.3,0.6,0.5,1,0.7c0.4,0.2,0.8,0.4,1.3,0.6c0.4,0.2,0.7,0.3,1,0.4
			c0.3,0.1,0.4,0.3,0.6,0.4c0.1,0.1,0.2,0.2,0.3,0.4c0,0.1,0,0.3,0,0.4l0,0c0,0.3-0.2,0.5-0.5,0.7c-0.3,0.1-0.7,0.2-1.1,0.1
			c-0.6-0.1-1.1-0.3-1.6-0.6c-0.5-0.3-0.9-0.7-1.3-1.1l0,0l-0.3,2.5c0.2,0.2,0.4,0.3,0.7,0.4c0.7,0.4,1.5,0.6,2.2,0.7
			c0.6,0.1,1.1,0.1,1.5,0c0.5-0.1,0.9-0.2,1.3-0.5c0.4-0.2,0.7-0.5,0.9-0.9c0.2-0.4,0.4-0.8,0.5-1.3l0,0
			C52.7,76.1,52.7,75.7,52.6,75.4z"/>
		<path class="st3" d="M62.1,75.4c-0.1-0.3-0.3-0.6-0.5-0.9c-0.2-0.3-0.6-0.5-0.9-0.7s-0.8-0.4-1.3-0.6c-0.4-0.2-0.8-0.3-1-0.5
			c-0.3-0.1-0.5-0.2-0.6-0.4c-0.2-0.1-0.3-0.2-0.3-0.4c0-0.1-0.1-0.3,0-0.4l0,0c0-0.3,0.2-0.4,0.4-0.6c0.2-0.1,0.6-0.2,1-0.1
			c0.4,0.1,0.9,0.2,1.3,0.4c0.4,0.2,0.8,0.5,1.2,0.9l0.3-2.4c-0.2-0.1-0.3-0.2-0.5-0.3c-0.6-0.3-1.3-0.5-2-0.6c-0.5-0.1-1-0.1-1.5,0
			c-0.5,0.1-0.9,0.2-1.2,0.5c-0.3,0.2-0.6,0.5-0.9,0.9c-0.2,0.3-0.4,0.8-0.4,1.2l0,0c-0.1,0.5,0,0.9,0.1,1.3
			c0.1,0.4,0.3,0.7,0.6,0.9c0.3,0.3,0.6,0.5,1,0.7c0.4,0.2,0.8,0.4,1.3,0.6c0.4,0.2,0.7,0.3,1,0.4c0.3,0.1,0.4,0.3,0.6,0.4
			c0.1,0.1,0.2,0.2,0.3,0.4c0,0.1,0,0.3,0,0.4l0,0c0,0.3-0.2,0.5-0.5,0.7c-0.3,0.1-0.7,0.2-1.1,0.1c-0.6-0.1-1.1-0.3-1.6-0.6
			c-0.5-0.3-0.9-0.7-1.3-1.1l0,0l-0.3,2.5c0.2,0.2,0.4,0.3,0.7,0.4c0.7,0.4,1.5,0.6,2.2,0.7c0.6,0.1,1.1,0.1,1.5,0
			c0.5-0.1,0.9-0.2,1.3-0.5c0.4-0.2,0.7-0.5,0.9-0.9c0.2-0.4,0.4-0.8,0.5-1.3l0,0C62.3,76.1,62.2,75.7,62.1,75.4z"/>
	</g>
</g>
</svg>
