<?xml version="1.0" encoding="utf-8"?>
<!-- Generator: Adobe Illustrator 22.1.0, SVG Export Plug-In . SVG Version: 6.00 Build 0)  -->
<svg version="1.1" id="레이어_1" xmlns="http://www.w3.org/2000/svg" xmlns:xlink="http://www.w3.org/1999/xlink" x="0px"
	 y="0px" viewBox="0 0 112.6 139.5" style="enable-background:new 0 0 112.6 139.5;" xml:space="preserve">
<style type="text/css">
	.st0{fill:url(#SVGID_1_);}
	.st1{fill:url(#SVGID_2_);}
	.st2{fill:url(#SVGID_3_);}
	.st3{fill:#56585A;}
</style>
<g>
	<linearGradient id="SVGID_1_" gradientUnits="userSpaceOnUse" x1="-1.9953" y1="55.0664" x2="96.0406" y2="55.0664">
		<stop  offset="0" style="stop-color:#F08C00"/>
		<stop  offset="0.3617" style="stop-color:#EF8A01"/>
		<stop  offset="0.5338" style="stop-color:#ED8202"/>
		<stop  offset="0.6658" style="stop-color:#E97506"/>
		<stop  offset="0.7773" style="stop-color:#E3630A"/>
		<stop  offset="0.876" style="stop-color:#DC4B10"/>
		<stop  offset="0.9642" style="stop-color:#D32E17"/>
		<stop  offset="1" style="stop-color:#CF201B"/>
	</linearGradient>
	<path class="st0" d="M100,66c-2.6,0-5.1-0.5-7.3-1.5c-4.2,16.8-19.5,29.3-37.6,29.3c-21.4,0-38.8-17.4-38.8-38.8
		s17.4-38.8,38.8-38.8c13.6,0,25.5,7,32.4,17.5c3.3-3,7.7-4.9,12.5-4.9c1.3,0,2.5,0.1,3.7,0.4C94.5,11.9,76.2,0,55.1,0
		C24.7,0,0,24.7,0,55.1s24.7,55.1,55.1,55.1c14.5,0,27.6-5.6,37.4-14.7l17,12.7V63.4l0,0c0,0,0,0,0,0C106.7,65.1,103.5,66,100,66z"
		/>
	<linearGradient id="SVGID_2_" gradientUnits="userSpaceOnUse" x1="87.4117" y1="47.4752" x2="112.6111" y2="47.4752">
		<stop  offset="0" style="stop-color:#E48020"/>
		<stop  offset="0.2809" style="stop-color:#DD611E"/>
		<stop  offset="0.7604" style="stop-color:#D3321C"/>
		<stop  offset="1" style="stop-color:#CF201B"/>
	</linearGradient>
	<circle class="st1" cx="100" cy="47.5" r="12.6"/>
	<linearGradient id="SVGID_3_" gradientUnits="userSpaceOnUse" x1="46.3445" y1="102.0207" x2="46.3445" y2="8.1121">
		<stop  offset="0" style="stop-color:#FFE600"/>
		<stop  offset="1" style="stop-color:#B31E22"/>
	</linearGradient>
	<path class="st2" d="M46.3,102c22.4,0,42.1-16,46.4-37.5c0,0,0,0,0,0c-4.2,16.8-19.5,29.3-37.6,29.3c-21.4,0-38.8-17.4-38.8-38.8
		s17.4-38.8,38.8-38.8c13.5,0,25.4,6.9,32.4,17.4C79.8,18.5,64.2,8.1,46.3,8.1C21.5,8.1,1.3,27.8,0.1,52.6C0,53.4,0,54.2,0,55.1
		c0,0.8,0,1.6,0.1,2.4C1.3,82.3,21.5,102,46.3,102z"/>
	<g>
		<path class="st3" d="M21.2,139.2l-1.6-4h-7.3l-1.6,4H6.9l7.4-18.2h3.5l7.4,18.2H21.2z M15.9,125.8l-2.3,5.8h4.6L15.9,125.8z"/>
		<path class="st3" d="M29.7,139.2v-18h4v18H29.7z"/>
		<path class="st3" d="M54.1,137.6c-0.5,0.4-1,0.7-1.6,1c-0.6,0.3-1.2,0.5-1.9,0.6c-0.7,0.1-1.5,0.2-2.4,0.2c-1.3,0-2.6-0.2-3.7-0.7
			c-1.1-0.5-2.1-1.1-2.9-2c-0.8-0.8-1.5-1.8-1.9-2.9c-0.5-1.1-0.7-2.3-0.7-3.6v-0.1c0-1.3,0.2-2.5,0.7-3.6c0.5-1.1,1.1-2.1,1.9-3
			c0.8-0.8,1.8-1.5,3-2c1.2-0.5,2.4-0.7,3.8-0.7c0.8,0,1.6,0.1,2.3,0.2c0.7,0.1,1.3,0.3,1.9,0.6c0.6,0.2,1.1,0.5,1.6,0.9
			c0.5,0.3,0.9,0.7,1.3,1.1l-2.5,2.9c-0.7-0.6-1.4-1.1-2.2-1.5c-0.7-0.4-1.5-0.5-2.5-0.5c-0.8,0-1.5,0.1-2.1,0.4
			c-0.6,0.3-1.2,0.7-1.7,1.2c-0.5,0.5-0.8,1.1-1.1,1.8c-0.3,0.7-0.4,1.4-0.4,2.2v0.1c0,0.8,0.1,1.5,0.4,2.2c0.3,0.7,0.6,1.3,1.1,1.8
			c0.5,0.5,1,0.9,1.6,1.2c0.6,0.3,1.4,0.5,2.1,0.5c1,0,1.9-0.2,2.6-0.6c0.7-0.4,1.4-0.9,2.1-1.5l2.5,2.6
			C55.1,136.8,54.6,137.2,54.1,137.6z"/>
		<path class="st3" d="M75.2,133.7c-0.4,1.1-1,2.1-1.8,2.9c-0.8,0.8-1.7,1.4-2.8,1.9c-1.1,0.5-2.3,0.7-3.6,0.7h-6.5v-18h6.5
			c1.3,0,2.5,0.2,3.6,0.7c1.1,0.5,2,1.1,2.8,1.9c0.8,0.8,1.4,1.8,1.8,2.8c0.4,1.1,0.6,2.3,0.6,3.5v0.1
			C75.8,131.4,75.6,132.6,75.2,133.7z M72,130.2c0-0.8-0.1-1.5-0.4-2.2c-0.2-0.7-0.6-1.2-1-1.7c-0.4-0.5-1-0.9-1.6-1.1
			c-0.6-0.3-1.3-0.4-2-0.4h-2.8v10.9h2.8c0.7,0,1.4-0.1,2-0.4c0.6-0.3,1.1-0.6,1.6-1.1c0.4-0.5,0.8-1,1-1.7
			C71.9,131.8,72,131,72,130.2L72,130.2z"/>
		<path class="st3" d="M92.6,132.6c-0.2-0.6-0.5-1.1-0.9-1.6c-0.4-0.5-1-0.9-1.6-1.3c-0.7-0.4-1.4-0.8-2.3-1.1
			c-0.7-0.3-1.4-0.6-1.8-0.8c-0.5-0.2-0.9-0.4-1.1-0.6c-0.3-0.2-0.4-0.4-0.5-0.7c-0.1-0.2-0.1-0.5-0.1-0.8l0-0.1
			c0.1-0.4,0.3-0.8,0.7-1c0.4-0.2,1-0.3,1.8-0.2c0.8,0.1,1.5,0.4,2.2,0.8c0.7,0.4,1.4,1,2.2,1.6l0.6-4.2c-0.3-0.2-0.6-0.4-0.9-0.6
			c-1-0.5-2.2-0.9-3.5-1.1c-0.9-0.1-1.8-0.1-2.6,0c-0.8,0.2-1.5,0.4-2.1,0.8c-0.6,0.4-1.1,0.9-1.5,1.5c-0.4,0.6-0.6,1.3-0.8,2.1
			l0,0.1c-0.1,0.9-0.1,1.6,0.1,2.3c0.2,0.6,0.5,1.2,1,1.7c0.5,0.5,1,0.9,1.7,1.3c0.7,0.4,1.5,0.7,2.4,1.1c0.7,0.3,1.3,0.6,1.8,0.8
			c0.4,0.2,0.8,0.5,1,0.7c0.2,0.2,0.4,0.4,0.5,0.6c0.1,0.2,0.1,0.4,0,0.7l0,0.1c-0.1,0.5-0.4,0.9-0.8,1.1c-0.5,0.2-1.1,0.3-2,0.2
			c-1-0.1-1.9-0.5-2.7-1c-0.8-0.5-1.6-1.1-2.3-1.9l0,0l-0.6,4.4c0.4,0.3,0.8,0.5,1.2,0.7c1.2,0.6,2.6,1.1,3.9,1.2
			c1,0.1,1.9,0.1,2.7,0c0.8-0.1,1.6-0.4,2.2-0.8c0.6-0.4,1.2-0.9,1.6-1.6c0.4-0.6,0.7-1.4,0.8-2.3l0-0.1
			C92.8,133.9,92.8,133.2,92.6,132.6z"/>
		<path class="st3" d="M109.3,132.6c-0.2-0.6-0.5-1.1-0.9-1.6c-0.4-0.5-1-0.9-1.6-1.3c-0.7-0.4-1.4-0.8-2.3-1.1
			c-0.7-0.3-1.4-0.6-1.8-0.8c-0.5-0.2-0.9-0.4-1.1-0.6c-0.3-0.2-0.4-0.4-0.5-0.7c-0.1-0.2-0.1-0.5-0.1-0.8l0-0.1
			c0.1-0.4,0.3-0.8,0.7-1c0.4-0.2,1-0.3,1.8-0.2c0.8,0.1,1.5,0.4,2.2,0.8c0.7,0.4,1.4,1,2.2,1.6l0.6-4.2c-0.3-0.2-0.6-0.4-0.9-0.6
			c-1-0.5-2.2-0.9-3.5-1.1c-0.9-0.1-1.8-0.1-2.6,0c-0.8,0.2-1.5,0.4-2.1,0.8c-0.6,0.4-1.1,0.9-1.5,1.5c-0.4,0.6-0.6,1.3-0.8,2.1
			l0,0.1c-0.1,0.9-0.1,1.6,0.1,2.3c0.2,0.6,0.5,1.2,1,1.7c0.5,0.5,1,0.9,1.7,1.3c0.7,0.4,1.5,0.7,2.4,1.1c0.7,0.3,1.3,0.6,1.8,0.8
			c0.4,0.2,0.8,0.5,1,0.7c0.2,0.2,0.4,0.4,0.5,0.6c0.1,0.2,0.1,0.4,0,0.7l0,0.1c-0.1,0.5-0.4,0.9-0.8,1.1c-0.5,0.2-1.1,0.3-2,0.2
			c-1-0.1-1.9-0.5-2.7-1c-0.8-0.5-1.6-1.1-2.3-1.9l0,0l-0.6,4.4c0.4,0.3,0.8,0.5,1.2,0.7c1.2,0.6,2.6,1.1,3.9,1.2
			c1,0.1,1.9,0.1,2.7,0c0.8-0.1,1.6-0.4,2.2-0.8c0.6-0.4,1.2-0.9,1.6-1.6c0.4-0.6,0.7-1.4,0.8-2.3l0-0.1
			C109.6,133.9,109.5,133.2,109.3,132.6z"/>
	</g>
</g>
</svg>
