<?xml version="1.0" encoding="utf-8"?>
<!-- Generator: Adobe Illustrator 22.1.0, SVG Export Plug-In . SVG Version: 6.00 Build 0)  -->
<svg version="1.1" id="레이어_1" xmlns="http://www.w3.org/2000/svg" xmlns:xlink="http://www.w3.org/1999/xlink" x="0px"
	 y="0px" viewBox="0 0 318.2 48.2" style="enable-background:new 0 0 318.2 48.2;" xml:space="preserve">
<style type="text/css">
	.st0{fill:#ffdc00;}
	.st1{fill:url(#SVGID_1_);}
	.st2{fill:#4CACAC;}
	.st3{fill:#FFFFFF;}
	.st4{fill:#464A58;}
	.st5{fill:url(#SVGID_2_);}
</style>
<g>
	<g>
		<polygon class="st4" points="111.2,30.2 95.5,30.2 95.5,20.7 88.8,20.7 88.8,41.1 95.5,41.1 95.5,36.8 111.2,36.8 111.2,41.1 
			117.8,41.1 117.8,20.7 111.2,20.7 		"/>
		<path class="st4" d="M174.7,28.3c0.4-0.1,0.8-0.3,1.1-0.4c2.9-1.3,4.8-4.3,4.8-7.5c0-2.2-0.8-4.2-2.4-5.8
			c-1.5-1.5-3.6-2.4-5.8-2.4h-18v29h6.6V28.6h4c1.4,0,2.6,0.7,3.3,1.9l5.4,10.6h7.4l-3.1-6.1L174.7,28.3z M161.1,18.8h11.4
			c0.6,0,1,0.3,1.1,0.4c0.1,0.1,0.5,0.5,0.5,1.2c0,0.6-0.4,1.2-0.9,1.4l0,0c-0.2,0.1-0.4,0.1-0.6,0.1l-11.4,0V18.8z"/>
		<path class="st4" d="M185,20.3v12.5c0,4.5,3.7,8.2,8.2,8.2h18.3v-6.6h-18.3c-0.9,0-1.6-0.7-1.6-1.6v-2.9H209v-6.6h-17.5v-3
			c0-0.9,0.7-1.6,1.6-1.6h18.3v-6.6h-18.3C188.7,12.1,185,15.8,185,20.3z"/>
		<path class="st4" d="M241.5,24c0.6-1.1,0.9-2.4,0.9-3.7c0-4.5-3.7-8.2-8.2-8.2h-18v29h19.4c5.3,0,9.5-4.3,9.5-9.5
			C245.1,28.6,243.8,25.9,241.5,24z M234.2,21.9h-11.4v-3.2h11.4c0.9,0,1.6,0.7,1.6,1.6S235.1,21.9,234.2,21.9z M222.8,28.6h12.8
			c1.6,0,2.9,1.3,2.9,2.9s-1.3,2.9-2.9,2.9l-0.9,0h-11.9V28.6z"/>
		<rect x="248.3" y="12.1" class="st4" width="6.6" height="29"/>
		<polygon class="st4" points="258.1,18.8 269.3,18.8 269.3,41.1 275.9,41.1 275.9,18.8 287,18.8 287,12.1 258.1,12.1 		"/>
		<path class="st4" d="M298.9,23.2c-1.4,0-2.5-1.4-2-2.9c0.3-0.9,1.2-1.4,2.1-1.4l19.2,0c0-3.8-3-6.8-6.8-6.8h-12.5
			c-5,0-9.1,4.2-8.9,9.3c0,0.2,0,0.9,0,1.8c0,3.8,3,6.8,6.8,6.8h2.3h10.2c1.4,0,2.5,1.4,2,2.9c-0.3,0.9-1.2,1.4-2.1,1.4l-19.2,0
			c0,3.8,3,6.8,6.8,6.8h12.3c4.8,0,9-3.8,9.2-8.6c0-0.9,0-2.5,0-2.5v0c0-3.8-3-6.8-6.8-6.8h-2.1H298.9z"/>
		<path class="st4" d="M66,23.2c-1.4,0-2.5-1.4-2-2.9c0.3-0.9,1.2-1.4,2.1-1.4l19.2,0c0-3.8-3-6.8-6.8-6.8H66c-5,0-9.1,4.2-8.9,9.3
			c0,0.2,0,0.9,0,1.8c0,3.8,3,6.8,6.8,6.8h2.3h10.2c1.4,0,2.5,1.4,2,2.9c-0.3,0.9-1.2,1.4-2.1,1.4l-19.2,0c0,3.8,3,6.8,6.8,6.8h12.3
			c4.8,0,9-3.8,9.2-8.6c0-0.9,0-2.5,0-2.5v0c0-3.8-3-6.8-6.8-6.8h-2.1H66z"/>
		<polygon class="st0" points="113.6,17.3 103.3,7.1 93.1,17.3 98.7,17.3 101,15 101,25.2 105.6,25.2 105.6,15 107.9,17.3 		"/>
		<path class="st4" d="M143.6,41.1h7.4l-15.3-30l-12.2,23.9l-3.1,6.1h7.4l2.1-4h11.6L143.6,41.1z M132.8,31.3l2.9-5.7l2.9,5.7H132.8
			z"/>
	</g>
	<g>
		<path class="st0" d="M32.7,0H15.4C6.9,0,0,6.9,0,15.4v17.3c0,8.5,6.9,15.4,15.4,15.4h17.3c8.5,0,15.4-6.9,15.4-15.4V15.4
			C48.2,6.9,41.3,0,32.7,0z"/>
		<linearGradient id="SVGID_1_" gradientUnits="userSpaceOnUse" x1="0" y1="22.5751" x2="45.1502" y2="22.5751">
			<stop  offset="0" style="stop-color:#ffdc00"/>
			<stop  offset="1" style="stop-color:#ffdc00"/>
		</linearGradient>
		<path class="st1" d="M3.2,18.7c0-8.5,6.9-15.4,15.4-15.4H36c3.4,0,6.6,1.1,9.2,3C42.3,2.5,37.8,0,32.7,0H15.4C6.9,0,0,6.9,0,15.4
			v17.3c0,5.1,2.5,9.6,6.3,12.4c-1.9-2.6-3-5.7-3-9.2V18.7z"/>
		<g>
			<g>
				<polygon class="st2" points="34.9,32.1 19.5,32.1 19.5,22.9 12.9,22.9 12.9,42.9 19.5,42.9 19.5,38.7 34.9,38.7 34.9,42.9 
					41.5,42.9 41.5,22.9 34.9,22.9 				"/>
				<polygon class="st2" points="37.3,19.5 27.2,9.4 17.1,19.5 22.6,19.5 24.9,17.2 24.9,27.2 29.4,27.2 29.4,17.2 31.7,19.5 				
					"/>
			</g>
			<g>
				<polygon class="st2" points="34.9,32.1 19.4,32.1 19.4,22.8 12.9,22.8 12.9,42.8 19.4,42.8 19.4,38.6 34.9,38.6 34.9,42.8 
					41.4,42.8 41.4,22.8 34.9,22.8 				"/>
				<polygon class="st2" points="37.2,19.4 27.1,9.3 17,19.4 22.6,19.4 24.9,17.1 24.9,27.1 29.4,27.1 29.4,17.1 31.7,19.4 				"/>
			</g>
			<g>
				<polygon class="st2" points="34.8,32 19.3,32 19.3,22.7 12.8,22.7 12.8,42.7 19.3,42.7 19.3,38.5 34.8,38.5 34.8,42.7 
					41.3,42.7 41.3,22.7 34.8,22.7 				"/>
				<polygon class="st2" points="37.2,19.4 27,9.3 16.9,19.4 22.5,19.4 24.8,17.1 24.8,27.1 29.3,27.1 29.3,17.1 31.6,19.4 				"/>
			</g>
			<g>
				<polygon class="st2" points="34.7,31.9 19.3,31.9 19.3,22.6 12.7,22.6 12.7,42.6 19.3,42.6 19.3,38.5 34.7,38.5 34.7,42.6 
					41.2,42.6 41.2,22.6 34.7,22.6 				"/>
				<polygon class="st2" points="37.1,19.3 27,9.2 16.9,19.3 22.4,19.3 24.7,17 24.7,27 29.2,27 29.2,17 31.5,19.3 				"/>
			</g>
			<g>
				<polygon class="st2" points="34.6,31.9 19.2,31.9 19.2,22.6 12.7,22.6 12.7,42.6 19.2,42.6 19.2,38.4 34.6,38.4 34.6,42.6 
					41.2,42.6 41.2,22.6 34.6,22.6 				"/>
				<polygon class="st2" points="37,19.2 26.9,9.1 16.8,19.2 22.4,19.2 24.7,16.9 24.7,26.9 29.2,26.9 29.2,16.9 31.5,19.2 				"/>
			</g>
			<g>
				<polygon class="st2" points="34.6,31.8 19.1,31.8 19.1,22.5 12.6,22.5 12.6,42.5 19.1,42.5 19.1,38.3 34.6,38.3 34.6,42.5 
					41.1,42.5 41.1,22.5 34.6,22.5 				"/>
				<polygon class="st2" points="36.9,19.1 26.8,9 16.7,19.1 22.3,19.1 24.6,16.9 24.6,26.9 29.1,26.9 29.1,16.9 31.4,19.1 				"/>
			</g>
			<g>
				<polygon class="st2" points="34.5,31.7 19,31.7 19,22.4 12.5,22.4 12.5,42.4 19,42.4 19,38.2 34.5,38.2 34.5,42.4 41,42.4 
					41,22.4 34.5,22.4 				"/>
				<polygon class="st2" points="36.9,19.1 26.8,9 16.7,19.1 22.2,19.1 24.5,16.8 24.5,26.8 29,26.8 29,16.8 31.3,19.1 				"/>
			</g>
			<g>
				<polygon class="st2" points="34.4,31.6 19,31.6 19,22.4 12.4,22.4 12.4,42.4 19,42.4 19,38.2 34.4,38.2 34.4,42.4 41,42.4 
					41,22.4 34.4,22.4 				"/>
				<polygon class="st2" points="36.8,19 26.7,8.9 16.6,19 22.2,19 24.4,16.7 24.4,26.7 28.9,26.7 28.9,16.7 31.2,19 				"/>
			</g>
			<g>
				<polygon class="st2" points="34.4,31.6 18.9,31.6 18.9,22.3 12.4,22.3 12.4,42.3 18.9,42.3 18.9,38.1 34.4,38.1 34.4,42.3 
					40.9,42.3 40.9,22.3 34.4,22.3 				"/>
				<polygon class="st2" points="36.7,18.9 26.6,8.8 16.5,18.9 22.1,18.9 24.4,16.6 24.4,26.6 28.9,26.6 28.9,16.6 31.2,18.9 				
					"/>
			</g>
			<g>
				<polygon class="st2" points="34.3,31.5 18.8,31.5 18.8,22.2 12.3,22.2 12.3,42.2 18.8,42.2 18.8,38 34.3,38 34.3,42.2 
					40.8,42.2 40.8,22.2 34.3,22.2 				"/>
				<polygon class="st2" points="36.7,18.9 26.6,8.8 16.4,18.9 22,18.9 24.3,16.6 24.3,26.6 28.8,26.6 28.8,16.6 31.1,18.9 				"/>
			</g>
			<g>
				<polygon class="st2" points="34.2,31.4 18.8,31.4 18.8,22.1 12.2,22.1 12.2,42.2 18.8,42.2 18.8,38 34.2,38 34.2,42.2 
					40.8,42.2 40.8,22.1 34.2,22.1 				"/>
				<polygon class="st2" points="36.6,18.8 26.5,8.7 16.4,18.8 21.9,18.8 24.2,16.5 24.2,26.5 28.7,26.5 28.7,16.5 31,18.8 				"/>
			</g>
			<g>
				<polygon class="st2" points="34.2,31.4 18.7,31.4 18.7,22.1 12.2,22.1 12.2,42.1 18.7,42.1 18.7,37.9 34.2,37.9 34.2,42.1 
					40.7,42.1 40.7,22.1 34.2,22.1 				"/>
				<polygon class="st2" points="36.5,18.7 26.4,8.6 16.3,18.7 21.9,18.7 24.2,16.4 24.2,26.4 28.7,26.4 28.7,16.4 31,18.7 				"/>
			</g>
			<g>
				<polygon class="st2" points="34.1,31.3 18.6,31.3 18.6,22 12.1,22 12.1,42 18.6,42 18.6,37.8 34.1,37.8 34.1,42 40.6,42 
					40.6,22 34.1,22 				"/>
				<polygon class="st2" points="36.4,18.7 26.3,8.5 16.2,18.7 21.8,18.7 24.1,16.4 24.1,26.4 28.6,26.4 28.6,16.4 30.9,18.7 				
					"/>
			</g>
			<g>
				<polygon class="st2" points="34,31.2 18.6,31.2 18.6,21.9 12,21.9 12,41.9 18.6,41.9 18.6,37.7 34,37.7 34,41.9 40.5,41.9 
					40.5,21.9 34,21.9 				"/>
				<polygon class="st2" points="36.4,18.6 26.3,8.5 16.2,18.6 21.7,18.6 24,16.3 24,26.3 28.5,26.3 28.5,16.3 30.8,18.6 				"/>
			</g>
			<g>
				<polygon class="st2" points="33.9,31.1 18.5,31.1 18.5,21.9 12,21.9 12,41.9 18.5,41.9 18.5,37.7 33.9,37.7 33.9,41.9 
					40.5,41.9 40.5,21.9 33.9,21.9 				"/>
				<polygon class="st2" points="36.3,18.5 26.2,8.4 16.1,18.5 21.7,18.5 23.9,16.2 23.9,26.2 28.5,26.2 28.5,16.2 30.7,18.5 				
					"/>
			</g>
			<g>
				<polygon class="st2" points="33.9,31.1 18.4,31.1 18.4,21.8 11.9,21.8 11.9,41.8 18.4,41.8 18.4,37.6 33.9,37.6 33.9,41.8 
					40.4,41.8 40.4,21.8 33.9,21.8 				"/>
				<polygon class="st2" points="36.2,18.4 26.1,8.3 16,18.4 21.6,18.4 23.9,16.1 23.9,26.1 28.4,26.1 28.4,16.1 30.7,18.4 				"/>
			</g>
			<g>
				<polygon class="st2" points="33.8,31 18.3,31 18.3,21.7 11.8,21.7 11.8,41.7 18.3,41.7 18.3,37.5 33.8,37.5 33.8,41.7 
					40.3,41.7 40.3,21.7 33.8,21.7 				"/>
				<polygon class="st2" points="36.2,18.4 26.1,8.3 16,18.4 21.5,18.4 23.8,16.1 23.8,26.1 28.3,26.1 28.3,16.1 30.6,18.4 				"/>
			</g>
			<g>
				<polygon class="st2" points="33.7,30.9 18.3,30.9 18.3,21.6 11.7,21.6 11.7,41.7 18.3,41.7 18.3,37.5 33.7,37.5 33.7,41.7 
					40.3,41.7 40.3,21.6 33.7,21.6 				"/>
				<polygon class="st2" points="36.1,18.3 26,8.2 15.9,18.3 21.4,18.3 23.7,16 23.7,26 28.2,26 28.2,16 30.5,18.3 				"/>
			</g>
			<g>
				<polygon class="st2" points="33.7,30.9 18.2,30.9 18.2,21.6 11.7,21.6 11.7,41.6 18.2,41.6 18.2,37.4 33.7,37.4 33.7,41.6 
					40.2,41.6 40.2,21.6 33.7,21.6 				"/>
				<polygon class="st2" points="36,18.2 25.9,8.1 15.8,18.2 21.4,18.2 23.7,15.9 23.7,25.9 28.2,25.9 28.2,15.9 30.5,18.2 				"/>
			</g>
			<g>
				<polygon class="st2" points="33.6,30.8 18.1,30.8 18.1,21.5 11.6,21.5 11.6,41.5 18.1,41.5 18.1,37.3 33.6,37.3 33.6,41.5 
					40.1,41.5 40.1,21.5 33.6,21.5 				"/>
				<polygon class="st2" points="36,18.2 25.8,8.1 15.7,18.2 21.3,18.2 23.6,15.9 23.6,25.9 28.1,25.9 28.1,15.9 30.4,18.2 				"/>
			</g>
			<g>
				<polygon class="st2" points="33.5,30.7 18.1,30.7 18.1,21.4 11.5,21.4 11.5,41.4 18.1,41.4 18.1,37.3 33.5,37.3 33.5,41.4 
					40,41.4 40,21.4 33.5,21.4 				"/>
				<polygon class="st2" points="35.9,18.1 25.8,8 15.7,18.1 21.2,18.1 23.5,15.8 23.5,25.8 28,25.8 28,15.8 30.3,18.1 				"/>
			</g>
			<g>
				<polygon class="st2" points="33.4,30.7 18,30.7 18,21.4 11.5,21.4 11.5,41.4 18,41.4 18,37.2 33.4,37.2 33.4,41.4 40,41.4 
					40,21.4 33.4,21.4 				"/>
				<polygon class="st2" points="35.8,18 25.7,7.9 15.6,18 21.2,18 23.5,15.7 23.5,25.7 28,25.7 28,15.7 30.3,18 				"/>
			</g>
			<g>
				<polygon class="st2" points="33.4,30.6 17.9,30.6 17.9,21.3 11.4,21.3 11.4,41.3 17.9,41.3 17.9,37.1 33.4,37.1 33.4,41.3 
					39.9,41.3 39.9,21.3 33.4,21.3 				"/>
				<polygon class="st2" points="35.7,17.9 25.6,7.8 15.5,17.9 21.1,17.9 23.4,15.7 23.4,25.7 27.9,25.7 27.9,15.7 30.2,17.9 				
					"/>
			</g>
			<g>
				<polygon class="st2" points="33.3,30.5 17.8,30.5 17.8,21.2 11.3,21.2 11.3,41.2 17.8,41.2 17.8,37 33.3,37 33.3,41.2 
					39.8,41.2 39.8,21.2 33.3,21.2 				"/>
				<polygon class="st2" points="35.7,17.9 25.6,7.8 15.5,17.9 21,17.9 23.3,15.6 23.3,25.6 27.8,25.6 27.8,15.6 30.1,17.9 				"/>
			</g>
			<g>
				<polygon class="st2" points="33.2,30.4 17.8,30.4 17.8,21.2 11.2,21.2 11.2,41.2 17.8,41.2 17.8,37 33.2,37 33.2,41.2 
					39.8,41.2 39.8,21.2 33.2,21.2 				"/>
				<polygon class="st2" points="35.6,17.8 25.5,7.7 15.4,17.8 21,17.8 23.2,15.5 23.2,25.5 27.7,25.5 27.7,15.5 30,17.8 				"/>
			</g>
			<g>
				<polygon class="st2" points="33.2,30.4 17.7,30.4 17.7,21.1 11.2,21.1 11.2,41.1 17.7,41.1 17.7,36.9 33.2,36.9 33.2,41.1 
					39.7,41.1 39.7,21.1 33.2,21.1 				"/>
				<polygon class="st2" points="35.5,17.7 25.4,7.6 15.3,17.7 20.9,17.7 23.2,15.4 23.2,25.4 27.7,25.4 27.7,15.4 30,17.7 				"/>
			</g>
			<g>
				<polygon class="st2" points="33.1,30.3 17.6,30.3 17.6,21 11.1,21 11.1,41 17.6,41 17.6,36.8 33.1,36.8 33.1,41 39.6,41 
					39.6,21 33.1,21 				"/>
				<polygon class="st2" points="35.5,17.7 25.4,7.6 15.3,17.7 20.8,17.7 23.1,15.4 23.1,25.4 27.6,25.4 27.6,15.4 29.9,17.7 				
					"/>
			</g>
			<g>
				<polygon class="st2" points="33,30.2 17.6,30.2 17.6,20.9 11,20.9 11,40.9 17.6,40.9 17.6,36.8 33,36.8 33,40.9 39.6,40.9 
					39.6,20.9 33,20.9 				"/>
				<polygon class="st2" points="35.4,17.6 25.3,7.5 15.2,17.6 20.7,17.6 23,15.3 23,25.3 27.5,25.3 27.5,15.3 29.8,17.6 				"/>
			</g>
			<g>
				<polygon class="st2" points="33,30.2 17.5,30.2 17.5,20.9 11,20.9 11,40.9 17.5,40.9 17.5,36.7 33,36.7 33,40.9 39.5,40.9 
					39.5,20.9 33,20.9 				"/>
				<polygon class="st2" points="35.3,17.5 25.2,7.4 15.1,17.5 20.7,17.5 23,15.2 23,25.2 27.5,25.2 27.5,15.2 29.8,17.5 				"/>
			</g>
			<g>
				<polygon class="st2" points="32.9,30.1 17.4,30.1 17.4,20.8 10.9,20.8 10.9,40.8 17.4,40.8 17.4,36.6 32.9,36.6 32.9,40.8 
					39.4,40.8 39.4,20.8 32.9,20.8 				"/>
				<polygon class="st2" points="35.2,17.4 25.1,7.3 15,17.4 20.6,17.4 22.9,15.2 22.9,25.2 27.4,25.2 27.4,15.2 29.7,17.4 				"/>
			</g>
			<g>
				<polygon class="st2" points="32.8,30 17.4,30 17.4,20.7 10.8,20.7 10.8,40.7 17.4,40.7 17.4,36.5 32.8,36.5 32.8,40.7 
					39.3,40.7 39.3,20.7 32.8,20.7 				"/>
				<polygon class="st2" points="35.2,17.4 25.1,7.3 15,17.4 20.5,17.4 22.8,15.1 22.8,25.1 27.3,25.1 27.3,15.1 29.6,17.4 				"/>
			</g>
			<g>
				<polygon class="st2" points="32.7,29.9 17.3,29.9 17.3,20.7 10.8,20.7 10.8,40.7 17.3,40.7 17.3,36.5 32.7,36.5 32.7,40.7 
					39.3,40.7 39.3,20.7 32.7,20.7 				"/>
				<polygon class="st2" points="35.1,17.3 25,7.2 14.9,17.3 20.5,17.3 22.8,15 22.8,25 27.3,25 27.3,15 29.5,17.3 				"/>
			</g>
			<g>
				<polygon class="st2" points="32.7,29.9 17.2,29.9 17.2,20.6 10.7,20.6 10.7,40.6 17.2,40.6 17.2,36.4 32.7,36.4 32.7,40.6 
					39.2,40.6 39.2,20.6 32.7,20.6 				"/>
				<polygon class="st2" points="35,17.2 24.9,7.1 14.8,17.2 20.4,17.2 22.7,14.9 22.7,24.9 27.2,24.9 27.2,14.9 29.5,17.2 				"/>
			</g>
			<g>
				<polygon class="st2" points="32.6,29.8 17.1,29.8 17.1,20.5 10.6,20.5 10.6,40.5 17.1,40.5 17.1,36.3 32.6,36.3 32.6,40.5 
					39.1,40.5 39.1,20.5 32.6,20.5 				"/>
				<polygon class="st2" points="35,17.2 24.9,7.1 14.8,17.2 20.3,17.2 22.6,14.9 22.6,24.9 27.1,24.9 27.1,14.9 29.4,17.2 				"/>
			</g>
			<g>
				<polygon class="st2" points="32.5,29.7 17.1,29.7 17.1,20.4 10.5,20.4 10.5,40.5 17.1,40.5 17.1,36.3 32.5,36.3 32.5,40.5 
					39.1,40.5 39.1,20.4 32.5,20.4 				"/>
				<polygon class="st2" points="34.9,17.1 24.8,7 14.7,17.1 20.2,17.1 22.5,14.8 22.5,24.8 27,24.8 27,14.8 29.3,17.1 				"/>
			</g>
			<g>
				<polygon class="st2" points="32.5,29.7 17,29.7 17,20.4 10.5,20.4 10.5,40.4 17,40.4 17,36.2 32.5,36.2 32.5,40.4 39,40.4 
					39,20.4 32.5,20.4 				"/>
				<polygon class="st2" points="34.8,17 24.7,6.9 14.6,17 20.2,17 22.5,14.7 22.5,24.7 27,24.7 27,14.7 29.3,17 				"/>
			</g>
			<g>
				<polygon class="st2" points="32.4,29.6 16.9,29.6 16.9,20.3 10.4,20.3 10.4,40.3 16.9,40.3 16.9,36.1 32.4,36.1 32.4,40.3 
					38.9,40.3 38.9,20.3 32.4,20.3 				"/>
				<polygon class="st2" points="34.8,17 24.6,6.8 14.5,17 20.1,17 22.4,14.7 22.4,24.7 26.9,24.7 26.9,14.7 29.2,17 				"/>
			</g>
			<g>
				<polygon class="st2" points="32.3,29.5 16.9,29.5 16.9,20.2 10.3,20.2 10.3,40.2 16.9,40.2 16.9,36 32.3,36 32.3,40.2 
					38.8,40.2 38.8,20.2 32.3,20.2 				"/>
				<polygon class="st2" points="34.7,16.9 24.6,6.8 14.5,16.9 20,16.9 22.3,14.6 22.3,24.6 26.8,24.6 26.8,14.6 29.1,16.9 				"/>
			</g>
			<g>
				<polygon class="st2" points="32.2,29.4 16.8,29.4 16.8,20.2 10.3,20.2 10.3,40.2 16.8,40.2 16.8,36 32.2,36 32.2,40.2 
					38.8,40.2 38.8,20.2 32.2,20.2 				"/>
				<polygon class="st2" points="34.6,16.8 24.5,6.7 14.4,16.8 20,16.8 22.3,14.5 22.3,24.5 26.8,24.5 26.8,14.5 29.1,16.8 				"/>
			</g>
			<g>
				<polygon class="st2" points="32.2,29.4 16.7,29.4 16.7,20.1 10.2,20.1 10.2,40.1 16.7,40.1 16.7,35.9 32.2,35.9 32.2,40.1 
					38.7,40.1 38.7,20.1 32.2,20.1 				"/>
				<polygon class="st2" points="34.5,16.7 24.4,6.6 14.3,16.7 19.9,16.7 22.2,14.4 22.2,24.4 26.7,24.4 26.7,14.4 29,16.7 				"/>
			</g>
			<g>
				<polygon class="st2" points="32.1,29.3 16.6,29.3 16.6,20 10.1,20 10.1,40 16.6,40 16.6,35.8 32.1,35.8 32.1,40 38.6,40 
					38.6,20 32.1,20 				"/>
				<polygon class="st2" points="34.5,16.7 24.4,6.6 14.3,16.7 19.8,16.7 22.1,14.4 22.1,24.4 26.6,24.4 26.6,14.4 28.9,16.7 				
					"/>
			</g>
			<g>
				<polygon class="st2" points="32,29.2 16.6,29.2 16.6,19.9 10,19.9 10,40 16.6,40 16.6,35.8 32,35.8 32,40 38.6,40 38.6,19.9 
					32,19.9 				"/>
				<polygon class="st2" points="34.4,16.6 24.3,6.5 14.2,16.6 19.8,16.6 22,14.3 22,24.3 26.5,24.3 26.5,14.3 28.8,16.6 				"/>
			</g>
			<g>
				<polygon class="st2" points="32,29.2 16.5,29.2 16.5,19.9 10,19.9 10,39.9 16.5,39.9 16.5,35.7 32,35.7 32,39.9 38.5,39.9 
					38.5,19.9 32,19.9 				"/>
				<polygon class="st2" points="34.3,16.5 24.2,6.4 14.1,16.5 19.7,16.5 22,14.2 22,24.2 26.5,24.2 26.5,14.2 28.8,16.5 				"/>
			</g>
			<g>
				<polygon class="st2" points="31.9,29.1 16.4,29.1 16.4,19.8 9.9,19.8 9.9,39.8 16.4,39.8 16.4,35.6 31.9,35.6 31.9,39.8 
					38.4,39.8 38.4,19.8 31.9,19.8 				"/>
				<polygon class="st2" points="34.3,16.5 24.2,6.4 14.1,16.5 19.6,16.5 21.9,14.2 21.9,24.2 26.4,24.2 26.4,14.2 28.7,16.5 				
					"/>
			</g>
			<g>
				<polygon class="st2" points="31.8,29 16.4,29 16.4,19.7 9.8,19.7 9.8,39.7 16.4,39.7 16.4,35.6 31.8,35.6 31.8,39.7 38.4,39.7 
					38.4,19.7 31.8,19.7 				"/>
				<polygon class="st2" points="34.2,16.4 24.1,6.3 14,16.4 19.5,16.4 21.8,14.1 21.8,24.1 26.3,24.1 26.3,14.1 28.6,16.4 				"/>
			</g>
		</g>
		<g>
			<polygon class="st3" points="31.8,29 16.4,29 16.4,19.7 9.8,19.7 9.8,39.7 16.4,39.7 16.4,35.6 31.8,35.6 31.8,39.7 38.4,39.7 
				38.4,19.7 31.8,19.7 			"/>
			<polygon class="st3" points="34.2,16.4 24.1,6.3 14,16.4 19.5,16.4 21.8,14.1 21.8,24.1 26.3,24.1 26.3,14.1 28.6,16.4 			"/>
		</g>
	</g>
</g>
</svg>
