<svg xmlns="http://www.w3.org/2000/svg" viewBox="0 0 25.7 18.7"><defs><style>.cls-1{fill:#4aa4a4;}.cls-2{fill:none;stroke:#474846;stroke-miterlimit:10;stroke-width:0.7px;}</style></defs><title>nav-menu-04</title><g id="레이어_2" data-name="레이어 2"><g id="menu"><path class="cls-1" d="M5.878,13.25779h-.712V5.51037h.712Z"/><path class="cls-1" d="M12.99353,12.85526a3.29864,3.29864,0,0,1-1.93164.49474,3.86233,3.86233,0,0,1-2.83933-1.06886A3.95351,3.95351,0,0,1,7.14247,9.33837a3.77494,3.77494,0,0,1,3.87371-3.93144,4.27817,4.27817,0,0,1,1.9541.41375V6.568a4.75227,4.75227,0,0,0-.89647-.37366,4.19021,4.19021,0,0,0-1.08088-.10905,3,3,0,0,0-2.22432.90208,3.20492,3.20492,0,0,0-.89085,2.351A3.33871,3.33871,0,0,0,8.75739,11.764a3.10729,3.10729,0,0,0,2.339.90849,2.97072,2.97072,0,0,0,1.89716-.59817Z"/><path class="cls-1" d="M20.53407,9.3496a4.39332,4.39332,0,0,1-.90768,2.92032A3.05952,3.05952,0,0,1,17.1551,13.35a3.10311,3.10311,0,0,1-2.4777-1.09131,4.31524,4.31524,0,0,1-.93655-2.90909,4.3793,4.3793,0,0,1,.9141-2.9139A3.06632,3.06632,0,0,1,17.13185,5.35a3.08194,3.08194,0,0,1,2.50576,1.07447A4.42489,4.42489,0,0,1,20.53407,9.3496Zm-6.05793,0a3.70383,3.70383,0,0,0,.73048,2.42,2.38826,2.38826,0,0,0,1.94848.89085,2.33834,2.33834,0,0,0,1.9541-.87962,3.84862,3.84862,0,0,0,.68958-2.43119,3.82033,3.82033,0,0,0-.6952-2.43681,2.37627,2.37627,0,0,0-1.97173-.8732,2.36328,2.36328,0,0,0-1.94848.87882A3.78023,3.78023,0,0,0,14.47614,9.3496Z"/><rect class="cls-2" x="0.35" y="0.35" width="25" height="18" rx="3" ry="3"/></g></g></svg>