<svg id="레이어_1" data-name="레이어 1" xmlns="http://www.w3.org/2000/svg" xmlns:xlink="http://www.w3.org/1999/xlink" viewBox="0 0 50 50"><defs><style>.cls-1,.cls-6{fill:none;}.cls-2{fill:url(#무제_그라디언트_57);}.cls-3{fill:#bcbcbc;}.cls-4{clip-path:url(#clip-path);}.cls-5{fill:#939393;}.cls-6{stroke:#fff;stroke-miterlimit:10;}.cls-7{clip-path:url(#clip-path-2);}.cls-8{fill:#b5884e;}</style><linearGradient id="무제_그라디언트_57" x1="0.37" y1="33.02" x2="32.06" y2="-0.05" gradientUnits="userSpaceOnUse"><stop offset="0" stop-color="#cecece"/><stop offset="1" stop-color="#bcbcbc"/></linearGradient><clipPath id="clip-path"><circle class="cls-1" cx="25" cy="25" r="25"/></clipPath><clipPath id="clip-path-2"><circle class="cls-1" cx="195" cy="25" r="25"/></clipPath></defs><title>대지 4 사본 2</title><path class="cls-2" d="M25,0A25,25,0,0,0,7.32,42.68L42.68,7.32A25,25,0,0,0,25,0Z"/><path class="cls-3" d="M42.68,7.32,7.32,42.68A25,25,0,0,0,42.68,7.32Z"/><g class="cls-4"><path class="cls-5" d="M50,25.69l-2.62-2.21-6-5-6-5c-1.08-.91-2.56-2.63-4-2.71-2-.1-3.95,0-5.91,0-2.3,0-4.47.06-6.49,1.35a8,8,0,0,0-3.41,8.83,10,10,0,0,0,3.67,4.9l3,2.52,6,5c.48.4.95.82,1.44,1.21-1.48,1.32-3.25,1.24-5.07,1.24H19.33a4.2,4.2,0,0,0-1.5.12,1.78,1.78,0,0,0-.54,3c.37.37.83.69,1.23,1L23.39,44l4.88,4.1L30,49.55A25,25,0,0,0,50,25.69Z"/><path class="cls-6" d="M32.84,26.17a8,8,0,0,0-6.17-2.93H23.33a4.52,4.52,0,0,1-4.48-5,4.65,4.65,0,0,1,4.69-4.06h8a1.77,1.77,0,0,0,0-3.53H23.61a8.22,8.22,0,0,0-8.24,7,8.08,8.08,0,0,0,8,9.09h3.34a4.52,4.52,0,0,1,4.48,5,4.65,4.65,0,0,1-4.69,4.06h-8a1.77,1.77,0,1,0,0,3.53h7.93a8.22,8.22,0,0,0,8.24-7A8,8,0,0,0,32.84,26.17Z"/></g><g class="cls-7"><circle class="cls-8" cx="-15" cy="25" r="25"/><circle class="cls-3" cx="55" cy="25" r="25"/></g></svg>