<?xml version="1.0" encoding="utf-8"?>
<!-- Generator: Adobe Illustrator 23.0.3, SVG Export Plug-In . SVG Version: 6.00 Build 0)  -->
<svg version="1.1" id="레이어_1" xmlns="http://www.w3.org/2000/svg" xmlns:xlink="http://www.w3.org/1999/xlink" x="0px"
	 y="0px" viewBox="0 0 183 29.2" style="enable-background:new 0 0 183 29.2;" xml:space="preserve">
<style type="text/css">
	.st0{fill:url(#SVGID_1_);}
	.st1{fill:#FFDC00;}
</style>
<g>
	<g>
		
			<linearGradient id="SVGID_1_" gradientUnits="userSpaceOnUse" x1="2.500001e-02" y1="16.45" x2="21.2092" y2="16.45" gradientTransform="matrix(1 0 0 -1 0 31)">
			<stop  offset="0" style="stop-color:#FCCE00"/>
			<stop  offset="1" style="stop-color:#EF8618"/>
		</linearGradient>
		<path class="st0" d="M21.2,0h-8.4c-1.5,0-3,0.7-3.8,1.8L0.8,12.2c-1.1,1.4-1.1,3.3,0,4.7l8.1,10.4c0.9,1.1,2.3,1.8,3.8,1.8h8.4
			l-9.3-12c-1.2-1.5-1.2-3.7,0-5.2L21.2,0z"/>
		<path class="st1" d="M25.7,1.7C24.8,0.6,23.4,0,21.9,0h-8.5h-0.6c-1.5,0-3,0.7-3.8,1.8L8.2,2.7c0,0,4.2-4,7.5,0.1l6.4,7.9H33
			L25.7,1.7z"/>
		<path class="st1" d="M15.7,26.4c-3.3,4-7.4,0.1-7.5,0.1l0.7,0.9c0.9,1.1,2.3,1.8,3.8,1.8h0.6h8.5c1.5,0,2.9-0.6,3.8-1.7l7.2-9
			H22.1L15.7,26.4z"/>
	</g>
	<g>
		<g>
			<path class="st1" d="M53.2,12.5h-1.4c-0.3-1.1-0.9-2-1.8-2.7c-0.9-0.7-1.9-1.1-3.1-1.1c-1.6,0-2.8,0.6-3.8,1.7s-1.5,2.6-1.5,4.5
				c0,1.8,0.5,3.3,1.5,4.5s2.3,1.7,3.8,1.7c1.2,0,2.2-0.4,3.1-1.1c0.8-0.7,1.4-1.6,1.8-2.7H53h1.8c-0.4,1.8-1.3,3.3-2.7,4.5
				c-1.3,1.2-3,1.8-5.1,1.8c-2.5,0-4.6-0.8-6.1-2.5s-2.3-3.8-2.3-6.2c0-2.5,0.8-4.6,2.3-6.3C42.4,7,44.4,6.2,47,6.2
				c2.1,0,3.8,0.6,5.1,1.8s2.2,2.7,2.7,4.5H53.2z"/>
			<path class="st1" d="M58.6,21.2c-1.5-1.7-2.3-3.8-2.3-6.2c0-2.5,0.8-4.6,2.3-6.3s3.6-2.5,6.1-2.5s4.6,0.8,6.1,2.5
				s2.3,3.8,2.3,6.3c0,2.4-0.8,4.5-2.3,6.2s-3.6,2.5-6.1,2.5C62.2,23.7,60.2,22.9,58.6,21.2z M68.6,10.4c-1-1.2-2.3-1.7-3.9-1.7
				s-2.8,0.6-3.8,1.7s-1.5,2.6-1.5,4.5c0,1.8,0.5,3.3,1.5,4.5s2.3,1.7,3.8,1.7c1.6,0,2.8-0.6,3.9-1.7c1-1.1,1.5-2.6,1.5-4.5
				C70.1,13.1,69.6,11.6,68.6,10.4z"/>
			<path class="st1" d="M76.1,16V6.6h1.8H79v16.6h-2.9V16z"/>
			<path class="st1" d="M82.8,16V6.6H83h1.3l0,0h1.4h0.4c2.2,3,5.4,7.4,9.5,12.9V16V6.6h1.8h1.1v16.6h-0.2h-2.7h-0.4
				c-1.7-2.3-4.9-6.6-9.5-12.9v12.9h-2.9C82.8,23.2,82.8,16,82.8,16z"/>
			<path class="st1" d="M107.2,17.4V9.1h-6.3V6.6H114h2.5v1.5v1h-6.3v14.2h-2.9L107.2,17.4L107.2,17.4z"/>
			<path class="st1" d="M119.3,21.2c-1.5-1.7-2.3-3.8-2.3-6.2c0-2.5,0.8-4.6,2.3-6.3s3.6-2.5,6.1-2.5s4.6,0.8,6.1,2.5
				s2.3,3.8,2.3,6.3c0,2.4-0.8,4.5-2.3,6.2s-3.6,2.5-6.1,2.5S120.9,22.9,119.3,21.2z M129.3,10.4c-1-1.2-2.3-1.7-3.9-1.7
				s-2.8,0.6-3.8,1.7s-1.5,2.6-1.5,4.5c0,1.8,0.5,3.3,1.5,4.5s2.3,1.7,3.8,1.7c1.6,0,2.8-0.6,3.9-1.7c1-1.1,1.5-2.6,1.5-4.5
				C130.8,13.1,130.3,11.6,129.3,10.4z"/>
			<path class="st1" d="M138.6,21.4c-1.4-1.5-2.1-3.7-2.1-6.6V9.3V6.6h2.9v4.2v4c0,2.2,0.4,3.8,1.3,4.8c0.9,1,2,1.5,3.4,1.5
				s2.5-0.5,3.4-1.5s1.3-2.6,1.3-4.8v-4.1V6.6h2.9v3.7v4.4c0,2.9-0.7,5.1-2.1,6.6c-1.4,1.5-3.2,2.3-5.5,2.3
				C141.9,23.7,140,22.9,138.6,21.4z"/>
			<path class="st1" d="M158.8,9.4c-0.6,0.5-1,1.1-1,1.8c0,0.4,0.1,0.8,0.4,1.1c0.3,0.3,0.7,0.5,1.1,0.7c0.9,0.3,2,0.6,3.3,0.8
				s2.4,0.5,3.4,1c0.7,0.3,1.2,0.8,1.6,1.4c0.4,0.6,0.6,1.4,0.6,2.3c0,0.7-0.1,1.3-0.3,1.8s-0.5,1-0.9,1.4c-0.7,0.7-1.6,1.2-2.6,1.6
				c-1.1,0.3-2.1,0.5-3.2,0.5c-1,0-2.1-0.2-3.2-0.5c-1.1-0.3-2-0.9-2.7-1.7c-0.4-0.4-0.7-0.9-0.9-1.4s-0.3-1.2-0.3-1.9h3.1
				c0,1,0.4,1.7,1.2,2.2s1.7,0.8,2.8,0.8s2-0.2,2.8-0.6s1.1-1.1,1.1-2c0-0.5-0.1-0.8-0.4-1.1c-0.3-0.3-0.7-0.5-1.2-0.7
				c-0.9-0.3-2-0.6-3.2-0.8c-1.3-0.2-2.4-0.5-3.4-1.1c-0.7-0.3-1.2-0.8-1.6-1.4c-0.4-0.6-0.7-1.4-0.7-2.3c0-0.6,0.1-1.2,0.3-1.7
				s0.5-0.9,0.9-1.3c0.7-0.7,1.5-1.2,2.5-1.6c1-0.3,2-0.5,2.9-0.5c0.5,0,1,0.1,1.5,0.2s1.1,0.2,1.6,0.4c0.9,0.4,1.7,1,2.4,1.7
				c0.7,0.8,1,1.8,1,3h-3.1c0-0.8-0.3-1.5-1-2s-1.5-0.8-2.5-0.8C160.4,8.7,159.5,8.9,158.8,9.4z"/>
			<path class="st1" d="M171.2,6.6h2.9h8.9v2.5h-8.9v4.5h8.2V16h-8.2v4.8h8.9v2.5h-8.9h-2.9V6.6z"/>
		</g>
	</g>
</g>
</svg>
