<?xml version="1.0" standalone="no"?>
<!DOCTYPE svg PUBLIC "-//W3C//DTD SVG 20010904//EN"
 "http://www.w3.org/TR/2001/REC-SVG-20010904/DTD/svg10.dtd">
<svg version="1.0" xmlns="http://www.w3.org/2000/svg"
 width="159.000000pt" height="159.000000pt" viewBox="0 0 159.000000 159.000000"
 preserveAspectRatio="xMidYMid meet">
<metadata>
Created by potrace 1.11, written by Peter Selinger 2001-2013
</metadata>
<g transform="translate(0.000000,159.000000) scale(0.100000,-0.100000)"
fill="#000000" stroke="none">
<path d="M388 1250 c-1 -5 -17 -10 -35 -12 -17 -1 -29 -6 -27 -10 3 -4 -2 -8
-10 -8 -9 0 -16 -7 -16 -15 0 -8 -5 -15 -11 -15 -11 0 -23 -11 -49 -44 -13
-18 -13 -19 0 -11 12 7 13 6 4 -6 -6 -8 -14 -27 -18 -42 -4 -15 -11 -25 -16
-22 -6 4 -10 -7 -10 -24 0 -18 -5 -31 -12 -31 -9 0 -8 -4 2 -10 10 -6 11 -10
3 -10 -8 0 -13 -13 -13 -31 0 -16 -3 -28 -7 -26 -5 3 -9 -14 -11 -36 -1 -23
-7 -43 -12 -45 -6 -2 -10 -8 -10 -13 0 -6 6 -7 13 -3 9 5 9 4 0 -6 -10 -11
-10 -17 0 -29 10 -12 9 -13 -3 -7 -8 4 -6 0 4 -8 11 -9 16 -16 12 -16 -20 0
25 -29 50 -32 16 -1 31 -6 34 -10 3 -4 181 -8 396 -8 l390 -1 1 -22 c2 -17 0
-19 -7 -7 -7 11 -10 3 -10 -28 0 -26 -4 -41 -10 -37 -6 3 -10 -4 -10 -17 0
-25 -50 -63 -66 -50 -4 4 -2 -1 6 -11 7 -10 9 -17 4 -16 -5 1 -31 1 -57 0 -34
-1 -46 -4 -41 -13 5 -7 3 -8 -7 -3 -23 15 -100 16 -93 2 5 -8 3 -8 -7 1 -17
16 -63 16 -53 0 5 -7 3 -8 -7 -2 -24 15 -62 17 -53 2 5 -10 4 -11 -7 0 -7 6
-28 12 -47 12 -24 0 -31 -4 -26 -12 6 -10 4 -10 -7 0 -18 16 -63 16 -53 0 6
-10 4 -10 -7 0 -7 6 -19 12 -27 12 -8 0 -10 -5 -6 -12 6 -10 4 -10 -7 0 -17
15 -43 16 -33 0 5 -7 3 -8 -7 -2 -24 15 -62 17 -53 2 5 -10 4 -11 -7 0 -17 16
-63 16 -53 0 5 -7 3 -8 -7 -2 -23 14 -81 15 -73 1 5 -9 4 -9 -7 1 -7 6 -24 12
-37 12 -16 0 -21 -4 -16 -12 6 -10 4 -10 -7 0 -16 15 -69 16 -69 1 0 -5 -4 -7
-10 -4 -5 3 -10 -3 -10 -14 0 -12 -4 -21 -9 -21 -5 0 -11 -7 -14 -14 -4 -11
-1 -13 11 -10 15 5 15 4 0 -6 -10 -6 -18 -20 -18 -30 0 -10 -5 -22 -10 -25 -6
-4 -9 -18 -7 -32 3 -20 10 -27 31 -30 21 -3 26 -1 20 9 -5 10 -4 11 7 0 17
-16 63 -16 53 0 -5 7 -3 8 7 2 24 -15 62 -17 53 -2 -5 10 -4 11 7 0 17 -16 63
-16 53 0 -5 7 -3 8 7 2 24 -15 62 -17 53 -2 -5 10 -4 11 7 0 17 -16 63 -16 53
0 -5 7 -3 8 7 2 24 -15 62 -17 53 -2 -5 10 -4 11 7 0 17 -16 63 -16 53 0 -5 7
-3 8 7 2 24 -15 62 -17 53 -2 -5 10 -4 11 7 0 17 -16 63 -16 53 0 -5 7 -3 8 7
2 24 -15 62 -17 53 -2 -5 10 -4 11 7 0 17 -16 63 -16 53 0 -5 7 -3 8 7 2 24
-15 62 -17 53 -2 -5 10 -4 11 7 0 17 -16 63 -16 53 0 -5 7 -3 8 7 2 24 -15 62
-17 53 -2 -5 10 -4 11 7 0 17 -16 63 -16 53 0 -5 7 -3 8 7 2 24 -15 62 -17 53
-2 -5 10 -4 11 7 0 17 -16 63 -16 53 0 -5 7 -3 8 7 2 24 -15 62 -17 53 -2 -5
10 -4 11 7 1 7 -7 24 -13 38 -13 21 0 23 2 11 10 -13 9 -13 10 1 10 8 0 21 -6
28 -12 11 -10 13 -10 7 -1 -4 7 -2 13 4 13 6 0 18 7 27 15 8 8 19 12 25 9 6
-4 8 -2 4 4 -3 6 -2 13 4 17 6 4 7 12 3 18 -4 7 2 5 12 -3 11 -9 16 -10 11 -2
-4 6 -3 12 3 12 6 0 13 11 17 25 3 14 10 25 15 25 5 0 9 9 9 20 0 11 3 19 8
19 19 -3 25 2 12 11 -10 6 -11 10 -2 10 6 0 12 10 12 23 0 13 4 27 10 33 5 5
10 26 12 46 1 20 6 34 10 32 6 -4 11 34 7 62 0 4 4 10 9 13 11 7 15 29 13 84
-1 30 -6 40 -21 44 -11 3 -20 11 -20 17 0 8 -19 13 -47 15 -26 1 -54 8 -62 14
-10 8 -13 9 -8 0 10 -16 -212 -17 -232 0 -10 8 -13 8 -8 0 10 -16 -212 -17
-232 0 -12 9 -13 9 -8 0 6 -9 -15 -12 -85 -10 l-93 2 3 40 c3 23 12 46 24 56
10 10 19 21 20 26 0 4 4 7 9 6 5 -2 9 4 9 12 0 13 53 15 420 15 413 0 420 0
420 20 0 11 6 20 13 20 7 0 14 14 15 32 2 17 6 36 11 42 4 6 9 28 9 49 l1 37
-598 0 c-378 0 -601 -4 -603 -10z"/>
</g>
</svg>
