<?xml version="1.0" encoding="utf-8"?>
<!-- Generator: Adobe Illustrator 24.0.0, SVG Export Plug-In . SVG Version: 6.00 Build 0)  -->
<svg version="1.1" id="레이어_1" xmlns="http://www.w3.org/2000/svg" xmlns:xlink="http://www.w3.org/1999/xlink" x="0px"
	 y="0px" viewBox="0 0 115.1 26.3" style="enable-background:new 0 0 115.1 26.3;" xml:space="preserve">
<style type="text/css">
	.st0{fill:#FFFFFF;}
</style>
<g>
	<path id="패스_2060" class="st0" d="M30.4,9.4h2.9v9.5h2.3V9.4h2.9l0.6-2h-9.2L30.4,9.4z"/>
	<path id="패스_2061" class="st0" d="M58.8,13.8c0,0.4-0.1,0.9-0.2,1.3c-0.1,0.4-0.3,0.7-0.5,1c-0.2,0.3-0.5,0.5-0.9,0.7
		c-0.4,0.2-0.8,0.2-1.3,0.2c-0.4,0-0.8-0.1-1.2-0.3c-0.3-0.2-0.7-0.4-0.9-0.7c-0.2-0.3-0.4-0.6-0.5-1c-0.1-0.4-0.2-0.8-0.2-1.2V7.4
		h-2.2v6.3c0,0.7,0.1,1.4,0.4,2.1c0.2,0.6,0.6,1.2,1,1.7c0.5,0.5,1,0.9,1.6,1.1c1.4,0.6,2.9,0.6,4.3,0c0.6-0.3,1.2-0.7,1.6-1.2
		c0.4-0.5,0.8-1.1,1-1.7c0.2-0.7,0.4-1.4,0.3-2.1V7.4h-2.3L58.8,13.8z"/>
	<path id="패스_2062" class="st0" d="M70.2,13.7c-0.3-0.3-0.6-0.6-1-0.8c-0.5-0.3-1-0.5-1.5-0.7c-0.5-0.2-0.8-0.3-1.1-0.5
		c-0.3-0.1-0.5-0.3-0.7-0.4c-0.2-0.1-0.3-0.3-0.4-0.4c-0.1-0.2-0.1-0.3-0.1-0.5c0-0.2,0-0.3,0.1-0.5c0.1-0.1,0.2-0.3,0.3-0.4
		c0.1-0.1,0.3-0.2,0.5-0.3c0.2-0.1,0.4-0.1,0.6-0.1c0.4,0,0.9,0.1,1.3,0.2c0.4,0.2,0.7,0.4,1,0.6l1.6-1.6c-0.5-0.4-1-0.8-1.6-1
		c-0.7-0.2-1.5-0.4-2.2-0.3c-0.5,0-1,0.1-1.5,0.2c-0.4,0.2-0.8,0.4-1.2,0.7c-0.3,0.3-0.6,0.7-0.8,1.1c-0.2,0.4-0.3,0.9-0.3,1.4
		c0,0.5,0.1,0.9,0.3,1.3c0.2,0.4,0.4,0.7,0.7,1c0.3,0.3,0.6,0.5,1,0.7c0.4,0.2,0.8,0.4,1.2,0.5c0.5,0.2,0.9,0.3,1.2,0.5
		c0.3,0.1,0.5,0.2,0.7,0.4c0.2,0.1,0.3,0.3,0.4,0.4c0.1,0.2,0.1,0.3,0.1,0.5c0,0.2,0,0.3-0.1,0.5c-0.1,0.1-0.2,0.3-0.3,0.4
		c-0.1,0.1-0.3,0.2-0.5,0.3c-0.2,0.1-0.4,0.1-0.6,0.1c-0.5,0-1-0.1-1.4-0.2c-0.5-0.2-1-0.5-1.4-0.8l-1.6,1.6c0.3,0.3,0.7,0.5,1,0.7
		c0.3,0.2,0.7,0.4,1,0.5c0.4,0.1,0.7,0.2,1.1,0.3c0.4,0.1,0.9,0.1,1.3,0.1c0.5,0,1-0.1,1.5-0.3c0.4-0.2,0.8-0.4,1.2-0.7
		c0.3-0.3,0.6-0.6,0.8-1c0.2-0.4,0.3-0.8,0.3-1.2c0-0.4-0.1-0.8-0.2-1.2C70.7,14.3,70.5,14,70.2,13.7z"/>
	<path id="패스_2063" class="st0" d="M72.5,9.4h2.9v9.5h2.3V9.4h2.9l0.6-2h-9.2L72.5,9.4z"/>
	<path id="패스_2064" class="st0" d="M92,8.9c-2.4-2.3-6.2-2.3-8.6,0c-0.6,0.5-1,1.2-1.3,1.9c-0.6,1.5-0.6,3.2,0,4.7
		c0.3,0.7,0.8,1.4,1.3,1.9c0.6,0.5,1.2,1,2,1.3c1.5,0.6,3.2,0.6,4.7,0c0.7-0.3,1.4-0.7,1.9-1.3c0.6-0.5,1-1.2,1.3-1.9
		c0.6-1.5,0.6-3.2,0-4.7C93,10.1,92.6,9.5,92,8.9z M91.3,14.7c-0.2,0.5-0.5,0.9-0.8,1.2c-0.4,0.4-0.8,0.6-1.2,0.8
		c-0.5,0.2-1,0.3-1.5,0.3c-0.5,0-1-0.1-1.5-0.3c-0.5-0.2-0.9-0.5-1.2-0.8c-0.4-0.4-0.6-0.8-0.8-1.2c-0.4-1-0.4-2,0-3
		c0.2-0.5,0.5-0.9,0.8-1.2c0.4-0.4,0.8-0.6,1.2-0.8c0.5-0.2,1-0.3,1.5-0.3c0.5,0,1,0.1,1.5,0.3c0.5,0.2,0.9,0.5,1.2,0.8
		c0.4,0.4,0.6,0.8,0.8,1.2C91.7,12.6,91.7,13.7,91.3,14.7z"/>
	<path id="패스_2066" class="st0" d="M48.6,17.5c-0.1-0.3-0.2-0.5-0.2-0.7c-0.1-0.2-0.1-0.4-0.2-0.6L48,15.8
		c-0.1-0.2-0.1-0.3-0.2-0.5c-0.1-0.3-0.3-0.6-0.5-0.9c-0.2-0.3-0.5-0.5-0.9-0.6c0.3-0.1,0.6-0.3,0.9-0.5c0.3-0.2,0.5-0.4,0.7-0.7
		c0.2-0.3,0.3-0.6,0.4-0.9c0.1-0.3,0.2-0.6,0.2-1c0-0.5-0.1-0.9-0.3-1.3c-0.2-0.4-0.4-0.8-0.7-1.1c-0.3-0.3-0.7-0.5-1.1-0.7
		c-0.4-0.2-0.9-0.3-1.4-0.3h-4.5v11.5h2.2v-4.6h0.8c0.3,0,0.6,0,0.9,0.1c0.2,0.1,0.5,0.2,0.7,0.4c0.2,0.2,0.3,0.4,0.5,0.6
		c0.1,0.3,0.2,0.5,0.3,0.8l0.8,2.6h2.5c-0.1-0.2-0.2-0.4-0.3-0.6C48.8,18.1,48.7,17.9,48.6,17.5z M46.2,11.6
		c-0.1,0.2-0.2,0.4-0.4,0.6c-0.2,0.2-0.4,0.3-0.6,0.4c-0.2,0.1-0.5,0.1-0.8,0.1h-1.6V9.1h1.6c0.3,0,0.5,0,0.8,0.1
		c0.2,0.1,0.4,0.2,0.6,0.4c0.2,0.2,0.3,0.4,0.4,0.6c0.1,0.2,0.2,0.5,0.2,0.7C46.3,11.1,46.3,11.4,46.2,11.6L46.2,11.6z"/>
	<path id="패스_2065_1_" class="st0" d="M113,7.4v7.5l-4.9-7.5h-2.5v11.5h2.2v-8.1l5.2,8.1h2.2V7.4H113z"/>
	<path id="패스_2066_1_" class="st0" d="M103.7,17.5c-0.1-0.3-0.2-0.5-0.2-0.7c-0.1-0.2-0.1-0.4-0.2-0.6l-0.2-0.5
		c-0.1-0.2-0.1-0.3-0.2-0.5c-0.1-0.3-0.3-0.6-0.5-0.9c-0.2-0.3-0.5-0.5-0.9-0.6c0.3-0.1,0.6-0.3,0.9-0.5c0.3-0.2,0.5-0.4,0.7-0.7
		c0.2-0.3,0.3-0.6,0.4-0.9c0.1-0.3,0.2-0.6,0.2-1c0-0.5-0.1-0.9-0.3-1.3c-0.2-0.4-0.4-0.8-0.7-1.1c-0.3-0.3-0.7-0.5-1.1-0.7
		c-0.4-0.2-0.9-0.3-1.4-0.3h-4.5v11.5h2.2v-4.6h0.8c0.3,0,0.6,0,0.9,0.1c0.2,0.1,0.5,0.2,0.7,0.4c0.2,0.2,0.3,0.4,0.5,0.6
		c0.1,0.3,0.2,0.5,0.3,0.8l0.8,2.6h2.5c-0.1-0.2-0.2-0.4-0.3-0.6C103.9,18.1,103.8,17.9,103.7,17.5z M101.2,11.6
		c-0.1,0.2-0.2,0.4-0.4,0.6c-0.2,0.2-0.4,0.3-0.6,0.4c-0.2,0.1-0.5,0.1-0.8,0.1h-1.6V9.1h1.6c0.3,0,0.5,0,0.8,0.1
		c0.2,0.1,0.4,0.2,0.6,0.4c0.2,0.2,0.3,0.4,0.4,0.6c0.1,0.2,0.2,0.5,0.2,0.7C101.4,11.1,101.3,11.4,101.2,11.6L101.2,11.6z"/>
	<g id="그룹_119" transform="translate(1377.456 2710.666)">
		<g id="그룹_118" transform="translate(0)">
			<g id="그룹_117">
				<path id="패스_2067" class="st0" d="M-1363.7-2709.5c0.2,0.1,0.3,0.2,0.5,0.3l0,0l1.2-0.3l-0.7-0.5c-1.2-0.9-2.9-0.9-4,0.1
					l1.2,0.4C-1364.9-2709.7-1364.3-2709.7-1363.7-2709.5z"/>
				<path id="패스_2068" class="st0" d="M-1351.8-2699.9l-0.4,1.2c0.3,0.7,0.2,1.6-0.3,2.2l0,0l0.3,1.2l0.5-0.7
					C-1350.9-2697-1350.9-2698.7-1351.8-2699.9z"/>
				<path id="패스_2069" class="st0" d="M-1356.7-2688.5L-1356.7-2688.5l-0.7,1.1l0.8-0.1c1.5-0.2,2.6-1.4,2.8-2.9l-1.2,0.6
					C-1355.3-2689.1-1355.9-2688.6-1356.7-2688.5z"/>
				<path id="패스_2070" class="st0" d="M-1355.3-2705.1L-1355.3-2705.1l1.1,0.7l-0.1-0.8c-0.2-1.5-1.4-2.6-2.9-2.8l0.6,1.2
					C-1355.9-2706.5-1355.4-2705.8-1355.3-2705.1z"/>
				<path id="패스_2071" class="st0" d="M-1374.8-2704.6l1.2-0.6c0.3-0.7,1-1.2,1.8-1.3l0,0l0.6-1.1l-0.8,0.1
					C-1373.5-2707.3-1374.6-2706.1-1374.8-2704.6z"/>
				<path id="패스_2072" class="st0" d="M-1354-2702.9L-1354-2702.9l-1.1-0.7l0.1,0.8c0.1,0.6,0.3,1.2,0.8,1.7l1.1,1.2l0.2-0.5
					c0.1-0.2,0.1-0.5,0.1-0.7l-0.6-0.7C-1353.7-2702-1353.9-2702.4-1354-2702.9z"/>
				<path id="패스_2073" class="st0" d="M-1365.3-2685.8L-1365.3-2685.8l-1.3,0.3l0.7,0.5c1.2,0.9,2.9,0.9,4-0.1l-1.2-0.4
					C-1363.9-2685.2-1364.7-2685.3-1365.3-2685.8z"/>
				<path id="패스_2074" class="st0" d="M-1373.6-2692.3c-0.1-0.6-0.3-1.2-0.8-1.7l-1.1-1.2l-0.2,0.5c-0.1,0.2-0.1,0.5-0.1,0.7
					l0.6,0.7c0.3,0.3,0.5,0.7,0.5,1.2v0l1.1,0.6L-1373.6-2692.3z"/>
				<path id="패스_2075" class="st0" d="M-1376.8-2699.1c-0.9,1.2-0.9,2.9,0.1,4l0.4-1.2c-0.3-0.7-0.2-1.6,0.3-2.2l0,0l-0.3-1.2
					L-1376.8-2699.1z"/>
				<path id="패스_2076" class="st0" d="M-1367.2-2687.2c-0.5-0.4-1.1-0.6-1.7-0.7l-1.6-0.1l0.2,0.5c0.1,0.2,0.2,0.4,0.4,0.6
					l0.9,0.1c0.4,0,0.9,0.2,1.2,0.5l0,0l1.2-0.3L-1367.2-2687.2z"/>
				<path id="패스_2077" class="st0" d="M-1354-2694.6c-0.4,0.5-0.6,1.1-0.7,1.7l-0.1,1.6l0.5-0.2c0.2-0.1,0.4-0.2,0.6-0.4
					l0.1-0.9c0-0.4,0.2-0.9,0.5-1.2l0,0l-0.3-1.2L-1354-2694.6z"/>
				<path id="패스_2078" class="st0" d="M-1360.7-2687.4l-1.2,1.1l0.5,0.2c0.2,0.1,0.5,0.1,0.7,0.1l0.7-0.6
					c0.3-0.3,0.7-0.5,1.2-0.5h0l0.6-1.1l-0.8,0.1C-1359.7-2688.1-1360.3-2687.8-1360.7-2687.4z"/>
				<path id="패스_2079" class="st0" d="M-1373.3-2689.9L-1373.3-2689.9l-1.1-0.7l0.1,0.8c0.2,1.1,0.9,2.1,1.9,2.5
					c0.3,0.1,0.6,0.2,0.9,0.2l-0.6-1.2C-1372.7-2688.5-1373.2-2689.2-1373.3-2689.9z"/>
				<path id="패스_2080" class="st0" d="M-1367.8-2707.6l1.2-1.1l-0.5-0.2c-0.2-0.1-0.3-0.1-0.5-0.1c-0.1,0-0.1,0-0.2,0l-0.7,0.6
					c-0.3,0.3-0.7,0.5-1.2,0.5h0l-0.6,1.1l0.8-0.1C-1368.9-2706.9-1368.3-2707.2-1367.8-2707.6z"/>
				<path id="패스_2081" class="st0" d="M-1358.7-2708.1l-0.9-0.1c-0.4,0-0.9-0.2-1.2-0.5l0,0l-1.2,0.3l0.6,0.5
					c0.5,0.4,1.1,0.6,1.7,0.7l1.6,0.1l-0.2-0.5C-1358.4-2707.7-1358.5-2707.9-1358.7-2708.1z"/>
				<path id="패스_2082" class="st0" d="M-1374.6-2700.4c0.4-0.5,0.6-1.1,0.7-1.7l0.1-1.6l-0.5,0.2c-0.2,0.1-0.4,0.2-0.6,0.4
					l-0.1,0.9c0,0.4-0.2,0.9-0.5,1.2l0,0l0.3,1.2L-1374.6-2700.4z"/>
			</g>
			<path id="패스_2083" class="st0" d="M-1353.4-2703.7l-0.7-0.4l-1.1-0.6l-0.2-0.1c-0.4-0.2-0.7-0.6-0.9-1l-0.5-1l-0.5-1.1
				c0,0,0,0,0,0c-0.7-1.3-2.2-2-3.6-1.6l-0.8,0.2l-1.2,0.3l-0.2,0.1c-0.4,0.1-0.9,0.1-1.3,0l-1.1-0.4l-1.1-0.4l0,0
				c-1.4-0.5-2.9,0.1-3.7,1.4l-0.4,0.7l-0.6,1.1l-0.1,0.2c-0.2,0.4-0.6,0.7-1,0.9l-1,0.5l-1.1,0.5l0,0c-1.3,0.7-2,2.2-1.6,3.6
				l0.2,0.8l0.3,1.2l0.1,0.2c0.1,0.4,0.1,0.9,0,1.3l-0.4,1.1l-0.4,1.1c0,0,0,0,0,0c-0.5,1.4,0.1,2.9,1.4,3.7l0.8,0.4l1.1,0.6
				l0.2,0.1c0.4,0.2,0.7,0.6,0.9,1l0.5,1l0.5,1.1c0,0,0,0,0,0c0.5,1,1.5,1.6,2.6,1.7c0.3,0,0.7,0,1-0.1l0.8-0.2l1.2-0.3l0.2-0.1
				c0.4-0.1,0.9-0.1,1.3,0l1.1,0.4l1.1,0.4l0,0c1.4,0.5,2.9-0.1,3.7-1.4l0.4-0.8l0.6-1.1l0.1-0.2c0.2-0.4,0.6-0.7,1-0.9l1-0.5
				l1.1-0.5l0,0c1.3-0.7,2-2.2,1.6-3.6l-0.2-0.8l-0.3-1.2l-0.1-0.2c-0.1-0.4-0.1-0.9,0-1.3l0.4-1.1l0.4-1.1c0,0,0,0,0,0
				C-1351.5-2701.4-1352.1-2703-1353.4-2703.7z M-1352.7-2700.8c0,0.2,0,0.4-0.1,0.5l-0.2,0.6l-0.5,1.6c-0.2,0.6-0.2,1.2-0.1,1.8
				l0.2,0.8l0.3,1.2l0.1,0.2c0.2,0.9-0.1,1.8-0.7,2.4c-0.1,0.1-0.3,0.2-0.5,0.3l-0.6,0.3l-1.5,0.8c-0.5,0.3-1,0.7-1.3,1.2l-0.4,0.7
				l-0.6,1.1l-0.1,0.2c-0.4,0.7-1.2,1.2-2,1.2c-0.1,0-0.1,0-0.2,0c-0.2,0-0.4,0-0.5-0.1l-0.6-0.2l-1.6-0.5c-0.6-0.2-1.2-0.2-1.8-0.1
				l-0.8,0.2l-1.2,0.3l-0.2,0.1c-0.9,0.2-1.8-0.1-2.4-0.7c-0.1-0.1-0.2-0.3-0.3-0.5l-0.3-0.6l-0.8-1.5c-0.3-0.5-0.7-1-1.2-1.3
				l-0.7-0.4l-1.1-0.6l-0.2-0.1c-0.8-0.5-1.2-1.3-1.1-2.2c0-0.2,0-0.4,0.1-0.5l0.2-0.6l0.5-1.6c0.2-0.6,0.2-1.2,0.1-1.8l-0.2-0.8
				l-0.3-1.2l-0.1-0.2c-0.2-0.9,0.1-1.8,0.7-2.4c0.1-0.1,0.3-0.2,0.5-0.3l0.6-0.3l1.5-0.8c0.5-0.3,1-0.7,1.3-1.2l0.4-0.7l0.6-1.1
				l0.1-0.2c0.4-0.8,1.3-1.2,2.2-1.1h0c0.2,0,0.4,0.1,0.5,0.1l0.6,0.2l1.6,0.5c0.6,0.2,1.2,0.2,1.8,0.1l0.8-0.2l1.2-0.3l0.2-0.1
				c0.9-0.2,1.8,0.1,2.4,0.7c0.1,0.1,0.2,0.3,0.3,0.5l0.3,0.6l0.8,1.5c0.3,0.5,0.7,1,1.2,1.3l0.7,0.4l1.1,0.6l0.2,0.1
				C-1353-2702.6-1352.6-2701.7-1352.7-2700.8L-1352.7-2700.8z"/>
		</g>
		<path id="패스_2084" class="st0" d="M-1357.4-2702.1h-13.8l1.4,3h3.9v9.1h3.2v-9.1h3.9L-1357.4-2702.1z M-1363.7-2700.1v9.1
			h-1.2v-9.1h-4.3l-0.5-1.1h11l-0.5,1.1H-1363.7z"/>
	</g>
</g>
</svg>
