<?xml version="1.0" encoding="utf-8"?>
<!-- Generator: Adobe Illustrator 24.0.0, SVG Export Plug-In . SVG Version: 6.00 Build 0)  -->
<svg version="1.1" id="레이어_1" xmlns="http://www.w3.org/2000/svg" xmlns:xlink="http://www.w3.org/1999/xlink" x="0px"
	 y="0px" viewBox="0 0 121.7 139" style="enable-background:new 0 0 121.7 139;" xml:space="preserve">
<style type="text/css">
	.st0{fill:#FFFFFF;}
</style>
<g id="그룹_108" transform="translate(177.515 549.299)">
	<path id="패스_2014" class="st0" d="M-126.4-417.8l-2.4,7.3h-1.6l-1.4-4.3l-1.4,4.3h-1.6l-2.4-7.3h1.9l1.4,4.5l1.4-4.5h1.6
		l1.4,4.5l1.4-4.5H-126.4z"/>
	<path id="패스_2015" class="st0" d="M-119.4-410.5h-1.8v-0.4c-0.3,0.2-0.6,0.4-1,0.5c-0.4,0.1-0.7,0.1-1.1,0.1
		c-0.3,0-0.6,0-1-0.2c-0.3-0.1-0.5-0.3-0.7-0.5c-0.2-0.2-0.4-0.4-0.5-0.7c-0.1-0.3-0.2-0.6-0.2-0.9c0-0.4,0.1-0.7,0.3-1.1
		c0.2-0.3,0.4-0.6,0.7-0.8c0.3-0.2,0.7-0.4,1.1-0.5c0.4-0.1,0.9-0.2,1.3-0.2h1c0-0.4-0.1-0.8-0.4-1c-0.3-0.3-0.8-0.4-1.2-0.4
		c-0.3,0-0.5,0-0.8,0.1c-0.3,0.1-0.6,0.3-0.8,0.5l-1.1-1.1c0.4-0.4,0.8-0.7,1.3-0.9c0.5-0.2,1-0.3,1.6-0.3c0.5,0,0.9,0.1,1.3,0.2
		c0.4,0.1,0.7,0.3,0.9,0.6c0.3,0.3,0.5,0.7,0.7,1.1c0.1,0.5,0.2,1,0.2,1.5L-119.4-410.5z M-121.2-412.3v-1.3h-0.8
		c-0.2,0-0.5,0-0.7,0c-0.2,0-0.4,0.1-0.6,0.2c-0.2,0.1-0.3,0.2-0.4,0.3c-0.1,0.1-0.1,0.3-0.1,0.5c0,0.2,0.1,0.5,0.3,0.6
		c0.2,0.2,0.5,0.3,0.8,0.2c0.3,0,0.5,0,0.8-0.1C-121.7-412-121.4-412.2-121.2-412.3L-121.2-412.3z"/>
	<path id="패스_2016" class="st0" d="M-114.6-410.6c-0.2,0.1-0.3,0.1-0.5,0.2c-0.2,0-0.4,0.1-0.6,0.1c-0.3,0-0.5,0-0.8-0.1
		c-0.2-0.1-0.5-0.2-0.6-0.3c-0.2-0.2-0.3-0.4-0.4-0.6c-0.1-0.3-0.2-0.6-0.2-0.9v-8.6h1.8v8.3c0,0.2,0,0.4,0.2,0.6
		c0.1,0.1,0.3,0.2,0.4,0.2c0.2,0,0.4-0.1,0.6-0.2L-114.6-410.6z"/>
	<path id="패스_2017" class="st0" d="M-110.3-410.6c-0.2,0.1-0.3,0.1-0.5,0.2c-0.2,0-0.4,0.1-0.6,0.1c-0.3,0-0.5,0-0.8-0.1
		c-0.2-0.1-0.5-0.2-0.6-0.3c-0.2-0.2-0.3-0.4-0.4-0.6c-0.1-0.3-0.2-0.6-0.2-0.9v-8.6h1.8v8.3c0,0.2,0,0.4,0.2,0.6
		c0.1,0.1,0.3,0.2,0.4,0.2c0.2,0,0.4-0.1,0.6-0.2L-110.3-410.6z"/>
	<path id="패스_2018" class="st0" d="M-101.6-414.2c0,0.1,0,0.2,0,0.4c0,0.1,0,0.3,0,0.4h-5.8c0.1,0.2,0.2,0.4,0.3,0.6
		c0.1,0.2,0.3,0.4,0.4,0.5c0.2,0.1,0.4,0.3,0.6,0.3c0.2,0.1,0.5,0.1,0.7,0.1c0.3,0,0.7-0.1,1-0.2c0.3-0.1,0.6-0.3,0.8-0.5l1.1,1.1
		c-0.4,0.3-0.9,0.6-1.5,0.8c-0.5,0.2-1,0.2-1.5,0.2c-0.5,0-1-0.1-1.5-0.3c-0.5-0.2-0.9-0.5-1.2-0.8c-0.3-0.3-0.6-0.8-0.8-1.2
		c-0.2-0.5-0.3-1-0.3-1.5c0-0.5,0.1-1,0.3-1.5c0.2-0.5,0.5-0.9,0.8-1.2c0.4-0.3,0.8-0.6,1.2-0.8c0.5-0.2,1-0.3,1.5-0.3
		c0.5,0,1,0.1,1.5,0.3c0.5,0.2,0.9,0.4,1.2,0.8c0.4,0.3,0.7,0.7,0.9,1.2C-101.7-415.2-101.6-414.7-101.6-414.2z M-103.5-414.9
		c-0.1-0.4-0.4-0.8-0.8-1.1c-0.4-0.3-0.8-0.4-1.2-0.4c-0.4,0-0.9,0.1-1.2,0.4c-0.4,0.3-0.6,0.7-0.8,1.1H-103.5z"/>
	<path id="패스_2019" class="st0" d="M-96.2-410.7c-0.2,0.1-0.4,0.2-0.6,0.3c-0.2,0.1-0.5,0.1-0.7,0.1c-0.4,0-0.7,0-1.1-0.2
		c-0.3-0.1-0.5-0.3-0.7-0.5c-0.2-0.2-0.3-0.5-0.4-0.8c-0.1-0.4-0.1-0.8-0.1-1.2v-3.2h-1v-0.8c0.6-0.2,1.1-0.6,1.4-1.1
		c0.4-0.6,0.7-1.2,0.7-1.9h0.6v2.1h1.8v1.6H-98v3.3c0,0.2,0,0.3,0.1,0.5c0,0.1,0.1,0.2,0.2,0.3c0.1,0.1,0.2,0.1,0.3,0.1
		c0.1,0,0.2,0,0.3,0c0.2,0,0.3,0,0.5-0.1c0.2,0,0.4-0.1,0.5-0.3L-96.2-410.7z"/>
</g>
<g>
	<g>
		<g>
			<path class="st0" d="M62.9,4.2c0.6,0.3,1.2,0.6,1.7,1l0.1,0.1l4.4-1.2l-2.4-1.8c-4.3-3.3-10.3-3.1-14.4,0.3l4.5,1.5
				C58.7,3.4,60.9,3.4,62.9,4.2z"/>
			<path class="st0" d="M105.6,38.9l-1.5,4.4c1,2.6,0.7,5.6-1.1,7.8l-0.1,0.1l1.2,4.4l1.8-2.4C109.2,49.1,109.1,43,105.6,38.9z"/>
			<path class="st0" d="M88.1,79.9l-0.2,0l-2.3,3.9l2.9-0.4c5.3-0.7,9.5-5.1,10-10.4l-4.2,2.1C93.3,77.7,90.9,79.6,88.1,79.9z"/>
			<path class="st0" d="M93.4,20.2l0,0.2l3.9,2.3l-0.4-2.9c-0.7-5.3-5.1-9.5-10.4-10l2.1,4.2C91.1,15,93,17.4,93.4,20.2z"/>
			<path class="st0" d="M23.1,21.8l4.2-2.1c1.1-2.5,3.5-4.4,6.3-4.8l0.2,0l2.3-3.9l-2.9,0.4C27.8,12.1,23.7,16.5,23.1,21.8z"/>
			<path class="st0" d="M98,28.1l0-0.1l-3.9-2.3l0.4,2.9c0.3,2.3,1.3,4.4,2.7,6.1l3.9,4.5l0.6-1.8c0.3-0.8,0.4-1.6,0.4-2.5l-2.2-2.5
				C98.9,31.1,98.2,29.7,98,28.1z"/>
			<path class="st0" d="M57.1,89.7L57,89.6l-4.4,1.2l2.4,1.8c4.3,3.3,10.3,3.1,14.4-0.3L65,90.7C62.4,91.8,59.4,91.4,57.1,89.7z"/>
			<path class="st0" d="M27.2,66.3c-0.3-2.3-1.3-4.4-2.8-6.1l-3.9-4.5L20,57.6c-0.3,0.8-0.4,1.6-0.4,2.5l2.2,2.5
				c1,1.2,1.7,2.6,1.9,4.2l0,0.1l3.9,2.3L27.2,66.3z"/>
			<path class="st0" d="M15.8,41.5c-3.3,4.3-3.1,10.3,0.3,14.4l1.5-4.4c-1-2.6-0.7-5.6,1.1-7.8l0.1-0.1l-1.2-4.4L15.8,41.5z"/>
			<path class="st0" d="M50.4,84.6c-1.8-1.4-4-2.2-6.2-2.4l-5.9-0.4l0.9,1.7c0.4,0.8,0.9,1.4,1.5,2l3.3,0.2c1.6,0.1,3.1,0.7,4.3,1.6
				l0.1,0.1l4.4-1.2L50.4,84.6z"/>
			<path class="st0" d="M98,57.9c-1.4,1.8-2.2,4-2.4,6.2L95.2,70l1.7-0.9c0.8-0.4,1.4-0.9,2-1.5l0.2-3.3c0.1-1.6,0.7-3.1,1.6-4.3
				l0.1-0.1l-1.2-4.4L98,57.9z"/>
			<path class="st0" d="M73.7,83.8l-4.5,3.9l1.8,0.6c0.8,0.3,1.6,0.4,2.5,0.4l2.5-2.2c1.2-1,2.6-1.7,4.2-1.9l0.1,0l2.3-3.9l-2.9,0.4
				C77.5,81.4,75.4,82.3,73.7,83.8z"/>
			<path class="st0" d="M28.4,74.7l0-0.2l-3.9-2.3l0.4,2.9c0.6,4.2,3.3,7.6,7,9.2c1.1,0.5,2.2,0.7,3.4,0.9L33.2,81
				C30.6,79.9,28.8,77.5,28.4,74.7z"/>
			<path class="st0" d="M48.1,11.1l4.5-3.9l-1.8-0.6c-0.6-0.2-1.2-0.3-1.9-0.4c-0.2,0-0.4,0-0.6,0l-2.5,2.2c-1.2,1-2.6,1.7-4.2,1.9
				l-0.1,0l-2.3,3.9l2.9-0.4C44.2,13.5,46.3,12.6,48.1,11.1z"/>
			<path class="st0" d="M81.1,9.3l-3.3-0.2c-1.6-0.1-3.1-0.7-4.3-1.6l-0.1-0.1L69,8.6l2.3,1.8c1.8,1.4,4,2.2,6.2,2.4l5.9,0.4
				l-0.9-1.7C82.2,10.6,81.7,9.9,81.1,9.3z"/>
			<path class="st0" d="M23.7,37c1.4-1.8,2.2-4,2.4-6.2l0.4-5.9l-1.7,0.9c-0.8,0.4-1.4,0.9-2,1.5l-0.2,3.3c-0.1,1.6-0.7,3.1-1.6,4.3
				l-0.1,0.1l1.2,4.4L23.7,37z"/>
		</g>
		<path class="st0" d="M100.1,25.1l-2.7-1.6l-3.9-2.3l-0.7-0.4c-1.4-0.8-2.6-2-3.3-3.5l-1.8-3.7l-1.9-3.9c0,0,0-0.1-0.1-0.1
			c-2.4-4.7-7.8-7.2-13-5.8l-3,0.8l-4.4,1.2L64.6,6c-1.6,0.4-3.2,0.4-4.8-0.2l-3.9-1.3l-4.1-1.4c0,0-0.1,0-0.1,0
			c-5-1.6-10.6,0.5-13.3,5.1l-1.6,2.7l-2.3,3.9l-0.4,0.7c-0.8,1.4-2,2.6-3.5,3.3L27,20.6l-3.9,1.9c0,0-0.1,0-0.1,0.1
			c-4.7,2.4-7.2,7.8-5.8,13l0.8,3l1.2,4.4l0.2,0.7c0.4,1.6,0.4,3.2-0.2,4.8L18,52.4l-1.4,4.1c0,0,0,0.1,0,0.1
			c-1.6,5,0.5,10.6,5.1,13.3l2.7,1.6l3.9,2.3l0.7,0.4c1.4,0.8,2.6,2,3.3,3.5l1.8,3.7l1.9,3.9c0,0,0,0.1,0.1,0.1
			c1.8,3.5,5.3,5.9,9.3,6.1c1.2,0.1,2.5,0,3.7-0.3l3-0.8l4.4-1.2l0.7-0.2c0.7-0.2,1.4-0.3,2.1-0.3c0.9,0,1.8,0.1,2.7,0.4l3.9,1.3
			l4.1,1.4c0,0,0.1,0,0.1,0c5,1.6,10.6-0.5,13.3-5.1l1.6-2.7l2.3-3.9l0.4-0.7c0.8-1.4,2-2.6,3.5-3.3l3.7-1.8l3.9-1.9
			c0,0,0.1,0,0.1-0.1c4.7-2.4,7.2-7.8,5.8-13l-0.8-3l-1.2-4.4l-0.2-0.7c-0.4-1.6-0.4-3.2,0.2-4.8l1.3-3.9l1.4-4.1c0,0,0-0.1,0-0.1
			C106.8,33.3,104.7,27.7,100.1,25.1z M102.7,35.5c-0.1,0.7-0.2,1.3-0.4,2l-0.7,2.2l-1.9,5.8c-0.7,2.1-0.8,4.3-0.2,6.5l0.8,3
			l1.2,4.4l0.2,0.8c0.8,3.2-0.3,6.4-2.7,8.5c-0.5,0.4-1,0.8-1.7,1.1l-2.1,1l-5.5,2.7c-2,1-3.6,2.5-4.7,4.4l-1.5,2.6l-2.3,3.9
			l-0.4,0.7c-1.5,2.6-4.3,4.2-7.2,4.2c-0.2,0-0.4,0-0.7-0.1c-0.7-0.1-1.3-0.2-2-0.4l-2.2-0.7l-5.8-1.9c-2.1-0.7-4.3-0.8-6.5-0.2
			l-3,0.8L49,88l-0.8,0.2c-3.2,0.8-6.4-0.3-8.5-2.7c-0.4-0.5-0.8-1-1.1-1.7l-1-2.1l-2.7-5.5c-1-2-2.5-3.6-4.4-4.7L27.7,70l-3.9-2.3
			l-0.7-0.4c-2.8-1.6-4.3-4.8-4.1-7.9c0.1-0.7,0.2-1.3,0.4-2l0.7-2.2l1.9-5.8c0.7-2.1,0.8-4.3,0.2-6.5l-0.8-3l-1.2-4.4l-0.2-0.8
			c-0.8-3.2,0.3-6.4,2.7-8.5c0.5-0.4,1-0.8,1.7-1.1l2.1-1l5.5-2.7c2-1,3.6-2.5,4.7-4.4l1.5-2.6l2.3-3.9L41,9.7
			c1.6-2.7,4.7-4.4,7.8-4.1c0,0,0.1,0,0.1,0c0.7,0.1,1.3,0.2,2,0.4l2.2,0.7l5.8,1.9c2.1,0.7,4.3,0.8,6.5,0.2l3-0.8l4.4-1.2l0.8-0.2
			C76.7,5.9,80,7,82,9.4c0.4,0.5,0.8,1,1.1,1.7l1,2.1l2.7,5.5c1,2,2.5,3.6,4.4,4.7l2.6,1.5l3.9,2.3l0.7,0.4
			C101.4,29.2,103,32.4,102.7,35.5z"/>
	</g>
	<path class="st0" d="M80.5,27.1H41.2l4.1,8.6h11.1v26.1h9V35.7h11.1h0l0,0L80.5,27.1z M62.6,33v26.1h-3.5V33H46.7l-1.5-3.2h31.2
		L75,33H62.6z"/>
	<g>
		<path class="st0" d="M46.8,72.5l-0.1,0.4c-0.3,0.1-0.5,0.1-0.7,0.1c-0.2,0-0.5,0-0.9-0.1c-0.3,0-0.6,0-0.8,0c-0.4,0-0.8,0-1.3,0.1
			l0.1-0.3c0.4,0,0.7-0.1,0.9-0.3c0.1-0.1,0.3-0.3,0.3-0.5c0.1-0.2,0.3-1,0.7-2.4l0.8-3.3l0-0.2c-0.2,0-0.4,0-0.6,0
			c-0.8,0-1.4,0.1-1.8,0.2c-0.4,0.2-0.8,0.4-1,0.7c-0.2,0.3-0.3,0.7-0.3,1c0,0.1,0,0.2,0.1,0.4c0,0.1,0.1,0.2,0.3,0.4
			c0.1,0.2,0.2,0.3,0.2,0.4c0,0.1,0,0.2-0.1,0.3c-0.1,0.1-0.2,0.1-0.3,0.1c-0.2,0-0.3-0.1-0.4-0.2c-0.2-0.2-0.2-0.6-0.2-0.9
			c0-0.5,0.2-1,0.5-1.5c0.3-0.5,0.7-0.8,1.3-1.1c0.5-0.3,1.2-0.4,2-0.4c0.4,0,1,0.1,1.8,0.2c0.6,0.1,1,0.1,1.3,0.1
			c0.3,0,0.4,0,0.6-0.1c0.1-0.1,0.2-0.2,0.2-0.3c0,0,0-0.1,0-0.2c0-0.1,0-0.1,0-0.2c0-0.1,0-0.2,0.1-0.3c0.1-0.1,0.2-0.1,0.3-0.1
			c0.1,0,0.2,0,0.3,0.1c0.1,0.1,0.1,0.2,0.1,0.4c0,0.3-0.2,0.6-0.5,0.8c-0.3,0.2-0.9,0.3-1.7,0.3c-0.3,0-0.6,0-0.9,0
			c0,0.1-0.2,0.7-0.4,1.5l-0.5,2.1l-0.3,1.3l-0.3,1.5c0.3,0,0.5,0,0.7,0.1C46.2,72.6,46.5,72.6,46.8,72.5z"/>
		<path class="st0" d="M49.2,72.8l-0.9,0l0.4-1.7c0.2-0.8,0.4-1.6,0.6-2.3c0-0.2,0.1-0.3,0.1-0.3c0-0.1,0-0.1-0.1-0.1
			c-0.1,0-0.2,0-0.3,0.1c-0.1,0.1-0.4,0.3-0.7,0.6L48,68.9c0.4-0.4,0.8-0.7,1.2-1c0.4-0.2,0.7-0.3,0.9-0.3c0.1,0,0.1,0,0.2,0.1
			c0,0,0.1,0.1,0.1,0.1c0,0.1,0,0.2-0.1,0.4L50,69.4c0.4-0.7,0.9-1.2,1.4-1.7c0.3-0.2,0.5-0.3,0.6-0.3c0.1,0,0.2,0,0.3,0.1
			c0.1,0.1,0.1,0.2,0.1,0.3c0,0.1,0,0.2-0.1,0.3c-0.1,0.1-0.3,0.2-0.6,0.3c-0.3,0.1-0.6,0.2-0.7,0.4c-0.2,0.1-0.4,0.4-0.6,0.7
			s-0.4,0.6-0.5,0.8c-0.1,0.2-0.2,0.7-0.4,1.5L49.2,72.8z"/>
		<path class="st0" d="M56.1,67.8l0.9,0L56.4,70c-0.3,1.3-0.5,2-0.5,2.1c0,0.1,0,0.1,0.1,0.2c0,0,0.1,0.1,0.1,0.1
			c0.1,0,0.2,0,0.2-0.1c0.1-0.1,0.4-0.3,0.8-0.7l0.2,0.2c-0.8,0.9-1.4,1.3-1.8,1.3c-0.1,0-0.2-0.1-0.3-0.2c-0.1-0.1-0.1-0.2-0.1-0.4
			c0-0.2,0-0.5,0.1-0.9c-0.4,0.4-0.8,0.8-1.4,1.1C53.4,72.9,53,73,52.8,73c-0.1,0-0.3,0-0.3-0.1c-0.1-0.1-0.1-0.2-0.1-0.5
			c0-0.2,0-0.3,0.1-0.5c0.1-0.3,0.2-0.8,0.4-1.6c0.3-1,0.4-1.6,0.4-1.8c0-0.1,0-0.2-0.1-0.2c-0.1,0-0.2,0-0.3,0.1
			c-0.1,0.1-0.3,0.3-0.7,0.6l-0.3-0.2c0.6-0.5,1-0.8,1.3-1c0.3-0.2,0.5-0.2,0.7-0.2c0.1,0,0.2,0,0.2,0.1c0.1,0.1,0.1,0.2,0.1,0.3
			c0,0.3-0.1,1-0.4,2.1c-0.3,1-0.4,1.6-0.4,1.7c0,0.1,0,0.2,0.1,0.2c0.1,0.1,0.1,0.1,0.2,0.1c0.2,0,0.6-0.2,1-0.6
			c0.4-0.4,0.7-0.8,0.8-1.3L56.1,67.8z"/>
		<path class="st0" d="M60.4,67.7c0.4,0,0.7,0.1,0.8,0.2c0.2,0.1,0.3,0.3,0.3,0.5c0,0.1,0,0.2-0.1,0.3c-0.1,0.1-0.2,0.1-0.3,0.1
			c-0.1,0-0.1,0-0.2-0.1c-0.1,0-0.1-0.1-0.2-0.3c-0.2-0.3-0.4-0.4-0.6-0.4c-0.2,0-0.3,0.1-0.4,0.2c-0.1,0.1-0.2,0.3-0.2,0.5
			c0,0.2,0,0.3,0.1,0.5c0.1,0.2,0.3,0.4,0.6,0.8c0.5,0.5,0.7,0.9,0.7,1.4c0,0.4-0.2,0.8-0.6,1.1c-0.4,0.3-0.8,0.5-1.4,0.5
			c-0.5,0-0.9-0.1-1.1-0.3c-0.2-0.2-0.4-0.4-0.4-0.7c0-0.1,0-0.3,0.1-0.4s0.2-0.1,0.3-0.1c0.1,0,0.2,0,0.3,0.1
			c0.1,0.1,0.1,0.2,0.1,0.3c0,0,0,0.1,0,0.2c0,0.1,0,0.1,0,0.1c0,0.1,0.1,0.3,0.2,0.3c0.1,0.1,0.3,0.1,0.5,0.1c0.2,0,0.4,0,0.6-0.1
			c0.2-0.1,0.3-0.2,0.4-0.3c0.1-0.2,0.1-0.3,0.1-0.5c0-0.1,0-0.3-0.1-0.4c-0.1-0.1-0.3-0.4-0.6-0.7c-0.4-0.5-0.6-0.9-0.6-1.4
			c0-0.4,0.2-0.8,0.5-1.1C59.5,67.8,59.9,67.7,60.4,67.7z"/>
		<path class="st0" d="M63.5,66.7l1-0.4L64,68.1l1.3,0l-0.1,0.4l-1.3,0l-0.5,2.1c-0.2,0.6-0.3,1.1-0.3,1.3c0,0.1,0,0.2,0.1,0.2
			c0,0,0.1,0.1,0.2,0.1c0.1,0,0.3-0.1,0.6-0.2c0.3-0.2,0.7-0.4,1-0.7l0.2,0.3c-0.9,0.7-1.5,1.1-1.8,1.2C63.1,73,62.8,73,62.7,73
			c-0.2,0-0.3-0.1-0.4-0.2c-0.1-0.1-0.1-0.3-0.1-0.5c0-0.3,0.1-0.7,0.2-1.4l0.6-2.5l-1,0l0.1-0.4l1,0L63.5,66.7z"/>
		<path class="st0" d="M68.9,67.7c0.4,0,0.7,0.2,1,0.5s0.4,0.8,0.4,1.3c0,0.9-0.3,1.7-1,2.5c-0.6,0.7-1.3,1.1-2,1.1
			c-0.4,0-0.8-0.1-1.1-0.4c-0.3-0.3-0.4-0.7-0.4-1.2c0-0.9,0.2-1.7,0.7-2.4C67.2,68.1,67.9,67.7,68.9,67.7z M68.3,68.1
			c-0.4,0-0.7,0.2-1,0.8c-0.3,0.5-0.5,1.2-0.5,2.1c0,0.5,0.1,1,0.3,1.3c0.1,0.2,0.3,0.3,0.6,0.3c0.3,0,0.7-0.2,0.9-0.6
			c0.4-0.6,0.5-1.2,0.5-2.1c0-0.6-0.1-1.1-0.2-1.3C68.8,68.3,68.6,68.1,68.3,68.1z"/>
		<path class="st0" d="M72,72.9l-0.9,0l0.4-1.7c0.2-0.8,0.4-1.6,0.6-2.3c0-0.2,0.1-0.3,0.1-0.3c0-0.1,0-0.1-0.1-0.1
			c-0.1,0-0.2,0-0.3,0.1c-0.1,0.1-0.4,0.3-0.7,0.6l-0.2-0.2c0.4-0.4,0.8-0.7,1.2-1c0.4-0.2,0.7-0.3,0.9-0.3c0.1,0,0.1,0,0.2,0.1
			c0,0,0.1,0.1,0.1,0.1c0,0.1,0,0.2-0.1,0.4l-0.3,1.1c0.4-0.7,0.9-1.2,1.4-1.7c0.3-0.2,0.5-0.3,0.6-0.3c0.1,0,0.2,0,0.3,0.1
			c0.1,0.1,0.1,0.2,0.1,0.3c0,0.1,0,0.2-0.1,0.3s-0.3,0.2-0.6,0.3c-0.3,0.1-0.6,0.2-0.7,0.4c-0.2,0.1-0.4,0.4-0.6,0.7
			c-0.2,0.3-0.4,0.6-0.5,0.8c-0.1,0.2-0.2,0.7-0.4,1.5L72,72.9z"/>
		<path class="st0" d="M74.9,69.1l-0.2-0.2c0.5-0.5,0.9-0.8,1.3-1c0.3-0.2,0.6-0.2,0.8-0.2c0.1,0,0.2,0,0.2,0.1c0,0,0.1,0.1,0.1,0.1
			c0,0,0,0.1,0,0.2l-0.3,1.2c0.4-0.5,0.9-0.9,1.6-1.3c0.3-0.2,0.6-0.3,0.8-0.3c0.2,0,0.3,0.1,0.4,0.2c0.1,0.1,0.1,0.3,0.1,0.4
			c0,0.1,0,0.3-0.1,0.4c-0.1,0.3-0.2,0.9-0.5,1.7c-0.3,0.8-0.4,1.4-0.4,1.7c0,0.1,0,0.1,0,0.2c0,0,0.1,0.1,0.1,0.1
			c0.1,0,0.3-0.1,0.6-0.3c0.2-0.2,0.4-0.3,0.5-0.5l0.2,0.2c-0.4,0.4-0.8,0.8-1.2,1C78.6,73,78.4,73,78.2,73c-0.2,0-0.3-0.1-0.4-0.2
			c-0.1-0.1-0.1-0.3-0.1-0.6c0-0.4,0.2-1.3,0.7-2.7c0.1-0.5,0.2-0.8,0.2-0.9c0-0.1-0.1-0.2-0.2-0.2c-0.2,0-0.4,0.1-0.6,0.3
			c-0.4,0.3-0.7,0.6-1,0.9c-0.2,0.2-0.3,0.6-0.4,1.1l-0.5,2.2l-0.9,0c0.2-0.6,0.3-1.2,0.5-1.8l0.6-2.4c0-0.1,0-0.2,0-0.2
			c0-0.1,0-0.2-0.1-0.2c-0.1,0-0.2,0-0.3,0.1C75.3,68.7,75.1,68.9,74.9,69.1z"/>
	</g>
</g>
<g>
	<path id="패스_2020_1_" class="st0" d="M0.9,109.9h4.1v13.5h3.2v-13.5h4.1l0.8-2.8H0L0.9,109.9z"/>
	<path id="패스_2021_1_" class="st0" d="M41.1,116.1c0,0.6-0.1,1.2-0.3,1.8c-0.2,0.5-0.4,1-0.8,1.4c-0.3,0.4-0.8,0.7-1.3,0.9
		c-0.6,0.2-1.2,0.4-1.8,0.3c-0.6,0-1.2-0.1-1.7-0.4c-0.5-0.2-0.9-0.6-1.3-1c-0.3-0.4-0.6-0.9-0.8-1.4c-0.2-0.6-0.3-1.2-0.3-1.8v-9
		h-3.2v9c0,1,0.2,2,0.5,3c0.3,0.9,0.8,1.7,1.5,2.4c0.6,0.7,1.4,1.2,2.3,1.6c1.9,0.8,4.1,0.8,6.1,0c0.9-0.4,1.6-0.9,2.3-1.7
		c0.6-0.7,1.1-1.6,1.4-2.5c0.3-1,0.5-2,0.5-3V107h-3.2L41.1,116.1z"/>
	<path id="패스_2022_1_" class="st0" d="M57.3,116c-0.4-0.4-0.9-0.8-1.4-1.1c-0.7-0.4-1.4-0.7-2.1-0.9c-0.6-0.2-1.2-0.4-1.6-0.6
		c-0.4-0.2-0.7-0.4-1-0.6c-0.2-0.2-0.4-0.4-0.6-0.6c-0.1-0.2-0.2-0.5-0.2-0.7c0-0.2,0.1-0.5,0.2-0.7c0.1-0.2,0.3-0.4,0.5-0.6
		c0.2-0.2,0.4-0.3,0.7-0.4c0.3-0.1,0.6-0.1,0.9-0.1c0.6,0,1.2,0.1,1.8,0.3c0.5,0.2,1,0.5,1.4,0.9l2.2-2.2c-0.7-0.6-1.4-1.1-2.3-1.4
		c-1-0.4-2.1-0.5-3.2-0.5c-0.7,0-1.4,0.1-2.1,0.3c-0.6,0.2-1.2,0.5-1.7,1c-0.5,0.4-0.9,0.9-1.1,1.5c-0.3,0.6-0.4,1.3-0.4,1.9
		c0,0.6,0.1,1.3,0.4,1.9c0.2,0.5,0.6,1,1,1.4c0.4,0.4,0.9,0.7,1.5,1c0.6,0.3,1.1,0.5,1.7,0.7c0.7,0.2,1.2,0.5,1.7,0.7
		c0.4,0.2,0.7,0.4,1,0.6c0.2,0.2,0.4,0.4,0.5,0.6c0.1,0.2,0.1,0.5,0.1,0.7c0,0.2-0.1,0.5-0.2,0.7c-0.1,0.2-0.3,0.4-0.5,0.5
		c-0.2,0.2-0.4,0.3-0.7,0.4c-0.3,0.1-0.6,0.1-0.8,0.1c-0.7,0-1.4-0.1-2-0.3c-0.7-0.3-1.4-0.7-1.9-1.2l-2.2,2.3
		c0.5,0.4,0.9,0.7,1.4,1c0.5,0.3,0.9,0.5,1.4,0.7c0.5,0.2,1.1,0.3,1.6,0.4c0.6,0.1,1.3,0.1,1.9,0.1c0.7,0,1.5-0.1,2.2-0.4
		c0.6-0.2,1.2-0.6,1.7-1c0.5-0.4,0.8-0.9,1.1-1.5c0.3-0.5,0.4-1.1,0.4-1.7c0-0.6-0.1-1.2-0.3-1.7C57.9,116.9,57.6,116.4,57.3,116z"
		/>
	<path id="패스_2023_1_" class="st0" d="M60.5,109.9h4.1v13.5h3.2v-13.5h4.1l0.8-2.8H59.7L60.5,109.9z"/>
	<path id="패스_2024_1_" class="st0" d="M88.1,109.2c-3.4-3.3-8.8-3.3-12.2,0c-0.8,0.8-1.4,1.7-1.9,2.7c-0.9,2.1-0.9,4.5,0,6.6
		c0.4,1,1.1,1.9,1.9,2.7c0.8,0.8,1.7,1.4,2.8,1.8c2.1,0.9,4.6,0.9,6.7,0c1-0.4,2-1,2.8-1.8c0.8-0.8,1.4-1.7,1.9-2.7
		c0.9-2.1,0.9-4.5,0-6.6C89.6,110.9,88.9,110,88.1,109.2z M87.1,117.3c-0.3,0.7-0.7,1.2-1.2,1.7c-0.5,0.5-1.1,0.9-1.7,1.2
		c-0.7,0.3-1.4,0.4-2.1,0.4c-0.7,0-1.5-0.1-2.1-0.4c-0.7-0.3-1.2-0.7-1.7-1.2c-0.5-0.5-0.9-1.1-1.2-1.7c-0.6-1.3-0.6-2.9,0-4.2
		c0.3-0.6,0.7-1.2,1.2-1.7c0.5-0.5,1.1-0.9,1.7-1.2c0.7-0.3,1.4-0.4,2.1-0.4c0.7,0,1.5,0.1,2.1,0.4c0.7,0.3,1.2,0.7,1.7,1.2
		c0.5,0.5,0.9,1.1,1.2,1.7C87.7,114.4,87.7,116,87.1,117.3z"/>
	<path id="패스_2026_1_" class="st0" d="M26.7,121.4c-0.1-0.4-0.2-0.7-0.3-1c-0.1-0.3-0.2-0.6-0.3-0.8l-0.3-0.7
		c-0.1-0.2-0.2-0.5-0.3-0.7c-0.2-0.5-0.4-0.9-0.8-1.3c-0.3-0.4-0.8-0.7-1.3-0.8c0.4-0.1,0.9-0.4,1.2-0.7c0.4-0.3,0.7-0.6,1-1
		c0.3-0.4,0.5-0.8,0.6-1.2c0.1-0.4,0.2-0.9,0.2-1.4c0-0.6-0.1-1.3-0.4-1.9c-0.2-0.6-0.6-1.1-1-1.5c-0.4-0.4-1-0.8-1.5-1
		c-0.6-0.2-1.3-0.4-1.9-0.4h-6.4v16.3h3.1v-6.5h1.2c0.4,0,0.9,0.1,1.3,0.2c0.3,0.1,0.7,0.3,0.9,0.6c0.3,0.3,0.5,0.6,0.7,0.9
		c0.2,0.4,0.3,0.7,0.5,1.1l1.2,3.7h3.5c-0.2-0.3-0.3-0.6-0.4-0.8C26.9,122.2,26.8,121.8,26.7,121.4z M23.2,113
		c-0.1,0.3-0.3,0.6-0.6,0.8c-0.3,0.2-0.5,0.4-0.9,0.5c-0.3,0.1-0.7,0.2-1.1,0.2h-2.3v-5.1h2.3c0.4,0,0.7,0.1,1.1,0.2
		c0.3,0.1,0.6,0.3,0.9,0.5c0.2,0.2,0.4,0.5,0.6,0.8c0.1,0.3,0.2,0.7,0.2,1C23.4,112.3,23.3,112.7,23.2,113L23.2,113z"/>
	<path id="패스_2025_2_" class="st0" d="M118.6,107v10.7l-6.9-10.7h-3.6v16.3h3.1v-11.5l7.4,11.5h3.1V107H118.6z"/>
	<path id="패스_2026_2_" class="st0" d="M105.1,121.4c-0.1-0.4-0.2-0.7-0.3-1c-0.1-0.3-0.2-0.6-0.3-0.8l-0.3-0.7
		c-0.1-0.2-0.2-0.5-0.3-0.7c-0.2-0.5-0.4-0.9-0.8-1.3c-0.3-0.4-0.8-0.7-1.3-0.8c0.4-0.1,0.9-0.4,1.2-0.7c0.4-0.3,0.7-0.6,1-1
		c0.3-0.4,0.5-0.8,0.6-1.2c0.1-0.4,0.2-0.9,0.2-1.4c0-0.6-0.1-1.3-0.4-1.9c-0.2-0.6-0.6-1.1-1-1.5c-0.4-0.4-1-0.8-1.5-1
		c-0.6-0.2-1.3-0.4-1.9-0.4h-6.4v16.3h3.1v-6.5H98c0.4,0,0.9,0.1,1.3,0.2c0.3,0.1,0.7,0.3,0.9,0.6c0.3,0.3,0.5,0.6,0.7,0.9
		c0.2,0.4,0.3,0.7,0.5,1.1l1.2,3.7h3.5c-0.2-0.3-0.3-0.6-0.4-0.8C105.4,122.2,105.2,121.8,105.1,121.4z M101.6,113
		c-0.1,0.3-0.3,0.6-0.6,0.8c-0.3,0.2-0.5,0.4-0.9,0.5c-0.3,0.1-0.7,0.2-1.1,0.2h-2.3v-5.1h2.3c0.4,0,0.7,0.1,1.1,0.2
		c0.3,0.1,0.6,0.3,0.9,0.5c0.2,0.2,0.4,0.5,0.6,0.8c0.1,0.3,0.2,0.7,0.2,1C101.8,112.3,101.7,112.7,101.6,113L101.6,113z"/>
</g>
</svg>
