<?xml version="1.0" encoding="utf-8"?>
<!-- Generator: Adobe Illustrator 24.0.0, SVG Export Plug-In . SVG Version: 6.00 Build 0)  -->
<svg version="1.1" id="레이어_1" xmlns="http://www.w3.org/2000/svg" xmlns:xlink="http://www.w3.org/1999/xlink" x="0px"
	 y="0px" viewBox="0 0 122.6 28" style="enable-background:new 0 0 122.6 28;" xml:space="preserve">
<style type="text/css">
	.st0{fill:#FFFFFF;}
</style>
<g id="logo_sidemenu" transform="translate(-424.411 -3633.554)">
	<g id="그룹_109" transform="translate(455.732 3641.19)">
		<path id="패스_2020" class="st0" d="M0.6,2.4h3.1v10.1h2.4V2.4h3.1l0.6-2.1H0L0.6,2.4z"/>
		<path id="패스_2021" class="st0" d="M30.8,7c0,0.5-0.1,0.9-0.2,1.3c-0.1,0.4-0.3,0.7-0.6,1.1c-0.3,0.3-0.6,0.5-1,0.7
			c-0.4,0.2-0.9,0.3-1.4,0.3c-0.5,0-0.9-0.1-1.3-0.3c-0.4-0.2-0.7-0.4-1-0.7c-0.3-0.3-0.5-0.7-0.6-1.1c-0.1-0.4-0.2-0.9-0.2-1.3V0.2
			h-2.4V7c0,0.8,0.1,1.5,0.4,2.3c0.2,0.7,0.6,1.3,1.1,1.8c0.5,0.5,1.1,0.9,1.7,1.2c1.5,0.6,3.1,0.6,4.6,0c0.6-0.3,1.2-0.7,1.7-1.2
			c0.5-0.5,0.8-1.2,1.1-1.8c0.2-0.7,0.4-1.5,0.4-2.3V0.2h-2.4L30.8,7z"/>
		<path id="패스_2022" class="st0" d="M42.9,7c-0.3-0.3-0.7-0.6-1.1-0.8c-0.5-0.3-1-0.5-1.6-0.7c-0.5-0.2-0.9-0.3-1.2-0.5
			c-0.3-0.1-0.5-0.3-0.8-0.4C38.1,4.4,38,4.2,37.9,4c-0.1-0.2-0.1-0.3-0.1-0.5c0-0.2,0-0.3,0.1-0.5c0.1-0.2,0.2-0.3,0.3-0.4
			c0.2-0.1,0.3-0.2,0.5-0.3c0.2-0.1,0.4-0.1,0.7-0.1c0.5,0,0.9,0.1,1.3,0.2c0.4,0.2,0.7,0.4,1,0.7l1.7-1.7c-0.5-0.5-1.1-0.8-1.7-1.1
			C41,0.1,40.1,0,39.3,0c-0.5,0-1.1,0.1-1.6,0.3c-0.5,0.2-0.9,0.4-1.3,0.7c-0.4,0.3-0.7,0.7-0.9,1.1c-0.2,0.4-0.3,0.9-0.3,1.4
			c0,0.5,0.1,1,0.3,1.4c0.2,0.4,0.4,0.7,0.8,1c0.3,0.3,0.7,0.6,1.1,0.8c0.4,0.2,0.9,0.4,1.3,0.6c0.5,0.2,0.9,0.3,1.3,0.5
			c0.3,0.1,0.5,0.3,0.8,0.4c0.2,0.1,0.3,0.3,0.4,0.4c0.1,0.2,0.1,0.3,0.1,0.5c0,0.2,0,0.3-0.1,0.5c-0.1,0.2-0.2,0.3-0.4,0.4
			c-0.2,0.1-0.3,0.2-0.5,0.3c-0.2,0.1-0.4,0.1-0.6,0.1c-0.5,0-1-0.1-1.5-0.3c-0.5-0.2-1-0.5-1.4-0.9L35,11.1
			c0.3,0.3,0.7,0.5,1.1,0.8c0.3,0.2,0.7,0.4,1.1,0.5c0.4,0.1,0.8,0.2,1.2,0.3c0.5,0.1,1,0.1,1.4,0.1c0.6,0,1.1-0.1,1.6-0.3
			c0.5-0.2,0.9-0.4,1.3-0.8c0.3-0.3,0.6-0.7,0.8-1.1c0.2-0.4,0.3-0.9,0.3-1.3c0-0.4-0.1-0.9-0.2-1.3C43.4,7.6,43.2,7.3,42.9,7z"/>
		<path id="패스_2023" class="st0" d="M45.4,2.4h3.1v10.1h2.4V2.4h3.1l0.6-2.1h-9.8L45.4,2.4z"/>
		<path id="패스_2024" class="st0" d="M66.1,1.9c-2.6-2.5-6.6-2.5-9.2,0c-0.6,0.6-1.1,1.3-1.4,2c-0.7,1.6-0.7,3.4,0,5
			c0.3,0.8,0.8,1.4,1.4,2c0.6,0.6,1.3,1,2.1,1.4c1.6,0.7,3.4,0.7,5,0c0.8-0.3,1.5-0.8,2.1-1.4c0.6-0.6,1.1-1.3,1.4-2
			c0.7-1.6,0.7-3.4,0-5C67.2,3.1,66.7,2.4,66.1,1.9z M65.3,7.9c-0.2,0.5-0.5,0.9-0.9,1.3c-0.4,0.4-0.8,0.7-1.3,0.9
			c-0.5,0.2-1,0.3-1.6,0.3c-0.6,0-1.1-0.1-1.6-0.3c-0.5-0.2-0.9-0.5-1.3-0.9c-0.4-0.4-0.7-0.8-0.9-1.3c-0.4-1-0.4-2.2,0-3.2
			c0.2-0.5,0.5-0.9,0.9-1.3c0.4-0.4,0.8-0.7,1.3-0.9c0.5-0.2,1.1-0.3,1.6-0.3c0.6,0,1.1,0.1,1.6,0.3c0.5,0.2,0.9,0.5,1.3,0.9
			c0.4,0.4,0.7,0.8,0.9,1.3C65.7,5.8,65.7,6.9,65.3,7.9z"/>
		<path id="패스_2026" class="st0" d="M20,11c-0.1-0.3-0.2-0.5-0.3-0.7s-0.1-0.4-0.2-0.6l-0.2-0.5c-0.1-0.2-0.1-0.3-0.2-0.5
			c-0.1-0.4-0.3-0.7-0.6-1C18.3,7.3,18,7.1,17.6,7c0.3-0.1,0.6-0.3,0.9-0.5C18.8,6.3,19,6,19.3,5.7c0.2-0.3,0.4-0.6,0.5-0.9
			c0.1-0.3,0.2-0.7,0.2-1c0-0.5-0.1-1-0.3-1.4c-0.2-0.4-0.4-0.8-0.8-1.1c-0.3-0.3-0.7-0.6-1.2-0.7c-0.5-0.2-1-0.3-1.5-0.3h-4.8v12.3
			h2.3V7.6h0.9c0.3,0,0.6,0,1,0.2c0.3,0.1,0.5,0.2,0.7,0.4c0.2,0.2,0.4,0.4,0.5,0.7c0.1,0.3,0.3,0.6,0.3,0.8l0.9,2.8h2.6
			c-0.1-0.2-0.2-0.4-0.3-0.6C20.2,11.6,20.1,11.3,20,11z M17.4,4.7c-0.1,0.2-0.3,0.4-0.4,0.6c-0.2,0.2-0.4,0.3-0.7,0.4
			c-0.3,0.1-0.5,0.1-0.8,0.1h-1.7V2h1.7c0.3,0,0.5,0,0.8,0.1c0.2,0.1,0.5,0.2,0.7,0.4c0.2,0.2,0.3,0.4,0.4,0.6
			c0.1,0.2,0.2,0.5,0.2,0.8C17.5,4.2,17.5,4.5,17.4,4.7L17.4,4.7z"/>
	</g>
	<g id="그룹_113" transform="translate(424.411 3633.554)">
		<g id="그룹_110" transform="translate(8.431 19.494)">
			<path id="패스_2027" class="st0" d="M2.4,1c0.1-0.2,0.2-0.3,0.3-0.5c0.1-0.1,0.2-0.2,0.3-0.3c0.1-0.1,0.3-0.1,0.4-0.1h0.2
				c0,0,0.1,0,0.1,0c0,0,0.1,0,0.1,0c0,0,0,0,0-0.1c0,0,0-0.1,0-0.1c0,0-0.1,0-0.1,0c0,0-0.1,0-0.1,0C3.6,0,3.6,0,3.5,0
				C3.4,0,3.3,0,3.2,0S3,0,2.9,0C2.5,0,2.1,0,1.7,0.1C1.5,0.2,1.2,0.2,1,0.4C0.8,0.4,0.7,0.6,0.6,0.7C0.5,0.8,0.5,0.9,0.5,1.1
				c0,0.1,0.1,0.3,0.2,0.4c0.1,0.1,0.3,0.2,0.5,0.1c0.1,0,0.3,0,0.4-0.1c0.1,0,0.2-0.1,0.3-0.2c0.1-0.1,0.1-0.1,0.2-0.2
				C2,1,2,0.9,2,0.8V0.8c0,0,0,0,0-0.1h0c0,0,0,0,0,0.1v0.1c0,0.1,0,0.2-0.1,0.3c0,0.1-0.1,0.2-0.2,0.2C1.6,1.4,1.5,1.4,1.4,1.5
				c-0.1,0-0.2,0.1-0.4,0.1c-0.2,0-0.3,0-0.4-0.1C0.6,1.3,0.5,1.2,0.5,1.1c0-0.1,0-0.3,0.1-0.4C0.7,0.6,0.9,0.5,1,0.4
				c0.2-0.1,0.4-0.2,0.6-0.2c0.3,0,0.6-0.1,0.8-0.1c0.1,0,0.2,0,0.4,0c0.1,0,0.3,0,0.4,0v0c-0.1,0-0.3,0.1-0.4,0.2
				C2.7,0.5,2.6,0.6,2.5,0.7C2.4,0.8,2.3,0.9,2.2,1C2.1,1.2,2,1.3,1.9,1.5C1.9,1.6,1.8,1.7,1.7,1.9C1.6,2,1.5,2.1,1.4,2.2
				C1.3,2.3,1.2,2.4,1.1,2.5C1,2.5,0.8,2.6,0.7,2.6c-0.1,0-0.3,0-0.4-0.1C0.2,2.4,0.2,2.3,0.2,2.2c0,0,0,0,0,0c0,0,0.1,0,0.1,0
				c0,0,0-0.1,0-0.1c0-0.1-0.1-0.1-0.1-0.1c0,0,0,0,0,0C0.1,1.9,0.1,2,0.1,2c0,0,0,0.1,0,0.1c0,0.1,0,0.2,0.1,0.2
				c0,0.1,0.1,0.1,0.2,0.1c0.1,0,0.1,0.1,0.2,0.1c0.1,0,0.1,0,0.2,0c0.2,0,0.3,0,0.5-0.1c0.1-0.1,0.3-0.1,0.4-0.2
				C1.6,2.2,1.7,2.1,1.8,2C1.9,1.9,2,1.8,2,1.7C2.2,1.4,2.3,1.2,2.4,1z"/>
			<path id="패스_2028" class="st0" d="M3.7,1.7c0,0-0.1,0-0.1,0.1c0,0-0.1,0-0.1,0c0,0-0.1,0-0.1,0c0,0,0-0.1,0-0.1
				c0-0.1,0-0.1,0.1-0.2c0-0.1,0.1-0.1,0.1-0.2l-0.1,0H3.4c0,0-0.1,0-0.1,0c0,0,0,0,0,0.1c-0.1,0-0.1,0.1-0.2,0.2
				C3,1.5,2.9,1.6,2.9,1.6C2.8,1.7,2.7,1.8,2.7,1.8S2.6,1.9,2.6,2l0,0L3,1.3H2.8C2.7,1.5,2.5,1.7,2.4,1.9C2.3,2.1,2.1,2.3,2,2.5h0.2
				c0-0.1,0.1-0.2,0.1-0.3c0-0.1,0.1-0.1,0.2-0.2c0.1-0.2,0.3-0.3,0.4-0.4C3,1.5,3.1,1.5,3.2,1.4l0,0c0,0,0,0.1,0,0.2
				c0,0.1,0,0.1,0.1,0.2c0.1,0,0.1,0.1,0.2,0.1c0,0,0.1,0,0.1,0C3.6,1.8,3.7,1.8,3.7,1.7C3.7,1.7,3.8,1.7,3.7,1.7
				C3.8,1.7,3.7,1.7,3.7,1.7z"/>
			<path id="패스_2029" class="st0" d="M4.8,2.3C4.8,2.4,4.7,2.4,4.6,2.5c-0.1,0-0.1,0.1-0.2,0.1c0,0-0.1,0-0.1,0c0,0,0,0,0-0.1
				c0-0.1,0-0.1,0-0.1c0-0.1,0.1-0.1,0.1-0.2C4.6,2,4.7,1.9,4.8,1.7l0.3-0.5H4.8L4.5,1.8c0,0,0,0.1-0.1,0.1S4.4,2,4.3,2
				S4.2,2.1,4.2,2.2C4.1,2.3,4,2.3,4,2.4c-0.1,0-0.1,0.1-0.2,0.1c0,0-0.1,0-0.2,0c0,0-0.1,0-0.1,0c0,0,0-0.1,0-0.1
				c0-0.1,0-0.1,0.1-0.2c0-0.1,0.1-0.2,0.2-0.3C3.8,1.9,3.9,1.8,4,1.6c0.1-0.1,0.2-0.2,0.3-0.4H4.1C4,1.4,3.9,1.5,3.8,1.6l0,0
				c0,0,0,0,0,0l0.1-0.1l0,0c0,0-0.1,0.1-0.1,0.1c0,0-0.1,0.1-0.1,0.1l0,0C3.7,1.8,3.6,1.9,3.6,1.9C3.5,2,3.5,2.1,3.4,2.2
				c0,0.1,0,0.1,0,0.2c0,0,0,0.1,0.1,0.1c0,0,0.1,0.1,0.2,0.1c0.1,0,0.1,0,0.2,0c0.1,0,0.1-0.1,0.2-0.1c0.1,0,0.1-0.1,0.2-0.1
				c0.1-0.1,0.1-0.1,0.2-0.2l0,0c0,0,0,0.1,0,0.1c0,0,0,0.1,0,0.1c0,0.1,0,0.1,0.1,0.2c0,0,0.1,0.1,0.2,0.1c0.1,0,0.1,0,0.2-0.1
				C4.7,2.5,4.8,2.4,4.8,2.3c0.1,0,0.1,0,0.1-0.1c0,0,0,0,0,0C4.9,2.3,4.9,2.3,4.8,2.3z"/>
			<path id="패스_2030" class="st0" d="M5.1,2.1C5.1,2.1,5.1,2.1,5.1,2.1C5.1,2.1,5.1,2.1,5.1,2.1L5.1,2.1L5.1,2.1L5.1,2.1z"/>
			<path id="패스_2031" class="st0" d="M3.8,1.6C3.9,1.6,3.9,1.6,3.8,1.6L3.8,1.6L3.8,1.6L3.8,1.6c-0.1,0-0.1,0.1-0.1,0.1l0,0
				C3.8,1.7,3.8,1.7,3.8,1.6z"/>
			<path id="패스_2032" class="st0" d="M5.2,2C5.2,2,5.2,1.9,5.2,2C5.1,1.9,5.1,2,5,2C5,2.1,5,2.1,5,2.2c0,0,0,0,0,0
				c0,0,0.1-0.1,0.1-0.1C5.1,2.1,5.2,2,5.2,2z"/>
			<path id="패스_2033" class="st0" d="M6.2,2.2C6.1,2.3,6,2.3,5.9,2.4C5.8,2.5,5.7,2.5,5.5,2.5l0,0c0,0,0.1,0,0.1,0
				c0,0,0.1-0.1,0.1-0.1c0,0,0.1-0.1,0.1-0.1c0,0,0-0.1,0-0.1c0-0.1,0-0.1,0-0.2c0-0.1,0-0.1-0.1-0.2c0,0,0-0.1-0.1-0.1
				c0-0.1,0-0.1,0-0.2c0-0.1,0-0.1,0.1-0.2c0,0,0.1-0.1,0.2-0.1c0,0,0.1,0,0.1,0.1c0,0,0,0.1,0,0.1c0,0,0,0.1,0,0.1c0,0,0,0.1,0,0.1
				c0.1,0,0.1,0,0.2,0c0,0,0.1-0.1,0.1-0.1c0-0.1,0-0.1-0.1-0.2C6.1,1.2,6,1.2,5.9,1.2c-0.1,0-0.1,0-0.2,0c0,0-0.1,0-0.1,0.1
				c0,0-0.1,0.1-0.1,0.1c0,0,0,0.1,0,0.1l0,0l0,0l0,0.1c0,0,0,0.1,0,0.1c0,0,0,0.1,0.1,0.1S5.6,2,5.7,2c0,0,0,0.1,0,0.1
				c0,0,0,0.1,0,0.1c0,0,0,0.1-0.1,0.1c0,0-0.1,0.1-0.1,0.1c0,0-0.1,0-0.1,0c-0.1,0-0.2,0-0.2-0.1C5.1,2.4,5,2.3,5,2.3
				c0,0,0-0.1,0-0.1C5,2.2,5,2.2,5,2.3c0,0,0,0.1,0,0.1c0,0,0.1,0.1,0.1,0.1c0,0,0.1,0.1,0.1,0.1c0.1,0,0.1,0,0.2,0
				c0.2,0,0.3,0,0.4-0.1C6,2.4,6.1,2.3,6.2,2.2c0,0,0.1-0.1,0.1-0.1c0,0,0-0.1,0.1-0.1C6.4,2,6.3,2.1,6.2,2.2z"/>
			<path id="패스_2034" class="st0" d="M5.5,1.6L5.5,1.6L5.5,1.6L5.5,1.6C5.5,1.6,5.5,1.6,5.5,1.6C5.5,1.6,5.5,1.6,5.5,1.6z"/>
			<path id="패스_2035" class="st0" d="M5.1,2.2C5.1,2.1,5.1,2.1,5.1,2.2C5.1,2.1,5.1,2.1,5.1,2.2L5.3,2c0,0,0,0,0,0
				C5.2,2,5.1,2.1,5.1,2.2c0,0-0.1,0-0.1,0C5,2.2,5,2.2,5.1,2.2C5,2.2,5,2.2,5.1,2.2L5.1,2.2z"/>
			<path id="패스_2036" class="st0" d="M7.3,2.2C7.2,2.3,7,2.3,6.9,2.4C6.8,2.5,6.7,2.5,6.6,2.5c0,0-0.1,0-0.1,0
				c0,0-0.1-0.1,0-0.1c0-0.1,0-0.1,0-0.2c0-0.1,0.1-0.1,0.1-0.2c0.1-0.1,0.1-0.2,0.2-0.3S7,1.5,7.1,1.3h0.5l0,0H7.1l0.3-0.4H7.2
				L6.9,1.3H6.7l0,0h0.2C6.8,1.4,6.8,1.5,6.7,1.6C6.6,1.7,6.6,1.8,6.5,1.9c0,0,0,0.1,0,0.1c0,0,0.1-0.1,0.1-0.1
				c0.1-0.1,0.2-0.2,0.2-0.3l0,0C6.7,1.7,6.6,1.8,6.5,1.9c0,0-0.1,0.1-0.1,0.1c0,0,0,0,0,0c0,0.1,0,0.1,0,0.2c0,0.1,0,0.1,0.1,0.2
				c0.1,0,0.1,0.1,0.2,0.1c0.1,0,0.2,0,0.3-0.1C7,2.4,7.1,2.3,7.3,2.2c0.1,0,0.1-0.1,0.2-0.2c0,0,0-0.1,0-0.1C7.4,2,7.3,2.1,7.3,2.2
				z"/>
			<path id="패스_2037" class="st0" d="M6.8,1.6L6.8,1.6C6.7,1.7,6.6,1.8,6.5,1.9c0,0-0.1,0.1-0.1,0.1s0,0.1-0.1,0.1
				c0,0,0.1-0.1,0.1-0.1C6.6,1.8,6.7,1.7,6.8,1.6z"/>
			<path id="패스_2038" class="st0" d="M9.3,1.7c-0.1,0-0.1,0.1-0.2,0.1c-0.1,0-0.1,0-0.2-0.1c0,0-0.1-0.1-0.1-0.2
				c0-0.1,0-0.2-0.1-0.2C8.6,1.3,8.5,1.2,8.4,1.2c-0.1,0-0.2,0-0.3,0.1C8.1,1.3,8,1.4,7.9,1.4C7.9,1.5,7.8,1.5,7.7,1.6
				C7.7,1.7,7.6,1.7,7.6,1.8c0,0,0,0.1,0,0.1c0,0,0,0,0,0c0.1-0.1,0.2-0.2,0.2-0.3l0,0C7.7,1.7,7.7,1.8,7.6,1.9c0,0-0.1,0.1-0.1,0.1
				c0,0,0,0,0,0c0,0.1,0,0.1,0,0.2c0,0.1,0,0.2,0.1,0.2c0.1,0.1,0.2,0.1,0.2,0.1c0.1,0,0.2,0,0.3-0.1c0.1-0.1,0.2-0.1,0.3-0.2
				C8.5,2.2,8.6,2.1,8.6,2c0.1-0.1,0.1-0.2,0.1-0.3h0c0,0,0.1,0.1,0.1,0.1c0.1,0,0.1,0,0.2,0C9.1,1.8,9.2,1.8,9.3,1.7L9.3,1.7
				L9.3,1.7C9.3,1.7,9.3,1.7,9.3,1.7z M8.5,1.7c0,0.1-0.1,0.2-0.1,0.2c0,0.1-0.1,0.2-0.1,0.2c0,0.1-0.1,0.1-0.2,0.2
				C8.1,2.4,8,2.4,8,2.5c-0.1,0-0.1,0.1-0.2,0.1c0,0-0.1,0-0.1-0.1c0,0,0-0.1,0-0.2c0-0.1,0-0.1,0-0.2c0-0.1,0.1-0.2,0.1-0.2
				c0-0.1,0.1-0.2,0.1-0.2C7.9,1.6,8,1.5,8.1,1.5c0.1-0.1,0.1-0.1,0.2-0.1c0.1,0,0.1,0,0.2-0.1c0,0,0.1,0,0.1,0.1c0,0,0,0.1,0,0.1
				C8.6,1.5,8.6,1.6,8.5,1.7L8.5,1.7z"/>
			<path id="패스_2039" class="st0" d="M7.8,1.6L7.8,1.6C7.7,1.6,7.7,1.7,7.6,1.9c0,0,0,0,0,0s0,0.1,0,0.1c0,0,0.1-0.1,0.1-0.1
				C7.7,1.8,7.7,1.7,7.8,1.6z"/>
			<path id="패스_2040" class="st0" d="M11,1.7c0,0.1-0.1,0.1-0.1,0.2S10.8,1.9,10.7,2s-0.1,0.1-0.2,0.2c-0.1,0.1-0.2,0.2-0.3,0.3
				c-0.1,0-0.2,0.1-0.3,0.1c-0.1,0-0.1,0-0.1-0.1c0,0,0,0,0,0c0,0,0-0.1,0-0.1c0,0,0.1-0.1,0.1-0.2S10.2,2,10.2,2s0.1-0.1,0.1-0.2
				c0-0.1,0.1-0.1,0.1-0.2c0,0,0-0.1,0-0.1c0-0.1,0-0.1-0.1-0.2c0,0-0.1-0.1-0.2-0.1c-0.1,0-0.2,0-0.3,0.1C9.9,1.4,9.8,1.4,9.8,1.5
				C9.7,1.6,9.6,1.6,9.5,1.7L9.4,1.9l0,0l0.5-0.7l-0.2,0C9.5,1.4,9.5,1.4,9.4,1.6L9.3,1.7c0,0,0.1-0.1,0.1-0.1l0,0
				C9.4,1.7,9.4,1.7,9.3,1.8L9.2,1.9L9,2.2C8.9,2.3,8.8,2.4,8.8,2.5H9c0-0.1,0.1-0.1,0.1-0.2c0.1-0.1,0.1-0.2,0.2-0.3
				C9.4,2,9.5,1.9,9.5,1.8c0.1-0.1,0.2-0.2,0.2-0.3C9.9,1.5,9.9,1.4,10,1.3c0.1,0,0.1-0.1,0.2-0.1c0,0,0.1,0,0.1,0c0,0,0,0,0,0.1
				c0,0.1,0,0.2-0.1,0.2c-0.1,0.1-0.1,0.2-0.2,0.3C10,1.9,9.9,2,9.9,2.1C9.8,2.2,9.8,2.3,9.8,2.3c0,0.1,0,0.1,0.1,0.2
				c0.1,0,0.1,0.1,0.2,0.1c0.1,0,0.1,0,0.2,0c0.1,0,0.1-0.1,0.2-0.1c0.1,0,0.1-0.1,0.2-0.1c0.1-0.1,0.1-0.1,0.2-0.2
				c0.1-0.1,0.2-0.2,0.3-0.3s0.1-0.2,0.2-0.3l0,0C11.1,1.6,11.1,1.6,11,1.7z"/>
			<path id="패스_2041" class="st0" d="M9.4,1.6c0,0-0.1,0.1-0.1,0.1L9.3,1.8C9.4,1.7,9.4,1.7,9.4,1.6L9.4,1.6z"/>
		</g>
		<g id="그룹_112" transform="translate(0 0)">
			<g id="그룹_111">
				<path id="패스_2042" class="st0" d="M14.6,1.2c0.2,0.1,0.4,0.2,0.5,0.3l0,0l1.3-0.3l-0.7-0.5c-1.3-1-3-0.9-4.3,0.1l1.3,0.4
					C13.4,1,14,1,14.6,1.2z"/>
				<path id="패스_2043" class="st0" d="M27.2,11.5l-0.4,1.3c0.3,0.8,0.2,1.7-0.3,2.3l0,0l0.3,1.3l0.5-0.7
					C28.3,14.5,28.2,12.7,27.2,11.5z"/>
				<path id="패스_2044" class="st0" d="M22,23.6L22,23.6l-0.7,1.2l0.9-0.1c1.6-0.2,2.8-1.5,3-3.1l-1.2,0.6
					C23.6,22.9,22.9,23.5,22,23.6z"/>
				<path id="패스_2045" class="st0" d="M23.6,6L23.6,6l1.2,0.7l-0.1-0.9c-0.2-1.6-1.5-2.8-3.1-3l0.6,1.2
					C22.9,4.4,23.5,5.1,23.6,6z"/>
				<path id="패스_2046" class="st0" d="M2.9,6.4l1.2-0.6c0.3-0.8,1-1.3,1.9-1.4l0.1,0l0.7-1.2L5.8,3.4C4.2,3.6,3,4.9,2.9,6.4z"/>
				<path id="패스_2047" class="st0" d="M25,8.3L25,8.3l-1.2-0.7l0.1,0.9c0.1,0.7,0.4,1.3,0.8,1.8l1.1,1.3l0.2-0.5
					c0.1-0.2,0.1-0.5,0.1-0.7l-0.6-0.7C25.2,9.2,25,8.8,25,8.3z"/>
				<path id="패스_2048" class="st0" d="M12.9,26.5L12.9,26.5l-1.3,0.3l0.7,0.5c1.3,1,3,0.9,4.3-0.1l-1.3-0.4
					C14.4,27.1,13.6,27,12.9,26.5z"/>
				<path id="패스_2049" class="st0" d="M4.1,19.6c-0.1-0.7-0.4-1.3-0.8-1.8l-1.1-1.3L1.9,17c-0.1,0.2-0.1,0.5-0.1,0.7l0.6,0.7
					C2.8,18.8,3,19.3,3,19.7v0l1.2,0.7L4.1,19.6z"/>
				<path id="패스_2050" class="st0" d="M0.7,12.3c-1,1.3-0.9,3,0.1,4.3l0.4-1.3c-0.3-0.8-0.2-1.7,0.3-2.3l0,0l-0.3-1.3L0.7,12.3z
					"/>
				<path id="패스_2051" class="st0" d="M10.9,25c-0.5-0.4-1.2-0.6-1.8-0.7l-1.7-0.1l0.3,0.5c0.1,0.2,0.3,0.4,0.4,0.6l1,0.1
					c0.5,0,0.9,0.2,1.3,0.5l0,0l1.3-0.3L10.9,25z"/>
				<path id="패스_2052" class="st0" d="M25,17.1c-0.4,0.5-0.6,1.2-0.7,1.8l-0.1,1.7l0.5-0.3c0.2-0.1,0.4-0.3,0.6-0.4l0.1-1
					c0-0.5,0.2-0.9,0.5-1.3l0,0l-0.3-1.3L25,17.1z"/>
				<path id="패스_2053" class="st0" d="M17.8,24.7l-1.3,1.1l0.5,0.2c0.2,0.1,0.5,0.1,0.7,0.1l0.7-0.6c0.3-0.3,0.8-0.5,1.2-0.6h0
					l0.7-1.2l-0.9,0.1C18.9,24,18.3,24.3,17.8,24.7z"/>
				<path id="패스_2054" class="st0" d="M4.4,22L4.4,22l-1.2-0.7l0.1,0.9c0.2,1.2,1,2.2,2.1,2.7c0.3,0.1,0.7,0.2,1,0.3l-0.6-1.2
					C5.1,23.6,4.5,22.9,4.4,22z"/>
				<path id="패스_2055" class="st0" d="M10.2,3.3l1.3-1.1L11,1.9c-0.2-0.1-0.4-0.1-0.6-0.1c-0.1,0-0.1,0-0.2,0L9.5,2.5
					C9.2,2.8,8.7,3,8.3,3h0L7.6,4.2l0.8-0.1C9.1,4,9.7,3.7,10.2,3.3z"/>
				<path id="패스_2056" class="st0" d="M20,2.8l-1-0.1c-0.5,0-0.9-0.2-1.3-0.5l0,0l-1.3,0.3L17.1,3c0.5,0.4,1.2,0.6,1.8,0.7
					l1.7,0.1l-0.3-0.5C20.3,3.1,20.1,2.9,20,2.8z"/>
				<path id="패스_2057" class="st0" d="M3,10.9c0.4-0.5,0.6-1.2,0.7-1.8l0.1-1.7L3.4,7.6C3.1,7.7,2.9,7.9,2.8,8L2.7,9
					c0,0.5-0.2,0.9-0.5,1.3l0,0l0.3,1.3L3,10.9z"/>
			</g>
			<path id="패스_2058" class="st0" d="M25.6,7.4l-0.8-0.5l-1.2-0.7l-0.2-0.1c-0.4-0.2-0.8-0.6-1-1L21.9,4l-0.6-1.1c0,0,0,0,0,0
				c-0.7-1.4-2.3-2.1-3.8-1.7l-0.9,0.2l-1.3,0.3l-0.2,0.1c-0.5,0.1-1,0.1-1.4,0l-1.2-0.4l-1.2-0.4l0,0C9.8,0.4,8.2,1.1,7.4,2.4
				L6.9,3.2L6.3,4.4L6.1,4.6c-0.2,0.4-0.6,0.8-1,1L4,6.1L2.9,6.7l0,0C1.5,7.4,0.7,9,1.1,10.5l0.2,0.9l0.3,1.3l0.1,0.2
				c0.1,0.5,0.1,1,0,1.4l-0.4,1.2l-0.4,1.2c0,0,0,0,0,0c-0.5,1.5,0.1,3.1,1.5,3.9l0.8,0.5l1.2,0.7l0.2,0.1c0.4,0.2,0.8,0.6,1,1
				L6.1,24l0.6,1.1c0,0,0,0,0,0c0.5,1,1.6,1.7,2.7,1.8c0.4,0,0.7,0,1.1-0.1l0.9-0.2l1.3-0.3l0.2-0.1c0.2-0.1,0.4-0.1,0.6-0.1
				c0.3,0,0.5,0,0.8,0.1l1.2,0.4l1.2,0.4l0,0c1.5,0.5,3.1-0.1,3.9-1.5l0.5-0.8l0.7-1.2l0.1-0.2c0.2-0.4,0.6-0.8,1-1l1.1-0.5l1.1-0.6
				l0,0c1.4-0.7,2.1-2.3,1.7-3.8l-0.2-0.9l-0.3-1.3l-0.1-0.2c-0.1-0.5-0.1-1,0-1.4l0.4-1.2l0.4-1.2c0,0,0,0,0,0
				C27.6,9.8,26.9,8.2,25.6,7.4z M26.4,10.5c0,0.2-0.1,0.4-0.1,0.6L26,11.7l-0.6,1.7c-0.2,0.6-0.2,1.3-0.1,1.9l0.2,0.9l0.3,1.3
				l0.1,0.2c0.3,1.1-0.3,2.3-1.3,2.8l-0.6,0.3l-1.6,0.8c-0.6,0.3-1.1,0.7-1.4,1.3l-0.5,0.8L20,24.9l-0.1,0.2
				c-0.4,0.8-1.3,1.2-2.1,1.2c-0.1,0-0.1,0-0.2,0c-0.2,0-0.4-0.1-0.6-0.1L16.3,26l-1.7-0.6c-0.6-0.2-1.3-0.2-1.9-0.1l-0.9,0.2
				L10.5,26L10.3,26c-0.9,0.2-1.9-0.1-2.5-0.8c-0.1-0.1-0.2-0.3-0.3-0.5l-0.3-0.6l-0.8-1.6C6,21.9,5.6,21.4,5,21.1l-0.8-0.5L3.1,20
				l-0.2-0.1c-0.8-0.5-1.3-1.4-1.2-2.3c0-0.2,0.1-0.4,0.1-0.6L2,16.3l0.6-1.7c0.2-0.6,0.2-1.3,0.1-1.9l-0.2-0.9L2,10.5L2,10.2
				C1.7,9.3,2.1,8.4,2.8,7.7c0.1-0.1,0.3-0.2,0.5-0.3l0.6-0.3l1.6-0.8C6.1,6,6.6,5.6,6.9,5l0.5-0.8L8,3.1l0.1-0.2
				C8.6,2,9.5,1.6,10.5,1.6h0c0.2,0,0.4,0.1,0.6,0.1L11.7,2l1.7,0.6c0.6,0.2,1.3,0.2,1.9,0.1l0.9-0.2L17.5,2L17.7,2
				c0.9-0.2,1.9,0.1,2.5,0.8c0.1,0.1,0.2,0.3,0.3,0.5l0.3,0.6l0.8,1.6C22,6.1,22.4,6.6,23,6.9l0.8,0.5L24.9,8l0.2,0.1
				C26,8.6,26.4,9.5,26.4,10.5L26.4,10.5z"/>
		</g>
		<path id="패스_2059" class="st0" d="M19.8,8H8.2l1.2,2.5h3.3v7.7h2.7v-7.7h3.3L19.8,8z M14.5,9.7v7.7h-1V9.7H9.8L9.4,8.8h9.2
			l-0.4,0.9H14.5z"/>
	</g>
</g>
<g id="logo_sidemenu_1_" transform="translate(-424.411 -3633.554)">
	<path id="패스_2020_1_" class="st0" d="M456.4,3643.6h3.1v10.1h2.4v-10.1h3.1l0.6-2.1h-9.8L456.4,3643.6z"/>
	<path id="패스_2021_1_" class="st0" d="M486.5,3648.2c0,0.5-0.1,0.9-0.2,1.3c-0.1,0.4-0.3,0.7-0.6,1.1c-0.3,0.3-0.6,0.5-1,0.7
		c-0.4,0.2-0.9,0.3-1.4,0.3c-0.5,0-0.9-0.1-1.3-0.3c-0.4-0.2-0.7-0.4-1-0.7c-0.3-0.3-0.5-0.7-0.6-1.1c-0.1-0.4-0.2-0.9-0.2-1.3v-6.7
		H478v6.7c0,0.8,0.1,1.5,0.4,2.3c0.2,0.7,0.6,1.3,1.1,1.8c0.5,0.5,1.1,0.9,1.7,1.2c1.5,0.6,3.1,0.6,4.6,0c0.6-0.3,1.2-0.7,1.7-1.2
		c0.5-0.5,0.8-1.2,1.1-1.8c0.2-0.7,0.4-1.5,0.4-2.3v-6.6h-2.4L486.5,3648.2z"/>
	<path id="패스_2022_1_" class="st0" d="M498.7,3648.1c-0.3-0.3-0.7-0.6-1.1-0.8c-0.5-0.3-1-0.5-1.6-0.7c-0.5-0.2-0.9-0.3-1.2-0.5
		c-0.3-0.1-0.5-0.3-0.8-0.4c-0.2-0.1-0.3-0.3-0.4-0.5c-0.1-0.2-0.1-0.3-0.1-0.5c0-0.2,0-0.3,0.1-0.5c0.1-0.2,0.2-0.3,0.3-0.4
		c0.2-0.1,0.3-0.2,0.5-0.3c0.2-0.1,0.4-0.1,0.7-0.1c0.5,0,0.9,0.1,1.3,0.2c0.4,0.2,0.7,0.4,1,0.7l1.7-1.7c-0.5-0.5-1.1-0.8-1.7-1.1
		c-0.8-0.3-1.6-0.4-2.4-0.4c-0.5,0-1.1,0.1-1.6,0.3c-0.5,0.2-0.9,0.4-1.3,0.7c-0.4,0.3-0.7,0.7-0.9,1.1c-0.2,0.4-0.3,0.9-0.3,1.4
		c0,0.5,0.1,1,0.3,1.4c0.2,0.4,0.4,0.7,0.8,1c0.3,0.3,0.7,0.6,1.1,0.8c0.4,0.2,0.9,0.4,1.3,0.6c0.5,0.2,0.9,0.3,1.3,0.5
		c0.3,0.1,0.5,0.3,0.8,0.4c0.2,0.1,0.3,0.3,0.4,0.4c0.1,0.2,0.1,0.3,0.1,0.5c0,0.2,0,0.3-0.1,0.5c-0.1,0.2-0.2,0.3-0.4,0.4
		c-0.2,0.1-0.3,0.2-0.5,0.3c-0.2,0.1-0.4,0.1-0.6,0.1c-0.5,0-1-0.1-1.5-0.3c-0.5-0.2-1-0.5-1.4-0.9l-1.7,1.7
		c0.3,0.3,0.7,0.5,1.1,0.8c0.3,0.2,0.7,0.4,1.1,0.5c0.4,0.1,0.8,0.2,1.2,0.3c0.5,0.1,1,0.1,1.4,0.1c0.6,0,1.1-0.1,1.6-0.3
		c0.5-0.2,0.9-0.4,1.3-0.8c0.3-0.3,0.6-0.7,0.8-1.1c0.2-0.4,0.3-0.9,0.3-1.3c0-0.4-0.1-0.9-0.2-1.3
		C499.2,3648.8,498.9,3648.4,498.7,3648.1z"/>
	<path id="패스_2023_1_" class="st0" d="M501.1,3643.6h3.1v10.1h2.4v-10.1h3.1l0.6-2.1h-9.8L501.1,3643.6z"/>
	<path id="패스_2024_1_" class="st0" d="M521.8,3643c-2.6-2.5-6.6-2.5-9.2,0c-0.6,0.6-1.1,1.3-1.4,2c-0.7,1.6-0.7,3.4,0,5
		c0.3,0.8,0.8,1.4,1.4,2c0.6,0.6,1.3,1,2.1,1.4c1.6,0.7,3.4,0.7,5,0c0.8-0.3,1.5-0.8,2.1-1.4c0.6-0.6,1.1-1.3,1.4-2
		c0.7-1.6,0.7-3.4,0-5C522.9,3644.3,522.4,3643.6,521.8,3643z M521,3649.1c-0.2,0.5-0.5,0.9-0.9,1.3c-0.4,0.4-0.8,0.7-1.3,0.9
		c-0.5,0.2-1,0.3-1.6,0.3c-0.6,0-1.1-0.1-1.6-0.3c-0.5-0.2-0.9-0.5-1.3-0.9c-0.4-0.4-0.7-0.8-0.9-1.3c-0.4-1-0.4-2.2,0-3.2
		c0.2-0.5,0.5-0.9,0.9-1.3c0.4-0.4,0.8-0.7,1.3-0.9c0.5-0.2,1.1-0.3,1.6-0.3c0.6,0,1.1,0.1,1.6,0.3c0.5,0.2,0.9,0.5,1.3,0.9
		c0.4,0.4,0.7,0.8,0.9,1.3C521.5,3647,521.5,3648.1,521,3649.1z"/>
	<path id="패스_2026_1_" class="st0" d="M475.7,3652.2c-0.1-0.3-0.2-0.5-0.3-0.7s-0.1-0.4-0.2-0.6l-0.2-0.5
		c-0.1-0.2-0.1-0.3-0.2-0.5c-0.1-0.4-0.3-0.7-0.6-1c-0.3-0.3-0.6-0.5-0.9-0.6c0.3-0.1,0.6-0.3,0.9-0.5c0.3-0.2,0.5-0.5,0.7-0.8
		c0.2-0.3,0.4-0.6,0.5-0.9c0.1-0.3,0.2-0.7,0.2-1c0-0.5-0.1-1-0.3-1.4c-0.2-0.4-0.4-0.8-0.8-1.1c-0.3-0.3-0.7-0.6-1.2-0.7
		c-0.5-0.2-1-0.3-1.5-0.3h-4.8v12.3h2.3v-4.9h0.9c0.3,0,0.6,0,1,0.2c0.3,0.1,0.5,0.2,0.7,0.4c0.2,0.2,0.4,0.4,0.5,0.7
		c0.1,0.3,0.3,0.6,0.3,0.8l0.9,2.8h2.6c-0.1-0.2-0.2-0.4-0.3-0.6C475.9,3652.8,475.8,3652.5,475.7,3652.2z M473.1,3645.9
		c-0.1,0.2-0.3,0.4-0.4,0.6c-0.2,0.2-0.4,0.3-0.7,0.4c-0.3,0.1-0.5,0.1-0.8,0.1h-1.7v-3.8h1.7c0.3,0,0.5,0,0.8,0.1
		c0.2,0.1,0.5,0.2,0.7,0.4c0.2,0.2,0.3,0.4,0.4,0.6c0.1,0.2,0.2,0.5,0.2,0.8C473.3,3645.4,473.2,3645.7,473.1,3645.9L473.1,3645.9z"
		/>
	<path id="패스_2025_2_" class="st0" d="M544.7,3641.4v8l-5.2-8h-2.7v12.3h2.3v-8.6l5.5,8.6h2.3v-12.3H544.7z"/>
	<path id="패스_2026_2_" class="st0" d="M534.5,3652.2c-0.1-0.3-0.2-0.5-0.3-0.7s-0.1-0.4-0.2-0.6l-0.2-0.5
		c-0.1-0.2-0.1-0.3-0.2-0.5c-0.1-0.4-0.3-0.7-0.6-1c-0.3-0.3-0.6-0.5-0.9-0.6c0.3-0.1,0.6-0.3,0.9-0.5c0.3-0.2,0.5-0.5,0.7-0.8
		c0.2-0.3,0.4-0.6,0.5-0.9c0.1-0.3,0.2-0.7,0.2-1c0-0.5-0.1-1-0.3-1.4c-0.2-0.4-0.4-0.8-0.8-1.1c-0.3-0.3-0.7-0.6-1.2-0.7
		c-0.5-0.2-1-0.3-1.5-0.3H526v12.3h2.3v-4.9h0.9c0.3,0,0.6,0,1,0.2c0.3,0.1,0.5,0.2,0.7,0.4c0.2,0.2,0.4,0.4,0.5,0.7
		c0.1,0.3,0.3,0.6,0.3,0.8l0.9,2.8h2.6c-0.1-0.2-0.2-0.4-0.3-0.6C534.8,3652.8,534.7,3652.5,534.5,3652.2z M531.9,3645.9
		c-0.1,0.2-0.3,0.4-0.4,0.6c-0.2,0.2-0.4,0.3-0.7,0.4c-0.3,0.1-0.5,0.1-0.8,0.1h-1.7v-3.8h1.7c0.3,0,0.5,0,0.8,0.1
		c0.2,0.1,0.5,0.2,0.7,0.4c0.2,0.2,0.3,0.4,0.4,0.6c0.1,0.2,0.2,0.5,0.2,0.8C532.1,3645.4,532,3645.7,531.9,3645.9L531.9,3645.9z"/>
	<g>
		<g>
			<g>
				<path class="st0" d="M439,3634.8c0.2,0.1,0.4,0.2,0.5,0.3l0,0l1.3-0.3l-0.7-0.5c-1.3-1-3-0.9-4.3,0.1l1.3,0.4
					C437.8,3634.6,438.4,3634.6,439,3634.8z"/>
				<path class="st0" d="M451.6,3645l-0.4,1.3c0.3,0.8,0.2,1.6-0.3,2.3l0,0l0.3,1.3l0.5-0.7C452.7,3648,452.6,3646.2,451.6,3645z"/>
				<path class="st0" d="M446.4,3657.1L446.4,3657.1l-0.7,1.2l0.9-0.1c1.6-0.2,2.8-1.5,3-3.1l-1.2,0.6
					C448,3656.5,447.3,3657,446.4,3657.1z"/>
				<path class="st0" d="M448,3639.5L448,3639.5l1.2,0.7l-0.1-0.9c-0.2-1.6-1.5-2.8-3.1-3l0.6,1.2
					C447.3,3638,447.9,3638.7,448,3639.5z"/>
				<path class="st0" d="M427.3,3640l1.2-0.6c0.3-0.7,1-1.3,1.9-1.4l0.1,0l0.7-1.2l-0.9,0.1C428.7,3637.1,427.4,3638.4,427.3,3640z"
					/>
				<path class="st0" d="M449.4,3641.8L449.4,3641.8l-1.2-0.7l0.1,0.8c0.1,0.7,0.4,1.3,0.8,1.8l1.1,1.3l0.2-0.5
					c0.1-0.2,0.1-0.5,0.1-0.7l-0.6-0.7C449.6,3642.7,449.4,3642.3,449.4,3641.8z"/>
				<path class="st0" d="M437.3,3660L437.3,3660l-1.3,0.3l0.7,0.5c1.3,1,3,0.9,4.3-0.1l-1.3-0.4C438.9,3660.6,438,3660.5,437.3,3660
					z"/>
				<path class="st0" d="M428.5,3653.1c-0.1-0.7-0.4-1.3-0.8-1.8l-1.1-1.3l-0.2,0.5c-0.1,0.2-0.1,0.5-0.1,0.7l0.6,0.7
					c0.3,0.4,0.5,0.8,0.6,1.2l0,0l1.2,0.7L428.5,3653.1z"/>
				<path class="st0" d="M425.1,3645.8c-1,1.3-0.9,3,0.1,4.3l0.4-1.3c-0.3-0.8-0.2-1.6,0.3-2.3l0,0l-0.3-1.3L425.1,3645.8z"/>
				<path class="st0" d="M435.3,3658.5c-0.5-0.4-1.2-0.6-1.8-0.7l-1.7-0.1l0.3,0.5c0.1,0.2,0.3,0.4,0.4,0.6l1,0.1
					c0.5,0,0.9,0.2,1.3,0.5l0,0l1.3-0.3L435.3,3658.5z"/>
				<path class="st0" d="M449.4,3650.6c-0.4,0.5-0.6,1.2-0.7,1.8l-0.1,1.7l0.5-0.3c0.2-0.1,0.4-0.3,0.6-0.4l0.1-1
					c0-0.5,0.2-0.9,0.5-1.3l0,0l-0.3-1.3L449.4,3650.6z"/>
				<path class="st0" d="M442.2,3658.3l-1.3,1.1l0.5,0.2c0.2,0.1,0.5,0.1,0.7,0.1l0.7-0.6c0.4-0.3,0.8-0.5,1.2-0.6l0,0l0.7-1.2
					l-0.8,0.1C443.3,3657.6,442.7,3657.8,442.2,3658.3z"/>
				<path class="st0" d="M428.8,3655.6L428.8,3655.6l-1.2-0.7l0.1,0.9c0.2,1.2,1,2.2,2.1,2.7c0.3,0.1,0.7,0.2,1,0.3l-0.6-1.2
					C429.5,3657.1,428.9,3656.4,428.8,3655.6z"/>
				<path class="st0" d="M434.6,3636.8l1.3-1.1l-0.5-0.2c-0.2-0.1-0.4-0.1-0.6-0.1c-0.1,0-0.1,0-0.2,0l-0.7,0.6
					c-0.4,0.3-0.8,0.5-1.2,0.6l0,0l-0.7,1.2l0.8-0.1C433.5,3637.5,434.1,3637.3,434.6,3636.8z"/>
				<path class="st0" d="M444.4,3636.3l-1-0.1c-0.5,0-0.9-0.2-1.3-0.5l0,0l-1.3,0.3l0.7,0.5c0.5,0.4,1.2,0.6,1.8,0.7l1.7,0.1
					l-0.3-0.5C444.7,3636.7,444.6,3636.5,444.4,3636.3z"/>
				<path class="st0" d="M427.5,3644.5c0.4-0.5,0.6-1.2,0.7-1.8l0.1-1.7l-0.5,0.3c-0.2,0.1-0.4,0.3-0.6,0.4l-0.1,1
					c0,0.5-0.2,0.9-0.5,1.3l0,0l0.3,1.3L427.5,3644.5z"/>
			</g>
			<path class="st0" d="M450,3640.9l-0.8-0.5l-1.2-0.7l-0.2-0.1c-0.4-0.2-0.8-0.6-1-1l-0.5-1.1l-0.6-1.1c0,0,0,0,0,0
				c-0.7-1.4-2.3-2.1-3.8-1.7l-0.9,0.2l-1.3,0.3l-0.2,0.1c-0.5,0.1-1,0.1-1.4,0l-1.2-0.4l-1.2-0.4c0,0,0,0,0,0
				c-1.5-0.5-3.1,0.1-3.9,1.5l-0.5,0.8l-0.7,1.2l-0.1,0.2c-0.2,0.4-0.6,0.8-1,1l-1.1,0.5l-1.1,0.6c0,0,0,0,0,0
				c-1.4,0.7-2.1,2.3-1.7,3.8l0.2,0.9l0.3,1.3l0.1,0.2c0.1,0.5,0.1,1,0,1.4l-0.4,1.2l-0.4,1.2c0,0,0,0,0,0c-0.5,1.5,0.1,3.1,1.5,3.9
				l0.8,0.5l1.2,0.7l0.2,0.1c0.4,0.2,0.8,0.6,1,1l0.5,1.1l0.6,1.1c0,0,0,0,0,0c0.5,1,1.6,1.7,2.7,1.8c0.4,0,0.7,0,1.1-0.1l0.9-0.2
				l1.3-0.3l0.2-0.1c0.2-0.1,0.4-0.1,0.6-0.1c0.3,0,0.5,0,0.8,0.1l1.2,0.4l1.2,0.4c0,0,0,0,0,0c1.5,0.5,3.1-0.1,3.9-1.5l0.5-0.8
				l0.7-1.2l0.1-0.2c0.2-0.4,0.6-0.8,1-1l1.1-0.5l1.1-0.6c0,0,0,0,0,0c1.4-0.7,2.1-2.3,1.7-3.8l-0.2-0.9l-0.3-1.3l-0.1-0.2
				c-0.1-0.5-0.1-1,0-1.4l0.4-1.2l0.4-1.2c0,0,0,0,0,0C452,3643.4,451.3,3641.7,450,3640.9z M450.8,3644c0,0.2,0,0.4-0.1,0.6
				l-0.2,0.6l-0.6,1.7c-0.2,0.6-0.2,1.3-0.1,1.9l0.2,0.9l0.3,1.3l0.1,0.2c0.2,0.9-0.1,1.9-0.8,2.5c-0.1,0.1-0.3,0.2-0.5,0.3
				l-0.6,0.3l-1.6,0.8c-0.6,0.3-1.1,0.7-1.4,1.3l-0.5,0.8l-0.7,1.2l-0.1,0.2c-0.5,0.8-1.3,1.2-2.1,1.2c-0.1,0-0.1,0-0.2,0
				c-0.2,0-0.4,0-0.6-0.1l-0.6-0.2l-1.7-0.6c-0.6-0.2-1.3-0.2-1.9-0.1l-0.9,0.2l-1.3,0.3l-0.2,0.1c-0.9,0.2-1.9-0.1-2.5-0.8
				c-0.1-0.1-0.2-0.3-0.3-0.5l-0.3-0.6l-0.8-1.6c-0.3-0.6-0.7-1.1-1.3-1.4l-0.8-0.5l-1.2-0.7l-0.2-0.1c-0.8-0.5-1.3-1.4-1.2-2.3
				c0-0.2,0-0.4,0.1-0.6l0.2-0.6l0.6-1.7c0.2-0.6,0.2-1.3,0.1-1.9l-0.2-0.9l-0.3-1.3l-0.1-0.2c-0.2-0.9,0.1-1.9,0.8-2.5
				c0.1-0.1,0.3-0.2,0.5-0.3l0.6-0.3l1.6-0.8c0.6-0.3,1.1-0.7,1.4-1.3l0.5-0.8l0.7-1.2l0.1-0.2c0.5-0.8,1.4-1.3,2.3-1.2c0,0,0,0,0,0
				c0.2,0,0.4,0.1,0.6,0.1l0.6,0.2l1.7,0.6c0.6,0.2,1.3,0.2,1.9,0.1l0.9-0.2l1.3-0.3l0.2-0.1c0.9-0.2,1.9,0.1,2.5,0.8
				c0.1,0.1,0.2,0.3,0.3,0.5l0.3,0.6l0.8,1.6c0.3,0.6,0.7,1.1,1.3,1.4l0.8,0.5l1.2,0.7l0.2,0.1
				C450.4,3642.2,450.8,3643.1,450.8,3644z"/>
		</g>
		<path class="st0" d="M444.2,3641.5h-11.6l1.2,2.5h3.3v7.7h2.7v-7.7h3.3h0l0,0L444.2,3641.5z M438.9,3643.3v7.7h-1v-7.7h-3.6
			l-0.4-0.9h9.2l-0.4,0.9H438.9z"/>
		<g>
			<path class="st0" d="M434.3,3654.9l0,0.1c-0.1,0-0.2,0-0.2,0c-0.1,0-0.1,0-0.3,0c-0.1,0-0.2,0-0.2,0c-0.1,0-0.2,0-0.4,0l0-0.1
				c0.1,0,0.2,0,0.3-0.1c0,0,0.1-0.1,0.1-0.1c0-0.1,0.1-0.3,0.2-0.7l0.2-1l0,0c-0.1,0-0.1,0-0.2,0c-0.2,0-0.4,0-0.5,0.1
				c-0.1,0-0.2,0.1-0.3,0.2c-0.1,0.1-0.1,0.2-0.1,0.3c0,0,0,0.1,0,0.1c0,0,0,0.1,0.1,0.1c0,0,0.1,0.1,0.1,0.1c0,0,0,0.1,0,0.1
				c0,0-0.1,0-0.1,0c-0.1,0-0.1,0-0.1-0.1c0-0.1-0.1-0.2-0.1-0.3c0-0.1,0-0.3,0.1-0.4c0.1-0.1,0.2-0.2,0.4-0.3
				c0.2-0.1,0.4-0.1,0.6-0.1c0.1,0,0.3,0,0.5,0c0.2,0,0.3,0,0.4,0c0.1,0,0.1,0,0.2,0c0,0,0-0.1,0-0.1c0,0,0,0,0-0.1c0,0,0,0,0,0
				c0,0,0-0.1,0-0.1c0,0,0,0,0.1,0c0,0,0.1,0,0.1,0c0,0,0,0.1,0,0.1c0,0.1,0,0.2-0.1,0.2c-0.1,0.1-0.3,0.1-0.5,0.1
				c-0.1,0-0.2,0-0.3,0c0,0-0.1,0.2-0.1,0.4l-0.2,0.6l-0.1,0.4l-0.1,0.4c0.1,0,0.1,0,0.2,0C434.1,3655,434.2,3655,434.3,3654.9z"/>
			<path class="st0" d="M435,3655l-0.3,0l0.1-0.5c0.1-0.2,0.1-0.5,0.2-0.7c0-0.1,0-0.1,0-0.1c0,0,0,0,0,0c0,0,0,0-0.1,0
				c0,0-0.1,0.1-0.2,0.2l-0.1-0.1c0.1-0.1,0.2-0.2,0.3-0.3c0.1-0.1,0.2-0.1,0.3-0.1c0,0,0,0,0.1,0c0,0,0,0,0,0s0,0.1,0,0.1l-0.1,0.3
				c0.1-0.2,0.3-0.4,0.4-0.5c0.1-0.1,0.1-0.1,0.2-0.1c0,0,0.1,0,0.1,0c0,0,0,0.1,0,0.1c0,0,0,0.1,0,0.1c0,0-0.1,0.1-0.2,0.1
				c-0.1,0-0.2,0.1-0.2,0.1c-0.1,0-0.1,0.1-0.2,0.2c-0.1,0.1-0.1,0.2-0.1,0.2c0,0.1-0.1,0.2-0.1,0.5L435,3655z"/>
			<path class="st0" d="M437,3653.6h0.3l-0.2,0.6c-0.1,0.4-0.2,0.6-0.2,0.6c0,0,0,0,0,0.1c0,0,0,0,0,0c0,0,0,0,0.1,0
				c0,0,0.1-0.1,0.2-0.2l0.1,0.1c-0.2,0.3-0.4,0.4-0.5,0.4c0,0-0.1,0-0.1,0s0-0.1,0-0.1c0-0.1,0-0.1,0-0.3c-0.1,0.1-0.2,0.2-0.4,0.3
				c-0.1,0.1-0.2,0.1-0.3,0.1c0,0-0.1,0-0.1,0c0,0,0-0.1,0-0.1c0,0,0-0.1,0-0.2c0-0.1,0.1-0.2,0.1-0.5c0.1-0.3,0.1-0.5,0.1-0.5
				c0,0,0-0.1,0-0.1c0,0-0.1,0-0.1,0c0,0-0.1,0.1-0.2,0.2l-0.1-0.1c0.2-0.1,0.3-0.2,0.4-0.3c0.1,0,0.2-0.1,0.2-0.1c0,0,0.1,0,0.1,0
				c0,0,0,0.1,0,0.1c0,0.1,0,0.3-0.1,0.6c-0.1,0.3-0.1,0.5-0.1,0.5c0,0,0,0,0,0.1c0,0,0,0,0.1,0c0.1,0,0.2-0.1,0.3-0.2
				c0.1-0.1,0.2-0.2,0.2-0.4L437,3653.6z"/>
			<path class="st0" d="M438.3,3653.5c0.1,0,0.2,0,0.3,0.1c0.1,0,0.1,0.1,0.1,0.1c0,0,0,0.1,0,0.1c0,0-0.1,0-0.1,0c0,0,0,0-0.1,0
				c0,0,0,0-0.1-0.1c-0.1-0.1-0.1-0.1-0.2-0.1c0,0-0.1,0-0.1,0.1c0,0-0.1,0.1-0.1,0.1c0,0,0,0.1,0,0.1c0,0,0.1,0.1,0.2,0.2
				c0.1,0.1,0.2,0.3,0.2,0.4c0,0.1-0.1,0.2-0.2,0.3c-0.1,0.1-0.3,0.1-0.4,0.1c-0.1,0-0.3,0-0.3-0.1c-0.1-0.1-0.1-0.1-0.1-0.2
				c0,0,0-0.1,0-0.1c0,0,0.1,0,0.1,0c0,0,0.1,0,0.1,0c0,0,0,0,0,0.1c0,0,0,0,0,0c0,0,0,0,0,0c0,0,0,0.1,0.1,0.1c0,0,0.1,0,0.1,0
				c0.1,0,0.1,0,0.2,0c0,0,0.1-0.1,0.1-0.1c0,0,0-0.1,0-0.1c0,0,0-0.1,0-0.1c0,0-0.1-0.1-0.2-0.2c-0.1-0.1-0.2-0.3-0.2-0.4
				c0-0.1,0-0.2,0.1-0.3C438,3653.6,438.1,3653.5,438.3,3653.5z"/>
			<path class="st0" d="M439.2,3653.2l0.3-0.1l-0.1,0.5l0.4,0l0,0.1l-0.4,0l-0.2,0.6c-0.1,0.2-0.1,0.3-0.1,0.4c0,0,0,0.1,0,0.1
				s0,0,0.1,0c0,0,0.1,0,0.2-0.1c0.1-0.1,0.2-0.1,0.3-0.2l0.1,0.1c-0.3,0.2-0.4,0.3-0.5,0.4c-0.1,0-0.2,0.1-0.2,0.1c0,0-0.1,0-0.1,0
				c0,0,0-0.1,0-0.2c0-0.1,0-0.2,0.1-0.4l0.2-0.7l-0.3,0l0-0.1l0.3,0L439.2,3653.2z"/>
			<path class="st0" d="M440.8,3653.5c0.1,0,0.2,0,0.3,0.1c0.1,0.1,0.1,0.2,0.1,0.4c0,0.3-0.1,0.5-0.3,0.7c-0.2,0.2-0.4,0.3-0.6,0.3
				c-0.1,0-0.2,0-0.3-0.1c-0.1-0.1-0.1-0.2-0.1-0.3c0-0.3,0.1-0.5,0.2-0.7C440.3,3653.7,440.5,3653.5,440.8,3653.5z M440.6,3653.7
				c-0.1,0-0.2,0.1-0.3,0.2c-0.1,0.1-0.1,0.4-0.1,0.6c0,0.2,0,0.3,0.1,0.4c0,0.1,0.1,0.1,0.2,0.1c0.1,0,0.2-0.1,0.3-0.2
				c0.1-0.2,0.2-0.4,0.2-0.6c0-0.2,0-0.3-0.1-0.4C440.8,3653.7,440.7,3653.7,440.6,3653.7z"/>
			<path class="st0" d="M441.7,3655.1l-0.3,0l0.1-0.5c0.1-0.2,0.1-0.5,0.2-0.7c0-0.1,0-0.1,0-0.1c0,0,0,0,0,0c0,0,0,0-0.1,0
				s-0.1,0.1-0.2,0.2l-0.1-0.1c0.1-0.1,0.2-0.2,0.3-0.3c0.1-0.1,0.2-0.1,0.3-0.1c0,0,0,0,0.1,0c0,0,0,0,0,0s0,0.1,0,0.1l-0.1,0.3
				c0.1-0.2,0.3-0.4,0.4-0.5c0.1-0.1,0.1-0.1,0.2-0.1c0,0,0.1,0,0.1,0c0,0,0,0.1,0,0.1c0,0,0,0.1,0,0.1c0,0-0.1,0.1-0.2,0.1
				c-0.1,0-0.2,0.1-0.2,0.1c-0.1,0-0.1,0.1-0.2,0.2c-0.1,0.1-0.1,0.2-0.1,0.2c0,0.1-0.1,0.2-0.1,0.5L441.7,3655.1z"/>
			<path class="st0" d="M442.5,3653.9L442.5,3653.9c0.1-0.2,0.2-0.3,0.3-0.4c0.1,0,0.2-0.1,0.2-0.1c0,0,0,0,0.1,0c0,0,0,0,0,0
				c0,0,0,0,0,0.1l-0.1,0.4c0.1-0.1,0.3-0.3,0.5-0.4c0.1-0.1,0.2-0.1,0.2-0.1c0,0,0.1,0,0.1,0c0,0,0,0.1,0,0.1c0,0,0,0.1,0,0.1
				c0,0.1-0.1,0.3-0.2,0.5c-0.1,0.2-0.1,0.4-0.1,0.5c0,0,0,0,0,0.1c0,0,0,0,0,0c0,0,0.1,0,0.2-0.1c0.1,0,0.1-0.1,0.2-0.1l0,0.1
				c-0.1,0.1-0.2,0.2-0.3,0.3c-0.1,0-0.1,0.1-0.2,0.1c0,0-0.1,0-0.1-0.1c0,0,0-0.1,0-0.2c0-0.1,0.1-0.4,0.2-0.8
				c0-0.2,0.1-0.2,0.1-0.3c0,0,0-0.1-0.1-0.1c0,0-0.1,0-0.2,0.1c-0.1,0.1-0.2,0.2-0.3,0.3c0,0.1-0.1,0.2-0.1,0.3l-0.1,0.6l-0.3,0
				c0.1-0.2,0.1-0.4,0.1-0.5l0.2-0.7c0,0,0,0,0-0.1c0,0,0,0,0,0c0,0,0,0-0.1,0C442.7,3653.8,442.6,3653.9,442.5,3653.9z"/>
		</g>
	</g>
</g>
</svg>
