<svg xmlns="http://www.w3.org/2000/svg" viewBox="0 0 299.1 46.7"><defs><style>.cls-1{fill:#007bd2;}.cls-2{fill:#d3e4f0;}</style></defs><title>자산 1</title><g id="레이어_2" data-name="레이어 2"><g id="레이어_1-2" data-name="레이어 1"><polygon class="cls-1" points="24.55 0 32.14 15.37 49.1 17.84 36.83 29.8 39.73 46.7 24.55 38.72 9.38 46.7 12.28 29.8 0 17.84 16.96 15.37 24.55 0"/><polygon class="cls-2" points="87.05 0 94.64 15.37 111.61 17.84 99.33 29.8 102.23 46.7 87.05 38.72 71.88 46.7 74.78 29.8 62.5 17.84 79.47 15.37 87.05 0"/><polygon class="cls-2" points="149.55 0 157.14 15.37 174.1 17.84 161.83 29.8 164.73 46.7 149.55 38.72 134.38 46.7 137.28 29.8 125 17.84 141.97 15.37 149.55 0"/><polygon class="cls-2" points="212.05 0 219.64 15.37 236.6 17.84 224.33 29.8 227.23 46.7 212.05 38.72 196.88 46.7 199.78 29.8 187.5 17.84 204.47 15.37 212.05 0"/><polygon class="cls-2" points="274.55 0 282.14 15.37 299.11 17.84 286.83 29.8 289.73 46.7 274.55 38.72 259.38 46.7 262.28 29.8 250 17.84 266.96 15.37 274.55 0"/></g></g></svg>