<svg xmlns="http://www.w3.org/2000/svg" width="234.723" height="40" viewBox="0 0 234.723 40">
  <g id="그룹_474" data-name="그룹 474" transform="translate(-302 -460.581)">
    <path id="패스_1653" data-name="패스 1653" d="M-70.046,271.966l6.18,13.167,13.82,2.112-10,10.249,2.361,14.472-12.361-6.833-12.361,6.833,2.361-14.472-10-10.249,13.82-2.112Z" transform="translate(392.046 188.615)" fill="#d3e4f0"/>
    <path id="패스_2351" data-name="패스 2351" d="M-70.046,271.966l6.18,13.167,13.82,2.112-10,10.249,2.361,14.472-12.361-6.833-12.361,6.833,2.361-14.472-10-10.249,13.82-2.112Z" transform="translate(440.726 188.615)" fill="#d3e4f0"/>
    <path id="패스_2352" data-name="패스 2352" d="M-70.046,271.966l6.18,13.167,13.82,2.112-10,10.249,2.361,14.472-12.361-6.833-12.361,6.833,2.361-14.472-10-10.249,13.82-2.112Z" transform="translate(489.407 188.615)" fill="#d3e4f0"/>
    <path id="패스_2353" data-name="패스 2353" d="M-70.046,271.966l6.18,13.167,13.82,2.112-10,10.249,2.361,14.472-12.361-6.833-12.361,6.833,2.361-14.472-10-10.249,13.82-2.112Z" transform="translate(538.088 188.615)" fill="#d3e4f0"/>
    <path id="패스_2354" data-name="패스 2354" d="M-70.046,271.966l6.18,13.167,13.82,2.112-10,10.249,2.361,14.472-12.361-6.833-12.361,6.833,2.361-14.472-10-10.249,13.82-2.112Z" transform="translate(586.768 188.615)" fill="#d3e4f0"/>
  </g>
</svg>
