<svg xmlns="http://www.w3.org/2000/svg" width="47" height="47" viewBox="0 0 47 47">
  <g id="icon_btn_02" transform="translate(-55 -428)">
    <rect id="사각형_451" data-name="사각형 451" width="47" height="47" transform="translate(55 428)" fill="#fff" opacity="0"/>
    <g id="icon_btn_02-2" data-name="icon_btn_02" transform="translate(-89.06 257.138)">
      <g id="그룹_969" data-name="그룹 969" transform="translate(149.06 175.862)">
        <path id="패스_143" data-name="패스 143" d="M180.887,213.862H155.233a7.019,7.019,0,0,1-3.435-.609,4.808,4.808,0,0,1-2.043-1.9,6.07,6.07,0,0,1-.695-3.339V185.82a6.07,6.07,0,0,1,.695-3.339,4.808,4.808,0,0,1,2.043-1.9,7.019,7.019,0,0,1,3.435-.61h1.22v-2.357a1.75,1.75,0,1,1,3.5,0v2.357h16.214v-2.357a1.75,1.75,0,1,1,3.5,0v2.357h1.22a7.018,7.018,0,0,1,3.435.61,4.809,4.809,0,0,1,2.043,1.9,6.069,6.069,0,0,1,.695,3.339v22.19a6.07,6.07,0,0,1-.695,3.339,4.811,4.811,0,0,1-2.043,1.9A7.018,7.018,0,0,1,180.887,213.862Zm-.427-3.5h.427c1.386,0,1.649-.13,1.88-.245a1.287,1.287,0,0,0,.566-.516c.106-.184.227-.393.227-1.59V185.82c0-1.2-.12-1.406-.227-1.59a1.287,1.287,0,0,0-.566-.516c-.232-.115-.494-.245-1.88-.245H155.233c-1.386,0-1.649.13-1.88.245a1.286,1.286,0,0,0-.566.516c-.106.185-.227.393-.227,1.59v22.19c0,1.2.121,1.406.227,1.59a1.285,1.285,0,0,0,.566.516c.232.115.494.245,1.88.245h.429c.288-2.694,2.576-4.98,5.947-6.269a9.964,9.964,0,1,1,12.907,0C177.892,205.378,180.182,207.666,180.46,210.362Zm-21.231,0H176.9c-.557-1.754-3.65-3.893-8.829-3.893S159.8,208.6,159.229,210.362Zm8.831-20.321a6.464,6.464,0,1,0,6.464,6.464A6.471,6.471,0,0,0,168.06,190.041Z" transform="translate(-149.06 -175.862)" fill="#00863c"/>
      </g>
    </g>
  </g>
</svg>
