<svg xmlns="http://www.w3.org/2000/svg" width="47" height="47" viewBox="0 0 47 47">
  <g id="icon_btn_03" transform="translate(-55 -561)">
    <rect id="사각형_452" data-name="사각형 452" width="47" height="47" transform="translate(55 561)" fill="#fff" opacity="0"/>
    <g id="icon_btn_03-2" data-name="icon_btn_03" transform="translate(-836.25 197)">
      <path id="패스_144" data-name="패스 144" d="M914.395,407.289a1.894,1.894,0,0,1-.921-.239l-18.249-10.138a1.9,1.9,0,0,1,0-3.315l4.316-2.4-4.316-2.4a1.9,1.9,0,0,1,0-3.315l4.316-2.4-4.316-2.4a1.9,1.9,0,0,1,0-3.315l18.249-10.138a1.9,1.9,0,0,1,1.841,0l18.249,10.138a1.9,1.9,0,0,1,0,3.315l-4.316,2.4,4.316,2.4a1.9,1.9,0,0,1,0,3.315l-4.316,2.4,4.316,2.4a1.9,1.9,0,0,1,0,3.315L915.315,407.05A1.894,1.894,0,0,1,914.395,407.289ZM900.05,395.255l14.345,7.969,14.344-7.969-3.4-1.886-10.029,5.572a1.9,1.9,0,0,1-1.841,0l-10.029-5.571Zm0-8.11,14.345,7.969,14.344-7.969-3.4-1.886-10.029,5.571a1.9,1.9,0,0,1-1.841,0l-10.029-5.571Zm0-8.11L914.395,387l14.344-7.969-14.344-7.969Z" fill="#00863c"/>
    </g>
  </g>
</svg>
