<svg xmlns="http://www.w3.org/2000/svg" width="38.46" height="33.537" viewBox="0 0 38.46 33.537">
  <g id="그룹_1035" data-name="그룹 1035" transform="translate(-684.382 -1290.782)">
    <path id="패스_168" data-name="패스 168" d="M684.382,1292.562v23.257a1.78,1.78,0,0,0,1.78,1.78h34.9a1.78,1.78,0,0,0,1.78-1.78v-23.257a1.78,1.78,0,0,0-1.78-1.78h-34.9A1.78,1.78,0,0,0,684.382,1292.562Zm34.9,1.779v19.7H687.944v-19.7Z" fill="#00863c"/>
    <g id="그룹_1034" data-name="그룹 1034" transform="translate(0 -1)">
      <path id="패스_169" data-name="패스 169" d="M697.626,1307.334v3.285a1.78,1.78,0,1,1-3.561,0v-3.282a1.78,1.78,0,0,1,3.561,0Z" fill="#00863c"/>
      <path id="패스_170" data-name="패스 170" d="M713.16,1300.769v9.85a1.78,1.78,0,1,1-3.561,0v-9.846a1.78,1.78,0,0,1,3.561,0Z" fill="#00863c"/>
      <path id="패스_171" data-name="패스 171" d="M705.393,1303.769v6.85a1.781,1.781,0,1,1-3.561,0v-6.846a1.781,1.781,0,0,1,3.561,0Z" fill="#00863c"/>
    </g>
    <path id="패스_172" data-name="패스 172" d="M705.393,1317.473v3.285a1.781,1.781,0,0,1-3.561,0v-3.282a1.781,1.781,0,1,1,3.561,0Z" fill="#00863c"/>
    <path id="패스_173" data-name="패스 173" d="M712.539,1324.319h-17.85a1.78,1.78,0,0,1,0-3.561h17.846a1.78,1.78,0,1,1,0,3.561Z" fill="#00863c"/>
    <line id="선_16" data-name="선 16" x2="24.756" transform="translate(691.234 1310.4)" fill="none" stroke="#00863c" stroke-linecap="round" stroke-linejoin="round" stroke-width="3"/>
  </g>
</svg>
