<svg xmlns="http://www.w3.org/2000/svg" width="47" height="47" viewBox="0 0 47 47">
  <g id="icon_btn_01" transform="translate(-55 -295)">
    <rect id="사각형_450" data-name="사각형 450" width="47" height="47" transform="translate(55 295)" fill="#fff" opacity="0"/>
    <g id="icon_btn_01-2" data-name="icon_btn_01" transform="translate(-227.953 -67.5)">
      <path id="패스_142" data-name="패스 142" d="M322.554,404.523H296.3a1.78,1.78,0,0,1-1.78-1.78v-27.9a1.78,1.78,0,0,1,1.78-1.78h26.257a1.78,1.78,0,0,1,1.78,1.78v27.9A1.78,1.78,0,0,1,322.554,404.523Zm-24.476-3.561h22.7V376.625h-22.7Zm9.707-5.465H304.5a1.78,1.78,0,0,1,0-3.561h3.282a1.78,1.78,0,0,1,0,3.561Zm-18.051-5.744a1.78,1.78,0,0,1-1.78-1.78V371.562a5.224,5.224,0,0,1,5.361-5.062h16.112a1.78,1.78,0,1,1,0,3.561H293.314a1.673,1.673,0,0,0-1.8,1.5v16.411A1.78,1.78,0,0,1,289.733,389.753Zm24.616-3.282H304.5a1.78,1.78,0,0,1,0-3.561h9.846a1.78,1.78,0,1,1,0,3.561Z" fill="#00863c"/>
    </g>
  </g>
</svg>
