<svg xmlns="http://www.w3.org/2000/svg" width="14.079" height="14.079" viewBox="0 0 14.079 14.079">
  <g id="icon_share" transform="translate(-1385 -845)">
    <path id="Path" d="M3.552,3.552a2.081,2.081,0,1,1,0-2.943A2.081,2.081,0,0,1,3.552,3.552Z" transform="translate(1385.5 850.078)" fill="none" stroke="#000" stroke-linecap="round" stroke-linejoin="round" stroke-miterlimit="10" stroke-width="1"/>
    <path id="Path-2" data-name="Path" d="M2.081,4.162A2.081,2.081,0,1,1,4.162,2.081,2.081,2.081,0,0,1,2.081,4.162Z" transform="translate(1394.418 854.418)" fill="none" stroke="#000" stroke-linecap="round" stroke-linejoin="round" stroke-miterlimit="10" stroke-width="1"/>
    <path id="Path-3" data-name="Path" d="M2.081,4.162A2.081,2.081,0,1,1,4.162,2.081,2.081,2.081,0,0,1,2.081,4.162Z" transform="translate(1394.418 845.5)" fill="none" stroke="#000" stroke-linecap="round" stroke-linejoin="round" stroke-miterlimit="10" stroke-width="1"/>
    <path id="Path-4" data-name="Path" d="M0,0,5.09,2.63Z" transform="translate(1389.551 852.909)" fill="none" stroke="#000" stroke-linecap="round" stroke-linejoin="round" stroke-miterlimit="10" stroke-width="1"/>
    <path id="Path-5" data-name="Path" d="M5.107,0,0,2.636Z" transform="translate(1389.494 848.56)" fill="none" stroke="#000" stroke-linecap="round" stroke-linejoin="round" stroke-miterlimit="10" stroke-width="1"/>
  </g>
</svg>
