<svg id="profile_img_null" xmlns="http://www.w3.org/2000/svg" width="96" height="96" viewBox="0 0 96 96">
  <rect id="사각형_1" data-name="사각형 1" width="96" height="96" fill="#ebeef0"/>
  <g id="icon_charac_empty" transform="translate(3)">
    <path id="패스_2914" d="M45,20A30.3,30.3,0,1,1,14.7,50.3h0A30.344,30.344,0,0,1,45,20Z" fill="#fff" stroke="#dbdbdb" stroke-width="6"/>
    <g id="그룹_24" transform="translate(17.318 35.19)">
      <circle id="타원_31" cx="1.7" cy="1.7" r="1.7" transform="translate(14.7 8.3)" fill="#dbdbdb"/>
      <circle id="타원_32" cx="1.7" cy="1.7" r="1.7" transform="translate(37.3 8.3)" fill="#dbdbdb"/>
    </g>
    <g id="그룹_25" transform="translate(18.588)">
      <path id="패스_52" d="M22.3,30.5a6.362,6.362,0,0,1-4.5-1.9h0a6.338,6.338,0,0,1,0-9l8.3-8.3a6.364,6.364,0,1,1,9.1,8.9l-.1.1-8.3,8.3A6.362,6.362,0,0,1,22.3,30.5Z" fill="#e9e9e9"/>
      <path id="패스_53" d="M22.3,30.5a6.362,6.362,0,0,1-4.5-1.9h0a6.338,6.338,0,0,1,0-9l8.3-8.3a6.364,6.364,0,1,1,9.1,8.9l-.1.1-8.3,8.3A6.362,6.362,0,0,1,22.3,30.5Zm8.3-19a4.387,4.387,0,0,0-3.1,1.3l-8.3,8.3a4.406,4.406,0,0,0,0,6.2h0a4.406,4.406,0,0,0,6.2,0L33.7,19a4.406,4.406,0,0,0,0-6.2,4.771,4.771,0,0,0-3.1-1.3Z" fill="#dbdbdb"/>
      <path id="사각형_190" d="M18.5,12.1h0a5.372,5.372,0,0,1,7.6,0l8.3,8.3a5.372,5.372,0,0,1,0,7.6h0a5.372,5.372,0,0,1-7.6,0l-8.3-8.3A5.372,5.372,0,0,1,18.5,12.1Z" fill="#fff"/>
      <path id="패스_54" d="M30.6,30.5a6.362,6.362,0,0,1-4.5-1.9l-8.3-8.3a6.364,6.364,0,0,1,9-9l8.3,8.3a6.337,6.337,0,0,1,0,9h0A6.542,6.542,0,0,1,30.6,30.5Zm-8.3-19a4.439,4.439,0,0,0-4.4,4.4A4.387,4.387,0,0,0,19.2,19l8.3,8.3a4.406,4.406,0,0,0,6.2,0h0a4.406,4.406,0,0,0,0-6.2l-8.3-8.3a4.771,4.771,0,0,0-3.1-1.3Z" fill="#dbdbdb"/>
      <path id="패스_55" d="M27.2,24.7a1.612,1.612,0,0,1-1.3-.6l-3.6-3.6a2,2,0,0,1,0-2.7l1.9-1.9a2,2,0,0,1,2.7,0l3.6,3.6a2,2,0,0,1,0,2.7l-1.9,1.9A1.816,1.816,0,0,1,27.2,24.7Z" fill="#f2f2f2"/>
      <path id="패스_56" d="M27.2,24.7a1.612,1.612,0,0,1-1.3-.6l-3.6-3.6a2,2,0,0,1,0-2.7l1.9-1.9a2,2,0,0,1,2.7,0l3.6,3.6a2,2,0,0,1,0,2.7l-1.9,1.9A1.816,1.816,0,0,1,27.2,24.7Zm-1.6-7.9a.367.367,0,0,0-.3.1l-1.9,1.9a.375.375,0,0,0,0,.6L27,23a.375.375,0,0,0,.6,0l1.9-1.9a.375.375,0,0,0,0-.6h0l-3.6-3.6C25.8,16.9,25.7,16.8,25.6,16.8Z" fill="#dbdbdb"/>
      <circle id="타원_33" cx="0.4" cy="0.4" r="0.4" transform="translate(18.8 23.7)" fill="#dbdbdb"/>
      <circle id="타원_34" cx="0.4" cy="0.4" r="0.4" transform="translate(21.6 26.1)" fill="#dbdbdb"/>
      <circle id="타원_35" cx="0.4" cy="0.4" r="0.4" transform="translate(30 13.1)" fill="#dbdbdb"/>
      <circle id="타원_36" cx="0.4" cy="0.4" r="0.4" transform="translate(32.8 15.5)" fill="#dbdbdb"/>
    </g>
    <path id="패스_57" d="M51.4,55.2a.76.76,0,0,0-.8.6,5.95,5.95,0,0,1-7.2,4.1,6.031,6.031,0,0,1-4.1-4.1.871.871,0,0,0-.8-.6h0a.789.789,0,0,0-.8.8v.2a7.5,7.5,0,0,0,14.4,0,.8.8,0,0,0-.6-1Z" fill="#dbdbdb"/>
    <g id="그룹_26" transform="translate(7.66 42.856)">
      <ellipse id="타원_37" cx="4" cy="1.7" rx="4" ry="1.7" transform="translate(14.7 8.3)" fill="#eee"/>
      <ellipse id="타원_38" cx="4" cy="1.7" rx="4" ry="1.7" transform="translate(52 8.3)" fill="#eee"/>
    </g>
  </g>
</svg>
