<?xml version="1.0" encoding="utf-8"?>
<!-- Generator: Adobe Illustrator 22.1.0, SVG Export Plug-In . SVG Version: 6.00 Build 0)  -->
<svg version="1.1" id="레이어_1" xmlns="http://www.w3.org/2000/svg" xmlns:xlink="http://www.w3.org/1999/xlink" x="0px"
	 y="0px" viewBox="0 0 18 20" style="enable-background:new 0 0 18 20;" xml:space="preserve">
<style type="text/css">
	.st0{fill:#FFFFFF;stroke:#0072FF;stroke-miterlimit:10;}
	.st1{fill:none;stroke:#0072FF;stroke-miterlimit:10;}
	.st2{fill:#0072FF;}
</style>
<g>
	<path class="st0" d="M11.1,6c3.5,0,6.4,2.2,6.4,4.9c0,1.5-0.8,2.8-2.2,3.6l0.9,2L13,15.5c-0.6,0.1-1.2,0.2-1.9,0.2
		c-3.5,0-6.4-2.2-6.4-4.9S7.5,6,11.1,6z"/>
	<path class="st0" d="M6.9,3.5c-3.5,0-6.4,2.2-6.4,4.9c0,1.5,0.8,2.8,2.2,3.6l-0.9,2L5,13c0.6,0.1,1.2,0.2,1.9,0.2
		c3.5,0,6.4-2.2,6.4-4.9S10.5,3.5,6.9,3.5z"/>
</g>
</svg>
