<?xml version="1.0" encoding="utf-8"?>
<!-- Generator: Adobe Illustrator 22.1.0, SVG Export Plug-In . SVG Version: 6.00 Build 0)  -->
<svg version="1.1" id="레이어_1" xmlns="http://www.w3.org/2000/svg" xmlns:xlink="http://www.w3.org/1999/xlink" x="0px"
	 y="0px" viewBox="0 0 49.7 49.7" enable-background="new 0 0 49.7 49.7" xml:space="preserve">
<g>
	<g>
		<path fill="#0072FF" d="M24.9,48.2C12,48.2,1.5,37.8,1.5,24.9C1.5,12,12,1.5,24.9,1.5S48.2,12,48.2,24.9
			C48.2,37.8,37.8,48.2,24.9,48.2z"/>
		<path fill="#FFFFFF" d="M24.9,3c12.1,0,21.9,9.8,21.9,21.9s-9.8,21.9-21.9,21.9S3,36.9,3,24.9S12.8,3,24.9,3 M24.9,0
			C11.2,0,0,11.2,0,24.9s11.2,24.9,24.9,24.9s24.9-11.2,24.9-24.9S38.6,0,24.9,0L24.9,0z"/>
	</g>
	<polyline fill="none" stroke="#FFFFFF" stroke-width="2" stroke-miterlimit="10" points="15.2,24.5 21.3,31.6 34.6,18.1 	"/>
</g>
</svg>
