<?xml version="1.0" encoding="utf-8"?>
<!-- Generator: Adobe Illustrator 22.1.0, SVG Export Plug-In . SVG Version: 6.00 Build 0)  -->
<svg version="1.1" id="레이어_1" xmlns="http://www.w3.org/2000/svg" xmlns:xlink="http://www.w3.org/1999/xlink" x="0px"
	 y="0px" viewBox="0 0 138 22" style="enable-background:new 0 0 138 22;" xml:space="preserve">
<style type="text/css">
	.st0{fill:url(#SVGID_1_);}
	.st1{fill:#FFFFFF;}
</style>
<g>
	<g>
		<linearGradient id="SVGID_1_" gradientUnits="userSpaceOnUse" x1="0" y1="11" x2="15.9797" y2="11">
			<stop  offset="0" style="stop-color:#FFFFFF"/>
			<stop  offset="1" style="stop-color:#DCDCDC"/>
		</linearGradient>
		<path class="st0" d="M16,0H9.6C8.5,0,7.4,0.5,6.7,1.4L0.6,9.2c-0.8,1-0.8,2.5,0,3.5l6.1,7.9C7.4,21.5,8.5,22,9.6,22H16l-7-9
			C8.1,11.8,8.1,10.2,9,9L16,0z"/>
		<path class="st1" d="M19.4,1.3C18.7,0.5,17.6,0,16.5,0h-6.4H9.6C8.5,0,7.4,0.5,6.7,1.4L6.2,2.1c0,0,3.2-3,5.6,0.1l4.8,6h8.2
			L19.4,1.3z"/>
		<path class="st1" d="M11.8,19.9c-2.5,3-5.6,0.1-5.6,0.1l0.5,0.7C7.4,21.5,8.5,22,9.6,22h0.5h6.4c1.1,0,2.2-0.5,2.9-1.3l5.5-6.8
			h-8.2L11.8,19.9z"/>
	</g>
	<g>
		<g>
			<g>
				<path class="st1" d="M40.1,9.2h-1.1c-0.3-0.8-0.7-1.5-1.3-2c-0.6-0.5-1.4-0.8-2.3-0.8c-1.2,0-2.1,0.4-2.9,1.3
					c-0.8,0.9-1.1,2-1.1,3.4c0,1.4,0.4,2.5,1.1,3.4c0.7,0.9,1.7,1.3,2.9,1.3c0.9,0,1.7-0.3,2.3-0.8c0.6-0.5,1.1-1.2,1.3-2H40h1.3
					c-0.3,1.4-1,2.5-2,3.4c-1,0.9-2.3,1.4-3.9,1.4c-1.9,0-3.4-0.6-4.6-1.9c-1.2-1.3-1.7-2.9-1.7-4.7c0-1.9,0.6-3.4,1.7-4.7
					c1.1-1.3,2.7-1.9,4.6-1.9c1.6,0,2.9,0.5,3.9,1.4c1,0.9,1.7,2,2,3.4H40.1z"/>
				<path class="st1" d="M44.2,15.8c-1.2-1.3-1.7-2.9-1.7-4.7c0-1.9,0.6-3.4,1.7-4.7c1.1-1.3,2.7-1.9,4.6-1.9c1.9,0,3.4,0.6,4.6,1.9
					c1.2,1.3,1.7,2.9,1.7,4.7c0,1.8-0.6,3.4-1.7,4.7c-1.2,1.3-2.7,1.9-4.6,1.9C46.9,17.7,45.4,17,44.2,15.8z M51.7,7.7
					C51,6.8,50,6.3,48.8,6.3c-1.2,0-2.1,0.4-2.9,1.3c-0.8,0.9-1.1,2-1.1,3.4c0,1.4,0.4,2.5,1.1,3.4c0.7,0.9,1.7,1.3,2.9,1.3
					c1.2,0,2.1-0.4,2.9-1.3c0.7-0.9,1.1-2,1.1-3.4C52.9,9.7,52.5,8.5,51.7,7.7z"/>
				<path class="st1" d="M57.4,11.8V4.8h1.4h0.8v12.5h-2.2V11.8z"/>
				<path class="st1" d="M62.5,11.8V4.8h0.2h0.9h0h1.1H65c1.7,2.3,4.1,5.6,7.2,9.8v-2.7V4.8h1.4h0.8v12.5h-0.2h-2h-0.3
					c-1.3-1.8-3.7-5-7.2-9.8v9.8h-2.2V11.8z"/>
				<path class="st1" d="M80.8,12.9V6.6h-4.7V4.8h9.8h1.9v1.1v0.7H83v10.7h-2.2V12.9z"/>
				<path class="st1" d="M90,15.8c-1.2-1.3-1.7-2.9-1.7-4.7c0-1.9,0.6-3.4,1.7-4.7c1.1-1.3,2.7-1.9,4.6-1.9c1.9,0,3.4,0.6,4.6,1.9
					c1.2,1.3,1.7,2.9,1.7,4.7c0,1.8-0.6,3.4-1.7,4.7c-1.2,1.3-2.7,1.9-4.6,1.9C92.7,17.7,91.2,17,90,15.8z M97.5,7.7
					c-0.8-0.9-1.7-1.3-2.9-1.3c-1.2,0-2.1,0.4-2.9,1.3c-0.8,0.9-1.1,2-1.1,3.4c0,1.4,0.4,2.5,1.1,3.4c0.7,0.9,1.7,1.3,2.9,1.3
					c1.2,0,2.1-0.4,2.9-1.3c0.7-0.9,1.1-2,1.1-3.4C98.6,9.7,98.3,8.5,97.5,7.7z"/>
				<path class="st1" d="M104.6,15.9c-1.1-1.1-1.6-2.8-1.6-5V6.8v-2h2.2v3.1v3c0,1.6,0.3,2.8,1,3.6c0.7,0.8,1.5,1.2,2.5,1.2
					c1,0,1.9-0.4,2.5-1.2c0.7-0.8,1-2,1-3.6V7.8V4.8h2.2v2.8v3.3c0,2.2-0.5,3.8-1.6,5c-1.1,1.1-2.4,1.7-4.1,1.7
					C107,17.6,105.6,17,104.6,15.9z"/>
				<path class="st1" d="M119.8,6.9c-0.5,0.4-0.7,0.8-0.7,1.4c0,0.3,0.1,0.6,0.3,0.8c0.2,0.2,0.5,0.4,0.9,0.5
					c0.7,0.2,1.5,0.4,2.5,0.6c1,0.1,1.8,0.4,2.6,0.8c0.5,0.3,0.9,0.6,1.2,1c0.3,0.4,0.5,1,0.5,1.7c0,0.5-0.1,1-0.2,1.4
					c-0.2,0.4-0.4,0.7-0.7,1c-0.5,0.5-1.2,0.9-2,1.2c-0.8,0.2-1.6,0.3-2.4,0.3c-0.8,0-1.6-0.1-2.4-0.4c-0.8-0.3-1.5-0.7-2-1.2
					c-0.3-0.3-0.5-0.7-0.7-1.1c-0.2-0.4-0.2-0.9-0.2-1.4h2.3c0,0.7,0.3,1.3,0.9,1.7c0.6,0.4,1.3,0.6,2.1,0.6c0.8,0,1.5-0.2,2.1-0.5
					c0.6-0.3,0.9-0.8,0.9-1.5c0-0.3-0.1-0.6-0.3-0.8s-0.5-0.4-0.9-0.5c-0.7-0.3-1.5-0.5-2.4-0.6c-1-0.1-1.8-0.4-2.6-0.8
					c-0.5-0.3-0.9-0.6-1.2-1.1c-0.3-0.4-0.5-1-0.5-1.7c0-0.5,0.1-0.9,0.3-1.3c0.2-0.4,0.4-0.7,0.6-1c0.5-0.5,1.1-0.9,1.9-1.2
					c0.8-0.2,1.5-0.4,2.2-0.4c0.4,0,0.8,0,1.2,0.1c0.4,0.1,0.8,0.2,1.2,0.3c0.7,0.3,1.3,0.7,1.8,1.3c0.5,0.6,0.8,1.3,0.8,2.3h-2.3
					c0-0.6-0.3-1.1-0.8-1.5c-0.5-0.4-1.1-0.6-1.9-0.6C121,6.3,120.3,6.5,119.8,6.9z"/>
				<path class="st1" d="M129.1,4.8h2.2h6.7v1.9h-6.7V10h6.2v1.9h-6.2v3.6h6.7v1.9h-6.7h-2.2V4.8z"/>
			</g>
		</g>
	</g>
</g>
</svg>
