<?xml version="1.0" encoding="utf-8"?>
<!-- Generator: Adobe Illustrator 22.1.0, SVG Export Plug-In . SVG Version: 6.00 Build 0)  -->
<svg version="1.1" id="레이어_1" xmlns="http://www.w3.org/2000/svg" xmlns:xlink="http://www.w3.org/1999/xlink" x="0px"
	 y="0px" viewBox="0 0 21 22" enable-background="new 0 0 21 22" xml:space="preserve">
<g>
	<path fill="#FFFFFF" d="M3.5,9l0.4-6.2h13.4L17.5,9h-0.8c-0.5-3.7-1.8-5.5-4-5.5c-0.4,0-0.7,0.1-0.8,0.2c-0.2,0.1-0.3,0.4-0.3,0.8
		v13.2c0,0.5,0.3,0.8,1,0.8h1.7v0.8H6.7v-0.8h1.9c0.5,0,0.8-0.2,0.8-0.7V4.3c0-0.6-0.4-0.8-1.1-0.8c-2.1,0-3.4,1.8-4,5.5H3.5z"/>
</g>
</svg>
