<?xml version="1.0" encoding="utf-8"?>
<!-- Generator: Adobe Illustrator 22.1.0, SVG Export Plug-In . SVG Version: 6.00 Build 0)  -->
<svg version="1.1" id="레이어_1" xmlns="http://www.w3.org/2000/svg" xmlns:xlink="http://www.w3.org/1999/xlink" x="0px"
	 y="0px" viewBox="0 0 22 22" style="enable-background:new 0 0 22 22;" xml:space="preserve">
<style type="text/css">
	.st0{fill:#6265E3;}
	.st1{fill:#FFA000;}
	.st2{fill:#2DA804;}
	.st3{fill:#969696;}
	.st4{fill:#00ACDF;}
	.st5{fill:#D965E3;}
	.st6{fill:#FFFFFF;}
	.st7{fill:#49D094;}
</style>
<circle class="st2" cx="11" cy="11" r="11"/>
<g>
	<circle class="st6" cx="5.7" cy="11" r="1.3"/>
	<path class="st6" d="M11,9.7c-0.7,0-1.3,0.6-1.3,1.3c0,0.7,0.6,1.3,1.3,1.3c0.7,0,1.3-0.6,1.3-1.3C12.3,10.3,11.7,9.7,11,9.7z"/>
	<path class="st6" d="M16.3,9.7c-0.7,0-1.3,0.6-1.3,1.3c0,0.7,0.6,1.3,1.3,1.3c0.7,0,1.3-0.6,1.3-1.3C17.6,10.3,17,9.7,16.3,9.7z"/>
</g>
</svg>
