<?xml version="1.0" encoding="utf-8"?>
<!-- Generator: Adobe Illustrator 22.1.0, SVG Export Plug-In . SVG Version: 6.00 Build 0)  -->
<svg version="1.1" id="레이어_1" xmlns="http://www.w3.org/2000/svg" xmlns:xlink="http://www.w3.org/1999/xlink" x="0px"
	 y="0px" viewBox="0 0 48 48" enable-background="new 0 0 48 48" xml:space="preserve">
<circle fill="#FFFFFF" cx="24" cy="24" r="24"/>
<g>
	<g opacity="0.5">
		<circle fill="none" stroke="#0072FF" stroke-miterlimit="10" cx="27.7" cy="16.4" r="4.3"/>
		<path fill="none" stroke="#0072FF" stroke-miterlimit="10" d="M19,30.3L19,30.3c0-4,3.3-7.3,7.3-7.3h2.8c4,0,7.3,3.3,7.3,7.3v0H19
			z"/>
	</g>
	<circle fill="#0072FF" cx="18.4" cy="29.1" r="6.8"/>
	<g>
		<polygon fill="#FFFFFF" points="18,26.9 16.5,30.3 15.1,27 15,26.9 14.6,26.9 13.8,31.4 14.3,31.4 15,27.9 16.4,31.2 16.7,31.2 
			18.1,27.9 18.7,31.4 19.2,31.4 18.4,26.9 		"/>
		<polygon fill="#FFFFFF" points="22.3,26.9 20.9,29.1 19.5,26.9 18.9,26.9 20.6,29.6 20.6,31.4 21.1,31.4 21.1,29.6 22.9,26.9 		
			"/>
	</g>
</g>
</svg>
