<?xml version="1.0" encoding="utf-8"?>
<!-- Generator: Adobe Illustrator 22.1.0, SVG Export Plug-In . SVG Version: 6.00 Build 0)  -->
<svg version="1.1" id="레이어_1" xmlns="http://www.w3.org/2000/svg" xmlns:xlink="http://www.w3.org/1999/xlink" x="0px"
	 y="0px" viewBox="0 0 62 62" enable-background="new 0 0 62 62" xml:space="preserve">
<g>
	<g>
		<circle fill="#FFFFFF" cx="31" cy="31" r="31"/>
		<path fill="#0045AB" d="M31,2c16,0,29,13,29,29S47,60,31,60S2,47,2,31S15,2,31,2 M31,0C13.9,0,0,13.9,0,31c0,17.1,13.9,31,31,31
			s31-13.9,31-31C62,13.9,48.1,0,31,0L31,0z"/>
	</g>
	<g>
		<path fill="#0045AB" d="M41.7,45.7H20.3V25.9h21.5V45.7z M22.3,43.7h17.5V27.9H22.3V43.7z"/>
		<path fill="#0045AB" d="M38,26.4h-2v-5.1c0-2.8-2.2-5-5-5s-5,2.2-5,5v5.1h-2v-5.1c0-3.9,3.1-7,7-7c3.9,0,7,3.1,7,7V26.4z"/>
	</g>
	<g>
		<circle fill="#0045AB" cx="31" cy="34.5" r="2"/>
		<rect x="30" y="34.5" fill="#0045AB" width="2" height="4.6"/>
	</g>
</g>
</svg>
