<?xml version="1.0" encoding="utf-8"?>
<!-- Generator: Adobe Illustrator 22.1.0, SVG Export Plug-In . SVG Version: 6.00 Build 0)  -->
<svg version="1.1" id="레이어_1" xmlns="http://www.w3.org/2000/svg" xmlns:xlink="http://www.w3.org/1999/xlink" x="0px"
	 y="0px" viewBox="0 0 350 369.8" style="enable-background:new 0 0 350 369.8;" xml:space="preserve">
<style type="text/css">
	.st0{fill:url(#SVGID_1_);}
	.st1{fill:#FFFFFF;}
	.st2{fill:#0747AD;}
	.st3{fill:#1D324F;}
	.st4{fill:none;}
	.st5{fill:url(#SVGID_2_);}
	.st6{fill:url(#SVGID_3_);}
	.st7{fill:url(#SVGID_4_);}
	.st8{fill:url(#SVGID_5_);}
	.st9{fill:#787878;}
	.st10{fill:none;stroke:#0747AD;stroke-width:3;stroke-linecap:square;stroke-miterlimit:10;}
	.st11{fill:url(#SVGID_6_);}
	.st12{fill:url(#SVGID_7_);}
	.st13{fill:url(#SVGID_8_);}
	.st14{fill:url(#SVGID_9_);}
	.st15{fill:#0072FF;}
	.st16{fill:#E6E6E6;}
	.st17{fill:#B50037;}
	.st18{fill:#1E3476;}
	.st19{clip-path:url(#SVGID_11_);fill:#AD0018;}
	.st20{fill:#CB0028;}
	.st21{fill:#1A237B;}
	.st22{opacity:0.3;fill:#FFFFFF;}
	.st23{fill:none;stroke:#FFFFFF;stroke-width:0.7;stroke-miterlimit:10;}
</style>
<linearGradient id="SVGID_1_" gradientUnits="userSpaceOnUse" x1="175" y1="284.7266" x2="175" y2="-9.094947e-13">
	<stop  offset="0" style="stop-color:#072C98"/>
	<stop  offset="0.7558" style="stop-color:#0740A7"/>
	<stop  offset="1" style="stop-color:#0747AD"/>
</linearGradient>
<rect class="st0" width="350" height="284.7"/>
<circle class="st1" cx="175" cy="131.4" r="90.7"/>
<g>
	<g>
		<path class="st2" d="M156.5,135.4h-9.7l-1.6,4.2h-6.4l9.6-24.6h6.6l9.8,24.6h-6.6L156.5,135.4z M151.6,122.9l-2.7,6.9h5.4
			L151.6,122.9z"/>
		<path class="st2" d="M166.7,114.9h6.6v24.6h-6.6V114.9z"/>
		<path class="st2" d="M175.8,114.9h6.6v24.6h-6.6V114.9z"/>
		<path class="st3" d="M225.4,123.2h6.6v16.3h-6.6V123.2z M225.4,114.9h6.5v5.8h-6.5V114.9z"/>
		<path class="st3" d="M253.8,127.5v12.1h-6.6v-11.1c0-2.3-1.1-3.4-2.7-3.4c-2.1,0-3,1.5-3,4v10.6h-6.6v-19.8h5l0.2,2
			c1.4-1.6,3.3-2.4,6.5-2.4C250.9,119.4,253.8,122.8,253.8,127.5z"/>
		<path class="st4" d="M197,134c0.1,0,0.1,0,0.2-0.1C197.1,134,197,134,197,134z"/>
		<path class="st4" d="M195.8,134.2c0.2,0,0.3,0,0.5,0C196.2,134.1,196,134.2,195.8,134.2z"/>
		<path class="st4" d="M196.3,134.1c0.2,0,0.3-0.1,0.5-0.1C196.7,134.1,196.5,134.1,196.3,134.1z"/>
		<path class="st3" d="M196.3,134.1C196.3,134.1,196.3,134.1,196.3,134.1C196.3,134.1,196.3,134.1,196.3,134.1z"/>
		<path class="st3" d="M196.8,134c0.1,0,0.1,0,0.2,0C196.9,134,196.9,134,196.8,134z"/>
		<path class="st4" d="M199.1,132.6c0.1-0.1,0.1-0.1,0.2-0.2C199.2,132.5,199.1,132.6,199.1,132.6z"/>
		<path class="st4" d="M209.2,127.1c0.1-0.1,0.2-0.2,0.2-0.3C209.4,126.9,209.3,127,209.2,127.1z"/>
		<path class="st3" d="M208.8,127.8C208.8,127.8,208.8,127.8,208.8,127.8C208.8,127.8,208.8,127.8,208.8,127.8z"/>
		<path class="st3" d="M209,127.5C209,127.4,209,127.4,209,127.5C209,127.4,209,127.4,209,127.5z"/>
		<path class="st3" d="M204.1,135.9c1.5-2.1,3.6-6.4,3.6-6.4c0.5-0.9,1-1.7,1.5-2.4c0.1-0.1,0.2-0.2,0.2-0.3c0,0,0,0,0,0
			c0,0,0,0,0,0c0.8-0.8,1.9-1.3,3.1-1.3c2.4,0,4.4,1.9,4.4,4.4c0,2.4-1.9,4.4-4.4,4.4v6c0,0,0,0-0.1,0v0c5,0,9.2-3.5,10.2-8.3
			c0-0.2,0.1-0.3,0.1-0.5c0-0.1,0-0.2,0-0.3c0-0.2,0-0.3,0.1-0.5c0-0.1,0-0.2,0-0.3c0,0,0-0.1,0-0.1c0-0.2,0-0.3,0-0.5
			c0-0.1,0-0.1,0-0.2c0,0,0,0,0,0c0,0,0-0.1,0-0.1c-0.1-2.9-1.4-5.8-3.8-7.7c-1.8-1.5-4.2-2.4-6.7-2.4c-0.1,0-0.2,0-0.2,0
			c-0.2,0-0.3,0-0.5,0c-0.1,0-0.3,0-0.4,0c-0.1,0-0.2,0-0.3,0c-2.9,0.4-5.5,2-7.1,5c0,0,0,0,0,0c0,0-2.6,5.3-4.7,8
			c-0.1,0.1-0.1,0.1-0.2,0.2c0,0,0,0,0,0c0,0,0,0,0,0c-0.5,0.6-1.2,1.1-1.9,1.3c-0.1,0-0.1,0-0.2,0.1c-0.1,0-0.1,0-0.2,0
			c-0.2,0-0.3,0.1-0.5,0.1c0,0,0,0,0,0c-0.2,0-0.3,0-0.5,0c0,0,0,0,0,0c0,0,0,0,0,0c-0.6,0-1.3-0.1-1.9-0.4c-2-0.8-3-2.9-2.5-4.9
			c0.5-2,2.2-3.3,4.3-3.3l0,0c1.5,0,2.9,0.4,3.7,1.2l2.6-5.1c-1.3-1-2.7-1.7-4.3-2c-6.1-1.3-11.8,2.8-12.6,8.9
			c-0.9,6.3,4.5,12.1,10.9,11.8C199.5,140.1,202.2,138.7,204.1,135.9"/>
		<path class="st3" d="M209.2,127.1C209.2,127.1,209.2,127.1,209.2,127.1C209.2,127.1,209.2,127.1,209.2,127.1z"/>
		<linearGradient id="SVGID_2_" gradientUnits="userSpaceOnUse" x1="206.7301" y1="125.933" x2="216.1259" y2="129.6376">
			<stop  offset="0" style="stop-color:#FFFFFF;stop-opacity:0"/>
			<stop  offset="0.1496" style="stop-color:#BFC5CE;stop-opacity:0.2016"/>
			<stop  offset="0.3018" style="stop-color:#8691A1;stop-opacity:0.4068"/>
			<stop  offset="0.4427" style="stop-color:#59687E;stop-opacity:0.5966"/>
			<stop  offset="0.5675" style="stop-color:#384B64;stop-opacity:0.7648"/>
			<stop  offset="0.6715" style="stop-color:#243955;stop-opacity:0.905"/>
			<stop  offset="0.742" style="stop-color:#1D324F"/>
		</linearGradient>
		<path class="st5" d="M209.5,126.8C209.5,126.8,209.5,126.8,209.5,126.8c-0.1,0.1-0.2,0.2-0.3,0.3c0,0,0,0,0,0
			C209.3,127,209.4,126.9,209.5,126.8z"/>
		<linearGradient id="SVGID_3_" gradientUnits="userSpaceOnUse" x1="202.5792" y1="136.4609" x2="211.9749" y2="140.1655">
			<stop  offset="0" style="stop-color:#FFFFFF;stop-opacity:0"/>
			<stop  offset="0.1496" style="stop-color:#BFC5CE;stop-opacity:0.2016"/>
			<stop  offset="0.3018" style="stop-color:#8691A1;stop-opacity:0.4068"/>
			<stop  offset="0.4427" style="stop-color:#59687E;stop-opacity:0.5966"/>
			<stop  offset="0.5675" style="stop-color:#384B64;stop-opacity:0.7648"/>
			<stop  offset="0.6715" style="stop-color:#243955;stop-opacity:0.905"/>
			<stop  offset="0.742" style="stop-color:#1D324F"/>
		</linearGradient>
		<path class="st6" d="M205.8,137.7C205.8,137.7,205.7,137.7,205.8,137.7C205.7,137.7,205.7,137.7,205.8,137.7
			C205.7,137.7,205.8,137.7,205.8,137.7C205.8,137.7,205.8,137.7,205.8,137.7z"/>
		<polygon class="st3" points="209.5,126.8 209.5,126.8 209.5,126.8 		"/>
		<linearGradient id="SVGID_4_" gradientUnits="userSpaceOnUse" x1="206.7999" y1="125.7563" x2="216.1956" y2="129.4609">
			<stop  offset="0" style="stop-color:#FFFFFF;stop-opacity:0"/>
			<stop  offset="0.1496" style="stop-color:#BFC5CE;stop-opacity:0.2016"/>
			<stop  offset="0.3018" style="stop-color:#8691A1;stop-opacity:0.4068"/>
			<stop  offset="0.4427" style="stop-color:#59687E;stop-opacity:0.5966"/>
			<stop  offset="0.5675" style="stop-color:#384B64;stop-opacity:0.7648"/>
			<stop  offset="0.6715" style="stop-color:#243955;stop-opacity:0.905"/>
			<stop  offset="0.742" style="stop-color:#1D324F"/>
		</linearGradient>
		<polygon class="st7" points="209.5,126.8 209.5,126.8 209.5,126.8 		"/>
		<linearGradient id="SVGID_5_" gradientUnits="userSpaceOnUse" x1="204.5863" y1="131.3705" x2="213.9821" y2="135.0751">
			<stop  offset="0" style="stop-color:#FFFFFF;stop-opacity:0"/>
			<stop  offset="6.959521e-02" style="stop-color:#D4D8DD;stop-opacity:9.379452e-02"/>
			<stop  offset="0.1583" style="stop-color:#A4ACB8;stop-opacity:0.2134"/>
			<stop  offset="0.2497" style="stop-color:#7A8798;stop-opacity:0.3365"/>
			<stop  offset="0.3423" style="stop-color:#59687D;stop-opacity:0.4613"/>
			<stop  offset="0.4365" style="stop-color:#3E5069;stop-opacity:0.5883"/>
			<stop  offset="0.5328" style="stop-color:#2C3F5A;stop-opacity:0.7181"/>
			<stop  offset="0.6328" style="stop-color:#213552;stop-opacity:0.8528"/>
			<stop  offset="0.742" style="stop-color:#1D324F"/>
		</linearGradient>
		<path class="st8" d="M212.6,134.2c-2.4,0-4.4-1.9-4.4-4.4c0-1.2,0.5-2.2,1.2-3c-0.7,0.7-1.3,1.6-1.8,2.7c0,0-2.1,4.3-3.6,6.4
			c0,0,1,1.3,1.7,1.8c0,0,0,0,0,0c0,0,0,0,0,0c1.8,1.6,4.2,2.5,6.8,2.5c0,0,0,0,0.1,0L212.6,134.2L212.6,134.2z"/>
	</g>
	<g>
		<g>
			<polygon class="st9" points="148.9,153 147.7,149.2 146.6,149.2 145.3,153 144.1,149.2 142.9,149.2 144.7,154.9 145.9,154.9 
				147.1,151.1 148.4,154.9 149.5,154.9 151.4,149.2 150.2,149.2 			"/>
			<path class="st9" d="M156.4,150c-0.5-0.6-1.3-1-2.1-1c-0.8,0-1.5,0.3-2.1,0.9c-0.5,0.6-0.8,1.3-0.8,2.2c0,0.8,0.3,1.6,0.8,2.1
				c0.6,0.6,1.3,0.9,2.1,0.9c0.9,0,1.6-0.3,2.1-1v0.8h1.2v-5.8h-1.2V150z M155.7,150.7c0.4,0.4,0.6,0.8,0.6,1.4c0,0.5-0.2,1-0.6,1.4
				c-0.4,0.4-0.8,0.6-1.3,0.6c-0.5,0-1-0.2-1.3-0.6c-0.4-0.4-0.5-0.8-0.5-1.4c0-0.3,0-0.5,0.1-0.7c0.1-0.2,0.2-0.4,0.4-0.6
				c0.4-0.4,0.8-0.6,1.3-0.6C154.9,150.1,155.4,150.3,155.7,150.7L155.7,150.7z"/>
			<path class="st9" d="M178.7,149c-0.9,0-1.6,0.3-2.1,1v-2.6h-1.2v7.6h1.2v-0.8c0.6,0.7,1.3,1,2.1,1c0.8,0,1.5-0.3,2.1-0.9
				c0.5-0.6,0.8-1.3,0.8-2.1c0-0.8-0.3-1.5-0.8-2.2C180.2,149.3,179.5,149,178.7,149z M180.4,152.1c0,0.5-0.2,1-0.5,1.4
				c-0.4,0.4-0.8,0.6-1.3,0.6c-0.5,0-0.9-0.2-1.3-0.6c-0.4-0.4-0.6-0.8-0.6-1.4c0-0.5,0.2-1,0.6-1.4c0.4-0.4,0.8-0.6,1.3-0.6
				c0.5,0,0.9,0.2,1.3,0.6c0.2,0.2,0.3,0.4,0.4,0.6C180.4,151.5,180.4,151.8,180.4,152.1z"/>
			<rect x="158.5" y="148.1" class="st9" width="1.1" height="6.9"/>
			<rect x="160.5" y="148.1" class="st9" width="1.1" height="6.9"/>
			<path class="st9" d="M165.7,149c-0.8,0-1.6,0.3-2.2,0.9c-0.6,0.6-0.9,1.3-0.9,2.2c0,0.8,0.3,1.6,0.9,2.2c0.6,0.6,1.3,0.9,2.2,0.9
				c0.5,0,0.9-0.1,1.4-0.3c0.4-0.2,0.8-0.5,1.1-0.9l0.1-0.1l-1-0.6l-0.1,0.1c-0.4,0.5-0.9,0.7-1.5,0.7c-0.4,0-0.8-0.1-1.2-0.4
				c-0.3-0.3-0.5-0.6-0.6-0.9h4.9l0-0.1c0-0.1,0-0.3,0-0.5c0-0.8-0.3-1.6-0.9-2.2C167.3,149.3,166.5,149,165.7,149z M163.8,151.5
				c0.1-0.4,0.3-0.7,0.6-0.9c0.4-0.3,0.8-0.4,1.2-0.4c0.4,0,0.8,0.1,1.2,0.4l0,0c0.3,0.2,0.5,0.6,0.6,0.9H163.8z"/>
			<polygon class="st9" points="171.4,147.7 170.2,147.7 170.2,149.2 169.1,149.2 169.1,150.4 170.2,150.4 170.2,154.9 171.4,154.9 
				171.4,150.4 172.5,150.4 172.5,149.2 171.4,149.2 			"/>
			<path class="st9" d="M186.2,149.2l-1.7,4.1l-1.7-4.1h-1.2l2.3,5.6l-0.3,0.8c0,0.1-0.1,0.2-0.3,0.2c-0.1,0-0.3,0-0.4-0.1l-0.1,0
				v1.2l0.1,0c0.2,0.1,0.4,0.1,0.5,0.1c0.7,0,1.2-0.3,1.4-0.9l2.8-6.8H186.2z"/>
		</g>
		<g>
			<g>
				<path class="st2" d="M195.7,150.5h-0.6c-0.1-0.4-0.4-0.8-0.7-1.1c-0.4-0.3-0.8-0.4-1.3-0.4c-0.6,0-1.2,0.2-1.6,0.7
					c-0.4,0.5-0.6,1.1-0.6,1.9c0,0.8,0.2,1.4,0.6,1.8c0.4,0.5,0.9,0.7,1.6,0.7c0.5,0,0.9-0.1,1.3-0.4c0.3-0.3,0.6-0.7,0.7-1.1h0.5
					h0.7c-0.2,0.7-0.5,1.4-1.1,1.9c-0.5,0.5-1.2,0.7-2.1,0.7c-1,0-1.9-0.3-2.5-1c-0.6-0.7-1-1.6-1-2.6c0-1,0.3-1.9,1-2.6
					c0.6-0.7,1.5-1,2.5-1c0.9,0,1.6,0.2,2.1,0.7c0.6,0.5,0.9,1.1,1.1,1.9H195.7z"/>
				<path class="st2" d="M198,154.1c-0.6-0.7-1-1.6-1-2.6c0-1,0.3-1.9,1-2.6c0.6-0.7,1.5-1,2.5-1c1,0,1.9,0.3,2.5,1
					c0.6,0.7,1,1.6,1,2.6c0,1-0.3,1.9-1,2.6c-0.6,0.7-1.5,1-2.5,1C199.4,155.1,198.6,154.8,198,154.1z M202.1,149.7
					c-0.4-0.5-0.9-0.7-1.6-0.7c-0.6,0-1.2,0.2-1.6,0.7c-0.4,0.5-0.6,1.1-0.6,1.9c0,0.8,0.2,1.4,0.6,1.8c0.4,0.5,0.9,0.7,1.6,0.7
					c0.6,0,1.2-0.2,1.6-0.7c0.4-0.5,0.6-1.1,0.6-1.8C202.7,150.8,202.5,150.1,202.1,149.7z"/>
				<path class="st2" d="M205.2,152v-3.9h0.8h0.4v6.9h-1.2V152z"/>
				<path class="st2" d="M207.9,152v-3.9h0.1h0.5h0h0.6h0.2c0.9,1.3,2.2,3,3.9,5.3V152v-3.9h0.8h0.5v6.9h-0.1h-1.1h-0.2
					c-0.7-1-2-2.7-3.9-5.3v5.3h-1.2V152z"/>
				<path class="st2" d="M218,152.5v-3.4h-2.6v-1h5.4h1v0.6v0.4h-2.6v5.8H218V152.5z"/>
				<path class="st2" d="M223,154.1c-0.6-0.7-1-1.6-1-2.6c0-1,0.3-1.9,1-2.6c0.6-0.7,1.5-1,2.5-1c1,0,1.9,0.3,2.5,1
					c0.6,0.7,1,1.6,1,2.6c0,1-0.3,1.9-1,2.6c-0.6,0.7-1.5,1-2.5,1C224.5,155.1,223.6,154.8,223,154.1z M227.1,149.7
					c-0.4-0.5-0.9-0.7-1.6-0.7c-0.6,0-1.2,0.2-1.6,0.7c-0.4,0.5-0.6,1.1-0.6,1.9c0,0.8,0.2,1.4,0.6,1.8c0.4,0.5,0.9,0.7,1.6,0.7
					c0.6,0,1.2-0.2,1.6-0.7c0.4-0.5,0.6-1.1,0.6-1.8C227.7,150.8,227.5,150.1,227.1,149.7z"/>
				<path class="st2" d="M231,154.2c-0.6-0.6-0.9-1.5-0.9-2.7v-2.2v-1.1h1.2v1.7v1.7c0,0.9,0.2,1.6,0.5,2c0.4,0.4,0.8,0.6,1.4,0.6
					c0.6,0,1-0.2,1.4-0.6c0.4-0.4,0.5-1.1,0.5-2v-1.7v-1.7h1.2v1.5v1.8c0,1.2-0.3,2.1-0.9,2.7c-0.6,0.6-1.3,0.9-2.3,0.9
					C232.3,155.1,231.5,154.8,231,154.2z"/>
				<path class="st2" d="M239.3,149.3c-0.3,0.2-0.4,0.5-0.4,0.8c0,0.2,0.1,0.3,0.2,0.4c0.1,0.1,0.3,0.2,0.5,0.3
					c0.4,0.1,0.8,0.2,1.3,0.3c0.5,0.1,1,0.2,1.4,0.4c0.3,0.1,0.5,0.3,0.7,0.6c0.2,0.2,0.3,0.6,0.3,1c0,0.3,0,0.5-0.1,0.7
					c-0.1,0.2-0.2,0.4-0.4,0.6c-0.3,0.3-0.6,0.5-1.1,0.6c-0.4,0.1-0.9,0.2-1.3,0.2c-0.4,0-0.9-0.1-1.3-0.2c-0.4-0.1-0.8-0.4-1.1-0.7
					c-0.1-0.2-0.3-0.4-0.4-0.6c-0.1-0.2-0.1-0.5-0.1-0.8h1.3c0,0.4,0.2,0.7,0.5,0.9c0.3,0.2,0.7,0.3,1.2,0.3c0.4,0,0.8-0.1,1.2-0.2
					c0.3-0.2,0.5-0.4,0.5-0.8c0-0.2-0.1-0.3-0.2-0.5c-0.1-0.1-0.3-0.2-0.5-0.3c-0.4-0.1-0.8-0.2-1.3-0.3c-0.5-0.1-1-0.2-1.4-0.4
					c-0.3-0.1-0.5-0.3-0.7-0.6c-0.2-0.2-0.3-0.6-0.3-1c0-0.3,0-0.5,0.1-0.7c0.1-0.2,0.2-0.4,0.4-0.5c0.3-0.3,0.6-0.5,1-0.6
					c0.4-0.1,0.8-0.2,1.2-0.2c0.2,0,0.4,0,0.6,0.1c0.2,0,0.4,0.1,0.6,0.2c0.4,0.2,0.7,0.4,1,0.7c0.3,0.3,0.4,0.7,0.4,1.3h-1.3
					c0-0.3-0.1-0.6-0.4-0.8c-0.3-0.2-0.6-0.3-1-0.3C239.9,149,239.6,149.1,239.3,149.3z"/>
				<path class="st2" d="M244.4,148.1h1.2h3.7v1h-3.7v1.8h3.4v1h-3.4v2h3.7v1h-3.7h-1.2V148.1z"/>
			</g>
		</g>
	</g>
	<g>
		<polygon class="st2" points="109.3,121.3 117.4,123 117.4,119.7 		"/>
		<path class="st2" d="M126.2,127.8c0,0-20.4-4.3-20.7-4.3c-0.3-0.1-0.7-0.1-1-0.2c-0.5-0.1-0.9-0.4-1.2-0.8
			c-0.3-0.5-0.4-1.2-0.2-1.7c0.1-0.2,0.2-0.4,0.3-0.5c0.3-0.4,0.7-0.6,1.1-0.6c0.1,0,25.3-5.2,25.3-5.2c0-1.7-1.6-3-3.2-2.6
			c0,0-23,4.7-23,4.7c-0.3,0.1-0.5,0.1-0.8,0.2c-0.3,0.1-0.5,0.1-0.8,0.2c-0.4,0.1-0.7,0.2-1,0.4c-0.3,0.2-0.6,0.4-0.9,0.6
			c-0.3,0.2-0.6,0.5-0.8,0.7c-0.3,0.3-0.5,0.5-0.7,0.9c-0.2,0.3-0.4,0.6-0.6,1c-0.2,0.3-0.3,0.7-0.4,1.1c-0.1,0.4-0.2,0.8-0.3,1.2
			c-0.1,0.4-0.1,0.8-0.1,1.1c0,0,0,20.8,0,20.8c0,3.6,2.5,6.7,6.1,7.5l19.9,4.2c0.5,0.1,1.1,0.2,1.6,0.2c1.7,0,3.4-0.6,4.8-1.7
			c1.8-1.5,2.8-3.6,2.8-5.9v-13.4C132.3,131.6,129.7,128.5,126.2,127.8z M128.4,143.7c0,1.2-1,2.1-2.1,1.9l-7.3-1.5
			c-0.9-0.1-1.6-0.9-1.6-1.9v-3c0-1.2,1-2.1,2.1-1.9l7.3,1.5c0.9,0.1,1.6,0.9,1.6,1.9V143.7z"/>
		<polygon class="st2" points="129.9,117.1 120.6,119 120.6,123.7 129.9,125.7 		"/>
		<circle class="st2" cx="120.6" cy="141.1" r="1.5"/>
	</g>
</g>
<g>
	<path class="st2" d="M350,369.8v-83.4c0-42.6-30.5-79.9-72.5-88.7c0,0-244-50.8-247.9-51.6c-3.9-0.7-7.9-1.6-11.7-2.8
		c-5.8-1.7-11.2-4.9-14.5-10.1c-1.9-3-3-6.4-3.4-9.9v246.4H350z"/>
</g>
<g>
	<path class="st1" d="M98.5,181.9l-0.2,0.7l-8.8-1.8l0.2-0.7l3.9,0.8l0.5-2.3l-2.9-0.6l0.9-4.5l6.7,1.4l-0.9,4.5l-2.9-0.6l-0.5,2.3
		L98.5,181.9z M92.2,177.4l4.9,1l0.7-3.1l-4.9-1L92.2,177.4z"/>
	<path class="st1" d="M108.7,181l-0.1,0.7l-8.7-1.8l0.1-0.7L108.7,181z M101.1,183.5l5.8,1.2l-0.1,0.7l-6.7-1.4l0.6-2.8l0.9,0.2
		L101.1,183.5z M107.9,179.8l-6.6-1.4l0.7-3.4l6.5,1.4l-0.2,0.7l-5.7-1.2l-0.4,2l5.8,1.2L107.9,179.8z"/>
	<path class="st1" d="M120.5,186.4l-0.2,0.7l-8.7-1.8l0.2-0.7l3.4,0.7l0.5-2.5l0.9,0.2l-0.5,2.5L120.5,186.4z M119.4,181.6
		c0.1-0.5,0.2-1,0.3-1.4l0-0.2l-5.8-1.2l0.2-0.7l6.1,1.3l0.5,0.1l-0.2,0.9c-0.2,1.2-0.5,2.5-1.3,4.4l-0.9-0.3
		c0.4-0.8,0.6-1.6,0.8-2.2l-5.9-0.9l0-0.8L119.4,181.6z"/>
	<path class="st1" d="M124.6,184.9c-1.4-0.3-2.3-1.5-2-2.9c0.3-1.4,1.6-2.1,3-1.8c1.4,0.3,2.3,1.5,2,2.9
		C127.3,184.5,126,185.2,124.6,184.9z M129.4,189.4l-0.2,0.7l-6.5-1.4l0.6-3.1l0.9,0.2l-0.5,2.4L129.4,189.4z M124.7,184.2
		c1,0.2,1.8-0.3,2-1.3c0.2-0.9-0.4-1.8-1.3-2c-0.9-0.2-1.8,0.3-2,1.3C123.2,183.2,123.8,184,124.7,184.2z M129.4,187.6l-0.9-0.2
		l1.5-7.1l0.9,0.2L129.4,187.6z"/>
	<path class="st1" d="M140.5,186.9l-0.1,0.7l-8.7-1.8l0.1-0.7L140.5,186.9z M132.7,190.2l6,1.2l-0.1,0.7l-6.8-1.4l0.5-2.3l5.7,1.2
		l0.2-0.9l-5.7-1.2l0.1-0.7l6.6,1.4l-0.5,2.2l-5.7-1.2L132.7,190.2z M133.2,183c0.2-1.1,1.6-1.4,3.7-1c2.1,0.4,3.3,1.3,3,2.4
		c-0.2,1.1-1.6,1.4-3.7,1C134.1,184.9,133,184.1,133.2,183z M134.1,183.2c-0.1,0.6,0.7,1.2,2.3,1.5c1.6,0.3,2.6,0.2,2.7-0.5
		c0.1-0.6-0.7-1.2-2.3-1.5C135.2,182.3,134.2,182.5,134.1,183.2z"/>
	<path class="st1" d="M154.3,188.6l-0.3,1.3l-10.6-2.2l0.3-1.3l4.4,0.9l0.1-0.7c-2.1-0.6-3.2-1.5-3-2.7c0.3-1.3,2-1.7,4.7-1.1
		c2.7,0.6,4.1,1.6,3.8,2.9c-0.2,1.2-1.6,1.6-3.8,1.3l-0.1,0.7L154.3,188.6z M145.5,192.6l6.7,1.4l-0.3,1.3l-8.4-1.7l0.6-3.1l6.4,1.3
		l0.1-0.6l-6.4-1.3l0.3-1.2l8.1,1.7l-0.6,3l-6.4-1.3L145.5,192.6z M149.4,185.6c1.7,0.4,2.6,0.3,2.7-0.3c0.1-0.5-0.6-0.9-2.3-1.3
		c-1.7-0.4-2.5-0.3-2.7,0.2C147,184.8,147.7,185.2,149.4,185.6z"/>
	<path class="st1" d="M164.8,195.2l-0.3,1.4l-10.6-2.2l0.3-1.4l3.8,0.8l0.6-2.8l1.7,0.3l-0.6,2.8L164.8,195.2z M163.2,189.4
		c0.1-0.5,0.3-1,0.3-1.5l-6.7-1.4l0.3-1.3l8.4,1.7l-0.2,1c-0.3,1.4-0.6,3.1-1.7,5.5L162,193c0.4-0.8,0.7-1.6,0.9-2.3l-6.8-1l0.1-1.5
		L163.2,189.4z"/>
	<path class="st1" d="M169.5,193.8c-1.8-0.4-2.9-1.9-2.6-3.6c0.4-1.7,2-2.7,3.8-2.3c1.8,0.4,2.9,1.9,2.6,3.6
		C172.9,193.2,171.3,194.1,169.5,193.8z M175.4,198.6l-0.3,1.3l-8.1-1.7l0.8-3.9l1.7,0.3l-0.5,2.6L175.4,198.6z M169.8,192.3
		c0.9,0.2,1.7-0.3,1.9-1.2c0.2-1-0.3-1.7-1.2-1.8c-0.9-0.2-1.7,0.2-1.9,1.2C168.3,191.4,168.9,192.1,169.8,192.3z M175.5,196.8
		l-1.7-0.4l1.8-8.4l1.7,0.4L175.5,196.8z"/>
	<path class="st1" d="M183.9,195.3c-0.9-0.2-1.8-0.4-2.7-0.5l0.1-1.2c2.2,0.5,5,1,7.5,1.3l-0.1,1.1c-1-0.1-2.1-0.2-3.1-0.4l-0.3,1.6
		l-1.7-0.3L183.9,195.3z M190.1,202l-0.2,1.1l-8.4-1.8l0.6-2.8l6.5,1.4l0.1-0.6l-6.5-1.4l0.2-1.1l8.2,1.7l-0.6,2.7l-6.5-1.4
		l-0.1,0.6L190.1,202z M182.5,191.5c0.2-1.1,1.5-1.5,3.3-1.1c1.7,0.4,2.8,1.3,2.6,2.4c-0.2,1.1-1.5,1.5-3.3,1.1
		C183.4,193.5,182.3,192.6,182.5,191.5z M184.1,191.8c-0.1,0.4,0.4,0.8,1.2,0.9c0.8,0.2,1.4,0.1,1.5-0.4c0.1-0.4-0.4-0.8-1.2-0.9
		S184.2,191.4,184.1,191.8z M189.2,196.5l1.1-5.4l1.7,0.3l-1.4,6.8l-1.7-0.3l0.1-0.3l-2.1-0.4l0.2-1L189.2,196.5z"/>
	<path class="st1" d="M197.6,199.5c-1.4,0-2.5-0.2-4.3-0.6l-0.8-0.2l0.8-3.7l2.5,0.5l0.2-1.1l-2.5-0.5l0.3-1.3l4.1,0.9l-0.7,3.6
		l-2.5-0.5l-0.2,1.1c1.2,0.2,2.2,0.4,3.3,0.4L197.6,199.5z M198.7,200.8c-0.2,1.2,0.7,2.7,3.2,3.6l-0.9,1.1c-1.8-0.7-3-1.7-3.5-2.9
		c-0.9,0.9-2.4,1.4-4.4,1.3l-0.4-1.4c2.6,0.2,4-0.8,4.3-2l0-0.2l1.7,0.3L198.7,200.8z M198.7,197l-1-0.2l0.3-1.3l1,0.2l0.5-2.4
		l1.6,0.3l-1.4,6.8l-1.6-0.3L198.7,197z M201.9,201.8l-1.6-0.3l1.7-8l1.6,0.3L201.9,201.8z"/>
	<path class="st1" d="M213.2,202.7c-0.3,1.7-1.8,2.6-3.5,2.2c-1.7-0.4-2.7-1.8-2.4-3.4c0.3-1.6,1.9-2.5,3.6-2.2
		C212.5,199.6,213.5,201,213.2,202.7z M212,197.4l2.5,0.5l-0.3,1.3l-6.8-1.4l0.3-1.3l2.6,0.5l0.3-1.5l1.7,0.3L212,197.4z
		 M211.6,202.3c0.2-0.9-0.3-1.5-1.1-1.7s-1.5,0.3-1.7,1.2s0.3,1.5,1.1,1.7C210.7,203.6,211.4,203.2,211.6,202.3z M217.8,203.1
		l-1.7-0.3l-1.2,5.8l-1.7-0.3l2.4-11.7l1.7,0.3l-1,4.6l1.7,0.4L217.8,203.1z"/>
	<path class="st1" d="M220.1,205.1c1.5,0.3,3.1,0.5,4.8,0.5l-0.1,1.4c-2,0-3.9-0.3-5.6-0.6l-1-0.2l1.6-7.7l1.7,0.3L220.1,205.1z
		 M229.2,205.2l-1.6-0.3l-1.2,5.9l-1.7-0.3l2.4-11.7l1.7,0.3l-0.9,4.4l1.6,0.3L229.2,205.2z"/>
	<path class="st1" d="M239.7,210.8l-0.3,1.4l-10.6-2.2l0.3-1.4l4.5,0.9l0.4-1.7l-3.2-0.7l0.8-4l6.5,1.4l0.3-1.3l-6.6-1.4l0.3-1.3
		l8.2,1.7l-0.8,3.9l-6.5-1.4l-0.3,1.3l6.8,1.4l-0.3,1.3l-3.6-0.7l-0.4,1.7L239.7,210.8z"/>
	<path class="st1" d="M241,211.7c0.1-0.7,0.8-1.1,1.4-1s1.1,0.8,0.9,1.5c-0.1,0.7-0.8,1.1-1.4,1C241.2,213,240.9,212.3,241,211.7z
		 M242.7,204.9l0.3-1.8l1.9,0.4l-0.4,1.8l-1.2,4.6l-1.2-0.3L242.7,204.9z"/>
</g>
</svg>
