<?xml version="1.0" encoding="utf-8"?>
<!-- Generator: Adobe Illustrator 22.1.0, SVG Export Plug-In . SVG Version: 6.00 Build 0)  -->
<svg version="1.1" id="레이어_1" xmlns="http://www.w3.org/2000/svg" xmlns:xlink="http://www.w3.org/1999/xlink" x="0px"
	 y="0px" viewBox="0 0 62 62" enable-background="new 0 0 62 62" xml:space="preserve">
<g>
	<path fill="#FFFFFF" d="M31,60.8c-16.5,0-30-13.5-30-30c0-16.5,13.5-30,30-30s30,13.5,30,30C61,47.4,47.5,60.8,31,60.8z"/>
	<path fill="#0045AB" d="M31,1.8c16,0,29,13,29,29s-13,29-29,29s-29-13-29-29S15,1.8,31,1.8 M31-0.2c-17.1,0-31,13.9-31,31
		c0,17.1,13.9,31,31,31s31-13.9,31-31C62,13.7,48.1-0.2,31-0.2L31-0.2z"/>
</g>
<g>
	<path fill="#49D094" d="M31,5.8c13.8,0,25,11.2,25,25c0,13.8-11.2,25-25,25S6,44.6,6,30.8C6,17,17.2,5.8,31,5.8 M31,1.8
		c-16,0-29,13-29,29c0,16,13,29,29,29s29-13,29-29C60,14.8,47,1.8,31,1.8L31,1.8z"/>
</g>
<rect x="16.2" y="20.6" fill="none" stroke="#0045AB" stroke-width="2" stroke-miterlimit="10" width="29.7" height="20.4"/>
<path fill="none" stroke="#0045AB" stroke-width="2" stroke-miterlimit="10" d="M45.8,22.6l-10.5,6.7c-2.6,1.7-6,1.7-8.7,0
	l-10.5-6.7"/>
</svg>
