<?xml version="1.0" encoding="utf-8"?>
<!-- Generator: Adobe Illustrator 22.1.0, SVG Export Plug-In . SVG Version: 6.00 Build 0)  -->
<svg version="1.1" id="레이어_1" xmlns="http://www.w3.org/2000/svg" xmlns:xlink="http://www.w3.org/1999/xlink" x="0px"
	 y="0px" viewBox="0 0 21 22" enable-background="new 0 0 21 22" xml:space="preserve">
<g>
	<path fill="#FFFFFF" d="M0,12.1c0-0.7,0-1.4,0-2.1c3.8,0,7.7,0,11.6,0c0,3.1,0,6.3,0,9.4c3.2,0,6.3,0,9.5,0c0,0.7,0,1.4,0,2.1
		c-3.8,0-7.7,0-11.6,0c0-3.1,0-6.3,0-9.5C6.3,12.1,3.1,12.1,0,12.1z"/>
	<path fill="#FFFFFF" d="M0,7.6c0-2.4,0-4.7,0-7.1c2.4,0,4.7,0,7.1,0c0,2.4,0,4.7,0,7.1C4.7,7.6,2.4,7.6,0,7.6z M2.1,2.6
		c0,1,0,1.9,0,2.9c1,0,1.9,0,2.9,0c0-1,0-1.9,0-2.9C4,2.6,3,2.6,2.1,2.6z"/>
	<path fill="#FFFFFF" d="M21,7.6c-2.4,0-4.7,0-7.1,0c0-2.4,0-4.7,0-7.1c2.4,0,4.7,0,7.1,0C21,2.8,21,5.2,21,7.6z M18.9,2.6
		c-1,0-1.9,0-2.9,0c0,1,0,1.9,0,2.9c1,0,1.9,0,2.9,0C18.9,4.5,18.9,3.5,18.9,2.6z"/>
	<path fill="#FFFFFF" d="M7.1,21.5c-2.4,0-4.7,0-7.1,0c0-2.4,0-4.7,0-7.1c2.4,0,4.7,0,7.1,0C7.1,16.8,7.1,19.1,7.1,21.5z M2.1,16.5
		c0,1,0,1.9,0,2.9c1,0,1.9,0,2.9,0c0-1,0-1.9,0-2.9C4,16.5,3,16.5,2.1,16.5z"/>
	<path fill="#FFFFFF" d="M21,16.5c-0.1,0-0.1,0-0.2,0c-0.6,0-1.1,0-1.7,0c-0.2,0-0.2,0-0.2-0.2c0-1.4,0-2.7,0-4.1
		c0-0.2-0.1-0.2-0.2-0.2c-0.8,0-1.6,0-2.5,0c-0.2,0-0.2,0-0.2,0.2c0,1.4,0,2.7,0,4.1c0,0.2-0.1,0.2-0.2,0.2c-0.6,0-1.1,0-1.7,0
		c-0.1,0-0.2,0-0.2-0.2c0-2.1,0-4.2,0-6.2c0-0.1,0-0.2,0.2-0.2c2.2,0,4.5,0,6.7,0c0.1,0,0.2,0,0.2,0.2c0,2.1,0,4.2,0,6.3
		C21,16.4,21,16.5,21,16.5z"/>
	<path fill="#FFFFFF" d="M11.5,7.6c-0.7,0-1.4,0-2.1,0c0-2.4,0-4.7,0-7.1c0.7,0,1.4,0,2.1,0C11.5,2.8,11.5,5.2,11.5,7.6z"/>
</g>
</svg>
