<?xml version="1.0" encoding="utf-8"?>
<!-- Generator: Adobe Illustrator 22.1.0, SVG Export Plug-In . SVG Version: 6.00 Build 0)  -->
<svg version="1.1" id="레이어_1" xmlns="http://www.w3.org/2000/svg" xmlns:xlink="http://www.w3.org/1999/xlink" x="0px"
	 y="0px" viewBox="0 0 49.7 49.7" style="enable-background:new 0 0 49.7 49.7;" xml:space="preserve">
<style type="text/css">
	.st0{fill:#0072FF;}
	.st1{fill:#FFFFFF;}
	.st2{fill:#0045AB;}
	.st3{fill:#49D094;}
	.st4{fill:none;stroke:#0045AB;stroke-width:2;stroke-miterlimit:10;}
	.st5{fill:none;stroke:#49D094;stroke-width:6;stroke-miterlimit:10;}
</style>
<g>
	<g>
		<circle class="st0" cx="24.9" cy="24.9" r="21.9"/>
		<path class="st1" d="M24.9,3c12.1,0,21.9,9.8,21.9,21.9s-9.8,21.9-21.9,21.9S3,36.9,3,24.9S12.8,3,24.9,3 M24.9,0
			C11.2,0,0,11.2,0,24.9s11.2,24.9,24.9,24.9s24.9-11.2,24.9-24.9S38.6,0,24.9,0L24.9,0z"/>
	</g>
	<g>
		<g>
			<polygon class="st1" points="24.2,16.5 24.2,22.3 26.2,22.3 26.2,16.5 27.9,18.1 29.3,16.7 25.2,12.6 21.1,16.7 22.5,18.1 			"/>
			<polygon class="st1" points="30.3,19 30.3,21 32.7,21 31.6,28.6 18.9,28.6 17.9,21.1 20.9,21.1 20.9,19.1 17.7,19.1 17.4,16.6 
				11.8,16.6 11.8,18.6 15.6,18.6 17.2,30.6 33.3,30.6 35.1,19 			"/>
		</g>
		<circle class="st1" cx="19.7" cy="34" r="1.7"/>
		<circle class="st1" cx="30.7" cy="34" r="1.7"/>
	</g>
</g>
</svg>
