<?xml version="1.0" encoding="utf-8"?>
<!-- Generator: Adobe Illustrator 22.1.0, SVG Export Plug-In . SVG Version: 6.00 Build 0)  -->
<svg version="1.1" id="레이어_1" xmlns="http://www.w3.org/2000/svg" xmlns:xlink="http://www.w3.org/1999/xlink" x="0px"
	 y="0px" viewBox="0 0 19 20" enable-background="new 0 0 19 20" xml:space="preserve">
<g>
	<path fill="#FFFFFF" d="M9.5,10.1c-2.7,0-4.8-2.2-4.8-4.8s2.2-4.8,4.8-4.8s4.8,2.2,4.8,4.8S12.2,10.1,9.5,10.1z M9.5,1.4
		c-2.1,0-3.8,1.7-3.8,3.8s1.7,3.8,3.8,3.8s3.8-1.7,3.8-3.8S11.6,1.4,9.5,1.4z"/>
	<path fill="#FFFFFF" d="M18.7,19.6H0.3v-0.5c0-4.3,3.5-7.8,7.8-7.8h2.8c4.3,0,7.8,3.5,7.8,7.8V19.6z M1.3,18.6h16.4
		c-0.3-3.5-3.2-6.3-6.8-6.3H8.1C4.5,12.3,1.6,15.1,1.3,18.6z"/>
</g>
</svg>
