<?xml version="1.0" standalone="no"?>
<!DOCTYPE svg PUBLIC "-//W3C//DTD SVG 20010904//EN"
 "http://www.w3.org/TR/2001/REC-SVG-20010904/DTD/svg10.dtd">
<svg version="1.0" xmlns="http://www.w3.org/2000/svg"
 width="700.000000pt" height="700.000000pt" viewBox="0 0 700.000000 700.000000"
 preserveAspectRatio="xMidYMid meet">
<metadata>
Created by potrace 1.11, written by Peter Selinger 2001-2013
</metadata>
<g transform="translate(0.000000,700.000000) scale(0.100000,-0.100000)"
fill="#000000" stroke="none">
<path d="M2010 6990 c-171 -21 -270 -41 -420 -87 -786 -238 -1376 -884 -1545
-1692 -14 -70 -20 -104 -34 -216 -12 -94 -12 -2874 0 -2990 84 -794 594 -1492
1327 -1814 167 -74 392 -141 526 -157 22 -3 43 -7 46 -9 26 -16 359 -20 1595
-20 1342 0 1496 2 1619 26 28 5 65 12 81 15 239 41 544 167 781 321 164 106
414 330 504 451 19 26 37 49 41 52 14 13 91 124 140 205 134 217 242 492 284
723 3 15 7 38 10 52 3 14 8 45 11 70 3 25 9 72 14 105 11 82 10 2849 -1 2955
-23 215 -86 461 -164 645 -46 107 -138 288 -155 305 -3 3 -31 44 -62 91 -196
298 -515 577 -853 746 -181 91 -411 166 -629 206 -121 21 -127 21 -1586 23
-806 1 -1494 -2 -1530 -6z"/>
</g>
</svg>
