<svg id="레이어_1" data-name="레이어 1" xmlns="http://www.w3.org/2000/svg" xmlns:xlink="http://www.w3.org/1999/xlink" viewBox="0 0 50 50"><defs><style>.cls-1,.cls-6{fill:none;}.cls-2{fill:#fec932;}.cls-3{fill:url(#무제_그라디언트_65);}.cls-4{clip-path:url(#clip-path);}.cls-5{fill:#e8ab13;}.cls-6{stroke:#fff;stroke-miterlimit:10;}.cls-7{clip-path:url(#clip-path-2);}</style><linearGradient id="무제_그라디언트_65" x1="0.22" y1="32.63" x2="32.16" y2="0.01" gradientUnits="userSpaceOnUse"><stop offset="0" stop-color="#ffd771"/><stop offset="1" stop-color="#fec932"/></linearGradient><clipPath id="clip-path"><circle class="cls-1" cx="25" cy="25" r="25"/></clipPath><clipPath id="clip-path-2"><circle class="cls-1" cx="110" cy="25" r="25"/></clipPath></defs><title>대지 5 사본 2</title><path class="cls-2" d="M42.68,7.32,7.32,42.68A25,25,0,0,0,42.68,7.32Z"/><path class="cls-3" d="M25,0A25,25,0,0,0,7.32,42.68L42.68,7.32A25,25,0,0,0,25,0Z"/><g class="cls-4"><path class="cls-5" d="M50,25.72l-3.61-3-4.61-3.88-2.29-1.93a16.65,16.65,0,0,0-4.2-3,10.05,10.05,0,0,0-8.21.39,7.33,7.33,0,0,0-1.47,1.06c-.3.29-.37.54-.69.43s-.69-.6-.9-.77c-3.71-3-10.26-2.26-12.83,1.86-1.82,2.91-1.55,6.42-1.55,9.7v5.25c0,1.21-.18,2.41.78,3.32,1.45,1.38,3.08,2.6,4.61,3.88l4.59,3.86,4.58,3.86L28,49.86A25,25,0,0,0,50,25.72Z"/><path class="cls-6" d="M31.59,13.42A8.19,8.19,0,0,0,25,16.16a8.19,8.19,0,0,0-6.59-2.74c-5.86,0-8.78,4-8.78,10V33.65a2.21,2.21,0,0,0,4.41,0V23.39c0-3.3,1.06-5.61,4.37-5.61s4.37,2.31,4.37,5.61V33.65A2.21,2.21,0,0,0,25,35.85h0a2.21,2.21,0,0,0,2.21-2.2V23.39c0-3.3,1.06-5.61,4.37-5.61S36,20.09,36,23.39V33.65a2.21,2.21,0,0,0,2.21,2.2h0a2.21,2.21,0,0,0,2.21-2.2V23.39C40.38,17.41,37.45,13.42,31.59,13.42Z"/></g><g class="cls-7"><circle class="cls-2" cx="40" cy="25" r="25"/></g></svg>