<svg id="레이어_1" data-name="레이어 1" xmlns="http://www.w3.org/2000/svg" xmlns:xlink="http://www.w3.org/1999/xlink" viewBox="0 0 50 50"><defs><style>.cls-1{fill:url(#무제_그라디언트_69);}.cls-10,.cls-2{fill:none;}.cls-3{fill:url(#linear-gradient);}.cls-4{fill:url(#linear-gradient-2);}.cls-5{mask:url(#mask);}.cls-6{fill:url(#무제_그라디언트_78);}.cls-7{clip-path:url(#clip-path);}.cls-8{fill:#ce20b6;}.cls-9{fill:#c200ba;opacity:0.5;}.cls-10{stroke:#fff;stroke-miterlimit:10;}</style><linearGradient id="무제_그라디언트_69" x1="-0.8" y1="32.91" x2="33.45" y2="-0.46" gradientUnits="userSpaceOnUse"><stop offset="0" stop-color="#fff"/><stop offset="1" stop-opacity="0.5"/></linearGradient><linearGradient id="linear-gradient" x1="6.01" y1="8.73" x2="44.04" y2="41.21" gradientUnits="userSpaceOnUse"><stop offset="0.01" stop-color="#7e2aff"/><stop offset="1" stop-color="#ff4fac"/></linearGradient><linearGradient id="linear-gradient-2" x1="5.96" y1="8.79" x2="43.99" y2="41.27" xlink:href="#linear-gradient"/><mask id="mask" x="0" y="0" width="42.68" height="42.68" maskUnits="userSpaceOnUse"><path class="cls-1" d="M25,0A25,25,0,0,0,7.32,42.68L42.68,7.32A25,25,0,0,0,25,0Z"/></mask><linearGradient id="무제_그라디언트_78" x1="-1.13" y1="33.27" x2="33.62" y2="-0.73" gradientUnits="userSpaceOnUse"><stop offset="0.01" stop-color="#aa40ff"/><stop offset="1" stop-color="#ff7ac0"/></linearGradient><clipPath id="clip-path"><circle class="cls-2" cx="25" cy="25" r="25"/></clipPath></defs><title>대지 6 사본 2</title><path class="cls-3" d="M25,0A25,25,0,0,0,7.32,42.68L42.68,7.32A25,25,0,0,0,25,0Z"/><path class="cls-4" d="M42.68,7.32,7.32,42.68A25,25,0,0,0,42.68,7.32Z"/><g class="cls-5"><path class="cls-6" d="M25,0A25,25,0,0,0,7.32,42.68L42.68,7.32A25,25,0,0,0,25,0Z"/></g><g class="cls-7"><path class="cls-8" d="M18.54,40.72a1.84,1.84,0,0,0,1.84-1.84V26.16A9.52,9.52,0,0,0,23,27.6a9,9,0,0,0,3.09.52,9.21,9.21,0,0,0,3.67-.73,9.5,9.5,0,0,0,3-2,9.41,9.41,0,0,0,2.75-6.67A9.46,9.46,0,0,0,32.8,12a9.5,9.5,0,0,0-3-2,9.62,9.62,0,0,0-7.35,0,9.5,9.5,0,0,0-3,2A9.46,9.46,0,0,0,16.7,18.7V38.88A1.84,1.84,0,0,0,18.54,40.72Zm1.84-22a5.8,5.8,0,0,1,.44-2.23,5.94,5.94,0,0,1,1.23-1.84,5.78,5.78,0,0,1,1.83-1.23,5.85,5.85,0,0,1,4.45,0,5.78,5.78,0,0,1,1.83,1.23,6.18,6.18,0,0,1,1.25,1.84,5.64,5.64,0,0,1,0,4.46,6.05,6.05,0,0,1-1.25,1.84A5.78,5.78,0,0,1,28.33,24a5.73,5.73,0,0,1-4.45,0,5.78,5.78,0,0,1-1.83-1.23A5.85,5.85,0,0,1,20.82,21a5.66,5.66,0,0,1-.44-2.21Z"/><path class="cls-9" d="M50,26.44c-1.47-1.25-3-2.51-4.45-3.75l-4.69-3.94L36.15,14.8c-2.77-2.33-5.51-5.23-9.32-5.5A9.54,9.54,0,0,0,16.7,19c0,2.74,0,5.48,0,8.21v10a7.56,7.56,0,0,0,.1,2.28c.24.69,1,1.16,1.53,1.61L23,45,27.7,49l1,.81A25,25,0,0,0,50,26.44Z"/><path class="cls-10" d="M18.54,40.72a1.84,1.84,0,0,0,1.84-1.84V26.16A9.52,9.52,0,0,0,23,27.6a9,9,0,0,0,3.09.52,9.21,9.21,0,0,0,3.67-.73,9.5,9.5,0,0,0,3-2,9.41,9.41,0,0,0,2.75-6.67A9.46,9.46,0,0,0,32.8,12a9.5,9.5,0,0,0-3-2,9.62,9.62,0,0,0-7.35,0,9.5,9.5,0,0,0-3,2A9.46,9.46,0,0,0,16.7,18.7V38.88A1.84,1.84,0,0,0,18.54,40.72Zm1.84-22a5.8,5.8,0,0,1,.44-2.23,5.94,5.94,0,0,1,1.23-1.84,5.78,5.78,0,0,1,1.83-1.23,5.85,5.85,0,0,1,4.45,0,5.78,5.78,0,0,1,1.83,1.23,6.18,6.18,0,0,1,1.25,1.84,5.64,5.64,0,0,1,0,4.46,6.05,6.05,0,0,1-1.25,1.84A5.78,5.78,0,0,1,28.33,24a5.73,5.73,0,0,1-4.45,0,5.78,5.78,0,0,1-1.83-1.23A5.85,5.85,0,0,1,20.82,21a5.66,5.66,0,0,1-.44-2.21Z"/></g></svg>