<?xml version="1.0" encoding="utf-8"?>
<!-- Generator: Adobe Illustrator 22.1.0, SVG Export Plug-In . SVG Version: 6.00 Build 0)  -->
<svg version="1.0" id="레이어_1" xmlns="http://www.w3.org/2000/svg" xmlns:xlink="http://www.w3.org/1999/xlink" x="0px"
	 y="0px" viewBox="0 0 89.65 20" enable-background="new 0 0 89.65 20" xml:space="preserve">
<g>
	<g>
		<g>
			<path fill="#FFFFFF" d="M71.153,13.188c-0.434,0-0.83-0.08-1.189-0.24c-0.359-0.16-0.66-0.407-0.904-0.739h-0.073
				c0.049,0.389,0.073,0.758,0.073,1.107v2.743h-1.009V6.401h0.821l0.14,0.912h0.049c0.26-0.365,0.562-0.628,0.907-0.791
				c0.345-0.162,0.74-0.243,1.186-0.243c0.884,0,1.567,0.302,2.047,0.906c0.48,0.604,0.721,1.452,0.721,2.542
				c0,1.095-0.244,1.945-0.733,2.552C72.699,12.886,72.021,13.188,71.153,13.188z M71.007,7.137c-0.681,0-1.174,0.189-1.478,0.566
				c-0.304,0.377-0.46,0.977-0.469,1.801v0.225c0,0.937,0.156,1.607,0.469,2.01c0.312,0.403,0.813,0.605,1.502,0.605
				c0.576,0,1.027-0.233,1.354-0.699c0.326-0.466,0.489-1.109,0.489-1.928c0-0.831-0.163-1.469-0.489-1.913
				C72.059,7.358,71.599,7.137,71.007,7.137z"/>
			<path fill="#FFFFFF" d="M76.259,13.067h-1.01V3.603h1.01V13.067z"/>
			<path fill="#FFFFFF" d="M82.063,13.067l-0.201-0.949h-0.049c-0.333,0.418-0.664,0.701-0.995,0.849
				c-0.33,0.148-0.743,0.222-1.238,0.222c-0.661,0-1.179-0.17-1.554-0.511c-0.375-0.341-0.563-0.825-0.563-1.454
				c0-1.346,1.077-2.052,3.23-2.117l1.132-0.037V8.657c0-0.523-0.113-0.91-0.338-1.159c-0.225-0.25-0.585-0.374-1.08-0.374
				c-0.556,0-1.184,0.17-1.886,0.511l-0.31-0.772c0.329-0.178,0.688-0.318,1.08-0.42c0.391-0.101,0.783-0.152,1.177-0.152
				c0.795,0,1.384,0.176,1.767,0.529c0.383,0.353,0.575,0.919,0.575,1.697v4.549H82.063z M79.783,12.355
				c0.628,0,1.122-0.172,1.481-0.517c0.359-0.345,0.538-0.827,0.538-1.448V9.788l-1.01,0.042c-0.803,0.029-1.381,0.153-1.736,0.375
				c-0.355,0.221-0.532,0.565-0.532,1.031c0,0.365,0.11,0.643,0.332,0.833C79.076,12.26,79.385,12.355,79.783,12.355z"/>
			<path fill="#FFFFFF" d="M83.398,6.401h1.082l1.46,3.802c0.32,0.868,0.519,1.494,0.596,1.88h0.049
				c0.053-0.207,0.163-0.561,0.331-1.062c0.168-0.501,0.719-2.04,1.651-4.619h1.083l-2.865,7.591
				c-0.284,0.75-0.615,1.282-0.995,1.597c-0.379,0.314-0.844,0.471-1.395,0.471c-0.308,0-0.612-0.034-0.913-0.103v-0.809
				c0.223,0.049,0.473,0.073,0.748,0.073c0.693,0,1.188-0.389,1.484-1.168l0.371-0.949L83.398,6.401z"/>
		</g>
		<g>
			<path fill="#FFFFFF" d="M52.45,7.02c0.32,0.265,0.99,0.822,0.99,1.883c0,1.031-0.586,1.52-1.171,1.98
				c-0.181,0.181-0.39,0.377-0.39,0.684c0,0.306,0.209,0.474,0.363,0.599l0.502,0.39c0.613,0.516,1.171,0.99,1.171,1.953
				c0,1.31-1.269,2.635-3.667,2.635c-2.022,0-2.998-0.962-2.998-1.994c0-0.502,0.25-1.212,1.074-1.701
				c0.864-0.53,2.036-0.599,2.663-0.642c-0.196-0.251-0.418-0.516-0.418-0.947c0-0.237,0.07-0.376,0.139-0.545
				c-0.154,0.014-0.307,0.028-0.447,0.028c-1.477,0-2.314-1.102-2.314-2.189c0-0.642,0.293-1.353,0.892-1.868
				c0.795-0.655,1.743-0.767,2.497-0.767h2.872L53.313,7.02H52.45z M51.459,13.211c-0.111-0.015-0.182-0.015-0.32-0.015
				c-0.125,0-0.879,0.028-1.464,0.224c-0.307,0.111-1.199,0.445-1.199,1.436c0,0.989,0.963,1.702,2.455,1.702
				c1.338,0,2.05-0.643,2.05-1.506C52.98,14.339,52.519,13.964,51.459,13.211z M51.864,10.562c0.32-0.321,0.348-0.767,0.348-1.018
				c0-1.004-0.599-2.565-1.756-2.565c-0.363,0-0.753,0.181-0.976,0.46c-0.237,0.293-0.307,0.669-0.307,1.032
				c0,0.934,0.544,2.482,1.744,2.482C51.264,10.952,51.64,10.785,51.864,10.562z"/>
			<path fill="#FFFFFF" d="M43.671,12.988c-2.213,0-3.396-1.726-3.396-3.286c0-1.824,1.489-3.382,3.606-3.382
				c2.045,0,3.326,1.6,3.326,3.285C47.207,11.247,45.941,12.988,43.671,12.988z M45.411,11.861c0.335-0.446,0.418-1.002,0.418-1.546
				c0-1.225-0.585-3.564-2.311-3.564c-0.459,0-0.919,0.181-1.253,0.474c-0.543,0.487-0.641,1.099-0.641,1.699
				c0,1.377,0.682,3.646,2.367,3.646C44.535,12.569,45.092,12.306,45.411,11.861z"/>
			<path fill="#FFFFFF" d="M36.126,12.988c-2.214,0-3.397-1.726-3.397-3.286c0-1.824,1.49-3.382,3.606-3.382
				c2.046,0,3.327,1.6,3.327,3.285C39.662,11.247,38.396,12.988,36.126,12.988z M37.866,11.861c0.334-0.446,0.418-1.002,0.418-1.546
				c0-1.225-0.585-3.564-2.311-3.564c-0.459,0-0.919,0.181-1.253,0.474c-0.543,0.487-0.64,1.099-0.64,1.699
				c0,1.377,0.682,3.646,2.367,3.646C36.99,12.569,37.546,12.306,37.866,11.861z"/>
			<path fill="#FFFFFF" d="M31.666,12.77l-2.002,0.462c-0.812,0.126-1.54,0.237-2.309,0.237c-3.863,0-5.332-2.841-5.332-5.067
				c0-2.715,2.085-5.233,5.654-5.233c0.756,0,1.483,0.112,2.141,0.294c1.05,0.294,1.539,0.658,1.848,0.868l-1.162,1.106l-0.49,0.111
				l0.35-0.56c-0.476-0.462-1.344-1.315-2.995-1.315c-2.211,0-3.877,1.68-3.877,4.129c0,2.63,1.904,5.108,4.954,5.108
				c0.897,0,1.358-0.182,1.778-0.35v-2.253l-2.113,0.112l1.119-0.602h2.967l-0.364,0.35c-0.099,0.084-0.112,0.113-0.14,0.224
				c-0.015,0.126-0.028,0.532-0.028,0.672V12.77z"/>
			<path fill="#FFFFFF" d="M56.873,12.367c-0.462-0.042-0.559-0.126-0.559-0.672v-0.154V3.773c0.003-0.03,0.005-0.061,0.008-0.09
				c0.057-0.49,0.196-0.574,0.631-0.826H54.95L53.9,3.361h1.07v0.006L54.97,3.362v8.178v0.462c0,0.279-0.055,0.322-0.378,0.741
				h2.478l0.518-0.307C57.35,12.408,57.111,12.395,56.873,12.367z"/>
			<path fill="#FFFFFF" d="M62.568,12.495c-0.152,0.084-0.305,0.181-0.458,0.25c-0.46,0.208-0.932,0.264-1.35,0.264
				c-0.444,0-1.139-0.029-1.849-0.542c-0.986-0.695-1.417-1.891-1.417-2.933c0-2.154,1.751-3.21,3.183-3.21
				c0.5,0,1.015,0.125,1.432,0.389c0.694,0.458,0.875,1.055,0.972,1.375L59.817,9.41l-1.07,0.083
				c0.347,1.765,1.542,2.793,2.863,2.793c0.709,0,1.223-0.25,1.696-0.486L62.568,12.495z M61.262,8.353
				c0.264-0.097,0.403-0.181,0.403-0.375c0-0.556-0.625-1.195-1.376-1.195c-0.557,0-1.598,0.431-1.598,1.932
				c0,0.236,0.028,0.486,0.042,0.737L61.262,8.353z"/>
			<g>
				<path fill="#FFFFFF" d="M63.91,6.419v0.917h-0.111V6.419h-0.303V6.324h0.718v0.095H63.91z"/>
				<path fill="#FFFFFF" d="M65.16,7.336V6.411h-0.005l-0.283,0.926h-0.087L64.5,6.411h-0.004v0.926h-0.101V6.324h0.173l0.258,0.818
					h0.004l0.254-0.818h0.176v1.012H65.16z"/>
			</g>
		</g>
	</g>
	<g>
		<path fill="#FFFFFF" d="M0.041,0C0.015,0.074,0,0.16,0,0.259C0,1.19,0,9.973,0,9.973s0,9.492,0,9.912
			C0,19.926,0.006,19.963,0.012,20L10.027,9.985L0.041,0z"/>
		<path fill="#FFFFFF" d="M10.69,9.322l2.459-2.459L9.268,4.623c0,0-0.006-0.003-0.015-0.009L9.14,4.549
			C9.134,4.545,9.128,4.542,9.122,4.538L1.513,0.145L10.69,9.322z"/>
		<path fill="#FFFFFF" d="M1.569,19.769l0.085-0.049c0.034-0.02,0.069-0.04,0.104-0.06l0.057-0.033
			C3.83,18.464,8,16.055,9.032,15.46l0.064-0.037c0.049-0.028,0.089-0.051,0.117-0.068l0.003-0.002
			c0.033-0.019,0.051-0.029,0.051-0.029l3.866-2.232l-2.444-2.444L1.569,19.769z"/>
		<path fill="#FFFFFF" d="M17.779,9.537c-0.329-0.178-2.813-1.619-3.791-2.187l-2.636,2.636l2.621,2.621
			c0.647-0.373,1.978-1.142,2.888-1.667l0.066-0.038c0.055-0.032,0.108-0.063,0.16-0.092l0.663-0.383
			C18.238,10.144,18.191,9.758,17.779,9.537z"/>
	</g>
</g>
<g>
</g>
<g>
</g>
<g>
</g>
<g>
</g>
<g>
</g>
<g>
</g>
<g>
</g>
<g>
</g>
<g>
</g>
<g>
</g>
<g>
</g>
<g>
</g>
<g>
</g>
<g>
</g>
<g>
</g>
</svg>
