<svg xmlns="http://www.w3.org/2000/svg" viewBox="0 0 20 13.33348"><defs><style>.cls-1{fill:#fff;}.cls-2{fill:#c11827;}.cls-3{fill:#003d7f;}.cls-4{fill:#030000;}</style></defs><title>icon_lang01_KR</title><g id="레이어_2" data-name="레이어 2"><g id="레이어_1-2" data-name="레이어 1"><rect class="cls-1" width="20" height="13.33348"/><path class="cls-2" d="M13.2754,6.3677A3.289,3.289,0,1,1,9.7012,3.3916,3.28932,3.28932,0,0,1,13.2754,6.3677Z"/><path class="cls-3" d="M7.187,4.9673A1.64253,1.64253,0,1,0,9.9961,6.6704a1.64208,1.64208,0,0,1,2.8086,1.7022A3.28461,3.28461,0,1,1,7.187,4.9673"/><rect class="cls-4" x="2.49518" y="2.53672" width="3.30064" height="0.51441" transform="translate(-0.48947 4.66696) rotate(-55.98273)"/><rect class="cls-4" x="3.15275" y="2.98046" width="3.30071" height="0.51469" transform="translate(-0.56896 5.40437) rotate(-55.94858)"/><polygon class="cls-4" points="4.325 4.906 4.752 5.193 6.597 2.456 6.17 2.169 4.325 4.906"/><rect class="cls-4" x="14.26994" y="8.66121" width="1.52897" height="0.51448" transform="translate(-0.76991 16.38811) rotate(-55.9735)"/><rect class="cls-4" x="13.27939" y="10.12942" width="1.52912" height="0.51479" transform="matrix(0.55835, -0.82961, 0.82961, 0.55835, -2.41444, 16.23831)"/><rect class="cls-4" x="14.92749" y="9.10495" width="1.52903" height="0.5147" transform="translate(-0.85227 17.11977) rotate(-55.94301)"/><polygon class="cls-4" points="14.061 11.32 14.487 11.609 15.343 10.341 14.916 10.053 14.061 11.32"/><rect class="cls-4" x="15.58491" y="9.54834" width="1.52869" height="0.51412" transform="translate(-0.9163 17.889) rotate(-56.04168)"/><rect class="cls-4" x="14.59463" y="11.01629" width="1.52924" height="0.51483" transform="translate(-2.56488 17.73346) rotate(-56.09757)"/><polygon class="cls-4" points="15.906 4.748 16.333 4.462 14.488 1.726 14.061 2.013 15.906 4.748"/><rect class="cls-4" x="15.10193" y="1.29507" width="0.5149" height="1.52897" transform="translate(1.48037 8.95342) rotate(-34.05142)"/><rect class="cls-4" x="16.09237" y="2.76379" width="0.51466" height="1.52907" transform="translate(0.83015 9.76573) rotate(-34.07339)"/><rect class="cls-4" x="13.78709" y="2.18197" width="0.51421" height="1.5291" transform="translate(0.7495 8.34766) rotate(-33.95906)"/><rect class="cls-4" x="14.77751" y="3.65066" width="0.51404" height="1.52927" transform="translate(0.10052 9.1595) rotate(-33.99022)"/><rect class="cls-4" x="5.20353" y="8.00255" width="0.51459" height="3.30024" transform="translate(-4.46444 4.70457) rotate(-34.00387)"/><rect class="cls-4" x="3.88879" y="8.88974" width="0.51367" height="3.30013" transform="translate(-5.18471 4.11964) rotate(-33.99711)"/><rect class="cls-4" x="4.0506" y="8.59738" width="0.51499" height="1.52934" transform="translate(-4.49824 4.00891) rotate(-33.99539)"/><polygon class="cls-4" points="5.513 11.607 5.939 11.32 5.085 10.053 4.658 10.34 5.513 11.607"/></g></g></svg>