<svg xmlns="http://www.w3.org/2000/svg" viewBox="0 0 20 13.333"><defs><style>.cls-1{fill:#221e1f;}.cls-2{fill:#fff;}.cls-3{fill:#b31c31;}.cls-4{fill:#1a2e58;}</style></defs><title>icon_lang02_ENG</title><g id="레이어_2" data-name="레이어 2"><g id="레이어_1-2" data-name="레이어 1"><path class="cls-1" d="M20,13.333v0Z"/><rect class="cls-2" y="9.23041" width="20" height="1.0254"/><rect class="cls-3" y="8.20411" width="20" height="1.0263"/><rect class="cls-2" y="11.28121" width="20" height="1.0254"/><rect class="cls-3" y="12.30661" width="20" height="1.02639"/><rect class="cls-3" y="10.25581" width="20" height="1.0254"/><rect class="cls-2" y="7.17871" width="20" height="1.0254"/><rect class="cls-3" y="4.10151" width="20" height="1.0254"/><rect class="cls-2" y="1.02441" width="20" height="1.0254"/><rect class="cls-3" y="2.04981" width="20" height="1.0263"/><rect class="cls-3" y="6.15231" width="20" height="1.0264"/><rect class="cls-3" width="20" height="1.02441"/><rect class="cls-2" y="3.07611" width="20" height="1.0254"/><rect class="cls-2" y="5.12691" width="20" height="1.0254"/><rect class="cls-4" width="8" height="7.18751"/><polygon class="cls-2" points="6.009 0.384 6.063 0.554 6.242 0.554 6.098 0.659 6.153 0.829 6.009 0.724 5.863 0.829 5.919 0.659 5.774 0.554 5.953 0.554 6.009 0.384"/><polygon class="cls-2" points="6.009 1.877 6.063 2.047 6.242 2.047 6.098 2.152 6.153 2.322 6.009 2.218 5.863 2.322 5.919 2.152 5.774 2.047 5.953 2.047 6.009 1.877"/><polygon class="cls-2" points="6.009 3.371 6.063 3.541 6.242 3.541 6.098 3.646 6.153 3.816 6.009 3.711 5.863 3.816 5.919 3.646 5.774 3.541 5.953 3.541 6.009 3.371"/><polygon class="cls-2" points="6.009 4.898 6.063 5.069 6.242 5.069 6.098 5.174 6.153 5.345 6.009 5.239 5.863 5.345 5.919 5.174 5.774 5.069 5.953 5.069 6.009 4.898"/><polygon class="cls-2" points="6.009 6.357 6.063 6.527 6.242 6.527 6.098 6.633 6.153 6.803 6.009 6.697 5.863 6.803 5.919 6.633 5.774 6.527 5.953 6.527 6.009 6.357"/><polygon class="cls-2" points="4.669 0.384 4.725 0.554 4.904 0.554 4.759 0.659 4.814 0.829 4.669 0.724 4.524 0.829 4.579 0.659 4.435 0.554 4.614 0.554 4.669 0.384"/><polygon class="cls-2" points="4.669 1.877 4.725 2.047 4.904 2.047 4.759 2.152 4.814 2.322 4.669 2.218 4.524 2.322 4.579 2.152 4.435 2.047 4.614 2.047 4.669 1.877"/><polygon class="cls-2" points="4.669 3.371 4.725 3.541 4.904 3.541 4.759 3.646 4.814 3.816 4.669 3.711 4.524 3.816 4.579 3.646 4.435 3.541 4.614 3.541 4.669 3.371"/><polygon class="cls-2" points="4.669 4.898 4.725 5.069 4.904 5.069 4.759 5.174 4.814 5.345 4.669 5.239 4.524 5.345 4.579 5.174 4.435 5.069 4.614 5.069 4.669 4.898"/><polygon class="cls-2" points="4.669 6.357 4.725 6.527 4.904 6.527 4.759 6.633 4.814 6.803 4.669 6.697 4.524 6.803 4.579 6.633 4.435 6.527 4.614 6.527 4.669 6.357"/><polygon class="cls-2" points="3.331 0.384 3.386 0.554 3.564 0.554 3.42 0.659 3.475 0.829 3.331 0.724 3.185 0.829 3.241 0.659 3.097 0.554 3.275 0.554 3.331 0.384"/><polygon class="cls-2" points="3.331 1.877 3.386 2.047 3.564 2.047 3.42 2.152 3.475 2.322 3.331 2.218 3.185 2.322 3.241 2.152 3.097 2.047 3.275 2.047 3.331 1.877"/><polygon class="cls-2" points="3.331 3.371 3.386 3.541 3.564 3.541 3.42 3.646 3.475 3.816 3.331 3.711 3.185 3.816 3.241 3.646 3.097 3.541 3.275 3.541 3.331 3.371"/><polygon class="cls-2" points="3.331 4.898 3.386 5.069 3.564 5.069 3.42 5.174 3.475 5.345 3.331 5.239 3.185 5.345 3.241 5.174 3.097 5.069 3.275 5.069 3.331 4.898"/><polygon class="cls-2" points="3.331 6.357 3.386 6.527 3.564 6.527 3.42 6.633 3.475 6.803 3.331 6.697 3.185 6.803 3.241 6.633 3.097 6.527 3.275 6.527 3.331 6.357"/><polygon class="cls-2" points="1.991 0.384 2.046 0.554 2.225 0.554 2.081 0.659 2.136 0.829 1.991 0.724 1.847 0.829 1.902 0.659 1.757 0.554 1.935 0.554 1.991 0.384"/><polygon class="cls-2" points="1.991 1.877 2.046 2.047 2.225 2.047 2.081 2.152 2.136 2.322 1.991 2.218 1.847 2.322 1.902 2.152 1.757 2.047 1.935 2.047 1.991 1.877"/><polygon class="cls-2" points="1.991 3.371 2.046 3.541 2.225 3.541 2.081 3.646 2.136 3.816 1.991 3.711 1.847 3.816 1.902 3.646 1.757 3.541 1.935 3.541 1.991 3.371"/><polygon class="cls-2" points="1.991 4.898 2.046 5.069 2.225 5.069 2.081 5.174 2.136 5.345 1.991 5.239 1.847 5.345 1.902 5.174 1.757 5.069 1.935 5.069 1.991 4.898"/><polygon class="cls-2" points="1.991 6.357 2.046 6.527 2.225 6.527 2.081 6.633 2.136 6.803 1.991 6.697 1.847 6.803 1.902 6.633 1.757 6.527 1.935 6.527 1.991 6.357"/><polygon class="cls-2" points="0.652 0.384 0.708 0.554 0.886 0.554 0.742 0.659 0.797 0.829 0.652 0.724 0.507 0.829 0.562 0.659 0.418 0.554 0.597 0.554 0.652 0.384"/><polygon class="cls-2" points="0.652 1.877 0.708 2.047 0.886 2.047 0.742 2.152 0.797 2.322 0.652 2.218 0.507 2.322 0.562 2.152 0.418 2.047 0.597 2.047 0.652 1.877"/><polygon class="cls-2" points="0.652 3.371 0.708 3.541 0.886 3.541 0.742 3.646 0.797 3.816 0.652 3.711 0.507 3.816 0.562 3.646 0.418 3.541 0.597 3.541 0.652 3.371"/><polygon class="cls-2" points="0.652 4.898 0.708 5.069 0.886 5.069 0.742 5.174 0.797 5.345 0.652 5.239 0.507 5.345 0.562 5.174 0.418 5.069 0.597 5.069 0.652 4.898"/><polygon class="cls-2" points="0.652 6.357 0.708 6.527 0.886 6.527 0.742 6.633 0.797 6.803 0.652 6.697 0.507 6.803 0.562 6.633 0.418 6.527 0.597 6.527 0.652 6.357"/><polygon class="cls-2" points="6.691 1.13 6.746 1.301 6.926 1.301 6.781 1.405 6.836 1.576 6.691 1.471 6.546 1.576 6.602 1.405 6.457 1.301 6.636 1.301 6.691 1.13"/><polygon class="cls-2" points="6.691 2.672 6.746 2.842 6.926 2.842 6.781 2.947 6.836 3.117 6.691 3.012 6.546 3.117 6.602 2.947 6.457 2.842 6.636 2.842 6.691 2.672"/><polygon class="cls-2" points="6.678 4.183 6.733 4.353 6.912 4.353 6.767 4.458 6.823 4.628 6.678 4.522 6.533 4.628 6.588 4.458 6.443 4.353 6.622 4.353 6.678 4.183"/><polygon class="cls-2" points="6.664 5.676 6.72 5.846 6.899 5.846 6.754 5.951 6.809 6.121 6.664 6.016 6.52 6.121 6.575 5.951 6.43 5.846 6.609 5.846 6.664 5.676"/><polygon class="cls-2" points="5.352 1.13 5.407 1.301 5.586 1.301 5.441 1.405 5.497 1.576 5.352 1.471 5.207 1.576 5.263 1.405 5.118 1.301 5.297 1.301 5.352 1.13"/><polygon class="cls-2" points="5.352 2.672 5.407 2.842 5.586 2.842 5.441 2.947 5.497 3.117 5.352 3.012 5.207 3.117 5.263 2.947 5.118 2.842 5.297 2.842 5.352 2.672"/><polygon class="cls-2" points="5.339 4.183 5.394 4.353 5.573 4.353 5.429 4.458 5.484 4.628 5.339 4.522 5.194 4.628 5.249 4.458 5.104 4.353 5.283 4.353 5.339 4.183"/><polygon class="cls-2" points="5.326 5.676 5.381 5.846 5.559 5.846 5.415 5.951 5.47 6.121 5.326 6.016 5.181 6.121 5.236 5.951 5.091 5.846 5.27 5.846 5.326 5.676"/><polygon class="cls-2" points="4.013 1.077 4.068 1.247 4.247 1.247 4.102 1.352 4.158 1.522 4.013 1.417 3.868 1.522 3.924 1.352 3.779 1.247 3.957 1.247 4.013 1.077"/><polygon class="cls-2" points="4.013 2.618 4.068 2.788 4.247 2.788 4.102 2.894 4.158 3.063 4.013 2.959 3.868 3.063 3.924 2.894 3.779 2.788 3.957 2.788 4.013 2.618"/><polygon class="cls-2" points="4 4.129 4.055 4.299 4.234 4.299 4.089 4.404 4.144 4.574 4 4.469 3.854 4.574 3.91 4.404 3.766 4.299 3.944 4.299 4 4.129"/><polygon class="cls-2" points="3.986 5.623 4.041 5.793 4.221 5.793 4.076 5.897 4.131 6.068 3.986 5.963 3.842 6.068 3.897 5.897 3.752 5.793 3.931 5.793 3.986 5.623"/><polygon class="cls-2" points="2.674 1.063 2.729 1.232 2.909 1.232 2.764 1.338 2.819 1.508 2.674 1.402 2.529 1.508 2.585 1.338 2.44 1.232 2.619 1.232 2.674 1.063"/><polygon class="cls-2" points="2.674 2.604 2.729 2.773 2.909 2.773 2.764 2.879 2.819 3.049 2.674 2.943 2.529 3.049 2.585 2.879 2.44 2.773 2.619 2.773 2.674 2.604"/><polygon class="cls-2" points="2.661 4.114 2.716 4.284 2.895 4.284 2.75 4.39 2.806 4.56 2.661 4.454 2.516 4.56 2.571 4.39 2.427 4.284 2.605 4.284 2.661 4.114"/><polygon class="cls-2" points="2.647 5.607 2.703 5.777 2.882 5.777 2.737 5.883 2.792 6.053 2.647 5.947 2.503 6.053 2.558 5.883 2.413 5.777 2.592 5.777 2.647 5.607"/><polygon class="cls-2" points="1.335 1.035 1.39 1.205 1.569 1.205 1.424 1.311 1.479 1.48 1.335 1.375 1.19 1.48 1.245 1.311 1.1 1.205 1.279 1.205 1.335 1.035"/><polygon class="cls-2" points="1.335 2.576 1.39 2.746 1.569 2.746 1.424 2.852 1.479 3.021 1.335 2.917 1.19 3.021 1.245 2.852 1.1 2.746 1.279 2.746 1.335 2.576"/><polygon class="cls-2" points="1.321 4.088 1.377 4.258 1.556 4.258 1.411 4.363 1.466 4.533 1.321 4.428 1.177 4.533 1.232 4.363 1.087 4.258 1.266 4.258 1.321 4.088"/><polygon class="cls-2" points="1.309 5.581 1.363 5.751 1.542 5.751 1.397 5.856 1.453 6.026 1.309 5.921 1.163 6.026 1.219 5.856 1.074 5.751 1.253 5.751 1.309 5.581"/><polygon class="cls-2" points="7.348 0.384 7.402 0.554 7.581 0.554 7.437 0.659 7.492 0.829 7.348 0.724 7.203 0.829 7.258 0.659 7.113 0.554 7.292 0.554 7.348 0.384"/><polygon class="cls-2" points="7.348 1.877 7.402 2.047 7.581 2.047 7.437 2.152 7.492 2.322 7.348 2.218 7.203 2.322 7.258 2.152 7.113 2.047 7.292 2.047 7.348 1.877"/><polygon class="cls-2" points="7.348 3.371 7.402 3.541 7.581 3.541 7.437 3.646 7.492 3.816 7.348 3.711 7.203 3.816 7.258 3.646 7.113 3.541 7.292 3.541 7.348 3.371"/><polygon class="cls-2" points="7.348 4.898 7.402 5.069 7.581 5.069 7.437 5.174 7.492 5.345 7.348 5.239 7.203 5.345 7.258 5.174 7.113 5.069 7.292 5.069 7.348 4.898"/><polygon class="cls-2" points="7.348 6.357 7.402 6.527 7.581 6.527 7.437 6.633 7.492 6.803 7.348 6.697 7.203 6.803 7.258 6.633 7.113 6.527 7.292 6.527 7.348 6.357"/></g></g></svg>