<svg xmlns="http://www.w3.org/2000/svg" width="16" height="14.985" viewBox="0 0 16 14.985">
    <defs>
        <style>
            .cls-1{fill:#00b9ff}
        </style>
    </defs>
    <g id="icon_chat" transform="translate(0 -29.145)">
        <g id="그룹_3809" data-name="그룹 3809" transform="translate(0 29.141)">
            <g id="그룹_3808" data-name="그룹 3808">
                <path id="패스_1960" d="M16 30.8a1.655 1.655 0 0 0-1.655-1.655H1.655A1.655 1.655 0 0 0 0 30.8v10.875a.716.716 0 0 0 1.034.642l3.461-1.711H5.77v-3.291a1.97 1.97 0 0 1 1.97-1.97h6.827a1.958 1.958 0 0 1 1.393.577l.039.041V30.8z" class="cls-1" data-name="패스 1960" transform="translate(0 -29.141)"/>
                <path id="패스_1961" d="M121.113 157.05a.538.538 0 0 0 .537-.538v-6.277a1.433 1.433 0 0 0-1.433-1.433h-6.827a1.433 1.433 0 0 0-1.433 1.433v4.08a1.433 1.433 0 0 0 1.433 1.433h4.964l2.52 1.246a.535.535 0 0 0 .239.056zm-1.817-5.432a.629.629 0 1 1-.443.183.629.629 0 0 1 .443-.183zm-2.492 0a.629.629 0 1 1-.629.629.629.629 0 0 1 .629-.629zm-2.493 0a.629.629 0 1 1-.629.629.629.629 0 0 1 .629-.629z" class="cls-1" data-name="패스 1961" transform="translate(-105.651 -142.061)"/>
            </g>
        </g>
    </g>
</svg>
