<svg xmlns="http://www.w3.org/2000/svg" width="64" height="61" viewBox="0 0 64 61">
  <g id="icon_sercurity_02" transform="translate(-423.022 -385.905)">
    <g id="그룹_37" data-name="그룹 37">
      <path id="패스_28" data-name="패스 28" d="M480.022,434.9h-50a3,3,0,0,1-3-3V414.571a.5.5,0,0,1,1,0V431.9a2,2,0,0,0,2,2h50a2,2,0,0,0,2-2V396.4a.5.5,0,0,1,1,0v35.5A3,3,0,0,1,480.022,434.9Z" fill="#263238"/>
    </g>
    <g id="그룹_38" data-name="그룹 38">
      <rect id="사각형_33" data-name="사각형 33" width="63" height="3" rx="1" transform="translate(423.523 391.405)" fill="#40c4ff"/>
      <path id="패스_29" data-name="패스 29" d="M485.522,394.9h-61a1.5,1.5,0,0,1-1.5-1.5v-1a1.5,1.5,0,0,1,1.5-1.5h61a1.5,1.5,0,0,1,1.5,1.5v1A1.5,1.5,0,0,1,485.522,394.9Zm-61-3a.5.5,0,0,0-.5.5v1a.5.5,0,0,0,.5.5h61a.5.5,0,0,0,.5-.5v-1a.5.5,0,0,0-.5-.5Z" fill="#263238"/>
    </g>
    <g id="그룹_39" data-name="그룹 39">
      <path id="패스_30" data-name="패스 30" d="M458.022,446.9a.5.5,0,0,1-.5-.5v-10a.5.5,0,0,1,1,0v10A.5.5,0,0,1,458.022,446.9Z" fill="#263238"/>
    </g>
    <g id="그룹_40" data-name="그룹 40">
      <path id="패스_31" data-name="패스 31" d="M452.022,446.9a.5.5,0,0,1-.5-.5v-10a.5.5,0,0,1,1,0v10A.5.5,0,0,1,452.022,446.9Z" fill="#263238"/>
    </g>
    <g id="그룹_41" data-name="그룹 41">
      <path id="패스_32" data-name="패스 32" d="M478.022,446.9a.5.5,0,0,1-.447-.277l-5-10a.5.5,0,0,1,.895-.447l5,10a.5.5,0,0,1-.448.724Z" fill="#263238"/>
    </g>
    <g id="그룹_42" data-name="그룹 42">
      <path id="패스_33" data-name="패스 33" d="M472.022,446.9a.5.5,0,0,1-.447-.277l-5-10a.5.5,0,0,1,.895-.447l5,10a.5.5,0,0,1-.448.724Z" fill="#263238"/>
    </g>
    <g id="그룹_43" data-name="그룹 43">
      <path id="패스_34" data-name="패스 34" d="M438.022,446.9a.5.5,0,0,1-.447-.724l5-10a.5.5,0,0,1,.895.447l-5,10A.5.5,0,0,1,438.022,446.9Z" fill="#263238"/>
    </g>
    <g id="그룹_44" data-name="그룹 44">
      <path id="패스_35" data-name="패스 35" d="M432.022,446.9a.5.5,0,0,1-.447-.724l5-10a.5.5,0,0,1,.895.447l-5,10A.5.5,0,0,1,432.022,446.9Z" fill="#263238"/>
    </g>
    <g id="그룹_45" data-name="그룹 45">
      <path id="패스_36" data-name="패스 36" d="M473.022,426.9h-34a.5.5,0,0,1-.5-.5v-12a.5.5,0,0,1,1,0v11.5h33.5a.5.5,0,0,1,0,1Z" fill="#263238"/>
    </g>
    <g id="그룹_46" data-name="그룹 46">
      <path id="패스_37" data-name="패스 37" d="M443.523,409.4a.5.5,0,0,0-.287.909l10,7a.5.5,0,0,0,.641-.056l4.653-4.653,12.147,11.661a.5.5,0,0,0,.693-.722l-12.5-12a.5.5,0,0,0-.7.007l-4.7,4.7-9.657-6.759A.5.5,0,0,0,443.523,409.4Z" fill="#263238"/>
    </g>
    <g id="그룹_47" data-name="그룹 47">
      <path id="패스_38" data-name="패스 38" d="M471.022,419.4a.5.5,0,0,0-.5.5v3.5h-3.5a.5.5,0,0,0,0,1h4a.5.5,0,0,0,.5-.5v-4A.5.5,0,0,0,471.022,419.4Z" fill="#263238"/>
    </g>
    <g id="그룹_48" data-name="그룹 48">
      <circle id="타원_16" data-name="타원 16" cx="8" cy="8" r="8" transform="translate(423.523 397.405)" fill="#ffd740"/>
      <path id="패스_39" data-name="패스 39" d="M431.522,413.9a8.5,8.5,0,1,1,8.5-8.5A8.51,8.51,0,0,1,431.522,413.9Zm0-16a7.5,7.5,0,1,0,7.5,7.5A7.509,7.509,0,0,0,431.522,397.9Z" fill="#263238"/>
    </g>
    <g id="그룹_49" data-name="그룹 49">
      <path id="패스_40" data-name="패스 40" d="M432.523,405.9h-3.251a.5.5,0,0,1-.5-.5v-3.5a.5.5,0,0,1,.5-.5h3.251a2.25,2.25,0,0,1,0,4.5Zm-2.751-1h2.751a1.25,1.25,0,0,0,0-2.5h-2.751Z" fill="#263238"/>
    </g>
    <g id="그룹_50" data-name="그룹 50">
      <path id="패스_41" data-name="패스 41" d="M433.023,409.4h-3.751a.5.5,0,0,1-.5-.5v-3.5a.5.5,0,0,1,.5-.5h3.751a2.25,2.25,0,0,1,0,4.5Zm-3.251-1h3.251a1.25,1.25,0,0,0,0-2.5h-3.251Z" fill="#263238"/>
    </g>
    <g id="그룹_51" data-name="그룹 51">
      <path id="패스_42" data-name="패스 42" d="M429.272,402.4h-1a.5.5,0,0,1,0-1h1a.5.5,0,0,1,0,1Z" fill="#263238"/>
    </g>
    <g id="그룹_52" data-name="그룹 52">
      <path id="패스_43" data-name="패스 43" d="M429.272,409.4h-1a.5.5,0,0,1,0-1h1a.5.5,0,0,1,0,1Z" fill="#263238"/>
    </g>
    <g id="그룹_53" data-name="그룹 53">
      <path id="패스_44" data-name="패스 44" d="M430.272,401.9a.5.5,0,0,1-.5-.5v-1a.5.5,0,0,1,1,0v1A.5.5,0,0,1,430.272,401.9Z" fill="#263238"/>
    </g>
    <g id="그룹_54" data-name="그룹 54">
      <path id="패스_45" data-name="패스 45" d="M432.272,401.9a.5.5,0,0,1-.5-.5v-1a.5.5,0,0,1,1,0v1A.5.5,0,0,1,432.272,401.9Z" fill="#263238"/>
    </g>
    <g id="그룹_55" data-name="그룹 55">
      <path id="패스_46" data-name="패스 46" d="M430.272,410.9a.5.5,0,0,1-.5-.5v-1a.5.5,0,0,1,1,0v1A.5.5,0,0,1,430.272,410.9Z" fill="#263238"/>
    </g>
    <g id="그룹_56" data-name="그룹 56">
      <path id="패스_47" data-name="패스 47" d="M432.272,410.9a.5.5,0,0,1-.5-.5v-1a.5.5,0,0,1,1,0v1A.5.5,0,0,1,432.272,410.9Z" fill="#263238"/>
    </g>
    <g id="그룹_57" data-name="그룹 57">
      <path id="패스_48" data-name="패스 48" d="M468.022,412.4l5-5h-2.5v-3.5h-5v3.5h-2.5Z" fill="#ff5252"/>
      <path id="패스_49" data-name="패스 49" d="M465.522,403.4h5a.5.5,0,0,1,.5.5v3h2a.5.5,0,0,1,.354.853l-5,5a.5.5,0,0,1-.707,0l-5-5a.5.5,0,0,1,.353-.853h2v-3A.5.5,0,0,1,465.522,403.4Zm4.5,1h-4v3a.5.5,0,0,1-.5.5h-1.293l3.793,3.793,3.793-3.793h-1.293a.5.5,0,0,1-.5-.5Z" fill="#263238"/>
    </g>
    <g id="그룹_58" data-name="그룹 58">
      <path id="패스_50" data-name="패스 50" d="M479.522,402.9a.5.5,0,0,1-.5-.5v-4.5h-4.5a.5.5,0,0,1,0-1h5a.5.5,0,0,1,.5.5v5A.5.5,0,0,1,479.522,402.9Z" fill="#263238"/>
    </g>
    <g id="그룹_59" data-name="그룹 59">
      <path id="패스_51" data-name="패스 51" d="M466.522,386.9h-1a.5.5,0,0,1,0-1h1a.5.5,0,0,1,0,1Z" fill="#263238"/>
    </g>
    <g id="그룹_60" data-name="그룹 60">
      <path id="패스_52" data-name="패스 52" d="M463.522,386.9h-20a.5.5,0,0,1,0-1h20a.5.5,0,0,1,0,1Z" fill="#263238"/>
    </g>
  </g>
</svg>
