<svg xmlns="http://www.w3.org/2000/svg" width="16.74" height="16.74" viewBox="0 0 16.74 16.74">
    <defs>
        <style>
            .cls-1{fill:#00b9ff}
        </style>
    </defs>
    <g id="icon_check" transform="translate(1.37 1)">
        <g id="_02_my_P2P" data-name="02_my P2P" transform="translate(-1.37 -1)">
            <path id="패스_1946" d="M14.157 3.587h-1v-1A2.583 2.583 0 0 0 10.57 0H2.583A2.583 2.583 0 0 0 0 2.583v7.987a2.583 2.583 0 0 0 2.583 2.583h1v1A2.583 2.583 0 0 0 6.17 16.74h7.987a2.583 2.583 0 0 0 2.583-2.583V6.17a2.583 2.583 0 0 0-2.583-2.583zM3.587 6.17v5.189h-1a.777.777 0 0 1-.789-.789V2.583a.777.777 0 0 1 .789-.789h7.983a.777.777 0 0 1 .789.789v1H6.17A2.583 2.583 0 0 0 3.587 6.17zm11.359 7.987a.777.777 0 0 1-.789.789H6.17a.777.777 0 0 1-.789-.789V6.17a.777.777 0 0 1 .789-.789h7.987a.777.777 0 0 1 .789.789z" class="cls-1" data-name="패스 1946"/>
        </g>
    </g>
</svg>
