<svg xmlns="http://www.w3.org/2000/svg" xmlns:xlink="http://www.w3.org/1999/xlink" viewBox="0 0 26 26"><defs><style>.cls-1{fill:url(#linear-gradient);}.cls-2{fill:#fff;}.cls-3{fill:#d2e5f1;}.cls-4{fill:#b5cfe4;}</style><linearGradient id="linear-gradient" x1="13" x2="13" y2="26" gradientUnits="userSpaceOnUse"><stop offset="0" stop-color="#41bce8"/><stop offset="1" stop-color="#22a6dc"/></linearGradient></defs><title>icon_sns_tele</title><g id="레이어_2" data-name="레이어 2"><g id="레이어_1-2" data-name="레이어 1"><rect class="cls-1" width="26" height="26" rx="3" ry="3"/><path class="cls-2" d="M22.00408,5.77186l-2.84812,14.36a1.05427,1.05427,0,0,1-1.49376.5178l-6.57255-5.039-2.39-1.1551L4.67646,13.10117s-.61743-.219-.67718-.697.69708-.737.69708-.737L20.68957,5.3934S22.00408,4.81585,22.00408,5.77186Z"/><path class="cls-3" d="M10.58446,19.9706s-.19189-.018-.43089-.77489-1.45393-4.74012-1.45393-4.74012l9.65967-6.13442s.55765-.33855.53775,0c0,0,.0996.05975-.19915.3386s-7.58833,6.83142-7.58833,6.83142"/><path class="cls-4" d="M13.60973,17.54277,11.01,19.91307a.4556.4556,0,0,1-.42554.05753l.49778-4.40274"/></g></g></svg>