<svg xmlns="http://www.w3.org/2000/svg" width="60.5" height="58.5" viewBox="0 0 60.5 58.5">
  <g id="icon_sercurity-03" transform="translate(-568.772 -1251.156)">
    <g id="그룹_62" data-name="그룹 62">
      <path id="패스_53" data-name="패스 53" d="M575.272,1284.655a.5.5,0,0,1-.5-.5v-6a.5.5,0,0,1,1,0v6A.5.5,0,0,1,575.272,1284.655Z" fill="#263238"/>
    </g>
    <g id="그룹_63" data-name="그룹 63">
      <circle id="타원_17" data-name="타원 17" cx="10" cy="10" r="10" transform="translate(608.773 1274.155)" fill="#ffd740"/>
      <path id="패스_54" data-name="패스 54" d="M618.772,1294.655a10.5,10.5,0,1,1,10.5-10.5A10.512,10.512,0,0,1,618.772,1294.655Zm0-20a9.5,9.5,0,1,0,9.5,9.5A9.511,9.511,0,0,0,618.772,1274.655Z" fill="#263238"/>
    </g>
    <g id="그룹_64" data-name="그룹 64">
      <path id="패스_55" data-name="패스 55" d="M619.772,1284.655h-3.5a.5.5,0,0,1-.5-.5v-4a.5.5,0,0,1,.5-.5h3.5a2.5,2.5,0,1,1,0,5Zm-3-1h3a1.5,1.5,0,0,0,0-3h-3Z" fill="#263238"/>
    </g>
    <g id="그룹_65" data-name="그룹 65">
      <path id="패스_56" data-name="패스 56" d="M620.772,1288.655h-4.5a.5.5,0,0,1-.5-.5v-4a.5.5,0,0,1,.5-.5h4.5a2.5,2.5,0,1,1,0,5Zm-4-1h4a1.5,1.5,0,0,0,0-3h-4Z" fill="#263238"/>
    </g>
    <g id="그룹_66" data-name="그룹 66">
      <path id="패스_57" data-name="패스 57" d="M616.272,1280.655h-1.5a.5.5,0,0,1,0-1h1.5a.5.5,0,0,1,0,1Z" fill="#263238"/>
    </g>
    <g id="그룹_67" data-name="그룹 67">
      <path id="패스_58" data-name="패스 58" d="M616.272,1288.655h-1.5a.5.5,0,0,1,0-1h1.5a.5.5,0,0,1,0,1Z" fill="#263238"/>
    </g>
    <g id="그룹_68" data-name="그룹 68">
      <path id="패스_59" data-name="패스 59" d="M617.772,1280.655a.5.5,0,0,1-.5-.5v-2a.5.5,0,0,1,1,0v2A.5.5,0,0,1,617.772,1280.655Z" fill="#263238"/>
    </g>
    <g id="그룹_69" data-name="그룹 69">
      <path id="패스_60" data-name="패스 60" d="M619.772,1280.655a.5.5,0,0,1-.5-.5v-2a.5.5,0,0,1,1,0v2A.5.5,0,0,1,619.772,1280.655Z" fill="#263238"/>
    </g>
    <g id="그룹_70" data-name="그룹 70">
      <path id="패스_61" data-name="패스 61" d="M617.772,1290.655a.5.5,0,0,1-.5-.5v-2a.5.5,0,0,1,1,0v2A.5.5,0,0,1,617.772,1290.655Z" fill="#263238"/>
    </g>
    <g id="그룹_71" data-name="그룹 71">
      <path id="패스_62" data-name="패스 62" d="M619.772,1290.655a.5.5,0,0,1-.5-.5v-2a.5.5,0,0,1,1,0v2A.5.5,0,0,1,619.772,1290.655Z" fill="#263238"/>
    </g>
    <g id="그룹_72" data-name="그룹 72">
      <rect id="사각형_34" data-name="사각형 34" width="20" height="5" rx="1" transform="translate(608.773 1299.155)" fill="#ffd740"/>
      <path id="패스_63" data-name="패스 63" d="M627.772,1304.655h-18a1.5,1.5,0,0,1-1.5-1.5v-3a1.5,1.5,0,0,1,1.5-1.5h18a1.5,1.5,0,0,1,1.5,1.5v3A1.5,1.5,0,0,1,627.772,1304.655Zm-18-5a.5.5,0,0,0-.5.5v3a.5.5,0,0,0,.5.5h18a.5.5,0,0,0,.5-.5v-3a.5.5,0,0,0-.5-.5Z" fill="#263238"/>
    </g>
    <g id="그룹_73" data-name="그룹 73">
      <rect id="사각형_35" data-name="사각형 35" width="20" height="5" rx="1" transform="translate(608.773 1294.155)" fill="#ffd740"/>
      <path id="패스_64" data-name="패스 64" d="M627.772,1299.655h-18a1.5,1.5,0,0,1-1.5-1.5v-3a1.5,1.5,0,0,1,1.5-1.5h18a1.5,1.5,0,0,1,1.5,1.5v3A1.5,1.5,0,0,1,627.772,1299.655Zm-18-5a.5.5,0,0,0-.5.5v3a.5.5,0,0,0,.5.5h18a.5.5,0,0,0,.5-.5v-3a.5.5,0,0,0-.5-.5Z" fill="#263238"/>
    </g>
    <g id="그룹_74" data-name="그룹 74">
      <rect id="사각형_36" data-name="사각형 36" width="20" height="5" rx="1" transform="translate(608.773 1304.155)" fill="#ffd740"/>
      <path id="패스_65" data-name="패스 65" d="M627.772,1309.655h-18a1.5,1.5,0,0,1-1.5-1.5v-3a1.5,1.5,0,0,1,1.5-1.5h18a1.5,1.5,0,0,1,1.5,1.5v3A1.5,1.5,0,0,1,627.772,1309.655Zm-18-5a.5.5,0,0,0-.5.5v3a.5.5,0,0,0,.5.5h18a.5.5,0,0,0,.5-.5v-3a.5.5,0,0,0-.5-.5Z" fill="#263238"/>
    </g>
    <g id="그룹_75" data-name="그룹 75">
      <path id="패스_66" data-name="패스 66" d="M606.957,1299.655H577.772a3,3,0,0,1-3-3v-.5a.5.5,0,0,1,1,0v.5a2,2,0,0,0,2,2h29.185a.5.5,0,0,1,0,1Z" fill="#263238"/>
    </g>
    <g id="그룹_76" data-name="그룹 76">
      <path id="패스_67" data-name="패스 67" d="M575.272,1284.655a.5.5,0,0,1-.5-.5v-6a.5.5,0,0,1,1,0v6A.5.5,0,0,1,575.272,1284.655Z" fill="#263238"/>
    </g>
    <g id="그룹_77" data-name="그룹 77">
      <path id="패스_68" data-name="패스 68" d="M611.272,1275.3a.5.5,0,0,1-.5-.5v-9.147a2,2,0,0,0-2-2h-31a2,2,0,0,0-2,2v.5a.5.5,0,0,1-1,0v-.5a3,3,0,0,1,3-3h31a3,3,0,0,1,3,3v9.147A.5.5,0,0,1,611.272,1275.3Z" fill="#263238"/>
    </g>
    <g id="그룹_78" data-name="그룹 78">
      <path id="패스_69" data-name="패스 69" d="M606.772,1305.655h-32.5a5.507,5.507,0,0,1-5.5-5.5v-38a5.507,5.507,0,0,1,5.5-5.5h38a5.506,5.506,0,0,1,5.5,5.5v10.1a.5.5,0,0,1-1,0v-10.1a4.5,4.5,0,0,0-4.5-4.5h-38a4.505,4.505,0,0,0-4.5,4.5v38a4.5,4.5,0,0,0,4.5,4.5h32.5a.5.5,0,0,1,0,1Z" fill="#263238"/>
    </g>
    <g id="그룹_79" data-name="그룹 79">
      <circle id="타원_18" data-name="타원 18" cx="8" cy="8" r="8" transform="translate(585.273 1273.155)" fill="#ff5252"/>
      <path id="패스_70" data-name="패스 70" d="M593.272,1289.655a8.5,8.5,0,1,1,8.5-8.5A8.51,8.51,0,0,1,593.272,1289.655Zm0-16a7.5,7.5,0,1,0,7.5,7.5A7.509,7.509,0,0,0,593.272,1273.655Z" fill="#263238"/>
    </g>
    <g id="그룹_80" data-name="그룹 80">
      <path id="패스_71" data-name="패스 71" d="M593.272,1286.655a5.5,5.5,0,1,1,5.5-5.5A5.507,5.507,0,0,1,593.272,1286.655Zm0-10a4.5,4.5,0,1,0,4.5,4.5A4.505,4.505,0,0,0,593.272,1276.655Z" fill="#263238"/>
    </g>
    <g id="그룹_81" data-name="그룹 81">
      <path id="패스_72" data-name="패스 72" d="M620.272,1254.155h-4a.5.5,0,0,1,0-1h4a.5.5,0,0,1,0,1Z" fill="#263238"/>
    </g>
    <g id="그룹_82" data-name="그룹 82">
      <path id="패스_73" data-name="패스 73" d="M618.272,1256.155a.5.5,0,0,1-.5-.5v-4a.5.5,0,0,1,1,0v4A.5.5,0,0,1,618.272,1256.155Z" fill="#263238"/>
    </g>
    <g id="그룹_83" data-name="그룹 83">
      <path id="패스_74" data-name="패스 74" d="M627.272,1260.655h-4a.5.5,0,0,1,0-1h4a.5.5,0,0,1,0,1Z" fill="#263238"/>
    </g>
    <g id="그룹_84" data-name="그룹 84">
      <path id="패스_75" data-name="패스 75" d="M625.272,1262.655a.5.5,0,0,1-.5-.5v-4a.5.5,0,0,1,1,0v4A.5.5,0,0,1,625.272,1262.655Z" fill="#263238"/>
    </g>
    <g id="그룹_85" data-name="그룹 85">
      <path id="패스_76" data-name="패스 76" d="M585.272,1308.654h-1a.5.5,0,0,1,0-1h1a.5.5,0,0,1,0,1Z" fill="#263238"/>
    </g>
    <g id="그룹_86" data-name="그룹 86">
      <path id="패스_77" data-name="패스 77" d="M602.272,1308.655h-15a.5.5,0,0,1,0-1h15a.5.5,0,0,1,0,1Z" fill="#263238"/>
    </g>
    <g id="그룹_87" data-name="그룹 87">
      <path id="패스_78" data-name="패스 78" d="M602.272,1254.655h-1a.5.5,0,0,1,0-1h1a.5.5,0,0,1,0,1Z" fill="#263238"/>
    </g>
    <g id="그룹_88" data-name="그룹 88">
      <path id="패스_79" data-name="패스 79" d="M599.272,1254.655h-15a.5.5,0,0,1,0-1h15a.5.5,0,0,1,0,1Z" fill="#263238"/>
    </g>
    <g id="그룹_89" data-name="그룹 89">
      <path id="패스_80" data-name="패스 80" d="M576.272,1276.655h-2a1.5,1.5,0,0,1-1.5-1.5v-6a1.5,1.5,0,0,1,1.5-1.5h2a1.5,1.5,0,0,1,1.5,1.5v6A1.5,1.5,0,0,1,576.272,1276.655Zm-2-8a.5.5,0,0,0-.5.5v6a.5.5,0,0,0,.5.5h2a.5.5,0,0,0,.5-.5v-6a.5.5,0,0,0-.5-.5Z" fill="#263238"/>
    </g>
    <g id="그룹_90" data-name="그룹 90">
      <path id="패스_81" data-name="패스 81" d="M576.272,1294.655h-2a1.5,1.5,0,0,1-1.5-1.5v-6a1.5,1.5,0,0,1,1.5-1.5h2a1.5,1.5,0,0,1,1.5,1.5v6A1.5,1.5,0,0,1,576.272,1294.655Zm-2-8a.5.5,0,0,0-.5.5v6a.5.5,0,0,0,.5.5h2a.5.5,0,0,0,.5-.5v-6a.5.5,0,0,0-.5-.5Z" fill="#263238"/>
    </g>
    <g id="그룹_91" data-name="그룹 91">
      <path id="패스_82" data-name="패스 82" d="M608.272,1271.655a.5.5,0,0,1-.5-.5v-4a.5.5,0,0,0-.5-.5h-4a.5.5,0,0,1,0-1h4a1.5,1.5,0,0,1,1.5,1.5v4A.5.5,0,0,1,608.272,1271.655Z" fill="#263238"/>
    </g>
  </g>
</svg>
