<svg xmlns="http://www.w3.org/2000/svg" id="레이어_2" width="54" height="58.5" data-name="레이어 2" viewBox="0 0 54 58.5">
    <defs>
        <style>
            .cls-1{fill:#ffd740}.cls-2{fill:#263238}.cls-3{fill:#00b9ff}.cls-4{fill:none;stroke:#263238;stroke-miterlimit:10}
        </style>
    </defs>
    <g id="레이어_1" data-name="레이어 1">
        <circle id="타원_31" cx="10" cy="10" r="10" class="cls-1" data-name="타원 31" transform="translate(33.5 38)"/>
        <path id="패스_1008" d="M43.5 58.5A10.5 10.5 0 1 1 54 48a10.5 10.5 0 0 1-10.5 10.5zm0-20A9.5 9.5 0 1 0 53 48a9.5 9.5 0 0 0-9.5-9.5z" class="cls-2" data-name="패스 1008"/>
        <path id="패스_1009" d="M.5 54.5A.5.5 0 0 1 0 54v-1a.5.5 0 0 1 1 0v1a.5.5 0 0 1-.5.5z" class="cls-2" data-name="패스 1009"/>
        <path id="패스_1010" d="M.5 51.5A.5.5 0 0 1 0 51V36a.5.5 0 0 1 1 0v15a.5.5 0 0 1-.5.5z" class="cls-2" data-name="패스 1010"/>
        <path id="패스_1011" d="M44.5 11.5a.5.5 0 0 1-.5-.5v-1a.5.5 0 0 1 1 0v1a.5.5 0 0 1-.5.5z" class="cls-2" data-name="패스 1011"/>
        <path id="패스_1012" d="M44.5 28.5a.5.5 0 0 1-.5-.5V13a.5.5 0 0 1 1 0v15a.5.5 0 0 1-.5.5z" class="cls-2" data-name="패스 1012"/>
        <path id="패스_1013" d="M31.894 51.5H10.5A5.507 5.507 0 0 1 5 46V24a5.507 5.507 0 0 1 5.5-5.5h24A5.507 5.507 0 0 1 40 24v12.7a.5.5 0 0 1-1 0V24a4.5 4.5 0 0 0-4.5-4.5h-24A4.5 4.5 0 0 0 6 24v22a4.5 4.5 0 0 0 4.5 4.5h21.394a.5.5 0 0 1 0 1z" class="cls-2" data-name="패스 1013"/>
        <path id="패스_1014" d="M20.379 41.1a1.5 1.5 0 0 1-1.061-.439l-4.95-4.95a1.5 1.5 0 1 1 2.121-2.121l3.89 3.889 8.132-8.132a1.5 1.5 0 0 1 2.121 2.121l-9.192 9.189a1.5 1.5 0 0 1-1.061.439z" class="cls-3" data-name="패스 1014"/>
        <path id="패스_1015" d="M20.379 41.6a1.986 1.986 0 0 1-1.414-.586l-4.95-4.95a2 2 0 0 1 0-2.828 2.047 2.047 0 0 1 2.828 0l3.536 3.536 7.778-7.778a2 2 0 0 1 2.828 2.828l-9.192 9.188a1.986 1.986 0 0 1-1.414.586zm-4.95-7.95a1 1 0 0 0-.707 1.707l4.95 4.95a1.024 1.024 0 0 0 1.414 0l9.192-9.192a1 1 0 1 0-1.414-1.415l-8.132 8.132a.5.5 0 0 1-.707 0l-3.89-3.889a1 1 0 0 0-.707-.293z" class="cls-2" data-name="패스 1015"/>
        <path id="패스_1016" d="M34.5 19a.5.5 0 0 1-.5-.5v-6a11.5 11.5 0 1 0-23 0v6a.5.5 0 0 1-1 0v-6a12.5 12.5 0 1 1 25 0v6a.5.5 0 0 1-.5.5z" class="cls-2" data-name="패스 1016"/>
        <path id="패스_1017" d="M30.5 19a.5.5 0 0 1-.5-.5v-6a7.5 7.5 0 0 0-15 0v6a.5.5 0 0 1-1 0v-6a8.5 8.5 0 0 1 17 0v6a.5.5 0 0 1-.5.5z" class="cls-2" data-name="패스 1017"/>
        <path id="패스_1018" d="M33.119 54.5H10.5A1.5 1.5 0 0 1 9 53a.5.5 0 0 1 1 0 .5.5 0 0 0 .5.5h22.619a.5.5 0 0 1 0 1z" class="cls-2" data-name="패스 1018"/>
        <circle id="타원_32" cx="3.25" cy="3.25" r="3.25" class="cls-4" data-name="타원 32" transform="translate(40.29 42.693)"/>
        <path id="패스_1019" d="M38.853 52.5c0-1.795 2.1-3.25 4.688-3.25s4.688 1.455 4.688 3.25" class="cls-4" data-name="패스 1019"/>
    </g>
</svg>
