<svg xmlns="http://www.w3.org/2000/svg" width="34.227" height="19.742" viewBox="0 0 34.227 19.742">
  <path id="패스_2049" data-name="패스 2049" d="M188.956,346.074c.5-1.377.977-2.7,1.45-4.017a.241.241,0,0,1,.267-.19q3.989.039,7.979.068,4.467.026,8.933.028a5.566,5.566,0,0,0,1.206-.149,2.189,2.189,0,0,0,1.537-1.121,20.9,20.9,0,0,0,.928-2.133c.168-.443-.06-.7-.527-.7q-2.9.006-5.806.01-4.56,0-9.12,0a5.476,5.476,0,0,1-2.1-.341,2.215,2.215,0,0,1-1.368-2.906c.543-1.689,1.109-3.371,1.662-5.058a4.235,4.235,0,0,1,3.648-3.013,16.751,16.751,0,0,1,2.529-.2q11.346-.023,22.693-.009h.319c-.462,1.349-.919,2.663-1.359,3.983a.344.344,0,0,1-.4.276q-7.953-.009-15.906,0a15.2,15.2,0,0,0-1.555.113.655.655,0,0,0-.555.468c-.248.642-.516,1.277-.77,1.917a1.565,1.565,0,0,0-.091.358.431.431,0,0,0,.383.558,4.115,4.115,0,0,0,.737.056q7,0,14,.006a4.547,4.547,0,0,1,1,.1,1.539,1.539,0,0,1,1.34,1.678,6.759,6.759,0,0,1-.281,1.742q-.771,2.562-1.632,5.1a4.491,4.491,0,0,1-2.779,2.971,7.176,7.176,0,0,1-2.443.415q-10.936.008-21.871,0h-2.045Z" transform="translate(-188.956 -326.332)" fill="#002ebf"/>
</svg>
