<svg xmlns="http://www.w3.org/2000/svg" xmlns:xlink="http://www.w3.org/1999/xlink" width="24" height="24" viewBox="0 0 24 24">
  <defs>
    <clipPath id="clip-path">
      <rect id="사각형_1927" data-name="사각형 1927" width="20" height="20" transform="translate(170 484)" fill="#333"/>
    </clipPath>
  </defs>
  <g id="그룹_4998" data-name="그룹 4998" transform="translate(-31 -575)">
    <g id="마스크_그룹_13" data-name="마스크 그룹 13" transform="translate(-137 93)" clip-path="url(#clip-path)">
      <g id="present" transform="translate(170.021 484)">
        <g id="그룹_3947" data-name="그룹 3947" transform="translate(0)">
          <path id="패스_202" data-name="패스 202" d="M15.851,4.446A5.33,5.33,0,0,0,17,3.917,2.171,2.171,0,0,0,16.032.024a2.157,2.157,0,0,0-1.612.4,18.4,18.4,0,0,0-2.4,3.241,2.418,2.418,0,0,0-4,0A18.4,18.4,0,0,0,5.614.427a2.171,2.171,0,0,0-3.44,2.065,2.157,2.157,0,0,0,.855,1.425,5.329,5.329,0,0,0,1.154.53H.038V9.475H1.208V20H18.823V9.475H20V4.446Zm-.734-3.08a.994.994,0,0,1,.594-.2,1.02,1.02,0,0,1,.15.011,1,1,0,0,1,.449,1.8,17.74,17.74,0,0,1-3.165,1.1A17.317,17.317,0,0,1,15.116,1.367Zm-5.1,2.414a1.252,1.252,0,0,1,1.105.666H8.912A1.251,1.251,0,0,1,10.017,3.78Zm-6.292-.8a1,1,0,0,1,.449-1.8,1.015,1.015,0,0,1,.15-.011,1,1,0,0,1,.594.2A17.737,17.737,0,0,1,6.889,4.074,17.32,17.32,0,0,1,3.725,2.977ZM1.208,5.616H5.885v2.69H1.208ZM7.055,18.831H2.377V9.475H7.055v9.356Zm0-13.215h5.892v2.69H7.055Zm4.722,13.215H8.224V9.475h3.553Zm5.877,0H12.946V9.475h4.708v9.356ZM18.826,8.305H14.116V5.616h4.711v2.69Z" transform="translate(-0.038 0)" fill="#333"/>
        </g>
      </g>
    </g>
    <rect id="사각형_3007" data-name="사각형 3007" width="24" height="24" transform="translate(31 575)" fill="none"/>
  </g>
</svg>
