<svg xmlns="http://www.w3.org/2000/svg" xmlns:xlink="http://www.w3.org/1999/xlink" width="24" height="24" viewBox="0 0 24 24">
  <defs>
    <clipPath id="clip-path">
      <rect id="사각형_1920" data-name="사각형 1920" width="20" height="20" transform="translate(170 396)" fill="#333"/>
    </clipPath>
  </defs>
  <g id="그룹_4995" data-name="그룹 4995" transform="translate(-28 -432)">
    <g id="마스크_그룹_10" data-name="마스크 그룹 10" transform="translate(-140 38)" clip-path="url(#clip-path)">
      <g id="contract" transform="translate(170.001 396)">
        <g id="그룹_3922" data-name="그룹 3922">
          <g id="그룹_3921" data-name="그룹 3921">
            <path id="패스_189" data-name="패스 189" d="M19.485,6.294a1.76,1.76,0,0,0-2.486,0L15.236,8.058V3.415a1.746,1.746,0,0,0-.515-1.243L13.064.515A1.746,1.746,0,0,0,11.821,0H1.759A1.76,1.76,0,0,0,0,1.758V18.242A1.76,1.76,0,0,0,1.759,20H13.478a1.76,1.76,0,0,0,1.758-1.758v-5.21L19.485,8.78A1.757,1.757,0,0,0,19.485,6.294ZM11.72,1.172a.64.64,0,0,1,.515.172L13.892,3a.64.64,0,0,1,.172.515H11.72Zm2.344,17.07a.587.587,0,0,1-.586.586H1.759a.587.587,0,0,1-.586-.586V1.758a.587.587,0,0,1,.586-.586h8.789V4.1a.586.586,0,0,0,.586.586h2.93V9.231l-1.729,1.73-.828.828a.586.586,0,0,0-.142.229L10.537,14.5a.586.586,0,0,0,.741.741l2.486-.829a.585.585,0,0,0,.229-.142l.071-.071v4.038ZM12.75,12.2l.829.829-.317.317-1.243.414.414-1.243Zm1.657,0-.829-.829,2.817-2.819.829.829Zm4.249-4.253-.6.6-.829-.829.6-.6a.586.586,0,1,1,.828.829Z" transform="translate(-0.001)" fill="#333"/>
          </g>
        </g>
        <g id="그룹_3924" data-name="그룹 3924" transform="translate(2.344 5.859)">
          <g id="그룹_3923" data-name="그룹 3923">
            <path id="패스_190" data-name="패스 190" d="M13.009,10.547h-8.2a.586.586,0,0,0,0,1.172h8.2a.586.586,0,1,0,0-1.172Z" transform="translate(-4.22 -10.547)" fill="#333"/>
          </g>
        </g>
        <g id="그룹_3926" data-name="그룹 3926" transform="translate(2.344 8.203)">
          <g id="그룹_3925" data-name="그룹 3925">
            <path id="패스_191" data-name="패스 191" d="M10.665,14.766H4.806a.586.586,0,0,0,0,1.172h5.859a.586.586,0,1,0,0-1.172Z" transform="translate(-4.22 -14.766)" fill="#333"/>
          </g>
        </g>
        <g id="그룹_3928" data-name="그룹 3928" transform="translate(2.344 10.547)">
          <g id="그룹_3927" data-name="그룹 3927">
            <path id="패스_192" data-name="패스 192" d="M10.665,18.984H4.806a.586.586,0,0,0,0,1.172h5.859a.586.586,0,1,0,0-1.172Z" transform="translate(-4.22 -18.984)" fill="#333"/>
          </g>
        </g>
        <g id="그룹_3930" data-name="그룹 3930" transform="translate(2.344 12.891)">
          <g id="그룹_3929" data-name="그룹 3929">
            <path id="패스_193" data-name="패스 193" d="M10.665,23.2H4.806a.586.586,0,0,0,0,1.172h5.859a.586.586,0,1,0,0-1.172Z" transform="translate(-4.22 -23.203)" fill="#333"/>
          </g>
        </g>
        <g id="그룹_3932" data-name="그룹 3932" transform="translate(7.031 16.484)">
          <g id="그룹_3931" data-name="그룹 3931">
            <path id="패스_194" data-name="패스 194" d="M16.759,29.672H13.243a.586.586,0,0,0,0,1.172h3.516a.586.586,0,0,0,0-1.172Z" transform="translate(-12.658 -29.672)" fill="#333"/>
          </g>
        </g>
      </g>
    </g>
    <rect id="사각형_3003" data-name="사각형 3003" width="24" height="24" transform="translate(28 432)" fill="none"/>
  </g>
</svg>
