<svg xmlns="http://www.w3.org/2000/svg" xmlns:xlink="http://www.w3.org/1999/xlink" width="24" height="24" viewBox="0 0 24 24">
  <defs>
    <clipPath id="clip-path">
      <rect id="사각형_1928" data-name="사각형 1928" width="20" height="20" transform="translate(282 484)" fill="#333"/>
    </clipPath>
  </defs>
  <g id="그룹_4999" data-name="그룹 4999" transform="translate(-33 -623)">
    <g id="마스크_그룹_9" data-name="마스크 그룹 9" transform="translate(-247 141)" clip-path="url(#clip-path)">
      <g id="megaphone" transform="translate(282 484.625)">
        <g id="그룹_3916" data-name="그룹 3916" transform="translate(2.344 7.031)">
          <g id="그룹_3915" data-name="그룹 3915">
            <path id="패스_186" data-name="패스 186" d="M7.148,13.781H4.8a.586.586,0,0,0-.586.586.579.579,0,0,0,.586.578H7.148a.579.579,0,0,0,.586-.578A.586.586,0,0,0,7.148,13.781Z" transform="translate(-4.219 -13.781)" fill="#333"/>
          </g>
        </g>
        <g id="그룹_3918" data-name="그룹 3918" transform="translate(2.344 9.375)">
          <g id="그룹_3917" data-name="그룹 3917">
            <path id="패스_187" data-name="패스 187" d="M7.148,18H4.8a.586.586,0,0,0-.586.586.579.579,0,0,0,.586.578H7.148a.579.579,0,0,0,.586-.578A.586.586,0,0,0,7.148,18Z" transform="translate(-4.219 -18)" fill="#333"/>
          </g>
        </g>
        <g id="그룹_3920" data-name="그룹 3920">
          <g id="그룹_3919" data-name="그룹 3919">
            <path id="패스_188" data-name="패스 188" d="M17.656,7.043V2.883A1.758,1.758,0,0,0,14.163,2.6L11.484,4.538l-.006,0a6.488,6.488,0,0,1-3.841,1.27H2.93A2.933,2.933,0,0,0,0,8.742v2.344a2.933,2.933,0,0,0,2.93,2.93l.586-.008v4.109a1.758,1.758,0,0,0,3.516,0V16.359h.586A1.76,1.76,0,0,0,9.375,14.6v-.339A6.467,6.467,0,0,1,11.484,15.3l.006,0,2.68,1.955a1.758,1.758,0,0,0,3.486-.319v-4.16a2.93,2.93,0,0,0,0-5.741ZM5.859,18.117a.586.586,0,0,1-1.172,0V14.008H5.859ZM2.93,12.844a1.76,1.76,0,0,1-1.758-1.758V8.742A1.767,1.767,0,0,1,2.93,6.977h4.1v5.867ZM8.2,14.6a.587.587,0,0,1-.586.586H7.031v-1.18a10.767,10.767,0,0,1,1.172.035Zm5.945,1.191-1.964-1.428a7.674,7.674,0,0,0-3.981-1.5v-5.9a7.675,7.675,0,0,0,3.97-1.476l1.975-1.421V15.792Zm2.344,1.153a.593.593,0,0,1-.594.586.587.587,0,0,1-.586-.586V2.883A.587.587,0,0,1,15.9,2.3a.593.593,0,0,1,.594.586Zm1.164-5.374V8.257a1.757,1.757,0,0,1,0,3.314Z" transform="translate(0 -1.125)" fill="#333"/>
          </g>
        </g>
      </g>
    </g>
    <rect id="사각형_3008" data-name="사각형 3008" width="24" height="24" transform="translate(33 623)" fill="none"/>
  </g>
</svg>
