<svg xmlns="http://www.w3.org/2000/svg" width="47" height="47" viewBox="0 0 47 47">
  <g id="icon_02_on" transform="translate(-1445 -6007)">
    <rect id="사각형_45" data-name="사각형 45" width="47" height="47" transform="translate(1445 6007)" fill="none"/>
    <g id="icon_02" transform="translate(-8 5205)">
      <circle id="타원_34" data-name="타원 34" cx="22.5" cy="22.5" r="22.5" transform="translate(1454 803)" fill="#00dbd8"/>
      <g id="그룹_107" data-name="그룹 107" transform="translate(-5580.32 -2642.29)">
        <g id="그룹_106" data-name="그룹 106" transform="translate(7045.32 3456.29)">
          <path id="패스_250" data-name="패스 250" d="M7061.882,3456.29h-9.842a6.72,6.72,0,0,0-6.72,6.72v9.842a6.72,6.72,0,0,0,6.72,6.72h9.842a6.72,6.72,0,0,0,6.72-6.72v-9.842A6.72,6.72,0,0,0,7061.882,3456.29Zm4.576,16.735a4.461,4.461,0,0,1-4.461,4.461h-10.072a4.461,4.461,0,0,1-4.46-4.461v-10.072a4.461,4.461,0,0,1,4.46-4.461H7062a4.461,4.461,0,0,1,4.461,4.461Z" transform="translate(-7045.32 -3456.29)" fill="#fff"/>
          <path id="패스_251" data-name="패스 251" d="M7108.614,3514.135a6.041,6.041,0,1,0,6.041,6.041A6.041,6.041,0,0,0,7108.614,3514.135Zm0,9.957a3.916,3.916,0,1,1,3.916-3.916A3.916,3.916,0,0,1,7108.614,3524.092Z" transform="translate(-7096.973 -3508.477)" fill="#fff"/>
          <circle id="타원_37" data-name="타원 37" cx="1.407" cy="1.407" r="1.407" transform="translate(16.476 4.021)" fill="#fff"/>
        </g>
      </g>
    </g>
  </g>
</svg>
