<svg xmlns="http://www.w3.org/2000/svg" xmlns:xlink="http://www.w3.org/1999/xlink" width="57" height="58.618" viewBox="0 0 57 58.618">
  <defs>
    <linearGradient id="linear-gradient" x1="0.5" x2="0.5" y2="1" gradientUnits="objectBoundingBox">
      <stop offset="0" stop-color="#b3ccd9"/>
      <stop offset="1" stop-color="#a5c6d8"/>
    </linearGradient>
    <linearGradient id="linear-gradient-2" x1="0.153" x2="0.9" y2="0.892" gradientUnits="objectBoundingBox">
      <stop offset="0" stop-color="#0069fd"/>
      <stop offset="1" stop-color="#1dbbff"/>
    </linearGradient>
    <filter id="타원_20" x="2.651" y="0" width="47.981" height="47.981" filterUnits="userSpaceOnUse">
      <feOffset dy="3" input="SourceAlpha"/>
      <feGaussianBlur stdDeviation="3" result="blur"/>
      <feFlood flood-color="#1dbbff" flood-opacity="0.122"/>
      <feComposite operator="in" in2="blur"/>
      <feComposite in="SourceGraphic"/>
    </filter>
  </defs>
  <g id="category-symbol" transform="translate(-932 -165.382)">
    <ellipse id="타원_24" data-name="타원 24" cx="28.5" cy="2.5" rx="28.5" ry="2.5" transform="translate(932 219)" fill="#dfecf3" opacity="0.4"/>
    <g id="그룹_84" data-name="그룹 84" transform="translate(-1644.698 299.382)">
      <g id="그룹_83" data-name="그룹 83" transform="translate(2579 -130)">
        <path id="패스_97" data-name="패스 97" d="M329.683,243v6.85L280,253.258V243Z" transform="translate(-279.143 -223.203)" fill="#9bb6bf"/>
        <path id="패스_98" data-name="패스 98" d="M329.539,243H279.857l1.713,2.476L279,248.994c11.992,0,30.837,0,51.4,0l-2.57-3.517Z" transform="translate(-279 -223.203)" fill="url(#linear-gradient)"/>
        <g id="그룹_80" data-name="그룹 80" transform="translate(9.349 2)">
          <g transform="matrix(1, 0, 0, 1, -11.65, -6)" filter="url(#타원_20)">
            <circle id="타원_20-2" data-name="타원 20" cx="14.99" cy="14.99" r="14.99" transform="translate(11.65 6)" fill="url(#linear-gradient-2)"/>
          </g>
          <g id="그룹_79" data-name="그룹 79" transform="translate(8.482 9.613)">
            <path id="패스_63" data-name="패스 63" d="M306.324,234.994l-6.508-3.883v8.246Z" transform="translate(-299.816 -231.111)" fill="#fff" opacity="0.64" style="isolation: isolate"/>
            <path id="패스_64" data-name="패스 64" d="M306.412,234.942l-6.6,4.415v.012l6.508,4.211,6.508-4.211v-8.257Z" transform="translate(-299.816 -231.111)" fill="#fff"/>
          </g>
        </g>
        <g id="그룹_82" data-name="그룹 82" transform="translate(0 25.793)">
          <path id="사각형_366" data-name="사각형 366" d="M0,0H51.4a0,0,0,0,1,0,0V16.739a9.816,9.816,0,0,1-9.816,9.816H9.816A9.816,9.816,0,0,1,0,16.739V0A0,0,0,0,1,0,0Z" fill="#dfecf3"/>
          <g id="그룹_81" data-name="그룹 81" transform="translate(9.423 4.283)">
            <circle id="타원_21" data-name="타원 21" cx="2.141" cy="2.141" r="2.141" fill="#b9cdd6"/>
            <circle id="타원_22" data-name="타원 22" cx="2.141" cy="2.141" r="2.141" transform="translate(28.268)" fill="#b9cdd6"/>
          </g>
          <path id="패스_99" data-name="패스 99" d="M307.347,272.775h-1.713c-10.44,0-13.809-9.753-14.131-14.91a1.285,1.285,0,0,1,2.565-.161c.033.509.941,12.5,11.567,12.5h1.713c10.625,0,11.533-11.992,11.567-12.5a1.285,1.285,0,0,1,2.565.163C321.156,263.022,317.787,272.775,307.347,272.775Z" transform="translate(-280.793 -250.932)" fill="#fff"/>
        </g>
      </g>
    </g>
  </g>
</svg>
