<svg xmlns="http://www.w3.org/2000/svg" width="94.624" height="11.952" viewBox="0 0 94.624 11.952">
  <path id="패스_108" data-name="패스 108" d="M4.016-3.792V0H.864V-11.328h4.7A4.355,4.355,0,0,1,8.7-10.3a3.639,3.639,0,0,1,1.08,2.76,3.829,3.829,0,0,1-.48,1.92A3.348,3.348,0,0,1,7.864-4.28a4.982,4.982,0,0,1-2.3.488Zm1.2-2.48q1.376,0,1.376-1.264,0-1.248-1.376-1.248h-1.2v2.512ZM15.328-9.088a5.151,5.151,0,0,1,2.408.552,4.059,4.059,0,0,1,1.672,1.6,4.775,4.775,0,0,1,.608,2.44,4.764,4.764,0,0,1-.608,2.448,4.127,4.127,0,0,1-1.672,1.6,5.091,5.091,0,0,1-2.408.56,5.139,5.139,0,0,1-2.416-.56,4.115,4.115,0,0,1-1.68-1.6A4.764,4.764,0,0,1,10.624-4.5a4.764,4.764,0,0,1,.608-2.448,4.062,4.062,0,0,1,1.68-1.592A5.2,5.2,0,0,1,15.328-9.088Zm0,2.72a1.4,1.4,0,0,0-1.088.48A2.015,2.015,0,0,0,13.808-4.5a2.041,2.041,0,0,0,.432,1.408,1.4,1.4,0,0,0,1.088.48A1.374,1.374,0,0,0,16.4-3.1a2.046,2.046,0,0,0,.432-1.4A2.015,2.015,0,0,0,16.4-5.888,1.384,1.384,0,0,0,15.328-6.368Zm10.128-2.72a4.474,4.474,0,0,1,2.928.968,4.292,4.292,0,0,1,1.488,2.68H26.544a1.29,1.29,0,0,0-.408-.712,1.143,1.143,0,0,0-.76-.248,1.112,1.112,0,0,0-.936.488A2.361,2.361,0,0,0,24.08-4.5a2.355,2.355,0,0,0,.36,1.424,1.118,1.118,0,0,0,.936.48,1.143,1.143,0,0,0,.76-.248,1.29,1.29,0,0,0,.408-.712h3.328A4.326,4.326,0,0,1,28.384-.864a4.451,4.451,0,0,1-2.928.976A4.961,4.961,0,0,1,23.08-.44a3.906,3.906,0,0,1-1.608-1.6A5.02,5.02,0,0,1,20.9-4.5a4.974,4.974,0,0,1,.576-2.448,3.906,3.906,0,0,1,1.616-1.592A4.973,4.973,0,0,1,25.456-9.088ZM36.816,0,34.368-3.712V0H31.216V-11.84h3.152v6.352l2.464-3.488H40.5l-3.488,4.5L40.592,0Zm13.36-4.656a3.774,3.774,0,0,1-.08.736H44.16q.08,1.52,1.328,1.52a1.26,1.26,0,0,0,.768-.224,1.121,1.121,0,0,0,.416-.592H50a3.807,3.807,0,0,1-.784,1.7A4.207,4.207,0,0,1,47.68-.32a4.755,4.755,0,0,1-2.032.432A4.961,4.961,0,0,1,43.272-.44a3.906,3.906,0,0,1-1.608-1.6A5.02,5.02,0,0,1,41.088-4.5a4.974,4.974,0,0,1,.576-2.448A3.906,3.906,0,0,1,43.28-8.536a4.973,4.973,0,0,1,2.368-.552,4.972,4.972,0,0,1,2.368.544,3.88,3.88,0,0,1,1.592,1.552A4.677,4.677,0,0,1,50.176-4.656Zm-3.2-.576a1.3,1.3,0,0,0-.368-1.04,1.367,1.367,0,0,0-.96-.352,1.463,1.463,0,0,0-1.016.352,1.527,1.527,0,0,0-.456,1.04Zm9.888,2.544V0h-1.3a3.77,3.77,0,0,1-2.576-.816,3.44,3.44,0,0,1-.928-2.7V-6.352H50.912V-8.976h1.152v-2.176h3.152v2.176h1.616v2.624H55.216v2.9a.8.8,0,0,0,.184.592.877.877,0,0,0,.616.176ZM74.592-11.28V0h-3.12V-6.4L69.376,0h-2.7l-2.1-6.4V0H61.424V-11.28H65.28l2.784,7.328,2.7-7.328Zm5.152,2.192a3.185,3.185,0,0,1,1.64.408,2.514,2.514,0,0,1,1.032,1.128V-8.976h3.136V0H82.416V-1.424A2.514,2.514,0,0,1,81.384-.3a3.185,3.185,0,0,1-1.64.408A3.52,3.52,0,0,1,77.808-.44a3.736,3.736,0,0,1-1.36-1.6,5.686,5.686,0,0,1-.5-2.456,5.633,5.633,0,0,1,.5-2.448,3.744,3.744,0,0,1,1.36-1.592A3.52,3.52,0,0,1,79.744-9.088Zm1.04,2.752a1.556,1.556,0,0,0-1.192.488A1.9,1.9,0,0,0,79.136-4.5a1.927,1.927,0,0,0,.456,1.368,1.556,1.556,0,0,0,1.192.488,1.532,1.532,0,0,0,1.168-.5,1.912,1.912,0,0,0,.464-1.36,1.889,1.889,0,0,0-.464-1.344A1.532,1.532,0,0,0,80.784-6.336Zm9.728-5.5V0H87.36V-11.84Zm4.976,0V0H92.336V-11.84Z" transform="translate(-0.864 11.84)" fill="#fff"/>
</svg>
