<svg xmlns="http://www.w3.org/2000/svg" width="1212" height="442" viewBox="0 0 1212 442">
  <path id="bg_cloud" d="M0-737V-907H0c0-.332,0-.666,0-1a103,103,0,0,1,103-103,102.9,102.9,0,0,1,33.393,5.533C153.759-1046.962,204.549-1077,264.5-1077c41.126,0,77.944,14.137,102.615,36.41A103.044,103.044,0,0,1,457-1093a103.043,103.043,0,0,1,92.555,57.474A69.354,69.354,0,0,1,602.5-1060a69.217,69.217,0,0,1,44.364,16c28.569-29.394,79.97-49,138.636-49,65.8,0,122.472,24.672,148.025,60.15A70.355,70.355,0,0,1,976-1047q2.346,0,4.654.15c7.8-40.271,42.733-78.94,92.927-97.209,31.8-11.576,64.181-12.938,91.741-5.811A102.99,102.99,0,0,1,1212-1178.862V-737Z" transform="translate(0 1179)" fill="#fff"/>
</svg>
