<svg xmlns="http://www.w3.org/2000/svg" xmlns:xlink="http://www.w3.org/1999/xlink" width="166.512" height="166.512" viewBox="0 0 166.512 166.512">
  <defs>
    <linearGradient id="linear-gradient" x1="0.5" x2="0.5" y2="1" gradientUnits="objectBoundingBox">
      <stop offset="0" stop-color="#d7f9f9" stop-opacity="0.635"/>
      <stop offset="1" stop-color="#4ce6e3"/>
    </linearGradient>
  </defs>
  <g id="icon_01" transform="translate(-1066.783 -411.622) rotate(19)">
    <circle id="타원_22" data-name="타원 22" cx="65.5" cy="65.5" r="65.5" transform="translate(1183 28)" fill="url(#linear-gradient)"/>
    <g id="그룹_18" data-name="그룹 18" transform="translate(947.6 -2155)">
      <path id="패스_47" data-name="패스 47" d="M316.581,2225.235v-6.6A12.648,12.648,0,0,0,303.948,2206h-6.44a12.648,12.648,0,0,0-12.633,12.633v6.6a15.95,15.95,0,0,0-13.475,15.729v26.776a15.949,15.949,0,0,0,13.5,15.732c0,.07-.021.137-.021.208v3.171a3.171,3.171,0,1,0,6.341,0v-3.171H310.24v3.171a3.171,3.171,0,1,0,6.341,0v-3.171c0-.071-.016-.138-.021-.208a15.949,15.949,0,0,0,13.5-15.732v-26.776A15.952,15.952,0,0,0,316.581,2225.235Zm-25.365-6.6a6.3,6.3,0,0,1,6.292-6.292h6.44a6.3,6.3,0,0,1,6.292,6.292v6.39H291.216Zm32.5,49.106a9.61,9.61,0,0,1-9.6,9.6H287.34a9.61,9.61,0,0,1-9.6-9.6v-26.776a9.607,9.607,0,0,1,7.134-9.266,9.5,9.5,0,0,1,2.465-.333h26.776a9.646,9.646,0,0,1,9.6,9.6Z" fill="#fff"/>
      <path id="패스_48" data-name="패스 48" d="M308.435,2230H283.071a3.171,3.171,0,0,0,0,6.341h25.365a3.171,3.171,0,0,0,0-6.341Z" transform="translate(4.975 14.047)" fill="#fff"/>
      <path id="패스_49" data-name="패스 49" d="M304.094,2239H285.071a3.171,3.171,0,1,0,0,6.341h19.024a3.171,3.171,0,1,0,0-6.341Z" transform="translate(6.146 19.315)" fill="#fff"/>
    </g>
  </g>
</svg>
