<svg xmlns="http://www.w3.org/2000/svg" xmlns:xlink="http://www.w3.org/1999/xlink" width="189.476" height="189.476" viewBox="0 0 189.476 189.476">
  <defs>
    <linearGradient id="linear-gradient" x1="0.5" x2="0.5" y2="1" gradientUnits="objectBoundingBox">
      <stop offset="0" stop-color="#d7f9f9" stop-opacity="0.635"/>
      <stop offset="1" stop-color="#4ce6e3"/>
    </linearGradient>
  </defs>
  <g id="icon_03" transform="translate(-851.687 -208.687)">
    <circle id="타원_25" data-name="타원 25" cx="67" cy="67" r="67" transform="matrix(0.695, -0.719, 0.719, 0.695, 851.687, 305.079)" fill="url(#linear-gradient)"/>
    <g id="그룹_17" data-name="그룹 17" transform="matrix(0.998, -0.07, 0.07, 0.998, 646.249, -1533.102)">
      <path id="패스_42" data-name="패스 42" d="M177.566,1833.432a3.431,3.431,0,0,0-3.432-3.432H146.682a3.432,3.432,0,0,0,0,6.863h27.453A3.432,3.432,0,0,0,177.566,1833.432Z" transform="translate(6.084 13.6)" fill="#fff"/>
      <path id="패스_43" data-name="패스 43" d="M158.442,1838H146.432a3.432,3.432,0,0,0,0,6.863h12.011a3.432,3.432,0,0,0,0-6.863Z" transform="translate(5.905 19.327)" fill="#fff"/>
      <path id="패스_44" data-name="패스 44" d="M198.235,1858.164v-23.049a17.267,17.267,0,0,0-15.013-17.09v-3.594a3.432,3.432,0,1,0-6.863,0v3.432h-20.59v-3.432a3.432,3.432,0,1,0-6.863,0v3.725a17.272,17.272,0,0,0-14.155,16.959v28.98A17.273,17.273,0,0,0,152,1881.348h19.233a18.862,18.862,0,1,0,27-23.184ZM152,1874.485a10.4,10.4,0,0,1-10.389-10.389v-27.359h49.758v19.071a18.733,18.733,0,0,0-21.448,18.677Zm36.8,12.011a12,12,0,1,1,12.011-12.011A12,12,0,0,1,188.8,1886.5Z" fill="#fff"/>
      <path id="패스_45" data-name="패스 45" d="M173.9,1850.58a2.17,2.17,0,0,0-.81-.165h-3.744v-5.46a2.062,2.062,0,0,0-.1-.47,2.149,2.149,0,0,0-2.088-1.712,2.184,2.184,0,0,0-2.184,2.183v7.644a2.184,2.184,0,0,0,2.184,2.184h5.928a2.179,2.179,0,0,0,.81-4.2Z" transform="translate(21.637 22.743)" fill="#fff"/>
    </g>
  </g>
</svg>
