<svg xmlns="http://www.w3.org/2000/svg" xmlns:xlink="http://www.w3.org/1999/xlink" width="153.589" height="153.589" viewBox="0 0 153.589 153.589">
  <defs>
    <linearGradient id="linear-gradient" x1="0.5" x2="0.5" y2="1" gradientUnits="objectBoundingBox">
      <stop offset="0" stop-color="#d7f9f9" stop-opacity="0.635"/>
      <stop offset="1" stop-color="#4ce6e3"/>
    </linearGradient>
  </defs>
  <g id="icon_04" transform="translate(-967 -383)">
    <circle id="타원_23" data-name="타원 23" cx="65.5" cy="65.5" r="65.5" transform="translate(967 407.996) rotate(-11)" opacity="0.67" fill="url(#linear-gradient)"/>
    <path id="패스_46" data-name="패스 46" d="M109.728,1914.239,94.134,1864.7a1.836,1.836,0,0,0-1.015-1.129l-14.677-6.421c-.026-.011-.053-.016-.079-.026a1.621,1.621,0,0,0-.209-.068c-.053-.014-.105-.022-.159-.031a1.552,1.552,0,0,0-.187-.021,1.782,1.782,0,0,0-.194,0c-.036,0-.07,0-.106,0-.021,0-.04.01-.061.013a1.844,1.844,0,0,0-.191.04c-.058.015-.115.03-.169.049-.02.007-.041.01-.061.018l-13.078,5.231-13.078-5.231a1.83,1.83,0,0,0-1.4.018l-12.842,5.5a1.837,1.837,0,0,0-1.026,1.133l-16.511,52.286a1.835,1.835,0,0,0,2.308,2.3l22.376-7.159,19.623,6.243c.018.006.039,0,.058.009a1.834,1.834,0,0,0,.5.077h.006l.038,0a1.8,1.8,0,0,0,.478-.08c.019-.005.039,0,.059-.01l18.782-6.26,24.271,5.394a1.834,1.834,0,0,0,2.148-2.342Zm-13.161-29.586-14.7-4.577-2-18.29,11.009,4.817ZM62.113,1865.58v19.784l-12.8-5.687,2.288-18.3Zm14.032-4.145,2.057,18.85-12.419,5.154V1865.58Zm-27.3,22.047,13.271,5.9V1913.2L45.777,1908Zm16.941,5.931,12.834-5.327,2.611,23.928-15.445,5.148Zm-26.94-23.72,9.008-3.86-2.224,17.787-12.9,5.432Zm-7.564,23.951,13.823-5.82L42.092,1907.9l-18.44,5.9Zm53.614,18.137L82.3,1884.053l15.6,4.86,7.366,23.4Z" transform="translate(979.523 -1428.029)" fill="#fff"/>
  </g>
</svg>
