<svg xmlns="http://www.w3.org/2000/svg" xmlns:xlink="http://www.w3.org/1999/xlink" width="126.747" height="126.747" viewBox="0 0 126.747 126.747">
  <defs>
    <linearGradient id="linear-gradient" x1="0.5" x2="0.5" y2="1" gradientUnits="objectBoundingBox">
      <stop offset="0" stop-color="#d7f9f9" stop-opacity="0.635"/>
      <stop offset="1" stop-color="#4ce6e3"/>
    </linearGradient>
  </defs>
  <g id="icon_02" transform="translate(-1042 -161)">
    <circle id="타원_24" data-name="타원 24" cx="48" cy="48" r="48" transform="matrix(0.914, -0.407, 0.407, 0.914, 1042, 200.047)" opacity="0.53" fill="url(#linear-gradient)"/>
    <g id="그룹_20" data-name="그룹 20" transform="translate(1042.961 -1950.273) rotate(8)">
      <path id="패스_50" data-name="패스 50" d="M386.512,2149.75a9.771,9.771,0,1,0-14.367-12.374c0,.025,0,.049,0,.073a11.155,11.155,0,0,1-1.042,4.679,9.765,9.765,0,0,0,4.111,7.622c-.4.129,1.2.277.812.433a21.562,21.562,0,0,1,2.555,2.343c1.361-.39.8-.6,2.28-.6L388,2166c.021.386-5.667.717-5.667,1.108a1.762,1.762,0,0,1-1.762,1.762H347.482a1.762,1.762,0,0,1-1.762-1.762c0-.391-3.741-.722-3.72-1.108l4.675-14.076c1.629,0,1.2-.737,2.673-.27a21.653,21.653,0,0,1,2.5-2.335c-.5-.21-1.006-.4-1.526-.569,2.5-1.774,6.133-3.682,6.133-6.97a9.972,9.972,0,0,0-.074-1.152,11.111,11.111,0,0,1-.393-1.824,9.776,9.776,0,1,0-14.96,10.946,18.634,18.634,0,0,0-12.956,17.724A1.527,1.527,0,0,0,329.6,2169h34.152l.019,0,.019,0h34.153a1.527,1.527,0,0,0,1.526-1.526A18.634,18.634,0,0,0,386.512,2149.75Z" fill="#fff" opacity="0.619"/>
      <path id="패스_51" data-name="패스 51" d="M388.091,2165.682a24.252,24.252,0,0,0-6.47-15.234,24.666,24.666,0,0,0-10.452-6.671c4.831-4.777,5.416-8.693,5.416-10.591,0-.028,0-.055-.005-.083l-.007.017a12.809,12.809,0,1,0-25.522,1.751,11,11,0,0,1,.445,2.071,12.872,12.872,0,0,0,4.875,6.835,24.293,24.293,0,0,0-7.749,4.165,24.544,24.544,0,0,0-2.838,2.65,24.25,24.25,0,0,0-6.335,15.09c-.023.438-.054.874-.054,1.318a2,2,0,0,0,2,2h44.75a2,2,0,0,0,2-2C388.145,2166.556,388.115,2166.12,388.091,2165.682Zm-33.135-32.349a8.814,8.814,0,1,1,8.814,8.814A8.824,8.824,0,0,1,354.956,2133.333ZM369.012,2165h-25.52a20.352,20.352,0,0,1,31.281-15.13,20.548,20.548,0,0,1,2.906,2.268A20.329,20.329,0,0,1,384.048,2165Z" fill="#fff"/>
    </g>
  </g>
</svg>
