        <svg
            xmlns="http://www.w3.org/2000/svg"
            width="80"
            height="80"
            viewBox="0 0 80 80"
        >
            <g
                id="그룹_4997"
                transform="translate(6484 2307)"
            >
                <rect
                    id="사각형_2995"
                    width="80"
                    height="80"
                    rx="10"
                    transform="translate(-6484 -2307)"
                    fill="#ffdf00"
                />
                <g
                    id="그룹_4994"
                    transform="translate(1 -2)"
                >
                    <path
                        id="패스_64"
                        d="M322.145,2318.668c-4.971,0-9.03,2.867-9.03,6.94a6.231,6.231,0,0,0,3.825,5.885c-.188.728-1.046,3.264-1.144,3.673-.122.507.5.578.7.441.155-.107,3.283-2.191,4.28-2.895a8.72,8.72,0,0,0,1.475,0c4.971,0,8.864-3.033,8.864-7.1S327.115,2318.668,322.145,2318.668Z"
                        transform="translate(-6786.114 -4592.238)"
                        fill="#1e1e1e"
                    />
                    <text
                        id="pay"
                        transform="translate(-6451 -2262)"
                        fill="#1e1e1e"
                        fontSize="21"
                        fontFamily="KakaoOTFBold, Kakao OTF"
                        letterSpacing="-0.01em"
                        fontWeight="bolder"
                    >
                        <tspan x="0" y="0">
                            pay
                        </tspan>
                    </text>
                </g>
            </g>
        </svg>