<svg xmlns="http://www.w3.org/2000/svg" width="80" height="80" viewBox="0 0 80 80">
  <g id="그룹_5020" data-name="그룹 5020" transform="translate(-135 -434)">
    <g id="카카오ᄑ_이_로고_1200" data-name="카카오페이_로고_1200" transform="translate(135 434)" fill="#fff" stroke="#ebebeb" stroke-width="1">
      <rect width="80" height="80" rx="10" stroke="none"/>
      <rect x="0.5" y="0.5" width="79" height="79" rx="9.5" fill="none"/>
    </g>
    <g id="ᄂ_이버ᄑ_이_svg" data-name="네이버페이_svg" transform="translate(124.927 417.774)">
      <g id="그룹_4133" data-name="그룹 4133" transform="translate(20.15 44.511)">
        <g id="그룹_4131" data-name="그룹 4131" transform="translate(30.299 4.956)">
          <path id="패스_308" data-name="패스 308" d="M60.6,51.128h4.843a5.456,5.456,0,0,1,2.027.338,3.9,3.9,0,0,1,1.352.788,2.916,2.916,0,0,1,.788,1.239,3.58,3.58,0,0,1,.225,1.577v.338a3.975,3.975,0,0,1-.338,1.577,3.2,3.2,0,0,1-.9,1.239,4.05,4.05,0,0,1-1.352.9,5.261,5.261,0,0,1-1.915.338H62.4v5.181H60.6V51.128Zm1.8,1.69v4.956h2.591c1.915,0,2.929-.788,2.929-2.365V55.07a1.977,1.977,0,0,0-.676-1.69,3.344,3.344,0,0,0-2.027-.563H62.4Z" transform="translate(-60.602 -51.128)" fill="#333"/>
          <path id="패스_309" data-name="패스 309" d="M78.116,65.814a3.64,3.64,0,0,1-2.478-.788,2.884,2.884,0,0,1-.9-2.14v-.451a2.884,2.884,0,0,1,.9-2.14,4.01,4.01,0,0,1,2.816-.788h2.591v-.563c0-.676-.113-1.239-.451-1.464a2.2,2.2,0,0,0-1.577-.451,6.648,6.648,0,0,0-1.577.225,8.4,8.4,0,0,0-1.352.788l-1.014-1.464a5.97,5.97,0,0,1,1.69-.9,6.558,6.558,0,0,1,2.14-.338,6.648,6.648,0,0,1,1.577.225,2.685,2.685,0,0,1,1.239.676,3.507,3.507,0,0,1,.788,1.014,3,3,0,0,1,.338,1.352v7.1h-1.69V64.462h0a1.978,1.978,0,0,1-.451.563,2.457,2.457,0,0,1-.563.451,7.764,7.764,0,0,1-.9.338Zm2.929-4.843H78.454c-.676,0-1.239.113-1.464.451a1.306,1.306,0,0,0-.451,1.126v.225A1.386,1.386,0,0,0,77.1,63.9a2.271,2.271,0,0,0,1.239.338,3.472,3.472,0,0,0,1.126-.113,2.264,2.264,0,0,0,.9-.451A2.986,2.986,0,0,0,80.932,63a2.2,2.2,0,0,0,.113-.9V60.97Z" transform="translate(-64.149 -52.185)" fill="#333"/>
          <path id="패스_310" data-name="패스 310" d="M92.4,63.6l2.7-8.11h1.915L91.724,69.906l-1.69-.563,1.352-3.492L87.669,55.489h1.915L92.4,63.6Z" transform="translate(-67.395 -52.222)" fill="#333"/>
        </g>
        <g id="그룹_4132" data-name="그룹 4132">
          <rect id="사각형_2102" data-name="사각형 2102" width="23.541" height="23.541" fill="#00c73c"/>
          <path id="패스_311" data-name="패스 311" d="M35.78,63.745l-3.717-5.632v5.632H28.12V52.932h3.942l3.83,5.632V52.932h3.942V63.745Z" transform="translate(-22.151 -46.625)" fill="#fff"/>
        </g>
      </g>
    </g>
  </g>
</svg>
