<svg xmlns="http://www.w3.org/2000/svg" width="80" height="80" viewBox="0 0 80 80">
  <g id="그룹_5021" data-name="그룹 5021" transform="translate(-255 -475)">
    <g id="카카오ᄑ_이_로고_1200" data-name="카카오페이_로고_1200" transform="translate(255 475)" fill="#fff" stroke="#ebebeb" stroke-width="1">
      <rect width="80" height="80" rx="10" stroke="none"/>
      <rect x="0.5" y="0.5" width="79" height="79" rx="9.5" fill="none"/>
    </g>
    <g id="ᄑ_이코_svg" data-name="페이코_svg" transform="translate(248.739 461.706)">
      <path id="패스_312" data-name="패스 312" d="M15.363,48.029a1.488,1.488,0,0,1,1.523-1.523h4.135c3.265,0,5.223,1.959,5.223,4.788h0c0,3.156-2.5,4.788-5.55,4.788H18.41v2.829a1.523,1.523,0,1,1-3.047,0V48.029ZM20.8,53.361c1.523,0,2.394-.871,2.394-2.068h0c0-1.306-.979-2.068-2.5-2.068H18.3V53.47h2.5Z" transform="translate(0 -0.059)" fill="#e7231e"/>
      <path id="패스_313" data-name="패스 313" d="M28.591,58.307l4.788-10.882a1.865,1.865,0,0,1,1.741-1.2h.218a1.765,1.765,0,0,1,1.741,1.2l4.788,10.882a1.38,1.38,0,0,1,.109.653,1.44,1.44,0,0,1-1.415,1.415,1.409,1.409,0,0,1-1.415-1.088l-.871-2.176H32.182L31.2,59.4a1.549,1.549,0,0,1-1.415.979,1.44,1.44,0,0,1-1.415-1.415A1.547,1.547,0,0,1,28.591,58.307ZM37.079,54.5l-1.959-4.57-1.85,4.57Z" transform="translate(-2.781)" fill="#e7231e"/>
      <path id="패스_314" data-name="패스 314" d="M48.525,54.964l-4.462-5.985a1.838,1.838,0,0,1-.326-1.088,1.466,1.466,0,0,1,1.523-1.415,1.875,1.875,0,0,1,1.523.871l3.373,4.788,3.373-4.9a1.7,1.7,0,0,1,1.415-.871,1.488,1.488,0,0,1,1.523,1.523,1.933,1.933,0,0,1-.435,1.088l-4.462,5.985v3.918a1.523,1.523,0,1,1-3.047,0V54.964Z" transform="translate(-6.066 -0.03)" fill="#e7231e"/>
      <path id="패스_315" data-name="패스 315" d="M59.931,53.41h0a7.04,7.04,0,0,1,7.182-7.182,6.943,6.943,0,0,1,4.57,1.415,1.4,1.4,0,0,1,.544,1.2A1.488,1.488,0,0,1,70.7,50.364a1.071,1.071,0,0,1-.871-.326A4.471,4.471,0,0,0,67,49.058,4.136,4.136,0,0,0,62.978,53.3h0A4.1,4.1,0,0,0,67,57.654a4.217,4.217,0,0,0,2.938-1.088,1.236,1.236,0,0,1,.871-.326,1.44,1.44,0,0,1,1.415,1.415,1.339,1.339,0,0,1-.544,1.088A7.093,7.093,0,0,1,59.931,53.41Z" transform="translate(-9.527)" fill="#e7231e"/>
      <path id="패스_316" data-name="패스 316" d="M76.817,53.41h0a7.132,7.132,0,0,1,7.291-7.182A7.043,7.043,0,0,1,91.4,53.3h0a7.043,7.043,0,0,1-7.291,7.073A6.957,6.957,0,0,1,76.817,53.41Zm11.426,0h0a4.139,4.139,0,1,0-8.27-.109h0a4.184,4.184,0,0,0,4.135,4.353A4.03,4.03,0,0,0,88.243,53.41Z" transform="translate(-13.137)" fill="#e7231e"/>
    </g>
  </g>
</svg>
