<svg id="btn_blog" xmlns="http://www.w3.org/2000/svg" width="30.001" height="25.808" viewBox="0 0 30.001 25.808">
  <path id="패스_51" data-name="패스 51" d="M28.294,50.77A1.034,1.034,0,1,0,29.327,51.8,1.034,1.034,0,0,0,28.294,50.77Z" transform="translate(-21.746 -40.5)" fill="#736678"/>
  <circle id="타원_20" data-name="타원 20" cx="1.113" cy="1.113" r="1.113" transform="translate(15.641 10.161)" fill="#736678"/>
  <path id="패스_52" data-name="패스 52" d="M25.992,0H4.013A4.013,4.013,0,0,0,0,4.013V17.057A4.013,4.013,0,0,0,4.013,21.07h7.762l2.64,4.2s.182.54.621.54h0c.441,0,.621-.54.621-.54l2.64-4.2h7.691A4.013,4.013,0,0,0,30,17.057V4.013A4.007,4.007,0,0,0,25.992,0ZM9.427,11.53a2.486,2.486,0,0,1-2.478,2.454,2.065,2.065,0,0,1-1.493-.633v.431H3.661v-7.4c-.008,0-.008,0,0,0v0c.111.018,1.8,0,1.8,0V9.206C5.88,8.486,7.1,8.5,7.1,8.5,9.76,8.743,9.427,11.53,9.427,11.53Zm3.162-2.806v5.069H10.83V8.775c0-.684-.848-.872-.848-.872V6.133A2.43,2.43,0,0,1,12.588,8.725Zm4.165,5.261a2.836,2.836,0,0,1-2.945-2.713,2.836,2.836,0,0,1,2.945-2.713A2.836,2.836,0,0,1,19.7,11.273,2.836,2.836,0,0,1,16.753,13.986Zm9.627,0a2.505,2.505,0,0,1-2.591,2.575h-.8V14.892h.479s1.1.1,1.088-1.594c0,0-.214.686-1.758.686a2.317,2.317,0,0,1-2.187-2.292v-.809a2.5,2.5,0,0,1,2.454-2.389,1.786,1.786,0,0,1,1.529.684V8.634H26.38Z" transform="translate(0 0)" fill="#736678"/>
  <circle id="타원_21" data-name="타원 21" cx="1.088" cy="1.088" r="1.088" transform="translate(22.498 10.185)" fill="#736678"/>
</svg>
