<svg id="btn_youtube" xmlns="http://www.w3.org/2000/svg" width="25.731" height="25.653" viewBox="0 0 25.731 25.653">
  <rect id="사각형_8" data-name="사각형 8" width="25.652" height="25.653" transform="translate(0.039 0)" fill="none"/>
  <path id="Youtube" d="M25.474,22.594a5.622,5.622,0,0,0-1.023-2.569,3.664,3.664,0,0,0-2.578-1.1c-3.6-.262-9-.262-9-.262H12.86s-5.4,0-9,.262a3.665,3.665,0,0,0-2.579,1.1A5.618,5.618,0,0,0,.257,22.594,39.38,39.38,0,0,0,0,26.782v1.964a39.36,39.36,0,0,0,.257,4.189A5.617,5.617,0,0,0,1.279,35.5,4.346,4.346,0,0,0,4.117,36.61c2.058.2,8.749.26,8.749.26s5.407-.008,9.007-.27a3.669,3.669,0,0,0,2.578-1.1,5.623,5.623,0,0,0,1.023-2.569,39.361,39.361,0,0,0,.257-4.189V26.782A39.379,39.379,0,0,0,25.474,22.594ZM10.209,31.126V23.854L17.16,27.5Z" transform="translate(0 -14.942)" fill="#736678" fill-rule="evenodd"/>
</svg>
