<svg xmlns="http://www.w3.org/2000/svg" width="25.731" height="23.613" viewBox="0 0 25.731 23.613">
  <path id="btn_kakao" d="M30,47.041a8.45,8.45,0,0,0,1.883,5.334c.784.941,2.667,2.824,4.079,3.295-.314,2.2-2.04,5.491-.628,4.864l3.138-2.04c2.824-2.04,1.569-1.255,4.707-1.255,6.276,0,12.552-4.236,12.552-10.2C55.731,40.922,49.455,37,42.709,37,36.433,37,30,41.079,30,47.041Zm7.688-2.2H36.433v4.55a1.58,1.58,0,0,1-.157.471.63.63,0,0,1-1.1-.471v-4.55H33.295a.576.576,0,0,1-.157-.471c0-.157,0-.314.157-.314a.576.576,0,0,1,.471-.157h3.922c.314,0,.471,0,.471.157.157,0,.157.157.157.314a.576.576,0,0,1-.157.471Zm3.922,4.393L41.3,48.61h-2.51l-.314.784c-.157.157-.157.471-.314.471,0,.157-.157.157-.314.157a.576.576,0,0,1-.471-.157c-.157,0-.157-.157-.157-.314v-.314a.548.548,0,0,0,.157-.314L38.943,45c0-.157.157-.314.157-.471a.548.548,0,0,1,.157-.314c.157-.157.157-.314.314-.314a.785.785,0,0,1,.941,0l.157.157a.576.576,0,0,1,.157.471c.157,0,.157.157.314.471l1.569,3.922a1.186,1.186,0,0,1,.157.628c0,.157,0,.314-.157.314a.576.576,0,0,1-.471.157h-.157c-.157,0-.157,0-.314-.157a.154.154,0,0,0-.157-.157ZM39.1,47.669h1.883l-.941-2.51Zm5.334-3.138v4.393H46.16c.157,0,.314.157.471.157a.576.576,0,0,1,.157.471c0,.157,0,.157-.157.314a.576.576,0,0,1-.471.157h-2.2c-.314,0-.471-.157-.628-.157-.157-.157-.157-.314-.157-.628V44.531c0-.314,0-.471.157-.628.157,0,.157-.157.471-.157a.548.548,0,0,1,.314.157A.815.815,0,0,1,44.434,44.531Zm3.765,0v2.2l2.51-2.51c.157-.157.157-.314.314-.314,0-.157.157-.157.314-.157s.314.157.471.157c0,.157.157.314.157.471s-.157.314-.314.471l-1.569,1.412,1.726,2.51c.157.157.314.314.314.471.157.157.157.157.157.314s-.157.314-.157.471h-.941c0-.157-.157-.157-.157-.314-.157-.157-.157-.314-.314-.314L49.3,47.041l-1.1,1.1v1.255c0,.157,0,.471-.157.471,0,.157-.157.157-.314.157h-.314a.548.548,0,0,1-.314-.157V44.531c0-.314,0-.471.157-.628a.687.687,0,0,1,.471-.157.548.548,0,0,1,.314.157C48.2,44.06,48.2,44.217,48.2,44.531Z" transform="translate(-30 -37)" fill="#736678" fill-rule="evenodd"/>
</svg>
