<?xml version="1.0" encoding="utf-8"?>
<!-- Generator: Adobe Illustrator 22.1.0, SVG Export Plug-In . SVG Version: 6.00 Build 0)  -->
<svg version="1.0" id="레이어_1" xmlns="http://www.w3.org/2000/svg" xmlns:xlink="http://www.w3.org/1999/xlink" x="0px"
	 y="0px" viewBox="0 0 54.474 53.275" enable-background="new 0 0 54.474 53.275" xml:space="preserve">
<g>
	<linearGradient id="SVGID_1_" gradientUnits="userSpaceOnUse" x1="-0.9652" y1="26.6374" x2="46.458" y2="26.6374">
		<stop  offset="0" style="stop-color:#EF8B00"/>
		<stop  offset="0.3626" style="stop-color:#EE8901"/>
		<stop  offset="0.5351" style="stop-color:#EC8102"/>
		<stop  offset="0.6674" style="stop-color:#E87406"/>
		<stop  offset="0.7792" style="stop-color:#E2620A"/>
		<stop  offset="0.8781" style="stop-color:#DB4A10"/>
		<stop  offset="0.9665" style="stop-color:#D22D18"/>
		<stop  offset="1" style="stop-color:#CE201B"/>
	</linearGradient>
	<path fill="url(#SVGID_1_)" d="M48.379,31.942c-1.259,0-2.456-0.261-3.543-0.729c-2.043,8.151-9.415,14.188-18.199,14.188
		C16.275,45.401,7.874,37,7.874,26.637c0-10.363,8.401-18.763,18.763-18.763c6.563,0,12.336,3.372,15.689,8.476
		c1.597-1.462,3.717-2.361,6.052-2.361c0.616,0,1.218,0.063,1.799,0.181C45.705,5.742,36.844,0,26.638,0C11.926,0,0,11.926,0,26.637
		s11.926,26.637,26.638,26.637c6.997,0,13.36-2.701,18.113-7.114l8.22,6.152V30.678l-0.001,0.001
		c0.001-0.004,0.001-0.008,0.001-0.011C51.626,31.471,50.059,31.942,48.379,31.942z"/>
	<linearGradient id="SVGID_2_" gradientUnits="userSpaceOnUse" x1="42.2838" y1="22.9653" x2="54.4738" y2="22.9653">
		<stop  offset="0" style="stop-color:#E38020"/>
		<stop  offset="0.2809" style="stop-color:#DC611E"/>
		<stop  offset="0.7604" style="stop-color:#D2321C"/>
		<stop  offset="1" style="stop-color:#CE201B"/>
	</linearGradient>
	<path fill="url(#SVGID_2_)" d="M54.474,22.965c0,3.366-2.729,6.095-6.095,6.095c-3.366,0-6.095-2.729-6.095-6.095
		c0-3.366,2.729-6.095,6.095-6.095C51.745,16.87,54.474,19.599,54.474,22.965z"/>
	<linearGradient id="SVGID_3_" gradientUnits="userSpaceOnUse" x1="22.4183" y1="49.3507" x2="22.4183" y2="3.9242">
		<stop  offset="0" style="stop-color:#FFE500"/>
		<stop  offset="1" style="stop-color:#B21E22"/>
	</linearGradient>
	<path fill="url(#SVGID_3_)" d="M22.375,49.351c10.837,0,20.379-7.755,22.462-18.138c0,0,0,0-0.001,0
		c-2.043,8.151-9.415,14.188-18.199,14.188C16.275,45.401,7.874,37,7.874,26.637c0-10.363,8.401-18.763,18.763-18.763
		c6.544,0,12.303,3.353,15.661,8.432C38.593,8.958,31.065,3.924,22.375,3.924c-11.968,0-21.741,9.539-22.345,21.535
		C0.013,25.851,0,26.242,0,26.637c0,0.395,0.013,0.787,0.03,1.178C0.633,39.812,10.407,49.351,22.375,49.351z"/>
</g>
<g>
</g>
<g>
</g>
<g>
</g>
<g>
</g>
<g>
</g>
<g>
</g>
<g>
</g>
<g>
</g>
<g>
</g>
<g>
</g>
<g>
</g>
<g>
</g>
<g>
</g>
<g>
</g>
<g>
</g>
</svg>
