<?xml version="1.0" encoding="utf-8"?>
<!-- Generator: Adobe Illustrator 22.1.0, SVG Export Plug-In . SVG Version: 6.00 Build 0)  -->
<svg version="1.1" id="레이어_1" xmlns="http://www.w3.org/2000/svg" xmlns:xlink="http://www.w3.org/1999/xlink" x="0px"
	 y="0px" viewBox="0 0 194 111.2" style="enable-background:new 0 0 194 111.2;" xml:space="preserve">
<style type="text/css">
	.st0{fill:#F5F5F5;}
</style>
<g>
	<path class="st0" d="M20.3,9.1c-2,1.4-2.9,3.1-2.9,5.3c0,1.3,0.4,2.3,1.3,3.1c0.9,0.8,2,1.4,3.4,1.9c2.7,0.9,6,1.6,9.8,2.2
		c3.8,0.5,7.3,1.4,10.3,2.9c2,1,3.6,2.3,4.9,4c1.3,1.7,1.9,3.9,1.9,6.6c0,2-0.3,3.7-0.9,5.2c-0.6,1.5-1.5,2.8-2.7,3.9
		c-2.1,2.1-4.7,3.6-7.9,4.5c-3.2,0.9-6.4,1.3-9.6,1.3s-6.3-0.5-9.6-1.5c-3.3-1-5.9-2.6-8-4.7c-1.1-1.1-2-2.5-2.7-4.1
		c-0.6-1.5-0.9-3.3-0.9-5.3H16c0,2.8,1.2,4.9,3.5,6.4c2.3,1.5,5.1,2.2,8.4,2.2c3.3,0,6.1-0.6,8.4-1.7c2.3-1.1,3.4-3,3.4-5.6
		c0-1.3-0.4-2.4-1.3-3.2c-0.9-0.8-2-1.5-3.5-2c-2.6-1-5.9-1.7-9.7-2.2c-3.8-0.5-7.3-1.5-10.3-3c-2-1-3.6-2.3-4.9-4
		c-1.3-1.7-2-3.9-2-6.6c0-1.8,0.3-3.4,1-4.8c0.6-1.4,1.5-2.7,2.6-3.7c2-2.1,4.5-3.6,7.6-4.5S25.2,0,27.9,0c1.5,0,3,0.1,4.7,0.4
		c1.6,0.3,3.2,0.7,4.7,1.2c2.8,1.1,5.3,2.7,7.3,4.9c2.1,2.2,3.1,5.1,3.1,8.7h-9.2c0-2.3-1-4.2-3-5.9c-2-1.5-4.5-2.3-7.6-2.3
		C24.8,7.1,22.3,7.7,20.3,9.1z"/>
	<path class="st0" d="M58.8,1.1h8.8h30v7.1h-30v12.7h26.9V28H67.5v13.7h30v7.1h-30h-8.8V1.1z"/>
	<path class="st0" d="M143.9,41.7v7.1h-27.4h-8.8v-7.1V1.1h8.8v40.6H143.9z"/>
	<path class="st0" d="M189,41.7v7.1h-27.4h-8.8v-7.1V1.1h8.8v40.6H189z"/>
	<path class="st0" d="M54.7,111.2h-0.9H50h-3.3h-1.4c-2.7-8.5-6.4-20.4-11.2-35.7c-2.7,8.7-6.5,20.6-11.2,35.7h-0.4h-3.8h-0.4h-3.4
		h-0.8C11,100.6,6.3,84.7,0,63.6h9.7c1.7,6.4,4.8,18,9.3,34.8c3-9.3,6.8-20.9,11.3-34.8h7.5h0.4c2.1,6.5,6,18.4,11.5,35.6
		c2.4-9.5,5.5-21.3,9.2-35.6h9.2C66,71.5,61.5,87.3,54.7,111.2z"/>
	<path class="st0" d="M98.9,63.6h0.3c5.1,10.6,12.8,26.4,23,47.6h-9.8c-1.2-2.6-2.7-6.1-4.7-10.4H81.9c-1.5,3.3-3.1,6.8-4.7,10.4
		h-9.2c3.8-7.9,11.4-23.8,22.9-47.6h3.1h1.5H98.9z M84.9,94.1h15h4.7c-2.7-6-6-13.3-9.8-21.7C92.1,78.5,88.7,85.7,84.9,94.1z"/>
	<path class="st0" d="M129.8,90.3V63.6h5.5h3.3v47.6h-8.8V90.3z"/>
	<path class="st0" d="M166.2,94.4V70.6h-18.9v-7.1h39.4h7.4v4.2v2.8h-18.9v40.6h-8.9V94.4z"/>
</g>
</svg>
