<svg xmlns="http://www.w3.org/2000/svg" width="22" height="23.1" viewBox="0 0 22 23.1">
  <g id="btn_04_my" transform="translate(0 0.6)">
    <path id="Path" d="M5.5,11A5.5,5.5,0,1,0,0,5.5,5.5,5.5,0,0,0,5.5,11Z" transform="translate(5.5)" fill="none" stroke="#333" stroke-linecap="round" stroke-linejoin="round" stroke-miterlimit="10" stroke-width="1.2"/>
    <g id="사각형_210" data-name="사각형 210" transform="translate(0 12.5)" fill="none" stroke="#333" stroke-width="1.2">
      <path d="M8,0h6a8,8,0,0,1,8,8v2a0,0,0,0,1,0,0H0a0,0,0,0,1,0,0V8A8,8,0,0,1,8,0Z" stroke="none"/>
      <path d="M8,.6h6A7.4,7.4,0,0,1,21.4,8v.8a.6.6,0,0,1-.6.6H1.2a.6.6,0,0,1-.6-.6V8A7.4,7.4,0,0,1,8,.6Z" fill="none"/>
    </g>
  </g>
</svg>
