<svg xmlns="http://www.w3.org/2000/svg" viewBox="0 0 83.47 51.53"><defs><style>.cls-1{fill:#fff;}.cls-1,.cls-2,.cls-3{stroke:#28283c;stroke-miterlimit:10;stroke-width:2.5px;}.cls-2{fill:none;}.cls-3{fill:#f1f1f1;}.cls-4{fill:#28283c;}</style></defs><title>icon_03_ui</title><g id="레이어_2" data-name="레이어 2"><g id="레이어_1-2" data-name="레이어 1"><rect class="cls-1" x="1.25" y="1.25" width="80.97" height="49.03" rx="5.34"/><line class="cls-2" x1="1.25" y1="9.42" x2="82.22" y2="9.42"/><rect class="cls-3" x="8.31" y="15.36" width="19.31" height="28.97" rx="2.36"/><rect class="cls-3" x="59.57" y="15.36" width="14.86" height="14.11" rx="2.36"/><line class="cls-2" x1="31.34" y1="34.68" x2="75.17" y2="34.68"/><line class="cls-2" x1="31.34" y1="39.51" x2="75.17" y2="39.51"/><line class="cls-2" x1="31.34" y1="44.34" x2="75.17" y2="44.34"/><line class="cls-2" x1="32.08" y1="25.02" x2="32.08" y2="30.22"/><line class="cls-2" x1="36.54" y1="19.82" x2="36.54" y2="30.22"/><line class="cls-2" x1="40.99" y1="21.31" x2="40.99" y2="30.22"/><line class="cls-2" x1="45.45" y1="22.79" x2="45.45" y2="30.22"/><line class="cls-2" x1="49.91" y1="16.11" x2="49.91" y2="30.22"/><line class="cls-2" x1="54.37" y1="23.54" x2="54.37" y2="30.22"/><circle class="cls-4" cx="61.79" cy="5.34" r="1.11"/><circle class="cls-4" cx="67.74" cy="5.34" r="1.11"/><circle class="cls-4" cx="73.68" cy="5.34" r="1.11"/></g></g></svg>