<svg xmlns="http://www.w3.org/2000/svg" viewBox="0 0 79.5 69.5"><defs><style>.cls-1{fill:#fff;}.cls-1,.cls-2{stroke:#28283c;stroke-miterlimit:10;stroke-width:2.5px;}.cls-2{fill:none;}.cls-3{fill:#28283c;}</style></defs><title>icon_02_cold</title><g id="레이어_2" data-name="레이어 2"><g id="레이어_1-2" data-name="레이어 1"><rect class="cls-1" x="1.25" y="1.25" width="77" height="16.77" rx="6.08"/><rect class="cls-1" x="1.25" y="23.61" width="77" height="16.77" rx="6.08"/><rect class="cls-1" x="1.25" y="45.98" width="77" height="16.77" rx="6.08"/><path class="cls-2" d="M21.25,62.25V66A2.3,2.3,0,0,1,19,68.25H10.54A2.3,2.3,0,0,1,8.25,66V62.25"/><path class="cls-2" d="M71.25,62.25V66A2.3,2.3,0,0,1,69,68.25H60.54A2.3,2.3,0,0,1,58.25,66V62.25"/><circle class="cls-3" cx="11.25" cy="9.64" r="1.5"/><circle class="cls-3" cx="19.25" cy="9.64" r="1.5"/><circle class="cls-3" cx="27.25" cy="9.64" r="1.5"/><line class="cls-2" x1="52.75" y1="9.64" x2="69.75" y2="9.64"/><circle class="cls-3" cx="11.25" cy="32" r="1.5"/><circle class="cls-3" cx="19.25" cy="32" r="1.5"/><circle class="cls-3" cx="27.25" cy="32" r="1.5"/><line class="cls-2" x1="52.75" y1="32" x2="69.75" y2="32"/><circle class="cls-3" cx="11.25" cy="54.36" r="1.5"/><circle class="cls-3" cx="19.25" cy="54.36" r="1.5"/><circle class="cls-3" cx="27.25" cy="54.36" r="1.5"/><line class="cls-2" x1="52.75" y1="54.36" x2="69.75" y2="54.36"/></g></g></svg>