<?xml version="1.0" encoding="utf-8"?>
<!-- Generator: Adobe Illustrator 23.0.3, SVG Export Plug-In . SVG Version: 6.00 Build 0)  -->
<svg version="1.1" id="레이어_1" xmlns="http://www.w3.org/2000/svg" xmlns:xlink="http://www.w3.org/1999/xlink" x="0px"
	 y="0px" viewBox="0 0 372.5 42.9" style="enable-background:new 0 0 372.5 42.9;" xml:space="preserve">
<style type="text/css">
	.st0{fill:#C7C7C7;}
	.st1{fill:#FFFFFF;}
	.st2{fill:none;}
	.st3{fill:#1B314E;}
	.st4{fill:url(#SVGID_1_);}
	.st5{fill:url(#SVGID_2_);}
	.st6{fill:url(#SVGID_3_);}
	.st7{fill:url(#SVGID_4_);}
</style>
<g>
	<path class="st0" d="M250,12l-9.5,29.9h-8.3l-5.9-13.4l-5.8,13.4h-8.3L202.4,12h10.8l4.5,15.7l7.1-15.6h2.8l7.5,15.8l4.5-15.9H250z
		"/>
	<path class="st0" d="M283.1,12v29.9h-8l-0.9-2.1c-2.4,2-5.6,3.1-9,3.1c-9.1,0-15.7-6.7-15.7-16S256,11,265.2,11
		c3.5,0,6.7,1.2,9.1,3.2l1.1-2.3h7.7V12z M273.3,27c0-3.9-2.8-6.8-6.7-6.8c-3.9,0-6.7,2.9-6.7,6.8c0,3.9,2.8,6.8,6.7,6.8
		S273.3,30.9,273.3,27z"/>
	<path class="st0" d="M288.2,1.2h10.3v40.7h-10.3V1.2z"/>
	<path class="st0" d="M303.6,1.2h10.3v40.7h-10.3V1.2z"/>
	<path class="st0" d="M349.8,26.7c0,0.9-0.1,1.8-0.2,2.7h-22.2c0.7,3.4,2.9,5.2,6.1,5.2c2.4,0,4.4-1.1,5.4-2.8h10.3
		c-2.1,6.8-8.2,11.1-15.7,11.1c-9.3,0-16.2-6.8-16.2-16S324.2,11,333.5,11C343.2,11,349.8,17.9,349.8,26.7L349.8,26.7z M327.6,23.7
		h12.1c-0.9-3-3.1-4.6-6.2-4.6C330.5,19.1,328.4,20.7,327.6,23.7z"/>
	<g>
		<path class="st1" d="M30.1,34.8H13.7L11,41.9H0L16.3,0h11.2l16.6,41.9H32.9L30.1,34.8z M21.9,13.7l-4.5,11.7h9.1L21.9,13.7z"/>
		<path class="st1" d="M47.6,0h11.3v41.9H47.6V0z"/>
		<path class="st1" d="M63.1,0h11.3v41.9H63.1V0z"/>
		<path class="st1" d="M147.4,14.1h11.3v27.8h-11.3V14.1z M147.5,0h11.1v9.9h-11.1V0z"/>
		<path class="st1" d="M195.9,21.4V42h-11.3V23c0-3.9-1.8-5.9-4.6-5.9c-3.5,0-5.2,2.5-5.2,6.8v18h-11.3V8.2h8.5l0.3,3.5
			c2.4-2.8,5.7-4.1,11-4.1C190.9,7.6,195.9,13.4,195.9,21.4z"/>
		<g>
			<path class="st2" d="M119.9,19.4c0.1-0.2,0.3-0.3,0.4-0.5C120.2,19.1,120.1,19.2,119.9,19.4z"/>
			<path class="st3" d="M119.1,20.6C119.1,20.6,119.2,20.6,119.1,20.6C119.2,20.6,119.1,20.6,119.1,20.6z"/>
			<path class="st3" d="M119.5,20L119.5,20L119.5,20z"/>
			<path class="st1" d="M111.2,34.4c2.5-3.6,6.1-10.9,6.2-10.9c0.8-1.6,1.6-2.9,2.6-4c0.1-0.2,0.3-0.3,0.4-0.5l0,0l0,0
				c1.3-1.4,3.2-2.3,5.3-2.3c4.1,0,7.4,3.3,7.4,7.4c0,4.1-3.3,7.4-7.4,7.4v10.3h-0.1l0,0c8.5,0,15.7-6,17.4-14
				c0.1-0.3,0.1-0.6,0.2-0.9c0-0.2,0.1-0.4,0.1-0.6c0-0.3,0.1-0.6,0.1-0.9c0-0.1,0-0.3,0-0.4c0-0.1,0-0.1,0-0.2c0-0.3,0-0.5,0-0.8
				c0-0.1,0-0.2,0-0.3l0,0c0-0.1,0-0.1,0-0.2c-0.2-5-2.4-9.8-6.5-13.2c-3-2.5-7.1-4-11.4-4.1c-0.1,0-0.3,0-0.4,0c-0.3,0-0.6,0-0.9,0
				c-0.2,0-0.4,0-0.7,0.1c-0.2,0-0.4,0.1-0.6,0.1c-4.9,0.7-9.3,3.5-12.1,8.4l0,0c0,0-4.5,9.1-8,13.6c-0.1,0.1-0.2,0.3-0.3,0.4
				c0,0,0,0.1-0.1,0.1c0,0,0-0.1,0.1-0.1c-0.9,1-2,1.8-3.3,2.2c-0.1,0-0.2,0.1-0.3,0.1s-0.2,0.1-0.3,0.1c-0.3,0.1-0.5,0.1-0.8,0.2
				l0,0c-0.3,0-0.6,0.1-0.9,0.1h-0.1h0.1c-1.1,0-2.2-0.2-3.2-0.7c-3.3-1.4-5.1-5-4.2-8.4c0.8-3.4,3.8-5.7,7.2-5.6l0,0
				c2.6,0,4.9,0.7,6.4,2.1l4.5-8.7c-2.1-1.7-4.6-2.9-7.3-3.5c-10.3-2.1-20,4.8-21.4,15.2c-1.5,10.8,7.7,20.6,18.6,20
				C103.4,41.6,108.1,39.2,111.2,34.4"/>
			<path class="st3" d="M119.9,19.4L119.9,19.4L119.9,19.4z"/>
			
				<linearGradient id="SVGID_1_" gradientUnits="userSpaceOnUse" x1="115.714" y1="9.8188" x2="131.6957" y2="3.5174" gradientTransform="matrix(1 0 0 -1 0 27.2)">
				<stop  offset="0" style="stop-color:#FFFFFF;stop-opacity:0"/>
				<stop  offset="0.1522" style="stop-color:#BEC4CC;stop-opacity:0.2051"/>
				<stop  offset="0.3044" style="stop-color:#8490A0;stop-opacity:0.4103"/>
				<stop  offset="0.4445" style="stop-color:#57677C;stop-opacity:0.599"/>
				<stop  offset="0.5685" style="stop-color:#364963;stop-opacity:0.7662"/>
				<stop  offset="0.6719" style="stop-color:#223754;stop-opacity:0.9056"/>
				<stop  offset="0.742" style="stop-color:#1B314E"/>
			</linearGradient>
			<path class="st4" d="M120.4,18.9L120.4,18.9c-0.2,0.2-0.3,0.3-0.4,0.5l0,0C120.1,19.3,120.2,19.1,120.4,18.9z"/>
			
				<linearGradient id="SVGID_2_" gradientUnits="userSpaceOnUse" x1="114" y1="-10.3" x2="114" y2="-10.3" gradientTransform="matrix(1 0 0 -1 0 27.2)">
				<stop  offset="0" style="stop-color:#FFFFFF;stop-opacity:0"/>
				<stop  offset="0.1522" style="stop-color:#BEC4CC;stop-opacity:0.2051"/>
				<stop  offset="0.3044" style="stop-color:#8490A0;stop-opacity:0.4103"/>
				<stop  offset="0.4445" style="stop-color:#57677C;stop-opacity:0.599"/>
				<stop  offset="0.5685" style="stop-color:#364963;stop-opacity:0.7662"/>
				<stop  offset="0.6719" style="stop-color:#223754;stop-opacity:0.9056"/>
				<stop  offset="0.742" style="stop-color:#1B314E"/>
			</linearGradient>
			<path class="st5" d="M114,37.5L114,37.5L114,37.5L114,37.5L114,37.5z"/>
			<path class="st3" d="M120.4,18.9L120.4,18.9L120.4,18.9L120.4,18.9z"/>
			
				<linearGradient id="SVGID_3_" gradientUnits="userSpaceOnUse" x1="120.4" y1="8.3" x2="120.4" y2="8.3" gradientTransform="matrix(1 0 0 -1 0 27.2)">
				<stop  offset="0" style="stop-color:#FFFFFF;stop-opacity:0"/>
				<stop  offset="0.1522" style="stop-color:#BEC4CC;stop-opacity:0.2051"/>
				<stop  offset="0.3044" style="stop-color:#8490A0;stop-opacity:0.4103"/>
				<stop  offset="0.4445" style="stop-color:#57677C;stop-opacity:0.599"/>
				<stop  offset="0.5685" style="stop-color:#364963;stop-opacity:0.7662"/>
				<stop  offset="0.6719" style="stop-color:#223754;stop-opacity:0.9056"/>
				<stop  offset="0.742" style="stop-color:#1B314E"/>
			</linearGradient>
			<path class="st6" d="M120.4,18.9L120.4,18.9L120.4,18.9L120.4,18.9z"/>
			
				<linearGradient id="SVGID_4_" gradientUnits="userSpaceOnUse" x1="112.0194" y1="0.4575" x2="128.0127" y2="-5.8485" gradientTransform="matrix(1 0 0 -1 0 27.2)">
				<stop  offset="0" style="stop-color:#FFFFFF;stop-opacity:0"/>
				<stop  offset="3.321970e-02" style="stop-color:#FFFFFF;stop-opacity:4.477066e-02"/>
				<stop  offset="0.742" style="stop-color:#FFFFFF"/>
			</linearGradient>
			<path class="st7" d="M125.7,31.5c-4.1,0-7.4-3.3-7.4-7.4c0-2,0.8-3.8,2.1-5.1c-1.2,1.2-2.1,2.7-3,4.5c0,0-3.6,7.3-6.2,10.9
				c0,0,1.8,2.2,2.8,3.1l0,0l0,0c3.1,2.7,7.2,4.3,11.6,4.3h0.1L125.7,31.5L125.7,31.5z"/>
		</g>
	</g>
	<path class="st0" d="M368.5,32.6c-2.2,0-3.5-1.3-3.5-3.4v-9.5h7.3v-7.9h-7.5V3.1h-2.1h-7.9v8.7h-3.9v7.9h3.9V31
		c0,6.6,4,10.7,10.6,10.7h7.1v-9h-4V32.6z"/>
</g>
</svg>
