<svg xmlns="http://www.w3.org/2000/svg" xmlns:xlink="http://www.w3.org/1999/xlink" width="31.26" height="29.479" viewBox="0 0 31.26 29.479">
  <defs>
    <filter id="btn_heart-off" x="0" y="0" width="31.26" height="29.479" filterUnits="userSpaceOnUse">
      <feOffset input="SourceAlpha"/>
      <feGaussianBlur stdDeviation="1.5" result="blur"/>
      <feFlood flood-opacity="0.502"/>
      <feComposite operator="in" in2="blur"/>
      <feComposite in="SourceGraphic"/>
    </filter>
  </defs>
  <g transform="matrix(1, 0, 0, 1, 0, 0)" filter="url(#btn_heart-off)">
    <g id="btn_heart-off-2" data-name="btn_heart-off" transform="translate(4.5 -15.9)" fill="none" stroke-linejoin="round">
      <path d="M11.13,40.879,9.572,39.321C3.784,34.2,0,30.751,0,26.522A6.035,6.035,0,0,1,6.122,20.4a6.689,6.689,0,0,1,5.009,2.337A6.689,6.689,0,0,1,16.139,20.4a6.035,6.035,0,0,1,6.122,6.122c0,4.229-3.784,7.68-9.572,12.8Z" stroke="none"/>
      <path d="M 11.13013744354248 39.04097366333008 L 11.76911735534668 38.40199661254883 C 11.78785705566406 38.38325500488281 11.80716705322266 38.36509323120117 11.82700729370117 38.3475341796875 C 14.83200740814209 35.68927383422852 17.07970809936523 33.66088485717773 18.6403865814209 31.76204490661621 C 20.24479675292969 29.81001472473145 20.96027755737305 28.19379425048828 20.96027755737305 26.52157402038574 C 20.96027755737305 25.20007514953613 20.46799659729004 23.98001480102539 19.57412719726563 23.08614540100098 C 18.68025779724121 22.19227409362793 17.46019744873047 21.69999504089355 16.13869667053223 21.69999504089355 C 14.64112758636475 21.69999504089355 13.10222721099854 22.41924476623535 12.12253761291504 23.57705497741699 C 11.87553787231445 23.86896514892578 11.51253700256348 24.03732490539551 11.13013744354248 24.03732490539551 C 10.74774742126465 24.03732490539551 10.38474750518799 23.86896514892578 10.13773727416992 23.57705497741699 C 9.158047676086426 22.41924476623535 7.619137287139893 21.69999504089355 6.121577262878418 21.69999504089355 C 4.800077438354492 21.69999504089355 3.580017328262329 22.19227409362793 2.686147451400757 23.08614540100098 C 1.792277455329895 23.98001480102539 1.299997448921204 25.20007514953613 1.299997448921204 26.52157402038574 C 1.299997448921204 28.19379425048828 2.015477418899536 29.81001472473145 3.619887351989746 31.76204490661621 C 5.180567264556885 33.66088485717773 7.428267478942871 35.68927383422852 10.43326759338379 38.3475341796875 C 10.4531078338623 38.36509323120117 10.4724178314209 38.38325500488281 10.49115753173828 38.40199661254883 L 11.13013744354248 39.04097366333008 M 11.13013744354248 40.87945556640625 L 9.571917533874512 39.32123565673828 C 3.784247398376465 34.20137405395508 -2.556457502578269e-06 30.75102424621582 -2.556457502578269e-06 26.52157402038574 C -2.556457502578269e-06 23.07123565673828 2.671237468719482 20.39999389648438 6.121577262878418 20.39999389648438 C 8.013697624206543 20.39999389648438 9.905817031860352 21.29041481018066 11.13013744354248 22.73732566833496 C 12.35444736480713 21.29041481018066 14.24657726287842 20.39999389648438 16.13869667053223 20.39999389648438 C 19.58903694152832 20.39999389648438 22.26027679443359 23.07123565673828 22.26027679443359 26.52157402038574 C 22.26027679443359 30.75102424621582 18.47602653503418 34.20137405395508 12.68835735321045 39.32123565673828 L 11.13013744354248 40.87945556640625 Z" stroke="none" fill="#fff"/>
    </g>
  </g>
</svg>
