<svg id="btn_insta" xmlns="http://www.w3.org/2000/svg" width="23.612" height="23.613" viewBox="0 0 23.612 23.613">
  <path id="패스_43" data-name="패스 43" d="M25.709,31.612H13.9a5.9,5.9,0,0,1-5.9-5.9V13.9A5.9,5.9,0,0,1,13.9,8H25.709a5.9,5.9,0,0,1,5.9,5.9V25.709A5.9,5.9,0,0,1,25.709,31.612ZM13.9,10.361A3.547,3.547,0,0,0,10.361,13.9V25.709A3.547,3.547,0,0,0,13.9,29.251H25.709a3.547,3.547,0,0,0,3.542-3.542V13.9a3.547,3.547,0,0,0-3.542-3.542Z" transform="translate(-8 -8)" fill="#736678"/>
  <path id="패스_44" data-name="패스 44" d="M25.09,31.78a6.69,6.69,0,1,1,6.69-6.69A6.69,6.69,0,0,1,25.09,31.78Zm0-11.019a4.329,4.329,0,1,0,4.329,4.329A4.329,4.329,0,0,0,25.09,20.761Z" transform="translate(-13.284 -13.284)" fill="#736678"/>
  <circle id="타원_19" data-name="타원 19" cx="1.181" cy="1.181" r="1.181" transform="translate(17.316 4.329)" fill="#736678"/>
</svg>
