<?xml version="1.0" encoding="utf-8"?>
<!-- Generator: Adobe Illustrator 22.1.0, SVG Export Plug-In . SVG Version: 6.00 Build 0)  -->
<svg version="1.1" id="레이어_1" xmlns="http://www.w3.org/2000/svg" xmlns:xlink="http://www.w3.org/1999/xlink" x="0px"
	 y="0px" viewBox="0 0 113.7 28" style="enable-background:new 0 0 113.7 28;" xml:space="preserve">
<style type="text/css">
	.st0{fill:#FFFFFF;}
</style>
<g>
	<g>
		<path class="st0" d="M24.4,20.5c-0.7,1.5-1,2.1-1.8,3.4c-1.2,1.8-2.9,4-5,4.1c-1.9,0-2.3-1.2-4.9-1.2c-2.5,0-3,1.2-4.9,1.2
			c-2.1,0-3.7-2-4.9-3.8c-3.3-5-3.7-10.9-1.6-14.1c1.5-2.2,3.8-3.5,6-3.5s3.6,1.2,5.4,1.2s2.9-1.2,5.4-1.2c1.9,0,4,1,5.4,2.8
			C18.7,12,19.5,18.7,24.4,20.5z"/>
		<g>
			<path class="st0" d="M16.1,4.5C17,3.3,17.7,1.7,17.5,0c-1.5,0.1-3.3,1.1-4.3,2.3c-0.9,1.1-1.7,2.8-1.4,4.4
				C13.4,6.8,15.1,5.8,16.1,4.5z"/>
		</g>
	</g>
	<g>
		<g>
			<path class="st0" d="M41.2,6l-4.7,13.8h2.1l1.4-4.2h4.5l1.4,4.2h2.2L43.6,6H41.2z M42.3,8.3c0.2,0.6,0.3,1.3,0.5,1.9l1.3,3.7
				h-3.6l1.2-3.7C42,9.6,42.2,9,42.3,8.3z"/>
			<path class="st0" d="M54.3,9.6c-1.4,0-2.6,0.5-3.3,1.6l-0.1-1.4H49V10c0.1,0.9,0.1,1.8,0.1,3.2v10.7h2.1v-5
				c0.6,0.8,1.7,1.2,2.9,1.2s2.3-0.5,3.2-1.3c0.9-1,1.4-2.4,1.4-4c0-1.5-0.4-2.7-1.2-3.7C56.6,10.1,55.5,9.6,54.3,9.6z M53.8,11.3
				c1.9,0,2.7,1.7,2.7,3.4c0,2.2-1.1,3.6-2.8,3.6c-1.2,0-2.2-0.8-2.5-1.9c0-0.2-0.1-0.4-0.1-0.7V14c0-0.2,0-0.3,0.1-0.5
				c0-0.1,0-0.1,0-0.2C51.6,12.2,52.6,11.3,53.8,11.3z"/>
			<path class="st0" d="M65.1,9.6c-1.4,0-2.6,0.5-3.3,1.6l-0.1-1.4h-1.9V10c0.1,0.9,0.1,1.8,0.1,3.2v10.7H62v-5
				c0.6,0.8,1.7,1.2,2.9,1.2c1.2,0,2.3-0.5,3.2-1.3c0.9-1,1.4-2.4,1.4-4c0-1.5-0.4-2.7-1.2-3.7C67.4,10.1,66.3,9.6,65.1,9.6z
				 M64.6,11.3c1.9,0,2.7,1.7,2.7,3.4c0,2.2-1.1,3.6-2.8,3.6c-1.2,0-2.2-0.8-2.5-1.9c0-0.2-0.1-0.4-0.1-0.7V14c0-0.2,0-0.3,0.1-0.5
				c0-0.1,0-0.1,0-0.2C62.4,12.2,63.4,11.3,64.6,11.3z"/>
			<path class="st0" d="M78.6,11.9c-2-0.8-2.6-1.3-2.6-2.4c0-0.9,0.7-1.9,2.4-1.9c1.4,0,2.2,0.5,2.5,0.6L81,8.3l0.6-1.7l-0.1-0.1
				c-0.4-0.2-1.3-0.7-3-0.7c-2.7,0-4.5,1.6-4.5,3.8c0,1.8,1.2,3.1,3.7,4c1.8,0.7,2.4,1.3,2.4,2.5c0,1.3-1,2.1-2.7,2.1
				c-1.1,0-2.2-0.3-3-0.9l-0.2-0.1L73.6,19l0.1,0.1c0.8,0.5,2.3,0.9,3.5,0.9c3.6,0,4.9-2.2,4.9-4.1C82.1,14.1,81.1,12.9,78.6,11.9z"
				/>
			<path class="st0" d="M85.9,7.5l-2.1,0.6v1.7h-1.5v1.7h1.5v5.1c0,1.2,0.2,2.1,0.7,2.7c0.5,0.5,1.2,0.8,2,0.8s1.4-0.2,1.6-0.2h0.1
				l-0.1-1.7l-0.1,0c-0.3,0.1-0.5,0.1-1,0.1c-0.8,0-1.2-0.5-1.2-1.7v-5.1h2.5V9.8h-2.5L85.9,7.5L85.9,7.5z"/>
			<path class="st0" d="M93.6,9.6c-2.9,0-5,2.2-5,5.3c0,3,2,5.1,4.8,5.1l0,0c2.4,0,5-1.7,5-5.3c0-1.5-0.5-2.8-1.3-3.7
				C96.2,10.1,95,9.6,93.6,9.6z M93.5,11.3c1.9,0,2.7,1.8,2.7,3.5c0,2.1-1.2,3.6-2.8,3.6l0,0c-1.6,0-2.7-1.5-2.7-3.6
				C90.7,13.1,91.6,11.3,93.5,11.3z"/>
			<path class="st0" d="M104.8,9.7L104.8,9.7c-0.3,0-0.4-0.1-0.6-0.1c-1.1,0-2.1,0.6-2.6,1.7l-0.1-1.5h-1.9V10
				c0.1,0.8,0.1,1.8,0.1,3v6.8h2.1v-5.3c0-0.3,0-0.6,0.1-0.8c0.2-1.3,1.1-2.1,2.2-2.1c0.2,0,0.4,0,0.6,0h0.2L104.8,9.7L104.8,9.7z"
				/>
			<path class="st0" d="M109.5,9.6c-2.8,0-4.7,2.2-4.7,5.4c0,3.1,1.9,5,4.9,5c1.6,0,2.7-0.3,3.3-0.6l0.1-0.1l-0.4-1.6l-0.2,0.1
				c-0.6,0.2-1.3,0.5-2.6,0.5c-0.9,0-3-0.3-3.1-3h6.7v-0.1c0-0.2,0.1-0.5,0.1-0.9C113.7,12.1,112.6,9.6,109.5,9.6z M109.4,11.2
				c0.6,0,1.2,0.2,1.5,0.6c0.6,0.6,0.7,1.5,0.7,1.9h-4.8C107.1,12.5,107.8,11.2,109.4,11.2z"/>
		</g>
	</g>
</g>
</svg>
