<?xml version="1.0" encoding="utf-8"?>
<!-- Generator: Adobe Illustrator 22.1.0, SVG Export Plug-In . SVG Version: 6.00 Build 0)  -->
<svg version="1.1" id="레이어_1" xmlns="http://www.w3.org/2000/svg" xmlns:xlink="http://www.w3.org/1999/xlink" x="0px"
	 y="0px" viewBox="0 0 69.5 51.1" style="enable-background:new 0 0 69.5 51.1;" xml:space="preserve">
<style type="text/css">
	.st0{fill:#FFFFFF;}
</style>
<g>
	<g>
		<g>
			<path class="st0" d="M67.1,18c-0.6,0-1.2-0.2-1.7-0.7L52.1,4.1c-0.9-0.9-0.9-2.4,0-3.4c0.9-0.9,2.4-0.9,3.4,0L68.8,14
				c0.9,0.9,0.9,2.4,0,3.4C68.3,17.8,67.7,18,67.1,18z"/>
		</g>
		<g>
			<path class="st0" d="M53.8,18c-0.6,0-1.2-0.2-1.7-0.7c-0.9-0.9-0.9-2.4,0-3.4L65.4,0.7c0.9-0.9,2.4-0.9,3.4,0
				c0.9,0.9,0.9,2.4,0,3.4L55.5,17.3C55,17.8,54.4,18,53.8,18z"/>
		</g>
	</g>
	<path class="st0" d="M48.6,20.1c0-2.2-2.2-4.1-4.8-4.1h-8c-1.6-8.3-9-14.6-17.7-14.6C8.1,1.4,0,9.5,0,19.5c0,10,8.1,18.1,18.1,18.1
		c10,0,18.1-8.1,18.1-18.1c0-0.1,0-0.3,0-0.4h7.7c1,0,1.7,0.5,1.7,1V23c0,0.5-0.8,1-1.7,1h-5v3.1h5h1.1c0.2,0,0.6,0.4,0.6,1V31
		c0,0.6-0.4,1-0.6,1h-9.8h-1.8v3.1h1.8h9.8c0.2,0,0.6,0.4,0.6,1V39c0,0.6-0.4,1-0.6,1h-0.2H21.6h-0.2c-0.2,0-0.6-0.4-0.6-1h-3.1
		c0,1,0.3,1.8,0.8,2.5c-0.5,0.7-0.8,1.5-0.8,2.3v3.4c0,2.1,1.7,3.9,3.9,3.9h23.1c2.1,0,3.9-1.7,3.9-3.9v-3.4c0-0.9-0.3-1.7-0.8-2.3
		c0.5-0.7,0.8-1.6,0.8-2.5v-2.9c0-1-0.3-1.8-0.8-2.5c0.5-0.7,0.8-1.6,0.8-2.5v-2.9c0-1-0.3-2-0.9-2.7c0.6-0.7,0.9-1.5,0.9-2.4V20.1z
		 M19.8,27.3v2.2H17v-2.1c-2.4-0.2-4.7-1.3-5.7-3.7l2.6-1.1c0.6,1.4,2.5,2.3,4.3,2.3c2,0,3.8-0.7,3.8-2.4c0-1.4-1.8-2-3.8-2.2
		c-3.1-0.3-6.2-0.9-6.2-4.5c0-2.9,2.5-4.2,5-4.5V9.5h2.8v1.9c1.8,0.3,3.5,1,4.5,3l-2.3,1.1c-0.6-0.9-2.2-1.7-3.7-1.7
		c-1.8,0-3.5,0.5-3.5,2c0,1.4,1.7,1.7,3.5,1.9c3.2,0.4,6.6,1,6.6,4.8C24.9,25.5,22.4,27.1,19.8,27.3z M45.5,47.2
		c0,0.4-0.4,0.8-0.8,0.8H21.6c-0.4,0-0.8-0.4-0.8-0.8v-3.4c0-0.4,0.4-0.8,0.8-0.8h23.1c0.4,0,0.8,0.4,0.8,0.8V47.2z"/>
</g>
</svg>
