<?xml version="1.0" encoding="utf-8"?>
<!-- Generator: Adobe Illustrator 22.1.0, SVG Export Plug-In . SVG Version: 6.00 Build 0)  -->
<svg version="1.1" id="레이어_1" xmlns="http://www.w3.org/2000/svg" xmlns:xlink="http://www.w3.org/1999/xlink" x="0px"
	 y="0px" viewBox="0 0 59.4 67.3" style="enable-background:new 0 0 59.4 67.3;" xml:space="preserve">
<style type="text/css">
	.st0{fill:#FFFFFF;}
</style>
<g>
	<path class="st0" d="M20.3,8l-1.6,2.6l2.9,1.8l3.9-6.3L21.8,0l-2.9,1.7l1.7,2.8C9,5.7,0,15.4,0,27.3h3.4C3.4,17.4,10.8,9.2,20.3,8z
		"/>
	<path class="st0" d="M59.4,40H56c0,9.9-7.4,18-16.9,19.3l1.6-2.6l-2.9-1.8l-3.9,6.3l3.7,6.1l2.9-1.7l-1.7-2.8
		C50.4,61.6,59.4,51.8,59.4,40z"/>
	<path class="st0" d="M40.9,20.3L40.2,23c0.8,0.2,3.1,1,3.5-0.6C44.1,20.9,41.6,20.5,40.9,20.3z"/>
	<path class="st0" d="M43.3,26.9c0.4-1.8-2.5-2.2-3.4-2.5l-0.7,3C40,27.7,42.9,28.6,43.3,26.9z"/>
	<path class="st0" d="M40.7,7.7c-9,0-16.4,7.3-16.4,16.4c0,1,0.1,1.9,0.2,2.8c0.4,0.1,0.9,0.3,1.3,0.4c5.2,2,9.2,6.1,10.9,11.4
		c0.1,0.4,0.3,0.9,0.4,1.3c1.1,0.3,2.3,0.4,3.5,0.4c9,0,16.4-7.3,16.4-16.4C57.1,15,49.8,7.7,40.7,7.7z M48.1,22
		c-0.2,1.6-1.1,2.3-2.3,2.6c1.6,0.8,2.4,2.1,1.6,4.3c-1,2.7-3.2,3-6.2,2.4l-0.7,2.9l-1.8-0.4l0.7-2.9c-0.5-0.1-0.9-0.2-1.4-0.4
		l-0.7,2.9L35.5,33l0.7-2.9c-0.4-0.1-0.8-0.2-1.3-0.3l-2.3-0.6l0.9-2c0,0,1.3,0.3,1.3,0.3c0.5,0.1,0.7-0.2,0.8-0.4l1.2-4.6l0.2,0
		c-0.1,0-0.1,0-0.2-0.1l0.8-3.3c0-0.4-0.1-0.9-0.8-1c0,0-1.3-0.3-1.3-0.3l0.5-1.9l2.4,0.6l0,0c0.4,0.1,0.7,0.2,1.1,0.3l0.7-2.9
		l1.8,0.4l-0.7,2.8c0.5,0.1,1,0.2,1.4,0.3l0.7-2.8l1.8,0.4L44.5,18C46.8,18.7,48.4,19.9,48.1,22z"/>
	<path class="st0" d="M3,44.5c0,9,7.3,16.4,16.4,16.4c9,0,16.4-7.3,16.4-16.4c0-1.8-0.3-3.5-0.8-5.1c-1.5-4.7-5.1-8.4-9.7-10.2
		c-1.8-0.7-3.8-1.1-5.8-1.1C10.3,28.1,3,35.5,3,44.5z M25.8,39.1l-2.4,1.1c-0.6-1-2.3-1.7-3.8-1.7c-1.9,0-3.6,0.5-3.6,2.1
		c0,1.5,1.8,1.8,3.7,2c3.3,0.4,6.9,1,6.9,5c0,3.1-2.6,4.8-5.4,5v2.3h-2.9v-2.2c-2.5-0.2-4.9-1.4-6-3.9l2.7-1.1
		c0.6,1.5,2.6,2.4,4.5,2.4c2,0,3.9-0.7,3.9-2.5c0-1.5-1.9-2-4-2.3c-3.2-0.4-6.4-0.9-6.4-4.7c0-3,2.6-4.3,5.3-4.6v-2h2.9v2
		C23,36.3,24.8,37.1,25.8,39.1z"/>
</g>
</svg>
