<?xml version="1.0" encoding="utf-8"?>
<!-- Generator: Adobe Illustrator 22.1.0, SVG Export Plug-In . SVG Version: 6.00 Build 0)  -->
<svg version="1.1" id="레이어_1" xmlns="http://www.w3.org/2000/svg" xmlns:xlink="http://www.w3.org/1999/xlink" x="0px"
	 y="0px" viewBox="0 0 77.6 60.2" style="enable-background:new 0 0 77.6 60.2;" xml:space="preserve">
<style type="text/css">
	.st0{fill:#FFFFFF;}
</style>
<g>
	<g>
		<path class="st0" d="M28.5,43.9c0,1.7,1.4,3.2,3.2,3.2h10.8v-6.3H31.6C29.9,40.8,28.5,42.2,28.5,43.9z"/>
		<path class="st0" d="M31.6,50.1c-3.4,0-6.2-2.8-6.2-6.2c0-3.4,2.8-6.2,6.2-6.2h10.8v-9.7h-4.6V23H6.9v3h27.9v2h-28
			c-2.1,0-3.8-1.7-3.8-3.8c0-2.1,1.7-3.8,3.8-3.8h34.1v-3H6.9c-3.6,0-6.6,2.8-6.8,6.4h0v30.5c0,3.2,2.6,5.9,5.9,5.9h36.6V50.1H31.6z
			 M10.4,52.6h-3v-3.2h3V52.6z M10.4,45.7h-3v-3.6h3V45.7z M10.4,38.5h-3v-3.6h3V38.5z"/>
	</g>
	<g>
		<g>
			<path class="st0" d="M59.1,23.3c-0.5,0-1-0.2-1.3-0.6l-4.4-4.4c-0.7-0.7-0.7-1.9,0-2.7c0.7-0.7,1.9-0.7,2.7,0l3.1,3.1l6.8-6.8
				c0.7-0.7,1.9-0.7,2.7,0c0.7,0.7,0.7,1.9,0,2.7l-8.2,8.2C60.1,23.1,59.6,23.3,59.1,23.3z"/>
		</g>
		<g>
			<path class="st0" d="M60.4,34.5c-9.5,0-17.3-7.7-17.3-17.3S50.8,0,60.4,0s17.3,7.7,17.3,17.3S69.9,34.5,60.4,34.5z M60.4,3.8
				c-7.4,0-13.5,6-13.5,13.5s6,13.5,13.5,13.5s13.5-6,13.5-13.5S67.8,3.8,60.4,3.8z"/>
		</g>
	</g>
</g>
</svg>
