<?xml version="1.0" encoding="utf-8"?>
<!-- Generator: Adobe Illustrator 22.1.0, SVG Export Plug-In . SVG Version: 6.00 Build 0)  -->
<svg version="1.1" id="레이어_1" xmlns="http://www.w3.org/2000/svg" xmlns:xlink="http://www.w3.org/1999/xlink" x="0px"
	 y="0px" viewBox="0 0 50.3 39" style="enable-background:new 0 0 50.3 39;" xml:space="preserve">
<style type="text/css">
	.st0{fill:#6C00B7;}
</style>
<g>
	<g>
		<path class="st0" d="M18.5,28.5c0,1.1,0.9,2,2,2h7v-4.1h-7C19.4,26.4,18.5,27.3,18.5,28.5z"/>
		<path class="st0" d="M20.5,32.4c-2.2,0-4-1.8-4-4c0-2.2,1.8-4,4-4h7v-6.3h-3v-3.3h-20v1.9h18.1v1.3H4.4c-1.4,0-2.5-1.1-2.5-2.5
			c0-1.4,1.1-2.5,2.5-2.5h22.1v-1.9H4.4c-2.4,0-4.3,1.8-4.4,4.2h0v19.8C0,37.3,1.7,39,3.8,39h23.7v-6.5H20.5z M6.7,34.1H4.8V32h1.9
			V34.1z M6.7,29.6H4.8v-2.3h1.9V29.6z M6.7,25H4.8v-2.3h1.9V25z"/>
	</g>
	<g>
		<g>
			<path class="st0" d="M38.3,15.1c-0.3,0-0.6-0.1-0.9-0.4l-2.8-2.8c-0.5-0.5-0.5-1.3,0-1.7c0.5-0.5,1.3-0.5,1.7,0l2,2l4.4-4.4
				c0.5-0.5,1.3-0.5,1.7,0c0.5,0.5,0.5,1.3,0,1.7l-5.3,5.3C38.9,14.9,38.6,15.1,38.3,15.1z"/>
		</g>
		<g>
			<path class="st0" d="M39.1,22.4c-6.2,0-11.2-5-11.2-11.2S32.9,0,39.1,0s11.2,5,11.2,11.2S45.3,22.4,39.1,22.4z M39.1,2.5
				c-4.8,0-8.7,3.9-8.7,8.7s3.9,8.7,8.7,8.7s8.7-3.9,8.7-8.7S43.9,2.5,39.1,2.5z"/>
		</g>
	</g>
</g>
</svg>
