<?xml version="1.0" encoding="utf-8"?>
<!-- Generator: Adobe Illustrator 22.1.0, SVG Export Plug-In . SVG Version: 6.00 Build 0)  -->
<svg version="1.1" id="레이어_1" xmlns="http://www.w3.org/2000/svg" xmlns:xlink="http://www.w3.org/1999/xlink" x="0px"
	 y="0px" viewBox="0 0 50.2 36.9" style="enable-background:new 0 0 50.2 36.9;" xml:space="preserve">
<style type="text/css">
	.st0{fill:#6C00B7;}
</style>
<g>
	<g>
		<g>
			<path class="st0" d="M48.5,13c-0.4,0-0.9-0.2-1.2-0.5l-9.6-9.6c-0.7-0.7-0.7-1.8,0-2.4c0.7-0.7,1.8-0.7,2.4,0l9.6,9.6
				c0.7,0.7,0.7,1.8,0,2.4C49.4,12.9,48.9,13,48.5,13z"/>
		</g>
		<g>
			<path class="st0" d="M38.9,13c-0.4,0-0.9-0.2-1.2-0.5c-0.7-0.7-0.7-1.8,0-2.4l9.6-9.6c0.7-0.7,1.8-0.7,2.4,0
				c0.7,0.7,0.7,1.8,0,2.4l-9.6,9.6C39.8,12.9,39.3,13,38.9,13z"/>
		</g>
	</g>
	<path class="st0" d="M35.1,14.5c0-1.6-1.6-2.9-3.5-2.9h-5.8C24.7,5.6,19.4,1,13.1,1C5.9,1,0,6.9,0,14.1c0,7.2,5.9,13.1,13.1,13.1
		c7.2,0,13.1-5.9,13.1-13.1c0-0.1,0-0.2,0-0.3h5.5c0.7,0,1.2,0.4,1.2,0.7v2.1c0,0.3-0.5,0.7-1.2,0.7H28v2.2h3.6h0.8
		c0.2,0,0.4,0.3,0.4,0.7v2.1c0,0.4-0.3,0.7-0.4,0.7h-7.1h-1.3v2.2h1.3h7.1c0.2,0,0.4,0.3,0.4,0.7v2.1c0,0.4-0.3,0.7-0.4,0.7h-0.1
		H15.6h-0.1c-0.2,0-0.4-0.3-0.4-0.7h-2.2c0,0.7,0.2,1.3,0.6,1.8c-0.4,0.5-0.6,1.1-0.6,1.7v2.4c0,1.5,1.3,2.8,2.8,2.8h16.7
		c1.5,0,2.8-1.3,2.8-2.8v-2.4c0-0.6-0.2-1.2-0.6-1.7c0.4-0.5,0.6-1.1,0.6-1.8v-2.1c0-0.7-0.2-1.3-0.6-1.8c0.4-0.5,0.6-1.1,0.6-1.8
		v-2.1c0-0.7-0.3-1.4-0.7-1.9c0.4-0.5,0.7-1.1,0.7-1.7V14.5z M14.3,19.7v1.6h-2v-1.5c-1.8-0.2-3.4-1-4.1-2.7l1.9-0.8
		c0.4,1,1.8,1.7,3.1,1.7c1.4,0,2.7-0.5,2.7-1.7c0-1-1.3-1.4-2.8-1.6c-2.2-0.3-4.4-0.6-4.4-3.3c0-2.1,1.8-3,3.6-3.2V6.8h2v1.4
		c1.3,0.2,2.6,0.7,3.3,2.2l-1.7,0.8c-0.4-0.7-1.6-1.2-2.7-1.2c-1.3,0-2.5,0.4-2.5,1.5c0,1,1.2,1.2,2.6,1.4c2.3,0.3,4.7,0.7,4.7,3.5
		C18,18.4,16.2,19.6,14.3,19.7z M32.9,34.1c0,0.3-0.3,0.6-0.6,0.6H15.6c-0.3,0-0.6-0.3-0.6-0.6v-2.4c0-0.3,0.3-0.6,0.6-0.6h16.7
		c0.3,0,0.6,0.3,0.6,0.6V34.1z"/>
</g>
</svg>
