<?xml version="1.0" encoding="utf-8"?>
<!-- Generator: Adobe Illustrator 22.1.0, SVG Export Plug-In . SVG Version: 6.00 Build 0)  -->
<svg version="1.1" id="레이어_1" xmlns="http://www.w3.org/2000/svg" xmlns:xlink="http://www.w3.org/1999/xlink" x="0px"
	 y="0px" viewBox="0 0 41.8 47.4" style="enable-background:new 0 0 41.8 47.4;" xml:space="preserve">
<style type="text/css">
	.st0{fill:#6C00B7;}
</style>
<g>
	<path class="st0" d="M14.3,5.6l-1.1,1.8l2,1.3l2.7-4.4L15.3,0l-2,1.2l1.2,2C6.4,4,0,10.9,0,19.2h2.4C2.4,12.2,7.6,6.5,14.3,5.6z"/>
	<path class="st0" d="M41.8,28.2h-2.4c0,6.9-5.2,12.7-11.9,13.6l1.1-1.8l-2-1.3L23.9,43l2.6,4.3l2-1.2l-1.2-2
		C35.5,43.4,41.8,36.5,41.8,28.2z"/>
	<path class="st0" d="M28.8,14.3l-0.5,1.9c0.5,0.1,2.2,0.7,2.5-0.4C31,14.7,29.3,14.4,28.8,14.3z"/>
	<path class="st0" d="M30.5,18.9c0.3-1.2-1.8-1.6-2.4-1.7l-0.5,2.1C28.2,19.5,30.2,20.1,30.5,18.9z"/>
	<path class="st0" d="M28.7,5.4c-6.4,0-11.5,5.2-11.5,11.5c0,0.7,0.1,1.3,0.2,2c0.3,0.1,0.6,0.2,0.9,0.3c3.7,1.4,6.5,4.3,7.7,8
		c0.1,0.3,0.2,0.6,0.3,0.9c0.8,0.2,1.6,0.3,2.5,0.3c6.4,0,11.5-5.2,11.5-11.5C40.2,10.6,35,5.4,28.7,5.4z M33.8,15.5
		c-0.2,1.1-0.8,1.6-1.6,1.8c1.1,0.6,1.7,1.5,1.1,3c-0.7,1.9-2.3,2.1-4.4,1.7l-0.5,2.1l-1.2-0.3l0.5-2c-0.3-0.1-0.7-0.2-1-0.3l-0.5,2
		L25,23.2l0.5-2.1c-0.3-0.1-0.6-0.2-0.9-0.2L23,20.5l0.6-1.4c0,0,0.9,0.2,0.9,0.2c0.4,0.1,0.5-0.1,0.6-0.3l0.8-3.3l0.1,0
		c-0.1,0-0.1,0-0.1,0l0.6-2.3c0-0.3-0.1-0.6-0.6-0.7c0,0-0.9-0.2-0.9-0.2l0.3-1.3l1.7,0.4l0,0c0.3,0.1,0.5,0.1,0.8,0.2l0.5-2
		l1.2,0.3l-0.5,2c0.3,0.1,0.7,0.2,1,0.2l0.5-2l1.2,0.3l-0.5,2C32.9,13.2,34.1,14,33.8,15.5z"/>
	<path class="st0" d="M2.1,31.3c0,6.4,5.2,11.5,11.5,11.5c6.4,0,11.5-5.2,11.5-11.5c0-1.3-0.2-2.5-0.6-3.6c-1.1-3.3-3.6-5.9-6.8-7.2
		c-1.3-0.5-2.7-0.8-4.1-0.8C7.3,19.8,2.1,25,2.1,31.3z M18.2,27.6l-1.7,0.8c-0.4-0.7-1.6-1.2-2.7-1.2c-1.3,0-2.5,0.4-2.5,1.5
		c0,1.1,1.3,1.2,2.6,1.4c2.3,0.3,4.8,0.7,4.8,3.5c0,2.2-1.8,3.4-3.8,3.5v1.6h-2v-1.5c-1.8-0.2-3.4-1-4.2-2.7l1.9-0.8
		c0.4,1,1.9,1.7,3.2,1.7c1.4,0,2.8-0.5,2.8-1.7c0-1.1-1.3-1.4-2.8-1.6c-2.3-0.3-4.5-0.7-4.5-3.3c0-2.1,1.9-3,3.7-3.3V24h2v1.4
		C16.2,25.6,17.4,26.1,18.2,27.6z"/>
</g>
</svg>
