<svg xmlns="http://www.w3.org/2000/svg" width="199.293" height="70" viewBox="0 0 199.293 70">
  <g id="그룹_81" data-name="그룹 81" transform="translate(-195 -34)">
    <circle id="타원_10" data-name="타원 10" cx="35" cy="35" r="35" transform="translate(195 34)" fill="#0c0c19"/>
    <g id="레이어_2" data-name="레이어 2" transform="translate(214 33.479)">
      <g id="레이어_1" data-name="레이어 1" transform="translate(1 20.521)">
        <path id="패스_1" data-name="패스 1" d="M8.5,45.347A12.374,12.374,0,0,0,20.874,57.721h0A12.374,12.374,0,0,0,33.248,45.347V20.521L20.407,33.362" transform="translate(-7.333 -20.521)" fill="none" stroke="#fff" stroke-miterlimit="10" stroke-width="3"/>
        <line id="선_1" data-name="선 1" x2="30.196" transform="translate(0 12.841)" fill="none" stroke="#fff" stroke-miterlimit="10" stroke-width="3"/>
      </g>
    </g>
    <g id="그룹_37" data-name="그룹 37" transform="translate(1927.43 -4043)">
      <path id="패스_2" data-name="패스 2" d="M-1631.275,4102.04V4102h-10.878v1.911h3.522l-2.706,12.36a12.208,12.208,0,0,1-.409,1.549,1.364,1.364,0,0,1-.669.675,2.716,2.716,0,0,1-1.293.274q-.3,0-.947-.037l-.774,3.536h3.662a19.045,19.045,0,0,0,3.695-.269,4.925,4.925,0,0,0,2.125-.968,3.352,3.352,0,0,0,1.136-1.568q.277-.869.942-3.9l2.55-11.647h.044v-.2l.366-1.669Z" transform="translate(0)" fill="#fff"/>
      <path id="패스_3" data-name="패스 3" d="M-1536.5,4102.271a17.951,17.951,0,0,1-8.438,3.239l-.516,2.358h.695a11.48,11.48,0,0,1,3.082.244q.65.243.7.718a14.181,14.181,0,0,1-.462,2.824l-2.375,10.845h7.017l4.429-20.229Z" transform="translate(-85.281 -0.231)" fill="#fff"/>
      <path id="패스_4" data-name="패스 4" d="M-1452.722,4111.573a7.756,7.756,0,0,0,3.283-1.074,4.069,4.069,0,0,0,1.314-2.472q.574-2.622-.262-3.8a4.066,4.066,0,0,0-2.531-1.567,25.145,25.145,0,0,0-5.152-.387h-7.295l-4.429,20.229h8.458a30.683,30.683,0,0,0,5.915-.363,4.434,4.434,0,0,0,2.371-1.35,6.8,6.8,0,0,0,1.317-3.038l.411-1.875a3.647,3.647,0,0,0-.261-2.932Q-1450.276,4111.985-1452.722,4111.573Zm-3.778,3.692-.413,1.886a2.4,2.4,0,0,1-.762,1.537,4.588,4.588,0,0,1-2.048.35l1.239-5.66a4.034,4.034,0,0,1,1.946.313Q-1456.216,4113.966-1456.5,4115.265Zm1.666-7.609a5.41,5.41,0,0,1-.773,2.181,2.073,2.073,0,0,1-1.455.381q-.261,0-.732.013l.985-4.5a7.36,7.36,0,0,1,1.5.112.777.777,0,0,1,.529.481A2.486,2.486,0,0,1-1454.834,4107.656Z" transform="translate(-151.524 -0.231)" fill="#fff"/>
      <path id="패스_5" data-name="패스 5" d="M-1326.205,4114h4.568l.843-3.848h-4.568l.84-3.836h4.88l.887-4.048h-12.193l-4.429,20.228h12.679l.886-4.048h-5.367Z" transform="translate(-264.473 -0.231)" fill="#fff"/>
      <path id="패스_6" data-name="패스 6" d="M-1242.488,4122.5h7.56l1.236-3.636h2.616l-.4,3.636h7.473l.248-20.229h-10.569Zm12.751-15.718q-.549,5.06-.747,8.5H-1233Q-1232.127,4112.591-1229.737,4106.781Z" transform="translate(-343.707 -0.231)" fill="#fff"/>
      <path id="패스_7" data-name="패스 7" d="M-1080.71,4102.271h-15.979l-.886,4.048h4.325l-3.543,16.18h7.312l3.543-16.18h4.342Z" transform="translate(-467.317 -0.231)" fill="#fff"/>
      <path id="패스_8" data-name="패스 8" d="M-985.463,4102.271H-998.28l-.886,4.048h4.967l-8.527,13.244-.643,2.936h13.478l.886-4.048h-5.445l8.1-12.132Z" transform="translate(-547.674 -0.231)" fill="#fff"/>
    </g>
  </g>
</svg>
