<svg xmlns="http://www.w3.org/2000/svg" viewBox="0 0 843.71686 229"><defs><style>.cls-1{fill:#fff;}</style></defs><title>logo_wh</title><g id="레이어_2" data-name="레이어 2"><g id="레이어_1-2" data-name="레이어 1"><polygon class="cls-1" points="146.354 94.046 146.354 66.347 118.654 94.046 146.354 94.046"/><path class="cls-1" d="M114.5,0A114.5,114.5,0,1,0,229,114.5,114.5,114.5,0,0,0,114.5,0ZM165,102.85156h-9.841v35.47949a45.5795,45.5795,0,0,1-91.159,0h8.80511a36.77439,36.77439,0,0,0,73.54877,0V102.85156H64V94.04639h42.202L155.159,45.0896V94.04639H165Z"/><path class="cls-1" d="M372.53843,38.53922h28.29414V155.30874h20.61735v33.30659H347.10686V155.30874H368.9136V89.88614H346.71039V62.32947h10.31595a15.51208,15.51208,0,0,0,15.51209-15.51208Z"/><path class="cls-1" d="M434.73031,188.61533V38.53922h44.60584q10.10985,0,16.75182,2.28085a23.61569,23.61569,0,0,1,10.70573,7.13637,28.82891,28.82891,0,0,1,5.74874,12.48982,87.47518,87.47518,0,0,1,1.68616,18.5371q0,8.13107-.49558,13.28275a33.09971,33.09971,0,0,1-1.78528,8.524,17.39865,17.39865,0,0,1-3.27083,5.55169,26.43088,26.43088,0,0,1-4.95581,4.16288v1.38763q2.97348,1.78408,5.25316,3.36995a12.823,12.823,0,0,1,3.96583,5.05611,32.67091,32.67091,0,0,1,2.4779,9.9128,156.42854,156.42854,0,0,1,.79293,17.94121,92.73326,92.73326,0,0,1-1.58586,18.53592,29.33118,29.33118,0,0,1-5.45257,12.48982,22.291,22.291,0,0,1-10.40838,7.13755q-6.54168,2.28144-16.65271,2.27967ZM474.975,100.19541q4.55757,0,6.24432-3.56819,1.68142-3.56818,1.685-13.67922,0-8.92222-2.08144-11.796-2.08143-2.87082-6.64078-2.87437h-8.327v31.91779Zm.79293,58.088q4.55757,0,6.64078-2.77644,2.08144-2.77347,2.08144-11.49748,0-10.3063-1.78409-14.67156-1.78409-4.35757-6.14521-4.36111H465.85516v33.30659Z"/><path class="cls-1" d="M524.93315,188.61533V38.53922h66.41376V70.26H556.058V96.62722h34.69422v30.33192H556.058v28.3496h35.09068v33.30659Z"/><path class="cls-1" d="M649.829,188.61533l-2.577-34.69421H632.18515l-2.37878,34.69421H598.4821l16.058-150.07611h52.33808l15.068,150.07611ZM640.70915,69.86348h-2.18056l-4.95581,53.72571h12.29159Z"/><path class="cls-1" d="M700.77948,188.61533V70.26h-23.592V38.53922h78.30889V70.26h-23.592V188.61533Z"/><path class="cls-1" d="M761.83861,188.61533V153.12819l39.65-80.68768-.79293-1.98233H763.42446v-31.919h80.2924V55.58957l-47.38227,97.93508.99116,1.78409h45.00348v33.30659Z"/><path class="cls-1" d="M294.52924,190.77229c-22.48581,0-40.77924-18.70111-40.77924-41.68781V130.90727h32.01926v18.17721c0,5.331,3.92984,9.66855,8.76,9.66855s8.76-4.33751,8.76-9.66855V38.22771h32.01926V149.08448C335.30849,172.07118,317.01506,190.77229,294.52924,190.77229Z"/></g></g></svg>