<?xml version="1.0" encoding="utf-8"?>
<!-- Generator: Adobe Illustrator 23.0.6, SVG Export Plug-In . SVG Version: 6.00 Build 0)  -->
<svg version="1.1" id="레이어_1" xmlns="http://www.w3.org/2000/svg" xmlns:xlink="http://www.w3.org/1999/xlink" x="0px"
	 y="0px" viewBox="0 0 196 48.3" style="enable-background:new 0 0 196 48.3;" xml:space="preserve">
<style type="text/css">
	.st0{fill:#FFFFFF;}
</style>
<title>Asset 1</title>
<g>
	<path class="st0" d="M24.2,0C10.8,0,0,10.8,0,24.2c0,13.3,10.8,24.1,24.2,24.1c13.3,0,24.1-10.8,24.1-24.1C48.3,10.8,37.5,0,24.2,0
		z M32.3,21.3v7.3c0,1.2-0.3,2.4-0.8,3.6c-0.2,0.5-0.5,1-0.9,1.5c-0.7,0.9-1.5,1.7-2.4,2.4c-0.5,0.3-1,0.6-1.5,0.8
		c-0.5,0.2-1.1,0.4-1.7,0.5c-0.6,0.1-1.2,0.2-1.8,0.2c-5,0-9.1-4.1-9.1-9.1h1.8c0.1,4,3.5,7.1,7.5,7c3.8-0.1,6.8-3.2,7-7v-7.1H14.1
		v-1.8h8.2l8-8l0.6-0.6h1.3v8.7h2l0.1,1.7H32.3z"/>
	<polygon class="st0" points="30.4,19.5 30.4,14.1 25,19.5 	"/>
</g>
<polygon class="st0" points="82.2,15.9 80.7,21.8 84.3,20.6 80.5,35.6 86.5,35.6 92.4,12.1 "/>
<path class="st0" d="M109,23.2L109,23.2c2-1,3.6-2.8,4.2-5c0.9-3.5-1.5-6-5.7-6H97l-5.9,23.4h10.8c4.3,0,8.3-2.9,9.3-6.7
	C111.8,26.4,110.9,24.3,109,23.2z M105,28.2c-0.3,1.3-1.5,2.2-2.8,2.1h-3.5l1.1-4.3h3.5C104.6,26.1,105.3,26.9,105,28.2z
	 M106.9,19.3c-0.3,1.2-1.4,2-2.7,2h-3.3l1-4.1h3.3C106.5,17.2,107.2,18,106.9,19.3L106.9,19.3z"/>
<polygon class="st0" points="120.7,26.5 128.4,26.5 129.7,21.2 122.1,21.2 122.9,17.8 131.5,17.8 132.9,12.2 117.9,12.2 112,35.6 
	127.3,35.6 128.7,30 119.8,30 "/>
<path class="st0" d="M144.1,12.2l-15.1,23.4h6.9l2.3-3.8h8.3l0.3,3.8h7.1l-3.6-23.4H144.1z M141,26.8l4.4-7.3l0.8,7.3H141z"/>
<polygon class="st0" points="176,12.2 156.8,12.2 155.3,18 161.7,18 157.3,35.6 163.7,35.6 168.2,18 174.5,18 "/>
<polygon class="st0" points="196,12.2 178.5,12.2 176.9,18.2 185,18.2 172,35.6 190.5,35.6 192,29.6 183,29.6 "/>
<path class="st0" d="M77.4,12.1H66.3v5.3h5.9l-2.5,9.8c-0.3,1.6-1.7,2.9-3.3,2.9c-1.6,0-2.4-1.1-1.9-2.9l0.2-0.6h-6.5l-0.2,0.9
	c-1.3,5.1,1.6,8.6,7,8.6c5.3,0.1,9.9-3.5,11.2-8.6l3.8-15.4L77.4,12.1L77.4,12.1z"/>
</svg>
