<svg xmlns="http://www.w3.org/2000/svg" width="219.258" height="44.565" viewBox="0 0 219.258 44.565">
  <g id="그룹_1" data-name="그룹 1" transform="translate(-214.738 -50.379)">
    <g id="레이어_2" data-name="레이어 2" transform="translate(215 54)">
      <g id="레이어_1" data-name="레이어 1" transform="translate(0 0)">
        <path id="패스_1" data-name="패스 1" d="M8.5,46.844a13.12,13.12,0,0,0,13.12,13.12h0a13.12,13.12,0,0,0,13.12-13.12V20.521L21.125,34.136" transform="translate(-7.262 -20.521)" fill="none" stroke="#fff" stroke-miterlimit="10" stroke-width="3"/>
        <line id="선_1" data-name="선 1" x2="32.017" transform="translate(0 13.616)" fill="none" stroke="#fff" stroke-miterlimit="10" stroke-width="3"/>
      </g>
    </g>
    <g id="그룹_37" data-name="그룹 37" transform="translate(258.708 58.683)">
      <path id="패스_2" data-name="패스 2" d="M-1623.335,4102.063V4102h-16.981v2.983h5.5l-4.225,19.293a19.036,19.036,0,0,1-.638,2.418,2.128,2.128,0,0,1-1.044,1.053,4.236,4.236,0,0,1-2.019.429q-.461,0-1.479-.058l-1.208,5.52h5.717a29.725,29.725,0,0,0,5.768-.42,7.685,7.685,0,0,0,3.316-1.512,5.234,5.234,0,0,0,1.774-2.447q.433-1.357,1.471-6.1l3.981-18.182h.069v-.315l.571-2.606Z" transform="translate(1645.43 -4102)" fill="#fff"/>
      <path id="패스_3" data-name="패스 3" d="M-1531.474,4102.271q-4.958,3.826-13.171,5.056l-.806,3.681h1.084a17.9,17.9,0,0,1,4.811.382q1.014.379,1.1,1.121a22.163,22.163,0,0,1-.721,4.407l-3.707,16.93h10.953l6.914-31.576Z" transform="translate(1568.394 -4102.209)" fill="#fff"/>
      <path id="패스_4" data-name="패스 4" d="M-1444.267,4116.792a12.117,12.117,0,0,0,5.125-1.677,6.353,6.353,0,0,0,2.052-3.859q.9-4.093-.409-5.935a6.348,6.348,0,0,0-3.951-2.446,39.261,39.261,0,0,0-8.042-.6h-11.387l-6.914,31.576h13.2a47.921,47.921,0,0,0,9.234-.566,6.923,6.923,0,0,0,3.7-2.107,10.609,10.609,0,0,0,2.055-4.742l.641-2.927q.675-3.083-.408-4.577T-1444.267,4116.792Zm-5.9,5.763-.645,2.944a3.739,3.739,0,0,1-1.19,2.4,7.17,7.17,0,0,1-3.2.547l1.935-8.836q2.536.059,3.038.488T-1450.165,4122.555Zm2.6-11.878a8.448,8.448,0,0,1-1.206,3.4,3.24,3.24,0,0,1-2.272.594q-.407,0-1.143.021l1.537-7.021a11.491,11.491,0,0,1,2.334.175,1.213,1.213,0,0,1,.825.751A3.882,3.882,0,0,1-1447.564,4110.677Z" transform="translate(1508.556 -4102.209)" fill="#fff"/>
      <path id="패스_5" data-name="패스 5" d="M-1321.06,4120.584h7.13l1.315-6.007h-7.131l1.311-5.988h7.618l1.384-6.319h-19.033l-6.914,31.576h19.792l1.384-6.319h-8.377Z" transform="translate(1406.526 -4102.208)" fill="#fff"/>
      <path id="패스_6" data-name="패스 6" d="M-1242.488,4133.848h11.8l1.929-5.677h4.083l-.63,5.677h11.665l.387-31.576h-16.5Zm19.9-24.536q-.858,7.9-1.165,13.263h-3.929Q-1226.314,4118.38-1222.584,4109.312Z" transform="translate(1334.952 -4102.209)" fill="#fff"/>
      <path id="패스_7" data-name="패스 7" d="M-1071.249,4102.271h-24.943l-1.384,6.319h6.751l-5.531,25.257h11.414l5.53-25.257h6.778Z" transform="translate(1223.293 -4102.208)" fill="#fff"/>
      <path id="패스_8" data-name="패스 8" d="M-975.417,4102.271h-20.009l-1.384,6.319h7.754l-13.311,20.674-1,4.583h21.039l1.384-6.319h-8.5l12.647-18.938Z" transform="translate(1150.705 -4102.208)" fill="#fff"/>
    </g>
  </g>
</svg>
