<?xml version="1.0" encoding="utf-8"?>
<!-- Generator: Adobe Illustrator 23.0.6, SVG Export Plug-In . SVG Version: 6.00 Build 0)  -->
<svg version="1.1" id="레이어_1" xmlns="http://www.w3.org/2000/svg" xmlns:xlink="http://www.w3.org/1999/xlink" x="0px"
	 y="0px" viewBox="0 0 175 34.9" style="enable-background:new 0 0 175 34.9;" xml:space="preserve">
<style type="text/css">
	.st0{fill:#FFFFFF;}
</style>
<g>
	<g>
		<polygon class="st0" points="18.6,13.5 22,13.5 22,10.1 		"/>
		<path class="st0" d="M17.4,0C7.8,0,0,7.8,0,17.4c0,9.6,7.8,17.4,17.4,17.4s17.4-7.8,17.4-17.4C34.9,7.8,27.1,0,17.4,0z M25.3,15.2
			h-1.6v5.1c0,3.9-3.2,7-7,7s-7-3.2-7-7h1.7c0,2.9,2.4,5.3,5.3,5.3s5.3-2.4,5.3-5.3v-5.1H9.6v-1.7h6.5l7.6-7.6v7.6h1.6V15.2z"/>
	</g>
	<g>
		<path id="패스_2" class="st0" d="M57.5,5.3L57.5,5.3l-13,0v2.3h4.2l-3.2,14.8c-0.1,0.6-0.3,1.2-0.5,1.9
			c-0.2,0.4-0.4,0.6-0.8,0.8c-0.5,0.2-1,0.3-1.5,0.3c-0.2,0-0.6,0-1.1,0l-0.9,4.2H45c1.5,0,3-0.1,4.4-0.3c0.9-0.2,1.8-0.6,2.5-1.2
			c0.6-0.5,1.1-1.1,1.4-1.9c0.2-0.7,0.6-2.3,1.1-4.7l3.1-13.9h0.1V7.3l0.4-2L57.5,5.3z"/>
		<path id="패스_3" class="st0" d="M68.9,5.3c-2.5,2-5.9,3.2-10.1,3.9L58.2,12H59c1.9,0,3.2,0.1,3.7,0.3c0.5,0.2,0.8,0.5,0.8,0.9
			c-0.1,1.1-0.3,2.3-0.6,3.4l-2.8,13h8.4l5.3-24.2L68.9,5.3z"/>
		<path id="패스_4" class="st0" d="M89.9,16.5c1.9-0.3,3.2-0.7,3.9-1.3c0.7-0.6,1.3-1.5,1.6-3c0.5-2.1,0.4-3.6-0.3-4.6
			c-0.7-1-1.8-1.7-3-1.9c-2-0.4-4.1-0.5-6.2-0.5h-8.7l-5.3,24.2H82c3.5,0,5.9-0.1,7.1-0.4c1.1-0.2,2.1-0.8,2.8-1.6
			c0.8-1.1,1.4-2.3,1.6-3.6l0.5-2.2c0.3-1.6,0.2-2.7-0.3-3.5C93.1,17.4,91.8,16.8,89.9,16.5z M85.4,20.9l-0.5,2.3
			c-0.2,1-0.5,1.6-0.9,1.8c-0.8,0.3-1.6,0.5-2.5,0.4l1.5-6.8c1.3,0,2.1,0.2,2.3,0.4C85.6,19.2,85.6,19.9,85.4,20.9L85.4,20.9z
			 M87.4,11.8c-0.3,1.4-0.6,2.3-0.9,2.6c-0.5,0.4-1.1,0.5-1.7,0.5c-0.2,0-0.5,0-0.9,0L85,9.5c0.6,0,1.2,0,1.8,0.1
			c0.3,0.1,0.5,0.3,0.6,0.6C87.5,10.7,87.5,11.3,87.4,11.8L87.4,11.8z"/>
		<path id="패스_5" class="st0" d="M106.1,19.4h5.5l1-4.6h-5.5l1-4.6h5.8l1.1-4.8h-14.6l-5.3,24.2h15.2l1.1-4.8H105L106.1,19.4z"
			/>
		<path id="패스_6" class="st0" d="M111.5,29.6h9l1.5-4.4h3.1l-0.5,4.4h8.9l0.3-24.2h-12.6L111.5,29.6z M126.7,10.7
			c-0.4,4-0.7,7.4-0.9,10.2h-3C123.5,18.8,124.8,15.4,126.7,10.7L126.7,10.7z"/>
		<path id="패스_7" class="st0" d="M157.2,5.3H138l-1.1,4.8h5.2l-4.2,19.4h8.8l4.2-19.4h5.2L157.2,5.3z"/>
		<path id="패스_8" class="st0" d="M175,5.3h-15.3l-1.1,4.8h5.9L154.3,26l-0.8,3.5h16.1l1.1-4.8h-6.5l9.7-14.5L175,5.3z"/>
	</g>
</g>
</svg>
