<svg xmlns="http://www.w3.org/2000/svg" width="20" height="20" viewBox="0 0 20 20">
  <g id="btn_add" transform="translate(-313 -78)">
    <g id="타원_17" data-name="타원 17" transform="translate(313 78)" fill="none" stroke="#b4b4b4" stroke-width="1">
      <circle cx="10" cy="10" r="10" stroke="none"/>
      <circle cx="10" cy="10" r="9.5" fill="none"/>
    </g>
    <path id="btn_add-2" data-name="btn_add" d="M4.589-7.332a.663.663,0,0,1,.37.1.364.364,0,0,1,.161.329v3.117H8.189a.348.348,0,0,1,.305.137.615.615,0,0,1,.1.362.594.594,0,0,1-.1.337.34.34,0,0,1-.305.145H5.119V.558a.364.364,0,0,1-.161.329.663.663,0,0,1-.37.1.7.7,0,0,1-.378-.1A.359.359,0,0,1,4.043.558V-2.8H.99a.34.34,0,0,1-.305-.145.594.594,0,0,1-.1-.337.615.615,0,0,1,.1-.362A.348.348,0,0,1,.99-3.781H4.043V-6.9a.359.359,0,0,1,.169-.329A.7.7,0,0,1,4.589-7.332Z" transform="translate(318.412 91.333)" fill="#b4b4b4"/>
  </g>
</svg>
