<svg xmlns="http://www.w3.org/2000/svg" width="93" height="93" viewBox="0 0 93 93">
  <g id="empty_board" transform="translate(-1021 -741)">
    <path id="패스_189" data-name="패스 189" d="M46.5,0A46.5,46.5,0,1,1,0,46.5,46.5,46.5,0,0,1,46.5,0Z" transform="translate(1021 741)" fill="#e8d1ff"/>
    <circle id="타원_125" data-name="타원 125" cx="36.344" cy="36.344" r="36.344" transform="translate(1031.001 751)" fill="#d4aeef"/>
    <g id="그룹_3709" data-name="그룹 3709" transform="translate(0.537 1.962)">
      <path id="Path_10" data-name="Path 10" d="M0,0V33.922H29.076V10.793L16.153,0Z" transform="translate(1052.462 768.039)" fill="none" stroke="#fff" stroke-linecap="round" stroke-linejoin="round" stroke-miterlimit="10" stroke-width="2.5"/>
      <path id="Path" d="M0,0V12.11H12.923" transform="translate(1068.615 768.039)" fill="none" stroke="#fff" stroke-linecap="round" stroke-linejoin="round" stroke-miterlimit="10" stroke-width="2.5"/>
    </g>
    <circle id="타원_127" data-name="타원 127" cx="13.775" cy="13.775" r="13.775" transform="translate(1075.25 788.387)" fill="#fff" stroke="#d4aeef" stroke-miterlimit="10" stroke-width="2"/>
    <g id="그룹_3690" data-name="그룹 3690" transform="translate(1084.204 797.34)">
      <line id="선_468" data-name="선 468" x2="9.645" y2="9.645" fill="none" stroke="#d4aeef" stroke-linecap="round" stroke-miterlimit="10" stroke-width="2"/>
      <line id="선_469" data-name="선 469" x1="9.645" y2="9.645" fill="none" stroke="#d4aeef" stroke-linecap="round" stroke-miterlimit="10" stroke-width="2"/>
    </g>
    <line id="선_470" data-name="선 470" x2="4.326" y2="4.326" transform="translate(1098.954 811.115)" fill="none" stroke="#d4aeef" stroke-miterlimit="10" stroke-width="2"/>
    <path id="패스_160" data-name="패스 160" d="M57.134,53.091l1.507-1.507a2.247,2.247,0,0,0,0-3.191L54.528,44.28a2.247,2.247,0,0,0-3.191,0L49.83,45.787a2.247,2.247,0,0,0,0,3.191l4.113,4.113A2.247,2.247,0,0,0,57.134,53.091Z" transform="translate(1052.971 770.683)" fill="#fff" stroke="#d4aeef" stroke-miterlimit="10" stroke-width="2"/>
  </g>
</svg>
