<svg xmlns="http://www.w3.org/2000/svg" width="93" height="93" viewBox="0 0 93 93">
  <g id="empty_coupon" transform="translate(-1021 -741)">
    <circle id="타원_126" data-name="타원 126" cx="46.5" cy="46.5" r="46.5" transform="translate(1021 741)" fill="#f9f5fd"/>
    <circle id="타원_125" data-name="타원 125" cx="36.344" cy="36.344" r="36.344" transform="translate(1031.001 751)" fill="#f2e8f9"/>
    <g id="icon_coupon" transform="translate(-110.258 746.986)">
      <g id="그룹_3677" data-name="그룹 3677" transform="translate(1155 29)">
        <path id="패스_152" data-name="패스 152" d="M43.861.5H13.416L11.571,2.345,9.726.5h-8.3A.922.922,0,0,0,.5,1.422V23.563a.922.922,0,0,0,.923.922h8.3l1.845-1.843,1.845,1.843H43.861a.923.923,0,0,0,.922-.922V1.422A.923.923,0,0,0,43.861.5Z" transform="translate(-0.5 -0.5)" fill="none" stroke="#fff" stroke-linejoin="round" stroke-miterlimit="10" stroke-width="2.5"/>
      </g>
      <g id="그룹_3678" data-name="그룹 3678" transform="translate(1172.439 41.885) rotate(-45)">
        <line id="선_237" data-name="선 237" x1="16.173" y1="0.009" transform="translate(0 6.557)" fill="none" stroke="#fff" stroke-linecap="round" stroke-linejoin="round" stroke-miterlimit="10" stroke-width="2.5"/>
        <path id="패스_73" data-name="패스 73" d="M1.956,1.956a1.145,1.145,0,1,1,0-1.62A1.144,1.144,0,0,1,1.956,1.956Z" transform="translate(7.143 11.227)" fill="#fff" stroke="#fff" stroke-miterlimit="10" stroke-width="2.5"/>
        <path id="패스_74" data-name="패스 74" d="M1.956,1.956a1.145,1.145,0,1,1,0-1.62A1.144,1.144,0,0,1,1.956,1.956Z" transform="translate(7.143 0)" fill="#fff" stroke="#fff" stroke-miterlimit="10" stroke-width="2.5"/>
      </g>
      <path id="패스_178" data-name="패스 178" d="M118.306,194.38a.945.945,0,1,1,.947-.945A.945.945,0,0,1,118.306,194.38Z" transform="translate(1047.779 -147.033)" fill="#fff"/>
      <path id="패스_179" data-name="패스 179" d="M118.306,155.012a.946.946,0,1,1,.947-.945A.946.946,0,0,1,118.306,155.012Z" transform="translate(1047.779 -111.155)" fill="#fff"/>
      <path id="패스_180" data-name="패스 180" d="M118.306,112.361a.946.946,0,1,1,.947-.946A.946.946,0,0,1,118.306,112.361Z" transform="translate(1047.779 -72.287)" fill="#fff"/>
      <path id="패스_181" data-name="패스 181" d="M118.306,69.7a.945.945,0,1,1,.947-.945A.945.945,0,0,1,118.306,69.7Z" transform="translate(1047.779 -33.408)" fill="#fff"/>
    </g>
    <circle id="타원_127" data-name="타원 127" cx="13.775" cy="13.775" r="13.775" transform="translate(1075.25 788.387)" fill="#fff" stroke="#ead9f5" stroke-miterlimit="10" stroke-width="2"/>
    <g id="그룹_3690" data-name="그룹 3690" transform="translate(1084.204 797.34)">
      <line id="선_468" data-name="선 468" x2="9.645" y2="9.645" fill="none" stroke="#ead9f5" stroke-linecap="round" stroke-miterlimit="10" stroke-width="2"/>
      <line id="선_469" data-name="선 469" x1="9.645" y2="9.645" fill="none" stroke="#ead9f5" stroke-linecap="round" stroke-miterlimit="10" stroke-width="2"/>
    </g>
    <line id="선_470" data-name="선 470" x2="4.326" y2="4.326" transform="translate(1098.954 811.115)" fill="none" stroke="#ead9f5" stroke-miterlimit="10" stroke-width="2"/>
    <path id="패스_160" data-name="패스 160" d="M57.134,53.091l1.507-1.507a2.247,2.247,0,0,0,0-3.191L54.528,44.28a2.247,2.247,0,0,0-3.191,0L49.83,45.787a2.247,2.247,0,0,0,0,3.191l4.113,4.113A2.247,2.247,0,0,0,57.134,53.091Z" transform="translate(1052.971 770.683)" fill="#fff" stroke="#ead9f5" stroke-miterlimit="10" stroke-width="2"/>
  </g>
</svg>
