<svg xmlns="http://www.w3.org/2000/svg" width="93" height="93" viewBox="0 0 93 93">
  <g id="empty_inquiry" transform="translate(-1021 -741)">
    <circle id="타원_126" data-name="타원 126" cx="46.5" cy="46.5" r="46.5" transform="translate(1021 741)" fill="#f9f5fd"/>
    <circle id="타원_125" data-name="타원 125" cx="36.344" cy="36.344" r="36.344" transform="translate(1031.001 751)" fill="#f2e8f9"/>
    <g id="그룹_3707" data-name="그룹 3707" transform="translate(0 1)">
      <path id="패스_182" data-name="패스 182" d="M0,14.5C0,6.5,8.122,0,18.129,0S36.258,6.5,36.258,14.5s-8.122,14.5-18.129,14.5L2.265,31.162l3.9-5.782C2.393,22.726,0,18.839,0,14.5Z" transform="translate(1049.501 771)" fill="none" stroke="#fff" stroke-linecap="round" stroke-linejoin="round" stroke-width="2.5"/>
      <g id="패스_183" data-name="패스 183" transform="translate(1066 791.121)" fill="#fff">
        <path d="M 1.528077244758606 1.806157231330872 C 1.374747276306152 1.806157231330872 1.24999725818634 1.68140721321106 1.24999725818634 1.528077244758606 C 1.24999725818634 1.374747276306152 1.374747276306152 1.24999725818634 1.528077244758606 1.24999725818634 C 1.68140721321106 1.24999725818634 1.806157231330872 1.374747276306152 1.806157231330872 1.528077244758606 C 1.806157231330872 1.68140721321106 1.68140721321106 1.806157231330872 1.528077244758606 1.806157231330872 Z" stroke="none"/>
        <path d="M 1.528077244758606 -2.86102294921875e-06 C 2.372007369995117 -2.86102294921875e-06 3.056157350540161 0.6841473579406738 3.056157350540161 1.528077244758606 C 3.056157350540161 2.372007369995117 2.372007369995117 3.056157350540161 1.528077244758606 3.056157350540161 C 0.6841473579406738 3.056157350540161 -2.86102294921875e-06 2.372007369995117 -2.86102294921875e-06 1.528077244758606 C -2.86102294921875e-06 0.6841473579406738 0.6841473579406738 -2.86102294921875e-06 1.528077244758606 -2.86102294921875e-06 Z" stroke="none" fill="#fff"/>
      </g>
      <path id="패스_184" data-name="패스 184" d="M.45,2.191A3.1,3.1,0,1,1,4.385,6.467,1.885,1.885,0,0,0,3.208,8.22V9.507" transform="translate(1064.052 778.912)" fill="rgba(0,0,0,0)" stroke="#fff" stroke-linecap="round" stroke-miterlimit="10" stroke-width="2.5"/>
    </g>
    <circle id="타원_127" data-name="타원 127" cx="13.775" cy="13.775" r="13.775" transform="translate(1075.25 788.387)" fill="#fff" stroke="#ead9f5" stroke-miterlimit="10" stroke-width="2"/>
    <g id="그룹_3690" data-name="그룹 3690" transform="translate(1084.204 797.34)">
      <line id="선_468" data-name="선 468" x2="9.645" y2="9.645" fill="none" stroke="#ead9f5" stroke-linecap="round" stroke-miterlimit="10" stroke-width="2"/>
      <line id="선_469" data-name="선 469" x1="9.645" y2="9.645" fill="none" stroke="#ead9f5" stroke-linecap="round" stroke-miterlimit="10" stroke-width="2"/>
    </g>
    <line id="선_470" data-name="선 470" x2="4.326" y2="4.326" transform="translate(1098.954 811.115)" fill="none" stroke="#ead9f5" stroke-miterlimit="10" stroke-width="2"/>
    <path id="패스_160" data-name="패스 160" d="M57.134,53.091l1.507-1.507a2.247,2.247,0,0,0,0-3.191L54.528,44.28a2.247,2.247,0,0,0-3.191,0L49.83,45.787a2.247,2.247,0,0,0,0,3.191l4.113,4.113A2.247,2.247,0,0,0,57.134,53.091Z" transform="translate(1052.971 770.683)" fill="#fff" stroke="#ead9f5" stroke-miterlimit="10" stroke-width="2"/>
  </g>
</svg>
