<svg xmlns="http://www.w3.org/2000/svg" width="48.881" height="48.511" viewBox="0 0 48.881 48.511">
  <g id="icon_share_band" transform="translate(-218.537 -238.919)">
    <path id="사각형_1182" data-name="사각형 1182" d="M10.281,0H38.6A10.285,10.285,0,0,1,48.88,10.285V38.227A10.284,10.284,0,0,1,38.6,48.51H10.283A10.283,10.283,0,0,1,0,38.227V10.281A10.281,10.281,0,0,1,10.281,0Z" transform="translate(218.536 238.919)" fill="#494951"/>
    <path id="패스_209" data-name="패스 209" d="M255.216,248.944H232.484a6.354,6.354,0,0,0-6.189,6.492,6.248,6.248,0,0,0,6.189,6.434h22.732a6.249,6.249,0,0,0,6.19-6.434,6.355,6.355,0,0,0-6.19-6.492m-.146,12.023H232.628a5.566,5.566,0,0,1,0-11.126H255.07a5.566,5.566,0,0,1,0,11.126m-19.432-5.7a1.722,1.722,0,0,0,.742-1.533,1.948,1.948,0,0,0-2.093-1.978h-2.2a1.027,1.027,0,0,0-1.062,1.084V258a1.014,1.014,0,0,0,1.062,1.077h2.233a2.028,2.028,0,0,0,2.251-2.161,1.726,1.726,0,0,0-.928-1.652m-3.091-1.983h1.515c.554,0,.79.2.79.666s-.256.681-.79.681h-1.515Zm1.613,4.281h-1.613v-1.53h1.632c.39,0,.852.134.852.766,0,.52-.277.764-.871.764m7.552-4.873a1.442,1.442,0,0,0-2.77,0l-1.864,5.342a.818.818,0,0,0,.425,1.018.666.666,0,0,0,.276.054.784.784,0,0,0,.719-.506l.517-1.565h2.605l.516,1.565a.743.743,0,0,0,.708.5.693.693,0,0,0,.284-.06.815.815,0,0,0,.428-1.005Zm-2.234,2.923.763-2.3a.09.09,0,0,1,.08-.058.074.074,0,0,1,.07.061l.755,2.3Zm14.438-3.86h-1.5a.992.992,0,0,0-1.061,1.06V258a1.021,1.021,0,0,0,1.061,1.077h1.5a3.059,3.059,0,0,0,3.345-3.154,8.256,8.256,0,0,0-.01-1.1,3.016,3.016,0,0,0-3.335-3.066m1.808,4.107a1.59,1.59,0,0,1-1.78,1.672H252.88V253.3h1.065a1.607,1.607,0,0,1,1.791,1.748,7.714,7.714,0,0,1-.011.818m-6.125-4.15a.772.772,0,0,0-.759.8v4.292l-2.407-4.435a1.192,1.192,0,0,0-1.067-.641,1.153,1.153,0,0,0-1.162,1.245v5.349a.806.806,0,0,0,.768.812.774.774,0,0,0,.75-.812V253.9l2.485,4.557a1.209,1.209,0,0,0,1.09.664,1.089,1.089,0,0,0,1.062-1.156v-5.447a.772.772,0,0,0-.759-.8" transform="translate(-1.053 -1.36)" fill="#fff"/>
    <rect id="사각형_1183" data-name="사각형 1183" width="48.877" height="8.113" transform="translate(218.54 269.73)" fill="#64b569"/>
  </g>
</svg>
