<svg xmlns="http://www.w3.org/2000/svg" width="18" height="18" viewBox="0 0 18 18">
  <g id="icon_question" transform="translate(-560 -1459)">
    <g id="타원_57" data-name="타원 57" transform="translate(560 1459)" fill="#fff" stroke="#c8c8c8" stroke-width="1">
      <circle cx="9" cy="9" r="9" stroke="none"/>
      <circle cx="9" cy="9" r="8.5" fill="none"/>
    </g>
    <path id="패스_187" data-name="패스 187" d="M2.388-2.352a3.82,3.82,0,0,1,.078-1.122,2.615,2.615,0,0,1,.312-.762,3.012,3.012,0,0,1,.438-.546q.24-.234.456-.486a2.438,2.438,0,0,0,.366-.582A2.146,2.146,0,0,0,4.2-6.684a1.679,1.679,0,0,0-.078-.582,1.39,1.39,0,0,0-.264-.486,1.34,1.34,0,0,0-.426-.33,1.271,1.271,0,0,0-.576-.126,1.51,1.51,0,0,0-.468.078,1.194,1.194,0,0,0-.45.276,1.585,1.585,0,0,0-.354.528,2.557,2.557,0,0,0-.18.834H.48A3.364,3.364,0,0,1,.786-7.806a2.509,2.509,0,0,1,.618-.81,1.986,1.986,0,0,1,.774-.408,3.158,3.158,0,0,1,.8-.108,2.116,2.116,0,0,1,.912.192,2.178,2.178,0,0,1,.7.51,2.157,2.157,0,0,1,.438.75,2.8,2.8,0,0,1,.15.924,2.668,2.668,0,0,1-.15.954,2.907,2.907,0,0,1-.372.69,4.568,4.568,0,0,1-.48.552,3.879,3.879,0,0,0-.468.552,2.436,2.436,0,0,0-.33.7,2.735,2.735,0,0,0-.084.96ZM2.82.156a.772.772,0,0,1-.558-.228.8.8,0,0,1-.234-.6.84.84,0,0,1,.234-.612.752.752,0,0,1,.558-.24.766.766,0,0,1,.57.24.84.84,0,0,1,.234.612.8.8,0,0,1-.234.6A.786.786,0,0,1,2.82.156Z" transform="translate(566 1473)" fill="#c8c8c8"/>
  </g>
</svg>
