<svg xmlns="http://www.w3.org/2000/svg" xmlns:xlink="http://www.w3.org/1999/xlink" width="60.255" height="29.094" viewBox="0 0 60.255 29.094">
  <defs>
    <linearGradient id="linear-gradient" x1="0.5" x2="0.5" y2="1" gradientUnits="objectBoundingBox">
      <stop offset="0" stop-color="#bf71f2"/>
      <stop offset="1" stop-color="#60a5ff"/>
    </linearGradient>
  </defs>
  <path id="icon_pw" d="M-28.821-2.691a3.137,3.137,0,0,0,.878,2.321,3.137,3.137,0,0,0,2.32.878,3.122,3.122,0,0,0,2.34-.878,3.177,3.177,0,0,0,.858-2.321v-7.6h7.1A9.938,9.938,0,0,0-8.17-12.773a8.472,8.472,0,0,0,2.594-6.415,9.82,9.82,0,0,0-.741-3.959,7.36,7.36,0,0,0-2.067-2.788,8.735,8.735,0,0,0-3.081-1.618,13.251,13.251,0,0,0-3.822-.527h-9.789a4.045,4.045,0,0,0-2.788.858,3.725,3.725,0,0,0-.955,2.886Zm6.4-20.475h5.3a6.4,6.4,0,0,1,3.8.975,3.461,3.461,0,0,1,1.345,3A3.622,3.622,0,0,1-13.241-16.3a4.754,4.754,0,0,1-3.217,1.092h-5.967Zm53.547-.7a7.627,7.627,0,0,0,.312-1.833,2.586,2.586,0,0,0-.936-2.125,3.306,3.306,0,0,0-2.145-.761q-2.34,0-2.886,2.613L21.645-7.332h-.078L17.316-25.545a4.751,4.751,0,0,0-1.072-2.3,3.507,3.507,0,0,0-2.555-.741,3.849,3.849,0,0,0-2.379.566,3.085,3.085,0,0,0-.975,1.813L5.967-7.332H5.889L2.106-25.974a2.857,2.857,0,0,0-3-2.613,3.306,3.306,0,0,0-2.145.761A2.586,2.586,0,0,0-3.978-25.7a7.627,7.627,0,0,0,.312,1.833l5.5,21.333A4.28,4.28,0,0,0,3.12-.176,4.083,4.083,0,0,0,5.694.507,3.837,3.837,0,0,0,8.287-.234,4.51,4.51,0,0,0,9.516-2.652l4.173-17.121h.078L17.94-2.652A4.8,4.8,0,0,0,19.188-.234a3.758,3.758,0,0,0,2.574.741,4.07,4.07,0,0,0,2.594-.683,4.352,4.352,0,0,0,1.267-2.36Z" transform="translate(28.821 28.587)" fill="url(#linear-gradient)"/>
</svg>
