<svg xmlns="http://www.w3.org/2000/svg" width="22" height="22" viewBox="0 0 22 22">
  <g id="그룹_3526" data-name="그룹 3526" transform="translate(-454 -147)">
    <circle id="타원_100" data-name="타원 100" cx="11" cy="11" r="11" transform="translate(454 147)" fill="#c8c8c8"/>
    <path id="패스_128" data-name="패스 128" d="M1.531-7.926,1.461-9.88H3.542l-.07,1.954-.3,5.187H1.827ZM2.5,1A1.205,1.205,0,0,1,1.588.614a1.347,1.347,0,0,1-.366-.963,1.347,1.347,0,0,1,.366-.963A1.205,1.205,0,0,1,2.5-1.7a1.228,1.228,0,0,1,.921.387,1.333,1.333,0,0,1,.373.963,1.333,1.333,0,0,1-.373.963A1.228,1.228,0,0,1,2.5,1Z" transform="translate(462.511 162.287)" fill="#fff"/>
  </g>
</svg>
