<svg xmlns="http://www.w3.org/2000/svg" width="19" height="18.149" viewBox="0 0 19 18.149">
  <path id="icon_stat-on_1" d="M10.628.891l2.391,4.851a.707.707,0,0,0,.524.384L18.9,6.9a.7.7,0,0,1,.384,1.2L15.41,11.873a.706.706,0,0,0-.2.622l.916,5.334a.7.7,0,0,1-1.014.734l-4.789-2.517a.711.711,0,0,0-.65,0L4.882,18.563a.7.7,0,0,1-1.014-.734l.916-5.334a.693.693,0,0,0-.2-.622L.709,8.1a.7.7,0,0,1,.384-1.2l5.355-.776a.723.723,0,0,0,.531-.384L9.377.891A.694.694,0,0,1,10.628.891Z" transform="translate(-0.497 -0.498)" fill="#ffd600"/>
</svg>
