<svg xmlns="http://www.w3.org/2000/svg" width="14.01" height="12.486" viewBox="0 0 14.01 12.486">
  <g id="icon_folder" transform="translate(-3 -9)">
    <path id="패스_190" data-name="패스 190" d="M15.006,13.322V11.4a.96.96,0,0,0-.96-.96h-4.4a.96.96,0,0,1-.679-.281l-.878-.878A.96.96,0,0,0,7.4,9H3.96A.96.96,0,0,0,3,9.96V20.045H15.006Z" transform="translate(0)" fill="#ffb300"/>
    <path id="패스_191" data-name="패스 191" d="M17.644,21H9.48a.48.48,0,0,0-.48.48v3.655l.734-2.053a.96.96,0,0,1,.906-.641h7.484v-.96A.48.48,0,0,0,17.644,21Z" transform="translate(-4.559 -9.119)" fill="#fff"/>
    <path id="패스_192" data-name="패스 192" d="M16.049,27H6.081a.96.96,0,0,0-.906.641l-.734,2.053L3,33.723v.48a.96.96,0,0,0,.96.96h9.886a.96.96,0,0,0,.906-.641l2.2-6.243A.96.96,0,0,0,16.049,27Z" transform="translate(0 -13.678)" fill="#ffd83a"/>
    <path id="패스_193" data-name="패스 193" d="M16.049,27h-.992c-.007.026-.013.053-.023.079l-2.2,6.243a.96.96,0,0,1-.906.641H3v.24a.96.96,0,0,0,.96.96h9.886a.96.96,0,0,0,.906-.641l2.2-6.243A.96.96,0,0,0,16.049,27Z" transform="translate(0 -13.678)" fill="#ffcd00"/>
  </g>
</svg>
