<svg xmlns="http://www.w3.org/2000/svg" width="48.41" height="48.411" viewBox="0 0 48.41 48.411">
  <g id="icon_share_kakaostory" transform="translate(20713 14888.819)">
    <path id="icon_share_kakaostory-2" data-name="icon_share_kakaostory" d="M11.274,0H37.136A11.274,11.274,0,0,1,48.411,11.274V37.136A11.274,11.274,0,0,1,37.136,48.411H11.274A11.274,11.274,0,0,1,0,37.136V11.274A11.274,11.274,0,0,1,11.274,0Z" transform="translate(-20713 -14888.819)" fill="#f3be08"/>
    <path id="패스_208" data-name="패스 208" d="M264.89,449.936h-12.9a1.564,1.564,0,0,0-1.57,1.561v12.8a1.563,1.563,0,0,0,1.57,1.56h5.95a9.665,9.665,0,0,1-1.6,4.646,18.688,18.688,0,0,1-3.265,3.5.851.851,0,0,0-.3.626.881.881,0,0,0,.22.527l4.149,4.655a.975.975,0,0,0,.37.249.64.64,0,0,0,.548-.063,20.844,20.844,0,0,0,8.4-16.2V451.5a1.566,1.566,0,0,0-1.569-1.561" transform="translate(-20947.418 -15327.906)" fill="#fff"/>
  </g>
</svg>
