<svg xmlns="http://www.w3.org/2000/svg" width="66.614" height="75.33" viewBox="0 0 66.614 75.33">
  <g id="그룹_3854" data-name="그룹 3854" transform="translate(-2806 -2398.716)">
    <circle id="타원_30" data-name="타원 30" cx="30.307" cy="30.307" r="30.307" transform="translate(2809 2410.432)" fill="#fabb3c" stroke="#272720" stroke-miterlimit="10" stroke-width="6"/>
    <g id="그룹_24" data-name="그룹 24" transform="translate(2826.318 2433.905)">
      <circle id="타원_31" data-name="타원 31" cx="1.676" cy="1.676" r="1.676" fill="#272720"/>
      <circle id="타원_32" data-name="타원 32" cx="1.676" cy="1.676" r="1.676" transform="translate(22.625)" fill="#272720"/>
    </g>
    <g id="그룹_25" data-name="그룹 25" transform="translate(2827.588 2398.716)">
      <path id="패스_52" data-name="패스 52" d="M740.367,568.486a6.3,6.3,0,0,1-4.484-1.857h0a6.349,6.349,0,0,1,0-8.968l8.293-8.294a6.342,6.342,0,1,1,8.968,8.969l-8.293,8.293A6.3,6.3,0,0,1,740.367,568.486Z" transform="translate(-732.795 -546.278)" fill="#fabb3c"/>
      <path id="패스_53" data-name="패스 53" d="M740.367,568.486a6.3,6.3,0,0,1-4.484-1.857h0a6.349,6.349,0,0,1,0-8.968l8.293-8.294a6.342,6.342,0,1,1,8.968,8.969l-8.293,8.293A6.3,6.3,0,0,1,740.367,568.486Zm8.293-19a4.357,4.357,0,0,0-3.088,1.277l-8.294,8.294a4.373,4.373,0,0,0,0,6.177h0a4.368,4.368,0,0,0,6.177,0l8.294-8.293a4.366,4.366,0,0,0-3.089-7.455Z" transform="translate(-732.795 -546.278)" fill="#272720"/>
      <rect id="사각형_190" data-name="사각형 190" width="10.709" height="22.438" rx="5.355" transform="translate(0 7.573) rotate(-45)" fill="#fff"/>
      <path id="패스_54" data-name="패스 54" d="M748.661,568.486a6.3,6.3,0,0,1-4.484-1.857l-8.293-8.293a6.342,6.342,0,0,1,8.968-8.969l8.293,8.294a6.349,6.349,0,0,1,0,8.968h0A6.3,6.3,0,0,1,748.661,568.486Zm-8.293-19a4.366,4.366,0,0,0-3.089,7.455l8.294,8.293a4.368,4.368,0,0,0,6.177,0h0a4.374,4.374,0,0,0,0-6.177l-8.294-8.294A4.357,4.357,0,0,0,740.367,549.485Z" transform="translate(-732.795 -546.278)" fill="#272720"/>
      <path id="패스_55" data-name="패스 55" d="M748.266,565.587a1.888,1.888,0,0,1-1.344-.557l-3.585-3.585a1.9,1.9,0,0,1,0-2.686l1.928-1.926a1.947,1.947,0,0,1,2.686,0l3.585,3.584a1.9,1.9,0,0,1,0,2.686l-1.928,1.927A1.888,1.888,0,0,1,748.266,565.587Z" transform="translate(-735.718 -549.211)" fill="#fcd592"/>
      <path id="패스_56" data-name="패스 56" d="M748.266,565.587a1.888,1.888,0,0,1-1.344-.557l-3.585-3.585a1.9,1.9,0,0,1,0-2.686l1.928-1.926a1.947,1.947,0,0,1,2.686,0l3.585,3.584a1.9,1.9,0,0,1,0,2.686l-1.928,1.927A1.888,1.888,0,0,1,748.266,565.587Zm-1.658-7.832a.419.419,0,0,0-.3.123l-1.928,1.927a.42.42,0,0,0,0,.593l3.585,3.585a.43.43,0,0,0,.593,0l1.927-1.928a.419.419,0,0,0,0-.593l-3.584-3.584A.421.421,0,0,0,746.608,557.755Z" transform="translate(-735.718 -549.211)" fill="#272720"/>
      <circle id="타원_33" data-name="타원 33" cx="0.386" cy="0.386" r="0.386" transform="translate(4.127 15.435)" fill="#272720"/>
      <circle id="타원_34" data-name="타원 34" cx="0.386" cy="0.386" r="0.386" transform="translate(6.925 17.848)" fill="#272720"/>
      <circle id="타원_35" data-name="타원 35" cx="0.386" cy="0.386" r="0.386" transform="translate(15.321 4.82)" fill="#272720"/>
      <circle id="타원_36" data-name="타원 36" cx="0.386" cy="0.386" r="0.386" transform="translate(18.12 7.232)" fill="#272720"/>
    </g>
    <path id="패스_57" data-name="패스 57" d="M752.57,616a.815.815,0,0,0-.788.579,5.871,5.871,0,0,1-11.3,0,.815.815,0,0,0-.788-.579h0a.824.824,0,0,0-.785,1.06,7.518,7.518,0,0,0,14.447,0,.824.824,0,0,0-.785-1.06Z" transform="translate(2093.174 1829.568)" fill="#272720"/>
    <g id="그룹_26" data-name="그룹 26" transform="translate(2816.66 2441.572)">
      <ellipse id="타원_37" data-name="타원 37" cx="3.997" cy="1.665" rx="3.997" ry="1.665" fill="#fcd592"/>
      <ellipse id="타원_38" data-name="타원 38" cx="3.997" cy="1.665" rx="3.997" ry="1.665" transform="translate(37.301)" fill="#fcd592"/>
    </g>
  </g>
</svg>
