<svg xmlns="http://www.w3.org/2000/svg" width="72.868" height="72.88" viewBox="0 0 72.868 72.88">
  <g id="그룹_3773" data-name="그룹 3773" transform="translate(-151.566 -153.563)">
    <path id="패스_47" data-name="패스 47" d="M368.208,407.392a21.883,21.883,0,0,1-15.58-6.454h0a22.058,22.058,0,0,1,0-31.161l28.819-28.821a22.036,22.036,0,1,1,31.161,31.165l-28.819,28.817A21.882,21.882,0,0,1,368.208,407.392Z" transform="translate(-194.618 -180.948)" fill="#fabb3c"/>
    <path id="패스_48" data-name="패스 48" d="M368.208,407.392a21.883,21.883,0,0,1-15.58-6.454h0a22.058,22.058,0,0,1,0-31.161l28.819-28.821a22.036,22.036,0,1,1,31.161,31.165l-28.819,28.817A21.882,21.882,0,0,1,368.208,407.392Zm28.819-66.023a15.135,15.135,0,0,0-10.732,4.437l-28.819,28.821a15.194,15.194,0,0,0,0,21.463h0a15.178,15.178,0,0,0,21.463,0l28.819-28.817a15.17,15.17,0,0,0-10.731-25.9Z" transform="translate(-194.618 -180.948)" fill="#272720"/>
    <circle id="타원_18" data-name="타원 18" cx="1.428" cy="1.428" r="1.428" transform="translate(161.409 202.894)" fill="#272720"/>
    <circle id="타원_19" data-name="타원 19" cx="1.428" cy="1.428" r="1.428" transform="translate(171.181 211.318)" fill="#272720"/>
    <circle id="타원_20" data-name="타원 20" cx="1.428" cy="1.428" r="1.428" transform="translate(200.497 165.829)" fill="#272720"/>
    <circle id="타원_21" data-name="타원 21" cx="1.428" cy="1.428" r="1.428" transform="translate(210.269 174.253)" fill="#272720"/>
  </g>
</svg>
