<svg xmlns="http://www.w3.org/2000/svg" width="103" height="103" viewBox="0 0 103 103">
  <g id="그룹_3855" data-name="그룹 3855" transform="translate(-136 -223)">
    <circle id="타원_449" data-name="타원 449" cx="51.5" cy="51.5" r="51.5" transform="translate(136 223)" fill="#fff"/>
    <g id="그룹_3673" data-name="그룹 3673" transform="translate(158 235)">
      <path id="패스_2995" data-name="패스 2995" d="M22.828,0C35.436,0,45.656,2.044,45.656,4.566S35.436,9.131,22.828,9.131,0,7.087,0,4.566,10.22,0,22.828,0Z" transform="translate(6.783 69.358)" fill="#f0f0f0"/>
      <circle id="타원_30" data-name="타원 30" cx="29.676" cy="29.676" r="29.676" transform="translate(0 11.473)" fill="#fabb3c" stroke="#272720" stroke-miterlimit="10" stroke-width="6"/>
      <g id="그룹_24" data-name="그룹 24" transform="translate(16.958 34.458)">
        <circle id="타원_31" data-name="타원 31" cx="1.641" cy="1.641" r="1.641" fill="#272720"/>
        <circle id="타원_32" data-name="타원 32" cx="1.641" cy="1.641" r="1.641" transform="translate(22.155)" fill="#272720"/>
      </g>
      <g id="그룹_25" data-name="그룹 25" transform="translate(18.201 0)">
        <path id="패스_52" data-name="패스 52" d="M740.236,568.049a6.169,6.169,0,0,1-4.391-1.818h0a6.216,6.216,0,0,1,0-8.782l8.121-8.121a6.21,6.21,0,0,1,8.782,8.782l-8.121,8.121A6.169,6.169,0,0,1,740.236,568.049Z" transform="translate(-732.82 -546.304)" fill="#fabb3c"/>
        <path id="패스_53" data-name="패스 53" d="M740.236,568.049a6.169,6.169,0,0,1-4.391-1.818h0a6.216,6.216,0,0,1,0-8.782l8.121-8.121a6.21,6.21,0,0,1,8.782,8.782l-8.121,8.121A6.169,6.169,0,0,1,740.236,568.049Zm8.121-18.605a4.266,4.266,0,0,0-3.024,1.25l-8.121,8.121a4.282,4.282,0,0,0,0,6.049h0a4.277,4.277,0,0,0,6.048,0l8.122-8.121a4.275,4.275,0,0,0-3.025-7.3Z" transform="translate(-732.82 -546.304)" fill="#272720"/>
        <rect id="사각형_190" data-name="사각형 190" width="10.486" height="21.972" rx="5.243" transform="translate(0 7.415) rotate(-45)" fill="#fff"/>
        <path id="패스_54" data-name="패스 54" d="M748.356,568.049a6.169,6.169,0,0,1-4.391-1.818l-8.121-8.121a6.21,6.21,0,0,1,8.782-8.782l8.121,8.121a6.216,6.216,0,0,1,0,8.782h0A6.168,6.168,0,0,1,748.356,568.049Zm-8.121-18.605a4.275,4.275,0,0,0-3.024,7.3l8.122,8.121a4.277,4.277,0,0,0,6.048,0h0a4.283,4.283,0,0,0,0-6.049l-8.122-8.121A4.266,4.266,0,0,0,740.235,549.444Z" transform="translate(-732.82 -546.304)" fill="#272720"/>
        <path id="패스_55" data-name="패스 55" d="M748.152,565.393a1.849,1.849,0,0,1-1.316-.546l-3.51-3.51a1.863,1.863,0,0,1,0-2.63l1.888-1.886a1.907,1.907,0,0,1,2.63,0l3.51,3.51a1.862,1.862,0,0,1,0,2.63l-1.888,1.887A1.848,1.848,0,0,1,748.152,565.393Z" transform="translate(-735.865 -549.358)" fill="#fcd592"/>
        <path id="패스_56" data-name="패스 56" d="M748.152,565.393a1.849,1.849,0,0,1-1.316-.546l-3.51-3.51a1.863,1.863,0,0,1,0-2.63l1.888-1.886a1.907,1.907,0,0,1,2.63,0l3.51,3.51a1.862,1.862,0,0,1,0,2.63l-1.888,1.887A1.848,1.848,0,0,1,748.152,565.393Zm-1.624-7.669a.41.41,0,0,0-.289.121l-1.888,1.887a.411.411,0,0,0,0,.58l3.51,3.51a.421.421,0,0,0,.58,0l1.887-1.888a.41.41,0,0,0,0-.581l-3.51-3.51A.412.412,0,0,0,746.528,557.724Z" transform="translate(-735.865 -549.358)" fill="#272720"/>
        <circle id="타원_33" data-name="타원 33" cx="0.378" cy="0.378" r="0.378" transform="translate(4.041 15.114)" fill="#272720"/>
        <circle id="타원_34" data-name="타원 34" cx="0.378" cy="0.378" r="0.378" transform="translate(6.781 17.477)" fill="#272720"/>
        <circle id="타원_35" data-name="타원 35" cx="0.378" cy="0.378" r="0.378" transform="translate(15.003 4.719)" fill="#272720"/>
        <circle id="타원_36" data-name="타원 36" cx="0.378" cy="0.378" r="0.378" transform="translate(17.743 7.082)" fill="#272720"/>
      </g>
      <path id="패스_57" data-name="패스 57" d="M752.286,616a.8.8,0,0,0-.772.567,5.749,5.749,0,0,1-11.065,0,.8.8,0,0,0-.772-.567h0a.807.807,0,0,0-.769,1.038,7.362,7.362,0,0,0,14.146,0,.807.807,0,0,0-.769-1.038Z" transform="translate(-716.305 -570.122)" fill="#272720"/>
      <g id="그룹_26" data-name="그룹 26" transform="translate(7.501 41.965)">
        <ellipse id="타원_37" data-name="타원 37" cx="3.913" cy="1.631" rx="3.913" ry="1.631" fill="#fcd592"/>
        <ellipse id="타원_38" data-name="타원 38" cx="3.913" cy="1.631" rx="3.913" ry="1.631" transform="translate(36.525)" fill="#fcd592"/>
      </g>
    </g>
  </g>
</svg>
