<svg xmlns="http://www.w3.org/2000/svg" width="72.87" height="72.881" viewBox="0 0 72.87 72.881">
  <g id="그룹_3778" data-name="그룹 3778" transform="translate(2569.435 1423.437)">
    <path id="패스_3015" data-name="패스 3015" d="M397.028,407.392a21.883,21.883,0,0,0,15.58-6.454h0a22.058,22.058,0,0,0,0-31.161L383.79,340.957a22.035,22.035,0,0,0-31.161,31.165l28.819,28.817A21.882,21.882,0,0,0,397.028,407.392Z" transform="translate(-2915.618 -1757.948)" fill="#fff"/>
    <path id="패스_3016" data-name="패스 3016" d="M391.308,393.809a7,7,0,0,1-4.971-2.061l-13.263-13.264a7.04,7.04,0,0,1,0-9.938l7.134-7.128a7.2,7.2,0,0,1,9.938,0l13.263,13.261a7.03,7.03,0,0,1,0,9.938l-7.13,7.131A6.994,6.994,0,0,1,391.308,393.809Z" transform="translate(-2921.241 -1763.585)" fill="#fcd592"/>
    <g id="그룹_3776" data-name="그룹 3776" transform="translate(-2721 -1577)">
      <path id="패스_49" data-name="패스 49" d="M397.027,407.392a21.882,21.882,0,0,1-15.58-6.454l-28.819-28.817a22.036,22.036,0,1,1,31.161-31.165l28.819,28.821a22.058,22.058,0,0,1,0,31.161h0A21.884,21.884,0,0,1,397.027,407.392Zm-28.819-66.023a15.17,15.17,0,0,0-10.731,25.9L386.3,396.089a15.178,15.178,0,0,0,21.463,0h0a15.194,15.194,0,0,0,0-21.463l-28.819-28.821A15.135,15.135,0,0,0,368.208,341.369Z" transform="translate(-194.618 -180.948)" fill="#272720"/>
      <path id="패스_51" data-name="패스 51" d="M391.308,393.809a7,7,0,0,1-4.971-2.061l-13.263-13.264a7.04,7.04,0,0,1,0-9.938l7.134-7.128a7.2,7.2,0,0,1,9.938,0l13.263,13.261a7.03,7.03,0,0,1,0,9.938l-7.13,7.131A6.994,6.994,0,0,1,391.308,393.809Zm-6.135-28.976a1.537,1.537,0,0,0-1.093.457l-7.133,7.128a1.554,1.554,0,0,0,0,2.193l13.263,13.264a1.589,1.589,0,0,0,2.192,0l7.13-7.132a1.552,1.552,0,0,0,0-2.192L386.269,365.29A1.546,1.546,0,0,0,385.173,364.833Z" transform="translate(-200.241 -186.585)" fill="#272720"/>
    </g>
  </g>
</svg>
