<svg xmlns="http://www.w3.org/2000/svg" width="99.148" height="114.153" viewBox="0 0 99.148 114.153">
  <g id="logo_bcg_character_big" transform="translate(3)">
    <circle id="타원_30" data-name="타원 30" cx="46.574" cy="46.574" r="46.574" transform="translate(0 18.005)" fill="#fabb3c" stroke="#272720" stroke-miterlimit="10" stroke-width="6"/>
    <g id="그룹_24" data-name="그룹 24" transform="translate(26.614 54.078)">
      <circle id="타원_31" data-name="타원 31" cx="2.576" cy="2.576" r="2.576" fill="#272720"/>
      <circle id="타원_32" data-name="타원 32" cx="2.576" cy="2.576" r="2.576" transform="translate(34.77)" fill="#272720"/>
    </g>
    <g id="그룹_25" data-name="그룹 25" transform="translate(28.564 0)">
      <path id="패스_52" data-name="패스 52" d="M743.77,579.743a9.681,9.681,0,0,1-6.891-2.854h0a9.756,9.756,0,0,1,0-13.782l12.745-12.746a9.746,9.746,0,0,1,13.782,13.783l-12.745,12.745A9.681,9.681,0,0,1,743.77,579.743Z" transform="translate(-732.132 -545.616)" fill="#fabb3c"/>
      <path id="패스_53" data-name="패스 53" d="M743.77,579.743a9.681,9.681,0,0,1-6.891-2.854h0a9.756,9.756,0,0,1,0-13.782l12.745-12.746a9.746,9.746,0,0,1,13.782,13.783l-12.745,12.745A9.681,9.681,0,0,1,743.77,579.743Zm12.745-29.2a6.7,6.7,0,0,0-4.745,1.962l-12.746,12.746a6.72,6.72,0,0,0,0,9.493h0a6.712,6.712,0,0,0,9.492,0L761.261,562a6.709,6.709,0,0,0-4.747-11.456Z" transform="translate(-732.132 -545.616)" fill="#272720"/>
      <rect id="사각형_190" data-name="사각형 190" width="16.457" height="34.482" rx="8.039" transform="translate(0 11.637) rotate(-45)" fill="#fff"/>
      <path id="패스_54" data-name="패스 54" d="M756.515,579.743a9.681,9.681,0,0,1-6.891-2.854l-12.745-12.745a9.746,9.746,0,0,1,13.782-13.783l12.745,12.746a9.756,9.756,0,0,1,0,13.782h0A9.681,9.681,0,0,1,756.515,579.743Zm-12.745-29.2A6.709,6.709,0,0,0,739.023,562l12.746,12.745a6.713,6.713,0,0,0,9.492,0h0a6.722,6.722,0,0,0,0-9.493l-12.746-12.746A6.7,6.7,0,0,0,743.769,550.544Z" transform="translate(-732.132 -545.616)" fill="#272720"/>
      <path id="패스_55" data-name="패스 55" d="M751.209,570.574a2.9,2.9,0,0,1-2.065-.857l-5.509-5.509a2.924,2.924,0,0,1,0-4.128l2.962-2.96a2.992,2.992,0,0,1,4.128,0l5.509,5.508a2.923,2.923,0,0,1,0,4.128l-2.962,2.961A2.9,2.9,0,0,1,751.209,570.574Z" transform="translate(-731.926 -545.409)" fill="#fcd592"/>
      <path id="패스_56" data-name="패스 56" d="M751.209,570.574a2.9,2.9,0,0,1-2.065-.857l-5.509-5.509a2.924,2.924,0,0,1,0-4.128l2.962-2.96a2.992,2.992,0,0,1,4.128,0l5.509,5.508a2.923,2.923,0,0,1,0,4.128l-2.962,2.961A2.9,2.9,0,0,1,751.209,570.574Zm-2.548-12.035a.644.644,0,0,0-.454.189l-2.962,2.961a.645.645,0,0,0,0,.911l5.509,5.509a.661.661,0,0,0,.911,0l2.961-2.962a.644.644,0,0,0,0-.911l-5.508-5.508A.647.647,0,0,0,748.661,558.539Z" transform="translate(-731.926 -545.409)" fill="#272720"/>
      <circle id="타원_33" data-name="타원 33" cx="0.593" cy="0.593" r="0.593" transform="translate(6.342 23.72)" fill="#272720"/>
      <circle id="타원_34" data-name="타원 34" cx="0.593" cy="0.593" r="0.593" transform="translate(10.643 27.428)" fill="#272720"/>
      <circle id="타원_35" data-name="타원 35" cx="0.593" cy="0.593" r="0.593" transform="translate(23.545 7.407)" fill="#272720"/>
      <circle id="타원_36" data-name="타원 36" cx="0.593" cy="0.593" r="0.593" transform="translate(27.846 11.114)" fill="#272720"/>
    </g>
    <path id="패스_57" data-name="패스 57" d="M759.921,616a1.253,1.253,0,0,0-1.211.891,9.023,9.023,0,0,1-17.365,0,1.253,1.253,0,0,0-1.211-.891h0a1.266,1.266,0,0,0-1.207,1.63,11.553,11.553,0,0,0,22.2,0,1.266,1.266,0,0,0-1.207-1.63Z" transform="translate(-703.453 -543.999)" fill="#272720"/>
    <g id="그룹_26" data-name="그룹 26" transform="translate(11.771 65.859)">
      <ellipse id="타원_37" data-name="타원 37" cx="6.142" cy="2.559" rx="6.142" ry="2.559" fill="#fcd592"/>
      <ellipse id="타원_38" data-name="타원 38" cx="6.142" cy="2.559" rx="6.142" ry="2.559" transform="translate(57.322)" fill="#fcd592"/>
    </g>
  </g>
</svg>
