<?xml version="1.0" encoding="utf-8"?>
<!-- Generator: Adobe Illustrator 22.0.1, SVG Export Plug-In . SVG Version: 6.00 Build 0)  -->
<svg version="1.1" id="Layer_1" xmlns="http://www.w3.org/2000/svg" xmlns:xlink="http://www.w3.org/1999/xlink" x="0px" y="0px"
	 viewBox="0 0 66.6 75.3" style="enable-background:new 0 0 66.6 75.3;" xml:space="preserve">
<style type="text/css">
	.st0{fill:#FFFFFF;stroke:#DBDBDB;stroke-width:6;}
	.st1{fill:#DBDBDB;}
	.st2{fill:#E9E9E9;}
	.st3{fill:#FFFFFF;}
	.st4{fill:#F2F2F2;}
	.st5{fill:#EEEEEE;}
</style>
<g id="icon_charac_empty" transform="translate(3)">
	<path id="패스_2914" class="st0" d="M30.3,11.7C47,11.7,60.6,25.3,60.6,42S47,72.3,30.3,72.3S0,58.8,0,42c0,0,0,0,0,0
		C0,25.3,13.6,11.7,30.3,11.7z"/>
	<g id="그룹_24" transform="translate(17.318 35.19)">
		<circle id="타원_31" class="st1" cx="1.7" cy="1.7" r="1.7"/>
		<circle id="타원_32" class="st1" cx="24.3" cy="1.7" r="1.7"/>
	</g>
	<g id="그룹_25" transform="translate(18.588 0)">
		<path id="패스_52" class="st2" d="M7.6,22.2c-1.7,0-3.3-0.7-4.5-1.9l0,0c-2.5-2.5-2.5-6.5,0-9l8.3-8.3c2.5-2.5,6.5-2.5,9-0.1
			c2.5,2.5,2.5,6.5,0.1,9c0,0-0.1,0.1-0.1,0.1l-8.3,8.3C10.9,21.5,9.3,22.2,7.6,22.2z"/>
		<path id="패스_53" class="st1" d="M7.6,22.2c-1.7,0-3.3-0.7-4.5-1.9l0,0c-2.5-2.5-2.5-6.5,0-9l8.3-8.3c2.5-2.5,6.5-2.5,9-0.1
			c2.5,2.5,2.5,6.5,0.1,9c0,0-0.1,0.1-0.1,0.1l-8.3,8.3C10.9,21.5,9.3,22.2,7.6,22.2z M15.9,3.2c-1.2,0-2.3,0.5-3.1,1.3l-8.3,8.3
			c-1.7,1.7-1.7,4.5,0,6.2l0,0c1.7,1.7,4.5,1.7,6.2,0l8.3-8.3c1.7-1.7,1.7-4.5,0-6.2C18.1,3.7,17,3.2,15.9,3.2L15.9,3.2z"/>
		<path id="사각형_190" class="st3" d="M3.8,3.8L3.8,3.8c2.1-2.1,5.5-2.1,7.6,0l8.3,8.3c2.1,2.1,2.1,5.5,0,7.6l0,0
			c-2.1,2.1-5.5,2.1-7.6,0l-8.3-8.3C1.7,9.3,1.7,5.9,3.8,3.8z"/>
		<path id="패스_54" class="st1" d="M15.9,22.2c-1.7,0-3.3-0.7-4.5-1.9l-8.3-8.3c-2.5-2.5-2.4-6.5,0.1-9c2.5-2.4,6.4-2.4,8.9,0
			l8.3,8.3c2.5,2.5,2.5,6.5,0,9l0,0C19.2,21.5,17.5,22.2,15.9,22.2z M7.6,3.2c-2.4,0-4.4,2-4.4,4.4c0,1.2,0.5,2.3,1.3,3.1l8.3,8.3
			c1.7,1.7,4.5,1.7,6.2,0l0,0c1.7-1.7,1.7-4.5,0-6.2l-8.3-8.3C9.8,3.7,8.7,3.2,7.6,3.2L7.6,3.2z"/>
		<path id="패스_55" class="st4" d="M12.5,16.4c-0.5,0-1-0.2-1.3-0.6l-3.6-3.6c-0.7-0.7-0.7-1.9,0-2.7l1.9-1.9
			c0.8-0.7,1.9-0.7,2.7,0l3.6,3.6c0.7,0.7,0.7,1.9,0,2.7l-1.9,1.9C13.5,16.2,13.1,16.4,12.5,16.4z"/>
		<path id="패스_56" class="st1" d="M12.5,16.4c-0.5,0-1-0.2-1.3-0.6l-3.6-3.6c-0.7-0.7-0.7-1.9,0-2.7l1.9-1.9
			c0.8-0.7,1.9-0.7,2.7,0l3.6,3.6c0.7,0.7,0.7,1.9,0,2.7l-1.9,1.9C13.5,16.2,13.1,16.4,12.5,16.4z M10.9,8.5c-0.1,0-0.2,0-0.3,0.1
			l-1.9,1.9c-0.2,0.2-0.2,0.4,0,0.6l3.6,3.6c0.2,0.2,0.4,0.2,0.6,0l1.9-1.9c0.2-0.2,0.2-0.4,0-0.6c0,0,0,0,0,0l-3.6-3.6
			C11.1,8.6,11,8.5,10.9,8.5z"/>
		<circle id="타원_33" class="st1" cx="4.5" cy="15.8" r="0.4"/>
		<circle id="타원_34" class="st1" cx="7.3" cy="18.2" r="0.4"/>
		<circle id="타원_35" class="st1" cx="15.7" cy="5.2" r="0.4"/>
		<circle id="타원_36" class="st1" cx="18.5" cy="7.6" r="0.4"/>
	</g>
	<path id="패스_57" class="st1" d="M36.7,46.9c-0.4,0-0.7,0.2-0.8,0.6c-0.9,3.1-4.1,4.9-7.2,4.1c-2-0.6-3.5-2.1-4.1-4.1
		c-0.1-0.3-0.4-0.6-0.8-0.6l0,0c-0.5,0-0.8,0.4-0.8,0.8c0,0.1,0,0.2,0,0.2c1.2,4,5.3,6.3,9.3,5.1c2.5-0.7,4.4-2.7,5.1-5.1
		c0.1-0.4-0.1-0.9-0.6-1C36.9,46.9,36.8,46.9,36.7,46.9L36.7,46.9z"/>
	<g id="그룹_26" transform="translate(7.66 42.856)">
		<ellipse id="타원_37" class="st5" cx="4" cy="1.7" rx="4" ry="1.7"/>
		<ellipse id="타원_38" class="st5" cx="41.3" cy="1.7" rx="4" ry="1.7"/>
	</g>
</g>
</svg>
