<svg xmlns="http://www.w3.org/2000/svg" xmlns:xlink="http://www.w3.org/1999/xlink" width="287" height="83" viewBox="0 0 287 83">
  <defs>
    <clipPath id="clip-path">
      <rect id="사각형_1224" data-name="사각형 1224" width="287" height="83" transform="translate(10055 4944)" fill="#fff" stroke="#707070" stroke-width="1" opacity="0.46"/>
    </clipPath>
  </defs>
  <g id="logo_doctors_word_new" transform="translate(-10055 -4944)" clip-path="url(#clip-path)">
    <g id="그룹_3857" data-name="그룹 3857" transform="translate(10012 4747)">
      <text id="반창꼬쌤의_한마디" data-name="반창꼬쌤의 한마디" transform="translate(43 258)" fill="#fff" font-size="24" font-family="SpoqaHanSans-Regular, SpoqaHanSans" letter-spacing="-0.029em"><tspan x="0" y="0">반창꼬쌤의 </tspan><tspan y="0" font-family="SpoqaHanSans-Bold, SpoqaHanSans" font-weight="700">한마디</tspan></text>
      <g id="그룹_610" data-name="그룹 610" transform="translate(242 197)">
        <circle id="타원_30" data-name="타원 30" cx="42.32" cy="42.32" r="42.32" transform="translate(0 16.361)" fill="#fabb3c" stroke="#272720" stroke-miterlimit="10" stroke-width="6"/>
        <g id="그룹_24" data-name="그룹 24" transform="translate(24.183 49.138)">
          <circle id="타원_31" data-name="타원 31" cx="2.34" cy="2.34" r="2.34" fill="#272720"/>
          <circle id="타원_32" data-name="타원 32" cx="2.34" cy="2.34" r="2.34" transform="translate(31.594)" fill="#272720"/>
        </g>
        <g id="그룹_25" data-name="그룹 25" transform="translate(25.955 0)">
          <path id="패스_52" data-name="패스 52" d="M742.88,576.8a8.8,8.8,0,0,1-6.261-2.593h0a8.865,8.865,0,0,1,0-12.523L748.2,550.1a8.855,8.855,0,0,1,12.523,12.524l-11.581,11.581A8.8,8.8,0,0,1,742.88,576.8Z" transform="translate(-732.306 -545.789)" fill="#fabb3c"/>
          <path id="패스_53" data-name="패스 53" d="M742.88,576.8a8.8,8.8,0,0,1-6.261-2.593h0a8.865,8.865,0,0,1,0-12.523L748.2,550.1a8.855,8.855,0,0,1,12.523,12.524l-11.581,11.581A8.8,8.8,0,0,1,742.88,576.8Zm11.581-26.532a6.084,6.084,0,0,0-4.312,1.783l-11.582,11.582a6.106,6.106,0,0,0,0,8.626h0a6.1,6.1,0,0,0,8.625,0l11.582-11.581a6.1,6.1,0,0,0-4.313-10.41Z" transform="translate(-732.306 -545.789)" fill="#272720"/>
          <rect id="사각형_190" data-name="사각형 190" width="14.954" height="31.332" rx="7.477" transform="translate(0 10.574) rotate(-45)" fill="#fff"/>
          <path id="패스_54" data-name="패스 54" d="M754.46,576.8a8.8,8.8,0,0,1-6.261-2.593l-11.581-11.581A8.855,8.855,0,0,1,749.141,550.1l11.581,11.582a8.865,8.865,0,0,1,0,12.523h0A8.8,8.8,0,0,1,754.46,576.8ZM742.88,550.267a6.1,6.1,0,0,0-4.313,10.41l11.582,11.581a6.1,6.1,0,0,0,8.625,0h0a6.108,6.108,0,0,0,0-8.626L747.192,552.05A6.084,6.084,0,0,0,742.88,550.267Z" transform="translate(-732.306 -545.789)" fill="#272720"/>
          <path id="패스_55" data-name="패스 55" d="M750.44,569.27a2.637,2.637,0,0,1-1.876-.778l-5.006-5.006a2.657,2.657,0,0,1,0-3.751l2.692-2.69a2.719,2.719,0,0,1,3.751,0l5.006,5a2.656,2.656,0,0,1,0,3.751l-2.692,2.691A2.636,2.636,0,0,1,750.44,569.27Z" transform="translate(-732.918 -546.403)" fill="#fcd592"/>
          <path id="패스_56" data-name="패스 56" d="M750.44,569.27a2.637,2.637,0,0,1-1.876-.778l-5.006-5.006a2.657,2.657,0,0,1,0-3.751l2.692-2.69a2.719,2.719,0,0,1,3.751,0l5.006,5a2.656,2.656,0,0,1,0,3.751l-2.692,2.691A2.636,2.636,0,0,1,750.44,569.27Zm-2.315-10.936a.585.585,0,0,0-.413.172L745.02,561.2a.587.587,0,0,0,0,.828l5.006,5.006a.6.6,0,0,0,.828,0l2.691-2.692a.585.585,0,0,0,0-.828l-5-5A.587.587,0,0,0,748.124,558.334Z" transform="translate(-732.918 -546.403)" fill="#272720"/>
          <circle id="타원_33" data-name="타원 33" cx="0.539" cy="0.539" r="0.539" transform="translate(5.763 21.554)" fill="#272720"/>
          <circle id="타원_34" data-name="타원 34" cx="0.539" cy="0.539" r="0.539" transform="translate(9.671 24.922)" fill="#272720"/>
          <circle id="타원_35" data-name="타원 35" cx="0.539" cy="0.539" r="0.539" transform="translate(21.394 6.73)" fill="#272720"/>
          <circle id="타원_36" data-name="타원 36" cx="0.539" cy="0.539" r="0.539" transform="translate(25.302 10.099)" fill="#272720"/>
        </g>
        <path id="패스_57" data-name="패스 57" d="M758,616a1.138,1.138,0,0,0-1.1.809,8.2,8.2,0,0,1-15.779,0,1.139,1.139,0,0,0-1.1-.809h0a1.15,1.15,0,0,0-1.1,1.481,10.5,10.5,0,0,0,20.173,0A1.15,1.15,0,0,0,758,616Z" transform="translate(-706.689 -550.576)" fill="#272720"/>
        <g id="그룹_26" data-name="그룹 26" transform="translate(10.696 59.843)">
          <ellipse id="타원_37" data-name="타원 37" cx="5.581" cy="2.325" rx="5.581" ry="2.325" fill="#fcd592"/>
          <ellipse id="타원_38" data-name="타원 38" cx="5.581" cy="2.325" rx="5.581" ry="2.325" transform="translate(52.086)" fill="#fcd592"/>
        </g>
      </g>
    </g>
  </g>
</svg>
