<svg xmlns="http://www.w3.org/2000/svg" viewBox="0 0 64 64"><defs><style>.cls-1,.cls-3{fill:none;}.cls-1,.cls-2{stroke:#28283c;}.cls-1,.cls-2,.cls-3{stroke-linejoin:round;stroke-width:2px;}.cls-2{fill:#4aa4a4;}.cls-3{stroke:#fff;}</style></defs><title>icon_mailcheck</title><g id="레이어_2" data-name="레이어 2"><g id="header_footer" data-name="header/footer"><path class="cls-1" d="M38,38c9.16-6.28,25-16.21,25-16V61a2,2,0,0,1-2,2H3a2,2,0,0,1-2-2V22c0-.21,15.86,9.73,25,16Z"/><line class="cls-1" x1="38" y1="38" x2="52" y2="52"/><line class="cls-1" x1="12" y1="52" x2="26" y2="38"/><polyline class="cls-1" points="49 1 56 1 56 26"/><polyline class="cls-1" points="8 26 8 1 28 1"/><line class="cls-1" x1="63" y1="22" x2="56" y2="22"/><polyline class="cls-1" points="8 22 1 22 8 15"/><line class="cls-1" x1="56" y1="15" x2="63" y2="22"/><line class="cls-1" x1="14" y1="13" x2="23" y2="13"/><line class="cls-1" x1="14" y1="18" x2="23" y2="18"/><line class="cls-1" x1="14" y1="23" x2="26" y2="23"/><line class="cls-1" x1="14" y1="8" x2="23" y2="8"/><circle class="cls-2" cx="39" cy="13" r="12"/><polyline class="cls-3" points="32 14 36 18 46 8"/></g></g></svg>