<svg xmlns="http://www.w3.org/2000/svg" viewBox="0 0 64.50596 71.82613"><defs><style>.cls-1,.cls-2{fill:none;stroke-linecap:round;stroke-miterlimit:10;stroke-width:2.5px;}.cls-1{stroke:#28283c;}.cls-2{stroke:#4aa4a4;}</style></defs><title>complete_icon</title><g id="레이어_2" data-name="레이어 2"><g id="join"><path class="cls-1" d="M21.28662,40.1684a3.1003,3.1003,0,0,0-.00271-4.37164h0a3.1003,3.1003,0,0,0-4.37164-.00271l-8.39011,8.3901A15.46569,15.46569,0,0,0,30.39393,66.05592l.01949-.0195L47.982,48.46782c.92142-.92143.69109-2.65954-.51186-3.86249h0c-1.203-1.203-2.94107-1.43329-3.86249-.51187L35.10973,52.5914,48.82994,38.8712a3.05485,3.05485,0,0,0-.06846-4.3059h0a3.05484,3.05484,0,0,0-4.30589-.06846l-12.715,12.715.37977-.37977L45.2299,33.72253a3.10031,3.10031,0,0,0-.00271-4.37164h0a3.1003,3.1003,0,0,0-4.37164-.00271L27.746,42.4577l-1.385,1.385L37.84949,32.35423a2.93663,2.93663,0,0,0-.25794-4.1164h0a2.93665,2.93665,0,0,0-4.11641-.25794L15.744,45.711"/><path class="cls-1" d="M42.478,21.26646a3.1003,3.1003,0,0,0-.00271-4.37163h0a3.1003,3.1003,0,0,0-4.37163-.00271L24.99407,30.00163l-1.385,1.385L35.09754,19.89817a2.93665,2.93665,0,0,0-.25794-4.11641h0a2.93664,2.93664,0,0,0-4.1164-.258L12.992,33.255"/><path class="cls-1" d="M46.91394,24.66011a3.12837,3.12837,0,0,0-.90441-2.55087h0a3.05485,3.05485,0,0,0-4.3059-.06845L39.70744,24.037"/><path class="cls-1" d="M18.53467,27.71234A3.10032,3.10032,0,0,0,18.532,23.3407h0a3.1003,3.1003,0,0,0-4.37163-.00271L5.77021,31.72809A15.4301,15.4301,0,0,0,1.61186,45.979"/><line class="cls-2" x1="32.55651" y1="1.25" x2="31.99778" y2="8.09749"/><line class="cls-2" x1="44.99968" y1="3.69734" x2="42.56326" y2="9.65171"/><line class="cls-2" x1="63.25596" y1="37.98339" x2="56.06006" y2="38.57054"/><line class="cls-2" x1="63.12894" y1="26.05263" x2="56.18708" y2="28.89311"/><line class="cls-2" x1="51.99636" y1="17.78254" x2="57.96546" y2="11.81344"/></g></g></svg>