<?xml version="1.0" encoding="utf-8"?>
<!-- Generator: Adobe Illustrator 22.1.0, SVG Export Plug-In . SVG Version: 6.00 Build 0)  -->
<svg version="1.1" id="레이어_1" xmlns="http://www.w3.org/2000/svg" xmlns:xlink="http://www.w3.org/1999/xlink" x="0px"
	 y="0px" viewBox="0 0 17 17" style="enable-background:new 0 0 17 17;" xml:space="preserve">
<style type="text/css">
	.st0{fill:#0072FF;}
	.st1{fill:#FFFFFF;}
</style>
<rect x="0" class="st0" width="17" height="17"/>
<polygon class="st1" points="12.7,6.9 11.9,6.2 10.3,7.8 10.3,3 9.3,3 9.3,7.8 7.7,6.2 7,6.9 9.8,9.7 "/>
<polygon class="st1" points="13.5,5.7 15.6,5.7 14.7,11.6 5.1,11.6 4.4,5.7 6.8,5.7 6.8,4.7 4.2,4.7 4,3 0.2,3 0.2,4 3.1,4 
	4.3,12.6 15.5,12.6 16.7,4.7 13.5,4.7 "/>
<path class="st1" d="M5.9,14.1c-0.7,0-1.2,0.5-1.2,1.2s0.5,1.2,1.2,1.2s1.2-0.5,1.2-1.2S6.5,14.1,5.9,14.1z"/>
<path class="st1" d="M13.8,14.1c-0.7,0-1.2,0.5-1.2,1.2s0.5,1.2,1.2,1.2s1.2-0.5,1.2-1.2S14.5,14.1,13.8,14.1z"/>
</svg>
