<?xml version="1.0" encoding="utf-8"?>
<!-- Generator: Adobe Illustrator 22.1.0, SVG Export Plug-In . SVG Version: 6.00 Build 0)  -->
<svg version="1.1" id="레이어_1" xmlns="http://www.w3.org/2000/svg" xmlns:xlink="http://www.w3.org/1999/xlink" x="0px"
	 y="0px" viewBox="0 0 25.4 26.5" style="enable-background:new 0 0 25.4 26.5;" xml:space="preserve">
<style type="text/css">
	.st0{opacity:0.5;}
	.st1{fill:#0072FF;}
	.st2{fill:#FFFFFF;}
	.st3{opacity:0.5;fill:#0072FF;}
</style>
<g>
	<g class="st0">
		<path class="st1" d="M16.2,10.7c-2.7,0-4.8-2.2-4.8-4.8S13.5,1,16.2,1c2.7,0,4.8,2.2,4.8,4.8S18.9,10.7,16.2,10.7z M16.2,2
			c-2.1,0-3.8,1.7-3.8,3.8s1.7,3.8,3.8,3.8s3.8-1.7,3.8-3.8S18.3,2,16.2,2z"/>
		<path class="st1" d="M25.4,20.2H7v-0.5c0-4.3,3.5-7.8,7.8-7.8h2.8c4.3,0,7.8,3.5,7.8,7.8V20.2z M8,19.2h16.4
			c-0.3-3.5-3.2-6.3-6.8-6.3h-2.8C11.2,12.9,8.3,15.7,8,19.2z"/>
	</g>
	<circle class="st1" cx="6.8" cy="18.6" r="6.8"/>
	<g>
		<polygon class="st2" points="6.5,16.4 5,19.8 3.5,16.5 3.5,16.4 3.1,16.4 2.3,20.9 2.8,20.9 3.4,17.4 4.9,20.7 5.1,20.7 6.6,17.4 
			7.2,20.9 7.7,20.9 6.9,16.4 		"/>
		<polygon class="st2" points="10.8,16.4 9.4,18.6 8,16.4 7.4,16.4 9.1,19.1 9.1,20.9 9.6,20.9 9.6,19.1 11.3,16.4 		"/>
	</g>
</g>
</svg>
