<svg xmlns="http://www.w3.org/2000/svg" xmlns:xlink="http://www.w3.org/1999/xlink" width="600" height="276" viewBox="0 0 600 276">
  <defs>
    <clipPath id="clip-path">
      <rect id="사각형_1223" data-name="사각형 1223" width="600" height="276" fill="#fabb3c" stroke="#707070" stroke-width="1"/>
    </clipPath>
  </defs>
  <g id="login-cardbg-bcg02" transform="translate(1903 5699)">
    <g id="login-mini-bg" transform="translate(-1903 -5699)">
      <rect id="사각형_1225" data-name="사각형 1225" width="600" height="276" fill="#fabb3c"/>
      <g id="마스크_그룹_23" data-name="마스크 그룹 23" clip-path="url(#clip-path)">
        <g id="bg_wave_bottom" transform="translate(-130.624 171.298)">
          <path id="교차_5" data-name="교차 5" d="M0,129.009V60.989c91.626,2.536,322.29,4.8,484.406-29.027C593.251,9.247,713.562,1.884,803.012,0V129.009Z" transform="translate(0 3.542)" fill="#ffdb83" stroke="rgba(0,0,0,0)" stroke-width="1" opacity="0.4"/>
          <path id="교차_4" data-name="교차 4" d="M0,124.7V27.115C82.452,12.823,178.18,0,256.25,0,424.173,0,513.889,48.209,803.014,57.5v67.2Z" transform="translate(0 7.847)" fill="#ffdb83" stroke="rgba(0,0,0,0)" stroke-width="1" opacity="0.3"/>
          <path id="교차_6" data-name="교차 6" d="M0,132.551V1.979c118.941-7.707,243.192,8.15,343.625,29.343,41.223,8.7,77.966,19.587,115.547,30.027,46.9,13.023,96.475,22.947,159.02,33.632,30.16,5.153,131.193,13.1,184.82,16v21.567Z" transform="translate(0)" fill="#ffdb83" stroke="rgba(0,0,0,0)" stroke-width="1" opacity="0.4"/>
        </g>
        <path id="bg_wave_top" d="M0,0H803.7V21.353c-27.17,1.78-46.892,1.51-46.892,1.51-199.523,0-195.758-11.855-395.278-11.855C224.122,11.007,77.8,34.057,0,48.41Z" transform="translate(-101.155 -3.724)" fill="#ffdb83" stroke="rgba(0,0,0,0)" stroke-width="1" opacity="0.4"/>
      </g>
    </g>
    <g id="그룹_3861" data-name="그룹 3861" transform="translate(-1446.696 -5602)">
      <ellipse id="타원_29" data-name="타원 29" cx="24.119" cy="4.824" rx="24.119" ry="4.824" transform="translate(7.166 73.282)" opacity="0.25"/>
      <circle id="타원_30" data-name="타원 30" cx="31.355" cy="31.355" r="31.355" transform="translate(0 12.122)" fill="#fabb3c" stroke="#272720" stroke-miterlimit="10" stroke-width="4"/>
      <g id="그룹_24" data-name="그룹 24" transform="translate(17.917 36.407)">
        <circle id="타원_31" data-name="타원 31" cx="1.734" cy="1.734" r="1.734" fill="#272720"/>
        <circle id="타원_32" data-name="타원 32" cx="1.734" cy="1.734" r="1.734" transform="translate(23.408)" fill="#272720"/>
      </g>
      <g id="그룹_25" data-name="그룹 25" transform="translate(19.231 0)">
        <path id="패스_52" data-name="패스 52" d="M740.587,569.211a6.518,6.518,0,0,1-4.639-1.921h0a6.568,6.568,0,0,1,0-9.278l8.58-8.581a6.561,6.561,0,1,1,9.279,9.279l-8.581,8.58A6.518,6.518,0,0,1,740.587,569.211Z" transform="translate(-732.752 -546.236)" fill="#fabb3c"/>
        <path id="패스_53" data-name="패스 53" d="M740.587,569.211a6.518,6.518,0,0,1-4.639-1.921h0a6.568,6.568,0,0,1,0-9.278l8.58-8.581a6.561,6.561,0,1,1,9.279,9.279l-8.581,8.58A6.518,6.518,0,0,1,740.587,569.211Zm8.58-19.658a4.507,4.507,0,0,0-3.195,1.321l-8.581,8.581a4.524,4.524,0,0,0,0,6.391h0a4.52,4.52,0,0,0,6.39,0l8.581-8.58a4.517,4.517,0,0,0-3.2-7.713Z" transform="translate(-732.752 -546.236)" fill="#272720"/>
        <rect id="사각형_190" data-name="사각형 190" width="11.08" height="23.214" rx="5.54" transform="translate(0 7.834) rotate(-45)" fill="#fff"/>
        <path id="패스_54" data-name="패스 54" d="M749.167,569.211a6.518,6.518,0,0,1-4.639-1.921l-8.58-8.58a6.561,6.561,0,0,1,9.278-9.279l8.58,8.581a6.568,6.568,0,0,1,0,9.278h0A6.518,6.518,0,0,1,749.167,569.211Zm-8.58-19.658a4.517,4.517,0,0,0-3.2,7.713l8.581,8.58a4.52,4.52,0,0,0,6.39,0h0a4.525,4.525,0,0,0,0-6.391l-8.581-8.581A4.508,4.508,0,0,0,740.587,549.553Z" transform="translate(-732.752 -546.236)" fill="#272720"/>
        <path id="패스_55" data-name="패스 55" d="M748.456,565.908a1.953,1.953,0,0,1-1.39-.577l-3.709-3.709a1.969,1.969,0,0,1,0-2.779l1.994-1.993a2.015,2.015,0,0,1,2.779,0l3.709,3.708a1.967,1.967,0,0,1,0,2.779l-1.994,1.994A1.953,1.953,0,0,1,748.456,565.908Z" transform="translate(-735.474 -548.966)" fill="#fcd592"/>
        <path id="패스_56" data-name="패스 56" d="M748.456,565.908a1.953,1.953,0,0,1-1.39-.577l-3.709-3.709a1.969,1.969,0,0,1,0-2.779l1.994-1.993a2.015,2.015,0,0,1,2.779,0l3.709,3.708a1.967,1.967,0,0,1,0,2.779l-1.994,1.994A1.953,1.953,0,0,1,748.456,565.908Zm-1.715-8.1a.434.434,0,0,0-.306.128l-1.994,1.994a.435.435,0,0,0,0,.613l3.709,3.709a.445.445,0,0,0,.613,0l1.994-1.994a.433.433,0,0,0,0-.613l-3.708-3.708A.435.435,0,0,0,746.74,557.805Z" transform="translate(-735.474 -548.966)" fill="#272720"/>
        <circle id="타원_33" data-name="타원 33" cx="0.399" cy="0.399" r="0.399" transform="translate(4.27 15.969)" fill="#272720"/>
        <circle id="타원_34" data-name="타원 34" cx="0.399" cy="0.399" r="0.399" transform="translate(7.165 18.465)" fill="#272720"/>
        <circle id="타원_35" data-name="타원 35" cx="0.399" cy="0.399" r="0.399" transform="translate(15.851 4.986)" fill="#272720"/>
        <circle id="타원_36" data-name="타원 36" cx="0.399" cy="0.399" r="0.399" transform="translate(18.747 7.483)" fill="#272720"/>
      </g>
      <path id="패스_57" data-name="패스 57" d="M753.044,616a.843.843,0,0,0-.815.6,6.075,6.075,0,0,1-11.691,0,.844.844,0,0,0-.815-.6h0a.852.852,0,0,0-.812,1.1,7.778,7.778,0,0,0,14.946,0,.852.852,0,0,0-.812-1.1Z" transform="translate(-715.028 -567.527)" fill="#272720"/>
      <g id="그룹_26" data-name="그룹 26" transform="translate(7.925 44.338)">
        <ellipse id="타원_37" data-name="타원 37" cx="4.135" cy="1.723" rx="4.135" ry="1.723" fill="#fcd592"/>
        <ellipse id="타원_38" data-name="타원 38" cx="4.135" cy="1.723" rx="4.135" ry="1.723" transform="translate(38.591)" fill="#fcd592"/>
      </g>
    </g>
  </g>
</svg>
