<svg xmlns="http://www.w3.org/2000/svg" xmlns:xlink="http://www.w3.org/1999/xlink" width="280" height="370" viewBox="0 0 280 370">
  <defs>
    <clipPath id="clip-path">
      <rect id="사각형_1223" data-name="사각형 1223" width="280" height="370" transform="translate(-1873 -5822)" fill="#fabb3c" stroke="#707070" stroke-width="1"/>
    </clipPath>
  </defs>
  <g id="login-mini-bg" transform="translate(2059 5801)">
    <rect id="사각형_1225" data-name="사각형 1225" width="280" height="370" transform="translate(-2059 -5801)" fill="#fabb3c"/>
    <g id="마스크_그룹_23" data-name="마스크 그룹 23" transform="translate(-186 21)" clip-path="url(#clip-path)">
      <g id="그룹_3859" data-name="그룹 3859" transform="translate(-1807.216 -5911.089)">
        <circle id="타원_41" data-name="타원 41" cx="35" cy="35" r="35" transform="translate(124.216 126.089)" fill="#fff"/>
        <g id="symbol" transform="translate(136.738 138.706)">
          <path id="패스_47" data-name="패스 47" d="M358.382,374.875a12.12,12.12,0,0,1-8.629-3.574h0a12.217,12.217,0,0,1,0-17.258l15.961-15.962a12.2,12.2,0,0,1,17.258,17.26L367.011,371.3A12.119,12.119,0,0,1,358.382,374.875Z" transform="translate(-343.655 -331.984)" fill="#fabb3c"/>
          <path id="패스_48" data-name="패스 48" d="M358.382,374.875a12.12,12.12,0,0,1-8.629-3.574h0a12.217,12.217,0,0,1,0-17.258l15.961-15.962a12.2,12.2,0,0,1,17.258,17.26L367.011,371.3A12.119,12.119,0,0,1,358.382,374.875Zm15.961-36.566a8.382,8.382,0,0,0-5.943,2.457l-15.961,15.962a8.415,8.415,0,0,0,0,11.887h0a8.406,8.406,0,0,0,11.887,0l15.961-15.96a8.4,8.4,0,0,0-5.943-14.346Z" transform="translate(-343.655 -331.984)" fill="#272720"/>
          <rect id="사각형_189" data-name="사각형 189" width="20.75" height="43.476" rx="10.375" transform="translate(0 14.672) rotate(-45)" fill="#fff"/>
          <path id="패스_49" data-name="패스 49" d="M374.342,374.875a12.119,12.119,0,0,1-8.629-3.574l-15.961-15.96a12.2,12.2,0,1,1,17.258-17.26l15.961,15.962a12.217,12.217,0,0,1,0,17.258h0A12.12,12.12,0,0,1,374.342,374.875Zm-15.961-36.566a8.4,8.4,0,0,0-5.943,14.346l15.961,15.96a8.406,8.406,0,0,0,11.887,0h0a8.415,8.415,0,0,0,0-11.887l-15.961-15.962A8.382,8.382,0,0,0,358.381,338.309Z" transform="translate(-343.654 -331.984)" fill="#272720"/>
          <path id="패스_50" data-name="패스 50" d="M382.257,378.469a3.874,3.874,0,0,1-2.753-1.142l-7.345-7.346a3.9,3.9,0,0,1,0-5.5l3.951-3.948a3.986,3.986,0,0,1,5.5,0l7.345,7.344a3.894,3.894,0,0,1,0,5.5l-3.949,3.95A3.873,3.873,0,0,1,382.257,378.469Z" transform="translate(-357.851 -346.223)" fill="#fcd592"/>
          <path id="패스_51" data-name="패스 51" d="M382.257,378.469a3.874,3.874,0,0,1-2.753-1.142l-7.345-7.346a3.9,3.9,0,0,1,0-5.5l3.951-3.948a3.986,3.986,0,0,1,5.5,0l7.345,7.344a3.894,3.894,0,0,1,0,5.5l-3.949,3.95A3.873,3.873,0,0,1,382.257,378.469Zm-3.4-16.048a.852.852,0,0,0-.605.253l-3.951,3.948a.861.861,0,0,0,0,1.215l7.345,7.346a.88.88,0,0,0,1.214,0l3.949-3.95a.86.86,0,0,0,0-1.214l-7.346-7.344A.856.856,0,0,0,378.859,362.421Z" transform="translate(-357.851 -346.223)" fill="#272720"/>
          <circle id="타원_18" data-name="타원 18" cx="0.791" cy="0.791" r="0.791" transform="translate(7.98 29.849)" fill="#272720"/>
          <circle id="타원_19" data-name="타원 19" cx="0.791" cy="0.791" r="0.791" transform="translate(13.392 34.514)" fill="#272720"/>
          <circle id="타원_20" data-name="타원 20" cx="0.791" cy="0.791" r="0.791" transform="translate(29.628 9.32)" fill="#272720"/>
          <circle id="타원_21" data-name="타원 21" cx="0.791" cy="0.791" r="0.791" transform="translate(35.04 13.986)" fill="#272720"/>
        </g>
      </g>
      <g id="bg_wave_bottom" transform="translate(-1935 -6161)">
        <path id="교차_5" data-name="교차 5" d="M0,173.219V81.889c42.788,3.4,150.507,6.448,226.213-38.974C277.043,12.416,333.227,2.53,375,0V173.219Z" transform="translate(1 573.755)" fill="#ffdb83" stroke="rgba(0,0,0,0)" stroke-width="1" opacity="0.4"/>
        <path id="교차_4" data-name="교차 4" d="M0,167.44V36.407C38.5,17.218,83.208,0,119.667,0,198.085,0,239.982,64.73,375,77.209v90.23Z" transform="translate(1 579.535)" fill="#ffdb83" stroke="rgba(0,0,0,0)" stroke-width="1" opacity="0.3"/>
        <path id="교차_6" data-name="교차 6" d="M0,177.975V2.657C55.545-7.691,113.569,13.6,160.47,42.055c19.251,11.68,36.41,26.3,53.96,40.316,21.9,17.486,45.053,30.811,74.261,45.158,14.085,6.918,61.266,17.584,86.309,21.488v28.958Z" transform="translate(1 569)" fill="#ffdb83" stroke="rgba(0,0,0,0)" stroke-width="1" opacity="0.4"/>
      </g>
      <path id="bg_wave_top" d="M1502.219-4539.441h375v28.67a107.715,107.715,0,0,1-21.88,2.027c-93.1,0-91.34-15.918-184.435-15.918-64.112,0-132.386,30.949-168.686,50.221Z" transform="translate(-3422.219 -1287.558)" fill="#ffdb83" stroke="rgba(0,0,0,0)" stroke-width="1" opacity="0.4"/>
    </g>
  </g>
</svg>
