<svg xmlns="http://www.w3.org/2000/svg" width="223.392" height="89.304" viewBox="0 0 223.392 89.304">
  <g id="logo-white-bcg" transform="translate(-340.927 -329.258)">
    <g id="그룹_21" data-name="그룹 21" transform="translate(440.11 343.151)">
      <g id="그룹_18" data-name="그룹 18" transform="translate(13.919)" opacity="0.76">
        <path id="패스_30" data-name="패스 30" d="M473.21,349.167c0,2.427-1,3.727-2.925,3.727s-2.915-1.3-2.915-3.727.988-3.726,2.915-3.726S473.21,346.741,473.21,349.167Zm-4.626,0c0,1.7.488,2.627,1.7,2.627s1.713-.926,1.713-2.627-.488-2.626-1.713-2.626S468.584,347.466,468.584,349.167Zm7.491-3.852v3.251h1.376c.325,0,.462.237.462.538s-.138.55-.462.55h-1.376v5.416c0,.363-.3.525-.625.525s-.625-.162-.625-.525v-9.755c0-.363.3-.525.625-.525S476.075,344.952,476.075,345.315Z" transform="translate(-467.37 -344.79)" fill="#fff"/>
        <path id="패스_31" data-name="패스 31" d="M490.376,350.909c0,.3-.138.538-.438.538h-9.63c-.3,0-.437-.238-.437-.538s.137-.524.437-.524h9.63C490.238,350.385,490.376,350.622,490.376,350.909Zm-1.15-5.1c0,.263-.138.5-.413.5h-1.238v2.077h1.288c.275,0,.413.237.413.5s-.139.513-.413.513h-7.479c-.276,0-.412-.238-.412-.513s.137-.5.412-.5h1.288v-2.077h-1.239c-.275,0-.411-.237-.411-.5s.137-.5.411-.5h7.38C489.088,345.306,489.226,345.545,489.226,345.807Zm-.263,7.6v2.013c0,.714-.237.938-.963.938h-5.753c-.724,0-.951-.225-.951-.938v-2.013c0-.713.226-.937.951-.937H488C488.726,352.474,488.963,352.7,488.963,353.411Zm-6.429.35v1.314c0,.187.062.251.262.251h4.652c.2,0,.263-.064.263-.251v-1.314c0-.2-.063-.262-.263-.262H482.8C482.6,353.5,482.534,353.561,482.534,353.761Zm3.84-5.377v-2.077h-2.5v2.077Z" transform="translate(-468.689 -344.844)" fill="#fff"/>
        <path id="패스_32" data-name="패스 32" d="M498.631,349.167c0,2.427-1,3.727-2.928,3.727s-2.913-1.3-2.913-3.727.988-3.726,2.913-3.726S498.631,346.741,498.631,349.167Zm-4.629,0c0,1.7.488,2.627,1.7,2.627s1.714-.926,1.714-2.627-.487-2.626-1.714-2.626S494,347.466,494,349.167Zm7.492-3.852v3.251h1.376c.326,0,.463.237.463.538s-.138.55-.463.55h-1.376v5.416c0,.363-.3.525-.625.525s-.625-.162-.625-.525v-9.755c0-.363.3-.525.625-.525S501.494,344.952,501.494,345.315Z" transform="translate(-470.052 -344.79)" fill="#fff"/>
        <path id="패스_33" data-name="패스 33" d="M514.847,345.928c0,.288-.137.538-.437.538h-3.4c-.188,0-.263.064-.263.263v2.952c0,.187.075.25.263.25a31.389,31.389,0,0,0,4.376-.263.43.43,0,0,1,.5.437c.038.3-.074.577-.351.614a36.087,36.087,0,0,1-5.076.275c-.727,0-.964-.225-.964-.939V346.34c0-.712.237-.938.964-.938h3.952C514.71,345.4,514.847,345.652,514.847,345.928Zm.463,6.166v.426a1.651,1.651,0,0,0,1.074,1.638c.726.376,1.427.7,2.189,1.039a.5.5,0,0,1,.2.688.543.543,0,0,1-.712.3c-.714-.3-1.327-.614-1.951-.938-.977-.513-1.327-.851-1.414-1.176h-.013c-.087.337-.45.688-1.424,1.2-.627.325-1.239.637-1.952.937a.541.541,0,0,1-.713-.3.528.528,0,0,1,.187-.712c.776-.338,1.477-.663,2.189-1.039a1.647,1.647,0,0,0,1.089-1.638v-.426c0-.35.3-.513.624-.513S515.31,351.744,515.31,352.094Zm3.051-6.778v6.454c0,.363-.3.525-.626.525a.542.542,0,0,1-.612-.525V348.58H514.6c-.3,0-.437-.239-.437-.527s.138-.524.437-.524h2.527v-2.214a.542.542,0,0,1,.612-.525C518.061,344.79,518.361,344.952,518.361,345.315Z" transform="translate(-471.814 -344.79)" fill="#fff"/>
        <path id="패스_34" data-name="패스 34" d="M523.3,346.066v5.277c0,.188.076.262.263.262a31.125,31.125,0,0,0,4.339-.274.447.447,0,0,1,.5.462c.039.3-.073.575-.35.612a35.888,35.888,0,0,1-5.053.276c-.724,0-.962-.226-.962-.938v-5.678c0-.376.3-.538.625-.538S523.3,345.69,523.3,346.066Zm7.142-.75v3.251h1.376c.326,0,.463.237.463.538s-.138.55-.463.55h-1.376v5.416c0,.363-.3.525-.625.525s-.625-.162-.625-.525v-9.755c0-.363.3-.525.625-.525S530.441,344.952,530.441,345.315Z" transform="translate(-473.138 -344.79)" fill="#fff"/>
        <path id="패스_35" data-name="패스 35" d="M541.066,346.191c0,.288-.139.538-.438.538h-2.051v1.2a2.936,2.936,0,0,0,.962,2.425c.526.538,1.05,1.039,1.463,1.389a.529.529,0,0,1-.025.776.536.536,0,0,1-.762.074c-.363-.325-.813-.762-1.326-1.262-.713-.726-.887-1.027-.937-1.289h-.013c-.062.288-.225.589-.951,1.313-.5.5-.974.963-1.5,1.427a.559.559,0,0,1-.788-.114.531.531,0,0,1,.025-.776c.575-.512,1.088-1,1.613-1.538a2.935,2.935,0,0,0,.964-2.425v-1.2h-2.115c-.312,0-.45-.25-.45-.538s.138-.539.45-.539h5.441C540.927,345.652,541.066,345.9,541.066,346.191Zm2.6-.876v9.755c0,.363-.3.525-.639.525-.312,0-.625-.162-.625-.525v-9.755c0-.363.313-.525.625-.525C543.366,344.79,543.667,344.952,543.667,345.315Z" transform="translate(-474.457 -344.79)" fill="#fff"/>
        <path id="패스_36" data-name="패스 36" d="M556.229,346.216v2.951c0,.714-.239.937-.964.937h-3.438c-.726,0-.963-.224-.963-.937v-2.951c0-.714.237-.938.963-.938h3.438C555.99,345.277,556.229,345.5,556.229,346.216Zm-4.129.363v2.238c0,.187.064.25.264.25h2.364c.187,0,.262-.063.262-.25v-2.238c0-.189-.075-.264-.262-.264h-2.364C552.164,346.315,552.1,346.39,552.1,346.579Zm6.28,4.652c.724,0,.962.224.962.937v1.15c0,.714-.239.937-.962.937h-4.716c-.187,0-.263.064-.263.264v.537c0,.189.076.264.263.264h5.54c.288,0,.413.237.413.5s-.125.5-.413.5h-6.053c-.724,0-.962-.225-.962-.937v-1.15c0-.714.238-.939.962-.939h4.7c.2,0,.263-.062.263-.262v-.538c0-.189-.063-.25-.263-.25h-5.277c-.288,0-.413-.238-.413-.513s.125-.5.413-.5Zm.962-5.916v1.838h1.376c.325,0,.463.25.463.538,0,.312-.139.551-.463.551h-1.376v1.926c0,.363-.3.525-.625.525s-.626-.162-.626-.525v-4.853c0-.363.3-.525.626-.525S559.343,344.952,559.343,345.315Z" transform="translate(-476.179 -344.79)" fill="#fff"/>
        <path id="패스_37" data-name="패스 37" d="M569.671,346.2c0,.288-.138.539-.437.539h-2.039v1.175a2.928,2.928,0,0,0,.951,2.427c.524.538,1.05,1.039,1.463,1.388a.528.528,0,0,1-.025.775.538.538,0,0,1-.763.076c-.362-.327-.812-.763-1.325-1.264-.714-.725-.877-1.025-.927-1.287h-.012c-.063.287-.213.587-.939,1.312-.5.5-.974.962-1.5,1.426a.558.558,0,0,1-.788-.113.53.53,0,0,1,.025-.775c.575-.513,1.089-1,1.613-1.539a2.928,2.928,0,0,0,.951-2.427v-1.175h-2.1c-.312,0-.45-.25-.45-.539s.138-.538.45-.538h5.416C569.533,345.665,569.671,345.915,569.671,346.2Zm2.339-.887v3.251h1.376c.325,0,.463.237.463.538s-.139.55-.463.55H572.01v5.416c0,.363-.3.525-.625.525s-.625-.162-.625-.525v-9.755c0-.363.3-.525.625-.525S572.01,344.952,572.01,345.315Z" transform="translate(-477.478 -344.79)" fill="#fff"/>
      </g>
      <g id="그룹_20" data-name="그룹 20" transform="translate(0 18.548)">
        <path id="패스_38" data-name="패스 38" d="M484.165,407.3H464.411c-.806,0-1.09-.284-1.09-1.089v-6.348c0-1.753-1.468-2.558-3.031-2.558-1.611,0-3.079.805-3.079,2.558v8.669c0,2.984.995,3.93,4.027,3.93h22.927c1.468,0,2.132-1.183,2.132-2.557C486.3,408.481,485.633,407.3,484.165,407.3Z" transform="translate(-452.379 -368.878)" fill="#fff"/>
        <g id="그룹_19" data-name="그룹 19">
          <path id="패스_39" data-name="패스 39" d="M492.3,377.368h-4.453v-9.284c0-1.752-1.468-2.558-3.031-2.558s-3.032.806-3.032,2.558v27.191c0,1.752,1.469,2.557,3.032,2.557s3.031-.805,3.031-2.557V382.627H492.3c1.516,0,2.179-1.184,2.179-2.652C494.479,378.553,493.816,377.368,492.3,377.368Z" transform="translate(-454.971 -365.526)" fill="#fff"/>
          <path id="패스_40" data-name="패스 40" d="M472.747,386.642v-16.01c0-1.7-1.469-2.511-2.984-2.511s-2.986.806-2.986,2.511v4.926h-9v-4.926c0-1.7-1.468-2.511-2.984-2.511s-2.984.806-2.984,2.511v16.01c0,2.986.995,3.932,4.026,3.932H468.72C471.752,390.575,472.747,389.628,472.747,386.642Zm-5.97-2.132c0,.806-.284,1.09-1.089,1.09h-6.821c-.806,0-1.09-.284-1.09-1.09v-3.978h9Z" transform="translate(-451.809 -365.8)" fill="#fff"/>
          <path id="패스_41" data-name="패스 41" d="M540.5,376.185h-4.453v-8.1c0-1.752-1.469-2.558-3.032-2.558s-3.031.806-3.031,2.558v21.933c0,1.752,1.469,2.557,3.031,2.557s3.032-.805,3.032-2.557v-8.575H540.5c1.515,0,2.179-1.183,2.179-2.653C542.675,377.368,542.011,376.185,540.5,376.185Z" transform="translate(-460.057 -365.526)" fill="#fff"/>
          <path id="패스_42" data-name="패스 42" d="M511.713,383.957h.047c.236.9,1.042,1.8,3.411,3.505,1.706,1.232,3.269,2.321,4.405,3.031a2.67,2.67,0,0,0,3.694-.8,2.582,2.582,0,0,0-.663-3.7c-1.421-.9-3.126-2.084-5.258-3.648a5.91,5.91,0,0,1-2.652-5.353V375.81h6.869c1.468,0,2.132-1.185,2.132-2.559s-.664-2.558-2.132-2.558H514.7v-.777c0-1.753-1.469-2.557-3.032-2.557s-3.031.8-3.031,2.557v.777h-7.343c-1.469,0-2.132,1.185-2.132,2.558s.663,2.559,2.132,2.559h7.343v1.373a5.911,5.911,0,0,1-2.653,5.354c-2.179,1.61-4.074,2.889-6.111,4.215a2.552,2.552,0,0,0-.615,3.7,2.584,2.584,0,0,0,3.552,1c1.943-1.232,3.506-2.321,5.354-3.648C510.529,386.089,511.476,385.047,511.713,383.957Z" transform="translate(-456.76 -365.719)" fill="#fff"/>
          <path id="패스_43" data-name="패스 43" d="M519.646,396.083c-8.716,0-13.976,2.842-13.976,8.716s5.26,8.717,13.976,8.717,13.975-2.842,13.975-8.717C533.62,398.973,528.362,396.083,519.646,396.083Zm0,12.6c-5.779,0-7.958-1.516-7.958-3.885s2.179-3.885,7.958-3.885,7.958,1.516,7.958,3.885S525.424,408.684,519.646,408.684Z" transform="translate(-457.492 -368.75)" fill="#fff"/>
          <path id="패스_44" data-name="패스 44" d="M569.023,376.593H576.6c.806,0,1.09.285,1.09,1.089v1.658a65.64,65.64,0,0,1-1.043,12.554c-.331,1.7.806,2.652,2.226,2.937,1.753.331,3.364-.284,3.7-1.99a65.045,65.045,0,0,0,1.137-13.358v-4.168c0-2.984-.995-3.931-4.026-3.931H569.023c-1.469,0-2.131,1.183-2.131,2.6S567.554,376.593,569.023,376.593Z" transform="translate(-463.951 -366.144)" fill="#fff"/>
          <path id="패스_45" data-name="패스 45" d="M550.328,376.593h5.591c.805,0,1.09.285,1.09,1.089v1.09a29.681,29.681,0,0,1-3.222,12.174,2.5,2.5,0,0,0,1.327,3.7c1.657.758,3.174.474,4.074-1.137a36.318,36.318,0,0,0,3.789-14.59v-3.6c0-2.984-.995-3.931-4.027-3.931h-8.622c-1.468,0-2.131,1.183-2.131,2.6S548.86,376.593,550.328,376.593Z" transform="translate(-461.979 -366.144)" fill="#fff"/>
          <path id="패스_46" data-name="패스 46" d="M583.811,404.281h-14.07V390.847c0-1.753-1.469-2.558-2.984-2.558-1.564,0-3.032.805-3.032,2.558v13.434H548c-1.469,0-2.132,1.185-2.132,2.558S546.53,409.4,548,409.4h35.812c1.469,0,2.132-1.183,2.132-2.557S585.279,404.281,583.811,404.281Z" transform="translate(-461.733 -367.928)" fill="#fff"/>
        </g>
      </g>
    </g>
    <g id="그룹_22" data-name="그룹 22" transform="translate(340.927 329.258)">
      <path id="패스_47" data-name="패스 47" d="M370.334,414.424a24,24,0,0,1-17.084-7.076h0a24.186,24.186,0,0,1,0-34.168l31.6-31.6a24.162,24.162,0,1,1,34.168,34.172l-31.6,31.6A23.994,23.994,0,0,1,370.334,414.424Z" transform="translate(-341.482 -329.812)" fill="#fabb3c"/>
      <path id="패스_48" data-name="패스 48" d="M370.334,414.424a24,24,0,0,1-17.084-7.076h0a24.186,24.186,0,0,1,0-34.168l31.6-31.6a24.162,24.162,0,1,1,34.168,34.172l-31.6,31.6A23.994,23.994,0,0,1,370.334,414.424Zm31.6-72.394a16.6,16.6,0,0,0-11.767,4.865l-31.6,31.6a16.66,16.66,0,0,0,0,23.534h0a16.643,16.643,0,0,0,23.534,0l31.6-31.6a16.634,16.634,0,0,0-11.767-28.4Z" transform="translate(-341.482 -329.812)" fill="#272720"/>
      <rect id="사각형_189" data-name="사각형 189" width="40.803" height="85.492" rx="20.401" transform="translate(0 28.852) rotate(-45)" fill="#fff"/>
      <path id="패스_49" data-name="패스 49" d="M401.933,414.424a23.994,23.994,0,0,1-17.084-7.076l-31.6-31.6a24.162,24.162,0,1,1,34.168-34.172l31.6,31.6a24.186,24.186,0,0,1,0,34.168h0A24,24,0,0,1,401.933,414.424Zm-31.6-72.394a16.634,16.634,0,0,0-11.767,28.4l31.6,31.6a16.643,16.643,0,0,0,23.534,0h0a16.659,16.659,0,0,0,0-23.534l-31.6-31.6A16.6,16.6,0,0,0,370.333,342.03Z" transform="translate(-341.482 -329.812)" fill="#272720"/>
      <path id="패스_50" data-name="패스 50" d="M391.913,394.834a7.2,7.2,0,0,1-5.119-2.123l-13.658-13.66a7.25,7.25,0,0,1,0-10.234l7.346-7.34a7.412,7.412,0,0,1,10.234,0l13.658,13.656a7.24,7.24,0,0,1,0,10.234l-7.342,7.344A7.2,7.2,0,0,1,391.913,394.834Z" transform="translate(-344.102 -332.441)" fill="#fcd592"/>
      <path id="패스_51" data-name="패스 51" d="M391.913,394.834a7.2,7.2,0,0,1-5.119-2.123l-13.658-13.66a7.25,7.25,0,0,1,0-10.234l7.346-7.34a7.412,7.412,0,0,1,10.234,0l13.658,13.656a7.24,7.24,0,0,1,0,10.234l-7.342,7.344A7.2,7.2,0,0,1,391.913,394.834Zm-6.318-29.839a1.583,1.583,0,0,0-1.125.47l-7.346,7.34a1.6,1.6,0,0,0,0,2.259l13.658,13.66a1.637,1.637,0,0,0,2.258,0l7.343-7.345a1.6,1.6,0,0,0,0-2.258l-13.659-13.656A1.591,1.591,0,0,0,385.595,364.994Z" transform="translate(-344.102 -332.441)" fill="#272720"/>
      <circle id="타원_18" data-name="타원 18" cx="1.471" cy="1.471" r="1.471" transform="translate(15.724 58.81)" fill="#272720"/>
      <circle id="타원_19" data-name="타원 19" cx="1.471" cy="1.471" r="1.471" transform="translate(26.387 68.002)" fill="#272720"/>
      <circle id="타원_20" data-name="타원 20" cx="1.471" cy="1.471" r="1.471" transform="translate(58.376 18.364)" fill="#272720"/>
      <circle id="타원_21" data-name="타원 21" cx="1.471" cy="1.471" r="1.471" transform="translate(69.039 27.556)" fill="#272720"/>
    </g>
  </g>
</svg>
