<svg id="ctrl_btn_mini_heart_off-wh" xmlns="http://www.w3.org/2000/svg" width="28.744" height="24.563" viewBox="0 0 28.744 24.563">
  <g id="레이어_1" data-name="레이어 1">
    <g id="패스_135" data-name="패스 135">
      <path id="패스_1" data-name="패스 1" d="M26.591,2.152a7.346,7.346,0,0,0-10.389,0l-1.831,1.83-1.83-1.83a7.346,7.346,0,0,0-10.389,0h0a7.346,7.346,0,0,0,0,10.389l12.22,12.022,12.22-12.022a7.346,7.346,0,0,0,0-10.389Z" fill="none"/>
      <path id="패스_2" data-name="패스 2" d="M7.346,1A6.346,6.346,0,0,0,2.857,11.832L14.371,23.16,25.887,11.83a6.346,6.346,0,0,0-8.978-8.972L15.078,4.689l-.707.707-.707-.707L11.834,2.859A6.3,6.3,0,0,0,7.346,1m0-1a7.323,7.323,0,0,1,5.195,2.152l1.831,1.831L16.2,2.152a7.346,7.346,0,0,1,10.389,0h0a7.346,7.346,0,0,1,0,10.389L14.371,24.562,2.152,12.541a7.346,7.346,0,0,1,0-10.389h0A7.323,7.323,0,0,1,7.346,0Z" fill="#fff"/>
    </g>
  </g>
</svg>
