<svg xmlns="http://www.w3.org/2000/svg" width="92.334" height="24.95" viewBox="0 0 92.334 24.95">
  <g id="logo_footer" transform="translate(-287.107 -354.349)" opacity="0.56">
    <path id="패스_17" data-name="패스 17" d="M220.623,835.481v-3.163a9.137,9.137,0,0,0-1.97-1.34v2.382A7.122,7.122,0,0,1,220.623,835.481Z" transform="translate(85.016 -472.22)" fill="#d0d0d0"/>
    <path id="패스_18" data-name="패스 18" d="M191.494,844.5a7.069,7.069,0,1,1,3.073-13.435v-2.216a9.136,9.136,0,1,0,4,2.834v5.7h0c0,.015,0,.029,0,.043A7.078,7.078,0,0,1,191.494,844.5Z" transform="translate(108.089 -470.523)" fill="#d0d0d0"/>
    <path id="패스_19" data-name="패스 19" d="M196.841,846.859a4.086,4.086,0,1,1,3.073-6.77v-2.532a6.067,6.067,0,1,0,1.013.75v4.423h0c0,.015,0,.028,0,.043A4.091,4.091,0,0,1,196.841,846.859Z" transform="translate(102.741 -475.87)" fill="#d0d0d0"/>
    <path id="패스_20" data-name="패스 20" d="M202.055,844.913a3.073,3.073,0,1,0,3.073,3.073A3.076,3.076,0,0,0,202.055,844.913Z" transform="translate(97.528 -481.084)" fill="#d0d0d0"/>
    <path id="패스_21" data-name="패스 21" d="M220.644,824.524v-2.876a12.418,12.418,0,0,0-1.991-.893v2.6a10.1,10.1,0,0,1,1.97,1.151Z" transform="translate(85.016 -465.718)" fill="#d0d0d0"/>
    <path id="패스_22" data-name="패스 22" d="M192.713,821.076V824.2a10.094,10.094,0,1,1-4.017-2.428v-2.521a12.491,12.491,0,1,0,4.017,1.83Z" transform="translate(113.959 -464.515)" fill="#d0d0d0"/>
    <path id="패스_23" data-name="패스 23" d="M259.358,828.974a.827.827,0,0,0-.827.827v5.722a4.4,4.4,0,0,0-1.2-.65,4.09,4.09,0,0,0-1.388-.233,4.161,4.161,0,0,0-1.653.329,4.23,4.23,0,0,0-2.255,2.255,4.318,4.318,0,0,0,0,3.306,4.228,4.228,0,0,0,2.255,2.255,4.318,4.318,0,0,0,3.306,0,4.225,4.225,0,0,0,2.255-2.255,4.168,4.168,0,0,0,.329-1.653V829.8A.827.827,0,0,0,259.358,828.974Zm-.827,9.9a2.571,2.571,0,0,1-1.576,2.383,2.59,2.59,0,0,1-2,0,2.571,2.571,0,0,1-.824-.553,2.685,2.685,0,0,1-.56-.827,2.525,2.525,0,0,1,0-2.006,2.694,2.694,0,0,1,.56-.827,2.575,2.575,0,0,1,.824-.553,2.59,2.59,0,0,1,2,0,2.571,2.571,0,0,1,.824.553,2.612,2.612,0,0,1,.552.818,2.5,2.5,0,0,1,.2,1Z" transform="translate(63.99 -470.945)" fill="#d0d0d0"/>
    <path id="패스_24" data-name="패스 24" d="M287.809,845.735a4.246,4.246,0,0,0-1.348-.907,4.318,4.318,0,0,0-3.306,0,4.231,4.231,0,0,0-2.255,2.255,4.318,4.318,0,0,0,0,3.306,4.231,4.231,0,0,0,2.255,2.255,4.318,4.318,0,0,0,3.306,0,4.228,4.228,0,0,0,2.255-2.255,4.317,4.317,0,0,0,0-3.306A4.244,4.244,0,0,0,287.809,845.735Zm-.617,4a2.563,2.563,0,0,1-1.376,1.38,2.594,2.594,0,0,1-2,0,2.571,2.571,0,0,1-.824-.554,2.687,2.687,0,0,1-.56-.827,2.521,2.521,0,0,1,0-2.006,2.691,2.691,0,0,1,.56-.826,2.576,2.576,0,0,1,.824-.554,2.595,2.595,0,0,1,2,0,2.6,2.6,0,0,1,1.376,3.387Z" transform="translate(45.633 -480.82)" fill="#d0d0d0"/>
    <path id="패스_25" data-name="패스 25" d="M393.026,829.063a.826.826,0,0,0-.826.826v12.359a.827.827,0,0,0,1.653,0V829.889A.827.827,0,0,0,393.026,829.063Z" transform="translate(-25.37 -471.002)" fill="#d0d0d0"/>
    <path id="패스_26" data-name="패스 26" d="M311.092,848.595a2.074,2.074,0,0,1,2.279-2.062,2.135,2.135,0,0,1,1.864,2.155v3.679a.811.811,0,0,0,.811.811h0a.811.811,0,0,0,.811-.811v-3.644a3.78,3.78,0,0,0-3.207-3.791,3.7,3.7,0,0,0-4.18,3.663v3.772a.811.811,0,0,0,.811.811h0a.811.811,0,0,0,.811-.811Z" transform="translate(27.251 -481.076)" fill="#d0d0d0"/>
    <path id="패스_27" data-name="패스 27" d="M410.61,848.921a1.1,1.1,0,0,0,1.1-1.1,1.136,1.136,0,0,0-.014-.141c-.009-.055-.023-.108-.033-.162-.02-.1-.035-.2-.06-.293a4.354,4.354,0,0,0-4.606-3.2,4.179,4.179,0,0,0-.809.154,4.255,4.255,0,0,0-.754.3,4.383,4.383,0,0,0-.679.435,4.495,4.495,0,0,0-1.068,1.194,4.4,4.4,0,0,0-.357.725,4.275,4.275,0,0,0-.218.787,4.05,4.05,0,0,0-.064.836,4.6,4.6,0,0,0,.116.933,4.516,4.516,0,0,0,1.123,2.091,4.464,4.464,0,0,0,.59.522,4.357,4.357,0,0,0,2.222.841q.189.016.38.016a4.406,4.406,0,0,0,3.78-2.159.781.781,0,1,0-1.339-.8,2.851,2.851,0,0,1-2.44,1.4,2.889,2.889,0,0,1-2.812-2.376Zm-3.211-3.353a2.792,2.792,0,0,1,2.544,1.654h-5.087A2.792,2.792,0,0,1,407.4,845.568Z" transform="translate(-32.266 -480.506)" fill="#d0d0d0"/>
    <path id="패스_30" data-name="패스 30" d="M343.806,853.956a1.937,1.937,0,0,0-1.238-.578h-4.651a.673.673,0,1,1,0-1.346h.537l.013,0h1.19a3.789,3.789,0,0,0,2.478-1.147,3.716,3.716,0,0,0,.74-1.148,3.6,3.6,0,0,0,.274-1.4,3.661,3.661,0,0,0-.161-1.083,3.935,3.935,0,0,0-.449-.971h.3a.827.827,0,0,0,0-1.653h-3.395a3.571,3.571,0,0,0-1.437.289,3.735,3.735,0,0,0-1.966,1.974,3.747,3.747,0,0,0-.064,2.72,3.7,3.7,0,0,0,.626,1.083,2.581,2.581,0,0,0-.875.771,1.929,1.929,0,0,0-.345,1.156,1.991,1.991,0,0,0,.281,1.076,2.438,2.438,0,0,0,.73.746,3.321,3.321,0,0,0,1.011.441,4.57,4.57,0,0,0,1.14.144h3.732a.744.744,0,0,1,.356,1.4.737.737,0,0,1-.356.094h-3.69a.827.827,0,0,0,0,1.653h3.954a1.772,1.772,0,0,0,.626-.128,1.844,1.844,0,0,0,.626-.409,2.212,2.212,0,0,0,.482-.738,3.321,3.321,0,0,0,.008-2.207A2.23,2.23,0,0,0,343.806,853.956Zm-6.242-6.412a2.136,2.136,0,0,1,.433-.658,1.977,1.977,0,0,1,.65-.442,2.071,2.071,0,0,1,1.6,0,2.1,2.1,0,0,1,.65.442,2.07,2.07,0,0,1,.441.658,2.048,2.048,0,0,1,0,1.589,1.972,1.972,0,0,1-.441.65,2.146,2.146,0,0,1-.65.434,2.069,2.069,0,0,1-1.6,0,2.041,2.041,0,0,1-1.083-2.673Z" transform="translate(10.77 -480.904)" fill="#d0d0d0"/>
    <path id="패스_31" data-name="패스 31" d="M370.824,853.956a1.936,1.936,0,0,0-1.238-.578h-4.651a.673.673,0,0,1,0-1.346h.537l.013,0h1.19a3.754,3.754,0,0,0,1.368-.353,3.645,3.645,0,0,0,1.85-1.942,3.594,3.594,0,0,0,.274-1.4,3.664,3.664,0,0,0-.161-1.083,3.908,3.908,0,0,0-.449-.971h.3a.827.827,0,0,0,0-1.653H366.46a3.569,3.569,0,0,0-1.436.289,3.734,3.734,0,0,0-1.966,1.974,3.744,3.744,0,0,0-.064,2.72,3.692,3.692,0,0,0,.626,1.083,2.581,2.581,0,0,0-.875.771,1.929,1.929,0,0,0-.345,1.156,1.987,1.987,0,0,0,.281,1.076,2.43,2.43,0,0,0,.73.746,3.313,3.313,0,0,0,1.011.441,4.569,4.569,0,0,0,1.139.144h3.732a.744.744,0,0,1,.356,1.4.736.736,0,0,1-.356.094H365.6a.827.827,0,0,0,0,1.653h3.954a1.768,1.768,0,0,0,.626-.128,1.84,1.84,0,0,0,.626-.409,2.212,2.212,0,0,0,.482-.738,3.324,3.324,0,0,0,.007-2.207A2.219,2.219,0,0,0,370.824,853.956Zm-6.242-6.412a2.123,2.123,0,0,1,.434-.658,1.976,1.976,0,0,1,.65-.442,2.072,2.072,0,0,1,1.6,0,2.1,2.1,0,0,1,.65.442,2.076,2.076,0,0,1,.441.658,2.052,2.052,0,0,1,0,1.589,1.978,1.978,0,0,1-.441.65,2.147,2.147,0,0,1-.65.434,2.069,2.069,0,0,1-1.6,0,2.042,2.042,0,0,1-1.083-2.673Z" transform="translate(-6.415 -480.904)" fill="#d0d0d0"/>
  </g>
</svg>
