<svg xmlns="http://www.w3.org/2000/svg" xmlns:xlink="http://www.w3.org/1999/xlink" width="200" height="54.044" viewBox="0 0 200 54.044">
  <defs>
    <linearGradient id="linear-gradient" x1="-4.272" y1="-1.32" x2="2.966" y2="1.383" gradientUnits="objectBoundingBox">
      <stop offset="0.014" stop-color="#7e2aff"/>
      <stop offset="1" stop-color="#ff4fac"/>
    </linearGradient>
    <linearGradient id="linear-gradient-2" x1="-0.022" y1="0.06" x2="0.761" y2="0.728" xlink:href="#linear-gradient"/>
    <linearGradient id="linear-gradient-3" x1="-0.281" y1="-0.166" x2="0.896" y2="0.838" xlink:href="#linear-gradient"/>
    <linearGradient id="linear-gradient-4" x1="-1.04" y1="-0.814" x2="1.281" y2="1.166" xlink:href="#linear-gradient"/>
    <linearGradient id="linear-gradient-5" x1="-3.22" y1="-1.214" x2="3.943" y2="2.015" xlink:href="#linear-gradient"/>
    <linearGradient id="linear-gradient-6" x1="0.122" y1="0.178" x2="0.694" y2="0.665" xlink:href="#linear-gradient"/>
    <linearGradient id="linear-gradient-7" x1="0.082" y1="0.5" x2="7.277" y2="0.5" xlink:href="#linear-gradient"/>
    <linearGradient id="linear-gradient-8" x1="-1.157" y1="0.5" x2="6.037" y2="0.5" xlink:href="#linear-gradient"/>
    <linearGradient id="linear-gradient-9" x1="-30.509" y1="0.5" x2="6.375" y2="0.5" xlink:href="#linear-gradient"/>
    <linearGradient id="linear-gradient-10" x1="-2.751" y1="0.5" x2="5.503" y2="0.5" xlink:href="#linear-gradient"/>
    <linearGradient id="linear-gradient-11" x1="-6.275" y1="0.5" x2="0.761" y2="0.5" xlink:href="#linear-gradient"/>
    <linearGradient id="linear-gradient-12" x1="-3.275" y1="0.5" x2="3.436" y2="0.5" xlink:href="#linear-gradient"/>
    <linearGradient id="linear-gradient-13" x1="-4.358" y1="0.5" x2="2.354" y2="0.5" xlink:href="#linear-gradient"/>
  </defs>
  <g id="logo" transform="translate(-173.148 -818.864)">
    <g id="그룹_123" data-name="그룹 123" transform="translate(173.148 818.864)">
      <path id="패스_17" data-name="패스 17" d="M222.921,840.732V833.88a19.8,19.8,0,0,0-4.268-2.9v5.159A15.425,15.425,0,0,1,222.921,840.732Z" transform="translate(-182.78 -821.428)" fill="url(#linear-gradient)"/>
      <path id="패스_18" data-name="패스 18" d="M202.124,863.368a15.313,15.313,0,1,1,6.657-29.1v-4.8a19.79,19.79,0,1,0,8.656,6.139v12.355h0c0,.031,0,.062,0,.093A15.33,15.33,0,0,1,202.124,863.368Z" transform="translate(-175.102 -820.863)" fill="url(#linear-gradient-2)"/>
      <path id="패스_19" data-name="패스 19" d="M203.9,858.686a8.851,8.851,0,1,1,6.657-14.665v-5.484a13.141,13.141,0,1,0,2.194,1.624v9.581h0c0,.031,0,.061,0,.093A8.861,8.861,0,0,1,203.9,858.686Z" transform="translate(-176.881 -822.643)" fill="url(#linear-gradient-3)"/>
      <path id="패스_20" data-name="패스 20" d="M205.639,844.913a6.657,6.657,0,1,0,6.657,6.657A6.664,6.664,0,0,0,205.639,844.913Z" transform="translate(-178.617 -824.378)" fill="url(#linear-gradient-4)"/>
      <path id="패스_21" data-name="패스 21" d="M222.966,828.918v-6.229a26.909,26.909,0,0,0-4.313-1.934v5.633a21.9,21.9,0,0,1,4.268,2.493C222.937,828.893,222.951,828.906,222.966,828.918Z" transform="translate(-182.78 -819.264)" fill="url(#linear-gradient-5)"/>
      <path id="패스_22" data-name="패스 22" d="M215.527,823.656v6.755a21.865,21.865,0,1,1-8.7-5.259v-5.46a27.055,27.055,0,1,0,8.7,3.964Z" transform="translate(-173.148 -818.864)" fill="url(#linear-gradient-6)"/>
    </g>
    <path id="패스_23" data-name="패스 23" d="M268.276,828.974a1.791,1.791,0,0,0-1.79,1.791V843.16a9.543,9.543,0,0,0-2.59-1.409,8.859,8.859,0,0,0-3.007-.5,9.016,9.016,0,0,0-3.581.713,9.164,9.164,0,0,0-4.885,4.884,9.353,9.353,0,0,0,0,7.162,9.157,9.157,0,0,0,4.885,4.885,9.354,9.354,0,0,0,7.162,0,9.151,9.151,0,0,0,4.884-4.885,9.031,9.031,0,0,0,.713-3.581v-19.66A1.791,1.791,0,0,0,268.276,828.974Zm-1.79,21.451a5.569,5.569,0,0,1-3.414,5.163,5.61,5.61,0,0,1-4.333,0,5.564,5.564,0,0,1-1.785-1.2,5.813,5.813,0,0,1-1.213-1.79,5.47,5.47,0,0,1,0-4.346,5.833,5.833,0,0,1,1.213-1.79,5.578,5.578,0,0,1,1.785-1.2,5.609,5.609,0,0,1,4.333,0,5.57,5.57,0,0,1,1.785,1.2,5.654,5.654,0,0,1,1.2,1.773,5.407,5.407,0,0,1,.434,2.155Z" transform="translate(-16.63 -2.14)" fill="url(#linear-gradient-7)"/>
    <path id="패스_24" data-name="패스 24" d="M296.25,847.175a9.2,9.2,0,0,0-2.92-1.964,9.354,9.354,0,0,0-7.162,0,9.165,9.165,0,0,0-4.885,4.885,9.353,9.353,0,0,0,0,7.162,9.163,9.163,0,0,0,4.885,4.884,9.351,9.351,0,0,0,7.162,0,9.158,9.158,0,0,0,4.884-4.884,9.353,9.353,0,0,0,0-7.162A9.2,9.2,0,0,0,296.25,847.175Zm-1.337,8.675a5.553,5.553,0,0,1-2.981,2.99,5.62,5.62,0,0,1-4.333,0,5.57,5.57,0,0,1-1.785-1.2,5.82,5.82,0,0,1-1.212-1.79,5.461,5.461,0,0,1,0-4.346,5.833,5.833,0,0,1,1.212-1.79,5.582,5.582,0,0,1,1.785-1.2,5.62,5.62,0,0,1,4.333,0,5.623,5.623,0,0,1,2.981,7.336Z" transform="translate(-22.739 -5.426)" fill="url(#linear-gradient-8)"/>
    <path id="패스_25" data-name="패스 25" d="M393.99,829.063a1.79,1.79,0,0,0-1.79,1.79v26.771a1.79,1.79,0,0,0,3.581,0V830.853A1.79,1.79,0,0,0,393.99,829.063Z" transform="translate(-46.369 -2.159)" fill="url(#linear-gradient-9)"/>
    <path id="패스_26" data-name="패스 26" d="M312.983,852.9a4.492,4.492,0,0,1,4.936-4.466,4.625,4.625,0,0,1,4.038,4.667v7.97a1.757,1.757,0,0,0,1.757,1.757h0a1.757,1.757,0,0,0,1.756-1.757v-7.893a8.189,8.189,0,0,0-6.947-8.212,8.01,8.01,0,0,0-9.053,7.934v8.171a1.757,1.757,0,0,0,1.756,1.757h0a1.757,1.757,0,0,0,1.757-1.757Z" transform="translate(-28.857 -5.511)" fill="url(#linear-gradient-10)"/>
    <path id="패스_27" data-name="패스 27" d="M419.436,854.654a2.389,2.389,0,0,0,2.376-2.388,2.444,2.444,0,0,0-.031-.306c-.02-.118-.049-.234-.072-.352-.043-.212-.075-.429-.13-.635a9.431,9.431,0,0,0-9.977-6.929,9.073,9.073,0,0,0-1.752.334,9.239,9.239,0,0,0-1.633.657,9.484,9.484,0,0,0-1.471.941,9.724,9.724,0,0,0-2.314,2.586,9.5,9.5,0,0,0-.773,1.57,9.252,9.252,0,0,0-.473,1.7,8.765,8.765,0,0,0-.139,1.812,9.958,9.958,0,0,0,.252,2.021,9.786,9.786,0,0,0,2.433,4.531,9.673,9.673,0,0,0,1.278,1.13,9.434,9.434,0,0,0,4.813,1.823c.273.024.549.036.824.036a9.545,9.545,0,0,0,8.187-4.677,1.692,1.692,0,1,0-2.9-1.741,6.176,6.176,0,0,1-5.286,3.031,6.257,6.257,0,0,1-6.091-5.147Zm-6.955-7.263a6.049,6.049,0,0,1,5.51,3.582H406.971A6.047,6.047,0,0,1,412.48,847.391Z" transform="translate(-48.664 -5.322)" fill="url(#linear-gradient-11)"/>
    <path id="패스_28" data-name="패스 28" d="M369.243,856.752a4.457,4.457,0,0,0,3.129,1.286,4.3,4.3,0,0,0,1.738-.348,4.652,4.652,0,0,0,1.408-.939,4.283,4.283,0,0,0,.956-1.407,4.445,4.445,0,0,0,0-3.443,4.5,4.5,0,0,0-.956-1.425,4.548,4.548,0,0,0-1.408-.956,4.412,4.412,0,0,0-4.867.956,4.6,4.6,0,0,0-.939,1.425,4.45,4.45,0,0,0,.939,4.85Z" transform="translate(-41.237 -6.416)" fill="none"/>
    <path id="패스_29" data-name="패스 29" d="M342.224,856.752a4.462,4.462,0,0,0,3.13,1.286,4.3,4.3,0,0,0,1.738-.348,4.652,4.652,0,0,0,1.408-.939,4.269,4.269,0,0,0,.955-1.407,4.435,4.435,0,0,0,0-3.443,4.484,4.484,0,0,0-.955-1.425,4.549,4.549,0,0,0-1.408-.956,4.415,4.415,0,0,0-4.868.956,4.628,4.628,0,0,0-.939,1.425,4.435,4.435,0,0,0,0,3.443A4.4,4.4,0,0,0,342.224,856.752Z" transform="translate(-35.518 -6.416)" fill="none"/>
    <path id="패스_30" data-name="패스 30" d="M353.63,864.83a4.2,4.2,0,0,0-2.683-1.252H340.873a1.457,1.457,0,1,1,0-2.915h1.164c.009,0,.019-.005.028-.005h2.579a8.2,8.2,0,0,0,5.368-2.486,8.04,8.04,0,0,0,1.6-2.486,7.8,7.8,0,0,0,.593-3.025,7.932,7.932,0,0,0-.348-2.346,8.522,8.522,0,0,0-.974-2.1h.643a1.791,1.791,0,0,0,0-3.581h-7.353a7.74,7.74,0,0,0-3.112.626,8.092,8.092,0,0,0-4.258,4.276,8.116,8.116,0,0,0-.14,5.893,8.02,8.02,0,0,0,1.356,2.347,5.59,5.59,0,0,0-1.894,1.669,4.18,4.18,0,0,0-.747,2.5,4.311,4.311,0,0,0,.608,2.33,5.279,5.279,0,0,0,1.582,1.616,7.19,7.19,0,0,0,2.19.956,9.9,9.9,0,0,0,2.469.313h8.084a1.612,1.612,0,0,1,.77,3.029,1.594,1.594,0,0,1-.77.2h-7.992a1.79,1.79,0,0,0,0,3.581h8.564a3.835,3.835,0,0,0,1.356-.278,3.991,3.991,0,0,0,1.356-.887,4.791,4.791,0,0,0,1.043-1.6,7.194,7.194,0,0,0,.017-4.78A4.832,4.832,0,0,0,353.63,864.83Zm-13.521-13.889a4.625,4.625,0,0,1,.939-1.425,4.285,4.285,0,0,1,1.408-.956,4.489,4.489,0,0,1,3.46,0,4.546,4.546,0,0,1,1.408.956,4.481,4.481,0,0,1,.955,1.425,4.435,4.435,0,0,1,0,3.443,4.271,4.271,0,0,1-.955,1.407,4.65,4.65,0,0,1-1.408.939,4.476,4.476,0,0,1-3.46,0,4.421,4.421,0,0,1-2.347-5.789Z" transform="translate(-34.341 -5.454)" fill="url(#linear-gradient-12)"/>
    <path id="패스_31" data-name="패스 31" d="M380.648,864.83a4.194,4.194,0,0,0-2.682-1.252H367.891a1.457,1.457,0,0,1,0-2.915h1.164c.009,0,.019-.005.028-.005h2.579a8.132,8.132,0,0,0,2.963-.765,7.9,7.9,0,0,0,4.008-4.207,7.788,7.788,0,0,0,.594-3.025,7.932,7.932,0,0,0-.348-2.346,8.457,8.457,0,0,0-.974-2.1h.643a1.791,1.791,0,0,0,0-3.581H371.2a7.736,7.736,0,0,0-3.111.626,8.09,8.09,0,0,0-4.259,4.276,8.109,8.109,0,0,0-.139,5.893,8,8,0,0,0,1.355,2.347,5.589,5.589,0,0,0-1.894,1.669,4.179,4.179,0,0,0-.747,2.5,4.305,4.305,0,0,0,.609,2.33,5.261,5.261,0,0,0,1.582,1.616,7.172,7.172,0,0,0,2.19.956,9.9,9.9,0,0,0,2.468.313h8.084a1.612,1.612,0,0,1,.77,3.029,1.592,1.592,0,0,1-.77.2H369.34a1.79,1.79,0,0,0,0,3.581H377.9a3.828,3.828,0,0,0,1.356-.278,3.983,3.983,0,0,0,1.356-.887,4.791,4.791,0,0,0,1.044-1.6,7.2,7.2,0,0,0,.016-4.78A4.806,4.806,0,0,0,380.648,864.83Zm-13.52-13.889a4.6,4.6,0,0,1,.939-1.425,4.281,4.281,0,0,1,1.407-.956,4.489,4.489,0,0,1,3.46,0,4.545,4.545,0,0,1,1.408.956,4.5,4.5,0,0,1,.956,1.425,4.445,4.445,0,0,1,0,3.443,4.284,4.284,0,0,1-.956,1.407,4.649,4.649,0,0,1-1.408.939,4.476,4.476,0,0,1-3.46,0,4.422,4.422,0,0,1-2.346-5.789Z" transform="translate(-40.061 -5.454)" fill="url(#linear-gradient-13)"/>
  </g>
</svg>
