<svg xmlns="http://www.w3.org/2000/svg" viewBox="0 0 20.08351 13.41548"><defs><style>.cls-1{fill:#221e1f;}.cls-2{fill:#fff;}.cls-3{fill:#474846;}.cls-4{fill:#c21928;}.cls-5{fill:#003d7f;}.cls-6{fill:#040000;}</style></defs><title>flags_kr</title><g id="레이어_2" data-name="레이어 2"><g id="Layer_1" data-name="Layer 1"><path class="cls-1" d="M0,13.41548V0H20.08351V13.41548Zm20.042-.041v0Zm-19.95849-.042h19.917L20,.082H.08351Z"/><rect class="cls-2" x="0.24171" y="0.24118" width="19.59961" height="12.93311"/><path class="cls-3" d="M19.642.441V12.97448H.442V.441h19.2m.4-.4h-20V13.37448h20V.041Z"/><path class="cls-4" d="M13.3174,6.4087A3.289,3.289,0,1,1,9.7432,3.4326,3.28932,3.28932,0,0,1,13.3174,6.4087Z"/><path class="cls-5" d="M7.229,5.0083a1.64253,1.64253,0,1,0,2.8091,1.7031,1.64208,1.64208,0,0,1,2.8086,1.7022A3.28461,3.28461,0,1,1,7.229,5.0083"/><rect class="cls-6" x="2.53718" y="2.57772" width="3.30064" height="0.51441" transform="translate(-0.50495 4.71984) rotate(-55.98273)"/><rect class="cls-6" x="3.19475" y="3.02146" width="3.30071" height="0.51469" transform="translate(-0.58445 5.45722) rotate(-55.94858)"/><polygon class="cls-6" points="4.367 4.947 4.794 5.234 6.639 2.497 6.212 2.21 4.367 4.947"/><rect class="cls-6" x="14.31194" y="8.70221" width="1.52897" height="0.51448" transform="translate(-0.78539 16.44098) rotate(-55.9735)"/><rect class="cls-6" x="13.32139" y="10.17042" width="1.52912" height="0.51479" transform="matrix(0.55835, -0.82961, 0.82961, 0.55835, -2.42991, 16.29126)"/><rect class="cls-6" x="14.96949" y="9.14595" width="1.52903" height="0.5147" transform="translate(-0.86776 17.17261) rotate(-55.94301)"/><polygon class="cls-6" points="14.103 11.361 14.529 11.65 15.385 10.382 14.958 10.094 14.103 11.361"/><rect class="cls-6" x="15.62691" y="9.58934" width="1.52869" height="0.51412" transform="translate(-0.93177 17.94193) rotate(-56.04168)"/><rect class="cls-6" x="14.63663" y="11.05729" width="1.52924" height="0.51483" transform="translate(-2.58034 17.78645) rotate(-56.09757)"/><polygon class="cls-6" points="15.948 4.789 16.375 4.503 14.53 1.767 14.103 2.054 15.948 4.789"/><rect class="cls-6" x="15.14393" y="1.33607" width="0.5149" height="1.52897" transform="translate(1.46462 8.98397) rotate(-34.05142)"/><rect class="cls-6" x="16.13437" y="2.80479" width="0.51466" height="1.52907" transform="translate(0.81439 9.7963) rotate(-34.07339)"/><rect class="cls-6" x="13.82909" y="2.22297" width="0.51421" height="1.5291" transform="translate(0.73376 8.37812) rotate(-33.95906)"/><rect class="cls-6" x="14.81951" y="3.69166" width="0.51404" height="1.52927" transform="translate(0.08478 9.18999) rotate(-33.99022)"/><rect class="cls-6" x="5.24553" y="8.04355" width="0.51459" height="3.30024" transform="translate(-4.48019 4.73507) rotate(-34.00387)"/><rect class="cls-6" x="3.93079" y="8.93074" width="0.51367" height="3.30013" transform="translate(-5.20046 4.15014) rotate(-33.99711)"/><rect class="cls-6" x="4.0926" y="8.63838" width="0.51499" height="1.52934" transform="translate(-4.51398 4.0394) rotate(-33.99539)"/><polygon class="cls-6" points="5.555 11.648 5.981 11.361 5.127 10.094 4.7 10.381 5.555 11.648"/></g></g></svg>