<?xml version="1.0" encoding="utf-8"?>
<!-- Generator: Adobe Illustrator 23.0.3, SVG Export Plug-In . SVG Version: 6.00 Build 0)  -->
<svg version="1.1" id="레이어_1" xmlns="http://www.w3.org/2000/svg" xmlns:xlink="http://www.w3.org/1999/xlink" x="0px"
	 y="0px" viewBox="0 0 25.7 17.13" style="enable-background:new 0 0 25.7 17.13;" xml:space="preserve">
<style type="text/css">
	.st0{fill:none;stroke:#474846;stroke-width:0.7;stroke-miterlimit:10;}
	.st1{fill:none;stroke:#474846;stroke-width:0.7;stroke-linecap:round;stroke-miterlimit:10;}
	.st2{fill:none;stroke:#FFC800;stroke-width:0.7;stroke-linecap:round;stroke-miterlimit:10;}
</style>
<g>
	<path class="st0" d="M19.49,16.78H3.35c-1.66,0-3-1.34-3-3V6.21c0-1.66,1.34-3,3-3h16.14c1.66,0,3,1.34,3,3v7.57
		C22.49,15.44,21.15,16.78,19.49,16.78z"/>
	<path class="st0" d="M3.21,3.21V2.49c0-1.18,0.96-2.14,2.14-2.14h17.86c1.18,0,2.14,0.96,2.14,2.14v9.29
		c0,1.18-0.96,2.14-2.14,2.14h-0.71"/>
	<g>
		<line class="st1" x1="8.21" y1="6.42" x2="18.56" y2="6.42"/>
		<line class="st1" x1="8.21" y1="9.28" x2="14.64" y2="9.28"/>
	</g>
	<circle class="st2" cx="4.28" cy="7.85" r="1.79"/>
</g>
</svg>
