<svg xmlns="http://www.w3.org/2000/svg" viewBox="0 0 81.5 78.29"><defs><style>.cls-1{fill:#fff;}.cls-1,.cls-2{stroke:#28283c;stroke-miterlimit:10;stroke-width:2.5px;}.cls-2{fill:none;}</style></defs><title>icon_01_pg</title><g id="레이어_2" data-name="레이어 2"><g id="레이어_1-2" data-name="레이어 1"><circle class="cls-1" cx="40.32" cy="39.15" r="16.49"/><ellipse class="cls-2" cx="40.32" cy="39.15" rx="8.6" ry="16.49"/><line class="cls-2" x1="40.32" y1="22.65" x2="40.32" y2="55.64"/><line class="cls-2" x1="26.12" y1="31.02" x2="54.52" y2="31.02"/><line class="cls-2" x1="57.16" y1="39.26" x2="23.47" y2="39.26"/><line class="cls-2" x1="26.12" y1="47.51" x2="54.52" y2="47.51"/><path class="cls-2" d="M77,54.34c2.18,8,1.49,14.77-2.61,18.87-9.16,9.16-31.83,1.33-50.65-17.49A87.89,87.89,0,0,1,7.65,34.09"/><path class="cls-2" d="M4,25.27C1.39,16.74,1.92,9.4,6.25,5.08,15.4-4.08,38.07,3.76,56.89,22.57A86.52,86.52,0,0,1,73.6,45.44"/><ellipse class="cls-2" cx="40.32" cy="39.15" rx="48.18" ry="23.44" transform="translate(-15.87 39.97) rotate(-45)"/><circle class="cls-1" cx="6.02" cy="29.6" r="4.77"/><circle class="cls-1" cx="75.48" cy="49.56" r="4.77"/></g></g></svg>